<svg xmlns="http://www.w3.org/2000/svg" width="20" height="20" viewBox="0 0 16 16"><path d="m14.5 3.13-.06 4.94c-.02 5-5.44 8.05-9.74 5.53-.3-.2-.61-.4-.91-.65L2.66 14.1c-.28.28-.79.15-.88-.25-.06-.19 0-.38.14-.52l1.13-1.13C-.17 8.39 1.92 2.55 6.8 1.65c.36-.07.75-.09 1.12-.09l4.95-.06c.91 0 1.64.73 1.63 1.63m-9.93 9.05c3.21 2.64 8.05.81 8.73-3.28.05-.26.08-.54.08-.83l.03-4.96a.53.53 0 0 0-.53-.54l-4.96.05c-4.15.02-6.7 4.52-4.61 8.11.15.26.31.47.48.7l4.17-4.17c.31-.27.81-.14.9.25.05.19 0 .38-.13.52L4.56 12.2z" style="fill:#888;transform-origin:7.96px 8.04px"/></svg>