<svg width="128" height="128" version="1.1" viewBox="0 0 33.867 33.867" xmlns="http://www.w3.org/2000/svg" xmlns:xlink="http://www.w3.org/1999/xlink">
<defs>
<linearGradient id="linearGradient897" x1="2686" x2="2686" y1="1088.8" y2="1770.4" gradientTransform="matrix(.042779 0 0 .042779 -95.919 -44.867)" gradientUnits="userSpaceOnUse">
<stop stop-color="#fce68c" offset="0"/>
<stop stop-color="#ff7628" offset="1"/>
</linearGradient>
<radialGradient id="radialGradient898" cx="60.636" cy="20.456" r="17.304" gradientTransform="translate(-43.433 -3.9449)" gradientUnits="userSpaceOnUse">
<stop stop-color="#0b0b0b" offset="0"/>
<stop stop-color="#0b0b0b" stop-opacity=".85882" offset=".68076"/>
<stop stop-color="#0b0b0b" stop-opacity=".83137" offset=".69925"/>
<stop stop-color="#0b0b0b" stop-opacity=".80392" offset=".71879"/>
<stop stop-color="#0b0b0b" stop-opacity=".78039" offset=".73593"/>
<stop stop-color="#0b0b0b" stop-opacity=".75686" offset=".75022"/>
<stop stop-color="#0b0b0b" stop-opacity=".73333" offset=".76799"/>
<stop stop-color="#0b0b0b" stop-opacity=".082353" offset=".91501"/>
<stop stop-color="#0b0b0b" stop-opacity=".070588" offset=".92247"/>
<stop stop-color="#0b0b0b" stop-opacity=".058824" offset=".92919"/>
<stop stop-color="#0b0b0b" stop-opacity=".047059" offset=".93841"/>
<stop stop-color="#0b0b0b" stop-opacity=".031373" offset=".94761"/>
<stop stop-color="#0b0b0b" stop-opacity=".023529" offset=".95381"/>
<stop stop-color="#0b0b0b" stop-opacity=".015686" offset=".95886"/>
<stop stop-color="#0b0b0b" stop-opacity=".011765" offset=".96356"/>
<stop stop-color="#0b0b0b" stop-opacity=".0078431" offset=".96845"/>
<stop stop-color="#0b0b0b" stop-opacity=".0039216" offset=".97348"/>
<stop stop-color="#0b0b0b" stop-opacity="0" offset=".97812"/>
<stop stop-color="#0b0b0b" stop-opacity="0" offset=".98456"/>
<stop stop-color="#0b0b0b" stop-opacity="0" offset=".98701"/>
<stop stop-color="#0b0b0b" stop-opacity="0" offset=".98925"/>
<stop stop-color="#0b0b0b" stop-opacity="0" offset="1"/>
</radialGradient>
<radialGradient id="radialGradient993" cx="17.489" cy="3.9765" r="13.696" gradientTransform="matrix(2.0752 0 0 1.5421 -18.496 -.93385)" gradientUnits="userSpaceOnUse">
<stop stop-color="#ffda8e" stop-opacity=".9822" offset="0"/>
<stop stop-color="#ff9131" offset="1"/>
</radialGradient>
<linearGradient id="linearGradient4067" x1="7.9313" x2="7.9313" y1="12.961" y2="61.427" gradientUnits="userSpaceOnUse">
<stop stop-color="#fff9f2" offset="0"/>
<stop stop-color="#ff9131" offset="1"/>
</linearGradient>
</defs>
<circle cx="17.203" cy="16.512" r="17.304" fill="url(#radialGradient898)" opacity=".30973" stroke-linecap="square" stroke-linejoin="round" stroke-width="3"/>
<circle cx="17.203" cy="16.512" r="15.118" fill="url(#linearGradient897)" stroke="#b1aaaa" stroke-linecap="square" stroke-opacity=".99216" stroke-width=".057556"/>
<circle cx="17.203" cy="16.512" r="13.102" fill="url(#radialGradient993)"/>
<g fill="#5e1700" fill-opacity=".049946" stroke-width=".33587">
<path d="m17.473 9.6435c-2.3705 0.05358-5.4357 0.78953-9.6011 1.9903 0.10788 1.1346 0.43527 1.5431 0.58711 2.5151 0.4137 2.6483 0.55462 4.783 1.3854 6.3605 2.5355 4.8141 7.0143 5.2165 17.508 1.0135-2.8112-8.8115-4.6642-11.997-9.8792-11.879zm-7.37 2.6837c0.07572-0.0017 0.15179 0.0064 0.225 0.02362h6.71e-4c0.07322 0.0173 0.14396 0.04397 0.21123 0.07938l6.72e-4 6.7e-4 3.5345 1.7961-0.05904 0.12136 7.4789 3.9254 2.0992 1.4451-0.0066 0.01377c0.18769 0.03083 0.36592 0.06908 0.52742 0.11808 0.13436 0.04079 0.26068 0.08687 0.38047 0.13776 0.23959 0.10174 0.45328 0.22159 0.65402 0.3503 0.10036 0.06437 0.19706 0.13102 0.29257 0.19876 0.19088 0.13536 0.37528 0.27524 0.56612 0.41065l6.71e-4 6.71e-4 -1.7843 0.11083-0.98464-0.56743-6e-3 0.01311-2.4029-0.97414-7.5157-3.7424-0.0492 0.10036-3.5364-1.8099c-0.4384-0.21478-0.57854-0.66102-0.48529-1.0496l-6.716e-4 -6.71e-4c0.00279-0.01155 0.00736-0.02265 0.010536-0.03411 0.00876-0.03156 0.01762-0.0633 0.029527-0.09381 0.0019-5e-3 0.00457-0.0095 0.0066-0.01443 0.074946-0.18314 0.20596-0.34143 0.38507-0.44279 0.013176-0.0075 0.026962-0.01412 0.040672-0.021 0.041002-0.02039 0.084327-0.03709 0.12989-0.05117 0.019803-0.0062 0.039035-0.01285 0.059701-0.01771 0.062493-0.01461 0.12751-0.0253 0.19745-0.0269z"/>
<path d="m17.384 9.9538c-2.3705 0.053581-5.4357 0.78953-9.6011 1.9903 0.10788 1.1346 0.43527 1.5431 0.58711 2.5151 0.4137 2.6483 0.55462 4.783 1.3854 6.3605 2.5355 4.8141 7.0143 5.2165 17.508 1.0135-2.8112-8.8115-4.6642-11.997-9.8792-11.879zm-7.37 2.6837c0.07572-0.0017 0.15179 0.0064 0.225 0.02362h6.71e-4c0.07322 0.0173 0.14396 0.04397 0.21123 0.07938l6.72e-4 6.7e-4 3.5345 1.7961-0.05904 0.12136 7.4789 3.9254 2.0992 1.4451-0.0066 0.01377c0.18769 0.03083 0.36592 0.06908 0.52742 0.11808 0.13436 0.04079 0.26068 0.08687 0.38047 0.13776 0.23959 0.10174 0.45328 0.22159 0.65402 0.3503 0.10036 0.06437 0.19706 0.13102 0.29257 0.19876 0.19088 0.13536 0.37528 0.27524 0.56612 0.41065l6.71e-4 6.71e-4 -1.7843 0.11083-0.98464-0.56743-6e-3 0.01311-2.4029-0.97414-7.5157-3.7424-0.0492 0.10036-3.5364-1.8099c-0.4384-0.21478-0.57854-0.66102-0.48529-1.0496l-6.716e-4 -6.71e-4c0.00279-0.01155 0.00736-0.02265 0.010536-0.03411 0.00876-0.03156 0.01762-0.0633 0.029527-0.09381 0.0019-5e-3 0.00457-0.0095 0.0066-0.01443 0.074946-0.18314 0.20596-0.34143 0.38507-0.44279 0.013176-0.0075 0.026962-0.01412 0.040672-0.021 0.041002-0.02039 0.084327-0.03709 0.12989-0.05117 0.019803-0.0062 0.039035-0.01285 0.059701-0.01771 0.062493-0.01461 0.12751-0.0253 0.19745-0.0269z"/>
<path d="m17.312 10.408c-2.3705 0.05358-5.4357 0.78953-9.6011 1.9903 0.10788 1.1346 0.43527 1.5431 0.58711 2.5151 0.4137 2.6483 0.55462 4.783 1.3854 6.3605 2.5355 4.8141 7.0143 5.2165 17.508 1.0135-2.8112-8.8115-4.6642-11.997-9.8792-11.879zm-7.37 2.6837c0.07572-0.0017 0.15179 0.0064 0.225 0.02362h6.71e-4c0.07322 0.0173 0.14396 0.04397 0.21123 0.07938l6.72e-4 6.7e-4 3.5345 1.7961-0.05904 0.12136 7.4789 3.9254 2.0992 1.4451-0.0066 0.01377c0.18769 0.03083 0.36592 0.06908 0.52742 0.11808 0.13436 0.04079 0.26068 0.08687 0.38047 0.13776 0.23959 0.10174 0.45328 0.22159 0.65402 0.3503 0.10036 0.06437 0.19706 0.13102 0.29257 0.19876 0.19088 0.13536 0.37528 0.27524 0.56612 0.41065l6.71e-4 6.71e-4 -1.7843 0.11083-0.98464-0.56743-6e-3 0.01311-2.4029-0.97414-7.5157-3.7424-0.0492 0.10036-3.5364-1.8099c-0.4384-0.21478-0.57854-0.66102-0.48529-1.0496l-6.716e-4 -6.71e-4c0.00279-0.01155 0.00736-0.02265 0.010536-0.03411 0.00876-0.03156 0.01762-0.0633 0.029527-0.09381 0.0019-5e-3 0.00457-0.0095 0.0066-0.01443 0.074946-0.18314 0.20596-0.34143 0.38507-0.44279 0.013176-0.0075 0.026962-0.01412 0.040672-0.021 0.041002-0.02039 0.084327-0.03709 0.12989-0.05117 0.019803-0.0062 0.039035-0.01285 0.059701-0.01771 0.062493-0.01461 0.12751-0.0253 0.19745-0.0269z"/>
<path d="m16.832 10.963c-2.3705 0.05358-5.4357 0.78953-9.6011 1.9903 0.10788 1.1346 0.43527 1.5431 0.58711 2.5151 0.4137 2.6483 0.55462 4.783 1.3854 6.3605 2.5355 4.8141 7.0143 5.2165 17.508 1.0135-2.8112-8.8115-4.6642-11.997-9.8792-11.879zm-7.37 2.6837c0.07572-0.0017 0.15179 0.0064 0.225 0.02362h6.71e-4c0.07322 0.0173 0.14396 0.04397 0.21123 0.07938l6.72e-4 6.7e-4 3.5345 1.7961-0.05904 0.12136 7.4789 3.9254 2.0992 1.4451-0.0066 0.01377c0.18769 0.03083 0.36592 0.06908 0.52742 0.11808 0.13436 0.04079 0.26068 0.08687 0.38047 0.13776 0.23959 0.10174 0.45328 0.22159 0.65402 0.3503 0.10036 0.06437 0.19706 0.13102 0.29257 0.19876 0.19088 0.13536 0.37528 0.27524 0.56612 0.41065l6.71e-4 6.71e-4 -1.7843 0.11083-0.98464-0.56743-6e-3 0.01311-2.4029-0.97414-7.5157-3.7424-0.0492 0.10036-3.5364-1.8099c-0.4384-0.21478-0.57854-0.66102-0.48529-1.0496l-6.716e-4 -6.71e-4c0.00279-0.01155 0.00736-0.02265 0.010536-0.03411 0.00876-0.03156 0.01762-0.0633 0.029527-0.09381 0.0019-5e-3 0.00457-0.0095 0.0066-0.01443 0.074946-0.18314 0.20596-0.34143 0.38507-0.44279 0.013176-0.0075 0.026962-0.01412 0.040672-0.021 0.041002-0.02039 0.084327-0.03709 0.12989-0.05117 0.019803-0.0062 0.039035-0.01285 0.059701-0.01771 0.062493-0.01461 0.12751-0.0253 0.19745-0.0269z"/>
</g>
<path d="m17.532 9.5221c-2.3705 0.05358-5.4357 0.78953-9.6011 1.9903 0.10788 1.1346 0.43527 1.5431 0.58711 2.5151 0.4137 2.6483 0.55462 4.783 1.3854 6.3605 2.5355 4.8141 7.0143 5.2165 17.508 1.0135-2.8112-8.8115-4.6642-11.997-9.8792-11.879zm-7.37 2.6837c0.07572-0.0017 0.15179 0.0064 0.225 0.02362h6.71e-4c0.07322 0.0173 0.14396 0.04397 0.21123 0.07938l6.72e-4 6.7e-4 3.5345 1.7961-0.05904 0.12136 7.4789 3.9254 2.0992 1.4451-0.0066 0.01377c0.18769 0.03083 0.36592 0.06908 0.52742 0.11808 0.13436 0.04079 0.26068 0.08687 0.38047 0.13776 0.23959 0.10174 0.45328 0.22159 0.65402 0.3503 0.10036 0.06437 0.19706 0.13102 0.29257 0.19876 0.19088 0.13536 0.37528 0.27524 0.56612 0.41065l6.71e-4 6.71e-4 -1.7843 0.11083-0.98464-0.56743-6e-3 0.01311-2.4029-0.97414-7.5157-3.7424-0.0492 0.10036-3.5364-1.8099c-0.4384-0.21478-0.57854-0.66102-0.48529-1.0496l-6.716e-4 -6.71e-4c0.00279-0.01155 0.00736-0.02265 0.010536-0.03411 0.00876-0.03156 0.01762-0.0633 0.029527-0.09381 0.0019-5e-3 0.00457-0.0095 0.0066-0.01443 0.074946-0.18314 0.20596-0.34143 0.38507-0.44279 0.013176-0.0075 0.026962-0.01412 0.040672-0.021 0.041002-0.02039 0.084327-0.03709 0.12989-0.05117 0.019803-0.0062 0.039035-0.01285 0.059701-0.01771 0.062493-0.01461 0.12751-0.0253 0.19745-0.0269z" fill="url(#linearGradient4067)" stroke-width=".33587"/>
</svg>
