<svg width="128" height="128" version="1.1" viewBox="0 0 128 128" xmlns="http://www.w3.org/2000/svg" xmlns:xlink="http://www.w3.org/1999/xlink">
<defs>
<linearGradient id="linearGradient1080" x1="701.81" x2="699.28" y1="398.37" y2="220.53" gradientTransform="matrix(.66355 0 0 .66355 -399.67 -144.99)" gradientUnits="userSpaceOnUse">
<stop stop-color="#cccdd1" offset="0"/>
<stop stop-color="#f7f9f9" offset="1"/>
</linearGradient>
<linearGradient id="linearGradient4543" x1="69.681" x2="64.334" y1="122.57" y2="5.9834" gradientUnits="userSpaceOnUse">
<stop stop-color="#166f7f" offset="0"/>
<stop stop-color="#48e6ba" offset="1"/>
</linearGradient>
</defs>
<circle cx="64.333" cy="64.226" r="60.566" fill="url(#linearGradient4543)" stroke="#cccdd1" stroke-width="4.6449"/>
<path d="m64.334 1.3385c-34.705 0-62.888 28.182-62.888 62.887 0 34.705 28.184 62.888 62.888 62.888 34.705 0 62.887-28.184 62.887-62.888 0-34.705-28.182-62.887-62.887-62.887zm0 4.6449c32.194 0 58.242 26.048 58.242 58.242 0 32.194-26.048 58.243-58.242 58.243-32.194 0-58.243-26.049-58.243-58.243 0-32.194 26.049-58.242 58.243-58.242z" color="#000000" color-rendering="auto" dominant-baseline="auto" fill="url(#linearGradient1080)" image-rendering="auto" shape-rendering="auto" solid-color="#000000" style="font-feature-settings:normal;font-variant-alternates:normal;font-variant-caps:normal;font-variant-ligatures:normal;font-variant-numeric:normal;font-variant-position:normal;isolation:auto;mix-blend-mode:normal;shape-padding:0;text-decoration-color:#000000;text-decoration-line:none;text-decoration-style:solid;text-indent:0;text-orientation:mixed;text-transform:none;white-space:normal"/>
<path d="m77.389 29.41c-3.5788 0-7.2534 4.9493-7.2534 14.507 0 8.7041 2.9014 14.507 2.9014 14.507s23.211-2.9014 23.211-14.507c0-8.7041-8.1727-15.773-11.605-8.7041-1.2959-3.8878-3.7882-5.8027-7.2534-5.8027zm-33.366 2.9014c-8.7041 0-15.773 8.1727-8.7041 11.605-3.8878 1.2959-5.8027 3.7882-5.8027 7.2534 0 3.5788 4.9493 7.2534 14.507 7.2534 8.7041 0 14.507-2.9014 14.507-2.9014s-2.9014-23.211-14.507-23.211zm11.605 37.718s-23.211 2.9014-23.211 14.507c0 8.7041 8.1727 15.773 11.605 8.7041 1.2959 3.8878 3.7882 5.8027 7.2534 5.8027 3.5788 0 7.2534-4.9493 7.2534-14.507 0-8.7041-2.9014-14.507-2.9014-14.507zm29.014 0c-8.7041 0-14.507 2.9014-14.507 2.9014s2.9014 23.211 14.507 23.211c8.7041 0 15.773-8.1727 8.7041-11.605 3.8878-1.2959 5.8027-3.7882 5.8027-7.2534 0-3.5788-4.9493-7.2534-14.507-7.2534z" fill="#f9f9f9" stroke-width=".48356" style="isolation:isolate"/>
</svg>
