<svg width="128" height="128" version="1.1" viewBox="0 0 128 128" xmlns="http://www.w3.org/2000/svg" xmlns:xlink="http://www.w3.org/1999/xlink">
<defs>
<linearGradient id="linearGradient825" x1="-741.83" x2="-741.83" y1="959.05" y2="93.836" gradientTransform="matrix(.13668 0 0 .13668 162.31 -5.9893)" gradientUnits="userSpaceOnUse">
<stop stop-color="#06090d" offset="0"/>
<stop stop-color="#4f5555" offset="1"/>
</linearGradient>
<linearGradient id="linearGradient835" x1="-738.76" x2="-738.76" y1="931.43" y2="152.13" gradientTransform="matrix(.13668 0 0 .13668 162.31 -5.9893)" gradientUnits="userSpaceOnUse">
<stop stop-color="#050a12" offset="0"/>
<stop stop-color="#383c3c" offset="1"/>
</linearGradient>
<linearGradient id="linearGradient1408" x1="707.25" x2="556.47" y1="649.22" y2="306.44" gradientUnits="userSpaceOnUse">
<stop stop-color="#61615e" offset="0"/>
<stop stop-color="#343432" offset="1"/>
</linearGradient>
<linearGradient id="linearGradient823-6">
<stop stop-color="#fd0001" offset="0"/>
<stop stop-color="#fd0001" stop-opacity="0" offset="1"/>
</linearGradient>
<linearGradient id="linearGradient1572-3" x1="861.29" x2="861.29" y1="509.83" y2="64" gradientUnits="userSpaceOnUse">
<stop stop-color="#0a0a0a" offset="0"/>
<stop stop-color="#5d5d5d" offset="1"/>
</linearGradient>
<radialGradient id="radialGradient1201-5" cx="848.34" cy="284.19" r="174.88" gradientTransform="translate(-11.456 4.8922)" gradientUnits="userSpaceOnUse">
<stop stop-color="#9e9e9e" offset="0"/>
<stop offset=".8114"/>
<stop stop-color="#121212" offset=".8761"/>
<stop stop-color="#111" offset=".94956"/>
<stop offset="1"/>
</radialGradient>
<radialGradient id="radialGradient1189-1" cx="-169.9" cy="486.46" r="141.56" gradientTransform="matrix(1.1456 -6.2729e-8 7.4268e-8 1.3563 1032.6 -334.37)" gradientUnits="userSpaceOnUse">
<stop stop-color="#151314" offset="0"/>
<stop stop-color="#1f1d1e" offset=".84674"/>
<stop stop-color="#9e9e9e" offset="1"/>
</radialGradient>
<linearGradient id="linearGradient1075-9" x1="512" x2="512" y1="247.86" y2="68.881" gradientUnits="userSpaceOnUse">
<stop stop-color="#221818" offset="0"/>
<stop stop-color="#998f91" offset="1"/>
</linearGradient>
<radialGradient id="radialGradient1117-0" cx="818.09" cy="229.63" r="53.309" gradientUnits="userSpaceOnUse">
<stop stop-color="#454545" offset="0"/>
<stop stop-opacity="0" offset="1"/>
</radialGradient>
<radialGradient id="radialGradient1127-6" cx="816.34" cy="231.19" r="85.14" gradientUnits="userSpaceOnUse">
<stop stop-color="#fd0000" offset="0"/>
<stop stop-color="#fd0000" stop-opacity="0" offset="1"/>
</radialGradient>
<linearGradient id="linearGradient2092" x1="306.81" x2="306.81" y1="304.23" y2="171.73" gradientTransform="translate(-50.783 4.6062)" gradientUnits="userSpaceOnUse" xlink:href="#linearGradient823-6"/>
<linearGradient id="linearGradient2094" x1="248.18" x2="275.68" y1="304.73" y2="173.94" gradientUnits="userSpaceOnUse" xlink:href="#linearGradient823-6"/>
<linearGradient id="linearGradient2096" x1="257.63" x2="219.9" y1="321.97" y2="181.17" gradientUnits="userSpaceOnUse" xlink:href="#linearGradient823-6"/>
<linearGradient id="linearGradient2098" x1="259.66" x2="241.63" y1="320" y2="176.54" gradientUnits="userSpaceOnUse" xlink:href="#linearGradient823-6"/>
<linearGradient id="linearGradient2100" x1="254.78" x2="254.64" y1="295.93" y2="172.07" gradientUnits="userSpaceOnUse" xlink:href="#linearGradient823-6"/>
<linearGradient id="linearGradient2144" x1="336.17" x2="196.73" y1="318.66" y2="205.03" gradientTransform="translate(528.27 -32.542)" gradientUnits="userSpaceOnUse" xlink:href="#linearGradient823-6"/>
<linearGradient id="linearGradient2146" x1="282.79" x2="172.64" y1="285.61" y2="227.58" gradientTransform="translate(528.27 -32.542)" gradientUnits="userSpaceOnUse" xlink:href="#linearGradient823-6"/>
<linearGradient id="linearGradient2148" x1="161.46" x2="161.46" y1="206.72" y2="308.55" gradientTransform="translate(-21.477 -17.258)" gradientUnits="userSpaceOnUse">
<stop stop-color="#534a4a" offset="0"/>
<stop stop-color="#746b6b" offset="1"/>
</linearGradient>
<linearGradient id="linearGradient1261-0" x1="501.69" x2="598.51" y1="310.24" y2="277.2" gradientUnits="userSpaceOnUse" xlink:href="#linearGradient1245"/>
<linearGradient id="linearGradient1245">
<stop stop-color="#b5b5af" stop-opacity="0" offset="0"/>
<stop stop-color="#364544" offset=".35643"/>
<stop stop-color="#de0e0c" offset=".51511"/>
<stop stop-color="#434846" offset=".7452"/>
<stop stop-color="#b5b5af" stop-opacity="0" offset="1"/>
</linearGradient>
<linearGradient id="linearGradient2150" x1="501.69" x2="598.51" y1="310.24" y2="277.2" gradientTransform="rotate(129.07 615.59 474.58)" gradientUnits="userSpaceOnUse" xlink:href="#linearGradient1245"/>
<linearGradient id="linearGradient1370-7" x1="817.9" x2="817.9" y1="502.24" y2="46.644" gradientUnits="userSpaceOnUse">
<stop stop-color="#060606" offset="0"/>
<stop stop-color="#cdcdcd" offset="1"/>
</linearGradient>
<radialGradient id="radialGradient1723-6" cx="1453.4" cy="441.07" r="325.58" gradientUnits="userSpaceOnUse">
<stop stop-color="#0a0a0a" offset="0"/>
<stop stop-color="#0a0a0a" stop-opacity="0" offset="1"/>
</radialGradient>
</defs>
<circle cx="63.592" cy="64.286" r="61.38" fill="url(#linearGradient825)"/>
<circle cx="63.592" cy="64.286" r="55.09" fill="url(#linearGradient835)"/>
<g transform="matrix(.19591 0 0 .19591 -220.94 -21.824)">
<g transform="translate(623.6 163.38)">
<circle cx="829.83" cy="277.69" r="234.31" fill="url(#linearGradient1572-3)"/>
<g transform="translate(-7.0503 -11.389)">
<circle cx="836.88" cy="289.08" r="174.88" fill="url(#radialGradient1201-5)"/>
<circle cx="836.88" cy="289.08" r="141.56" fill="url(#radialGradient1189-1)"/>
<g transform="translate(20.542 57.893)">
<g transform="translate(319.38 78.306)">
<circle cx="498.71" cy="151.32" r="95.729" fill="url(#linearGradient1075-9)"/>
<path d="m498.71 55.594a95.729 95.729 0 0 0-95.729 95.729 95.729 95.729 0 0 0 0.0781 2.2226 95.729 95.729 0 0 1 95.65-94.154 95.729 95.729 0 0 1 95.652 93.506 95.729 95.729 0 0 0 0.0781-1.5742 95.729 95.729 0 0 0-95.73-95.729z" fill="#fff" fill-opacity=".55"/>
</g>
<circle cx="818.09" cy="229.63" r="53.309" fill="url(#radialGradient1117-0)"/>
<circle cx="816.34" cy="231.19" r="85.14" fill="url(#radialGradient1127-6)" opacity=".207"/>
<g transform="translate(33.749 9.2044)">
<g transform="translate(528.27 -32.542)">
<path d="m255.84 263.29v-94.728l8.2456-0.57527z" fill="url(#linearGradient2092)" opacity=".336"/>
<path d="m256.95 252.34c0-1.2203 17.356-108.47 17.356-108.47l10.576 2.5763z" fill="url(#linearGradient2094)" opacity=".37"/>
<path d="m253.56 254.64-39.593-66.712 20.475-8.5424z" fill="url(#linearGradient2096)" opacity=".537"/>
<path d="m234.44 179.39 19.119 75.254-5.9661-80.271z" fill="url(#linearGradient2098)" opacity=".346"/>
<path d="m247.59 174.37 5.9661 80.271 1.0848-82.576z" fill="url(#linearGradient2100)" opacity=".238"/>
</g>
<g transform="rotate(49.288 557.37 816.66)">
<path d="m255.84 263.29v-94.728l8.2456-0.57527z" fill="url(#linearGradient2092)" opacity=".336"/>
<path d="m256.95 252.34c0-1.2203 17.356-108.47 17.356-108.47l10.576 2.5763z" fill="url(#linearGradient2094)" opacity=".37"/>
<path d="m253.56 254.64-39.593-66.712 20.475-8.5424z" fill="url(#linearGradient2096)" opacity=".537"/>
<path d="m234.44 179.39 19.119 75.254-5.9661-80.271z" fill="url(#linearGradient2098)" opacity=".346"/>
<path d="m247.59 174.37 5.9661 80.271 1.0848-82.576z" fill="url(#linearGradient2100)" opacity=".238"/>
</g>
<g transform="rotate(98.352 531.75 466.56)">
<path d="m255.84 263.29v-94.728l8.2456-0.57527z" fill="url(#linearGradient2092)" opacity=".336"/>
<path d="m256.95 252.34c0-1.2203 17.356-108.47 17.356-108.47l10.576 2.5763z" fill="url(#linearGradient2094)" opacity=".37"/>
<path d="m253.56 254.64-39.593-66.712 20.475-8.5424z" fill="url(#linearGradient2096)" opacity=".537"/>
<path d="m234.44 179.39 19.119 75.254-5.9661-80.271z" fill="url(#linearGradient2098)" opacity=".346"/>
<path d="m247.59 174.37 5.9661 80.271 1.0848-82.576z" fill="url(#linearGradient2100)" opacity=".238"/>
</g>
<g transform="rotate(152.79 521.63 302.31)">
<path d="m255.84 263.29v-94.728l8.2456-0.57527z" fill="url(#linearGradient2092)" opacity=".336"/>
<path d="m256.95 252.34c0-1.2203 17.356-108.47 17.356-108.47l10.576 2.5763z" fill="url(#linearGradient2094)" opacity=".37"/>
<path d="m253.56 254.64-39.593-66.712 20.475-8.5424z" fill="url(#linearGradient2096)" opacity=".537"/>
<path d="m234.44 179.39 19.119 75.254-5.9661-80.271z" fill="url(#linearGradient2098)" opacity=".346"/>
<path d="m247.59 174.37 5.9661 80.271 1.0848-82.576z" fill="url(#linearGradient2100)" opacity=".238"/>
</g>
<g transform="rotate(209.36 514.83 167.58)">
<path d="m255.84 263.29v-94.728l8.2456-0.57527z" fill="url(#linearGradient2092)" opacity=".336"/>
<path d="m256.95 252.34c0-1.2203 17.356-108.47 17.356-108.47l10.576 2.5763z" fill="url(#linearGradient2094)" opacity=".37"/>
<path d="m253.56 254.64-39.593-66.712 20.475-8.5424z" fill="url(#linearGradient2096)" opacity=".537"/>
<path d="m234.44 179.39 19.119 75.254-5.9661-80.271z" fill="url(#linearGradient2098)" opacity=".346"/>
<path d="m247.59 174.37 5.9661 80.271 1.0848-82.576z" fill="url(#linearGradient2100)" opacity=".238"/>
</g>
<g transform="rotate(263.45 506.31 -1.0761)">
<path d="m255.84 263.29v-94.728l8.2456-0.57527z" fill="url(#linearGradient2092)" opacity=".336"/>
<path d="m256.95 252.34c0-1.2203 17.356-108.47 17.356-108.47l10.576 2.5763z" fill="url(#linearGradient2094)" opacity=".37"/>
<path d="m253.56 254.64-39.593-66.712 20.475-8.5424z" fill="url(#linearGradient2096)" opacity=".537"/>
<path d="m234.44 179.39 19.119 75.254-5.9661-80.271z" fill="url(#linearGradient2098)" opacity=".346"/>
<path d="m247.59 174.37 5.9661 80.271 1.0848-82.576z" fill="url(#linearGradient2100)" opacity=".238"/>
</g>
<path d="m781.14 220.14-40.397-61.689-30.873 28.572z" fill="url(#linearGradient2144)"/>
<path d="m779.28 219.43-70.183-24.929v3.4516z" fill="url(#linearGradient2146)"/>
<circle cx="784.02" cy="222.79" r="11.601" fill="#e31c1b"/>
<circle cx="784.02" cy="222.79" r="4.4104" fill="#fff"/>
<path d="m784.02 204.63c-10.018 0-18.158 8.1404-18.158 18.158 0 10.018 8.1404 18.158 18.158 18.158 10.018 0 18.158-8.1404 18.158-18.158 0-10.018-8.1404-18.158-18.158-18.158zm0 1.7988c9.045 0 16.357 7.3143 16.357 16.359 0 9.045-7.3124 16.357-16.357 16.357-9.045 0-16.357-7.3124-16.357-16.357 0-9.045 7.3124-16.359 16.357-16.359z" color="#000000" color-rendering="auto" dominant-baseline="auto" fill="#fff" image-rendering="auto" opacity=".485" shape-rendering="auto" solid-color="#000000" style="font-feature-settings:normal;font-variant-alternates:normal;font-variant-caps:normal;font-variant-ligatures:normal;font-variant-numeric:normal;font-variant-position:normal;isolation:auto;mix-blend-mode:normal;shape-padding:0;text-decoration-color:#000000;text-decoration-line:none;text-decoration-style:solid;text-indent:0;text-orientation:mixed;text-transform:none;white-space:normal"/>
</g>
<g transform="translate(689.01 -6.9788)">
<path d="m127.33 180.83a57.336 57.336 0 0 0-57.334 57.336 57.336 57.336 0 0 0 57.336 57.336 57.336 57.336 0 0 0 57.334-57.336 57.336 57.336 0 0 0-57.336-57.336zm0 6.9043a50.432 50.432 0 0 1 50.434 50.432 50.432 50.432 0 0 1-50.432 50.432 50.432 50.432 0 0 1-50.434-50.432 50.432 50.432 0 0 1 50.432-50.432z" fill="url(#linearGradient2148)"/>
<path d="m127.33 186.68a51.487 51.487 0 0 0-51.486 51.486 51.487 51.487 0 0 0 51.488 51.486 51.487 51.487 0 0 0 51.486-51.486 51.487 51.487 0 0 0-51.488-51.486zm0 1.0547a50.432 50.432 0 0 1 50.434 50.432 50.432 50.432 0 0 1-50.432 50.432 50.432 50.432 0 0 1-50.434-50.432 50.432 50.432 0 0 1 50.432-50.432z" fill="#fff" fill-opacity=".47727"/>
</g>
</g>
<g transform="translate(221.29 -185.49)">
<path d="m615.59 276.61a197.97 197.97 0 0 0-197.97 197.97 197.97 197.97 0 0 0 197.97 197.96 197.97 197.97 0 0 0 197.96-197.96 197.97 197.97 0 0 0-197.96-197.97zm0 27.391a170.58 170.58 0 0 1 170.58 170.58 170.58 170.58 0 0 1-170.58 170.58 170.58 170.58 0 0 1-170.58-170.58 170.58 170.58 0 0 1 170.58-170.58z" fill="url(#linearGradient1408)"/>
<path d="m769.29 599.34a197.97 197.97 0 0 0-28.936-278.47 197.97 197.97 0 0 0-278.47 28.938 197.97 197.97 0 0 0 28.936 278.47 197.97 197.97 0 0 0 278.47-28.935zm-3.1587-2.564a193.9 193.9 0 0 1-272.74 28.34 193.9 193.9 0 0 1-28.343-272.74 193.9 193.9 0 0 1 272.75-28.342 193.9 193.9 0 0 1 28.342 272.75z" fill="#999997"/>
<path d="m615.59 276.61a197.97 197.97 0 0 0-197.97 197.97 197.97 197.97 0 0 0 197.97 197.96 197.97 197.97 0 0 0 197.96-197.96 197.97 197.97 0 0 0-197.96-197.97zm0 4.0684a193.9 193.9 0 0 1 193.9 193.9 193.9 193.9 0 0 1-193.9 193.9 193.9 193.9 0 0 1-193.9-193.9 193.9 193.9 0 0 1 193.9-193.9z" fill="url(#linearGradient1261-0)"/>
<path d="m769.29 599.34a197.97 197.97 0 0 0-28.936-278.47 197.97 197.97 0 0 0-278.47 28.938 197.97 197.97 0 0 0 28.936 278.47 197.97 197.97 0 0 0 278.47-28.935zm-3.1587-2.564a193.9 193.9 0 0 1-272.74 28.34 193.9 193.9 0 0 1-28.343-272.74 193.9 193.9 0 0 1 272.75-28.342 193.9 193.9 0 0 1 28.342 272.75z" fill="url(#linearGradient2150)"/>
</g>
</g>
<path d="m829.83 43.391a234.31 234.31 0 0 0-234.3 234.3 234.31 234.31 0 0 0 234.3 234.3 234.31 234.31 0 0 0 234.3-234.3 234.31 234.31 0 0 0-234.3-234.3zm0 10.305a224 224 0 0 1 224 224 224 224 0 0 1-224 224 224 224 0 0 1-224-224 224 224 0 0 1 224-224z" fill="url(#linearGradient1370-7)"/>
<ellipse cx="828.01" cy="198.28" rx="128.48" ry="84.373" fill="#fff" fill-opacity=".12385"/>
<ellipse cx="833.76" cy="159.93" rx="79.004" ry="38.352" fill="#fff" fill-opacity=".12385"/>
<ellipse cx="833.38" cy="385.82" rx="69.416" ry="30.298" fill="#fff" fill-opacity=".077982"/>
<ellipse cx="837.21" cy="437.6" rx="51.775" ry="19.176" fill="#fff" fill-opacity=".068807"/>
<path d="m901.73 363.04a84.757 54.843 0 0 1-66.818 21.207 84.757 54.843 0 0 1-65.627-20.189 70.567 54.843 0 0 0 66.01 35.529 70.567 54.843 0 0 0 66.436-36.547z" fill="#fff" fill-opacity=".1789"/>
</g>
<circle cx="1453.4" cy="441.07" r="325.58" fill="url(#radialGradient1723-6)" opacity=".25"/>
</g>
</svg>
