<svg width="128" height="128" version="1.1" viewBox="0 0 128 128" xmlns="http://www.w3.org/2000/svg" xmlns:xlink="http://www.w3.org/1999/xlink">
<defs>
<linearGradient id="linearGradient825" x1="-741.83" x2="-741.83" y1="959.05" y2="93.836" gradientTransform="matrix(.13668 0 0 .13668 162.31 -5.9893)" gradientUnits="userSpaceOnUse">
<stop stop-color="#0241b5" offset="0"/>
<stop stop-color="#57b9f2" offset="1"/>
</linearGradient>
<linearGradient id="linearGradient835" x1="-738.76" x2="-738.76" y1="931.43" y2="152.13" gradientTransform="matrix(.13668 0 0 .13668 162.31 -5.9893)" gradientUnits="userSpaceOnUse">
<stop stop-color="#0152ee" offset="0"/>
<stop stop-color="#2ba7ef" offset="1"/>
</linearGradient>
<linearGradient id="linearGradient860" x1="50.303" x2="50.303" y1="40.983" y2="224.23" gradientUnits="userSpaceOnUse">
<stop stop-color="#fff" offset="0"/>
<stop stop-color="#0961ee" offset="1"/>
</linearGradient>
</defs>
<circle cx="63.592" cy="64.286" r="61.38" fill="url(#linearGradient825)"/>
<circle cx="63.592" cy="64.286" r="55.09" fill="url(#linearGradient835)"/>
<g fill="#00206b" opacity=".27377">
<path d="m72.972 23.403c-1.3412 0-1.7523 0.05669-2.7005 0.37115-2.7255 0.90384-4.8883 3.0966-5.7823 5.8624-0.30796 0.95267-0.36393 1.3721-0.36393 2.7283 0 1.3586 0.05582 1.7747 0.36635 2.7352 1.0362 3.2064 3.7399 5.5721 7.0715 6.1874 1.0585 0.1954 2.91 0.03893 4.1211-0.34885 2.6741-0.85572 4.8792-3.0879 5.7682-5.8387 0.31041-0.96053 0.36631-1.3766 0.36631-2.7352 0-1.3586-0.05598-1.7751-0.36631-2.7357-0.89224-2.7609-3.0568-4.9518-5.7871-5.8575-0.94045-0.31181-1.3545-0.3685-2.6933-0.3685zm-3.0092 22.218c-0.21596 0.0036-0.44296 0.01134-0.68308 0.02268-5.7678 0.30236-10.997 3.0364-14.692 7.6808-2.0553 2.5834-3.757 5.4774-4.4427 7.5558-0.64097 1.9429-0.49747 3.2936 0.3893 3.6656 0.71782 0.30123 1.2305-0.10469 2.5679-2.0318 2.3898-3.4439 3.1399-4.4371 4.1763-5.5284 1.3305-1.4011 2.8038-2.4609 3.5642-2.5642 0.71791-0.09751 0.90924 0.1663 0.81205 1.1203-0.083 0.81472-0.13965 0.99504-5.8697 18.696-2.2081 6.8211-4.1679 12.998-4.3553 13.726-0.88124 3.4242-1.1656 7.3797-0.69115 9.615 0.881 4.1502 3.8508 5.7604 8.8213 4.7826 4.4658-0.87851 9.0596-3.9942 12.899-8.7483 2.9728-3.6811 4.9166-7.2932 5.3277-9.8999 0.25633-1.6253-0.16993-2.4282-1.186-2.2352-0.78539 0.14929-1.5724 1.1045-4.5975 5.5799-2.6144 3.8678-3.4413 4.7397-4.404 4.6434-0.76842-0.07672-1.0281-0.60677-1.0011-2.0416 0.01852-0.97727 0.14275-1.6255 0.64964-3.3901 1.191-4.1463 2.8692-9.4073 4.994-15.655 3.1745-9.3334 3.4352-10.157 3.814-12.053 1.2739-6.3776 0.3625-10.619-2.628-12.227-0.99126-0.5328-1.9532-0.73875-3.465-0.71441z" fill-opacity=".1461"/>
<path d="m73.697 24.858c-1.3412 0-1.7523 0.05669-2.7005 0.37115-2.7255 0.90384-4.8883 3.0966-5.7823 5.8624-0.30796 0.95267-0.36393 1.3721-0.36393 2.7283 0 1.3586 0.05582 1.7747 0.36635 2.7352 1.0362 3.2064 3.7399 5.5721 7.0715 6.1874 1.0585 0.1954 2.91 0.03893 4.1211-0.34885 2.6741-0.85572 4.8792-3.0879 5.7682-5.8387 0.31041-0.96053 0.36631-1.3766 0.36631-2.7352 0-1.3586-0.05598-1.7751-0.36631-2.7357-0.89224-2.7609-3.0568-4.9518-5.7871-5.8575-0.94045-0.31181-1.3545-0.3685-2.6933-0.3685zm-3.0092 22.218c-0.21596 0.0036-0.44296 0.01134-0.68308 0.02268-5.7678 0.30236-10.997 3.0364-14.692 7.6808-2.0553 2.5834-3.757 5.4774-4.4427 7.5558-0.64097 1.9429-0.49747 3.2936 0.3893 3.6656 0.71782 0.30123 1.2305-0.10469 2.5679-2.0318 2.3898-3.4439 3.1399-4.4371 4.1763-5.5284 1.3305-1.4011 2.8038-2.4609 3.5642-2.5642 0.71791-0.09751 0.90924 0.1663 0.81205 1.1203-0.083 0.81472-0.13965 0.99504-5.8697 18.696-2.2081 6.8211-4.1679 12.998-4.3553 13.726-0.88124 3.4242-1.1656 7.3797-0.69115 9.615 0.881 4.1502 3.8508 5.7604 8.8213 4.7826 4.4658-0.87851 9.0596-3.9942 12.899-8.7483 2.9728-3.6811 4.9166-7.2932 5.3277-9.8999 0.25633-1.6253-0.16993-2.4282-1.186-2.2352-0.78539 0.14929-1.5724 1.1045-4.5975 5.5799-2.6144 3.8678-3.4413 4.7397-4.404 4.6434-0.76842-0.07672-1.0281-0.60677-1.0011-2.0416 0.01852-0.97727 0.14275-1.6255 0.64964-3.3901 1.191-4.1463 2.8692-9.4073 4.994-15.655 3.1745-9.3334 3.4352-10.157 3.814-12.053 1.2739-6.3776 0.3625-10.619-2.628-12.227-0.99126-0.5328-1.9532-0.73875-3.465-0.71441z" fill-opacity=".09378"/>
<path d="m73.835 26.611c-1.3412 0-1.7523 0.05669-2.7005 0.37115-2.7255 0.90384-4.8883 3.0966-5.7823 5.8624-0.30796 0.95267-0.36393 1.3721-0.36393 2.7283 0 1.3586 0.05582 1.7747 0.36635 2.7352 1.0362 3.2064 3.7399 5.5721 7.0715 6.1874 1.0585 0.1954 2.91 0.03893 4.1211-0.34885 2.6741-0.85572 4.8792-3.0879 5.7682-5.8387 0.31041-0.96053 0.36631-1.3766 0.36631-2.7352 0-1.3586-0.05598-1.7751-0.36631-2.7357-0.89224-2.7609-3.0568-4.9518-5.7871-5.8575-0.94045-0.31181-1.3545-0.3685-2.6933-0.3685zm-3.0092 22.218c-0.21596 0.0036-0.44296 0.01134-0.68308 0.02268-5.7678 0.30236-10.997 3.0364-14.692 7.6808-2.0553 2.5834-3.757 5.4774-4.4427 7.5558-0.64097 1.9429-0.49747 3.2936 0.3893 3.6656 0.71782 0.30123 1.2305-0.10469 2.5679-2.0318 2.3898-3.4439 3.1399-4.4371 4.1763-5.5284 1.3305-1.4011 2.8038-2.4609 3.5642-2.5642 0.71791-0.09751 0.90924 0.1663 0.81205 1.1203-0.083 0.81472-0.13965 0.99504-5.8697 18.696-2.2081 6.8211-4.1679 12.998-4.3553 13.726-0.88124 3.4242-1.1656 7.3797-0.69115 9.615 0.881 4.1502 3.8508 5.7604 8.8213 4.7826 4.4658-0.87851 9.0596-3.9942 12.899-8.7483 2.9728-3.6811 4.9166-7.2932 5.3277-9.8999 0.25633-1.6253-0.16993-2.4282-1.186-2.2352-0.78539 0.14929-1.5724 1.1045-4.5975 5.5799-2.6144 3.8678-3.4413 4.7397-4.404 4.6434-0.76842-0.07672-1.0281-0.60677-1.0011-2.0416 0.01852-0.97727 0.14275-1.6255 0.64964-3.3901 1.191-4.1463 2.8692-9.4073 4.994-15.655 3.1745-9.3334 3.4352-10.157 3.814-12.053 1.2739-6.3776 0.3625-10.619-2.628-12.227-0.99126-0.5328-1.9532-0.73875-3.465-0.71441z" fill-opacity=".09378"/>
<path d="m73.692 27.549c-1.3412 0-1.7523 0.05669-2.7005 0.37115-2.7255 0.90384-4.8883 3.0966-5.7823 5.8624-0.30796 0.95267-0.36393 1.3721-0.36393 2.7283 0 1.3586 0.05582 1.7747 0.36635 2.7352 1.0362 3.2064 3.7399 5.5721 7.0715 6.1874 1.0585 0.1954 2.91 0.03893 4.1211-0.34885 2.6741-0.85572 4.8792-3.0879 5.7682-5.8387 0.31041-0.96053 0.36631-1.3766 0.36631-2.7352 0-1.3586-0.05598-1.7751-0.36631-2.7357-0.89224-2.7609-3.0568-4.9518-5.7871-5.8575-0.94045-0.31181-1.3545-0.3685-2.6933-0.3685zm-3.0092 22.218c-0.21596 0.0036-0.44296 0.01134-0.68308 0.02268-5.7678 0.30236-10.997 3.0364-14.692 7.6808-2.0553 2.5834-3.757 5.4774-4.4427 7.5558-0.64097 1.9429-0.49747 3.2936 0.3893 3.6656 0.71782 0.30123 1.2305-0.10469 2.5679-2.0318 2.3898-3.4439 3.1399-4.4371 4.1763-5.5284 1.3305-1.4011 2.8038-2.4609 3.5642-2.5642 0.71791-0.09751 0.90924 0.1663 0.81205 1.1203-0.083 0.81472-0.13965 0.99504-5.8697 18.696-2.2081 6.8211-4.1679 12.998-4.3553 13.726-0.88124 3.4242-1.1656 7.3797-0.69115 9.615 0.881 4.1502 3.8508 5.7604 8.8213 4.7826 4.4658-0.87851 9.0596-3.9942 12.899-8.7483 2.9728-3.6811 4.9166-7.2932 5.3277-9.8999 0.25633-1.6253-0.16993-2.4282-1.186-2.2352-0.78539 0.14929-1.5724 1.1045-4.5975 5.5799-2.6144 3.8678-3.4413 4.7397-4.404 4.6434-0.76842-0.07672-1.0281-0.60677-1.0011-2.0416 0.01852-0.97727 0.14275-1.6255 0.64964-3.3901 1.191-4.1463 2.8692-9.4073 4.994-15.655 3.1745-9.3334 3.4352-10.157 3.814-12.053 1.2739-6.3776 0.3625-10.619-2.628-12.227-0.99126-0.5328-1.9532-0.73875-3.465-0.71441z" fill-opacity=".09378"/>
</g>
<path d="m71.295 22.566c-1.3412 0-1.7523 0.05669-2.7005 0.37115-2.7255 0.90384-4.8883 3.0966-5.7823 5.8624-0.30796 0.95267-0.36393 1.3721-0.36393 2.7283 0 1.3586 0.05582 1.7747 0.36635 2.7352 1.0362 3.2064 3.7399 5.5721 7.0715 6.1874 1.0585 0.1954 2.91 0.03893 4.1211-0.34885 2.6741-0.85572 4.8792-3.0879 5.7682-5.8387 0.31041-0.96053 0.36631-1.3766 0.36631-2.7352 0-1.3586-0.05598-1.7751-0.36631-2.7357-0.89224-2.7609-3.0568-4.9518-5.7871-5.8575-0.94045-0.31181-1.3545-0.3685-2.6933-0.3685zm-3.0092 22.218c-0.21596 0.0036-0.44296 0.01134-0.68308 0.02268-5.7678 0.30236-10.997 3.0364-14.692 7.6808-2.0553 2.5834-3.757 5.4774-4.4427 7.5558-0.64097 1.9429-0.49747 3.2936 0.3893 3.6656 0.71782 0.30123 1.2305-0.10469 2.5679-2.0318 2.3898-3.4439 3.1399-4.4371 4.1763-5.5284 1.3305-1.4011 2.8038-2.4609 3.5642-2.5642 0.71791-0.09751 0.90924 0.1663 0.81205 1.1203-0.083 0.81472-0.13965 0.99504-5.8697 18.696-2.2081 6.8211-4.1679 12.998-4.3553 13.726-0.88124 3.4242-1.1656 7.3797-0.69115 9.615 0.881 4.1502 3.8508 5.7604 8.8213 4.7826 4.4658-0.87851 9.0596-3.9942 12.899-8.7483 2.9728-3.6811 4.9166-7.2932 5.3277-9.8999 0.25633-1.6253-0.16993-2.4282-1.186-2.2352-0.78539 0.14929-1.5724 1.1045-4.5975 5.5799-2.6144 3.8678-3.4413 4.7397-4.404 4.6434-0.76842-0.07672-1.0281-0.60677-1.0011-2.0416 0.01852-0.97727 0.14275-1.6255 0.64964-3.3901 1.191-4.1463 2.8692-9.4073 4.994-15.655 3.1745-9.3334 3.4352-10.157 3.814-12.053 1.2739-6.3776 0.3625-10.619-2.628-12.227-0.99126-0.5328-1.9532-0.73875-3.465-0.71441z" fill="url(#linearGradient860)"/>
</svg>
