<svg width="136.53" height="136.53" version="1.1" viewBox="0 0 136.53 136.53" xmlns="http://www.w3.org/2000/svg" xmlns:xlink="http://www.w3.org/1999/xlink">
<defs>
<linearGradient id="linearGradient4186" x1="30.858" x2="116.88" y1="16.587" y2="116.38" gradientUnits="userSpaceOnUse">
<stop stop-color="#f5f5f5" offset="0"/>
<stop stop-color="#ebeae6" offset="1"/>
</linearGradient>
<linearGradient id="linearGradient4319" x1="99.703" x2="60.766" y1="125.93" y2="16.877" gradientUnits="userSpaceOnUse">
<stop stop-color="#ff8409" offset="0"/>
<stop stop-color="#ff942a" offset="1"/>
</linearGradient>
</defs>
<circle cx="68.953" cy="68.366" r="64.022" fill="url(#linearGradient4319)" stroke="url(#linearGradient4186)" stroke-width="6"/>
<path d="m71.738 33.844v82.151" fill="none" stroke="#fff" stroke-opacity=".23954" stroke-width="1.5"/>
<path d="m81.573 105v-76.945" fill="none" stroke="#fff" stroke-opacity=".23954" stroke-width="1.5"/>
<path d="m26.034 80.416 65.781-37.979" fill="none" stroke="#fff" stroke-opacity=".23954" stroke-width="1.5"/>
<path d="m100.66 48.597-76.656 44.257" fill="none" stroke="#fff" stroke-opacity=".23954" stroke-width="1.5"/>
<path d="m37.315 65.663 67.743 39.111" fill="none" stroke="#fff" stroke-opacity=".23954" stroke-width="1.5"/>
<path d="m99.797 89.962-65.956-38.079" fill="none" stroke="#fff" stroke-opacity=".23954" stroke-width="1.5"/>
<path d="m71.593 31.241v79.982" fill="none" stroke="#fff" stroke-opacity=".80228" stroke-width=".5"/>
<path d="m81.428 26.468v80.994" fill="none" stroke="#fff" stroke-opacity=".80228" stroke-width=".5"/>
<path d="m106.16 105.29-72.474-41.843" fill="none" stroke="#fff" stroke-opacity=".80228" stroke-width=".5"/>
<path d="m33.41 51.345 69.396 40.066" fill="none" stroke="#fff" stroke-opacity=".80228" stroke-width=".5"/>
<path d="m97.482 50.477-70.426 40.66" fill="none" stroke="#fff" stroke-opacity=".80228" stroke-width=".5"/>
<path d="m25.311 81.284c0.8678-0.72316 68.698-39.663 68.698-39.663" fill="none" stroke="#fff" stroke-opacity=".80228" stroke-width=".5"/>
<path d="m38.762 52.936c-0.4339 1.4463-1.7356 16.922-1.7356 16.922" fill="none" stroke="#fff" stroke-opacity=".34601" stroke-width="1.5"/>
<path d="m86.635 43.824c1.591 0.14463 14.319 10.992 14.319 10.992" fill="none" stroke="#fff" stroke-opacity=".34601" stroke-width="1.5"/>
<path d="m69.858 39.195c0.72316-0.14463 14.029-6.7977 14.029-6.7977" fill="none" stroke="#fff" stroke-opacity=".34601" stroke-width="1.5"/>
<path d="m98.061 86.056c0 0.8678-0.8678 18.368-0.8678 18.368" fill="none" stroke="#fff" stroke-opacity=".34601" stroke-width="1.5"/>
<path d="m69.713 109.34c1.591-0.28927 16.344-8.5333 16.344-8.5333" fill="none" stroke="#fff" stroke-opacity=".34601" stroke-width="1.5"/>
<path d="m38.906 51.489-2.3141 20.827" fill="none" stroke="#fff" stroke-width=".5"/>
<path d="m85.912 42.811c0.57853 0.28926 13.74 10.558 13.74 10.558" fill="none" stroke="#fff" stroke-width=".5"/>
<path d="m73.473 37.171 12.005-5.6407" fill="none" stroke="#fff" stroke-width=".5"/>
<path d="m68.411 109.92 18.947-9.6904" fill="none" stroke="#fff" stroke-width=".5"/>
<path d="m97.916 84.321-0.4339 21.695" fill="none" stroke="#fff" stroke-width=".5"/>
<path d="m28.493 77.523 6.6531 13.306" fill="none" stroke="#fff" stroke-opacity=".15589" stroke-width="2"/>
<path d="m27.191 75.643 9.6904 19.092" fill="none" stroke="#fff" stroke-opacity=".15589" stroke-width="1px"/>
<path d="m27.71 76.871 9.0156 17.059" fill="none" stroke="#fff" stroke-opacity=".65779" stroke-width=".5"/>
</svg>
