<svg width="128" height="128" version="1.1" viewBox="0 0 128 128" xmlns="http://www.w3.org/2000/svg" xmlns:xlink="http://www.w3.org/1999/xlink">
<defs>
<linearGradient id="linearGradient826" x1="66.53" x2="64.334" y1="122.26" y2="5.9834" gradientUnits="userSpaceOnUse">
<stop stop-color="#d031e1" offset="0"/>
<stop stop-color="#e78df9" offset="1"/>
</linearGradient>
</defs>
<linearGradient id="b" x1="66.016" x2="64.334" y1="119.35" y2="1.3385" gradientUnits="userSpaceOnUse">
<stop stop-color="#dcdde0" offset="0"/>
<stop stop-color="#f7f9f9" offset="1"/>
</linearGradient>
<path d="m124.9 64.226a60.566 60.566 0 0 1-60.566 60.566 60.566 60.566 0 0 1-60.566-60.566 60.566 60.566 0 0 1 60.566-60.566 60.566 60.566 0 0 1 60.566 60.566z" fill="url(#linearGradient826)" stroke="#cccdd1" stroke-width="4.6449"/>
<path d="m64.334 1.3385c-34.705 0-62.888 28.182-62.888 62.887 0 34.705 28.184 62.888 62.888 62.888 34.705 0 62.887-28.184 62.887-62.888 0-34.705-28.182-62.887-62.887-62.887zm0 4.6449c32.194 0 58.242 26.048 58.242 58.242 0 32.194-26.048 58.243-58.242 58.243-32.194 0-58.243-26.049-58.243-58.243 0-32.194 26.049-58.242 58.243-58.242z" fill="url(#b)"/>
<path d="m64.655 34.009c-16.686-1.2e-4 -30.213 13.198-30.213 29.48 0.0011 7.6947 3.0855 15.084 8.5944 20.59 0.01583 3.0339-0.0886 7.6818-3.285 11.271 8.5078 0.69489 13.184-2.0819 16.334-3.6082 2.7812 0.80872 5.6673 1.2222 8.5693 1.2278 16.686-6e-4 30.212-13.2 30.212-29.481-3.3e-4 -16.281-13.526-29.479-30.212-29.48zm0 10.218c1.9781 0 3.5699 1.7971 3.5699 4.0288v16.113c0 2.2317-1.5918 4.0288-3.5699 4.0288-1.9781 0-3.5712-1.7971-3.5712-4.0288v-16.113c0-2.2317 1.5931-4.0288 3.5712-4.0288zm0 28.748a4.8523 4.8523 0 0 1 4.8517 4.8517 4.8523 4.8523 0 0 1-4.8517 4.8531 4.8523 4.8523 0 0 1-4.8531-4.8531 4.8523 4.8523 0 0 1 4.8531-4.8517z" fill="none" stroke="#19191b" stroke-linecap="round" stroke-linejoin="round" stroke-opacity=".10985" style="paint-order:fill markers stroke"/>
<path d="m64.655 34.009c-16.686-1.2e-4 -30.213 13.198-30.213 29.48 0.0011 7.6947 3.0855 15.084 8.5944 20.59 0.01583 3.0339-0.0886 7.6818-3.285 11.271 8.5078 0.69489 13.184-2.0819 16.334-3.6082 2.7812 0.80872 5.6673 1.2222 8.5693 1.2278 16.686-6e-4 30.212-13.2 30.212-29.481-3.3e-4 -16.281-13.526-29.479-30.212-29.48zm0 10.218c1.9781 0 3.5699 1.7971 3.5699 4.0288v16.113c0 2.2317-1.5918 4.0288-3.5699 4.0288-1.9781 0-3.5712-1.7971-3.5712-4.0288v-16.113c0-2.2317 1.5931-4.0288 3.5712-4.0288zm0 28.748a4.8523 4.8523 0 0 1 4.8517 4.8517 4.8523 4.8523 0 0 1-4.8517 4.8531 4.8523 4.8523 0 0 1-4.8531-4.8531 4.8523 4.8523 0 0 1 4.8531-4.8517z" fill="none" stroke="#19191b" stroke-linecap="round" stroke-linejoin="round" stroke-opacity=".064394" stroke-width="2" style="paint-order:fill markers stroke"/>
<path d="m64.655 34.009c-16.686-1.2e-4 -30.213 13.198-30.213 29.48 0.0011 7.6947 3.0855 15.084 8.5944 20.59 0.01583 3.0339-0.0886 7.6818-3.285 11.271 8.5078 0.69489 13.184-2.0819 16.334-3.6082 2.7812 0.80872 5.6673 1.2222 8.5693 1.2278 16.686-6e-4 30.212-13.2 30.212-29.481-3.3e-4 -16.281-13.526-29.479-30.212-29.48zm0 10.218c1.9781 0 3.5699 1.7971 3.5699 4.0288v16.113c0 2.2317-1.5918 4.0288-3.5699 4.0288-1.9781 0-3.5712-1.7971-3.5712-4.0288v-16.113c0-2.2317 1.5931-4.0288 3.5712-4.0288zm0 28.748a4.8523 4.8523 0 0 1 4.8517 4.8517 4.8523 4.8523 0 0 1-4.8517 4.8531 4.8523 4.8523 0 0 1-4.8531-4.8531 4.8523 4.8523 0 0 1 4.8531-4.8517z" fill="none" stroke="#19191b" stroke-linecap="round" stroke-linejoin="round" stroke-opacity=".090909" stroke-width="3" style="paint-order:fill markers stroke"/>
<path d="m64.655 34.009c-16.686-1.2e-4 -30.213 13.198-30.213 29.48 0.0011 7.6947 3.0855 15.084 8.5944 20.59 0.01583 3.0339-0.0886 7.6818-3.285 11.271 8.5078 0.69489 13.184-2.0819 16.334-3.6082 2.7812 0.80872 5.6673 1.2222 8.5693 1.2278 16.686-6e-4 30.212-13.2 30.212-29.481-3.3e-4 -16.281-13.526-29.479-30.212-29.48zm0 10.218c1.9781 0 3.5699 1.7971 3.5699 4.0288v16.113c0 2.2317-1.5918 4.0288-3.5699 4.0288-1.9781 0-3.5712-1.7971-3.5712-4.0288v-16.113c0-2.2317 1.5931-4.0288 3.5712-4.0288zm0 28.748a4.8523 4.8523 0 0 1 4.8517 4.8517 4.8523 4.8523 0 0 1-4.8517 4.8531 4.8523 4.8523 0 0 1-4.8531-4.8531 4.8523 4.8523 0 0 1 4.8531-4.8517z" fill="#fff" style="paint-order:fill markers stroke"/>
</svg>
