<svg width="128" height="128" viewBox="0 0 128 128" xmlns="http://www.w3.org/2000/svg">
<linearGradient id="a" x1="717.89" x2="717.89" y1="-77.54" y2="-33.496" gradientUnits="userSpaceOnUse">
<stop stop-color="#3cc5dc" offset="0"/>
<stop stop-color="#245ee1" offset="1"/>
</linearGradient>
<filter id="b" x="-.0444" y="-.0444" width="1.0888" height="1.0888" color-interpolation-filters="sRGB">
<feGaussianBlur stdDeviation=".80923051"/>
</filter>
<filter id="c" x="-.10695" y="-.089077" width="1.2139" height="1.1782" color-interpolation-filters="sRGB">
<feGaussianBlur stdDeviation="1.0084679"/>
</filter>
<g transform="matrix(2.3656 0 0 2.3656 -1635.6 198.19)">
<circle cx="717.89" cy="-56.267" r="24.269" fill="url(#a)" stroke-width="1.0125"/>
<path d="m717.89-78.139c-12.066 0-21.871 9.8049-21.871 21.871s9.8049 21.871 21.871 21.871 21.871-9.8049 21.871-21.871-9.8049-21.871-21.871-21.871zm0 2.1992c10.877 0 19.672 8.7946 19.672 19.672s-8.7946 19.672-19.672 19.672-19.67-8.7946-19.67-19.672 8.7927-19.672 19.67-19.672z" filter="url(#b)" opacity=".539"/>
<circle cx="717.89" cy="-56.267" r="20.771" fill="none" stroke="#fff" stroke-width="2.2"/>
<path d="m717.69-69.875c-1.6914 0-3.0625 1.3711-3.0625 3.0625s1.3711 3.0625 3.0625 3.0625 3.0625-1.3711 3.0625-3.0625-1.3711-3.0625-3.0625-3.0625zm10.449 7.1172-20.098 0.125c-1.6881-0.0109-1.6722 2.532 0.0156 2.5l5.8475 0.77924c1.7415 0.5657 1.1238 1.7467 0.98288 2.9834-0.44272 3.8645-1.7172 8.0492-2.5687 11.97-0.60372 1.612 1.8683 2.4482 2.3672 0.80078l1.9746-5.8496c0.63494-0.71454 1.3637-0.68614 2.1856 0.25195l1.8477 5.4727c0.49888 1.6474 2.9709 0.81118 2.3672-0.80078-1.3441-3.6394-2.0703-7.4226-2.3292-11.236 0.0357-1.8296-0.41962-3.164 0.95716-3.5901l6.4658-0.90609c1.6881 0.0109 1.6722-2.532-0.0156-2.5z" fill="#161616" filter="url(#c)" opacity=".688"/>
<path d="m717.69-69.875c-1.6914 0-3.0625 1.3711-3.0625 3.0625s1.3711 3.0625 3.0625 3.0625 3.0625-1.3711 3.0625-3.0625-1.3711-3.0625-3.0625-3.0625zm10.449 7.1172-20.098 0.125c-1.6881-0.0109-1.6722 2.532 0.0156 2.5l5.8475 0.77924c1.7415 0.5657 1.1238 1.7467 0.98288 2.9834-0.44272 3.8645-1.7172 8.0492-2.5687 11.97-0.60372 1.612 1.8683 2.4482 2.3672 0.80078l1.9746-5.8496c0.63494-0.71454 1.3637-0.68614 2.1856 0.25195l1.8477 5.4727c0.49888 1.6474 2.9709 0.81118 2.3672-0.80078-1.3441-3.6394-2.0703-7.4226-2.3292-11.236 0.0357-1.8296-0.41962-3.164 0.95716-3.5901l6.4658-0.90609c1.6881 0.0109 1.6722-2.532-0.0156-2.5z" fill="#fff"/>
</g>
</svg>
