<svg width="128" height="128" version="1.1" viewBox="0 0 128 128" xmlns="http://www.w3.org/2000/svg" xmlns:xlink="http://www.w3.org/1999/xlink">
<defs>
<linearGradient id="linearGradient825" x1="-741.83" x2="-741.83" y1="959.05" y2="93.836" gradientTransform="matrix(.13668 0 0 .13668 162.31 -5.9893)" gradientUnits="userSpaceOnUse">
<stop stop-color="#480080" offset="0"/>
<stop stop-color="#ce68f7" offset="1"/>
</linearGradient>
<linearGradient id="linearGradient835" x1="-738.76" x2="-738.76" y1="931.43" y2="152.13" gradientTransform="matrix(.13668 0 0 .13668 162.31 -5.9893)" gradientUnits="userSpaceOnUse">
<stop stop-color="#862cc1" offset="0"/>
<stop stop-color="#cd67f7" offset="1"/>
</linearGradient>
</defs>
<circle cx="63.592" cy="64.286" r="61.38" fill="url(#linearGradient825)"/>
<circle cx="63.592" cy="64.286" r="55.09" fill="url(#linearGradient835)" opacity=".8"/>
<g transform="translate(1.8983 -.54237)">
<g transform="translate(-133.4 10.998)" fill="none" stroke="#242225" stroke-linecap="round" stroke-linejoin="round" stroke-opacity=".0078431">
<path d="m195.27 12.667c-1.7157-7.08e-4 -3.4306 0.04594-4.2532 0.13961-10.082 1.1473-18.337 5.3141-25.461 12.852-4.795 5.0734-8.0744 11.193-9.8305 18.345-0.5745 2.3397-0.72462 3.3635-0.86114 5.887-0.14037 2.5949 4e-3 7.0847 0.30133 9.3495 0.43017 3.2818 1.7148 7.4822 3.4266 11.204 3.1662 6.8849 8.2782 12.677 14.892 16.877 2.0881 1.3259 6.3336 3.5016 8.1082 4.155 0.53648 0.19753 0.63193 0.19627 0.80171-8e-3 0.31462-0.37909-0.0983-3.8721-0.56534-4.7826-0.2999-0.58465-0.60237-0.81811-1.902-1.4666-7.1106-3.548-12.764-9.2953-16.367-16.637-1.5551-3.1686-2.6206-6.3319-2.9801-8.8505-0.40534-2.8394-0.47605-7.5435-0.16726-11.163 0.27606-3.2358 1.2112-6.4326 2.929-10.012 2.6074-5.4326 6.3388-9.9879 11.099-13.553 4.6347-3.4707 10.137-5.785 15.561-6.5435 1.4129-0.19759 7.4828-0.27196 9.3398-0.11473 4.2421 0.35917 7.8412 1.4286 12.066 3.5855 7.6091 3.8852 13.714 10.631 16.912 18.688 1.7098 4.308 2.1588 7.0391 2.1591 13.137 2.3e-4 4.8726-0.26145 6.8127-1.3629 10.11-1.6504 4.94-4.2515 9.3923-7.7295 13.228-2.78 3.066-6.9235 6.2272-10.441 7.9672-1.607 0.79485-1.9092 1.0614-2.2268 1.9614-0.41211 1.168-0.68728 4.1437-0.40914 4.4218 0.23081 0.23082 1.0851-0.0858 3.5676-1.3187 2.4838-1.2336 5.8505-3.1937 7.4019-4.3098 7.1426-5.1389 12.809-13.326 15.159-21.902 0.97022-3.54 1.1662-5.0319 1.2523-9.5389 0.0722-3.7777-0.0694-6.5469-0.42712-8.3432-1.3703-6.8818-4.0131-12.734-7.9935-17.702-2.056-2.5664-4.6594-5.1973-6.9333-7.0052-6.1309-4.8745-12.797-7.602-20.806-8.5146-0.82769-0.09432-2.5444-0.14303-4.2601-0.14376zm-0.11749 13.475c-3.0364 0.01505-5.9918 0.39124-7.9548 1.0491-4.191 1.4045-8.3388 4.0235-11.468 7.243-2.9429 3.0273-5.0342 6.4663-6.368 10.47-0.95072 2.8542-1.2465 5.2521-1.1417 9.2458 0.0362 1.3823 0.14544 2.999 0.24742 3.6519 0.79952 5.1183 4.1468 11.342 8.1234 15.107 0.54418 0.5151 1.1706 1.0594 1.3933 1.2095 0.22264 0.15006 0.83268 0.57812 1.356 0.95098 0.52331 0.37286 1.0054 0.66049 1.0712 0.6386 0.0658-0.0219 0.15296-0.18814 0.19213-0.36907 0.0391-0.18092 0.077-1.471 0.0843-2.8668l0.0125-2.5378-1.3062-1.5772c-2.7846-3.3611-4.3456-6.2541-5.2346-9.702-2.178-8.4472 0.89912-17.258 7.9548-22.777 3.333-2.6069 7.3325-4.0763 12.401-4.5559 2.5662-0.24279 7.2936 0.73526 10.249 2.1204 5.223 2.4476 9.5418 7.3868 11.401 13.036 0.86033 2.6145 1.0114 3.6361 1.0063 6.8255-4e-3 2.556-0.027 2.868-0.30547 4.1744-0.60325 2.8293-1.8123 5.7221-3.3478 8.0101-0.43463 0.64765-1.4033 1.9136-2.1521 2.8129l-1.3615 1.6338 0.0345 2.7852c0.0245 2.0225 0.0716 2.8238 0.17278 2.9248 0.1868 0.18656 1.2806-0.56166 2.7921-1.9089 5.3241-4.7454 8.1571-9.9912 9.2666-17.162 0.30096-1.9452 0.27248-5.5609-0.058-7.442-0.50908-2.897-1.2169-5.0997-2.4452-7.6106-4.2144-8.6151-12.633-14.572-21.585-15.272-0.99638-0.07796-2.0177-0.11283-3.0299-0.10781zm0.20596 14.494c-1.7918-9.2e-4 -2.058 0.02495-2.8986 0.28336-2.3599 0.72553-4.6154 2.7218-5.7211 5.0659-0.54328 1.1518-0.74564 1.9875-0.8169 3.3727-0.10793 2.0982 0.39925 4.1075 1.432 5.6796 0.60036 0.91391 2.2168 2.5131 3.1888 3.1543 2.2864 1.5082 5.0698 1.9829 7.6977 1.3131 3.3444-0.85235 5.85-3.3011 6.8863-6.7301 0.26297-0.87021 0.29995-1.186 0.29995-2.571s-0.0369-1.6994-0.29995-2.5696c-1.035-3.4249-3.4731-5.8136-6.8932-6.7509-0.76768-0.21038-1.1958-0.24654-2.8751-0.24742zm-0.25296 22.724c-4.4891 0.02307-7.7774 1.5201-9.1214 4.1827-0.67158 1.3304-0.88294 3.6276-0.67039 7.2982 0.35532 6.136 1.8233 17.23 2.7783 20.998 0.69585 2.7451 1.6914 4.3774 3.2925 5.3949 0.62862 0.3995 2.0378 0.85929 3.0713 1.0035 1.2454 0.17378 3.2351 0.0459 4.2462-0.27369 2.2465-0.70981 3.5129-2.2386 4.3002-5.1917 0.69525-2.608 1.9421-11.909 2.5696-19.169 0.24631-2.8495 0.25049-6.9092 8e-3 -8.0999-0.34583-1.7001-0.9224-2.6118-2.3305-3.6837-2.2703-1.7283-4.033-2.3234-7.2305-2.4438-0.30972-0.01166-0.61439-0.01674-0.91366-0.0152z" stroke-width=".1" style="paint-order:fill markers stroke"/>
<path d="m195.27 12.667c-1.7157-7.08e-4 -3.4306 0.04594-4.2532 0.13961-10.082 1.1473-18.337 5.3141-25.461 12.852-4.795 5.0734-8.0744 11.193-9.8305 18.345-0.5745 2.3397-0.72462 3.3635-0.86114 5.887-0.14037 2.5949 4e-3 7.0847 0.30133 9.3495 0.43017 3.2818 1.7148 7.4822 3.4266 11.204 3.1662 6.8849 8.2782 12.677 14.892 16.877 2.0881 1.3259 6.3336 3.5016 8.1082 4.155 0.53648 0.19753 0.63193 0.19627 0.80171-8e-3 0.31462-0.37909-0.0983-3.8721-0.56534-4.7826-0.2999-0.58465-0.60237-0.81811-1.902-1.4666-7.1106-3.548-12.764-9.2953-16.367-16.637-1.5551-3.1686-2.6206-6.3319-2.9801-8.8505-0.40534-2.8394-0.47605-7.5435-0.16726-11.163 0.27606-3.2358 1.2112-6.4326 2.929-10.012 2.6074-5.4326 6.3388-9.9879 11.099-13.553 4.6347-3.4707 10.137-5.785 15.561-6.5435 1.4129-0.19759 7.4828-0.27196 9.3398-0.11473 4.2421 0.35917 7.8412 1.4286 12.066 3.5855 7.6091 3.8852 13.714 10.631 16.912 18.688 1.7098 4.308 2.1588 7.0391 2.1591 13.137 2.3e-4 4.8726-0.26145 6.8127-1.3629 10.11-1.6504 4.94-4.2515 9.3923-7.7295 13.228-2.78 3.066-6.9235 6.2272-10.441 7.9672-1.607 0.79485-1.9092 1.0614-2.2268 1.9614-0.41211 1.168-0.68728 4.1437-0.40914 4.4218 0.23081 0.23082 1.0851-0.0858 3.5676-1.3187 2.4838-1.2336 5.8505-3.1937 7.4019-4.3098 7.1426-5.1389 12.809-13.326 15.159-21.902 0.97022-3.54 1.1662-5.0319 1.2523-9.5389 0.0722-3.7777-0.0694-6.5469-0.42712-8.3432-1.3703-6.8818-4.0131-12.734-7.9935-17.702-2.056-2.5664-4.6594-5.1973-6.9333-7.0052-6.1309-4.8745-12.797-7.602-20.806-8.5146-0.82769-0.09432-2.5444-0.14303-4.2601-0.14376zm-0.11749 13.475c-3.0364 0.01505-5.9918 0.39124-7.9548 1.0491-4.191 1.4045-8.3388 4.0235-11.468 7.243-2.9429 3.0273-5.0342 6.4663-6.368 10.47-0.95072 2.8542-1.2465 5.2521-1.1417 9.2458 0.0362 1.3823 0.14544 2.999 0.24742 3.6519 0.79952 5.1183 4.1468 11.342 8.1234 15.107 0.54418 0.5151 1.1706 1.0594 1.3933 1.2095 0.22264 0.15006 0.83268 0.57812 1.356 0.95098 0.52331 0.37286 1.0054 0.66049 1.0712 0.6386 0.0658-0.0219 0.15296-0.18814 0.19213-0.36907 0.0391-0.18092 0.077-1.471 0.0843-2.8668l0.0125-2.5378-1.3062-1.5772c-2.7846-3.3611-4.3456-6.2541-5.2346-9.702-2.178-8.4472 0.89912-17.258 7.9548-22.777 3.333-2.6069 7.3325-4.0763 12.401-4.5559 2.5662-0.24279 7.2936 0.73526 10.249 2.1204 5.223 2.4476 9.5418 7.3868 11.401 13.036 0.86033 2.6145 1.0114 3.6361 1.0063 6.8255-4e-3 2.556-0.027 2.868-0.30547 4.1744-0.60325 2.8293-1.8123 5.7221-3.3478 8.0101-0.43463 0.64765-1.4033 1.9136-2.1521 2.8129l-1.3615 1.6338 0.0345 2.7852c0.0245 2.0225 0.0716 2.8238 0.17278 2.9248 0.1868 0.18656 1.2806-0.56166 2.7921-1.9089 5.3241-4.7454 8.1571-9.9912 9.2666-17.162 0.30096-1.9452 0.27248-5.5609-0.058-7.442-0.50908-2.897-1.2169-5.0997-2.4452-7.6106-4.2144-8.6151-12.633-14.572-21.585-15.272-0.99638-0.07796-2.0177-0.11283-3.0299-0.10781zm0.20596 14.494c-1.7918-9.2e-4 -2.058 0.02495-2.8986 0.28336-2.3599 0.72553-4.6154 2.7218-5.7211 5.0659-0.54328 1.1518-0.74564 1.9875-0.8169 3.3727-0.10793 2.0982 0.39925 4.1075 1.432 5.6796 0.60036 0.91391 2.2168 2.5131 3.1888 3.1543 2.2864 1.5082 5.0698 1.9829 7.6977 1.3131 3.3444-0.85235 5.85-3.3011 6.8863-6.7301 0.26297-0.87021 0.29995-1.186 0.29995-2.571s-0.0369-1.6994-0.29995-2.5696c-1.035-3.4249-3.4731-5.8136-6.8932-6.7509-0.76768-0.21038-1.1958-0.24654-2.8751-0.24742zm-0.25296 22.724c-4.4891 0.02307-7.7774 1.5201-9.1214 4.1827-0.67158 1.3304-0.88294 3.6276-0.67039 7.2982 0.35532 6.136 1.8233 17.23 2.7783 20.998 0.69585 2.7451 1.6914 4.3774 3.2925 5.3949 0.62862 0.3995 2.0378 0.85929 3.0713 1.0035 1.2454 0.17378 3.2351 0.0459 4.2462-0.27369 2.2465-0.70981 3.5129-2.2386 4.3002-5.1917 0.69525-2.608 1.9421-11.909 2.5696-19.169 0.24631-2.8495 0.25049-6.9092 8e-3 -8.0999-0.34583-1.7001-0.9224-2.6118-2.3305-3.6837-2.2703-1.7283-4.033-2.3234-7.2305-2.4438-0.30972-0.01166-0.61439-0.01674-0.91366-0.0152z" stroke-width=".2" style="paint-order:fill markers stroke"/>
<path d="m195.27 12.667c-1.7157-7.08e-4 -3.4306 0.04594-4.2532 0.13961-10.082 1.1473-18.337 5.3141-25.461 12.852-4.795 5.0734-8.0744 11.193-9.8305 18.345-0.5745 2.3397-0.72462 3.3635-0.86114 5.887-0.14037 2.5949 4e-3 7.0847 0.30133 9.3495 0.43017 3.2818 1.7148 7.4822 3.4266 11.204 3.1662 6.8849 8.2782 12.677 14.892 16.877 2.0881 1.3259 6.3336 3.5016 8.1082 4.155 0.53648 0.19753 0.63193 0.19627 0.80171-8e-3 0.31462-0.37909-0.0983-3.8721-0.56534-4.7826-0.2999-0.58465-0.60237-0.81811-1.902-1.4666-7.1106-3.548-12.764-9.2953-16.367-16.637-1.5551-3.1686-2.6206-6.3319-2.9801-8.8505-0.40534-2.8394-0.47605-7.5435-0.16726-11.163 0.27606-3.2358 1.2112-6.4326 2.929-10.012 2.6074-5.4326 6.3388-9.9879 11.099-13.553 4.6347-3.4707 10.137-5.785 15.561-6.5435 1.4129-0.19759 7.4828-0.27196 9.3398-0.11473 4.2421 0.35917 7.8412 1.4286 12.066 3.5855 7.6091 3.8852 13.714 10.631 16.912 18.688 1.7098 4.308 2.1588 7.0391 2.1591 13.137 2.3e-4 4.8726-0.26145 6.8127-1.3629 10.11-1.6504 4.94-4.2515 9.3923-7.7295 13.228-2.78 3.066-6.9235 6.2272-10.441 7.9672-1.607 0.79485-1.9092 1.0614-2.2268 1.9614-0.41211 1.168-0.68728 4.1437-0.40914 4.4218 0.23081 0.23082 1.0851-0.0858 3.5676-1.3187 2.4838-1.2336 5.8505-3.1937 7.4019-4.3098 7.1426-5.1389 12.809-13.326 15.159-21.902 0.97022-3.54 1.1662-5.0319 1.2523-9.5389 0.0722-3.7777-0.0694-6.5469-0.42712-8.3432-1.3703-6.8818-4.0131-12.734-7.9935-17.702-2.056-2.5664-4.6594-5.1973-6.9333-7.0052-6.1309-4.8745-12.797-7.602-20.806-8.5146-0.82769-0.09432-2.5444-0.14303-4.2601-0.14376zm-0.11749 13.475c-3.0364 0.01505-5.9918 0.39124-7.9548 1.0491-4.191 1.4045-8.3388 4.0235-11.468 7.243-2.9429 3.0273-5.0342 6.4663-6.368 10.47-0.95072 2.8542-1.2465 5.2521-1.1417 9.2458 0.0362 1.3823 0.14544 2.999 0.24742 3.6519 0.79952 5.1183 4.1468 11.342 8.1234 15.107 0.54418 0.5151 1.1706 1.0594 1.3933 1.2095 0.22264 0.15006 0.83268 0.57812 1.356 0.95098 0.52331 0.37286 1.0054 0.66049 1.0712 0.6386 0.0658-0.0219 0.15296-0.18814 0.19213-0.36907 0.0391-0.18092 0.077-1.471 0.0843-2.8668l0.0125-2.5378-1.3062-1.5772c-2.7846-3.3611-4.3456-6.2541-5.2346-9.702-2.178-8.4472 0.89912-17.258 7.9548-22.777 3.333-2.6069 7.3325-4.0763 12.401-4.5559 2.5662-0.24279 7.2936 0.73526 10.249 2.1204 5.223 2.4476 9.5418 7.3868 11.401 13.036 0.86033 2.6145 1.0114 3.6361 1.0063 6.8255-4e-3 2.556-0.027 2.868-0.30547 4.1744-0.60325 2.8293-1.8123 5.7221-3.3478 8.0101-0.43463 0.64765-1.4033 1.9136-2.1521 2.8129l-1.3615 1.6338 0.0345 2.7852c0.0245 2.0225 0.0716 2.8238 0.17278 2.9248 0.1868 0.18656 1.2806-0.56166 2.7921-1.9089 5.3241-4.7454 8.1571-9.9912 9.2666-17.162 0.30096-1.9452 0.27248-5.5609-0.058-7.442-0.50908-2.897-1.2169-5.0997-2.4452-7.6106-4.2144-8.6151-12.633-14.572-21.585-15.272-0.99638-0.07796-2.0177-0.11283-3.0299-0.10781zm0.20596 14.494c-1.7918-9.2e-4 -2.058 0.02495-2.8986 0.28336-2.3599 0.72553-4.6154 2.7218-5.7211 5.0659-0.54328 1.1518-0.74564 1.9875-0.8169 3.3727-0.10793 2.0982 0.39925 4.1075 1.432 5.6796 0.60036 0.91391 2.2168 2.5131 3.1888 3.1543 2.2864 1.5082 5.0698 1.9829 7.6977 1.3131 3.3444-0.85235 5.85-3.3011 6.8863-6.7301 0.26297-0.87021 0.29995-1.186 0.29995-2.571s-0.0369-1.6994-0.29995-2.5696c-1.035-3.4249-3.4731-5.8136-6.8932-6.7509-0.76768-0.21038-1.1958-0.24654-2.8751-0.24742zm-0.25296 22.724c-4.4891 0.02307-7.7774 1.5201-9.1214 4.1827-0.67158 1.3304-0.88294 3.6276-0.67039 7.2982 0.35532 6.136 1.8233 17.23 2.7783 20.998 0.69585 2.7451 1.6914 4.3774 3.2925 5.3949 0.62862 0.3995 2.0378 0.85929 3.0713 1.0035 1.2454 0.17378 3.2351 0.0459 4.2462-0.27369 2.2465-0.70981 3.5129-2.2386 4.3002-5.1917 0.69525-2.608 1.9421-11.909 2.5696-19.169 0.24631-2.8495 0.25049-6.9092 8e-3 -8.0999-0.34583-1.7001-0.9224-2.6118-2.3305-3.6837-2.2703-1.7283-4.033-2.3234-7.2305-2.4438-0.30972-0.01166-0.61439-0.01674-0.91366-0.0152z" stroke-width=".3" style="paint-order:fill markers stroke"/>
<path d="m195.27 12.667c-1.7157-7.08e-4 -3.4306 0.04594-4.2532 0.13961-10.082 1.1473-18.337 5.3141-25.461 12.852-4.795 5.0734-8.0744 11.193-9.8305 18.345-0.5745 2.3397-0.72462 3.3635-0.86114 5.887-0.14037 2.5949 4e-3 7.0847 0.30133 9.3495 0.43017 3.2818 1.7148 7.4822 3.4266 11.204 3.1662 6.8849 8.2782 12.677 14.892 16.877 2.0881 1.3259 6.3336 3.5016 8.1082 4.155 0.53648 0.19753 0.63193 0.19627 0.80171-8e-3 0.31462-0.37909-0.0983-3.8721-0.56534-4.7826-0.2999-0.58465-0.60237-0.81811-1.902-1.4666-7.1106-3.548-12.764-9.2953-16.367-16.637-1.5551-3.1686-2.6206-6.3319-2.9801-8.8505-0.40534-2.8394-0.47605-7.5435-0.16726-11.163 0.27606-3.2358 1.2112-6.4326 2.929-10.012 2.6074-5.4326 6.3388-9.9879 11.099-13.553 4.6347-3.4707 10.137-5.785 15.561-6.5435 1.4129-0.19759 7.4828-0.27196 9.3398-0.11473 4.2421 0.35917 7.8412 1.4286 12.066 3.5855 7.6091 3.8852 13.714 10.631 16.912 18.688 1.7098 4.308 2.1588 7.0391 2.1591 13.137 2.3e-4 4.8726-0.26145 6.8127-1.3629 10.11-1.6504 4.94-4.2515 9.3923-7.7295 13.228-2.78 3.066-6.9235 6.2272-10.441 7.9672-1.607 0.79485-1.9092 1.0614-2.2268 1.9614-0.41211 1.168-0.68728 4.1437-0.40914 4.4218 0.23081 0.23082 1.0851-0.0858 3.5676-1.3187 2.4838-1.2336 5.8505-3.1937 7.4019-4.3098 7.1426-5.1389 12.809-13.326 15.159-21.902 0.97022-3.54 1.1662-5.0319 1.2523-9.5389 0.0722-3.7777-0.0694-6.5469-0.42712-8.3432-1.3703-6.8818-4.0131-12.734-7.9935-17.702-2.056-2.5664-4.6594-5.1973-6.9333-7.0052-6.1309-4.8745-12.797-7.602-20.806-8.5146-0.82769-0.09432-2.5444-0.14303-4.2601-0.14376zm-0.11749 13.475c-3.0364 0.01505-5.9918 0.39124-7.9548 1.0491-4.191 1.4045-8.3388 4.0235-11.468 7.243-2.9429 3.0273-5.0342 6.4663-6.368 10.47-0.95072 2.8542-1.2465 5.2521-1.1417 9.2458 0.0362 1.3823 0.14544 2.999 0.24742 3.6519 0.79952 5.1183 4.1468 11.342 8.1234 15.107 0.54418 0.5151 1.1706 1.0594 1.3933 1.2095 0.22264 0.15006 0.83268 0.57812 1.356 0.95098 0.52331 0.37286 1.0054 0.66049 1.0712 0.6386 0.0658-0.0219 0.15296-0.18814 0.19213-0.36907 0.0391-0.18092 0.077-1.471 0.0843-2.8668l0.0125-2.5378-1.3062-1.5772c-2.7846-3.3611-4.3456-6.2541-5.2346-9.702-2.178-8.4472 0.89912-17.258 7.9548-22.777 3.333-2.6069 7.3325-4.0763 12.401-4.5559 2.5662-0.24279 7.2936 0.73526 10.249 2.1204 5.223 2.4476 9.5418 7.3868 11.401 13.036 0.86033 2.6145 1.0114 3.6361 1.0063 6.8255-4e-3 2.556-0.027 2.868-0.30547 4.1744-0.60325 2.8293-1.8123 5.7221-3.3478 8.0101-0.43463 0.64765-1.4033 1.9136-2.1521 2.8129l-1.3615 1.6338 0.0345 2.7852c0.0245 2.0225 0.0716 2.8238 0.17278 2.9248 0.1868 0.18656 1.2806-0.56166 2.7921-1.9089 5.3241-4.7454 8.1571-9.9912 9.2666-17.162 0.30096-1.9452 0.27248-5.5609-0.058-7.442-0.50908-2.897-1.2169-5.0997-2.4452-7.6106-4.2144-8.6151-12.633-14.572-21.585-15.272-0.99638-0.07796-2.0177-0.11283-3.0299-0.10781zm0.20596 14.494c-1.7918-9.2e-4 -2.058 0.02495-2.8986 0.28336-2.3599 0.72553-4.6154 2.7218-5.7211 5.0659-0.54328 1.1518-0.74564 1.9875-0.8169 3.3727-0.10793 2.0982 0.39925 4.1075 1.432 5.6796 0.60036 0.91391 2.2168 2.5131 3.1888 3.1543 2.2864 1.5082 5.0698 1.9829 7.6977 1.3131 3.3444-0.85235 5.85-3.3011 6.8863-6.7301 0.26297-0.87021 0.29995-1.186 0.29995-2.571s-0.0369-1.6994-0.29995-2.5696c-1.035-3.4249-3.4731-5.8136-6.8932-6.7509-0.76768-0.21038-1.1958-0.24654-2.8751-0.24742zm-0.25296 22.724c-4.4891 0.02307-7.7774 1.5201-9.1214 4.1827-0.67158 1.3304-0.88294 3.6276-0.67039 7.2982 0.35532 6.136 1.8233 17.23 2.7783 20.998 0.69585 2.7451 1.6914 4.3774 3.2925 5.3949 0.62862 0.3995 2.0378 0.85929 3.0713 1.0035 1.2454 0.17378 3.2351 0.0459 4.2462-0.27369 2.2465-0.70981 3.5129-2.2386 4.3002-5.1917 0.69525-2.608 1.9421-11.909 2.5696-19.169 0.24631-2.8495 0.25049-6.9092 8e-3 -8.0999-0.34583-1.7001-0.9224-2.6118-2.3305-3.6837-2.2703-1.7283-4.033-2.3234-7.2305-2.4438-0.30972-0.01166-0.61439-0.01674-0.91366-0.0152z" stroke-width=".4" style="paint-order:fill markers stroke"/>
<path d="m195.27 12.667c-1.7157-7.08e-4 -3.4306 0.04594-4.2532 0.13961-10.082 1.1473-18.337 5.3141-25.461 12.852-4.795 5.0734-8.0744 11.193-9.8305 18.345-0.5745 2.3397-0.72462 3.3635-0.86114 5.887-0.14037 2.5949 4e-3 7.0847 0.30133 9.3495 0.43017 3.2818 1.7148 7.4822 3.4266 11.204 3.1662 6.8849 8.2782 12.677 14.892 16.877 2.0881 1.3259 6.3336 3.5016 8.1082 4.155 0.53648 0.19753 0.63193 0.19627 0.80171-8e-3 0.31462-0.37909-0.0983-3.8721-0.56534-4.7826-0.2999-0.58465-0.60237-0.81811-1.902-1.4666-7.1106-3.548-12.764-9.2953-16.367-16.637-1.5551-3.1686-2.6206-6.3319-2.9801-8.8505-0.40534-2.8394-0.47605-7.5435-0.16726-11.163 0.27606-3.2358 1.2112-6.4326 2.929-10.012 2.6074-5.4326 6.3388-9.9879 11.099-13.553 4.6347-3.4707 10.137-5.785 15.561-6.5435 1.4129-0.19759 7.4828-0.27196 9.3398-0.11473 4.2421 0.35917 7.8412 1.4286 12.066 3.5855 7.6091 3.8852 13.714 10.631 16.912 18.688 1.7098 4.308 2.1588 7.0391 2.1591 13.137 2.3e-4 4.8726-0.26145 6.8127-1.3629 10.11-1.6504 4.94-4.2515 9.3923-7.7295 13.228-2.78 3.066-6.9235 6.2272-10.441 7.9672-1.607 0.79485-1.9092 1.0614-2.2268 1.9614-0.41211 1.168-0.68728 4.1437-0.40914 4.4218 0.23081 0.23082 1.0851-0.0858 3.5676-1.3187 2.4838-1.2336 5.8505-3.1937 7.4019-4.3098 7.1426-5.1389 12.809-13.326 15.159-21.902 0.97022-3.54 1.1662-5.0319 1.2523-9.5389 0.0722-3.7777-0.0694-6.5469-0.42712-8.3432-1.3703-6.8818-4.0131-12.734-7.9935-17.702-2.056-2.5664-4.6594-5.1973-6.9333-7.0052-6.1309-4.8745-12.797-7.602-20.806-8.5146-0.82769-0.09432-2.5444-0.14303-4.2601-0.14376zm-0.11749 13.475c-3.0364 0.01505-5.9918 0.39124-7.9548 1.0491-4.191 1.4045-8.3388 4.0235-11.468 7.243-2.9429 3.0273-5.0342 6.4663-6.368 10.47-0.95072 2.8542-1.2465 5.2521-1.1417 9.2458 0.0362 1.3823 0.14544 2.999 0.24742 3.6519 0.79952 5.1183 4.1468 11.342 8.1234 15.107 0.54418 0.5151 1.1706 1.0594 1.3933 1.2095 0.22264 0.15006 0.83268 0.57812 1.356 0.95098 0.52331 0.37286 1.0054 0.66049 1.0712 0.6386 0.0658-0.0219 0.15296-0.18814 0.19213-0.36907 0.0391-0.18092 0.077-1.471 0.0843-2.8668l0.0125-2.5378-1.3062-1.5772c-2.7846-3.3611-4.3456-6.2541-5.2346-9.702-2.178-8.4472 0.89912-17.258 7.9548-22.777 3.333-2.6069 7.3325-4.0763 12.401-4.5559 2.5662-0.24279 7.2936 0.73526 10.249 2.1204 5.223 2.4476 9.5418 7.3868 11.401 13.036 0.86033 2.6145 1.0114 3.6361 1.0063 6.8255-4e-3 2.556-0.027 2.868-0.30547 4.1744-0.60325 2.8293-1.8123 5.7221-3.3478 8.0101-0.43463 0.64765-1.4033 1.9136-2.1521 2.8129l-1.3615 1.6338 0.0345 2.7852c0.0245 2.0225 0.0716 2.8238 0.17278 2.9248 0.1868 0.18656 1.2806-0.56166 2.7921-1.9089 5.3241-4.7454 8.1571-9.9912 9.2666-17.162 0.30096-1.9452 0.27248-5.5609-0.058-7.442-0.50908-2.897-1.2169-5.0997-2.4452-7.6106-4.2144-8.6151-12.633-14.572-21.585-15.272-0.99638-0.07796-2.0177-0.11283-3.0299-0.10781zm0.20596 14.494c-1.7918-9.2e-4 -2.058 0.02495-2.8986 0.28336-2.3599 0.72553-4.6154 2.7218-5.7211 5.0659-0.54328 1.1518-0.74564 1.9875-0.8169 3.3727-0.10793 2.0982 0.39925 4.1075 1.432 5.6796 0.60036 0.91391 2.2168 2.5131 3.1888 3.1543 2.2864 1.5082 5.0698 1.9829 7.6977 1.3131 3.3444-0.85235 5.85-3.3011 6.8863-6.7301 0.26297-0.87021 0.29995-1.186 0.29995-2.571s-0.0369-1.6994-0.29995-2.5696c-1.035-3.4249-3.4731-5.8136-6.8932-6.7509-0.76768-0.21038-1.1958-0.24654-2.8751-0.24742zm-0.25296 22.724c-4.4891 0.02307-7.7774 1.5201-9.1214 4.1827-0.67158 1.3304-0.88294 3.6276-0.67039 7.2982 0.35532 6.136 1.8233 17.23 2.7783 20.998 0.69585 2.7451 1.6914 4.3774 3.2925 5.3949 0.62862 0.3995 2.0378 0.85929 3.0713 1.0035 1.2454 0.17378 3.2351 0.0459 4.2462-0.27369 2.2465-0.70981 3.5129-2.2386 4.3002-5.1917 0.69525-2.608 1.9421-11.909 2.5696-19.169 0.24631-2.8495 0.25049-6.9092 8e-3 -8.0999-0.34583-1.7001-0.9224-2.6118-2.3305-3.6837-2.2703-1.7283-4.033-2.3234-7.2305-2.4438-0.30972-0.01166-0.61439-0.01674-0.91366-0.0152z" stroke-width=".5" style="paint-order:fill markers stroke"/>
<path d="m195.27 12.667c-1.7157-7.08e-4 -3.4306 0.04594-4.2532 0.13961-10.082 1.1473-18.337 5.3141-25.461 12.852-4.795 5.0734-8.0744 11.193-9.8305 18.345-0.5745 2.3397-0.72462 3.3635-0.86114 5.887-0.14037 2.5949 4e-3 7.0847 0.30133 9.3495 0.43017 3.2818 1.7148 7.4822 3.4266 11.204 3.1662 6.8849 8.2782 12.677 14.892 16.877 2.0881 1.3259 6.3336 3.5016 8.1082 4.155 0.53648 0.19753 0.63193 0.19627 0.80171-8e-3 0.31462-0.37909-0.0983-3.8721-0.56534-4.7826-0.2999-0.58465-0.60237-0.81811-1.902-1.4666-7.1106-3.548-12.764-9.2953-16.367-16.637-1.5551-3.1686-2.6206-6.3319-2.9801-8.8505-0.40534-2.8394-0.47605-7.5435-0.16726-11.163 0.27606-3.2358 1.2112-6.4326 2.929-10.012 2.6074-5.4326 6.3388-9.9879 11.099-13.553 4.6347-3.4707 10.137-5.785 15.561-6.5435 1.4129-0.19759 7.4828-0.27196 9.3398-0.11473 4.2421 0.35917 7.8412 1.4286 12.066 3.5855 7.6091 3.8852 13.714 10.631 16.912 18.688 1.7098 4.308 2.1588 7.0391 2.1591 13.137 2.3e-4 4.8726-0.26145 6.8127-1.3629 10.11-1.6504 4.94-4.2515 9.3923-7.7295 13.228-2.78 3.066-6.9235 6.2272-10.441 7.9672-1.607 0.79485-1.9092 1.0614-2.2268 1.9614-0.41211 1.168-0.68728 4.1437-0.40914 4.4218 0.23081 0.23082 1.0851-0.0858 3.5676-1.3187 2.4838-1.2336 5.8505-3.1937 7.4019-4.3098 7.1426-5.1389 12.809-13.326 15.159-21.902 0.97022-3.54 1.1662-5.0319 1.2523-9.5389 0.0722-3.7777-0.0694-6.5469-0.42712-8.3432-1.3703-6.8818-4.0131-12.734-7.9935-17.702-2.056-2.5664-4.6594-5.1973-6.9333-7.0052-6.1309-4.8745-12.797-7.602-20.806-8.5146-0.82769-0.09432-2.5444-0.14303-4.2601-0.14376zm-0.11749 13.475c-3.0364 0.01505-5.9918 0.39124-7.9548 1.0491-4.191 1.4045-8.3388 4.0235-11.468 7.243-2.9429 3.0273-5.0342 6.4663-6.368 10.47-0.95072 2.8542-1.2465 5.2521-1.1417 9.2458 0.0362 1.3823 0.14544 2.999 0.24742 3.6519 0.79952 5.1183 4.1468 11.342 8.1234 15.107 0.54418 0.5151 1.1706 1.0594 1.3933 1.2095 0.22264 0.15006 0.83268 0.57812 1.356 0.95098 0.52331 0.37286 1.0054 0.66049 1.0712 0.6386 0.0658-0.0219 0.15296-0.18814 0.19213-0.36907 0.0391-0.18092 0.077-1.471 0.0843-2.8668l0.0125-2.5378-1.3062-1.5772c-2.7846-3.3611-4.3456-6.2541-5.2346-9.702-2.178-8.4472 0.89912-17.258 7.9548-22.777 3.333-2.6069 7.3325-4.0763 12.401-4.5559 2.5662-0.24279 7.2936 0.73526 10.249 2.1204 5.223 2.4476 9.5418 7.3868 11.401 13.036 0.86033 2.6145 1.0114 3.6361 1.0063 6.8255-4e-3 2.556-0.027 2.868-0.30547 4.1744-0.60325 2.8293-1.8123 5.7221-3.3478 8.0101-0.43463 0.64765-1.4033 1.9136-2.1521 2.8129l-1.3615 1.6338 0.0345 2.7852c0.0245 2.0225 0.0716 2.8238 0.17278 2.9248 0.1868 0.18656 1.2806-0.56166 2.7921-1.9089 5.3241-4.7454 8.1571-9.9912 9.2666-17.162 0.30096-1.9452 0.27248-5.5609-0.058-7.442-0.50908-2.897-1.2169-5.0997-2.4452-7.6106-4.2144-8.6151-12.633-14.572-21.585-15.272-0.99638-0.07796-2.0177-0.11283-3.0299-0.10781zm0.20596 14.494c-1.7918-9.2e-4 -2.058 0.02495-2.8986 0.28336-2.3599 0.72553-4.6154 2.7218-5.7211 5.0659-0.54328 1.1518-0.74564 1.9875-0.8169 3.3727-0.10793 2.0982 0.39925 4.1075 1.432 5.6796 0.60036 0.91391 2.2168 2.5131 3.1888 3.1543 2.2864 1.5082 5.0698 1.9829 7.6977 1.3131 3.3444-0.85235 5.85-3.3011 6.8863-6.7301 0.26297-0.87021 0.29995-1.186 0.29995-2.571s-0.0369-1.6994-0.29995-2.5696c-1.035-3.4249-3.4731-5.8136-6.8932-6.7509-0.76768-0.21038-1.1958-0.24654-2.8751-0.24742zm-0.25296 22.724c-4.4891 0.02307-7.7774 1.5201-9.1214 4.1827-0.67158 1.3304-0.88294 3.6276-0.67039 7.2982 0.35532 6.136 1.8233 17.23 2.7783 20.998 0.69585 2.7451 1.6914 4.3774 3.2925 5.3949 0.62862 0.3995 2.0378 0.85929 3.0713 1.0035 1.2454 0.17378 3.2351 0.0459 4.2462-0.27369 2.2465-0.70981 3.5129-2.2386 4.3002-5.1917 0.69525-2.608 1.9421-11.909 2.5696-19.169 0.24631-2.8495 0.25049-6.9092 8e-3 -8.0999-0.34583-1.7001-0.9224-2.6118-2.3305-3.6837-2.2703-1.7283-4.033-2.3234-7.2305-2.4438-0.30972-0.01166-0.61439-0.01674-0.91366-0.0152z" stroke-width=".6" style="paint-order:fill markers stroke"/>
<path d="m195.27 12.667c-1.7157-7.08e-4 -3.4306 0.04594-4.2532 0.13961-10.082 1.1473-18.337 5.3141-25.461 12.852-4.795 5.0734-8.0744 11.193-9.8305 18.345-0.5745 2.3397-0.72462 3.3635-0.86114 5.887-0.14037 2.5949 4e-3 7.0847 0.30133 9.3495 0.43017 3.2818 1.7148 7.4822 3.4266 11.204 3.1662 6.8849 8.2782 12.677 14.892 16.877 2.0881 1.3259 6.3336 3.5016 8.1082 4.155 0.53648 0.19753 0.63193 0.19627 0.80171-8e-3 0.31462-0.37909-0.0983-3.8721-0.56534-4.7826-0.2999-0.58465-0.60237-0.81811-1.902-1.4666-7.1106-3.548-12.764-9.2953-16.367-16.637-1.5551-3.1686-2.6206-6.3319-2.9801-8.8505-0.40534-2.8394-0.47605-7.5435-0.16726-11.163 0.27606-3.2358 1.2112-6.4326 2.929-10.012 2.6074-5.4326 6.3388-9.9879 11.099-13.553 4.6347-3.4707 10.137-5.785 15.561-6.5435 1.4129-0.19759 7.4828-0.27196 9.3398-0.11473 4.2421 0.35917 7.8412 1.4286 12.066 3.5855 7.6091 3.8852 13.714 10.631 16.912 18.688 1.7098 4.308 2.1588 7.0391 2.1591 13.137 2.3e-4 4.8726-0.26145 6.8127-1.3629 10.11-1.6504 4.94-4.2515 9.3923-7.7295 13.228-2.78 3.066-6.9235 6.2272-10.441 7.9672-1.607 0.79485-1.9092 1.0614-2.2268 1.9614-0.41211 1.168-0.68728 4.1437-0.40914 4.4218 0.23081 0.23082 1.0851-0.0858 3.5676-1.3187 2.4838-1.2336 5.8505-3.1937 7.4019-4.3098 7.1426-5.1389 12.809-13.326 15.159-21.902 0.97022-3.54 1.1662-5.0319 1.2523-9.5389 0.0722-3.7777-0.0694-6.5469-0.42712-8.3432-1.3703-6.8818-4.0131-12.734-7.9935-17.702-2.056-2.5664-4.6594-5.1973-6.9333-7.0052-6.1309-4.8745-12.797-7.602-20.806-8.5146-0.82769-0.09432-2.5444-0.14303-4.2601-0.14376zm-0.11749 13.475c-3.0364 0.01505-5.9918 0.39124-7.9548 1.0491-4.191 1.4045-8.3388 4.0235-11.468 7.243-2.9429 3.0273-5.0342 6.4663-6.368 10.47-0.95072 2.8542-1.2465 5.2521-1.1417 9.2458 0.0362 1.3823 0.14544 2.999 0.24742 3.6519 0.79952 5.1183 4.1468 11.342 8.1234 15.107 0.54418 0.5151 1.1706 1.0594 1.3933 1.2095 0.22264 0.15006 0.83268 0.57812 1.356 0.95098 0.52331 0.37286 1.0054 0.66049 1.0712 0.6386 0.0658-0.0219 0.15296-0.18814 0.19213-0.36907 0.0391-0.18092 0.077-1.471 0.0843-2.8668l0.0125-2.5378-1.3062-1.5772c-2.7846-3.3611-4.3456-6.2541-5.2346-9.702-2.178-8.4472 0.89912-17.258 7.9548-22.777 3.333-2.6069 7.3325-4.0763 12.401-4.5559 2.5662-0.24279 7.2936 0.73526 10.249 2.1204 5.223 2.4476 9.5418 7.3868 11.401 13.036 0.86033 2.6145 1.0114 3.6361 1.0063 6.8255-4e-3 2.556-0.027 2.868-0.30547 4.1744-0.60325 2.8293-1.8123 5.7221-3.3478 8.0101-0.43463 0.64765-1.4033 1.9136-2.1521 2.8129l-1.3615 1.6338 0.0345 2.7852c0.0245 2.0225 0.0716 2.8238 0.17278 2.9248 0.1868 0.18656 1.2806-0.56166 2.7921-1.9089 5.3241-4.7454 8.1571-9.9912 9.2666-17.162 0.30096-1.9452 0.27248-5.5609-0.058-7.442-0.50908-2.897-1.2169-5.0997-2.4452-7.6106-4.2144-8.6151-12.633-14.572-21.585-15.272-0.99638-0.07796-2.0177-0.11283-3.0299-0.10781zm0.20596 14.494c-1.7918-9.2e-4 -2.058 0.02495-2.8986 0.28336-2.3599 0.72553-4.6154 2.7218-5.7211 5.0659-0.54328 1.1518-0.74564 1.9875-0.8169 3.3727-0.10793 2.0982 0.39925 4.1075 1.432 5.6796 0.60036 0.91391 2.2168 2.5131 3.1888 3.1543 2.2864 1.5082 5.0698 1.9829 7.6977 1.3131 3.3444-0.85235 5.85-3.3011 6.8863-6.7301 0.26297-0.87021 0.29995-1.186 0.29995-2.571s-0.0369-1.6994-0.29995-2.5696c-1.035-3.4249-3.4731-5.8136-6.8932-6.7509-0.76768-0.21038-1.1958-0.24654-2.8751-0.24742zm-0.25296 22.724c-4.4891 0.02307-7.7774 1.5201-9.1214 4.1827-0.67158 1.3304-0.88294 3.6276-0.67039 7.2982 0.35532 6.136 1.8233 17.23 2.7783 20.998 0.69585 2.7451 1.6914 4.3774 3.2925 5.3949 0.62862 0.3995 2.0378 0.85929 3.0713 1.0035 1.2454 0.17378 3.2351 0.0459 4.2462-0.27369 2.2465-0.70981 3.5129-2.2386 4.3002-5.1917 0.69525-2.608 1.9421-11.909 2.5696-19.169 0.24631-2.8495 0.25049-6.9092 8e-3 -8.0999-0.34583-1.7001-0.9224-2.6118-2.3305-3.6837-2.2703-1.7283-4.033-2.3234-7.2305-2.4438-0.30972-0.01166-0.61439-0.01674-0.91366-0.0152z" stroke-width=".7" style="paint-order:fill markers stroke"/>
<path d="m195.27 12.667c-1.7157-7.08e-4 -3.4306 0.04594-4.2532 0.13961-10.082 1.1473-18.337 5.3141-25.461 12.852-4.795 5.0734-8.0744 11.193-9.8305 18.345-0.5745 2.3397-0.72462 3.3635-0.86114 5.887-0.14037 2.5949 4e-3 7.0847 0.30133 9.3495 0.43017 3.2818 1.7148 7.4822 3.4266 11.204 3.1662 6.8849 8.2782 12.677 14.892 16.877 2.0881 1.3259 6.3336 3.5016 8.1082 4.155 0.53648 0.19753 0.63193 0.19627 0.80171-8e-3 0.31462-0.37909-0.0983-3.8721-0.56534-4.7826-0.2999-0.58465-0.60237-0.81811-1.902-1.4666-7.1106-3.548-12.764-9.2953-16.367-16.637-1.5551-3.1686-2.6206-6.3319-2.9801-8.8505-0.40534-2.8394-0.47605-7.5435-0.16726-11.163 0.27606-3.2358 1.2112-6.4326 2.929-10.012 2.6074-5.4326 6.3388-9.9879 11.099-13.553 4.6347-3.4707 10.137-5.785 15.561-6.5435 1.4129-0.19759 7.4828-0.27196 9.3398-0.11473 4.2421 0.35917 7.8412 1.4286 12.066 3.5855 7.6091 3.8852 13.714 10.631 16.912 18.688 1.7098 4.308 2.1588 7.0391 2.1591 13.137 2.3e-4 4.8726-0.26145 6.8127-1.3629 10.11-1.6504 4.94-4.2515 9.3923-7.7295 13.228-2.78 3.066-6.9235 6.2272-10.441 7.9672-1.607 0.79485-1.9092 1.0614-2.2268 1.9614-0.41211 1.168-0.68728 4.1437-0.40914 4.4218 0.23081 0.23082 1.0851-0.0858 3.5676-1.3187 2.4838-1.2336 5.8505-3.1937 7.4019-4.3098 7.1426-5.1389 12.809-13.326 15.159-21.902 0.97022-3.54 1.1662-5.0319 1.2523-9.5389 0.0722-3.7777-0.0694-6.5469-0.42712-8.3432-1.3703-6.8818-4.0131-12.734-7.9935-17.702-2.056-2.5664-4.6594-5.1973-6.9333-7.0052-6.1309-4.8745-12.797-7.602-20.806-8.5146-0.82769-0.09432-2.5444-0.14303-4.2601-0.14376zm-0.11749 13.475c-3.0364 0.01505-5.9918 0.39124-7.9548 1.0491-4.191 1.4045-8.3388 4.0235-11.468 7.243-2.9429 3.0273-5.0342 6.4663-6.368 10.47-0.95072 2.8542-1.2465 5.2521-1.1417 9.2458 0.0362 1.3823 0.14544 2.999 0.24742 3.6519 0.79952 5.1183 4.1468 11.342 8.1234 15.107 0.54418 0.5151 1.1706 1.0594 1.3933 1.2095 0.22264 0.15006 0.83268 0.57812 1.356 0.95098 0.52331 0.37286 1.0054 0.66049 1.0712 0.6386 0.0658-0.0219 0.15296-0.18814 0.19213-0.36907 0.0391-0.18092 0.077-1.471 0.0843-2.8668l0.0125-2.5378-1.3062-1.5772c-2.7846-3.3611-4.3456-6.2541-5.2346-9.702-2.178-8.4472 0.89912-17.258 7.9548-22.777 3.333-2.6069 7.3325-4.0763 12.401-4.5559 2.5662-0.24279 7.2936 0.73526 10.249 2.1204 5.223 2.4476 9.5418 7.3868 11.401 13.036 0.86033 2.6145 1.0114 3.6361 1.0063 6.8255-4e-3 2.556-0.027 2.868-0.30547 4.1744-0.60325 2.8293-1.8123 5.7221-3.3478 8.0101-0.43463 0.64765-1.4033 1.9136-2.1521 2.8129l-1.3615 1.6338 0.0345 2.7852c0.0245 2.0225 0.0716 2.8238 0.17278 2.9248 0.1868 0.18656 1.2806-0.56166 2.7921-1.9089 5.3241-4.7454 8.1571-9.9912 9.2666-17.162 0.30096-1.9452 0.27248-5.5609-0.058-7.442-0.50908-2.897-1.2169-5.0997-2.4452-7.6106-4.2144-8.6151-12.633-14.572-21.585-15.272-0.99638-0.07796-2.0177-0.11283-3.0299-0.10781zm0.20596 14.494c-1.7918-9.2e-4 -2.058 0.02495-2.8986 0.28336-2.3599 0.72553-4.6154 2.7218-5.7211 5.0659-0.54328 1.1518-0.74564 1.9875-0.8169 3.3727-0.10793 2.0982 0.39925 4.1075 1.432 5.6796 0.60036 0.91391 2.2168 2.5131 3.1888 3.1543 2.2864 1.5082 5.0698 1.9829 7.6977 1.3131 3.3444-0.85235 5.85-3.3011 6.8863-6.7301 0.26297-0.87021 0.29995-1.186 0.29995-2.571s-0.0369-1.6994-0.29995-2.5696c-1.035-3.4249-3.4731-5.8136-6.8932-6.7509-0.76768-0.21038-1.1958-0.24654-2.8751-0.24742zm-0.25296 22.724c-4.4891 0.02307-7.7774 1.5201-9.1214 4.1827-0.67158 1.3304-0.88294 3.6276-0.67039 7.2982 0.35532 6.136 1.8233 17.23 2.7783 20.998 0.69585 2.7451 1.6914 4.3774 3.2925 5.3949 0.62862 0.3995 2.0378 0.85929 3.0713 1.0035 1.2454 0.17378 3.2351 0.0459 4.2462-0.27369 2.2465-0.70981 3.5129-2.2386 4.3002-5.1917 0.69525-2.608 1.9421-11.909 2.5696-19.169 0.24631-2.8495 0.25049-6.9092 8e-3 -8.0999-0.34583-1.7001-0.9224-2.6118-2.3305-3.6837-2.2703-1.7283-4.033-2.3234-7.2305-2.4438-0.30972-0.01166-0.61439-0.01674-0.91366-0.0152z" stroke-width=".9" style="paint-order:fill markers stroke"/>
<path d="m195.27 12.667c-1.7157-7.08e-4 -3.4306 0.04594-4.2532 0.13961-10.082 1.1473-18.337 5.3141-25.461 12.852-4.795 5.0734-8.0744 11.193-9.8305 18.345-0.5745 2.3397-0.72462 3.3635-0.86114 5.887-0.14037 2.5949 4e-3 7.0847 0.30133 9.3495 0.43017 3.2818 1.7148 7.4822 3.4266 11.204 3.1662 6.8849 8.2782 12.677 14.892 16.877 2.0881 1.3259 6.3336 3.5016 8.1082 4.155 0.53648 0.19753 0.63193 0.19627 0.80171-8e-3 0.31462-0.37909-0.0983-3.8721-0.56534-4.7826-0.2999-0.58465-0.60237-0.81811-1.902-1.4666-7.1106-3.548-12.764-9.2953-16.367-16.637-1.5551-3.1686-2.6206-6.3319-2.9801-8.8505-0.40534-2.8394-0.47605-7.5435-0.16726-11.163 0.27606-3.2358 1.2112-6.4326 2.929-10.012 2.6074-5.4326 6.3388-9.9879 11.099-13.553 4.6347-3.4707 10.137-5.785 15.561-6.5435 1.4129-0.19759 7.4828-0.27196 9.3398-0.11473 4.2421 0.35917 7.8412 1.4286 12.066 3.5855 7.6091 3.8852 13.714 10.631 16.912 18.688 1.7098 4.308 2.1588 7.0391 2.1591 13.137 2.3e-4 4.8726-0.26145 6.8127-1.3629 10.11-1.6504 4.94-4.2515 9.3923-7.7295 13.228-2.78 3.066-6.9235 6.2272-10.441 7.9672-1.607 0.79485-1.9092 1.0614-2.2268 1.9614-0.41211 1.168-0.68728 4.1437-0.40914 4.4218 0.23081 0.23082 1.0851-0.0858 3.5676-1.3187 2.4838-1.2336 5.8505-3.1937 7.4019-4.3098 7.1426-5.1389 12.809-13.326 15.159-21.902 0.97022-3.54 1.1662-5.0319 1.2523-9.5389 0.0722-3.7777-0.0694-6.5469-0.42712-8.3432-1.3703-6.8818-4.0131-12.734-7.9935-17.702-2.056-2.5664-4.6594-5.1973-6.9333-7.0052-6.1309-4.8745-12.797-7.602-20.806-8.5146-0.82769-0.09432-2.5444-0.14303-4.2601-0.14376zm-0.11749 13.475c-3.0364 0.01505-5.9918 0.39124-7.9548 1.0491-4.191 1.4045-8.3388 4.0235-11.468 7.243-2.9429 3.0273-5.0342 6.4663-6.368 10.47-0.95072 2.8542-1.2465 5.2521-1.1417 9.2458 0.0362 1.3823 0.14544 2.999 0.24742 3.6519 0.79952 5.1183 4.1468 11.342 8.1234 15.107 0.54418 0.5151 1.1706 1.0594 1.3933 1.2095 0.22264 0.15006 0.83268 0.57812 1.356 0.95098 0.52331 0.37286 1.0054 0.66049 1.0712 0.6386 0.0658-0.0219 0.15296-0.18814 0.19213-0.36907 0.0391-0.18092 0.077-1.471 0.0843-2.8668l0.0125-2.5378-1.3062-1.5772c-2.7846-3.3611-4.3456-6.2541-5.2346-9.702-2.178-8.4472 0.89912-17.258 7.9548-22.777 3.333-2.6069 7.3325-4.0763 12.401-4.5559 2.5662-0.24279 7.2936 0.73526 10.249 2.1204 5.223 2.4476 9.5418 7.3868 11.401 13.036 0.86033 2.6145 1.0114 3.6361 1.0063 6.8255-4e-3 2.556-0.027 2.868-0.30547 4.1744-0.60325 2.8293-1.8123 5.7221-3.3478 8.0101-0.43463 0.64765-1.4033 1.9136-2.1521 2.8129l-1.3615 1.6338 0.0345 2.7852c0.0245 2.0225 0.0716 2.8238 0.17278 2.9248 0.1868 0.18656 1.2806-0.56166 2.7921-1.9089 5.3241-4.7454 8.1571-9.9912 9.2666-17.162 0.30096-1.9452 0.27248-5.5609-0.058-7.442-0.50908-2.897-1.2169-5.0997-2.4452-7.6106-4.2144-8.6151-12.633-14.572-21.585-15.272-0.99638-0.07796-2.0177-0.11283-3.0299-0.10781zm0.20596 14.494c-1.7918-9.2e-4 -2.058 0.02495-2.8986 0.28336-2.3599 0.72553-4.6154 2.7218-5.7211 5.0659-0.54328 1.1518-0.74564 1.9875-0.8169 3.3727-0.10793 2.0982 0.39925 4.1075 1.432 5.6796 0.60036 0.91391 2.2168 2.5131 3.1888 3.1543 2.2864 1.5082 5.0698 1.9829 7.6977 1.3131 3.3444-0.85235 5.85-3.3011 6.8863-6.7301 0.26297-0.87021 0.29995-1.186 0.29995-2.571s-0.0369-1.6994-0.29995-2.5696c-1.035-3.4249-3.4731-5.8136-6.8932-6.7509-0.76768-0.21038-1.1958-0.24654-2.8751-0.24742zm-0.25296 22.724c-4.4891 0.02307-7.7774 1.5201-9.1214 4.1827-0.67158 1.3304-0.88294 3.6276-0.67039 7.2982 0.35532 6.136 1.8233 17.23 2.7783 20.998 0.69585 2.7451 1.6914 4.3774 3.2925 5.3949 0.62862 0.3995 2.0378 0.85929 3.0713 1.0035 1.2454 0.17378 3.2351 0.0459 4.2462-0.27369 2.2465-0.70981 3.5129-2.2386 4.3002-5.1917 0.69525-2.608 1.9421-11.909 2.5696-19.169 0.24631-2.8495 0.25049-6.9092 8e-3 -8.0999-0.34583-1.7001-0.9224-2.6118-2.3305-3.6837-2.2703-1.7283-4.033-2.3234-7.2305-2.4438-0.30972-0.01166-0.61439-0.01674-0.91366-0.0152z" stroke-width="1.1" style="paint-order:fill markers stroke"/>
<path d="m195.27 12.667c-1.7157-7.08e-4 -3.4306 0.04594-4.2532 0.13961-10.082 1.1473-18.337 5.3141-25.461 12.852-4.795 5.0734-8.0744 11.193-9.8305 18.345-0.5745 2.3397-0.72462 3.3635-0.86114 5.887-0.14037 2.5949 4e-3 7.0847 0.30133 9.3495 0.43017 3.2818 1.7148 7.4822 3.4266 11.204 3.1662 6.8849 8.2782 12.677 14.892 16.877 2.0881 1.3259 6.3336 3.5016 8.1082 4.155 0.53648 0.19753 0.63193 0.19627 0.80171-8e-3 0.31462-0.37909-0.0983-3.8721-0.56534-4.7826-0.2999-0.58465-0.60237-0.81811-1.902-1.4666-7.1106-3.548-12.764-9.2953-16.367-16.637-1.5551-3.1686-2.6206-6.3319-2.9801-8.8505-0.40534-2.8394-0.47605-7.5435-0.16726-11.163 0.27606-3.2358 1.2112-6.4326 2.929-10.012 2.6074-5.4326 6.3388-9.9879 11.099-13.553 4.6347-3.4707 10.137-5.785 15.561-6.5435 1.4129-0.19759 7.4828-0.27196 9.3398-0.11473 4.2421 0.35917 7.8412 1.4286 12.066 3.5855 7.6091 3.8852 13.714 10.631 16.912 18.688 1.7098 4.308 2.1588 7.0391 2.1591 13.137 2.3e-4 4.8726-0.26145 6.8127-1.3629 10.11-1.6504 4.94-4.2515 9.3923-7.7295 13.228-2.78 3.066-6.9235 6.2272-10.441 7.9672-1.607 0.79485-1.9092 1.0614-2.2268 1.9614-0.41211 1.168-0.68728 4.1437-0.40914 4.4218 0.23081 0.23082 1.0851-0.0858 3.5676-1.3187 2.4838-1.2336 5.8505-3.1937 7.4019-4.3098 7.1426-5.1389 12.809-13.326 15.159-21.902 0.97022-3.54 1.1662-5.0319 1.2523-9.5389 0.0722-3.7777-0.0694-6.5469-0.42712-8.3432-1.3703-6.8818-4.0131-12.734-7.9935-17.702-2.056-2.5664-4.6594-5.1973-6.9333-7.0052-6.1309-4.8745-12.797-7.602-20.806-8.5146-0.82769-0.09432-2.5444-0.14303-4.2601-0.14376zm-0.11749 13.475c-3.0364 0.01505-5.9918 0.39124-7.9548 1.0491-4.191 1.4045-8.3388 4.0235-11.468 7.243-2.9429 3.0273-5.0342 6.4663-6.368 10.47-0.95072 2.8542-1.2465 5.2521-1.1417 9.2458 0.0362 1.3823 0.14544 2.999 0.24742 3.6519 0.79952 5.1183 4.1468 11.342 8.1234 15.107 0.54418 0.5151 1.1706 1.0594 1.3933 1.2095 0.22264 0.15006 0.83268 0.57812 1.356 0.95098 0.52331 0.37286 1.0054 0.66049 1.0712 0.6386 0.0658-0.0219 0.15296-0.18814 0.19213-0.36907 0.0391-0.18092 0.077-1.471 0.0843-2.8668l0.0125-2.5378-1.3062-1.5772c-2.7846-3.3611-4.3456-6.2541-5.2346-9.702-2.178-8.4472 0.89912-17.258 7.9548-22.777 3.333-2.6069 7.3325-4.0763 12.401-4.5559 2.5662-0.24279 7.2936 0.73526 10.249 2.1204 5.223 2.4476 9.5418 7.3868 11.401 13.036 0.86033 2.6145 1.0114 3.6361 1.0063 6.8255-4e-3 2.556-0.027 2.868-0.30547 4.1744-0.60325 2.8293-1.8123 5.7221-3.3478 8.0101-0.43463 0.64765-1.4033 1.9136-2.1521 2.8129l-1.3615 1.6338 0.0345 2.7852c0.0245 2.0225 0.0716 2.8238 0.17278 2.9248 0.1868 0.18656 1.2806-0.56166 2.7921-1.9089 5.3241-4.7454 8.1571-9.9912 9.2666-17.162 0.30096-1.9452 0.27248-5.5609-0.058-7.442-0.50908-2.897-1.2169-5.0997-2.4452-7.6106-4.2144-8.6151-12.633-14.572-21.585-15.272-0.99638-0.07796-2.0177-0.11283-3.0299-0.10781zm0.20596 14.494c-1.7918-9.2e-4 -2.058 0.02495-2.8986 0.28336-2.3599 0.72553-4.6154 2.7218-5.7211 5.0659-0.54328 1.1518-0.74564 1.9875-0.8169 3.3727-0.10793 2.0982 0.39925 4.1075 1.432 5.6796 0.60036 0.91391 2.2168 2.5131 3.1888 3.1543 2.2864 1.5082 5.0698 1.9829 7.6977 1.3131 3.3444-0.85235 5.85-3.3011 6.8863-6.7301 0.26297-0.87021 0.29995-1.186 0.29995-2.571s-0.0369-1.6994-0.29995-2.5696c-1.035-3.4249-3.4731-5.8136-6.8932-6.7509-0.76768-0.21038-1.1958-0.24654-2.8751-0.24742zm-0.25296 22.724c-4.4891 0.02307-7.7774 1.5201-9.1214 4.1827-0.67158 1.3304-0.88294 3.6276-0.67039 7.2982 0.35532 6.136 1.8233 17.23 2.7783 20.998 0.69585 2.7451 1.6914 4.3774 3.2925 5.3949 0.62862 0.3995 2.0378 0.85929 3.0713 1.0035 1.2454 0.17378 3.2351 0.0459 4.2462-0.27369 2.2465-0.70981 3.5129-2.2386 4.3002-5.1917 0.69525-2.608 1.9421-11.909 2.5696-19.169 0.24631-2.8495 0.25049-6.9092 8e-3 -8.0999-0.34583-1.7001-0.9224-2.6118-2.3305-3.6837-2.2703-1.7283-4.033-2.3234-7.2305-2.4438-0.30972-0.01166-0.61439-0.01674-0.91366-0.0152z" stroke-width="1.3" style="paint-order:fill markers stroke"/>
<path d="m195.27 12.667c-1.7157-7.08e-4 -3.4306 0.04594-4.2532 0.13961-10.082 1.1473-18.337 5.3141-25.461 12.852-4.795 5.0734-8.0744 11.193-9.8305 18.345-0.5745 2.3397-0.72462 3.3635-0.86114 5.887-0.14037 2.5949 4e-3 7.0847 0.30133 9.3495 0.43017 3.2818 1.7148 7.4822 3.4266 11.204 3.1662 6.8849 8.2782 12.677 14.892 16.877 2.0881 1.3259 6.3336 3.5016 8.1082 4.155 0.53648 0.19753 0.63193 0.19627 0.80171-8e-3 0.31462-0.37909-0.0983-3.8721-0.56534-4.7826-0.2999-0.58465-0.60237-0.81811-1.902-1.4666-7.1106-3.548-12.764-9.2953-16.367-16.637-1.5551-3.1686-2.6206-6.3319-2.9801-8.8505-0.40534-2.8394-0.47605-7.5435-0.16726-11.163 0.27606-3.2358 1.2112-6.4326 2.929-10.012 2.6074-5.4326 6.3388-9.9879 11.099-13.553 4.6347-3.4707 10.137-5.785 15.561-6.5435 1.4129-0.19759 7.4828-0.27196 9.3398-0.11473 4.2421 0.35917 7.8412 1.4286 12.066 3.5855 7.6091 3.8852 13.714 10.631 16.912 18.688 1.7098 4.308 2.1588 7.0391 2.1591 13.137 2.3e-4 4.8726-0.26145 6.8127-1.3629 10.11-1.6504 4.94-4.2515 9.3923-7.7295 13.228-2.78 3.066-6.9235 6.2272-10.441 7.9672-1.607 0.79485-1.9092 1.0614-2.2268 1.9614-0.41211 1.168-0.68728 4.1437-0.40914 4.4218 0.23081 0.23082 1.0851-0.0858 3.5676-1.3187 2.4838-1.2336 5.8505-3.1937 7.4019-4.3098 7.1426-5.1389 12.809-13.326 15.159-21.902 0.97022-3.54 1.1662-5.0319 1.2523-9.5389 0.0722-3.7777-0.0694-6.5469-0.42712-8.3432-1.3703-6.8818-4.0131-12.734-7.9935-17.702-2.056-2.5664-4.6594-5.1973-6.9333-7.0052-6.1309-4.8745-12.797-7.602-20.806-8.5146-0.82769-0.09432-2.5444-0.14303-4.2601-0.14376zm-0.11749 13.475c-3.0364 0.01505-5.9918 0.39124-7.9548 1.0491-4.191 1.4045-8.3388 4.0235-11.468 7.243-2.9429 3.0273-5.0342 6.4663-6.368 10.47-0.95072 2.8542-1.2465 5.2521-1.1417 9.2458 0.0362 1.3823 0.14544 2.999 0.24742 3.6519 0.79952 5.1183 4.1468 11.342 8.1234 15.107 0.54418 0.5151 1.1706 1.0594 1.3933 1.2095 0.22264 0.15006 0.83268 0.57812 1.356 0.95098 0.52331 0.37286 1.0054 0.66049 1.0712 0.6386 0.0658-0.0219 0.15296-0.18814 0.19213-0.36907 0.0391-0.18092 0.077-1.471 0.0843-2.8668l0.0125-2.5378-1.3062-1.5772c-2.7846-3.3611-4.3456-6.2541-5.2346-9.702-2.178-8.4472 0.89912-17.258 7.9548-22.777 3.333-2.6069 7.3325-4.0763 12.401-4.5559 2.5662-0.24279 7.2936 0.73526 10.249 2.1204 5.223 2.4476 9.5418 7.3868 11.401 13.036 0.86033 2.6145 1.0114 3.6361 1.0063 6.8255-4e-3 2.556-0.027 2.868-0.30547 4.1744-0.60325 2.8293-1.8123 5.7221-3.3478 8.0101-0.43463 0.64765-1.4033 1.9136-2.1521 2.8129l-1.3615 1.6338 0.0345 2.7852c0.0245 2.0225 0.0716 2.8238 0.17278 2.9248 0.1868 0.18656 1.2806-0.56166 2.7921-1.9089 5.3241-4.7454 8.1571-9.9912 9.2666-17.162 0.30096-1.9452 0.27248-5.5609-0.058-7.442-0.50908-2.897-1.2169-5.0997-2.4452-7.6106-4.2144-8.6151-12.633-14.572-21.585-15.272-0.99638-0.07796-2.0177-0.11283-3.0299-0.10781zm0.20596 14.494c-1.7918-9.2e-4 -2.058 0.02495-2.8986 0.28336-2.3599 0.72553-4.6154 2.7218-5.7211 5.0659-0.54328 1.1518-0.74564 1.9875-0.8169 3.3727-0.10793 2.0982 0.39925 4.1075 1.432 5.6796 0.60036 0.91391 2.2168 2.5131 3.1888 3.1543 2.2864 1.5082 5.0698 1.9829 7.6977 1.3131 3.3444-0.85235 5.85-3.3011 6.8863-6.7301 0.26297-0.87021 0.29995-1.186 0.29995-2.571s-0.0369-1.6994-0.29995-2.5696c-1.035-3.4249-3.4731-5.8136-6.8932-6.7509-0.76768-0.21038-1.1958-0.24654-2.8751-0.24742zm-0.25296 22.724c-4.4891 0.02307-7.7774 1.5201-9.1214 4.1827-0.67158 1.3304-0.88294 3.6276-0.67039 7.2982 0.35532 6.136 1.8233 17.23 2.7783 20.998 0.69585 2.7451 1.6914 4.3774 3.2925 5.3949 0.62862 0.3995 2.0378 0.85929 3.0713 1.0035 1.2454 0.17378 3.2351 0.0459 4.2462-0.27369 2.2465-0.70981 3.5129-2.2386 4.3002-5.1917 0.69525-2.608 1.9421-11.909 2.5696-19.169 0.24631-2.8495 0.25049-6.9092 8e-3 -8.0999-0.34583-1.7001-0.9224-2.6118-2.3305-3.6837-2.2703-1.7283-4.033-2.3234-7.2305-2.4438-0.30972-0.01166-0.61439-0.01674-0.91366-0.0152z" stroke-width="1.5" style="paint-order:fill markers stroke"/>
<path d="m195.27 12.667c-1.7157-7.08e-4 -3.4306 0.04594-4.2532 0.13961-10.082 1.1473-18.337 5.3141-25.461 12.852-4.795 5.0734-8.0744 11.193-9.8305 18.345-0.5745 2.3397-0.72462 3.3635-0.86114 5.887-0.14037 2.5949 4e-3 7.0847 0.30133 9.3495 0.43017 3.2818 1.7148 7.4822 3.4266 11.204 3.1662 6.8849 8.2782 12.677 14.892 16.877 2.0881 1.3259 6.3336 3.5016 8.1082 4.155 0.53648 0.19753 0.63193 0.19627 0.80171-8e-3 0.31462-0.37909-0.0983-3.8721-0.56534-4.7826-0.2999-0.58465-0.60237-0.81811-1.902-1.4666-7.1106-3.548-12.764-9.2953-16.367-16.637-1.5551-3.1686-2.6206-6.3319-2.9801-8.8505-0.40534-2.8394-0.47605-7.5435-0.16726-11.163 0.27606-3.2358 1.2112-6.4326 2.929-10.012 2.6074-5.4326 6.3388-9.9879 11.099-13.553 4.6347-3.4707 10.137-5.785 15.561-6.5435 1.4129-0.19759 7.4828-0.27196 9.3398-0.11473 4.2421 0.35917 7.8412 1.4286 12.066 3.5855 7.6091 3.8852 13.714 10.631 16.912 18.688 1.7098 4.308 2.1588 7.0391 2.1591 13.137 2.3e-4 4.8726-0.26145 6.8127-1.3629 10.11-1.6504 4.94-4.2515 9.3923-7.7295 13.228-2.78 3.066-6.9235 6.2272-10.441 7.9672-1.607 0.79485-1.9092 1.0614-2.2268 1.9614-0.41211 1.168-0.68728 4.1437-0.40914 4.4218 0.23081 0.23082 1.0851-0.0858 3.5676-1.3187 2.4838-1.2336 5.8505-3.1937 7.4019-4.3098 7.1426-5.1389 12.809-13.326 15.159-21.902 0.97022-3.54 1.1662-5.0319 1.2523-9.5389 0.0722-3.7777-0.0694-6.5469-0.42712-8.3432-1.3703-6.8818-4.0131-12.734-7.9935-17.702-2.056-2.5664-4.6594-5.1973-6.9333-7.0052-6.1309-4.8745-12.797-7.602-20.806-8.5146-0.82769-0.09432-2.5444-0.14303-4.2601-0.14376zm-0.11749 13.475c-3.0364 0.01505-5.9918 0.39124-7.9548 1.0491-4.191 1.4045-8.3388 4.0235-11.468 7.243-2.9429 3.0273-5.0342 6.4663-6.368 10.47-0.95072 2.8542-1.2465 5.2521-1.1417 9.2458 0.0362 1.3823 0.14544 2.999 0.24742 3.6519 0.79952 5.1183 4.1468 11.342 8.1234 15.107 0.54418 0.5151 1.1706 1.0594 1.3933 1.2095 0.22264 0.15006 0.83268 0.57812 1.356 0.95098 0.52331 0.37286 1.0054 0.66049 1.0712 0.6386 0.0658-0.0219 0.15296-0.18814 0.19213-0.36907 0.0391-0.18092 0.077-1.471 0.0843-2.8668l0.0125-2.5378-1.3062-1.5772c-2.7846-3.3611-4.3456-6.2541-5.2346-9.702-2.178-8.4472 0.89912-17.258 7.9548-22.777 3.333-2.6069 7.3325-4.0763 12.401-4.5559 2.5662-0.24279 7.2936 0.73526 10.249 2.1204 5.223 2.4476 9.5418 7.3868 11.401 13.036 0.86033 2.6145 1.0114 3.6361 1.0063 6.8255-4e-3 2.556-0.027 2.868-0.30547 4.1744-0.60325 2.8293-1.8123 5.7221-3.3478 8.0101-0.43463 0.64765-1.4033 1.9136-2.1521 2.8129l-1.3615 1.6338 0.0345 2.7852c0.0245 2.0225 0.0716 2.8238 0.17278 2.9248 0.1868 0.18656 1.2806-0.56166 2.7921-1.9089 5.3241-4.7454 8.1571-9.9912 9.2666-17.162 0.30096-1.9452 0.27248-5.5609-0.058-7.442-0.50908-2.897-1.2169-5.0997-2.4452-7.6106-4.2144-8.6151-12.633-14.572-21.585-15.272-0.99638-0.07796-2.0177-0.11283-3.0299-0.10781zm0.20596 14.494c-1.7918-9.2e-4 -2.058 0.02495-2.8986 0.28336-2.3599 0.72553-4.6154 2.7218-5.7211 5.0659-0.54328 1.1518-0.74564 1.9875-0.8169 3.3727-0.10793 2.0982 0.39925 4.1075 1.432 5.6796 0.60036 0.91391 2.2168 2.5131 3.1888 3.1543 2.2864 1.5082 5.0698 1.9829 7.6977 1.3131 3.3444-0.85235 5.85-3.3011 6.8863-6.7301 0.26297-0.87021 0.29995-1.186 0.29995-2.571s-0.0369-1.6994-0.29995-2.5696c-1.035-3.4249-3.4731-5.8136-6.8932-6.7509-0.76768-0.21038-1.1958-0.24654-2.8751-0.24742zm-0.25296 22.724c-4.4891 0.02307-7.7774 1.5201-9.1214 4.1827-0.67158 1.3304-0.88294 3.6276-0.67039 7.2982 0.35532 6.136 1.8233 17.23 2.7783 20.998 0.69585 2.7451 1.6914 4.3774 3.2925 5.3949 0.62862 0.3995 2.0378 0.85929 3.0713 1.0035 1.2454 0.17378 3.2351 0.0459 4.2462-0.27369 2.2465-0.70981 3.5129-2.2386 4.3002-5.1917 0.69525-2.608 1.9421-11.909 2.5696-19.169 0.24631-2.8495 0.25049-6.9092 8e-3 -8.0999-0.34583-1.7001-0.9224-2.6118-2.3305-3.6837-2.2703-1.7283-4.033-2.3234-7.2305-2.4438-0.30972-0.01166-0.61439-0.01674-0.91366-0.0152z" stroke-width="1.7" style="paint-order:fill markers stroke"/>
<path d="m195.27 12.667c-1.7157-7.08e-4 -3.4306 0.04594-4.2532 0.13961-10.082 1.1473-18.337 5.3141-25.461 12.852-4.795 5.0734-8.0744 11.193-9.8305 18.345-0.5745 2.3397-0.72462 3.3635-0.86114 5.887-0.14037 2.5949 4e-3 7.0847 0.30133 9.3495 0.43017 3.2818 1.7148 7.4822 3.4266 11.204 3.1662 6.8849 8.2782 12.677 14.892 16.877 2.0881 1.3259 6.3336 3.5016 8.1082 4.155 0.53648 0.19753 0.63193 0.19627 0.80171-8e-3 0.31462-0.37909-0.0983-3.8721-0.56534-4.7826-0.2999-0.58465-0.60237-0.81811-1.902-1.4666-7.1106-3.548-12.764-9.2953-16.367-16.637-1.5551-3.1686-2.6206-6.3319-2.9801-8.8505-0.40534-2.8394-0.47605-7.5435-0.16726-11.163 0.27606-3.2358 1.2112-6.4326 2.929-10.012 2.6074-5.4326 6.3388-9.9879 11.099-13.553 4.6347-3.4707 10.137-5.785 15.561-6.5435 1.4129-0.19759 7.4828-0.27196 9.3398-0.11473 4.2421 0.35917 7.8412 1.4286 12.066 3.5855 7.6091 3.8852 13.714 10.631 16.912 18.688 1.7098 4.308 2.1588 7.0391 2.1591 13.137 2.3e-4 4.8726-0.26145 6.8127-1.3629 10.11-1.6504 4.94-4.2515 9.3923-7.7295 13.228-2.78 3.066-6.9235 6.2272-10.441 7.9672-1.607 0.79485-1.9092 1.0614-2.2268 1.9614-0.41211 1.168-0.68728 4.1437-0.40914 4.4218 0.23081 0.23082 1.0851-0.0858 3.5676-1.3187 2.4838-1.2336 5.8505-3.1937 7.4019-4.3098 7.1426-5.1389 12.809-13.326 15.159-21.902 0.97022-3.54 1.1662-5.0319 1.2523-9.5389 0.0722-3.7777-0.0694-6.5469-0.42712-8.3432-1.3703-6.8818-4.0131-12.734-7.9935-17.702-2.056-2.5664-4.6594-5.1973-6.9333-7.0052-6.1309-4.8745-12.797-7.602-20.806-8.5146-0.82769-0.09432-2.5444-0.14303-4.2601-0.14376zm-0.11749 13.475c-3.0364 0.01505-5.9918 0.39124-7.9548 1.0491-4.191 1.4045-8.3388 4.0235-11.468 7.243-2.9429 3.0273-5.0342 6.4663-6.368 10.47-0.95072 2.8542-1.2465 5.2521-1.1417 9.2458 0.0362 1.3823 0.14544 2.999 0.24742 3.6519 0.79952 5.1183 4.1468 11.342 8.1234 15.107 0.54418 0.5151 1.1706 1.0594 1.3933 1.2095 0.22264 0.15006 0.83268 0.57812 1.356 0.95098 0.52331 0.37286 1.0054 0.66049 1.0712 0.6386 0.0658-0.0219 0.15296-0.18814 0.19213-0.36907 0.0391-0.18092 0.077-1.471 0.0843-2.8668l0.0125-2.5378-1.3062-1.5772c-2.7846-3.3611-4.3456-6.2541-5.2346-9.702-2.178-8.4472 0.89912-17.258 7.9548-22.777 3.333-2.6069 7.3325-4.0763 12.401-4.5559 2.5662-0.24279 7.2936 0.73526 10.249 2.1204 5.223 2.4476 9.5418 7.3868 11.401 13.036 0.86033 2.6145 1.0114 3.6361 1.0063 6.8255-4e-3 2.556-0.027 2.868-0.30547 4.1744-0.60325 2.8293-1.8123 5.7221-3.3478 8.0101-0.43463 0.64765-1.4033 1.9136-2.1521 2.8129l-1.3615 1.6338 0.0345 2.7852c0.0245 2.0225 0.0716 2.8238 0.17278 2.9248 0.1868 0.18656 1.2806-0.56166 2.7921-1.9089 5.3241-4.7454 8.1571-9.9912 9.2666-17.162 0.30096-1.9452 0.27248-5.5609-0.058-7.442-0.50908-2.897-1.2169-5.0997-2.4452-7.6106-4.2144-8.6151-12.633-14.572-21.585-15.272-0.99638-0.07796-2.0177-0.11283-3.0299-0.10781zm0.20596 14.494c-1.7918-9.2e-4 -2.058 0.02495-2.8986 0.28336-2.3599 0.72553-4.6154 2.7218-5.7211 5.0659-0.54328 1.1518-0.74564 1.9875-0.8169 3.3727-0.10793 2.0982 0.39925 4.1075 1.432 5.6796 0.60036 0.91391 2.2168 2.5131 3.1888 3.1543 2.2864 1.5082 5.0698 1.9829 7.6977 1.3131 3.3444-0.85235 5.85-3.3011 6.8863-6.7301 0.26297-0.87021 0.29995-1.186 0.29995-2.571s-0.0369-1.6994-0.29995-2.5696c-1.035-3.4249-3.4731-5.8136-6.8932-6.7509-0.76768-0.21038-1.1958-0.24654-2.8751-0.24742zm-0.25296 22.724c-4.4891 0.02307-7.7774 1.5201-9.1214 4.1827-0.67158 1.3304-0.88294 3.6276-0.67039 7.2982 0.35532 6.136 1.8233 17.23 2.7783 20.998 0.69585 2.7451 1.6914 4.3774 3.2925 5.3949 0.62862 0.3995 2.0378 0.85929 3.0713 1.0035 1.2454 0.17378 3.2351 0.0459 4.2462-0.27369 2.2465-0.70981 3.5129-2.2386 4.3002-5.1917 0.69525-2.608 1.9421-11.909 2.5696-19.169 0.24631-2.8495 0.25049-6.9092 8e-3 -8.0999-0.34583-1.7001-0.9224-2.6118-2.3305-3.6837-2.2703-1.7283-4.033-2.3234-7.2305-2.4438-0.30972-0.01166-0.61439-0.01674-0.91366-0.0152z" stroke-width="1.9" style="paint-order:fill markers stroke"/>
<path d="m195.27 12.667c-1.7157-7.08e-4 -3.4306 0.04594-4.2532 0.13961-10.082 1.1473-18.337 5.3141-25.461 12.852-4.795 5.0734-8.0744 11.193-9.8305 18.345-0.5745 2.3397-0.72462 3.3635-0.86114 5.887-0.14037 2.5949 4e-3 7.0847 0.30133 9.3495 0.43017 3.2818 1.7148 7.4822 3.4266 11.204 3.1662 6.8849 8.2782 12.677 14.892 16.877 2.0881 1.3259 6.3336 3.5016 8.1082 4.155 0.53648 0.19753 0.63193 0.19627 0.80171-8e-3 0.31462-0.37909-0.0983-3.8721-0.56534-4.7826-0.2999-0.58465-0.60237-0.81811-1.902-1.4666-7.1106-3.548-12.764-9.2953-16.367-16.637-1.5551-3.1686-2.6206-6.3319-2.9801-8.8505-0.40534-2.8394-0.47605-7.5435-0.16726-11.163 0.27606-3.2358 1.2112-6.4326 2.929-10.012 2.6074-5.4326 6.3388-9.9879 11.099-13.553 4.6347-3.4707 10.137-5.785 15.561-6.5435 1.4129-0.19759 7.4828-0.27196 9.3398-0.11473 4.2421 0.35917 7.8412 1.4286 12.066 3.5855 7.6091 3.8852 13.714 10.631 16.912 18.688 1.7098 4.308 2.1588 7.0391 2.1591 13.137 2.3e-4 4.8726-0.26145 6.8127-1.3629 10.11-1.6504 4.94-4.2515 9.3923-7.7295 13.228-2.78 3.066-6.9235 6.2272-10.441 7.9672-1.607 0.79485-1.9092 1.0614-2.2268 1.9614-0.41211 1.168-0.68728 4.1437-0.40914 4.4218 0.23081 0.23082 1.0851-0.0858 3.5676-1.3187 2.4838-1.2336 5.8505-3.1937 7.4019-4.3098 7.1426-5.1389 12.809-13.326 15.159-21.902 0.97022-3.54 1.1662-5.0319 1.2523-9.5389 0.0722-3.7777-0.0694-6.5469-0.42712-8.3432-1.3703-6.8818-4.0131-12.734-7.9935-17.702-2.056-2.5664-4.6594-5.1973-6.9333-7.0052-6.1309-4.8745-12.797-7.602-20.806-8.5146-0.82769-0.09432-2.5444-0.14303-4.2601-0.14376zm-0.11749 13.475c-3.0364 0.01505-5.9918 0.39124-7.9548 1.0491-4.191 1.4045-8.3388 4.0235-11.468 7.243-2.9429 3.0273-5.0342 6.4663-6.368 10.47-0.95072 2.8542-1.2465 5.2521-1.1417 9.2458 0.0362 1.3823 0.14544 2.999 0.24742 3.6519 0.79952 5.1183 4.1468 11.342 8.1234 15.107 0.54418 0.5151 1.1706 1.0594 1.3933 1.2095 0.22264 0.15006 0.83268 0.57812 1.356 0.95098 0.52331 0.37286 1.0054 0.66049 1.0712 0.6386 0.0658-0.0219 0.15296-0.18814 0.19213-0.36907 0.0391-0.18092 0.077-1.471 0.0843-2.8668l0.0125-2.5378-1.3062-1.5772c-2.7846-3.3611-4.3456-6.2541-5.2346-9.702-2.178-8.4472 0.89912-17.258 7.9548-22.777 3.333-2.6069 7.3325-4.0763 12.401-4.5559 2.5662-0.24279 7.2936 0.73526 10.249 2.1204 5.223 2.4476 9.5418 7.3868 11.401 13.036 0.86033 2.6145 1.0114 3.6361 1.0063 6.8255-4e-3 2.556-0.027 2.868-0.30547 4.1744-0.60325 2.8293-1.8123 5.7221-3.3478 8.0101-0.43463 0.64765-1.4033 1.9136-2.1521 2.8129l-1.3615 1.6338 0.0345 2.7852c0.0245 2.0225 0.0716 2.8238 0.17278 2.9248 0.1868 0.18656 1.2806-0.56166 2.7921-1.9089 5.3241-4.7454 8.1571-9.9912 9.2666-17.162 0.30096-1.9452 0.27248-5.5609-0.058-7.442-0.50908-2.897-1.2169-5.0997-2.4452-7.6106-4.2144-8.6151-12.633-14.572-21.585-15.272-0.99638-0.07796-2.0177-0.11283-3.0299-0.10781zm0.20596 14.494c-1.7918-9.2e-4 -2.058 0.02495-2.8986 0.28336-2.3599 0.72553-4.6154 2.7218-5.7211 5.0659-0.54328 1.1518-0.74564 1.9875-0.8169 3.3727-0.10793 2.0982 0.39925 4.1075 1.432 5.6796 0.60036 0.91391 2.2168 2.5131 3.1888 3.1543 2.2864 1.5082 5.0698 1.9829 7.6977 1.3131 3.3444-0.85235 5.85-3.3011 6.8863-6.7301 0.26297-0.87021 0.29995-1.186 0.29995-2.571s-0.0369-1.6994-0.29995-2.5696c-1.035-3.4249-3.4731-5.8136-6.8932-6.7509-0.76768-0.21038-1.1958-0.24654-2.8751-0.24742zm-0.25296 22.724c-4.4891 0.02307-7.7774 1.5201-9.1214 4.1827-0.67158 1.3304-0.88294 3.6276-0.67039 7.2982 0.35532 6.136 1.8233 17.23 2.7783 20.998 0.69585 2.7451 1.6914 4.3774 3.2925 5.3949 0.62862 0.3995 2.0378 0.85929 3.0713 1.0035 1.2454 0.17378 3.2351 0.0459 4.2462-0.27369 2.2465-0.70981 3.5129-2.2386 4.3002-5.1917 0.69525-2.608 1.9421-11.909 2.5696-19.169 0.24631-2.8495 0.25049-6.9092 8e-3 -8.0999-0.34583-1.7001-0.9224-2.6118-2.3305-3.6837-2.2703-1.7283-4.033-2.3234-7.2305-2.4438-0.30972-0.01166-0.61439-0.01674-0.91366-0.0152z" stroke-width="2.1" style="paint-order:fill markers stroke"/>
<path d="m195.27 12.667c-1.7157-7.08e-4 -3.4306 0.04594-4.2532 0.13961-10.082 1.1473-18.337 5.3141-25.461 12.852-4.795 5.0734-8.0744 11.193-9.8305 18.345-0.5745 2.3397-0.72462 3.3635-0.86114 5.887-0.14037 2.5949 4e-3 7.0847 0.30133 9.3495 0.43017 3.2818 1.7148 7.4822 3.4266 11.204 3.1662 6.8849 8.2782 12.677 14.892 16.877 2.0881 1.3259 6.3336 3.5016 8.1082 4.155 0.53648 0.19753 0.63193 0.19627 0.80171-8e-3 0.31462-0.37909-0.0983-3.8721-0.56534-4.7826-0.2999-0.58465-0.60237-0.81811-1.902-1.4666-7.1106-3.548-12.764-9.2953-16.367-16.637-1.5551-3.1686-2.6206-6.3319-2.9801-8.8505-0.40534-2.8394-0.47605-7.5435-0.16726-11.163 0.27606-3.2358 1.2112-6.4326 2.929-10.012 2.6074-5.4326 6.3388-9.9879 11.099-13.553 4.6347-3.4707 10.137-5.785 15.561-6.5435 1.4129-0.19759 7.4828-0.27196 9.3398-0.11473 4.2421 0.35917 7.8412 1.4286 12.066 3.5855 7.6091 3.8852 13.714 10.631 16.912 18.688 1.7098 4.308 2.1588 7.0391 2.1591 13.137 2.3e-4 4.8726-0.26145 6.8127-1.3629 10.11-1.6504 4.94-4.2515 9.3923-7.7295 13.228-2.78 3.066-6.9235 6.2272-10.441 7.9672-1.607 0.79485-1.9092 1.0614-2.2268 1.9614-0.41211 1.168-0.68728 4.1437-0.40914 4.4218 0.23081 0.23082 1.0851-0.0858 3.5676-1.3187 2.4838-1.2336 5.8505-3.1937 7.4019-4.3098 7.1426-5.1389 12.809-13.326 15.159-21.902 0.97022-3.54 1.1662-5.0319 1.2523-9.5389 0.0722-3.7777-0.0694-6.5469-0.42712-8.3432-1.3703-6.8818-4.0131-12.734-7.9935-17.702-2.056-2.5664-4.6594-5.1973-6.9333-7.0052-6.1309-4.8745-12.797-7.602-20.806-8.5146-0.82769-0.09432-2.5444-0.14303-4.2601-0.14376zm-0.11749 13.475c-3.0364 0.01505-5.9918 0.39124-7.9548 1.0491-4.191 1.4045-8.3388 4.0235-11.468 7.243-2.9429 3.0273-5.0342 6.4663-6.368 10.47-0.95072 2.8542-1.2465 5.2521-1.1417 9.2458 0.0362 1.3823 0.14544 2.999 0.24742 3.6519 0.79952 5.1183 4.1468 11.342 8.1234 15.107 0.54418 0.5151 1.1706 1.0594 1.3933 1.2095 0.22264 0.15006 0.83268 0.57812 1.356 0.95098 0.52331 0.37286 1.0054 0.66049 1.0712 0.6386 0.0658-0.0219 0.15296-0.18814 0.19213-0.36907 0.0391-0.18092 0.077-1.471 0.0843-2.8668l0.0125-2.5378-1.3062-1.5772c-2.7846-3.3611-4.3456-6.2541-5.2346-9.702-2.178-8.4472 0.89912-17.258 7.9548-22.777 3.333-2.6069 7.3325-4.0763 12.401-4.5559 2.5662-0.24279 7.2936 0.73526 10.249 2.1204 5.223 2.4476 9.5418 7.3868 11.401 13.036 0.86033 2.6145 1.0114 3.6361 1.0063 6.8255-4e-3 2.556-0.027 2.868-0.30547 4.1744-0.60325 2.8293-1.8123 5.7221-3.3478 8.0101-0.43463 0.64765-1.4033 1.9136-2.1521 2.8129l-1.3615 1.6338 0.0345 2.7852c0.0245 2.0225 0.0716 2.8238 0.17278 2.9248 0.1868 0.18656 1.2806-0.56166 2.7921-1.9089 5.3241-4.7454 8.1571-9.9912 9.2666-17.162 0.30096-1.9452 0.27248-5.5609-0.058-7.442-0.50908-2.897-1.2169-5.0997-2.4452-7.6106-4.2144-8.6151-12.633-14.572-21.585-15.272-0.99638-0.07796-2.0177-0.11283-3.0299-0.10781zm0.20596 14.494c-1.7918-9.2e-4 -2.058 0.02495-2.8986 0.28336-2.3599 0.72553-4.6154 2.7218-5.7211 5.0659-0.54328 1.1518-0.74564 1.9875-0.8169 3.3727-0.10793 2.0982 0.39925 4.1075 1.432 5.6796 0.60036 0.91391 2.2168 2.5131 3.1888 3.1543 2.2864 1.5082 5.0698 1.9829 7.6977 1.3131 3.3444-0.85235 5.85-3.3011 6.8863-6.7301 0.26297-0.87021 0.29995-1.186 0.29995-2.571s-0.0369-1.6994-0.29995-2.5696c-1.035-3.4249-3.4731-5.8136-6.8932-6.7509-0.76768-0.21038-1.1958-0.24654-2.8751-0.24742zm-0.25296 22.724c-4.4891 0.02307-7.7774 1.5201-9.1214 4.1827-0.67158 1.3304-0.88294 3.6276-0.67039 7.2982 0.35532 6.136 1.8233 17.23 2.7783 20.998 0.69585 2.7451 1.6914 4.3774 3.2925 5.3949 0.62862 0.3995 2.0378 0.85929 3.0713 1.0035 1.2454 0.17378 3.2351 0.0459 4.2462-0.27369 2.2465-0.70981 3.5129-2.2386 4.3002-5.1917 0.69525-2.608 1.9421-11.909 2.5696-19.169 0.24631-2.8495 0.25049-6.9092 8e-3 -8.0999-0.34583-1.7001-0.9224-2.6118-2.3305-3.6837-2.2703-1.7283-4.033-2.3234-7.2305-2.4438-0.30972-0.01166-0.61439-0.01674-0.91366-0.0152z" stroke-width="2.3" style="paint-order:fill markers stroke"/>
<path d="m195.27 12.667c-1.7157-7.08e-4 -3.4306 0.04594-4.2532 0.13961-10.082 1.1473-18.337 5.3141-25.461 12.852-4.795 5.0734-8.0744 11.193-9.8305 18.345-0.5745 2.3397-0.72462 3.3635-0.86114 5.887-0.14037 2.5949 4e-3 7.0847 0.30133 9.3495 0.43017 3.2818 1.7148 7.4822 3.4266 11.204 3.1662 6.8849 8.2782 12.677 14.892 16.877 2.0881 1.3259 6.3336 3.5016 8.1082 4.155 0.53648 0.19753 0.63193 0.19627 0.80171-8e-3 0.31462-0.37909-0.0983-3.8721-0.56534-4.7826-0.2999-0.58465-0.60237-0.81811-1.902-1.4666-7.1106-3.548-12.764-9.2953-16.367-16.637-1.5551-3.1686-2.6206-6.3319-2.9801-8.8505-0.40534-2.8394-0.47605-7.5435-0.16726-11.163 0.27606-3.2358 1.2112-6.4326 2.929-10.012 2.6074-5.4326 6.3388-9.9879 11.099-13.553 4.6347-3.4707 10.137-5.785 15.561-6.5435 1.4129-0.19759 7.4828-0.27196 9.3398-0.11473 4.2421 0.35917 7.8412 1.4286 12.066 3.5855 7.6091 3.8852 13.714 10.631 16.912 18.688 1.7098 4.308 2.1588 7.0391 2.1591 13.137 2.3e-4 4.8726-0.26145 6.8127-1.3629 10.11-1.6504 4.94-4.2515 9.3923-7.7295 13.228-2.78 3.066-6.9235 6.2272-10.441 7.9672-1.607 0.79485-1.9092 1.0614-2.2268 1.9614-0.41211 1.168-0.68728 4.1437-0.40914 4.4218 0.23081 0.23082 1.0851-0.0858 3.5676-1.3187 2.4838-1.2336 5.8505-3.1937 7.4019-4.3098 7.1426-5.1389 12.809-13.326 15.159-21.902 0.97022-3.54 1.1662-5.0319 1.2523-9.5389 0.0722-3.7777-0.0694-6.5469-0.42712-8.3432-1.3703-6.8818-4.0131-12.734-7.9935-17.702-2.056-2.5664-4.6594-5.1973-6.9333-7.0052-6.1309-4.8745-12.797-7.602-20.806-8.5146-0.82769-0.09432-2.5444-0.14303-4.2601-0.14376zm-0.11749 13.475c-3.0364 0.01505-5.9918 0.39124-7.9548 1.0491-4.191 1.4045-8.3388 4.0235-11.468 7.243-2.9429 3.0273-5.0342 6.4663-6.368 10.47-0.95072 2.8542-1.2465 5.2521-1.1417 9.2458 0.0362 1.3823 0.14544 2.999 0.24742 3.6519 0.79952 5.1183 4.1468 11.342 8.1234 15.107 0.54418 0.5151 1.1706 1.0594 1.3933 1.2095 0.22264 0.15006 0.83268 0.57812 1.356 0.95098 0.52331 0.37286 1.0054 0.66049 1.0712 0.6386 0.0658-0.0219 0.15296-0.18814 0.19213-0.36907 0.0391-0.18092 0.077-1.471 0.0843-2.8668l0.0125-2.5378-1.3062-1.5772c-2.7846-3.3611-4.3456-6.2541-5.2346-9.702-2.178-8.4472 0.89912-17.258 7.9548-22.777 3.333-2.6069 7.3325-4.0763 12.401-4.5559 2.5662-0.24279 7.2936 0.73526 10.249 2.1204 5.223 2.4476 9.5418 7.3868 11.401 13.036 0.86033 2.6145 1.0114 3.6361 1.0063 6.8255-4e-3 2.556-0.027 2.868-0.30547 4.1744-0.60325 2.8293-1.8123 5.7221-3.3478 8.0101-0.43463 0.64765-1.4033 1.9136-2.1521 2.8129l-1.3615 1.6338 0.0345 2.7852c0.0245 2.0225 0.0716 2.8238 0.17278 2.9248 0.1868 0.18656 1.2806-0.56166 2.7921-1.9089 5.3241-4.7454 8.1571-9.9912 9.2666-17.162 0.30096-1.9452 0.27248-5.5609-0.058-7.442-0.50908-2.897-1.2169-5.0997-2.4452-7.6106-4.2144-8.6151-12.633-14.572-21.585-15.272-0.99638-0.07796-2.0177-0.11283-3.0299-0.10781zm0.20596 14.494c-1.7918-9.2e-4 -2.058 0.02495-2.8986 0.28336-2.3599 0.72553-4.6154 2.7218-5.7211 5.0659-0.54328 1.1518-0.74564 1.9875-0.8169 3.3727-0.10793 2.0982 0.39925 4.1075 1.432 5.6796 0.60036 0.91391 2.2168 2.5131 3.1888 3.1543 2.2864 1.5082 5.0698 1.9829 7.6977 1.3131 3.3444-0.85235 5.85-3.3011 6.8863-6.7301 0.26297-0.87021 0.29995-1.186 0.29995-2.571s-0.0369-1.6994-0.29995-2.5696c-1.035-3.4249-3.4731-5.8136-6.8932-6.7509-0.76768-0.21038-1.1958-0.24654-2.8751-0.24742zm-0.25296 22.724c-4.4891 0.02307-7.7774 1.5201-9.1214 4.1827-0.67158 1.3304-0.88294 3.6276-0.67039 7.2982 0.35532 6.136 1.8233 17.23 2.7783 20.998 0.69585 2.7451 1.6914 4.3774 3.2925 5.3949 0.62862 0.3995 2.0378 0.85929 3.0713 1.0035 1.2454 0.17378 3.2351 0.0459 4.2462-0.27369 2.2465-0.70981 3.5129-2.2386 4.3002-5.1917 0.69525-2.608 1.9421-11.909 2.5696-19.169 0.24631-2.8495 0.25049-6.9092 8e-3 -8.0999-0.34583-1.7001-0.9224-2.6118-2.3305-3.6837-2.2703-1.7283-4.033-2.3234-7.2305-2.4438-0.30972-0.01166-0.61439-0.01674-0.91366-0.0152z" stroke-width="2.8" style="paint-order:fill markers stroke"/>
<path d="m195.27 12.667c-1.7157-7.08e-4 -3.4306 0.04594-4.2532 0.13961-10.082 1.1473-18.337 5.3141-25.461 12.852-4.795 5.0734-8.0744 11.193-9.8305 18.345-0.5745 2.3397-0.72462 3.3635-0.86114 5.887-0.14037 2.5949 4e-3 7.0847 0.30133 9.3495 0.43017 3.2818 1.7148 7.4822 3.4266 11.204 3.1662 6.8849 8.2782 12.677 14.892 16.877 2.0881 1.3259 6.3336 3.5016 8.1082 4.155 0.53648 0.19753 0.63193 0.19627 0.80171-8e-3 0.31462-0.37909-0.0983-3.8721-0.56534-4.7826-0.2999-0.58465-0.60237-0.81811-1.902-1.4666-7.1106-3.548-12.764-9.2953-16.367-16.637-1.5551-3.1686-2.6206-6.3319-2.9801-8.8505-0.40534-2.8394-0.47605-7.5435-0.16726-11.163 0.27606-3.2358 1.2112-6.4326 2.929-10.012 2.6074-5.4326 6.3388-9.9879 11.099-13.553 4.6347-3.4707 10.137-5.785 15.561-6.5435 1.4129-0.19759 7.4828-0.27196 9.3398-0.11473 4.2421 0.35917 7.8412 1.4286 12.066 3.5855 7.6091 3.8852 13.714 10.631 16.912 18.688 1.7098 4.308 2.1588 7.0391 2.1591 13.137 2.3e-4 4.8726-0.26145 6.8127-1.3629 10.11-1.6504 4.94-4.2515 9.3923-7.7295 13.228-2.78 3.066-6.9235 6.2272-10.441 7.9672-1.607 0.79485-1.9092 1.0614-2.2268 1.9614-0.41211 1.168-0.68728 4.1437-0.40914 4.4218 0.23081 0.23082 1.0851-0.0858 3.5676-1.3187 2.4838-1.2336 5.8505-3.1937 7.4019-4.3098 7.1426-5.1389 12.809-13.326 15.159-21.902 0.97022-3.54 1.1662-5.0319 1.2523-9.5389 0.0722-3.7777-0.0694-6.5469-0.42712-8.3432-1.3703-6.8818-4.0131-12.734-7.9935-17.702-2.056-2.5664-4.6594-5.1973-6.9333-7.0052-6.1309-4.8745-12.797-7.602-20.806-8.5146-0.82769-0.09432-2.5444-0.14303-4.2601-0.14376zm-0.11749 13.475c-3.0364 0.01505-5.9918 0.39124-7.9548 1.0491-4.191 1.4045-8.3388 4.0235-11.468 7.243-2.9429 3.0273-5.0342 6.4663-6.368 10.47-0.95072 2.8542-1.2465 5.2521-1.1417 9.2458 0.0362 1.3823 0.14544 2.999 0.24742 3.6519 0.79952 5.1183 4.1468 11.342 8.1234 15.107 0.54418 0.5151 1.1706 1.0594 1.3933 1.2095 0.22264 0.15006 0.83268 0.57812 1.356 0.95098 0.52331 0.37286 1.0054 0.66049 1.0712 0.6386 0.0658-0.0219 0.15296-0.18814 0.19213-0.36907 0.0391-0.18092 0.077-1.471 0.0843-2.8668l0.0125-2.5378-1.3062-1.5772c-2.7846-3.3611-4.3456-6.2541-5.2346-9.702-2.178-8.4472 0.89912-17.258 7.9548-22.777 3.333-2.6069 7.3325-4.0763 12.401-4.5559 2.5662-0.24279 7.2936 0.73526 10.249 2.1204 5.223 2.4476 9.5418 7.3868 11.401 13.036 0.86033 2.6145 1.0114 3.6361 1.0063 6.8255-4e-3 2.556-0.027 2.868-0.30547 4.1744-0.60325 2.8293-1.8123 5.7221-3.3478 8.0101-0.43463 0.64765-1.4033 1.9136-2.1521 2.8129l-1.3615 1.6338 0.0345 2.7852c0.0245 2.0225 0.0716 2.8238 0.17278 2.9248 0.1868 0.18656 1.2806-0.56166 2.7921-1.9089 5.3241-4.7454 8.1571-9.9912 9.2666-17.162 0.30096-1.9452 0.27248-5.5609-0.058-7.442-0.50908-2.897-1.2169-5.0997-2.4452-7.6106-4.2144-8.6151-12.633-14.572-21.585-15.272-0.99638-0.07796-2.0177-0.11283-3.0299-0.10781zm0.20596 14.494c-1.7918-9.2e-4 -2.058 0.02495-2.8986 0.28336-2.3599 0.72553-4.6154 2.7218-5.7211 5.0659-0.54328 1.1518-0.74564 1.9875-0.8169 3.3727-0.10793 2.0982 0.39925 4.1075 1.432 5.6796 0.60036 0.91391 2.2168 2.5131 3.1888 3.1543 2.2864 1.5082 5.0698 1.9829 7.6977 1.3131 3.3444-0.85235 5.85-3.3011 6.8863-6.7301 0.26297-0.87021 0.29995-1.186 0.29995-2.571s-0.0369-1.6994-0.29995-2.5696c-1.035-3.4249-3.4731-5.8136-6.8932-6.7509-0.76768-0.21038-1.1958-0.24654-2.8751-0.24742zm-0.25296 22.724c-4.4891 0.02307-7.7774 1.5201-9.1214 4.1827-0.67158 1.3304-0.88294 3.6276-0.67039 7.2982 0.35532 6.136 1.8233 17.23 2.7783 20.998 0.69585 2.7451 1.6914 4.3774 3.2925 5.3949 0.62862 0.3995 2.0378 0.85929 3.0713 1.0035 1.2454 0.17378 3.2351 0.0459 4.2462-0.27369 2.2465-0.70981 3.5129-2.2386 4.3002-5.1917 0.69525-2.608 1.9421-11.909 2.5696-19.169 0.24631-2.8495 0.25049-6.9092 8e-3 -8.0999-0.34583-1.7001-0.9224-2.6118-2.3305-3.6837-2.2703-1.7283-4.033-2.3234-7.2305-2.4438-0.30972-0.01166-0.61439-0.01674-0.91366-0.0152z" stroke-width="3.3" style="paint-order:fill markers stroke"/>
<path d="m195.27 12.667c-1.7157-7.08e-4 -3.4306 0.04594-4.2532 0.13961-10.082 1.1473-18.337 5.3141-25.461 12.852-4.795 5.0734-8.0744 11.193-9.8305 18.345-0.5745 2.3397-0.72462 3.3635-0.86114 5.887-0.14037 2.5949 4e-3 7.0847 0.30133 9.3495 0.43017 3.2818 1.7148 7.4822 3.4266 11.204 3.1662 6.8849 8.2782 12.677 14.892 16.877 2.0881 1.3259 6.3336 3.5016 8.1082 4.155 0.53648 0.19753 0.63193 0.19627 0.80171-8e-3 0.31462-0.37909-0.0983-3.8721-0.56534-4.7826-0.2999-0.58465-0.60237-0.81811-1.902-1.4666-7.1106-3.548-12.764-9.2953-16.367-16.637-1.5551-3.1686-2.6206-6.3319-2.9801-8.8505-0.40534-2.8394-0.47605-7.5435-0.16726-11.163 0.27606-3.2358 1.2112-6.4326 2.929-10.012 2.6074-5.4326 6.3388-9.9879 11.099-13.553 4.6347-3.4707 10.137-5.785 15.561-6.5435 1.4129-0.19759 7.4828-0.27196 9.3398-0.11473 4.2421 0.35917 7.8412 1.4286 12.066 3.5855 7.6091 3.8852 13.714 10.631 16.912 18.688 1.7098 4.308 2.1588 7.0391 2.1591 13.137 2.3e-4 4.8726-0.26145 6.8127-1.3629 10.11-1.6504 4.94-4.2515 9.3923-7.7295 13.228-2.78 3.066-6.9235 6.2272-10.441 7.9672-1.607 0.79485-1.9092 1.0614-2.2268 1.9614-0.41211 1.168-0.68728 4.1437-0.40914 4.4218 0.23081 0.23082 1.0851-0.0858 3.5676-1.3187 2.4838-1.2336 5.8505-3.1937 7.4019-4.3098 7.1426-5.1389 12.809-13.326 15.159-21.902 0.97022-3.54 1.1662-5.0319 1.2523-9.5389 0.0722-3.7777-0.0694-6.5469-0.42712-8.3432-1.3703-6.8818-4.0131-12.734-7.9935-17.702-2.056-2.5664-4.6594-5.1973-6.9333-7.0052-6.1309-4.8745-12.797-7.602-20.806-8.5146-0.82769-0.09432-2.5444-0.14303-4.2601-0.14376zm-0.11749 13.475c-3.0364 0.01505-5.9918 0.39124-7.9548 1.0491-4.191 1.4045-8.3388 4.0235-11.468 7.243-2.9429 3.0273-5.0342 6.4663-6.368 10.47-0.95072 2.8542-1.2465 5.2521-1.1417 9.2458 0.0362 1.3823 0.14544 2.999 0.24742 3.6519 0.79952 5.1183 4.1468 11.342 8.1234 15.107 0.54418 0.5151 1.1706 1.0594 1.3933 1.2095 0.22264 0.15006 0.83268 0.57812 1.356 0.95098 0.52331 0.37286 1.0054 0.66049 1.0712 0.6386 0.0658-0.0219 0.15296-0.18814 0.19213-0.36907 0.0391-0.18092 0.077-1.471 0.0843-2.8668l0.0125-2.5378-1.3062-1.5772c-2.7846-3.3611-4.3456-6.2541-5.2346-9.702-2.178-8.4472 0.89912-17.258 7.9548-22.777 3.333-2.6069 7.3325-4.0763 12.401-4.5559 2.5662-0.24279 7.2936 0.73526 10.249 2.1204 5.223 2.4476 9.5418 7.3868 11.401 13.036 0.86033 2.6145 1.0114 3.6361 1.0063 6.8255-4e-3 2.556-0.027 2.868-0.30547 4.1744-0.60325 2.8293-1.8123 5.7221-3.3478 8.0101-0.43463 0.64765-1.4033 1.9136-2.1521 2.8129l-1.3615 1.6338 0.0345 2.7852c0.0245 2.0225 0.0716 2.8238 0.17278 2.9248 0.1868 0.18656 1.2806-0.56166 2.7921-1.9089 5.3241-4.7454 8.1571-9.9912 9.2666-17.162 0.30096-1.9452 0.27248-5.5609-0.058-7.442-0.50908-2.897-1.2169-5.0997-2.4452-7.6106-4.2144-8.6151-12.633-14.572-21.585-15.272-0.99638-0.07796-2.0177-0.11283-3.0299-0.10781zm0.20596 14.494c-1.7918-9.2e-4 -2.058 0.02495-2.8986 0.28336-2.3599 0.72553-4.6154 2.7218-5.7211 5.0659-0.54328 1.1518-0.74564 1.9875-0.8169 3.3727-0.10793 2.0982 0.39925 4.1075 1.432 5.6796 0.60036 0.91391 2.2168 2.5131 3.1888 3.1543 2.2864 1.5082 5.0698 1.9829 7.6977 1.3131 3.3444-0.85235 5.85-3.3011 6.8863-6.7301 0.26297-0.87021 0.29995-1.186 0.29995-2.571s-0.0369-1.6994-0.29995-2.5696c-1.035-3.4249-3.4731-5.8136-6.8932-6.7509-0.76768-0.21038-1.1958-0.24654-2.8751-0.24742zm-0.25296 22.724c-4.4891 0.02307-7.7774 1.5201-9.1214 4.1827-0.67158 1.3304-0.88294 3.6276-0.67039 7.2982 0.35532 6.136 1.8233 17.23 2.7783 20.998 0.69585 2.7451 1.6914 4.3774 3.2925 5.3949 0.62862 0.3995 2.0378 0.85929 3.0713 1.0035 1.2454 0.17378 3.2351 0.0459 4.2462-0.27369 2.2465-0.70981 3.5129-2.2386 4.3002-5.1917 0.69525-2.608 1.9421-11.909 2.5696-19.169 0.24631-2.8495 0.25049-6.9092 8e-3 -8.0999-0.34583-1.7001-0.9224-2.6118-2.3305-3.6837-2.2703-1.7283-4.033-2.3234-7.2305-2.4438-0.30972-0.01166-0.61439-0.01674-0.91366-0.0152z" stroke-width="3.8" style="paint-order:fill markers stroke"/>
<path d="m195.27 12.667c-1.7157-7.08e-4 -3.4306 0.04594-4.2532 0.13961-10.082 1.1473-18.337 5.3141-25.461 12.852-4.795 5.0734-8.0744 11.193-9.8305 18.345-0.5745 2.3397-0.72462 3.3635-0.86114 5.887-0.14037 2.5949 4e-3 7.0847 0.30133 9.3495 0.43017 3.2818 1.7148 7.4822 3.4266 11.204 3.1662 6.8849 8.2782 12.677 14.892 16.877 2.0881 1.3259 6.3336 3.5016 8.1082 4.155 0.53648 0.19753 0.63193 0.19627 0.80171-8e-3 0.31462-0.37909-0.0983-3.8721-0.56534-4.7826-0.2999-0.58465-0.60237-0.81811-1.902-1.4666-7.1106-3.548-12.764-9.2953-16.367-16.637-1.5551-3.1686-2.6206-6.3319-2.9801-8.8505-0.40534-2.8394-0.47605-7.5435-0.16726-11.163 0.27606-3.2358 1.2112-6.4326 2.929-10.012 2.6074-5.4326 6.3388-9.9879 11.099-13.553 4.6347-3.4707 10.137-5.785 15.561-6.5435 1.4129-0.19759 7.4828-0.27196 9.3398-0.11473 4.2421 0.35917 7.8412 1.4286 12.066 3.5855 7.6091 3.8852 13.714 10.631 16.912 18.688 1.7098 4.308 2.1588 7.0391 2.1591 13.137 2.3e-4 4.8726-0.26145 6.8127-1.3629 10.11-1.6504 4.94-4.2515 9.3923-7.7295 13.228-2.78 3.066-6.9235 6.2272-10.441 7.9672-1.607 0.79485-1.9092 1.0614-2.2268 1.9614-0.41211 1.168-0.68728 4.1437-0.40914 4.4218 0.23081 0.23082 1.0851-0.0858 3.5676-1.3187 2.4838-1.2336 5.8505-3.1937 7.4019-4.3098 7.1426-5.1389 12.809-13.326 15.159-21.902 0.97022-3.54 1.1662-5.0319 1.2523-9.5389 0.0722-3.7777-0.0694-6.5469-0.42712-8.3432-1.3703-6.8818-4.0131-12.734-7.9935-17.702-2.056-2.5664-4.6594-5.1973-6.9333-7.0052-6.1309-4.8745-12.797-7.602-20.806-8.5146-0.82769-0.09432-2.5444-0.14303-4.2601-0.14376zm-0.11749 13.475c-3.0364 0.01505-5.9918 0.39124-7.9548 1.0491-4.191 1.4045-8.3388 4.0235-11.468 7.243-2.9429 3.0273-5.0342 6.4663-6.368 10.47-0.95072 2.8542-1.2465 5.2521-1.1417 9.2458 0.0362 1.3823 0.14544 2.999 0.24742 3.6519 0.79952 5.1183 4.1468 11.342 8.1234 15.107 0.54418 0.5151 1.1706 1.0594 1.3933 1.2095 0.22264 0.15006 0.83268 0.57812 1.356 0.95098 0.52331 0.37286 1.0054 0.66049 1.0712 0.6386 0.0658-0.0219 0.15296-0.18814 0.19213-0.36907 0.0391-0.18092 0.077-1.471 0.0843-2.8668l0.0125-2.5378-1.3062-1.5772c-2.7846-3.3611-4.3456-6.2541-5.2346-9.702-2.178-8.4472 0.89912-17.258 7.9548-22.777 3.333-2.6069 7.3325-4.0763 12.401-4.5559 2.5662-0.24279 7.2936 0.73526 10.249 2.1204 5.223 2.4476 9.5418 7.3868 11.401 13.036 0.86033 2.6145 1.0114 3.6361 1.0063 6.8255-4e-3 2.556-0.027 2.868-0.30547 4.1744-0.60325 2.8293-1.8123 5.7221-3.3478 8.0101-0.43463 0.64765-1.4033 1.9136-2.1521 2.8129l-1.3615 1.6338 0.0345 2.7852c0.0245 2.0225 0.0716 2.8238 0.17278 2.9248 0.1868 0.18656 1.2806-0.56166 2.7921-1.9089 5.3241-4.7454 8.1571-9.9912 9.2666-17.162 0.30096-1.9452 0.27248-5.5609-0.058-7.442-0.50908-2.897-1.2169-5.0997-2.4452-7.6106-4.2144-8.6151-12.633-14.572-21.585-15.272-0.99638-0.07796-2.0177-0.11283-3.0299-0.10781zm0.20596 14.494c-1.7918-9.2e-4 -2.058 0.02495-2.8986 0.28336-2.3599 0.72553-4.6154 2.7218-5.7211 5.0659-0.54328 1.1518-0.74564 1.9875-0.8169 3.3727-0.10793 2.0982 0.39925 4.1075 1.432 5.6796 0.60036 0.91391 2.2168 2.5131 3.1888 3.1543 2.2864 1.5082 5.0698 1.9829 7.6977 1.3131 3.3444-0.85235 5.85-3.3011 6.8863-6.7301 0.26297-0.87021 0.29995-1.186 0.29995-2.571s-0.0369-1.6994-0.29995-2.5696c-1.035-3.4249-3.4731-5.8136-6.8932-6.7509-0.76768-0.21038-1.1958-0.24654-2.8751-0.24742zm-0.25296 22.724c-4.4891 0.02307-7.7774 1.5201-9.1214 4.1827-0.67158 1.3304-0.88294 3.6276-0.67039 7.2982 0.35532 6.136 1.8233 17.23 2.7783 20.998 0.69585 2.7451 1.6914 4.3774 3.2925 5.3949 0.62862 0.3995 2.0378 0.85929 3.0713 1.0035 1.2454 0.17378 3.2351 0.0459 4.2462-0.27369 2.2465-0.70981 3.5129-2.2386 4.3002-5.1917 0.69525-2.608 1.9421-11.909 2.5696-19.169 0.24631-2.8495 0.25049-6.9092 8e-3 -8.0999-0.34583-1.7001-0.9224-2.6118-2.3305-3.6837-2.2703-1.7283-4.033-2.3234-7.2305-2.4438-0.30972-0.01166-0.61439-0.01674-0.91366-0.0152z" stroke-width="4.3" style="paint-order:fill markers stroke"/>
<path d="m195.27 12.667c-1.7157-7.08e-4 -3.4306 0.04594-4.2532 0.13961-10.082 1.1473-18.337 5.3141-25.461 12.852-4.795 5.0734-8.0744 11.193-9.8305 18.345-0.5745 2.3397-0.72462 3.3635-0.86114 5.887-0.14037 2.5949 4e-3 7.0847 0.30133 9.3495 0.43017 3.2818 1.7148 7.4822 3.4266 11.204 3.1662 6.8849 8.2782 12.677 14.892 16.877 2.0881 1.3259 6.3336 3.5016 8.1082 4.155 0.53648 0.19753 0.63193 0.19627 0.80171-8e-3 0.31462-0.37909-0.0983-3.8721-0.56534-4.7826-0.2999-0.58465-0.60237-0.81811-1.902-1.4666-7.1106-3.548-12.764-9.2953-16.367-16.637-1.5551-3.1686-2.6206-6.3319-2.9801-8.8505-0.40534-2.8394-0.47605-7.5435-0.16726-11.163 0.27606-3.2358 1.2112-6.4326 2.929-10.012 2.6074-5.4326 6.3388-9.9879 11.099-13.553 4.6347-3.4707 10.137-5.785 15.561-6.5435 1.4129-0.19759 7.4828-0.27196 9.3398-0.11473 4.2421 0.35917 7.8412 1.4286 12.066 3.5855 7.6091 3.8852 13.714 10.631 16.912 18.688 1.7098 4.308 2.1588 7.0391 2.1591 13.137 2.3e-4 4.8726-0.26145 6.8127-1.3629 10.11-1.6504 4.94-4.2515 9.3923-7.7295 13.228-2.78 3.066-6.9235 6.2272-10.441 7.9672-1.607 0.79485-1.9092 1.0614-2.2268 1.9614-0.41211 1.168-0.68728 4.1437-0.40914 4.4218 0.23081 0.23082 1.0851-0.0858 3.5676-1.3187 2.4838-1.2336 5.8505-3.1937 7.4019-4.3098 7.1426-5.1389 12.809-13.326 15.159-21.902 0.97022-3.54 1.1662-5.0319 1.2523-9.5389 0.0722-3.7777-0.0694-6.5469-0.42712-8.3432-1.3703-6.8818-4.0131-12.734-7.9935-17.702-2.056-2.5664-4.6594-5.1973-6.9333-7.0052-6.1309-4.8745-12.797-7.602-20.806-8.5146-0.82769-0.09432-2.5444-0.14303-4.2601-0.14376zm-0.11749 13.475c-3.0364 0.01505-5.9918 0.39124-7.9548 1.0491-4.191 1.4045-8.3388 4.0235-11.468 7.243-2.9429 3.0273-5.0342 6.4663-6.368 10.47-0.95072 2.8542-1.2465 5.2521-1.1417 9.2458 0.0362 1.3823 0.14544 2.999 0.24742 3.6519 0.79952 5.1183 4.1468 11.342 8.1234 15.107 0.54418 0.5151 1.1706 1.0594 1.3933 1.2095 0.22264 0.15006 0.83268 0.57812 1.356 0.95098 0.52331 0.37286 1.0054 0.66049 1.0712 0.6386 0.0658-0.0219 0.15296-0.18814 0.19213-0.36907 0.0391-0.18092 0.077-1.471 0.0843-2.8668l0.0125-2.5378-1.3062-1.5772c-2.7846-3.3611-4.3456-6.2541-5.2346-9.702-2.178-8.4472 0.89912-17.258 7.9548-22.777 3.333-2.6069 7.3325-4.0763 12.401-4.5559 2.5662-0.24279 7.2936 0.73526 10.249 2.1204 5.223 2.4476 9.5418 7.3868 11.401 13.036 0.86033 2.6145 1.0114 3.6361 1.0063 6.8255-4e-3 2.556-0.027 2.868-0.30547 4.1744-0.60325 2.8293-1.8123 5.7221-3.3478 8.0101-0.43463 0.64765-1.4033 1.9136-2.1521 2.8129l-1.3615 1.6338 0.0345 2.7852c0.0245 2.0225 0.0716 2.8238 0.17278 2.9248 0.1868 0.18656 1.2806-0.56166 2.7921-1.9089 5.3241-4.7454 8.1571-9.9912 9.2666-17.162 0.30096-1.9452 0.27248-5.5609-0.058-7.442-0.50908-2.897-1.2169-5.0997-2.4452-7.6106-4.2144-8.6151-12.633-14.572-21.585-15.272-0.99638-0.07796-2.0177-0.11283-3.0299-0.10781zm0.20596 14.494c-1.7918-9.2e-4 -2.058 0.02495-2.8986 0.28336-2.3599 0.72553-4.6154 2.7218-5.7211 5.0659-0.54328 1.1518-0.74564 1.9875-0.8169 3.3727-0.10793 2.0982 0.39925 4.1075 1.432 5.6796 0.60036 0.91391 2.2168 2.5131 3.1888 3.1543 2.2864 1.5082 5.0698 1.9829 7.6977 1.3131 3.3444-0.85235 5.85-3.3011 6.8863-6.7301 0.26297-0.87021 0.29995-1.186 0.29995-2.571s-0.0369-1.6994-0.29995-2.5696c-1.035-3.4249-3.4731-5.8136-6.8932-6.7509-0.76768-0.21038-1.1958-0.24654-2.8751-0.24742zm-0.25296 22.724c-4.4891 0.02307-7.7774 1.5201-9.1214 4.1827-0.67158 1.3304-0.88294 3.6276-0.67039 7.2982 0.35532 6.136 1.8233 17.23 2.7783 20.998 0.69585 2.7451 1.6914 4.3774 3.2925 5.3949 0.62862 0.3995 2.0378 0.85929 3.0713 1.0035 1.2454 0.17378 3.2351 0.0459 4.2462-0.27369 2.2465-0.70981 3.5129-2.2386 4.3002-5.1917 0.69525-2.608 1.9421-11.909 2.5696-19.169 0.24631-2.8495 0.25049-6.9092 8e-3 -8.0999-0.34583-1.7001-0.9224-2.6118-2.3305-3.6837-2.2703-1.7283-4.033-2.3234-7.2305-2.4438-0.30972-0.01166-0.61439-0.01674-0.91366-0.0152z" stroke-width="4.5" style="paint-order:fill markers stroke"/>
<path d="m195.27 12.667c-1.7157-7.08e-4 -3.4306 0.04594-4.2532 0.13961-10.082 1.1473-18.337 5.3141-25.461 12.852-4.795 5.0734-8.0744 11.193-9.8305 18.345-0.5745 2.3397-0.72462 3.3635-0.86114 5.887-0.14037 2.5949 4e-3 7.0847 0.30133 9.3495 0.43017 3.2818 1.7148 7.4822 3.4266 11.204 3.1662 6.8849 8.2782 12.677 14.892 16.877 2.0881 1.3259 6.3336 3.5016 8.1082 4.155 0.53648 0.19753 0.63193 0.19627 0.80171-8e-3 0.31462-0.37909-0.0983-3.8721-0.56534-4.7826-0.2999-0.58465-0.60237-0.81811-1.902-1.4666-7.1106-3.548-12.764-9.2953-16.367-16.637-1.5551-3.1686-2.6206-6.3319-2.9801-8.8505-0.40534-2.8394-0.47605-7.5435-0.16726-11.163 0.27606-3.2358 1.2112-6.4326 2.929-10.012 2.6074-5.4326 6.3388-9.9879 11.099-13.553 4.6347-3.4707 10.137-5.785 15.561-6.5435 1.4129-0.19759 7.4828-0.27196 9.3398-0.11473 4.2421 0.35917 7.8412 1.4286 12.066 3.5855 7.6091 3.8852 13.714 10.631 16.912 18.688 1.7098 4.308 2.1588 7.0391 2.1591 13.137 2.3e-4 4.8726-0.26145 6.8127-1.3629 10.11-1.6504 4.94-4.2515 9.3923-7.7295 13.228-2.78 3.066-6.9235 6.2272-10.441 7.9672-1.607 0.79485-1.9092 1.0614-2.2268 1.9614-0.41211 1.168-0.68728 4.1437-0.40914 4.4218 0.23081 0.23082 1.0851-0.0858 3.5676-1.3187 2.4838-1.2336 5.8505-3.1937 7.4019-4.3098 7.1426-5.1389 12.809-13.326 15.159-21.902 0.97022-3.54 1.1662-5.0319 1.2523-9.5389 0.0722-3.7777-0.0694-6.5469-0.42712-8.3432-1.3703-6.8818-4.0131-12.734-7.9935-17.702-2.056-2.5664-4.6594-5.1973-6.9333-7.0052-6.1309-4.8745-12.797-7.602-20.806-8.5146-0.82769-0.09432-2.5444-0.14303-4.2601-0.14376zm-0.11749 13.475c-3.0364 0.01505-5.9918 0.39124-7.9548 1.0491-4.191 1.4045-8.3388 4.0235-11.468 7.243-2.9429 3.0273-5.0342 6.4663-6.368 10.47-0.95072 2.8542-1.2465 5.2521-1.1417 9.2458 0.0362 1.3823 0.14544 2.999 0.24742 3.6519 0.79952 5.1183 4.1468 11.342 8.1234 15.107 0.54418 0.5151 1.1706 1.0594 1.3933 1.2095 0.22264 0.15006 0.83268 0.57812 1.356 0.95098 0.52331 0.37286 1.0054 0.66049 1.0712 0.6386 0.0658-0.0219 0.15296-0.18814 0.19213-0.36907 0.0391-0.18092 0.077-1.471 0.0843-2.8668l0.0125-2.5378-1.3062-1.5772c-2.7846-3.3611-4.3456-6.2541-5.2346-9.702-2.178-8.4472 0.89912-17.258 7.9548-22.777 3.333-2.6069 7.3325-4.0763 12.401-4.5559 2.5662-0.24279 7.2936 0.73526 10.249 2.1204 5.223 2.4476 9.5418 7.3868 11.401 13.036 0.86033 2.6145 1.0114 3.6361 1.0063 6.8255-4e-3 2.556-0.027 2.868-0.30547 4.1744-0.60325 2.8293-1.8123 5.7221-3.3478 8.0101-0.43463 0.64765-1.4033 1.9136-2.1521 2.8129l-1.3615 1.6338 0.0345 2.7852c0.0245 2.0225 0.0716 2.8238 0.17278 2.9248 0.1868 0.18656 1.2806-0.56166 2.7921-1.9089 5.3241-4.7454 8.1571-9.9912 9.2666-17.162 0.30096-1.9452 0.27248-5.5609-0.058-7.442-0.50908-2.897-1.2169-5.0997-2.4452-7.6106-4.2144-8.6151-12.633-14.572-21.585-15.272-0.99638-0.07796-2.0177-0.11283-3.0299-0.10781zm0.20596 14.494c-1.7918-9.2e-4 -2.058 0.02495-2.8986 0.28336-2.3599 0.72553-4.6154 2.7218-5.7211 5.0659-0.54328 1.1518-0.74564 1.9875-0.8169 3.3727-0.10793 2.0982 0.39925 4.1075 1.432 5.6796 0.60036 0.91391 2.2168 2.5131 3.1888 3.1543 2.2864 1.5082 5.0698 1.9829 7.6977 1.3131 3.3444-0.85235 5.85-3.3011 6.8863-6.7301 0.26297-0.87021 0.29995-1.186 0.29995-2.571s-0.0369-1.6994-0.29995-2.5696c-1.035-3.4249-3.4731-5.8136-6.8932-6.7509-0.76768-0.21038-1.1958-0.24654-2.8751-0.24742zm-0.25296 22.724c-4.4891 0.02307-7.7774 1.5201-9.1214 4.1827-0.67158 1.3304-0.88294 3.6276-0.67039 7.2982 0.35532 6.136 1.8233 17.23 2.7783 20.998 0.69585 2.7451 1.6914 4.3774 3.2925 5.3949 0.62862 0.3995 2.0378 0.85929 3.0713 1.0035 1.2454 0.17378 3.2351 0.0459 4.2462-0.27369 2.2465-0.70981 3.5129-2.2386 4.3002-5.1917 0.69525-2.608 1.9421-11.909 2.5696-19.169 0.24631-2.8495 0.25049-6.9092 8e-3 -8.0999-0.34583-1.7001-0.9224-2.6118-2.3305-3.6837-2.2703-1.7283-4.033-2.3234-7.2305-2.4438-0.30972-0.01166-0.61439-0.01674-0.91366-0.0152z" stroke-width="5" style="paint-order:fill markers stroke"/>
<path d="m195.27 12.667c-1.7157-7.08e-4 -3.4306 0.04594-4.2532 0.13961-10.082 1.1473-18.337 5.3141-25.461 12.852-4.795 5.0734-8.0744 11.193-9.8305 18.345-0.5745 2.3397-0.72462 3.3635-0.86114 5.887-0.14037 2.5949 4e-3 7.0847 0.30133 9.3495 0.43017 3.2818 1.7148 7.4822 3.4266 11.204 3.1662 6.8849 8.2782 12.677 14.892 16.877 2.0881 1.3259 6.3336 3.5016 8.1082 4.155 0.53648 0.19753 0.63193 0.19627 0.80171-8e-3 0.31462-0.37909-0.0983-3.8721-0.56534-4.7826-0.2999-0.58465-0.60237-0.81811-1.902-1.4666-7.1106-3.548-12.764-9.2953-16.367-16.637-1.5551-3.1686-2.6206-6.3319-2.9801-8.8505-0.40534-2.8394-0.47605-7.5435-0.16726-11.163 0.27606-3.2358 1.2112-6.4326 2.929-10.012 2.6074-5.4326 6.3388-9.9879 11.099-13.553 4.6347-3.4707 10.137-5.785 15.561-6.5435 1.4129-0.19759 7.4828-0.27196 9.3398-0.11473 4.2421 0.35917 7.8412 1.4286 12.066 3.5855 7.6091 3.8852 13.714 10.631 16.912 18.688 1.7098 4.308 2.1588 7.0391 2.1591 13.137 2.3e-4 4.8726-0.26145 6.8127-1.3629 10.11-1.6504 4.94-4.2515 9.3923-7.7295 13.228-2.78 3.066-6.9235 6.2272-10.441 7.9672-1.607 0.79485-1.9092 1.0614-2.2268 1.9614-0.41211 1.168-0.68728 4.1437-0.40914 4.4218 0.23081 0.23082 1.0851-0.0858 3.5676-1.3187 2.4838-1.2336 5.8505-3.1937 7.4019-4.3098 7.1426-5.1389 12.809-13.326 15.159-21.902 0.97022-3.54 1.1662-5.0319 1.2523-9.5389 0.0722-3.7777-0.0694-6.5469-0.42712-8.3432-1.3703-6.8818-4.0131-12.734-7.9935-17.702-2.056-2.5664-4.6594-5.1973-6.9333-7.0052-6.1309-4.8745-12.797-7.602-20.806-8.5146-0.82769-0.09432-2.5444-0.14303-4.2601-0.14376zm-0.11749 13.475c-3.0364 0.01505-5.9918 0.39124-7.9548 1.0491-4.191 1.4045-8.3388 4.0235-11.468 7.243-2.9429 3.0273-5.0342 6.4663-6.368 10.47-0.95072 2.8542-1.2465 5.2521-1.1417 9.2458 0.0362 1.3823 0.14544 2.999 0.24742 3.6519 0.79952 5.1183 4.1468 11.342 8.1234 15.107 0.54418 0.5151 1.1706 1.0594 1.3933 1.2095 0.22264 0.15006 0.83268 0.57812 1.356 0.95098 0.52331 0.37286 1.0054 0.66049 1.0712 0.6386 0.0658-0.0219 0.15296-0.18814 0.19213-0.36907 0.0391-0.18092 0.077-1.471 0.0843-2.8668l0.0125-2.5378-1.3062-1.5772c-2.7846-3.3611-4.3456-6.2541-5.2346-9.702-2.178-8.4472 0.89912-17.258 7.9548-22.777 3.333-2.6069 7.3325-4.0763 12.401-4.5559 2.5662-0.24279 7.2936 0.73526 10.249 2.1204 5.223 2.4476 9.5418 7.3868 11.401 13.036 0.86033 2.6145 1.0114 3.6361 1.0063 6.8255-4e-3 2.556-0.027 2.868-0.30547 4.1744-0.60325 2.8293-1.8123 5.7221-3.3478 8.0101-0.43463 0.64765-1.4033 1.9136-2.1521 2.8129l-1.3615 1.6338 0.0345 2.7852c0.0245 2.0225 0.0716 2.8238 0.17278 2.9248 0.1868 0.18656 1.2806-0.56166 2.7921-1.9089 5.3241-4.7454 8.1571-9.9912 9.2666-17.162 0.30096-1.9452 0.27248-5.5609-0.058-7.442-0.50908-2.897-1.2169-5.0997-2.4452-7.6106-4.2144-8.6151-12.633-14.572-21.585-15.272-0.99638-0.07796-2.0177-0.11283-3.0299-0.10781zm0.20596 14.494c-1.7918-9.2e-4 -2.058 0.02495-2.8986 0.28336-2.3599 0.72553-4.6154 2.7218-5.7211 5.0659-0.54328 1.1518-0.74564 1.9875-0.8169 3.3727-0.10793 2.0982 0.39925 4.1075 1.432 5.6796 0.60036 0.91391 2.2168 2.5131 3.1888 3.1543 2.2864 1.5082 5.0698 1.9829 7.6977 1.3131 3.3444-0.85235 5.85-3.3011 6.8863-6.7301 0.26297-0.87021 0.29995-1.186 0.29995-2.571s-0.0369-1.6994-0.29995-2.5696c-1.035-3.4249-3.4731-5.8136-6.8932-6.7509-0.76768-0.21038-1.1958-0.24654-2.8751-0.24742zm-0.25296 22.724c-4.4891 0.02307-7.7774 1.5201-9.1214 4.1827-0.67158 1.3304-0.88294 3.6276-0.67039 7.2982 0.35532 6.136 1.8233 17.23 2.7783 20.998 0.69585 2.7451 1.6914 4.3774 3.2925 5.3949 0.62862 0.3995 2.0378 0.85929 3.0713 1.0035 1.2454 0.17378 3.2351 0.0459 4.2462-0.27369 2.2465-0.70981 3.5129-2.2386 4.3002-5.1917 0.69525-2.608 1.9421-11.909 2.5696-19.169 0.24631-2.8495 0.25049-6.9092 8e-3 -8.0999-0.34583-1.7001-0.9224-2.6118-2.3305-3.6837-2.2703-1.7283-4.033-2.3234-7.2305-2.4438-0.30972-0.01166-0.61439-0.01674-0.91366-0.0152z" stroke-width="6" style="paint-order:fill markers stroke"/>
<path d="m195.27 12.667c-1.7157-7.08e-4 -3.4306 0.04594-4.2532 0.13961-10.082 1.1473-18.337 5.3141-25.461 12.852-4.795 5.0734-8.0744 11.193-9.8305 18.345-0.5745 2.3397-0.72462 3.3635-0.86114 5.887-0.14037 2.5949 4e-3 7.0847 0.30133 9.3495 0.43017 3.2818 1.7148 7.4822 3.4266 11.204 3.1662 6.8849 8.2782 12.677 14.892 16.877 2.0881 1.3259 6.3336 3.5016 8.1082 4.155 0.53648 0.19753 0.63193 0.19627 0.80171-8e-3 0.31462-0.37909-0.0983-3.8721-0.56534-4.7826-0.2999-0.58465-0.60237-0.81811-1.902-1.4666-7.1106-3.548-12.764-9.2953-16.367-16.637-1.5551-3.1686-2.6206-6.3319-2.9801-8.8505-0.40534-2.8394-0.47605-7.5435-0.16726-11.163 0.27606-3.2358 1.2112-6.4326 2.929-10.012 2.6074-5.4326 6.3388-9.9879 11.099-13.553 4.6347-3.4707 10.137-5.785 15.561-6.5435 1.4129-0.19759 7.4828-0.27196 9.3398-0.11473 4.2421 0.35917 7.8412 1.4286 12.066 3.5855 7.6091 3.8852 13.714 10.631 16.912 18.688 1.7098 4.308 2.1588 7.0391 2.1591 13.137 2.3e-4 4.8726-0.26145 6.8127-1.3629 10.11-1.6504 4.94-4.2515 9.3923-7.7295 13.228-2.78 3.066-6.9235 6.2272-10.441 7.9672-1.607 0.79485-1.9092 1.0614-2.2268 1.9614-0.41211 1.168-0.68728 4.1437-0.40914 4.4218 0.23081 0.23082 1.0851-0.0858 3.5676-1.3187 2.4838-1.2336 5.8505-3.1937 7.4019-4.3098 7.1426-5.1389 12.809-13.326 15.159-21.902 0.97022-3.54 1.1662-5.0319 1.2523-9.5389 0.0722-3.7777-0.0694-6.5469-0.42712-8.3432-1.3703-6.8818-4.0131-12.734-7.9935-17.702-2.056-2.5664-4.6594-5.1973-6.9333-7.0052-6.1309-4.8745-12.797-7.602-20.806-8.5146-0.82769-0.09432-2.5444-0.14303-4.2601-0.14376zm-0.11749 13.475c-3.0364 0.01505-5.9918 0.39124-7.9548 1.0491-4.191 1.4045-8.3388 4.0235-11.468 7.243-2.9429 3.0273-5.0342 6.4663-6.368 10.47-0.95072 2.8542-1.2465 5.2521-1.1417 9.2458 0.0362 1.3823 0.14544 2.999 0.24742 3.6519 0.79952 5.1183 4.1468 11.342 8.1234 15.107 0.54418 0.5151 1.1706 1.0594 1.3933 1.2095 0.22264 0.15006 0.83268 0.57812 1.356 0.95098 0.52331 0.37286 1.0054 0.66049 1.0712 0.6386 0.0658-0.0219 0.15296-0.18814 0.19213-0.36907 0.0391-0.18092 0.077-1.471 0.0843-2.8668l0.0125-2.5378-1.3062-1.5772c-2.7846-3.3611-4.3456-6.2541-5.2346-9.702-2.178-8.4472 0.89912-17.258 7.9548-22.777 3.333-2.6069 7.3325-4.0763 12.401-4.5559 2.5662-0.24279 7.2936 0.73526 10.249 2.1204 5.223 2.4476 9.5418 7.3868 11.401 13.036 0.86033 2.6145 1.0114 3.6361 1.0063 6.8255-4e-3 2.556-0.027 2.868-0.30547 4.1744-0.60325 2.8293-1.8123 5.7221-3.3478 8.0101-0.43463 0.64765-1.4033 1.9136-2.1521 2.8129l-1.3615 1.6338 0.0345 2.7852c0.0245 2.0225 0.0716 2.8238 0.17278 2.9248 0.1868 0.18656 1.2806-0.56166 2.7921-1.9089 5.3241-4.7454 8.1571-9.9912 9.2666-17.162 0.30096-1.9452 0.27248-5.5609-0.058-7.442-0.50908-2.897-1.2169-5.0997-2.4452-7.6106-4.2144-8.6151-12.633-14.572-21.585-15.272-0.99638-0.07796-2.0177-0.11283-3.0299-0.10781zm0.20596 14.494c-1.7918-9.2e-4 -2.058 0.02495-2.8986 0.28336-2.3599 0.72553-4.6154 2.7218-5.7211 5.0659-0.54328 1.1518-0.74564 1.9875-0.8169 3.3727-0.10793 2.0982 0.39925 4.1075 1.432 5.6796 0.60036 0.91391 2.2168 2.5131 3.1888 3.1543 2.2864 1.5082 5.0698 1.9829 7.6977 1.3131 3.3444-0.85235 5.85-3.3011 6.8863-6.7301 0.26297-0.87021 0.29995-1.186 0.29995-2.571s-0.0369-1.6994-0.29995-2.5696c-1.035-3.4249-3.4731-5.8136-6.8932-6.7509-0.76768-0.21038-1.1958-0.24654-2.8751-0.24742zm-0.25296 22.724c-4.4891 0.02307-7.7774 1.5201-9.1214 4.1827-0.67158 1.3304-0.88294 3.6276-0.67039 7.2982 0.35532 6.136 1.8233 17.23 2.7783 20.998 0.69585 2.7451 1.6914 4.3774 3.2925 5.3949 0.62862 0.3995 2.0378 0.85929 3.0713 1.0035 1.2454 0.17378 3.2351 0.0459 4.2462-0.27369 2.2465-0.70981 3.5129-2.2386 4.3002-5.1917 0.69525-2.608 1.9421-11.909 2.5696-19.169 0.24631-2.8495 0.25049-6.9092 8e-3 -8.0999-0.34583-1.7001-0.9224-2.6118-2.3305-3.6837-2.2703-1.7283-4.033-2.3234-7.2305-2.4438-0.30972-0.01166-0.61439-0.01674-0.91366-0.0152z" stroke-width="7" style="paint-order:fill markers stroke"/>
</g>
<path d="m61.861 23.665c-1.7157-7.08e-4 -3.4306 0.04594-4.2532 0.13961-10.082 1.1473-18.337 5.3141-25.461 12.852-4.795 5.0734-8.0744 11.193-9.8305 18.345-0.57449 2.3397-0.72462 3.3635-0.86114 5.887-0.14037 2.5949 4e-3 7.0847 0.30133 9.3495 0.43018 3.2818 1.7148 7.4822 3.4266 11.204 3.1662 6.8849 8.2782 12.677 14.892 16.877 2.0881 1.3259 6.3336 3.5016 8.1082 4.155 0.53648 0.19753 0.63192 0.19627 0.8017-8e-3 0.31462-0.37909-0.0983-3.8721-0.56533-4.7826-0.2999-0.58465-0.60238-0.81811-1.902-1.4666-7.1106-3.548-12.764-9.2953-16.367-16.637-1.5551-3.1686-2.6206-6.3319-2.9801-8.8505-0.40534-2.8394-0.47605-7.5435-0.16725-11.163 0.27605-3.2358 1.2112-6.4326 2.929-10.012 2.6074-5.4326 6.3388-9.9879 11.099-13.553 4.6347-3.4707 10.137-5.785 15.561-6.5435 1.4129-0.19759 7.4828-0.27196 9.3398-0.11473 4.2421 0.35917 7.8412 1.4286 12.066 3.5855 7.6091 3.8852 13.714 10.631 16.912 18.688 1.7098 4.308 2.1588 7.0391 2.1591 13.137 2.3e-4 4.8726-0.26145 6.8127-1.3629 10.11-1.6504 4.94-4.2515 9.3923-7.7295 13.228-2.78 3.066-6.9235 6.2272-10.441 7.9672-1.607 0.79485-1.9092 1.0614-2.2268 1.9614-0.41211 1.168-0.68729 4.1437-0.40915 4.4218 0.23082 0.23082 1.0851-0.0858 3.5676-1.3187 2.4838-1.2336 5.8505-3.1937 7.4019-4.3098 7.1426-5.1389 12.809-13.326 15.159-21.902 0.97022-3.54 1.1662-5.0319 1.2523-9.5389 0.0722-3.7777-0.0694-6.5469-0.42712-8.3432-1.3703-6.8818-4.0131-12.734-7.9935-17.702-2.056-2.5664-4.6594-5.1973-6.9333-7.0052-6.1309-4.8745-12.797-7.602-20.806-8.5146-0.8277-0.09432-2.5444-0.14303-4.2601-0.14376zm-0.1175 13.475c-3.0364 0.01505-5.9918 0.39124-7.9548 1.0491-4.191 1.4045-8.3388 4.0235-11.468 7.243-2.9429 3.0273-5.0342 6.4663-6.368 10.47-0.95072 2.8542-1.2465 5.2521-1.1417 9.2458 0.0362 1.3823 0.14544 2.999 0.24742 3.6519 0.79952 5.1183 4.1468 11.342 8.1234 15.107 0.54418 0.5151 1.1706 1.0594 1.3933 1.2095 0.22265 0.15006 0.83269 0.57812 1.356 0.95098s1.0054 0.66049 1.0712 0.6386c0.0658-0.0219 0.15297-0.18814 0.19214-0.36907 0.0391-0.18092 0.077-1.471 0.0843-2.8668l0.0125-2.5378-1.3062-1.5772c-2.7846-3.3611-4.3456-6.2541-5.2346-9.702-2.178-8.4472 0.89913-17.258 7.9548-22.777 3.333-2.6069 7.3325-4.0763 12.401-4.5559 2.5662-0.24279 7.2936 0.73526 10.249 2.1204 5.2231 2.4476 9.5418 7.3868 11.401 13.036 0.86033 2.6145 1.0114 3.6361 1.0063 6.8255-4e-3 2.556-0.027 2.868-0.30548 4.1744-0.60324 2.8293-1.8123 5.7221-3.3478 8.0101-0.43463 0.64765-1.4033 1.9136-2.1522 2.8129l-1.3615 1.6338 0.0345 2.7852c0.0245 2.0225 0.0716 2.8238 0.17278 2.9248 0.1868 0.18656 1.2806-0.56166 2.7921-1.9089 5.3241-4.7454 8.1571-9.9912 9.2666-17.162 0.30096-1.9452 0.27248-5.5609-0.058-7.442-0.50907-2.897-1.2169-5.0997-2.4452-7.6106-4.2144-8.6151-12.633-14.572-21.585-15.272-0.99638-0.07796-2.0177-0.11283-3.0299-0.10781zm0.20596 14.494c-1.7918-9.2e-4 -2.058 0.02495-2.8986 0.28336-2.3599 0.72553-4.6154 2.7218-5.7211 5.0659-0.54329 1.1518-0.74565 1.9875-0.81691 3.3727-0.10792 2.0982 0.39926 4.1075 1.432 5.6796 0.60036 0.91391 2.2168 2.5131 3.1888 3.1543 2.2864 1.5082 5.0698 1.9829 7.6977 1.3131 3.3444-0.85235 5.8501-3.3011 6.8863-6.7301 0.26298-0.87021 0.29995-1.186 0.29995-2.571s-0.0369-1.6994-0.29995-2.5696c-1.035-3.4249-3.4731-5.8136-6.8932-6.7509-0.76767-0.21038-1.1958-0.24654-2.8751-0.24742zm-0.25295 22.724c-4.4891 0.02307-7.7774 1.5201-9.1214 4.1827-0.67158 1.3304-0.88293 3.6276-0.67038 7.2982 0.35532 6.136 1.8233 17.23 2.7783 20.998 0.69585 2.7451 1.6914 4.3774 3.2925 5.3949 0.62862 0.3995 2.0378 0.85929 3.0713 1.0035 1.2454 0.17378 3.2351 0.0459 4.2462-0.27369 2.2465-0.70981 3.5129-2.2386 4.3002-5.1917 0.69524-2.608 1.9421-11.909 2.5696-19.169 0.2463-2.8495 0.25048-6.9092 8e-3 -8.0999-0.34583-1.7001-0.9224-2.6118-2.3305-3.6837-2.2703-1.7283-4.033-2.3234-7.2305-2.4438-0.30972-0.01166-0.61439-0.01674-0.91367-0.0152z" fill="#fff" style="paint-order:fill markers stroke"/>
</g>
</svg>
