<svg width="136.53" height="136.53" viewBox="0 0 136.53 136.53" xmlns="http://www.w3.org/2000/svg" xmlns:xlink="http://www.w3.org/1999/xlink">
<filter id="a" x="-.071048" y="-.051926" width="1.1421" height="1.1039" color-interpolation-filters="sRGB">
<feGaussianBlur stdDeviation="1.8946195"/>
</filter>
<linearGradient id="b" x1="255.44" x2="254.91" y1="1040" y2="1000.7" gradientUnits="userSpaceOnUse">
<stop stop-color="#cfd1d5" offset="0"/>
<stop stop-color="#f5f7f7" offset="1"/>
</linearGradient>
<linearGradient id="c" x1="257.03" x2="258.45" y1="1035.4" y2="1004.8" gradientUnits="userSpaceOnUse">
<stop stop-color="#ebe9ea" offset="0"/>
<stop stop-color="#ebe9ea" offset="1"/>
</linearGradient>
<linearGradient id="d" x1="324.69" x2="324.69" y1="970.17" y2="965.8" gradientTransform="matrix(-1 0 0 1 621.9 0)" gradientUnits="userSpaceOnUse" xlink:href="#e"/>
<linearGradient id="e">
<stop stop-color="#272c41" offset="0"/>
<stop stop-color="#596379" offset=".44286"/>
<stop stop-color="#586278" offset=".6"/>
<stop stop-color="#4b647b" offset="1"/>
</linearGradient>
<linearGradient id="f" x1="313" x2="313.5" y1="1034.4" y2="964.36" gradientTransform="matrix(-1 0 0 1 621.9 0)" gradientUnits="userSpaceOnUse" xlink:href="#g"/>
<linearGradient id="g">
<stop stop-color="#d9e5ee" offset="0"/>
<stop stop-color="#f0f3f6" offset="1"/>
</linearGradient>
<linearGradient id="h" x1="314.18" x2="302.66" y1="24.923" y2="15.011" gradientTransform="matrix(-1 0 0 1 621.9 956.36)" gradientUnits="userSpaceOnUse" xlink:href="#i"/>
<linearGradient id="i">
<stop stop-color="#a8bdca" offset="0"/>
<stop stop-color="#a8bdca" stop-opacity="0" offset="1"/>
</linearGradient>
<linearGradient id="j" x1="352.32" x2="292.39" y1="1045.1" y2="1053.4" gradientUnits="userSpaceOnUse">
<stop stop-color="#38404d" offset="0"/>
<stop stop-color="#374154" offset="1"/>
</linearGradient>
<linearGradient id="k" x1="249.79" x2="251.2" y1="1029" y2="1008.5" gradientUnits="userSpaceOnUse">
<stop stop-color="#222424" offset="0"/>
<stop stop-color="#8f959d" offset="1"/>
</linearGradient>
<linearGradient id="l" x1="253.32" x2="253.32" y1="1028.1" y2="1011.7" gradientUnits="userSpaceOnUse">
<stop stop-color="#747474" offset="0"/>
<stop stop-color="#fafafa" offset="1"/>
</linearGradient>
<linearGradient id="m" x1="256.62" x2="256.62" y1="1025" y2="1015.9" gradientUnits="userSpaceOnUse">
<stop stop-color="#2e2e2e" offset="0"/>
<stop stop-color="#9d9d9d" offset="1"/>
</linearGradient>
<linearGradient id="n" x1="324.69" x2="324.69" y1="970.17" y2="965.8" gradientUnits="userSpaceOnUse" xlink:href="#e"/>
<linearGradient id="o" x1="313" x2="313.5" y1="1034.4" y2="964.36" gradientUnits="userSpaceOnUse" xlink:href="#g"/>
<linearGradient id="p" x1="314.18" x2="302.66" y1="981.29" y2="971.37" gradientUnits="userSpaceOnUse" xlink:href="#i"/>
<filter id="q" x="-.065739" y="-.46523" width="1.1315" height="1.9305" color-interpolation-filters="sRGB">
<feGaussianBlur stdDeviation=".38658364"/>
</filter>
<linearGradient id="r">
<stop stop-color="#909090" offset="0"/>
<stop stop-color="#636363" stop-opacity="0" offset="1"/>
</linearGradient>
<radialGradient id="s" cx="199.22" cy="60.978" r="62.148" gradientTransform="matrix(1.0119 3e-8 -1.5e-7 5.0958 -134.28 -251.23)" gradientUnits="userSpaceOnUse">
<stop stop-color="#e6e6e8" offset="0"/>
<stop stop-color="#cbccce" offset="1"/>
</radialGradient>
<radialGradient id="t" cx="199.22" cy="60.978" r="62.148" gradientTransform="matrix(1.3103 -4e-8 1e-7 3.6151 -193.73 -160.94)" gradientUnits="userSpaceOnUse">
<stop stop-color="#ececef" offset="0"/>
<stop stop-color="#cbccce" stop-opacity="0" offset="1"/>
</radialGradient>
<filter id="u" x="-.01448" y="-.016908" width="1.029" height="1.0338" color-interpolation-filters="sRGB">
<feGaussianBlur stdDeviation=".74992302"/>
</filter>
<linearGradient id="v" x1="174.79" x2="174.86" y1="109.47" y2="118.12" gradientUnits="userSpaceOnUse">
<stop stop-color="#909090" offset="0"/>
<stop stop-color="#727272" stop-opacity="0" offset="1"/>
</linearGradient>
<radialGradient id="w" cx="178.79" cy="120.7" r="22.055" gradientTransform="matrix(3.8591 -2.3e-7 0 .1388 -511.17 103.95)" gradientUnits="userSpaceOnUse" xlink:href="#r"/>
<filter id="x" x="-.040865" y="-.504" width="1.0817" height="2.008" color-interpolation-filters="sRGB">
<feGaussianBlur stdDeviation=".32830532"/>
</filter>
<filter id="y" x="-.080467" y="-.24545" width="1.1609" height="1.4909" color-interpolation-filters="sRGB">
<feGaussianBlur stdDeviation="1.4789442"/>
</filter>
<linearGradient id="z" x1="183.06" x2="183.06" y1="129.42" y2="127.06" gradientUnits="userSpaceOnUse" xlink:href="#r"/>
<linearGradient id="A" x1="23.844" x2="23.816" y1="17.574" y2="85.151" gradientUnits="userSpaceOnUse">
<stop stop-color="#1bd2fa" offset="0"/>
<stop stop-color="#1c7ef2" offset="1"/>
</linearGradient>
<rect x="5.1564" y="8.7788" width="124.3" height="103.95" rx="5.6616" fill="#1a1a1a" filter="url(#u)" opacity=".887"/>
<rect x="5.1564" y="8.7788" width="124.3" height="103.95" rx="5.6616" fill="url(#s)"/>
<rect x="5.1564" y="8.7788" width="124.3" height="103.95" rx="5.6616" fill="url(#t)"/>
<path d="m10.818 8.778c-3.1366 0-5.6621 2.5256-5.6621 5.6621v75.664h124.3v-75.664c0-3.1366-2.5256-5.6621-5.6621-5.6621z" fill="#080808"/>
<path d="m10.318 12.353h113.49v73.329h-113.49z" fill="url(#A)"/>
<path d="m5.1558 106.01v1.0566c0 3.1366 2.5256 5.6621 5.6621 5.6621h112.97c3.1366 0 5.6621-2.5256 5.6621-5.6621v-1.0566c0 3.1366-2.5256 5.6621-5.6621 5.6621h-112.97c-3.1366 0-5.6621-2.5256-5.6621-5.6621z" fill="#afafaf"/>
<g transform="translate(-111.48 -1.4739)">
<path d="m194.34 114.95c-0.0882 3.6995-0.94643 7.8217 4.9506 11.334 4.7067 2.9258-2.6114 3.1267-4.4295 3.1267h-5.6672-26.478c-1.8181 0-9.1362-0.20092-4.4295-3.1267 5.8971-3.5127 5.0389-7.6349 4.9506-11.334z" filter="url(#y)"/>
<path d="m194.34 113.47c-0.0882 3.6995-0.94643 7.8217 4.9506 11.334 4.7067 2.9258-2.6114 3.1267-4.4295 3.1267-10.492 0.46272-21.162 0.7623-32.145 0-1.8181 0-9.1362-0.20092-4.4295-3.1267 5.8971-3.5127 5.0389-7.6349 4.9506-11.334z" fill="#e0e1e6"/>
<path d="m194.34 113.47c-0.0882 3.6995-0.94643 7.8217 4.9506 11.334 4.7067 2.9258-2.6114 3.1267-4.4295 3.1267h-5.6672-26.478c-1.8181 0-9.1362-0.20092-4.4295-3.1267 5.8971-3.5127 5.0389-7.6349 4.9506-11.334z" fill="url(#v)"/>
<path d="m194.34 113.47c-0.0882 3.6995-0.94643 7.8217 4.9506 11.334 4.7067 2.9258-2.6114 3.1267-4.4295 3.1267h-5.6672-26.478c-1.8181 0-9.1362-0.20092-4.4295-3.1267 5.8971-3.5127 5.0389-7.6349 4.9506-11.334z" fill="url(#w)"/>
<ellipse cx="178.29" cy="127.15" rx="15.764" ry=".78168" fill="#fff" filter="url(#x)" opacity=".887"/>
<path d="m194.34 113.47c-0.0882 3.6995-0.94643 7.8217 4.9506 11.334 4.7067 2.9258-2.6114 3.1267-4.4295 3.1267h-5.6672-26.478c-1.8181 0-9.1362-0.20092-4.4295-3.1267 5.8971-3.5127 5.0389-7.6349 4.9506-11.334z" fill="url(#z)"/>
</g>
<path d="m71.574021 102.89623c-.16003.36969-.34945.70998-.56891 1.02284-.29914.42652-.54408.72174-.73285.8857-.29261.26911-.60613.4069-.94186.41475-.24102 0-.53167-.0687-.87001-.2077-.33945-.13848-.6514-.20705-.93664-.20705-.29915 0-.61998.0687-.96315.20705-.3437.13913-.62057.21162-.83226.21882-.32195.0137-.64285-.12802-.96316-.42587-.20444-.1783-.46015-.48401-.76648-.91705-.32868-.46244-.59889-.99867-.81058-1.61005-.22671-.66033-.34036-1.29979-.34036-1.91887 0-.709129.15323-1.320749.46015-1.833297.24121-.41168.56211-.73643.96374-.97484.40163-.2384.83559-.35988 1.30293-.36765.25572 0 .59105.0791 1.00777.23454.41554.15598.68236.23507.79934.23507.0875 0 .38386-.0925.88634-.27687.47518-.171.87622-.2418 1.20476-.21391.89026.0718 1.5591.4228 2.00391 1.05506-.79621.482408-1.19007 1.158128-1.18223 2.024917.007.6752.25212 1.23703.7335 1.68314.21816.20707.46179.36709.73285.48075-.0588.17044-.12084.33376-.1868.49052zm-2.04179-8.034565c0 .5292-.19334 1.02331-.5787 1.480648-.46506.5437-1.02756.85787-1.63755.80829-.008-.0634-.0123-.13031-.0123-.20052 0-.50803.22116-1.051724.61391-1.496261.19608-.225079.44546-.412238.74787-.561532.30176-.147062.5872-.228391.85564-.242321.008.07076.0112.141499.0112.211686z" fill="#1e1f28" stroke-width=".065316"/>
<path d="m10.318 12.352v73.33h113.49v-73.33zm0.55273 0.50781h112.48v72.361h-112.48z" fill-opacity=".21198"/>
<path d="m10.818 9.0273c-3.1366 0-5.6621 2.5256-5.6621 5.6621v75.414h124.3v-75.414c0-3.1366-2.5255-5.6621-5.6621-5.6621zm-0.5 5.3262h113.49v71.328h-113.49z" fill="#080808"/>
<ellipse cx="67.396" cy="122.96" rx="7.0567" ry=".99714" fill="#191a1e" fill-opacity=".40304" filter="url(#q)"/>
<g transform="matrix(1.3732 0 0 1.3836 2.9899 -1320.7)">
<path d="m56.662 960.26c-4.9852 1.0381-11.291 1.436-13.921 6.5689-3.4793 6.9772-0.05241 14.875 3.6666 20.994 1.1414 1.6535 4.1102 8.3201 4.6707 3.6538-3.3172-4.3907-6.3753-9.2068-7.8222-14.594-1.5283-5.263 0.5771-11.969 6.2184-13.706 1.9107-2.0031 10.971 2.0645 7.1872-2.9173zm-5.1113 31.971c-3.9837 2.2563 2.2637 5.7433 3.3296 8.2818 3.8265 4.9036 5.8125 11.079 5.5465 17.295 0.15414 7.6163 0.30764 15.91-3.7596 22.645-2.8244 4.3013-8.7141 6.5687-13.484 4.1383-6.0379-2.3587-10.097-8.9697-8.9283-15.442 0.4942-8.8187 4.9739-16.658 7.265-25.012 0.95506-5.502-1.406-11.716-6.3211-14.565-2.176-3.9576-0.26376-10.116-5.6343-12.185-5.4637-3.1475-13.381 0.8973-13.59 7.3382-0.56273 5.9996 5.799 11.293 11.604 9.5588 2.7718-0.94086 5.9483-5.7445 8.1353-1.0646 3.3619 3.2107 4.3897 8.3628 2.3115 12.549-3.2458 9.5023-8.2061 19.328-6.0389 29.643 1.6074 10.542 16.282 16.54 24.294 8.9631 6.4747-5.8755 6.4839-15.327 6.8269-23.414 0.22944-5.7681-1.6209-12.107 1.8405-17.265 4.3824-6.8275 8.9286-13.605 12.625-20.832 2.6314-5.6507 4.0233-13.373-0.70856-18.332-3.451-2.6305-9.0009-4.8102-12.82-3.5489-0.45414 4.306 6.075-0.33503 8.4059 2.4999 5.8401 2.1639 7.1256 9.4897 5.246 14.795-3.3661 9.1935-10.221 16.482-15.431 24.625-4.1792 1.3097-5.8252-5.8643-8.6987-8.316-0.65686-0.5987-1.2971-2.3211-2.0149-2.3546z" filter="url(#a)" opacity=".3"/>
<g transform="matrix(.45421 0 0 .45421 -91.754 518.1)">
<circle cx="257.3" cy="1020.3" r="20.064" fill="url(#b)"/>
<circle cx="257.3" cy="1020.3" r="19.064" fill="url(#c)"/>
<g transform="translate(49.182 -.00065)" fill-rule="evenodd">
<path d="m302.08395 966.61218v2.875c-1.72165.58723-3.44211 1.17878-5.16451 1.76331-.93041.27949-2.03029.0883-2.70546-.64312-.5702-.60305-.86592-1.40415-1.1192-2.17991-.23798-.74694-.23395-1.63019.27564-2.26787.338-.43009.75154-.8121 1.21586-1.10024.73379-.29552 1.55212-.14864 2.30925-.0361 1.7813.33401 3.50484.92767 5.18842 1.58894z" fill="url(#d)"/>
<path d="m302.05 969.48c7.3477 0.64496 15.246 3.3718 19.528 9.7453 5.455 8.165 4.8407 18.887 1.4569 27.727-4.0004 9.7369-9.6287 18.74-15.799 27.238-1.6932 1.1079 0.10298 1.7534 0.96904 2.5266 0.70435 0.2631 1.6783 2.0124 2.1315 0.8908 3.451-5.6949 7.0039-11.332 10.39-17.064 3.7433-7.5494 7.2875-15.468 8.1141-23.942 0.55076-7.8228-0.94255-16.51-6.6776-22.267-4.97-4.2858-11.368-6.8544-17.861-7.6195-1.9258-0.67108-2.5816 0.13849-2.25 1.8792-5.7e-4 0.29518-1e-3 0.59036-2e-3 0.88554z" fill="url(#f)"/>
<path d="m302.05 967.83c5.4079 0.90713 10.591 3.2618 14.887 6.668-4.3598-3.0312-9.6344-4.5771-14.889-5.0176 6.5e-4 -0.55013 1e-3 -1.1003 2e-3 -1.6504zm18.266 5.002c5.9155 4.2247 8.2033 11.831 8.5863 18.788 0.60535 9.6055-3.2873 18.717-7.3147 27.213-2.1838 4.3272-4.9556 8.3258-7.4137 12.5-1.3869 2.2661-2.7738 4.5321-4.1607 6.7981-1.0691-0.4983-1.2268-1.1622-0.38056-2.0085 3.3203-5.4811 6.7425-10.904 9.9981-16.422 3.7402-7.5421 7.2795-15.452 8.1119-23.918 0.56138-8.1004-1.0489-17.33-7.4267-22.951z" fill="url(#h)"/>
</g>
<path d="m311.17 1038.7c1.6214-0.9953 3.4131-3.2384 4.9267-3.4431 5.9191 8.0109 11.773 16.086 17.733 24.056 6.5968 3.2797 8.814-7.8424 12.79-11.348 3.3018-3.456 5.9675-11.083 9.6387-12.15 1.6266 1.2945 4.2819 2.4137 1.8623 4.3974-5.0783 8.1202-10.637 15.964-15.375 24.28-4.3644 8.6799-1.5734 18.446-1.9022 27.672-0.0357 15.981-0.0487 32.748-6.8435 47.55-5.9272 12.231-20.044 20.259-33.604 17.458-13.468-2.4723-25.516-13.058-27.967-26.812-3.9883-18.986 3.0626-37.849 9.7476-55.331 3.1412-9.0279 8.4914-18.924 4.513-28.554-3.8752-8.2603-10.991-14.584-19.228-18.34-3.3539-0.7139-8.7166-6.8785-1.8208-5.8209 9.9416 1.7717 18.312 9.0198 23.744 17.259 6.6025 9.8999 4.9555 22.551 0.67948 33.01-6.5385 15.854-12.911 32.447-12.788 49.859-0.1169 8.2696 3.495 16.323 9.8289 21.664 8.1036 7.7855 21.478 11.842 31.504 5.2551 9.7494-6.2509 14.034-17.878 15.231-28.929 1.8095-15.197 2.3301-30.8-0.60053-45.889-3.0747-14.129-13.773-24.62-22.069-35.846z" fill="url(#j)" fill-rule="evenodd"/>
<circle cx="257.3" cy="1020.3" r="12.816" fill="url(#k)"/>
<circle cx="257.3" cy="1020.3" r="9.6343" fill="url(#l)"/>
<circle cx="257.3" cy="1020.3" r="8.0433" fill="#3a3a3a" opacity=".3"/>
<circle cx="257.3" cy="1020.3" r="7.1595" fill="url(#m)" opacity=".99"/>
<g fill-rule="evenodd">
<path d="m319.8125 966.61218v2.875c1.72165.58723 3.44211 1.17878 5.16451 1.76331.93041.27949 2.03029.0883 2.70546-.64312.5702-.60305.86592-1.40415 1.1192-2.17991.23798-.74694.23395-1.63019-.27564-2.26787-.338-.43009-.75154-.8121-1.21586-1.10024-.73379-.29552-1.55212-.14864-2.30925-.0361-1.7813.33401-3.50484.92767-5.18842 1.58894z" fill="url(#n)"/>
<path d="m319.84 969.48c-0.47684 4e-3 -13.307 0.80295-19.24 9.3219-6.2563 8.9826-5.2279 21.111-0.26073 31.663 6.4823 13.771 15.159 24.837 15.159 24.837l-3.6239 2.8284-10.386-16.97s-7.513-13.877-8.3969-24.042c-0.96083-11.05 2.6254-20.023 8.1317-24.042 5.5064-4.0185 12.787-6.4744 18.611-6.4744z" fill="url(#o)"/>
<path d="m319.84 967.83c-5.4079 0.90713-10.591 3.2618-14.887 6.668 4.3598-3.0312 9.6344-4.5771 14.889-5.0176-6.5e-4 -0.55013-1e-3 -1.1003-2e-3 -1.6504zm-18.266 5.002c-5.9155 4.2247-8.2033 11.831-8.5863 18.788-0.60535 9.6055 3.2873 18.717 7.3147 27.213 2.1838 4.3272 4.9556 8.3258 7.4137 12.5 1.3869 2.2661 2.7738 4.5321 4.1607 6.7981 1.0691-0.4983 1.2268-1.1622 0.38056-2.0085-3.3203-5.4811-6.7425-10.904-9.9981-16.422-3.7402-7.5422-7.2795-15.452-8.1119-23.918-0.56138-8.1004 1.0489-17.33 7.4267-22.951z" fill="url(#p)"/>
</g>
</g>
</g>
</svg>
