<svg width="128" height="128" version="1.1" viewBox="0 0 33.867 33.867" xmlns="http://www.w3.org/2000/svg" xmlns:xlink="http://www.w3.org/1999/xlink">
<defs>
<linearGradient id="linearGradient912" x1="132.21" x2="132.21" y1="42.152" y2="70.68" gradientTransform="matrix(.97573 0 0 .97573 -111.89 -37.234)" gradientUnits="userSpaceOnUse">
<stop stop-color="#f8fcfc" offset="0"/>
<stop stop-color="#e3e5e8" offset="1"/>
</linearGradient>
<linearGradient id="linearGradient913" x1="17.021" x2="17.021" y1="26.348" y2="15.617" gradientUnits="userSpaceOnUse">
<stop stop-color="#61c8df" offset="0"/>
<stop stop-color="#3f8191" offset=".38555"/>
<stop stop-color="#63cce4" offset="1"/>
</linearGradient>
<linearGradient id="linearGradient923" x1="11.604" x2="16.74" y1="13.76" y2="22.211" gradientUnits="userSpaceOnUse">
<stop stop-color="#69cbde" offset="0"/>
<stop stop-color="#76d8eb" offset="1"/>
</linearGradient>
</defs>
<g transform="matrix(.97573 0 0 .97573 -65.83 -36.915)" fill="none" opacity=".13962" stroke="#000" stroke-linecap="round" stroke-linejoin="round" stroke-opacity=".02">
<rect x="69.84" y="40.71" width="29.811" height="29.811" rx="6.6099" ry="6.6099" stroke-width=".1"/>
<rect x="69.84" y="40.71" width="29.811" height="29.811" rx="6.6099" ry="6.6099" stroke-width=".2"/>
<rect x="69.84" y="40.71" width="29.811" height="29.811" rx="6.6099" ry="6.6099" stroke-width=".3"/>
<rect x="69.84" y="40.71" width="29.811" height="29.811" rx="6.6099" ry="6.6099" stroke-width=".4"/>
<rect x="69.84" y="40.71" width="29.811" height="29.811" rx="6.6099" ry="6.6099" stroke-width=".5"/>
<rect x="69.84" y="40.71" width="29.811" height="29.811" rx="6.6099" ry="6.6099" stroke-width=".6"/>
<rect x="69.84" y="40.71" width="29.811" height="29.811" rx="6.6099" ry="6.6099" stroke-width=".7"/>
<rect x="69.84" y="40.71" width="29.811" height="29.811" rx="6.6099" ry="6.6099" stroke-width=".8"/>
<rect x="69.84" y="40.71" width="29.811" height="29.811" rx="6.6099" ry="6.6099"/>
<rect x="69.84" y="40.71" width="29.811" height="29.811" rx="6.6099" ry="6.6099" stroke-width="1.2"/>
<rect x="69.84" y="40.71" width="29.811" height="29.811" rx="6.6099" ry="6.6099" stroke-width="1.4"/>
<rect x="69.84" y="40.71" width="29.811" height="29.811" rx="6.6099" ry="6.6099" stroke-width="1.6"/>
<rect x="69.84" y="40.71" width="29.811" height="29.811" rx="6.6099" ry="6.6099" stroke-width="1.8"/>
<rect x="69.84" y="40.71" width="29.811" height="29.811" rx="6.6099" ry="6.6099" stroke-width="2"/>
<rect x="69.84" y="40.71" width="29.811" height="29.811" rx="6.6099" ry="6.6099" stroke-width="2.2"/>
<rect x="69.84" y="40.71" width="29.811" height="29.811" rx="6.6099" ry="6.6099" stroke-width="2.6"/>
<rect x="69.84" y="40.71" width="29.811" height="29.811" rx="6.6099" ry="6.6099" stroke-width="3"/>
<rect x="69.84" y="40.71" width="29.811" height="29.811" rx="6.6099" ry="6.6099" stroke-width="3.4"/>
<rect x="69.84" y="40.71" width="29.811" height="29.811" rx="6.6099" ry="6.6099" stroke-width="3.8"/>
<rect x="69.84" y="40.71" width="29.811" height="29.811" rx="6.6099" ry="6.6099" stroke-width="4.2"/>
<rect x="69.84" y="40.71" width="29.811" height="29.811" rx="6.6099" ry="6.6099" stroke-width="4.6"/>
<rect x="69.84" y="40.71" width="29.811" height="29.811" rx="6.6099" ry="6.6099" stroke-width="5"/>
</g>
<rect x="2.2835" y="2.4875" width="29.087" height="29.087" rx="6.4495" ry="6.4495" fill="url(#linearGradient912)" stroke-linecap="round" stroke-linejoin="round" stroke-width="2.6877"/>
<g transform="matrix(1.4122 0 0 1.4122 -4.4573 -10.058)" stroke-width=".26458">
<path d="m8.4572 26.591h2.9104l3.7042-8.2021 3.7042 8.2021h2.9104l-5.0271-11.112h-3.175z" fill="url(#linearGradient913)"/>
<path d="m10.838 11.774c-1.759 0-3.175 1.416-3.175 3.175v5.5562c0 1.759 1.416 3.175 3.175 3.175h8.4667c1.759 0 3.175-1.416 3.175-3.175v-5.5562c0-1.759-1.416-3.175-3.175-3.175h-1.8521v2.9104h0.52917c0.87948 0 1.5875 0.70802 1.5875 1.5875v2.9104c0 0.87948-0.70802 1.5875-1.5875 1.5875h-5.8208c-0.87948 0-1.5875-0.70802-1.5875-1.5875v-2.9104c0-0.87948 0.70802-1.5875 1.5875-1.5875h0.52917v-2.9104z" fill="url(#linearGradient923)"/>
</g>
</svg>
