<svg width="128" height="128" version="1.1" viewBox="0 0 166.4 166.4" xmlns="http://www.w3.org/2000/svg" xmlns:xlink="http://www.w3.org/1999/xlink">
<defs>
<linearGradient id="linearGradient4296">
<stop offset="0"/>
<stop stop-opacity="0" offset="1"/>
</linearGradient>
<linearGradient id="linearGradient4243">
<stop stop-color="#bc8b3c" offset="0"/>
<stop stop-color="#ac7c3e" offset="1"/>
</linearGradient>
<linearGradient id="linearGradient4249" x1="-232.73" x2="-229.37" y1="590.32" y2="607.54" gradientTransform="matrix(5.2547 -.78058 .78058 5.2547 558.68 -1797.7)" gradientUnits="userSpaceOnUse">
<stop stop-color="#b38846" offset="0"/>
<stop stop-color="#a57c48" offset="1"/>
</linearGradient>
<linearGradient id="linearGradient4281" x1="-187.36" x2="-187.36" y1="603.81" y2="709.17" gradientTransform="matrix(.83558 -.12413 .12413 .83558 -122.56 953.65)" gradientUnits="userSpaceOnUse">
<stop stop-color="#b38846" offset="0"/>
<stop stop-color="#a77e48" offset="1"/>
</linearGradient>
<clipPath id="clipPath4328">
<path d="m-229.08 1455.9v105.79c0 0.8891 0.71244 2.5644 1.457 2.5644 0.0895-0.8374-0.48376-1.5811 0.62695-2.5644h46.275 2.5586 23.047c4.8691 0 8.7891-3.92 8.7891-8.7891v-88.211c0-4.8691-3.9199-8.7891-8.7891-8.7891h-23.047-2.5586z" color="#000000" fill="url(#linearGradient4332)"/>
</clipPath>
<linearGradient id="linearGradient4332" x1="-187.36" x2="-187.36" y1="603.81" y2="709.17" gradientTransform="translate(0 852.36)" gradientUnits="userSpaceOnUse" xlink:href="#linearGradient4243"/>
<clipPath id="clipPath4328-4">
<path d="m-229.08 1455.9v105.79c0 0.8891 0.71244 2.5644 1.457 2.5644 0.0895-0.8374-0.48376-1.5811 0.62695-2.5644h46.275 2.5586 23.047c4.8691 0 8.7891-3.92 8.7891-8.7891v-88.211c0-4.8691-3.9199-8.7891-8.7891-8.7891h-23.047-2.5586z" color="#000000" fill="url(#linearGradient4332)"/>
</clipPath>
<clipPath id="clipPath4898">
<path d="m-229.08 1455.9v105.79c0 0.8891 0.71244 2.5644 1.457 2.5644 0.0895-0.8374-0.48376-1.5811 0.62695-2.5644h46.275 2.5586 23.047c4.8691 0 8.7891-3.92 8.7891-8.7891v-88.211c0-4.8691-3.9199-8.7891-8.7891-8.7891h-23.047-2.5586z" color="#000000" fill="url(#linearGradient4332)"/>
</clipPath>
<clipPath id="clipPath4928">
<path d="m-229.08 1455.9v105.79c0 0.8891 0.71244 2.5644 1.457 2.5644 0.0895-0.8374-0.48376-1.5811 0.62695-2.5644h46.275 2.5586 23.047c4.8691 0 8.7891-3.92 8.7891-8.7891v-88.211c0-4.8691-3.9199-8.7891-8.7891-8.7891h-23.047-2.5586z" color="#000000" fill="url(#linearGradient4332)"/>
</clipPath>
<filter id="filter5054" x="-.5415" y="-.0031575" width="2.083" height="1.0063" color-interpolation-filters="sRGB">
<feGaussianBlur stdDeviation="0.13959926"/>
</filter>
<filter id="filter5062" x="-.57535" y="-.012859" width="2.1507" height="1.0257" color-interpolation-filters="sRGB">
<feGaussianBlur stdDeviation="0.5682936"/>
</filter>
<clipPath id="clipPath5092">
<path d="m-229.08 1455.9v105.79c0 0.8891 0.71244 2.5644 1.457 2.5644 0.0895-0.8374-0.48376-1.5811 0.62695-2.5644h46.275 2.5586 23.047c4.8691 0 8.7891-3.92 8.7891-8.7891v-88.211c0-4.8691-3.9199-8.7891-8.7891-8.7891h-23.047-2.5586z" color="#000000" fill="url(#linearGradient4332)"/>
</clipPath>
<clipPath id="clipPath5122">
<path d="m-229.08 1455.9v105.79c0 0.8891 0.71244 2.5644 1.457 2.5644 0.0895-0.8374-0.48376-1.5811 0.62695-2.5644h46.275 2.5586 23.047c4.8691 0 8.7891-3.92 8.7891-8.7891v-88.211c0-4.8691-3.9199-8.7891-8.7891-8.7891h-23.047-2.5586z" color="#000000" fill="url(#linearGradient4332)"/>
</clipPath>
<linearGradient id="linearGradient4302" x1="-149" x2="-146.6" y1="1486.1" y2="1487.6" gradientTransform="matrix(5.3123 0 0 5.3123 1080.7 -6225.1)" gradientUnits="userSpaceOnUse" xlink:href="#linearGradient4296"/>
<linearGradient id="linearGradient4302-0" x1="-149" x2="-146.6" y1="1486.1" y2="1487.6" gradientTransform="matrix(5.3123 0 0 5.3123 1096.8 -6113.1)" gradientUnits="userSpaceOnUse" xlink:href="#linearGradient4296"/>
<linearGradient id="linearGradient4302-0-0" x1="-149" x2="-146.6" y1="1486.1" y2="1487.6" gradientTransform="matrix(5.3123 0 0 5.3123 1112.6 -6001.8)" gradientUnits="userSpaceOnUse" xlink:href="#linearGradient4296"/>
<linearGradient id="linearGradient937" x1="-290.09" x2="-280.65" y1="1540.6" y2="1539.2" gradientTransform="matrix(.76404 0 0 .76404 -11.99 351.95)" gradientUnits="userSpaceOnUse">
<stop stop-color="#9d722f" offset="0"/>
<stop stop-color="#be9e72" offset=".51725"/>
<stop stop-color="#9d722f" offset="1"/>
</linearGradient>
</defs>
<g transform="translate(0 -893.16)">
<g transform="matrix(1.5977 0 0 1.5977 400.32 -1462.9)">
<path d="m-224.41 1576.7 2.8685 0.1378 57.214-8.4996c4.7589-0.7058 7.2114-3.9627 6.4724-11.001l-67.398 16.79s0.32999 2.127 0.60432 2.3214c0.27417 0.1914 0.23908 0.2527 0.23908 0.2527z" fill="#3b210c" fill-rule="evenodd"/>
<path d="m-224.67 1572.9c-0.62225 2.0364-0.23474 2.9981 1.0951 2.7999l57.424-8.5308c3.5513-0.5264 5.1889-1.9946 5.457-4.3311 0.2683-2.3385-13.639 0.1097-13.639 0.1097-16.848 2.8114-33.46 7.4961-50.337 9.9653z" fill="#644a2c" fill-rule="evenodd"/>
<rect transform="matrix(.98915 -.14694 .14694 .98915 0 0)" x="-387.55" y="1497.9" width="7.3498" height="20.379" rx="2.5326" ry="2.5326" color="#000000" fill="#dd9201"/>
<path d="m-156.32 1539.3-3.7836 6.3428-0.71044-5.3051z" fill="url(#linearGradient4302-0-0)" fill-rule="evenodd" opacity=".35"/>
<rect transform="matrix(.98915 -.14694 .14694 .98915 0 0)" x="-387.55" y="1480" width="7.3498" height="20.379" rx="2.4292" ry="2.4292" color="#000000" fill="#05d562"/>
<path d="m-158.83 1521.6-3.7836 6.3448-0.71064-5.3051z" fill="url(#linearGradient4302-0)" fill-rule="evenodd" opacity=".35"/>
<rect transform="matrix(.98915 -.14694 .14694 .98915 0 0)" x="-387.55" y="1462.1" width="7.3498" height="20.379" rx="3.6749" ry="3.6749" color="#000000" fill="#15bfe3"/>
<path d="m-161.4 1503.8-3.7837 6.3453-0.71034-5.3037z" fill="url(#linearGradient4302)" fill-rule="evenodd" opacity=".35"/>
<rect transform="matrix(.98915 -.14694 .14694 .98915 0 0)" x="-387.55" y="1444.5" width="7.3498" height="20.379" rx="3.6749" ry="3.6749" color="#000000" fill="#dddedd"/>
<path d="m-161.15 1502.9c-0.11916 1.0428-0.9493 1.9208-2.087 2.0864l-2.5208 0.37c-1.1214 0.1761-2.1598-0.4202-2.5941-1.3607 0.33081 1.1084 1.447 1.8338 2.6602 1.6529l2.4783-0.368c1.2222-0.1837 2.0821-1.2135 2.0633-2.3806z" color="#000000" opacity=".556"/>
<path d="m-158.56 1520.2c-0.11891 1.0436-0.94912 1.9211-2.0869 2.0857l-2.5207 0.3697c-1.1215 0.1761-2.16-0.4179-2.5941-1.3597 0.33074 1.1097 1.4469 1.8346 2.6601 1.6532l2.4783-0.3675c1.2222-0.1888 2.0821-1.2127 2.0633-2.3814z" color="#000000" opacity=".556"/>
<path d="m-155.92 1538c-0.11942 1.0413-0.9493 1.9211-2.087 2.0882l-2.5208 0.3674c-1.1214 0.1761-2.1598-0.42-2.5941-1.3602 0.33097 1.1084 1.4469 1.8307 2.6604 1.6521l2.4781-0.3702c1.2222-0.1761 2.082-1.2095 2.0633-2.3773z" color="#000000" opacity=".556"/>
<path d="m-153.3 1555.6c-0.11942 1.0416-0.9493 1.9208-2.0868 2.0857l-2.5209 0.3705c-1.1213 0.1658-2.1599-0.4216-2.594-1.3605 0.33073 1.1084 1.4469 1.8325 2.6601 1.6514l2.4783-0.3677c1.222-0.1812 2.082-1.2141 2.0632-2.3794z" color="#000000" opacity=".556"/>
<path d="m-239.06 1486.4 13.131 88.393c0.11125 0.7418 0.91362 2.0543 1.5358 1.963-0.0286-0.7117-0.60037-1.262 0.20617-2.2217l38.667-5.7444 2.138-0.3159 19.257-2.8621c4.0687-0.6043 6.8576-4.3658 6.2532-8.4349l-10.949-73.707c-0.60419-4.0677-4.3662-6.8579-8.4349-6.2509l-19.258 2.8576-2.1379 0.3197-40.408 6.0036z" color="#000000" fill="url(#linearGradient4249)"/>
<rect transform="matrix(.83558 -.12413 .12413 .83558 -228.36 241.43)" x="-228.66" y="1455.4" width="4.875" height="105.85" clip-path="url(#clipPath5122)" color="#000000" fill="#fff" opacity=".169"/>
<path transform="matrix(.83558 -.12413 .12413 .83558 -228.36 241.43)" d="m-223.27 1457h67.264c2.4749 0 9.6343 1.0607 9.6343 9.6344 0 8.5736 3.8891-11.137 3.8891-11.137l-23.865-2.74-57.099 2.2981z" clip-path="url(#clipPath5092)" fill="#fff" fill-rule="evenodd" opacity=".08"/>
<path d="m-239.06 1486.4 13.131 88.396c0.11048 0.743 0.9136 2.0543 1.5358 1.9619-0.0291-0.7108-0.60049-1.261 0.20566-2.2206l38.667-5.7439 2.1379-0.3177 19.258-2.8606c4.0686-0.6045 6.8574-4.3666 6.253-8.4351l-10.949-73.707c-0.6044-4.0685-4.3664-6.8574-8.435-6.2532l-19.258 2.8608-2.1379 0.3175z" color="#000000" fill="url(#linearGradient4281)"/>
<rect transform="matrix(.83558 -.12413 .12413 .83558 -228.36 241.43)" x="-231.18" y="1457" width="3.666" height="106.55" clip-path="url(#clipPath4898)" color="#000000" fill="#9b6b27"/>
<rect transform="matrix(.83558 -.12413 .12413 .83558 -228.36 241.43)" x="-224.84" y="1457" width="2.2789" height="104.54" clip-path="url(#clipPath4328)" color="#000000" fill="#9b6b27"/>
<rect transform="matrix(.83558 -.12413 .12413 .83558 -228.36 241.43)" x="-228.01" y="1457" width=".49461" height="103.62" clip-path="url(#clipPath4928)" color="#000000" fill="#7c561f" filter="url(#filter5054)" opacity=".479"/>
<rect transform="matrix(.18132 -.026935 .12251 .8247 -371.62 278.91)" x="-225.83" y="1457" width="3.2766" height="104.48" clip-path="url(#clipPath4328-4)" color="#000000" fill="#7c561f" filter="url(#filter5062)" opacity=".479"/>
<path d="m-199.82 1497.2c-13.134 1.9512-22.249 14.111-20.314 27.134 1.9348 13.025 14.191 22.011 27.324 20.061 13.134-1.9525 22.247-14.111 20.312-27.135-1.9347-13.025-14.189-22.01-27.323-20.06zm0.35577 2.3967c11.852-1.7619 22.832 6.3017 24.573 18.017 0.74392 5.0086-0.3261 9.8643-2.7152 13.926-0.25439-0.1429-7.6744-3.9297-12.466-3.2173 0 0-1.8148-1.5399-1.7806-4.8677 0 0 1.6049-1.8989 1.5184-6.0374 0 0 0.21944-2.5998-0.33656-2.7835 0 0-0.1018-0.9244-0.0521-2.6322 0.0485-1.7037-0.63175-7.3032-8.2348-6.1739-7.6029 1.1296-6.6266 6.6837-6.0845 8.3022 0.54237 1.6184 0.71675 2.5332 0.71675 2.5332-0.47856 0.3368 0.48521 2.7606 0.48521 2.7606 1.1203 3.9838 3.2077 5.3351 3.2077 5.3351 0.99979 3.1709-0.28698 5.177-0.28698 5.177-4.3034 0.6376-9.3446 5.1517-10.524 6.2501-3.2796-3.1568-5.5751-7.3705-6.2936-12.206-1.7407-11.717 6.4217-22.624 18.274-24.384z" color="#000000" color-rendering="auto" fill="#8a5411" image-rendering="auto" opacity=".326" shape-rendering="auto" solid-color="#000000" style="isolation:auto;mix-blend-mode:normal;text-decoration-color:#000000;text-decoration-line:none;text-decoration-style:solid;text-indent:0;text-transform:none;white-space:normal"/>
<path transform="matrix(.81365 0 0 .81365 -250.56 1474.6)" d="m31.904 123.86c-21.27 2.7617-10.635 1.3809 0 0zm81.783-23.883c0.63512 4.9307-2.7629 9.4535-7.7031 10.188l-23.668 3.5156-2.6289 0.39063-47.521 7.0606c-0.98158 1.1684-0.30531 1.8432-0.25781 2.7051 0.04517-0.30133 0.17566-0.62797 0.49805-1.0117l47.523-7.0606 2.6289-0.39063 23.668-3.5156c5.0004-0.74295 8.4284-5.3669 7.6856-10.367z" color="#000000" fill="#9b6b27"/>
<path d="m-238.91 1487.3 5.4279-0.8572 12.979 87.346-5.1229 0.573z" fill="url(#linearGradient937)"/>
<path transform="matrix(.81365 0 0 .81365 -250.56 1474.6)" d="m91.02 3.123c-0.30873 0.014466-0.61911 0.045386-0.93164 0.091797l-23.668 3.5156-2.6289 0.39062-49.662 7.377 0.21094 1.4199 49.451-7.3457 2.6289-0.39062 23.668-3.5156c5.0004-0.74258 9.6244 2.6852 10.367 7.6855l13.457 90.588c0.03215 0.21642 0.04576 0.43176 0.0625 0.64649 0.05544-0.68537 0.04307-1.387-0.0625-2.0977l-13.457-90.588c-0.6964-4.6878-4.8046-7.9943-9.4355-7.7773zm-58.99 121.76c-0.099538 0.22924-0.14349 0.44126-0.14258 0.64062 0.090845 0.02795 0.18088 0.04218 0.26758 0.0293-0.009533-0.23285-0.065447-0.45185-0.125-0.66992z" color="#000000" fill="#b99155"/>
</g>
</g>
</svg>
