<svg width="25.6" height="25.6" version="1.1" viewBox="0 0 25.6 25.6" xmlns="http://www.w3.org/2000/svg" xmlns:xlink="http://www.w3.org/1999/xlink">
<defs>
<linearGradient id="linearGradient827" x1="1.3017" x2="16.054" y1="1.6271" y2="17.464" gradientUnits="userSpaceOnUse">
<stop stop-color="#ec50c2" offset="0"/>
<stop stop-color="#e336a5" offset="1"/>
</linearGradient>
<linearGradient id="linearGradient837" x1="4.6644" x2="20.339" y1="5.0983" y2="21.207" gradientUnits="userSpaceOnUse">
<stop stop-color="#4c183b" offset="0"/>
<stop stop-color="#2e0f24" offset="1"/>
</linearGradient>
</defs>
<rect x=".75932" y=".8678" width="23.973" height="23.973" fill="url(#linearGradient827)" style="paint-order:fill markers stroke"/>
<path d="m2.6034 2.7661h20.068v20.068h-20.068z" fill="url(#linearGradient837)" style="paint-order:fill markers stroke"/>
<path d="m2.6035 2.7656v20.068h20.068v-20.068h-20.068zm0.40625 0.4082h19.254v19.254h-19.254v-19.254z" fill-opacity=".26374" style="paint-order:fill markers stroke"/>
<g transform="scale(.96272 1.0387)" fill="#d743a9" stroke-width=".25907px" aria-label="Id">
<path d="m9.7063 15.775h1.2021v-6.7772h-1.2021z"/>
<path d="m12.214 13.236c0 1.6788 0.81865 2.6632 2.0933 2.6632 0.54922 0 1.0674-0.30052 1.4404-0.67357h0.04145l0.0829 0.54922h0.98446v-7.3161h-1.1917v1.8446l0.04145 0.81865c-0.39378-0.34197-0.75648-0.55958-1.3368-0.55958-1.1088 0-2.1554 1.0155-2.1554 2.6736zm1.2332-0.01036c0-1.0674 0.5285-1.6788 1.1813-1.6788 0.34197 0 0.68394 0.11399 1.0363 0.42487v2.3731c-0.34197 0.39378-0.67358 0.56995-1.0674 0.56995-0.73575 0-1.1503-0.59067-1.1503-1.6891z"/>
</g>
</svg>
