<svg width="25.6" height="25.6" version="1.1" viewBox="0 0 25.6 25.6" xmlns="http://www.w3.org/2000/svg" xmlns:xlink="http://www.w3.org/1999/xlink">
<defs>
<linearGradient id="linearGradient827" x1="1.3017" x2="16.054" y1="1.6271" y2="17.464" gradientUnits="userSpaceOnUse">
<stop stop-color="#58ddbc" offset="0"/>
<stop stop-color="#3ccd9c" offset="1"/>
</linearGradient>
<linearGradient id="linearGradient837" x1="4.6644" x2="20.339" y1="5.0983" y2="21.207" gradientUnits="userSpaceOnUse">
<stop stop-color="#0f382d" offset="0"/>
<stop stop-color="#09221a" offset="1"/>
</linearGradient>
</defs>
<rect x=".75932" y=".8678" width="23.973" height="23.973" fill="url(#linearGradient827)" style="paint-order:fill markers stroke"/>
<rect x="2.6034" y="2.7661" width="20.068" height="20.068" fill="url(#linearGradient837)" style="paint-order:fill markers stroke"/>
<path d="m2.6035 2.7656v20.068h20.068v-20.068h-20.068zm0.40625 0.4082h19.254v19.254h-19.254v-19.254z" fill-opacity=".26374" style="paint-order:fill markers stroke"/>
<g fill="#57cdab" stroke-width=".2691px" aria-label="Au">
<path d="m9.312 13.425 0.24757-0.86112c0.22604-0.74272 0.43056-1.5392 0.62431-2.325h0.04306c0.20452 0.77501 0.40903 1.5823 0.63508 2.325l0.24757 0.86112zm2.6264 2.8847h1.3132l-2.2927-7.0396h-1.4639l-2.2927 7.0396h1.2701l0.54896-1.9052h2.3681z"/>
<path d="m13.919 14.34c0 1.3347 0.49514 2.099 1.6254 2.099 0.72119 0 1.2379-0.35521 1.7007-0.90418h0.03229l0.09688 0.77501h1.0118v-5.2851h-1.2379v3.6167c-0.39827 0.51667-0.71042 0.73195-1.1733 0.73195-0.57049 0-0.81806-0.32292-0.81806-1.1948v-3.1538h-1.2379z"/>
</g>
</svg>
