<svg width="128" height="128" version="1.1" viewBox="0 0 33.867 33.867" xmlns="http://www.w3.org/2000/svg" xmlns:xlink="http://www.w3.org/1999/xlink">
<defs>
<linearGradient id="linearGradient897" x1="2686" x2="2686" y1="1088.8" y2="1770.4" gradientTransform="matrix(.042779 0 0 .042779 -95.919 -44.867)" gradientUnits="userSpaceOnUse">
<stop stop-color="#bb67ff" offset="0"/>
<stop stop-color="#4103b5" offset="1"/>
</linearGradient>
<radialGradient id="radialGradient898" cx="60.636" cy="20.456" r="17.304" gradientTransform="translate(-43.433 -3.9449)" gradientUnits="userSpaceOnUse">
<stop stop-color="#0b0b0b" offset="0"/>
<stop stop-color="#0b0b0b" stop-opacity=".85882" offset=".68076"/>
<stop stop-color="#0b0b0b" stop-opacity=".83137" offset=".69925"/>
<stop stop-color="#0b0b0b" stop-opacity=".80392" offset=".71879"/>
<stop stop-color="#0b0b0b" stop-opacity=".78039" offset=".73593"/>
<stop stop-color="#0b0b0b" stop-opacity=".75686" offset=".75022"/>
<stop stop-color="#0b0b0b" stop-opacity=".73333" offset=".76799"/>
<stop stop-color="#0b0b0b" stop-opacity=".082353" offset=".91501"/>
<stop stop-color="#0b0b0b" stop-opacity=".070588" offset=".92247"/>
<stop stop-color="#0b0b0b" stop-opacity=".058824" offset=".92919"/>
<stop stop-color="#0b0b0b" stop-opacity=".047059" offset=".93841"/>
<stop stop-color="#0b0b0b" stop-opacity=".031373" offset=".94761"/>
<stop stop-color="#0b0b0b" stop-opacity=".023529" offset=".95381"/>
<stop stop-color="#0b0b0b" stop-opacity=".015686" offset=".95886"/>
<stop stop-color="#0b0b0b" stop-opacity=".011765" offset=".96356"/>
<stop stop-color="#0b0b0b" stop-opacity=".0078431" offset=".96845"/>
<stop stop-color="#0b0b0b" stop-opacity=".0039216" offset=".97348"/>
<stop stop-color="#0b0b0b" stop-opacity="0" offset=".97812"/>
<stop stop-color="#0b0b0b" stop-opacity="0" offset=".98456"/>
<stop stop-color="#0b0b0b" stop-opacity="0" offset=".98701"/>
<stop stop-color="#0b0b0b" stop-opacity="0" offset=".98925"/>
<stop stop-color="#0b0b0b" stop-opacity="0" offset="1"/>
</radialGradient>
<radialGradient id="radialGradient993" cx="16.968" cy="4.6709" r="13.696" gradientTransform="matrix(4.8886 0 0 1.5421 -65.724 -.93385)" gradientUnits="userSpaceOnUse">
<stop stop-color="#aa5fff" offset="0"/>
<stop stop-color="#5100ea" offset="1"/>
</radialGradient>
<linearGradient id="linearGradient1157" x1="24.246" x2="24.246" y1="29.901" y2="352.8" gradientUnits="userSpaceOnUse">
<stop stop-color="#f6f6f7" offset="0"/>
<stop stop-color="#6c1df0" offset="1"/>
</linearGradient>
</defs>
<circle cx="17.203" cy="16.512" r="17.304" fill="url(#radialGradient898)" opacity=".30973" stroke-linecap="square" stroke-linejoin="round" stroke-width="3"/>
<circle cx="17.203" cy="16.512" r="15.118" fill="url(#linearGradient897)" stroke="#b1aaaa" stroke-linecap="square" stroke-opacity=".99216" stroke-width=".057556"/>
<circle cx="17.203" cy="16.512" r="13.102" fill="url(#radialGradient993)"/>
<g transform="matrix(.83942 0 0 .83942 3.2502 3.2492)">
<path d="m17.041 5.815v0.00155a2.6724 2.6833 0 0 0-1.3994 0.35708l-7.8631 4.5589a2.6724 2.6833 0 0 0-1.3364 2.3244v9.1173a2.6724 2.6833 0 0 0 1.3364 2.3234l7.8631 4.5584a2.6724 2.6833 0 0 0 2.6732 0l7.8631-4.5584a2.6724 2.6833 0 0 0 1.3364-2.3234v-9.1173a2.6724 2.6833 0 0 0-1.3364-2.3244l-7.8631-4.5589a2.6724 2.6833 0 0 0-1.2738-0.35863zm0.43666 4.5899c0.09718-0.0032 0.17989 0.0064 0.22841 0.03256 0.15653 0.08445 0.13599 0.20464-0.03514 0.20464-0.07806 0-0.31333 0.0142-0.52296 0.03204-0.28077 0.02396-0.38137 0.01691-0.38137-0.02739 0-0.11098 0.41953-0.23235 0.71107-0.24184zm-0.2005 0.38809c0.10276-4.04e-4 0.18707 0.02199 0.18707 0.04961 0 0.05398-0.0054 0.0549-0.36122 0.06873-0.13014 0.0048-0.23668-0.0059-0.23668-0.02377 0-0.04843 0.19649-0.09379 0.41083-0.09457zm-0.44804 0.58549c0.07447-9.4e-4 0.15567-8.29e-4 0.24598 0 0.77686 0.0071 1.2076 0.07649 1.88 0.30179 0.94241 0.31575 1.7704 0.79992 2.5182 1.4733 0.21847 0.19673 0.40533 0.33301 0.41548 0.30231 0.05809-0.1757-0.82124-1.081-1.3467-1.3865-0.36984-0.21503-0.47486-0.3235-0.31419-0.3235 0.04042 0 0.28311 0.11305 0.5395 0.25115 0.50477 0.27187 0.56672 0.2905 0.59118 0.1757 0.02835-0.13321 0.43191 0.11464 0.81494 0.50074 1.0062 1.0142 1.7206 2.6635 1.9151 4.4204 0.11172 1.0091 0.06436 1.5199-0.27854 2.9879-0.1525 0.65284-0.63714 1.6726-1.0382 2.1844-0.1515 0.19333-0.36776 0.47179-0.48007 0.61908-0.23022 0.30192-1.2756 1.1097-1.789 1.3823-0.50873 0.27012-1.64 0.64252-1.6438 0.54157 0.0013-0.01915 0.12955-0.07891 0.28629-0.13332 0.18546-0.06437 0.30327-0.13758 0.33383-0.20774 0.02598-0.05957 0.19409-0.19367 0.37362-0.29817 0.17954-0.1045 0.49094-0.3009 0.69195-0.43615 0.31515-0.21205 0.36129-0.26183 0.33641-0.36174-0.01916-0.07688-0.0037-0.12561 0.04547-0.14469 0.09011-0.03485 0.09935-0.13208 0.0124-0.13178-0.03426 9.6e-5 -0.1635 0.06874-0.2868 0.15296-0.31015 0.21186-0.6617 0.38874-0.72657 0.36535-0.0298-0.01078-0.1752 0.03738-0.3235 0.10697-0.14829 0.06957-0.32858 0.12685-0.40049 0.12712-0.07191 2.54e-4 -0.22613 0.03399-0.34262 0.07545-0.11648 0.04141-0.23534 0.07545-0.26407 0.07545-0.09034 0 0.17022-0.24381 0.49713-0.46509 0.32762-0.22177 0.40564-0.32044 0.18707-0.23668-0.16888 0.06473-0.42013 0.06266-0.42013-0.0036 0-0.0289 0.0693-0.09092 0.154-0.13798 0.34851-0.19356 0.60293-0.36889 0.57568-0.39636-0.01595-0.01607-0.18505 0.06412-0.37569 0.17828-0.19064 0.11416-0.37052 0.20774-0.39998 0.20774-0.13124 0-0.02762-0.11721 0.29559-0.33383 0.36224-0.24281 0.44521-0.36615 0.11369-0.16898-0.26634 0.15841-0.66198 0.3095-0.66198 0.2527 0-0.02623 0.19256-0.17556 0.42788-0.33176 0.23532-0.15621 0.46736-0.35046 0.51625-0.4315 0.0489-0.08104 0.23661-0.27012 0.41703-0.42013 0.18042-0.15001 0.34922-0.31254 0.37517-0.36122 0.02597-0.04869 0.18477-0.25795 0.35243-0.46509 0.36734-0.45383 0.8171-1.3376 0.94568-1.8578 0.05529-0.22372 0.10786-0.68221 0.12919-1.1296 0.03188-0.66897 0.02346-0.81473-0.07441-1.3017-0.28761-1.4313-0.79071-2.379-1.5947-3.0029-0.81473-0.6322-1.4894-0.86041-2.5409-0.86041-0.78808 0-1.2704 0.11362-2.0986 0.49558-0.79201 0.36529-1.022 0.52547-1.5741 1.093-0.46832 0.48142-0.47388 0.48986-0.90847 1.4671l-0.15658 0.35192 0.03204-0.25115c0.04073-0.319 0.29737-0.88201 0.57516-1.2619 0.42785-0.58518 1.2106-1.2315 1.6645-1.3741 0.1096-0.03442 0.41045-0.17811 0.66818-0.31988l0.4687-0.25787-0.21962-0.01395c-0.12074-0.0077-0.27015-0.03969-0.33176-0.07131-0.0817-0.04188-0.15908-0.04276-0.28629-0.0036-0.26871 0.08313-0.20849-0.02149 0.10025-0.17415 0.27682-0.13686 0.30773-0.19083 0.1633-0.28267-0.09917-0.06306-0.56131 0.13139-1.0687 0.44907-0.5655 0.35409-1.1448 0.92328-0.70797 0.69556l0.15606-0.08165-0.03411 0.13798c-0.02218 0.08912-0.01254 0.15185 0.02739 0.17673 0.04444 0.02768 0.0064 0.10427-0.13436 0.2713-0.28787 0.34156-0.62506 0.78979-0.78083 1.0382-0.0752 0.11989-0.22206 0.32539-0.32608 0.4563-0.19478 0.24516-0.45889 0.94273-0.45889 1.2118 0 0.07612-0.02221 0.17982-0.04909 0.23048-0.03552 0.06692-0.02992 0.09937 0.01912 0.11834 0.1007 0.03893 0.14091 0.33211 0.15348 1.1136 0.01338 0.83303 0.083 1.0648 0.50488 1.6857 0.1477 0.21739 0.2682 0.40759 0.2682 0.42271 0 0.01514-0.06158 0.01362-0.13694-0.0036-0.11652-0.02636-0.08213 0.02392 0.22893 0.33641 0.20116 0.2021 0.34449 0.37483 0.31884 0.38344-0.02564 0.0086-0.14816-0.02851-0.27234-0.08217-0.20399-0.08813-0.32493-0.20584-0.67903-0.65888-0.12012-0.15369-0.19512-0.09963-0.11317 0.08165 0.10133 0.22415 0.02723 0.18688-0.17208-0.08682-0.10462-0.14366-0.19822-0.23654-0.20826-0.20619-0.02409 0.07287 0.03732 0.18385 0.34985 0.62994 0.14356 0.20489 0.29928 0.44334 0.34623 0.5302 0.05626 0.10407 0.136 0.16791 0.23358 0.18758 0.08144 0.01644 0.16024 0.06202 0.17518 0.10129 0.03458 0.09085 0.67214 0.38171 0.76119 0.34727 0.0368-0.01418 0.17936 0.01876 0.31678 0.07338 0.13741 0.05459 0.3667 0.09971 0.50953 0.09974 0.70734 1e-4 1.5779 0.77644 1.5792 1.4082 5.92e-4 0.30951-0.24508 0.72266-0.55346 0.93069-0.38926 0.26259-1.2373 0.35659-1.7725 0.19637-0.66144-0.19797-2.5311-1.8583-3.2789-2.912-0.44365-0.62514-0.68126-1.1456-0.89504-1.9585-0.29002-1.2991 0.086729-3.0928 0.42788-4.1109 0.28302-0.8383 0.36824-1.0176 0.4992-1.0521 0.12209-0.0322 0.14481 0.0058 0.09043 0.14986-0.0884 0.23438-0.06354 0.28397 0.12764 0.2527 0.22086-0.03611 0.22094-0.02609-0.0026 0.6475-0.176 0.53025-0.21182 0.79938-0.04496 0.33745 0.26901-0.7447 0.4714-1.0544 0.40153-0.61392-0.04568 0.28799 0.05843 0.23814 0.22583-0.10852 0.07232-0.14976 0.20364-0.34038 0.29146-0.42323l0.15968-0.15038-0.13901 0.28732c-0.07642 0.15804-0.12284 0.30333-0.10335 0.32298 0.05512 0.05554 0.11478-0.03029 0.28009-0.40256 0.11468-0.25829 0.13329-0.33676 0.07493-0.31419-0.0466 0.01806-0.01178-0.06282 0.08682-0.20154 0.09053-0.12739 0.1915-0.24249 0.22428-0.25528 0.03276-0.01275 0.16135-0.16257 0.28577-0.3328 0.40335-0.55186 0.92268-0.89514 2.1001-1.388 0.27136-0.1136 0.64266-0.29712 0.82476-0.40773 0.4052-0.24615 0.57991-0.30554 1.1012-0.31212zm1.1224 0.39222c-0.02486 5.76e-4 -0.04293 0.0035-0.05219 0.0093-0.06236 0.03882 0.05055 0.07917 0.5364 0.1912 0.41873 0.09655 0.53898 0.09483 0.3576-0.0041-0.16013-0.0875-0.66776-0.2004-0.84181-0.19637zm-4.5057 0.20981c0.01035 0.0017 0.01302 0.01123 0.0057 0.03049-0.02225 0.05844-0.62421 0.60777-1.141 1.0413l-0.14934 0.12557 0.11162-0.15968c0.21862-0.31237 1.073-1.0542 1.1731-1.0377zm5.733 0.12712c-0.03908 0.0068 0.09519 0.09444 0.40256 0.25683 0.27399 0.14477 0.60986 0.3348 0.74621 0.4222 0.25184 0.16142 0.33877 0.17768 0.22738 0.04237-0.1187-0.14417-0.62206-0.44894-0.97048-0.58756-0.2398-0.0954-0.37526-0.13915-0.40566-0.13384zm-6.8936 0.31729c0.02229-0.0046 0.03179 0.0098 0.03824 0.04186 0.02049 0.10179-0.13247 0.33435-0.22014 0.33435-0.03794 0-0.06925-0.04342-0.06925-0.09663 0-0.05327 0.06158-0.1458 0.13694-0.20567 0.05691-0.04523 0.09191-0.06926 0.1142-0.0739zm2.8655 0.47646c0.04272 0 0.06395 0.02251 0.04703 0.05013-0.01693 0.02762-0.05225 0.05064-0.07803 0.05064-0.02577 0-0.04651-0.02309-0.04651-0.05064 0-0.02762 0.03479-0.05013 0.07751-0.05013zm6.2234 3.6308c0.05496 0.0034 0.12937 0.40623 0.11524 0.65267-0.01466 0.2566-0.01619 0.25335-0.08527-0.17828-0.03869-0.2418-0.05715-0.45328-0.04083-0.46974 0.0035-0.0035 0.0072-0.0049 0.01085-0.0047zm0.09819 1.1994c0.0036-0.0036 0.0079 0.0055 0.0124 0.02894 0.01195 0.06246 0.01164 0.15249-1e-3 0.2005-0.01242 0.04802-0.02222-0.0026-0.0217-0.11317 3.43e-4 -0.06905 0.0044-0.11031 0.01034-0.11627zm-1e-3 0.601c0.0017-1.79e-4 0.0032 5.73e-4 0.0047 0.0021 0.03613 0.03641-0.11117 0.85241-0.20206 1.1198-0.08536 0.25113-0.30912 0.72812-0.34158 0.72812-0.0096 0 0.05695-0.19759 0.14779-0.43925 0.1409-0.37493 0.25611-0.80346 0.35192-1.3115 0.01088-0.05723 0.02738-0.09797 0.03927-0.09922zm-0.64647 2.0185c0.02797-0.0088-0.1685 0.37946-0.30489 0.59738-0.06482 0.10357-0.15097 0.1881-0.19172 0.1881-0.04078 0-0.07441-0.01145-0.07441-0.02584 0-0.02478 0.46422-0.64544 0.56276-0.75241 0.0039-0.0043 0.0064-0.0066 0.0083-0.0072zm-0.48214 3.7667c-0.04861-0.0027-0.24959 0.08443-0.35398 0.15813-0.15035 0.10615-0.06429 0.09229 0.16743-0.02687 0.1085-0.05578 0.1974-0.11147 0.1974-0.12402 0-0.0044-0.0039-0.0068-0.01085-0.0072z" fill="#08084e" fill-opacity=".21335" stroke-width=".42144"/>
<path transform="matrix(.26458 0 0 .26458 -.64751 -.44511)" d="m64.305 19.965v0.0059a10.101 10.142 0 0 0-5.2891 1.3496l-29.719 17.23a10.101 10.142 0 0 0-5.0508 8.7852v34.459a10.101 10.142 0 0 0 5.0508 8.7812l29.719 17.229a10.101 10.142 0 0 0 10.104 0l29.719-17.229a10.101 10.142 0 0 0 5.0508-8.7812v-34.459a10.101 10.142 0 0 0-5.0508-8.7852l-29.719-17.23a10.101 10.142 0 0 0-4.8145-1.3555zm1.6504 17.348c0.36729-0.01197 0.6799 0.02411 0.86328 0.12305 0.5916 0.3192 0.51398 0.77344-0.13281 0.77344-0.29503 0-1.1843 0.05367-1.9766 0.12109-1.0612 0.09056-1.4414 0.06392-1.4414-0.10352 0-0.41945 1.5856-0.87816 2.6875-0.91406zm-0.75781 1.4668c0.38838-0.0015 0.70703 0.08312 0.70703 0.1875 0 0.20402-0.02059 0.20751-1.3652 0.25976-0.49185 0.01807-0.89453-0.02237-0.89453-0.08984 0-0.18306 0.74263-0.35448 1.5527-0.35742zm-1.6934 2.2129c0.28148-0.0036 0.58836-0.0031 0.92969 0 2.9362 0.02683 4.564 0.28912 7.1055 1.1406 3.5619 1.1934 6.6915 3.0233 9.5176 5.5684 0.8257 0.74355 1.532 1.2586 1.5703 1.1426 0.21955-0.66406-3.1039-4.0856-5.0898-5.2402-1.3978-0.8127-1.7947-1.2227-1.1875-1.2227 0.15277 0 1.07 0.42728 2.0391 0.94922 1.9078 1.0275 2.1419 1.098 2.2344 0.66406 0.10715-0.50347 1.6324 0.43328 3.0801 1.8926 3.8028 3.8332 6.5032 10.067 7.2383 16.707 0.42226 3.8139 0.24327 5.7445-1.0527 11.293-0.57637 2.4674-2.4081 6.3215-3.9238 8.2559-0.57258 0.7307-1.39 1.7831-1.8145 2.3398-0.87012 1.1411-4.8211 4.1942-6.7617 5.2246-1.9227 1.0209-6.1983 2.4284-6.2129 2.0469 0.0049-0.07237 0.48963-0.29825 1.082-0.50391 0.70094-0.24329 1.1462-0.51999 1.2617-0.78516 0.09819-0.22515 0.73356-0.73198 1.4121-1.127 0.67856-0.39498 1.8555-1.1372 2.6152-1.6484 1.1911-0.80144 1.3655-0.98959 1.2715-1.3672-0.07242-0.29057-0.01393-0.47475 0.17188-0.54688 0.34057-0.13172 0.3755-0.49919 0.04687-0.49805-0.12949 3.63e-4 -0.61796 0.2598-1.084 0.57812-1.1722 0.80072-2.5009 1.4693-2.7461 1.3809-0.11263-0.04074-0.66219 0.14128-1.2227 0.4043-0.56048 0.26294-1.2419 0.47944-1.5137 0.48047-0.27179 9.6e-4 -0.85465 0.12846-1.2949 0.28516-0.44025 0.15651-0.88946 0.28516-0.99805 0.28516-0.34144 0 0.64334-0.92148 1.8789-1.7578 1.2382-0.83818 1.5331-1.2111 0.70703-0.89453-0.63828 0.24465-1.5879 0.23684-1.5879-0.01367 0-0.10923 0.2619-0.34362 0.58203-0.52148 1.3172-0.73155 2.2788-1.3942 2.1758-1.498-0.06028-0.06074-0.6994 0.24235-1.4199 0.67383-0.72053 0.43146-1.4004 0.78516-1.5117 0.78516-0.49601 0-0.10438-0.443 1.1172-1.2617 1.3691-0.9177 1.6827-1.3839 0.42969-0.63867-1.0066 0.59871-2.502 1.1697-2.502 0.95508 0-0.09914 0.7278-0.66352 1.6172-1.2539 0.8894-0.5904 1.7664-1.3246 1.9512-1.6309 0.18482-0.30629 0.89426-1.0209 1.5762-1.5879 0.68192-0.56698 1.3199-1.1812 1.418-1.3652 0.09815-0.18403 0.69836-0.97494 1.332-1.7578 1.3884-1.7153 3.0883-5.0555 3.5742-7.0215 0.20897-0.84555 0.40765-2.5784 0.48828-4.2695 0.12049-2.5284 0.08865-3.0793-0.28125-4.9199-1.087-5.4097-2.9885-8.9916-6.0273-11.35-3.0793-2.3894-5.6291-3.252-9.6035-3.252-2.9786 0-4.8016 0.42942-7.9316 1.873-2.9934 1.3806-3.8628 1.986-5.9492 4.1309-1.77 1.8195-1.791 1.8514-3.4336 5.5449l-0.5918 1.3301 0.12109-0.94922c0.15394-1.2057 1.1239-3.3336 2.1738-4.7695 1.6171-2.2117 4.5754-4.6546 6.291-5.1934 0.41426-0.13009 1.5513-0.67316 2.5254-1.209l1.7715-0.97461-0.83008-0.05273c-0.45632-0.0291-1.021-0.15002-1.2539-0.26953-0.30879-0.15829-0.60124-0.1616-1.082-0.01367-1.0156 0.31419-0.788-0.08124 0.37891-0.6582 1.0463-0.51725 1.1631-0.72126 0.61719-1.0684-0.37482-0.23834-2.1215 0.49658-4.0391 1.6973-2.1373 1.3383-4.3269 3.4896-2.6758 2.6289l0.58984-0.30859-0.12891 0.52148c-0.08383 0.33683-0.0474 0.57393 0.10352 0.66797 0.16796 0.10462 0.02435 0.39408-0.50781 1.0254-1.088 1.2909-2.3624 2.985-2.9512 3.9238-0.28422 0.45314-0.8393 1.2298-1.2324 1.7246-0.73617 0.9266-1.7344 3.5631-1.7344 4.5801 0 0.2877-0.08395 0.67962-0.18555 0.87109-0.13425 0.25293-0.11308 0.37557 0.07227 0.44727 0.38061 0.14714 0.53258 1.2552 0.58008 4.209 0.05057 3.1484 0.31372 4.0243 1.9082 6.3711 0.55825 0.82162 1.0137 1.5405 1.0137 1.5977 0 0.05722-0.23276 0.05149-0.51758-0.01367-0.44038-0.09963-0.31041 0.0904 0.86524 1.2715 0.76031 0.76384 1.302 1.4167 1.2051 1.4492-0.09691 0.0325-0.55998-0.10774-1.0293-0.31055-0.77099-0.33309-1.2281-0.77797-2.5664-2.4902-0.45399-0.58088-0.73746-0.37656-0.42774 0.30859 0.38296 0.84718 0.1029 0.70631-0.65039-0.32812-0.3954-0.54296-0.74918-0.894-0.78711-0.7793-0.09105 0.27542 0.14104 0.69487 1.3223 2.3809 0.5426 0.7744 1.1311 1.6756 1.3086 2.0039 0.21264 0.39334 0.51402 0.63463 0.88281 0.70898 0.3078 0.06214 0.60563 0.23441 0.66211 0.38281 0.1307 0.34337 2.5404 1.4427 2.877 1.3125 0.13909-0.05359 0.67788 0.07091 1.1973 0.27734 0.51936 0.20632 1.3859 0.37684 1.9258 0.37695 2.6734 3.81e-4 5.9639 2.9346 5.9688 5.3223 0.0022 1.1698-0.92627 2.7313-2.0918 3.5176-1.4712 0.99248-4.6763 1.3477-6.6992 0.74219-2.5-0.74826-9.5664-7.0236-12.393-11.006-1.6768-2.3627-2.5749-4.3299-3.3828-7.4023-1.0961-4.9099 0.32779-11.689 1.6172-15.537 1.0697-3.1684 1.3918-3.8461 1.8867-3.9766 0.46144-0.1217 0.54731 0.02204 0.3418 0.56641-0.33411 0.88585-0.24016 1.0733 0.48242 0.95508 0.83476-0.13648 0.83504-0.09862-0.0098 2.4473-0.66519 2.0041-0.80057 3.0213-0.16992 1.2754 1.0167-2.8146 1.7817-3.985 1.5176-2.3203-0.17265 1.0885 0.22085 0.90004 0.85352-0.41016 0.27334-0.56602 0.76965-1.2865 1.1016-1.5996l0.60352-0.56836-0.52539 1.0859c-0.28883 0.59732-0.46426 1.1465-0.39062 1.2207 0.20833 0.20992 0.43382-0.1145 1.0586-1.5215 0.43346-0.97621 0.50378-1.2728 0.2832-1.1875-0.17613 0.06826-0.04454-0.23742 0.32812-0.76172 0.34216-0.48149 0.72378-0.91649 0.84766-0.96484 0.12382-0.04819 0.60983-0.61443 1.0801-1.2578 1.5245-2.0858 3.4873-3.3832 7.9375-5.2461 1.0256-0.42936 2.429-1.123 3.1172-1.541 1.5315-0.93032 2.1918-1.1548 4.1621-1.1797zm4.2422 1.4824c-0.09397 0.0022-0.16226 0.01335-0.19727 0.03516-0.23569 0.14672 0.19107 0.29924 2.0273 0.72266 1.5826 0.36491 2.0371 0.3584 1.3516-0.01563-0.60523-0.33072-2.5238-0.75743-3.1816-0.74219zm-17.029 0.79297c0.03913 0.0065 0.04919 0.04245 0.02148 0.11523-0.08409 0.22088-2.3592 2.2971-4.3125 3.9355l-0.56445 0.47461 0.42188-0.60352c0.82627-1.1806 4.0553-3.9845 4.4336-3.9219zm21.668 0.48047c-0.14772 0.02579 0.35978 0.35693 1.5215 0.9707 1.0356 0.54717 2.305 1.2654 2.8203 1.5957 0.95185 0.61009 1.2804 0.67154 0.85938 0.16016-0.44862-0.54488-2.3511-1.6968-3.668-2.2207-0.90635-0.36058-1.4183-0.52592-1.5332-0.50586zm-26.055 1.1992c0.08425-0.01751 0.12015 0.03707 0.14453 0.1582 0.07744 0.38472-0.50066 1.2637-0.83203 1.2637-0.1434 0-0.26172-0.16413-0.26172-0.36524 0-0.20134 0.23275-0.55106 0.51758-0.77734 0.2151-0.17093 0.34739-0.26178 0.43164-0.2793zm10.83 1.8008c0.16146 0 0.24168 0.08506 0.17774 0.18945-0.06399 0.10439-0.19749 0.19141-0.29492 0.19141-0.0974 0-0.17578-0.08728-0.17578-0.19141 0-0.10439 0.13151-0.18945 0.29297-0.18945zm23.521 13.723c0.20773 0.01293 0.48894 1.5354 0.43555 2.4668-0.05541 0.96985-0.06118 0.95755-0.32227-0.67383-0.14623-0.91387-0.21598-1.7132-0.1543-1.7754 0.01308-0.01318 0.02717-0.01844 0.04102-0.01758zm0.37109 4.5332c0.01348-0.01353 0.02985 0.02084 0.04687 0.10938 0.04517 0.23607 0.04398 0.57635-0.0039 0.75781-0.04694 0.18149-0.084-0.0098-0.08203-0.42774 0.0013-0.26098 0.01659-0.4169 0.03906-0.43945zm-0.0039 2.2715c0.0064-6.76e-4 0.01197 0.0022 0.01758 0.0078 0.13656 0.13761-0.42016 3.2217-0.76367 4.2324-0.32262 0.94914-1.1683 2.752-1.291 2.752-0.03628 0 0.21526-0.74681 0.55859-1.6602 0.53255-1.4171 0.96798-3.0367 1.3301-4.957 0.04111-0.21632 0.10348-0.37027 0.14844-0.375zm-2.4434 7.6289c0.10572-0.03329-0.63684 1.4342-1.1523 2.2578-0.24499 0.39145-0.57059 0.71094-0.72461 0.71094-0.15413 0-0.28125-0.04327-0.28125-0.09766 0-0.09366 1.7545-2.4394 2.127-2.8438 0.01492-0.01619 0.0242-0.02513 0.03125-0.02734zm-1.8223 14.236c-0.18373-0.01032-0.94332 0.3191-1.3379 0.59766-0.56824 0.40119-0.24301 0.34881 0.63281-0.10156 0.4101-0.21082 0.74609-0.42131 0.74609-0.46875 0-0.01646-0.01477-0.02587-0.04102-0.02734z" fill="url(#linearGradient1157)" stroke-width="1.5928"/>
</g>
</svg>
