<svg width="128" height="128" version="1.1" viewBox="0 0 33.867 33.867" xmlns="http://www.w3.org/2000/svg" xmlns:xlink="http://www.w3.org/1999/xlink">
<defs>
<linearGradient id="linearGradient897" x1="2686" x2="2686" y1="1088.8" y2="1770.4" gradientTransform="matrix(.042779 0 0 .042779 -95.919 -44.867)" gradientUnits="userSpaceOnUse">
<stop stop-color="#535859" offset="0"/>
<stop stop-color="#050505" offset="1"/>
</linearGradient>
<radialGradient id="radialGradient898" cx="60.636" cy="20.456" r="17.304" gradientTransform="translate(-43.433 -3.9449)" gradientUnits="userSpaceOnUse">
<stop stop-color="#0b0b0b" offset="0"/>
<stop stop-color="#0b0b0b" stop-opacity=".85882" offset=".68076"/>
<stop stop-color="#0b0b0b" stop-opacity=".83137" offset=".69925"/>
<stop stop-color="#0b0b0b" stop-opacity=".80392" offset=".71879"/>
<stop stop-color="#0b0b0b" stop-opacity=".78039" offset=".73593"/>
<stop stop-color="#0b0b0b" stop-opacity=".75686" offset=".75022"/>
<stop stop-color="#0b0b0b" stop-opacity=".73333" offset=".76799"/>
<stop stop-color="#0b0b0b" stop-opacity=".082353" offset=".91501"/>
<stop stop-color="#0b0b0b" stop-opacity=".070588" offset=".92247"/>
<stop stop-color="#0b0b0b" stop-opacity=".058824" offset=".92919"/>
<stop stop-color="#0b0b0b" stop-opacity=".047059" offset=".93841"/>
<stop stop-color="#0b0b0b" stop-opacity=".031373" offset=".94761"/>
<stop stop-color="#0b0b0b" stop-opacity=".023529" offset=".95381"/>
<stop stop-color="#0b0b0b" stop-opacity=".015686" offset=".95886"/>
<stop stop-color="#0b0b0b" stop-opacity=".011765" offset=".96356"/>
<stop stop-color="#0b0b0b" stop-opacity=".0078431" offset=".96845"/>
<stop stop-color="#0b0b0b" stop-opacity=".0039216" offset=".97348"/>
<stop stop-color="#0b0b0b" stop-opacity="0" offset=".97812"/>
<stop stop-color="#0b0b0b" stop-opacity="0" offset=".98456"/>
<stop stop-color="#0b0b0b" stop-opacity="0" offset=".98701"/>
<stop stop-color="#0b0b0b" stop-opacity="0" offset=".98925"/>
<stop stop-color="#0b0b0b" stop-opacity="0" offset="1"/>
</radialGradient>
<radialGradient id="radialGradient993" cx="16.787" cy="3.5457" r="13.696" gradientTransform="matrix(4.8886 0 0 1.5421 -65.724 -.93385)" gradientUnits="userSpaceOnUse">
<stop stop-color="#303334" offset="0"/>
<stop stop-color="#1a1a1c" offset="1"/>
</radialGradient>
<linearGradient id="linearGradient861" x1="66.501" x2="66.501" y1="32.071" y2="105.31" gradientTransform="translate(1.1499 -1.2822)" gradientUnits="userSpaceOnUse">
<stop stop-color="#f35f38" offset="0"/>
<stop stop-color="#d98775" offset="1"/>
</linearGradient>
<linearGradient id="linearGradient1075" x1="-17.133" x2="91.4" y1="34.298" y2="83.184" gradientUnits="userSpaceOnUse">
<stop stop-color="#f3f038" offset="0"/>
<stop stop-color="#f3f038" stop-opacity="0" offset="1"/>
</linearGradient>
<linearGradient id="linearGradient875" x1="17.035" x2="17.035" y1="20.053" y2="27.336" gradientTransform="translate(-2.4054 .1978)" gradientUnits="userSpaceOnUse">
<stop stop-color="#12a1f4" offset="0"/>
<stop stop-color="#2fc5f5" stop-opacity=".98182" offset="1"/>
</linearGradient>
<linearGradient id="linearGradient1085" x1="59.967" x2="63.122" y1="71.893" y2="81.853" gradientTransform="matrix(.26458 0 0 .26458 -2.4054 .1978)" gradientUnits="userSpaceOnUse">
<stop stop-color="#54cbf7" offset="0"/>
<stop stop-color="#54cbf7" stop-opacity="0" offset="1"/>
</linearGradient>
</defs>
<g>
<circle cx="17.203" cy="16.512" r="17.304" fill="url(#radialGradient898)" opacity=".30973" stroke-linecap="square" stroke-linejoin="round" stroke-width="3"/>
<circle cx="17.203" cy="16.512" r="15.118" fill="url(#linearGradient897)" stroke="#b1aaaa" stroke-linecap="square" stroke-opacity=".99216" stroke-width=".057556"/>
<circle cx="17.203" cy="16.512" r="13.102" fill="url(#radialGradient993)"/>
<g transform="translate(2.5365 -2.2753)">
<g transform="translate(-2.1012 -.14144)" aria-label="A">
<path transform="matrix(.26458 0 0 .26458 -.30425 .33924)" d="m59.549 25.758a1.89 1.89 0 0 0-1.6543 0.97461h11.6a1.89 1.89 0 0 0-1.6562-0.97461zm-1.9688 1.7324-0.80469 2.0645h13.834l-0.80078-2.0645zm-1.0996 2.8223-0.80274 2.0645h16.025l-0.80078-2.0645zm-1.0977 2.8223-0.80469 2.0645h18.219l-0.79883-2.0645zm-1.0996 2.8223-0.80273 2.0645h20.412l-0.80078-2.0645zm-1.0977 2.8223-0.80469 2.0664h22.605l-0.80078-2.0664zm-1.0977 2.8223-0.80469 2.0664h24.797l-0.80078-2.0664zm-1.0996 2.8242-0.80273 2.0645h12.701c0.22371-0.68531 0.4144-1.2346 0.67383-2.0645zm12.787 0c0.14396 0.44535 0.28722 0.89683 0.43164 1.3301 0.11643 0.34928 0.1536 0.43739 0.25391 0.73438h12.715l-0.80078-2.0645zm-13.885 2.8223-0.80469 2.0645h12.852l0.19531-0.51562a1.89 1.89 0 0 0 0.01367-0.03711c0.13377-0.37902 0.33829-1.0502 0.49219-1.5117zm14.832 0c0.17718 0.51411 0.41645 1.2349 0.53125 1.541l0.19531 0.52344h12.82l-0.80078-2.0645zm-15.932 2.8223-0.80274 2.0645h12.879l0.7832-2.0645zm16.941 0 0.76953 2.0645h12.861l-0.80078-2.0645zm-18.039 2.8223-0.80273 2.0645h12.906l0.7832-2.0645zm19.092 0 0.77148 2.0645h12.9l-0.80078-2.0645zm-20.189 2.8223-0.80469 2.0645h12.938l0.78125-2.0645zm21.242 0 0.77148 2.0645h12.941l-0.79883-2.0645zm-22.342 2.8223-0.80469 2.0664h12.967l0.7832-2.0664zm23.396 0 0.77148 2.0664h12.982l-0.80078-2.0664zm-24.494 2.8223-0.80469 2.0664h12.994l0.7832-2.0664zm25.547 0 0.77148 2.0664h13.023l-0.80078-2.0664zm-26.646 2.8242-0.80273 2.0645h13.021l0.7832-2.0645zm27.701 0 0.76953 2.0645h13.066l-0.80078-2.0645zm-28.799 2.8223-0.80469 2.0645h13.051l0.7832-2.0645zm29.852 0 0.76953 2.0645h13.107l-0.80078-2.0645zm-30.951 2.8223-0.80273 2.0645h13.078l0.7832-2.0645zm32.004 0 0.77148 2.0645h13.146l-0.80078-2.0645zm-33.102 2.8223-0.80273 2.0645h13.107l0.78125-2.0645zm34.154 0 0.77148 2.0645h13.188l-0.80078-2.0645zm-35.252 2.8223-0.80469 2.0645h13.137l0.7832-2.0645zm36.307 0 0.76953 2.0645h13.229l-0.79883-2.0645zm-37.406 2.8223-0.80274 2.0645h13.164l0.7832-2.0645zm38.459 0 0.77148 2.0645h13.27l-0.80078-2.0645zm-39.557 2.8223-0.80469 2.0664h13.193l0.7832-2.0664zm40.609 0 0.77148 2.0664h13.311l-0.80078-2.0664zm-41.707 2.8223-0.80469 2.0664h13.221l0.7832-2.0664zm42.762 0 0.76953 2.0664h13.352l-0.80078-2.0664zm-43.861 2.8242-0.80274 2.0645h13.25l0.78125-2.0645zm44.914 0 0.77148 2.0645h13.393l-0.80078-2.0645zm-46.012 2.8223-0.80469 2.0645h13.279l0.78125-2.0645zm47.066 0 0.76953 2.0645h13.434l-0.80078-2.0645zm-48.166 2.8223-0.80273 2.0645h13.307l0.7832-2.0645zm49.219 0 0.76953 2.0645h13.475l-0.80078-2.0645zm-50.316 2.8223-0.80469 2.0645h13.336l0.7832-2.0645zm51.369 0 0.77148 2.0645h13.514l-0.79883-2.0645zm-52.469 2.8223-0.80274 2.0645h13.365l0.78125-2.0645zm53.521 0 0.77148 2.0645h13.557l-0.80078-2.0645zm-54.547 2.8223a1.89 1.89 0 0 0 1.5898 2.0664h9.8887a1.89 1.89 0 0 0 1.4902-1.1934l0.33008-0.87305zm55.602 0 0.32227 0.86523a1.89 1.89 0 0 0 1.4883 1.2012h10.082a1.89 1.89 0 0 0 1.6016-2.0664z" fill="url(#linearGradient861)"/>
<path transform="matrix(.26458 0 0 .26458 -.30425 .33924)" d="m59.549 25.758a1.89 1.89 0 0 0-1.6543 0.97461h11.6a1.89 1.89 0 0 0-1.6562-0.97461zm-1.9688 1.7324-0.80469 2.0645h13.834l-0.80078-2.0645zm-1.0996 2.8223-0.80274 2.0645h16.025l-0.80078-2.0645zm-1.0977 2.8223-0.80469 2.0645h18.219l-0.79883-2.0645zm-1.0996 2.8223-0.80273 2.0645h20.412l-0.80078-2.0645zm-1.0977 2.8223-0.80469 2.0664h22.605l-0.80078-2.0664zm-1.0977 2.8223-0.80469 2.0664h24.797l-0.80078-2.0664zm-1.0996 2.8242-0.80273 2.0645h12.701c0.22371-0.68531 0.4144-1.2346 0.67383-2.0645zm12.787 0c0.14396 0.44535 0.28722 0.89683 0.43164 1.3301 0.11643 0.34928 0.1536 0.43739 0.25391 0.73438h12.715l-0.80078-2.0645zm-13.885 2.8223-0.80469 2.0645h12.852l0.19531-0.51562a1.89 1.89 0 0 0 0.01367-0.03711c0.13377-0.37902 0.33829-1.0502 0.49219-1.5117zm14.832 0c0.17718 0.51411 0.41645 1.2349 0.53125 1.541l0.19531 0.52344h12.82l-0.80078-2.0645zm-15.932 2.8223-0.80274 2.0645h12.879l0.7832-2.0645zm16.941 0 0.76953 2.0645h12.861l-0.80078-2.0645zm-18.039 2.8223-0.80273 2.0645h12.906l0.7832-2.0645zm19.092 0 0.77148 2.0645h12.9l-0.80078-2.0645zm-20.189 2.8223-0.80469 2.0645h12.938l0.78125-2.0645zm21.242 0 0.77148 2.0645h12.941l-0.79883-2.0645zm-22.342 2.8223-0.80469 2.0664h12.967l0.7832-2.0664zm23.396 0 0.77148 2.0664h12.982l-0.80078-2.0664zm-24.494 2.8223-0.80469 2.0664h12.994l0.7832-2.0664zm25.547 0 0.77148 2.0664h13.023l-0.80078-2.0664zm-26.646 2.8242-0.80273 2.0645h13.021l0.7832-2.0645zm27.701 0 0.76953 2.0645h13.066l-0.80078-2.0645zm-28.799 2.8223-0.80469 2.0645h13.051l0.7832-2.0645zm29.852 0 0.76953 2.0645h13.107l-0.80078-2.0645zm-30.951 2.8223-0.80273 2.0645h13.078l0.7832-2.0645zm32.004 0 0.77148 2.0645h13.146l-0.80078-2.0645zm-33.102 2.8223-0.80273 2.0645h13.107l0.78125-2.0645zm34.154 0 0.77148 2.0645h13.188l-0.80078-2.0645zm-35.252 2.8223-0.80469 2.0645h13.137l0.7832-2.0645zm36.307 0 0.76953 2.0645h13.229l-0.79883-2.0645zm-37.406 2.8223-0.80274 2.0645h13.164l0.7832-2.0645zm38.459 0 0.77148 2.0645h13.27l-0.80078-2.0645zm-39.557 2.8223-0.80469 2.0664h13.193l0.7832-2.0664zm40.609 0 0.77148 2.0664h13.311l-0.80078-2.0664zm-41.707 2.8223-0.80469 2.0664h13.221l0.7832-2.0664zm42.762 0 0.76953 2.0664h13.352l-0.80078-2.0664zm-43.861 2.8242-0.80274 2.0645h13.25l0.78125-2.0645zm44.914 0 0.77148 2.0645h13.393l-0.80078-2.0645zm-46.012 2.8223-0.80469 2.0645h13.279l0.78125-2.0645zm47.066 0 0.76953 2.0645h13.434l-0.80078-2.0645zm-48.166 2.8223-0.80273 2.0645h13.307l0.7832-2.0645zm49.219 0 0.76953 2.0645h13.475l-0.80078-2.0645zm-50.316 2.8223-0.80469 2.0645h13.336l0.7832-2.0645zm51.369 0 0.77148 2.0645h13.514l-0.79883-2.0645zm-52.469 2.8223-0.80274 2.0645h13.365l0.78125-2.0645zm53.521 0 0.77148 2.0645h13.557l-0.80078-2.0645zm-54.547 2.8223a1.89 1.89 0 0 0 1.5898 2.0664h9.8887a1.89 1.89 0 0 0 1.4902-1.1934l0.33008-0.87305zm55.602 0 0.32227 0.86523a1.89 1.89 0 0 0 1.4883 1.2012h10.082a1.89 1.89 0 0 0 1.6016-2.0664z" fill="url(#linearGradient1075)"/>
</g>
<path d="m14.432 16.913-0.02791 0.06666h0.05581zm-0.11265 0.26717-0.22996 0.54622h0.68523l-0.22996-0.54622zm-0.31419 0.74672-0.23048 0.54622h1.3146l-0.22996-0.54622zm-0.31471 0.74672-0.22996 0.54622h1.9436l-0.22996-0.54622zm-0.31471 0.74672-0.22996 0.54622h2.573l-0.23048-0.54622zm-0.31471 0.74672-0.22996 0.54622h3.2024l-0.23048-0.54622zm-0.31419 0.74672-0.22996 0.54622h3.8308l-0.22996-0.54622zm-0.31471 0.74672-1e-3 0.0026 0.15244 0.54415h3.6974l0.15244-0.54415-1e-3 -0.0026zm0.20774 0.74672 0.15296 0.54674h3.2789l0.15296-0.54674zm0.20929 0.74724 0.15296 0.54622h2.8603l0.15296-0.54622zm0.20929 0.74672 0.15296 0.54622h2.4412l0.15348-0.54622zm0.20929 0.74672 0.15296 0.54622h2.0226l0.15348-0.54622zm0.20929 0.74672 0.15296 0.54622h1.604l0.15296-0.54622zm0.20929 0.74672 0.15296 0.54622h1.1855l0.15296-0.54622zm0.20929 0.74672 0.15348 0.54674h0.76636l0.15296-0.54674zm0.20929 0.74673 0.32711 1.1669 0.32711-1.1669z" fill="url(#linearGradient875)"/>
<path d="m14.432 16.913-0.02791 0.06666h0.05581zm-0.11265 0.26717-0.22996 0.54622h0.68523l-0.22996-0.54622zm-0.31419 0.74672-0.23048 0.54622h1.3146l-0.22996-0.54622zm-0.31471 0.74672-0.22996 0.54622h1.9436l-0.22996-0.54622zm-0.31471 0.74672-0.22996 0.54622h2.573l-0.23048-0.54622zm-0.31471 0.74672-0.22996 0.54622h3.2024l-0.23048-0.54622zm-0.31419 0.74672-0.22996 0.54622h3.8308l-0.22996-0.54622zm-0.31471 0.74672-1e-3 0.0026 0.15244 0.54415h3.6974l0.15244-0.54415-1e-3 -0.0026zm0.20774 0.74672 0.15296 0.54674h3.2789l0.15296-0.54674zm0.20929 0.74724 0.15296 0.54622h2.8603l0.15296-0.54622zm0.20929 0.74672 0.15296 0.54622h2.4412l0.15348-0.54622zm0.20929 0.74672 0.15296 0.54622h2.0226l0.15348-0.54622zm0.20929 0.74672 0.15296 0.54622h1.604l0.15296-0.54622zm0.20929 0.74672 0.15296 0.54622h1.1855l0.15296-0.54622zm0.20929 0.74672 0.15348 0.54674h0.76636l0.15296-0.54674zm0.20929 0.74673 0.32711 1.1669 0.32711-1.1669z" fill="url(#linearGradient1085)"/>
</g>
</g>
</svg>
