<svg width="128" height="128" version="1.1" viewBox="0 0 33.867 33.867" xmlns="http://www.w3.org/2000/svg" xmlns:osb="http://www.openswatchbook.org/uri/2009/osb" xmlns:xlink="http://www.w3.org/1999/xlink">
<defs>
<linearGradient id="linearGradient1014" x1="174.79" x2="286.74" y1="250.81" y2="343.09" gradientTransform="matrix(.24529 0 0 .24529 -82.007 204.89)" gradientUnits="userSpaceOnUse">
<stop stop-color="#4764f3" offset="0"/>
<stop stop-color="#4171e2" offset=".1818"/>
<stop stop-color="#1077ed" offset=".5"/>
<stop stop-color="#10cba7" offset="1"/>
</linearGradient>
<linearGradient id="linearGradient1029" x1="238.14" x2="238.14" y1="362.08" y2="278.42" gradientTransform="matrix(.24239 -.037664 .037664 .24239 -49.575 215.05)" gradientUnits="userSpaceOnUse">
<stop stop-color="#eaeaea" offset="0"/>
<stop stop-color="#fbfbfb" offset="1"/>
</linearGradient>
</defs>
<g transform="translate(0 -263.13)">
<rect transform="rotate(-8.8325)" x="-39.131" y="264.37" width="25.83" height="29.567" rx="1.4423" ry="1.4423" fill="url(#linearGradient1014)" style="paint-order:fill markers stroke"/>
<path d="m3.3503 267.02c-0.78957 0.12269-1.3264 0.85705-1.2037 1.6466l0.092529 0.59546c-0.12269-0.78956 0.41414-1.5239 1.2037-1.6466l22.674-3.5232c0.78957-0.12269 1.5241 0.41413 1.6467 1.2037l-0.09253-0.59547c-0.12269-0.78956-0.85717-1.3264-1.6467-1.2037z" fill="#fff" fill-opacity=".23954" style="paint-order:fill markers stroke"/>
<path d="m15.914 284.55c2e-3 -0.0112 0.12181-0.072 0.26635-0.13516 0.35331-0.15434 0.89779-0.51962 1.1841-0.79437 0.437-0.41938 0.87037-1.1014 0.76137-1.1982-0.02451-0.0217-0.22753 0.0676-0.45118 0.1985-0.81864 0.47928-1.8636 0.77343-3.0028 0.84531-0.56114 0.0354-1.6049-0.0198-2.1197-0.11215-0.22054-0.0395-0.2193-0.0403 0.25902-0.17482 1.221-0.34316 2.0639-1.0738 2.4865-2.1554 0.17718-0.4535 0.33717-1.2433 0.25478-1.2577-0.02871-5e-3 -0.19123 0.1184-0.36116 0.27424-0.3581 0.32843-0.65671 0.50081-1.1006 0.63538-0.3309 0.10031-0.37248 0.0793-0.19523-0.0985 0.33398-0.33508 0.52787-1.0444 0.4124-1.5088-0.0379-0.15241-0.1056-0.28061-0.15251-0.2888-0.04639-8e-3 -0.17873 0.0422-0.29407 0.1117-0.19838 0.11959-0.43811 0.2176-0.5041 0.20608-0.01649-3e-3 0.0055-0.065 0.04889-0.13801 0.45048-0.75826-0.39023-1.3498-2.4223-1.7044-0.94611-0.16508-1.7997-0.22509-2.7524-0.19352l-0.56536 0.0187-0.32891-0.37616c-0.1809-0.2069-0.32277-0.40612-0.31527-0.44273 0.00748-0.0367 0.06018-0.12274 0.11706-0.19136 0.12666-0.15282 0.21552-0.59996 0.14046-0.70676-0.078466-0.11165-0.28936-0.13514-0.34705-0.0387-0.026932 0.0451-0.063576 0.16564-0.081448 0.26807-0.017872 0.10244-0.053172 0.19423-0.078433 0.20397-0.04858 0.0187-0.65977-0.75067-0.61607-0.77555 0.014038-8e-3 0.85071-0.24995 1.8593-0.53772 1.0086-0.28775 1.922-0.56826 2.0299-0.62337 0.29886-0.15262 0.61535-0.52166 0.85758-0.99994 0.18595-0.36716 0.26023-0.45731 0.49529-0.60113 0.15209-0.093 0.43348-0.20247 0.62531-0.24317 0.86798-0.18413 1.6841-0.60372 1.9991-1.0278 0.27851-0.37499 1.1304-2.0143 1.3726-2.6413l0.22545-0.58372 0.32641 0.7657c0.17952 0.42113 0.42863 1.0213 0.55357 1.3338 0.21869 0.54691 0.2929 0.64239 0.42644 0.54868 0.12264-0.0861 1.1617-0.19972 1.9045-0.20831 0.82249-0.01 1.8034 0.0279 1.8329 0.0698 0.0101 0.0145-0.25782 0.087-0.59541 0.16145-0.64568 0.14231-1.4608 0.42096-1.6146 0.55198-0.05311 0.0452-0.07323 0.0994-0.04832 0.13002 0.02349 0.0289 0.2992 0.12945 0.61272 0.22342 1.7012 0.50997 3.3612 1.5874 4.5931 2.981 0.44629 0.5049 1.1848 1.6056 1.5142 2.2569 0.16464 0.32548 0.28924 0.59889 0.27691 0.60756-0.01234 9e-3 -0.19653-0.0669-0.40933-0.16786-0.69067-0.32775-1.3438-0.45852-1.3758-0.27547-0.0074 0.0424 0.09336 0.20347 0.22388 0.3581 0.52494 0.62196 1.0675 1.8819 1.2118 2.8143 0.14007 0.90486 0.08585 2.0336-0.14271 2.9704l-0.14038 0.57537-0.05878-0.25222c-0.15333-0.65794-0.69482-1.515-1.3181-2.0863-0.1883-0.17258-0.38303-0.33702-0.43274-0.36541-0.10688-0.0611-0.13543-1e-3 -0.29155 0.60937-0.43888 1.717-1.7117 2.9225-3.4691 3.2857-0.54162 0.11194-1.2692 0.14924-1.931 0.099-0.55312-0.042-1.362-0.1613-1.3552-0.19992zm-3.2967-11.42c0.48788-0.36877 0.67124-0.55711 0.56109-0.57633-0.01592-3e-3 -0.24044 0.0587-0.49895 0.13681-0.2585 0.078-0.61901 0.15834-0.80113 0.17849-0.38245 0.0423-0.43717 0.13423-0.23716 0.39845 0.12637 0.16693 0.22351 0.24352 0.34737 0.27386 0.03524 8e-3 0.31811-0.17646 0.62878-0.41128zm2.3963-2.2135c0.81628-0.47115 0.85425-0.5246 0.76128-1.0714-0.10064-0.59194-0.23398-1.1069-0.28911-1.1165-0.02568-4e-3 -0.17043 0.30456-0.32165 0.68675-0.15122 0.38218-0.41946 0.95238-0.59609 1.2671-0.21642 0.38563-0.29851 0.57618-0.25173 0.58434 0.03817 7e-3 0.35196-0.15098 0.6973-0.3503z" fill="#fff"/>
<path d="m30.35 281.94 1.3645 8.7813c0.12269 0.78956-0.41418 1.524-1.2037 1.6467l-22.674 3.5232c-0.78957 0.12269-1.524-0.41418-1.6467-1.2038l-1.3645-8.7813z" fill-opacity=".14068" style="paint-order:fill markers stroke"/>
<path d="m30.403 282.28 1.3645 8.7813c0.12269 0.78956-0.41418 1.524-1.2037 1.6467l-22.674 3.5232c-0.78957 0.12269-1.524-0.41419-1.6467-1.2038l-1.3645-8.7813z" fill="url(#linearGradient1029)" style="paint-order:fill markers stroke"/>
<path d="m7.8903 296.23c-0.78957 0.12269-1.5239-0.41414-1.6466-1.2037l-0.092528-0.59546c0.12269 0.78956 0.85705 1.3264 1.6466 1.2037l22.674-3.5232c0.78957-0.12269 1.3265-0.85707 1.2038-1.6466l0.09253 0.59546c0.12269 0.78957-0.41427 1.524-1.2038 1.6466z" fill-opacity=".068441" style="paint-order:fill markers stroke"/>
<path d="m15.701 287.21 0.83834 5.3952 4.2533-3.4236zm-5.3362 2.0441-3.0149 2.4268 3.6091 1.3975-0.15981-1.0285 1.9413 0.75165-0.59425-3.8243-1.6217 1.3053zm13.414-2.0844 0.59425 3.8243 1.6217-1.3053 0.15981 1.0285 3.0149-2.4268-3.6091-1.3975 0.15981 1.0285z" fill="#4d4d4d" style="paint-order:fill markers stroke"/>
<path d="m4.8792 286.25 0.035228 0.22671 25.524-3.9662-0.03523-0.22671z" fill="#fff" fill-opacity=".053232" style="paint-order:fill markers stroke"/>
<path d="m15.701 287.21 0.83834 5.3952 4.2533-3.4236z" fill="#2f94f6" style="paint-order:fill markers stroke"/>
</g>
</svg>
