<svg width="136.53" height="136.53" version="1.1" viewBox="0 0 136.53 136.53" xmlns="http://www.w3.org/2000/svg" xmlns:xlink="http://www.w3.org/1999/xlink">
<defs>
<linearGradient id="linearGradient4186" x1="30.858" x2="116.88" y1="16.587" y2="116.38" gradientUnits="userSpaceOnUse">
<stop stop-color="#f5f5f5" offset="0"/>
<stop stop-color="#ebeae6" offset="1"/>
</linearGradient>
<linearGradient id="linearGradient4319" x1="66.281" x2="64.944" y1="128.62" y2="16.578" gradientUnits="userSpaceOnUse">
<stop stop-color="#df7a0a" offset="0"/>
<stop stop-color="#f4b84e" offset="1"/>
</linearGradient>
<clipPath>
<rect width="384" height="384"/>
</clipPath>
<clipPath>
<rect width="384" height="384"/>
</clipPath>
<clipPath>
<rect width="384" height="384"/>
</clipPath>
<clipPath>
<rect width="384" height="384"/>
</clipPath>
<clipPath>
<rect width="384" height="384"/>
</clipPath>
</defs>
<circle cx="68.953" cy="68.366" r="64.022" fill="url(#linearGradient4319)" stroke="url(#linearGradient4186)" stroke-width="6"/>
<path d="m67.266 31.332c-2.6546 0-3.555 0.07702-5.5154 0.47444-4.6736 0.94581-7.5942 2.3987-10.336 5.1396-2.3979 2.3969-3.5853 4.5106-4.3894 7.8153-0.3091 1.2693-0.30988 1.3894-0.01926 1.8331 0.40975 0.62438 0.83362 0.767 3.0015 1.0094 0.99921 0.11091 2.7082 0.3276 3.7967 0.48061 1.0886 0.15301 2.4224 0.27727 2.9626 0.27727 0.84004 0 1.0404-0.07188 1.3721-0.49293 0.2136-0.27214 0.50641-0.89241 0.65121-1.3802 0.38408-1.2919 0.79485-2.0036 1.7407-3.0161 1.5599-1.6667 3.5386-2.4912 5.9683-2.4851 1.6873 0.0042 2.8406 0.34903 4.151 1.2404 1.7735 1.2087 2.4739 3.1919 2.4739 7.0131 0 2.8118-0.02786 2.8618-1.5323 2.8659-1.1471 0.0032-6.8618 0.66148-8.8581 1.0209-8.0861 1.4552-13.268 4.5998-15.709 9.5301-1.3966 2.8189-1.6721 4.1384-1.669 7.9751 0.0032 3.0182 0.04221 3.4033 0.50641 4.9232 0.61719 2.0169 1.1358 3.0622 2.2675 4.5677 1.6359 2.1751 4.5216 3.9098 7.5819 4.5558 3.1024 0.65416 8.4136 0.25866 11.188-0.83298 2.2767-0.8955 4.8307-2.6576 6.7778-4.6755 0.45802-0.47649 0.93567-0.8657 1.061-0.8657 0.12426 0 0.77932 0.75364 1.4561 1.6748 0.67573 0.92117 1.8775 2.3107 2.6703 3.0881 1.3853 1.3586 1.4744 1.4129 2.3299 1.4129 0.80718 0 1.0169-0.10256 2.2575-1.1079 3.0521-2.4718 6.4225-5.565 6.593-6.0507 0.23004-0.65416-0.06085-1.2785-1.4595-3.1363-0.58022-0.77123-1.3278-2.0336-1.6606-2.8059l-0.60692-1.4025-0.11168-12.259c-0.072915-7.8951-0.19204-12.813-0.33581-13.817-0.47137-3.2913-1.4521-5.4479-3.3766-7.4279-3.3191-3.4156-8.4345-5.1427-15.228-5.1427zm5.7634 27.978 0.05237 3.1702c0.06676 4.1355-0.20872 5.6966-1.4626 8.2824-1.373 2.8313-3.0757 4.3736-5.5362 5.0144-2.0559 0.53503-3.6926 0.14685-5.2043-1.2354-1.3812-1.2621-1.9792-2.6513-2.1096-4.9024-0.24852-4.3019 1.3034-7.0951 4.9193-8.8543 2.0878-1.0156 3.8877-1.3792 7.0959-1.4357zm27.625 24.635c-2.0503-0.0078-4.3515 0.24973-5.7939 0.74594-1.2796 0.44056-2.9474 1.3585-3.6304 1.9983-0.63875 0.59871-0.71179 1.673-0.14904 2.1824 0.40667 0.36765 0.97059 0.3584 5.1554-0.09242 2.4092-0.25981 3.8387-0.15212 4.3162 0.32541 0.44363 0.44364 0.21038 1.7109-0.96546 5.259-0.55661 1.678-1.0113 3.2575-1.0113 3.5091 0 0.25159 0.16816 0.62643 0.37354 0.83182 0.24134 0.24133 0.62465 0.37508 1.0745 0.37508 0.6213 0 0.84003-0.1471 1.9563-1.3086 2.3435-2.438 3.9062-6.3936 3.9596-10.021 0.0328-2.2192-0.19383-2.7233-1.4796-3.2922-0.76828-0.34012-2.2113-0.50686-3.806-0.51296zm-67.293 2.7935c-0.38999-6e-3 -0.65814 0.15519-0.95044 0.44787-0.50217 0.50218-0.58946 1.2568-0.21874 1.9028 0.2475 0.43235 3.1784 2.9639 5.8412 5.0445 8.4949 6.6381 15.882 10.074 23.674 11.01 9.2969 1.1163 20.835-1.4621 30.122-6.7324 2.6269-1.4911 4.9532-3.1098 5.3599-3.7301 0.47856-0.73015 0.38613-1.7222-0.21874-2.3537-0.92631-0.96737-1.3733-0.91899-5.0764 0.5403-6.4553 2.5427-11.181 3.8406-17.648 4.845-3.1219 0.48473-11.292 0.48087-13.943-7e-3 -6.9637-1.2816-13.318-3.8378-23.299-9.3699-2.0045-1.111-2.9931-1.5868-3.6431-1.597z" fill="#fff" stroke-width=".2629"/>
</svg>
