<svg width="136.53" height="136.53" version="1.1" viewBox="0 0 136.53 136.53" xmlns="http://www.w3.org/2000/svg" xmlns:xlink="http://www.w3.org/1999/xlink">
<defs>
<linearGradient id="linearGradient859" x1="73.909" x2="79.909" y1="8.694" y2="137.96" gradientUnits="userSpaceOnUse">
<stop stop-color="#f1f1f1" offset="0"/>
<stop stop-color="#d9dad9" offset="1"/>
</linearGradient>
<linearGradient id="linearGradient867" x1="69.849" x2="72.163" y1="15.805" y2="128.54" gradientTransform="matrix(.20207 0 0 .20207 29.315 30.434)" gradientUnits="userSpaceOnUse">
<stop stop-color="#3295eb" offset="0"/>
<stop stop-color="#2570ef" offset="1"/>
</linearGradient>
<clipPath>
<rect width="384" height="384"/>
</clipPath>
<clipPath>
<rect width="384" height="384"/>
</clipPath>
</defs>
<filter x="-.069933" y="-.054406" width="1.1399" height="1.1088" color-interpolation-filters="sRGB">
<feGaussianBlur stdDeviation="1.9764485"/>
</filter>
<path d="m68.113 2.2168c-36.979 0-67.021 30.042-67.021 67.021 0 36.979 30.042 67.021 67.021 67.021 36.979 0 67.021-30.042 67.021-67.021 0-36.979-30.042-67.021-67.021-67.021z" color="#000000" color-rendering="auto" dominant-baseline="auto" fill="url(#linearGradient859)" image-rendering="auto" shape-rendering="auto" solid-color="#000000" style="font-feature-settings:normal;font-variant-alternates:normal;font-variant-caps:normal;font-variant-ligatures:normal;font-variant-numeric:normal;font-variant-position:normal;isolation:auto;mix-blend-mode:normal;shape-padding:0;text-decoration-color:#000000;text-decoration-line:none;text-decoration-style:solid;text-indent:0;text-orientation:mixed;text-transform:none;white-space:normal"/>
<path d="m68.113 8.7812c-33.39-2.971e-4 -60.457 27.067-60.457 60.457-2.96e-4 33.39 27.067 60.457 60.457 60.457 33.39 3e-4 60.457-27.067 60.457-60.457 3e-4 -33.39-27.067-60.457-60.457-60.457z" fill="url(#linearGradient867)" style="paint-order:fill markers stroke"/>
<path d="m61.746 103.15c-7.611-0.77831-12.91-2.9561-16.827-6.9108-1.5834-1.5984-2.6578-3.0674-3.5505-4.8545-1.8913-3.7802-2.4833-8.0325-1.5582-11.178 0.92039-3.1274 3.0138-6.5761 5.9604-9.8204 1.6363-1.7989 2.4644-2.968 3.2214-4.437 0.91249-1.7705 1.0112-2.9561 0.9346-4.6004-0.07499-1.5953-0.41678-2.2812-1.2922-3.009-0.82882-0.68595-1.1714-1.0672-3.7376-0.94328-2.5046 0.1192-3.7329-0.03398-4.9295-0.61096-0.92749-0.44835-1.2567-0.95511-0.96933-1.4958 1.4919-1.1635 2.0144-2.4359 3.6539-3.0287-2.3988-2.046-4.7677-4.1867-4.8498-7.2431 0.16892-1.6371 1.6837-1.2432 1.6837-1.2432 2.3752 0.48151 4.8301 0.96538 7.0671 1.0404 0.64332-0.08683 1.3214-0.25812 1.5069-0.38126 0.1855-0.12235 0.69147-0.84776 1.124-1.6119 1.6861-2.9782 3.4716-4.9019 5.4726-5.8933 2.3049-1.1422 5.5665-1.7539 8.6616-1.6229 3.7218 0.15629 6.8824 1.4437 9.4636 3.8528 1.7745 1.6553 2.949 2.0697 4.6367 1.6348 1.1872-0.30627 1.214-0.30469 1.214 0.06789 0 0.4894-0.39073 1.1233-0.98985 1.6071l-0.55255 0.44598 0.55649 0.33074c0.76725 0.45546 0.67648 0.82172-0.23601 0.95275-0.76015 0.10972-1.3301 0.36152-1.3301 0.58886 0 0.07973 0.10893 0.77436 0.24233 1.5432 0.32758 1.8858 0.21076 5.5397-0.23365 7.3426-0.68911 2.7959-1.7342 4.7653-3.5166 6.6345-1.3869 1.2614-5.3052 3.8481-5.6715 4.0786 0.17208 0 1.6726-0.08762 2.6775 8.13e-4 3.6784 0.32601 6.2398 0.94643 9.934 2.6672 3.4889 1.6261 4.9714 1.8013 6.9021 0.81619 1.2322-0.62832 2.9956-1.9686 4.3138-3.7455 1.1272-1.5179 1.7989-2.1628 2.8464-2.1628 1.0262 0 1.7626 0.67648 2.5394 1.8613 1.0996 1.6782 1.6987 2.8764 2.1257 5.7994 0.30469 2.0894 0.21944 6.9929-0.15866 9.076-2.2583 12.447-10.202 20.826-22.328 23.555-3.2727 0.73646-4.5917 0.86907-9.1273 0.91644-2.3531 0.0245-4.5483 0.0166-4.8782-0.0174z" fill="#fff" stroke-width=".20207"/>
</svg>
