<svg width="136.53" height="136.53" version="1.1" viewBox="0 0 136.53 136.53" xmlns="http://www.w3.org/2000/svg" xmlns:xlink="http://www.w3.org/1999/xlink">
<defs>
<linearGradient id="linearGradient859" x1="73.909" x2="79.909" y1="8.694" y2="137.96" gradientUnits="userSpaceOnUse">
<stop stop-color="#f1f1f1" offset="0"/>
<stop stop-color="#d9dad9" offset="1"/>
</linearGradient>
<linearGradient id="linearGradient867" x1="68.113" x2="68.113" y1="119.15" y2="8.7812" gradientUnits="userSpaceOnUse">
<stop stop-color="#0070c4" offset="0"/>
<stop stop-color="#26d0ea" offset="1"/>
</linearGradient>
</defs>
<filter x="-.069933" y="-.054406" width="1.1399" height="1.1088" color-interpolation-filters="sRGB">
<feGaussianBlur stdDeviation="1.9764485"/>
</filter>
<path d="m68.113 2.2168c-36.979 0-67.021 30.042-67.021 67.021 0 36.979 30.042 67.021 67.021 67.021 36.979 0 67.021-30.042 67.021-67.021 0-36.979-30.042-67.021-67.021-67.021z" color="#000000" color-rendering="auto" dominant-baseline="auto" fill="url(#linearGradient859)" image-rendering="auto" shape-rendering="auto" solid-color="#000000" style="font-feature-settings:normal;font-variant-alternates:normal;font-variant-caps:normal;font-variant-ligatures:normal;font-variant-numeric:normal;font-variant-position:normal;isolation:auto;mix-blend-mode:normal;shape-padding:0;text-decoration-color:#000000;text-decoration-line:none;text-decoration-style:solid;text-indent:0;text-orientation:mixed;text-transform:none;white-space:normal"/>
<path d="m68.113 8.7812c-33.39-2.971e-4 -60.457 27.067-60.457 60.457-2.96e-4 33.39 27.067 60.457 60.457 60.457 33.39 3e-4 60.457-27.067 60.457-60.457 3e-4 -33.39-27.067-60.457-60.457-60.457z" fill="url(#linearGradient867)" style="paint-order:fill markers stroke"/>
<path d="m100.18 62.358c0-0.95096-0.71912-1.5419-2.1593-1.7732l-19.349-2.8136-8.6727-17.538c-0.48778-1.0536-1.118-1.5802-1.8887-1.5802-0.77071 0-1.4004 0.52658-1.8887 1.5802l-8.6731 17.538-19.35 2.8136c-1.4387 0.23135-2.1583 0.82227-2.1583 1.7732 0 0.53983 0.32124 1.1568 0.96374 1.8504l14.031 13.645-3.3146 19.273c-0.05157 0.36004-0.07713 0.61742-0.07713 0.77118 0 0.53982 0.13484 0.99544 0.40451 1.3687 0.26968 0.37282 0.67419 0.55875 1.214 0.55875 0.4627 0 0.97651-0.15328 1.5419-0.46223l17.307-9.0975 17.308 9.0975c0.5403 0.30847 1.0541 0.46223 1.5414 0.46223 0.51522 0 0.90649-0.18547 1.1762-0.55875 0.2692-0.37281 0.40404-0.82889 0.40404-1.3687 0-0.33402-0.0127-0.59092-0.0388-0.77118l-3.3151-19.273 13.992-13.645c0.66898-0.66804 1.0025-1.285 1.0025-1.8504z" fill="#fff" stroke-width=".62329"/>
</svg>
