<svg width="128" height="128" version="1.1" viewBox="0 0 128 128" xmlns="http://www.w3.org/2000/svg" xmlns:xlink="http://www.w3.org/1999/xlink">
<defs>
<linearGradient id="linearGradient825" x1="-741.83" x2="-741.83" y1="959.05" y2="93.836" gradientTransform="matrix(.13668 0 0 .13668 162.31 -5.9893)" gradientUnits="userSpaceOnUse">
<stop stop-color="#2fbe50" offset="0"/>
<stop stop-color="#70e873" offset="1"/>
</linearGradient>
<linearGradient id="linearGradient835" x1="-738.76" x2="-738.76" y1="931.43" y2="152.13" gradientTransform="matrix(.13668 0 0 .13668 161.84 -5.9893)" gradientUnits="userSpaceOnUse">
<stop stop-color="#33d655" offset="0"/>
<stop stop-color="#70e873" offset="1"/>
</linearGradient>
</defs>
<circle cx="63.592" cy="64.286" r="61.38" fill="url(#linearGradient825)"/>
<circle cx="63.12" cy="64.286" r="55.09" fill="url(#linearGradient835)"/>
<path d="m32.258 28.752a1.5 1.5 0 0 0-0.54492 0.21484 1.5 1.5 0 0 0-0.44922 2.0742l5.0586 7.8633c-4.3057 3.9024-7.0195 9.5269-7.0195 15.822v0.33594h42.719v-0.33594c0-6.2954-2.7138-11.92-7.0195-15.822l5.0586-7.8633a1.5 1.5 0 0 0-0.44922-2.0742 1.5 1.5 0 0 0-0.54492-0.21289 1.5 1.5 0 0 0-0.58398 0.0098 1.5 1.5 0 0 0-0.94336 0.6543l-4.8945 7.6074c-3.4131-2.3095-7.5336-3.6582-11.982-3.6582-4.4479 0-8.5698 1.3476-11.982 3.6562l-4.8926-7.6055a1.5 1.5 0 0 0-0.94336-0.6543 1.5 1.5 0 0 0-0.58594-0.01172zm8.2129 13.93a3.1237 3.1237 0 0 1 3.123 3.125 3.1237 3.1237 0 0 1-3.123 3.123 3.1237 3.1237 0 0 1-3.125-3.123 3.1237 3.1237 0 0 1 3.125-3.125zm20.385 0a3.1237 3.1237 0 0 1 3.123 3.125 3.1237 3.1237 0 0 1-3.123 3.123 3.1237 3.1237 0 0 1-3.123-3.123 3.1237 3.1237 0 0 1 3.123-3.125zm-31.553 16.596v28.551c0 6.6577 5.3598 12.018 12.018 12.018h18.682c6.6419-2e-5 11.992-5.335 12.018-11.971h-5.1582c-0.2675-1.8647 1.0978-2.9358 1.1152-4.8633 2e-3 -0.0085 0.0039-0.01689 0.0059-0.02539-9.5e-4 -0.0072-0.0013-0.01428-2e-3 -0.02148-0.01182-1.8073-1.4797-3.2666-3.2871-3.2676-1.8066 0.0021-3.2734 1.461-3.2852 3.2676v2e-3c-1e-3 0.0065-0.0029 0.01303-0.0039 0.01953 3e-3 0.01369 0.0048 0.02737 0.0078 0.04102 0.02294 1.9172 1.2279 2.9881 0.93945 4.8477h-5.7559c-1.9841 0-3.582-1.5979-3.582-3.582v-4.8809c-1.6135-0.02609-2.658 1.148-4.4355 1.1641-0.0085 2e-3 -0.01739 0.0039-0.02539 0.0059-0.0072-1e-3 -0.01449-0.0013-0.02149-2e-3 -1.8073-0.01182-3.2666-1.4797-3.2676-3.2871 0.0021-1.8066 1.461-3.2734 3.2676-3.2852h2e-3c0.0065-9.99e-4 0.01253-0.0029 0.01953-0.0039 0.0137 3e-3 0.02741 0.0048 0.04101 0.0078 1.7676 0.02115 2.8113 1.0573 4.4199 0.99414v-4.7148c0-1.9841 1.5979-3.5801 3.582-3.5801h5.7598c0.27579 1.8464-0.92051 2.9163-0.94336 4.8262-3e-3 0.01365-0.0048 0.02733-0.0078 0.04102 1e-3 0.0065 0.0029 0.01303 0.0039 0.01953v2e-3c0.0118 1.8066 1.4785 3.2655 3.2852 3.2676 1.8074-1e-3 3.2753-1.4602 3.2871-3.2676 6e-4 -0.0072 9.53e-4 -0.01428 2e-3 -0.02148-2e-3 -0.0085-0.0039-0.01689-0.0059-0.02539-0.01732-1.9201-1.3731-2.9904-1.1191-4.8418h5.1641v-7.4336z" fill="#fff"/>
<g transform="translate(-1.9676)" fill="none" stroke-linecap="round" stroke-width="3">
<path d="m74.241 38.898 7.0686-10.989" color="#000000"/>
<path d="m52.103 38.898-7.0686-10.989" color="#000000"/>
</g>
<path d="m82.194 65.938c-1.9841 0-3.582 1.5959-3.582 3.5801v4.7148c-1.6086 0.0632-2.6524-0.97299-4.4199-0.99414-0.0136-3e-3 -0.0273-0.0048-0.041-0.0078-7e-3 1e-3 -0.013 0.0029-0.0195 0.0039h-2e-3c-1.8066 0.0118-3.2655 1.4785-3.2676 3.2852 1e-3 1.8074 1.4602 3.2753 3.2676 3.2871 7e-3 6.7e-4 0.0143 9.53e-4 0.0215 2e-3 8e-3 -2e-3 0.0169-0.0039 0.0254-0.0059 1.7776-0.01604 2.822-1.1902 4.4355-1.1641v4.8809c0 1.9841 1.5979 3.582 3.582 3.582h5.7559c0.2884-1.8596-0.91651-2.9305-0.93945-4.8477-3e-3 -0.01365-5e-3 -0.02733-8e-3 -0.04102 1e-3 -0.0065 3e-3 -0.01302 4e-3 -0.01953v-2e-3c0.0118-1.8066 1.4786-3.2655 3.2852-3.2676 1.8074 1e-3 3.2753 1.4602 3.2871 3.2676 6.7e-4 0.0072 9.5e-4 0.01432 2e-3 0.02148-2e-3 0.0085-4e-3 0.01693-6e-3 0.02539-0.0174 1.9275-1.3827 2.9986-1.1152 4.8633h5.9316c1.9841 0 3.582-1.5979 3.582-3.582v-14.002c0-1.9841-1.5979-3.5801-3.582-3.5801h-5.9356c-0.25391 1.8514 1.1018 2.9217 1.1191 4.8418 2e-3 0.0085 4e-3 0.01689 6e-3 0.02539-1e-3 0.0072-1e-3 0.01428-2e-3 0.02148-0.0118 1.8073-1.4797 3.2666-3.2871 3.2676-1.8066-0.0021-3.2734-1.461-3.2852-3.2676v-2e-3c-1e-3 -0.0065-3e-3 -0.01303-4e-3 -0.01953 3e-3 -0.01369 5e-3 -0.02737 8e-3 -0.04102 0.0228-1.9098 1.2192-2.9798 0.94336-4.8262z" fill="#fff"/>
</svg>
