<svg width="128" height="128" version="1.1" viewBox="0 0 33.867 33.867" xmlns="http://www.w3.org/2000/svg">
<g transform="translate(0 -263.13)">
<path d="m2.014 267.62 4.58 29.041 23.476-3.7127-4.5988-28.974z" fill-rule="evenodd" opacity=".25"/>
<path d="m2.014 267.17 4.58 29.041 23.476-3.7127-4.5988-28.974z" fill="#fff" fill-rule="evenodd" stroke="#999" stroke-width=".3"/>
<path d="m3.1947 268.03 4.2628 27.03 21.432-3.4277-4.3353-26.96z" fill="#d3e0e5" fill-rule="evenodd"/>
<g transform="matrix(.19821 0 0 .19828 -.20004 257.86)" opacity=".25" stroke-width="4.0602">
<path d="m71.662 195.54 0.66146-2.8821 3.4608-12.662 0.82682-2.575c9.0744-15.709 17.31-30.859 27.223-47.127 0 0 0.92165-1.2552 1.6203-1.4366 1.3067-0.33915 2.7615 0.2419 3.9545 0.87372 1.523 0.80663 3.1794 1.338 3.7594 3.5495 0.12839 0.55767 0.11812 1.3111-0.11811 1.7127-0.23624 0.4016-26.895 46.775-26.895 46.775s-2.2442 3.1183-2.5041 3.2128c-0.25986 0.0945-11.02 10.796-11.02 10.796s-0.40069 0.19706-0.59717 0.1404c-0.16941-0.0488-0.37139-0.37664-0.37139-0.37664z"/>
<path transform="scale(.26458)" d="m273.18 728.88s-0.83406 2.5996-1.1533 3.9256c-0.49524 2.0569-1.4742 5.1952-1.1787 6.2366 0.18195 0.6413 0.76399 1.2394 1.4043 1.4238 0.7426 0.21415 1.6608-0.04 2.2578-0.53125 0.92316-0.75959 2.2085-2.1698 3.3091-3.2584 2.3201-2.2948 4.7109-4.6838 6.9448-6.8998-1.8304-0.0333-4.4334 0.50228-6.6379 0.29023-1.6877-0.16233-3.6664-1.0545-4.946-1.1867z"/>
<rect x="68.177" y="151.81" width="94.188" height="14.919" ry="0" opacity="1"/>
<g transform="translate(129.55 -20.076)" fill-rule="evenodd" stroke-width="4.0602">
<rect x="-60.483" y="171.89" width=".54345" height="5.5325" ry="0" opacity="1"/>
<rect x="-58.555" y="171.89" width=".54345" height="1.9291" ry="0" opacity="1"/>
<rect x="-56.666" y="171.89" width=".54345" height="3.0756" ry="0" opacity="1"/>
<rect x="-54.741" y="171.89" width=".54345" height="1.9921" ry="0" opacity="1"/>
<rect x="-52.877" y="171.89" width=".54345" height="4.0332" ry="0" opacity="1"/>
<rect x="-50.911" y="171.89" width=".54345" height="1.8409" ry="0" opacity="1"/>
<rect x="-49.072" y="171.89" width=".54345" height="3.0504" ry="0" opacity="1"/>
<rect x="-47.081" y="171.89" width=".54345" height="1.9417" ry="0" opacity="1"/>
<rect x="-45.263" y="171.89" width=".54345" height="5.5325" ry="0" opacity="1"/>
<rect x="-43.336" y="171.89" width=".54345" height="1.9291" ry="0" opacity="1"/>
<rect x="-41.446" y="171.89" width=".54345" height="3.0756" ry="0" opacity="1"/>
<rect x="-39.521" y="171.89" width=".54345" height="1.9921" ry="0" opacity="1"/>
<rect x="-37.657" y="171.89" width=".54345" height="4.0332" ry="0" opacity="1"/>
<rect x="-35.691" y="171.89" width=".54345" height="1.8409" ry="0" opacity="1"/>
<rect x="-33.852" y="171.89" width=".54345" height="3.0504" ry="0" opacity="1"/>
<rect x="-31.861" y="171.89" width=".54345" height="1.9417" ry="0" opacity="1"/>
<rect x="-29.842" y="171.89" width=".54345" height="5.5325" ry="0" opacity="1"/>
<rect x="-27.914" y="171.89" width=".54345" height="1.9291" ry="0" opacity="1"/>
<rect x="-26.024" y="171.89" width=".54345" height="3.0756" ry="0" opacity="1"/>
<rect x="-24.1" y="171.89" width=".54345" height="1.9921" ry="0" opacity="1"/>
<rect x="-22.235" y="171.89" width=".54345" height="4.0332" ry="0" opacity="1"/>
<rect x="-20.27" y="171.89" width=".54345" height="1.8409" ry="0" opacity="1"/>
<rect x="-18.43" y="171.89" width=".54345" height="3.0504" ry="0" opacity="1"/>
<rect x="-16.44" y="171.89" width=".54345" height="1.9417" ry="0" opacity="1"/>
<rect x="-14.672" y="171.89" width=".54345" height="5.5325" ry="0" opacity="1"/>
<rect x="-12.745" y="171.89" width=".54345" height="1.9291" ry="0" opacity="1"/>
<rect x="-10.855" y="171.89" width=".54345" height="3.0756" ry="0" opacity="1"/>
<rect x="-8.9305" y="171.89" width=".54345" height="1.9921" ry="0" opacity="1"/>
<rect x="-7.0658" y="171.89" width=".54345" height="4.0332" ry="0" opacity="1"/>
<rect x="-5.1003" y="171.89" width=".54345" height="1.8409" ry="0" opacity="1"/>
<rect x="-3.2608" y="171.89" width=".54345" height="3.0504" ry="0" opacity="1"/>
<rect x="-1.2702" y="171.89" width=".54345" height="1.9417" ry="0" opacity="1"/>
<rect x=".84984" y="171.89" width=".54345" height="5.5325" ry="0" opacity="1"/>
<rect x="2.7775" y="171.89" width=".54345" height="1.9291" ry="0" opacity="1"/>
<rect x="4.6674" y="171.89" width=".54345" height="3.0756" ry="0" opacity="1"/>
<rect x="6.5917" y="171.89" width=".54345" height="1.9921" ry="0" opacity="1"/>
<rect x="8.4564" y="171.89" width=".54345" height="4.0332" ry="0" opacity="1"/>
<rect x="10.422" y="171.89" width=".54345" height="1.8409" ry="0" opacity="1"/>
<rect x="12.261" y="171.89" width=".54345" height="3.0504" ry="0" opacity="1"/>
<rect x="14.252" y="171.89" width=".54345" height="1.9417" ry="0" opacity="1"/>
<rect x="15.969" y="171.89" width=".54345" height="5.5325" ry="0" opacity="1"/>
<rect x="17.897" y="171.89" width=".54345" height="1.9291" ry="0" opacity="1"/>
<rect x="19.786" y="171.89" width=".54345" height="3.0756" ry="0" opacity="1"/>
<rect x="21.711" y="171.89" width=".54345" height="1.9921" ry="0" opacity="1"/>
<rect x="23.575" y="171.89" width=".54345" height="4.0332" ry="0" opacity="1"/>
<rect x="25.541" y="171.89" width=".54345" height="1.8409" ry="0" opacity="1"/>
<rect x="27.38" y="171.89" width=".54345" height="3.0504" ry="0" opacity="1"/>
<rect x="29.371" y="171.89" width=".54345" height="1.9417" ry="0" opacity="1"/>
<rect x="31.39" y="171.89" width=".54345" height="5.5325" ry="0" opacity="1"/>
</g>
<path transform="scale(.28222)" d="m241.57 559.41v31.361h333.74v-31.361z" opacity="1"/>
<path transform="scale(.26458)" d="m376.85 518.39c-30.764 51.832-57.868 101.22-87.293 152.16l-2.8496 8.875c3.8081-0.50915 8.457-1.1355 9.0547-1.1953 0.89286-0.0892 0.25064 7.3977 1.832 10.625 1.9298 3.9382 5.908 3.3728 9.1074 2.6777 2.6924-0.58496 6.6959-3.6602 7.4102-3.6602 0.71429 0 1.1596 5.7151 2.9453 7.9473 0.34629 0.43285 0.80888 0.69391 1.3262 0.83984 2.8273-3.5468 7.2461-9.6797 7.2461-9.6797s66.72-116.05 87.791-152.68z"/>
<path transform="scale(.26458)" d="m402.68 536.63c-28.364 50.993-60.422 100.27-88.57 151.25 0.71429 0 1.1596 5.7151 2.9453 7.9473 0.34629 0.43285 0.80888 0.69391 1.3262 0.83984 2.8273-3.5468 7.2461-9.6797 7.2461-9.6797s62.458-108.64 85.336-148.41z"/>
<path transform="scale(.26458)" d="m376.78 518.5c-30.738 51.792-57.824 101.15-87.229 152.05l-2.8496 8.875c3.7679-0.50378 8.2835-1.1127 8.959-1.1836l89.125-154.37z"/>
<path d="m109.71 121.9 32.178 55.14s3.1687-2.1426 4.8446-3.0582c1.3593-0.74261 4.2102-1.9664 4.2102-1.9664l-31.027-53.898c-0.76755-1.4962-2.0041-3.2899-3.6383-3.4698-2.1669-0.16107-4.4158 1.1001-5.9693 2.6194-0.69858 0.68314-1.1775 1.682-1.2375 2.6572-0.0425 0.69095 0.63951 1.9759 0.63951 1.9759z" opacity="1"/>
<path transform="scale(.28222)" d="m410.55 406.19c-5.2533 0.0294-10.559 2.2847-15.049 5.4531l109.57 185.14 14.633-13.535-94.82-164.71c-2.7197-5.3016-7.1002-11.657-12.891-12.295-0.47988-0.0357-0.96189-0.0515-1.4434-0.0488z" opacity="1"/>
<path transform="scale(.26458)" d="m398.57 487.01c-2.4812 1.1348-3.75 1.5321-6.125 5.4297-2.3894 3.9212-4.7515 7.8244-7.0918 11.713l33.795 20.186c1.2464-2.1656 8.0594-14.017 8.1309-14.139 0.89284-1.5179 1.4224-5.2841 0.51266-7.6848-1.8792-4.9587-6.6803-8.6044-11.313-11.185-5.3647-2.9881-13.661-5.5696-17.909-4.3199z"/>
<path transform="scale(.26458)" d="m385.37 503.99c-5.3565 8.8943-9.8888 16.538-15.03 25.288l35.005 19.136c4.9818-8.6627 11.74-20.359 13.865-24.051z"/>
<path transform="scale(.26458)" d="m545.79 607.25c-5.0959 2.8641-28.035 16.344-34.045 19.877 0 0 9.9666 18.714 15.417 27.802 2.9429 4.9068 7.4717 13.357 9.3231 14.412 6.2772 3.5777 11.833-8.3045 18.082-11.767 5.1375-2.8067 12.842-0.28388 15.735-5.3739 1.7699-3.1142-5.2249-12.233-8.3332-18.105-4.8883-9.234-16.179-26.846-16.179-26.846z" opacity="1"/>
<path transform="scale(.28222)" d="m511.68 569.3c-2.587 1.454-9.7691 5.6454-16.99 9.875l22.176 39.641c0.99922-0.93972 2.0106-1.7659 3.043-2.3379 4.8164-2.6313 12.04-0.26525 14.752-5.0371 1.6592-2.9195-4.8985-11.468-7.8125-16.973-4.5828-8.6568-15.168-25.168-15.168-25.168z" opacity="1"/>
<path d="m142.76 176.91c-0.69327 2.2291 0.49999 5.2931 1.6946 7.3674 2.0545 3.5674 5.9576 3.4524 9.2504 8.3939 0.66117 0.99225 0.46041 3.6945 1.5976 3.3359 1.4743-0.4649 2.3301-4.5185 2.5828-6.9894 0.37208-3.6381 0.074-7.6179-1.641-10.848-1.3185-2.4833-3.8587-5.1693-6.202-5.7169-1.1294 0.21326-3.0023 1.0378-4.333 1.879-1.1037 0.69772-2.2855 1.8351-2.9494 2.5779z"/>
<path transform="scale(.28222)" d="m351.66 488.62c-0.55631 0.94079-1.1266 1.905-1.6894 2.8594l32.178 18.938c0.62396-1.0832 0.97027-1.6848 1.6035-2.7832z"/>
<path transform="scale(.28222)" d="m359.56 475.36c-0.58137 0.96851-1.1389 1.9052-1.7051 2.8516l32.002 18.834c0.46246-0.8016 1.2424-2.1555 1.6055-2.7852z"/>
<path transform="scale(.28222)" d="m531.65 611.07c-4.0017 0.75565-10.638 3.6755-15.354 6.6562-3.1224 1.9739-2.6716 1.4761-5.072 3.9316 0.90763 2.8826 2.524 7.4879 3.6153 11.284 1.7242 5.9975 0.63425 13.09 4.6286 18.14 5.5339 6.9959 14.805 10.219 20.834 16.793 4.079 4.4482 5.039 17.083 10.994 18.061 2.7712 0.45519 4.589-4.4262 6.6638-6.8326 0.70446-3.2883 1.1973-6.5902 1.4785-9.3398 1.3184-12.891 0.26246-26.992-5.8145-38.438-4.6719-8.7991-13.672-18.316-21.975-20.256z"/>
</g>
<path d="m14.004 296.3 0.13111-0.57145 0.68598-2.5106 0.16388-0.51055c1.7986-3.1147 3.431-6.1186 5.3959-9.3442 0 0 0.18268-0.24888 0.32116-0.28483 0.259-0.0673 0.54736 0.048 0.78382 0.17324 0.30188 0.15993 0.6302 0.26529 0.74516 0.70377 0.02545 0.11057 0.02341 0.25996-0.02341 0.33958-0.04683 0.0796-5.331 9.2742-5.331 9.2742s-0.44483 0.61828-0.49634 0.63702c-0.05151 0.0187-2.1844 2.1406-2.1844 2.1406s-0.07942 0.0391-0.11837 0.0278c-0.03358-0.01-0.07361-0.0747-0.07361-0.0747z" fill="#e5c498"/>
<path d="m14.126 295.77s-0.04374 0.13637-0.06048 0.20593c-0.02597 0.1079-0.07731 0.27255-0.06182 0.32718 0.0095 0.0336 0.04007 0.065 0.07364 0.0747 0.03895 0.0112 0.0871-2e-3 0.11841-0.0279 0.04841-0.0399 0.11582-0.11383 0.17354-0.17094 0.12167-0.12039 0.24706-0.24571 0.36421-0.36197-0.09599-2e-3 -0.2325 0.0263-0.34812 0.0152-0.08851-9e-3 -0.19228-0.0553-0.25939-0.0623z" fill="#303133"/>
<rect x="13.313" y="287.63" width="18.669" height="2.958" ry="0" fill="#d2b387"/>
<g transform="matrix(.19821 0 0 .19828 25.477 253.55)" fill="#37322b" fill-rule="evenodd" stroke-width="4.0602">
<rect x="-60.483" y="171.89" width=".54345" height="5.5325" ry="0"/>
<rect x="-58.555" y="171.89" width=".54345" height="1.9291" ry="0"/>
<rect x="-56.666" y="171.89" width=".54345" height="3.0756" ry="0"/>
<rect x="-54.741" y="171.89" width=".54345" height="1.9921" ry="0"/>
<rect x="-52.877" y="171.89" width=".54345" height="4.0332" ry="0"/>
<rect x="-50.911" y="171.89" width=".54345" height="1.8409" ry="0"/>
<rect x="-49.072" y="171.89" width=".54345" height="3.0504" ry="0"/>
<rect x="-47.081" y="171.89" width=".54345" height="1.9417" ry="0"/>
<rect x="-45.263" y="171.89" width=".54345" height="5.5325" ry="0"/>
<rect x="-43.336" y="171.89" width=".54345" height="1.9291" ry="0"/>
<rect x="-41.446" y="171.89" width=".54345" height="3.0756" ry="0"/>
<rect x="-39.521" y="171.89" width=".54345" height="1.9921" ry="0"/>
<rect x="-37.657" y="171.89" width=".54345" height="4.0332" ry="0"/>
<rect x="-35.691" y="171.89" width=".54345" height="1.8409" ry="0"/>
<rect x="-33.852" y="171.89" width=".54345" height="3.0504" ry="0"/>
<rect x="-31.861" y="171.89" width=".54345" height="1.9417" ry="0"/>
<rect x="-29.842" y="171.89" width=".54345" height="5.5325" ry="0"/>
<rect x="-27.914" y="171.89" width=".54345" height="1.9291" ry="0"/>
<rect x="-26.024" y="171.89" width=".54345" height="3.0756" ry="0"/>
<rect x="-24.1" y="171.89" width=".54345" height="1.9921" ry="0"/>
<rect x="-22.235" y="171.89" width=".54345" height="4.0332" ry="0"/>
<rect x="-20.27" y="171.89" width=".54345" height="1.8409" ry="0"/>
<rect x="-18.43" y="171.89" width=".54345" height="3.0504" ry="0"/>
<rect x="-16.44" y="171.89" width=".54345" height="1.9417" ry="0"/>
<rect x="-14.672" y="171.89" width=".54345" height="5.5325" ry="0"/>
<rect x="-12.745" y="171.89" width=".54345" height="1.9291" ry="0"/>
<rect x="-10.855" y="171.89" width=".54345" height="3.0756" ry="0"/>
<rect x="-8.9305" y="171.89" width=".54345" height="1.9921" ry="0"/>
<rect x="-7.0658" y="171.89" width=".54345" height="4.0332" ry="0"/>
<rect x="-5.1003" y="171.89" width=".54345" height="1.8409" ry="0"/>
<rect x="-3.2608" y="171.89" width=".54345" height="3.0504" ry="0"/>
<rect x="-1.2702" y="171.89" width=".54345" height="1.9417" ry="0"/>
<rect x=".84984" y="171.89" width=".54345" height="5.5325" ry="0"/>
<rect x="2.7775" y="171.89" width=".54345" height="1.9291" ry="0"/>
<rect x="4.6674" y="171.89" width=".54345" height="3.0756" ry="0"/>
<rect x="6.5917" y="171.89" width=".54345" height="1.9921" ry="0"/>
<rect x="8.4564" y="171.89" width=".54345" height="4.0332" ry="0"/>
<rect x="10.422" y="171.89" width=".54345" height="1.8409" ry="0"/>
<rect x="12.261" y="171.89" width=".54345" height="3.0504" ry="0"/>
<rect x="14.252" y="171.89" width=".54345" height="1.9417" ry="0"/>
<rect x="15.969" y="171.89" width=".54345" height="5.5325" ry="0"/>
<rect x="17.897" y="171.89" width=".54345" height="1.9291" ry="0"/>
<rect x="19.786" y="171.89" width=".54345" height="3.0756" ry="0"/>
<rect x="21.711" y="171.89" width=".54345" height="1.9921" ry="0"/>
<rect x="23.575" y="171.89" width=".54345" height="4.0332" ry="0"/>
<rect x="25.541" y="171.89" width=".54345" height="1.8409" ry="0"/>
<rect x="27.38" y="171.89" width=".54345" height="3.0504" ry="0"/>
<rect x="29.371" y="171.89" width=".54345" height="1.9417" ry="0"/>
<rect x="31.39" y="171.89" width=".54345" height="5.5325" ry="0"/>
</g>
<path d="m13.314 288.83v1.7549h18.669v-1.7549z" fill="#be9f74"/>
<path d="m19.563 284.72c-1.6134 2.7191-3.0348 5.3102-4.5779 7.9825l-0.14944 0.46559c0.19971-0.0267 0.44351-0.0596 0.47486-0.0627 0.04682-5e-3 0.01314 0.38809 0.09608 0.55739 0.1012 0.2066 0.30984 0.17694 0.47762 0.14048 0.1412-0.0307 0.35115-0.19201 0.38861-0.19201 0.03746 0 0.06081 0.29981 0.15446 0.41691 0.01816 0.0227 0.04242 0.0364 0.06955 0.0441 0.14827-0.18607 0.38001-0.5078 0.38001-0.5078s3.499-6.088 4.6041-8.0096z" fill="#ffc72a"/>
<path d="m20.918 285.68c-1.4875 2.6751-3.1687 5.2603-4.6449 7.9346 0.03746 0 0.06081 0.29981 0.15446 0.41691 0.01816 0.0227 0.04242 0.0364 0.06955 0.0441 0.14827-0.18607 0.38001-0.5078 0.38001-0.5078s3.2755-5.699 4.4753-7.7856z" fill="#9a834c"/>
<path d="m19.56 284.73c-1.612 2.717-3.0325 5.3064-4.5746 7.9768l-0.14944 0.46559c0.1976-0.0264 0.43441-0.0584 0.46984-0.0621l4.674-8.0982z" fill="#e7ab1f"/>
<path d="m21.545 281.7 6.378 10.933s0.62807-0.42483 0.96025-0.60637c0.26943-0.14724 0.8345-0.38989 0.8345-0.38989l-6.1499-10.687c-0.15214-0.29667-0.39724-0.6523-0.72115-0.68798-0.42951-0.0319-0.87526 0.21813-1.1832 0.51935-0.13847 0.13545-0.2334 0.33349-0.24529 0.52686-0.0084 0.137 0.12676 0.39176 0.12676 0.39176z" fill="#a2381b"/>
<path d="m22.766 280.26c-0.29387 2e-3 -0.59066 0.12784-0.84182 0.30514l6.1293 10.36 0.81855-0.75739-5.3042-9.217c-0.15214-0.29667-0.39718-0.65232-0.7211-0.688-0.02684-2e-3 -0.05381-3e-3 -0.08074-3e-3z" fill="#bf4320"/>
<path d="m20.702 283.08c-0.13012 0.0595-0.19666 0.0804-0.32122 0.28484-0.12531 0.20571-0.24918 0.41047-0.37192 0.61446l1.7723 1.0589c0.06536-0.11361 0.42266-0.73535 0.42641-0.74172 0.04682-0.0796 0.0746-0.2772 0.02689-0.40315-0.09855-0.26013-0.35034-0.45138-0.59329-0.58675-0.28134-0.15676-0.7164-0.29218-0.93919-0.22662z" fill="#de6f9a"/>
<path d="m20.01 283.97c-0.28091 0.46659-0.5186 0.86757-0.7882 1.3266l1.8358 1.0039c0.26126-0.45445 0.61568-1.068 0.72713-1.2617z" fill="#7b9dc0"/>
<path d="m28.423 289.39c-0.26724 0.15025-1.4703 0.85739-1.7854 1.0428 0 0 0.52268 0.98176 0.80853 1.4585 0.15434 0.25741 0.39184 0.70071 0.48893 0.75607 0.3292 0.18768 0.62056-0.43566 0.94828-0.61731 0.26943-0.14724 0.6735-0.0149 0.8252-0.28192 0.09282-0.16337-0.27401-0.64175-0.43702-0.94977-0.25636-0.48442-0.84849-1.4083-0.84849-1.4083z" fill="#7b9dc0"/>
<path d="m28.423 289.39c-0.14472 0.0814-0.54648 0.3159-0.95042 0.55258l1.2405 2.2182c0.05589-0.0526 0.11247-0.0988 0.17022-0.13082 0.26943-0.14724 0.67351-0.0149 0.82522-0.28187 0.09282-0.16337-0.27402-0.64173-0.43703-0.94975-0.25636-0.48442-0.84849-1.4083-0.84849-1.4083z" fill="#93bbe5"/>
<path d="m28.097 292.61c-0.13741 0.44197 0.0991 1.0495 0.33589 1.4608 0.40722 0.70733 1.1809 0.68451 1.8335 1.6643 0.13105 0.19674 0.09126 0.73254 0.31666 0.66144 0.29223-0.0922 0.46186-0.89591 0.51194-1.3858 0.07375-0.72135 0.01467-1.5104-0.32527-2.1509-0.26134-0.49238-0.76484-1.025-1.2293-1.1335-0.22385 0.0423-0.59509 0.20577-0.85884 0.37257-0.21876 0.13834-0.45301 0.36386-0.5846 0.51114z" fill="#7e5727"/>
<path d="m19.472 284.87c-0.03112 0.0526-0.06302 0.1066-0.09451 0.16l1.8 1.0597c0.0349-0.0606 0.05428-0.0943 0.0897-0.15574z" fill="#6b88a6"/>
<path d="m19.914 284.13c-0.03252 0.0542-0.06371 0.10661-0.09538 0.15956l1.7902 1.0539c0.02587-0.0449 0.0695-0.12062 0.08981-0.15585z" fill="#6a88a6"/>
<path d="m29.54 291.72c-0.22385 0.0423-0.59511 0.20567-0.85887 0.37246-0.17466 0.11046-0.14945 0.0826-0.28372 0.22001 0.05077 0.1613 0.14119 0.41901 0.20224 0.63141 0.09645 0.33561 0.03548 0.73251 0.25892 1.0151 0.30956 0.39148 0.8282 0.5718 1.1654 0.9397 0.22817 0.2489 0.28188 0.95591 0.61502 1.0106 0.15502 0.0255 0.25671-0.24768 0.37277-0.38234 0.03941-0.184 0.06698-0.36876 0.08271-0.52263 0.07375-0.72136 0.01468-1.5104-0.32526-2.1509-0.26134-0.49238-0.7648-1.0249-1.2292-1.1335z" fill="#8c612b"/>
</g>
</svg>
