<svg width="128" height="128" version="1.1" viewBox="0 0 33.867 33.867" xmlns="http://www.w3.org/2000/svg" xmlns:xlink="http://www.w3.org/1999/xlink">
<defs>
<linearGradient id="linearGradient873">
<stop stop-color="#faffff" offset="0"/>
<stop stop-color="#d9d8dc" stop-opacity="0" offset="1"/>
</linearGradient>
<linearGradient id="linearGradient868">
<stop stop-color="#b4c156" stop-opacity="0" offset="0"/>
<stop stop-color="#f7ffff" offset="1"/>
</linearGradient>
<linearGradient id="linearGradient1016" x1="-.33073" x2="2.5513" y1="265.37" y2="280.06" gradientUnits="userSpaceOnUse">
<stop stop-color="#2aa3f9" offset="0"/>
<stop stop-color="#4ad0ee" offset="1"/>
</linearGradient>
<linearGradient id="linearGradient1026" x1=".66146" x2=".61421" y1="263.82" y2="269.34" gradientTransform="matrix(1 0 0 .81595 0 48.428)" gradientUnits="userSpaceOnUse">
<stop stop-color="#fff" offset="0"/>
<stop stop-color="#fff" stop-opacity="0" offset="1"/>
</linearGradient>
<linearGradient id="linearGradient1036" x1="-.94494" x2="-4.1485e-7" y1="263.57" y2="270.8" gradientUnits="userSpaceOnUse">
<stop stop-color="#5e7bf1" offset="0"/>
<stop stop-color="#5e7bf1" stop-opacity="0" offset="1"/>
</linearGradient>
<radialGradient id="radialGradient1050" cx="1.1103" cy="269.48" r="10.371" gradientUnits="userSpaceOnUse">
<stop stop-color="#5e7bf1" stop-opacity=".88333" offset="0"/>
<stop stop-color="#5e7bf1" stop-opacity="0" offset="1"/>
</radialGradient>
<linearGradient id="linearGradient1080" x1="1.1812" x2=".75595" y1="280.53" y2="266.83" gradientUnits="userSpaceOnUse">
<stop stop-color="#02bafd" offset="0"/>
<stop stop-color="#02bafd" stop-opacity="0" offset="1"/>
</linearGradient>
<linearGradient id="linearGradient1092" x1="-16.103" x2="-15.568" y1="300.61" y2="292.12" gradientUnits="userSpaceOnUse">
<stop stop-color="#5812d2" offset="0"/>
<stop stop-color="#9239ee" offset="1"/>
</linearGradient>
<radialGradient id="radialGradient1102" cx="-15.799" cy="297.12" r="3.2072" gradientTransform="matrix(3.7294 .092769 -.02746 1.1039 51.175 -30.932)" gradientUnits="userSpaceOnUse">
<stop stop-color="#7eeeee" stop-opacity=".02809" offset="0"/>
<stop stop-color="#7eeeee" stop-opacity=".92697" offset="1"/>
</radialGradient>
<linearGradient id="linearGradient1112" x1="-15.702" x2="-15.769" y1="296.8" y2="292.39" gradientUnits="userSpaceOnUse">
<stop stop-color="#b90fd2" offset="0"/>
<stop stop-color="#b90fd2" stop-opacity="0" offset="1"/>
</linearGradient>
<linearGradient id="linearGradient1126" x1="-16.638" x2="-16.37" y1="302.55" y2="299" gradientUnits="userSpaceOnUse">
<stop stop-color="#8615d3" offset="0"/>
<stop stop-color="#8615d3" stop-opacity="0" offset="1"/>
</linearGradient>
<radialGradient id="radialGradient870" cx="-31.188" cy="275.39" r="7.6186" gradientTransform="matrix(1.3842 -.12829 -.017808 .49328 16.318 129.38)" gradientUnits="userSpaceOnUse" xlink:href="#linearGradient868"/>
<radialGradient id="radialGradient875" cx="-31.242" cy="264.82" r="2.3978" gradientTransform="matrix(1 0 0 .53202 0 124.1)" gradientUnits="userSpaceOnUse" xlink:href="#linearGradient873"/>
<linearGradient id="linearGradient900" x1="-31.426" x2="-31.155" y1="264.03" y2="275.88" gradientUnits="userSpaceOnUse">
<stop stop-color="#fe0079" offset="0"/>
<stop stop-color="#fe574b" offset="1"/>
</linearGradient>
<linearGradient id="linearGradient928" x1="-31.123" x2="-30.98" y1="278.22" y2="274.45" gradientUnits="userSpaceOnUse">
<stop stop-color="#ffbe59" offset="0"/>
<stop stop-color="#ffbe59" stop-opacity="0" offset="1"/>
</linearGradient>
</defs>
<g transform="translate(0 -263.13)">
<ellipse cx="-15.702" cy="296" r="5.1449" fill="url(#linearGradient1112)" stroke-width=".27908"/>
<ellipse cx="-15.702" cy="296" r="5.1449" fill="url(#linearGradient1112)" stroke-width=".27908"/>
<g transform="matrix(1.1925 0 0 1.1925 59.987 -49.18)">
<g transform="translate(-39.756 .80181)">
<circle cx="1.252" cy="272.97" r="10.371" fill="url(#linearGradient1016)" stroke-width=".27266"/>
<circle cx="1.252" cy="272.97" r="10.371" fill="url(#linearGradient1036)" stroke-width=".27266"/>
<ellipse cx="1.3229" cy="266.27" rx="6.3311" ry="3.1419" fill="url(#linearGradient1026)" stroke-width=".239"/>
<circle cx="1.252" cy="272.97" r="10.371" fill="url(#radialGradient1050)" stroke-width=".27266"/>
<circle cx="1.252" cy="272.97" r="10.371" fill="url(#linearGradient1080)" stroke-width=".27266"/>
</g>
<g transform="translate(-23.386 -11.76)" opacity=".65">
<circle cx="-15.702" cy="296" r="5.1449" fill="url(#linearGradient1092)" stroke-width=".27908"/>
<ellipse cx="-15.635" cy="293.73" rx="3.2072" ry="2.0045" fill="url(#radialGradient1102)" stroke-width=".26458"/>
<circle cx="-15.702" cy="296" r="0" fill="url(#linearGradient1126)" stroke-width=".27908"/>
</g>
<circle cx="-31.366" cy="270.5" r="7.6186" fill="#f7d000" opacity=".65" stroke-width=".32383"/>
<path d="m-31.426 264.03c-2.86-5e-5 -4.9896 1.5692-4.9895 2.8055-7.3e-5 1.2363 2.3185 2.2386 5.1785 2.2385 2.8599-5e-5 5.1782-1.0023 5.1781-2.2385 6e-5 -1.2363-2.5072-2.8054-5.3671-2.8055z" fill="url(#radialGradient870)" opacity=".65" stroke-width=".16546"/>
<ellipse cx="-31.124" cy="265.18" rx="2.3978" ry="1.2757" fill="url(#radialGradient875)"/>
<g transform="matrix(.95615 0 0 .95615 -.90771 22.352)">
<circle cx="-31.366" cy="270.5" r="7.6186" fill="url(#linearGradient900)" opacity=".803" stroke-width=".32383"/>
<path d="m-31.426 264.03c-2.86-5e-5 -4.9896 1.5692-4.9895 2.8055-7.3e-5 1.2363 2.3185 2.2386 5.1785 2.2385 2.8599-5e-5 5.1782-1.0023 5.1781-2.2385 6e-5 -1.2363-2.5072-2.8054-5.3671-2.8055z" fill="url(#radialGradient870)" opacity=".65" stroke-width=".16546"/>
<ellipse cx="-31.124" cy="265.18" rx="2.3978" ry="1.2757" fill="url(#radialGradient875)"/>
<circle cx="-31.366" cy="270.5" r="7.6186" fill="url(#linearGradient928)" opacity=".803" stroke-width=".32383"/>
</g>
</g>
</g>
</svg>
