<svg width="136.53" height="136.53" version="1.1" viewBox="0 0 136.53 136.53" xmlns="http://www.w3.org/2000/svg" xmlns:xlink="http://www.w3.org/1999/xlink">
<defs>
<linearGradient id="linearGradient859" x1="73.909" x2="79.909" y1="8.694" y2="137.96" gradientUnits="userSpaceOnUse">
<stop stop-color="#f1f1f1" offset="0"/>
<stop stop-color="#d9dad9" offset="1"/>
</linearGradient>
<linearGradient id="linearGradient905" x1="49.89" x2="87.783" y1="26.138" y2="122.17" gradientUnits="userSpaceOnUse">
<stop stop-color="#2b97e8" offset="0"/>
<stop stop-color="#0073ca" stop-opacity=".92308" offset="1"/>
</linearGradient>
</defs>
<filter x="-.069933" y="-.054406" width="1.1399" height="1.1088" color-interpolation-filters="sRGB">
<feGaussianBlur stdDeviation="1.9764485"/>
</filter>
<path d="m68.113 2.2168c-36.979 0-67.021 30.042-67.021 67.021 0 36.979 30.042 67.021 67.021 67.021 36.979 0 67.021-30.042 67.021-67.021 0-36.979-30.042-67.021-67.021-67.021z" color="#000000" color-rendering="auto" dominant-baseline="auto" fill="url(#linearGradient859)" image-rendering="auto" shape-rendering="auto" solid-color="#000000" style="font-feature-settings:normal;font-variant-alternates:normal;font-variant-caps:normal;font-variant-ligatures:normal;font-variant-numeric:normal;font-variant-position:normal;isolation:auto;mix-blend-mode:normal;shape-padding:0;text-decoration-color:#000000;text-decoration-line:none;text-decoration-style:solid;text-indent:0;text-orientation:mixed;text-transform:none;white-space:normal"/>
<path d="m128.28 69.238a60.167 60.167 0 0 1-60.119 60.167 60.167 60.167 0 0 1-60.216-60.07 60.167 60.167 0 0 1 60.021-60.264 60.167 60.167 0 0 1 60.313 59.973" fill="url(#linearGradient905)" style="paint-order:fill markers stroke"/>
<path d="m45.266 51.955c-2.7416 0-5.4709 0.54894-8.0109 1.6215-2.54 1.0726-4.8595 2.6517-6.8174 4.6475-1.9576 1.9958-3.5257 4.3833-4.5932 7.0103-1.0647 2.6264-1.6141 5.4595-1.6141 8.3112 0 2.8526 0.54805 5.6851 1.6154 8.3124 1.0675 2.627 2.6355 5.0145 4.5932 7.0103 1.9577 1.9957 4.2775 3.5748 6.8174 4.6475 2.4819 1.0481 5.1459 1.5908 7.8242 1.6154 0.06328 0.0023 0.12393 0.0037 0.18689 0.0062 6.5122 0.30844 11.759-2.2758 15.6-6.0277 2.6253-2.5647 4.688-5.5934 6.5702-8.68 1.8824 3.0865 3.9448 6.1153 6.5702 8.68 3.8405 3.7519 9.0877 6.336 15.6 6.0277 0.06296-0.0023 0.12361-3e-3 0.18689-0.0062 2.6781-0.0228 5.3361-0.56737 7.818-1.6154 2.54-1.0725 4.8657-2.6517 6.8233-4.6475l0.0119-0.02402c1.9496-1.9921 3.5167-4.367 4.5812-6.9863 1.0647-2.6264 1.6141-5.4595 1.6141-8.3112 0-2.8527-0.54808-5.6854-1.6154-8.3124l-0.0182-0.0361c-1.0678-2.6109-2.6295-4.9873-4.5768-6.9748-1.9567-1.9937-4.2775-3.5738-6.8174-4.6478-2.54-1.0709-5.2682-1.6203-8.0087-1.6203-6.861 0-12.279 2.8216-16.281 6.7449-2.3147 2.2653-4.1911 4.8577-5.8916 7.5087-1.7005-2.6511-3.5769-5.2435-5.8885-7.5088-4.0028-3.9257-9.4222-6.7465-16.283-6.7465zm-0.07235 6.1724c5.4734 0 8.9694 1.9614 12.176 5.208 2.5419 2.5734 4.7707 6.0743 6.9801 9.8916-2.5216 4.4599-4.9586 8.5334-7.6973 11.296-3.0191 3.0455-6.1477 4.725-11.26 4.4303h-0.19891c-1.9495 0-3.9149-0.41146-5.7083-1.1935-1.7694-0.77155-3.4022-1.9179-4.75-3.3214l-0.05425-0.05425c-1.3579-1.4258-2.4505-3.1479-3.1788-4.9935-0.72526-1.8486-1.1018-3.8608-1.1018-5.8484 0-1.9884 0.37649-4.0007 1.1031-5.8468 0.72653-1.8464 1.8185-3.5615 3.1766-4.991l0.05425-0.06029c1.3476-1.4034 2.9804-2.5498 4.75-3.3214 1.7931-0.78081 3.7559-1.1913 5.7064-1.1913zm44.485 0c1.9496 0 3.9149 0.41145 5.7083 1.1935 1.7694 0.77155 3.4022 1.9179 4.75 3.3214l0.0543 0.06029c1.3582 1.4296 2.4501 3.1445 3.1766 4.991 0.72527 1.8456 1.1018 3.8578 1.1018 5.8453 0 1.9885-0.37649 4.0003-1.1031 5.8468-0.72653 1.8464-1.8184 3.5673-3.1766 4.9969l-0.0543 0.05425c-1.3476 1.4034-2.9804 2.5497-4.75 3.3214-1.7935 0.78204-3.7587 1.1935-5.7082 1.1935h-0.19891c-5.1108 0.29319-8.2402-1.3857-11.258-4.4318-2.7375-2.7622-5.1756-6.836-7.697-11.296 2.2097-3.8176 4.438-7.3205 6.981-9.8913 3.2066-3.2467 6.7032-5.2095 12.175-5.2095zm-3.7251 6.1724v6.1724h-6.1724v6.1724h6.1724v6.1724h6.1724v-6.1724h6.1724v-6.1724h-6.1724v-6.1724zm-49.379 6.1724v6.1724h18.517v-6.1724z" fill="#fff" stroke-width="3.0862"/>
</svg>
