<svg width="128" height="128" version="1.1" viewBox="0 0 33.867 33.867" xmlns="http://www.w3.org/2000/svg" xmlns:xlink="http://www.w3.org/1999/xlink">
<defs>
<radialGradient id="radialGradient908" cx="16.937" cy="3.2428" r="14.544" gradientTransform="matrix(4.4792 0 0 2.0392 -58.927 -3.3698)" gradientUnits="userSpaceOnUse">
<stop stop-color="#ffe447" offset="0"/>
<stop stop-color="#ffb702" offset="1"/>
</radialGradient>
<linearGradient id="linearGradient1237" x1="18.884" x2="18.884" y1="10.447" y2="80.817" gradientUnits="userSpaceOnUse">
<stop stop-color="#fbffff" offset="0"/>
<stop stop-color="#ffbc09" offset="1"/>
</linearGradient>
</defs>
<g transform="matrix(.97573 0 0 .97573 -65.587 -37.192)" fill="none" opacity=".29676" stroke="#000" stroke-linecap="round" stroke-linejoin="round" stroke-opacity=".02">
<rect x="69.84" y="40.71" width="29.811" height="29.811" rx="6.6099" ry="6.6099" stroke-width=".1"/>
<rect x="69.84" y="40.71" width="29.811" height="29.811" rx="6.6099" ry="6.6099" stroke-width=".2"/>
<rect x="69.84" y="40.71" width="29.811" height="29.811" rx="6.6099" ry="6.6099" stroke-width=".3"/>
<rect x="69.84" y="40.71" width="29.811" height="29.811" rx="6.6099" ry="6.6099" stroke-width=".4"/>
<rect x="69.84" y="40.71" width="29.811" height="29.811" rx="6.6099" ry="6.6099" stroke-width=".5"/>
<rect x="69.84" y="40.71" width="29.811" height="29.811" rx="6.6099" ry="6.6099" stroke-width=".6"/>
<rect x="69.84" y="40.71" width="29.811" height="29.811" rx="6.6099" ry="6.6099" stroke-width=".7"/>
<rect x="69.84" y="40.71" width="29.811" height="29.811" rx="6.6099" ry="6.6099" stroke-width=".8"/>
<rect x="69.84" y="40.71" width="29.811" height="29.811" rx="6.6099" ry="6.6099"/>
<rect x="69.84" y="40.71" width="29.811" height="29.811" rx="6.6099" ry="6.6099" stroke-width="1.2"/>
<rect x="69.84" y="40.71" width="29.811" height="29.811" rx="6.6099" ry="6.6099" stroke-width="1.4"/>
<rect x="69.84" y="40.71" width="29.811" height="29.811" rx="6.6099" ry="6.6099" stroke-width="1.6"/>
<rect x="69.84" y="40.71" width="29.811" height="29.811" rx="6.6099" ry="6.6099" stroke-width="1.8"/>
<rect x="69.84" y="40.71" width="29.811" height="29.811" rx="6.6099" ry="6.6099" stroke-width="2"/>
<rect x="69.84" y="40.71" width="29.811" height="29.811" rx="6.6099" ry="6.6099" stroke-width="2.2"/>
<rect x="69.84" y="40.71" width="29.811" height="29.811" rx="6.6099" ry="6.6099" stroke-width="2.6"/>
<rect x="69.84" y="40.71" width="29.811" height="29.811" rx="6.6099" ry="6.6099" stroke-width="3"/>
<rect x="69.84" y="40.71" width="29.811" height="29.811" rx="6.6099" ry="6.6099" stroke-width="3.4"/>
<rect x="69.84" y="40.71" width="29.811" height="29.811" rx="6.6099" ry="6.6099" stroke-width="3.8"/>
<rect x="69.84" y="40.71" width="29.811" height="29.811" rx="6.6099" ry="6.6099" stroke-width="4.2"/>
<rect x="69.84" y="40.71" width="29.811" height="29.811" rx="6.6099" ry="6.6099" stroke-width="4.6"/>
<rect x="69.84" y="40.71" width="29.811" height="29.811" rx="6.6099" ry="6.6099" stroke-width="5"/>
</g>
<rect x="2.5579" y="2.5293" width="29.087" height="29.087" rx="6.4495" ry="6.4495" fill="url(#radialGradient908)" stroke-linecap="round" stroke-linejoin="round" stroke-width="2.6877"/>
<path d="m17.864 7.0185c-0.72323-0.072858-1.0284 0.93765-0.396 1.3114 2.0355 1.2073 3.3551 3.4605 3.3558 5.9056 0 3.76-2.9666 6.8528-6.5659 6.8538-2.3332-0.0066-4.4814-1.3758-5.6352-3.4942-0.35891-0.65811-1.3233-0.33942-1.2546 0.41457 0.47372 5.1523 4.6226 9.0998 9.5777 9.1114 5.76e-4 1e-6 0.0012 1e-6 0.0017 0 5.3184 0 9.6443-4.5187 9.6443-10.074-3.21e-4 -5.1866-3.785-9.5356-8.7279-10.028z" fill="none" opacity=".39716" stroke="#1e0000" stroke-opacity=".058886" stroke-width=".2"/>
<path d="m17.864 7.0185c-0.72323-0.072858-1.0284 0.93765-0.396 1.3114 2.0355 1.2073 3.3551 3.4605 3.3558 5.9056 0 3.76-2.9666 6.8528-6.5659 6.8538-2.3332-0.0066-4.4814-1.3758-5.6352-3.4942-0.35891-0.65811-1.3233-0.33942-1.2546 0.41457 0.47372 5.1523 4.6226 9.0998 9.5777 9.1114 5.76e-4 1e-6 0.0012 1e-6 0.0017 0 5.3184 0 9.6443-4.5187 9.6443-10.074-3.21e-4 -5.1866-3.785-9.5356-8.7279-10.028z" fill="none" opacity=".39716" stroke="#1e0000" stroke-opacity=".058886" stroke-width=".4"/>
<path d="m17.864 7.0185c-0.72323-0.072858-1.0284 0.93765-0.396 1.3114 2.0355 1.2073 3.3551 3.4605 3.3558 5.9056 0 3.76-2.9666 6.8528-6.5659 6.8538-2.3332-0.0066-4.4814-1.3758-5.6352-3.4942-0.35891-0.65811-1.3233-0.33942-1.2546 0.41457 0.47372 5.1523 4.6226 9.0998 9.5777 9.1114 5.76e-4 1e-6 0.0012 1e-6 0.0017 0 5.3184 0 9.6443-4.5187 9.6443-10.074-3.21e-4 -5.1866-3.785-9.5356-8.7279-10.028z" fill="none" opacity=".39716" stroke="#1e0000" stroke-opacity=".058886" stroke-width=".5"/>
<path d="m17.864 7.0185c-0.72323-0.072858-1.0284 0.93765-0.396 1.3114 2.0355 1.2073 3.3551 3.4605 3.3558 5.9056 0 3.76-2.9666 6.8528-6.5659 6.8538-2.3332-0.0066-4.4814-1.3758-5.6352-3.4942-0.35891-0.65811-1.3233-0.33942-1.2546 0.41457 0.47372 5.1523 4.6226 9.0998 9.5777 9.1114 5.76e-4 1e-6 0.0012 1e-6 0.0017 0 5.3184 0 9.6443-4.5187 9.6443-10.074-3.21e-4 -5.1866-3.785-9.5356-8.7279-10.028z" fill="none" opacity=".39716" stroke="#1e0000" stroke-opacity=".058886" stroke-width=".7"/>
<path d="m17.864 7.0185c-0.72323-0.072858-1.0284 0.93765-0.396 1.3114 2.0355 1.2073 3.3551 3.4605 3.3558 5.9056 0 3.76-2.9666 6.8528-6.5659 6.8538-2.3332-0.0066-4.4814-1.3758-5.6352-3.4942-0.35891-0.65811-1.3233-0.33942-1.2546 0.41457 0.47372 5.1523 4.6226 9.0998 9.5777 9.1114 5.76e-4 1e-6 0.0012 1e-6 0.0017 0 5.3184 0 9.6443-4.5187 9.6443-10.074-3.21e-4 -5.1866-3.785-9.5356-8.7279-10.028z" fill="none" opacity=".39716" stroke="#1e0000" stroke-opacity=".058886"/>
<path d="m17.864 7.0185c-0.72323-0.072858-1.0284 0.93765-0.396 1.3114 2.0355 1.2073 3.3551 3.4605 3.3558 5.9056 0 3.76-2.9666 6.8528-6.5659 6.8538-2.3332-0.0066-4.4814-1.3758-5.6352-3.4942-0.35891-0.65811-1.3233-0.33942-1.2546 0.41457 0.47372 5.1523 4.6226 9.0998 9.5777 9.1114 5.76e-4 1e-6 0.0012 1e-6 0.0017 0 5.3184 0 9.6443-4.5187 9.6443-10.074-3.21e-4 -5.1866-3.785-9.5356-8.7279-10.028z" fill="none" opacity=".39716" stroke="#1e0000" stroke-opacity=".058886" stroke-width="1.3"/>
<path d="m18.624 6.9865c-0.02495-0.0025-0.04177 0.01859-0.06641 0.01758-0.63596-0.02621-1.1709 0.41534-1.3262 0.92969-0.16133 0.53428 0.02508 1.2315 0.60156 1.5723 1.8357 1.0894 3.0364 3.1348 3.0371 5.3457 0 3.4175-2.6878 6.2011-5.9141 6.2031-2.0801-0.0059-4.0184-1.2302-5.0664-3.1543v-2e-3c-0.31774-0.58258-1.0254-0.80437-1.5625-0.6269-0.53706 0.17746-0.97023 0.75315-0.91016 1.4121v2e-3c0.50263 5.4667 4.9232 9.6887 10.223 9.7012h4e-3c5.6866 0 10.295-4.8317 10.295-10.725-3.4e-4 -5.5028-4.0286-10.149-9.3145-10.676z" color="#000000" fill="none" opacity=".39716" style="-inkscape-stroke:none"/>
<path d="m18.624 6.9885c-0.02508-0.00249-0.04164 0.020504-0.06641 0.019531-0.63487-0.024924-1.1711 0.41404-1.3262 0.92773-0.16133 0.53427 0.02508 1.2296 0.60156 1.5703 1.8364 1.0892 3.0364 3.1363 3.0371 5.3477 0 3.4175-2.6878 6.2011-5.9141 6.2031-2.0801-0.0059-4.0184-1.2302-5.0664-3.1543v-2e-3c-0.31774-0.58258-1.0254-0.80437-1.5625-0.62691s-0.97023 0.75315-0.91016 1.4121c0.50263 5.4667 4.9232 9.6906 10.223 9.7031 9.28e-4 2e-6 3e-3 1e-6 0.0039 0 5.6866 0 10.295-4.8317 10.295-10.725-3.4e-4 -5.5021-4.0276-10.148-9.3125-10.676-6.41e-4 -6.4e-5 -0.0013 6.4e-5 -2e-3 0z" color="#000000" fill="#1e0000" fill-opacity=".058886" opacity=".39716" style="-inkscape-stroke:none"/>
<path d="m17.864 7.0185c-0.72323-0.072858-1.0284 0.93765-0.396 1.3114 2.0355 1.2073 3.3551 3.4605 3.3558 5.9056 0 3.76-2.9666 6.8528-6.5659 6.8538-2.3332-0.0066-4.4814-1.3758-5.6352-3.4942-0.35891-0.65811-1.3233-0.33942-1.2546 0.41457 0.47372 5.1523 4.6226 9.0998 9.5777 9.1114 5.76e-4 1e-6 0.0012 1e-6 0.0017 0 5.3184 0 9.6443-4.5187 9.6443-10.074-3.21e-4 -5.1866-3.785-9.5356-8.7279-10.028z" fill="url(#linearGradient1237)" stroke-width=".49155"/>
</svg>
