<svg width="128" height="128" version="1.1" viewBox="0 0 33.867 33.867" xmlns="http://www.w3.org/2000/svg" xmlns:xlink="http://www.w3.org/1999/xlink">
<defs>
<radialGradient id="radialGradient908" cx="16.937" cy="3.2428" r="14.544" gradientTransform="matrix(4.4792 0 0 2.0392 -58.927 -3.3698)" gradientUnits="userSpaceOnUse">
<stop stop-color="#ffe447" offset="0"/>
<stop stop-color="#ffb702" offset="1"/>
</radialGradient>
</defs>
<g transform="matrix(.97573 0 0 .97573 -65.587 -37.192)" fill="none" opacity=".29676" stroke="#000" stroke-linecap="round" stroke-linejoin="round" stroke-opacity=".02">
<rect x="69.84" y="40.71" width="29.811" height="29.811" rx="6.6099" ry="6.6099" stroke-width=".1"/>
<rect x="69.84" y="40.71" width="29.811" height="29.811" rx="6.6099" ry="6.6099" stroke-width=".2"/>
<rect x="69.84" y="40.71" width="29.811" height="29.811" rx="6.6099" ry="6.6099" stroke-width=".3"/>
<rect x="69.84" y="40.71" width="29.811" height="29.811" rx="6.6099" ry="6.6099" stroke-width=".4"/>
<rect x="69.84" y="40.71" width="29.811" height="29.811" rx="6.6099" ry="6.6099" stroke-width=".5"/>
<rect x="69.84" y="40.71" width="29.811" height="29.811" rx="6.6099" ry="6.6099" stroke-width=".6"/>
<rect x="69.84" y="40.71" width="29.811" height="29.811" rx="6.6099" ry="6.6099" stroke-width=".7"/>
<rect x="69.84" y="40.71" width="29.811" height="29.811" rx="6.6099" ry="6.6099" stroke-width=".8"/>
<rect x="69.84" y="40.71" width="29.811" height="29.811" rx="6.6099" ry="6.6099"/>
<rect x="69.84" y="40.71" width="29.811" height="29.811" rx="6.6099" ry="6.6099" stroke-width="1.2"/>
<rect x="69.84" y="40.71" width="29.811" height="29.811" rx="6.6099" ry="6.6099" stroke-width="1.4"/>
<rect x="69.84" y="40.71" width="29.811" height="29.811" rx="6.6099" ry="6.6099" stroke-width="1.6"/>
<rect x="69.84" y="40.71" width="29.811" height="29.811" rx="6.6099" ry="6.6099" stroke-width="1.8"/>
<rect x="69.84" y="40.71" width="29.811" height="29.811" rx="6.6099" ry="6.6099" stroke-width="2"/>
<rect x="69.84" y="40.71" width="29.811" height="29.811" rx="6.6099" ry="6.6099" stroke-width="2.2"/>
<rect x="69.84" y="40.71" width="29.811" height="29.811" rx="6.6099" ry="6.6099" stroke-width="2.6"/>
<rect x="69.84" y="40.71" width="29.811" height="29.811" rx="6.6099" ry="6.6099" stroke-width="3"/>
<rect x="69.84" y="40.71" width="29.811" height="29.811" rx="6.6099" ry="6.6099" stroke-width="3.4"/>
<rect x="69.84" y="40.71" width="29.811" height="29.811" rx="6.6099" ry="6.6099" stroke-width="3.8"/>
<rect x="69.84" y="40.71" width="29.811" height="29.811" rx="6.6099" ry="6.6099" stroke-width="4.2"/>
<rect x="69.84" y="40.71" width="29.811" height="29.811" rx="6.6099" ry="6.6099" stroke-width="4.6"/>
<rect x="69.84" y="40.71" width="29.811" height="29.811" rx="6.6099" ry="6.6099" stroke-width="5"/>
</g>
<rect x="2.5579" y="2.5293" width="29.087" height="29.087" rx="6.4495" ry="6.4495" fill="url(#radialGradient908)" stroke-linecap="round" stroke-linejoin="round" stroke-width="2.6877"/>
<path d="m15.201 8.1129-0.35951 2.8761 2.9017 1.9259s3.1072-1.4129 3.6721-1.1155c1.1299 0.83256 1.1299 2.8446 1.1299 2.8446l1.6948 0.24826 1.284-2.6706-2.4138 0.41086-0.46222-2.0543-2.3625 0.92445-0.92444-2.5679-2.4652 1.7679zm-1.1299 3.3896s-2.5009 1.1299-2.5009 2.2598c0 0.26632 0.24118 0.56494 0.24118 0.56494l-0.56494 0.56494s-3.3896 1.1299-3.3896 1.6948c0 0.42108 0.56494 1.1299 0.56494 1.1299l1.1299-0.56494-0.56494 1.1299h-0.56494l0.56494 2.1776h1.1299l0.6163 1.2121 0.6163-0.56494s0.91444 0.96443 1.5921 1.0066l2.3111-0.85254s-0.6163 0.9758-1.7462 1.5407c-0.38255 0.67565-0.56494 2.1776-0.56494 2.1776h1.1299l0.56494 1.2121c1.6948-0.56494 2.2598-1.6948 2.2598-1.6948s0.56494 1.1299 1.6948 1.6948l0.56494-2.2598s0.72006 0.46819 1.1299 0.56494c0.54983 0.12979 1.6948 0 1.6948 0l-1.1299-2.8247s1.1697 0.69942 1.6948 1.1299c0.61786 0.50652 1.6948 1.6948 1.6948 1.6948s0.29775-1.9314 0-2.8247c-0.29775-0.89325-1.6948-2.0543-1.6948-2.0543h1.1299l2.2598-0.77037-0.56494-1.1299-0.56494-1.6948s-1.1299-0.52385-2.8247-0.52385c-0.5955 0-1.6948 0.52385-1.6948 0.52385v-1.1299l-1.1299 0.56494s0-2.2598 2.2598-2.2598c0-0.26632-0.30575-0.50375-0.56494-0.56494-1.1299 0-3.3896 1.1299-3.3896 1.1299zm0.35951 3.5951s-0.01586 0.41572-0.18715 0.69464c-0.202 0.32892-0.25473 0.69158-0.81967 0.93424-0.17522 0.07527-0.44577-0.3586-0.44577-0.3586l-0.60173 0.37319 0.48256-0.67772s-0.15224-0.45411 0-0.56494c0.56494-0.41128 1.5718-0.4008 1.5718-0.4008zm-4.5195 6.0089c-1.1299 0.56494-0.92445 1.6948-0.92445 1.6948h0.56494s-0.14772 0.36314 0 1.1299c0.56494 0 1.1299-0.56494 1.1299-0.56494s-0.15499 0.56494 0 1.1299c0.81708 0 1.1299-1.1299 1.1299-1.1299s-4.04e-4 0.16468 0.29019 0.30564c0.27433-0.30605 0.27474-0.87058 0.27474-0.87058s-0.33936-0.6964-0.56494-0.6882h-1.4894z" fill="#fff" stroke-width=".41086"/>
</svg>
