<svg width="128" height="128" version="1.1" xmlns="http://www.w3.org/2000/svg" xmlns:xlink="http://www.w3.org/1999/xlink">
<defs>
<linearGradient id="linearGradient926" x1="68.248" x2="69.093" y1="107.35" y2="16.235" gradientUnits="userSpaceOnUse">
<stop stop-color="#1566d9" offset="0"/>
<stop stop-color="#57cafa" offset="1"/>
</linearGradient>
<radialGradient id="radialGradient4508" cx="86.706" cy="87.923" r="39.151" gradientTransform="matrix(1 0 0 .85714 .57527 13.711)" gradientUnits="userSpaceOnUse">
<stop offset="0"/>
<stop stop-opacity="0" offset="1"/>
</radialGradient>
</defs>
<linearGradient id="a" x1="362.82" x2="362.82" y1="245.11" y2="525.38" gradientUnits="userSpaceOnUse">
<stop stop-color="#f4f4f4" offset="0"/>
<stop stop-color="#dce3ec" offset="1"/>
</linearGradient>
<filter id="c" x="-.034921" y="-.037148" width="1.0698" height="1.0743" color-interpolation-filters="sRGB">
<feGaussianBlur stdDeviation="1.6936817"/>
</filter>
<path d="m64.438 11.648v0.001953c0.030822 1.0064-1.9753 0.061087-2.9844 0.091797-32.29 0.9817-58.016 16.535-57.186 43.842 0.43304 14.244 6.7804 28.987 17.98 38.514 1.1111 0.9451 2.271 1.8389 3.4766 2.6758l8.5605 5.9375c-0.56982 4.079-7.1601 11.303-9.0547 13.568 7.5725-0.32031 21.268-7.0538 23.342-10.588 2.9971 0.47618 7.3202 1.1462 11.217 1.4648 6.3257 6.1892 15.787 10.121 26.371 10.121 2.6954 0 5.3067-0.27234 7.8242-0.74023 2.794-0.59121 9.979 4.4216 13.617 4.5332 0.40963-1.5853-5.739-6.7894-3.377-7.9726 9.8676-5.0142 16.426-14.015 16.426-24.293 0-5.0568-1.6-9.8021-4.3926-13.92 2.9929-6.4562 4.5585-13.469 4.3398-20.66-0.80411-26.449-25.228-42.177-56.16-42.576z" fill="#304050" fill-opacity=".22814" filter="url(#c)"/>
<path d="m64.438 11.648v2e-3l-2.9844 0.0918c-32.29 0.98165-58.016 16.535-57.186 43.842 0.43304 14.244 6.7804 28.987 17.98 38.514 1.1111 0.9451 2.271 1.8389 3.4766 2.6758l8.5605 5.9375c-0.56982 4.079-7.1601 11.303-9.0547 13.568 7.5725-0.32031 21.268-7.0538 23.342-10.588 4.2907 0.68172 11.317 1.7795 15.885 1.6406 32.29-0.9817 56.971-25.802 56.141-53.107-0.80411-26.449-25.228-42.177-56.16-42.576z" fill="url(#linearGradient926)" style="paint-order:fill markers stroke"/>
<path d="m54.174 30.698 4.4078 1.0495q-0.62968 1.6791-1.4693 3.1484h21.199v16.582h-31.484v2.7286h37.151v3.3583h-37.151v2.7286h37.571q-0.62968 13.643-2.0989 16.372-1.2594 2.9385-4.8276 2.9385-1.6792 0-5.2474-0.62968l-0.83958-4.1979q3.988 0.62968 5.6672 0.62968 1.2594 0 1.6791-1.2594 0.62968-1.4693 1.0495-10.285h-37.151v-28.965h9.8651q1.0495-2.0989 1.6791-4.1979zm-7.3463 7.5562v3.3583h27.286v-3.3583zm0 6.5067v3.3583h27.286v-3.3583zm9.0255 20.36h4.1979v5.6672h10.285v-5.2474h3.988v8.6057h-28.546v3.5682h-4.1979v-11.964h4.1979v5.0375h10.075z" fill="#fff" stroke-width="2.2007"/>
<path d="m87.281 55.516a39.151 33.558 0 0 0-39.15 33.557 39.151 33.558 0 0 0 5.7188 17.402c3.6327 0.50364 7.6255 0.94808 10.607 0.85742 26.334-0.80063 47.602-17.458 54.104-38.387a39.151 33.558 0 0 0-31.279-13.43z" fill="url(#radialGradient4508)"/>
<path d="m84.399 60.293c-18.23 0.77172-32.729 13.259-32.729 28.511 0 15.745 15.435 28.473 34.49 28.473 2.6954 0 5.3064-0.27091 7.8239-0.7388 2.794-0.59121 9.9789 4.4206 13.617 4.5321 0.40963-1.5853-5.7385-6.7893-3.3764-7.9725 9.8676-5.0142 16.426-14.015 16.426-24.293 0-15.746-15.435-28.511-34.49-28.511-0.59552 0-1.1733-0.08101-1.7614 0z" fill="url(#a)"/>
<path d="m77.964 78.411c-0.46615 0-0.8414 0.37977-0.8414 0.84635v1.1582h-6.5778c-0.46615 0-0.8414 0.37503-0.8414 0.8414v2.252c-2.03e-4 0.4651 0.37522 0.8414 0.8414 0.8414h12.591c-0.3548 2.2733-1.5622 4.6975-3.5883 7.2063-1.2914-2.0686-2.1199-4.0788-2.5935-5.4146-0.11961-0.33711-0.43949-0.55928-0.79685-0.55928h-2.0689c-0.26917 0-0.52395 0.12924-0.68301 0.34646-0.15889 0.21742-0.20508 0.49527-0.12374 0.75231 0.49085 1.5456 1.6219 4.5783 3.712 7.6617-2.469 2.4002-4.9284 4.1338-5.8799 4.7712-0.37864 0.25384-0.48936 0.76175-0.24745 1.1483l1.0443 1.663c0.12037 0.19229 0.3126 0.32739 0.53452 0.37615 0.05955 0.0134 0.11814 0.0198 0.17817 0.0198 0.16373 0 0.32662-0.0476 0.46526-0.13859 0.97981-0.64398 3.5199-2.4042 6.1818-4.9543 0.9849 1.0264 3.3002 2.828 4.6722 3.8259 0.20932 0.15227 0.47778 0.19918 0.72756 0.12868 0.24961-0.0711 0.45596-0.25557 0.55433-0.49494l0.77211-1.8956c0.15585-0.38098 0.01242-0.81785-0.33655-1.0344-0.894-0.55453-2.5759-1.6925-3.9496-3.1726 3.0161-3.5297 4.7341-6.974 5.1127-10.235h0.66816c0.46617 0 0.8414-0.37502 0.8414-0.8414v-2.252c0-0.46616-0.37502-0.8414-0.8414-0.8414h-6.5777v-1.1582c0-0.46637-0.37502-0.84635-0.8414-0.84635zm16.001 2.6578c-0.37117 0-0.69814 0.24411-0.80675 0.59888l-5.6027 18.328c-0.07856 0.25597-0.03097 0.53164 0.12868 0.74736 0.15914 0.21487 0.41017 0.34151 0.67807 0.34151h2.9103c0.37885 0 0.71013-0.25387 0.81169-0.61868l1.2572-4.5188h5.7314l1.3611 4.5386c0.10694 0.35734 0.43906 0.59888 0.81172 0.59888h3.0884c0.26877 0 0.52415-0.12622 0.68301-0.34151 0.1594-0.21616 0.20357-0.49612 0.12374-0.75231l-5.677-18.323c-0.10998-0.35351-0.43665-0.59888-0.80676-0.59888zm2.1382 3.3903h0.0544l2.2619 8.1071h-4.4297z" fill="#222" stroke-width=".21295"/>
</svg>
