<svg width="128" height="128" version="1.1" viewBox="0 0 128 128" xmlns="http://www.w3.org/2000/svg" xmlns:xlink="http://www.w3.org/1999/xlink">
<defs>
<linearGradient id="linearGradient825" x1="-741.83" x2="-741.83" y1="959.05" y2="93.836" gradientTransform="matrix(.13668 0 0 .13668 162.31 -5.9893)" gradientUnits="userSpaceOnUse">
<stop stop-color="#0991ed" offset="0"/>
<stop stop-color="#49ceff" offset="1"/>
</linearGradient>
<linearGradient id="linearGradient835" x1="-738.76" x2="-738.76" y1="931.43" y2="152.13" gradientTransform="matrix(.13668 0 0 .13668 162.31 -5.9893)" gradientUnits="userSpaceOnUse">
<stop stop-color="#0089ea" offset="0"/>
<stop stop-color="#49ceff" offset="1"/>
</linearGradient>
</defs>
<circle cx="63.592" cy="64.286" r="61.38" fill="url(#linearGradient825)"/>
<circle cx="63.592" cy="64.286" r="55.09" fill="url(#linearGradient835)"/>
<g transform="translate(-171.5)" fill="none" opacity=".601" stroke="#000" stroke-linecap="round" stroke-linejoin="round" stroke-opacity=".027451">
<path d="m220.05 94.395c-4.2211-0.31618-5.7087-0.59216-7.3974-1.3724-4.0875-1.8885-6.6643-5.3442-7.4463-9.986-0.26584-1.5779-0.36032-30.784-0.0996-30.783 0.10103 4.22e-4 0.91462 0.15485 1.808 0.34321 3.3463 0.7056 8.1202 1.294 11.742 1.4473 1.9496 0.08251 2.0716 0.07222 2.1474-0.18099 0.14533-0.48529 0.68462-3.4672 0.63562-3.5146-0.0264-0.02547-1.0966-0.11732-2.3784-0.20404-4.3712-0.29572-7.6869-0.75231-11.498-1.5834-2.8278-0.61658-2.5883-0.43808-2.4654-1.8376 0.40001-4.5554 2.4889-8.1865 5.9506-10.344 2.0108-1.2532 3.7864-1.7883 6.8167-2.0541 1.5031-0.13186 10.518-0.22182 10.518-0.10496 0 0.02544-0.16104 0.4426-0.35787 0.92699-0.73853 1.8175-0.96714 3.144-0.96417 5.5944 2e-3 1.8374 0.0629 2.5238 0.32448 3.6715 0.31047 1.3623 1.0947 3.7436 1.2328 3.7436 0.13231 0 5.3444-0.88091 5.3768-0.90875 0.0182-0.01564-0.19231-0.56285-0.4678-1.2161-0.27549-0.6532-0.6668-1.7929-0.86958-2.5328-0.32598-1.1893-0.36955-1.6151-0.37606-3.6756-8e-3 -2.4273 0.0917-3.0481 0.7846-4.9l0.28857-0.77127 9.8373 0.06137c9.2981 0.05801 9.9108 0.07742 11.179 0.35416 1.7088 0.37287 2.7827 0.75061 3.9355 1.3843 3.0875 1.6971 5.2058 4.4029 6.1588 7.8669l0.32846 1.1939-1.5038 0.09646c-6.1994 0.39763-12.424 1.5609-17.951 3.3548-1.8528 0.6013-4.6785 1.6599-5.2999 1.9854l-0.36243 0.18989 1.5822 1.4069c0.87018 0.77382 1.6911 1.4854 1.8243 1.5812 0.20266 0.14582 0.61251 0.02577 2.5118-0.73565 3.4666-1.3898 6.8941-2.4059 10.683-3.1673 2.8985-0.58237 8.5974-1.28 8.8003-1.0772 0.13191 0.13182 0.21816 27.505 0.0937 29.73l-0.0985 1.7611-0.30179-0.36115c-0.16598-0.19862-1.0009-1.2121-1.8554-2.2522-3.0196-3.6754-8.1092-8.6093-12.033-11.665-2.9251-2.2778-7.3973-5.2078-10.091-6.6112l-0.79668-0.41506-1.8516 1.7421c-1.0184 0.95818-1.8508 1.7812-1.8498 1.829 1e-3 0.0478 0.49354 0.37116 1.0946 0.7186 7.2212 4.1741 14.331 10.589 19.807 17.871 1.2788 1.7006 3.7085 5.339 4.6469 6.9587l0.59478 1.0266-0.27558 0.3858c-0.47709 0.66791-2.045 2.0934-2.914 2.6493-1.943 1.2429-3.8565 1.8768-6.6421 2.2005-0.97146 0.11289-6.1745 0.17381-16.666 0.19514-8.3897 0.01714-15.54 0.0094-15.89-0.01661zm2.3717-4.7957c2.2809-0.46878 4.377-1.6996 5.6762-3.3331l0.63838-0.80263 0.0788 3.6533h6.5028l-0.0471-10.063c-0.0462-9.873-0.053-10.085-0.35923-11.193-1.0475-3.7917-3.3773-6.084-7.203-7.0872-1.8929-0.49634-5.3305-0.61439-7.59-0.26064-2.5443 0.39835-4.7025 1.1844-6.535 2.3803-1.1419 0.74516-2.2904 1.7454-2.2904 1.9946 0 0.09955 0.83295 0.98211 1.851 1.9612l1.851 1.7802 0.65601-0.54555c2.6362-2.1923 6.9019-2.986 9.9396-1.8494 2.0744 0.77615 3.2161 2.3904 3.2161 4.5475v0.8218l-2.8601 1.46e-4c-7.1074 4.21e-4 -11.662 1.2405-14.321 3.8988-2.7513 2.7513-3.0136 7.8351-0.55608 10.777 1.4296 1.7111 3.8627 3.0137 6.4376 3.4466 0.93984 0.158 3.902 0.08209 4.914-0.12588zm-2.1599-5.237c-2.0968-0.45144-3.2493-1.3746-3.5858-2.8721-0.44594-1.9847 1.0648-3.6026 4.0096-4.2938 1.5852-0.37206 2.9522-0.49967 5.4024-0.50433l2.2952-4e-3v1.3121c0 3.5398-1.5664 5.5568-4.8408 6.2332-1.0029 0.20716-2.6225 0.27102-3.2805 0.12936z" stroke-width=".5"/>
<path d="m220.05 94.395c-4.2211-0.31618-5.7087-0.59216-7.3974-1.3724-4.0875-1.8885-6.6643-5.3442-7.4463-9.986-0.26584-1.5779-0.36032-30.784-0.0996-30.783 0.10103 4.22e-4 0.91462 0.15485 1.808 0.34321 3.3463 0.7056 8.1202 1.294 11.742 1.4473 1.9496 0.08251 2.0716 0.07222 2.1474-0.18099 0.14533-0.48529 0.68462-3.4672 0.63562-3.5146-0.0264-0.02547-1.0966-0.11732-2.3784-0.20404-4.3712-0.29572-7.6869-0.75231-11.498-1.5834-2.8278-0.61658-2.5883-0.43808-2.4654-1.8376 0.40001-4.5554 2.4889-8.1865 5.9506-10.344 2.0108-1.2532 3.7864-1.7883 6.8167-2.0541 1.5031-0.13186 10.518-0.22182 10.518-0.10496 0 0.02544-0.16104 0.4426-0.35787 0.92699-0.73853 1.8175-0.96714 3.144-0.96417 5.5944 2e-3 1.8374 0.0629 2.5238 0.32448 3.6715 0.31047 1.3623 1.0947 3.7436 1.2328 3.7436 0.13231 0 5.3444-0.88091 5.3768-0.90875 0.0182-0.01564-0.19231-0.56285-0.4678-1.2161-0.27549-0.6532-0.6668-1.7929-0.86958-2.5328-0.32598-1.1893-0.36955-1.6151-0.37606-3.6756-8e-3 -2.4273 0.0917-3.0481 0.7846-4.9l0.28857-0.77127 9.8373 0.06137c9.2981 0.05801 9.9108 0.07742 11.179 0.35416 1.7088 0.37287 2.7827 0.75061 3.9355 1.3843 3.0875 1.6971 5.2058 4.4029 6.1588 7.8669l0.32846 1.1939-1.5038 0.09646c-6.1994 0.39763-12.424 1.5609-17.951 3.3548-1.8528 0.6013-4.6785 1.6599-5.2999 1.9854l-0.36243 0.18989 1.5822 1.4069c0.87018 0.77382 1.6911 1.4854 1.8243 1.5812 0.20266 0.14582 0.61251 0.02577 2.5118-0.73565 3.4666-1.3898 6.8941-2.4059 10.683-3.1673 2.8985-0.58237 8.5974-1.28 8.8003-1.0772 0.13191 0.13182 0.21816 27.505 0.0937 29.73l-0.0985 1.7611-0.30179-0.36115c-0.16598-0.19862-1.0009-1.2121-1.8554-2.2522-3.0196-3.6754-8.1092-8.6093-12.033-11.665-2.9251-2.2778-7.3973-5.2078-10.091-6.6112l-0.79668-0.41506-1.8516 1.7421c-1.0184 0.95818-1.8508 1.7812-1.8498 1.829 1e-3 0.0478 0.49354 0.37116 1.0946 0.7186 7.2212 4.1741 14.331 10.589 19.807 17.871 1.2788 1.7006 3.7085 5.339 4.6469 6.9587l0.59478 1.0266-0.27558 0.3858c-0.47709 0.66791-2.045 2.0934-2.914 2.6493-1.943 1.2429-3.8565 1.8768-6.6421 2.2005-0.97146 0.11289-6.1745 0.17381-16.666 0.19514-8.3897 0.01714-15.54 0.0094-15.89-0.01661zm2.3717-4.7957c2.2809-0.46878 4.377-1.6996 5.6762-3.3331l0.63838-0.80263 0.0788 3.6533h6.5028l-0.0471-10.063c-0.0462-9.873-0.053-10.085-0.35923-11.193-1.0475-3.7917-3.3773-6.084-7.203-7.0872-1.8929-0.49634-5.3305-0.61439-7.59-0.26064-2.5443 0.39835-4.7025 1.1844-6.535 2.3803-1.1419 0.74516-2.2904 1.7454-2.2904 1.9946 0 0.09955 0.83295 0.98211 1.851 1.9612l1.851 1.7802 0.65601-0.54555c2.6362-2.1923 6.9019-2.986 9.9396-1.8494 2.0744 0.77615 3.2161 2.3904 3.2161 4.5475v0.8218l-2.8601 1.46e-4c-7.1074 4.21e-4 -11.662 1.2405-14.321 3.8988-2.7513 2.7513-3.0136 7.8351-0.55608 10.777 1.4296 1.7111 3.8627 3.0137 6.4376 3.4466 0.93984 0.158 3.902 0.08209 4.914-0.12588zm-2.1599-5.237c-2.0968-0.45144-3.2493-1.3746-3.5858-2.8721-0.44594-1.9847 1.0648-3.6026 4.0096-4.2938 1.5852-0.37206 2.9522-0.49967 5.4024-0.50433l2.2952-4e-3v1.3121c0 3.5398-1.5664 5.5568-4.8408 6.2332-1.0029 0.20716-2.6225 0.27102-3.2805 0.12936z"/>
<path d="m220.05 94.395c-4.2211-0.31618-5.7087-0.59216-7.3974-1.3724-4.0875-1.8885-6.6643-5.3442-7.4463-9.986-0.26584-1.5779-0.36032-30.784-0.0996-30.783 0.10103 4.22e-4 0.91462 0.15485 1.808 0.34321 3.3463 0.7056 8.1202 1.294 11.742 1.4473 1.9496 0.08251 2.0716 0.07222 2.1474-0.18099 0.14533-0.48529 0.68462-3.4672 0.63562-3.5146-0.0264-0.02547-1.0966-0.11732-2.3784-0.20404-4.3712-0.29572-7.6869-0.75231-11.498-1.5834-2.8278-0.61658-2.5883-0.43808-2.4654-1.8376 0.40001-4.5554 2.4889-8.1865 5.9506-10.344 2.0108-1.2532 3.7864-1.7883 6.8167-2.0541 1.5031-0.13186 10.518-0.22182 10.518-0.10496 0 0.02544-0.16104 0.4426-0.35787 0.92699-0.73853 1.8175-0.96714 3.144-0.96417 5.5944 2e-3 1.8374 0.0629 2.5238 0.32448 3.6715 0.31047 1.3623 1.0947 3.7436 1.2328 3.7436 0.13231 0 5.3444-0.88091 5.3768-0.90875 0.0182-0.01564-0.19231-0.56285-0.4678-1.2161-0.27549-0.6532-0.6668-1.7929-0.86958-2.5328-0.32598-1.1893-0.36955-1.6151-0.37606-3.6756-8e-3 -2.4273 0.0917-3.0481 0.7846-4.9l0.28857-0.77127 9.8373 0.06137c9.2981 0.05801 9.9108 0.07742 11.179 0.35416 1.7088 0.37287 2.7827 0.75061 3.9355 1.3843 3.0875 1.6971 5.2058 4.4029 6.1588 7.8669l0.32846 1.1939-1.5038 0.09646c-6.1994 0.39763-12.424 1.5609-17.951 3.3548-1.8528 0.6013-4.6785 1.6599-5.2999 1.9854l-0.36243 0.18989 1.5822 1.4069c0.87018 0.77382 1.6911 1.4854 1.8243 1.5812 0.20266 0.14582 0.61251 0.02577 2.5118-0.73565 3.4666-1.3898 6.8941-2.4059 10.683-3.1673 2.8985-0.58237 8.5974-1.28 8.8003-1.0772 0.13191 0.13182 0.21816 27.505 0.0937 29.73l-0.0985 1.7611-0.30179-0.36115c-0.16598-0.19862-1.0009-1.2121-1.8554-2.2522-3.0196-3.6754-8.1092-8.6093-12.033-11.665-2.9251-2.2778-7.3973-5.2078-10.091-6.6112l-0.79668-0.41506-1.8516 1.7421c-1.0184 0.95818-1.8508 1.7812-1.8498 1.829 1e-3 0.0478 0.49354 0.37116 1.0946 0.7186 7.2212 4.1741 14.331 10.589 19.807 17.871 1.2788 1.7006 3.7085 5.339 4.6469 6.9587l0.59478 1.0266-0.27558 0.3858c-0.47709 0.66791-2.045 2.0934-2.914 2.6493-1.943 1.2429-3.8565 1.8768-6.6421 2.2005-0.97146 0.11289-6.1745 0.17381-16.666 0.19514-8.3897 0.01714-15.54 0.0094-15.89-0.01661zm2.3717-4.7957c2.2809-0.46878 4.377-1.6996 5.6762-3.3331l0.63838-0.80263 0.0788 3.6533h6.5028l-0.0471-10.063c-0.0462-9.873-0.053-10.085-0.35923-11.193-1.0475-3.7917-3.3773-6.084-7.203-7.0872-1.8929-0.49634-5.3305-0.61439-7.59-0.26064-2.5443 0.39835-4.7025 1.1844-6.535 2.3803-1.1419 0.74516-2.2904 1.7454-2.2904 1.9946 0 0.09955 0.83295 0.98211 1.851 1.9612l1.851 1.7802 0.65601-0.54555c2.6362-2.1923 6.9019-2.986 9.9396-1.8494 2.0744 0.77615 3.2161 2.3904 3.2161 4.5475v0.8218l-2.8601 1.46e-4c-7.1074 4.21e-4 -11.662 1.2405-14.321 3.8988-2.7513 2.7513-3.0136 7.8351-0.55608 10.777 1.4296 1.7111 3.8627 3.0137 6.4376 3.4466 0.93984 0.158 3.902 0.08209 4.914-0.12588zm-2.1599-5.237c-2.0968-0.45144-3.2493-1.3746-3.5858-2.8721-0.44594-1.9847 1.0648-3.6026 4.0096-4.2938 1.5852-0.37206 2.9522-0.49967 5.4024-0.50433l2.2952-4e-3v1.3121c0 3.5398-1.5664 5.5568-4.8408 6.2332-1.0029 0.20716-2.6225 0.27102-3.2805 0.12936z" stroke-width="1.5"/>
<path d="m220.05 94.395c-4.2211-0.31618-5.7087-0.59216-7.3974-1.3724-4.0875-1.8885-6.6643-5.3442-7.4463-9.986-0.26584-1.5779-0.36032-30.784-0.0996-30.783 0.10103 4.22e-4 0.91462 0.15485 1.808 0.34321 3.3463 0.7056 8.1202 1.294 11.742 1.4473 1.9496 0.08251 2.0716 0.07222 2.1474-0.18099 0.14533-0.48529 0.68462-3.4672 0.63562-3.5146-0.0264-0.02547-1.0966-0.11732-2.3784-0.20404-4.3712-0.29572-7.6869-0.75231-11.498-1.5834-2.8278-0.61658-2.5883-0.43808-2.4654-1.8376 0.40001-4.5554 2.4889-8.1865 5.9506-10.344 2.0108-1.2532 3.7864-1.7883 6.8167-2.0541 1.5031-0.13186 10.518-0.22182 10.518-0.10496 0 0.02544-0.16104 0.4426-0.35787 0.92699-0.73853 1.8175-0.96714 3.144-0.96417 5.5944 2e-3 1.8374 0.0629 2.5238 0.32448 3.6715 0.31047 1.3623 1.0947 3.7436 1.2328 3.7436 0.13231 0 5.3444-0.88091 5.3768-0.90875 0.0182-0.01564-0.19231-0.56285-0.4678-1.2161-0.27549-0.6532-0.6668-1.7929-0.86958-2.5328-0.32598-1.1893-0.36955-1.6151-0.37606-3.6756-8e-3 -2.4273 0.0917-3.0481 0.7846-4.9l0.28857-0.77127 9.8373 0.06137c9.2981 0.05801 9.9108 0.07742 11.179 0.35416 1.7088 0.37287 2.7827 0.75061 3.9355 1.3843 3.0875 1.6971 5.2058 4.4029 6.1588 7.8669l0.32846 1.1939-1.5038 0.09646c-6.1994 0.39763-12.424 1.5609-17.951 3.3548-1.8528 0.6013-4.6785 1.6599-5.2999 1.9854l-0.36243 0.18989 1.5822 1.4069c0.87018 0.77382 1.6911 1.4854 1.8243 1.5812 0.20266 0.14582 0.61251 0.02577 2.5118-0.73565 3.4666-1.3898 6.8941-2.4059 10.683-3.1673 2.8985-0.58237 8.5974-1.28 8.8003-1.0772 0.13191 0.13182 0.21816 27.505 0.0937 29.73l-0.0985 1.7611-0.30179-0.36115c-0.16598-0.19862-1.0009-1.2121-1.8554-2.2522-3.0196-3.6754-8.1092-8.6093-12.033-11.665-2.9251-2.2778-7.3973-5.2078-10.091-6.6112l-0.79668-0.41506-1.8516 1.7421c-1.0184 0.95818-1.8508 1.7812-1.8498 1.829 1e-3 0.0478 0.49354 0.37116 1.0946 0.7186 7.2212 4.1741 14.331 10.589 19.807 17.871 1.2788 1.7006 3.7085 5.339 4.6469 6.9587l0.59478 1.0266-0.27558 0.3858c-0.47709 0.66791-2.045 2.0934-2.914 2.6493-1.943 1.2429-3.8565 1.8768-6.6421 2.2005-0.97146 0.11289-6.1745 0.17381-16.666 0.19514-8.3897 0.01714-15.54 0.0094-15.89-0.01661zm2.3717-4.7957c2.2809-0.46878 4.377-1.6996 5.6762-3.3331l0.63838-0.80263 0.0788 3.6533h6.5028l-0.0471-10.063c-0.0462-9.873-0.053-10.085-0.35923-11.193-1.0475-3.7917-3.3773-6.084-7.203-7.0872-1.8929-0.49634-5.3305-0.61439-7.59-0.26064-2.5443 0.39835-4.7025 1.1844-6.535 2.3803-1.1419 0.74516-2.2904 1.7454-2.2904 1.9946 0 0.09955 0.83295 0.98211 1.851 1.9612l1.851 1.7802 0.65601-0.54555c2.6362-2.1923 6.9019-2.986 9.9396-1.8494 2.0744 0.77615 3.2161 2.3904 3.2161 4.5475v0.8218l-2.8601 1.46e-4c-7.1074 4.21e-4 -11.662 1.2405-14.321 3.8988-2.7513 2.7513-3.0136 7.8351-0.55608 10.777 1.4296 1.7111 3.8627 3.0137 6.4376 3.4466 0.93984 0.158 3.902 0.08209 4.914-0.12588zm-2.1599-5.237c-2.0968-0.45144-3.2493-1.3746-3.5858-2.8721-0.44594-1.9847 1.0648-3.6026 4.0096-4.2938 1.5852-0.37206 2.9522-0.49967 5.4024-0.50433l2.2952-4e-3v1.3121c0 3.5398-1.5664 5.5568-4.8408 6.2332-1.0029 0.20716-2.6225 0.27102-3.2805 0.12936z" stroke-width="2"/>
<path d="m220.05 94.395c-4.2211-0.31618-5.7087-0.59216-7.3974-1.3724-4.0875-1.8885-6.6643-5.3442-7.4463-9.986-0.26584-1.5779-0.36032-30.784-0.0996-30.783 0.10103 4.22e-4 0.91462 0.15485 1.808 0.34321 3.3463 0.7056 8.1202 1.294 11.742 1.4473 1.9496 0.08251 2.0716 0.07222 2.1474-0.18099 0.14533-0.48529 0.68462-3.4672 0.63562-3.5146-0.0264-0.02547-1.0966-0.11732-2.3784-0.20404-4.3712-0.29572-7.6869-0.75231-11.498-1.5834-2.8278-0.61658-2.5883-0.43808-2.4654-1.8376 0.40001-4.5554 2.4889-8.1865 5.9506-10.344 2.0108-1.2532 3.7864-1.7883 6.8167-2.0541 1.5031-0.13186 10.518-0.22182 10.518-0.10496 0 0.02544-0.16104 0.4426-0.35787 0.92699-0.73853 1.8175-0.96714 3.144-0.96417 5.5944 2e-3 1.8374 0.0629 2.5238 0.32448 3.6715 0.31047 1.3623 1.0947 3.7436 1.2328 3.7436 0.13231 0 5.3444-0.88091 5.3768-0.90875 0.0182-0.01564-0.19231-0.56285-0.4678-1.2161-0.27549-0.6532-0.6668-1.7929-0.86958-2.5328-0.32598-1.1893-0.36955-1.6151-0.37606-3.6756-8e-3 -2.4273 0.0917-3.0481 0.7846-4.9l0.28857-0.77127 9.8373 0.06137c9.2981 0.05801 9.9108 0.07742 11.179 0.35416 1.7088 0.37287 2.7827 0.75061 3.9355 1.3843 3.0875 1.6971 5.2058 4.4029 6.1588 7.8669l0.32846 1.1939-1.5038 0.09646c-6.1994 0.39763-12.424 1.5609-17.951 3.3548-1.8528 0.6013-4.6785 1.6599-5.2999 1.9854l-0.36243 0.18989 1.5822 1.4069c0.87018 0.77382 1.6911 1.4854 1.8243 1.5812 0.20266 0.14582 0.61251 0.02577 2.5118-0.73565 3.4666-1.3898 6.8941-2.4059 10.683-3.1673 2.8985-0.58237 8.5974-1.28 8.8003-1.0772 0.13191 0.13182 0.21816 27.505 0.0937 29.73l-0.0985 1.7611-0.30179-0.36115c-0.16598-0.19862-1.0009-1.2121-1.8554-2.2522-3.0196-3.6754-8.1092-8.6093-12.033-11.665-2.9251-2.2778-7.3973-5.2078-10.091-6.6112l-0.79668-0.41506-1.8516 1.7421c-1.0184 0.95818-1.8508 1.7812-1.8498 1.829 1e-3 0.0478 0.49354 0.37116 1.0946 0.7186 7.2212 4.1741 14.331 10.589 19.807 17.871 1.2788 1.7006 3.7085 5.339 4.6469 6.9587l0.59478 1.0266-0.27558 0.3858c-0.47709 0.66791-2.045 2.0934-2.914 2.6493-1.943 1.2429-3.8565 1.8768-6.6421 2.2005-0.97146 0.11289-6.1745 0.17381-16.666 0.19514-8.3897 0.01714-15.54 0.0094-15.89-0.01661zm2.3717-4.7957c2.2809-0.46878 4.377-1.6996 5.6762-3.3331l0.63838-0.80263 0.0788 3.6533h6.5028l-0.0471-10.063c-0.0462-9.873-0.053-10.085-0.35923-11.193-1.0475-3.7917-3.3773-6.084-7.203-7.0872-1.8929-0.49634-5.3305-0.61439-7.59-0.26064-2.5443 0.39835-4.7025 1.1844-6.535 2.3803-1.1419 0.74516-2.2904 1.7454-2.2904 1.9946 0 0.09955 0.83295 0.98211 1.851 1.9612l1.851 1.7802 0.65601-0.54555c2.6362-2.1923 6.9019-2.986 9.9396-1.8494 2.0744 0.77615 3.2161 2.3904 3.2161 4.5475v0.8218l-2.8601 1.46e-4c-7.1074 4.21e-4 -11.662 1.2405-14.321 3.8988-2.7513 2.7513-3.0136 7.8351-0.55608 10.777 1.4296 1.7111 3.8627 3.0137 6.4376 3.4466 0.93984 0.158 3.902 0.08209 4.914-0.12588zm-2.1599-5.237c-2.0968-0.45144-3.2493-1.3746-3.5858-2.8721-0.44594-1.9847 1.0648-3.6026 4.0096-4.2938 1.5852-0.37206 2.9522-0.49967 5.4024-0.50433l2.2952-4e-3v1.3121c0 3.5398-1.5664 5.5568-4.8408 6.2332-1.0029 0.20716-2.6225 0.27102-3.2805 0.12936z" stroke-width="3"/>
<path d="m220.05 94.395c-4.2211-0.31618-5.7087-0.59216-7.3974-1.3724-4.0875-1.8885-6.6643-5.3442-7.4463-9.986-0.26584-1.5779-0.36032-30.784-0.0996-30.783 0.10103 4.22e-4 0.91462 0.15485 1.808 0.34321 3.3463 0.7056 8.1202 1.294 11.742 1.4473 1.9496 0.08251 2.0716 0.07222 2.1474-0.18099 0.14533-0.48529 0.68462-3.4672 0.63562-3.5146-0.0264-0.02547-1.0966-0.11732-2.3784-0.20404-4.3712-0.29572-7.6869-0.75231-11.498-1.5834-2.8278-0.61658-2.5883-0.43808-2.4654-1.8376 0.40001-4.5554 2.4889-8.1865 5.9506-10.344 2.0108-1.2532 3.7864-1.7883 6.8167-2.0541 1.5031-0.13186 10.518-0.22182 10.518-0.10496 0 0.02544-0.16104 0.4426-0.35787 0.92699-0.73853 1.8175-0.96714 3.144-0.96417 5.5944 2e-3 1.8374 0.0629 2.5238 0.32448 3.6715 0.31047 1.3623 1.0947 3.7436 1.2328 3.7436 0.13231 0 5.3444-0.88091 5.3768-0.90875 0.0182-0.01564-0.19231-0.56285-0.4678-1.2161-0.27549-0.6532-0.6668-1.7929-0.86958-2.5328-0.32598-1.1893-0.36955-1.6151-0.37606-3.6756-8e-3 -2.4273 0.0917-3.0481 0.7846-4.9l0.28857-0.77127 9.8373 0.06137c9.2981 0.05801 9.9108 0.07742 11.179 0.35416 1.7088 0.37287 2.7827 0.75061 3.9355 1.3843 3.0875 1.6971 5.2058 4.4029 6.1588 7.8669l0.32846 1.1939-1.5038 0.09646c-6.1994 0.39763-12.424 1.5609-17.951 3.3548-1.8528 0.6013-4.6785 1.6599-5.2999 1.9854l-0.36243 0.18989 1.5822 1.4069c0.87018 0.77382 1.6911 1.4854 1.8243 1.5812 0.20266 0.14582 0.61251 0.02577 2.5118-0.73565 3.4666-1.3898 6.8941-2.4059 10.683-3.1673 2.8985-0.58237 8.5974-1.28 8.8003-1.0772 0.13191 0.13182 0.21816 27.505 0.0937 29.73l-0.0985 1.7611-0.30179-0.36115c-0.16598-0.19862-1.0009-1.2121-1.8554-2.2522-3.0196-3.6754-8.1092-8.6093-12.033-11.665-2.9251-2.2778-7.3973-5.2078-10.091-6.6112l-0.79668-0.41506-1.8516 1.7421c-1.0184 0.95818-1.8508 1.7812-1.8498 1.829 1e-3 0.0478 0.49354 0.37116 1.0946 0.7186 7.2212 4.1741 14.331 10.589 19.807 17.871 1.2788 1.7006 3.7085 5.339 4.6469 6.9587l0.59478 1.0266-0.27558 0.3858c-0.47709 0.66791-2.045 2.0934-2.914 2.6493-1.943 1.2429-3.8565 1.8768-6.6421 2.2005-0.97146 0.11289-6.1745 0.17381-16.666 0.19514-8.3897 0.01714-15.54 0.0094-15.89-0.01661zm2.3717-4.7957c2.2809-0.46878 4.377-1.6996 5.6762-3.3331l0.63838-0.80263 0.0788 3.6533h6.5028l-0.0471-10.063c-0.0462-9.873-0.053-10.085-0.35923-11.193-1.0475-3.7917-3.3773-6.084-7.203-7.0872-1.8929-0.49634-5.3305-0.61439-7.59-0.26064-2.5443 0.39835-4.7025 1.1844-6.535 2.3803-1.1419 0.74516-2.2904 1.7454-2.2904 1.9946 0 0.09955 0.83295 0.98211 1.851 1.9612l1.851 1.7802 0.65601-0.54555c2.6362-2.1923 6.9019-2.986 9.9396-1.8494 2.0744 0.77615 3.2161 2.3904 3.2161 4.5475v0.8218l-2.8601 1.46e-4c-7.1074 4.21e-4 -11.662 1.2405-14.321 3.8988-2.7513 2.7513-3.0136 7.8351-0.55608 10.777 1.4296 1.7111 3.8627 3.0137 6.4376 3.4466 0.93984 0.158 3.902 0.08209 4.914-0.12588zm-2.1599-5.237c-2.0968-0.45144-3.2493-1.3746-3.5858-2.8721-0.44594-1.9847 1.0648-3.6026 4.0096-4.2938 1.5852-0.37206 2.9522-0.49967 5.4024-0.50433l2.2952-4e-3v1.3121c0 3.5398-1.5664 5.5568-4.8408 6.2332-1.0029 0.20716-2.6225 0.27102-3.2805 0.12936z" stroke-width="4"/>
<path d="m220.05 94.395c-4.2211-0.31618-5.7087-0.59216-7.3974-1.3724-4.0875-1.8885-6.6643-5.3442-7.4463-9.986-0.26584-1.5779-0.36032-30.784-0.0996-30.783 0.10103 4.22e-4 0.91462 0.15485 1.808 0.34321 3.3463 0.7056 8.1202 1.294 11.742 1.4473 1.9496 0.08251 2.0716 0.07222 2.1474-0.18099 0.14533-0.48529 0.68462-3.4672 0.63562-3.5146-0.0264-0.02547-1.0966-0.11732-2.3784-0.20404-4.3712-0.29572-7.6869-0.75231-11.498-1.5834-2.8278-0.61658-2.5883-0.43808-2.4654-1.8376 0.40001-4.5554 2.4889-8.1865 5.9506-10.344 2.0108-1.2532 3.7864-1.7883 6.8167-2.0541 1.5031-0.13186 10.518-0.22182 10.518-0.10496 0 0.02544-0.16104 0.4426-0.35787 0.92699-0.73853 1.8175-0.96714 3.144-0.96417 5.5944 2e-3 1.8374 0.0629 2.5238 0.32448 3.6715 0.31047 1.3623 1.0947 3.7436 1.2328 3.7436 0.13231 0 5.3444-0.88091 5.3768-0.90875 0.0182-0.01564-0.19231-0.56285-0.4678-1.2161-0.27549-0.6532-0.6668-1.7929-0.86958-2.5328-0.32598-1.1893-0.36955-1.6151-0.37606-3.6756-8e-3 -2.4273 0.0917-3.0481 0.7846-4.9l0.28857-0.77127 9.8373 0.06137c9.2981 0.05801 9.9108 0.07742 11.179 0.35416 1.7088 0.37287 2.7827 0.75061 3.9355 1.3843 3.0875 1.6971 5.2058 4.4029 6.1588 7.8669l0.32846 1.1939-1.5038 0.09646c-6.1994 0.39763-12.424 1.5609-17.951 3.3548-1.8528 0.6013-4.6785 1.6599-5.2999 1.9854l-0.36243 0.18989 1.5822 1.4069c0.87018 0.77382 1.6911 1.4854 1.8243 1.5812 0.20266 0.14582 0.61251 0.02577 2.5118-0.73565 3.4666-1.3898 6.8941-2.4059 10.683-3.1673 2.8985-0.58237 8.5974-1.28 8.8003-1.0772 0.13191 0.13182 0.21816 27.505 0.0937 29.73l-0.0985 1.7611-0.30179-0.36115c-0.16598-0.19862-1.0009-1.2121-1.8554-2.2522-3.0196-3.6754-8.1092-8.6093-12.033-11.665-2.9251-2.2778-7.3973-5.2078-10.091-6.6112l-0.79668-0.41506-1.8516 1.7421c-1.0184 0.95818-1.8508 1.7812-1.8498 1.829 1e-3 0.0478 0.49354 0.37116 1.0946 0.7186 7.2212 4.1741 14.331 10.589 19.807 17.871 1.2788 1.7006 3.7085 5.339 4.6469 6.9587l0.59478 1.0266-0.27558 0.3858c-0.47709 0.66791-2.045 2.0934-2.914 2.6493-1.943 1.2429-3.8565 1.8768-6.6421 2.2005-0.97146 0.11289-6.1745 0.17381-16.666 0.19514-8.3897 0.01714-15.54 0.0094-15.89-0.01661zm2.3717-4.7957c2.2809-0.46878 4.377-1.6996 5.6762-3.3331l0.63838-0.80263 0.0788 3.6533h6.5028l-0.0471-10.063c-0.0462-9.873-0.053-10.085-0.35923-11.193-1.0475-3.7917-3.3773-6.084-7.203-7.0872-1.8929-0.49634-5.3305-0.61439-7.59-0.26064-2.5443 0.39835-4.7025 1.1844-6.535 2.3803-1.1419 0.74516-2.2904 1.7454-2.2904 1.9946 0 0.09955 0.83295 0.98211 1.851 1.9612l1.851 1.7802 0.65601-0.54555c2.6362-2.1923 6.9019-2.986 9.9396-1.8494 2.0744 0.77615 3.2161 2.3904 3.2161 4.5475v0.8218l-2.8601 1.46e-4c-7.1074 4.21e-4 -11.662 1.2405-14.321 3.8988-2.7513 2.7513-3.0136 7.8351-0.55608 10.777 1.4296 1.7111 3.8627 3.0137 6.4376 3.4466 0.93984 0.158 3.902 0.08209 4.914-0.12588zm-2.1599-5.237c-2.0968-0.45144-3.2493-1.3746-3.5858-2.8721-0.44594-1.9847 1.0648-3.6026 4.0096-4.2938 1.5852-0.37206 2.9522-0.49967 5.4024-0.50433l2.2952-4e-3v1.3121c0 3.5398-1.5664 5.5568-4.8408 6.2332-1.0029 0.20716-2.6225 0.27102-3.2805 0.12936z" stroke-width="6"/>
<path d="m220.05 94.395c-4.2211-0.31618-5.7087-0.59216-7.3974-1.3724-4.0875-1.8885-6.6643-5.3442-7.4463-9.986-0.26584-1.5779-0.36032-30.784-0.0996-30.783 0.10103 4.22e-4 0.91462 0.15485 1.808 0.34321 3.3463 0.7056 8.1202 1.294 11.742 1.4473 1.9496 0.08251 2.0716 0.07222 2.1474-0.18099 0.14533-0.48529 0.68462-3.4672 0.63562-3.5146-0.0264-0.02547-1.0966-0.11732-2.3784-0.20404-4.3712-0.29572-7.6869-0.75231-11.498-1.5834-2.8278-0.61658-2.5883-0.43808-2.4654-1.8376 0.40001-4.5554 2.4889-8.1865 5.9506-10.344 2.0108-1.2532 3.7864-1.7883 6.8167-2.0541 1.5031-0.13186 10.518-0.22182 10.518-0.10496 0 0.02544-0.16104 0.4426-0.35787 0.92699-0.73853 1.8175-0.96714 3.144-0.96417 5.5944 2e-3 1.8374 0.0629 2.5238 0.32448 3.6715 0.31047 1.3623 1.0947 3.7436 1.2328 3.7436 0.13231 0 5.3444-0.88091 5.3768-0.90875 0.0182-0.01564-0.19231-0.56285-0.4678-1.2161-0.27549-0.6532-0.6668-1.7929-0.86958-2.5328-0.32598-1.1893-0.36955-1.6151-0.37606-3.6756-8e-3 -2.4273 0.0917-3.0481 0.7846-4.9l0.28857-0.77127 9.8373 0.06137c9.2981 0.05801 9.9108 0.07742 11.179 0.35416 1.7088 0.37287 2.7827 0.75061 3.9355 1.3843 3.0875 1.6971 5.2058 4.4029 6.1588 7.8669l0.32846 1.1939-1.5038 0.09646c-6.1994 0.39763-12.424 1.5609-17.951 3.3548-1.8528 0.6013-4.6785 1.6599-5.2999 1.9854l-0.36243 0.18989 1.5822 1.4069c0.87018 0.77382 1.6911 1.4854 1.8243 1.5812 0.20266 0.14582 0.61251 0.02577 2.5118-0.73565 3.4666-1.3898 6.8941-2.4059 10.683-3.1673 2.8985-0.58237 8.5974-1.28 8.8003-1.0772 0.13191 0.13182 0.21816 27.505 0.0937 29.73l-0.0985 1.7611-0.30179-0.36115c-0.16598-0.19862-1.0009-1.2121-1.8554-2.2522-3.0196-3.6754-8.1092-8.6093-12.033-11.665-2.9251-2.2778-7.3973-5.2078-10.091-6.6112l-0.79668-0.41506-1.8516 1.7421c-1.0184 0.95818-1.8508 1.7812-1.8498 1.829 1e-3 0.0478 0.49354 0.37116 1.0946 0.7186 7.2212 4.1741 14.331 10.589 19.807 17.871 1.2788 1.7006 3.7085 5.339 4.6469 6.9587l0.59478 1.0266-0.27558 0.3858c-0.47709 0.66791-2.045 2.0934-2.914 2.6493-1.943 1.2429-3.8565 1.8768-6.6421 2.2005-0.97146 0.11289-6.1745 0.17381-16.666 0.19514-8.3897 0.01714-15.54 0.0094-15.89-0.01661zm2.3717-4.7957c2.2809-0.46878 4.377-1.6996 5.6762-3.3331l0.63838-0.80263 0.0788 3.6533h6.5028l-0.0471-10.063c-0.0462-9.873-0.053-10.085-0.35923-11.193-1.0475-3.7917-3.3773-6.084-7.203-7.0872-1.8929-0.49634-5.3305-0.61439-7.59-0.26064-2.5443 0.39835-4.7025 1.1844-6.535 2.3803-1.1419 0.74516-2.2904 1.7454-2.2904 1.9946 0 0.09955 0.83295 0.98211 1.851 1.9612l1.851 1.7802 0.65601-0.54555c2.6362-2.1923 6.9019-2.986 9.9396-1.8494 2.0744 0.77615 3.2161 2.3904 3.2161 4.5475v0.8218l-2.8601 1.46e-4c-7.1074 4.21e-4 -11.662 1.2405-14.321 3.8988-2.7513 2.7513-3.0136 7.8351-0.55608 10.777 1.4296 1.7111 3.8627 3.0137 6.4376 3.4466 0.93984 0.158 3.902 0.08209 4.914-0.12588zm-2.1599-5.237c-2.0968-0.45144-3.2493-1.3746-3.5858-2.8721-0.44594-1.9847 1.0648-3.6026 4.0096-4.2938 1.5852-0.37206 2.9522-0.49967 5.4024-0.50433l2.2952-4e-3v1.3121c0 3.5398-1.5664 5.5568-4.8408 6.2332-1.0029 0.20716-2.6225 0.27102-3.2805 0.12936z" stroke-width="8"/>
</g>
<path d="m48.549 94.395c-4.2211-0.31618-5.7087-0.59216-7.3974-1.3724-4.0875-1.8885-6.6643-5.3442-7.4463-9.986-0.26584-1.5779-0.36032-30.784-0.09958-30.783 0.10103 4.22e-4 0.91462 0.15485 1.808 0.34321 3.3463 0.7056 8.1202 1.294 11.742 1.4473 1.9496 0.08251 2.0716 0.07222 2.1474-0.18099 0.14534-0.48529 0.68462-3.4672 0.63563-3.5146-0.02635-0.02547-1.0966-0.11732-2.3784-0.20404-4.3712-0.29572-7.6869-0.75231-11.498-1.5834-2.8278-0.61658-2.5883-0.43808-2.4654-1.8376 0.40001-4.5554 2.4889-8.1865 5.9506-10.344 2.0108-1.2532 3.7865-1.7883 6.8167-2.0541 1.5031-0.13186 10.518-0.22182 10.518-0.10496 0 0.02544-0.16104 0.4426-0.35787 0.92699-0.73853 1.8175-0.96714 3.144-0.96417 5.5944 0.0023 1.8374 0.0629 2.5238 0.32448 3.6715 0.31047 1.3623 1.0947 3.7436 1.2328 3.7436 0.13231 0 5.3444-0.88091 5.3768-0.90875 0.01821-0.01564-0.19231-0.56285-0.4678-1.2161-0.27549-0.6532-0.6668-1.7929-0.86958-2.5328-0.32598-1.1893-0.36955-1.6151-0.37606-3.6756-0.0076-2.4273 0.09173-3.0481 0.7846-4.9l0.28857-0.77127 9.8373 0.06137c9.2981 0.05801 9.9108 0.07742 11.179 0.35416 1.7088 0.37287 2.7827 0.75061 3.9355 1.3843 3.0875 1.6971 5.2058 4.4029 6.1588 7.8669l0.32847 1.1939-1.5039 0.09646c-6.1994 0.39763-12.424 1.5609-17.951 3.3548-1.8528 0.6013-4.6785 1.6599-5.2999 1.9854l-0.36242 0.18989 1.5822 1.4069c0.87018 0.77382 1.6911 1.4854 1.8243 1.5812 0.20266 0.14582 0.61251 0.02577 2.5118-0.73565 3.4666-1.3898 6.8941-2.4059 10.683-3.1673 2.8985-0.58237 8.5974-1.28 8.8003-1.0772 0.13191 0.13182 0.21816 27.505 0.09369 29.73l-0.0985 1.7611-0.30178-0.36115c-0.16598-0.19862-1.0009-1.2121-1.8554-2.2522-3.0196-3.6754-8.1092-8.6093-12.033-11.665-2.9251-2.2778-7.3973-5.2078-10.091-6.6112l-0.79668-0.41506-1.8516 1.7421c-1.0184 0.95818-1.8508 1.7812-1.8498 1.829 0.0012 0.0478 0.49353 0.37116 1.0946 0.7186 7.2212 4.1741 14.331 10.589 19.807 17.871 1.2788 1.7006 3.7085 5.339 4.6469 6.9587l0.59478 1.0266-0.27558 0.3858c-0.47709 0.66791-2.045 2.0934-2.914 2.6493-1.943 1.2429-3.8565 1.8768-6.6421 2.2005-0.97146 0.11289-6.1745 0.17381-16.666 0.19514-8.3897 0.01714-15.54 0.0094-15.89-0.01661zm2.3717-4.7957c2.2809-0.46878 4.377-1.6996 5.6762-3.3331l0.63838-0.80263 0.07882 3.6533h6.5028l-0.04708-10.063c-0.04622-9.873-0.053-10.085-0.35923-11.193-1.0475-3.7917-3.3773-6.084-7.203-7.0872-1.8929-0.49634-5.3305-0.61439-7.59-0.26064-2.5443 0.39835-4.7025 1.1844-6.535 2.3803-1.1419 0.74516-2.2904 1.7454-2.2904 1.9946 0 0.09955 0.83295 0.98211 1.851 1.9612l1.851 1.7802 0.65601-0.54555c2.6362-2.1923 6.9019-2.986 9.9397-1.8494 2.0744 0.77615 3.2161 2.3904 3.2161 4.5475v0.8218l-2.8601 1.46e-4c-7.1074 4.21e-4 -11.662 1.2405-14.321 3.8988-2.7513 2.7513-3.0136 7.8351-0.55607 10.777 1.4296 1.7111 3.8627 3.0137 6.4376 3.4466 0.93984 0.158 3.902 0.08209 4.914-0.12588zm-2.1599-5.237c-2.0969-0.45144-3.2493-1.3746-3.5858-2.8721-0.44594-1.9847 1.0648-3.6026 4.0095-4.2938 1.5852-0.37206 2.9522-0.49967 5.4024-0.50433l2.2952-4e-3v1.3121c0 3.5398-1.5664 5.5568-4.8409 6.2332-1.0029 0.20716-2.6225 0.27102-3.2805 0.12936z" fill="#fff" stroke-width=".14124"/>
</svg>
