<svg width="136.53" height="136.53" version="1.1" viewBox="0 0 136.53 136.53" xmlns="http://www.w3.org/2000/svg" xmlns:xlink="http://www.w3.org/1999/xlink">
<defs>
<linearGradient id="linearGradient4186" x1="30.858" x2="116.88" y1="16.587" y2="116.38" gradientUnits="userSpaceOnUse">
<stop stop-color="#f5f5f5" offset="0"/>
<stop stop-color="#ebeae6" offset="1"/>
</linearGradient>
<linearGradient id="linearGradient4319" x1="66.281" x2="64.944" y1="128.62" y2="16.578" gradientUnits="userSpaceOnUse">
<stop stop-color="#ae0adf" offset="0"/>
<stop stop-color="#f44eb8" offset="1"/>
</linearGradient>
<clipPath>
<rect width="384" height="384"/>
</clipPath>
<clipPath>
<rect width="384" height="384"/>
</clipPath>
<clipPath>
<rect width="384" height="384"/>
</clipPath>
<clipPath>
<rect width="384" height="384"/>
</clipPath>
<clipPath>
<rect width="384" height="384"/>
</clipPath>
</defs>
<circle cx="68.953" cy="68.366" r="64.022" fill="url(#linearGradient4319)" stroke="url(#linearGradient4186)" stroke-width="6"/>
<path d="m96.021 36.136a5.6018 5.6018 0 0 0-5.6018 5.6018 5.6018 5.6018 0 0 0 1.0163 3.1996l-14.107 18.809a12.187 12.187 0 0 0-7.4593-2.5675 12.187 12.187 0 0 0-1.3226 0.08267l-4.9794-12.448a4.8316 4.8316 0 0 0 1.9645-3.8853 4.8316 4.8316 0 0 0-4.8286-4.8286 4.8316 4.8316 0 0 0-4.8335 4.8286 4.8316 4.8316 0 0 0 4.8335 4.8335 4.8316 4.8316 0 0 0 0.54948-0.0389l4.8286 12.074a12.187 12.187 0 0 0-8.3978 11.568 12.187 12.187 0 0 0 0.22368 2.2855l-11.461 4.9113a5.4918 5.4918 0 0 0-4.6682-2.6161 5.4918 5.4918 0 0 0-5.4948 5.4948 5.4918 5.4918 0 0 0 5.4948 5.49 5.4918 5.4918 0 0 0 5.49-5.49 5.4918 5.4918 0 0 0-0.02918-0.51544l11.388-4.8821a12.187 12.187 0 0 0 11.242 7.508 12.187 12.187 0 0 0 6.8126-2.091l7.8824 9.8518a5.4918 5.4918 0 0 0-0.30635 1.7895 5.4918 5.4918 0 0 0 5.49 5.4948 5.4918 5.4918 0 0 0 5.4948-5.4948 5.4918 5.4918 0 0 0-5.4948-5.49 5.4918 5.4918 0 0 0-3.7588 1.4928l-7.3961-9.2439a12.187 12.187 0 0 0 3.4622-8.4951 12.187 12.187 0 0 0-2.9079-7.8824l14.141-18.857a5.6018 5.6018 0 0 0 2.7328 0.71481 5.6018 5.6018 0 0 0 5.6018-5.6018 5.6018 5.6018 0 0 0-5.6018-5.6018z" fill="none" stroke="#000" stroke-opacity=".098859" stroke-width="2.49"/>
<path d="m96.021 36.136a5.6018 5.6018 0 0 0-5.6018 5.6018 5.6018 5.6018 0 0 0 1.0163 3.1996l-14.107 18.809a12.187 12.187 0 0 0-7.4593-2.5675 12.187 12.187 0 0 0-1.3226 0.08267l-4.9794-12.448a4.8316 4.8316 0 0 0 1.9645-3.8853 4.8316 4.8316 0 0 0-4.8286-4.8286 4.8316 4.8316 0 0 0-4.8335 4.8286 4.8316 4.8316 0 0 0 4.8335 4.8335 4.8316 4.8316 0 0 0 0.54948-0.0389l4.8286 12.074a12.187 12.187 0 0 0-8.3978 11.568 12.187 12.187 0 0 0 0.22368 2.2855l-11.461 4.9113a5.4918 5.4918 0 0 0-4.6682-2.6161 5.4918 5.4918 0 0 0-5.4948 5.4948 5.4918 5.4918 0 0 0 5.4948 5.49 5.4918 5.4918 0 0 0 5.49-5.49 5.4918 5.4918 0 0 0-0.02918-0.51544l11.388-4.8821a12.187 12.187 0 0 0 11.242 7.508 12.187 12.187 0 0 0 6.8126-2.091l7.8824 9.8518a5.4918 5.4918 0 0 0-0.30635 1.7895 5.4918 5.4918 0 0 0 5.49 5.4948 5.4918 5.4918 0 0 0 5.4948-5.4948 5.4918 5.4918 0 0 0-5.4948-5.49 5.4918 5.4918 0 0 0-3.7588 1.4928l-7.3961-9.2439a12.187 12.187 0 0 0 3.4622-8.4951 12.187 12.187 0 0 0-2.9079-7.8824l14.141-18.857a5.6018 5.6018 0 0 0 2.7328 0.71481 5.6018 5.6018 0 0 0 5.6018-5.6018 5.6018 5.6018 0 0 0-5.6018-5.6018z" fill="#fff" stroke-width="2.4897"/>
</svg>
