<svg width="128" height="128" version="1.1" viewBox="0 0 33.867 33.867" xmlns="http://www.w3.org/2000/svg" xmlns:xlink="http://www.w3.org/1999/xlink">
<defs>
<radialGradient id="radialGradient886" cx="17.31" cy="2.5296" r="14.544" gradientTransform="matrix(7.1618 0 0 1.7511 -106.66 -1.9)" gradientUnits="userSpaceOnUse">
<stop stop-color="#50ceff" offset="0"/>
<stop stop-color="#3471fc" offset="1"/>
</radialGradient>
<linearGradient id="linearGradient1642" x1=".66803" x2=".66803" y1="16.701" y2="103.31" gradientUnits="userSpaceOnUse">
<stop stop-color="#fffffe" offset="0"/>
<stop stop-color="#3471fc" offset="1"/>
</linearGradient>
</defs>
<g transform="matrix(.97573 0 0 .97573 -65.587 -37.192)" fill="none" opacity=".29676" stroke="#000" stroke-linecap="round" stroke-linejoin="round" stroke-opacity=".02">
<rect x="69.84" y="40.71" width="29.811" height="29.811" rx="6.6099" ry="6.6099" stroke-width=".1"/>
<rect x="69.84" y="40.71" width="29.811" height="29.811" rx="6.6099" ry="6.6099" stroke-width=".2"/>
<rect x="69.84" y="40.71" width="29.811" height="29.811" rx="6.6099" ry="6.6099" stroke-width=".3"/>
<rect x="69.84" y="40.71" width="29.811" height="29.811" rx="6.6099" ry="6.6099" stroke-width=".4"/>
<rect x="69.84" y="40.71" width="29.811" height="29.811" rx="6.6099" ry="6.6099" stroke-width=".5"/>
<rect x="69.84" y="40.71" width="29.811" height="29.811" rx="6.6099" ry="6.6099" stroke-width=".6"/>
<rect x="69.84" y="40.71" width="29.811" height="29.811" rx="6.6099" ry="6.6099" stroke-width=".7"/>
<rect x="69.84" y="40.71" width="29.811" height="29.811" rx="6.6099" ry="6.6099" stroke-width=".8"/>
<rect x="69.84" y="40.71" width="29.811" height="29.811" rx="6.6099" ry="6.6099"/>
<rect x="69.84" y="40.71" width="29.811" height="29.811" rx="6.6099" ry="6.6099" stroke-width="1.2"/>
<rect x="69.84" y="40.71" width="29.811" height="29.811" rx="6.6099" ry="6.6099" stroke-width="1.4"/>
<rect x="69.84" y="40.71" width="29.811" height="29.811" rx="6.6099" ry="6.6099" stroke-width="1.6"/>
<rect x="69.84" y="40.71" width="29.811" height="29.811" rx="6.6099" ry="6.6099" stroke-width="1.8"/>
<rect x="69.84" y="40.71" width="29.811" height="29.811" rx="6.6099" ry="6.6099" stroke-width="2"/>
<rect x="69.84" y="40.71" width="29.811" height="29.811" rx="6.6099" ry="6.6099" stroke-width="2.2"/>
<rect x="69.84" y="40.71" width="29.811" height="29.811" rx="6.6099" ry="6.6099" stroke-width="2.6"/>
<rect x="69.84" y="40.71" width="29.811" height="29.811" rx="6.6099" ry="6.6099" stroke-width="3"/>
<rect x="69.84" y="40.71" width="29.811" height="29.811" rx="6.6099" ry="6.6099" stroke-width="3.4"/>
<rect x="69.84" y="40.71" width="29.811" height="29.811" rx="6.6099" ry="6.6099" stroke-width="3.8"/>
<rect x="69.84" y="40.71" width="29.811" height="29.811" rx="6.6099" ry="6.6099" stroke-width="4.2"/>
<rect x="69.84" y="40.71" width="29.811" height="29.811" rx="6.6099" ry="6.6099" stroke-width="4.6"/>
<rect x="69.84" y="40.71" width="29.811" height="29.811" rx="6.6099" ry="6.6099" stroke-width="5"/>
</g>
<rect x="2.5579" y="2.5293" width="29.087" height="29.087" rx="6.4495" ry="6.4495" fill="url(#radialGradient886)" stroke-linecap="round" stroke-linejoin="round" stroke-width="2.6877"/>
<g transform="matrix(.5313 0 0 .5313 8.4605 6.2964)" fill="#0300bb" fill-opacity=".048814" stroke="#fff" stroke-width="4">
<path d="m9.9136 10.877a2.3117 2.3117 0 0 0-2.1933 1.5805l-6.933 20.787a2.3115 2.3115 0 0 0 1.4609 2.9257 2.3115 2.3115 0 0 0 2.9238-1.4628l4.7416-14.213 4.7426 14.213a2.3115 2.3115 0 0 0 2.9238 1.4628 2.3115 2.3115 0 0 0 1.4609-2.9257l-6.9339-20.787a2.3117 2.3117 0 0 0-2.1933-1.5805zm27.739 0a2.3115 2.3115 0 0 0-2.3129 2.311v20.789a2.3115 2.3115 0 0 0 2.3129 2.31 2.3115 2.3115 0 0 0 2.31-2.31v-20.789a2.3115 2.3115 0 0 0-2.31-2.311zm-21.029 0.01167a2.3115 2.3115 0 0 0-0.50577 0.10796 2.3115 2.3115 0 0 0-1.4609 2.9218l6.9339 20.818a2.3117 2.3117 0 0 0 4.3866 0l6.933-20.818a2.3115 2.3115 0 0 0-1.4628-2.9218 2.3115 2.3115 0 0 0-2.9238 1.4609l-4.7397 14.235-4.7426-14.235a2.3115 2.3115 0 0 0-2.418-1.5689z" color="#000000" fill="#0300bb" fill-opacity=".048814" stroke="none" style="-inkscape-stroke:none"/>
</g>
<g transform="matrix(.5313 0 0 .5313 6.3082 4.5356)" fill="url(#linearGradient1642)" stroke="#fff" stroke-width="4">
<path d="m9.9136 10.877a2.3117 2.3117 0 0 0-2.1933 1.5805l-6.933 20.787a2.3115 2.3115 0 0 0 1.4609 2.9257 2.3115 2.3115 0 0 0 2.9238-1.4628l4.7416-14.213 4.7426 14.213a2.3115 2.3115 0 0 0 2.9238 1.4628 2.3115 2.3115 0 0 0 1.4609-2.9257l-6.9339-20.787a2.3117 2.3117 0 0 0-2.1933-1.5805zm27.739 0a2.3115 2.3115 0 0 0-2.3129 2.311v20.789a2.3115 2.3115 0 0 0 2.3129 2.31 2.3115 2.3115 0 0 0 2.31-2.31v-20.789a2.3115 2.3115 0 0 0-2.31-2.311zm-21.029 0.01167a2.3115 2.3115 0 0 0-0.50577 0.10796 2.3115 2.3115 0 0 0-1.4609 2.9218l6.9339 20.818a2.3117 2.3117 0 0 0 4.3866 0l6.933-20.818a2.3115 2.3115 0 0 0-1.4628-2.9218 2.3115 2.3115 0 0 0-2.9238 1.4609l-4.7397 14.235-4.7426-14.235a2.3115 2.3115 0 0 0-2.418-1.5689z" color="#000000" fill="url(#linearGradient1642)" stroke="none" style="-inkscape-stroke:none"/>
</g>
<g transform="matrix(.5313 0 0 .5313 7.692 5.972)" fill="#0300bb" fill-opacity=".047138" stroke="#fff" stroke-width="4">
<path d="m9.9136 10.877a2.3117 2.3117 0 0 0-2.1933 1.5805l-6.933 20.787a2.3115 2.3115 0 0 0 1.4609 2.9257 2.3115 2.3115 0 0 0 2.9238-1.4628l4.7416-14.213 4.7426 14.213a2.3115 2.3115 0 0 0 2.9238 1.4628 2.3115 2.3115 0 0 0 1.4609-2.9257l-6.9339-20.787a2.3117 2.3117 0 0 0-2.1933-1.5805zm27.739 0a2.3115 2.3115 0 0 0-2.3129 2.311v20.789a2.3115 2.3115 0 0 0 2.3129 2.31 2.3115 2.3115 0 0 0 2.31-2.31v-20.789a2.3115 2.3115 0 0 0-2.31-2.311zm-21.029 0.01167a2.3115 2.3115 0 0 0-0.50577 0.10796 2.3115 2.3115 0 0 0-1.4609 2.9218l6.9339 20.818a2.3117 2.3117 0 0 0 4.3866 0l6.933-20.818a2.3115 2.3115 0 0 0-1.4628-2.9218 2.3115 2.3115 0 0 0-2.9238 1.4609l-4.7397 14.235-4.7426-14.235a2.3115 2.3115 0 0 0-2.418-1.5689z" color="#000000" fill="#0300bb" fill-opacity=".047138" stroke="none" style="-inkscape-stroke:none"/>
</g>
</svg>
