<svg width="128" height="128" version="1.1" viewBox="0 0 33.867 33.867" xmlns="http://www.w3.org/2000/svg" xmlns:xlink="http://www.w3.org/1999/xlink">
<defs>
<linearGradient id="linearGradient936" x1="-27.206" x2="-27.206" y1="-1.3796" y2="25.268" gradientTransform="translate(43.871 5.6852)" gradientUnits="userSpaceOnUse">
<stop stop-color="#f5f9fb" offset="0"/>
<stop stop-color="#f9fafc" offset="1"/>
</linearGradient>
<linearGradient id="linearGradient1751" x1="20.346" x2="16.055" y1="25.304" y2="8.4658" gradientUnits="userSpaceOnUse">
<stop stop-color="#22bb5e" offset="0"/>
<stop stop-color="#06b8b4" offset="1"/>
</linearGradient>
</defs>
<g transform="matrix(.97573 0 0 .97573 -65.748 -37.203)" fill="none" opacity=".29677" stroke="#000" stroke-linecap="round" stroke-linejoin="round" stroke-opacity=".02">
<rect x="69.84" y="40.71" width="29.811" height="29.811" rx="6.6099" ry="6.6099" stroke-width=".1"/>
<rect x="69.84" y="40.71" width="29.811" height="29.811" rx="6.6099" ry="6.6099" stroke-width=".2"/>
<rect x="69.84" y="40.71" width="29.811" height="29.811" rx="6.6099" ry="6.6099" stroke-width=".3"/>
<rect x="69.84" y="40.71" width="29.811" height="29.811" rx="6.6099" ry="6.6099" stroke-width=".4"/>
<rect x="69.84" y="40.71" width="29.811" height="29.811" rx="6.6099" ry="6.6099" stroke-width=".5"/>
<rect x="69.84" y="40.71" width="29.811" height="29.811" rx="6.6099" ry="6.6099" stroke-width=".6"/>
<rect x="69.84" y="40.71" width="29.811" height="29.811" rx="6.6099" ry="6.6099" stroke-width=".7"/>
<rect x="69.84" y="40.71" width="29.811" height="29.811" rx="6.6099" ry="6.6099" stroke-width=".8"/>
<rect x="69.84" y="40.71" width="29.811" height="29.811" rx="6.6099" ry="6.6099"/>
<rect x="69.84" y="40.71" width="29.811" height="29.811" rx="6.6099" ry="6.6099" stroke-width="1.2"/>
<rect x="69.84" y="40.71" width="29.811" height="29.811" rx="6.6099" ry="6.6099" stroke-width="1.4"/>
<rect x="69.84" y="40.71" width="29.811" height="29.811" rx="6.6099" ry="6.6099" stroke-width="1.6"/>
<rect x="69.84" y="40.71" width="29.811" height="29.811" rx="6.6099" ry="6.6099" stroke-width="1.8"/>
<rect x="69.84" y="40.71" width="29.811" height="29.811" rx="6.6099" ry="6.6099" stroke-width="2"/>
<rect x="69.84" y="40.71" width="29.811" height="29.811" rx="6.6099" ry="6.6099" stroke-width="2.2"/>
<rect x="69.84" y="40.71" width="29.811" height="29.811" rx="6.6099" ry="6.6099" stroke-width="2.6"/>
<rect x="69.84" y="40.71" width="29.811" height="29.811" rx="6.6099" ry="6.6099" stroke-width="3"/>
<rect x="69.84" y="40.71" width="29.811" height="29.811" rx="6.6099" ry="6.6099" stroke-width="3.4"/>
<rect x="69.84" y="40.71" width="29.811" height="29.811" rx="6.6099" ry="6.6099" stroke-width="3.8"/>
<rect x="69.84" y="40.71" width="29.811" height="29.811" rx="6.6099" ry="6.6099" stroke-width="4.2"/>
<rect x="69.84" y="40.71" width="29.811" height="29.811" rx="6.6099" ry="6.6099" stroke-width="4.6"/>
<rect x="69.84" y="40.71" width="29.811" height="29.811" rx="6.6099" ry="6.6099" stroke-width="5"/>
</g>
<rect x="2.3963" y="2.5186" width="29.087" height="29.087" rx="6.4495" ry="6.4495" fill="url(#linearGradient936)" stroke-linecap="round" stroke-linejoin="round" stroke-width="2.6877"/>
<path d="m16.737 8.4006c-0.22837 0.00383-0.45711 0.026439-0.68179 0.06523-1.854 0.56452-3.1253 2.1811-4.0861 3.7783-1.5124 2.6739-2.4599 5.7632-2.2659 8.8565 0.28603 3.1614 2.9195 5.9065 6.0631 6.3252 0.3461 0.04573 0.69502 0.05173 1.0436 0.05434 3.2519 0.11252 6.3363-2.3593 6.9996-5.5363 0.47562-2.2833-0.053667-4.6495-0.7874-6.819-0.88599-2.3676-2.1525-4.7823-4.3361-6.1885-0.5795-0.39027-1.264-0.54714-1.9491-0.53577zm0.1988 5.3932c0.561 0.04864 1.1095 0.36584 1.4723 0.80132 1.1905 1.3078 1.8831 3.0653 1.9817 4.825 0.20806 1.7171-1.0344 3.4206-2.7101 3.8078-1.3242 0.32764-2.7804-0.15469-3.6295-1.2253-0.87668-0.99999-0.90983-2.4128-0.65849-3.651 0.38839-1.6346 1.1153-3.354 2.5594-4.3219 0.30743-0.19686 0.64803-0.26524 0.98463-0.23605z" opacity=".1" stroke-width=".59636"/>
<path d="m16.737 7.8043c-0.22837 0.00383-0.45711 0.026439-0.68179 0.06523-1.854 0.56452-3.1253 2.1811-4.0861 3.7783-1.5124 2.6739-2.4599 5.7632-2.2659 8.8565 0.28603 3.1614 2.9195 5.9065 6.0631 6.3252 0.3461 0.04573 0.69502 0.05173 1.0436 0.05436 3.2519 0.11252 6.3363-2.3593 6.9996-5.5363 0.47562-2.2833-0.05367-4.6495-0.7874-6.819-0.88599-2.3676-2.1525-4.7823-4.3361-6.1885-0.5795-0.39027-1.264-0.54714-1.9491-0.53577zm0.1988 5.3932c0.561 0.04864 1.1095 0.36584 1.4723 0.80132 1.1905 1.3078 1.8831 3.0653 1.9817 4.825 0.20806 1.7171-1.0344 3.4206-2.7101 3.8078-1.3242 0.32764-2.7804-0.15469-3.6295-1.2253-0.87668-0.99999-0.90983-2.4128-0.65849-3.651 0.38839-1.6346 1.1153-3.354 2.5594-4.3219 0.30743-0.19686 0.64803-0.26524 0.98463-0.23605z" fill="url(#linearGradient1751)" stroke-width=".59636"/>
</svg>
