<svg width="128" height="128" version="1.1" viewBox="0 0 128 128" xmlns="http://www.w3.org/2000/svg" xmlns:xlink="http://www.w3.org/1999/xlink">
<defs>
<linearGradient id="linearGradient825" x1="-741.83" x2="-741.83" y1="959.05" y2="93.836" gradientTransform="matrix(.13668 0 0 .13668 162.31 -5.9893)" gradientUnits="userSpaceOnUse">
<stop stop-color="#ccd4da" offset="0"/>
<stop stop-color="#fff" offset="1"/>
</linearGradient>
<linearGradient id="linearGradient835" x1="-738.76" x2="-738.76" y1="931.43" y2="152.13" gradientTransform="matrix(.13668 0 0 .13668 162.31 -5.9893)" gradientUnits="userSpaceOnUse">
<stop stop-color="#dfe3e8" offset="0"/>
<stop stop-color="#fefeff" offset="1"/>
</linearGradient>
<linearGradient id="linearGradient4590" x1="59.249" x2="66.57" y1="85.675" y2="54.683" gradientTransform="matrix(2.0643 0 0 2.0643 -64.359 -69.04)" gradientUnits="userSpaceOnUse">
<stop stop-color="#ff009f" offset="0"/>
<stop stop-color="#ff46ff" offset="1"/>
</linearGradient>
</defs>
<circle cx="63.592" cy="64.286" r="61.38" fill="url(#linearGradient825)"/>
<circle cx="63.592" cy="64.286" r="55.09" fill="url(#linearGradient835)"/>
<g transform="translate(-121.42)" fill="none" opacity=".213" stroke="#ff009f" stroke-linecap="round" stroke-linejoin="round" stroke-opacity=".02">
<path d="m204.09 43.291-8.3985 12.696-8.6806-12.696h17.079m-9.7318 15.599h-18.632l9.3139 35.429 9.3161-35.429m-18.01-2.0808h17.383l-8.7022-12.715-8.7022 12.715m-1.9558-0.82283 8.6807-12.696h-17.077l8.3985 12.696m8.6807 39.009-9.4906-36.097h-20.448l29.939 36.097m-29.908-38.178h19.285l-8.4006-12.698-10.878 12.698m52.868-12.676-8.3856 12.676h19.253l-10.856-12.676m-9.5207 14.755-9.4906 36.095 29.906-36.095h-20.414" stroke-width=".05"/>
<path d="m204.09 43.291-8.3985 12.696-8.6806-12.696h17.079m-9.7318 15.599h-18.632l9.3139 35.429 9.3161-35.429m-18.01-2.0808h17.383l-8.7022-12.715-8.7022 12.715m-1.9558-0.82283 8.6807-12.696h-17.077l8.3985 12.696m8.6807 39.009-9.4906-36.097h-20.448l29.939 36.097m-29.908-38.178h19.285l-8.4006-12.698-10.878 12.698m52.868-12.676-8.3856 12.676h19.253l-10.856-12.676m-9.5207 14.755-9.4906 36.095 29.906-36.095h-20.414" stroke-width=".1"/>
<path d="m204.09 43.291-8.3985 12.696-8.6806-12.696h17.079m-9.7318 15.599h-18.632l9.3139 35.429 9.3161-35.429m-18.01-2.0808h17.383l-8.7022-12.715-8.7022 12.715m-1.9558-0.82283 8.6807-12.696h-17.077l8.3985 12.696m8.6807 39.009-9.4906-36.097h-20.448l29.939 36.097m-29.908-38.178h19.285l-8.4006-12.698-10.878 12.698m52.868-12.676-8.3856 12.676h19.253l-10.856-12.676m-9.5207 14.755-9.4906 36.095 29.906-36.095h-20.414" stroke-width=".2"/>
<path d="m204.09 43.291-8.3985 12.696-8.6806-12.696h17.079m-9.7318 15.599h-18.632l9.3139 35.429 9.3161-35.429m-18.01-2.0808h17.383l-8.7022-12.715-8.7022 12.715m-1.9558-0.82283 8.6807-12.696h-17.077l8.3985 12.696m8.6807 39.009-9.4906-36.097h-20.448l29.939 36.097m-29.908-38.178h19.285l-8.4006-12.698-10.878 12.698m52.868-12.676-8.3856 12.676h19.253l-10.856-12.676m-9.5207 14.755-9.4906 36.095 29.906-36.095h-20.414" stroke-width=".25"/>
<path d="m204.09 43.291-8.3985 12.696-8.6806-12.696h17.079m-9.7318 15.599h-18.632l9.3139 35.429 9.3161-35.429m-18.01-2.0808h17.383l-8.7022-12.715-8.7022 12.715m-1.9558-0.82283 8.6807-12.696h-17.077l8.3985 12.696m8.6807 39.009-9.4906-36.097h-20.448l29.939 36.097m-29.908-38.178h19.285l-8.4006-12.698-10.878 12.698m52.868-12.676-8.3856 12.676h19.253l-10.856-12.676m-9.5207 14.755-9.4906 36.095 29.906-36.095h-20.414" stroke-width=".3"/>
<path d="m204.09 43.291-8.3985 12.696-8.6806-12.696h17.079m-9.7318 15.599h-18.632l9.3139 35.429 9.3161-35.429m-18.01-2.0808h17.383l-8.7022-12.715-8.7022 12.715m-1.9558-0.82283 8.6807-12.696h-17.077l8.3985 12.696m8.6807 39.009-9.4906-36.097h-20.448l29.939 36.097m-29.908-38.178h19.285l-8.4006-12.698-10.878 12.698m52.868-12.676-8.3856 12.676h19.253l-10.856-12.676m-9.5207 14.755-9.4906 36.095 29.906-36.095h-20.414" stroke-width=".35"/>
<path d="m204.09 43.291-8.3985 12.696-8.6806-12.696h17.079m-9.7318 15.599h-18.632l9.3139 35.429 9.3161-35.429m-18.01-2.0808h17.383l-8.7022-12.715-8.7022 12.715m-1.9558-0.82283 8.6807-12.696h-17.077l8.3985 12.696m8.6807 39.009-9.4906-36.097h-20.448l29.939 36.097m-29.908-38.178h19.285l-8.4006-12.698-10.878 12.698m52.868-12.676-8.3856 12.676h19.253l-10.856-12.676m-9.5207 14.755-9.4906 36.095 29.906-36.095h-20.414" stroke-width=".4"/>
<path d="m204.09 43.291-8.3985 12.696-8.6806-12.696h17.079m-9.7318 15.599h-18.632l9.3139 35.429 9.3161-35.429m-18.01-2.0808h17.383l-8.7022-12.715-8.7022 12.715m-1.9558-0.82283 8.6807-12.696h-17.077l8.3985 12.696m8.6807 39.009-9.4906-36.097h-20.448l29.939 36.097m-29.908-38.178h19.285l-8.4006-12.698-10.878 12.698m52.868-12.676-8.3856 12.676h19.253l-10.856-12.676m-9.5207 14.755-9.4906 36.095 29.906-36.095h-20.414" stroke-width=".45"/>
<path d="m204.09 43.291-8.3985 12.696-8.6806-12.696h17.079m-9.7318 15.599h-18.632l9.3139 35.429 9.3161-35.429m-18.01-2.0808h17.383l-8.7022-12.715-8.7022 12.715m-1.9558-0.82283 8.6807-12.696h-17.077l8.3985 12.696m8.6807 39.009-9.4906-36.097h-20.448l29.939 36.097m-29.908-38.178h19.285l-8.4006-12.698-10.878 12.698m52.868-12.676-8.3856 12.676h19.253l-10.856-12.676m-9.5207 14.755-9.4906 36.095 29.906-36.095h-20.414" stroke-width=".5"/>
<path d="m204.09 43.291-8.3985 12.696-8.6806-12.696h17.079m-9.7318 15.599h-18.632l9.3139 35.429 9.3161-35.429m-18.01-2.0808h17.383l-8.7022-12.715-8.7022 12.715m-1.9558-0.82283 8.6807-12.696h-17.077l8.3985 12.696m8.6807 39.009-9.4906-36.097h-20.448l29.939 36.097m-29.908-38.178h19.285l-8.4006-12.698-10.878 12.698m52.868-12.676-8.3856 12.676h19.253l-10.856-12.676m-9.5207 14.755-9.4906 36.095 29.906-36.095h-20.414" stroke-width=".55"/>
<path d="m204.09 43.291-8.3985 12.696-8.6806-12.696h17.079m-9.7318 15.599h-18.632l9.3139 35.429 9.3161-35.429m-18.01-2.0808h17.383l-8.7022-12.715-8.7022 12.715m-1.9558-0.82283 8.6807-12.696h-17.077l8.3985 12.696m8.6807 39.009-9.4906-36.097h-20.448l29.939 36.097m-29.908-38.178h19.285l-8.4006-12.698-10.878 12.698m52.868-12.676-8.3856 12.676h19.253l-10.856-12.676m-9.5207 14.755-9.4906 36.095 29.906-36.095h-20.414" stroke-width=".6"/>
<path d="m204.09 43.291-8.3985 12.696-8.6806-12.696h17.079m-9.7318 15.599h-18.632l9.3139 35.429 9.3161-35.429m-18.01-2.0808h17.383l-8.7022-12.715-8.7022 12.715m-1.9558-0.82283 8.6807-12.696h-17.077l8.3985 12.696m8.6807 39.009-9.4906-36.097h-20.448l29.939 36.097m-29.908-38.178h19.285l-8.4006-12.698-10.878 12.698m52.868-12.676-8.3856 12.676h19.253l-10.856-12.676m-9.5207 14.755-9.4906 36.095 29.906-36.095h-20.414" stroke-width=".65"/>
<path d="m204.09 43.291-8.3985 12.696-8.6806-12.696h17.079m-9.7318 15.599h-18.632l9.3139 35.429 9.3161-35.429m-18.01-2.0808h17.383l-8.7022-12.715-8.7022 12.715m-1.9558-0.82283 8.6807-12.696h-17.077l8.3985 12.696m8.6807 39.009-9.4906-36.097h-20.448l29.939 36.097m-29.908-38.178h19.285l-8.4006-12.698-10.878 12.698m52.868-12.676-8.3856 12.676h19.253l-10.856-12.676m-9.5207 14.755-9.4906 36.095 29.906-36.095h-20.414" stroke-width=".7"/>
<path d="m204.09 43.291-8.3985 12.696-8.6806-12.696h17.079m-9.7318 15.599h-18.632l9.3139 35.429 9.3161-35.429m-18.01-2.0808h17.383l-8.7022-12.715-8.7022 12.715m-1.9558-0.82283 8.6807-12.696h-17.077l8.3985 12.696m8.6807 39.009-9.4906-36.097h-20.448l29.939 36.097m-29.908-38.178h19.285l-8.4006-12.698-10.878 12.698m52.868-12.676-8.3856 12.676h19.253l-10.856-12.676m-9.5207 14.755-9.4906 36.095 29.906-36.095h-20.414" stroke-width=".75"/>
<path d="m204.09 43.291-8.3985 12.696-8.6806-12.696h17.079m-9.7318 15.599h-18.632l9.3139 35.429 9.3161-35.429m-18.01-2.0808h17.383l-8.7022-12.715-8.7022 12.715m-1.9558-0.82283 8.6807-12.696h-17.077l8.3985 12.696m8.6807 39.009-9.4906-36.097h-20.448l29.939 36.097m-29.908-38.178h19.285l-8.4006-12.698-10.878 12.698m52.868-12.676-8.3856 12.676h19.253l-10.856-12.676m-9.5207 14.755-9.4906 36.095 29.906-36.095h-20.414" stroke-width=".8"/>
<path d="m204.09 43.291-8.3985 12.696-8.6806-12.696h17.079m-9.7318 15.599h-18.632l9.3139 35.429 9.3161-35.429m-18.01-2.0808h17.383l-8.7022-12.715-8.7022 12.715m-1.9558-0.82283 8.6807-12.696h-17.077l8.3985 12.696m8.6807 39.009-9.4906-36.097h-20.448l29.939 36.097m-29.908-38.178h19.285l-8.4006-12.698-10.878 12.698m52.868-12.676-8.3856 12.676h19.253l-10.856-12.676m-9.5207 14.755-9.4906 36.095 29.906-36.095h-20.414" stroke-width=".85"/>
<path d="m204.09 43.291-8.3985 12.696-8.6806-12.696h17.079m-9.7318 15.599h-18.632l9.3139 35.429 9.3161-35.429m-18.01-2.0808h17.383l-8.7022-12.715-8.7022 12.715m-1.9558-0.82283 8.6807-12.696h-17.077l8.3985 12.696m8.6807 39.009-9.4906-36.097h-20.448l29.939 36.097m-29.908-38.178h19.285l-8.4006-12.698-10.878 12.698m52.868-12.676-8.3856 12.676h19.253l-10.856-12.676m-9.5207 14.755-9.4906 36.095 29.906-36.095h-20.414" stroke-width=".9"/>
<path d="m204.09 43.291-8.3985 12.696-8.6806-12.696h17.079m-9.7318 15.599h-18.632l9.3139 35.429 9.3161-35.429m-18.01-2.0808h17.383l-8.7022-12.715-8.7022 12.715m-1.9558-0.82283 8.6807-12.696h-17.077l8.3985 12.696m8.6807 39.009-9.4906-36.097h-20.448l29.939 36.097m-29.908-38.178h19.285l-8.4006-12.698-10.878 12.698m52.868-12.676-8.3856 12.676h19.253l-10.856-12.676m-9.5207 14.755-9.4906 36.095 29.906-36.095h-20.414" stroke-width=".95"/>
<path d="m204.09 43.291-8.3985 12.696-8.6806-12.696h17.079m-9.7318 15.599h-18.632l9.3139 35.429 9.3161-35.429m-18.01-2.0808h17.383l-8.7022-12.715-8.7022 12.715m-1.9558-0.82283 8.6807-12.696h-17.077l8.3985 12.696m8.6807 39.009-9.4906-36.097h-20.448l29.939 36.097m-29.908-38.178h19.285l-8.4006-12.698-10.878 12.698m52.868-12.676-8.3856 12.676h19.253l-10.856-12.676m-9.5207 14.755-9.4906 36.095 29.906-36.095h-20.414"/>
<path d="m204.09 43.291-8.3985 12.696-8.6806-12.696h17.079m-9.7318 15.599h-18.632l9.3139 35.429 9.3161-35.429m-18.01-2.0808h17.383l-8.7022-12.715-8.7022 12.715m-1.9558-0.82283 8.6807-12.696h-17.077l8.3985 12.696m8.6807 39.009-9.4906-36.097h-20.448l29.939 36.097m-29.908-38.178h19.285l-8.4006-12.698-10.878 12.698m52.868-12.676-8.3856 12.676h19.253l-10.856-12.676m-9.5207 14.755-9.4906 36.095 29.906-36.095h-20.414" stroke-width="1.1"/>
<path d="m204.09 43.291-8.3985 12.696-8.6806-12.696h17.079m-9.7318 15.599h-18.632l9.3139 35.429 9.3161-35.429m-18.01-2.0808h17.383l-8.7022-12.715-8.7022 12.715m-1.9558-0.82283 8.6807-12.696h-17.077l8.3985 12.696m8.6807 39.009-9.4906-36.097h-20.448l29.939 36.097m-29.908-38.178h19.285l-8.4006-12.698-10.878 12.698m52.868-12.676-8.3856 12.676h19.253l-10.856-12.676m-9.5207 14.755-9.4906 36.095 29.906-36.095h-20.414" stroke-width="1.2"/>
<path d="m204.09 43.291-8.3985 12.696-8.6806-12.696h17.079m-9.7318 15.599h-18.632l9.3139 35.429 9.3161-35.429m-18.01-2.0808h17.383l-8.7022-12.715-8.7022 12.715m-1.9558-0.82283 8.6807-12.696h-17.077l8.3985 12.696m8.6807 39.009-9.4906-36.097h-20.448l29.939 36.097m-29.908-38.178h19.285l-8.4006-12.698-10.878 12.698m52.868-12.676-8.3856 12.676h19.253l-10.856-12.676m-9.5207 14.755-9.4906 36.095 29.906-36.095h-20.414" stroke-width="1.3"/>
<path d="m204.09 43.291-8.3985 12.696-8.6806-12.696h17.079m-9.7318 15.599h-18.632l9.3139 35.429 9.3161-35.429m-18.01-2.0808h17.383l-8.7022-12.715-8.7022 12.715m-1.9558-0.82283 8.6807-12.696h-17.077l8.3985 12.696m8.6807 39.009-9.4906-36.097h-20.448l29.939 36.097m-29.908-38.178h19.285l-8.4006-12.698-10.878 12.698m52.868-12.676-8.3856 12.676h19.253l-10.856-12.676m-9.5207 14.755-9.4906 36.095 29.906-36.095h-20.414" stroke-width="1.4"/>
<path d="m204.09 43.291-8.3985 12.696-8.6806-12.696h17.079m-9.7318 15.599h-18.632l9.3139 35.429 9.3161-35.429m-18.01-2.0808h17.383l-8.7022-12.715-8.7022 12.715m-1.9558-0.82283 8.6807-12.696h-17.077l8.3985 12.696m8.6807 39.009-9.4906-36.097h-20.448l29.939 36.097m-29.908-38.178h19.285l-8.4006-12.698-10.878 12.698m52.868-12.676-8.3856 12.676h19.253l-10.856-12.676m-9.5207 14.755-9.4906 36.095 29.906-36.095h-20.414" stroke-width="1.5"/>
<path d="m204.09 43.291-8.3985 12.696-8.6806-12.696h17.079m-9.7318 15.599h-18.632l9.3139 35.429 9.3161-35.429m-18.01-2.0808h17.383l-8.7022-12.715-8.7022 12.715m-1.9558-0.82283 8.6807-12.696h-17.077l8.3985 12.696m8.6807 39.009-9.4906-36.097h-20.448l29.939 36.097m-29.908-38.178h19.285l-8.4006-12.698-10.878 12.698m52.868-12.676-8.3856 12.676h19.253l-10.856-12.676m-9.5207 14.755-9.4906 36.095 29.906-36.095h-20.414" stroke-width="1.6"/>
<path d="m204.09 43.291-8.3985 12.696-8.6806-12.696h17.079m-9.7318 15.599h-18.632l9.3139 35.429 9.3161-35.429m-18.01-2.0808h17.383l-8.7022-12.715-8.7022 12.715m-1.9558-0.82283 8.6807-12.696h-17.077l8.3985 12.696m8.6807 39.009-9.4906-36.097h-20.448l29.939 36.097m-29.908-38.178h19.285l-8.4006-12.698-10.878 12.698m52.868-12.676-8.3856 12.676h19.253l-10.856-12.676m-9.5207 14.755-9.4906 36.095 29.906-36.095h-20.414" stroke-width="1.8"/>
<path d="m204.09 43.291-8.3985 12.696-8.6806-12.696h17.079m-9.7318 15.599h-18.632l9.3139 35.429 9.3161-35.429m-18.01-2.0808h17.383l-8.7022-12.715-8.7022 12.715m-1.9558-0.82283 8.6807-12.696h-17.077l8.3985 12.696m8.6807 39.009-9.4906-36.097h-20.448l29.939 36.097m-29.908-38.178h19.285l-8.4006-12.698-10.878 12.698m52.868-12.676-8.3856 12.676h19.253l-10.856-12.676m-9.5207 14.755-9.4906 36.095 29.906-36.095h-20.414" stroke-width="1.9"/>
<path d="m204.09 43.291-8.3985 12.696-8.6806-12.696h17.079m-9.7318 15.599h-18.632l9.3139 35.429 9.3161-35.429m-18.01-2.0808h17.383l-8.7022-12.715-8.7022 12.715m-1.9558-0.82283 8.6807-12.696h-17.077l8.3985 12.696m8.6807 39.009-9.4906-36.097h-20.448l29.939 36.097m-29.908-38.178h19.285l-8.4006-12.698-10.878 12.698m52.868-12.676-8.3856 12.676h19.253l-10.856-12.676m-9.5207 14.755-9.4906 36.095 29.906-36.095h-20.414" stroke-width="2"/>
<path d="m204.09 43.291-8.3985 12.696-8.6806-12.696h17.079m-9.7318 15.599h-18.632l9.3139 35.429 9.3161-35.429m-18.01-2.0808h17.383l-8.7022-12.715-8.7022 12.715m-1.9558-0.82283 8.6807-12.696h-17.077l8.3985 12.696m8.6807 39.009-9.4906-36.097h-20.448l29.939 36.097m-29.908-38.178h19.285l-8.4006-12.698-10.878 12.698m52.868-12.676-8.3856 12.676h19.253l-10.856-12.676m-9.5207 14.755-9.4906 36.095 29.906-36.095h-20.414" stroke-width="2.1"/>
<path d="m204.09 43.291-8.3985 12.696-8.6806-12.696h17.079m-9.7318 15.599h-18.632l9.3139 35.429 9.3161-35.429m-18.01-2.0808h17.383l-8.7022-12.715-8.7022 12.715m-1.9558-0.82283 8.6807-12.696h-17.077l8.3985 12.696m8.6807 39.009-9.4906-36.097h-20.448l29.939 36.097m-29.908-38.178h19.285l-8.4006-12.698-10.878 12.698m52.868-12.676-8.3856 12.676h19.253l-10.856-12.676m-9.5207 14.755-9.4906 36.095 29.906-36.095h-20.414" stroke-width="2.2"/>
<path d="m204.09 43.291-8.3985 12.696-8.6806-12.696h17.079m-9.7318 15.599h-18.632l9.3139 35.429 9.3161-35.429m-18.01-2.0808h17.383l-8.7022-12.715-8.7022 12.715m-1.9558-0.82283 8.6807-12.696h-17.077l8.3985 12.696m8.6807 39.009-9.4906-36.097h-20.448l29.939 36.097m-29.908-38.178h19.285l-8.4006-12.698-10.878 12.698m52.868-12.676-8.3856 12.676h19.253l-10.856-12.676m-9.5207 14.755-9.4906 36.095 29.906-36.095h-20.414" stroke-width="2.3"/>
<path d="m204.09 43.291-8.3985 12.696-8.6806-12.696h17.079m-9.7318 15.599h-18.632l9.3139 35.429 9.3161-35.429m-18.01-2.0808h17.383l-8.7022-12.715-8.7022 12.715m-1.9558-0.82283 8.6807-12.696h-17.077l8.3985 12.696m8.6807 39.009-9.4906-36.097h-20.448l29.939 36.097m-29.908-38.178h19.285l-8.4006-12.698-10.878 12.698m52.868-12.676-8.3856 12.676h19.253l-10.856-12.676m-9.5207 14.755-9.4906 36.095 29.906-36.095h-20.414" stroke-width="2.4"/>
<path d="m204.09 43.291-8.3985 12.696-8.6806-12.696h17.079m-9.7318 15.599h-18.632l9.3139 35.429 9.3161-35.429m-18.01-2.0808h17.383l-8.7022-12.715-8.7022 12.715m-1.9558-0.82283 8.6807-12.696h-17.077l8.3985 12.696m8.6807 39.009-9.4906-36.097h-20.448l29.939 36.097m-29.908-38.178h19.285l-8.4006-12.698-10.878 12.698m52.868-12.676-8.3856 12.676h19.253l-10.856-12.676m-9.5207 14.755-9.4906 36.095 29.906-36.095h-20.414" stroke-width="2.5"/>
<path d="m204.09 43.291-8.3985 12.696-8.6806-12.696h17.079m-9.7318 15.599h-18.632l9.3139 35.429 9.3161-35.429m-18.01-2.0808h17.383l-8.7022-12.715-8.7022 12.715m-1.9558-0.82283 8.6807-12.696h-17.077l8.3985 12.696m8.6807 39.009-9.4906-36.097h-20.448l29.939 36.097m-29.908-38.178h19.285l-8.4006-12.698-10.878 12.698m52.868-12.676-8.3856 12.676h19.253l-10.856-12.676m-9.5207 14.755-9.4906 36.095 29.906-36.095h-20.414" stroke-width="2.6"/>
<path d="m204.09 43.291-8.3985 12.696-8.6806-12.696h17.079m-9.7318 15.599h-18.632l9.3139 35.429 9.3161-35.429m-18.01-2.0808h17.383l-8.7022-12.715-8.7022 12.715m-1.9558-0.82283 8.6807-12.696h-17.077l8.3985 12.696m8.6807 39.009-9.4906-36.097h-20.448l29.939 36.097m-29.908-38.178h19.285l-8.4006-12.698-10.878 12.698m52.868-12.676-8.3856 12.676h19.253l-10.856-12.676m-9.5207 14.755-9.4906 36.095 29.906-36.095h-20.414" stroke-width="2.7"/>
<path d="m204.09 43.291-8.3985 12.696-8.6806-12.696h17.079m-9.7318 15.599h-18.632l9.3139 35.429 9.3161-35.429m-18.01-2.0808h17.383l-8.7022-12.715-8.7022 12.715m-1.9558-0.82283 8.6807-12.696h-17.077l8.3985 12.696m8.6807 39.009-9.4906-36.097h-20.448l29.939 36.097m-29.908-38.178h19.285l-8.4006-12.698-10.878 12.698m52.868-12.676-8.3856 12.676h19.253l-10.856-12.676m-9.5207 14.755-9.4906 36.095 29.906-36.095h-20.414" stroke-width="2.8"/>
<path d="m204.09 43.291-8.3985 12.696-8.6806-12.696h17.079m-9.7318 15.599h-18.632l9.3139 35.429 9.3161-35.429m-18.01-2.0808h17.383l-8.7022-12.715-8.7022 12.715m-1.9558-0.82283 8.6807-12.696h-17.077l8.3985 12.696m8.6807 39.009-9.4906-36.097h-20.448l29.939 36.097m-29.908-38.178h19.285l-8.4006-12.698-10.878 12.698m52.868-12.676-8.3856 12.676h19.253l-10.856-12.676m-9.5207 14.755-9.4906 36.095 29.906-36.095h-20.414" stroke-width="2.9"/>
<path d="m204.09 43.291-8.3985 12.696-8.6806-12.696h17.079m-9.7318 15.599h-18.632l9.3139 35.429 9.3161-35.429m-18.01-2.0808h17.383l-8.7022-12.715-8.7022 12.715m-1.9558-0.82283 8.6807-12.696h-17.077l8.3985 12.696m8.6807 39.009-9.4906-36.097h-20.448l29.939 36.097m-29.908-38.178h19.285l-8.4006-12.698-10.878 12.698m52.868-12.676-8.3856 12.676h19.253l-10.856-12.676m-9.5207 14.755-9.4906 36.095 29.906-36.095h-20.414" stroke-width="3"/>
<path d="m204.09 43.291-8.3985 12.696-8.6806-12.696h17.079m-9.7318 15.599h-18.632l9.3139 35.429 9.3161-35.429m-18.01-2.0808h17.383l-8.7022-12.715-8.7022 12.715m-1.9558-0.82283 8.6807-12.696h-17.077l8.3985 12.696m8.6807 39.009-9.4906-36.097h-20.448l29.939 36.097m-29.908-38.178h19.285l-8.4006-12.698-10.878 12.698m52.868-12.676-8.3856 12.676h19.253l-10.856-12.676m-9.5207 14.755-9.4906 36.095 29.906-36.095h-20.414" stroke-width="3.2"/>
<path d="m204.09 43.291-8.3985 12.696-8.6806-12.696h17.079m-9.7318 15.599h-18.632l9.3139 35.429 9.3161-35.429m-18.01-2.0808h17.383l-8.7022-12.715-8.7022 12.715m-1.9558-0.82283 8.6807-12.696h-17.077l8.3985 12.696m8.6807 39.009-9.4906-36.097h-20.448l29.939 36.097m-29.908-38.178h19.285l-8.4006-12.698-10.878 12.698m52.868-12.676-8.3856 12.676h19.253l-10.856-12.676m-9.5207 14.755-9.4906 36.095 29.906-36.095h-20.414" stroke-width="3.4"/>
<path d="m204.09 43.291-8.3985 12.696-8.6806-12.696h17.079m-9.7318 15.599h-18.632l9.3139 35.429 9.3161-35.429m-18.01-2.0808h17.383l-8.7022-12.715-8.7022 12.715m-1.9558-0.82283 8.6807-12.696h-17.077l8.3985 12.696m8.6807 39.009-9.4906-36.097h-20.448l29.939 36.097m-29.908-38.178h19.285l-8.4006-12.698-10.878 12.698m52.868-12.676-8.3856 12.676h19.253l-10.856-12.676m-9.5207 14.755-9.4906 36.095 29.906-36.095h-20.414" stroke-width="3.6"/>
<path d="m204.09 43.291-8.3985 12.696-8.6806-12.696h17.079m-9.7318 15.599h-18.632l9.3139 35.429 9.3161-35.429m-18.01-2.0808h17.383l-8.7022-12.715-8.7022 12.715m-1.9558-0.82283 8.6807-12.696h-17.077l8.3985 12.696m8.6807 39.009-9.4906-36.097h-20.448l29.939 36.097m-29.908-38.178h19.285l-8.4006-12.698-10.878 12.698m52.868-12.676-8.3856 12.676h19.253l-10.856-12.676m-9.5207 14.755-9.4906 36.095 29.906-36.095h-20.414" stroke-width="3.8"/>
<path d="m204.09 43.291-8.3985 12.696-8.6806-12.696h17.079m-9.7318 15.599h-18.632l9.3139 35.429 9.3161-35.429m-18.01-2.0808h17.383l-8.7022-12.715-8.7022 12.715m-1.9558-0.82283 8.6807-12.696h-17.077l8.3985 12.696m8.6807 39.009-9.4906-36.097h-20.448l29.939 36.097m-29.908-38.178h19.285l-8.4006-12.698-10.878 12.698m52.868-12.676-8.3856 12.676h19.253l-10.856-12.676m-9.5207 14.755-9.4906 36.095 29.906-36.095h-20.414" stroke-width="4"/>
<path d="m204.09 43.291-8.3985 12.696-8.6806-12.696h17.079m-9.7318 15.599h-18.632l9.3139 35.429 9.3161-35.429m-18.01-2.0808h17.383l-8.7022-12.715-8.7022 12.715m-1.9558-0.82283 8.6807-12.696h-17.077l8.3985 12.696m8.6807 39.009-9.4906-36.097h-20.448l29.939 36.097m-29.908-38.178h19.285l-8.4006-12.698-10.878 12.698m52.868-12.676-8.3856 12.676h19.253l-10.856-12.676m-9.5207 14.755-9.4906 36.095 29.906-36.095h-20.414" stroke-width="4.2"/>
<path d="m204.09 43.291-8.3985 12.696-8.6806-12.696h17.079m-9.7318 15.599h-18.632l9.3139 35.429 9.3161-35.429m-18.01-2.0808h17.383l-8.7022-12.715-8.7022 12.715m-1.9558-0.82283 8.6807-12.696h-17.077l8.3985 12.696m8.6807 39.009-9.4906-36.097h-20.448l29.939 36.097m-29.908-38.178h19.285l-8.4006-12.698-10.878 12.698m52.868-12.676-8.3856 12.676h19.253l-10.856-12.676m-9.5207 14.755-9.4906 36.095 29.906-36.095h-20.414" stroke-width="4.4"/>
<path d="m204.09 43.291-8.3985 12.696-8.6806-12.696h17.079m-9.7318 15.599h-18.632l9.3139 35.429 9.3161-35.429m-18.01-2.0808h17.383l-8.7022-12.715-8.7022 12.715m-1.9558-0.82283 8.6807-12.696h-17.077l8.3985 12.696m8.6807 39.009-9.4906-36.097h-20.448l29.939 36.097m-29.908-38.178h19.285l-8.4006-12.698-10.878 12.698m52.868-12.676-8.3856 12.676h19.253l-10.856-12.676m-9.5207 14.755-9.4906 36.095 29.906-36.095h-20.414" stroke-width="4.6"/>
<path d="m204.09 43.291-8.3985 12.696-8.6806-12.696h17.079m-9.7318 15.599h-18.632l9.3139 35.429 9.3161-35.429m-18.01-2.0808h17.383l-8.7022-12.715-8.7022 12.715m-1.9558-0.82283 8.6807-12.696h-17.077l8.3985 12.696m8.6807 39.009-9.4906-36.097h-20.448l29.939 36.097m-29.908-38.178h19.285l-8.4006-12.698-10.878 12.698m52.868-12.676-8.3856 12.676h19.253l-10.856-12.676m-9.5207 14.755-9.4906 36.095 29.906-36.095h-20.414" stroke-width="4.8"/>
</g>
<path d="m82.663 43.291-8.3985 12.696-8.6807-12.696h17.079m-9.7318 15.599h-18.632l9.3139 35.429 9.3161-35.429m-18.01-2.0808h17.383l-8.7022-12.715-8.7022 12.715m-1.9558-0.82283 8.6807-12.696h-17.077l8.3985 12.696m8.6807 39.009-9.4906-36.097h-20.448l29.939 36.097m-29.908-38.178h19.285l-8.4006-12.698-10.878 12.698m52.868-12.676-8.3856 12.676h19.253l-10.856-12.676m-9.5207 14.755-9.4906 36.095 29.906-36.095h-20.414" fill="url(#linearGradient4590)" stroke-width="2.154"/>
</svg>
