<svg width="128" height="128" version="1.1" viewBox="0 0 33.867 33.867" xmlns="http://www.w3.org/2000/svg" xmlns:xlink="http://www.w3.org/1999/xlink">
<defs>
<linearGradient id="linearGradient897" x1="2686" x2="2686" y1="1088.8" y2="1770.4" gradientTransform="matrix(.042779 0 0 .042779 -95.919 -44.867)" gradientUnits="userSpaceOnUse">
<stop stop-color="#fff" offset="0"/>
<stop stop-color="#dfdfe1" offset="1"/>
</linearGradient>
<radialGradient id="radialGradient898" cx="60.636" cy="20.456" r="17.304" gradientTransform="translate(-43.433 -3.9449)" gradientUnits="userSpaceOnUse">
<stop stop-color="#0b0b0b" offset="0"/>
<stop stop-color="#0b0b0b" stop-opacity=".85882" offset=".68076"/>
<stop stop-color="#0b0b0b" stop-opacity=".83137" offset=".69925"/>
<stop stop-color="#0b0b0b" stop-opacity=".80392" offset=".71879"/>
<stop stop-color="#0b0b0b" stop-opacity=".78039" offset=".73593"/>
<stop stop-color="#0b0b0b" stop-opacity=".75686" offset=".75022"/>
<stop stop-color="#0b0b0b" stop-opacity=".73333" offset=".76799"/>
<stop stop-color="#0b0b0b" stop-opacity=".082353" offset=".91501"/>
<stop stop-color="#0b0b0b" stop-opacity=".070588" offset=".92247"/>
<stop stop-color="#0b0b0b" stop-opacity=".058824" offset=".92919"/>
<stop stop-color="#0b0b0b" stop-opacity=".047059" offset=".93841"/>
<stop stop-color="#0b0b0b" stop-opacity=".031373" offset=".94761"/>
<stop stop-color="#0b0b0b" stop-opacity=".023529" offset=".95381"/>
<stop stop-color="#0b0b0b" stop-opacity=".015686" offset=".95886"/>
<stop stop-color="#0b0b0b" stop-opacity=".011765" offset=".96356"/>
<stop stop-color="#0b0b0b" stop-opacity=".0078431" offset=".96845"/>
<stop stop-color="#0b0b0b" stop-opacity=".0039216" offset=".97348"/>
<stop stop-color="#0b0b0b" stop-opacity="0" offset=".97812"/>
<stop stop-color="#0b0b0b" stop-opacity="0" offset=".98456"/>
<stop stop-color="#0b0b0b" stop-opacity="0" offset=".98701"/>
<stop stop-color="#0b0b0b" stop-opacity="0" offset=".98925"/>
<stop stop-color="#0b0b0b" stop-opacity="0" offset="1"/>
</radialGradient>
<radialGradient id="radialGradient993" cx="16.969" cy="4.4334" r="13.696" gradientTransform="matrix(4.8886 0 0 1.5421 -65.724 -.93385)" gradientUnits="userSpaceOnUse">
<stop stop-color="#f3f4f4" offset="0"/>
<stop stop-color="#f0f0f1" offset="1"/>
</radialGradient>
<linearGradient id="linearGradient957" x1="10.112" x2="10.112" y1="11.823" y2="56.774" gradientTransform="matrix(.94347 0 0 .94347 1.9348 .42427)" gradientUnits="userSpaceOnUse">
<stop offset="0"/>
<stop stop-opacity="0" offset="1"/>
</linearGradient>
</defs>
<circle cx="17.203" cy="16.512" r="17.304" fill="url(#radialGradient898)" opacity=".30973" stroke-linecap="square" stroke-linejoin="round" stroke-width="3"/>
<circle cx="17.203" cy="16.512" r="15.118" fill="url(#linearGradient897)" stroke="#b1aaaa" stroke-linecap="square" stroke-opacity=".99216" stroke-width=".057556"/>
<circle cx="17.203" cy="16.512" r="13.102" fill="url(#radialGradient993)"/>
<path d="m19.019 13.092v4.1823c0.54897 0.0673 1.07 0.28356 1.5048 0.6261l2.9566-2.9566c-1.2295-1.1123-2.8061-1.7672-4.4614-1.8518zm-0.72138 6e-3c-1.6545 0.08317-3.2311 0.735-4.4614 1.8458l2.9536 2.9536c0.43631-0.34103 0.95806-0.55654 1.5078-0.62157zm-4.971 2.3555c-1.1123 1.2295-1.7672 2.8061-1.8518 4.4614h4.1823c0.0673-0.54897 0.28356-1.07 0.6261-1.5048zm10.663 0-2.9536 2.9536c0.34103 0.43631 0.55578 0.95806 0.62157 1.5078h4.1778c-0.08317-1.6545-0.73499-3.2311-1.8458-4.4614zm-12.509 5.1828c0.08317 1.6545 0.73499 3.2311 1.8458 4.4614l2.9536-2.9536c-0.34103-0.43627-0.55578-0.95802-0.62157-1.5078zm10.179 0c-0.0673 0.54897-0.28356 1.07-0.6261 1.5048l2.9566 2.9566c1.1123-1.2295 1.7672-2.8061 1.8518-4.4614zm-4.8667 2.0144-2.9566 2.9566c1.2295 1.1123 2.8061 1.7672 4.4614 1.8518v-4.1823c-0.54898-0.0673-1.07-0.28356-1.5048-0.6261zm3.7339 0.0029c-0.43631 0.34103-0.95806 0.55578-1.5078 0.62157v4.1778c1.6545-0.08317 3.2311-0.73575 4.4614-1.8458z" fill="url(#linearGradient957)" stroke-width=".75616"/>
<path d="m11.475 5.5303v7.0331l5.3151 5.3355c0.43177-0.33725 0.94672-0.552 1.4904-0.62005v-5.6992z" stroke-width=".75616"/>
</svg>
