<svg width="128" height="128" version="1.1" viewBox="0 0 33.867 33.867" xmlns="http://www.w3.org/2000/svg" xmlns:osb="http://www.openswatchbook.org/uri/2009/osb" xmlns:xlink="http://www.w3.org/1999/xlink">
<defs>
<linearGradient id="linearGradient908" x1="-275.79" x2="-278.23" y1="97.916" y2="250.33" gradientTransform="matrix(.84018 0 0 .84018 80.705 148.23)" gradientUnits="userSpaceOnUse">
<stop stop-color="#0db7fa" offset="0"/>
<stop stop-color="#0070fc" offset="1"/>
</linearGradient>
<linearGradient id="linearGradient2833" x1="-33.718" x2="-23.582" y1="139.26" y2="190.63" gradientTransform="translate(-117.93 145.14)" gradientUnits="userSpaceOnUse">
<stop stop-color="#f6f6f6" offset="0"/>
<stop stop-color="#d2d2d2" offset="1"/>
</linearGradient>
</defs>
<g transform="translate(0 -263.13)">
<g transform="matrix(.25379 0 0 .25379 54.536 205.19)">
<path d="m-148.16 231.47c-2.785 0-5.5698 0.0862-7.2616 0.25838-11.216 1.1418-19.191 4.4519-25.203 10.461-3.1249 3.1234-5.8741 7.2546-8.0786 12.14-3.724 8.2528-5.7474 17.348-6.7639 30.402-0.26005 3.3395-0.26005 19.187 0 22.526 1.2618 16.204 4.3785 27.663 9.925 36.492 6.6848 10.641 16.518 15.76 32.492 16.913 1.9823 0.1431 10.831-0.0374 12.819-0.26148 11.306-1.2741 19.072-4.6764 25.135-11.012 6.5109-6.8033 11.266-18.51 13.232-32.572 1.0021-7.169 1.2015-10.622 1.2015-20.822 0-8.7715-0.0713-10.642-0.60564-15.931-1.0192-10.089-3.1057-18.546-6.349-25.733-2.2814-5.0557-5.4109-9.6736-8.6026-12.695-5.9454-5.6278-13.858-8.8044-24.679-9.9059-1.6918-0.17222-4.4771-0.25838-7.2621-0.25838z" opacity=".25" stroke-width=".58395"/>
<path d="m-148.16 229.35c-2.785 0-5.5698 0.0862-7.2616 0.25838-11.216 1.1418-19.191 4.4519-25.203 10.461-3.1249 3.1234-5.8741 7.2546-8.0786 12.14-3.724 8.2528-5.7474 17.348-6.7639 30.402-0.26005 3.3395-0.26005 19.187 0 22.526 1.2618 16.204 4.3785 27.663 9.925 36.492 6.6848 10.641 16.518 15.76 32.492 16.913 1.9823 0.14309 10.831-0.0374 12.819-0.26149 11.306-1.2741 19.072-4.6764 25.135-11.012 6.5109-6.8033 11.266-18.51 13.232-32.572 1.0021-7.169 1.2015-10.622 1.2015-20.822 0-8.7715-0.0713-10.642-0.60564-15.931-1.0192-10.089-3.1057-18.546-6.349-25.733-2.2814-5.0557-5.4109-9.6736-8.6026-12.695-5.9454-5.6278-13.858-8.8044-24.679-9.9059-1.6918-0.17222-4.4771-0.25838-7.2621-0.25838z" fill="url(#linearGradient908)" stroke-width=".58395"/>
<path d="m-173.5 276.07 18.999 19.213-18.999 19.213 6.0424 6.0908 15.796-15.622v36.674l28.838-27.191-17.483-19.163 17.437-19.137-28.635-26.647-0.13623 36.501-15.796-16zm30.537-8.6049 8.7594 8.3391-8.7594 10.802zm0 38.335 8.7797 8.9611-8.7594 8.3392z" opacity=".25" stroke-width="1.0425"/>
<path d="m-173.5 274.48 18.999 19.213-18.999 19.213 6.0424 6.0908 15.796-15.622v36.674l28.838-27.191-17.483-19.163 17.437-19.137-28.635-26.647-0.13623 36.501-15.796-16zm30.537-8.6049 8.7594 8.3391-8.7594 10.802zm0 38.335 8.7797 8.9611-8.7594 8.3392z" fill="url(#linearGradient2833)" stroke-width="1.0425"/>
</g>
</g>
</svg>
