<svg width="128" height="128" version="1.1" viewBox="0 0 128 128" xmlns="http://www.w3.org/2000/svg" xmlns:xlink="http://www.w3.org/1999/xlink">
<defs>
<linearGradient id="linearGradient825" x1="-741.83" x2="-741.83" y1="959.05" y2="93.836" gradientTransform="matrix(.13668 0 0 .13668 162.31 -5.9893)" gradientUnits="userSpaceOnUse">
<stop stop-color="#e65c00" offset="0"/>
<stop stop-color="#f95" offset="1"/>
</linearGradient>
<linearGradient id="linearGradient835" x1="-738.76" x2="-738.76" y1="931.43" y2="152.13" gradientTransform="matrix(.13668 0 0 .13668 162.31 -5.9893)" gradientUnits="userSpaceOnUse">
<stop stop-color="#f60" offset="0"/>
<stop stop-color="#f95" offset="1"/>
</linearGradient>
</defs>
<circle cx="63.592" cy="64.286" r="61.38" fill="url(#linearGradient825)"/>
<circle cx="63.592" cy="64.286" r="55.09" fill="url(#linearGradient835)"/>
<g transform="translate(-128.57)" fill="none" opacity=".603" shape-rendering="auto" stroke="#070707" stroke-linecap="round" stroke-linejoin="round" stroke-opacity=".039216">
<path d="m157.91 37.529v49.373h60.482v-49.373zm4.9375 4.9375h50.607v39.498h-50.607zm5.9922 4.9238v9.0117h9.0117v-9.0117zm50.787 1.248v4.9375h1.2344v35.795h-50.607v-1.2344h-4.9375v6.1719h60.48v-45.67zm-50.789 12.16v2.4688h36.297v-2.4688zm0 6.8613v2.4688h9.7012v-2.4688zm13.033 0v2.4688h8.3125v-2.4688zm1.4648 6.8652-0.0332 2.4688 3.8281 0.04883 0.0332-2.4688zm-14.498 0.02539v2.4688h11.084v-2.4688z" color="#000000" color-rendering="auto" dominant-baseline="auto" image-rendering="auto" opacity="1" solid-color="#000000" style="font-feature-settings:normal;font-variant-alternates:normal;font-variant-caps:normal;font-variant-ligatures:normal;font-variant-numeric:normal;font-variant-position:normal;isolation:auto;mix-blend-mode:normal;shape-padding:0;text-decoration-color:#000000;text-decoration-line:none;text-decoration-style:solid;text-indent:0;text-orientation:mixed;text-transform:none;white-space:normal"/>
<path d="m157.91 37.529v49.373h60.482v-49.373zm4.9375 4.9375h50.607v39.498h-50.607zm5.9922 4.9238v9.0117h9.0117v-9.0117zm50.787 1.248v4.9375h1.2344v35.795h-50.607v-1.2344h-4.9375v6.1719h60.48v-45.67zm-50.789 12.16v2.4688h36.297v-2.4688zm0 6.8613v2.4688h9.7012v-2.4688zm13.033 0v2.4688h8.3125v-2.4688zm1.4648 6.8652-0.0332 2.4688 3.8281 0.04883 0.0332-2.4688zm-14.498 0.02539v2.4688h11.084v-2.4688z" color="#000000" color-rendering="auto" dominant-baseline="auto" image-rendering="auto" opacity="1" solid-color="#000000" stroke-width="2" style="font-feature-settings:normal;font-variant-alternates:normal;font-variant-caps:normal;font-variant-ligatures:normal;font-variant-numeric:normal;font-variant-position:normal;isolation:auto;mix-blend-mode:normal;shape-padding:0;text-decoration-color:#000000;text-decoration-line:none;text-decoration-style:solid;text-indent:0;text-orientation:mixed;text-transform:none;white-space:normal"/>
<path d="m157.91 37.529v49.373h60.482v-49.373zm4.9375 4.9375h50.607v39.498h-50.607zm5.9922 4.9238v9.0117h9.0117v-9.0117zm50.787 1.248v4.9375h1.2344v35.795h-50.607v-1.2344h-4.9375v6.1719h60.48v-45.67zm-50.789 12.16v2.4688h36.297v-2.4688zm0 6.8613v2.4688h9.7012v-2.4688zm13.033 0v2.4688h8.3125v-2.4688zm1.4648 6.8652-0.0332 2.4688 3.8281 0.04883 0.0332-2.4688zm-14.498 0.02539v2.4688h11.084v-2.4688z" color="#000000" color-rendering="auto" dominant-baseline="auto" image-rendering="auto" opacity="1" solid-color="#000000" stroke-width="3" style="font-feature-settings:normal;font-variant-alternates:normal;font-variant-caps:normal;font-variant-ligatures:normal;font-variant-numeric:normal;font-variant-position:normal;isolation:auto;mix-blend-mode:normal;shape-padding:0;text-decoration-color:#000000;text-decoration-line:none;text-decoration-style:solid;text-indent:0;text-orientation:mixed;text-transform:none;white-space:normal"/>
<path d="m157.91 37.529v49.373h60.482v-49.373zm4.9375 4.9375h50.607v39.498h-50.607zm5.9922 4.9238v9.0117h9.0117v-9.0117zm50.787 1.248v4.9375h1.2344v35.795h-50.607v-1.2344h-4.9375v6.1719h60.48v-45.67zm-50.789 12.16v2.4688h36.297v-2.4688zm0 6.8613v2.4688h9.7012v-2.4688zm13.033 0v2.4688h8.3125v-2.4688zm1.4648 6.8652-0.0332 2.4688 3.8281 0.04883 0.0332-2.4688zm-14.498 0.02539v2.4688h11.084v-2.4688z" color="#000000" color-rendering="auto" dominant-baseline="auto" image-rendering="auto" opacity="1" solid-color="#000000" stroke-width="5" style="font-feature-settings:normal;font-variant-alternates:normal;font-variant-caps:normal;font-variant-ligatures:normal;font-variant-numeric:normal;font-variant-position:normal;isolation:auto;mix-blend-mode:normal;shape-padding:0;text-decoration-color:#000000;text-decoration-line:none;text-decoration-style:solid;text-indent:0;text-orientation:mixed;text-transform:none;white-space:normal"/>
<path d="m157.91 37.529v49.373h60.482v-49.373zm4.9375 4.9375h50.607v39.498h-50.607zm5.9922 4.9238v9.0117h9.0117v-9.0117zm50.787 1.248v4.9375h1.2344v35.795h-50.607v-1.2344h-4.9375v6.1719h60.48v-45.67zm-50.789 12.16v2.4688h36.297v-2.4688zm0 6.8613v2.4688h9.7012v-2.4688zm13.033 0v2.4688h8.3125v-2.4688zm1.4648 6.8652-0.0332 2.4688 3.8281 0.04883 0.0332-2.4688zm-14.498 0.02539v2.4688h11.084v-2.4688z" color="#000000" color-rendering="auto" dominant-baseline="auto" image-rendering="auto" opacity="1" solid-color="#000000" stroke-width="7" style="font-feature-settings:normal;font-variant-alternates:normal;font-variant-caps:normal;font-variant-ligatures:normal;font-variant-numeric:normal;font-variant-position:normal;isolation:auto;mix-blend-mode:normal;shape-padding:0;text-decoration-color:#000000;text-decoration-line:none;text-decoration-style:solid;text-indent:0;text-orientation:mixed;text-transform:none;white-space:normal"/>
</g>
<path d="m29.346 37.529v2.4688 46.904h60.482v-49.373h-60.482zm4.9375 4.9375h50.607v39.498h-50.607v-39.498zm5.9922 4.9238v9.0117h9.0117v-9.0117h-9.0117zm50.787 1.248v4.9375h1.2344v35.795h-50.607v-1.2344h-4.9375v6.1719h60.48v-45.67h-6.1699zm-50.789 12.16v2.4688h36.297v-2.4688h-36.297zm0 6.8613v2.4688h9.7012v-2.4688h-9.7012zm13.033 0v2.4688h8.3125v-2.4688h-8.3125zm1.4648 6.8652-0.033203 2.4688 3.8281 0.048828 0.033203-2.4688-3.8281-0.048828zm-14.498 0.02539v2.4688h11.084v-2.4688h-11.084z" color="#000000" color-rendering="auto" dominant-baseline="auto" fill="#fff" image-rendering="auto" shape-rendering="auto" solid-color="#000000" style="font-feature-settings:normal;font-variant-alternates:normal;font-variant-caps:normal;font-variant-ligatures:normal;font-variant-numeric:normal;font-variant-position:normal;isolation:auto;mix-blend-mode:normal;shape-padding:0;text-decoration-color:#000000;text-decoration-line:none;text-decoration-style:solid;text-indent:0;text-orientation:mixed;text-transform:none;white-space:normal"/>
</svg>
