<svg width="128" height="128" viewBox="0 0 128 128" xmlns="http://www.w3.org/2000/svg">
<linearGradient id="a" x1="146.92" x2="140.27" y1="90.479" y2="475.38" gradientUnits="userSpaceOnUse">
<stop stop-color="#d4d4d5" offset="0"/>
<stop stop-color="#b3b4b7" offset="1"/>
</linearGradient>
<linearGradient id="b" x1="-25.481" x2="314.99" y1="116.93" y2="116.93" gradientUnits="userSpaceOnUse">
<stop stop-color="#344042" offset="0"/>
<stop stop-color="#0d181b" offset="1"/>
</linearGradient>
<linearGradient id="c" x1="352.3" x2="300.52" y1="453.05" y2="93.312" gradientUnits="userSpaceOnUse">
<stop stop-color="#d26501" offset="0"/>
<stop stop-color="#f78012" offset="1"/>
</linearGradient>
<filter id="d" x="-.010376" y="-.008932" width="1.0208" height="1.0179" color-interpolation-filters="sRGB">
<feGaussianBlur stdDeviation="1.7337273"/>
</filter>
<g transform="matrix(.2606 0 0 .2606 13.621 -3.281)">
<rect transform="matrix(.98791 -.15501 .15501 .98791 -526.09 -152.74)" x="470.82" y="310.1" width="341.01" height="418.83" rx="2.769" fill="#242425" filter="url(#d)"/>
<rect transform="matrix(.98791 -.15501 .15501 .98791 0 0)" x="-25.23" y="77.657" width="341.01" height="418.83" rx="2.769" fill="url(#a)"/>
<path d="m333.56 88.673-89.602 15.373 56.76 350.53 85.697-12.668c1.3885-0.3371 2.3076-1.6696 2.082-3.1074z" fill="url(#c)"/>
<rect transform="matrix(.98741 -.1582 .1582 .98741 0 0)" x="-25.481" y="77.575" width="340.48" height="78.706" rx="2.769" fill="url(#b)"/>
<text transform="matrix(.986 -.16677 .16677 .986 0 0)" x="48.747593" y="135.40147" fill="#fff" font-family="Sawasdee" font-size="56.022" letter-spacing="0" opacity=".676" stroke-width="1.4005" word-spacing="0"><tspan x="48.747593" y="135.40147" stroke-width="1.4005">3.141592</tspan></text>
<path d="m247.14 117.85-1.1856 0.19336 10.48 63.852-83.09 13.854-10.283-63.354-1.1856 0.19141 10.285 63.359-85.092 14.186-10.209-63.891-1.1856 0.1914 10.209 63.896-76.422 12.742 0.18555 1.1836 76.426-12.74 10.258 64.201c-30.648 5.1758-58.733 9.9182-76.58 12.932l0.18555 1.1855c17.841-3.0124 45.937-7.7559 76.584-12.932l10.324 64.611-76.811 12.672 0.18554 1.1855 76.814-12.674 10.281 64.346 86.883-13.754 11.59 71.385 1.1836-0.19141-11.588-71.381 83.545-13.227 11.646 70.961 1.1856-0.19336-11.646-70.953 85.695-13.568-0.1875-1.1836-85.701 13.566-10.543-64.24 87.314-14.402-0.18555-1.1856-87.324 14.408-10.703-65.201c10.209-1.7215 23.501-3.9679 32.42-5.4707 17.106-2.8824 31.478-5.3021 41.727-7.0234 8.2039-1.3779 11.405-1.9093 13.594-2.2695l-0.18554-1.1836c-2.2342 0.36716-5.4064 0.8941-13.607 2.2715-10.249 1.7214-24.62 4.141-41.727 7.0234-8.9171 1.5026-22.207 3.7458-32.414 5.4668l-10.475-63.814 88.219-14.707-0.18555-1.1856-88.227 14.709zm9.4883 65.229 10.475 63.816c-26.294 4.4333-53.095 8.9544-83.176 14.031l-10.391-63.992zm-84.273 14.051 10.389 63.996c-2.3168 0.39106-4.0868 0.68891-6.4043 1.0801-39.547 6.675-47.046 7.9442-78.822 13.311l-10.258-64.199zm94.943 50.951 10.699 65.197-83.34 13.75-10.537-64.916c30.081-5.0772 56.883-9.5972 83.178-14.031zm-84.363 14.23 10.539 64.912-85.443 14.094-10.324-64.615c31.779-5.3668 39.28-6.6346 78.832-13.311 2.3147-0.39073 4.0824-0.68955 6.3965-1.0801zm95.258 52.15 10.543 64.229-83.543 13.227-10.344-63.707zm-84.527 13.943 10.34 63.699-85.693 13.568-10.094-63.17z" fill="#506164"/>
<g transform="matrix(.98781 -.15568 .15568 .98781 -526.09 -152.74)">
<g fill="#2d2d2d">
<path d="m485.5 428.7h7.8385l-3.9323-9.4401zm8.3073 1.1719h-8.8672l-2.474 6.0286h-1.25l8.151-19.674 8.1771 19.674h-1.25z"/>
<path d="m516.22 431.39 0.9375 0.63802q-1.3542 1.862-3.4375 2.9427-2.0833 1.0677-4.4922 1.0677-2.0052 0-3.8281-0.78125-1.8229-0.78125-3.138-2.1094-1.3151-1.3281-2.0964-3.1641-0.78125-1.8359-0.78125-3.8542t0.78125-3.8542 2.0964-3.1641q1.3151-1.3281 3.138-2.1094 1.8229-0.78125 3.8281-0.78125 2.3958 0 4.4792 1.0938 2.0833 1.0807 3.4505 2.9557l-0.9375 0.69011q-1.2109-1.6276-3.0469-2.5651-1.8229-0.95052-3.9453-0.95052-2.3698 0-4.375 1.1719-1.9922 1.1719-3.151 3.1901-1.1589 2.0052-1.1589 4.388 0 1.7708 0.67709 3.3854 0.6901 1.6146 1.849 2.7865 1.1589 1.1719 2.7734 1.875 1.6146 0.6901 3.3854 0.6901 2.1224 0 3.9453-0.95052 1.8359-0.95052 3.0469-2.5911z"/>
</g>
<g fill="#2e2e2e">
<path d="m569.5 430.48h-1.2891v-5.0417h-5.013v-1.2747h5.013v-5.0703h1.2891v5.0703h5.0417v1.2747h-5.0417z"/>
<path d="m591.43 414.1h1.6042l-15.211 21.384h-1.5612z"/>
<path d="m603.55 426.27v1.2891h-8.78v-1.2891z"/>
<path d="m681.72 428.61q1.2461-1.2318 2.9792-1.2318t2.9648 1.2174q1.2318 1.2174 1.2318 2.9505 0 1.7331-1.2318 2.9648-1.2318 1.2174-2.9648 1.2174t-2.9792-1.2174q-1.2318-1.2318-1.2318-2.9648 0-1.7188 1.2318-2.9362zm0.90235 0.91666q-0.84505 0.83073-0.84505 2.0195 0 1.1888 0.84505 2.0338 0.85937 0.84505 2.0768 0.84505t2.0625-0.84505q0.85938-0.84505 0.85938-2.0338 0-1.1888-0.85938-2.0195-0.84505-0.83072-2.0625-0.83072t-2.0768 0.83072zm-11.487-14.352q1.2174-1.2318 2.9505-1.2318t2.9648 1.2318 1.2318 2.9648q0 1.7331-1.2318 2.9505-1.2318 1.2174-2.9648 1.2174t-2.9505-1.2174q-1.2031-1.2174-1.2031-2.9505 0-1.7331 1.2031-2.9648zm0.0716 2.9648q0 1.1745 0.83073 2.0195 0.84506 0.83073 2.0482 0.83073 1.2174 0 2.0625-0.83073 0.85938-0.84505 0.85938-2.0195 0-1.2031-0.85938-2.0339-0.84505-0.84505-2.0625-0.84505-1.2031 0-2.0482 0.84505-0.83073 0.83073-0.83073 2.0339zm14.996-4.0391h1.5755l-15.154 21.384h-1.6185z"/>
<g fill="#2e2e2e">
<path d="m489.67 475.62h19.531l-13.066 29.16h-1.9336l12.324-27.402h-17.441z"/>
<path d="m592.92 475.36q2.832 0 4.8633 1.9727t2.0312 4.7461q0 1.8359-0.89843 3.3789-0.89844 1.5234-2.4219 2.3828 2.4023 1.0742 3.8867 3.3008 1.5039 2.2266 1.5039 4.9219 0 2.4609-1.2109 4.5312t-3.2812 3.2812q-2.0508 1.1914-4.4727 1.1914-3.75 0-6.3867-2.6172-2.6172-2.6367-2.6172-6.3867 0-2.7148 1.4648-4.9219 1.4844-2.2266 3.9062-3.3008-1.5039-0.85937-2.4219-2.4023-0.89843-1.543-0.89843-3.3594 0-2.7734 2.0312-4.7461 2.0508-1.9727 4.9219-1.9727zm-7.2656 20.703q0 2.9883 2.1289 5.1367 2.1289 2.1289 5.1367 2.1289 2.9492 0 5.0781-2.1289 2.1289-2.1484 2.1289-5.1367 0-2.9492-2.1289-5.0586-2.1289-2.1289-5.0781-2.1289-2.9883 0-5.1367 2.1289-2.1289 2.1094-2.1289 5.0586zm7.2656-8.9453q2.1289 0 3.6328-1.4844 1.5039-1.4844 1.5039-3.5547 0-2.0508-1.5234-3.5156-1.5039-1.4648-3.6133-1.4648-2.168 0-3.6914 1.4648-1.5234 1.4648-1.5234 3.5156 0 2.0703 1.5234 3.5547 1.5234 1.4844 3.6914 1.4844z"/>
<path d="m665.24 485.93q0 3.7305 2.3633 6.3086 2.3828 2.5781 5.6836 2.5781 3.3203 0 5.6836-2.5781 2.3828-2.5781 2.3828-6.3086 0-3.6914-2.3828-6.25-2.3633-2.5781-5.6836-2.5781-3.3008 0-5.6836 2.5781-2.3633 2.5586-2.3633 6.25zm7.5195 18.848h-2.0898l6.0156-8.9258q-1.6797 0.66406-3.3984 0.66406-2.6758 0-4.9414-1.4258-2.2461-1.4453-3.5547-3.8672-1.2891-2.4414-1.2891-5.293 0-2.832 1.2891-5.2539 1.3086-2.4219 3.5547-3.8476 2.2656-1.4258 4.9414-1.4258 2.6953 0 4.9414 1.4258 2.2656 1.4258 3.5547 3.8476 1.2891 2.4024 1.2891 5.2539 0 1.4062-0.35156 2.7734-0.33203 1.3672-0.85938 2.5195-0.52734 1.1523-1.5625 2.7539-1.0352 1.582-1.9922 2.9102-0.9375 1.3086-2.5781 3.6133-1.6406 2.2852-2.9688 4.2774z"/>
<path d="m502.96 563.61v-17.109l-12.988 17.109zm1.7383 7.168h-1.7383v-5.4297h-16.484l18.223-24.082v22.344h3.2617l-0.625 1.7383h-2.6367z"/>
<path d="m599.13 543.38h-12.422l-0.80078 9.7461q1.3672-1.4648 3.1445-2.2852 1.7969-0.82031 3.7695-0.82031 2.6953 0 4.9414 1.4258 2.2656 1.4258 3.5547 3.8672 1.2891 2.4219 1.2891 5.293 0 2.8516-1.2891 5.2734-1.2891 2.4024-3.5547 3.8281-2.2461 1.4062-4.9414 1.4062-3.6524 0-6.4062-2.5781-2.7344-2.5781-3.2617-6.3476h1.7578q0.52734 3.0859 2.7539 5.1367 2.2461 2.0508 5.1562 2.0508 3.3203 0 5.6836-2.5781 2.3828-2.5781 2.3828-6.2891 0-3.6914-2.3828-6.25-2.3633-2.5781-5.6836-2.5781-2.207 0-4.082 1.25-1.875 1.2305-2.9492 3.3008h-1.9336l1.2305-14.609h14.648z"/>
<path d="m681.35 560.23q0-3.7109-2.3828-6.2891-2.3633-2.5781-5.6836-2.5781-3.3008 0-5.6836 2.5781-2.3633 2.5781-2.3633 6.2891 0 3.6914 2.3633 6.2695 2.3828 2.5781 5.6836 2.5781 3.3203 0 5.6836-2.5781 2.3828-2.5781 2.3828-6.2695zm-7.5391-18.828h2.1094l-5.9961 8.9258q1.6797-0.66407 3.3594-0.66407 2.6953 0 4.9414 1.4453 2.2656 1.4258 3.5547 3.8476 1.2891 2.4219 1.2891 5.2734t-1.2891 5.2734q-1.2891 2.4219-3.5547 3.8476-2.2461 1.4258-4.9414 1.4258-2.6758 0-4.9414-1.4258-2.2461-1.4258-3.5547-3.8476-1.2891-2.4219-1.2891-5.2734 0-1.6797 0.41016-3.1641 0.41015-1.5039 1.4258-3.2812 1.0352-1.7774 2.0312-3.2031 0.99609-1.4258 2.9688-4.1797 1.9726-2.7539 3.4766-5z"/>
<path d="m497.27 636.78-0.0781-26.016-3.1641 1.8945-0.8789-1.543 5.8789-3.4961v29.16z"/>
<path d="m602.21 636.78h-19.004v-0.83984q0-2.0117 0.89844-3.7695 0.91797-1.7578 2.3633-3.0469 1.4453-1.2891 3.2031-2.4609 1.7578-1.1914 3.4961-2.2852 1.7578-1.0938 3.2031-2.207 1.4453-1.1133 2.3438-2.5195 0.91797-1.4258 0.91797-3.0274 0-3.1836-1.9726-5.3516-1.9531-2.168-4.707-2.168-2.793 0-4.8047 2.1875-1.9922 2.168-1.9922 5.332h-1.7188q0-2.5 1.1133-4.6289 1.1328-2.1289 3.0859-3.3789 1.9531-1.25 4.2773-1.25 2.3047 0 4.2578 1.25 1.9531 1.25 3.0664 3.3789 1.1133 2.1289 1.1133 4.6289 0 1.4062-0.52734 2.6953-0.52735 1.2695-1.4258 2.2852-0.89844 1.0156-2.0703 1.9531-1.1719 0.9375-2.4805 1.7773-1.3086 0.83985-2.6367 1.6602-1.3086 0.82031-2.5586 1.7188-1.2305 0.8789-2.2266 1.8164-0.97656 0.91797-1.6406 2.0703-0.66407 1.1523-0.83985 2.4219h17.266z"/>
<path d="m664.38 628.07h1.8359q0 2.9883 2.1094 5.1367 2.1094 2.1289 5.0976 2.1289 2.9688 0 5.0781-2.1289 2.1289-2.1484 2.1289-5.1367 0-2.9492-2.1289-5.0586-2.1094-2.1289-5.0781-2.1289v-1.7578q2.1875 0 3.7109-1.3476 1.543-1.3672 1.543-3.5156 0-2.1289-1.543-3.6328-1.5234-1.5234-3.7109-1.5234t-3.7305 1.5234q-1.5234 1.5039-1.5234 3.6328h-1.7383q0-2.8711 2.0508-4.8828t4.9414-2.0117q2.8906 0 4.9414 2.0117 2.0703 2.0117 2.0703 4.8828 0 1.8555-0.89843 3.3398-0.89844 1.4648-2.4414 2.3633 2.3633 1.0547 3.8086 3.2617 1.4453 2.207 1.4453 4.8438 0 2.4609-1.2109 4.5312-1.2109 2.0703-3.2812 3.2812-2.0508 1.1914-4.4727 1.1914-3.75 0-6.3867-2.6172-2.6172-2.6367-2.6172-6.3867z"/>
<path d="m507.8 688.23q0 3.9062-1.2109 7.2852-1.2109 3.3789-3.457 5.4688-2.2266 2.0898-4.9805 2.0898-2.7734 0-5.0391-2.0898-2.2461-2.0898-3.457-5.4688-1.2109-3.3789-1.2109-7.2852 0-2.9297 0.72265-5.625 0.72266-2.7148 1.9727-4.7461 1.25-2.0508 3.0859-3.2617 1.8359-1.2305 3.9258-1.2305 2.7539 0 4.9805 2.0898 2.2461 2.0703 3.457 5.4688 1.2109 3.3789 1.2109 7.3047zm-17.617 0q0 2.7734 0.66406 5.2539 0.68359 2.4609 1.7969 4.1602 1.1133 1.6992 2.5586 2.6953 1.4453 0.99609 2.9492 0.99609 1.1914 0 2.3438-0.625 1.1719-0.625 2.168-1.7969 0.99609-1.1914 1.7578-2.7734t1.1914-3.6328q0.44922-2.0508 0.44922-4.2774 0-2.793-0.68359-5.2734-0.66406-2.4805-1.7773-4.1797-1.0938-1.6992-2.5391-2.6758-1.4258-0.9961-2.9102-0.9961-1.5039 0-2.9492 0.9961-1.4453 0.97656-2.5586 2.6758-1.1133 1.6992-1.7969 4.1797-0.66406 2.4805-0.66406 5.2734z"/>
</g>
<path d="m670.29919 701.43045q0-.66406.46875-1.13281.46875-.48829 1.13282-.48829.66406 0 1.13281.48829.48828.46875.48828 1.13281 0 .64453-.48828 1.15234-.48828.48828-1.13281.48828-.64453 0-1.13282-.48828-.46875-.50781-.46875-1.15234z"/>
</g>
</g>
<path d="m117.32 407.04-77.154 12.971" fill="none" stroke="#506164"/>
<g transform="translate(-76.019 7.2599)">
<circle cx="368.76" cy="129.99" r="2.4749" fill="#fff"/>
<circle cx="370.88" cy="143.07" r="2.4749" fill="#fff"/>
<g fill="none" stroke="#fff">
<path d="m361.51 137.59 17.147-2.6516" stroke-width="1.7"/>
<path d="m373.8 209.84 12.446-15.992" stroke-width="1.9855"/>
<path d="m388.02 208.07-15.992-12.446" stroke-width="1.9855"/>
<path d="m400.86 265.43-20.1 2.5844" stroke-width="1.9855"/>
<path d="m411.64 331.01-20.1 2.5844" stroke-width="1.9855"/>
<path d="m400.3 322.26 2.5844 20.1" stroke-width="1.9855"/>
</g>
</g>
<path d="m387.67 433.58-336.66 54.287 0.59765 3.8027c0.2378 1.5155 1.6486 2.5444 3.1641 2.3066l331.42-52.002c1.5155-0.2378 2.5425-1.6505 2.3047-3.166z" fill="#181818" fill-opacity=".93676"/>
</g>
</svg>
