<svg enable-background="new 0 0 128 128" viewBox="0 0 128 128" xmlns="http://www.w3.org/2000/svg">
<linearGradient id="a" x1="56.017" x2="56.559" y1="14.356" y2="110.9" gradientUnits="userSpaceOnUse">
<stop stop-color="#36ee78" offset="0"/>
<stop stop-color="#18c235" offset="1"/>
</linearGradient>
<linearGradient id="b" x1="170.94" x2="187.09" y1="144.79" y2="185.99" gradientUnits="userSpaceOnUse">
<stop stop-color="#fcfdfc" offset="0"/>
<stop stop-color="#e0e7e0" offset="1"/>
</linearGradient>
<filter id="c" x="-.0336" y="-.0336" width="1.0672" height="1.0672" color-interpolation-filters="sRGB">
<feGaussianBlur stdDeviation=".88352991"/>
</filter>
<filter id="d" x="-.009529" y="-.016202" width="1.0191" height="1.0324" color-interpolation-filters="sRGB">
<feGaussianBlur stdDeviation=".32879783"/>
</filter>
<filter id="e" x="-.012414" y="-.011613" width="1.0248" height="1.0232" color-interpolation-filters="sRGB">
<feGaussianBlur stdDeviation=".18509392"/>
</filter>
<rect x=".69462" y="13" width="112.81" height="101.42" rx="19.525" ry="13.017" fill="url(#a)" opacity=".934"/>
<path d="m27.137 39.797c-3.6994 0-6.6777 2.9783-6.6777 6.6777v34.967c0 3.6994 2.9783 6.6777 6.6777 6.6777h41.871c3.6994 0 6.6777-2.9783 6.6777-6.6777v-34.967c0-3.6994-2.9783-6.6777-6.6777-6.6777zm68.492 4.9844-17.834 12.273v31.447l17.834-1.7246zm3.5664 0.19531-2.5312 0.0625s-0.0625 15.531-0.0625 15.812 2.5938 12.188 2.5938 12.188zm-80.156 5.6875-1.6699 0.02148c-0.42474 0.02222-1.0223 0.49178-0.98633 1.041v4.5938c0.0284 0.54238 0.42635 0.98118 0.96875 0.96875h1.6875z" filter="url(#d)" opacity=".491"/>
<path d="m26.45 39.359c-3.6994 0-6.6777 2.9783-6.6777 6.6777v34.967c0 3.6994 2.9783 6.6777 6.6777 6.6777h41.871c3.6994 0 6.6777-2.9783 6.6777-6.6777v-34.967c0-3.6994-2.9783-6.6777-6.6777-6.6777zm68.492 4.9844-17.834 12.273v31.447l17.834-1.7246zm3.5664 0.19531-2.5312 0.0625s-0.0625 15.531-0.0625 15.812 2.5938 12.188 2.5938 12.188zm-80.156 5.6875-1.6699 0.02148c-0.42474 0.02222-1.0223 0.49178-0.98633 1.041v4.5938c0.0284 0.54238 0.42635 0.98118 0.96875 0.96875h1.6875z" fill="#fff"/>
<g transform="translate(-86.071 -64.51)">
<circle cx="180.36" cy="156.18" r="31.555" fill="#333" filter="url(#c)" opacity=".934"/>
<circle cx="180.36" cy="156.18" r="31.555" fill="url(#b)" opacity=".934"/>
<path d="m169.92 137.34c-0.62218-0.0783-1.6628 0.027-2.6354 0.85583-0.97257 0.8288-3.6703 2.7806-4.249 7.3777-0.5787 4.5972 2.2103 9.4573 2.597 10.138 0.38989 0.6811 5.3183 10.883 14.176 16.106 2.1068 1.242 3.7745 2.0371 5.0747 2.6381 2.1479 0.9918 4.1973 1.1468 5.8362 1.1106 1.8279-0.0412 5.8089-1.5641 6.8627-3.6467 1.0542-2.0858 1.2875-3.9554 1.1009-4.3747-0.18347-0.41891-0.77392-0.72768-1.6514-1.3138-0.87431-0.58569-5.1827-3.4252-6.0014-3.8443-0.81555-0.41868-1.418-0.65308-2.1612 0.20459-0.73966 0.85493-2.7936 2.7343-3.4155 3.288-0.62193 0.55375-1.1794 0.56413-2.0538-0.0216-0.87432-0.58567-3.7613-1.9466-6.9271-5.5787-2.4629-2.8254-3.9535-6.119-4.3792-7.1238-0.42615-1.0017 0.12391-1.4486 0.64753-1.8551 0.47367-0.36491 1.0712-0.97127 1.6082-1.4591 0.54251-0.48074 0.74429-0.85361 1.1372-1.4394 0.3894-0.58301 0.30487-1.1475 0.12818-1.6454-0.17713-0.49473-1.4637-5.326-2.0045-7.2934-0.5314-1.9151-1.332-1.7678-1.9003-1.868z" filter="url(#e)" opacity=".23899"/>
<path d="m169.43 137.08c-0.62218-0.0783-1.6628 0.027-2.6354 0.85583-0.97257 0.8288-3.6703 2.7806-4.249 7.3777-0.5787 4.5972 2.2103 9.4573 2.597 10.138 0.38989 0.6811 5.3183 10.883 14.176 16.106 2.1068 1.242 3.7745 2.0371 5.0747 2.6381 2.1479 0.9918 4.1973 1.1468 5.8362 1.1106 1.8279-0.0412 5.8089-1.5641 6.8627-3.6467 1.0542-2.0858 1.2875-3.9554 1.1009-4.3747-0.18347-0.41891-0.77392-0.72768-1.6514-1.3138-0.87431-0.58569-5.1827-3.4252-6.0014-3.8443-0.81555-0.41868-1.418-0.65308-2.1612 0.20459-0.73966 0.85493-2.7936 2.7343-3.4155 3.288-0.62193 0.55375-1.1794 0.56413-2.0538-0.0216-0.87432-0.58567-3.7613-1.9466-6.9271-5.5787-2.4629-2.8254-3.9535-6.119-4.3792-7.1238-0.42615-1.0017 0.12391-1.4486 0.64753-1.8551 0.47367-0.36491 1.0712-0.97127 1.6082-1.4591 0.54251-0.48074 0.74429-0.85361 1.1372-1.4394 0.3894-0.58301 0.30487-1.1475 0.12818-1.6454-0.17713-0.49473-1.4637-5.326-2.0045-7.2934-0.5314-1.9151-1.332-1.7678-1.9003-1.868z" fill="#17d841" opacity=".934"/>
</g>
</svg>
