<svg width="128" height="128" version="1.1" viewBox="0 0 33.867 33.867" xmlns="http://www.w3.org/2000/svg" xmlns:xlink="http://www.w3.org/1999/xlink">
<defs>
<linearGradient id="linearGradient1632" x1="132.21" x2="132.21" y1="42.152" y2="70.68" gradientTransform="matrix(.97573 0 0 .97573 -111.77 -37.203)" gradientUnits="userSpaceOnUse">
<stop stop-color="#f37373" offset="0"/>
<stop stop-color="#e84ba8" offset="1"/>
</linearGradient>
</defs>
<g transform="matrix(.97573 0 0 .97573 -65.748 -37.203)" fill="none" opacity=".29677" stroke="#000" stroke-linecap="round" stroke-linejoin="round" stroke-opacity=".02">
<rect x="69.84" y="40.71" width="29.811" height="29.811" rx="6.6099" ry="6.6099" stroke-width=".1"/>
<rect x="69.84" y="40.71" width="29.811" height="29.811" rx="6.6099" ry="6.6099" stroke-width=".2"/>
<rect x="69.84" y="40.71" width="29.811" height="29.811" rx="6.6099" ry="6.6099" stroke-width=".3"/>
<rect x="69.84" y="40.71" width="29.811" height="29.811" rx="6.6099" ry="6.6099" stroke-width=".4"/>
<rect x="69.84" y="40.71" width="29.811" height="29.811" rx="6.6099" ry="6.6099" stroke-width=".5"/>
<rect x="69.84" y="40.71" width="29.811" height="29.811" rx="6.6099" ry="6.6099" stroke-width=".6"/>
<rect x="69.84" y="40.71" width="29.811" height="29.811" rx="6.6099" ry="6.6099" stroke-width=".7"/>
<rect x="69.84" y="40.71" width="29.811" height="29.811" rx="6.6099" ry="6.6099" stroke-width=".8"/>
<rect x="69.84" y="40.71" width="29.811" height="29.811" rx="6.6099" ry="6.6099"/>
<rect x="69.84" y="40.71" width="29.811" height="29.811" rx="6.6099" ry="6.6099" stroke-width="1.2"/>
<rect x="69.84" y="40.71" width="29.811" height="29.811" rx="6.6099" ry="6.6099" stroke-width="1.4"/>
<rect x="69.84" y="40.71" width="29.811" height="29.811" rx="6.6099" ry="6.6099" stroke-width="1.6"/>
<rect x="69.84" y="40.71" width="29.811" height="29.811" rx="6.6099" ry="6.6099" stroke-width="1.8"/>
<rect x="69.84" y="40.71" width="29.811" height="29.811" rx="6.6099" ry="6.6099" stroke-width="2"/>
<rect x="69.84" y="40.71" width="29.811" height="29.811" rx="6.6099" ry="6.6099" stroke-width="2.2"/>
<rect x="69.84" y="40.71" width="29.811" height="29.811" rx="6.6099" ry="6.6099" stroke-width="2.6"/>
<rect x="69.84" y="40.71" width="29.811" height="29.811" rx="6.6099" ry="6.6099" stroke-width="3"/>
<rect x="69.84" y="40.71" width="29.811" height="29.811" rx="6.6099" ry="6.6099" stroke-width="3.4"/>
<rect x="69.84" y="40.71" width="29.811" height="29.811" rx="6.6099" ry="6.6099" stroke-width="3.8"/>
<rect x="69.84" y="40.71" width="29.811" height="29.811" rx="6.6099" ry="6.6099" stroke-width="4.2"/>
<rect x="69.84" y="40.71" width="29.811" height="29.811" rx="6.6099" ry="6.6099" stroke-width="4.6"/>
<rect x="69.84" y="40.71" width="29.811" height="29.811" rx="6.6099" ry="6.6099" stroke-width="5"/>
</g>
<rect x="2.4065" y="2.5186" width="29.087" height="29.087" rx="6.4495" ry="6.4495" fill="url(#linearGradient1632)" stroke-linecap="round" stroke-linejoin="round" stroke-width="2.6877"/>
<path d="m15.61 4.965c0.06215-0.03901 0.88304 0.48769 1.7275 1.1082 1.2363 0.90842 2.0219 1.7116 2.7104 2.7759 0.17012 0.26301 0.31075 0.53684 0.43725 0.81445 0.07356 0.11466 0.14311 0.23234 0.20842 0.35281 0.50062 0.94255 0.71198 1.9776 0.66334 2.9772-0.08126 1.6696-1.4796 2.55-2.8755 3.4263-2.2316 1.401-4.5325 1.1867-5.869-1.3304-0.06147-0.11587-0.11941-0.2339-0.17248-0.35459-0.06459-0.1134-0.13589-0.22311-0.19104-0.33998-0.75732-1.6053-0.6034-3.3238 0.23126-4.7864 0.4419-0.77435 1.3277-1.5638 1.9655-1.9662 0.79574-0.50193 1.064-1.517 1.1144-2.3998 8e-3 -0.14131 0.03133-0.26594 0.0499-0.2776z" fill="#fff" stroke-width=".40021"/>
<path transform="scale(.26458)" d="m47.742 49.01a3.3004 3.6306 0 0 0-3.1855 4.5742l11.549 47.193a3.3004 3.6306 0 0 0 3.1875 2.6875h6.6016a3.3004 3.6306 0 0 0 1.4434-0.38476 24.202 24.202 0 0 1-7.7695-17.768 24.202 24.202 0 0 1 19.084-23.645l1.9785-8.084a3.3004 3.6306 0 0 0-3.1875-4.5742h-29.701zm36.027 16.623a19.681 19.681 0 0 0-19.68 19.68 19.681 19.681 0 0 0 19.68 19.682 19.681 19.681 0 0 0 19.682-19.682 19.681 19.681 0 0 0-19.682-19.68zm-3.0254 7.5781h6.0508l0.26758 3.1953a9.508 9.508 0 0 1 2.7852 1.5977l2.8906-1.3613 3.0254 5.2402-2.623 1.8203a9.508 9.508 0 0 1 0.13672 1.6094 9.508 9.508 0 0 1-0.14453 1.6035l2.6309 1.8262-3.0254 5.2402-2.8965-1.3633a9.508 9.508 0 0 1-2.7793 1.6074l-0.26758 3.1875h-6.0508l-0.26562-3.1953a9.508 9.508 0 0 1-2.7852-1.5957l-2.8906 1.3594-3.0254-5.2383 2.623-1.8203a9.508 9.508 0 0 1-0.13867-1.6113 9.508 9.508 0 0 1 0.14648-1.6035l-2.6309-1.8262 3.0254-5.2402 2.8965 1.3633a9.508 9.508 0 0 1 2.7793-1.6074l0.26562-3.1855v-0.001953zm3.0254 8.6445a3.4575 3.4575 0 0 0-3.457 3.459 3.4575 3.4575 0 0 0 3.457 3.457 3.4575 3.4575 0 0 0 3.459-3.457 3.4575 3.4575 0 0 0-3.459-3.459z" fill="#fff" stroke-width="1.5126"/>
<rect x="10.158" y="12.967" width="12.807" height="1.2006" rx=".58231" ry=".60032" opacity=".2" stroke-width=".40021"/>
<rect x="10.158" y="12.567" width="12.807" height="1.2006" rx=".58231" ry=".60032" fill="#f7b4c3" stroke-width=".40021"/>
</svg>
