<svg width="128" height="128" version="1.1" viewBox="0 0 33.867 33.867" xmlns="http://www.w3.org/2000/svg" xmlns:xlink="http://www.w3.org/1999/xlink">
<defs>
<linearGradient id="linearGradient838" x1="-146.65" x2="-146.65" y1="195.59" y2="157.63" gradientUnits="userSpaceOnUse">
<stop stop-color="#e4dee7" offset="0"/>
<stop stop-color="#dcd5e1" offset=".187"/>
<stop stop-color="#b3afb9" offset=".43348"/>
<stop stop-color="#9d97a4" offset=".54615"/>
<stop stop-color="#9893a0" offset=".69404"/>
<stop stop-color="#888191" offset=".81846"/>
<stop stop-color="#736b77" offset="1"/>
</linearGradient>
<linearGradient id="linearGradient858" x1="-149.66" x2="-149.66" y1="195.4" y2="197.12" gradientUnits="userSpaceOnUse">
<stop stop-color="#918a98" offset="0"/>
<stop stop-color="#656268" offset="1"/>
</linearGradient>
<linearGradient id="linearGradient886" x1="44.171" x2="44.171" y1="13.358" y2="154.97" gradientUnits="userSpaceOnUse">
<stop stop-color="#7b4d74" offset="0"/>
<stop stop-color="#3c1e2f" offset="1"/>
</linearGradient>
<linearGradient id="linearGradient898" x1="37.639" x2="37.639" y1="15.912" y2="150.34" gradientUnits="userSpaceOnUse">
<stop stop-color="#ffa5d1" offset="0"/>
<stop stop-color="#fe88ce" offset=".038424"/>
<stop stop-color="#fe2f75" offset="1"/>
</linearGradient>
<linearGradient id="linearGradient910" x1="-194.6" x2="-188.21" y1="78.258" y2="78.258" gradientTransform="rotate(-14.754 -35.935 -1150.6)" gradientUnits="userSpaceOnUse">
<stop stop-color="#5a283d" offset="0"/>
<stop stop-color="#5a3649" offset=".49391"/>
<stop stop-color="#4f2437" offset="1"/>
</linearGradient>
<linearGradient id="linearGradient946" x1="-170.81" x2="-88.308" y1="19.461" y2="82.86" gradientUnits="userSpaceOnUse">
<stop stop-color="#532f44" offset="0"/>
<stop stop-color="#543145" offset=".098398"/>
<stop stop-color="#8e6880" offset=".12158"/>
<stop stop-color="#754d5f" offset=".34124"/>
<stop stop-color="#58304a" offset=".35659"/>
<stop stop-color="#824575" offset=".36896"/>
<stop stop-color="#614359" offset="1"/>
</linearGradient>
<linearGradient id="linearGradient968" x1="-173.1" x2="-91.983" y1="22.09" y2="80.407" gradientUnits="userSpaceOnUse">
<stop stop-color="#8f4b6d" offset="0"/>
<stop stop-color="#3b1827" offset="1"/>
</linearGradient>
<linearGradient id="linearGradient1010" x1="-202.3" x2="-193.89" y1="58.502" y2="48.214" gradientTransform="translate(283.41 .27585)" gradientUnits="userSpaceOnUse">
<stop stop-color="#e3188d" stop-opacity="0" offset="0"/>
<stop stop-color="#e3188d" stop-opacity=".25098" offset=".34921"/>
<stop stop-color="#de2b92" stop-opacity=".66667" offset=".46355"/>
<stop stop-color="#db3b97" offset=".60953"/>
<stop stop-color="#dc3394" stop-opacity=".77647" offset=".76042"/>
<stop stop-color="#e3188d" stop-opacity="0" offset="1"/>
</linearGradient>
<linearGradient id="linearGradient1033" x1="700.68" x2="15.523" y1="348" y2="386.39" gradientUnits="userSpaceOnUse">
<stop stop-color="#fcedf5" stop-opacity=".40838" offset="0"/>
<stop stop-color="#fcedf5" stop-opacity="0" offset="1"/>
</linearGradient>
</defs>
<g transform="translate(0 -263.13)">
<g transform="matrix(.14034 0 0 .14034 10.571 268.6)">
<g transform="translate(193.82 1.0691)">
<path d="m-181.88 182.35c-3.7685 4.796-7.3966 8.4392-7.3375 10.759 0.0532 2.0908 2.018 4.9114 4.1096 4.9114h75.127c2.0915 0 3.7223-2.8874 3.7755-4.9782 0.059-2.3193-3.569-5.9625-7.3375-10.759z" fill-opacity=".1623" style="paint-order:fill markers stroke"/>
<path d="m-181.88 181.65c-3.7685 4.796-7.3966 8.4392-7.3375 10.759 0.0532 2.0908 2.018 4.9114 4.1096 4.9114h75.127c2.0915 0 3.7223-2.8874 3.7755-4.9782 0.059-2.3193-3.569-5.9625-7.3375-10.759z" fill="url(#linearGradient858)" style="paint-order:fill markers stroke"/>
<path d="m-181.88 183.63c-3.7685 4.796-7.3966 8.4392-7.3375 10.759 0.0532 2.0908 2.018 4.9114 4.1096 4.9114h75.127c2.0915 0 3.7223-2.8874 3.7755-4.9782 0.059-2.3193-3.569-5.9625-7.3375-10.759z" fill-opacity=".036649" style="paint-order:fill markers stroke"/>
<path d="m-181.88 182.89c-3.7685 4.796-7.3966 8.4392-7.3375 10.759 0.0532 2.0908 2.018 4.9114 4.1096 4.9114h75.127c2.0915 0 3.7223-2.8874 3.7755-4.9782 0.059-2.3193-3.569-5.9625-7.3375-10.759z" fill-opacity=".04712" style="paint-order:fill markers stroke"/>
<path d="m-148.44 156.1-5.1e-4 0.0155-21.164 0.18139c-2.0914 0.0179-3.9529 1.6915-3.775 3.7755 0.98672 11.557-3.8178 15.38-8.1597 20.906-3.7685 4.796-7.3966 8.4392-7.3375 10.759 0.0532 2.0908 1.6839 3.7755 3.7755 3.7755h75.127c2.0915 0 3.7223-1.6846 3.7755-3.7755 0.059-2.3193-3.569-5.9625-7.3375-10.759-4.3419-5.5258-9.1464-9.3484-8.1597-20.906 0.17792-2.084-1.6835-3.7576-3.775-3.7755l-21.164-0.18139-5.1e-4 -0.0155-0.90227 8e-3z" fill="url(#linearGradient838)" style="paint-order:fill markers stroke"/>
</g>
<g>
<path d="m-36.668 11.426h165.74c15.27 0 22.043 7.3411 24.186 24.186l12.676 99.619c1.6913 13.292-10.787 24.186-24.186 24.186h-191.26c-13.399 0-25.9-10.897-24.186-24.186l12.851-99.619c2.1257-16.478 7.3125-24.186 24.186-24.186z" fill="#8c7a93" style="paint-order:fill markers stroke"/>
<path d="m-36.668 11.426h165.74c15.27 0 22.025 7.3434 24.186 24.186l12.298 95.839c1.5438 12.031-8.1411 24.186-23.808 24.186h-191.26c-19.814 0-25.079-17.53-24.186-24.186l12.851-95.839c2.208-16.467 7.3125-24.186 24.186-24.186z" fill="url(#linearGradient886)" style="paint-order:fill markers stroke"/>
<path d="m-32.705 15.961h157.42c16.874 0 21.539 3.2324 24.186 24.186l10.961 86.752c2.198 17.395-6.8048 24.186-22.472 24.186h-182.95c-19.814 0-23.966-11.144-22.315-24.186l10.98-86.752c2.1726-17.165 4.907-24.186 24.186-24.186z" fill="url(#linearGradient898)" style="paint-order:fill markers stroke"/>
<path transform="scale(.26458)" d="m-123.61 60.326c225.07 59.241 405.54 74.395 544 35.73l130.23 421.76c-110.71 23.567-222.93 45.456-335.92 53.211h304.58c59.214 0 93.239-25.665 84.932-91.412l-41.428-327.88c-10.006-79.195-27.638-91.412-91.412-91.412zm174.12 510.65 0.01367 0.0547h0.72852c-0.24743-0.019-0.49476-0.0354-0.74219-0.0547z" fill="url(#linearGradient1033)"/>
<path d="m26.695 25.73 103.17 69.757 1.8709-15.635-82.987-66.817-7.0826 6.0136z" fill="url(#linearGradient1010)" opacity=".399"/>
<path d="m111.23 25.415 3.3074-0.87102c0.79375-0.20903 1.601 0.26168 1.8101 1.0554l29.339 111.41-6.1729 1.6256-29.339-111.41c-0.20904-0.79374 0.26169-1.601 1.0554-1.8101z" fill="url(#linearGradient910)" style="paint-order:fill markers stroke"/>
<g transform="translate(280.63)">
<path d="m-231.89 13.045a3.3073 3.3073 0 0 1-3.3046 3.3073 3.3073 3.3073 0 0 1-3.31-3.302 3.3073 3.3073 0 0 1 3.2993-3.3126 3.3073 3.3073 0 0 1 3.3153 3.2966" fill="#9893a0" style="paint-order:fill markers stroke"/>
<path d="m-236.27 11.392h0.86382c1.5537 0 2.8045 1.2508 2.8045 2.8045v5.8248c-2.3081 1.5802-5.1801 0.29047-6.4728-1.0023v-4.8225c0-1.5537 1.2508-2.8045 2.8045-2.8045z" fill="#ab5b7e" style="paint-order:fill markers stroke"/>
<g transform="translate(-63.963 -6.6407)">
<path d="m-170 18.258c-3.5049-2.9463-6.8957 1.2501-4.0302 4.4674l9.3808 6.2916 22.577 13.269 50.484 40.684c1.061 0.96285 2.3862 1.0321 3.0774 0.27138l0.0041-0.0047c0.68787-0.76387-0.04058-2.0203-1.1027-2.9821l-1.55-1.4466-44.932-37.939c-1.2598-1.1142-5.2841-3.8201-6.5614-4.5351l-18.467-11.17z" fill="url(#linearGradient968)"/>
<path d="m-169.07 17.055c-4.7932-2.7308-7.6433 3.1602-4.0302 5.0343l9.3808 6.2916 22.388 12.985 50.154 41.392c1.061 0.96285 2.3862 1.0321 3.0774 0.27138l0.0041-0.0047c0.68787-0.76387-0.04058-2.0203-1.1027-2.9821l-1.55-1.4466-44.412-38.931c-1.2598-1.1142-5.2841-3.8201-6.5614-4.5351l-18.467-11.17z" fill="url(#linearGradient946)"/>
</g>
</g>
</g>
</g>
</g>
</svg>
