<svg width="136.53" height="136.53" version="1.1" viewBox="0 0 136.53 136.53" xmlns="http://www.w3.org/2000/svg" xmlns:xlink="http://www.w3.org/1999/xlink">
<defs>
<linearGradient id="linearGradient892">
<stop stop-color="#e87d2b" offset="0"/>
<stop stop-color="#ebcf91" offset=".37545"/>
<stop stop-color="#ece3b3" offset=".5"/>
<stop stop-color="#dae5be" offset=".60637"/>
<stop stop-color="#7cf1e7" offset="1"/>
</linearGradient>
<linearGradient id="linearGradient894" x1="10.638" x2="113.44" y1="34.526" y2="114.94" gradientUnits="userSpaceOnUse" xlink:href="#linearGradient892"/>
<linearGradient id="linearGradient863" x1="41.322" x2="101.85" y1="30.209" y2="100.79" gradientTransform="translate(66.82)" gradientUnits="userSpaceOnUse" xlink:href="#linearGradient892"/>
<linearGradient id="linearGradient907" x1="33.585" x2="98.141" y1="27.308" y2="115.06" gradientTransform="translate(.00031444 -.00085442)" gradientUnits="userSpaceOnUse" xlink:href="#linearGradient892"/>
</defs>
<filter x="-.069933" y="-.054406" width="1.1399" height="1.1088" color-interpolation-filters="sRGB">
<feGaussianBlur stdDeviation="1.9764485"/>
</filter>
<path d="m68.113 2.2168c-36.979 0-67.021 30.042-67.021 67.021 0 36.979 30.042 67.021 67.021 67.021 36.979 0 67.021-30.042 67.021-67.021 0-36.979-30.042-67.021-67.021-67.021z" color="#000000" color-rendering="auto" dominant-baseline="auto" fill="url(#linearGradient894)" image-rendering="auto" shape-rendering="auto" solid-color="#000000" style="font-feature-settings:normal;font-variant-alternates:normal;font-variant-caps:normal;font-variant-ligatures:normal;font-variant-numeric:normal;font-variant-position:normal;isolation:auto;mix-blend-mode:normal;shape-padding:0;text-decoration-color:#000000;text-decoration-line:none;text-decoration-style:solid;text-indent:0;text-orientation:mixed;text-transform:none;white-space:normal"/>
<path d="m68.113 8.7812c-33.39-2.971e-4 -60.457 27.067-60.457 60.457-2.96e-4 33.39 27.067 60.457 60.457 60.457 33.39 3e-4 60.457-27.067 60.457-60.457 3e-4 -33.39-27.067-60.457-60.457-60.457z" fill="#fff" style="paint-order:fill markers stroke"/>
<g transform="translate(-66.82)" fill="none" shape-rendering="auto" stroke="url(#linearGradient863)">
<path d="m166.55 25.652c-0.18436-0.01537-0.37443-0.0043-0.56836 0.03711l-42.135 9c-1.5514 0.33137-3.0684 1.8901-3.0684 3.4766v7.3633l-0.17578 43.832c-3.6613 2.8187-11.949 1.7492-16.5 5.7871-4.261 4.8885-4.3315 12.827 1.1797 16.061 7.1568 4.0445 20.656 0.7443 19.996-12.293l0.4961-44.543 37.85-6.3984 0.0644 31.945c-3.7744 2.5968-11.795 1.6648-16.248 5.6152-4.261 4.8885-4.3315 12.826 1.1797 16.059 7.1568 4.0445 20.656 0.7443 19.996-12.293l0.0859-43.764c0.0849-0.25645 0.14257-0.52803 0.14257-0.82617v-16.158c0-1.3881-1.0044-2.7928-2.2949-2.9004z" color="#000000" color-rendering="auto" dominant-baseline="auto" image-rendering="auto" opacity=".095238" solid-color="#000000" style="font-feature-settings:normal;font-variant-alternates:normal;font-variant-caps:normal;font-variant-ligatures:normal;font-variant-numeric:normal;font-variant-position:normal;isolation:auto;mix-blend-mode:normal;shape-padding:0;text-decoration-color:#000000;text-decoration-line:none;text-decoration-style:solid;text-indent:0;text-orientation:mixed;text-transform:none;white-space:normal"/>
<path d="m166.55 25.652c-0.18436-0.01537-0.37443-0.0043-0.56836 0.03711l-42.135 9c-1.5514 0.33137-3.0684 1.8901-3.0684 3.4766v7.3633l-0.17578 43.832c-3.6613 2.8187-11.949 1.7492-16.5 5.7871-4.261 4.8885-4.3315 12.827 1.1797 16.061 7.1568 4.0445 20.656 0.7443 19.996-12.293l0.4961-44.543 37.85-6.3984 0.0644 31.945c-3.7744 2.5968-11.795 1.6648-16.248 5.6152-4.261 4.8885-4.3315 12.826 1.1797 16.059 7.1568 4.0445 20.656 0.7443 19.996-12.293l0.0859-43.764c0.0849-0.25645 0.14257-0.52803 0.14257-0.82617v-16.158c0-1.3881-1.0044-2.7928-2.2949-2.9004z" color="#000000" color-rendering="auto" dominant-baseline="auto" image-rendering="auto" opacity=".095238" solid-color="#000000" stroke-width="2" style="font-feature-settings:normal;font-variant-alternates:normal;font-variant-caps:normal;font-variant-ligatures:normal;font-variant-numeric:normal;font-variant-position:normal;isolation:auto;mix-blend-mode:normal;shape-padding:0;text-decoration-color:#000000;text-decoration-line:none;text-decoration-style:solid;text-indent:0;text-orientation:mixed;text-transform:none;white-space:normal"/>
<path d="m166.55 25.652c-0.18436-0.01537-0.37443-0.0043-0.56836 0.03711l-42.135 9c-1.5514 0.33137-3.0684 1.8901-3.0684 3.4766v7.3633l-0.17578 43.832c-3.6613 2.8187-11.949 1.7492-16.5 5.7871-4.261 4.8885-4.3315 12.827 1.1797 16.061 7.1568 4.0445 20.656 0.7443 19.996-12.293l0.4961-44.543 37.85-6.3984 0.0644 31.945c-3.7744 2.5968-11.795 1.6648-16.248 5.6152-4.261 4.8885-4.3315 12.826 1.1797 16.059 7.1568 4.0445 20.656 0.7443 19.996-12.293l0.0859-43.764c0.0849-0.25645 0.14257-0.52803 0.14257-0.82617v-16.158c0-1.3881-1.0044-2.7928-2.2949-2.9004z" color="#000000" color-rendering="auto" dominant-baseline="auto" image-rendering="auto" opacity=".061625" solid-color="#000000" stroke-width="3" style="font-feature-settings:normal;font-variant-alternates:normal;font-variant-caps:normal;font-variant-ligatures:normal;font-variant-numeric:normal;font-variant-position:normal;isolation:auto;mix-blend-mode:normal;shape-padding:0;text-decoration-color:#000000;text-decoration-line:none;text-decoration-style:solid;text-indent:0;text-orientation:mixed;text-transform:none;white-space:normal"/>
<path d="m166.55 25.652c-0.18436-0.01537-0.37443-0.0043-0.56836 0.03711l-42.135 9c-1.5514 0.33137-3.0684 1.8901-3.0684 3.4766v7.3633l-0.17578 43.832c-3.6613 2.8187-11.949 1.7492-16.5 5.7871-4.261 4.8885-4.3315 12.827 1.1797 16.061 7.1568 4.0445 20.656 0.7443 19.996-12.293l0.4961-44.543 37.85-6.3984 0.0644 31.945c-3.7744 2.5968-11.795 1.6648-16.248 5.6152-4.261 4.8885-4.3315 12.826 1.1797 16.059 7.1568 4.0445 20.656 0.7443 19.996-12.293l0.0859-43.764c0.0849-0.25645 0.14257-0.52803 0.14257-0.82617v-16.158c0-1.3881-1.0044-2.7928-2.2949-2.9004z" color="#000000" color-rendering="auto" dominant-baseline="auto" image-rendering="auto" opacity=".061625" solid-color="#000000" stroke-width="4" style="font-feature-settings:normal;font-variant-alternates:normal;font-variant-caps:normal;font-variant-ligatures:normal;font-variant-numeric:normal;font-variant-position:normal;isolation:auto;mix-blend-mode:normal;shape-padding:0;text-decoration-color:#000000;text-decoration-line:none;text-decoration-style:solid;text-indent:0;text-orientation:mixed;text-transform:none;white-space:normal"/>
<path d="m166.55 25.652c-0.18436-0.01537-0.37443-0.0043-0.56836 0.03711l-42.135 9c-1.5514 0.33137-3.0684 1.8901-3.0684 3.4766v7.3633l-0.17578 43.832c-3.6613 2.8187-11.949 1.7492-16.5 5.7871-4.261 4.8885-4.3315 12.827 1.1797 16.061 7.1568 4.0445 20.656 0.7443 19.996-12.293l0.4961-44.543 37.85-6.3984 0.0644 31.945c-3.7744 2.5968-11.795 1.6648-16.248 5.6152-4.261 4.8885-4.3315 12.826 1.1797 16.059 7.1568 4.0445 20.656 0.7443 19.996-12.293l0.0859-43.764c0.0849-0.25645 0.14257-0.52803 0.14257-0.82617v-16.158c0-1.3881-1.0044-2.7928-2.2949-2.9004z" color="#000000" color-rendering="auto" dominant-baseline="auto" image-rendering="auto" opacity=".061625" solid-color="#000000" stroke-width="5" style="font-feature-settings:normal;font-variant-alternates:normal;font-variant-caps:normal;font-variant-ligatures:normal;font-variant-numeric:normal;font-variant-position:normal;isolation:auto;mix-blend-mode:normal;shape-padding:0;text-decoration-color:#000000;text-decoration-line:none;text-decoration-style:solid;text-indent:0;text-orientation:mixed;text-transform:none;white-space:normal"/>
<path d="m166.55 25.652c-0.18436-0.01537-0.37443-0.0043-0.56836 0.03711l-42.135 9c-1.5514 0.33137-3.0684 1.8901-3.0684 3.4766v7.3633l-0.17578 43.832c-3.6613 2.8187-11.949 1.7492-16.5 5.7871-4.261 4.8885-4.3315 12.827 1.1797 16.061 7.1568 4.0445 20.656 0.7443 19.996-12.293l0.4961-44.543 37.85-6.3984 0.0644 31.945c-3.7744 2.5968-11.795 1.6648-16.248 5.6152-4.261 4.8885-4.3315 12.826 1.1797 16.059 7.1568 4.0445 20.656 0.7443 19.996-12.293l0.0859-43.764c0.0849-0.25645 0.14257-0.52803 0.14257-0.82617v-16.158c0-1.3881-1.0044-2.7928-2.2949-2.9004z" color="#000000" color-rendering="auto" dominant-baseline="auto" image-rendering="auto" opacity=".036" solid-color="#000000" stroke-width="6" style="font-feature-settings:normal;font-variant-alternates:normal;font-variant-caps:normal;font-variant-ligatures:normal;font-variant-numeric:normal;font-variant-position:normal;isolation:auto;mix-blend-mode:normal;shape-padding:0;text-decoration-color:#000000;text-decoration-line:none;text-decoration-style:solid;text-indent:0;text-orientation:mixed;text-transform:none;white-space:normal"/>
</g>
<path d="m99.733 25.651c-0.18436-0.01537-0.37443-0.0043-0.56836 0.03711l-42.135 9c-1.5514 0.33137-3.0684 1.8901-3.0684 3.4766v7.3633l-0.17578 43.832c-3.6613 2.8187-11.949 1.7492-16.5 5.7871-4.261 4.8885-4.3315 12.827 1.1797 16.061 7.1568 4.0445 20.656 0.7443 19.996-12.293l0.49609-44.543 37.85-6.3984 0.0645 31.945c-3.7744 2.5968-11.795 1.6648-16.248 5.6152-4.261 4.8885-4.3315 12.826 1.1797 16.059 7.1568 4.0445 20.656 0.7443 19.996-12.293l0.0859-43.764c0.0849-0.25645 0.14257-0.52803 0.14257-0.82617v-16.158c0-1.3881-1.0044-2.7928-2.2949-2.9004z" fill="url(#linearGradient907)" style="paint-order:fill markers stroke"/>
</svg>
