<svg width="128" height="128" version="1.1" viewBox="0 0 33.867 33.867" xmlns="http://www.w3.org/2000/svg" xmlns:xlink="http://www.w3.org/1999/xlink">
<defs>
<linearGradient id="linearGradient826" x1="26.973" x2="27.578" y1="256.77" y2="221.62" gradientTransform="matrix(.89197 0 0 .89197 -8.0277 66.958)" gradientUnits="userSpaceOnUse">
<stop stop-color="#636261" offset="0"/>
<stop stop-color="#c7e1ea" offset="1"/>
</linearGradient>
</defs>
<g transform="translate(0 -263.13)">
<g transform="translate(8.901e-7 .08562)">
<circle cx="16.933" cy="280.24" r="16.326" opacity=".25"/>
<circle cx="16.933" cy="279.72" r="16.326" fill="url(#linearGradient826)"/>
<circle cx="17.008" cy="279.87" r="14.962" fill="#fff" stroke="#808080" stroke-linecap="round" stroke-linejoin="round" stroke-width=".2"/>
<g transform="matrix(1.598 0 0 1.598 -51.584 -89.699)" stroke-width=".6258">
<g stroke-width=".16558" aria-label="10">
<path d="m35.613 227.26v-0.2022q0.1407-6e-3 0.19698-0.0188 0.08963-0.0198 0.14592-0.0792 0.03856-0.0406 0.05837-0.10839 0.01147-0.0407 0.01147-0.0605h0.24701v1.5112h-0.30434v-1.0422z"/>
<path d="m37.024 227.56q0 0.26056 0.04273 0.39918 0.04273 0.13757 0.1751 0.13757 0.13236 0 0.17301-0.13757 0.04169-0.13862 0.04169-0.39918 0-0.27307-0.04169-0.40439-0.04065-0.13133-0.17301-0.13133-0.13236 0-0.1751 0.13133-0.04273 0.13132-0.04273 0.40439zm0.21783-0.78064q0.2887 0 0.40439 0.20323 0.11673 0.20324 0.11673 0.57741 0 0.37416-0.11673 0.57636-0.11569 0.20219-0.40439 0.20219-0.2887 0-0.40543-0.20219-0.11569-0.2022-0.11569-0.57636 0-0.37417 0.11569-0.57741 0.11673-0.20323 0.40543-0.20323z"/>
</g>
<g aria-label="2">
<path d="m49.116 228.32q0.0042-0.16259 0.06983-0.29704 0.06358-0.15113 0.30017-0.31997 0.20532-0.14696 0.26577-0.21053 0.09276-0.099 0.09276-0.21679 0-0.0959-0.05316-0.15946-0.05315-0.0636-0.15217-0.0636-0.13549 0-0.18448 0.1011-0.02814 0.0584-0.03335 0.18552h-0.2887q0.0073-0.19282 0.06983-0.31163 0.11882-0.22617 0.42211-0.22617 0.23972 0 0.38146 0.13341 0.14174 0.13236 0.14174 0.35123 0 0.1678-0.10006 0.29808-0.06566 0.0865-0.21574 0.19282l-0.11882 0.0844q-0.11152 0.0792-0.15321 0.11465-0.04065 0.0354-0.06879 0.0823h0.65974v0.2616z" stroke-width=".16558"/>
</g>
<g aria-label="3">
<path d="m50.491 231.49q0 0.0907 0.02918 0.15008 0.0542 0.10944 0.19698 0.10944 0.08755 0 0.15217-0.0594 0.06566-0.0605 0.06566-0.17301 0-0.14904-0.1209-0.19907-0.06879-0.0281-0.21679-0.0281v-0.21262q0.14487-2e-3 0.2022-0.0281 0.09901-0.0438 0.09901-0.17718 0-0.0865-0.05107-0.1407-0.05003-0.0542-0.14174-0.0542-0.10527 0-0.1553 0.0667-0.04898 0.0667-0.0469 0.17823h-0.27724q0.0042-0.11257 0.03856-0.21366 0.03648-0.0886 0.11465-0.16364 0.05837-0.0531 0.13862-0.0813 0.08025-0.0281 0.19698-0.0281 0.21679 0 0.34915 0.11256 0.13341 0.11152 0.13341 0.30017 0 0.1334-0.07921 0.22512-0.05003 0.0573-0.10422 0.0782 0.04065 0 0.11673 0.0698 0.1136 0.10527 0.1136 0.28766 0 0.19177-0.13341 0.33769-0.13236 0.14487-0.39293 0.14487-0.32101 0-0.44608-0.20949-0.06566-0.11152-0.07296-0.29183z" stroke-width=".16558"/>
</g>
<g aria-label="9">
<path d="m34.605 230.97q0-0.24284 0.13966-0.39293 0.1407-0.15112 0.36478-0.15112 0.34498 0 0.47318 0.30538 0.07296 0.17301 0.07296 0.45546 0 0.27411-0.06983 0.45754-0.13341 0.34915-0.48985 0.34915-0.16989 0-0.30538-0.10005-0.13549-0.1011-0.15529-0.29391h0.296q0.01042 0.0667 0.05628 0.10839 0.04586 0.0417 0.12194 0.0417 0.14696 0 0.20636-0.16259 0.03231-0.0896 0.04065-0.2616-0.04065 0.0511-0.08651 0.0782-0.08338 0.05-0.20532 0.05-0.18031 0-0.31997-0.12403-0.13966-0.12507-0.13966-0.35957zm0.52425 0.2418q0.06149 0 0.11569-0.0354 0.1011-0.0646 0.1011-0.22408 0-0.12819-0.06045-0.20324-0.05941-0.075-0.16363-0.075-0.07608 0-0.13028 0.0427-0.08546 0.0667-0.08546 0.22617 0 0.13445 0.0542 0.2022 0.05524 0.0667 0.16884 0.0667z" stroke-width=".16558"/>
</g>
<g aria-label="8">
<path d="m36.109 235.37q0 0.11152 0.05732 0.17301 0.05837 0.0615 0.1605 0.0615 0.10214 0 0.15946-0.0615 0.05837-0.0615 0.05837-0.17301 0-0.11569-0.05941-0.1751-0.05837-0.0605-0.15842-0.0605-0.10006 0-0.15946 0.0605-0.05837 0.0594-0.05837 0.1751zm-0.3085 0.0198q0-0.12715 0.05732-0.23034 0.05837-0.10318 0.16988-0.15529-0.10944-0.073-0.14279-0.15738-0.03231-0.0855-0.03231-0.15946 0-0.16468 0.12403-0.28037 0.12403-0.11673 0.35019-0.11673t0.35019 0.11673q0.12403 0.11569 0.12403 0.28037 0 0.074-0.03335 0.15946-0.03231 0.0844-0.14174 0.14696 0.11152 0.0625 0.1678 0.16571 0.05628 0.10319 0.05628 0.23034 0 0.19073-0.14174 0.32518-0.1407 0.13341-0.39397 0.13341-0.25326 0-0.38354-0.13341-0.13028-0.13445-0.13028-0.32518zm0.3356-0.66912q0 0.0823 0.05003 0.13445 0.05107 0.0521 0.1407 0.0521 0.09068 0 0.13966-0.0521 0.05003-0.0521 0.05003-0.13445 0-0.0896-0.05003-0.13966-0.04899-0.0511-0.13966-0.0511-0.08963 0-0.1407 0.0511-0.05003 0.05-0.05003 0.13966z" stroke-width=".16558"/>
</g>
<g aria-label="7">
<path d="m39.716 237.28q-0.0667 0.0657-0.18552 0.2345-0.11882 0.1678-0.19907 0.34707-0.06358 0.1407-0.11465 0.34394-0.05107 0.20324-0.05107 0.33352h-0.3085q0.01355-0.40648 0.26682-0.84526 0.16363-0.27203 0.27411-0.37938h-0.75354l0.0042-0.26681h1.0673z" stroke-width=".16558"/>
</g>
<g aria-label="6">
<path d="m42.834 239.05q0 0.12194 0.06566 0.19907 0.06566 0.0771 0.16676 0.0771 0.09901 0 0.1553-0.074 0.05732-0.0751 0.05732-0.19386 0-0.13237-0.06462-0.2022-0.06462-0.0709-0.15842-0.0709-0.07608 0-0.13445 0.0459-0.08755 0.0677-0.08755 0.21887zm0.41794-0.65244q0-0.0365-0.02814-0.0803-0.04794-0.0709-0.14487-0.0709-0.14487 0-0.20636 0.16259-0.03335 0.0896-0.04586 0.26473 0.05524-0.0657 0.1282-0.0959 0.07296-0.0302 0.16676-0.0302 0.20115 0 0.32935 0.13653 0.12924 0.13654 0.12924 0.34916 0 0.21157-0.12611 0.37312-0.12611 0.16155-0.39188 0.16155-0.28557 0-0.42107-0.23868-0.10527-0.18656-0.10527-0.48151 0-0.17302 0.01459-0.28141 0.02606-0.19282 0.1011-0.32101 0.06462-0.10944 0.16884-0.17614 0.10527-0.0667 0.25118-0.0667 0.21053 0 0.3356 0.10839 0.12507 0.10735 0.1407 0.28662z" stroke-width=".16558"/>
</g>
<g stroke-width=".16558" aria-label="11">
<path d="m38.163 224.6v-0.2022q0.1407-6e-3 0.19698-0.0188 0.08963-0.0198 0.14591-0.0792 0.03856-0.0407 0.05837-0.10839 0.01147-0.0406 0.01147-0.0605h0.24701v1.5112h-0.30434v-1.0422z"/>
<path d="m39.351 224.6v-0.2022q0.1407-6e-3 0.19698-0.0188 0.08963-0.0198 0.14591-0.0792 0.03856-0.0407 0.05837-0.10839 0.01146-0.0406 0.01146-0.0605h0.24701v1.5112h-0.30434v-1.0422z"/>
</g>
<g aria-label="1">
<path d="m46.432 224.6v-0.2022q0.1407-6e-3 0.19698-0.0188 0.08963-0.0198 0.14591-0.0792 0.03856-0.0407 0.05837-0.10839 0.01146-0.0406 0.01146-0.0605h0.24701v1.5112h-0.30434v-1.0422z" stroke-width=".16558"/>
</g>
<g stroke-width=".16558" aria-label="12">
<path d="m41.987 223.46v-0.2022q0.1407-6e-3 0.19698-0.0188 0.08963-0.0198 0.14591-0.0792 0.03856-0.0406 0.05837-0.10839 0.01146-0.0406 0.01146-0.0605h0.24701v1.5112h-0.30434v-1.0422z"/>
<path d="m43.094 224.5q0.0042-0.16259 0.06983-0.29704 0.06358-0.15112 0.30017-0.31997 0.20532-0.14695 0.26577-0.21053 0.09276-0.099 0.09276-0.21679 0-0.0959-0.05315-0.15946-0.05316-0.0636-0.15217-0.0636-0.13549 0-0.18448 0.1011-0.02814 0.0584-0.03335 0.18552h-0.2887q0.0073-0.19281 0.06983-0.31163 0.11882-0.22617 0.42211-0.22617 0.23972 0 0.38146 0.13341 0.14174 0.13237 0.14174 0.35124 0 0.1678-0.10006 0.29808-0.06566 0.0865-0.21574 0.19281l-0.11882 0.0844q-0.11152 0.0792-0.15321 0.11464-0.04065 0.0354-0.06879 0.0823h0.65974v0.2616z"/>
</g>
<g aria-label="4">
<path d="m50.157 235.5h-0.17093v0.32518h-0.29079v-0.32518h-0.59825v-0.25952l0.55552-0.91717h0.33352v0.94427h0.17093zm-0.46171-0.23242v-0.65244l-0.37834 0.65244z" stroke-width=".16558"/>
</g>
<g aria-label="5">
<path d="m46.898 238.12q0.01772 0.0969 0.06775 0.15009 0.05003 0.0521 0.14591 0.0521 0.11048 0 0.1678-0.0771 0.05837-0.0782 0.05837-0.19594 0-0.11569-0.0542-0.1949-0.0542-0.0803-0.16884-0.0803-0.0542 0-0.0938 0.0136-0.06983 0.025-0.10527 0.0928l-0.26682-0.0125 0.10631-0.83484h0.83275v0.25222h-0.61805l-0.0542 0.3304q0.06879-0.0448 0.10735-0.0594 0.06462-0.024 0.15738-0.024 0.1876 0 0.32726 0.12611 0.13966 0.12611 0.13966 0.36687 0 0.20949-0.13445 0.37416-0.13445 0.16468-0.40231 0.16468-0.21574 0-0.35436-0.11569-0.13862-0.11569-0.15425-0.32831z" stroke-width=".16558"/>
</g>
</g>
<circle cx="16.804" cy="279.76" r=".8617"/>
<rect transform="rotate(35.078)" x="165.45" y="218.87" width="9.3533" height=".77479" ry=".38739"/>
<rect transform="rotate(-30.303)" x="-126.41" y="249.68" width="13.57" height=".77479" ry=".38739"/>
<rect transform="matrix(0,-1,-1,0,0,0)" x="-293.6" y="-16.933" width="15.882" height=".25711" ry="0" fill="#fc2529"/>
<circle transform="matrix(0,-1,-1,0,0,0)" cx="-279.76" cy="-16.804" r=".34083" fill="#fc2529"/>
</g>
</g>
</svg>
