<svg width="128" height="128" version="1.1" viewBox="0 0 128 128" xmlns="http://www.w3.org/2000/svg" xmlns:xlink="http://www.w3.org/1999/xlink">
<defs>
<linearGradient id="linearGradient825" x1="-741.83" x2="-741.83" y1="959.05" y2="93.836" gradientTransform="matrix(.13668 0 0 .13668 162.31 -5.9893)" gradientUnits="userSpaceOnUse">
<stop stop-color="#ccd4da" offset="0"/>
<stop stop-color="#fff" offset="1"/>
</linearGradient>
<linearGradient id="linearGradient835" x1="-738.76" x2="-738.76" y1="931.43" y2="152.13" gradientTransform="matrix(.13668 0 0 .13668 162.31 -5.9893)" gradientUnits="userSpaceOnUse">
<stop stop-color="#dfe3e8" offset="0"/>
<stop stop-color="#fefeff" offset="1"/>
</linearGradient>
<linearGradient id="linearGradient877" x1="64.31" x2="56.097" y1="89.899" y2="44.882" gradientTransform="translate(-1.764 -5.5445)" gradientUnits="userSpaceOnUse">
<stop stop-color="#2801c5" offset="0"/>
<stop stop-color="#013cc5" offset="1"/>
</linearGradient>
</defs>
<circle cx="63.592" cy="64.286" r="61.38" fill="url(#linearGradient825)"/>
<circle cx="63.592" cy="64.286" r="55.09" fill="url(#linearGradient835)"/>
<path d="m91.348 36.531a8.8025 8.8025 0 0 0-12.45-1e-6 8.8025 8.8025 0 0 0 9.27e-4 12.449 8.8025 8.8025 0 0 0 12.448 0 8.8025 8.8025 0 0 0 9.28e-4 -12.449zm-21.531 21.531a8.8025 8.8025 0 0 0-12.449-9.27e-4 8.8025 8.8025 0 0 0 0 12.45 8.8025 8.8025 0 0 0 12.449-9.28e-4 8.8025 8.8025 0 0 0 0-12.448zm-21.531 21.531a8.8025 8.8025 0 0 0-12.449-6.6e-4 8.8025 8.8025 0 0 0 0 12.45 8.8025 8.8025 0 0 0 12.449-6.7e-4 8.8025 8.8025 0 0 0 0-12.448z" fill="url(#linearGradient877)"/>
<g transform="translate(-129.08)" fill="none" stroke="#000" stroke-linecap="round" stroke-linejoin="round" stroke-opacity=".011765">
<path d="m220.43 36.531a8.8025 8.8025 0 0 0-12.45-1e-6 8.8025 8.8025 0 0 0 9.2e-4 12.449 8.8025 8.8025 0 0 0 12.448 0 8.8025 8.8025 0 0 0 9.2e-4 -12.449zm-21.531 21.531a8.8025 8.8025 0 0 0-12.449-9.27e-4 8.8025 8.8025 0 0 0 0 12.45 8.8025 8.8025 0 0 0 12.449-9.28e-4 8.8025 8.8025 0 0 0 0-12.448zm-21.531 21.531a8.8025 8.8025 0 0 0-12.449-6.6e-4 8.8025 8.8025 0 0 0 0 12.45 8.8025 8.8025 0 0 0 12.449-6.7e-4 8.8025 8.8025 0 0 0 0-12.448z" stroke-width=".2"/>
<path d="m220.43 36.531a8.8025 8.8025 0 0 0-12.45-1e-6 8.8025 8.8025 0 0 0 9.2e-4 12.449 8.8025 8.8025 0 0 0 12.448 0 8.8025 8.8025 0 0 0 9.2e-4 -12.449zm-21.531 21.531a8.8025 8.8025 0 0 0-12.449-9.27e-4 8.8025 8.8025 0 0 0 0 12.45 8.8025 8.8025 0 0 0 12.449-9.28e-4 8.8025 8.8025 0 0 0 0-12.448zm-21.531 21.531a8.8025 8.8025 0 0 0-12.449-6.6e-4 8.8025 8.8025 0 0 0 0 12.45 8.8025 8.8025 0 0 0 12.449-6.7e-4 8.8025 8.8025 0 0 0 0-12.448z" stroke-width=".4"/>
<path d="m220.43 36.531a8.8025 8.8025 0 0 0-12.45-1e-6 8.8025 8.8025 0 0 0 9.2e-4 12.449 8.8025 8.8025 0 0 0 12.448 0 8.8025 8.8025 0 0 0 9.2e-4 -12.449zm-21.531 21.531a8.8025 8.8025 0 0 0-12.449-9.27e-4 8.8025 8.8025 0 0 0 0 12.45 8.8025 8.8025 0 0 0 12.449-9.28e-4 8.8025 8.8025 0 0 0 0-12.448zm-21.531 21.531a8.8025 8.8025 0 0 0-12.449-6.6e-4 8.8025 8.8025 0 0 0 0 12.45 8.8025 8.8025 0 0 0 12.449-6.7e-4 8.8025 8.8025 0 0 0 0-12.448z" stroke-width=".6"/>
<path d="m220.43 36.531a8.8025 8.8025 0 0 0-12.45-1e-6 8.8025 8.8025 0 0 0 9.2e-4 12.449 8.8025 8.8025 0 0 0 12.448 0 8.8025 8.8025 0 0 0 9.2e-4 -12.449zm-21.531 21.531a8.8025 8.8025 0 0 0-12.449-9.27e-4 8.8025 8.8025 0 0 0 0 12.45 8.8025 8.8025 0 0 0 12.449-9.28e-4 8.8025 8.8025 0 0 0 0-12.448zm-21.531 21.531a8.8025 8.8025 0 0 0-12.449-6.6e-4 8.8025 8.8025 0 0 0 0 12.45 8.8025 8.8025 0 0 0 12.449-6.7e-4 8.8025 8.8025 0 0 0 0-12.448z" stroke-width=".8"/>
<path d="m220.43 36.531a8.8025 8.8025 0 0 0-12.45-1e-6 8.8025 8.8025 0 0 0 9.2e-4 12.449 8.8025 8.8025 0 0 0 12.448 0 8.8025 8.8025 0 0 0 9.2e-4 -12.449zm-21.531 21.531a8.8025 8.8025 0 0 0-12.449-9.27e-4 8.8025 8.8025 0 0 0 0 12.45 8.8025 8.8025 0 0 0 12.449-9.28e-4 8.8025 8.8025 0 0 0 0-12.448zm-21.531 21.531a8.8025 8.8025 0 0 0-12.449-6.6e-4 8.8025 8.8025 0 0 0 0 12.45 8.8025 8.8025 0 0 0 12.449-6.7e-4 8.8025 8.8025 0 0 0 0-12.448z"/>
<path d="m220.43 36.531a8.8025 8.8025 0 0 0-12.45-1e-6 8.8025 8.8025 0 0 0 9.2e-4 12.449 8.8025 8.8025 0 0 0 12.448 0 8.8025 8.8025 0 0 0 9.2e-4 -12.449zm-21.531 21.531a8.8025 8.8025 0 0 0-12.449-9.27e-4 8.8025 8.8025 0 0 0 0 12.45 8.8025 8.8025 0 0 0 12.449-9.28e-4 8.8025 8.8025 0 0 0 0-12.448zm-21.531 21.531a8.8025 8.8025 0 0 0-12.449-6.6e-4 8.8025 8.8025 0 0 0 0 12.45 8.8025 8.8025 0 0 0 12.449-6.7e-4 8.8025 8.8025 0 0 0 0-12.448z" stroke-width="1.2"/>
<path d="m220.43 36.531a8.8025 8.8025 0 0 0-12.45-1e-6 8.8025 8.8025 0 0 0 9.2e-4 12.449 8.8025 8.8025 0 0 0 12.448 0 8.8025 8.8025 0 0 0 9.2e-4 -12.449zm-21.531 21.531a8.8025 8.8025 0 0 0-12.449-9.27e-4 8.8025 8.8025 0 0 0 0 12.45 8.8025 8.8025 0 0 0 12.449-9.28e-4 8.8025 8.8025 0 0 0 0-12.448zm-21.531 21.531a8.8025 8.8025 0 0 0-12.449-6.6e-4 8.8025 8.8025 0 0 0 0 12.45 8.8025 8.8025 0 0 0 12.449-6.7e-4 8.8025 8.8025 0 0 0 0-12.448z" stroke-width="1.4"/>
<path d="m220.43 36.531a8.8025 8.8025 0 0 0-12.45-1e-6 8.8025 8.8025 0 0 0 9.2e-4 12.449 8.8025 8.8025 0 0 0 12.448 0 8.8025 8.8025 0 0 0 9.2e-4 -12.449zm-21.531 21.531a8.8025 8.8025 0 0 0-12.449-9.27e-4 8.8025 8.8025 0 0 0 0 12.45 8.8025 8.8025 0 0 0 12.449-9.28e-4 8.8025 8.8025 0 0 0 0-12.448zm-21.531 21.531a8.8025 8.8025 0 0 0-12.449-6.6e-4 8.8025 8.8025 0 0 0 0 12.45 8.8025 8.8025 0 0 0 12.449-6.7e-4 8.8025 8.8025 0 0 0 0-12.448z" stroke-width="1.6"/>
<path d="m220.43 36.531a8.8025 8.8025 0 0 0-12.45-1e-6 8.8025 8.8025 0 0 0 9.2e-4 12.449 8.8025 8.8025 0 0 0 12.448 0 8.8025 8.8025 0 0 0 9.2e-4 -12.449zm-21.531 21.531a8.8025 8.8025 0 0 0-12.449-9.27e-4 8.8025 8.8025 0 0 0 0 12.45 8.8025 8.8025 0 0 0 12.449-9.28e-4 8.8025 8.8025 0 0 0 0-12.448zm-21.531 21.531a8.8025 8.8025 0 0 0-12.449-6.6e-4 8.8025 8.8025 0 0 0 0 12.45 8.8025 8.8025 0 0 0 12.449-6.7e-4 8.8025 8.8025 0 0 0 0-12.448z" stroke-width="1.8"/>
<path d="m220.43 36.531a8.8025 8.8025 0 0 0-12.45-1e-6 8.8025 8.8025 0 0 0 9.2e-4 12.449 8.8025 8.8025 0 0 0 12.448 0 8.8025 8.8025 0 0 0 9.2e-4 -12.449zm-21.531 21.531a8.8025 8.8025 0 0 0-12.449-9.27e-4 8.8025 8.8025 0 0 0 0 12.45 8.8025 8.8025 0 0 0 12.449-9.28e-4 8.8025 8.8025 0 0 0 0-12.448zm-21.531 21.531a8.8025 8.8025 0 0 0-12.449-6.6e-4 8.8025 8.8025 0 0 0 0 12.45 8.8025 8.8025 0 0 0 12.449-6.7e-4 8.8025 8.8025 0 0 0 0-12.448z" stroke-width="2"/>
<path d="m220.43 36.531a8.8025 8.8025 0 0 0-12.45-1e-6 8.8025 8.8025 0 0 0 9.2e-4 12.449 8.8025 8.8025 0 0 0 12.448 0 8.8025 8.8025 0 0 0 9.2e-4 -12.449zm-21.531 21.531a8.8025 8.8025 0 0 0-12.449-9.27e-4 8.8025 8.8025 0 0 0 0 12.45 8.8025 8.8025 0 0 0 12.449-9.28e-4 8.8025 8.8025 0 0 0 0-12.448zm-21.531 21.531a8.8025 8.8025 0 0 0-12.449-6.6e-4 8.8025 8.8025 0 0 0 0 12.45 8.8025 8.8025 0 0 0 12.449-6.7e-4 8.8025 8.8025 0 0 0 0-12.448z" stroke-width="2.4"/>
<path d="m220.43 36.531a8.8025 8.8025 0 0 0-12.45-1e-6 8.8025 8.8025 0 0 0 9.2e-4 12.449 8.8025 8.8025 0 0 0 12.448 0 8.8025 8.8025 0 0 0 9.2e-4 -12.449zm-21.531 21.531a8.8025 8.8025 0 0 0-12.449-9.27e-4 8.8025 8.8025 0 0 0 0 12.45 8.8025 8.8025 0 0 0 12.449-9.28e-4 8.8025 8.8025 0 0 0 0-12.448zm-21.531 21.531a8.8025 8.8025 0 0 0-12.449-6.6e-4 8.8025 8.8025 0 0 0 0 12.45 8.8025 8.8025 0 0 0 12.449-6.7e-4 8.8025 8.8025 0 0 0 0-12.448z" stroke-width="2.8"/>
<path d="m220.43 36.531a8.8025 8.8025 0 0 0-12.45-1e-6 8.8025 8.8025 0 0 0 9.2e-4 12.449 8.8025 8.8025 0 0 0 12.448 0 8.8025 8.8025 0 0 0 9.2e-4 -12.449zm-21.531 21.531a8.8025 8.8025 0 0 0-12.449-9.27e-4 8.8025 8.8025 0 0 0 0 12.45 8.8025 8.8025 0 0 0 12.449-9.28e-4 8.8025 8.8025 0 0 0 0-12.448zm-21.531 21.531a8.8025 8.8025 0 0 0-12.449-6.6e-4 8.8025 8.8025 0 0 0 0 12.45 8.8025 8.8025 0 0 0 12.449-6.7e-4 8.8025 8.8025 0 0 0 0-12.448z" stroke-width="3.2"/>
<path d="m220.43 36.531a8.8025 8.8025 0 0 0-12.45-1e-6 8.8025 8.8025 0 0 0 9.2e-4 12.449 8.8025 8.8025 0 0 0 12.448 0 8.8025 8.8025 0 0 0 9.2e-4 -12.449zm-21.531 21.531a8.8025 8.8025 0 0 0-12.449-9.27e-4 8.8025 8.8025 0 0 0 0 12.45 8.8025 8.8025 0 0 0 12.449-9.28e-4 8.8025 8.8025 0 0 0 0-12.448zm-21.531 21.531a8.8025 8.8025 0 0 0-12.449-6.6e-4 8.8025 8.8025 0 0 0 0 12.45 8.8025 8.8025 0 0 0 12.449-6.7e-4 8.8025 8.8025 0 0 0 0-12.448z" stroke-width="3.6"/>
<path d="m220.43 36.531a8.8025 8.8025 0 0 0-12.45-1e-6 8.8025 8.8025 0 0 0 9.2e-4 12.449 8.8025 8.8025 0 0 0 12.448 0 8.8025 8.8025 0 0 0 9.2e-4 -12.449zm-21.531 21.531a8.8025 8.8025 0 0 0-12.449-9.27e-4 8.8025 8.8025 0 0 0 0 12.45 8.8025 8.8025 0 0 0 12.449-9.28e-4 8.8025 8.8025 0 0 0 0-12.448zm-21.531 21.531a8.8025 8.8025 0 0 0-12.449-6.6e-4 8.8025 8.8025 0 0 0 0 12.45 8.8025 8.8025 0 0 0 12.449-6.7e-4 8.8025 8.8025 0 0 0 0-12.448z" stroke-width="4"/>
<path d="m220.43 36.531a8.8025 8.8025 0 0 0-12.45-1e-6 8.8025 8.8025 0 0 0 9.2e-4 12.449 8.8025 8.8025 0 0 0 12.448 0 8.8025 8.8025 0 0 0 9.2e-4 -12.449zm-21.531 21.531a8.8025 8.8025 0 0 0-12.449-9.27e-4 8.8025 8.8025 0 0 0 0 12.45 8.8025 8.8025 0 0 0 12.449-9.28e-4 8.8025 8.8025 0 0 0 0-12.448zm-21.531 21.531a8.8025 8.8025 0 0 0-12.449-6.6e-4 8.8025 8.8025 0 0 0 0 12.45 8.8025 8.8025 0 0 0 12.449-6.7e-4 8.8025 8.8025 0 0 0 0-12.448z" stroke-width="4.8"/>
<path d="m220.43 36.531a8.8025 8.8025 0 0 0-12.45-1e-6 8.8025 8.8025 0 0 0 9.2e-4 12.449 8.8025 8.8025 0 0 0 12.448 0 8.8025 8.8025 0 0 0 9.2e-4 -12.449zm-21.531 21.531a8.8025 8.8025 0 0 0-12.449-9.27e-4 8.8025 8.8025 0 0 0 0 12.45 8.8025 8.8025 0 0 0 12.449-9.28e-4 8.8025 8.8025 0 0 0 0-12.448zm-21.531 21.531a8.8025 8.8025 0 0 0-12.449-6.6e-4 8.8025 8.8025 0 0 0 0 12.45 8.8025 8.8025 0 0 0 12.449-6.7e-4 8.8025 8.8025 0 0 0 0-12.448z" stroke-width="5.6"/>
<path d="m220.43 36.531a8.8025 8.8025 0 0 0-12.45-1e-6 8.8025 8.8025 0 0 0 9.2e-4 12.449 8.8025 8.8025 0 0 0 12.448 0 8.8025 8.8025 0 0 0 9.2e-4 -12.449zm-21.531 21.531a8.8025 8.8025 0 0 0-12.449-9.27e-4 8.8025 8.8025 0 0 0 0 12.45 8.8025 8.8025 0 0 0 12.449-9.28e-4 8.8025 8.8025 0 0 0 0-12.448zm-21.531 21.531a8.8025 8.8025 0 0 0-12.449-6.6e-4 8.8025 8.8025 0 0 0 0 12.45 8.8025 8.8025 0 0 0 12.449-6.7e-4 8.8025 8.8025 0 0 0 0-12.448z" stroke-width="6.4"/>
</g>
</svg>
