<svg width="128" height="128" version="1.1" viewBox="0 0 128 128" xmlns="http://www.w3.org/2000/svg" xmlns:xlink="http://www.w3.org/1999/xlink">
<defs>
<linearGradient id="linearGradient825" x1="-741.83" x2="-741.83" y1="959.05" y2="93.836" gradientTransform="matrix(.13668 0 0 .13668 162.31 -5.9893)" gradientUnits="userSpaceOnUse">
<stop stop-color="#cb4e21" offset="0"/>
<stop stop-color="#ff9b38" offset="1"/>
</linearGradient>
<linearGradient id="linearGradient835" x1="-722.89" x2="-738.76" y1="875.88" y2="152.13" gradientTransform="matrix(.13668 0 0 .13668 162.31 -5.9893)" gradientUnits="userSpaceOnUse">
<stop stop-color="#ea5621" offset="0"/>
<stop stop-color="#ff9b38" offset="1"/>
</linearGradient>
</defs>
<circle cx="63.592" cy="64.286" r="61.38" fill="url(#linearGradient825)"/>
<circle cx="63.592" cy="64.286" r="55.09" fill="url(#linearGradient835)"/>
<path d="m60.137 35.786-13.344 6.7227 13.344 6.7207 6.7031-3.4375v-3.3457c0-0.06137 8e-4 -0.09235 0.0312-0.12305 0 0-1e-3 -0.0293 0.0293-0.0293 0-0.03073 0.0312-0.0611 0.0312-0.0918 0-0.03069 0.0293-0.03125 0.0293-0.03125l0.0918-0.0918 0.0312-0.03125h0.0606l2.7109-1.3496zm21.525 0.20117-9.6797 4.8594-0.57617 0.30664-0.57618 0.27539-2.459 1.252 2.459 1.2227 0.57618 0.30664 0.57617 0.27539 1.9414 0.97852 0.51758 0.27539 0.51563 0.24414 6.7051 3.3926 13.293-6.6953zm-36.057 7.0742-0.51757 0.24414-12.855 6.4766 12.703 6.416 0.15235 0.06055 0.51757 0.24609 0.51758-0.24609 12.826-6.4766-6.3359-3.1914-2.4082-1.1973zm22.129 0.41406v9.752l6.1894 3.1191 0.51758 0.27539 0.24219 0.12109h0.0606c0.0303 0 0.0293 0.03125 0.0293 0.03125 0.0303 0 0.0312 0.03125 0.0312 0.03125l0.0606 0.06055 0.0312 0.03125c0.0303 0.0306 0.0293 0.06123 0.0293 0.0918 0 0 9.8e-4 0.0293 0.0312 0.0293 0 0.0306 0.0293 0.09118 0.0293 0.15234l-0.0293 0.33789v3.0566l6.1894 3.1172v-13.389l-6.1894-3.1191-0.51563-0.27539-0.51757-0.27539-3.0938-1.5586-0.57813-0.30469-0.57617-0.30664zm27.857 0.03125-13.412 6.7871v13.389l1.9414-0.97852 0.57617-0.30469 0.57617-0.27539 10.318-5.1973zm-28.752 3.4824-5.5742 2.793 5.5742 2.8242zm-6.8438 3.5488-0.51563 0.27539-12.775 6.4199 6.0684 3.0566 6.707 3.3926 0.51563 0.24414 0.51562-0.24414 9.1641-4.6152 0.57617-0.30664 0.57812-0.27539 2.457-1.252-5.5527-2.7832-0.51562-0.27344-0.51563-0.24609-6.1914-3.1172zm-28.404 0.10352v13.445l0.0606 0.03125 0.58008 0.27539 12.855 6.4766v-13.443l-0.0606-0.03125-0.60938-0.30664zm14.475 7.4473v13.391l0.0605 0.0293 0.57813 0.27539 6.0684 3.0566 6.707 3.3945v-13.391l-0.0605-0.03125-0.57813-0.30469-6.3105-3.1797zm27.857 0-1.9414 0.97852-0.57617 0.27539-0.57618 0.30469-9.6816 4.8613-0.57617 0.30469-0.0606 0.03125v13.391l12.775-6.4512 0.57617-0.27539 0.0606-0.0293zm1.2324 3.4805v9.2695l12.826-6.4766-2.4668-1.2578-3.3828 1.7188c-0.0304 0-0.03 5.2e-4 -0.0606 0.03125h-0.0312c-0.0914 0.0614-0.15129 0.06055-0.18164 0.06055-0.0304 0-0.0925-5.3e-4 -0.12305-0.03125h-0.0293c-0.0304 0-0.03 0.0014-0.0606-0.0293zm-43.564 3.6836v13.443l13.496 6.7852v-13.445zm57 0-13.465 6.7832v13.445l13.465-6.7852zm-42.469 7.3047v13.445l0.0606 0.03125 0.58008 0.30664 12.826 6.4453v-13.443l-0.0625-0.03125-0.57813-0.30664zm27.967 0-12.824 6.4473-0.58008 0.30664-0.0606 0.03125v13.443l12.826-6.4453 0.57813-0.30664 0.0606-0.03125z" fill="#fff"/>
</svg>
