<svg width="128" height="128" version="1.1" viewBox="0 0 128 128" xmlns="http://www.w3.org/2000/svg" xmlns:xlink="http://www.w3.org/1999/xlink">
<defs>
<linearGradient id="linearGradient825" x1="-741.83" x2="-741.83" y1="959.05" y2="93.836" gradientTransform="matrix(.13668 0 0 .13668 162.31 -5.9893)" gradientUnits="userSpaceOnUse">
<stop stop-color="#0067aa" offset="0"/>
<stop stop-color="#38c9ff" offset="1"/>
</linearGradient>
<linearGradient id="linearGradient835" x1="-722.89" x2="-738.76" y1="875.88" y2="152.13" gradientTransform="matrix(.13668 0 0 .13668 162.31 -5.9893)" gradientUnits="userSpaceOnUse">
<stop stop-color="#2182ea" offset="0"/>
<stop stop-color="#38c9ff" offset="1"/>
</linearGradient>
</defs>
<circle cx="63.592" cy="64.286" r="61.38" fill="url(#linearGradient825)"/>
<circle cx="63.592" cy="64.286" r="55.09" fill="url(#linearGradient835)"/>
<path d="m84.544 42.461c-0.44108 0.0064-0.88624 0.032-1.334 0.07617-5.7343 0.56576-11.028 4.8076-11.32 9.9102h-16.596c-0.29222-5.1026-5.5861-9.3444-11.32-9.9102-0.44774-0.04418-0.8929-0.06779-1.334-0.07422-6.6163-0.09641-12.343 3.9752-12.951 9.8652l-2.3398 22.682c-0.64845 6.2827 3.8969 10.626 8.5352 11.068 4.3432 0.41442 7.365-2.8418 9.8086-8.666l1.8105-4.3164h32.178l1.8105 4.3164c2.4436 5.8242 5.4654 9.0804 9.8086 8.666 4.6383-0.44258 9.1836-4.7857 8.5352-11.068l-2.3418-22.682c-0.60792-5.89-6.3331-9.9635-12.949-9.8672zm-42.549 10.938a8.5505 8.5505 0 0 1 8.5508 8.5508 8.5505 8.5505 0 0 1-8.5508 8.5508 8.5505 8.5505 0 0 1-8.5508-8.5508 8.5505 8.5505 0 0 1 8.5508-8.5508zm44.338 1.1406a2.8502 2.8502 0 0 1 2.8496 2.8496 2.8502 2.8502 0 0 1-2.8496 2.8496 2.8502 2.8502 0 0 1-2.8516-2.8496 2.8502 2.8502 0 0 1 2.8516-2.8496zm-44.338 1.2363a1.1325 6.1722 0 0 0-1.1113 5.0586 6.1722 1.1325 0 0 0-5.0586 1.1152 6.1722 1.1325 0 0 0 5.0566 1.1113 1.1325 6.1722 0 0 0 1.1133 5.0605 1.1325 6.1722 0 0 0 1.1152-5.0586 6.1722 1.1325 0 0 0 5.0586-1.1133 6.1722 1.1325 0 0 0-5.0586-1.1152 1.1325 6.1722 0 0 0-1.1152-5.0586zm39.775 3.3242a2.8502 2.8502 0 0 1 2.8516 2.8496 2.8502 2.8502 0 0 1-2.8516 2.8516 2.8502 2.8502 0 0 1-2.8477-2.8516 2.8502 2.8502 0 0 1 2.8477-2.8496zm9.1211 0a2.8502 2.8502 0 0 1 2.8496 2.8496 2.8502 2.8502 0 0 1-2.8496 2.8516 2.8502 2.8502 0 0 1-2.8477-2.8516 2.8502 2.8502 0 0 1 2.8477-2.8496zm-32.555 1.0137h11.654c0.84214 0 1.5195 0.67739 1.5195 1.5195v0.63281c0 0.84214-0.67739 1.5195-1.5195 1.5195h-11.654c-0.84214 0-1.5195-0.67739-1.5195-1.5195v-0.63281c0-0.84214 0.67739-1.5195 1.5195-1.5195zm27.996 3.5469a2.8502 2.8502 0 0 1 2.8496 2.8496 2.8502 2.8502 0 0 1-2.8496 2.8496 2.8502 2.8502 0 0 1-2.8516-2.8496 2.8502 2.8502 0 0 1 2.8516-2.8496z" fill="#fff"/>
</svg>
