<svg width="128" height="128" version="1.1" viewBox="0 0 128 128" xmlns="http://www.w3.org/2000/svg" xmlns:xlink="http://www.w3.org/1999/xlink">
<defs>
<linearGradient id="linearGradient825" x1="-741.83" x2="-741.83" y1="959.05" y2="93.836" gradientTransform="matrix(.13668 0 0 .13668 162.31 -5.9893)" gradientUnits="userSpaceOnUse">
<stop stop-color="#13a960" offset="0"/>
<stop stop-color="#5ef7ad" offset="1"/>
</linearGradient>
<linearGradient id="linearGradient835" x1="-738.76" x2="-738.76" y1="931.43" y2="152.13" gradientTransform="matrix(.13668 0 0 .13668 162.31 -5.9893)" gradientUnits="userSpaceOnUse">
<stop stop-color="#00f27d" offset="0"/>
<stop stop-color="#5ef7ad" offset="1"/>
</linearGradient>
</defs>
<circle cx="63.592" cy="64.286" r="61.38" fill="url(#linearGradient825)"/>
<circle cx="63.592" cy="64.286" r="55.09" fill="url(#linearGradient835)" opacity=".8"/>
<path d="m52.231 96.448c-0.53376-0.36778-1.9864-1.5085-3.228-2.5349-1.6085-1.3297-3.03-2.0962-4.9446-2.6664-5.138-1.5302-6.928-3.563-6.928-7.8678 0-3.192 1.3957-6.2618 3.8941-8.5647 2.1168-1.9512 3.5542-2.6783 9.0586-4.5822 2.3747-0.82136 4.7318-1.8852 5.238-2.364l0.92043-0.8706-1.0028-0.25168c-0.57331-0.14389-1.7239 0.01651-2.6867 0.37458-11.795 4.3863-19.273 3.2019-22.334-3.5374-1.181-2.6002-0.98175-4.8996 0.61908-7.1445 3.1691-4.4443 3.6799-5.3806 4.3083-7.8971 0.36352-1.4557 1.0887-3.3805 1.6115-4.2772 2.6279-4.5074 10.67-4.6808 15.802-0.34063 0.88469 0.74816 2.1506 2.8636 3.9716 6.6372 1.4702 3.0465 3.0495 5.8755 3.5096 6.2868l0.83657 0.74772v-1.6672c0-0.91695-0.65633-3.7262-1.4585-6.2428-2.3107-7.249-1.8141-11.012 1.9679-14.911 2.1972-2.2654 4.31-3.3103 6.7651-3.3458 2.0522-0.02966 1.9128-0.09354 7.5747 3.4734 1.151 0.72515 2.7848 1.4198 3.6307 1.5438 0.84585 0.12393 2.2355 0.32766 3.0881 0.45272 1.9811 0.29062 4.8891 2.7826 5.5367 4.7447 0.65385 1.9812 0.23981 5.1356-0.9936 7.5696-2.1271 4.1976-5.4964 6.8065-12.229 9.4692-3.5671 1.4107-4.8969 2.439-4.137 3.1989 0.52596 0.52595 0.75979 0.45328 8.7027-2.7043 3.2525-1.293 4.13-1.4798 6.8689-1.4626 7.0682 0.04442 11.95 3.9932 11.499 9.3022-0.13765 1.6231-0.54561 2.5797-2.0092 4.7109-1.696 2.4698-1.8371 2.8599-1.845 5.1026-0.0195 5.4818-3.6781 8.9047-9.5181 8.9047-4.4226 0-8.2725-2.7789-11.883-8.5769-0.85375-1.3712-1.9208-2.945-2.3711-3.4973-1.1085-1.3595-1.8369-0.86341-1.4925 1.0165 0.94601 5.1645 7.0735 13.83 12.027 17.009 1.8055 1.1586 1.8998 1.2943 1.2367 1.7792-0.39485 0.28873-1.6751 0.82668-2.8449 1.1954l-2.127 0.67047-1.9071-2.0741c-2.7059-2.9427-4.8025-6.6704-7.4918-13.32-1.2859-3.1796-2.3973-5.8404-2.4698-5.9128-0.07245-0.07246-0.33372 0.24568-0.5806 0.70697-0.34591 0.64633-0.30818 1.519 0.16446 3.8044 1.7638 8.5289-0.02014 14.99-4.8285 17.488-2.5328 1.3158-5.9489 1.5089-7.5217 0.42514z" fill="#fff"/>
</svg>
