<svg width="128" height="128" version="1.1" viewBox="0 0 33.867 33.867" xmlns="http://www.w3.org/2000/svg" xmlns:osb="http://www.openswatchbook.org/uri/2009/osb" xmlns:xlink="http://www.w3.org/1999/xlink">
<defs>
<clipPath>
<rect width="384" height="384"/>
</clipPath>
<clipPath>
<rect width="384" height="384"/>
</clipPath>
<linearGradient id="linearGradient948" x1="122.34" x2="84.091" y1="117.04" y2="71.02" gradientTransform="matrix(.26458 0 0 .26458 -70.665 275.53)" gradientUnits="userSpaceOnUse">
<stop stop-color="#d5dada" offset="0"/>
<stop stop-color="#f1f1f1" offset="1"/>
</linearGradient>
<linearGradient id="linearGradient4901" x1="54.052" x2="51.259" y1="47.929" y2="30.072" gradientTransform="matrix(.25946 0 0 .25946 .39418 263.37)" gradientUnits="userSpaceOnUse">
<stop stop-color="#e2e2e2" stop-opacity=".99216" offset="0"/>
<stop stop-color="#d7d7d7" stop-opacity=".99216" offset=".070363"/>
<stop stop-color="#ebebeb" offset="1"/>
</linearGradient>
<linearGradient id="linearGradient4975" x1="13.826" x2="14.541" y1="272.37" y2="277" gradientTransform="matrix(3.7795 0 0 3.7795 0 -994.52)" gradientUnits="userSpaceOnUse">
<stop offset="0"/>
<stop stop-opacity="0" offset="1"/>
</linearGradient>
<linearGradient id="linearGradient1767-7" x1="92.368" x2="92.368" y1="118.71" y2="17.136" gradientTransform="rotate(-10.184 124.98 53.112)" gradientUnits="userSpaceOnUse">
<stop stop-color="#002c91" stop-opacity=".86667" offset="0"/>
<stop stop-color="#2f2881" stop-opacity=".96078" offset=".47218"/>
<stop stop-color="#41277b" offset="1"/>
</linearGradient>
<filter id="filter1519-6" color-interpolation-filters="sRGB">
<feFlood flood-color="rgb(0,0,0)" flood-opacity=".27843" result="flood"/>
<feComposite in="flood" in2="SourceGraphic" operator="out" result="composite1"/>
<feGaussianBlur in="composite1" result="blur"/>
<feOffset dx="1" dy="1" result="offset"/>
<feComposite in="offset" in2="SourceGraphic" operator="atop" result="composite2"/>
</filter>
</defs>
<g transform="translate(0 -263.13)">
<g transform="matrix(.98062 0 0 .98062 -30.972 5.1074)" fill="none" stroke="#000" stroke-linejoin="bevel" stroke-opacity=".0078431">
<path d="m61.182 268.8c-0.06661-3e-3 -0.13445-4.9e-4 -0.20309 0.01l-27.587 4.1419c-0.5491 0.0824-0.92477 0.59088-0.84233 1.14l0.58498 3.8948 2.4991 16.646c0.08244 0.5491 0.59088 0.92477 1.14 0.84233l27.587-4.1419c0.54753-0.0822 0.92192-0.58803 0.84232-1.1353-2.27e-4 -2e-3 2.36e-4 -3e-3 0-5e-3l-3.084-20.541c-0.0097-0.0647-0.0261-0.12661-0.04702-0.18604-0.0038-0.0108-0.0091-0.0208-0.01395-0.031-0.0039-8e-3 -0.0073-0.0165-0.01085-0.0248-0.01671-0.0395-0.03399-0.0782-0.0553-0.11472-0.01108-0.019-0.02393-0.0367-0.03617-0.0548-0.02177-0.0322-0.04459-0.0633-0.06976-0.0925-0.01451-0.0168-0.0299-0.0328-0.04547-0.0486-0.02812-0.0286-0.05763-0.0552-0.08888-0.0801-0.01257-0.01-0.02533-0.0199-0.03824-0.0295-0.03434-0.0248-0.07021-0.0469-0.10749-0.0672-0.01315-7e-3 -0.02653-0.0138-0.03979-0.0207-0.01044-5e-3 -0.02067-0.0112-0.03152-0.016-0.03361-0.0149-0.06857-0.0265-0.10387-0.0377-0.01326-4e-3 -0.02659-8e-3 -0.03979-0.0124-0.0084-3e-3 -0.01662-6e-3 -0.02532-8e-3 -0.05968-0.0145-0.12068-0.0247-0.18345-0.0279z" stroke-width=".2"/>
<path d="m61.182 268.8c-0.06661-3e-3 -0.13445-4.9e-4 -0.20309 0.01l-27.587 4.1419c-0.5491 0.0824-0.92477 0.59088-0.84233 1.14l0.58498 3.8948 2.4991 16.646c0.08244 0.5491 0.59088 0.92477 1.14 0.84233l27.587-4.1419c0.54753-0.0822 0.92192-0.58803 0.84232-1.1353-2.27e-4 -2e-3 2.36e-4 -3e-3 0-5e-3l-3.084-20.541c-0.0097-0.0647-0.0261-0.12661-0.04702-0.18604-0.0038-0.0108-0.0091-0.0208-0.01395-0.031-0.0039-8e-3 -0.0073-0.0165-0.01085-0.0248-0.01671-0.0395-0.03399-0.0782-0.0553-0.11472-0.01108-0.019-0.02393-0.0367-0.03617-0.0548-0.02177-0.0322-0.04459-0.0633-0.06976-0.0925-0.01451-0.0168-0.0299-0.0328-0.04547-0.0486-0.02812-0.0286-0.05763-0.0552-0.08888-0.0801-0.01257-0.01-0.02533-0.0199-0.03824-0.0295-0.03434-0.0248-0.07021-0.0469-0.10749-0.0672-0.01315-7e-3 -0.02653-0.0138-0.03979-0.0207-0.01044-5e-3 -0.02067-0.0112-0.03152-0.016-0.03361-0.0149-0.06857-0.0265-0.10387-0.0377-0.01326-4e-3 -0.02659-8e-3 -0.03979-0.0124-0.0084-3e-3 -0.01662-6e-3 -0.02532-8e-3 -0.05968-0.0145-0.12068-0.0247-0.18345-0.0279z" stroke-width=".4"/>
<path d="m61.182 268.8c-0.06661-3e-3 -0.13445-4.9e-4 -0.20309 0.01l-27.587 4.1419c-0.5491 0.0824-0.92477 0.59088-0.84233 1.14l0.58498 3.8948 2.4991 16.646c0.08244 0.5491 0.59088 0.92477 1.14 0.84233l27.587-4.1419c0.54753-0.0822 0.92192-0.58803 0.84232-1.1353-2.27e-4 -2e-3 2.36e-4 -3e-3 0-5e-3l-3.084-20.541c-0.0097-0.0647-0.0261-0.12661-0.04702-0.18604-0.0038-0.0108-0.0091-0.0208-0.01395-0.031-0.0039-8e-3 -0.0073-0.0165-0.01085-0.0248-0.01671-0.0395-0.03399-0.0782-0.0553-0.11472-0.01108-0.019-0.02393-0.0367-0.03617-0.0548-0.02177-0.0322-0.04459-0.0633-0.06976-0.0925-0.01451-0.0168-0.0299-0.0328-0.04547-0.0486-0.02812-0.0286-0.05763-0.0552-0.08888-0.0801-0.01257-0.01-0.02533-0.0199-0.03824-0.0295-0.03434-0.0248-0.07021-0.0469-0.10749-0.0672-0.01315-7e-3 -0.02653-0.0138-0.03979-0.0207-0.01044-5e-3 -0.02067-0.0112-0.03152-0.016-0.03361-0.0149-0.06857-0.0265-0.10387-0.0377-0.01326-4e-3 -0.02659-8e-3 -0.03979-0.0124-0.0084-3e-3 -0.01662-6e-3 -0.02532-8e-3 -0.05968-0.0145-0.12068-0.0247-0.18345-0.0279z" stroke-width=".6"/>
<path d="m61.182 268.8c-0.06661-3e-3 -0.13445-4.9e-4 -0.20309 0.01l-27.587 4.1419c-0.5491 0.0824-0.92477 0.59088-0.84233 1.14l0.58498 3.8948 2.4991 16.646c0.08244 0.5491 0.59088 0.92477 1.14 0.84233l27.587-4.1419c0.54753-0.0822 0.92192-0.58803 0.84232-1.1353-2.27e-4 -2e-3 2.36e-4 -3e-3 0-5e-3l-3.084-20.541c-0.0097-0.0647-0.0261-0.12661-0.04702-0.18604-0.0038-0.0108-0.0091-0.0208-0.01395-0.031-0.0039-8e-3 -0.0073-0.0165-0.01085-0.0248-0.01671-0.0395-0.03399-0.0782-0.0553-0.11472-0.01108-0.019-0.02393-0.0367-0.03617-0.0548-0.02177-0.0322-0.04459-0.0633-0.06976-0.0925-0.01451-0.0168-0.0299-0.0328-0.04547-0.0486-0.02812-0.0286-0.05763-0.0552-0.08888-0.0801-0.01257-0.01-0.02533-0.0199-0.03824-0.0295-0.03434-0.0248-0.07021-0.0469-0.10749-0.0672-0.01315-7e-3 -0.02653-0.0138-0.03979-0.0207-0.01044-5e-3 -0.02067-0.0112-0.03152-0.016-0.03361-0.0149-0.06857-0.0265-0.10387-0.0377-0.01326-4e-3 -0.02659-8e-3 -0.03979-0.0124-0.0084-3e-3 -0.01662-6e-3 -0.02532-8e-3 -0.05968-0.0145-0.12068-0.0247-0.18345-0.0279z" stroke-width=".8"/>
<path d="m61.182 268.8c-0.06661-3e-3 -0.13445-4.9e-4 -0.20309 0.01l-27.587 4.1419c-0.5491 0.0824-0.92477 0.59088-0.84233 1.14l0.58498 3.8948 2.4991 16.646c0.08244 0.5491 0.59088 0.92477 1.14 0.84233l27.587-4.1419c0.54753-0.0822 0.92192-0.58803 0.84232-1.1353-2.27e-4 -2e-3 2.36e-4 -3e-3 0-5e-3l-3.084-20.541c-0.0097-0.0647-0.0261-0.12661-0.04702-0.18604-0.0038-0.0108-0.0091-0.0208-0.01395-0.031-0.0039-8e-3 -0.0073-0.0165-0.01085-0.0248-0.01671-0.0395-0.03399-0.0782-0.0553-0.11472-0.01108-0.019-0.02393-0.0367-0.03617-0.0548-0.02177-0.0322-0.04459-0.0633-0.06976-0.0925-0.01451-0.0168-0.0299-0.0328-0.04547-0.0486-0.02812-0.0286-0.05763-0.0552-0.08888-0.0801-0.01257-0.01-0.02533-0.0199-0.03824-0.0295-0.03434-0.0248-0.07021-0.0469-0.10749-0.0672-0.01315-7e-3 -0.02653-0.0138-0.03979-0.0207-0.01044-5e-3 -0.02067-0.0112-0.03152-0.016-0.03361-0.0149-0.06857-0.0265-0.10387-0.0377-0.01326-4e-3 -0.02659-8e-3 -0.03979-0.0124-0.0084-3e-3 -0.01662-6e-3 -0.02532-8e-3 -0.05968-0.0145-0.12068-0.0247-0.18345-0.0279z"/>
<path d="m61.182 268.8c-0.06661-3e-3 -0.13445-4.9e-4 -0.20309 0.01l-27.587 4.1419c-0.5491 0.0824-0.92477 0.59088-0.84233 1.14l0.58498 3.8948 2.4991 16.646c0.08244 0.5491 0.59088 0.92477 1.14 0.84233l27.587-4.1419c0.54753-0.0822 0.92192-0.58803 0.84232-1.1353-2.27e-4 -2e-3 2.36e-4 -3e-3 0-5e-3l-3.084-20.541c-0.0097-0.0647-0.0261-0.12661-0.04702-0.18604-0.0038-0.0108-0.0091-0.0208-0.01395-0.031-0.0039-8e-3 -0.0073-0.0165-0.01085-0.0248-0.01671-0.0395-0.03399-0.0782-0.0553-0.11472-0.01108-0.019-0.02393-0.0367-0.03617-0.0548-0.02177-0.0322-0.04459-0.0633-0.06976-0.0925-0.01451-0.0168-0.0299-0.0328-0.04547-0.0486-0.02812-0.0286-0.05763-0.0552-0.08888-0.0801-0.01257-0.01-0.02533-0.0199-0.03824-0.0295-0.03434-0.0248-0.07021-0.0469-0.10749-0.0672-0.01315-7e-3 -0.02653-0.0138-0.03979-0.0207-0.01044-5e-3 -0.02067-0.0112-0.03152-0.016-0.03361-0.0149-0.06857-0.0265-0.10387-0.0377-0.01326-4e-3 -0.02659-8e-3 -0.03979-0.0124-0.0084-3e-3 -0.01662-6e-3 -0.02532-8e-3 -0.05968-0.0145-0.12068-0.0247-0.18345-0.0279z" stroke-width="1.2"/>
<path d="m61.182 268.8c-0.06661-3e-3 -0.13445-4.9e-4 -0.20309 0.01l-27.587 4.1419c-0.5491 0.0824-0.92477 0.59088-0.84233 1.14l0.58498 3.8948 2.4991 16.646c0.08244 0.5491 0.59088 0.92477 1.14 0.84233l27.587-4.1419c0.54753-0.0822 0.92192-0.58803 0.84232-1.1353-2.27e-4 -2e-3 2.36e-4 -3e-3 0-5e-3l-3.084-20.541c-0.0097-0.0647-0.0261-0.12661-0.04702-0.18604-0.0038-0.0108-0.0091-0.0208-0.01395-0.031-0.0039-8e-3 -0.0073-0.0165-0.01085-0.0248-0.01671-0.0395-0.03399-0.0782-0.0553-0.11472-0.01108-0.019-0.02393-0.0367-0.03617-0.0548-0.02177-0.0322-0.04459-0.0633-0.06976-0.0925-0.01451-0.0168-0.0299-0.0328-0.04547-0.0486-0.02812-0.0286-0.05763-0.0552-0.08888-0.0801-0.01257-0.01-0.02533-0.0199-0.03824-0.0295-0.03434-0.0248-0.07021-0.0469-0.10749-0.0672-0.01315-7e-3 -0.02653-0.0138-0.03979-0.0207-0.01044-5e-3 -0.02067-0.0112-0.03152-0.016-0.03361-0.0149-0.06857-0.0265-0.10387-0.0377-0.01326-4e-3 -0.02659-8e-3 -0.03979-0.0124-0.0084-3e-3 -0.01662-6e-3 -0.02532-8e-3 -0.05968-0.0145-0.12068-0.0247-0.18345-0.0279z" stroke-width="1.4"/>
<path d="m61.182 268.8c-0.06661-3e-3 -0.13445-4.9e-4 -0.20309 0.01l-27.587 4.1419c-0.5491 0.0824-0.92477 0.59088-0.84233 1.14l0.58498 3.8948 2.4991 16.646c0.08244 0.5491 0.59088 0.92477 1.14 0.84233l27.587-4.1419c0.54753-0.0822 0.92192-0.58803 0.84232-1.1353-2.27e-4 -2e-3 2.36e-4 -3e-3 0-5e-3l-3.084-20.541c-0.0097-0.0647-0.0261-0.12661-0.04702-0.18604-0.0038-0.0108-0.0091-0.0208-0.01395-0.031-0.0039-8e-3 -0.0073-0.0165-0.01085-0.0248-0.01671-0.0395-0.03399-0.0782-0.0553-0.11472-0.01108-0.019-0.02393-0.0367-0.03617-0.0548-0.02177-0.0322-0.04459-0.0633-0.06976-0.0925-0.01451-0.0168-0.0299-0.0328-0.04547-0.0486-0.02812-0.0286-0.05763-0.0552-0.08888-0.0801-0.01257-0.01-0.02533-0.0199-0.03824-0.0295-0.03434-0.0248-0.07021-0.0469-0.10749-0.0672-0.01315-7e-3 -0.02653-0.0138-0.03979-0.0207-0.01044-5e-3 -0.02067-0.0112-0.03152-0.016-0.03361-0.0149-0.06857-0.0265-0.10387-0.0377-0.01326-4e-3 -0.02659-8e-3 -0.03979-0.0124-0.0084-3e-3 -0.01662-6e-3 -0.02532-8e-3 -0.05968-0.0145-0.12068-0.0247-0.18345-0.0279z" stroke-width="1.6"/>
<path d="m61.182 268.8c-0.06661-3e-3 -0.13445-4.9e-4 -0.20309 0.01l-27.587 4.1419c-0.5491 0.0824-0.92477 0.59088-0.84233 1.14l0.58498 3.8948 2.4991 16.646c0.08244 0.5491 0.59088 0.92477 1.14 0.84233l27.587-4.1419c0.54753-0.0822 0.92192-0.58803 0.84232-1.1353-2.27e-4 -2e-3 2.36e-4 -3e-3 0-5e-3l-3.084-20.541c-0.0097-0.0647-0.0261-0.12661-0.04702-0.18604-0.0038-0.0108-0.0091-0.0208-0.01395-0.031-0.0039-8e-3 -0.0073-0.0165-0.01085-0.0248-0.01671-0.0395-0.03399-0.0782-0.0553-0.11472-0.01108-0.019-0.02393-0.0367-0.03617-0.0548-0.02177-0.0322-0.04459-0.0633-0.06976-0.0925-0.01451-0.0168-0.0299-0.0328-0.04547-0.0486-0.02812-0.0286-0.05763-0.0552-0.08888-0.0801-0.01257-0.01-0.02533-0.0199-0.03824-0.0295-0.03434-0.0248-0.07021-0.0469-0.10749-0.0672-0.01315-7e-3 -0.02653-0.0138-0.03979-0.0207-0.01044-5e-3 -0.02067-0.0112-0.03152-0.016-0.03361-0.0149-0.06857-0.0265-0.10387-0.0377-0.01326-4e-3 -0.02659-8e-3 -0.03979-0.0124-0.0084-3e-3 -0.01662-6e-3 -0.02532-8e-3 -0.05968-0.0145-0.12068-0.0247-0.18345-0.0279z" stroke-width="1.8"/>
</g>
<path d="m29.024 268.7c-0.06533-3e-3 -0.13185-4.7e-4 -0.19915 0.01l-27.052 4.0616c-0.53846 0.0808-0.90684 0.57943-0.826 1.1179l0.57364 3.8194 28.996-4.3535 2.4511 16.328c-2.23e-4 -2e-3 2.31e-4 -3e-3 0-5e-3l-3.0243-20.143c-0.07074-0.47116-0.46148-0.81192-0.91873-0.83564z" fill="url(#linearGradient4901)"/>
<path d="m29.205 268.73c0.02184 5e-3 0.04255 0.0136 0.06385 0.0203-0.02135-7e-3 -0.04197-0.0149-0.06385-0.0203zm0.16571 0.0572c0.02405 0.0107 0.04688 0.0235 0.06993 0.0359-0.02311-0.0126-0.04581-0.0252-0.06993-0.0359zm0.15962 0.0902c0.01832 0.0127 0.03579 0.0266 0.0532 0.0406-0.01752-0.014-0.03479-0.0278-0.0532-0.0406zm0.13733 0.11555c0.01643 0.0165 0.03238 0.0335 0.04763 0.0512-0.0153-0.0178-0.03115-0.0346-0.04763-0.0512zm0.11604 0.14189c0.01201 0.0177 0.02461 0.0351 0.03547 0.0537-0.0109-0.0187-0.02343-0.0359-0.03547-0.0537zm0.08969 0.16621c0.0078 0.0184 0.01761 0.0357 0.02432 0.0548-0.0067-0.0191-0.01651-0.0362-0.02432-0.0548zm0.64357 4.0565-28.996 4.3535 2.4506 16.323c0.080844 0.53846 0.57943 0.90684 1.1179 0.826l27.052-4.0616c0.53692-0.0806 0.90406-0.57665 0.826-1.1133z" fill="#e6e6e6"/>
<path transform="matrix(.26458 0 0 .26458 0 263.13)" d="m115.34 38.631-109.59 16.453 1.3535 9.0195 109.62-16.264-1.3828-9.209z" color="#000000" color-rendering="auto" dominant-baseline="auto" fill="url(#linearGradient4975)" image-rendering="auto" opacity=".572" shape-rendering="auto" solid-color="#000000" style="font-feature-settings:normal;font-variant-alternates:normal;font-variant-caps:normal;font-variant-ligatures:normal;font-variant-numeric:normal;font-variant-position:normal;isolation:auto;mix-blend-mode:normal;shape-padding:0;text-decoration-color:#000000;text-decoration-line:none;text-decoration-style:solid;text-indent:0;text-orientation:mixed;text-transform:none;white-space:normal"/>
<g transform="matrix(.87914 -.13524 .13524 .87914 1.5188 39.689)">
<circle cx="-38.526" cy="261.91" r="1.336" fill="#ff2911" style="paint-order:fill markers stroke"/>
<circle cx="-34.572" cy="261.91" r="1.336" fill="#f89c22" style="paint-order:fill markers stroke"/>
<circle cx="-30.619" cy="261.91" r="1.336" fill="#2ecc3f" style="paint-order:fill markers stroke"/>
<path transform="matrix(.26458 0 0 .26458 0 263.13)" d="m-150.61-5.2949a5.0494 5.0494 0 0 0-0.0508 0.66992 5.0494 5.0494 0 0 0 5.0488 5.0508 5.0494 5.0494 0 0 0 5.0508-5.0508 5.0494 5.0494 0 0 0-0.0508-0.66602 5.0494 5.0494 0 0 1-5 4.377 5.0494 5.0494 0 0 1-4.998-4.3809z" fill="#e61700" fill-opacity=".80303" style="paint-order:fill markers stroke"/>
<path transform="matrix(.26458 0 0 .26458 0 263.13)" d="m-145.61-9.6738a5.0494 5.0494 0 0 0-5.0488 5.0488 5.0494 5.0494 0 0 0 0.0586 0.72656 5.0494 5.0494 0 0 1 4.9902-4.332 5.0494 5.0494 0 0 1 4.9922 4.3242 5.0494 5.0494 0 0 0 0.0586-0.71875 5.0494 5.0494 0 0 0-5.0508-5.0488z" fill="#ff6b5b" fill-opacity=".39773" style="paint-order:fill markers stroke"/>
<path transform="matrix(.26458 0 0 .26458 0 263.13)" d="m-125.67-5.3184a5.0494 5.0494 0 0 1-4.9941 4.3594 5.0494 5.0494 0 0 1-4.9961-4.3574 5.0494 5.0494 0 0 0-0.0547 0.69141 5.0494 5.0494 0 0 0 5.0508 5.0508 5.0494 5.0494 0 0 0 5.0488-5.0508 5.0494 5.0494 0 0 0-0.0547-0.69336z" fill="#ec8a07" style="paint-order:fill markers stroke"/>
<path transform="matrix(.26458 0 0 .26458 0 263.13)" d="m-130.67-9.6738a5.0494 5.0494 0 0 0-5.0508 5.0488 5.0494 5.0494 0 0 0 0.0449 0.61133 5.0494 5.0494 0 0 1 5.0059-4.4219 5.0494 5.0494 0 0 1 5.0059 4.4355 5.0494 5.0494 0 0 0 0.043-0.625 5.0494 5.0494 0 0 0-5.0488-5.0488z" fill="#f9aa42" fill-opacity=".85145" style="paint-order:fill markers stroke"/>
<path transform="matrix(.26458 0 0 .26458 0 263.13)" d="m-110.72-5.2969a5.0494 5.0494 0 0 1-5 4.3828 5.0494 5.0494 0 0 1-5-4.3789 5.0494 5.0494 0 0 0-0.0488 0.66797 5.0494 5.0494 0 0 0 5.0488 5.0508 5.0494 5.0494 0 0 0 5.0488-5.0508 5.0494 5.0494 0 0 0-0.0488-0.67188z" fill="#27ae36" style="paint-order:fill markers stroke"/>
<path transform="matrix(.26458 0 0 .26458 0 263.13)" d="m-115.72-9.6738a5.0494 5.0494 0 0 0-5.0488 5.0488 5.0494 5.0494 0 0 0 0.0488 0.67188 5.0494 5.0494 0 0 1 5-4.3809 5.0494 5.0494 0 0 1 5 4.377 5.0494 5.0494 0 0 0 0.0488-0.66797 5.0494 5.0494 0 0 0-5.0488-5.0488z" fill="#50d85f" fill-opacity=".77536" style="paint-order:fill markers stroke"/>
</g>
<g transform="matrix(.26458 0 0 .26458 -39.718 267.67)"></g>
<path transform="matrix(.26458 0 0 .26458 0 263.13)" d="m90.918 42.297-1.9766 0.29688 0.83789 4.6777 1.9707-0.35352-0.83203-4.6211zm2.2422 12.49-1.9648 0.35352 1.4102 7.877 1.9707-0.35352-1.416-7.877zm2.834 15.752-1.9707 0.35547 1.418 7.8691 1.9629-0.35547-1.4102-7.8691zm2.8281 15.746-1.9727 0.35352 1.418 7.877 1.9707-0.35352-1.416-7.877zm2.8262 15.746-1.9629 0.35352 0.94726 5.2969 1.9785-0.29883-0.96289-5.3516z" color="#000000" color-rendering="auto" dominant-baseline="auto" fill="url(#linearGradient1767-7)" image-rendering="auto" shape-rendering="auto" solid-color="#000000" style="font-feature-settings:normal;font-variant-alternates:normal;font-variant-caps:normal;font-variant-ligatures:normal;font-variant-numeric:normal;font-variant-position:normal;isolation:auto;mix-blend-mode:normal;shape-padding:0;text-decoration-color:#000000;text-decoration-line:none;text-decoration-style:solid;text-indent:0;text-orientation:mixed;text-transform:none;white-space:normal"/>
<path transform="matrix(.26041 -.046782 .046782 .26041 6.6465 271.99)" d="m4.6494 78.421c-0.1256-0.3059-0.1463-0.7453-0.04602-0.9766 0.10036-0.231 5.0617-5.8536 11.025-12.494 5.9636-6.6409 10.93-12.205 11.036-12.366 0.10595-0.15929-4.757-6.0743-10.807-13.143-7.0865-8.2801-10.999-13.121-11-13.608l-4.78e-4 -0.75644h41.731l0.0037 0.92465c0.0044 1.093 0.6187 8.304 0.90231 10.591 0.17833 1.4382 0.1259 1.5971-0.52702 1.5971-0.49824 0-0.79328-0.28919-0.94317-0.92465-1.4526-6.1574-3.7716-8.3686-9.5708-9.1266-2.156-0.28179-20.804-0.10999-20.804 0.19115 0 0.0683 3.91 4.6976 8.6888 10.288 4.7789 5.59 8.819 10.322 8.978 10.516 0.17404 0.21239-3.7259 4.8986-9.7936 11.768l-10.083 11.415 11.987 0.1005c12.481 0.1043 15.068-0.087 17.61-1.2986 1.7781-0.8478 3.2246-2.5617 4.68-5.545 1.2767-2.6169 1.3056-2.6486 2.0301-2.2189 0.36685 0.2177 0.23238 1.5702-0.65964 6.6354-0.61623 3.4993-1.1952 6.8539-1.2865 7.4549l-0.1661 1.0928h-16.263c-8.9444 6e-4 -18.565 0.1005-21.379 0.22-4.5622 0.1951-5.1412 0.1593-5.3448-0.3376z" fill="#445567" filter="url(#filter1519-6)" stroke-width="1.8646"/>
</g>
</svg>
