<svg version="1.1" viewBox="0 0 128 128" xmlns="http://www.w3.org/2000/svg" xmlns:xlink="http://www.w3.org/1999/xlink">
<defs>
<radialGradient id="d" cx="-4.0288" cy="93.468" r="35.338" gradientTransform="matrix(1.1885 0 0 .099043 204.79 154.24)" gradientUnits="userSpaceOnUse">
<stop offset="0"/>
<stop stop-opacity="0" offset="1"/>
</radialGradient>
<radialGradient id="c" cx="4.993" cy="43.5" r="2.5" gradientTransform="matrix(1.4101 0 0 1.4 -23.656 -104.4)" gradientUnits="userSpaceOnUse" xlink:href="#a"/>
<linearGradient id="a">
<stop stop-color="#181818" offset="0"/>
<stop stop-color="#181818" stop-opacity="0" offset="1"/>
</linearGradient>
<linearGradient id="h" x1="25.058" x2="25.058" y1="47.028" y2="39.999" gradientTransform="matrix(.32672 0 0 1 13.344 0)" gradientUnits="userSpaceOnUse">
<stop stop-color="#181818" stop-opacity="0" offset="0"/>
<stop stop-color="#181818" offset=".5"/>
<stop stop-color="#181818" stop-opacity="0" offset="1"/>
</linearGradient>
<radialGradient id="b" cx="4.993" cy="43.5" r="2.5" gradientTransform="matrix(1.4101 0 0 1.4 18.714 -104.4)" gradientUnits="userSpaceOnUse" xlink:href="#a"/>
<linearGradient id="g" x1="-150" x2="-77.819" y1="129" y2="25.901" gradientTransform="matrix(1.0041 0 0 -1 254.14 301)" gradientUnits="userSpaceOnUse">
<stop stop-color="#640f0f" offset="0"/>
<stop stop-color="#ff4f4f" offset=".12214"/>
<stop stop-color="#f30000" offset="1"/>
</linearGradient>
<linearGradient id="f" x1="-70.518" x2="-108.19" y1="91.544" y2="220.29" gradientTransform="matrix(1.0041 0 0 -1 254.14 301)" gradientUnits="userSpaceOnUse">
<stop stop-color="#ff7a55" offset="0"/>
<stop stop-color="#ffb484" offset="1"/>
</linearGradient>
<linearGradient id="e" x1="94" x2="174" y1="118" y2="252.6" gradientUnits="userSpaceOnUse">
<stop stop-color="#fff" offset="0"/>
<stop stop-color="#fff" stop-opacity=".137" offset=".13812"/>
<stop stop-color="#fff" stop-opacity=".098" offset=".87978"/>
<stop stop-color="#fff" stop-opacity=".596" offset="1"/>
</linearGradient>
</defs>
<g transform="translate(0,64)">
<g transform="translate(-135,-109)" enable-background="new">
<path d="m242 163.5a42 3.5 0 0 1-84 0 42 3.5 0 1 1 84 0z" color="#000000" enable-background="accumulate" fill="url(#d)" opacity=".1"/>
<g transform="matrix(2.7 0 0 .55556 165.2 139.89)">
<g transform="matrix(1.0526 0 0 1.2857 -1.2632 -13.429)" opacity=".4">
<rect transform="scale(-1)" x="-16.611" y="-47" width="3.5185" height="7" fill="url(#c)"/>
<rect x="16.611" y="40" width="9.1481" height="7" fill="url(#h)"/>
<rect transform="scale(1,-1)" x="25.759" y="-47" width="3.5185" height="7" enable-background="new" fill="url(#b)" opacity="1"/>
</g>
</g>
<g transform="matrix(.52939 0 0 .53642 125.2 25.636)">
<path d="m125.96 160.72-34.084 33.095m0.70998 0.7513 57.534 62.43h64.596l-88.762-96.278" color="#000000" enable-background="new" fill="url(#g)"/>
<g stroke-opacity=".4" stroke-width="1.8765">
<path d="m150.12 65h64.596l-88.762 96-33.282 33.69-31.317-33.69z" color="#000000" enable-background="new" fill="url(#f)" stroke="#f33500"/>
<path d="m150.96 67-86.8 94 86.8 94h59.2l-86.77-94.13 86.77-93.87z" color="#000000" enable-background="new" fill="none" stroke="url(#e)"/>
<path d="m93.167 195.21 56.956 61.792h64.596l-88.762-96.278" color="#000000" enable-background="new" fill="none" stroke="#950804"/>
</g>
</g>
</g>
</g>
</svg>
