<svg width="128" height="128" version="1.1" viewBox="0 0 128 128" xmlns="http://www.w3.org/2000/svg" xmlns:xlink="http://www.w3.org/1999/xlink">
<defs>
<linearGradient id="linearGradient917">
<stop stop-color="#ffc368" stop-opacity=".03" offset="0"/>
<stop stop-color="#40c8ec" stop-opacity=".03" offset="1"/>
</linearGradient>
<linearGradient id="linearGradient825" x1="-741.83" x2="-741.83" y1="959.05" y2="93.836" gradientTransform="matrix(.13668 0 0 .13668 162.31 -5.9893)" gradientUnits="userSpaceOnUse">
<stop stop-color="#ccd4da" offset="0"/>
<stop stop-color="#fff" offset="1"/>
</linearGradient>
<linearGradient id="linearGradient835" x1="-738.76" x2="-738.76" y1="931.43" y2="152.13" gradientTransform="matrix(.13668 0 0 .13668 162.31 -5.9893)" gradientUnits="userSpaceOnUse">
<stop stop-color="#dfe3e8" offset="0"/>
<stop stop-color="#fefeff" offset="1"/>
</linearGradient>
<linearGradient id="linearGradient899" x1="38.377" x2="92.553" y1="41.418" y2="94.764" gradientUnits="userSpaceOnUse">
<stop stop-color="#ffc368" offset="0"/>
<stop stop-color="#40c8ec" offset="1"/>
</linearGradient>
<linearGradient id="linearGradient911" x1="146.85" x2="221.96" y1="38.086" y2="102.9" gradientUnits="userSpaceOnUse" xlink:href="#linearGradient917"/>
</defs>
<circle cx="63.592" cy="64.286" r="61.38" fill="url(#linearGradient825)"/>
<circle cx="63.592" cy="64.286" r="55.09" fill="url(#linearGradient835)"/>
<path d="m38.377 41.418c-5.3283 0-9.7129 4.3826-9.7129 9.7109v22.818c0 5.3283 4.3846 9.7129 9.7129 9.7129h15.531c21.422 0 33.13 9.1559 40.229 13.467-2.655-6-3.1268-10.974-2.0254-14.143 3.7073-1.3717 6.4082-4.8772 6.4082-9.0371v-22.818c0-5.3283-4.3826-9.7109-9.7109-9.7109h-50.432zm0 6h50.432c2.1081 0 3.7109 1.6029 3.7109 3.7109v22.818c0 2.1081-1.6029 3.7129-3.7109 3.7129-1.6894 6.11e-4 -3.0452 1.3953-2.998 3.084 0.05206 1.8542 0.40348 3.593 0.86133 5.2773-7.0242-3.9924-17.158-8.3613-32.764-8.3613h-15.531c-2.1081 0-3.7129-1.6048-3.7129-3.7129v-22.818c0-2.1081 1.6048-3.7109 3.7129-3.7109zm26.248 4.7578c-6.3042 0-10.252 4.4385-10.252 11.498s3.9477 11.482 10.252 11.482c1.4643 0 2.7897-0.23095 3.9766-0.69336l2.0645 2.8359h3.1133l-2.9434-4.0527c2.5741-1.9421 4.0391-5.2718 4.0391-9.5723 0-7.0595-3.9458-11.498-10.25-11.498zm0 2.5586c4.5471 0 7.3984 3.4522 7.3984 8.9395 0 3.2677-1.0186 5.8273-2.8066 7.3379l-1.8945-2.5898h-3.1152l2.7754 3.8223c-0.72445 0.23121-1.5097 0.35352-2.3574 0.35352-4.5471 0-7.4004-3.4519-7.4004-8.9238 0-5.4873 2.8533-8.9395 7.4004-8.9395z" color="#000000" color-rendering="auto" dominant-baseline="auto" fill="url(#linearGradient899)" image-rendering="auto" shape-rendering="auto" solid-color="#000000" style="font-feature-settings:normal;font-variant-alternates:normal;font-variant-caps:normal;font-variant-ligatures:normal;font-variant-numeric:normal;font-variant-position:normal;isolation:auto;mix-blend-mode:normal;shape-padding:0;text-decoration-color:#000000;text-decoration-line:none;text-decoration-style:solid;text-indent:0;text-orientation:mixed;text-transform:none;white-space:normal"/>
<g transform="translate(-119.59)" fill="none" opacity=".434" shape-rendering="auto" stroke="url(#linearGradient911)" stroke-linecap="round" stroke-linejoin="round">
<path d="m157.97 41.418c-5.3283 0-9.7129 4.3826-9.7129 9.7109v22.818c0 5.3283 4.3846 9.7129 9.7129 9.7129h15.531c21.422 0 33.13 9.1559 40.229 13.467-2.655-6-3.1268-10.974-2.0254-14.143 3.7073-1.3717 6.4082-4.8772 6.4082-9.0371v-22.818c0-5.3283-4.3826-9.7109-9.7109-9.7109zm0 6h50.432c2.1081 0 3.7109 1.6029 3.7109 3.7109v22.818c0 2.1081-1.6029 3.7129-3.7109 3.7129-1.6894 6.11e-4 -3.0452 1.3953-2.998 3.084 0.0521 1.8542 0.40348 3.593 0.86133 5.2773-7.0242-3.9924-17.158-8.3613-32.764-8.3613h-15.531c-2.1081 0-3.7129-1.6048-3.7129-3.7129v-22.818c0-2.1081 1.6048-3.7109 3.7129-3.7109zm26.248 4.7578c-6.3042 0-10.252 4.4385-10.252 11.498s3.9477 11.482 10.252 11.482c1.4643 0 2.7897-0.23095 3.9766-0.69336l2.0644 2.8359h3.1133l-2.9434-4.0527c2.5741-1.9421 4.0391-5.2718 4.0391-9.5723 0-7.0595-3.9458-11.498-10.25-11.498zm0 2.5586c4.5471 0 7.3984 3.4522 7.3984 8.9395 0 3.2677-1.0186 5.8273-2.8066 7.3379l-1.8945-2.5898h-3.1152l2.7754 3.8223c-0.72445 0.23121-1.5097 0.35352-2.3574 0.35352-4.547 0-7.4004-3.4519-7.4004-8.9238 0-5.4873 2.8533-8.9395 7.4004-8.9395z" color="#000000" color-rendering="auto" dominant-baseline="auto" image-rendering="auto" opacity="1" solid-color="#000000" stroke-width=".1" style="font-feature-settings:normal;font-variant-alternates:normal;font-variant-caps:normal;font-variant-ligatures:normal;font-variant-numeric:normal;font-variant-position:normal;isolation:auto;mix-blend-mode:normal;shape-padding:0;text-decoration-color:#000000;text-decoration-line:none;text-decoration-style:solid;text-indent:0;text-orientation:mixed;text-transform:none;white-space:normal"/>
<path d="m157.97 41.418c-5.3283 0-9.7129 4.3826-9.7129 9.7109v22.818c0 5.3283 4.3846 9.7129 9.7129 9.7129h15.531c21.422 0 33.13 9.1559 40.229 13.467-2.655-6-3.1268-10.974-2.0254-14.143 3.7073-1.3717 6.4082-4.8772 6.4082-9.0371v-22.818c0-5.3283-4.3826-9.7109-9.7109-9.7109zm0 6h50.432c2.1081 0 3.7109 1.6029 3.7109 3.7109v22.818c0 2.1081-1.6029 3.7129-3.7109 3.7129-1.6894 6.11e-4 -3.0452 1.3953-2.998 3.084 0.0521 1.8542 0.40348 3.593 0.86133 5.2773-7.0242-3.9924-17.158-8.3613-32.764-8.3613h-15.531c-2.1081 0-3.7129-1.6048-3.7129-3.7129v-22.818c0-2.1081 1.6048-3.7109 3.7129-3.7109zm26.248 4.7578c-6.3042 0-10.252 4.4385-10.252 11.498s3.9477 11.482 10.252 11.482c1.4643 0 2.7897-0.23095 3.9766-0.69336l2.0644 2.8359h3.1133l-2.9434-4.0527c2.5741-1.9421 4.0391-5.2718 4.0391-9.5723 0-7.0595-3.9458-11.498-10.25-11.498zm0 2.5586c4.5471 0 7.3984 3.4522 7.3984 8.9395 0 3.2677-1.0186 5.8273-2.8066 7.3379l-1.8945-2.5898h-3.1152l2.7754 3.8223c-0.72445 0.23121-1.5097 0.35352-2.3574 0.35352-4.547 0-7.4004-3.4519-7.4004-8.9238 0-5.4873 2.8533-8.9395 7.4004-8.9395z" color="#000000" color-rendering="auto" dominant-baseline="auto" image-rendering="auto" opacity="1" solid-color="#000000" stroke-width=".2" style="font-feature-settings:normal;font-variant-alternates:normal;font-variant-caps:normal;font-variant-ligatures:normal;font-variant-numeric:normal;font-variant-position:normal;isolation:auto;mix-blend-mode:normal;shape-padding:0;text-decoration-color:#000000;text-decoration-line:none;text-decoration-style:solid;text-indent:0;text-orientation:mixed;text-transform:none;white-space:normal"/>
<path d="m157.97 41.418c-5.3283 0-9.7129 4.3826-9.7129 9.7109v22.818c0 5.3283 4.3846 9.7129 9.7129 9.7129h15.531c21.422 0 33.13 9.1559 40.229 13.467-2.655-6-3.1268-10.974-2.0254-14.143 3.7073-1.3717 6.4082-4.8772 6.4082-9.0371v-22.818c0-5.3283-4.3826-9.7109-9.7109-9.7109zm0 6h50.432c2.1081 0 3.7109 1.6029 3.7109 3.7109v22.818c0 2.1081-1.6029 3.7129-3.7109 3.7129-1.6894 6.11e-4 -3.0452 1.3953-2.998 3.084 0.0521 1.8542 0.40348 3.593 0.86133 5.2773-7.0242-3.9924-17.158-8.3613-32.764-8.3613h-15.531c-2.1081 0-3.7129-1.6048-3.7129-3.7129v-22.818c0-2.1081 1.6048-3.7109 3.7129-3.7109zm26.248 4.7578c-6.3042 0-10.252 4.4385-10.252 11.498s3.9477 11.482 10.252 11.482c1.4643 0 2.7897-0.23095 3.9766-0.69336l2.0644 2.8359h3.1133l-2.9434-4.0527c2.5741-1.9421 4.0391-5.2718 4.0391-9.5723 0-7.0595-3.9458-11.498-10.25-11.498zm0 2.5586c4.5471 0 7.3984 3.4522 7.3984 8.9395 0 3.2677-1.0186 5.8273-2.8066 7.3379l-1.8945-2.5898h-3.1152l2.7754 3.8223c-0.72445 0.23121-1.5097 0.35352-2.3574 0.35352-4.547 0-7.4004-3.4519-7.4004-8.9238 0-5.4873 2.8533-8.9395 7.4004-8.9395z" color="#000000" color-rendering="auto" dominant-baseline="auto" image-rendering="auto" opacity="1" solid-color="#000000" stroke-width=".3" style="font-feature-settings:normal;font-variant-alternates:normal;font-variant-caps:normal;font-variant-ligatures:normal;font-variant-numeric:normal;font-variant-position:normal;isolation:auto;mix-blend-mode:normal;shape-padding:0;text-decoration-color:#000000;text-decoration-line:none;text-decoration-style:solid;text-indent:0;text-orientation:mixed;text-transform:none;white-space:normal"/>
<path d="m157.97 41.418c-5.3283 0-9.7129 4.3826-9.7129 9.7109v22.818c0 5.3283 4.3846 9.7129 9.7129 9.7129h15.531c21.422 0 33.13 9.1559 40.229 13.467-2.655-6-3.1268-10.974-2.0254-14.143 3.7073-1.3717 6.4082-4.8772 6.4082-9.0371v-22.818c0-5.3283-4.3826-9.7109-9.7109-9.7109zm0 6h50.432c2.1081 0 3.7109 1.6029 3.7109 3.7109v22.818c0 2.1081-1.6029 3.7129-3.7109 3.7129-1.6894 6.11e-4 -3.0452 1.3953-2.998 3.084 0.0521 1.8542 0.40348 3.593 0.86133 5.2773-7.0242-3.9924-17.158-8.3613-32.764-8.3613h-15.531c-2.1081 0-3.7129-1.6048-3.7129-3.7129v-22.818c0-2.1081 1.6048-3.7109 3.7129-3.7109zm26.248 4.7578c-6.3042 0-10.252 4.4385-10.252 11.498s3.9477 11.482 10.252 11.482c1.4643 0 2.7897-0.23095 3.9766-0.69336l2.0644 2.8359h3.1133l-2.9434-4.0527c2.5741-1.9421 4.0391-5.2718 4.0391-9.5723 0-7.0595-3.9458-11.498-10.25-11.498zm0 2.5586c4.5471 0 7.3984 3.4522 7.3984 8.9395 0 3.2677-1.0186 5.8273-2.8066 7.3379l-1.8945-2.5898h-3.1152l2.7754 3.8223c-0.72445 0.23121-1.5097 0.35352-2.3574 0.35352-4.547 0-7.4004-3.4519-7.4004-8.9238 0-5.4873 2.8533-8.9395 7.4004-8.9395z" color="#000000" color-rendering="auto" dominant-baseline="auto" image-rendering="auto" opacity="1" solid-color="#000000" stroke-width=".4" style="font-feature-settings:normal;font-variant-alternates:normal;font-variant-caps:normal;font-variant-ligatures:normal;font-variant-numeric:normal;font-variant-position:normal;isolation:auto;mix-blend-mode:normal;shape-padding:0;text-decoration-color:#000000;text-decoration-line:none;text-decoration-style:solid;text-indent:0;text-orientation:mixed;text-transform:none;white-space:normal"/>
<path d="m157.97 41.418c-5.3283 0-9.7129 4.3826-9.7129 9.7109v22.818c0 5.3283 4.3846 9.7129 9.7129 9.7129h15.531c21.422 0 33.13 9.1559 40.229 13.467-2.655-6-3.1268-10.974-2.0254-14.143 3.7073-1.3717 6.4082-4.8772 6.4082-9.0371v-22.818c0-5.3283-4.3826-9.7109-9.7109-9.7109zm0 6h50.432c2.1081 0 3.7109 1.6029 3.7109 3.7109v22.818c0 2.1081-1.6029 3.7129-3.7109 3.7129-1.6894 6.11e-4 -3.0452 1.3953-2.998 3.084 0.0521 1.8542 0.40348 3.593 0.86133 5.2773-7.0242-3.9924-17.158-8.3613-32.764-8.3613h-15.531c-2.1081 0-3.7129-1.6048-3.7129-3.7129v-22.818c0-2.1081 1.6048-3.7109 3.7129-3.7109zm26.248 4.7578c-6.3042 0-10.252 4.4385-10.252 11.498s3.9477 11.482 10.252 11.482c1.4643 0 2.7897-0.23095 3.9766-0.69336l2.0644 2.8359h3.1133l-2.9434-4.0527c2.5741-1.9421 4.0391-5.2718 4.0391-9.5723 0-7.0595-3.9458-11.498-10.25-11.498zm0 2.5586c4.5471 0 7.3984 3.4522 7.3984 8.9395 0 3.2677-1.0186 5.8273-2.8066 7.3379l-1.8945-2.5898h-3.1152l2.7754 3.8223c-0.72445 0.23121-1.5097 0.35352-2.3574 0.35352-4.547 0-7.4004-3.4519-7.4004-8.9238 0-5.4873 2.8533-8.9395 7.4004-8.9395z" color="#000000" color-rendering="auto" dominant-baseline="auto" image-rendering="auto" opacity="1" solid-color="#000000" stroke-width=".5" style="font-feature-settings:normal;font-variant-alternates:normal;font-variant-caps:normal;font-variant-ligatures:normal;font-variant-numeric:normal;font-variant-position:normal;isolation:auto;mix-blend-mode:normal;shape-padding:0;text-decoration-color:#000000;text-decoration-line:none;text-decoration-style:solid;text-indent:0;text-orientation:mixed;text-transform:none;white-space:normal"/>
<path d="m157.97 41.418c-5.3283 0-9.7129 4.3826-9.7129 9.7109v22.818c0 5.3283 4.3846 9.7129 9.7129 9.7129h15.531c21.422 0 33.13 9.1559 40.229 13.467-2.655-6-3.1268-10.974-2.0254-14.143 3.7073-1.3717 6.4082-4.8772 6.4082-9.0371v-22.818c0-5.3283-4.3826-9.7109-9.7109-9.7109zm0 6h50.432c2.1081 0 3.7109 1.6029 3.7109 3.7109v22.818c0 2.1081-1.6029 3.7129-3.7109 3.7129-1.6894 6.11e-4 -3.0452 1.3953-2.998 3.084 0.0521 1.8542 0.40348 3.593 0.86133 5.2773-7.0242-3.9924-17.158-8.3613-32.764-8.3613h-15.531c-2.1081 0-3.7129-1.6048-3.7129-3.7129v-22.818c0-2.1081 1.6048-3.7109 3.7129-3.7109zm26.248 4.7578c-6.3042 0-10.252 4.4385-10.252 11.498s3.9477 11.482 10.252 11.482c1.4643 0 2.7897-0.23095 3.9766-0.69336l2.0644 2.8359h3.1133l-2.9434-4.0527c2.5741-1.9421 4.0391-5.2718 4.0391-9.5723 0-7.0595-3.9458-11.498-10.25-11.498zm0 2.5586c4.5471 0 7.3984 3.4522 7.3984 8.9395 0 3.2677-1.0186 5.8273-2.8066 7.3379l-1.8945-2.5898h-3.1152l2.7754 3.8223c-0.72445 0.23121-1.5097 0.35352-2.3574 0.35352-4.547 0-7.4004-3.4519-7.4004-8.9238 0-5.4873 2.8533-8.9395 7.4004-8.9395z" color="#000000" color-rendering="auto" dominant-baseline="auto" image-rendering="auto" opacity="1" solid-color="#000000" stroke-width=".6" style="font-feature-settings:normal;font-variant-alternates:normal;font-variant-caps:normal;font-variant-ligatures:normal;font-variant-numeric:normal;font-variant-position:normal;isolation:auto;mix-blend-mode:normal;shape-padding:0;text-decoration-color:#000000;text-decoration-line:none;text-decoration-style:solid;text-indent:0;text-orientation:mixed;text-transform:none;white-space:normal"/>
<path d="m157.97 41.418c-5.3283 0-9.7129 4.3826-9.7129 9.7109v22.818c0 5.3283 4.3846 9.7129 9.7129 9.7129h15.531c21.422 0 33.13 9.1559 40.229 13.467-2.655-6-3.1268-10.974-2.0254-14.143 3.7073-1.3717 6.4082-4.8772 6.4082-9.0371v-22.818c0-5.3283-4.3826-9.7109-9.7109-9.7109zm0 6h50.432c2.1081 0 3.7109 1.6029 3.7109 3.7109v22.818c0 2.1081-1.6029 3.7129-3.7109 3.7129-1.6894 6.11e-4 -3.0452 1.3953-2.998 3.084 0.0521 1.8542 0.40348 3.593 0.86133 5.2773-7.0242-3.9924-17.158-8.3613-32.764-8.3613h-15.531c-2.1081 0-3.7129-1.6048-3.7129-3.7129v-22.818c0-2.1081 1.6048-3.7109 3.7129-3.7109zm26.248 4.7578c-6.3042 0-10.252 4.4385-10.252 11.498s3.9477 11.482 10.252 11.482c1.4643 0 2.7897-0.23095 3.9766-0.69336l2.0644 2.8359h3.1133l-2.9434-4.0527c2.5741-1.9421 4.0391-5.2718 4.0391-9.5723 0-7.0595-3.9458-11.498-10.25-11.498zm0 2.5586c4.5471 0 7.3984 3.4522 7.3984 8.9395 0 3.2677-1.0186 5.8273-2.8066 7.3379l-1.8945-2.5898h-3.1152l2.7754 3.8223c-0.72445 0.23121-1.5097 0.35352-2.3574 0.35352-4.547 0-7.4004-3.4519-7.4004-8.9238 0-5.4873 2.8533-8.9395 7.4004-8.9395z" color="#000000" color-rendering="auto" dominant-baseline="auto" image-rendering="auto" opacity="1" solid-color="#000000" stroke-width=".7" style="font-feature-settings:normal;font-variant-alternates:normal;font-variant-caps:normal;font-variant-ligatures:normal;font-variant-numeric:normal;font-variant-position:normal;isolation:auto;mix-blend-mode:normal;shape-padding:0;text-decoration-color:#000000;text-decoration-line:none;text-decoration-style:solid;text-indent:0;text-orientation:mixed;text-transform:none;white-space:normal"/>
<path d="m157.97 41.418c-5.3283 0-9.7129 4.3826-9.7129 9.7109v22.818c0 5.3283 4.3846 9.7129 9.7129 9.7129h15.531c21.422 0 33.13 9.1559 40.229 13.467-2.655-6-3.1268-10.974-2.0254-14.143 3.7073-1.3717 6.4082-4.8772 6.4082-9.0371v-22.818c0-5.3283-4.3826-9.7109-9.7109-9.7109zm0 6h50.432c2.1081 0 3.7109 1.6029 3.7109 3.7109v22.818c0 2.1081-1.6029 3.7129-3.7109 3.7129-1.6894 6.11e-4 -3.0452 1.3953-2.998 3.084 0.0521 1.8542 0.40348 3.593 0.86133 5.2773-7.0242-3.9924-17.158-8.3613-32.764-8.3613h-15.531c-2.1081 0-3.7129-1.6048-3.7129-3.7129v-22.818c0-2.1081 1.6048-3.7109 3.7129-3.7109zm26.248 4.7578c-6.3042 0-10.252 4.4385-10.252 11.498s3.9477 11.482 10.252 11.482c1.4643 0 2.7897-0.23095 3.9766-0.69336l2.0644 2.8359h3.1133l-2.9434-4.0527c2.5741-1.9421 4.0391-5.2718 4.0391-9.5723 0-7.0595-3.9458-11.498-10.25-11.498zm0 2.5586c4.5471 0 7.3984 3.4522 7.3984 8.9395 0 3.2677-1.0186 5.8273-2.8066 7.3379l-1.8945-2.5898h-3.1152l2.7754 3.8223c-0.72445 0.23121-1.5097 0.35352-2.3574 0.35352-4.547 0-7.4004-3.4519-7.4004-8.9238 0-5.4873 2.8533-8.9395 7.4004-8.9395z" color="#000000" color-rendering="auto" dominant-baseline="auto" image-rendering="auto" opacity="1" solid-color="#000000" stroke-width=".8" style="font-feature-settings:normal;font-variant-alternates:normal;font-variant-caps:normal;font-variant-ligatures:normal;font-variant-numeric:normal;font-variant-position:normal;isolation:auto;mix-blend-mode:normal;shape-padding:0;text-decoration-color:#000000;text-decoration-line:none;text-decoration-style:solid;text-indent:0;text-orientation:mixed;text-transform:none;white-space:normal"/>
<path d="m157.97 41.418c-5.3283 0-9.7129 4.3826-9.7129 9.7109v22.818c0 5.3283 4.3846 9.7129 9.7129 9.7129h15.531c21.422 0 33.13 9.1559 40.229 13.467-2.655-6-3.1268-10.974-2.0254-14.143 3.7073-1.3717 6.4082-4.8772 6.4082-9.0371v-22.818c0-5.3283-4.3826-9.7109-9.7109-9.7109zm0 6h50.432c2.1081 0 3.7109 1.6029 3.7109 3.7109v22.818c0 2.1081-1.6029 3.7129-3.7109 3.7129-1.6894 6.11e-4 -3.0452 1.3953-2.998 3.084 0.0521 1.8542 0.40348 3.593 0.86133 5.2773-7.0242-3.9924-17.158-8.3613-32.764-8.3613h-15.531c-2.1081 0-3.7129-1.6048-3.7129-3.7129v-22.818c0-2.1081 1.6048-3.7109 3.7129-3.7109zm26.248 4.7578c-6.3042 0-10.252 4.4385-10.252 11.498s3.9477 11.482 10.252 11.482c1.4643 0 2.7897-0.23095 3.9766-0.69336l2.0644 2.8359h3.1133l-2.9434-4.0527c2.5741-1.9421 4.0391-5.2718 4.0391-9.5723 0-7.0595-3.9458-11.498-10.25-11.498zm0 2.5586c4.5471 0 7.3984 3.4522 7.3984 8.9395 0 3.2677-1.0186 5.8273-2.8066 7.3379l-1.8945-2.5898h-3.1152l2.7754 3.8223c-0.72445 0.23121-1.5097 0.35352-2.3574 0.35352-4.547 0-7.4004-3.4519-7.4004-8.9238 0-5.4873 2.8533-8.9395 7.4004-8.9395z" color="#000000" color-rendering="auto" dominant-baseline="auto" image-rendering="auto" opacity="1" solid-color="#000000" style="font-feature-settings:normal;font-variant-alternates:normal;font-variant-caps:normal;font-variant-ligatures:normal;font-variant-numeric:normal;font-variant-position:normal;isolation:auto;mix-blend-mode:normal;shape-padding:0;text-decoration-color:#000000;text-decoration-line:none;text-decoration-style:solid;text-indent:0;text-orientation:mixed;text-transform:none;white-space:normal"/>
<path d="m157.97 41.418c-5.3283 0-9.7129 4.3826-9.7129 9.7109v22.818c0 5.3283 4.3846 9.7129 9.7129 9.7129h15.531c21.422 0 33.13 9.1559 40.229 13.467-2.655-6-3.1268-10.974-2.0254-14.143 3.7073-1.3717 6.4082-4.8772 6.4082-9.0371v-22.818c0-5.3283-4.3826-9.7109-9.7109-9.7109zm0 6h50.432c2.1081 0 3.7109 1.6029 3.7109 3.7109v22.818c0 2.1081-1.6029 3.7129-3.7109 3.7129-1.6894 6.11e-4 -3.0452 1.3953-2.998 3.084 0.0521 1.8542 0.40348 3.593 0.86133 5.2773-7.0242-3.9924-17.158-8.3613-32.764-8.3613h-15.531c-2.1081 0-3.7129-1.6048-3.7129-3.7129v-22.818c0-2.1081 1.6048-3.7109 3.7129-3.7109zm26.248 4.7578c-6.3042 0-10.252 4.4385-10.252 11.498s3.9477 11.482 10.252 11.482c1.4643 0 2.7897-0.23095 3.9766-0.69336l2.0644 2.8359h3.1133l-2.9434-4.0527c2.5741-1.9421 4.0391-5.2718 4.0391-9.5723 0-7.0595-3.9458-11.498-10.25-11.498zm0 2.5586c4.5471 0 7.3984 3.4522 7.3984 8.9395 0 3.2677-1.0186 5.8273-2.8066 7.3379l-1.8945-2.5898h-3.1152l2.7754 3.8223c-0.72445 0.23121-1.5097 0.35352-2.3574 0.35352-4.547 0-7.4004-3.4519-7.4004-8.9238 0-5.4873 2.8533-8.9395 7.4004-8.9395z" color="#000000" color-rendering="auto" dominant-baseline="auto" image-rendering="auto" opacity="1" solid-color="#000000" stroke-width="1.2" style="font-feature-settings:normal;font-variant-alternates:normal;font-variant-caps:normal;font-variant-ligatures:normal;font-variant-numeric:normal;font-variant-position:normal;isolation:auto;mix-blend-mode:normal;shape-padding:0;text-decoration-color:#000000;text-decoration-line:none;text-decoration-style:solid;text-indent:0;text-orientation:mixed;text-transform:none;white-space:normal"/>
<path d="m157.97 41.418c-5.3283 0-9.7129 4.3826-9.7129 9.7109v22.818c0 5.3283 4.3846 9.7129 9.7129 9.7129h15.531c21.422 0 33.13 9.1559 40.229 13.467-2.655-6-3.1268-10.974-2.0254-14.143 3.7073-1.3717 6.4082-4.8772 6.4082-9.0371v-22.818c0-5.3283-4.3826-9.7109-9.7109-9.7109zm0 6h50.432c2.1081 0 3.7109 1.6029 3.7109 3.7109v22.818c0 2.1081-1.6029 3.7129-3.7109 3.7129-1.6894 6.11e-4 -3.0452 1.3953-2.998 3.084 0.0521 1.8542 0.40348 3.593 0.86133 5.2773-7.0242-3.9924-17.158-8.3613-32.764-8.3613h-15.531c-2.1081 0-3.7129-1.6048-3.7129-3.7129v-22.818c0-2.1081 1.6048-3.7109 3.7129-3.7109zm26.248 4.7578c-6.3042 0-10.252 4.4385-10.252 11.498s3.9477 11.482 10.252 11.482c1.4643 0 2.7897-0.23095 3.9766-0.69336l2.0644 2.8359h3.1133l-2.9434-4.0527c2.5741-1.9421 4.0391-5.2718 4.0391-9.5723 0-7.0595-3.9458-11.498-10.25-11.498zm0 2.5586c4.5471 0 7.3984 3.4522 7.3984 8.9395 0 3.2677-1.0186 5.8273-2.8066 7.3379l-1.8945-2.5898h-3.1152l2.7754 3.8223c-0.72445 0.23121-1.5097 0.35352-2.3574 0.35352-4.547 0-7.4004-3.4519-7.4004-8.9238 0-5.4873 2.8533-8.9395 7.4004-8.9395z" color="#000000" color-rendering="auto" dominant-baseline="auto" image-rendering="auto" opacity="1" solid-color="#000000" stroke-width="1.4" style="font-feature-settings:normal;font-variant-alternates:normal;font-variant-caps:normal;font-variant-ligatures:normal;font-variant-numeric:normal;font-variant-position:normal;isolation:auto;mix-blend-mode:normal;shape-padding:0;text-decoration-color:#000000;text-decoration-line:none;text-decoration-style:solid;text-indent:0;text-orientation:mixed;text-transform:none;white-space:normal"/>
<path d="m157.97 41.418c-5.3283 0-9.7129 4.3826-9.7129 9.7109v22.818c0 5.3283 4.3846 9.7129 9.7129 9.7129h15.531c21.422 0 33.13 9.1559 40.229 13.467-2.655-6-3.1268-10.974-2.0254-14.143 3.7073-1.3717 6.4082-4.8772 6.4082-9.0371v-22.818c0-5.3283-4.3826-9.7109-9.7109-9.7109zm0 6h50.432c2.1081 0 3.7109 1.6029 3.7109 3.7109v22.818c0 2.1081-1.6029 3.7129-3.7109 3.7129-1.6894 6.11e-4 -3.0452 1.3953-2.998 3.084 0.0521 1.8542 0.40348 3.593 0.86133 5.2773-7.0242-3.9924-17.158-8.3613-32.764-8.3613h-15.531c-2.1081 0-3.7129-1.6048-3.7129-3.7129v-22.818c0-2.1081 1.6048-3.7109 3.7129-3.7109zm26.248 4.7578c-6.3042 0-10.252 4.4385-10.252 11.498s3.9477 11.482 10.252 11.482c1.4643 0 2.7897-0.23095 3.9766-0.69336l2.0644 2.8359h3.1133l-2.9434-4.0527c2.5741-1.9421 4.0391-5.2718 4.0391-9.5723 0-7.0595-3.9458-11.498-10.25-11.498zm0 2.5586c4.5471 0 7.3984 3.4522 7.3984 8.9395 0 3.2677-1.0186 5.8273-2.8066 7.3379l-1.8945-2.5898h-3.1152l2.7754 3.8223c-0.72445 0.23121-1.5097 0.35352-2.3574 0.35352-4.547 0-7.4004-3.4519-7.4004-8.9238 0-5.4873 2.8533-8.9395 7.4004-8.9395z" color="#000000" color-rendering="auto" dominant-baseline="auto" image-rendering="auto" opacity="1" solid-color="#000000" stroke-width="1.6" style="font-feature-settings:normal;font-variant-alternates:normal;font-variant-caps:normal;font-variant-ligatures:normal;font-variant-numeric:normal;font-variant-position:normal;isolation:auto;mix-blend-mode:normal;shape-padding:0;text-decoration-color:#000000;text-decoration-line:none;text-decoration-style:solid;text-indent:0;text-orientation:mixed;text-transform:none;white-space:normal"/>
<path d="m157.97 41.418c-5.3283 0-9.7129 4.3826-9.7129 9.7109v22.818c0 5.3283 4.3846 9.7129 9.7129 9.7129h15.531c21.422 0 33.13 9.1559 40.229 13.467-2.655-6-3.1268-10.974-2.0254-14.143 3.7073-1.3717 6.4082-4.8772 6.4082-9.0371v-22.818c0-5.3283-4.3826-9.7109-9.7109-9.7109zm0 6h50.432c2.1081 0 3.7109 1.6029 3.7109 3.7109v22.818c0 2.1081-1.6029 3.7129-3.7109 3.7129-1.6894 6.11e-4 -3.0452 1.3953-2.998 3.084 0.0521 1.8542 0.40348 3.593 0.86133 5.2773-7.0242-3.9924-17.158-8.3613-32.764-8.3613h-15.531c-2.1081 0-3.7129-1.6048-3.7129-3.7129v-22.818c0-2.1081 1.6048-3.7109 3.7129-3.7109zm26.248 4.7578c-6.3042 0-10.252 4.4385-10.252 11.498s3.9477 11.482 10.252 11.482c1.4643 0 2.7897-0.23095 3.9766-0.69336l2.0644 2.8359h3.1133l-2.9434-4.0527c2.5741-1.9421 4.0391-5.2718 4.0391-9.5723 0-7.0595-3.9458-11.498-10.25-11.498zm0 2.5586c4.5471 0 7.3984 3.4522 7.3984 8.9395 0 3.2677-1.0186 5.8273-2.8066 7.3379l-1.8945-2.5898h-3.1152l2.7754 3.8223c-0.72445 0.23121-1.5097 0.35352-2.3574 0.35352-4.547 0-7.4004-3.4519-7.4004-8.9238 0-5.4873 2.8533-8.9395 7.4004-8.9395z" color="#000000" color-rendering="auto" dominant-baseline="auto" image-rendering="auto" opacity="1" solid-color="#000000" stroke-width="1.8" style="font-feature-settings:normal;font-variant-alternates:normal;font-variant-caps:normal;font-variant-ligatures:normal;font-variant-numeric:normal;font-variant-position:normal;isolation:auto;mix-blend-mode:normal;shape-padding:0;text-decoration-color:#000000;text-decoration-line:none;text-decoration-style:solid;text-indent:0;text-orientation:mixed;text-transform:none;white-space:normal"/>
<path d="m157.97 41.418c-5.3283 0-9.7129 4.3826-9.7129 9.7109v22.818c0 5.3283 4.3846 9.7129 9.7129 9.7129h15.531c21.422 0 33.13 9.1559 40.229 13.467-2.655-6-3.1268-10.974-2.0254-14.143 3.7073-1.3717 6.4082-4.8772 6.4082-9.0371v-22.818c0-5.3283-4.3826-9.7109-9.7109-9.7109zm0 6h50.432c2.1081 0 3.7109 1.6029 3.7109 3.7109v22.818c0 2.1081-1.6029 3.7129-3.7109 3.7129-1.6894 6.11e-4 -3.0452 1.3953-2.998 3.084 0.0521 1.8542 0.40348 3.593 0.86133 5.2773-7.0242-3.9924-17.158-8.3613-32.764-8.3613h-15.531c-2.1081 0-3.7129-1.6048-3.7129-3.7129v-22.818c0-2.1081 1.6048-3.7109 3.7129-3.7109zm26.248 4.7578c-6.3042 0-10.252 4.4385-10.252 11.498s3.9477 11.482 10.252 11.482c1.4643 0 2.7897-0.23095 3.9766-0.69336l2.0644 2.8359h3.1133l-2.9434-4.0527c2.5741-1.9421 4.0391-5.2718 4.0391-9.5723 0-7.0595-3.9458-11.498-10.25-11.498zm0 2.5586c4.5471 0 7.3984 3.4522 7.3984 8.9395 0 3.2677-1.0186 5.8273-2.8066 7.3379l-1.8945-2.5898h-3.1152l2.7754 3.8223c-0.72445 0.23121-1.5097 0.35352-2.3574 0.35352-4.547 0-7.4004-3.4519-7.4004-8.9238 0-5.4873 2.8533-8.9395 7.4004-8.9395z" color="#000000" color-rendering="auto" dominant-baseline="auto" image-rendering="auto" opacity="1" solid-color="#000000" stroke-width="2.2" style="font-feature-settings:normal;font-variant-alternates:normal;font-variant-caps:normal;font-variant-ligatures:normal;font-variant-numeric:normal;font-variant-position:normal;isolation:auto;mix-blend-mode:normal;shape-padding:0;text-decoration-color:#000000;text-decoration-line:none;text-decoration-style:solid;text-indent:0;text-orientation:mixed;text-transform:none;white-space:normal"/>
<path d="m157.97 41.418c-5.3283 0-9.7129 4.3826-9.7129 9.7109v22.818c0 5.3283 4.3846 9.7129 9.7129 9.7129h15.531c21.422 0 33.13 9.1559 40.229 13.467-2.655-6-3.1268-10.974-2.0254-14.143 3.7073-1.3717 6.4082-4.8772 6.4082-9.0371v-22.818c0-5.3283-4.3826-9.7109-9.7109-9.7109zm0 6h50.432c2.1081 0 3.7109 1.6029 3.7109 3.7109v22.818c0 2.1081-1.6029 3.7129-3.7109 3.7129-1.6894 6.11e-4 -3.0452 1.3953-2.998 3.084 0.0521 1.8542 0.40348 3.593 0.86133 5.2773-7.0242-3.9924-17.158-8.3613-32.764-8.3613h-15.531c-2.1081 0-3.7129-1.6048-3.7129-3.7129v-22.818c0-2.1081 1.6048-3.7109 3.7129-3.7109zm26.248 4.7578c-6.3042 0-10.252 4.4385-10.252 11.498s3.9477 11.482 10.252 11.482c1.4643 0 2.7897-0.23095 3.9766-0.69336l2.0644 2.8359h3.1133l-2.9434-4.0527c2.5741-1.9421 4.0391-5.2718 4.0391-9.5723 0-7.0595-3.9458-11.498-10.25-11.498zm0 2.5586c4.5471 0 7.3984 3.4522 7.3984 8.9395 0 3.2677-1.0186 5.8273-2.8066 7.3379l-1.8945-2.5898h-3.1152l2.7754 3.8223c-0.72445 0.23121-1.5097 0.35352-2.3574 0.35352-4.547 0-7.4004-3.4519-7.4004-8.9238 0-5.4873 2.8533-8.9395 7.4004-8.9395z" color="#000000" color-rendering="auto" dominant-baseline="auto" image-rendering="auto" opacity="1" solid-color="#000000" stroke-width="2.6" style="font-feature-settings:normal;font-variant-alternates:normal;font-variant-caps:normal;font-variant-ligatures:normal;font-variant-numeric:normal;font-variant-position:normal;isolation:auto;mix-blend-mode:normal;shape-padding:0;text-decoration-color:#000000;text-decoration-line:none;text-decoration-style:solid;text-indent:0;text-orientation:mixed;text-transform:none;white-space:normal"/>
<path d="m157.97 41.418c-5.3283 0-9.7129 4.3826-9.7129 9.7109v22.818c0 5.3283 4.3846 9.7129 9.7129 9.7129h15.531c21.422 0 33.13 9.1559 40.229 13.467-2.655-6-3.1268-10.974-2.0254-14.143 3.7073-1.3717 6.4082-4.8772 6.4082-9.0371v-22.818c0-5.3283-4.3826-9.7109-9.7109-9.7109zm0 6h50.432c2.1081 0 3.7109 1.6029 3.7109 3.7109v22.818c0 2.1081-1.6029 3.7129-3.7109 3.7129-1.6894 6.11e-4 -3.0452 1.3953-2.998 3.084 0.0521 1.8542 0.40348 3.593 0.86133 5.2773-7.0242-3.9924-17.158-8.3613-32.764-8.3613h-15.531c-2.1081 0-3.7129-1.6048-3.7129-3.7129v-22.818c0-2.1081 1.6048-3.7109 3.7129-3.7109zm26.248 4.7578c-6.3042 0-10.252 4.4385-10.252 11.498s3.9477 11.482 10.252 11.482c1.4643 0 2.7897-0.23095 3.9766-0.69336l2.0644 2.8359h3.1133l-2.9434-4.0527c2.5741-1.9421 4.0391-5.2718 4.0391-9.5723 0-7.0595-3.9458-11.498-10.25-11.498zm0 2.5586c4.5471 0 7.3984 3.4522 7.3984 8.9395 0 3.2677-1.0186 5.8273-2.8066 7.3379l-1.8945-2.5898h-3.1152l2.7754 3.8223c-0.72445 0.23121-1.5097 0.35352-2.3574 0.35352-4.547 0-7.4004-3.4519-7.4004-8.9238 0-5.4873 2.8533-8.9395 7.4004-8.9395z" color="#000000" color-rendering="auto" dominant-baseline="auto" image-rendering="auto" opacity="1" solid-color="#000000" stroke-width="3" style="font-feature-settings:normal;font-variant-alternates:normal;font-variant-caps:normal;font-variant-ligatures:normal;font-variant-numeric:normal;font-variant-position:normal;isolation:auto;mix-blend-mode:normal;shape-padding:0;text-decoration-color:#000000;text-decoration-line:none;text-decoration-style:solid;text-indent:0;text-orientation:mixed;text-transform:none;white-space:normal"/>
<path d="m157.97 41.418c-5.3283 0-9.7129 4.3826-9.7129 9.7109v22.818c0 5.3283 4.3846 9.7129 9.7129 9.7129h15.531c21.422 0 33.13 9.1559 40.229 13.467-2.655-6-3.1268-10.974-2.0254-14.143 3.7073-1.3717 6.4082-4.8772 6.4082-9.0371v-22.818c0-5.3283-4.3826-9.7109-9.7109-9.7109zm0 6h50.432c2.1081 0 3.7109 1.6029 3.7109 3.7109v22.818c0 2.1081-1.6029 3.7129-3.7109 3.7129-1.6894 6.11e-4 -3.0452 1.3953-2.998 3.084 0.0521 1.8542 0.40348 3.593 0.86133 5.2773-7.0242-3.9924-17.158-8.3613-32.764-8.3613h-15.531c-2.1081 0-3.7129-1.6048-3.7129-3.7129v-22.818c0-2.1081 1.6048-3.7109 3.7129-3.7109zm26.248 4.7578c-6.3042 0-10.252 4.4385-10.252 11.498s3.9477 11.482 10.252 11.482c1.4643 0 2.7897-0.23095 3.9766-0.69336l2.0644 2.8359h3.1133l-2.9434-4.0527c2.5741-1.9421 4.0391-5.2718 4.0391-9.5723 0-7.0595-3.9458-11.498-10.25-11.498zm0 2.5586c4.5471 0 7.3984 3.4522 7.3984 8.9395 0 3.2677-1.0186 5.8273-2.8066 7.3379l-1.8945-2.5898h-3.1152l2.7754 3.8223c-0.72445 0.23121-1.5097 0.35352-2.3574 0.35352-4.547 0-7.4004-3.4519-7.4004-8.9238 0-5.4873 2.8533-8.9395 7.4004-8.9395z" color="#000000" color-rendering="auto" dominant-baseline="auto" image-rendering="auto" opacity="1" solid-color="#000000" stroke-width="3.4" style="font-feature-settings:normal;font-variant-alternates:normal;font-variant-caps:normal;font-variant-ligatures:normal;font-variant-numeric:normal;font-variant-position:normal;isolation:auto;mix-blend-mode:normal;shape-padding:0;text-decoration-color:#000000;text-decoration-line:none;text-decoration-style:solid;text-indent:0;text-orientation:mixed;text-transform:none;white-space:normal"/>
<path d="m157.97 41.418c-5.3283 0-9.7129 4.3826-9.7129 9.7109v22.818c0 5.3283 4.3846 9.7129 9.7129 9.7129h15.531c21.422 0 33.13 9.1559 40.229 13.467-2.655-6-3.1268-10.974-2.0254-14.143 3.7073-1.3717 6.4082-4.8772 6.4082-9.0371v-22.818c0-5.3283-4.3826-9.7109-9.7109-9.7109zm0 6h50.432c2.1081 0 3.7109 1.6029 3.7109 3.7109v22.818c0 2.1081-1.6029 3.7129-3.7109 3.7129-1.6894 6.11e-4 -3.0452 1.3953-2.998 3.084 0.0521 1.8542 0.40348 3.593 0.86133 5.2773-7.0242-3.9924-17.158-8.3613-32.764-8.3613h-15.531c-2.1081 0-3.7129-1.6048-3.7129-3.7129v-22.818c0-2.1081 1.6048-3.7109 3.7129-3.7109zm26.248 4.7578c-6.3042 0-10.252 4.4385-10.252 11.498s3.9477 11.482 10.252 11.482c1.4643 0 2.7897-0.23095 3.9766-0.69336l2.0644 2.8359h3.1133l-2.9434-4.0527c2.5741-1.9421 4.0391-5.2718 4.0391-9.5723 0-7.0595-3.9458-11.498-10.25-11.498zm0 2.5586c4.5471 0 7.3984 3.4522 7.3984 8.9395 0 3.2677-1.0186 5.8273-2.8066 7.3379l-1.8945-2.5898h-3.1152l2.7754 3.8223c-0.72445 0.23121-1.5097 0.35352-2.3574 0.35352-4.547 0-7.4004-3.4519-7.4004-8.9238 0-5.4873 2.8533-8.9395 7.4004-8.9395z" color="#000000" color-rendering="auto" dominant-baseline="auto" image-rendering="auto" opacity="1" solid-color="#000000" stroke-width="3.8" style="font-feature-settings:normal;font-variant-alternates:normal;font-variant-caps:normal;font-variant-ligatures:normal;font-variant-numeric:normal;font-variant-position:normal;isolation:auto;mix-blend-mode:normal;shape-padding:0;text-decoration-color:#000000;text-decoration-line:none;text-decoration-style:solid;text-indent:0;text-orientation:mixed;text-transform:none;white-space:normal"/>
<path d="m157.97 41.418c-5.3283 0-9.7129 4.3826-9.7129 9.7109v22.818c0 5.3283 4.3846 9.7129 9.7129 9.7129h15.531c21.422 0 33.13 9.1559 40.229 13.467-2.655-6-3.1268-10.974-2.0254-14.143 3.7073-1.3717 6.4082-4.8772 6.4082-9.0371v-22.818c0-5.3283-4.3826-9.7109-9.7109-9.7109zm0 6h50.432c2.1081 0 3.7109 1.6029 3.7109 3.7109v22.818c0 2.1081-1.6029 3.7129-3.7109 3.7129-1.6894 6.11e-4 -3.0452 1.3953-2.998 3.084 0.0521 1.8542 0.40348 3.593 0.86133 5.2773-7.0242-3.9924-17.158-8.3613-32.764-8.3613h-15.531c-2.1081 0-3.7129-1.6048-3.7129-3.7129v-22.818c0-2.1081 1.6048-3.7109 3.7129-3.7109zm26.248 4.7578c-6.3042 0-10.252 4.4385-10.252 11.498s3.9477 11.482 10.252 11.482c1.4643 0 2.7897-0.23095 3.9766-0.69336l2.0644 2.8359h3.1133l-2.9434-4.0527c2.5741-1.9421 4.0391-5.2718 4.0391-9.5723 0-7.0595-3.9458-11.498-10.25-11.498zm0 2.5586c4.5471 0 7.3984 3.4522 7.3984 8.9395 0 3.2677-1.0186 5.8273-2.8066 7.3379l-1.8945-2.5898h-3.1152l2.7754 3.8223c-0.72445 0.23121-1.5097 0.35352-2.3574 0.35352-4.547 0-7.4004-3.4519-7.4004-8.9238 0-5.4873 2.8533-8.9395 7.4004-8.9395z" color="#000000" color-rendering="auto" dominant-baseline="auto" image-rendering="auto" opacity="1" solid-color="#000000" stroke-width="4.4" style="font-feature-settings:normal;font-variant-alternates:normal;font-variant-caps:normal;font-variant-ligatures:normal;font-variant-numeric:normal;font-variant-position:normal;isolation:auto;mix-blend-mode:normal;shape-padding:0;text-decoration-color:#000000;text-decoration-line:none;text-decoration-style:solid;text-indent:0;text-orientation:mixed;text-transform:none;white-space:normal"/>
<path d="m157.97 41.418c-5.3283 0-9.7129 4.3826-9.7129 9.7109v22.818c0 5.3283 4.3846 9.7129 9.7129 9.7129h15.531c21.422 0 33.13 9.1559 40.229 13.467-2.655-6-3.1268-10.974-2.0254-14.143 3.7073-1.3717 6.4082-4.8772 6.4082-9.0371v-22.818c0-5.3283-4.3826-9.7109-9.7109-9.7109zm0 6h50.432c2.1081 0 3.7109 1.6029 3.7109 3.7109v22.818c0 2.1081-1.6029 3.7129-3.7109 3.7129-1.6894 6.11e-4 -3.0452 1.3953-2.998 3.084 0.0521 1.8542 0.40348 3.593 0.86133 5.2773-7.0242-3.9924-17.158-8.3613-32.764-8.3613h-15.531c-2.1081 0-3.7129-1.6048-3.7129-3.7129v-22.818c0-2.1081 1.6048-3.7109 3.7129-3.7109zm26.248 4.7578c-6.3042 0-10.252 4.4385-10.252 11.498s3.9477 11.482 10.252 11.482c1.4643 0 2.7897-0.23095 3.9766-0.69336l2.0644 2.8359h3.1133l-2.9434-4.0527c2.5741-1.9421 4.0391-5.2718 4.0391-9.5723 0-7.0595-3.9458-11.498-10.25-11.498zm0 2.5586c4.5471 0 7.3984 3.4522 7.3984 8.9395 0 3.2677-1.0186 5.8273-2.8066 7.3379l-1.8945-2.5898h-3.1152l2.7754 3.8223c-0.72445 0.23121-1.5097 0.35352-2.3574 0.35352-4.547 0-7.4004-3.4519-7.4004-8.9238 0-5.4873 2.8533-8.9395 7.4004-8.9395z" color="#000000" color-rendering="auto" dominant-baseline="auto" image-rendering="auto" opacity="1" solid-color="#000000" stroke-width="5" style="font-feature-settings:normal;font-variant-alternates:normal;font-variant-caps:normal;font-variant-ligatures:normal;font-variant-numeric:normal;font-variant-position:normal;isolation:auto;mix-blend-mode:normal;shape-padding:0;text-decoration-color:#000000;text-decoration-line:none;text-decoration-style:solid;text-indent:0;text-orientation:mixed;text-transform:none;white-space:normal"/>
<path d="m157.97 41.418c-5.3283 0-9.7129 4.3826-9.7129 9.7109v22.818c0 5.3283 4.3846 9.7129 9.7129 9.7129h15.531c21.422 0 33.13 9.1559 40.229 13.467-2.655-6-3.1268-10.974-2.0254-14.143 3.7073-1.3717 6.4082-4.8772 6.4082-9.0371v-22.818c0-5.3283-4.3826-9.7109-9.7109-9.7109zm0 6h50.432c2.1081 0 3.7109 1.6029 3.7109 3.7109v22.818c0 2.1081-1.6029 3.7129-3.7109 3.7129-1.6894 6.11e-4 -3.0452 1.3953-2.998 3.084 0.0521 1.8542 0.40348 3.593 0.86133 5.2773-7.0242-3.9924-17.158-8.3613-32.764-8.3613h-15.531c-2.1081 0-3.7129-1.6048-3.7129-3.7129v-22.818c0-2.1081 1.6048-3.7109 3.7129-3.7109zm26.248 4.7578c-6.3042 0-10.252 4.4385-10.252 11.498s3.9477 11.482 10.252 11.482c1.4643 0 2.7897-0.23095 3.9766-0.69336l2.0644 2.8359h3.1133l-2.9434-4.0527c2.5741-1.9421 4.0391-5.2718 4.0391-9.5723 0-7.0595-3.9458-11.498-10.25-11.498zm0 2.5586c4.5471 0 7.3984 3.4522 7.3984 8.9395 0 3.2677-1.0186 5.8273-2.8066 7.3379l-1.8945-2.5898h-3.1152l2.7754 3.8223c-0.72445 0.23121-1.5097 0.35352-2.3574 0.35352-4.547 0-7.4004-3.4519-7.4004-8.9238 0-5.4873 2.8533-8.9395 7.4004-8.9395z" color="#000000" color-rendering="auto" dominant-baseline="auto" image-rendering="auto" opacity="1" solid-color="#000000" stroke-width="5.6" style="font-feature-settings:normal;font-variant-alternates:normal;font-variant-caps:normal;font-variant-ligatures:normal;font-variant-numeric:normal;font-variant-position:normal;isolation:auto;mix-blend-mode:normal;shape-padding:0;text-decoration-color:#000000;text-decoration-line:none;text-decoration-style:solid;text-indent:0;text-orientation:mixed;text-transform:none;white-space:normal"/>
<path d="m157.97 41.418c-5.3283 0-9.7129 4.3826-9.7129 9.7109v22.818c0 5.3283 4.3846 9.7129 9.7129 9.7129h15.531c21.422 0 33.13 9.1559 40.229 13.467-2.655-6-3.1268-10.974-2.0254-14.143 3.7073-1.3717 6.4082-4.8772 6.4082-9.0371v-22.818c0-5.3283-4.3826-9.7109-9.7109-9.7109zm0 6h50.432c2.1081 0 3.7109 1.6029 3.7109 3.7109v22.818c0 2.1081-1.6029 3.7129-3.7109 3.7129-1.6894 6.11e-4 -3.0452 1.3953-2.998 3.084 0.0521 1.8542 0.40348 3.593 0.86133 5.2773-7.0242-3.9924-17.158-8.3613-32.764-8.3613h-15.531c-2.1081 0-3.7129-1.6048-3.7129-3.7129v-22.818c0-2.1081 1.6048-3.7109 3.7129-3.7109zm26.248 4.7578c-6.3042 0-10.252 4.4385-10.252 11.498s3.9477 11.482 10.252 11.482c1.4643 0 2.7897-0.23095 3.9766-0.69336l2.0644 2.8359h3.1133l-2.9434-4.0527c2.5741-1.9421 4.0391-5.2718 4.0391-9.5723 0-7.0595-3.9458-11.498-10.25-11.498zm0 2.5586c4.5471 0 7.3984 3.4522 7.3984 8.9395 0 3.2677-1.0186 5.8273-2.8066 7.3379l-1.8945-2.5898h-3.1152l2.7754 3.8223c-0.72445 0.23121-1.5097 0.35352-2.3574 0.35352-4.547 0-7.4004-3.4519-7.4004-8.9238 0-5.4873 2.8533-8.9395 7.4004-8.9395z" color="#000000" color-rendering="auto" dominant-baseline="auto" image-rendering="auto" opacity="1" solid-color="#000000" stroke-width="6.2" style="font-feature-settings:normal;font-variant-alternates:normal;font-variant-caps:normal;font-variant-ligatures:normal;font-variant-numeric:normal;font-variant-position:normal;isolation:auto;mix-blend-mode:normal;shape-padding:0;text-decoration-color:#000000;text-decoration-line:none;text-decoration-style:solid;text-indent:0;text-orientation:mixed;text-transform:none;white-space:normal"/>
<path d="m157.97 41.418c-5.3283 0-9.7129 4.3826-9.7129 9.7109v22.818c0 5.3283 4.3846 9.7129 9.7129 9.7129h15.531c21.422 0 33.13 9.1559 40.229 13.467-2.655-6-3.1268-10.974-2.0254-14.143 3.7073-1.3717 6.4082-4.8772 6.4082-9.0371v-22.818c0-5.3283-4.3826-9.7109-9.7109-9.7109zm0 6h50.432c2.1081 0 3.7109 1.6029 3.7109 3.7109v22.818c0 2.1081-1.6029 3.7129-3.7109 3.7129-1.6894 6.11e-4 -3.0452 1.3953-2.998 3.084 0.0521 1.8542 0.40348 3.593 0.86133 5.2773-7.0242-3.9924-17.158-8.3613-32.764-8.3613h-15.531c-2.1081 0-3.7129-1.6048-3.7129-3.7129v-22.818c0-2.1081 1.6048-3.7109 3.7129-3.7109zm26.248 4.7578c-6.3042 0-10.252 4.4385-10.252 11.498s3.9477 11.482 10.252 11.482c1.4643 0 2.7897-0.23095 3.9766-0.69336l2.0644 2.8359h3.1133l-2.9434-4.0527c2.5741-1.9421 4.0391-5.2718 4.0391-9.5723 0-7.0595-3.9458-11.498-10.25-11.498zm0 2.5586c4.5471 0 7.3984 3.4522 7.3984 8.9395 0 3.2677-1.0186 5.8273-2.8066 7.3379l-1.8945-2.5898h-3.1152l2.7754 3.8223c-0.72445 0.23121-1.5097 0.35352-2.3574 0.35352-4.547 0-7.4004-3.4519-7.4004-8.9238 0-5.4873 2.8533-8.9395 7.4004-8.9395z" color="#000000" color-rendering="auto" dominant-baseline="auto" image-rendering="auto" opacity="1" solid-color="#000000" stroke-width="6.8" style="font-feature-settings:normal;font-variant-alternates:normal;font-variant-caps:normal;font-variant-ligatures:normal;font-variant-numeric:normal;font-variant-position:normal;isolation:auto;mix-blend-mode:normal;shape-padding:0;text-decoration-color:#000000;text-decoration-line:none;text-decoration-style:solid;text-indent:0;text-orientation:mixed;text-transform:none;white-space:normal"/>
<path d="m157.97 41.418c-5.3283 0-9.7129 4.3826-9.7129 9.7109v22.818c0 5.3283 4.3846 9.7129 9.7129 9.7129h15.531c21.422 0 33.13 9.1559 40.229 13.467-2.655-6-3.1268-10.974-2.0254-14.143 3.7073-1.3717 6.4082-4.8772 6.4082-9.0371v-22.818c0-5.3283-4.3826-9.7109-9.7109-9.7109zm0 6h50.432c2.1081 0 3.7109 1.6029 3.7109 3.7109v22.818c0 2.1081-1.6029 3.7129-3.7109 3.7129-1.6894 6.11e-4 -3.0452 1.3953-2.998 3.084 0.0521 1.8542 0.40348 3.593 0.86133 5.2773-7.0242-3.9924-17.158-8.3613-32.764-8.3613h-15.531c-2.1081 0-3.7129-1.6048-3.7129-3.7129v-22.818c0-2.1081 1.6048-3.7109 3.7129-3.7109zm26.248 4.7578c-6.3042 0-10.252 4.4385-10.252 11.498s3.9477 11.482 10.252 11.482c1.4643 0 2.7897-0.23095 3.9766-0.69336l2.0644 2.8359h3.1133l-2.9434-4.0527c2.5741-1.9421 4.0391-5.2718 4.0391-9.5723 0-7.0595-3.9458-11.498-10.25-11.498zm0 2.5586c4.5471 0 7.3984 3.4522 7.3984 8.9395 0 3.2677-1.0186 5.8273-2.8066 7.3379l-1.8945-2.5898h-3.1152l2.7754 3.8223c-0.72445 0.23121-1.5097 0.35352-2.3574 0.35352-4.547 0-7.4004-3.4519-7.4004-8.9238 0-5.4873 2.8533-8.9395 7.4004-8.9395z" color="#000000" color-rendering="auto" dominant-baseline="auto" image-rendering="auto" opacity="1" solid-color="#000000" stroke-width="7.4" style="font-feature-settings:normal;font-variant-alternates:normal;font-variant-caps:normal;font-variant-ligatures:normal;font-variant-numeric:normal;font-variant-position:normal;isolation:auto;mix-blend-mode:normal;shape-padding:0;text-decoration-color:#000000;text-decoration-line:none;text-decoration-style:solid;text-indent:0;text-orientation:mixed;text-transform:none;white-space:normal"/>
<path d="m157.97 41.418c-5.3283 0-9.7129 4.3826-9.7129 9.7109v22.818c0 5.3283 4.3846 9.7129 9.7129 9.7129h15.531c21.422 0 33.13 9.1559 40.229 13.467-2.655-6-3.1268-10.974-2.0254-14.143 3.7073-1.3717 6.4082-4.8772 6.4082-9.0371v-22.818c0-5.3283-4.3826-9.7109-9.7109-9.7109zm0 6h50.432c2.1081 0 3.7109 1.6029 3.7109 3.7109v22.818c0 2.1081-1.6029 3.7129-3.7109 3.7129-1.6894 6.11e-4 -3.0452 1.3953-2.998 3.084 0.0521 1.8542 0.40348 3.593 0.86133 5.2773-7.0242-3.9924-17.158-8.3613-32.764-8.3613h-15.531c-2.1081 0-3.7129-1.6048-3.7129-3.7129v-22.818c0-2.1081 1.6048-3.7109 3.7129-3.7109zm26.248 4.7578c-6.3042 0-10.252 4.4385-10.252 11.498s3.9477 11.482 10.252 11.482c1.4643 0 2.7897-0.23095 3.9766-0.69336l2.0644 2.8359h3.1133l-2.9434-4.0527c2.5741-1.9421 4.0391-5.2718 4.0391-9.5723 0-7.0595-3.9458-11.498-10.25-11.498zm0 2.5586c4.5471 0 7.3984 3.4522 7.3984 8.9395 0 3.2677-1.0186 5.8273-2.8066 7.3379l-1.8945-2.5898h-3.1152l2.7754 3.8223c-0.72445 0.23121-1.5097 0.35352-2.3574 0.35352-4.547 0-7.4004-3.4519-7.4004-8.9238 0-5.4873 2.8533-8.9395 7.4004-8.9395z" color="#000000" color-rendering="auto" dominant-baseline="auto" image-rendering="auto" opacity="1" solid-color="#000000" stroke-width="8.4" style="font-feature-settings:normal;font-variant-alternates:normal;font-variant-caps:normal;font-variant-ligatures:normal;font-variant-numeric:normal;font-variant-position:normal;isolation:auto;mix-blend-mode:normal;shape-padding:0;text-decoration-color:#000000;text-decoration-line:none;text-decoration-style:solid;text-indent:0;text-orientation:mixed;text-transform:none;white-space:normal"/>
<path d="m157.97 41.418c-5.3283 0-9.7129 4.3826-9.7129 9.7109v22.818c0 5.3283 4.3846 9.7129 9.7129 9.7129h15.531c21.422 0 33.13 9.1559 40.229 13.467-2.655-6-3.1268-10.974-2.0254-14.143 3.7073-1.3717 6.4082-4.8772 6.4082-9.0371v-22.818c0-5.3283-4.3826-9.7109-9.7109-9.7109zm0 6h50.432c2.1081 0 3.7109 1.6029 3.7109 3.7109v22.818c0 2.1081-1.6029 3.7129-3.7109 3.7129-1.6894 6.11e-4 -3.0452 1.3953-2.998 3.084 0.0521 1.8542 0.40348 3.593 0.86133 5.2773-7.0242-3.9924-17.158-8.3613-32.764-8.3613h-15.531c-2.1081 0-3.7129-1.6048-3.7129-3.7129v-22.818c0-2.1081 1.6048-3.7109 3.7129-3.7109zm26.248 4.7578c-6.3042 0-10.252 4.4385-10.252 11.498s3.9477 11.482 10.252 11.482c1.4643 0 2.7897-0.23095 3.9766-0.69336l2.0644 2.8359h3.1133l-2.9434-4.0527c2.5741-1.9421 4.0391-5.2718 4.0391-9.5723 0-7.0595-3.9458-11.498-10.25-11.498zm0 2.5586c4.5471 0 7.3984 3.4522 7.3984 8.9395 0 3.2677-1.0186 5.8273-2.8066 7.3379l-1.8945-2.5898h-3.1152l2.7754 3.8223c-0.72445 0.23121-1.5097 0.35352-2.3574 0.35352-4.547 0-7.4004-3.4519-7.4004-8.9238 0-5.4873 2.8533-8.9395 7.4004-8.9395z" color="#000000" color-rendering="auto" dominant-baseline="auto" image-rendering="auto" opacity="1" solid-color="#000000" stroke-width="9.4" style="font-feature-settings:normal;font-variant-alternates:normal;font-variant-caps:normal;font-variant-ligatures:normal;font-variant-numeric:normal;font-variant-position:normal;isolation:auto;mix-blend-mode:normal;shape-padding:0;text-decoration-color:#000000;text-decoration-line:none;text-decoration-style:solid;text-indent:0;text-orientation:mixed;text-transform:none;white-space:normal"/>
<path d="m157.97 41.418c-5.3283 0-9.7129 4.3826-9.7129 9.7109v22.818c0 5.3283 4.3846 9.7129 9.7129 9.7129h15.531c21.422 0 33.13 9.1559 40.229 13.467-2.655-6-3.1268-10.974-2.0254-14.143 3.7073-1.3717 6.4082-4.8772 6.4082-9.0371v-22.818c0-5.3283-4.3826-9.7109-9.7109-9.7109zm0 6h50.432c2.1081 0 3.7109 1.6029 3.7109 3.7109v22.818c0 2.1081-1.6029 3.7129-3.7109 3.7129-1.6894 6.11e-4 -3.0452 1.3953-2.998 3.084 0.0521 1.8542 0.40348 3.593 0.86133 5.2773-7.0242-3.9924-17.158-8.3613-32.764-8.3613h-15.531c-2.1081 0-3.7129-1.6048-3.7129-3.7129v-22.818c0-2.1081 1.6048-3.7109 3.7129-3.7109zm26.248 4.7578c-6.3042 0-10.252 4.4385-10.252 11.498s3.9477 11.482 10.252 11.482c1.4643 0 2.7897-0.23095 3.9766-0.69336l2.0644 2.8359h3.1133l-2.9434-4.0527c2.5741-1.9421 4.0391-5.2718 4.0391-9.5723 0-7.0595-3.9458-11.498-10.25-11.498zm0 2.5586c4.5471 0 7.3984 3.4522 7.3984 8.9395 0 3.2677-1.0186 5.8273-2.8066 7.3379l-1.8945-2.5898h-3.1152l2.7754 3.8223c-0.72445 0.23121-1.5097 0.35352-2.3574 0.35352-4.547 0-7.4004-3.4519-7.4004-8.9238 0-5.4873 2.8533-8.9395 7.4004-8.9395z" color="#000000" color-rendering="auto" dominant-baseline="auto" image-rendering="auto" opacity="1" solid-color="#000000" stroke-width="1.4" style="font-feature-settings:normal;font-variant-alternates:normal;font-variant-caps:normal;font-variant-ligatures:normal;font-variant-numeric:normal;font-variant-position:normal;isolation:auto;mix-blend-mode:normal;shape-padding:0;text-decoration-color:#000000;text-decoration-line:none;text-decoration-style:solid;text-indent:0;text-orientation:mixed;text-transform:none;white-space:normal"/>
<path d="m157.97 41.418c-5.3283 0-9.7129 4.3826-9.7129 9.7109v22.818c0 5.3283 4.3846 9.7129 9.7129 9.7129h15.531c21.422 0 33.13 9.1559 40.229 13.467-2.655-6-3.1268-10.974-2.0254-14.143 3.7073-1.3717 6.4082-4.8772 6.4082-9.0371v-22.818c0-5.3283-4.3826-9.7109-9.7109-9.7109zm0 6h50.432c2.1081 0 3.7109 1.6029 3.7109 3.7109v22.818c0 2.1081-1.6029 3.7129-3.7109 3.7129-1.6894 6.11e-4 -3.0452 1.3953-2.998 3.084 0.0521 1.8542 0.40348 3.593 0.86133 5.2773-7.0242-3.9924-17.158-8.3613-32.764-8.3613h-15.531c-2.1081 0-3.7129-1.6048-3.7129-3.7129v-22.818c0-2.1081 1.6048-3.7109 3.7129-3.7109zm26.248 4.7578c-6.3042 0-10.252 4.4385-10.252 11.498s3.9477 11.482 10.252 11.482c1.4643 0 2.7897-0.23095 3.9766-0.69336l2.0644 2.8359h3.1133l-2.9434-4.0527c2.5741-1.9421 4.0391-5.2718 4.0391-9.5723 0-7.0595-3.9458-11.498-10.25-11.498zm0 2.5586c4.5471 0 7.3984 3.4522 7.3984 8.9395 0 3.2677-1.0186 5.8273-2.8066 7.3379l-1.8945-2.5898h-3.1152l2.7754 3.8223c-0.72445 0.23121-1.5097 0.35352-2.3574 0.35352-4.547 0-7.4004-3.4519-7.4004-8.9238 0-5.4873 2.8533-8.9395 7.4004-8.9395z" color="#000000" color-rendering="auto" dominant-baseline="auto" image-rendering="auto" opacity="1" solid-color="#000000" stroke-width="10.4" style="font-feature-settings:normal;font-variant-alternates:normal;font-variant-caps:normal;font-variant-ligatures:normal;font-variant-numeric:normal;font-variant-position:normal;isolation:auto;mix-blend-mode:normal;shape-padding:0;text-decoration-color:#000000;text-decoration-line:none;text-decoration-style:solid;text-indent:0;text-orientation:mixed;text-transform:none;white-space:normal"/>
<path d="m157.97 41.418c-5.3283 0-9.7129 4.3826-9.7129 9.7109v22.818c0 5.3283 4.3846 9.7129 9.7129 9.7129h15.531c21.422 0 33.13 9.1559 40.229 13.467-2.655-6-3.1268-10.974-2.0254-14.143 3.7073-1.3717 6.4082-4.8772 6.4082-9.0371v-22.818c0-5.3283-4.3826-9.7109-9.7109-9.7109zm0 6h50.432c2.1081 0 3.7109 1.6029 3.7109 3.7109v22.818c0 2.1081-1.6029 3.7129-3.7109 3.7129-1.6894 6.11e-4 -3.0452 1.3953-2.998 3.084 0.0521 1.8542 0.40348 3.593 0.86133 5.2773-7.0242-3.9924-17.158-8.3613-32.764-8.3613h-15.531c-2.1081 0-3.7129-1.6048-3.7129-3.7129v-22.818c0-2.1081 1.6048-3.7109 3.7129-3.7109zm26.248 4.7578c-6.3042 0-10.252 4.4385-10.252 11.498s3.9477 11.482 10.252 11.482c1.4643 0 2.7897-0.23095 3.9766-0.69336l2.0644 2.8359h3.1133l-2.9434-4.0527c2.5741-1.9421 4.0391-5.2718 4.0391-9.5723 0-7.0595-3.9458-11.498-10.25-11.498zm0 2.5586c4.5471 0 7.3984 3.4522 7.3984 8.9395 0 3.2677-1.0186 5.8273-2.8066 7.3379l-1.8945-2.5898h-3.1152l2.7754 3.8223c-0.72445 0.23121-1.5097 0.35352-2.3574 0.35352-4.547 0-7.4004-3.4519-7.4004-8.9238 0-5.4873 2.8533-8.9395 7.4004-8.9395z" color="#000000" color-rendering="auto" dominant-baseline="auto" image-rendering="auto" opacity="1" solid-color="#000000" stroke-width="11.4" style="font-feature-settings:normal;font-variant-alternates:normal;font-variant-caps:normal;font-variant-ligatures:normal;font-variant-numeric:normal;font-variant-position:normal;isolation:auto;mix-blend-mode:normal;shape-padding:0;text-decoration-color:#000000;text-decoration-line:none;text-decoration-style:solid;text-indent:0;text-orientation:mixed;text-transform:none;white-space:normal"/>
<path d="m157.97 41.418c-5.3283 0-9.7129 4.3826-9.7129 9.7109v22.818c0 5.3283 4.3846 9.7129 9.7129 9.7129h15.531c21.422 0 33.13 9.1559 40.229 13.467-2.655-6-3.1268-10.974-2.0254-14.143 3.7073-1.3717 6.4082-4.8772 6.4082-9.0371v-22.818c0-5.3283-4.3826-9.7109-9.7109-9.7109zm0 6h50.432c2.1081 0 3.7109 1.6029 3.7109 3.7109v22.818c0 2.1081-1.6029 3.7129-3.7109 3.7129-1.6894 6.11e-4 -3.0452 1.3953-2.998 3.084 0.0521 1.8542 0.40348 3.593 0.86133 5.2773-7.0242-3.9924-17.158-8.3613-32.764-8.3613h-15.531c-2.1081 0-3.7129-1.6048-3.7129-3.7129v-22.818c0-2.1081 1.6048-3.7109 3.7129-3.7109zm26.248 4.7578c-6.3042 0-10.252 4.4385-10.252 11.498s3.9477 11.482 10.252 11.482c1.4643 0 2.7897-0.23095 3.9766-0.69336l2.0644 2.8359h3.1133l-2.9434-4.0527c2.5741-1.9421 4.0391-5.2718 4.0391-9.5723 0-7.0595-3.9458-11.498-10.25-11.498zm0 2.5586c4.5471 0 7.3984 3.4522 7.3984 8.9395 0 3.2677-1.0186 5.8273-2.8066 7.3379l-1.8945-2.5898h-3.1152l2.7754 3.8223c-0.72445 0.23121-1.5097 0.35352-2.3574 0.35352-4.547 0-7.4004-3.4519-7.4004-8.9238 0-5.4873 2.8533-8.9395 7.4004-8.9395z" color="#000000" color-rendering="auto" dominant-baseline="auto" image-rendering="auto" opacity="1" solid-color="#000000" stroke-width="13.4" style="font-feature-settings:normal;font-variant-alternates:normal;font-variant-caps:normal;font-variant-ligatures:normal;font-variant-numeric:normal;font-variant-position:normal;isolation:auto;mix-blend-mode:normal;shape-padding:0;text-decoration-color:#000000;text-decoration-line:none;text-decoration-style:solid;text-indent:0;text-orientation:mixed;text-transform:none;white-space:normal"/>
</g>
</svg>
