<svg width="128" height="128" version="1.1" viewBox="0 0 128 128" xmlns="http://www.w3.org/2000/svg" xmlns:xlink="http://www.w3.org/1999/xlink">
<defs>
<linearGradient id="linearGradient825" x1="-741.83" x2="-741.83" y1="959.05" y2="93.836" gradientTransform="matrix(.13668 0 0 .13668 162.31 -5.9893)" gradientUnits="userSpaceOnUse">
<stop stop-color="#012fcc" offset="0"/>
<stop stop-color="#01c2fe" offset="1"/>
</linearGradient>
<linearGradient id="linearGradient835" x1="-738.76" x2="-738.76" y1="931.43" y2="152.13" gradientTransform="matrix(.13668 0 0 .13668 160.34 -5.9893)" gradientUnits="userSpaceOnUse">
<stop stop-color="#1174f7" offset="0"/>
<stop stop-color="#02bffd" offset="1"/>
</linearGradient>
</defs>
<circle cx="63.592" cy="64.286" r="61.38" fill="url(#linearGradient825)"/>
<circle cx="61.619" cy="64.286" r="55.09" fill="url(#linearGradient835)"/>
<path d="m32.668 85.22c-9.7479-2.5542-13.78-9.9397-11.559-21.173 2.7036-13.673 12.255-21.253 26.701-21.19 21.802 0.09554 28.317 0.52727 28.187 1.8677-0.11516 1.1863-0.24828 1.2877-1.9371 1.4757-2.4566 0.2735-2.4772-0.21402 0.60082 14.241 2.7502 12.915 3.0333 13.825 3.9804 12.796 1.2252-1.3321 16.02-26.287 15.798-26.646-0.13267-0.21466-1.139-0.39029-2.2363-0.39029-2.0741 0-2.2134-0.15357-1.7406-1.918 0.25952-0.96838 12.263-1.4882 12.263-0.53102 0 1.5008-0.848 2.449-2.1903 2.449-1.8274 0-1.4678-0.51398-12.569 17.969-13.922 23.178-12.119 20.848-16.03 20.71-3.6704-0.12962-2.9081 1.9554-7.7938-21.316-2.9589-14.094-6.1759-17.969-14.918-17.969-9.9288 0-16.379 9.3334-17.051 24.672-0.47256 10.784 5.5599 15.378 15.275 11.631 2.6081-1.0059 2.6815-1.1359 3.8216-6.7636 1.2725-6.2813 1.2619-6.3216-1.661-6.3216-2.2656 0-2.2656 0-1.9891-1.3123 0.4139-1.9643 0.33432-1.9459 7.8934-1.8269 8.2459 0.12983 7.5434-1.0309 5.6035 9.2589-1.4426 7.6519-1.084 7.2842-9.2676 9.5052-4.6568 1.2638-15.633 1.7112-19.18 0.78181z" fill="#f9f9f9" stroke-width=".40379"/>
</svg>
