<svg width="128" height="128" version="1.1" viewBox="0 0 33.867 33.867" xmlns="http://www.w3.org/2000/svg" xmlns:osb="http://www.openswatchbook.org/uri/2009/osb" xmlns:xlink="http://www.w3.org/1999/xlink">
<defs>
<clipPath>
<rect width="384" height="384"/>
</clipPath>
<clipPath>
<rect width="384" height="384"/>
</clipPath>
<linearGradient id="linearGradient948" x1="122.34" x2="84.091" y1="117.04" y2="71.02" gradientTransform="matrix(.26458 0 0 .26458 -73.214 269.23)" gradientUnits="userSpaceOnUse" xlink:href="#linearGradient944"/>
<linearGradient id="linearGradient944">
<stop stop-color="#d5dada" offset="0"/>
<stop stop-color="#f1f1f1" offset="1"/>
</linearGradient>
<linearGradient id="linearGradient993" x1="-33.316" x2="-19.547" y1="267.26" y2="289.12" gradientUnits="userSpaceOnUse">
<stop stop-color="#8375ff" offset="0"/>
<stop stop-color="#7714ff" offset="1"/>
</linearGradient>
<clipPath>
<rect width="384" height="384"/>
</clipPath>
<clipPath>
<rect width="384" height="384"/>
</clipPath>
<linearGradient id="linearGradient1194" x1="122.34" x2="84.091" y1="117.04" y2="71.02" gradientTransform="matrix(.26458 0 0 .26458 -114.23 271.81)" gradientUnits="userSpaceOnUse" xlink:href="#linearGradient944"/>
</defs>
<g transform="translate(0 -263.13)">
<g transform="matrix(.97507 -.15 .15 .97507 22.55 10.715)" fill="none" opacity=".389" stroke="#000" stroke-linecap="round" stroke-linejoin="round" stroke-opacity=".039216">
<rect transform="rotate(-.018651)" x="-61.945" y="253.77" width="25.83" height="29.567" rx="1.4423" ry="1.4423" opacity="1" stroke-width=".15" style="paint-order:fill markers stroke"/>
<rect transform="rotate(-.018651)" x="-61.945" y="253.77" width="25.83" height="29.567" rx="1.4423" ry="1.4423" opacity="1" stroke-width=".3" style="paint-order:fill markers stroke"/>
<rect transform="rotate(-.018651)" x="-61.945" y="253.77" width="25.83" height="29.567" rx="1.4423" ry="1.4423" opacity="1" stroke-width=".45" style="paint-order:fill markers stroke"/>
<rect transform="rotate(-.018651)" x="-61.945" y="253.77" width="25.83" height="29.567" rx="1.4423" ry="1.4423" opacity="1" stroke-width=".6" style="paint-order:fill markers stroke"/>
<rect transform="rotate(-.018651)" x="-61.945" y="253.77" width="25.83" height="29.567" rx="1.4423" ry="1.4423" opacity="1" stroke-width=".85" style="paint-order:fill markers stroke"/>
<rect transform="rotate(-.018651)" x="-61.945" y="253.77" width="25.83" height="29.567" rx="1.4423" ry="1.4423" opacity="1" style="paint-order:fill markers stroke"/>
</g>
<rect transform="rotate(-8.764)" x="-40.457" y="264.37" width="25.483" height="29.169" rx="1.4229" ry="1.4229" fill="url(#linearGradient993)" style="paint-order:fill markers stroke"/>
<path d="m15.089 274.06 0.20542 1.267 1.3279-0.2153-0.20542-1.267zm-6.2005 1.6329-0.16876 3.1132-2.0212 0.3277 0.12903 0.79584 1.8593-0.30145-0.13431 2.8132-1.6603 0.26917 0.12903 0.79584 1.4829-0.24043-0.13239 3.108 0.81203-0.13168 0.13163-3.1079 2.6775-0.43412-0.14628 3.1103 0.81126-0.13152 0.1617-3.1128 2.0875-0.33847-0.12903-0.79582-1.9179 0.31095 0.1343-2.8132 1.7189-0.2787-0.12903-0.79583-1.557 0.25244 0.16182-3.112-0.81126 0.13153-0.16183 3.112-2.6775 0.4341 0.16182-3.112zm10.338-1.0937-0.10179 1.8471-0.97398 0.15792 0.15654 0.96549 0.92231-0.14951 0.86271 5.321c0.19518 1.2038 0.8238 1.72 1.886 1.5477 0.45735-0.0742 0.89527-0.20616 1.3138-0.39504l-0.15891-0.98016c-0.32326 0.12291-0.57351 0.19904-0.75055 0.22775-0.30982 0.0502-0.54072 0.0106-0.69327-0.12185-0.14844-0.13742-0.2537-0.39814-0.31584-0.78139l-0.81607-5.0334 1.4752-0.23919-0.15654-0.96549-1.4752 0.23919-0.28919-1.7837zm-3.6576 2.4236 1.2929 7.9746 1.3279-0.21531-1.2929-7.9746zm-6.0489 2.4702 2.6551-0.43048-0.13431 2.8131-2.6705 0.43298z" fill="#fff"/>
</g>
</svg>
