<svg width="128" height="128" version="1.1" viewBox="0 0 33.867 33.867" xmlns="http://www.w3.org/2000/svg" xmlns:xlink="http://www.w3.org/1999/xlink">
<defs>
<linearGradient id="linearGradient14855" x1="15.132" x2="15.132" y1="27.778" y2="4.734" gradientUnits="userSpaceOnUse">
<stop stop-color="#f2b100" offset="0"/>
<stop stop-color="#f0d34a" offset="1"/>
</linearGradient>
</defs>
<g transform="matrix(.97573 0 0 .97573 -65.748 -37.203)" fill="none" opacity=".29677" stroke="#000" stroke-linecap="round" stroke-linejoin="round" stroke-opacity=".02">
<path d="m76.449 40.71h16.591c3.6619 0 6.6099 2.948 6.6099 6.6099v16.591c0 3.6619-2.948 6.6099-6.6099 6.6099h-16.591c-3.6619 0-6.6099-2.948-6.6099-6.6099v-16.591c0-3.6619 2.948-6.6099 6.6099-6.6099z" stroke-width=".1"/>
<path d="m76.449 40.71h16.591c3.6619 0 6.6099 2.948 6.6099 6.6099v16.591c0 3.6619-2.948 6.6099-6.6099 6.6099h-16.591c-3.6619 0-6.6099-2.948-6.6099-6.6099v-16.591c0-3.6619 2.948-6.6099 6.6099-6.6099z" stroke-width=".2"/>
<path d="m76.449 40.71h16.591c3.6619 0 6.6099 2.948 6.6099 6.6099v16.591c0 3.6619-2.948 6.6099-6.6099 6.6099h-16.591c-3.6619 0-6.6099-2.948-6.6099-6.6099v-16.591c0-3.6619 2.948-6.6099 6.6099-6.6099z" stroke-width=".3"/>
<path d="m76.449 40.71h16.591c3.6619 0 6.6099 2.948 6.6099 6.6099v16.591c0 3.6619-2.948 6.6099-6.6099 6.6099h-16.591c-3.6619 0-6.6099-2.948-6.6099-6.6099v-16.591c0-3.6619 2.948-6.6099 6.6099-6.6099z" stroke-width=".4"/>
<path d="m76.449 40.71h16.591c3.6619 0 6.6099 2.948 6.6099 6.6099v16.591c0 3.6619-2.948 6.6099-6.6099 6.6099h-16.591c-3.6619 0-6.6099-2.948-6.6099-6.6099v-16.591c0-3.6619 2.948-6.6099 6.6099-6.6099z" stroke-width=".5"/>
<path d="m76.449 40.71h16.591c3.6619 0 6.6099 2.948 6.6099 6.6099v16.591c0 3.6619-2.948 6.6099-6.6099 6.6099h-16.591c-3.6619 0-6.6099-2.948-6.6099-6.6099v-16.591c0-3.6619 2.948-6.6099 6.6099-6.6099z" stroke-width=".6"/>
<path d="m76.449 40.71h16.591c3.6619 0 6.6099 2.948 6.6099 6.6099v16.591c0 3.6619-2.948 6.6099-6.6099 6.6099h-16.591c-3.6619 0-6.6099-2.948-6.6099-6.6099v-16.591c0-3.6619 2.948-6.6099 6.6099-6.6099z" stroke-width=".7"/>
<path d="m76.449 40.71h16.591c3.6619 0 6.6099 2.948 6.6099 6.6099v16.591c0 3.6619-2.948 6.6099-6.6099 6.6099h-16.591c-3.6619 0-6.6099-2.948-6.6099-6.6099v-16.591c0-3.6619 2.948-6.6099 6.6099-6.6099z" stroke-width=".8"/>
<path d="m76.449 40.71h16.591c3.6619 0 6.6099 2.948 6.6099 6.6099v16.591c0 3.6619-2.948 6.6099-6.6099 6.6099h-16.591c-3.6619 0-6.6099-2.948-6.6099-6.6099v-16.591c0-3.6619 2.948-6.6099 6.6099-6.6099z"/>
<path d="m76.449 40.71h16.591c3.6619 0 6.6099 2.948 6.6099 6.6099v16.591c0 3.6619-2.948 6.6099-6.6099 6.6099h-16.591c-3.6619 0-6.6099-2.948-6.6099-6.6099v-16.591c0-3.6619 2.948-6.6099 6.6099-6.6099z" stroke-width="1.2"/>
<path d="m76.449 40.71h16.591c3.6619 0 6.6099 2.948 6.6099 6.6099v16.591c0 3.6619-2.948 6.6099-6.6099 6.6099h-16.591c-3.6619 0-6.6099-2.948-6.6099-6.6099v-16.591c0-3.6619 2.948-6.6099 6.6099-6.6099z" stroke-width="1.4"/>
<path d="m76.449 40.71h16.591c3.6619 0 6.6099 2.948 6.6099 6.6099v16.591c0 3.6619-2.948 6.6099-6.6099 6.6099h-16.591c-3.6619 0-6.6099-2.948-6.6099-6.6099v-16.591c0-3.6619 2.948-6.6099 6.6099-6.6099z" stroke-width="1.6"/>
<path d="m76.449 40.71h16.591c3.6619 0 6.6099 2.948 6.6099 6.6099v16.591c0 3.6619-2.948 6.6099-6.6099 6.6099h-16.591c-3.6619 0-6.6099-2.948-6.6099-6.6099v-16.591c0-3.6619 2.948-6.6099 6.6099-6.6099z" stroke-width="1.8"/>
<path d="m76.449 40.71h16.591c3.6619 0 6.6099 2.948 6.6099 6.6099v16.591c0 3.6619-2.948 6.6099-6.6099 6.6099h-16.591c-3.6619 0-6.6099-2.948-6.6099-6.6099v-16.591c0-3.6619 2.948-6.6099 6.6099-6.6099z" stroke-width="2"/>
<path d="m76.449 40.71h16.591c3.6619 0 6.6099 2.948 6.6099 6.6099v16.591c0 3.6619-2.948 6.6099-6.6099 6.6099h-16.591c-3.6619 0-6.6099-2.948-6.6099-6.6099v-16.591c0-3.6619 2.948-6.6099 6.6099-6.6099z" stroke-width="2.2"/>
<path d="m76.449 40.71h16.591c3.6619 0 6.6099 2.948 6.6099 6.6099v16.591c0 3.6619-2.948 6.6099-6.6099 6.6099h-16.591c-3.6619 0-6.6099-2.948-6.6099-6.6099v-16.591c0-3.6619 2.948-6.6099 6.6099-6.6099z" stroke-width="2.6"/>
<path d="m76.449 40.71h16.591c3.6619 0 6.6099 2.948 6.6099 6.6099v16.591c0 3.6619-2.948 6.6099-6.6099 6.6099h-16.591c-3.6619 0-6.6099-2.948-6.6099-6.6099v-16.591c0-3.6619 2.948-6.6099 6.6099-6.6099z" stroke-width="3"/>
<path d="m76.449 40.71h16.591c3.6619 0 6.6099 2.948 6.6099 6.6099v16.591c0 3.6619-2.948 6.6099-6.6099 6.6099h-16.591c-3.6619 0-6.6099-2.948-6.6099-6.6099v-16.591c0-3.6619 2.948-6.6099 6.6099-6.6099z" stroke-width="3.4"/>
<path d="m76.449 40.71h16.591c3.6619 0 6.6099 2.948 6.6099 6.6099v16.591c0 3.6619-2.948 6.6099-6.6099 6.6099h-16.591c-3.6619 0-6.6099-2.948-6.6099-6.6099v-16.591c0-3.6619 2.948-6.6099 6.6099-6.6099z" stroke-width="3.8"/>
<path d="m76.449 40.71h16.591c3.6619 0 6.6099 2.948 6.6099 6.6099v16.591c0 3.6619-2.948 6.6099-6.6099 6.6099h-16.591c-3.6619 0-6.6099-2.948-6.6099-6.6099v-16.591c0-3.6619 2.948-6.6099 6.6099-6.6099z" stroke-width="4.2"/>
<path d="m76.449 40.71h16.591c3.6619 0 6.6099 2.948 6.6099 6.6099v16.591c0 3.6619-2.948 6.6099-6.6099 6.6099h-16.591c-3.6619 0-6.6099-2.948-6.6099-6.6099v-16.591c0-3.6619 2.948-6.6099 6.6099-6.6099z" stroke-width="4.6"/>
<path d="m76.449 40.71h16.591c3.6619 0 6.6099 2.948 6.6099 6.6099v16.591c0 3.6619-2.948 6.6099-6.6099 6.6099h-16.591c-3.6619 0-6.6099-2.948-6.6099-6.6099v-16.591c0-3.6619 2.948-6.6099 6.6099-6.6099z" stroke-width="5"/>
</g>
<rect x="2.4065" y="2.5186" width="29.087" height="29.087" rx="6.4495" ry="6.4495" fill="url(#linearGradient14855)" stroke-linecap="round" stroke-linejoin="round" stroke-width="2.6877"/>
<path d="m63.366-13.641-7.5223-7.6006" color="#000000" fill="none" stroke-width=".6"/>
<path d="m41.242-29.284 8.8556 8.8325c1.7498 1.5783 2.9157 1.6977 4.709 0.10074l11.969-11.168" color="#000000" fill="none" stroke-width=".7"/>
<path d="m20.53 9.6161c-0.63364 0-0.84607 0.39494-1.0349 0.94254-0.2955 0.85216-0.70188 1.6649-1.1141 2.4712l-2.2389 2.0276c-0.3615 0.37483-1.062 0.69158-1.5524 0.88974-0.53108 0.21473-0.78413 0.77972-0.78413 1.4415v6.9146c0 0.84727 0.71325 1.5339 1.5947 1.5339h7.4875c0.65395 0 1.3075-0.09089 1.93-0.28514 0.2762-0.08588 0.52763-0.18638 0.66268-0.2957 0.40516-0.25867 0.67324-0.70024 0.67324-1.2039 0-0.24403-0.06358-0.4748-0.17424-0.67588 0.43156-0.30065 0.71548-0.78706 0.71548-1.3386 0-0.35043-0.11495-0.67508-0.3089-0.94254 0.41329-0.30162 0.68116-0.78058 0.68116-1.3174 0-0.36019-0.12165-0.69396-0.32474-0.9663 0.35642-0.3026 0.58084-0.74432 0.58084-1.2382 0-0.9117-0.77438-2.1174-1.7187-2.2072-0.59505-0.0576-1.988-0.198-1.988-0.198l-3.052-0.18216 1.1247-2.3128c0.10762-0.53101 0.1572-1.0733 0.12673-1.6131-0.0457-0.84922-0.26727-1.4442-1.2858-1.4442zm-11.625 5.4071c-0.65328 0-1.1828 0.60516-1.1828 1.3518v8.1106c0 0.7466 0.52951 1.3518 1.1828 1.3518h2.3656c0.65236 0 1.1828-0.60516 1.1828-1.3518v-8.1106c0-0.7466-0.53044-1.3518-1.1828-1.3518z" opacity=".2" stroke-width=".67588"/>
<path d="m20.53 8.9403c-0.63364 0-0.84607 0.39494-1.0349 0.94254-0.2955 0.85216-0.70188 1.6649-1.1141 2.4712l-2.2389 2.0276c-0.3615 0.37483-1.062 0.69158-1.5524 0.88974-0.53108 0.21473-0.78413 0.77972-0.78413 1.4415v6.9146c0 0.84727 0.71325 1.5339 1.5947 1.5339h7.4875c0.65395 0 1.3075-0.09089 1.93-0.28514 0.2762-0.08588 0.52763-0.18638 0.66268-0.2957 0.40516-0.25867 0.67324-0.70024 0.67324-1.2039 0-0.24403-0.06358-0.4748-0.17424-0.67588 0.43156-0.30065 0.71548-0.78706 0.71548-1.3386 0-0.35043-0.11495-0.67508-0.3089-0.94254 0.41329-0.30162 0.68116-0.78058 0.68116-1.3174 0-0.36019-0.12165-0.69396-0.32474-0.9663 0.35642-0.3026 0.58084-0.74432 0.58084-1.2382 0-0.9117-0.77438-2.1174-1.7187-2.2072-0.59505-0.0576-1.988-0.198-1.988-0.198l-3.052-0.18216 1.1247-2.3128c0.10762-0.53101 0.1572-1.0733 0.12673-1.6131-0.0457-0.84923-0.26727-1.4442-1.2858-1.4442zm-11.625 5.4071c-0.65328 0-1.1828 0.60516-1.1828 1.3518v8.1106c0 0.7466 0.52951 1.3518 1.1828 1.3518h2.3656c0.65236 0 1.1828-0.60516 1.1828-1.3518v-8.1106c0-0.7466-0.53044-1.3518-1.1828-1.3518z" fill="#fff" stroke-width=".67588"/>
</svg>
