<svg width="128" height="128" version="1.1" viewBox="0 0 128 128" xmlns="http://www.w3.org/2000/svg" xmlns:xlink="http://www.w3.org/1999/xlink">
<defs>
<linearGradient id="linearGradient825" x1="-741.83" x2="-741.83" y1="959.05" y2="93.836" gradientTransform="matrix(.13668 0 0 .13668 162.31 -5.9893)" gradientUnits="userSpaceOnUse">
<stop stop-color="#ec7c3a" stop-opacity=".99608" offset="0"/>
<stop stop-color="#f5b667" stop-opacity=".80784" offset="1"/>
</linearGradient>
<linearGradient id="linearGradient835" x1="-738.76" x2="-738.76" y1="931.43" y2="152.13" gradientTransform="matrix(.13668 0 0 .13668 162.31 -5.9893)" gradientUnits="userSpaceOnUse">
<stop stop-color="#f79b68" offset="0"/>
<stop stop-color="#f7b868" offset="1"/>
</linearGradient>
</defs>
<circle cx="63.592" cy="64.286" r="61.38" fill="url(#linearGradient825)"/>
<circle cx="63.592" cy="64.286" r="55.09" fill="url(#linearGradient835)" opacity=".8"/>
<path d="m59.995 61.98c0.03985 0.7174 0 1.5145-0.03985 2.3514-0.03986 0.8369-0.07971 1.6341-0.39856 2.4312-0.31884 0.837-0.87682 1.4747-1.5544 2.0326-0.39856 0.3188-0.79711 0.5979-1.2355 0.7971-0.11957 0.04-0.15942 0.1195-0.15942 0.2392-0.03986 0.7174-0.03986 1.395-0.07971 2.1124 0 0.1195 0 0.2789-0.11957 0.3586-0.03986 0.04-0.03986 0.1196-0.03986 0.1993 0 0.558-0.03985 1.1159-0.03985 1.6739 0 0.3587 0.03985 0.7573-0.11957 1.0761-0.11957 0.279-0.23913 0.5978-0.31884 0.8769-0.19928 0.5978-0.63769 0.9963-1.2355 1.2354-0.59783 0.2393-1.1957 0.3986-1.7935 0.5182-0.11957 0-0.19928 0.04-0.27899 0.1196-0.15942 0.08-0.31884 0.1593-0.47826 0.1195-0.39856-0.08-0.83696 0-1.2355 0-0.91668 0.04-1.8334 0.04-2.7899 0-0.87682-0.04-1.7536-0.1593-2.5906-0.3587-0.79711-0.1593-1.5942-0.3986-2.2718-0.8369-0.31884-0.1993-0.59783-0.4783-0.7174-0.8371-0.11957-0.3187-0.19928-0.6376-0.3587-0.9166-0.11957-0.1993-0.07971-0.4384-0.07971-0.6775 0-0.8769 0-1.7536-0.03985-2.5907-0.03986-0.7174 0-1.4347 0.03985-2.1521 0.03985-0.9964 0.11957-1.9928 0.19928-2.9892 0.11957-1.2356 0.23913-2.471 0.39856-3.7065 0.15942-1.116 0.3587-2.2719 0.51812-3.3878 0.11957-0.6376 0.23913-1.2355 0.31884-1.8731 0.03985-0.2392 0-0.2392-0.19928-0.2392h-0.03985c-0.19928 0-0.39856 0.04-0.51812-0.1594-0.07971-0.1993 0.03986-0.3986 0.11957-0.558 0.03985-0.04 0.07971-0.08 0.07971-0.1594 0.11957-0.279 0.31884-0.5182 0.59783-0.7174 0.15942-0.08 0.23913-0.2392 0.27899-0.4385 0-0.2391 0.19928-0.4384 0.43841-0.6377 0.3587-0.3188 0.83696-0.4783 1.3152-0.5978 1.3551-0.3188 2.75-0.3586 4.145-0.2789 0.91668 0.04 1.8334 0.08 2.75 0.239 0.23913 0.04 0.51812 0.08 0.75725 0.1993 0.3587 0.1196 0.67754 0.1594 1.0362 0.1594 0.59783 0 1.2355 0 1.8334 0.04 0.59783 0.04 1.116 0.3587 1.6341 0.6377 0.27899 0.1594 0.55798 0.3587 0.87682 0.5181 0.39856 0.1993 0.59783 0.4783 0.75725 0.8769 0.31884 0.7971 0.55798 1.5942 0.59783 2.4711 0.03986 0.8768 0.03986 1.7934 0.03986 2.8296zm-2.5508 1.913c0-0.1993-0.03985-0.3587-0.03985-0.5181 0-1.0761-0.03985-2.1921-0.11957-3.2681-0.03986-0.3588-0.11957-0.6775-0.23913-0.9964-0.23913-0.6377-0.79711-0.8769-1.4348-0.9167-0.27899-0.04-0.27899 0-0.23913 0.279 0.11957 0.837 0.23913 1.6341 0.3587 2.471 0.07971 0.7174 0.15942 1.4348 0.23913 2.1522 0.07971 0.8769 0.15942 1.7537 0.23913 2.6304 0.03986 0.3986 0.07971 0.7573 0.07971 1.1559 0 0.04 0 0.1195 0.03985 0.1594 0.03986 0.04 0.07971 0 0.11957-0.04 0.43841-0.3985 0.7174-0.837 0.83696-1.395 0.11957-0.5579 0.07971-1.1558 0.15942-1.7137z" fill="#fff" stroke-width=".39855"/>
<path d="m83.842 55.088c0.08979 1.6164 0 3.4124-0.08979 5.298-0.08981 1.8856-0.1796 3.6818-0.89799 5.4778-0.71839 1.8859-1.9756 3.3227-3.5022 4.5797-0.89799 0.7183-1.796 1.3471-2.7838 1.796-0.2694 0.09013-0.35919 0.26925-0.35919 0.53895-0.08981 1.6164-0.08981 3.1431-0.1796 4.7595 0 0.26925 0 0.6284-0.2694 0.80797-0.08981 0.09013-0.08981 0.26947-0.08981 0.44905 0 1.2572-0.08979 2.5143-0.08979 3.7715 0 0.80819 0.08979 1.7063-0.2694 2.4246-0.2694 0.62862-0.5388 1.3469-0.71839 1.9758-0.449 1.3469-1.4368 2.2448-2.7838 2.7835-1.347 0.53917-2.694 0.89809-4.041 1.1676-0.2694 0-0.449 0.09012-0.6286 0.26947-0.35919 0.18025-0.71839 0.35892-1.0776 0.26925-0.89799-0.18025-1.8858 0-2.7838 0-2.0654 0.09013-4.1308 0.09013-6.2859 0-1.9756-0.09012-3.9512-0.35892-5.8369-0.80819-1.796-0.35892-3.592-0.89809-5.1185-1.8856-0.7184-0.44905-1.347-1.0777-1.6164-1.8861-0.2694-0.71807-0.449-1.4366-0.80819-2.0652-0.2694-0.44905-0.1796-0.98777-0.1796-1.5265 0-1.9758 0-3.9511-0.08979-5.8372-0.08981-1.6164 0-3.2326 0.08979-4.8489 0.08979-2.245 0.2694-4.49 0.449-6.735 0.2694-2.784 0.5388-5.5675 0.89799-8.3512 0.3592-2.5145 0.80819-5.1189 1.1674-7.6331 0.2694-1.4366 0.53879-2.7837 0.71839-4.2203 0.08979-0.53895 0-0.53895-0.449-0.53895h-0.08979c-0.449 0-0.89799 0.09012-1.1674-0.35915-0.1796-0.44905 0.08981-0.89809 0.2694-1.2572 0.08979-0.09013 0.1796-0.18025 0.1796-0.35915 0.2694-0.62862 0.71839-1.1676 1.347-1.6164 0.3592-0.18025 0.5388-0.53895 0.62859-0.98799 0-0.53872 0.44899-0.98777 0.98779-1.4368 0.80819-0.71829 1.8858-1.0777 2.9634-1.3469 3.0532-0.7183 6.1961-0.80797 9.3391-0.6284 2.0654 0.09012 4.1308 0.18025 6.1961 0.5385 0.5388 0.09013 1.1674 0.18025 1.7062 0.44905 0.80819 0.26947 1.5266 0.35915 2.3348 0.35915 1.347 0 2.7838 0 4.1308 0.09013 1.347 0.09013 2.5144 0.80819 3.6818 1.4368 0.6286 0.35915 1.2572 0.80819 1.9756 1.1673 0.89799 0.44905 1.347 1.0777 1.7062 1.9758 0.71839 1.796 1.2572 3.5919 1.347 5.5677 0.08981 1.9755 0.08981 4.0407 0.08981 6.3754zm-5.7471 4.3102c0-0.44905-0.08979-0.80819-0.08979-1.1673 0-2.4246-0.08979-4.9391-0.2694-7.3634-0.08981-0.80842-0.2694-1.5265-0.5388-2.245-0.5388-1.4368-1.796-1.9758-3.2328-2.0654-0.62859-0.09013-0.62859 0-0.5388 0.62862 0.2694 1.8859 0.5388 3.6818 0.80819 5.5675 0.1796 1.6164 0.3592 3.2328 0.5388 4.8492 0.1796 1.9758 0.3592 3.9513 0.5388 5.9266 0.08981 0.89809 0.1796 1.7063 0.1796 2.6044 0 0.09012 0 0.26925 0.08979 0.35916 0.08981 0.09013 0.1796 0 0.2694-0.09013 0.98779-0.89787 1.6164-1.8859 1.8858-3.1431 0.2694-1.257 0.1796-2.6042 0.3592-3.8612z" fill="#fff" stroke-width=".89799"/>
</svg>
