<svg width="128" height="128" version="1.1" viewBox="0 0 128 128" xmlns="http://www.w3.org/2000/svg" xmlns:xlink="http://www.w3.org/1999/xlink">
<defs>
<linearGradient id="linearGradient825" x1="-741.83" x2="-741.83" y1="959.05" y2="93.836" gradientTransform="matrix(.13668 0 0 .13668 162.31 -5.9893)" gradientUnits="userSpaceOnUse">
<stop stop-color="#c47e28" offset="0"/>
<stop stop-color="#dfb815" offset="1"/>
</linearGradient>
<linearGradient id="linearGradient835" x1="-738.76" x2="-738.76" y1="931.43" y2="152.13" gradientTransform="matrix(.13668 0 0 .13668 162.31 -5.9893)" gradientUnits="userSpaceOnUse">
<stop stop-color="#df8724" offset="0"/>
<stop stop-color="#dfb815" offset="1"/>
</linearGradient>
</defs>
<circle cx="63.592" cy="64.286" r="61.38" fill="url(#linearGradient825)"/>
<circle cx="63.592" cy="64.286" r="55.09" fill="url(#linearGradient835)"/>
<g transform="matrix(.7691 0 0 .7691 13.985 12.757)">
<rect x="18.72" y="94.102" width="34.88" height="16.678" fill-opacity="0" opacity=".25" stroke="#000" stroke-linejoin="round" stroke-width="4.4399"/>
<rect x="75.4" y="94.102" width="34.88" height="16.678" fill-opacity="0" opacity=".25" stroke="#000" stroke-linejoin="round" stroke-width="4.4399"/>
<ellipse cx="64.5" cy="37.813" rx="15.26" ry="14.593" fill-opacity="0" opacity=".25" stroke="#000" stroke-linejoin="round" stroke-width="4.4399"/>
<rect x="44.88" y="64.915" width="39.24" height="16.678" fill-opacity="0" opacity=".25" stroke="#000" stroke-linejoin="round" stroke-width="4.4399"/>
<path d="m51.42 81.593-8.72 12.509" fill="none" opacity=".25" stroke="#000" stroke-width="4.4399"/>
<path d="m77.58 81.593 8.72 12.509" fill="none" opacity=".25" stroke="#000" stroke-width="4.4399"/>
<path d="m99.38 94.102s-0.02574-23.8-6.54-35.441c-3.7089-6.6273-13.08-16.678-13.08-16.678" fill="none" opacity=".25" stroke="#000" stroke-width="4.4399"/>
<path d="m29.62 94.102s1.5503-24.435 6.54-35.441c2.8905-6.3758 13.08-16.678 13.08-16.678" fill="none" opacity=".25" stroke="#000" stroke-width="4.4399"/>
<path d="m64.5 52.407v12.509" fill="none" opacity=".25" stroke="#000" stroke-width="4.4399"/>
<rect x="22.5" y="91" width="32" height="16" fill-opacity="0" stroke="#fff" stroke-linejoin="round" stroke-width="4"/>
<rect x="74.5" y="91" width="32" height="16" fill-opacity="0" stroke="#fff" stroke-linejoin="round" stroke-width="4"/>
<ellipse cx="64.5" cy="37" rx="14" ry="14" fill-opacity="0" stroke="#fff" stroke-linejoin="round" stroke-width="4"/>
<rect x="46.5" y="63" width="36" height="16" fill-opacity="0" stroke="#fff" stroke-linejoin="round" stroke-width="4"/>
<path d="m52.5 79-8 12" fill="none" stroke="#fff" stroke-width="4"/>
<path d="m76.5 79 8 12" fill="none" stroke="#fff" stroke-width="4"/>
<path d="m96.5 91s-0.0236-22.832-6-34c-3.4026-6.3578-12-16-12-16" fill="none" stroke="#fff" stroke-width="4"/>
<path d="m32.5 91s1.4223-23.441 6-34c2.6518-6.1166 12-16 12-16" fill="none" stroke="#fff" stroke-width="4"/>
<path d="m64.5 51v12" fill="none" stroke="#fff" stroke-width="4"/>
</g>
</svg>
