<!DOCTYPE svg  PUBLIC '-//W3C//DTD SVG 1.1//EN'  'http://www.w3.org/Graphics/SVG/1.1/DTD/svg11.dtd'>
<svg clip-rule="evenodd" fill-rule="evenodd" stroke-linejoin="round" stroke-miterlimit="1.4142" version="1.1" viewBox="0 0 320 320" xml:space="preserve" xmlns="http://www.w3.org/2000/svg">
    <g transform="matrix(3.6455e-16 5.9535 6.0952 -3.7323e-16 -53.333 -63.256)">
        <ellipse cx="37.5" cy="35" rx="21.5" ry="21" fill="none"/>
        <clipPath id="_clip1">
            <ellipse cx="37.5" cy="35" rx="21.5" ry="21"/>
        </clipPath>
        <g clip-path="url(#_clip1)">
            <g transform="matrix(2.5317e-17 .40385 .45263 -2.7071e-17 -.29474 -3.3654)">
                <ellipse cx="95" cy="83.5" rx="52" ry="47.5" fill="url(#_Linear2)"/>
                <clipPath id="_clip3">
                    <ellipse cx="95" cy="83.5" rx="52" ry="47.5"/>
                </clipPath>
                <g clip-path="url(#_clip3)">
                    <g transform="matrix(.40625 0 0 .37109 55.636 45.334)">
                        <path d="m151.78 170.5h-93.888l-26.208 43.2h-49.824l130.46-201.6h46.08l49.536 201.6h-46.656l-9.504-43.2zm-7.776-35.424-16.992-77.76-47.52 77.76h64.512z" fill="#fff" fill-opacity=".88235" fill-rule="nonzero"/>
                    </g>
                </g>
                <path d="m95.168 36 0.336 2e-3 0.168 2e-3 0.167 2e-3 0.168 3e-3 0.167 3e-3 0.501 0.012 0.167 5e-3 0.167 6e-3 0.166 6e-3 0.167 6e-3 0.166 7e-3 0.498 0.024 0.166 9e-3 0.165 9e-3 0.166 0.01 0.165 0.011 0.165 0.01 0.165 0.012 0.165 0.011 0.165 0.013 0.165 0.012 0.164 0.013 0.164 0.014 0.165 0.014 0.164 0.014 0.164 0.015 0.163 0.016 0.164 0.016 0.163 0.016 0.164 0.017 0.163 0.017 0.163 0.018 0.162 0.018 0.326 0.038 0.486 0.06 0.162 0.021 0.162 0.022 0.161 0.021 0.162 0.023 0.161 0.022 0.161 0.024 0.161 0.023 0.161 0.025 0.16 0.024 0.161 0.025 0.16 0.026 0.16 0.025 0.16 0.027 0.159 0.027 0.16 0.027 0.159 0.028 0.16 0.028 0.159 0.028 0.159 0.029 0.158 0.03 0.159 0.03 0.158 0.03 0.316 0.062 0.316 0.064 0.157 0.032 0.158 0.033 0.157 0.034 0.157 0.033 0.156 0.035 0.157 0.034 0.156 0.036 0.156 0.035 0.156 0.036 0.156 0.037 0.156 0.036 0.155 0.038 0.155 0.037 0.156 0.038 0.154 0.039 0.31 0.078 0.308 0.08 0.308 0.082 0.459 0.126 0.306 0.086 0.153 0.044 0.304 0.088 0.304 0.09 0.453 0.138 0.151 0.047 0.151 0.048 0.15 0.047 0.151 0.049 0.15 0.048 0.15 0.049 0.149 0.049 0.15 0.05 0.149 0.05 0.298 0.102 0.148 0.051 0.148 0.052 0.149 0.052 0.147 0.053 0.296 0.106 0.294 0.108 0.147 0.055 0.146 0.055 0.147 0.055 0.292 0.112 0.145 0.057 0.146 0.057 0.145 0.057 0.29 0.116 0.144 0.059 0.145 0.058 0.144 0.06 0.143 0.059 0.144 0.06 0.143 0.061 0.144 0.061 0.142 0.061 0.286 0.124 0.142 0.062 0.142 0.063 0.141 0.063 0.142 0.063 0.141 0.064 0.141 0.065 0.141 0.064 0.14 0.065 0.141 0.066 0.14 0.066 0.139 0.066 0.14 0.066 0.278 0.134 0.139 0.068 0.138 0.068 0.139 0.069 0.138 0.068 0.138 0.069 0.411 0.21 0.274 0.142 0.136 0.071 0.272 0.144 0.135 0.072 0.27 0.146 0.135 0.074 0.402 0.222 0.134 0.075 0.133 0.076 0.133 0.075 0.133 0.076 0.133 0.077 0.132 0.076 0.132 0.078 0.132 0.077 0.393 0.234 0.131 0.079 0.13 0.079 0.39 0.24 0.387 0.243 0.128 0.082 0.128 0.081 0.128 0.083 0.128 0.082 0.127 0.083 0.127 0.084 0.127 0.083 0.126 0.084 0.126 0.085 0.126 0.084 0.126 0.085 0.125 0.086 0.125 0.085 0.125 0.086 0.124 0.087 0.124 0.086 0.124 0.087 0.124 0.088 0.369 0.264 0.366 0.267 0.121 0.089 0.121 0.09 0.121 0.091 0.121 0.09 0.12 0.091 0.12 0.092 0.12 0.091 0.238 0.184 0.119 0.093 0.354 0.279 0.118 0.094 0.117 0.094 0.117 0.095 0.348 0.285 0.116 0.096 0.23 0.192 0.115 0.097 0.228 0.194 0.114 0.098 0.113 0.097 0.113 0.099 0.113 0.098 0.113 0.099 0.224 0.198 0.333 0.3 0.33 0.303 0.11 0.102 0.109 0.101 0.109 0.103 0.108 0.102 0.324 0.309 0.107 0.103 0.107 0.104 0.106 0.104 0.212 0.21 0.105 0.105 0.106 0.105 0.104 0.106 0.105 0.106 0.208 0.212 0.309 0.321 0.306 0.324 0.101 0.108 0.202 0.218 0.1 0.109 0.2 0.22 0.198 0.22 0.294 0.333 0.388 0.448 0.096 0.112 0.19 0.226 0.095 0.114 0.095 0.113 0.094 0.114 0.094 0.115 0.093 0.114 0.186 0.23 0.184 0.23 0.092 0.116 0.182 0.232 0.36 0.468 0.089 0.118 0.264 0.354 0.088 0.119 0.087 0.118 0.086 0.12 0.087 0.119 0.086 0.119 0.17 0.24 0.085 0.121 0.084 0.12 0.168 0.242 0.083 0.122 0.083 0.121 0.083 0.122 0.082 0.122 0.081 0.122 0.082 0.123 0.08 0.123 0.081 0.123 0.16 0.246 0.158 0.248 0.078 0.124 0.079 0.125 0.077 0.124 0.078 0.125 0.076 0.126 0.077 0.125 0.076 0.126 0.076 0.125 0.075 0.126 0.075 0.127 0.074 0.126 0.148 0.254 0.073 0.127 0.073 0.128 0.073 0.127 0.072 0.128 0.071 0.128 0.071 0.129 0.071 0.128 0.071 0.129 0.07 0.129 0.069 0.129 0.069 0.13 0.069 0.129 0.136 0.26 0.068 0.131 0.067 0.13 0.198 0.393 0.066 0.132 0.064 0.131 0.065 0.132 0.128 0.264 0.063 0.133 0.063 0.132 0.124 0.266 0.061 0.134 0.061 0.133 0.061 0.134 0.12 0.268 0.118 0.268 0.059 0.135 0.058 0.135 0.114 0.27 0.057 0.136 0.168 0.408 0.054 0.136 0.055 0.136 0.108 0.274 0.053 0.137 0.052 0.137 0.053 0.138 0.052 0.137 0.102 0.276 0.05 0.138 0.05 0.139 0.05 0.138 0.098 0.278 0.096 0.278 0.094 0.28 0.092 0.28 0.09 0.28 0.045 0.141 0.044 0.141 0.044 0.14 0.043 0.142 0.042 0.141 0.043 0.141 0.041 0.142 0.042 0.142 0.04 0.142 0.041 0.142 0.04 0.142 0.039 0.143 0.039 0.142 0.114 0.429 0.037 0.144 0.036 0.143 0.037 0.144 0.105 0.432 0.034 0.144 0.034 0.145 0.033 0.144 0.033 0.145 0.064 0.29 0.031 0.146 0.031 0.145 0.03 0.146 0.03 0.145 0.058 0.292 0.029 0.147 0.027 0.146 0.028 0.146 0.027 0.147 0.052 0.294 0.05 0.294 0.025 0.148 0.024 0.147 0.069 0.444 0.022 0.148 0.021 0.148 0.021 0.149 0.02 0.148 0.04 0.298 0.019 0.149 0.036 0.298 0.017 0.15 0.017 0.149 0.017 0.15 0.016 0.15 0.03 0.3 0.028 0.3 0.026 0.302 0.013 0.15 0.011 0.151 0.012 0.151 0.01 0.151 0.011 0.152 9e-3 0.151 0.01 0.152 8e-3 0.151 0.016 0.304 0.014 0.304 6e-3 0.152 5e-3 0.153 5e-3 0.152 5e-3 0.153 4e-3 0.153 3e-3 0.152 6e-3 0.306 2e-3 0.154 2e-3 0.306v0.154 0.154l-2e-3 0.306-2e-3 0.154-6e-3 0.306-3e-3 0.152-4e-3 0.153-5e-3 0.153-5e-3 0.152-5e-3 0.153-6e-3 0.152-0.014 0.304-0.016 0.304-8e-3 0.151-0.01 0.152-9e-3 0.151-0.011 0.152-0.01 0.151-0.012 0.151-0.011 0.151-0.013 0.15-0.026 0.302-0.028 0.3-0.03 0.3-0.016 0.15-0.017 0.15-0.017 0.149-0.017 0.15-0.036 0.298-0.019 0.149-0.04 0.298-0.02 0.148-0.021 0.149-0.021 0.148-0.022 0.148-0.069 0.444-0.024 0.147-0.025 0.148-0.05 0.294-0.052 0.294-0.027 0.147-0.028 0.146-0.027 0.146-0.029 0.147-0.058 0.292-0.03 0.145-0.03 0.146-0.031 0.145-0.031 0.146-0.064 0.29-0.033 0.145-0.033 0.144-0.034 0.145-0.034 0.144-0.105 0.432-0.037 0.144-0.036 0.143-0.037 0.144-0.114 0.429-0.039 0.142-0.039 0.143-0.04 0.142-0.041 0.142-0.04 0.142-0.042 0.142-0.041 0.142-0.043 0.141-0.042 0.141-0.043 0.142-0.044 0.14-0.044 0.141-0.045 0.141-0.09 0.28-0.092 0.28-0.094 0.28-0.096 0.278-0.098 0.278-0.05 0.138-0.05 0.139-0.05 0.138-0.102 0.276-0.052 0.137-0.053 0.138-0.052 0.137-0.053 0.137-0.108 0.274-0.055 0.136-0.054 0.136-0.168 0.408-0.057 0.136-0.114 0.27-0.058 0.135-0.059 0.135-0.118 0.268-0.12 0.268-0.061 0.134-0.061 0.133-0.061 0.134-0.124 0.266-0.063 0.132-0.063 0.133-0.128 0.264-0.065 0.132-0.064 0.131-0.066 0.132-0.198 0.393-0.067 0.13-0.068 0.131-0.136 0.26-0.069 0.129-0.069 0.13-0.069 0.129-0.07 0.129-0.071 0.129-0.071 0.128-0.071 0.129-0.071 0.128-0.072 0.128-0.073 0.127-0.073 0.128-0.073 0.127-0.148 0.254-0.074 0.126-0.075 0.127-0.075 0.126-0.076 0.125-0.076 0.126-0.077 0.125-0.076 0.126-0.078 0.125-0.077 0.124-0.079 0.125-0.078 0.124-0.158 0.248-0.16 0.246-0.081 0.123-0.08 0.123-0.082 0.123-0.081 0.122-0.082 0.122-0.083 0.122-0.083 0.121-0.083 0.122-0.168 0.242-0.084 0.12-0.085 0.121-0.17 0.24-0.086 0.119-0.087 0.119-0.086 0.12-0.087 0.118-0.088 0.119-0.264 0.354-0.089 0.118-0.36 0.468-0.182 0.232-0.092 0.116-0.184 0.23-0.186 0.23-0.093 0.114-0.094 0.115-0.094 0.114-0.095 0.113-0.095 0.114-0.19 0.226-0.096 0.112-0.388 0.448-0.294 0.333-0.198 0.22-0.2 0.22-0.1 0.109-0.202 0.218-0.101 0.108-0.306 0.324-0.309 0.321-0.208 0.212-0.105 0.106-0.104 0.106-0.106 0.105-0.105 0.105-0.212 0.21-0.106 0.104-0.107 0.104-0.107 0.103-0.324 0.309-0.108 0.102-0.109 0.103-0.109 0.101-0.11 0.102-0.33 0.303-0.333 0.3-0.224 0.198-0.113 0.099-0.113 0.098-0.113 0.099-0.113 0.097-0.114 0.098-0.228 0.194-0.115 0.097-0.23 0.192-0.116 0.096-0.348 0.285-0.117 0.095-0.117 0.094-0.118 0.094-0.354 0.279-0.119 0.093-0.238 0.184-0.12 0.091-0.12 0.092-0.12 0.091-0.121 0.09-0.121 0.091-0.121 0.09-0.121 0.089-0.366 0.267-0.369 0.264-0.124 0.088-0.124 0.087-0.124 0.086-0.124 0.087-0.125 0.086-0.125 0.085-0.125 0.086-0.126 0.085-0.126 0.084-0.126 0.085-0.126 0.084-0.127 0.083-0.127 0.084-0.127 0.083-0.128 0.082-0.128 0.083-0.128 0.081-0.128 0.082-0.387 0.243-0.39 0.24-0.13 0.079-0.131 0.079-0.393 0.234-0.132 0.077-0.132 0.078-0.132 0.076-0.133 0.077-0.133 0.076-0.133 0.075-0.133 0.076-0.134 0.075-0.402 0.222-0.135 0.074-0.27 0.146-0.135 0.072-0.272 0.144-0.136 0.071-0.274 0.142-0.411 0.21-0.138 0.069-0.138 0.068-0.139 0.069-0.138 0.068-0.139 0.068-0.278 0.134-0.14 0.066-0.139 0.066-0.14 0.066-0.141 0.066-0.14 0.065-0.141 0.064-0.141 0.065-0.141 0.064-0.142 0.063-0.141 0.063-0.142 0.063-0.142 0.062-0.286 0.124-0.142 0.061-0.144 0.061-0.143 0.061-0.144 0.06-0.143 0.059-0.144 0.06-0.145 0.058-0.144 0.059-0.29 0.116-0.145 0.057-0.146 0.057-0.145 0.057-0.292 0.112-0.147 0.055-0.146 0.055-0.147 0.055-0.294 0.108-0.296 0.106-0.147 0.053-0.149 0.052-0.148 0.052-0.148 0.051-0.298 0.102-0.149 0.05-0.15 0.05-0.149 0.049-0.15 0.049-0.15 0.048-0.151 0.049-0.15 0.047-0.151 0.048-0.151 0.047-0.453 0.138-0.304 0.09-0.304 0.088-0.153 0.044-0.306 0.086-0.459 0.126-0.308 0.082-0.308 0.08-0.31 0.078-0.154 0.039-0.156 0.038-0.155 0.037-0.155 0.038-0.156 0.036-0.156 0.037-0.156 0.036-0.156 0.035-0.156 0.036-0.157 0.034-0.156 0.035-0.157 0.033-0.157 0.034-0.158 0.033-0.157 0.032-0.316 0.064-0.316 0.062-0.158 0.03-0.159 0.03-0.158 0.03-0.159 0.029-0.159 0.028-0.16 0.028-0.159 0.028-0.16 0.027-0.159 0.027-0.16 0.027-0.16 0.025-0.16 0.026-0.161 0.025-0.16 0.024-0.161 0.025-0.161 0.023-0.161 0.024-0.161 0.022-0.162 0.023-0.161 0.021-0.162 0.022-0.162 0.021-0.486 0.06-0.326 0.038-0.162 0.018-0.163 0.018-0.163 0.017-0.164 0.017-0.163 0.016-0.164 0.016-0.163 0.016-0.164 0.015-0.164 0.014-0.165 0.014-0.164 0.014-0.164 0.013-0.165 0.012-0.165 0.013-0.165 0.011-0.165 0.012-0.165 0.01-0.165 0.011-0.166 0.01-0.165 9e-3 -0.166 9e-3 -0.498 0.024-0.166 7e-3 -0.167 6e-3 -0.166 6e-3 -0.167 6e-3 -0.167 5e-3 -0.501 0.012-0.167 3e-3 -0.168 3e-3 -0.167 2e-3 -0.168 2e-3 -0.336 2e-3h-0.168-0.168l-0.336-2e-3 -0.168-2e-3 -0.167-2e-3 -0.168-3e-3 -0.167-3e-3 -0.501-0.012-0.167-5e-3 -0.167-6e-3 -0.166-6e-3 -0.167-6e-3 -0.166-7e-3 -0.498-0.024-0.166-9e-3 -0.165-9e-3 -0.166-0.01-0.165-0.011-0.165-0.01-0.165-0.012-0.165-0.011-0.165-0.013-0.165-0.012-0.164-0.013-0.164-0.014-0.165-0.014-0.164-0.014-0.164-0.015-0.163-0.016-0.164-0.016-0.163-0.016-0.164-0.017-0.163-0.017-0.163-0.018-0.162-0.018-0.326-0.038-0.486-0.06-0.162-0.021-0.162-0.022-0.161-0.021-0.162-0.023-0.161-0.022-0.161-0.024-0.161-0.023-0.161-0.025-0.16-0.024-0.161-0.025-0.16-0.026-0.16-0.025-0.16-0.027-0.159-0.027-0.16-0.027-0.159-0.028-0.16-0.028-0.159-0.028-0.159-0.029-0.158-0.03-0.159-0.03-0.158-0.03-0.316-0.062-0.316-0.064-0.157-0.032-0.158-0.033-0.157-0.034-0.157-0.033-0.156-0.035-0.157-0.034-0.156-0.036-0.156-0.035-0.156-0.036-0.156-0.037-0.156-0.036-0.155-0.038-0.155-0.037-0.156-0.038-0.154-0.039-0.31-0.078-0.308-0.08-0.308-0.082-0.459-0.126-0.306-0.086-0.153-0.044-0.304-0.088-0.304-0.09-0.453-0.138-0.151-0.047-0.151-0.048-0.15-0.047-0.151-0.049-0.15-0.048-0.15-0.049-0.149-0.049-0.15-0.05-0.149-0.05-0.298-0.102-0.148-0.051-0.148-0.052-0.149-0.052-0.147-0.053-0.296-0.106-0.294-0.108-0.147-0.055-0.146-0.055-0.147-0.055-0.292-0.112-0.145-0.057-0.146-0.057-0.145-0.057-0.29-0.116-0.144-0.059-0.145-0.058-0.144-0.06-0.143-0.059-0.144-0.06-0.143-0.061-0.144-0.061-0.142-0.061-0.286-0.124-0.142-0.062-0.142-0.063-0.141-0.063-0.142-0.063-0.141-0.064-0.141-0.065-0.141-0.064-0.14-0.065-0.141-0.066-0.14-0.066-0.139-0.066-0.14-0.066-0.278-0.134-0.139-0.068-0.138-0.068-0.139-0.069-0.138-0.068-0.138-0.069-0.411-0.21-0.274-0.142-0.136-0.071-0.272-0.144-0.135-0.072-0.27-0.146-0.135-0.074-0.402-0.222-0.134-0.075-0.133-0.076-0.133-0.075-0.133-0.076-0.133-0.077-0.132-0.076-0.132-0.078-0.132-0.077-0.393-0.234-0.131-0.079-0.13-0.079-0.39-0.24-0.387-0.243-0.128-0.082-0.128-0.081-0.128-0.083-0.128-0.082-0.127-0.083-0.127-0.084-0.127-0.083-0.126-0.084-0.126-0.085-0.126-0.084-0.126-0.085-0.125-0.086-0.125-0.085-0.125-0.086-0.124-0.087-0.124-0.086-0.124-0.087-0.124-0.088-0.369-0.264-0.366-0.267-0.121-0.089-0.121-0.09-0.121-0.091-0.121-0.09-0.12-0.091-0.12-0.092-0.12-0.091-0.238-0.184-0.119-0.093-0.354-0.279-0.118-0.094-0.117-0.094-0.117-0.095-0.348-0.285-0.116-0.096-0.23-0.192-0.115-0.097-0.228-0.194-0.114-0.098-0.113-0.097-0.113-0.099-0.113-0.098-0.113-0.099-0.224-0.198-0.333-0.3-0.33-0.303-0.11-0.102-0.109-0.101-0.109-0.103-0.108-0.102-0.324-0.309-0.107-0.103-0.107-0.104-0.106-0.104-0.212-0.21-0.105-0.105-0.106-0.105-0.104-0.106-0.105-0.106-0.208-0.212-0.309-0.321-0.306-0.324-0.101-0.108-0.202-0.218-0.1-0.109-0.2-0.22-0.198-0.22-0.294-0.333-0.388-0.448-0.096-0.112-0.19-0.226-0.095-0.114-0.095-0.113-0.094-0.114-0.094-0.115-0.093-0.114-0.186-0.23-0.184-0.23-0.092-0.116-0.182-0.232-0.36-0.468-0.089-0.118-0.264-0.354-0.088-0.119-0.087-0.118-0.086-0.12-0.087-0.119-0.086-0.119-0.17-0.24-0.085-0.121-0.084-0.12-0.168-0.242-0.083-0.122-0.083-0.121-0.083-0.122-0.082-0.122-0.081-0.122-0.082-0.123-0.08-0.123-0.081-0.123-0.16-0.246-0.158-0.248-0.078-0.124-0.079-0.125-0.077-0.124-0.078-0.125-0.076-0.126-0.077-0.125-0.076-0.126-0.076-0.125-0.075-0.126-0.075-0.127-0.074-0.126-0.148-0.254-0.073-0.127-0.073-0.128-0.073-0.127-0.072-0.128-0.071-0.128-0.071-0.129-0.071-0.128-0.071-0.129-0.07-0.129-0.069-0.129-0.069-0.13-0.069-0.129-0.136-0.26-0.068-0.131-0.067-0.13-0.198-0.393-0.066-0.132-0.064-0.131-0.065-0.132-0.128-0.264-0.063-0.133-0.063-0.132-0.124-0.266-0.061-0.134-0.061-0.133-0.061-0.134-0.12-0.268-0.118-0.268-0.059-0.135-0.058-0.135-0.114-0.27-0.057-0.136-0.168-0.408-0.054-0.136-0.055-0.136-0.108-0.274-0.053-0.137-0.052-0.137-0.053-0.138-0.052-0.137-0.102-0.276-0.05-0.138-0.05-0.139-0.05-0.138-0.098-0.278-0.096-0.278-0.094-0.28-0.092-0.28-0.09-0.28-0.045-0.141-0.044-0.141-0.044-0.14-0.043-0.142-0.042-0.141-0.043-0.141-0.041-0.142-0.042-0.142-0.04-0.142-0.041-0.142-0.04-0.142-0.039-0.143-0.039-0.142-0.114-0.429-0.037-0.144-0.036-0.143-0.037-0.144-0.105-0.432-0.034-0.144-0.034-0.145-0.033-0.144-0.033-0.145-0.064-0.29-0.031-0.146-0.031-0.145-0.03-0.146-0.03-0.145-0.058-0.292-0.029-0.147-0.027-0.146-0.028-0.146-0.027-0.147-0.052-0.294-0.05-0.294-0.025-0.148-0.024-0.147-0.069-0.444-0.022-0.148-0.021-0.148-0.021-0.149-0.02-0.148-0.04-0.298-0.019-0.149-0.036-0.298-0.017-0.15-0.017-0.149-0.017-0.15-0.016-0.15-0.03-0.3-0.028-0.3-0.026-0.302-0.013-0.15-0.011-0.151-0.012-0.151-0.01-0.151-0.011-0.152-9e-3 -0.151-0.01-0.152-8e-3 -0.151-0.016-0.304-0.014-0.304-6e-3 -0.152-5e-3 -0.153-5e-3 -0.152-5e-3 -0.153-4e-3 -0.153-3e-3 -0.152-6e-3 -0.306-2e-3 -0.154-2e-3 -0.306v-0.154-0.154l2e-3 -0.306 2e-3 -0.154 6e-3 -0.306 3e-3 -0.152 4e-3 -0.153 5e-3 -0.153 5e-3 -0.152 5e-3 -0.153 6e-3 -0.152 0.014-0.304 0.016-0.304 8e-3 -0.151 0.01-0.152 9e-3 -0.151 0.011-0.152 0.01-0.151 0.012-0.151 0.011-0.151 0.013-0.15 0.026-0.302 0.028-0.3 0.03-0.3 0.016-0.15 0.017-0.15 0.017-0.149 0.017-0.15 0.036-0.298 0.019-0.149 0.04-0.298 0.02-0.148 0.021-0.149 0.021-0.148 0.022-0.148 0.069-0.444 0.024-0.147 0.025-0.148 0.05-0.294 0.052-0.294 0.027-0.147 0.028-0.146 0.027-0.146 0.029-0.147 0.058-0.292 0.03-0.145 0.03-0.146 0.031-0.145 0.031-0.146 0.064-0.29 0.033-0.145 0.033-0.144 0.034-0.145 0.034-0.144 0.105-0.432 0.037-0.144 0.036-0.143 0.037-0.144 0.114-0.429 0.039-0.142 0.039-0.143 0.04-0.142 0.041-0.142 0.04-0.142 0.042-0.142 0.041-0.142 0.043-0.141 0.042-0.141 0.043-0.142 0.044-0.14 0.044-0.141 0.045-0.141 0.09-0.28 0.092-0.28 0.094-0.28 0.096-0.278 0.098-0.278 0.05-0.138 0.05-0.139 0.05-0.138 0.102-0.276 0.052-0.137 0.053-0.138 0.052-0.137 0.053-0.137 0.108-0.274 0.055-0.136 0.054-0.136 0.168-0.408 0.057-0.136 0.114-0.27 0.058-0.135 0.059-0.135 0.118-0.268 0.12-0.268 0.061-0.134 0.061-0.133 0.061-0.134 0.124-0.266 0.063-0.132 0.063-0.133 0.128-0.264 0.065-0.132 0.064-0.131 0.066-0.132 0.198-0.393 0.067-0.13 0.068-0.131 0.136-0.26 0.069-0.129 0.069-0.13 0.069-0.129 0.07-0.129 0.071-0.129 0.071-0.128 0.071-0.129 0.071-0.128 0.072-0.128 0.073-0.127 0.073-0.128 0.073-0.127 0.148-0.254 0.074-0.126 0.075-0.127 0.075-0.126 0.076-0.125 0.076-0.126 0.077-0.125 0.076-0.126 0.078-0.125 0.077-0.124 0.079-0.125 0.078-0.124 0.158-0.248 0.16-0.246 0.081-0.123 0.08-0.123 0.082-0.123 0.081-0.122 0.082-0.122 0.083-0.122 0.083-0.121 0.083-0.122 0.168-0.242 0.084-0.12 0.085-0.121 0.17-0.24 0.086-0.119 0.087-0.119 0.086-0.12 0.087-0.118 0.088-0.119 0.264-0.354 0.089-0.118 0.36-0.468 0.182-0.232 0.092-0.116 0.184-0.23 0.186-0.23 0.093-0.114 0.094-0.115 0.094-0.114 0.095-0.113 0.095-0.114 0.19-0.226 0.096-0.112 0.388-0.448 0.294-0.333 0.198-0.22 0.2-0.22 0.1-0.109 0.202-0.218 0.101-0.108 0.306-0.324 0.309-0.321 0.208-0.212 0.105-0.106 0.104-0.106 0.106-0.105 0.105-0.105 0.212-0.21 0.106-0.104 0.107-0.104 0.107-0.103 0.324-0.309 0.108-0.102 0.109-0.103 0.109-0.101 0.11-0.102 0.33-0.303 0.333-0.3 0.224-0.198 0.113-0.099 0.113-0.098 0.113-0.099 0.113-0.097 0.114-0.098 0.228-0.194 0.115-0.097 0.23-0.192 0.116-0.096 0.348-0.285 0.117-0.095 0.117-0.094 0.118-0.094 0.354-0.279 0.119-0.093 0.238-0.184 0.12-0.091 0.12-0.092 0.12-0.091 0.121-0.09 0.121-0.091 0.121-0.09 0.121-0.089 0.366-0.267 0.369-0.264 0.124-0.088 0.124-0.087 0.124-0.086 0.124-0.087 0.125-0.086 0.125-0.085 0.125-0.086 0.126-0.085 0.126-0.084 0.126-0.085 0.126-0.084 0.127-0.083 0.127-0.084 0.127-0.083 0.128-0.082 0.128-0.083 0.128-0.081 0.128-0.082 0.387-0.243 0.39-0.24 0.13-0.079 0.131-0.079 0.393-0.234 0.132-0.077 0.132-0.078 0.132-0.076 0.133-0.077 0.133-0.076 0.133-0.075 0.133-0.076 0.134-0.075 0.402-0.222 0.135-0.074 0.27-0.146 0.135-0.072 0.272-0.144 0.136-0.071 0.274-0.142 0.411-0.21 0.138-0.069 0.138-0.068 0.139-0.069 0.138-0.068 0.139-0.068 0.278-0.134 0.14-0.066 0.139-0.066 0.14-0.066 0.141-0.066 0.14-0.065 0.141-0.064 0.141-0.065 0.141-0.064 0.142-0.063 0.141-0.063 0.142-0.063 0.142-0.062 0.286-0.124 0.142-0.061 0.144-0.061 0.143-0.061 0.144-0.06 0.143-0.059 0.144-0.06 0.145-0.058 0.144-0.059 0.29-0.116 0.145-0.057 0.146-0.057 0.145-0.057 0.292-0.112 0.147-0.055 0.146-0.055 0.147-0.055 0.294-0.108 0.296-0.106 0.147-0.053 0.149-0.052 0.148-0.052 0.148-0.051 0.298-0.102 0.149-0.05 0.15-0.05 0.149-0.049 0.15-0.049 0.15-0.048 0.151-0.049 0.15-0.047 0.151-0.048 0.151-0.047 0.453-0.138 0.304-0.09 0.304-0.088 0.153-0.044 0.306-0.086 0.459-0.126 0.308-0.082 0.308-0.08 0.31-0.078 0.154-0.039 0.156-0.038 0.155-0.037 0.155-0.038 0.156-0.036 0.156-0.037 0.156-0.036 0.156-0.035 0.156-0.036 0.157-0.034 0.156-0.035 0.157-0.033 0.157-0.034 0.158-0.033 0.157-0.032 0.316-0.064 0.316-0.062 0.158-0.03 0.159-0.03 0.158-0.03 0.159-0.029 0.159-0.028 0.16-0.028 0.159-0.028 0.16-0.027 0.159-0.027 0.16-0.027 0.16-0.025 0.16-0.026 0.161-0.025 0.16-0.024 0.161-0.025 0.161-0.023 0.161-0.024 0.161-0.022 0.162-0.023 0.161-0.021 0.162-0.022 0.162-0.021 0.486-0.06 0.326-0.038 0.162-0.018 0.163-0.018 0.163-0.017 0.164-0.017 0.163-0.016 0.164-0.016 0.163-0.016 0.164-0.015 0.164-0.014 0.165-0.014 0.164-0.014 0.164-0.013 0.165-0.012 0.165-0.013 0.165-0.011 0.165-0.012 0.165-0.01 0.165-0.011 0.166-0.01 0.165-9e-3 0.166-9e-3 0.498-0.024 0.166-7e-3 0.167-6e-3 0.166-6e-3 0.167-6e-3 0.167-5e-3 0.501-0.012 0.167-3e-3 0.168-3e-3 0.167-2e-3 0.168-2e-3 0.336-2e-3h0.168 0.168zm-0.321 4.453-0.152 1e-3 -0.153 1e-3 -0.456 6e-3 -0.304 6e-3 -0.151 4e-3 -0.152 4e-3 -0.302 0.01-0.152 5e-3 -0.151 6e-3 -0.15 6e-3 -0.302 0.014-0.3 0.016-0.151 9e-3 -0.3 0.018-0.149 0.01-0.15 0.01-0.15 0.011-0.298 0.022-0.298 0.024-0.298 0.026-0.148 0.014-0.149 0.014-0.148 0.014-0.296 0.03-0.296 0.032-0.147 0.017-0.148 0.016-0.588 0.072-0.146 0.019-0.147 0.02-0.146 0.019-0.146 0.021-0.147 0.02-0.145 0.021-0.292 0.044-0.145 0.022-0.146 0.023-0.29 0.046-0.145 0.024-0.144 0.024-0.145 0.025-0.288 0.05-0.144 0.026-0.144 0.027-0.144 0.026-0.144 0.027-0.429 0.084-0.429 0.087-0.284 0.06-0.426 0.093-0.142 0.032-0.141 0.032-0.423 0.099-0.282 0.068-0.42 0.105-0.28 0.072-0.139 0.036-0.14 0.037-0.139 0.037-0.278 0.076-0.138 0.038-0.139 0.039-0.276 0.078-0.276 0.08-0.137 0.041-0.138 0.041-0.137 0.041-0.274 0.084-0.136 0.043-0.137 0.043-0.272 0.086-0.136 0.044-0.136 0.045-0.135 0.044-0.135 0.045-0.54 0.184-0.134 0.047-0.134 0.048-0.134 0.047-0.134 0.048-0.133 0.049-0.134 0.048-0.133 0.049-0.133 0.05-0.132 0.05-0.133 0.05-0.132 0.05-0.264 0.102-0.264 0.104-0.131 0.052-0.393 0.159-0.26 0.108-0.131 0.054-0.129 0.055-0.13 0.055-0.129 0.056-0.13 0.056-0.258 0.112-0.128 0.057-0.129 0.057-0.256 0.116-0.127 0.058-0.128 0.059-0.127 0.058-0.127 0.06-0.127 0.059-0.127 0.06-0.126 0.061-0.126 0.06-0.252 0.122-0.125 0.062-0.126 0.062-0.125 0.062-0.125 0.063-0.124 0.063-0.125 0.063-0.248 0.128-0.123 0.064-0.124 0.065-0.246 0.13-0.123 0.066-0.122 0.066-0.123 0.066-0.122 0.067-0.121 0.067-0.122 0.067-0.121 0.068-0.122 0.068-0.12 0.068-0.121 0.068-0.12 0.069-0.121 0.07-0.119 0.069-0.24 0.14-0.238 0.142-0.118 0.071-0.119 0.071-0.354 0.216-0.234 0.146-0.117 0.074-0.117 0.073-0.116 0.074-0.116 0.075-0.116 0.074-0.116 0.075-0.115 0.075-0.116 0.076-0.114 0.076-0.115 0.076-0.114 0.076-0.115 0.077-0.113 0.077-0.114 0.078-0.113 0.077-0.113 0.078-0.113 0.079-0.113 0.078-0.224 0.158-0.112 0.08-0.111 0.08-0.112 0.08-0.111 0.08-0.11 0.081-0.111 0.081-0.11 0.081-0.11 0.082-0.109 0.082-0.11 0.082-0.109 0.082-0.108 0.083-0.109 0.083-0.108 0.083-0.216 0.168-0.107 0.084-0.107 0.085-0.107 0.084-0.107 0.086-0.106 0.085-0.212 0.172-0.21 0.172-0.21 0.174-0.104 0.087-0.104 0.088-0.103 0.088-0.104 0.088-0.206 0.178-0.102 0.089-0.103 0.089-0.102 0.089-0.101 0.09-0.102 0.09-0.202 0.182-0.3 0.273-0.1 0.092-0.099 0.092-0.099 0.093-0.099 0.092-0.196 0.186-0.098 0.094-0.097 0.093-0.098 0.094-0.096 0.094-0.097 0.095-0.288 0.285-0.095 0.095-0.19 0.192-0.094 0.096-0.282 0.291-0.093 0.097-0.093 0.098-0.276 0.294-0.092 0.099-0.273 0.297-0.09 0.1-0.09 0.099-0.089 0.101-0.09 0.1-0.089 0.101-0.088 0.1-0.089 0.102-0.088 0.101-0.087 0.101-0.088 0.102-0.087 0.102-0.087 0.103-0.086 0.102-0.172 0.206-0.085 0.103-0.17 0.208-0.252 0.312-0.249 0.315-0.082 0.106-0.082 0.105-0.082 0.106-0.081 0.106-0.081 0.107-0.081 0.106-0.24 0.321-0.237 0.324-0.156 0.216-0.078 0.109-0.154 0.218-0.076 0.109-0.076 0.11-0.076 0.109-0.075 0.11-0.075 0.111-0.075 0.11-0.075 0.111-0.074 0.11-0.073 0.112-0.074 0.111-0.072 0.111-0.073 0.112-0.216 0.336-0.142 0.226-0.21 0.339-0.207 0.342-0.136 0.228-0.201 0.345-0.066 0.115-0.066 0.116-0.066 0.115-0.13 0.232-0.065 0.117-0.064 0.116-0.063 0.117-0.064 0.117-0.063 0.117-0.062 0.117-0.063 0.117-0.062 0.118-0.183 0.354-0.06 0.119-0.06 0.118-0.06 0.119-0.118 0.238-0.058 0.12-0.058 0.119-0.058 0.12-0.114 0.24-0.056 0.121-0.056 0.12-0.056 0.121-0.165 0.363-0.054 0.121-0.054 0.122-0.159 0.366-0.052 0.122-0.051 0.123-0.052 0.123-0.051 0.122-0.05 0.123-0.05 0.124-0.05 0.123-0.049 0.124-0.049 0.123-0.049 0.124-0.048 0.125-0.048 0.124-0.047 0.124-0.094 0.25-0.046 0.125-0.045 0.125-0.046 0.125-0.045 0.126-0.044 0.125-0.088 0.252-0.086 0.252-0.084 0.254-0.042 0.126-0.082 0.254-0.04 0.128-0.04 0.127-0.078 0.256-0.039 0.127-0.038 0.129-0.038 0.128-0.037 0.128-0.037 0.129-0.037 0.128-0.072 0.258-0.035 0.13-0.035 0.129-0.034 0.129-0.068 0.26-0.033 0.13-0.032 0.13-0.033 0.13-0.031 0.131-0.032 0.13-0.031 0.131-0.09 0.393-0.029 0.131-0.029 0.132-0.028 0.131-0.056 0.264-0.027 0.132-0.052 0.264-0.026 0.133-0.025 0.132-0.025 0.133-0.072 0.399-0.023 0.133-0.022 0.134-0.023 0.133-0.084 0.536-0.019 0.134-0.02 0.134-0.019 0.135-0.018 0.135-0.018 0.134-0.018 0.135-0.034 0.27-0.016 0.136-0.016 0.135-0.015 0.136-0.015 0.135-0.015 0.136-0.014 0.136-0.013 0.136-0.013 0.137-0.013 0.136-0.012 0.136-0.022 0.274-0.011 0.136-0.02 0.274-9e-3 0.138-0.018 0.274-8e-3 0.138-7e-3 0.138-7e-3 0.137-0.012 0.276-6e-3 0.139-5e-3 0.138-4e-3 0.138-5e-3 0.139-3e-3 0.138-6e-3 0.278-4e-3 0.278-1e-3 0.139-1e-3 0.14v0.139 0.139l1e-3 0.14 1e-3 0.139 4e-3 0.278 6e-3 0.278 3e-3 0.138 5e-3 0.139 4e-3 0.138 5e-3 0.138 6e-3 0.139 0.012 0.276 7e-3 0.137 7e-3 0.138 8e-3 0.138 0.018 0.274 9e-3 0.138 0.02 0.274 0.011 0.136 0.022 0.274 0.012 0.136 0.013 0.136 0.013 0.137 0.013 0.136 0.014 0.136 0.015 0.136 0.015 0.135 0.015 0.136 0.016 0.135 0.016 0.136 0.034 0.27 0.018 0.135 0.018 0.134 0.018 0.135 0.019 0.135 0.02 0.134 0.019 0.134 0.084 0.536 0.023 0.133 0.022 0.134 0.023 0.133 0.072 0.399 0.025 0.133 0.025 0.132 0.026 0.133 0.052 0.264 0.027 0.132 0.056 0.264 0.028 0.131 0.029 0.132 0.029 0.131 0.09 0.393 0.031 0.131 0.032 0.13 0.031 0.131 0.033 0.13 0.032 0.13 0.033 0.13 0.068 0.26 0.034 0.129 0.035 0.129 0.035 0.13 0.036 0.129 0.036 0.128 0.074 0.258 0.037 0.128 0.076 0.256 0.117 0.384 0.04 0.127 0.04 0.128 0.082 0.254 0.042 0.126 0.084 0.254 0.086 0.252 0.088 0.252 0.044 0.125 0.045 0.126 0.046 0.125 0.045 0.125 0.046 0.125 0.094 0.25 0.047 0.124 0.048 0.124 0.048 0.125 0.049 0.124 0.049 0.123 0.049 0.124 0.1 0.246 0.05 0.124 0.051 0.122 0.052 0.123 0.051 0.123 0.052 0.122 0.159 0.366 0.054 0.122 0.054 0.121 0.165 0.363 0.056 0.121 0.056 0.12 0.056 0.121 0.114 0.24 0.058 0.12 0.058 0.119 0.058 0.12 0.118 0.238 0.06 0.119 0.06 0.118 0.06 0.119 0.183 0.354 0.062 0.118 0.063 0.117 0.062 0.117 0.063 0.117 0.064 0.117 0.063 0.117 0.064 0.116 0.065 0.117 0.13 0.232 0.066 0.115 0.066 0.116 0.066 0.115 0.201 0.345 0.136 0.228 0.207 0.342 0.21 0.339 0.142 0.226 0.216 0.336 0.073 0.112 0.072 0.111 0.074 0.111 0.073 0.112 0.074 0.11 0.075 0.111 0.075 0.11 0.075 0.111 0.075 0.11 0.076 0.109 0.076 0.11 0.076 0.109 0.154 0.218 0.078 0.109 0.156 0.216 0.158 0.216 0.079 0.107 0.08 0.108 0.16 0.214 0.08 0.106 0.082 0.107 0.081 0.106 0.082 0.106 0.082 0.105 0.082 0.106 0.249 0.315 0.252 0.312 0.17 0.208 0.085 0.103 0.172 0.206 0.086 0.102 0.087 0.103 0.087 0.102 0.088 0.102 0.087 0.101 0.088 0.101 0.089 0.102 0.088 0.1 0.089 0.101 0.09 0.1 0.089 0.101 0.09 0.099 0.09 0.1 0.273 0.297 0.092 0.099 0.276 0.294 0.093 0.098 0.093 0.097 0.282 0.291 0.094 0.096 0.19 0.192 0.095 0.095 0.288 0.285 0.097 0.095 0.096 0.094 0.098 0.094 0.097 0.093 0.098 0.094 0.196 0.186 0.099 0.092 0.099 0.093 0.099 0.092 0.1 0.092 0.3 0.273 0.101 0.091 0.101 0.09 0.102 0.091 0.101 0.09 0.102 0.089 0.103 0.089 0.102 0.089 0.206 0.178 0.104 0.088 0.103 0.088 0.104 0.087 0.105 0.088 0.104 0.087 0.105 0.087 0.21 0.172 0.212 0.172 0.106 0.085 0.107 0.086 0.107 0.084 0.107 0.085 0.107 0.084 0.216 0.168 0.108 0.083 0.109 0.083 0.108 0.083 0.11 0.082 0.218 0.164 0.11 0.082 0.11 0.081 0.111 0.081 0.11 0.081 0.112 0.08 0.111 0.081 0.111 0.079 0.112 0.08 0.224 0.158 0.113 0.078 0.113 0.079 0.113 0.078 0.113 0.077 0.114 0.078 0.113 0.077 0.115 0.077 0.114 0.076 0.115 0.076 0.114 0.076 0.116 0.076 0.115 0.075 0.116 0.075 0.116 0.074 0.116 0.075 0.116 0.074 0.117 0.073 0.117 0.074 0.117 0.073 0.118 0.073 0.117 0.072 0.236 0.144 0.119 0.071 0.118 0.071 0.119 0.071 0.12 0.071 0.119 0.07 0.12 0.07 0.12 0.069 0.12 0.07 0.12 0.069 0.484 0.272 0.122 0.067 0.121 0.067 0.122 0.067 0.123 0.066 0.122 0.066 0.123 0.066 0.246 0.13 0.124 0.065 0.123 0.064 0.248 0.128 0.125 0.063 0.124 0.063 0.125 0.063 0.25 0.124 0.126 0.062 0.252 0.122 0.126 0.06 0.126 0.061 0.127 0.06 0.127 0.059 0.127 0.06 0.127 0.058 0.128 0.059 0.127 0.058 0.128 0.058 0.129 0.058 0.256 0.114 0.258 0.112 0.13 0.056 0.129 0.056 0.13 0.055 0.129 0.055 0.131 0.054 0.26 0.108 0.393 0.159 0.131 0.052 0.264 0.104 0.264 0.102 0.132 0.05 0.133 0.05 0.132 0.05 0.133 0.05 0.134 0.049 0.133 0.048 0.133 0.049 0.134 0.048 0.134 0.047 0.134 0.048 0.134 0.047 0.54 0.184 0.135 0.045 0.135 0.044 0.136 0.045 0.136 0.044 0.272 0.086 0.137 0.043 0.136 0.043 0.274 0.084 0.137 0.041 0.138 0.041 0.137 0.041 0.276 0.08 0.276 0.078 0.139 0.039 0.138 0.038 0.278 0.076 0.139 0.037 0.14 0.037 0.139 0.036 0.28 0.072 0.42 0.105 0.282 0.068 0.423 0.099 0.141 0.032 0.142 0.032 0.426 0.093 0.284 0.06 0.429 0.087 0.429 0.084 0.144 0.027 0.144 0.026 0.144 0.027 0.144 0.026 0.288 0.05 0.145 0.025 0.144 0.024 0.145 0.024 0.29 0.046 0.146 0.023 0.145 0.022 0.292 0.044 0.145 0.021 0.147 0.02 0.146 0.021 0.146 0.019 0.147 0.02 0.146 0.019 0.588 0.072 0.148 0.016 0.147 0.017 0.296 0.032 0.296 0.03 0.148 0.014 0.149 0.014 0.148 0.014 0.298 0.026 0.298 0.024 0.298 0.022 0.15 0.011 0.15 0.01 0.149 0.01 0.45 0.027 0.151 8e-3 0.15 8e-3 0.302 0.014 0.151 6e-3 0.15 6e-3 0.152 5e-3 0.302 0.01 0.152 4e-3 0.151 4e-3 0.304 6e-3 0.456 6e-3 0.153 1e-3 0.152 1e-3h0.153 0.153l0.152-1e-3 0.153-1e-3 0.456-6e-3 0.304-6e-3 0.151-4e-3 0.152-4e-3 0.302-0.01 0.152-5e-3 0.15-6e-3 0.151-6e-3 0.302-0.014 0.15-8e-3 0.151-8e-3 0.45-0.027 0.149-0.01 0.15-0.01 0.15-0.011 0.298-0.022 0.298-0.024 0.298-0.026 0.148-0.014 0.149-0.014 0.148-0.014 0.296-0.03 0.296-0.032 0.147-0.017 0.148-0.016 0.588-0.072 0.146-0.019 0.147-0.02 0.146-0.019 0.146-0.021 0.147-0.02 0.145-0.021 0.292-0.044 0.145-0.022 0.146-0.023 0.29-0.046 0.145-0.024 0.144-0.024 0.145-0.025 0.288-0.05 0.144-0.026 0.144-0.027 0.144-0.026 0.144-0.027 0.429-0.084 0.429-0.087 0.284-0.06 0.426-0.093 0.142-0.032 0.141-0.032 0.423-0.099 0.282-0.068 0.42-0.105 0.28-0.072 0.139-0.036 0.14-0.037 0.139-0.037 0.278-0.076 0.138-0.038 0.139-0.039 0.276-0.078 0.276-0.08 0.137-0.041 0.138-0.041 0.137-0.041 0.274-0.084 0.136-0.043 0.137-0.043 0.272-0.086 0.136-0.044 0.136-0.045 0.135-0.044 0.135-0.045 0.54-0.184 0.134-0.047 0.134-0.048 0.134-0.047 0.134-0.048 0.133-0.049 0.133-0.048 0.134-0.049 0.133-0.05 0.132-0.05 0.133-0.05 0.132-0.05 0.264-0.102 0.264-0.104 0.131-0.052 0.393-0.159 0.26-0.108 0.131-0.054 0.129-0.055 0.13-0.055 0.129-0.056 0.13-0.056 0.258-0.112 0.256-0.114 0.129-0.058 0.128-0.058 0.127-0.058 0.128-0.059 0.127-0.058 0.127-0.06 0.127-0.059 0.127-0.06 0.126-0.061 0.126-0.06 0.252-0.122 0.125-0.062 0.126-0.062 0.125-0.062 0.125-0.063 0.124-0.063 0.125-0.063 0.248-0.128 0.123-0.064 0.124-0.065 0.246-0.13 0.123-0.066 0.122-0.066 0.123-0.066 0.122-0.067 0.121-0.067 0.122-0.067 0.484-0.272 0.12-0.069 0.121-0.07 0.119-0.069 0.12-0.07 0.119-0.07 0.12-0.071 0.119-0.071 0.118-0.071 0.119-0.071 0.236-0.144 0.117-0.072 0.118-0.073 0.117-0.073 0.117-0.074 0.117-0.073 0.116-0.074 0.116-0.075 0.116-0.074 0.116-0.075 0.115-0.075 0.116-0.076 0.114-0.076 0.115-0.076 0.114-0.076 0.115-0.077 0.113-0.077 0.114-0.078 0.113-0.077 0.113-0.078 0.113-0.079 0.113-0.078 0.224-0.158 0.112-0.08 0.111-0.079 0.111-0.081 0.112-0.08 0.11-0.081 0.111-0.081 0.11-0.081 0.11-0.082 0.218-0.164 0.11-0.082 0.108-0.083 0.109-0.083 0.108-0.083 0.216-0.168 0.107-0.084 0.107-0.085 0.107-0.084 0.107-0.085 0.212-0.172 0.106-0.085 0.105-0.087 0.105-0.086 0.105-0.087 0.104-0.087 0.105-0.088 0.104-0.087 0.103-0.088 0.104-0.088 0.206-0.178 0.102-0.089 0.103-0.089 0.102-0.089 0.101-0.09 0.102-0.09 0.202-0.182 0.3-0.273 0.1-0.092 0.099-0.092 0.099-0.093 0.099-0.092 0.196-0.186 0.098-0.094 0.097-0.093 0.098-0.094 0.096-0.094 0.097-0.095 0.288-0.285 0.095-0.095 0.19-0.192 0.094-0.096 0.282-0.291 0.093-0.097 0.093-0.098 0.276-0.294 0.092-0.099 0.273-0.297 0.09-0.1 0.09-0.099 0.089-0.101 0.09-0.1 0.089-0.101 0.088-0.1 0.089-0.102 0.088-0.101 0.088-0.102 0.087-0.101 0.087-0.102 0.087-0.103 0.086-0.102 0.172-0.206 0.085-0.103 0.17-0.208 0.168-0.208 0.084-0.105 0.083-0.104 0.166-0.21 0.083-0.106 0.081-0.105 0.082-0.106 0.081-0.106 0.081-0.107 0.081-0.106 0.16-0.214 0.08-0.108 0.079-0.107 0.158-0.216 0.156-0.216 0.077-0.109 0.078-0.109 0.077-0.109 0.076-0.109 0.076-0.11 0.076-0.109 0.075-0.11 0.075-0.111 0.075-0.11 0.075-0.111 0.074-0.11 0.073-0.112 0.074-0.111 0.072-0.111 0.073-0.112 0.216-0.336 0.142-0.226 0.21-0.339 0.207-0.342 0.136-0.228 0.201-0.345 0.066-0.115 0.066-0.116 0.066-0.115 0.13-0.232 0.065-0.117 0.064-0.116 0.063-0.117 0.064-0.117 0.126-0.234 0.062-0.117 0.062-0.118 0.183-0.354 0.06-0.119 0.06-0.118 0.06-0.119 0.118-0.238 0.058-0.12 0.058-0.119 0.058-0.12 0.114-0.24 0.056-0.121 0.056-0.12 0.056-0.121 0.165-0.363 0.054-0.122 0.054-0.121 0.159-0.366 0.052-0.122 0.051-0.123 0.052-0.123 0.051-0.122 0.05-0.124 0.1-0.246 0.049-0.124 0.049-0.123 0.049-0.124 0.048-0.125 0.048-0.124 0.047-0.124 0.094-0.25 0.046-0.125 0.045-0.125 0.046-0.125 0.045-0.126 0.044-0.125 0.088-0.252 0.086-0.252 0.084-0.254 0.042-0.126 0.041-0.127 0.041-0.128 0.08-0.254 0.039-0.128 0.039-0.127 0.039-0.128 0.038-0.129 0.038-0.128 0.037-0.128 0.037-0.129 0.037-0.128 0.072-0.258 0.035-0.13 0.035-0.129 0.034-0.129 0.068-0.26 0.033-0.13 0.032-0.13 0.033-0.13 0.031-0.131 0.032-0.13 0.031-0.131 0.09-0.393 0.029-0.131 0.029-0.132 0.028-0.131 0.056-0.264 0.027-0.132 0.052-0.264 0.026-0.133 0.025-0.132 0.025-0.133 0.072-0.399 0.023-0.133 0.022-0.134 0.023-0.133 0.084-0.536 0.019-0.134 0.02-0.135 0.019-0.134 0.018-0.135 0.018-0.134 0.018-0.135 0.034-0.27 0.016-0.136 0.016-0.135 0.015-0.136 0.015-0.135 0.015-0.136 0.014-0.136 0.013-0.136 0.013-0.137 0.013-0.136 0.012-0.136 0.011-0.137 0.012-0.137 0.01-0.136 0.02-0.274 9e-3 -0.138 0.018-0.274 8e-3 -0.138 7e-3 -0.138 7e-3 -0.137 0.012-0.276 6e-3 -0.139 5e-3 -0.138 4e-3 -0.138 5e-3 -0.139 3e-3 -0.138 6e-3 -0.278 4e-3 -0.278 1e-3 -0.139 1e-3 -0.14v-0.139-0.139l-1e-3 -0.14-1e-3 -0.139-4e-3 -0.278-6e-3 -0.278-3e-3 -0.138-5e-3 -0.139-4e-3 -0.138-5e-3 -0.138-6e-3 -0.139-0.012-0.276-7e-3 -0.137-7e-3 -0.138-8e-3 -0.138-0.018-0.274-9e-3 -0.138-0.02-0.274-0.01-0.136-0.012-0.137-0.011-0.137-0.012-0.136-0.013-0.136-0.013-0.137-0.013-0.136-0.014-0.136-0.015-0.136-0.015-0.135-0.015-0.136-0.016-0.135-0.016-0.136-0.034-0.27-0.018-0.135-0.018-0.134-0.018-0.135-0.019-0.134-0.02-0.135-0.019-0.134-0.084-0.536-0.023-0.133-0.022-0.134-0.023-0.133-0.072-0.399-0.025-0.133-0.025-0.132-0.026-0.133-0.052-0.264-0.027-0.132-0.056-0.264-0.028-0.131-0.029-0.132-0.029-0.131-0.09-0.393-0.031-0.131-0.032-0.13-0.031-0.131-0.033-0.13-0.032-0.13-0.033-0.13-0.068-0.26-0.034-0.129-0.035-0.129-0.035-0.13-0.072-0.258-0.037-0.128-0.037-0.129-0.037-0.128-0.038-0.128-0.038-0.129-0.039-0.127-0.078-0.256-0.08-0.254-0.041-0.128-0.041-0.127-0.042-0.126-0.084-0.254-0.086-0.252-0.088-0.252-0.044-0.125-0.045-0.126-0.046-0.125-0.045-0.125-0.046-0.125-0.094-0.25-0.047-0.124-0.048-0.124-0.048-0.125-0.049-0.124-0.049-0.123-0.049-0.124-0.1-0.246-0.05-0.124-0.051-0.122-0.052-0.123-0.051-0.123-0.052-0.122-0.159-0.366-0.054-0.122-0.054-0.121-0.165-0.363-0.056-0.121-0.056-0.12-0.056-0.121-0.114-0.24-0.058-0.12-0.058-0.119-0.058-0.12-0.118-0.238-0.06-0.119-0.06-0.118-0.06-0.119-0.183-0.354-0.062-0.118-0.062-0.117-0.126-0.234-0.064-0.117-0.063-0.117-0.064-0.116-0.065-0.117-0.13-0.232-0.066-0.115-0.066-0.116-0.066-0.115-0.201-0.345-0.136-0.228-0.207-0.342-0.21-0.339-0.142-0.226-0.216-0.336-0.073-0.112-0.072-0.111-0.074-0.111-0.073-0.112-0.074-0.11-0.075-0.111-0.075-0.11-0.075-0.111-0.075-0.11-0.076-0.109-0.076-0.11-0.076-0.109-0.077-0.109-0.078-0.109-0.077-0.109-0.156-0.216-0.158-0.216-0.079-0.107-0.08-0.108-0.16-0.214-0.081-0.106-0.081-0.107-0.081-0.106-0.082-0.106-0.081-0.105-0.083-0.106-0.166-0.21-0.083-0.104-0.084-0.105-0.168-0.208-0.17-0.208-0.085-0.103-0.172-0.206-0.086-0.102-0.087-0.103-0.087-0.102-0.087-0.101-0.176-0.204-0.089-0.101-0.088-0.1-0.089-0.101-0.09-0.1-0.089-0.101-0.09-0.099-0.09-0.1-0.273-0.297-0.092-0.099-0.276-0.294-0.093-0.098-0.093-0.097-0.282-0.291-0.094-0.096-0.19-0.192-0.095-0.095-0.288-0.285-0.097-0.095-0.096-0.094-0.098-0.094-0.097-0.093-0.098-0.094-0.196-0.186-0.099-0.092-0.099-0.093-0.099-0.092-0.1-0.092-0.3-0.273-0.202-0.182-0.102-0.09-0.101-0.089-0.102-0.09-0.103-0.089-0.102-0.089-0.206-0.178-0.104-0.088-0.103-0.088-0.104-0.087-0.105-0.088-0.104-0.087-0.105-0.087-0.105-0.086-0.105-0.087-0.106-0.085-0.212-0.172-0.107-0.085-0.107-0.084-0.107-0.085-0.107-0.084-0.216-0.168-0.108-0.083-0.109-0.083-0.108-0.083-0.109-0.082-0.11-0.082-0.109-0.082-0.11-0.082-0.11-0.081-0.222-0.162-0.11-0.08-0.112-0.08-0.111-0.08-0.112-0.08-0.224-0.158-0.113-0.078-0.113-0.079-0.113-0.078-0.113-0.077-0.114-0.078-0.113-0.077-0.115-0.077-0.114-0.076-0.115-0.076-0.114-0.076-0.116-0.076-0.115-0.075-0.116-0.075-0.116-0.074-0.116-0.075-0.116-0.074-0.117-0.073-0.117-0.074-0.234-0.146-0.354-0.216-0.119-0.071-0.118-0.071-0.238-0.142-0.24-0.14-0.119-0.069-0.121-0.07-0.12-0.069-0.121-0.068-0.12-0.068-0.122-0.068-0.121-0.068-0.121-0.067-0.244-0.134-0.123-0.066-0.122-0.066-0.123-0.066-0.246-0.13-0.124-0.065-0.123-0.064-0.248-0.128-0.125-0.063-0.124-0.063-0.125-0.063-0.125-0.062-0.126-0.062-0.125-0.062-0.252-0.122-0.126-0.06-0.126-0.061-0.127-0.06-0.127-0.059-0.127-0.06-0.127-0.058-0.128-0.059-0.127-0.058-0.128-0.058-0.129-0.058-0.256-0.114-0.387-0.168-0.13-0.056-0.13-0.055-0.129-0.055-0.131-0.054-0.26-0.108-0.393-0.159-0.131-0.052-0.264-0.104-0.264-0.102-0.132-0.05-0.133-0.05-0.132-0.05-0.133-0.05-0.133-0.049-0.134-0.048-0.133-0.049-0.134-0.048-0.134-0.047-0.134-0.048-0.134-0.047-0.405-0.138-0.135-0.045-0.135-0.046-0.135-0.044-0.136-0.045-0.136-0.044-0.272-0.086-0.137-0.043-0.136-0.043-0.274-0.084-0.137-0.041-0.138-0.041-0.137-0.041-0.276-0.08-0.276-0.078-0.139-0.039-0.138-0.038-0.278-0.076-0.139-0.037-0.14-0.037-0.139-0.036-0.28-0.072-0.42-0.105-0.282-0.068-0.423-0.099-0.141-0.032-0.142-0.032-0.426-0.093-0.284-0.06-0.429-0.087-0.429-0.084-0.144-0.027-0.144-0.026-0.144-0.027-0.144-0.026-0.288-0.05-0.145-0.025-0.144-0.024-0.145-0.024-0.29-0.046-0.146-0.023-0.145-0.022-0.292-0.044-0.145-0.021-0.147-0.02-0.146-0.021-0.146-0.019-0.147-0.02-0.146-0.019-0.588-0.072-0.148-0.016-0.147-0.017-0.296-0.032-0.296-0.03-0.148-0.014-0.149-0.014-0.148-0.014-0.298-0.026-0.298-0.024-0.298-0.022-0.15-0.011-0.15-0.01-0.149-0.01-0.3-0.018-0.151-9e-3 -0.3-0.016-0.302-0.014-0.15-6e-3 -0.151-6e-3 -0.152-5e-3 -0.302-0.01-0.152-4e-3 -0.151-4e-3 -0.304-6e-3 -0.456-6e-3 -0.153-1e-3 -0.152-1e-3h-0.153-0.153z" fill-opacity=".086274"/>
            </g>
        </g>
        <path d="m16 35.068v0.068l1e-3 0.068 1e-3 0.067 2e-3 0.136 1e-3 0.067 2e-3 0.068 2e-3 0.067 2e-3 0.068 2e-3 0.067 3e-3 0.067 3e-3 0.068 2e-3 0.067 4e-3 0.067 3e-3 0.067 4e-3 0.067 3e-3 0.067 4e-3 0.067 5e-3 0.067 4e-3 0.067 5e-3 0.066 0.01 0.134 5e-3 0.066 6e-3 0.067 5e-3 0.066 6e-3 0.067 6e-3 0.066 7e-3 0.066 6e-3 0.067 0.021 0.198 8e-3 0.066 7e-3 0.066 0.016 0.132 8e-3 0.065 0.018 0.132 8e-3 0.065 9e-3 0.066 0.01 0.065 9e-3 0.066 0.04 0.26 0.011 0.065 0.01 0.065 0.022 0.13 0.012 0.065 0.011 0.065 0.012 0.064 0.012 0.065 0.012 0.064 0.012 0.065 0.013 0.064 0.013 0.065 0.039 0.192 0.014 0.064 0.013 0.064 0.028 0.128 0.015 0.063 0.014 0.064 0.015 0.064 0.015 0.063 0.015 0.064 0.015 0.063 0.032 0.126 0.015 0.064 0.017 0.063 0.032 0.126 0.017 0.062 0.051 0.189 0.018 0.062 0.017 0.063 0.054 0.186 0.019 0.063 0.018 0.062 0.038 0.124 0.019 0.061 0.02 0.062 0.019 0.062 0.02 0.061 0.02 0.062 0.02 0.061 0.02 0.062 0.042 0.122 0.02 0.061 0.021 0.061 0.022 0.061 0.021 0.061 0.022 0.061 0.021 0.061 0.022 0.06 0.023 0.061 0.022 0.06 0.023 0.06 0.022 0.061 0.069 0.18 0.048 0.12 0.023 0.059 0.048 0.12 0.025 0.059 0.024 0.059 0.025 0.06 0.075 0.177 0.026 0.059 0.025 0.059 0.026 0.058 0.052 0.118 0.026 0.058 0.027 0.058 0.027 0.059 0.026 0.058 0.027 0.058 0.028 0.058 0.027 0.058 0.028 0.058 0.027 0.057 0.056 0.116 0.028 0.057 0.029 0.057 0.028 0.058 0.087 0.171 0.03 0.056 0.029 0.057 0.03 0.057 0.029 0.056 0.03 0.057 0.03 0.056 0.031 0.056 0.03 0.057 0.062 0.112 0.031 0.055 0.062 0.112 0.031 0.055 0.032 0.056 0.128 0.22 0.033 0.055 0.032 0.055 0.033 0.055 0.033 0.054 0.033 0.055 0.033 0.054 0.034 0.055 0.033 0.054 0.102 0.162 0.035 0.053 0.068 0.108 0.07 0.106 0.035 0.054 0.035 0.053 0.036 0.053 0.035 0.053 0.036 0.052 0.036 0.053 0.036 0.052 0.036 0.053 0.036 0.052 0.037 0.052 0.036 0.053 0.037 0.051 0.111 0.156 0.038 0.051 0.037 0.052 0.152 0.204 0.039 0.051 0.038 0.051 0.039 0.05 0.038 0.051 0.078 0.1 0.04 0.051 0.039 0.05 0.04 0.049 0.039 0.05 0.04 0.05 0.04 0.049 0.04 0.05 0.041 0.049 0.04 0.049 0.041 0.049 0.04 0.049 0.082 0.098 0.041 0.048 0.042 0.049 0.041 0.048 0.042 0.048 0.041 0.048 0.084 0.096 0.043 0.048 0.042 0.047 0.042 0.048 0.258 0.282 0.044 0.046 0.043 0.047 0.22 0.23 0.045 0.046 0.044 0.045 0.045 0.046 0.18 0.18 0.046 0.045 0.045 0.044 0.046 0.045 0.23 0.22 0.047 0.044 0.046 0.043 0.047 0.044 0.188 0.172 0.048 0.043 0.047 0.042 0.048 0.043 0.24 0.21 0.049 0.042 0.048 0.041 0.049 0.041 0.049 0.042 0.098 0.082 0.049 0.04 0.05 0.041 0.049 0.041 0.05 0.04 0.049 0.04 0.2 0.16 0.051 0.039 0.05 0.039 0.051 0.04 0.051 0.039 0.05 0.039 0.051 0.038 0.051 0.039 0.052 0.038 0.051 0.039 0.051 0.038 0.104 0.076 0.051 0.037 0.104 0.076 0.053 0.037 0.104 0.074 0.053 0.037 0.052 0.036 0.053 0.037 0.053 0.036 0.053 0.037 0.106 0.072 0.054 0.035 0.053 0.036 0.054 0.035 0.053 0.036 0.216 0.14 0.054 0.034 0.055 0.034 0.054 0.035 0.11 0.068 0.054 0.033 0.11 0.068 0.055 0.033 0.056 0.033 0.11 0.066 0.056 0.032 0.056 0.033 0.056 0.032 0.055 0.032 0.056 0.032 0.057 0.032 0.112 0.064 0.057 0.031 0.056 0.031 0.057 0.031 0.056 0.031 0.057 0.031 0.057 0.03 0.057 0.031 0.058 0.03 0.114 0.06 0.058 0.03 0.057 0.029 0.058 0.03 0.232 0.116 0.058 0.028 0.058 0.029 0.059 0.028 0.058 0.028 0.059 0.028 0.058 0.028 0.059 0.027 0.059 0.028 0.177 0.081 0.06 0.027 0.059 0.026 0.059 0.027 0.12 0.052 0.059 0.026 0.06 0.026 0.12 0.05 0.06 0.026 0.061 0.025 0.06 0.024 0.06 0.025 0.061 0.025 0.06 0.024 0.183 0.072 0.061 0.023 0.061 0.024 0.122 0.046 0.062 0.023 0.061 0.023 0.061 0.022 0.062 0.023 0.124 0.044 0.061 0.022 0.062 0.021 0.062 0.022 0.063 0.021 0.186 0.063 0.063 0.02 0.062 0.021 0.189 0.06 0.062 0.019 0.063 0.02 0.064 0.019 0.189 0.057 0.064 0.018 0.063 0.019 0.064 0.018 0.063 0.018 0.064 0.018 0.064 0.017 0.064 0.018 0.256 0.068 0.128 0.032 0.065 0.016 0.064 0.016 0.13 0.032 0.064 0.015 0.195 0.045 0.065 0.014 0.065 0.015 0.065 0.014 0.066 0.014 0.065 0.014 0.065 0.013 0.066 0.014 0.065 0.013 0.132 0.026 0.065 0.013 0.33 0.06 0.066 0.011 0.067 0.011 0.066 0.012 0.066 0.01 0.067 0.011 0.066 0.011 0.134 0.02 0.066 0.01 0.067 9e-3 0.067 0.01 0.268 0.036 0.067 8e-3 0.068 8e-3 0.134 0.016 0.068 8e-3 0.067 7e-3 0.068 8e-3 0.067 7e-3 0.068 6e-3 0.136 0.014 0.068 6e-3 0.067 6e-3 0.068 6e-3 0.069 5e-3 0.068 6e-3 0.136 0.01 0.068 4e-3 0.069 5e-3 0.068 4e-3 0.069 4e-3 0.068 4e-3 0.069 4e-3 0.068 4e-3 0.207 9e-3 0.068 3e-3 0.276 8e-3 0.07 2e-3 0.207 3e-3 0.07 1e-3 0.069 1e-3h0.069 0.07 0.07 0.069l0.069-1e-3 0.07-1e-3 0.207-3e-3 0.07-2e-3 0.276-8e-3 0.068-3e-3 0.207-9e-3 0.068-4e-3 0.069-4e-3 0.068-4e-3 0.069-4e-3 0.068-4e-3 0.069-5e-3 0.068-4e-3 0.136-0.01 0.068-6e-3 0.069-5e-3 0.068-6e-3 0.067-6e-3 0.068-6e-3 0.136-0.014 0.068-6e-3 0.067-7e-3 0.068-8e-3 0.067-7e-3 0.068-8e-3 0.134-0.016 0.068-8e-3 0.067-8e-3 0.268-0.036 0.067-0.01 0.067-9e-3 0.066-0.01 0.134-0.02 0.066-0.011 0.067-0.011 0.066-0.01 0.066-0.012 0.067-0.011 0.066-0.011 0.33-0.06 0.065-0.013 0.132-0.026 0.065-0.013 0.066-0.014 0.065-0.013 0.065-0.014 0.066-0.014 0.065-0.014 0.065-0.015 0.065-0.014 0.195-0.045 0.064-0.015 0.13-0.032 0.064-0.016 0.065-0.016 0.128-0.032 0.256-0.068 0.064-0.018 0.064-0.017 0.064-0.018 0.063-0.018 0.064-0.018 0.063-0.019 0.064-0.018 0.189-0.057 0.064-0.019 0.063-0.02 0.062-0.019 0.189-0.06 0.062-0.021 0.063-0.02 0.186-0.063 0.063-0.021 0.062-0.022 0.062-0.021 0.061-0.022 0.124-0.044 0.062-0.023 0.061-0.022 0.061-0.023 0.062-0.023 0.122-0.046 0.061-0.024 0.061-0.023 0.183-0.072 0.06-0.024 0.061-0.025 0.06-0.025 0.06-0.024 0.061-0.025 0.06-0.026 0.12-0.05 0.06-0.026 0.059-0.026 0.12-0.052 0.059-0.027 0.059-0.026 0.06-0.027 0.177-0.081 0.059-0.028 0.059-0.027 0.058-0.028 0.059-0.028 0.058-0.028 0.059-0.028 0.058-0.029 0.058-0.028 0.232-0.116 0.058-0.03 0.057-0.029 0.058-0.03 0.114-0.06 0.058-0.03 0.057-0.031 0.057-0.03 0.057-0.031 0.056-0.031 0.057-0.031 0.056-0.031 0.057-0.031 0.112-0.064 0.057-0.032 0.056-0.032 0.055-0.032 0.056-0.032 0.056-0.033 0.056-0.032 0.11-0.066 0.056-0.033 0.055-0.033 0.11-0.068 0.054-0.033 0.11-0.068 0.054-0.035 0.055-0.034 0.054-0.034 0.216-0.14 0.053-0.036 0.054-0.035 0.053-0.036 0.054-0.035 0.106-0.072 0.053-0.037 0.053-0.036 0.053-0.037 0.052-0.036 0.053-0.037 0.104-0.074 0.053-0.037 0.104-0.076 0.051-0.037 0.104-0.076 0.051-0.038 0.051-0.039 0.052-0.038 0.051-0.039 0.051-0.038 0.05-0.039 0.051-0.039 0.051-0.04 0.05-0.039 0.051-0.039 0.2-0.16 0.049-0.04 0.05-0.04 0.049-0.041 0.05-0.041 0.049-0.04 0.098-0.082 0.049-0.042 0.049-0.041 0.048-0.041 0.049-0.042 0.24-0.21 0.048-0.043 0.047-0.042 0.048-0.043 0.188-0.172 0.047-0.044 0.046-0.043 0.047-0.044 0.23-0.22 0.046-0.045 0.045-0.044 0.046-0.045 0.18-0.18 0.045-0.046 0.044-0.045 0.045-0.046 0.22-0.23 0.043-0.047 0.044-0.046 0.258-0.282 0.042-0.048 0.042-0.047 0.043-0.048 0.084-0.096 0.041-0.048 0.042-0.048 0.041-0.048 0.042-0.049 0.041-0.048 0.082-0.098 0.04-0.049 0.041-0.049 0.04-0.049 0.041-0.049 0.04-0.05 0.04-0.049 0.04-0.05 0.039-0.05 0.04-0.049 0.039-0.05 0.04-0.051 0.078-0.1 0.038-0.051 0.039-0.05 0.038-0.051 0.039-0.051 0.152-0.204 0.037-0.052 0.038-0.051 0.111-0.156 0.037-0.051 0.036-0.053 0.037-0.052 0.036-0.052 0.036-0.053 0.036-0.052 0.036-0.053 0.036-0.052 0.035-0.053 0.036-0.053 0.035-0.053 0.035-0.054 0.07-0.106 0.068-0.108 0.035-0.053 0.102-0.162 0.033-0.054 0.034-0.055 0.033-0.054 0.033-0.055 0.033-0.054 0.033-0.055 0.032-0.055 0.033-0.055 0.128-0.22 0.032-0.056 0.031-0.055 0.062-0.112 0.031-0.055 0.062-0.112 0.03-0.057 0.031-0.056 0.03-0.056 0.03-0.057 0.029-0.056 0.03-0.057 0.029-0.057 0.03-0.056 0.087-0.171 0.028-0.058 0.029-0.057 0.028-0.057 0.056-0.116 0.027-0.057 0.028-0.058 0.027-0.058 0.028-0.058 0.027-0.058 0.026-0.058 0.027-0.059 0.027-0.058 0.026-0.058 0.052-0.118 0.026-0.058 0.025-0.059 0.026-0.059 0.075-0.177 0.025-0.06 0.024-0.059 0.025-0.059 0.048-0.12 0.023-0.059 0.048-0.12 0.069-0.18 0.022-0.061 0.023-0.06 0.022-0.06 0.023-0.061 0.022-0.06 0.021-0.061 0.022-0.061 0.021-0.061 0.022-0.061 0.021-0.061 0.02-0.061 0.042-0.122 0.02-0.062 0.02-0.061 0.02-0.062 0.02-0.061 0.019-0.062 0.02-0.062 0.019-0.061 0.038-0.124 0.018-0.062 0.019-0.063 0.054-0.186 0.017-0.063 0.018-0.062 0.051-0.189 0.017-0.062 0.032-0.126 0.017-0.063 0.015-0.064 0.032-0.126 0.015-0.063 0.015-0.064 0.015-0.063 0.015-0.064 0.014-0.064 0.015-0.063 0.028-0.128 0.013-0.064 0.014-0.064 0.039-0.192 0.013-0.065 0.013-0.064 0.012-0.065 0.012-0.064 0.012-0.065 0.012-0.064 0.011-0.065 0.012-0.065 0.022-0.13 0.01-0.065 0.011-0.065 0.04-0.26 9e-3 -0.066 0.01-0.065 9e-3 -0.066 8e-3 -0.065 0.018-0.132 8e-3 -0.065 0.016-0.132 7e-3 -0.066 8e-3 -0.066 0.021-0.198 6e-3 -0.067 7e-3 -0.066 6e-3 -0.066 6e-3 -0.067 5e-3 -0.066 6e-3 -0.067 5e-3 -0.066 0.01-0.134 5e-3 -0.066 4e-3 -0.067 5e-3 -0.067 4e-3 -0.067 3e-3 -0.067 4e-3 -0.067 3e-3 -0.067 4e-3 -0.067 2e-3 -0.067 3e-3 -0.068 3e-3 -0.067 2e-3 -0.067 2e-3 -0.068 2e-3 -0.067 2e-3 -0.068 1e-3 -0.067 2e-3 -0.136 1e-3 -0.067 1e-3 -0.068v-0.068-0.068-0.068-0.068l-1e-3 -0.068-1e-3 -0.067-2e-3 -0.136-1e-3 -0.067-2e-3 -0.068-2e-3 -0.067-2e-3 -0.068-2e-3 -0.067-3e-3 -0.067-3e-3 -0.068-2e-3 -0.067-4e-3 -0.067-3e-3 -0.067-4e-3 -0.067-3e-3 -0.067-4e-3 -0.067-5e-3 -0.067-4e-3 -0.067-5e-3 -0.066-0.01-0.134-5e-3 -0.066-6e-3 -0.067-5e-3 -0.066-6e-3 -0.067-6e-3 -0.066-7e-3 -0.066-6e-3 -0.067-0.021-0.198-8e-3 -0.066-7e-3 -0.066-0.016-0.132-8e-3 -0.065-0.018-0.132-8e-3 -0.065-9e-3 -0.066-0.01-0.065-9e-3 -0.066-0.04-0.26-0.011-0.065-0.01-0.065-0.022-0.13-0.012-0.065-0.011-0.065-0.012-0.064-0.012-0.065-0.012-0.064-0.012-0.065-0.013-0.064-0.013-0.065-0.039-0.192-0.014-0.064-0.013-0.064-0.028-0.128-0.015-0.063-0.014-0.064-0.015-0.064-0.015-0.063-0.015-0.064-0.015-0.063-0.032-0.126-0.015-0.064-0.017-0.063-0.032-0.126-0.017-0.062-0.051-0.189-0.018-0.062-0.017-0.063-0.054-0.186-0.019-0.063-0.018-0.062-0.038-0.124-0.019-0.061-0.02-0.062-0.019-0.062-0.02-0.061-0.02-0.062-0.02-0.061-0.02-0.062-0.042-0.122-0.02-0.061-0.021-0.061-0.022-0.061-0.021-0.061-0.022-0.061-0.021-0.061-0.022-0.06-0.023-0.061-0.022-0.06-0.023-0.06-0.022-0.061-0.069-0.18-0.048-0.12-0.023-0.059-0.048-0.12-0.025-0.059-0.024-0.059-0.025-0.06-0.075-0.177-0.026-0.059-0.025-0.059-0.026-0.058-0.052-0.118-0.026-0.058-0.027-0.058-0.027-0.059-0.026-0.058-0.027-0.058-0.028-0.058-0.027-0.058-0.028-0.058-0.027-0.057-0.056-0.116-0.028-0.057-0.029-0.057-0.028-0.058-0.087-0.171-0.03-0.056-0.029-0.057-0.03-0.057-0.029-0.056-0.03-0.057-0.03-0.056-0.031-0.056-0.03-0.057-0.062-0.112-0.031-0.055-0.062-0.112-0.031-0.055-0.032-0.056-0.128-0.22-0.033-0.055-0.032-0.055-0.033-0.055-0.033-0.054-0.033-0.055-0.033-0.054-0.034-0.055-0.033-0.054-0.102-0.162-0.035-0.053-0.068-0.108-0.07-0.106-0.035-0.054-0.035-0.053-0.036-0.053-0.035-0.053-0.036-0.052-0.036-0.053-0.036-0.052-0.036-0.053-0.036-0.052-0.037-0.052-0.036-0.053-0.037-0.051-0.111-0.156-0.038-0.051-0.037-0.052-0.152-0.204-0.039-0.051-0.038-0.051-0.039-0.05-0.038-0.051-0.078-0.1-0.04-0.051-0.039-0.05-0.04-0.049-0.039-0.05-0.04-0.05-0.04-0.049-0.04-0.05-0.041-0.049-0.04-0.049-0.041-0.049-0.04-0.049-0.082-0.098-0.041-0.048-0.042-0.049-0.041-0.048-0.042-0.048-0.041-0.048-0.084-0.096-0.043-0.048-0.042-0.047-0.042-0.048-0.258-0.282-0.044-0.046-0.043-0.047-0.22-0.23-0.045-0.046-0.044-0.045-0.045-0.046-0.18-0.18-0.046-0.045-0.045-0.044-0.046-0.045-0.23-0.22-0.047-0.044-0.046-0.043-0.047-0.044-0.188-0.172-0.048-0.043-0.047-0.042-0.048-0.043-0.24-0.21-0.049-0.042-0.048-0.041-0.049-0.041-0.049-0.042-0.098-0.082-0.049-0.04-0.05-0.041-0.049-0.041-0.05-0.04-0.049-0.04-0.2-0.16-0.051-0.039-0.05-0.039-0.051-0.04-0.051-0.039-0.05-0.039-0.051-0.038-0.051-0.039-0.052-0.038-0.051-0.039-0.051-0.038-0.104-0.076-0.051-0.037-0.104-0.076-0.053-0.037-0.104-0.074-0.053-0.037-0.052-0.036-0.053-0.037-0.053-0.036-0.053-0.037-0.106-0.072-0.054-0.035-0.053-0.036-0.054-0.035-0.053-0.036-0.216-0.14-0.054-0.034-0.055-0.034-0.054-0.035-0.11-0.068-0.054-0.033-0.11-0.068-0.055-0.033-0.056-0.033-0.11-0.066-0.056-0.032-0.056-0.033-0.056-0.032-0.055-0.032-0.056-0.032-0.057-0.032-0.112-0.064-0.057-0.031-0.056-0.031-0.057-0.031-0.056-0.031-0.057-0.031-0.057-0.03-0.057-0.031-0.058-0.03-0.114-0.06-0.058-0.03-0.057-0.029-0.058-0.03-0.232-0.116-0.058-0.028-0.058-0.029-0.059-0.028-0.058-0.028-0.059-0.028-0.058-0.028-0.059-0.027-0.059-0.028-0.177-0.081-0.06-0.027-0.059-0.026-0.059-0.027-0.12-0.052-0.059-0.026-0.06-0.026-0.12-0.05-0.06-0.026-0.061-0.025-0.06-0.024-0.06-0.025-0.061-0.025-0.06-0.024-0.183-0.072-0.061-0.023-0.061-0.024-0.122-0.046-0.062-0.023-0.061-0.023-0.061-0.022-0.062-0.023-0.124-0.044-0.061-0.022-0.062-0.021-0.062-0.022-0.063-0.021-0.186-0.063-0.063-0.02-0.062-0.021-0.189-0.06-0.062-0.019-0.063-0.02-0.064-0.019-0.189-0.057-0.064-0.018-0.063-0.019-0.064-0.018-0.063-0.018-0.064-0.018-0.064-0.017-0.064-0.018-0.256-0.068-0.128-0.032-0.065-0.016-0.064-0.016-0.13-0.032-0.064-0.015-0.195-0.045-0.065-0.014-0.065-0.015-0.065-0.014-0.066-0.014-0.065-0.014-0.065-0.013-0.066-0.014-0.065-0.013-0.132-0.026-0.065-0.013-0.33-0.06-0.066-0.011-0.067-0.011-0.066-0.012-0.066-0.01-0.067-0.011-0.066-0.011-0.134-0.02-0.066-0.01-0.067-9e-3 -0.067-0.01-0.268-0.036-0.067-8e-3 -0.068-8e-3 -0.134-0.016-0.068-8e-3 -0.067-7e-3 -0.068-8e-3 -0.067-7e-3 -0.068-6e-3 -0.136-0.014-0.068-6e-3 -0.067-6e-3 -0.068-6e-3 -0.069-5e-3 -0.068-6e-3 -0.136-0.01-0.068-4e-3 -0.069-5e-3 -0.068-4e-3 -0.069-4e-3 -0.068-4e-3 -0.069-4e-3 -0.068-4e-3 -0.207-9e-3 -0.068-3e-3 -0.276-8e-3 -0.07-2e-3 -0.207-3e-3 -0.07-1e-3 -0.069-1e-3h-0.069-0.07-0.07-0.069l-0.069 1e-3 -0.07 1e-3 -0.207 3e-3 -0.07 2e-3 -0.276 8e-3 -0.068 3e-3 -0.207 9e-3 -0.068 4e-3 -0.069 4e-3 -0.068 4e-3 -0.069 4e-3 -0.068 4e-3 -0.069 5e-3 -0.068 4e-3 -0.136 0.01-0.068 6e-3 -0.069 5e-3 -0.068 6e-3 -0.067 6e-3 -0.068 6e-3 -0.136 0.014-0.068 6e-3 -0.067 7e-3 -0.068 8e-3 -0.067 7e-3 -0.068 8e-3 -0.134 0.016-0.068 8e-3 -0.067 8e-3 -0.268 0.036-0.067 0.01-0.067 9e-3 -0.066 0.01-0.134 0.02-0.066 0.011-0.067 0.011-0.066 0.01-0.066 0.012-0.067 0.011-0.066 0.011-0.33 0.06-0.065 0.013-0.132 0.026-0.065 0.013-0.066 0.014-0.065 0.013-0.065 0.014-0.066 0.014-0.065 0.014-0.065 0.015-0.065 0.014-0.195 0.045-0.064 0.015-0.13 0.032-0.064 0.016-0.065 0.016-0.128 0.032-0.256 0.068-0.064 0.018-0.064 0.017-0.064 0.018-0.063 0.018-0.064 0.018-0.063 0.019-0.064 0.018-0.189 0.057-0.064 0.019-0.063 0.02-0.062 0.019-0.189 0.06-0.062 0.021-0.063 0.02-0.186 0.063-0.063 0.021-0.062 0.022-0.062 0.021-0.061 0.022-0.124 0.044-0.062 0.023-0.061 0.022-0.061 0.023-0.062 0.023-0.122 0.046-0.061 0.024-0.061 0.023-0.183 0.072-0.06 0.024-0.061 0.025-0.06 0.025-0.06 0.024-0.061 0.025-0.06 0.026-0.12 0.05-0.06 0.026-0.059 0.026-0.12 0.052-0.059 0.027-0.059 0.026-0.06 0.027-0.177 0.081-0.059 0.028-0.059 0.027-0.058 0.028-0.059 0.028-0.058 0.028-0.059 0.028-0.058 0.029-0.058 0.028-0.232 0.116-0.058 0.03-0.057 0.029-0.058 0.03-0.114 0.06-0.058 0.03-0.057 0.031-0.057 0.03-0.057 0.031-0.056 0.031-0.057 0.031-0.056 0.031-0.057 0.031-0.112 0.064-0.057 0.032-0.056 0.032-0.055 0.032-0.056 0.032-0.056 0.033-0.056 0.032-0.11 0.066-0.056 0.033-0.055 0.033-0.11 0.068-0.054 0.033-0.11 0.068-0.054 0.035-0.055 0.034-0.054 0.034-0.216 0.14-0.053 0.036-0.054 0.035-0.053 0.036-0.054 0.035-0.106 0.072-0.053 0.037-0.053 0.036-0.053 0.037-0.052 0.036-0.053 0.037-0.104 0.074-0.053 0.037-0.104 0.076-0.051 0.037-0.104 0.076-0.051 0.038-0.051 0.039-0.052 0.038-0.051 0.039-0.051 0.038-0.05 0.039-0.051 0.039-0.051 0.04-0.05 0.039-0.051 0.039-0.2 0.16-0.049 0.04-0.05 0.04-0.049 0.041-0.05 0.041-0.049 0.04-0.098 0.082-0.049 0.042-0.049 0.041-0.048 0.041-0.049 0.042-0.24 0.21-0.048 0.043-0.047 0.042-0.048 0.043-0.188 0.172-0.047 0.044-0.046 0.043-0.047 0.044-0.23 0.22-0.046 0.045-0.045 0.044-0.046 0.045-0.18 0.18-0.045 0.046-0.044 0.045-0.045 0.046-0.22 0.23-0.043 0.047-0.044 0.046-0.258 0.282-0.042 0.048-0.042 0.047-0.043 0.048-0.084 0.096-0.041 0.048-0.042 0.048-0.041 0.048-0.042 0.049-0.041 0.048-0.082 0.098-0.04 0.049-0.041 0.049-0.04 0.049-0.041 0.049-0.04 0.05-0.04 0.049-0.04 0.05-0.039 0.05-0.04 0.049-0.039 0.05-0.04 0.051-0.078 0.1-0.038 0.051-0.039 0.05-0.038 0.051-0.039 0.051-0.152 0.204-0.037 0.052-0.038 0.051-0.111 0.156-0.037 0.051-0.036 0.053-0.037 0.052-0.036 0.052-0.036 0.053-0.036 0.052-0.036 0.053-0.036 0.052-0.035 0.053-0.036 0.053-0.035 0.053-0.035 0.054-0.07 0.106-0.068 0.108-0.035 0.053-0.102 0.162-0.033 0.054-0.034 0.055-0.033 0.054-0.033 0.055-0.033 0.054-0.033 0.055-0.032 0.055-0.033 0.055-0.128 0.22-0.032 0.056-0.031 0.055-0.062 0.112-0.031 0.055-0.062 0.112-0.03 0.057-0.031 0.056-0.03 0.056-0.03 0.057-0.029 0.056-0.03 0.057-0.029 0.057-0.03 0.056-0.087 0.171-0.028 0.058-0.029 0.057-0.028 0.057-0.056 0.116-0.027 0.057-0.028 0.058-0.027 0.058-0.028 0.058-0.027 0.058-0.026 0.058-0.027 0.059-0.027 0.058-0.026 0.058-0.052 0.118-0.026 0.058-0.025 0.059-0.026 0.059-0.075 0.177-0.025 0.06-0.024 0.059-0.025 0.059-0.048 0.12-0.023 0.059-0.048 0.12-0.069 0.18-0.022 0.061-0.023 0.06-0.022 0.06-0.023 0.061-0.022 0.06-0.021 0.061-0.022 0.061-0.021 0.061-0.022 0.061-0.021 0.061-0.02 0.061-0.042 0.122-0.02 0.062-0.02 0.061-0.02 0.062-0.02 0.061-0.019 0.062-0.02 0.062-0.019 0.061-0.038 0.124-0.018 0.062-0.019 0.063-0.054 0.186-0.017 0.063-0.018 0.062-0.051 0.189-0.017 0.062-0.032 0.126-0.017 0.063-0.015 0.064-0.032 0.126-0.015 0.063-0.015 0.064-0.015 0.063-0.015 0.064-0.014 0.064-0.015 0.063-0.028 0.128-0.013 0.064-0.014 0.064-0.039 0.192-0.013 0.065-0.013 0.064-0.012 0.065-0.012 0.064-0.012 0.065-0.012 0.064-0.011 0.065-0.012 0.065-0.022 0.13-0.01 0.065-0.011 0.065-0.04 0.26-9e-3 0.066-0.01 0.065-9e-3 0.066-8e-3 0.065-0.018 0.132-8e-3 0.065-0.016 0.132-7e-3 0.066-8e-3 0.066-0.021 0.198-6e-3 0.067-7e-3 0.066-6e-3 0.066-6e-3 0.067-5e-3 0.066-6e-3 0.067-5e-3 0.066-0.01 0.134-5e-3 0.066-4e-3 0.067-5e-3 0.067-4e-3 0.067-3e-3 0.067-4e-3 0.067-3e-3 0.067-4e-3 0.067-2e-3 0.067-3e-3 0.068-3e-3 0.067-2e-3 0.067-2e-3 0.068-2e-3 0.067-2e-3 0.068-1e-3 0.067-2e-3 0.136-1e-3 0.067-1e-3 0.068v0.068 0.068 0.068zm1.008-0.133v-0.064l1e-3 -0.065v-0.065l1e-3 -0.064 2e-3 -0.065 1e-3 -0.064 2e-3 -0.065 1e-3 -0.064 2e-3 -0.064 2e-3 -0.065 3e-3 -0.064 2e-3 -0.064 6e-3 -0.128 4e-3 -0.064 3e-3 -0.064 4e-3 -0.064 3e-3 -0.064 4e-3 -0.063 5e-3 -0.064 4e-3 -0.064 5e-3 -0.063 5e-3 -0.064 5e-3 -0.063 5e-3 -0.064 5e-3 -0.063 6e-3 -0.064 0.018-0.189 7e-3 -0.063 6e-3 -0.063 0.014-0.126 8e-3 -0.063 7e-3 -0.063 8e-3 -0.063 8e-3 -0.062 8e-3 -0.063 8e-3 -0.062 8e-3 -0.063 9e-3 -0.062 9e-3 -0.063 0.018-0.124 0.01-0.062 9e-3 -0.062 0.03-0.186 0.011-0.062 0.01-0.062 0.011-0.062 0.011-0.061 0.011-0.062 0.012-0.062 0.011-0.061 0.012-0.061 0.012-0.062 0.024-0.122 0.013-0.061 0.012-0.061 0.026-0.122 0.014-0.061 0.013-0.061 0.014-0.061 0.014-0.06 0.028-0.122 0.014-0.06 0.015-0.06 0.015-0.061 0.045-0.18 0.016-0.06 0.015-0.06 0.032-0.12 0.017-0.06 0.016-0.059 0.017-0.06 0.016-0.059 0.017-0.06 0.018-0.059 0.017-0.059 0.018-0.06 0.017-0.059 0.054-0.177 0.019-0.059 0.019-0.058 0.018-0.059 0.019-0.059 0.019-0.058 0.02-0.059 0.019-0.058 0.04-0.116 0.02-0.059 0.02-0.058 0.021-0.058 0.02-0.057 0.063-0.174 0.021-0.057 0.022-0.058 0.021-0.057 0.022-0.057 0.022-0.058 0.022-0.057 0.023-0.057 0.022-0.057 0.046-0.114 0.023-0.056 0.046-0.114 0.048-0.112 0.024-0.057 0.072-0.168 0.025-0.056 0.024-0.056 0.05-0.112 0.026-0.055 0.025-0.056 0.026-0.055 0.025-0.056 0.052-0.11 0.027-0.055 0.026-0.055 0.027-0.055 0.026-0.055 0.027-0.054 0.027-0.055 0.028-0.055 0.027-0.054 0.028-0.054 0.027-0.055 0.084-0.162 0.029-0.054 0.028-0.054 0.029-0.053 0.029-0.054 0.029-0.053 0.029-0.054 0.03-0.053 0.029-0.053 0.06-0.106 0.029-0.053 0.031-0.053 0.06-0.106 0.031-0.052 0.031-0.053 0.124-0.208 0.096-0.156 0.032-0.051 0.032-0.052 0.032-0.051 0.033-0.052 0.032-0.051 0.132-0.204 0.034-0.051 0.033-0.05 0.034-0.051 0.068-0.1 0.034-0.051 0.034-0.05 0.07-0.1 0.034-0.049 0.07-0.1 0.036-0.049 0.035-0.049 0.035-0.05 0.108-0.147 0.036-0.048 0.036-0.049 0.037-0.049 0.036-0.048 0.037-0.048 0.037-0.049 0.111-0.144 0.037-0.047 0.076-0.096 0.037-0.047 0.038-0.048 0.039-0.047 0.076-0.094 0.039-0.047 0.038-0.046 0.078-0.094 0.039-0.046 0.04-0.046 0.039-0.047 0.04-0.046 0.039-0.046 0.04-0.045 0.08-0.092 0.04-0.045 0.041-0.046 0.04-0.045 0.041-0.045 0.04-0.045 0.082-0.09 0.042-0.044 0.041-0.045 0.041-0.044 0.042-0.044 0.042-0.045 0.041-0.044 0.042-0.043 0.043-0.044 0.042-0.044 0.042-0.043 0.043-0.044 0.042-0.043 0.215-0.215 0.044-0.042 0.043-0.043 0.22-0.21 0.044-0.041 0.045-0.042 0.044-0.041 0.045-0.042 0.135-0.123 0.045-0.04 0.045-0.041 0.046-0.04 0.046-0.041 0.045-0.04 0.184-0.16 0.047-0.039 0.046-0.039 0.047-0.04 0.046-0.039 0.141-0.117 0.047-0.038 0.047-0.039 0.048-0.038 0.047-0.038 0.192-0.152 0.096-0.074 0.048-0.038 0.049-0.037 0.048-0.037 0.049-0.037 0.049-0.036 0.049-0.037 0.098-0.072 0.049-0.037 0.05-0.035 0.049-0.036 0.1-0.072 0.049-0.035 0.1-0.07 0.051-0.035 0.1-0.07 0.051-0.034 0.05-0.035 0.255-0.17 0.051-0.033 0.052-0.033 0.051-0.034 0.104-0.066 0.051-0.032 0.104-0.066 0.052-0.032 0.053-0.032 0.052-0.032 0.053-0.032 0.052-0.032 0.053-0.031 0.052-0.032 0.159-0.093 0.054-0.031 0.053-0.031 0.053-0.03 0.054-0.031 0.053-0.03 0.162-0.09 0.054-0.029 0.054-0.03 0.108-0.058 0.055-0.029 0.054-0.029 0.055-0.028 0.054-0.029 0.055-0.028 0.055-0.029 0.055-0.028 0.055-0.027 0.055-0.028 0.056-0.028 0.11-0.054 0.112-0.054 0.055-0.027 0.056-0.027 0.112-0.052 0.056-0.027 0.056-0.026 0.057-0.025 0.056-0.026 0.057-0.025 0.056-0.026 0.114-0.05 0.056-0.025 0.057-0.024 0.057-0.025 0.058-0.024 0.171-0.072 0.058-0.024 0.057-0.023 0.058-0.024 0.174-0.069 0.058-0.022 0.058-0.023 0.174-0.066 0.059-0.022 0.058-0.022 0.118-0.042 0.059-0.022 0.058-0.021 0.059-0.02 0.059-0.021 0.059-0.02 0.06-0.021 0.118-0.04 0.06-0.019 0.059-0.02 0.06-0.02 0.059-0.019 0.12-0.038 0.06-0.018 0.06-0.019 0.06-0.018 0.06-0.019 0.06-0.018 0.061-0.017 0.06-0.018 0.061-0.018 0.06-0.017 0.122-0.034 0.06-0.017 0.061-0.016 0.061-0.017 0.183-0.048 0.062-0.016 0.122-0.03 0.062-0.016 0.061-0.015 0.062-0.014 0.061-0.015 0.062-0.014 0.062-0.015 0.124-0.028 0.062-0.013 0.062-0.014 0.124-0.026 0.063-0.013 0.062-0.013 0.063-0.013 0.062-0.012 0.063-0.012 0.062-0.012 0.126-0.024 0.063-0.011 0.063-0.012 0.126-0.022 0.063-0.01 0.063-0.011 0.063-0.01 0.064-0.01 0.126-0.02 0.064-0.01 0.064-9e-3 0.063-9e-3 0.192-0.027 0.064-8e-3 0.063-9e-3 0.065-8e-3 0.064-8e-3 0.064-7e-3 0.064-8e-3 0.064-7e-3 0.065-7e-3 0.128-0.014 0.13-0.012 0.064-7e-3 0.065-6e-3 0.065-5e-3 0.065-6e-3 0.064-5e-3 0.195-0.015 0.066-4e-3 0.065-5e-3 0.13-8e-3 0.066-4e-3 0.065-3e-3 0.065-4e-3 0.066-3e-3 0.065-3e-3 0.066-2e-3 0.066-3e-3 0.065-2e-3 0.264-8e-3 0.264-4e-3h0.066l0.067-1e-3h0.066 0.066l0.067 1e-3h0.066l0.264 4e-3 0.264 8e-3 0.065 2e-3 0.066 3e-3 0.066 2e-3 0.065 3e-3 0.066 3e-3 0.065 4e-3 0.065 3e-3 0.066 4e-3 0.13 8e-3 0.065 5e-3 0.066 4e-3 0.195 0.015 0.064 5e-3 0.065 6e-3 0.065 5e-3 0.065 6e-3 0.064 7e-3 0.13 0.012 0.128 0.014 0.065 7e-3 0.064 7e-3 0.064 8e-3 0.064 7e-3 0.064 8e-3 0.065 8e-3 0.063 9e-3 0.064 8e-3 0.192 0.027 0.063 9e-3 0.064 9e-3 0.064 0.01 0.126 0.02 0.064 0.01 0.063 0.01 0.063 0.011 0.063 0.01 0.126 0.022 0.063 0.012 0.063 0.011 0.126 0.024 0.062 0.012 0.063 0.012 0.062 0.012 0.063 0.013 0.062 0.013 0.063 0.013 0.124 0.026 0.062 0.014 0.062 0.013 0.124 0.028 0.062 0.015 0.062 0.014 0.061 0.015 0.062 0.014 0.061 0.015 0.062 0.016 0.122 0.03 0.062 0.016 0.183 0.048 0.061 0.017 0.061 0.016 0.06 0.017 0.122 0.034 0.06 0.017 0.061 0.018 0.06 0.018 0.061 0.017 0.06 0.018 0.06 0.019 0.06 0.018 0.06 0.019 0.06 0.018 0.12 0.038 0.059 0.019 0.06 0.02 0.059 0.02 0.06 0.019 0.118 0.04 0.06 0.021 0.059 0.02 0.059 0.021 0.059 0.02 0.058 0.021 0.059 0.022 0.118 0.042 0.116 0.044 0.059 0.022 0.116 0.044 0.058 0.023 0.058 0.022 0.174 0.069 0.058 0.024 0.057 0.023 0.058 0.024 0.171 0.072 0.058 0.024 0.057 0.025 0.057 0.024 0.056 0.025 0.114 0.05 0.056 0.026 0.057 0.025 0.056 0.026 0.057 0.025 0.056 0.026 0.056 0.027 0.112 0.052 0.056 0.027 0.055 0.027 0.112 0.054 0.11 0.054 0.056 0.028 0.055 0.028 0.055 0.027 0.055 0.028 0.055 0.029 0.055 0.028 0.054 0.029 0.055 0.028 0.054 0.029 0.055 0.029 0.108 0.058 0.054 0.03 0.054 0.029 0.162 0.09 0.053 0.03 0.054 0.031 0.053 0.03 0.053 0.031 0.054 0.031 0.159 0.093 0.052 0.032 0.053 0.031 0.052 0.032 0.053 0.032 0.052 0.032 0.053 0.032 0.052 0.032 0.104 0.066 0.051 0.032 0.104 0.066 0.051 0.034 0.052 0.033 0.051 0.033 0.255 0.17 0.05 0.035 0.051 0.034 0.1 0.07 0.051 0.035 0.1 0.07 0.049 0.035 0.1 0.072 0.049 0.035 0.05 0.036 0.049 0.037 0.098 0.072 0.049 0.037 0.049 0.036 0.049 0.037 0.048 0.037 0.049 0.037 0.048 0.038 0.096 0.074 0.192 0.152 0.047 0.038 0.048 0.038 0.047 0.039 0.047 0.038 0.141 0.117 0.046 0.039 0.047 0.04 0.046 0.039 0.047 0.039 0.23 0.2 0.045 0.041 0.046 0.04 0.045 0.041 0.045 0.04 0.135 0.123 0.045 0.042 0.044 0.041 0.045 0.042 0.044 0.041 0.22 0.21 0.043 0.043 0.044 0.042 0.215 0.215 0.042 0.043 0.043 0.044 0.042 0.043 0.042 0.044 0.043 0.044 0.042 0.043 0.041 0.044 0.042 0.045 0.042 0.044 0.041 0.044 0.041 0.045 0.042 0.044 0.082 0.09 0.04 0.045 0.041 0.045 0.04 0.045 0.041 0.046 0.04 0.045 0.08 0.092 0.04 0.045 0.039 0.046 0.04 0.046 0.039 0.047 0.04 0.046 0.039 0.046 0.078 0.094 0.038 0.046 0.039 0.047 0.076 0.094 0.039 0.047 0.038 0.048 0.037 0.047 0.038 0.048 0.038 0.047 0.148 0.192 0.037 0.049 0.037 0.048 0.036 0.048 0.037 0.049 0.036 0.049 0.036 0.048 0.108 0.147 0.035 0.05 0.035 0.049 0.036 0.049 0.07 0.1 0.034 0.049 0.035 0.05 0.034 0.05 0.035 0.05 0.034 0.051 0.068 0.1 0.034 0.051 0.033 0.05 0.034 0.051 0.132 0.204 0.032 0.051 0.033 0.052 0.032 0.051 0.032 0.052 0.032 0.051 0.096 0.156 0.124 0.208 0.031 0.053 0.031 0.052 0.06 0.106 0.031 0.053 0.029 0.053 0.06 0.106 0.029 0.053 0.03 0.053 0.029 0.054 0.029 0.053 0.029 0.054 0.029 0.053 0.028 0.054 0.029 0.054 0.084 0.162 0.027 0.055 0.028 0.054 0.027 0.054 0.028 0.055 0.027 0.055 0.027 0.054 0.026 0.055 0.027 0.055 0.026 0.055 0.027 0.055 0.052 0.11 0.025 0.056 0.026 0.055 0.025 0.056 0.026 0.055 0.05 0.112 0.024 0.056 0.025 0.056 0.072 0.168 0.024 0.057 0.048 0.112 0.046 0.114 0.023 0.056 0.046 0.114 0.022 0.057 0.023 0.057 0.022 0.057 0.022 0.058 0.022 0.057 0.021 0.057 0.022 0.058 0.021 0.057 0.063 0.174 0.02 0.057 0.021 0.058 0.02 0.058 0.02 0.059 0.04 0.116 0.019 0.058 0.02 0.059 0.019 0.058 0.019 0.059 0.018 0.059 0.019 0.058 0.019 0.059 0.072 0.236 0.017 0.06 0.017 0.059 0.018 0.059 0.017 0.06 0.016 0.059 0.017 0.06 0.016 0.059 0.017 0.06 0.032 0.12 0.015 0.06 0.016 0.06 0.045 0.18 0.015 0.061 0.015 0.06 0.014 0.06 0.028 0.122 0.014 0.06 0.014 0.061 0.013 0.061 0.014 0.061 0.026 0.122 0.012 0.061 0.013 0.061 0.024 0.122 0.012 0.062 0.012 0.061 0.011 0.061 0.012 0.062 0.011 0.062 0.011 0.061 0.011 0.062 0.01 0.062 0.011 0.062 0.01 0.062 0.01 0.061 0.01 0.063 9e-3 0.062 0.01 0.062 0.018 0.124 9e-3 0.063 9e-3 0.062 8e-3 0.063 8e-3 0.062 8e-3 0.063 8e-3 0.062 8e-3 0.063 7e-3 0.063 8e-3 0.063 0.014 0.126 6e-3 0.063 7e-3 0.063 0.018 0.189 6e-3 0.064 5e-3 0.063 5e-3 0.064 5e-3 0.063 5e-3 0.064 5e-3 0.063 4e-3 0.064 5e-3 0.064 4e-3 0.063 3e-3 0.064 4e-3 0.064 3e-3 0.064 4e-3 0.064 6e-3 0.128 2e-3 0.064 3e-3 0.064 2e-3 0.065 2e-3 0.064 1e-3 0.064 2e-3 0.065 1e-3 0.064 2e-3 0.065 1e-3 0.064v0.065l1e-3 0.065v0.064 0.065 0.065 0.064l-1e-3 0.065v0.065l-1e-3 0.064-2e-3 0.065-1e-3 0.064-2e-3 0.065-1e-3 0.064-2e-3 0.064-2e-3 0.065-3e-3 0.064-2e-3 0.064-6e-3 0.128-4e-3 0.064-3e-3 0.064-4e-3 0.064-3e-3 0.064-4e-3 0.063-5e-3 0.064-4e-3 0.064-5e-3 0.063-5e-3 0.064-5e-3 0.063-5e-3 0.064-5e-3 0.063-6e-3 0.064-0.018 0.189-7e-3 0.063-6e-3 0.063-0.014 0.126-8e-3 0.063-7e-3 0.063-8e-3 0.063-8e-3 0.062-8e-3 0.063-8e-3 0.062-8e-3 0.063-9e-3 0.062-9e-3 0.063-0.018 0.124-0.01 0.062-9e-3 0.062-0.01 0.063-0.01 0.061-0.01 0.062-0.011 0.062-0.01 0.062-0.011 0.062-0.011 0.061-0.011 0.062-0.012 0.062-0.011 0.061-0.012 0.061-0.012 0.062-0.024 0.122-0.013 0.061-0.012 0.061-0.026 0.122-0.014 0.061-0.013 0.061-0.014 0.061-0.014 0.06-0.028 0.122-0.014 0.06-0.015 0.06-0.015 0.061-0.045 0.18-0.016 0.06-0.015 0.06-0.032 0.12-0.017 0.06-0.016 0.059-0.017 0.06-0.016 0.059-0.017 0.06-0.018 0.059-0.017 0.059-0.017 0.06-0.072 0.236-0.019 0.059-0.019 0.058-0.018 0.059-0.019 0.059-0.019 0.058-0.02 0.059-0.019 0.058-0.04 0.116-0.02 0.059-0.02 0.058-0.021 0.058-0.02 0.057-0.063 0.174-0.021 0.057-0.022 0.058-0.021 0.057-0.022 0.057-0.022 0.058-0.022 0.057-0.023 0.057-0.022 0.057-0.046 0.114-0.023 0.056-0.046 0.114-0.024 0.056-0.024 0.057-0.096 0.224-0.025 0.056-0.024 0.056-0.05 0.112-0.026 0.055-0.025 0.056-0.026 0.055-0.025 0.056-0.052 0.11-0.027 0.055-0.026 0.055-0.027 0.055-0.026 0.055-0.027 0.054-0.027 0.055-0.028 0.055-0.027 0.054-0.028 0.054-0.027 0.055-0.084 0.162-0.029 0.054-0.028 0.054-0.029 0.053-0.029 0.054-0.029 0.053-0.029 0.054-0.03 0.053-0.029 0.053-0.06 0.106-0.029 0.053-0.031 0.053-0.06 0.106-0.031 0.052-0.031 0.053-0.124 0.208-0.096 0.156-0.032 0.051-0.032 0.052-0.032 0.051-0.033 0.052-0.032 0.051-0.132 0.204-0.034 0.051-0.033 0.05-0.034 0.051-0.068 0.1-0.034 0.051-0.035 0.05-0.034 0.05-0.035 0.05-0.034 0.049-0.07 0.1-0.036 0.049-0.035 0.049-0.035 0.05-0.108 0.147-0.036 0.048-0.036 0.049-0.037 0.049-0.036 0.048-0.037 0.048-0.037 0.049-0.148 0.192-0.038 0.047-0.038 0.048-0.037 0.047-0.038 0.048-0.039 0.047-0.076 0.094-0.039 0.047-0.038 0.046-0.078 0.094-0.039 0.046-0.04 0.046-0.039 0.047-0.04 0.046-0.039 0.046-0.04 0.045-0.08 0.092-0.04 0.045-0.041 0.046-0.04 0.045-0.041 0.045-0.04 0.045-0.082 0.09-0.042 0.044-0.041 0.045-0.041 0.044-0.042 0.044-0.042 0.045-0.041 0.044-0.042 0.043-0.043 0.044-0.042 0.044-0.042 0.043-0.043 0.044-0.042 0.043-0.215 0.215-0.044 0.042-0.043 0.043-0.22 0.21-0.044 0.041-0.045 0.042-0.044 0.041-0.045 0.042-0.135 0.123-0.045 0.04-0.045 0.041-0.046 0.04-0.045 0.041-0.23 0.2-0.047 0.039-0.046 0.039-0.047 0.04-0.046 0.039-0.141 0.117-0.047 0.038-0.047 0.039-0.048 0.038-0.047 0.038-0.192 0.152-0.096 0.074-0.048 0.038-0.049 0.037-0.048 0.037-0.049 0.037-0.049 0.036-0.049 0.037-0.098 0.072-0.049 0.037-0.05 0.036-0.049 0.035-0.1 0.072-0.049 0.035-0.1 0.07-0.051 0.035-0.1 0.07-0.051 0.034-0.05 0.035-0.255 0.17-0.051 0.033-0.052 0.033-0.051 0.034-0.104 0.066-0.051 0.032-0.104 0.066-0.052 0.032-0.053 0.032-0.052 0.032-0.053 0.032-0.052 0.032-0.053 0.031-0.052 0.032-0.159 0.093-0.054 0.031-0.053 0.031-0.053 0.03-0.054 0.031-0.053 0.03-0.162 0.09-0.054 0.029-0.054 0.03-0.108 0.058-0.055 0.029-0.054 0.029-0.055 0.028-0.054 0.029-0.055 0.028-0.055 0.029-0.055 0.028-0.055 0.027-0.055 0.028-0.056 0.028-0.11 0.054-0.112 0.054-0.055 0.027-0.056 0.027-0.112 0.052-0.056 0.027-0.056 0.026-0.057 0.025-0.056 0.026-0.057 0.025-0.056 0.026-0.114 0.05-0.056 0.025-0.057 0.024-0.057 0.025-0.058 0.024-0.171 0.072-0.058 0.024-0.057 0.023-0.058 0.024-0.174 0.069-0.058 0.022-0.058 0.023-0.174 0.066-0.059 0.022-0.058 0.022-0.118 0.042-0.059 0.022-0.058 0.021-0.059 0.02-0.059 0.021-0.059 0.02-0.06 0.021-0.118 0.04-0.06 0.019-0.059 0.02-0.06 0.02-0.059 0.019-0.12 0.038-0.06 0.018-0.06 0.019-0.06 0.018-0.06 0.019-0.06 0.018-0.061 0.017-0.06 0.018-0.061 0.018-0.06 0.017-0.122 0.034-0.06 0.017-0.061 0.016-0.061 0.017-0.183 0.048-0.062 0.016-0.122 0.03-0.062 0.016-0.061 0.015-0.062 0.014-0.061 0.015-0.062 0.014-0.062 0.015-0.124 0.028-0.062 0.013-0.062 0.014-0.124 0.026-0.063 0.013-0.062 0.013-0.063 0.013-0.062 0.012-0.063 0.012-0.062 0.012-0.126 0.024-0.063 0.011-0.063 0.012-0.126 0.022-0.063 0.01-0.063 0.011-0.063 0.01-0.064 0.01-0.126 0.02-0.064 0.01-0.064 9e-3 -0.063 9e-3 -0.192 0.027-0.063 8e-3 -0.064 9e-3 -0.065 8e-3 -0.064 8e-3 -0.064 7e-3 -0.064 8e-3 -0.064 7e-3 -0.065 7e-3 -0.128 0.014-0.13 0.012-0.064 7e-3 -0.065 6e-3 -0.065 5e-3 -0.065 6e-3 -0.064 5e-3 -0.195 0.015-0.066 4e-3 -0.065 5e-3 -0.13 8e-3 -0.066 4e-3 -0.065 3e-3 -0.065 4e-3 -0.066 3e-3 -0.065 3e-3 -0.066 2e-3 -0.066 3e-3 -0.066 2e-3 -0.065 2e-3 -0.198 6e-3 -0.264 4e-3h-0.066l-0.067 1e-3h-0.066-0.066l-0.067-1e-3h-0.066l-0.264-4e-3 -0.198-6e-3 -0.065-2e-3 -0.066-2e-3 -0.066-3e-3 -0.066-2e-3 -0.065-3e-3 -0.066-3e-3 -0.065-4e-3 -0.065-3e-3 -0.066-4e-3 -0.13-8e-3 -0.065-5e-3 -0.066-4e-3 -0.195-0.015-0.064-5e-3 -0.065-6e-3 -0.065-5e-3 -0.065-6e-3 -0.064-7e-3 -0.13-0.012-0.128-0.014-0.065-7e-3 -0.064-7e-3 -0.064-8e-3 -0.064-7e-3 -0.064-8e-3 -0.065-8e-3 -0.064-9e-3 -0.063-8e-3 -0.192-0.027-0.063-9e-3 -0.064-9e-3 -0.064-0.01-0.126-0.02-0.064-0.01-0.063-0.01-0.063-0.011-0.063-0.01-0.126-0.022-0.063-0.012-0.063-0.011-0.126-0.024-0.062-0.012-0.063-0.012-0.062-0.012-0.063-0.013-0.062-0.013-0.063-0.013-0.124-0.026-0.062-0.014-0.062-0.013-0.124-0.028-0.062-0.015-0.062-0.014-0.061-0.015-0.062-0.014-0.061-0.015-0.062-0.016-0.122-0.03-0.062-0.016-0.183-0.048-0.061-0.017-0.061-0.016-0.06-0.017-0.122-0.034-0.06-0.017-0.061-0.018-0.06-0.018-0.061-0.017-0.06-0.018-0.06-0.019-0.06-0.018-0.06-0.019-0.06-0.018-0.12-0.038-0.059-0.019-0.06-0.02-0.059-0.02-0.06-0.019-0.118-0.04-0.06-0.021-0.059-0.02-0.059-0.021-0.059-0.02-0.058-0.021-0.059-0.022-0.118-0.042-0.058-0.022-0.059-0.022-0.174-0.066-0.058-0.023-0.058-0.022-0.174-0.069-0.058-0.024-0.057-0.023-0.058-0.024-0.171-0.072-0.058-0.024-0.057-0.025-0.057-0.024-0.056-0.025-0.114-0.05-0.056-0.026-0.057-0.025-0.056-0.026-0.057-0.025-0.056-0.026-0.056-0.027-0.112-0.052-0.056-0.027-0.055-0.027-0.112-0.054-0.11-0.054-0.056-0.028-0.055-0.028-0.055-0.027-0.055-0.028-0.055-0.029-0.055-0.028-0.054-0.029-0.055-0.028-0.054-0.029-0.055-0.029-0.108-0.058-0.054-0.03-0.054-0.029-0.162-0.09-0.053-0.03-0.054-0.031-0.053-0.03-0.053-0.031-0.054-0.031-0.159-0.093-0.052-0.032-0.053-0.031-0.052-0.032-0.053-0.032-0.052-0.032-0.053-0.032-0.052-0.032-0.104-0.066-0.051-0.032-0.104-0.066-0.051-0.034-0.052-0.033-0.051-0.033-0.255-0.17-0.05-0.035-0.051-0.034-0.1-0.07-0.051-0.035-0.1-0.07-0.049-0.035-0.1-0.072-0.049-0.035-0.05-0.036-0.049-0.037-0.098-0.072-0.049-0.037-0.049-0.036-0.049-0.037-0.048-0.037-0.049-0.037-0.048-0.038-0.096-0.074-0.192-0.152-0.047-0.038-0.048-0.038-0.047-0.039-0.047-0.038-0.141-0.117-0.046-0.039-0.047-0.04-0.046-0.039-0.047-0.039-0.23-0.2-0.045-0.041-0.046-0.04-0.045-0.041-0.045-0.04-0.135-0.123-0.045-0.042-0.044-0.041-0.045-0.042-0.044-0.041-0.22-0.21-0.043-0.043-0.044-0.042-0.215-0.215-0.042-0.043-0.043-0.044-0.042-0.043-0.042-0.044-0.043-0.044-0.042-0.043-0.041-0.044-0.042-0.045-0.042-0.044-0.041-0.044-0.041-0.045-0.042-0.044-0.082-0.09-0.04-0.045-0.041-0.045-0.04-0.045-0.041-0.046-0.04-0.045-0.08-0.092-0.04-0.045-0.039-0.046-0.04-0.046-0.039-0.047-0.04-0.046-0.039-0.046-0.078-0.094-0.038-0.046-0.039-0.047-0.076-0.094-0.039-0.047-0.038-0.048-0.037-0.047-0.076-0.096-0.037-0.047-0.111-0.144-0.037-0.049-0.037-0.048-0.036-0.048-0.037-0.049-0.036-0.049-0.036-0.048-0.108-0.147-0.035-0.05-0.035-0.049-0.036-0.049-0.07-0.1-0.034-0.049-0.07-0.1-0.034-0.05-0.034-0.051-0.068-0.1-0.034-0.051-0.033-0.05-0.034-0.051-0.132-0.204-0.032-0.051-0.033-0.052-0.032-0.051-0.032-0.052-0.032-0.051-0.096-0.156-0.124-0.208-0.031-0.053-0.031-0.052-0.06-0.106-0.031-0.053-0.029-0.053-0.06-0.106-0.029-0.053-0.03-0.053-0.029-0.054-0.029-0.053-0.029-0.054-0.029-0.053-0.028-0.054-0.029-0.054-0.084-0.162-0.027-0.055-0.028-0.054-0.027-0.054-0.028-0.055-0.027-0.055-0.027-0.054-0.026-0.055-0.027-0.055-0.026-0.055-0.027-0.055-0.052-0.11-0.025-0.056-0.026-0.055-0.025-0.056-0.026-0.055-0.05-0.112-0.024-0.056-0.025-0.056-0.072-0.168-0.024-0.057-0.048-0.112-0.046-0.114-0.023-0.056-0.046-0.114-0.022-0.057-0.023-0.057-0.022-0.057-0.022-0.058-0.022-0.057-0.021-0.057-0.022-0.058-0.021-0.057-0.063-0.174-0.02-0.057-0.021-0.058-0.02-0.058-0.02-0.059-0.04-0.116-0.019-0.058-0.02-0.059-0.019-0.058-0.019-0.059-0.018-0.059-0.019-0.058-0.019-0.059-0.054-0.177-0.017-0.059-0.018-0.06-0.017-0.059-0.018-0.059-0.017-0.06-0.016-0.059-0.017-0.06-0.016-0.059-0.017-0.06-0.032-0.12-0.015-0.06-0.016-0.06-0.045-0.18-0.015-0.061-0.015-0.06-0.014-0.06-0.028-0.122-0.014-0.06-0.014-0.061-0.013-0.061-0.014-0.061-0.026-0.122-0.012-0.061-0.013-0.061-0.024-0.122-0.012-0.062-0.012-0.061-0.011-0.061-0.012-0.062-0.011-0.062-0.011-0.061-0.011-0.062-0.01-0.062-0.011-0.062-0.03-0.186-9e-3 -0.062-0.01-0.062-0.018-0.124-9e-3 -0.063-9e-3 -0.062-8e-3 -0.063-8e-3 -0.062-8e-3 -0.063-8e-3 -0.062-8e-3 -0.063-7e-3 -0.063-8e-3 -0.063-0.014-0.126-6e-3 -0.063-7e-3 -0.063-0.018-0.189-6e-3 -0.064-5e-3 -0.063-5e-3 -0.064-5e-3 -0.063-5e-3 -0.064-5e-3 -0.063-4e-3 -0.064-5e-3 -0.064-4e-3 -0.063-3e-3 -0.064-4e-3 -0.064-3e-3 -0.064-4e-3 -0.064-6e-3 -0.128-2e-3 -0.064-3e-3 -0.064-2e-3 -0.065-2e-3 -0.064-1e-3 -0.064-2e-3 -0.065-1e-3 -0.064-2e-3 -0.065-1e-3 -0.064v-0.065l-1e-3 -0.065v-0.064-0.065-0.065z" fill="url(#_Linear4)"/>
    </g>
    <g transform="translate(32 32)">
        <path d="m110.59 160.22-21.408 35.338h44.069l17.342-35.439-40.003 0.101z" fill="url(#_Linear5)"/>
    </g>
    <g transform="translate(35.952 22.508)">
        <path d="m67.805 97.295c-1.872 0-3.444-0.336-4.716-1.008s-2.604-1.608-3.996-2.808c-1.008-0.816-1.86-1.428-2.556-1.836s-1.428-0.612-2.196-0.612c-1.44 0-2.64 0.504-3.6 1.512s-1.608 2.376-1.944 4.104h-7.056c0.624-4.368 2.112-7.752 4.464-10.152s5.064-3.6 8.136-3.6c1.872 0 3.444 0.336 4.716 1.008s2.604 1.608 3.996 2.808c1.008 0.816 1.86 1.428 2.556 1.836s1.428 0.612 2.196 0.612c1.44 0 2.628-0.492 3.564-1.476s1.572-2.364 1.908-4.14h7.056c-0.624 4.368-2.1 7.752-4.428 10.152s-5.028 3.6-8.1 3.6z" fill="#fff" fill-opacity=".88235" fill-rule="nonzero"/>
    </g>
    <defs>
        <linearGradient id="_Linear2" x2="1" gradientTransform="matrix(104,0,0,95,43,83.5)" gradientUnits="userSpaceOnUse"><stop stop-color="#12283a" offset="0"/><stop stop-color="#462a16" offset="1"/></linearGradient>
        <linearGradient id="_Linear4" x2="1" gradientTransform="matrix(43,0,0,42,16,35)" gradientUnits="userSpaceOnUse"><stop stop-color="#f2d024" offset="0"/><stop stop-color="#f66d9b" offset="1"/></linearGradient>
        <linearGradient id="_Linear5" x2="1" gradientTransform="matrix(61.412 0 0 35.439 89.184 177.84)" gradientUnits="userSpaceOnUse"><stop stop-opacity=".10196" offset="0"/><stop stop-color="#fff" stop-opacity="0" offset="1"/></linearGradient>
    </defs>
</svg>
