<svg width="128" height="128" version="1.1" viewBox="0 0 128 128" xmlns="http://www.w3.org/2000/svg" xmlns:xlink="http://www.w3.org/1999/xlink">
<defs>
<linearGradient id="linearGradient825" x1="-741.83" x2="-741.83" y1="959.05" y2="93.836" gradientTransform="matrix(.13668 0 0 .13668 162.31 -5.9893)" gradientUnits="userSpaceOnUse">
<stop stop-color="#012fcc" offset="0"/>
<stop stop-color="#01c2fe" offset="1"/>
</linearGradient>
<linearGradient id="linearGradient835" x1="-738.76" x2="-738.76" y1="931.43" y2="152.13" gradientTransform="matrix(.13668 0 0 .13668 162.31 -5.9893)" gradientUnits="userSpaceOnUse">
<stop stop-color="#1174f7" offset="0"/>
<stop stop-color="#02bffd" offset="1"/>
</linearGradient>
<clipPath id="clipPath2411-2">
<path d="m88.988 9.4102a11.073 11.073 0 0 0-11.074 11.074 11.073 11.073 0 0 0 11.074 11.072 11.073 11.073 0 0 0 5.082-1.2383c13.473 12.077 18.639 31.362 12.236 48.955-7.493 20.589-28.607 32.781-50.182 28.977-19.325-3.4079-33.906-18.754-36.738-37.664 3.6996-0.22113 6.6582-0.69362 7.082-1.4277 1.2131-2.1011-9.7047-21.01-12.131-21.01s-13.344 18.909-12.131 21.01c0.42417 0.73469 3.3881 1.2068 7.0918 1.4277 2.9168 23.734 21.04 43.271 45.088 47.512 26.289 4.636 52.187-10.318 61.316-35.404 7.9289-21.787 1.2518-45.844-15.783-60.541a11.073 11.073 0 0 0 0.14063-1.668 11.073 11.073 0 0 0-11.072-11.074z" color="#000000" color-rendering="auto" dominant-baseline="auto" fill="#9bdb4d" fill-rule="evenodd" image-rendering="auto" shape-rendering="auto" solid-color="#000000" style="font-feature-settings:normal;font-variant-alternates:normal;font-variant-caps:normal;font-variant-ligatures:normal;font-variant-numeric:normal;font-variant-position:normal;isolation:auto;mix-blend-mode:normal;paint-order:markers fill stroke;shape-padding:0;text-decoration-color:#000000;text-decoration-line:none;text-decoration-style:solid;text-indent:0;text-orientation:mixed;text-transform:none;white-space:normal"/>
</clipPath>
</defs>
<circle cx="63.592" cy="64.286" r="61.38" fill="url(#linearGradient825)"/>
<circle cx="63.592" cy="64.286" r="55.09" fill="url(#linearGradient835)"/>
<path transform="matrix(.864 0 0 .864 8.6242 9.3668)" d="m88.988 9.4102a11.073 11.073 0 0 0-11.074 11.074 11.073 11.073 0 0 0 11.074 11.072 11.073 11.073 0 0 0 5.082-1.2383c13.473 12.077 18.639 31.362 12.236 48.955-7.493 20.589-28.607 32.781-50.182 28.977-19.325-3.4079-33.906-18.754-36.738-37.664 3.6996-0.22113 6.6582-0.69362 7.082-1.4277 1.2131-2.1011-9.7047-21.01-12.131-21.01s-13.344 18.909-12.131 21.01c0.42417 0.73469 3.3881 1.2068 7.0918 1.4277 2.9168 23.734 21.04 43.271 45.088 47.512 26.289 4.636 52.187-10.318 61.316-35.404 7.9289-21.787 1.2518-45.844-15.783-60.541a11.073 11.073 0 0 0 0.14063-1.668 11.073 11.073 0 0 0-11.072-11.074z" clip-path="url(#clipPath2411-2)" color="#000000" color-rendering="auto" dominant-baseline="auto" fill="#fff" fill-rule="evenodd" image-rendering="auto" shape-rendering="auto" solid-color="#000000" style="font-feature-settings:normal;font-variant-alternates:normal;font-variant-caps:normal;font-variant-ligatures:normal;font-variant-numeric:normal;font-variant-position:normal;isolation:auto;mix-blend-mode:normal;paint-order:markers fill stroke;shape-padding:0;text-decoration-color:#000000;text-decoration-line:none;text-decoration-style:solid;text-indent:0;text-orientation:mixed;text-transform:none;white-space:normal"/>
<path d="m76.742 37.439a4.1325 4.1325 0 0 0-3.6435 2.1176l-26.169 45.328a4.1325 4.1325 0 1 0 7.157 4.1321l26.169-45.328a4.1325 4.1325 0 0 0-3.5135-6.2497zm-29.678 2.9186a9.055 9.055 0 0 0-9.0541 9.0541 9.055 9.055 0 0 0 9.0541 9.0557 9.055 9.055 0 0 0 9.0557-9.0557 9.055 9.055 0 0 0-9.0557-9.0541zm33.055 29.748a9.0549 9.055 0 0 0-9.0541 9.0557 9.0549 9.055 0 0 0 9.0541 9.0557 9.0549 9.055 0 0 0 9.0541-9.0557 9.0549 9.055 0 0 0-9.0541-9.0557z" color="#000000" color-rendering="auto" dominant-baseline="auto" fill="#fff" image-rendering="auto" shape-rendering="auto" solid-color="#000000" style="font-feature-settings:normal;font-variant-alternates:normal;font-variant-caps:normal;font-variant-ligatures:normal;font-variant-numeric:normal;font-variant-position:normal;isolation:auto;mix-blend-mode:normal;shape-padding:0;text-decoration-color:#000000;text-decoration-line:none;text-decoration-style:solid;text-indent:0;text-orientation:mixed;text-transform:none;white-space:normal"/>
</svg>
