<svg width="128" height="128" version="1.1" viewBox="0 0 128 128" xmlns="http://www.w3.org/2000/svg" xmlns:xlink="http://www.w3.org/1999/xlink">
<defs>
<linearGradient id="linearGradient825" x1="-741.83" x2="-741.83" y1="959.05" y2="93.836" gradientTransform="matrix(.13668 0 0 .13668 162.31 -5.9893)" gradientUnits="userSpaceOnUse">
<stop stop-color="#1e4f33" offset="0"/>
<stop stop-color="#3eb670" offset="1"/>
</linearGradient>
<linearGradient id="linearGradient835" x1="-738.76" x2="-738.76" y1="931.43" y2="152.13" gradientTransform="matrix(.13668 0 0 .13668 162.31 -5.9893)" gradientUnits="userSpaceOnUse">
<stop stop-color="#257045" offset="0"/>
<stop stop-color="#3eb670" offset="1"/>
</linearGradient>
</defs>
<circle cx="63.592" cy="64.286" r="61.38" fill="url(#linearGradient825)"/>
<circle cx="63.592" cy="64.286" r="55.09" fill="url(#linearGradient835)"/>
<path d="m37.618 82.297v-2.8841h-14.421v-11.644l-0.94062-0.62239c-2.9404-1.9456-2.3755-6.5511 0.93866-7.6518 1.1643-0.38671 2.3451-0.2976 3.5065 0.26462 2.8541 1.3817 3.0075 5.7352 0.26213 7.4418l-0.88248 0.54858v8.7788h11.537v-5.7683h10.094v-13.086l-0.94062-0.62238c-2.9404-1.9456-2.3755-6.5511 0.93866-7.6518 1.1643-0.38671 2.3451-0.2976 3.5065 0.26463 2.8541 1.3817 3.0075 5.7352 0.26213 7.4418l-0.88248 0.54858v13.105h11.537l-0.0092-19.017-0.71977-0.33191c-0.39587-0.18255-0.93054-0.60825-1.1881-0.94599-2.3806-3.1211-0.02173-7.4477 3.8431-7.0488 2.8313 0.29221 4.4952 3.012 3.5463 5.7967-0.33003 0.9686-1.4302 2.1884-2.1328 2.3647l-0.45523 0.11426v19.068h11.537v-13.086l-0.94062-0.62238c-2.9404-1.9456-2.3755-6.5511 0.93866-7.6518 1.1643-0.38671 2.3451-0.2976 3.5065 0.26463 2.8541 1.3817 3.0075 5.7352 0.26213 7.4418l-0.88248 0.54858v13.105h10.094v5.7683h11.537v-8.9739l-0.45524-0.11426c-1.1596-0.29104-2.4289-2.3242-2.4289-3.8905 0-2.3366 1.9896-4.3262 4.3262-4.3262 2.3366 0 4.3262 1.9896 4.3262 4.3262 0 1.5664-1.2693 3.5995-2.4289 3.8905l-0.45523 0.11426v11.858h-14.421v5.7683h-51.915zm49.03-4.3262v-4.3262h-46.146v8.6524h46.146zm-42.82 0.99962c-0.89412-0.89412-0.26055-2.4417 0.99962-2.4417 0.35121 0 0.72072 0.16355 0.99962 0.44246 0.2789 0.2789 0.44245 0.64841 0.44245 0.99962s-0.16355 0.72072-0.44245 0.99962c-0.2789 0.2789-0.64841 0.44246-0.99962 0.44246s-0.72072-0.16355-0.99962-0.44246zm5.7683 0c-0.89412-0.89412-0.26055-2.4417 0.99962-2.4417 0.35121 0 0.72072 0.16355 0.99962 0.44246 0.2789 0.2789 0.44245 0.64841 0.44245 0.99962s-0.16355 0.72072-0.44245 0.99962c-0.2789 0.2789-0.64841 0.44246-0.99962 0.44246s-0.72071-0.16355-0.99962-0.44246zm5.7683 0c-0.89412-0.89412-0.26055-2.4417 0.99962-2.4417 0.35121 0 0.72072 0.16355 0.99962 0.44246 0.2789 0.2789 0.44245 0.64841 0.44245 0.99962s-0.16355 0.72072-0.44245 0.99962c-0.2789 0.2789-0.64841 0.44246-0.99962 0.44246s-0.72071-0.16355-0.99962-0.44246zm-29.726-14.421c0.89412-0.89412 0.26055-2.4417-0.99962-2.4417-0.74106 0-1.4421 0.70101-1.4421 1.4421 0 0.74106 0.70101 1.4421 1.4421 1.4421 0.35121 0 0.72071-0.16355 0.99962-0.44245zm77.872 0c0.89412-0.89412 0.26055-2.4417-0.99962-2.4417-0.74106 0-1.4421 0.70101-1.4421 1.4421 0 0.74106 0.701 1.4421 1.4421 1.4421 0.35122 0 0.72072-0.16355 0.99962-0.44245zm-53.357-10.094c0.89412-0.89412 0.26055-2.4417-0.99962-2.4417-0.35121 0-0.72072 0.16355-0.99962 0.44245-0.2789 0.2789-0.44245 0.64841-0.44245 0.99962s0.16355 0.72072 0.44245 0.99962 0.64841 0.44245 0.99962 0.44245 0.72071-0.16355 0.99962-0.44245zm28.841 0c0.89412-0.89412 0.26055-2.4417-0.99962-2.4417-0.74106 0-1.4421 0.70101-1.4421 1.4421 0 0.74106 0.70101 1.4421 1.4421 1.4421 0.35121 0 0.72072-0.16355 0.99962-0.44245zm-14.421-5.7683c0.89412-0.89412 0.26055-2.4417-0.99962-2.4417-0.35121 0-0.72072 0.16355-0.99962 0.44245-0.89412 0.89412-0.26055 2.4417 0.99962 2.4417 0.35121 0 0.72072-0.16355 0.99962-0.44245z" fill="#fff"/>
</svg>
