<svg width="128" height="128" version="1.1" viewBox="0 0 128 128" xmlns="http://www.w3.org/2000/svg" xmlns:xlink="http://www.w3.org/1999/xlink">
<defs>
<linearGradient id="linearGradient5095" x1="570.66" x2="788.53" y1="524.47" y2="862.92" gradientTransform="matrix(.2704 0 0 .2704 -132.55 -111.64)" gradientUnits="userSpaceOnUse">
<stop stop-color="#f6f6f6" offset="0"/>
<stop stop-color="#e6e6e6" offset="1"/>
</linearGradient>
</defs>
<rect transform="matrix(.98725 -.15918 .15918 .98725 0 0)" x="-1.1398" y="20.351" width="106.18" height="105.3" rx="7.3329" ry="7.3329" fill="none" stroke="#000" stroke-linecap="round" stroke-linejoin="round" stroke-opacity=".064394" stroke-width="1.6224" style="paint-order:fill markers stroke"/>
<rect transform="matrix(.98725 -.15918 .15918 .98725 0 0)" x="-1.1398" y="20.351" width="106.18" height="105.3" rx="7.3329" ry="7.3329" fill="none" stroke="#000" stroke-linecap="round" stroke-linejoin="round" stroke-opacity=".064394" stroke-width="1.0816" style="paint-order:fill markers stroke"/>
<rect transform="matrix(.98725 -.15918 .15918 .98725 0 0)" x="-1.1398" y="20.351" width="106.18" height="105.3" rx="7.3329" ry="7.3329" fill="url(#linearGradient5095)" stroke="#c9c9c9" stroke-linecap="round" stroke-linejoin="round" stroke-width=".5408" style="paint-order:fill markers stroke"/>
<path d="m80.263 79.985c-1.917 0.29767-3.7599 0.58384-5.6938 0.88412 0.34129-8.9726 0.68119-17.909 1.0217-26.86 0.1596-0.04097 0.28917-0.08639 0.42257-0.10711 3.671-0.57003 7.3376-1.1687 11.015-1.6882 1.0397-0.14728 2.1222-0.16255 3.1687-0.06396 3.4035 0.32057 5.7212 2.4471 6.2762 5.8128 0.65398 3.9575-0.28101 7.4969-3.0341 10.498-1.7839 1.9437-4.0817 2.8845-6.5964 3.3609-1.9033 0.3603-3.8246 0.6303-5.7412 0.91779-0.40842 0.06139-0.57794 0.18183-0.58946 0.64205-0.05647 2.1845-0.16062 4.3684-0.24972 6.6035zm0.43654-11.318c1.9723-0.38518 3.8222-0.6522 5.6192-1.1235 2.3475-0.61448 3.8431-2.1663 4.1821-4.6103 0.16228-1.1708 0.18947-2.3904 0.06078-3.5645-0.20331-1.8568-1.1414-2.7818-3.0104-2.7486-2.1274 0.03787-4.2495 0.37042-6.4161 0.57934-0.14718 3.8684-0.28758 7.5849-0.43557 11.468zm-44.912 18.214c-1.9151 0.29736-3.7777 0.5866-5.6918 0.88381 0.33986-8.9623 0.67863-17.886 1.0186-26.847 0.18644-0.04413 0.35704-0.09896 0.53294-0.12627 3.6017-0.56027 7.2005-1.1454 10.81-1.6582 1.0168-0.14474 2.0738-0.17427 3.0984-0.08644 3.367 0.28777 5.5576 2.0515 6.3194 5.3285 1.486 6.3957-2.1344 11.632-6.2536 13.344-1.099 0.45604-2.2657 0.79607-3.4335 1.031-1.8526 0.37369-3.7306 0.6228-5.6017 0.90322-0.38569 0.05787-0.53521 0.18329-0.54747 0.60618-0.06027 2.1861-0.16115 4.3715-0.25091 6.6219zm0.43595-11.309c1.9586-0.38205 3.8096-0.64823 5.6068-1.1185 2.4077-0.63091 3.9006-2.2329 4.2158-4.739 0.14242-1.1292 0.16891-2.3012 0.04318-3.4302-0.20726-1.8562-1.1447-2.7904-3.0067-2.7573-2.1285 0.03704-4.2516 0.36974-6.4235 0.57745-0.14718 3.8684-0.28841 7.5861-0.43557 11.468zm17.532-25.311c1.92-0.29813 3.7599-0.58384 5.6473-0.8769-0.08699 2.3856-0.17266 4.7275-0.26023 7.1354 1.5356-0.23844 3.0089-0.51983 4.4955-0.68287 1.5065-0.16511 3.0349-0.365 4.5385-0.28172 3.1777 0.1765 4.7825 1.9736 4.719 5.2015-0.0722 3.6604-0.24598 7.3184-0.37506 10.978-0.02327 0.64521-0.0242 1.291-0.08656 1.9322-0.01618 0.16949-0.20543 0.43669-0.34825 0.4619-1.7686 0.30195-3.5437 0.56848-5.3926 0.85556 0.06396-1.7779 0.12621-3.4755 0.18649-5.1729 0.0862-2.4624 0.20181-4.9243 0.24345-7.3868 0.03086-1.8021-0.78205-2.5664-2.5817-2.3669-1.8306 0.20229-3.6451 0.54779-5.5681 0.84638-0.19452 5.082-0.39069 10.179-0.58885 15.323-1.8627 0.28923-3.7184 0.57739-5.6493 0.87721 0.34078-8.9563 0.67918-17.876 1.0204-26.842z" fill="#4d4d4d" fill-rule="evenodd" vector-effect="non-scaling-stroke" style="isolation:isolate"/>
</svg>
