<svg width="128" height="128" version="1.1" viewBox="0 0 128 128" xmlns="http://www.w3.org/2000/svg" xmlns:osb="http://www.openswatchbook.org/uri/2009/osb" xmlns:xlink="http://www.w3.org/1999/xlink">
<defs>
<linearGradient id="linearGradient825" x1="-741.83" x2="-741.83" y1="959.05" y2="93.836" gradientTransform="matrix(.13668 0 0 .13668 162.31 -5.9893)" gradientUnits="userSpaceOnUse">
<stop stop-color="#db3b5f" offset="0"/>
<stop stop-color="#ff5455" offset="1"/>
</linearGradient>
<linearGradient id="linearGradient835" x1="-738.76" x2="-738.76" y1="931.43" y2="152.13" gradientTransform="matrix(.13668 0 0 .13668 162.31 -5.9893)" gradientUnits="userSpaceOnUse">
<stop stop-color="#ff406e" offset="0"/>
<stop stop-color="#ff5455" offset="1"/>
</linearGradient>
<clipPath>
<rect width="384" height="384"/>
</clipPath>
<clipPath>
<rect width="384" height="384"/>
</clipPath>
<linearGradient id="linearGradient948" x1="122.34" x2="84.091" y1="117.04" y2="71.02" gradientTransform="translate(-429.29 31.432)" gradientUnits="userSpaceOnUse" xlink:href="#linearGradient944"/>
<linearGradient id="linearGradient944">
<stop stop-color="#d5dada" offset="0"/>
<stop stop-color="#f1f1f1" offset="1"/>
</linearGradient>
<clipPath>
<rect width="384" height="384"/>
</clipPath>
<clipPath>
<rect width="384" height="384"/>
</clipPath>
<linearGradient id="linearGradient1194" x1="122.34" x2="84.091" y1="117.04" y2="71.02" gradientTransform="translate(-584.32 41.171)" gradientUnits="userSpaceOnUse" xlink:href="#linearGradient944"/>
<clipPath>
<rect width="384" height="384"/>
</clipPath>
<clipPath>
<rect width="384" height="384"/>
</clipPath>
<clipPath>
<rect width="384" height="384"/>
</clipPath>
<clipPath>
<rect width="384" height="384"/>
</clipPath>
<clipPath>
<rect width="384" height="384"/>
</clipPath>
<clipPath>
<rect width="384" height="384"/>
</clipPath>
<clipPath>
<rect width="384" height="384"/>
</clipPath>
<clipPath>
<rect width="384" height="384"/>
</clipPath>
<style id="current-color-scheme" type="text/css">.ColorScheme-Text { color:#5c616c; } .ColorScheme-Highlight { color:#5294e2; }</style>
<style id="current-color-scheme-3" type="text/css">.ColorScheme-Text { color:#5c616c; } .ColorScheme-Highlight { color:#5294e2; }</style>
<style id="current-color-scheme-7" type="text/css">.ColorScheme-Text { color:#5c616c; } .ColorScheme-Highlight { color:#5294e2; }</style>
<style id="current-color-scheme-35" type="text/css">.ColorScheme-Text { color:#5c616c; } .ColorScheme-Highlight { color:#5294e2; }</style>
<style id="current-color-scheme-9" type="text/css">.ColorScheme-Text { color:#5c616c; } .ColorScheme-Highlight { color:#5294e2; }</style>
<style id="current-color-scheme-2" type="text/css">.ColorScheme-Text { color:#5c616c; } .ColorScheme-Highlight { color:#5294e2; }</style>
<style id="current-color-scheme-0" type="text/css">.ColorScheme-Text { color:#5c616c; } .ColorScheme-Highlight { color:#5294e2; }</style>
<style id="current-color-scheme-36" type="text/css">.ColorScheme-Text { color:#5c616c; } .ColorScheme-Highlight { color:#5294e2; }</style>
<style id="current-color-scheme-6" type="text/css">.ColorScheme-Text { color:#5c616c; } .ColorScheme-Highlight { color:#5294e2; }</style>
<style id="current-color-scheme-61" type="text/css">.ColorScheme-Text { color:#5c616c; } .ColorScheme-Highlight { color:#5294e2; }</style>
<style id="current-color-scheme-79" type="text/css">.ColorScheme-Text { color:#5c616c; } .ColorScheme-Highlight { color:#5294e2; }</style>
<style id="current-color-scheme-23" type="text/css">.ColorScheme-Text { color:#5c616c; } .ColorScheme-Highlight { color:#5294e2; }</style>
<style id="current-color-scheme-92" type="text/css">.ColorScheme-Text { color:#5c616c; } .ColorScheme-Highlight { color:#5294e2; }</style>
<style id="current-color-scheme-97" type="text/css">.ColorScheme-Text { color:#5c616c; } .ColorScheme-Highlight { color:#5294e2; }</style>
<style id="current-color-scheme-612" type="text/css">.ColorScheme-Text { color:#5c616c; } .ColorScheme-Highlight { color:#5294e2; }</style>
<style id="current-color-scheme-1" type="text/css">.ColorScheme-Text { color:#5c616c; } .ColorScheme-Highlight { color:#5294e2; }</style>
<style id="current-color-scheme-3-0" type="text/css">.ColorScheme-Text { color:#5c616c; } .ColorScheme-Highlight { color:#5294e2; }</style>
<style id="current-color-scheme-7-6" type="text/css">.ColorScheme-Text { color:#5c616c; } .ColorScheme-Highlight { color:#5294e2; }</style>
<style id="current-color-scheme-35-3" type="text/css">.ColorScheme-Text { color:#5c616c; } .ColorScheme-Highlight { color:#5294e2; }</style>
<style id="current-color-scheme-9-2" type="text/css">.ColorScheme-Text { color:#5c616c; } .ColorScheme-Highlight { color:#5294e2; }</style>
<style id="current-color-scheme-2-0" type="text/css">.ColorScheme-Text { color:#5c616c; } .ColorScheme-Highlight { color:#5294e2; }</style>
<style id="current-color-scheme-0-6" type="text/css">.ColorScheme-Text { color:#5c616c; } .ColorScheme-Highlight { color:#5294e2; }</style>
<style id="current-color-scheme-36-1" type="text/css">.ColorScheme-Text { color:#5c616c; } .ColorScheme-Highlight { color:#5294e2; }</style>
<style id="current-color-scheme-6-5" type="text/css">.ColorScheme-Text { color:#5c616c; } .ColorScheme-Highlight { color:#5294e2; }</style>
<style id="current-color-scheme-61-5" type="text/css">.ColorScheme-Text { color:#5c616c; } .ColorScheme-Highlight { color:#5294e2; }</style>
<style id="current-color-scheme-79-4" type="text/css">.ColorScheme-Text { color:#5c616c; } .ColorScheme-Highlight { color:#5294e2; }</style>
<style id="current-color-scheme-23-7" type="text/css">.ColorScheme-Text { color:#5c616c; } .ColorScheme-Highlight { color:#5294e2; }</style>
<style id="current-color-scheme-92-6" type="text/css">.ColorScheme-Text { color:#5c616c; } .ColorScheme-Highlight { color:#5294e2; }</style>
<style id="current-color-scheme-97-5" type="text/css">.ColorScheme-Text { color:#5c616c; } .ColorScheme-Highlight { color:#5294e2; }</style>
<style id="current-color-scheme-612-6" type="text/css">.ColorScheme-Text { color:#5c616c; } .ColorScheme-Highlight { color:#5294e2; }</style>
<clipPath>
<rect width="384" height="384"/>
</clipPath>
<clipPath>
<rect width="384" height="384"/>
</clipPath>
<clipPath>
<rect width="384" height="384"/>
</clipPath>
<clipPath>
<rect width="384" height="384"/>
</clipPath>
<clipPath>
<rect width="384" height="384"/>
</clipPath>
<clipPath>
<rect width="384" height="384"/>
</clipPath>
<clipPath>
<rect width="384" height="384"/>
</clipPath>
<clipPath>
<rect width="384" height="384"/>
</clipPath>
<style id="current-color-scheme-74" type="text/css">.ColorScheme-Text { color:#5c616c; } .ColorScheme-Highlight { color:#5294e2; }</style>
<style id="current-color-scheme-3-9" type="text/css">.ColorScheme-Text { color:#5c616c; } .ColorScheme-Highlight { color:#5294e2; }</style>
<style id="current-color-scheme-7-9" type="text/css">.ColorScheme-Text { color:#5c616c; } .ColorScheme-Highlight { color:#5294e2; }</style>
<style id="current-color-scheme-35-4" type="text/css">.ColorScheme-Text { color:#5c616c; } .ColorScheme-Highlight { color:#5294e2; }</style>
<style id="current-color-scheme-9-5" type="text/css">.ColorScheme-Text { color:#5c616c; } .ColorScheme-Highlight { color:#5294e2; }</style>
<style id="current-color-scheme-2-9" type="text/css">.ColorScheme-Text { color:#5c616c; } .ColorScheme-Highlight { color:#5294e2; }</style>
<style id="current-color-scheme-0-3" type="text/css">.ColorScheme-Text { color:#5c616c; } .ColorScheme-Highlight { color:#5294e2; }</style>
<style id="current-color-scheme-36-5" type="text/css">.ColorScheme-Text { color:#5c616c; } .ColorScheme-Highlight { color:#5294e2; }</style>
<style id="current-color-scheme-6-7" type="text/css">.ColorScheme-Text { color:#5c616c; } .ColorScheme-Highlight { color:#5294e2; }</style>
<style id="current-color-scheme-61-0" type="text/css">.ColorScheme-Text { color:#5c616c; } .ColorScheme-Highlight { color:#5294e2; }</style>
<style id="current-color-scheme-79-8" type="text/css">.ColorScheme-Text { color:#5c616c; } .ColorScheme-Highlight { color:#5294e2; }</style>
<style id="current-color-scheme-23-1" type="text/css">.ColorScheme-Text { color:#5c616c; } .ColorScheme-Highlight { color:#5294e2; }</style>
<style id="current-color-scheme-92-9" type="text/css">.ColorScheme-Text { color:#5c616c; } .ColorScheme-Highlight { color:#5294e2; }</style>
<style id="current-color-scheme-97-9" type="text/css">.ColorScheme-Text { color:#5c616c; } .ColorScheme-Highlight { color:#5294e2; }</style>
<style id="current-color-scheme-612-7" type="text/css">.ColorScheme-Text { color:#5c616c; } .ColorScheme-Highlight { color:#5294e2; }</style>
<style id="current-color-scheme-1-8" type="text/css">.ColorScheme-Text { color:#5c616c; } .ColorScheme-Highlight { color:#5294e2; }</style>
<style id="current-color-scheme-3-0-2" type="text/css">.ColorScheme-Text { color:#5c616c; } .ColorScheme-Highlight { color:#5294e2; }</style>
<style id="current-color-scheme-7-6-5" type="text/css">.ColorScheme-Text { color:#5c616c; } .ColorScheme-Highlight { color:#5294e2; }</style>
<style id="current-color-scheme-35-3-3" type="text/css">.ColorScheme-Text { color:#5c616c; } .ColorScheme-Highlight { color:#5294e2; }</style>
<style id="current-color-scheme-9-2-4" type="text/css">.ColorScheme-Text { color:#5c616c; } .ColorScheme-Highlight { color:#5294e2; }</style>
<style id="current-color-scheme-2-0-9" type="text/css">.ColorScheme-Text { color:#5c616c; } .ColorScheme-Highlight { color:#5294e2; }</style>
<style id="current-color-scheme-0-6-0" type="text/css">.ColorScheme-Text { color:#5c616c; } .ColorScheme-Highlight { color:#5294e2; }</style>
<style id="current-color-scheme-36-1-2" type="text/css">.ColorScheme-Text { color:#5c616c; } .ColorScheme-Highlight { color:#5294e2; }</style>
<style id="current-color-scheme-6-5-0" type="text/css">.ColorScheme-Text { color:#5c616c; } .ColorScheme-Highlight { color:#5294e2; }</style>
<style id="current-color-scheme-61-5-1" type="text/css">.ColorScheme-Text { color:#5c616c; } .ColorScheme-Highlight { color:#5294e2; }</style>
<style id="current-color-scheme-79-4-9" type="text/css">.ColorScheme-Text { color:#5c616c; } .ColorScheme-Highlight { color:#5294e2; }</style>
<style id="current-color-scheme-23-7-6" type="text/css">.ColorScheme-Text { color:#5c616c; } .ColorScheme-Highlight { color:#5294e2; }</style>
<style id="current-color-scheme-92-6-2" type="text/css">.ColorScheme-Text { color:#5c616c; } .ColorScheme-Highlight { color:#5294e2; }</style>
<style id="current-color-scheme-97-5-1" type="text/css">.ColorScheme-Text { color:#5c616c; } .ColorScheme-Highlight { color:#5294e2; }</style>
<style id="current-color-scheme-612-6-2" type="text/css">.ColorScheme-Text { color:#5c616c; } .ColorScheme-Highlight { color:#5294e2; }</style>
<clipPath>
<rect width="384" height="384"/>
</clipPath>
<clipPath>
<rect width="384" height="384"/>
</clipPath>
<clipPath>
<rect width="384" height="384"/>
</clipPath>
<clipPath>
<rect width="384" height="384"/>
</clipPath>
<clipPath>
<rect width="384" height="384"/>
</clipPath>
<clipPath>
<rect width="384" height="384"/>
</clipPath>
</defs>
<circle cx="63.592" cy="64.286" r="61.38" fill="url(#linearGradient825)"/>
<circle cx="63.592" cy="64.286" r="55.09" fill="url(#linearGradient835)"/>
<g transform="translate(.94588 3.5964)" fill="none">
<g transform="translate(-195.05 16.194)" opacity=".475" shape-rendering="auto" stroke="#000" stroke-linecap="round" stroke-linejoin="round" stroke-opacity=".0078431">
<path d="m266.03 15.99c-6.2196-0.1518-12.778 2.8236-17.459 9.9258-1.6939-1.0597-3.499-1.7578-5.3145-1.7578-2.5349 0-4.9482 0.88477-6.9902 2.2461-3.3952 2.2635-5.8652 6.0005-5.752 9.9121-3.6595 0.55339-6.6282 2.3911-8.502 5.0117-2.2355 3.1265-3.0806 7.1327-2.6758 11.09 0.80955 7.9143 7.051 15.927 17.977 15.893 2.416-0.0078 5.4642-0.0078 9.4727-0.0078a2.0002 2.0002 0 1 0 0-4c-4.0085 0-7.0595 8e-6 -9.4863 0.0078-9.0345 0.02876-13.348-6.0782-13.984-12.301-0.31826-3.1113 0.39332-6.1767 1.9512-8.3555 1.5578-2.1788 3.8577-3.5859 7.4023-3.5859h2.7754l-0.87695-2.6328c-0.77587-2.3276 0.94339-5.7201 3.918-7.7031 1.4873-0.99153 3.1889-1.5742 4.7715-1.5742s3.0577 0.50297 4.4688 1.9141l1.875 1.875 1.2871-2.3184c5.4881-9.8786 13.62-11.151 20.182-8.6152 6.562 2.5356 11.127 8.9798 9.125 15.695l-0.73047 2.4473 2.5508 0.12305c3.5393 0.16954 5.9867 1.7189 7.6914 4.0488s2.5694 5.5072 2.4375 8.6758c-0.13191 3.1686-1.2495 6.2806-3.2793 8.5391-2.0298 2.2584-4.931 3.7598-9.1367 3.7598a2.0002 2.0002 0 1 0 0 4c5.2057 0 9.361-2.0258 12.111-5.0859 2.7504-3.0601 4.1348-7.0585 4.3008-11.047 0.16603-3.9884-0.87442-8.0176-3.2051-11.203-1.9405-2.6523-4.8854-4.5947-8.5039-5.3262 1.1657-8.1137-4.446-15.471-11.92-18.359-2.0378-0.78741-4.2338-1.2362-6.4805-1.291zm-9.832 13.02c-2.3769 0-4.3535 1.9766-4.3535 4.3535v35.293c0 2.3769 1.9766 4.3516 4.3535 4.3516h14.117c2.3769 0 4.3535-1.9747 4.3535-4.3516v-35.293c0-2.3769-1.9766-4.3535-4.3535-4.3535zm0 4h14.117c0.23007 0 0.35351 0.12344 0.35351 0.35352v35.293c0 0.23008-0.12344 0.35156-0.35351 0.35156h-14.117c-0.23008 0-0.35352-0.12148-0.35352-0.35156v-35.293c0-0.23008 0.12344-0.35352 0.35352-0.35352zm0 10.941v2.3535h7.0586v-2.3535zm0 4.7051v2.3535h11.764v-2.3535zm0 4.707v2.3516h11.764v-2.3516zm0 4.7051v2.3516h11.764v-2.3516z" color="#000000" color-rendering="auto" dominant-baseline="auto" image-rendering="auto" opacity="1" solid-color="#000000" stroke-width=".2" style="font-feature-settings:normal;font-variant-alternates:normal;font-variant-caps:normal;font-variant-ligatures:normal;font-variant-numeric:normal;font-variant-position:normal;isolation:auto;mix-blend-mode:normal;shape-padding:0;text-decoration-color:#000000;text-decoration-line:none;text-decoration-style:solid;text-indent:0;text-orientation:mixed;text-transform:none;white-space:normal"/>
<path d="m266.03 15.99c-6.2196-0.1518-12.778 2.8236-17.459 9.9258-1.6939-1.0597-3.499-1.7578-5.3145-1.7578-2.5349 0-4.9482 0.88477-6.9902 2.2461-3.3952 2.2635-5.8652 6.0005-5.752 9.9121-3.6595 0.55339-6.6282 2.3911-8.502 5.0117-2.2355 3.1265-3.0806 7.1327-2.6758 11.09 0.80955 7.9143 7.051 15.927 17.977 15.893 2.416-0.0078 5.4642-0.0078 9.4727-0.0078a2.0002 2.0002 0 1 0 0-4c-4.0085 0-7.0595 8e-6 -9.4863 0.0078-9.0345 0.02876-13.348-6.0782-13.984-12.301-0.31826-3.1113 0.39332-6.1767 1.9512-8.3555 1.5578-2.1788 3.8577-3.5859 7.4023-3.5859h2.7754l-0.87695-2.6328c-0.77587-2.3276 0.94339-5.7201 3.918-7.7031 1.4873-0.99153 3.1889-1.5742 4.7715-1.5742s3.0577 0.50297 4.4688 1.9141l1.875 1.875 1.2871-2.3184c5.4881-9.8786 13.62-11.151 20.182-8.6152 6.562 2.5356 11.127 8.9798 9.125 15.695l-0.73047 2.4473 2.5508 0.12305c3.5393 0.16954 5.9867 1.7189 7.6914 4.0488s2.5694 5.5072 2.4375 8.6758c-0.13191 3.1686-1.2495 6.2806-3.2793 8.5391-2.0298 2.2584-4.931 3.7598-9.1367 3.7598a2.0002 2.0002 0 1 0 0 4c5.2057 0 9.361-2.0258 12.111-5.0859 2.7504-3.0601 4.1348-7.0585 4.3008-11.047 0.16603-3.9884-0.87442-8.0176-3.2051-11.203-1.9405-2.6523-4.8854-4.5947-8.5039-5.3262 1.1657-8.1137-4.446-15.471-11.92-18.359-2.0378-0.78741-4.2338-1.2362-6.4805-1.291zm-9.832 13.02c-2.3769 0-4.3535 1.9766-4.3535 4.3535v35.293c0 2.3769 1.9766 4.3516 4.3535 4.3516h14.117c2.3769 0 4.3535-1.9747 4.3535-4.3516v-35.293c0-2.3769-1.9766-4.3535-4.3535-4.3535zm0 4h14.117c0.23007 0 0.35351 0.12344 0.35351 0.35352v35.293c0 0.23008-0.12344 0.35156-0.35351 0.35156h-14.117c-0.23008 0-0.35352-0.12148-0.35352-0.35156v-35.293c0-0.23008 0.12344-0.35352 0.35352-0.35352zm0 10.941v2.3535h7.0586v-2.3535zm0 4.7051v2.3535h11.764v-2.3535zm0 4.707v2.3516h11.764v-2.3516zm0 4.7051v2.3516h11.764v-2.3516z" color="#000000" color-rendering="auto" dominant-baseline="auto" image-rendering="auto" opacity="1" solid-color="#000000" stroke-width=".4" style="font-feature-settings:normal;font-variant-alternates:normal;font-variant-caps:normal;font-variant-ligatures:normal;font-variant-numeric:normal;font-variant-position:normal;isolation:auto;mix-blend-mode:normal;shape-padding:0;text-decoration-color:#000000;text-decoration-line:none;text-decoration-style:solid;text-indent:0;text-orientation:mixed;text-transform:none;white-space:normal"/>
<path d="m266.03 15.99c-6.2196-0.1518-12.778 2.8236-17.459 9.9258-1.6939-1.0597-3.499-1.7578-5.3145-1.7578-2.5349 0-4.9482 0.88477-6.9902 2.2461-3.3952 2.2635-5.8652 6.0005-5.752 9.9121-3.6595 0.55339-6.6282 2.3911-8.502 5.0117-2.2355 3.1265-3.0806 7.1327-2.6758 11.09 0.80955 7.9143 7.051 15.927 17.977 15.893 2.416-0.0078 5.4642-0.0078 9.4727-0.0078a2.0002 2.0002 0 1 0 0-4c-4.0085 0-7.0595 8e-6 -9.4863 0.0078-9.0345 0.02876-13.348-6.0782-13.984-12.301-0.31826-3.1113 0.39332-6.1767 1.9512-8.3555 1.5578-2.1788 3.8577-3.5859 7.4023-3.5859h2.7754l-0.87695-2.6328c-0.77587-2.3276 0.94339-5.7201 3.918-7.7031 1.4873-0.99153 3.1889-1.5742 4.7715-1.5742s3.0577 0.50297 4.4688 1.9141l1.875 1.875 1.2871-2.3184c5.4881-9.8786 13.62-11.151 20.182-8.6152 6.562 2.5356 11.127 8.9798 9.125 15.695l-0.73047 2.4473 2.5508 0.12305c3.5393 0.16954 5.9867 1.7189 7.6914 4.0488s2.5694 5.5072 2.4375 8.6758c-0.13191 3.1686-1.2495 6.2806-3.2793 8.5391-2.0298 2.2584-4.931 3.7598-9.1367 3.7598a2.0002 2.0002 0 1 0 0 4c5.2057 0 9.361-2.0258 12.111-5.0859 2.7504-3.0601 4.1348-7.0585 4.3008-11.047 0.16603-3.9884-0.87442-8.0176-3.2051-11.203-1.9405-2.6523-4.8854-4.5947-8.5039-5.3262 1.1657-8.1137-4.446-15.471-11.92-18.359-2.0378-0.78741-4.2338-1.2362-6.4805-1.291zm-9.832 13.02c-2.3769 0-4.3535 1.9766-4.3535 4.3535v35.293c0 2.3769 1.9766 4.3516 4.3535 4.3516h14.117c2.3769 0 4.3535-1.9747 4.3535-4.3516v-35.293c0-2.3769-1.9766-4.3535-4.3535-4.3535zm0 4h14.117c0.23007 0 0.35351 0.12344 0.35351 0.35352v35.293c0 0.23008-0.12344 0.35156-0.35351 0.35156h-14.117c-0.23008 0-0.35352-0.12148-0.35352-0.35156v-35.293c0-0.23008 0.12344-0.35352 0.35352-0.35352zm0 10.941v2.3535h7.0586v-2.3535zm0 4.7051v2.3535h11.764v-2.3535zm0 4.707v2.3516h11.764v-2.3516zm0 4.7051v2.3516h11.764v-2.3516z" color="#000000" color-rendering="auto" dominant-baseline="auto" image-rendering="auto" opacity="1" solid-color="#000000" stroke-width=".6" style="font-feature-settings:normal;font-variant-alternates:normal;font-variant-caps:normal;font-variant-ligatures:normal;font-variant-numeric:normal;font-variant-position:normal;isolation:auto;mix-blend-mode:normal;shape-padding:0;text-decoration-color:#000000;text-decoration-line:none;text-decoration-style:solid;text-indent:0;text-orientation:mixed;text-transform:none;white-space:normal"/>
<path d="m266.03 15.99c-6.2196-0.1518-12.778 2.8236-17.459 9.9258-1.6939-1.0597-3.499-1.7578-5.3145-1.7578-2.5349 0-4.9482 0.88477-6.9902 2.2461-3.3952 2.2635-5.8652 6.0005-5.752 9.9121-3.6595 0.55339-6.6282 2.3911-8.502 5.0117-2.2355 3.1265-3.0806 7.1327-2.6758 11.09 0.80955 7.9143 7.051 15.927 17.977 15.893 2.416-0.0078 5.4642-0.0078 9.4727-0.0078a2.0002 2.0002 0 1 0 0-4c-4.0085 0-7.0595 8e-6 -9.4863 0.0078-9.0345 0.02876-13.348-6.0782-13.984-12.301-0.31826-3.1113 0.39332-6.1767 1.9512-8.3555 1.5578-2.1788 3.8577-3.5859 7.4023-3.5859h2.7754l-0.87695-2.6328c-0.77587-2.3276 0.94339-5.7201 3.918-7.7031 1.4873-0.99153 3.1889-1.5742 4.7715-1.5742s3.0577 0.50297 4.4688 1.9141l1.875 1.875 1.2871-2.3184c5.4881-9.8786 13.62-11.151 20.182-8.6152 6.562 2.5356 11.127 8.9798 9.125 15.695l-0.73047 2.4473 2.5508 0.12305c3.5393 0.16954 5.9867 1.7189 7.6914 4.0488s2.5694 5.5072 2.4375 8.6758c-0.13191 3.1686-1.2495 6.2806-3.2793 8.5391-2.0298 2.2584-4.931 3.7598-9.1367 3.7598a2.0002 2.0002 0 1 0 0 4c5.2057 0 9.361-2.0258 12.111-5.0859 2.7504-3.0601 4.1348-7.0585 4.3008-11.047 0.16603-3.9884-0.87442-8.0176-3.2051-11.203-1.9405-2.6523-4.8854-4.5947-8.5039-5.3262 1.1657-8.1137-4.446-15.471-11.92-18.359-2.0378-0.78741-4.2338-1.2362-6.4805-1.291zm-9.832 13.02c-2.3769 0-4.3535 1.9766-4.3535 4.3535v35.293c0 2.3769 1.9766 4.3516 4.3535 4.3516h14.117c2.3769 0 4.3535-1.9747 4.3535-4.3516v-35.293c0-2.3769-1.9766-4.3535-4.3535-4.3535zm0 4h14.117c0.23007 0 0.35351 0.12344 0.35351 0.35352v35.293c0 0.23008-0.12344 0.35156-0.35351 0.35156h-14.117c-0.23008 0-0.35352-0.12148-0.35352-0.35156v-35.293c0-0.23008 0.12344-0.35352 0.35352-0.35352zm0 10.941v2.3535h7.0586v-2.3535zm0 4.7051v2.3535h11.764v-2.3535zm0 4.707v2.3516h11.764v-2.3516zm0 4.7051v2.3516h11.764v-2.3516z" color="#000000" color-rendering="auto" dominant-baseline="auto" image-rendering="auto" opacity="1" solid-color="#000000" stroke-width=".8" style="font-feature-settings:normal;font-variant-alternates:normal;font-variant-caps:normal;font-variant-ligatures:normal;font-variant-numeric:normal;font-variant-position:normal;isolation:auto;mix-blend-mode:normal;shape-padding:0;text-decoration-color:#000000;text-decoration-line:none;text-decoration-style:solid;text-indent:0;text-orientation:mixed;text-transform:none;white-space:normal"/>
<path d="m266.03 15.99c-6.2196-0.1518-12.778 2.8236-17.459 9.9258-1.6939-1.0597-3.499-1.7578-5.3145-1.7578-2.5349 0-4.9482 0.88477-6.9902 2.2461-3.3952 2.2635-5.8652 6.0005-5.752 9.9121-3.6595 0.55339-6.6282 2.3911-8.502 5.0117-2.2355 3.1265-3.0806 7.1327-2.6758 11.09 0.80955 7.9143 7.051 15.927 17.977 15.893 2.416-0.0078 5.4642-0.0078 9.4727-0.0078a2.0002 2.0002 0 1 0 0-4c-4.0085 0-7.0595 8e-6 -9.4863 0.0078-9.0345 0.02876-13.348-6.0782-13.984-12.301-0.31826-3.1113 0.39332-6.1767 1.9512-8.3555 1.5578-2.1788 3.8577-3.5859 7.4023-3.5859h2.7754l-0.87695-2.6328c-0.77587-2.3276 0.94339-5.7201 3.918-7.7031 1.4873-0.99153 3.1889-1.5742 4.7715-1.5742s3.0577 0.50297 4.4688 1.9141l1.875 1.875 1.2871-2.3184c5.4881-9.8786 13.62-11.151 20.182-8.6152 6.562 2.5356 11.127 8.9798 9.125 15.695l-0.73047 2.4473 2.5508 0.12305c3.5393 0.16954 5.9867 1.7189 7.6914 4.0488s2.5694 5.5072 2.4375 8.6758c-0.13191 3.1686-1.2495 6.2806-3.2793 8.5391-2.0298 2.2584-4.931 3.7598-9.1367 3.7598a2.0002 2.0002 0 1 0 0 4c5.2057 0 9.361-2.0258 12.111-5.0859 2.7504-3.0601 4.1348-7.0585 4.3008-11.047 0.16603-3.9884-0.87442-8.0176-3.2051-11.203-1.9405-2.6523-4.8854-4.5947-8.5039-5.3262 1.1657-8.1137-4.446-15.471-11.92-18.359-2.0378-0.78741-4.2338-1.2362-6.4805-1.291zm-9.832 13.02c-2.3769 0-4.3535 1.9766-4.3535 4.3535v35.293c0 2.3769 1.9766 4.3516 4.3535 4.3516h14.117c2.3769 0 4.3535-1.9747 4.3535-4.3516v-35.293c0-2.3769-1.9766-4.3535-4.3535-4.3535zm0 4h14.117c0.23007 0 0.35351 0.12344 0.35351 0.35352v35.293c0 0.23008-0.12344 0.35156-0.35351 0.35156h-14.117c-0.23008 0-0.35352-0.12148-0.35352-0.35156v-35.293c0-0.23008 0.12344-0.35352 0.35352-0.35352zm0 10.941v2.3535h7.0586v-2.3535zm0 4.7051v2.3535h11.764v-2.3535zm0 4.707v2.3516h11.764v-2.3516zm0 4.7051v2.3516h11.764v-2.3516z" color="#000000" color-rendering="auto" dominant-baseline="auto" image-rendering="auto" opacity="1" solid-color="#000000" style="font-feature-settings:normal;font-variant-alternates:normal;font-variant-caps:normal;font-variant-ligatures:normal;font-variant-numeric:normal;font-variant-position:normal;isolation:auto;mix-blend-mode:normal;shape-padding:0;text-decoration-color:#000000;text-decoration-line:none;text-decoration-style:solid;text-indent:0;text-orientation:mixed;text-transform:none;white-space:normal"/>
<path d="m266.03 15.99c-6.2196-0.1518-12.778 2.8236-17.459 9.9258-1.6939-1.0597-3.499-1.7578-5.3145-1.7578-2.5349 0-4.9482 0.88477-6.9902 2.2461-3.3952 2.2635-5.8652 6.0005-5.752 9.9121-3.6595 0.55339-6.6282 2.3911-8.502 5.0117-2.2355 3.1265-3.0806 7.1327-2.6758 11.09 0.80955 7.9143 7.051 15.927 17.977 15.893 2.416-0.0078 5.4642-0.0078 9.4727-0.0078a2.0002 2.0002 0 1 0 0-4c-4.0085 0-7.0595 8e-6 -9.4863 0.0078-9.0345 0.02876-13.348-6.0782-13.984-12.301-0.31826-3.1113 0.39332-6.1767 1.9512-8.3555 1.5578-2.1788 3.8577-3.5859 7.4023-3.5859h2.7754l-0.87695-2.6328c-0.77587-2.3276 0.94339-5.7201 3.918-7.7031 1.4873-0.99153 3.1889-1.5742 4.7715-1.5742s3.0577 0.50297 4.4688 1.9141l1.875 1.875 1.2871-2.3184c5.4881-9.8786 13.62-11.151 20.182-8.6152 6.562 2.5356 11.127 8.9798 9.125 15.695l-0.73047 2.4473 2.5508 0.12305c3.5393 0.16954 5.9867 1.7189 7.6914 4.0488s2.5694 5.5072 2.4375 8.6758c-0.13191 3.1686-1.2495 6.2806-3.2793 8.5391-2.0298 2.2584-4.931 3.7598-9.1367 3.7598a2.0002 2.0002 0 1 0 0 4c5.2057 0 9.361-2.0258 12.111-5.0859 2.7504-3.0601 4.1348-7.0585 4.3008-11.047 0.16603-3.9884-0.87442-8.0176-3.2051-11.203-1.9405-2.6523-4.8854-4.5947-8.5039-5.3262 1.1657-8.1137-4.446-15.471-11.92-18.359-2.0378-0.78741-4.2338-1.2362-6.4805-1.291zm-9.832 13.02c-2.3769 0-4.3535 1.9766-4.3535 4.3535v35.293c0 2.3769 1.9766 4.3516 4.3535 4.3516h14.117c2.3769 0 4.3535-1.9747 4.3535-4.3516v-35.293c0-2.3769-1.9766-4.3535-4.3535-4.3535zm0 4h14.117c0.23007 0 0.35351 0.12344 0.35351 0.35352v35.293c0 0.23008-0.12344 0.35156-0.35351 0.35156h-14.117c-0.23008 0-0.35352-0.12148-0.35352-0.35156v-35.293c0-0.23008 0.12344-0.35352 0.35352-0.35352zm0 10.941v2.3535h7.0586v-2.3535zm0 4.7051v2.3535h11.764v-2.3535zm0 4.707v2.3516h11.764v-2.3516zm0 4.7051v2.3516h11.764v-2.3516z" color="#000000" color-rendering="auto" dominant-baseline="auto" image-rendering="auto" opacity="1" solid-color="#000000" stroke-width="1.2" style="font-feature-settings:normal;font-variant-alternates:normal;font-variant-caps:normal;font-variant-ligatures:normal;font-variant-numeric:normal;font-variant-position:normal;isolation:auto;mix-blend-mode:normal;shape-padding:0;text-decoration-color:#000000;text-decoration-line:none;text-decoration-style:solid;text-indent:0;text-orientation:mixed;text-transform:none;white-space:normal"/>
<path d="m266.03 15.99c-6.2196-0.1518-12.778 2.8236-17.459 9.9258-1.6939-1.0597-3.499-1.7578-5.3145-1.7578-2.5349 0-4.9482 0.88477-6.9902 2.2461-3.3952 2.2635-5.8652 6.0005-5.752 9.9121-3.6595 0.55339-6.6282 2.3911-8.502 5.0117-2.2355 3.1265-3.0806 7.1327-2.6758 11.09 0.80955 7.9143 7.051 15.927 17.977 15.893 2.416-0.0078 5.4642-0.0078 9.4727-0.0078a2.0002 2.0002 0 1 0 0-4c-4.0085 0-7.0595 8e-6 -9.4863 0.0078-9.0345 0.02876-13.348-6.0782-13.984-12.301-0.31826-3.1113 0.39332-6.1767 1.9512-8.3555 1.5578-2.1788 3.8577-3.5859 7.4023-3.5859h2.7754l-0.87695-2.6328c-0.77587-2.3276 0.94339-5.7201 3.918-7.7031 1.4873-0.99153 3.1889-1.5742 4.7715-1.5742s3.0577 0.50297 4.4688 1.9141l1.875 1.875 1.2871-2.3184c5.4881-9.8786 13.62-11.151 20.182-8.6152 6.562 2.5356 11.127 8.9798 9.125 15.695l-0.73047 2.4473 2.5508 0.12305c3.5393 0.16954 5.9867 1.7189 7.6914 4.0488s2.5694 5.5072 2.4375 8.6758c-0.13191 3.1686-1.2495 6.2806-3.2793 8.5391-2.0298 2.2584-4.931 3.7598-9.1367 3.7598a2.0002 2.0002 0 1 0 0 4c5.2057 0 9.361-2.0258 12.111-5.0859 2.7504-3.0601 4.1348-7.0585 4.3008-11.047 0.16603-3.9884-0.87442-8.0176-3.2051-11.203-1.9405-2.6523-4.8854-4.5947-8.5039-5.3262 1.1657-8.1137-4.446-15.471-11.92-18.359-2.0378-0.78741-4.2338-1.2362-6.4805-1.291zm-9.832 13.02c-2.3769 0-4.3535 1.9766-4.3535 4.3535v35.293c0 2.3769 1.9766 4.3516 4.3535 4.3516h14.117c2.3769 0 4.3535-1.9747 4.3535-4.3516v-35.293c0-2.3769-1.9766-4.3535-4.3535-4.3535zm0 4h14.117c0.23007 0 0.35351 0.12344 0.35351 0.35352v35.293c0 0.23008-0.12344 0.35156-0.35351 0.35156h-14.117c-0.23008 0-0.35352-0.12148-0.35352-0.35156v-35.293c0-0.23008 0.12344-0.35352 0.35352-0.35352zm0 10.941v2.3535h7.0586v-2.3535zm0 4.7051v2.3535h11.764v-2.3535zm0 4.707v2.3516h11.764v-2.3516zm0 4.7051v2.3516h11.764v-2.3516z" color="#000000" color-rendering="auto" dominant-baseline="auto" image-rendering="auto" opacity="1" solid-color="#000000" stroke-width="1.4" style="font-feature-settings:normal;font-variant-alternates:normal;font-variant-caps:normal;font-variant-ligatures:normal;font-variant-numeric:normal;font-variant-position:normal;isolation:auto;mix-blend-mode:normal;shape-padding:0;text-decoration-color:#000000;text-decoration-line:none;text-decoration-style:solid;text-indent:0;text-orientation:mixed;text-transform:none;white-space:normal"/>
<path d="m266.03 15.99c-6.2196-0.1518-12.778 2.8236-17.459 9.9258-1.6939-1.0597-3.499-1.7578-5.3145-1.7578-2.5349 0-4.9482 0.88477-6.9902 2.2461-3.3952 2.2635-5.8652 6.0005-5.752 9.9121-3.6595 0.55339-6.6282 2.3911-8.502 5.0117-2.2355 3.1265-3.0806 7.1327-2.6758 11.09 0.80955 7.9143 7.051 15.927 17.977 15.893 2.416-0.0078 5.4642-0.0078 9.4727-0.0078a2.0002 2.0002 0 1 0 0-4c-4.0085 0-7.0595 8e-6 -9.4863 0.0078-9.0345 0.02876-13.348-6.0782-13.984-12.301-0.31826-3.1113 0.39332-6.1767 1.9512-8.3555 1.5578-2.1788 3.8577-3.5859 7.4023-3.5859h2.7754l-0.87695-2.6328c-0.77587-2.3276 0.94339-5.7201 3.918-7.7031 1.4873-0.99153 3.1889-1.5742 4.7715-1.5742s3.0577 0.50297 4.4688 1.9141l1.875 1.875 1.2871-2.3184c5.4881-9.8786 13.62-11.151 20.182-8.6152 6.562 2.5356 11.127 8.9798 9.125 15.695l-0.73047 2.4473 2.5508 0.12305c3.5393 0.16954 5.9867 1.7189 7.6914 4.0488s2.5694 5.5072 2.4375 8.6758c-0.13191 3.1686-1.2495 6.2806-3.2793 8.5391-2.0298 2.2584-4.931 3.7598-9.1367 3.7598a2.0002 2.0002 0 1 0 0 4c5.2057 0 9.361-2.0258 12.111-5.0859 2.7504-3.0601 4.1348-7.0585 4.3008-11.047 0.16603-3.9884-0.87442-8.0176-3.2051-11.203-1.9405-2.6523-4.8854-4.5947-8.5039-5.3262 1.1657-8.1137-4.446-15.471-11.92-18.359-2.0378-0.78741-4.2338-1.2362-6.4805-1.291zm-9.832 13.02c-2.3769 0-4.3535 1.9766-4.3535 4.3535v35.293c0 2.3769 1.9766 4.3516 4.3535 4.3516h14.117c2.3769 0 4.3535-1.9747 4.3535-4.3516v-35.293c0-2.3769-1.9766-4.3535-4.3535-4.3535zm0 4h14.117c0.23007 0 0.35351 0.12344 0.35351 0.35352v35.293c0 0.23008-0.12344 0.35156-0.35351 0.35156h-14.117c-0.23008 0-0.35352-0.12148-0.35352-0.35156v-35.293c0-0.23008 0.12344-0.35352 0.35352-0.35352zm0 10.941v2.3535h7.0586v-2.3535zm0 4.7051v2.3535h11.764v-2.3535zm0 4.707v2.3516h11.764v-2.3516zm0 4.7051v2.3516h11.764v-2.3516z" color="#000000" color-rendering="auto" dominant-baseline="auto" image-rendering="auto" opacity="1" solid-color="#000000" stroke-width="1.6" style="font-feature-settings:normal;font-variant-alternates:normal;font-variant-caps:normal;font-variant-ligatures:normal;font-variant-numeric:normal;font-variant-position:normal;isolation:auto;mix-blend-mode:normal;shape-padding:0;text-decoration-color:#000000;text-decoration-line:none;text-decoration-style:solid;text-indent:0;text-orientation:mixed;text-transform:none;white-space:normal"/>
<path d="m266.03 15.99c-6.2196-0.1518-12.778 2.8236-17.459 9.9258-1.6939-1.0597-3.499-1.7578-5.3145-1.7578-2.5349 0-4.9482 0.88477-6.9902 2.2461-3.3952 2.2635-5.8652 6.0005-5.752 9.9121-3.6595 0.55339-6.6282 2.3911-8.502 5.0117-2.2355 3.1265-3.0806 7.1327-2.6758 11.09 0.80955 7.9143 7.051 15.927 17.977 15.893 2.416-0.0078 5.4642-0.0078 9.4727-0.0078a2.0002 2.0002 0 1 0 0-4c-4.0085 0-7.0595 8e-6 -9.4863 0.0078-9.0345 0.02876-13.348-6.0782-13.984-12.301-0.31826-3.1113 0.39332-6.1767 1.9512-8.3555 1.5578-2.1788 3.8577-3.5859 7.4023-3.5859h2.7754l-0.87695-2.6328c-0.77587-2.3276 0.94339-5.7201 3.918-7.7031 1.4873-0.99153 3.1889-1.5742 4.7715-1.5742s3.0577 0.50297 4.4688 1.9141l1.875 1.875 1.2871-2.3184c5.4881-9.8786 13.62-11.151 20.182-8.6152 6.562 2.5356 11.127 8.9798 9.125 15.695l-0.73047 2.4473 2.5508 0.12305c3.5393 0.16954 5.9867 1.7189 7.6914 4.0488s2.5694 5.5072 2.4375 8.6758c-0.13191 3.1686-1.2495 6.2806-3.2793 8.5391-2.0298 2.2584-4.931 3.7598-9.1367 3.7598a2.0002 2.0002 0 1 0 0 4c5.2057 0 9.361-2.0258 12.111-5.0859 2.7504-3.0601 4.1348-7.0585 4.3008-11.047 0.16603-3.9884-0.87442-8.0176-3.2051-11.203-1.9405-2.6523-4.8854-4.5947-8.5039-5.3262 1.1657-8.1137-4.446-15.471-11.92-18.359-2.0378-0.78741-4.2338-1.2362-6.4805-1.291zm-9.832 13.02c-2.3769 0-4.3535 1.9766-4.3535 4.3535v35.293c0 2.3769 1.9766 4.3516 4.3535 4.3516h14.117c2.3769 0 4.3535-1.9747 4.3535-4.3516v-35.293c0-2.3769-1.9766-4.3535-4.3535-4.3535zm0 4h14.117c0.23007 0 0.35351 0.12344 0.35351 0.35352v35.293c0 0.23008-0.12344 0.35156-0.35351 0.35156h-14.117c-0.23008 0-0.35352-0.12148-0.35352-0.35156v-35.293c0-0.23008 0.12344-0.35352 0.35352-0.35352zm0 10.941v2.3535h7.0586v-2.3535zm0 4.7051v2.3535h11.764v-2.3535zm0 4.707v2.3516h11.764v-2.3516zm0 4.7051v2.3516h11.764v-2.3516z" color="#000000" color-rendering="auto" dominant-baseline="auto" image-rendering="auto" opacity="1" solid-color="#000000" stroke-width="1.8" style="font-feature-settings:normal;font-variant-alternates:normal;font-variant-caps:normal;font-variant-ligatures:normal;font-variant-numeric:normal;font-variant-position:normal;isolation:auto;mix-blend-mode:normal;shape-padding:0;text-decoration-color:#000000;text-decoration-line:none;text-decoration-style:solid;text-indent:0;text-orientation:mixed;text-transform:none;white-space:normal"/>
<path d="m266.03 15.99c-6.2196-0.1518-12.778 2.8236-17.459 9.9258-1.6939-1.0597-3.499-1.7578-5.3145-1.7578-2.5349 0-4.9482 0.88477-6.9902 2.2461-3.3952 2.2635-5.8652 6.0005-5.752 9.9121-3.6595 0.55339-6.6282 2.3911-8.502 5.0117-2.2355 3.1265-3.0806 7.1327-2.6758 11.09 0.80955 7.9143 7.051 15.927 17.977 15.893 2.416-0.0078 5.4642-0.0078 9.4727-0.0078a2.0002 2.0002 0 1 0 0-4c-4.0085 0-7.0595 8e-6 -9.4863 0.0078-9.0345 0.02876-13.348-6.0782-13.984-12.301-0.31826-3.1113 0.39332-6.1767 1.9512-8.3555 1.5578-2.1788 3.8577-3.5859 7.4023-3.5859h2.7754l-0.87695-2.6328c-0.77587-2.3276 0.94339-5.7201 3.918-7.7031 1.4873-0.99153 3.1889-1.5742 4.7715-1.5742s3.0577 0.50297 4.4688 1.9141l1.875 1.875 1.2871-2.3184c5.4881-9.8786 13.62-11.151 20.182-8.6152 6.562 2.5356 11.127 8.9798 9.125 15.695l-0.73047 2.4473 2.5508 0.12305c3.5393 0.16954 5.9867 1.7189 7.6914 4.0488s2.5694 5.5072 2.4375 8.6758c-0.13191 3.1686-1.2495 6.2806-3.2793 8.5391-2.0298 2.2584-4.931 3.7598-9.1367 3.7598a2.0002 2.0002 0 1 0 0 4c5.2057 0 9.361-2.0258 12.111-5.0859 2.7504-3.0601 4.1348-7.0585 4.3008-11.047 0.16603-3.9884-0.87442-8.0176-3.2051-11.203-1.9405-2.6523-4.8854-4.5947-8.5039-5.3262 1.1657-8.1137-4.446-15.471-11.92-18.359-2.0378-0.78741-4.2338-1.2362-6.4805-1.291zm-9.832 13.02c-2.3769 0-4.3535 1.9766-4.3535 4.3535v35.293c0 2.3769 1.9766 4.3516 4.3535 4.3516h14.117c2.3769 0 4.3535-1.9747 4.3535-4.3516v-35.293c0-2.3769-1.9766-4.3535-4.3535-4.3535zm0 4h14.117c0.23007 0 0.35351 0.12344 0.35351 0.35352v35.293c0 0.23008-0.12344 0.35156-0.35351 0.35156h-14.117c-0.23008 0-0.35352-0.12148-0.35352-0.35156v-35.293c0-0.23008 0.12344-0.35352 0.35352-0.35352zm0 10.941v2.3535h7.0586v-2.3535zm0 4.7051v2.3535h11.764v-2.3535zm0 4.707v2.3516h11.764v-2.3516zm0 4.7051v2.3516h11.764v-2.3516z" color="#000000" color-rendering="auto" dominant-baseline="auto" image-rendering="auto" opacity="1" solid-color="#000000" stroke-width="2" style="font-feature-settings:normal;font-variant-alternates:normal;font-variant-caps:normal;font-variant-ligatures:normal;font-variant-numeric:normal;font-variant-position:normal;isolation:auto;mix-blend-mode:normal;shape-padding:0;text-decoration-color:#000000;text-decoration-line:none;text-decoration-style:solid;text-indent:0;text-orientation:mixed;text-transform:none;white-space:normal"/>
<path d="m266.03 15.99c-6.2196-0.1518-12.778 2.8236-17.459 9.9258-1.6939-1.0597-3.499-1.7578-5.3145-1.7578-2.5349 0-4.9482 0.88477-6.9902 2.2461-3.3952 2.2635-5.8652 6.0005-5.752 9.9121-3.6595 0.55339-6.6282 2.3911-8.502 5.0117-2.2355 3.1265-3.0806 7.1327-2.6758 11.09 0.80955 7.9143 7.051 15.927 17.977 15.893 2.416-0.0078 5.4642-0.0078 9.4727-0.0078a2.0002 2.0002 0 1 0 0-4c-4.0085 0-7.0595 8e-6 -9.4863 0.0078-9.0345 0.02876-13.348-6.0782-13.984-12.301-0.31826-3.1113 0.39332-6.1767 1.9512-8.3555 1.5578-2.1788 3.8577-3.5859 7.4023-3.5859h2.7754l-0.87695-2.6328c-0.77587-2.3276 0.94339-5.7201 3.918-7.7031 1.4873-0.99153 3.1889-1.5742 4.7715-1.5742s3.0577 0.50297 4.4688 1.9141l1.875 1.875 1.2871-2.3184c5.4881-9.8786 13.62-11.151 20.182-8.6152 6.562 2.5356 11.127 8.9798 9.125 15.695l-0.73047 2.4473 2.5508 0.12305c3.5393 0.16954 5.9867 1.7189 7.6914 4.0488s2.5694 5.5072 2.4375 8.6758c-0.13191 3.1686-1.2495 6.2806-3.2793 8.5391-2.0298 2.2584-4.931 3.7598-9.1367 3.7598a2.0002 2.0002 0 1 0 0 4c5.2057 0 9.361-2.0258 12.111-5.0859 2.7504-3.0601 4.1348-7.0585 4.3008-11.047 0.16603-3.9884-0.87442-8.0176-3.2051-11.203-1.9405-2.6523-4.8854-4.5947-8.5039-5.3262 1.1657-8.1137-4.446-15.471-11.92-18.359-2.0378-0.78741-4.2338-1.2362-6.4805-1.291zm-9.832 13.02c-2.3769 0-4.3535 1.9766-4.3535 4.3535v35.293c0 2.3769 1.9766 4.3516 4.3535 4.3516h14.117c2.3769 0 4.3535-1.9747 4.3535-4.3516v-35.293c0-2.3769-1.9766-4.3535-4.3535-4.3535zm0 4h14.117c0.23007 0 0.35351 0.12344 0.35351 0.35352v35.293c0 0.23008-0.12344 0.35156-0.35351 0.35156h-14.117c-0.23008 0-0.35352-0.12148-0.35352-0.35156v-35.293c0-0.23008 0.12344-0.35352 0.35352-0.35352zm0 10.941v2.3535h7.0586v-2.3535zm0 4.7051v2.3535h11.764v-2.3535zm0 4.707v2.3516h11.764v-2.3516zm0 4.7051v2.3516h11.764v-2.3516z" color="#000000" color-rendering="auto" dominant-baseline="auto" image-rendering="auto" opacity="1" solid-color="#000000" stroke-width="2.2" style="font-feature-settings:normal;font-variant-alternates:normal;font-variant-caps:normal;font-variant-ligatures:normal;font-variant-numeric:normal;font-variant-position:normal;isolation:auto;mix-blend-mode:normal;shape-padding:0;text-decoration-color:#000000;text-decoration-line:none;text-decoration-style:solid;text-indent:0;text-orientation:mixed;text-transform:none;white-space:normal"/>
<path d="m266.03 15.99c-6.2196-0.1518-12.778 2.8236-17.459 9.9258-1.6939-1.0597-3.499-1.7578-5.3145-1.7578-2.5349 0-4.9482 0.88477-6.9902 2.2461-3.3952 2.2635-5.8652 6.0005-5.752 9.9121-3.6595 0.55339-6.6282 2.3911-8.502 5.0117-2.2355 3.1265-3.0806 7.1327-2.6758 11.09 0.80955 7.9143 7.051 15.927 17.977 15.893 2.416-0.0078 5.4642-0.0078 9.4727-0.0078a2.0002 2.0002 0 1 0 0-4c-4.0085 0-7.0595 8e-6 -9.4863 0.0078-9.0345 0.02876-13.348-6.0782-13.984-12.301-0.31826-3.1113 0.39332-6.1767 1.9512-8.3555 1.5578-2.1788 3.8577-3.5859 7.4023-3.5859h2.7754l-0.87695-2.6328c-0.77587-2.3276 0.94339-5.7201 3.918-7.7031 1.4873-0.99153 3.1889-1.5742 4.7715-1.5742s3.0577 0.50297 4.4688 1.9141l1.875 1.875 1.2871-2.3184c5.4881-9.8786 13.62-11.151 20.182-8.6152 6.562 2.5356 11.127 8.9798 9.125 15.695l-0.73047 2.4473 2.5508 0.12305c3.5393 0.16954 5.9867 1.7189 7.6914 4.0488s2.5694 5.5072 2.4375 8.6758c-0.13191 3.1686-1.2495 6.2806-3.2793 8.5391-2.0298 2.2584-4.931 3.7598-9.1367 3.7598a2.0002 2.0002 0 1 0 0 4c5.2057 0 9.361-2.0258 12.111-5.0859 2.7504-3.0601 4.1348-7.0585 4.3008-11.047 0.16603-3.9884-0.87442-8.0176-3.2051-11.203-1.9405-2.6523-4.8854-4.5947-8.5039-5.3262 1.1657-8.1137-4.446-15.471-11.92-18.359-2.0378-0.78741-4.2338-1.2362-6.4805-1.291zm-9.832 13.02c-2.3769 0-4.3535 1.9766-4.3535 4.3535v35.293c0 2.3769 1.9766 4.3516 4.3535 4.3516h14.117c2.3769 0 4.3535-1.9747 4.3535-4.3516v-35.293c0-2.3769-1.9766-4.3535-4.3535-4.3535zm0 4h14.117c0.23007 0 0.35351 0.12344 0.35351 0.35352v35.293c0 0.23008-0.12344 0.35156-0.35351 0.35156h-14.117c-0.23008 0-0.35352-0.12148-0.35352-0.35156v-35.293c0-0.23008 0.12344-0.35352 0.35352-0.35352zm0 10.941v2.3535h7.0586v-2.3535zm0 4.7051v2.3535h11.764v-2.3535zm0 4.707v2.3516h11.764v-2.3516zm0 4.7051v2.3516h11.764v-2.3516z" color="#000000" color-rendering="auto" dominant-baseline="auto" image-rendering="auto" opacity="1" solid-color="#000000" stroke-width="2.4" style="font-feature-settings:normal;font-variant-alternates:normal;font-variant-caps:normal;font-variant-ligatures:normal;font-variant-numeric:normal;font-variant-position:normal;isolation:auto;mix-blend-mode:normal;shape-padding:0;text-decoration-color:#000000;text-decoration-line:none;text-decoration-style:solid;text-indent:0;text-orientation:mixed;text-transform:none;white-space:normal"/>
<path d="m266.03 15.99c-6.2196-0.1518-12.778 2.8236-17.459 9.9258-1.6939-1.0597-3.499-1.7578-5.3145-1.7578-2.5349 0-4.9482 0.88477-6.9902 2.2461-3.3952 2.2635-5.8652 6.0005-5.752 9.9121-3.6595 0.55339-6.6282 2.3911-8.502 5.0117-2.2355 3.1265-3.0806 7.1327-2.6758 11.09 0.80955 7.9143 7.051 15.927 17.977 15.893 2.416-0.0078 5.4642-0.0078 9.4727-0.0078a2.0002 2.0002 0 1 0 0-4c-4.0085 0-7.0595 8e-6 -9.4863 0.0078-9.0345 0.02876-13.348-6.0782-13.984-12.301-0.31826-3.1113 0.39332-6.1767 1.9512-8.3555 1.5578-2.1788 3.8577-3.5859 7.4023-3.5859h2.7754l-0.87695-2.6328c-0.77587-2.3276 0.94339-5.7201 3.918-7.7031 1.4873-0.99153 3.1889-1.5742 4.7715-1.5742s3.0577 0.50297 4.4688 1.9141l1.875 1.875 1.2871-2.3184c5.4881-9.8786 13.62-11.151 20.182-8.6152 6.562 2.5356 11.127 8.9798 9.125 15.695l-0.73047 2.4473 2.5508 0.12305c3.5393 0.16954 5.9867 1.7189 7.6914 4.0488s2.5694 5.5072 2.4375 8.6758c-0.13191 3.1686-1.2495 6.2806-3.2793 8.5391-2.0298 2.2584-4.931 3.7598-9.1367 3.7598a2.0002 2.0002 0 1 0 0 4c5.2057 0 9.361-2.0258 12.111-5.0859 2.7504-3.0601 4.1348-7.0585 4.3008-11.047 0.16603-3.9884-0.87442-8.0176-3.2051-11.203-1.9405-2.6523-4.8854-4.5947-8.5039-5.3262 1.1657-8.1137-4.446-15.471-11.92-18.359-2.0378-0.78741-4.2338-1.2362-6.4805-1.291zm-9.832 13.02c-2.3769 0-4.3535 1.9766-4.3535 4.3535v35.293c0 2.3769 1.9766 4.3516 4.3535 4.3516h14.117c2.3769 0 4.3535-1.9747 4.3535-4.3516v-35.293c0-2.3769-1.9766-4.3535-4.3535-4.3535zm0 4h14.117c0.23007 0 0.35351 0.12344 0.35351 0.35352v35.293c0 0.23008-0.12344 0.35156-0.35351 0.35156h-14.117c-0.23008 0-0.35352-0.12148-0.35352-0.35156v-35.293c0-0.23008 0.12344-0.35352 0.35352-0.35352zm0 10.941v2.3535h7.0586v-2.3535zm0 4.7051v2.3535h11.764v-2.3535zm0 4.707v2.3516h11.764v-2.3516zm0 4.7051v2.3516h11.764v-2.3516z" color="#000000" color-rendering="auto" dominant-baseline="auto" image-rendering="auto" opacity="1" solid-color="#000000" stroke-width="2.6" style="font-feature-settings:normal;font-variant-alternates:normal;font-variant-caps:normal;font-variant-ligatures:normal;font-variant-numeric:normal;font-variant-position:normal;isolation:auto;mix-blend-mode:normal;shape-padding:0;text-decoration-color:#000000;text-decoration-line:none;text-decoration-style:solid;text-indent:0;text-orientation:mixed;text-transform:none;white-space:normal"/>
<path d="m266.03 15.99c-6.2196-0.1518-12.778 2.8236-17.459 9.9258-1.6939-1.0597-3.499-1.7578-5.3145-1.7578-2.5349 0-4.9482 0.88477-6.9902 2.2461-3.3952 2.2635-5.8652 6.0005-5.752 9.9121-3.6595 0.55339-6.6282 2.3911-8.502 5.0117-2.2355 3.1265-3.0806 7.1327-2.6758 11.09 0.80955 7.9143 7.051 15.927 17.977 15.893 2.416-0.0078 5.4642-0.0078 9.4727-0.0078a2.0002 2.0002 0 1 0 0-4c-4.0085 0-7.0595 8e-6 -9.4863 0.0078-9.0345 0.02876-13.348-6.0782-13.984-12.301-0.31826-3.1113 0.39332-6.1767 1.9512-8.3555 1.5578-2.1788 3.8577-3.5859 7.4023-3.5859h2.7754l-0.87695-2.6328c-0.77587-2.3276 0.94339-5.7201 3.918-7.7031 1.4873-0.99153 3.1889-1.5742 4.7715-1.5742s3.0577 0.50297 4.4688 1.9141l1.875 1.875 1.2871-2.3184c5.4881-9.8786 13.62-11.151 20.182-8.6152 6.562 2.5356 11.127 8.9798 9.125 15.695l-0.73047 2.4473 2.5508 0.12305c3.5393 0.16954 5.9867 1.7189 7.6914 4.0488s2.5694 5.5072 2.4375 8.6758c-0.13191 3.1686-1.2495 6.2806-3.2793 8.5391-2.0298 2.2584-4.931 3.7598-9.1367 3.7598a2.0002 2.0002 0 1 0 0 4c5.2057 0 9.361-2.0258 12.111-5.0859 2.7504-3.0601 4.1348-7.0585 4.3008-11.047 0.16603-3.9884-0.87442-8.0176-3.2051-11.203-1.9405-2.6523-4.8854-4.5947-8.5039-5.3262 1.1657-8.1137-4.446-15.471-11.92-18.359-2.0378-0.78741-4.2338-1.2362-6.4805-1.291zm-9.832 13.02c-2.3769 0-4.3535 1.9766-4.3535 4.3535v35.293c0 2.3769 1.9766 4.3516 4.3535 4.3516h14.117c2.3769 0 4.3535-1.9747 4.3535-4.3516v-35.293c0-2.3769-1.9766-4.3535-4.3535-4.3535zm0 4h14.117c0.23007 0 0.35351 0.12344 0.35351 0.35352v35.293c0 0.23008-0.12344 0.35156-0.35351 0.35156h-14.117c-0.23008 0-0.35352-0.12148-0.35352-0.35156v-35.293c0-0.23008 0.12344-0.35352 0.35352-0.35352zm0 10.941v2.3535h7.0586v-2.3535zm0 4.7051v2.3535h11.764v-2.3535zm0 4.707v2.3516h11.764v-2.3516zm0 4.7051v2.3516h11.764v-2.3516z" color="#000000" color-rendering="auto" dominant-baseline="auto" image-rendering="auto" opacity="1" solid-color="#000000" stroke-width="2.8" style="font-feature-settings:normal;font-variant-alternates:normal;font-variant-caps:normal;font-variant-ligatures:normal;font-variant-numeric:normal;font-variant-position:normal;isolation:auto;mix-blend-mode:normal;shape-padding:0;text-decoration-color:#000000;text-decoration-line:none;text-decoration-style:solid;text-indent:0;text-orientation:mixed;text-transform:none;white-space:normal"/>
<path d="m266.03 15.99c-6.2196-0.1518-12.778 2.8236-17.459 9.9258-1.6939-1.0597-3.499-1.7578-5.3145-1.7578-2.5349 0-4.9482 0.88477-6.9902 2.2461-3.3952 2.2635-5.8652 6.0005-5.752 9.9121-3.6595 0.55339-6.6282 2.3911-8.502 5.0117-2.2355 3.1265-3.0806 7.1327-2.6758 11.09 0.80955 7.9143 7.051 15.927 17.977 15.893 2.416-0.0078 5.4642-0.0078 9.4727-0.0078a2.0002 2.0002 0 1 0 0-4c-4.0085 0-7.0595 8e-6 -9.4863 0.0078-9.0345 0.02876-13.348-6.0782-13.984-12.301-0.31826-3.1113 0.39332-6.1767 1.9512-8.3555 1.5578-2.1788 3.8577-3.5859 7.4023-3.5859h2.7754l-0.87695-2.6328c-0.77587-2.3276 0.94339-5.7201 3.918-7.7031 1.4873-0.99153 3.1889-1.5742 4.7715-1.5742s3.0577 0.50297 4.4688 1.9141l1.875 1.875 1.2871-2.3184c5.4881-9.8786 13.62-11.151 20.182-8.6152 6.562 2.5356 11.127 8.9798 9.125 15.695l-0.73047 2.4473 2.5508 0.12305c3.5393 0.16954 5.9867 1.7189 7.6914 4.0488s2.5694 5.5072 2.4375 8.6758c-0.13191 3.1686-1.2495 6.2806-3.2793 8.5391-2.0298 2.2584-4.931 3.7598-9.1367 3.7598a2.0002 2.0002 0 1 0 0 4c5.2057 0 9.361-2.0258 12.111-5.0859 2.7504-3.0601 4.1348-7.0585 4.3008-11.047 0.16603-3.9884-0.87442-8.0176-3.2051-11.203-1.9405-2.6523-4.8854-4.5947-8.5039-5.3262 1.1657-8.1137-4.446-15.471-11.92-18.359-2.0378-0.78741-4.2338-1.2362-6.4805-1.291zm-9.832 13.02c-2.3769 0-4.3535 1.9766-4.3535 4.3535v35.293c0 2.3769 1.9766 4.3516 4.3535 4.3516h14.117c2.3769 0 4.3535-1.9747 4.3535-4.3516v-35.293c0-2.3769-1.9766-4.3535-4.3535-4.3535zm0 4h14.117c0.23007 0 0.35351 0.12344 0.35351 0.35352v35.293c0 0.23008-0.12344 0.35156-0.35351 0.35156h-14.117c-0.23008 0-0.35352-0.12148-0.35352-0.35156v-35.293c0-0.23008 0.12344-0.35352 0.35352-0.35352zm0 10.941v2.3535h7.0586v-2.3535zm0 4.7051v2.3535h11.764v-2.3535zm0 4.707v2.3516h11.764v-2.3516zm0 4.7051v2.3516h11.764v-2.3516z" color="#000000" color-rendering="auto" dominant-baseline="auto" image-rendering="auto" opacity="1" solid-color="#000000" stroke-width="2.8" style="font-feature-settings:normal;font-variant-alternates:normal;font-variant-caps:normal;font-variant-ligatures:normal;font-variant-numeric:normal;font-variant-position:normal;isolation:auto;mix-blend-mode:normal;shape-padding:0;text-decoration-color:#000000;text-decoration-line:none;text-decoration-style:solid;text-indent:0;text-orientation:mixed;text-transform:none;white-space:normal"/>
<path d="m266.03 15.99c-6.2196-0.1518-12.778 2.8236-17.459 9.9258-1.6939-1.0597-3.499-1.7578-5.3145-1.7578-2.5349 0-4.9482 0.88477-6.9902 2.2461-3.3952 2.2635-5.8652 6.0005-5.752 9.9121-3.6595 0.55339-6.6282 2.3911-8.502 5.0117-2.2355 3.1265-3.0806 7.1327-2.6758 11.09 0.80955 7.9143 7.051 15.927 17.977 15.893 2.416-0.0078 5.4642-0.0078 9.4727-0.0078a2.0002 2.0002 0 1 0 0-4c-4.0085 0-7.0595 8e-6 -9.4863 0.0078-9.0345 0.02876-13.348-6.0782-13.984-12.301-0.31826-3.1113 0.39332-6.1767 1.9512-8.3555 1.5578-2.1788 3.8577-3.5859 7.4023-3.5859h2.7754l-0.87695-2.6328c-0.77587-2.3276 0.94339-5.7201 3.918-7.7031 1.4873-0.99153 3.1889-1.5742 4.7715-1.5742s3.0577 0.50297 4.4688 1.9141l1.875 1.875 1.2871-2.3184c5.4881-9.8786 13.62-11.151 20.182-8.6152 6.562 2.5356 11.127 8.9798 9.125 15.695l-0.73047 2.4473 2.5508 0.12305c3.5393 0.16954 5.9867 1.7189 7.6914 4.0488s2.5694 5.5072 2.4375 8.6758c-0.13191 3.1686-1.2495 6.2806-3.2793 8.5391-2.0298 2.2584-4.931 3.7598-9.1367 3.7598a2.0002 2.0002 0 1 0 0 4c5.2057 0 9.361-2.0258 12.111-5.0859 2.7504-3.0601 4.1348-7.0585 4.3008-11.047 0.16603-3.9884-0.87442-8.0176-3.2051-11.203-1.9405-2.6523-4.8854-4.5947-8.5039-5.3262 1.1657-8.1137-4.446-15.471-11.92-18.359-2.0378-0.78741-4.2338-1.2362-6.4805-1.291zm-9.832 13.02c-2.3769 0-4.3535 1.9766-4.3535 4.3535v35.293c0 2.3769 1.9766 4.3516 4.3535 4.3516h14.117c2.3769 0 4.3535-1.9747 4.3535-4.3516v-35.293c0-2.3769-1.9766-4.3535-4.3535-4.3535zm0 4h14.117c0.23007 0 0.35351 0.12344 0.35351 0.35352v35.293c0 0.23008-0.12344 0.35156-0.35351 0.35156h-14.117c-0.23008 0-0.35352-0.12148-0.35352-0.35156v-35.293c0-0.23008 0.12344-0.35352 0.35352-0.35352zm0 10.941v2.3535h7.0586v-2.3535zm0 4.7051v2.3535h11.764v-2.3535zm0 4.707v2.3516h11.764v-2.3516zm0 4.7051v2.3516h11.764v-2.3516z" color="#000000" color-rendering="auto" dominant-baseline="auto" image-rendering="auto" opacity="1" solid-color="#000000" stroke-width="3" style="font-feature-settings:normal;font-variant-alternates:normal;font-variant-caps:normal;font-variant-ligatures:normal;font-variant-numeric:normal;font-variant-position:normal;isolation:auto;mix-blend-mode:normal;shape-padding:0;text-decoration-color:#000000;text-decoration-line:none;text-decoration-style:solid;text-indent:0;text-orientation:mixed;text-transform:none;white-space:normal"/>
<path d="m266.03 15.99c-6.2196-0.1518-12.778 2.8236-17.459 9.9258-1.6939-1.0597-3.499-1.7578-5.3145-1.7578-2.5349 0-4.9482 0.88477-6.9902 2.2461-3.3952 2.2635-5.8652 6.0005-5.752 9.9121-3.6595 0.55339-6.6282 2.3911-8.502 5.0117-2.2355 3.1265-3.0806 7.1327-2.6758 11.09 0.80955 7.9143 7.051 15.927 17.977 15.893 2.416-0.0078 5.4642-0.0078 9.4727-0.0078a2.0002 2.0002 0 1 0 0-4c-4.0085 0-7.0595 8e-6 -9.4863 0.0078-9.0345 0.02876-13.348-6.0782-13.984-12.301-0.31826-3.1113 0.39332-6.1767 1.9512-8.3555 1.5578-2.1788 3.8577-3.5859 7.4023-3.5859h2.7754l-0.87695-2.6328c-0.77587-2.3276 0.94339-5.7201 3.918-7.7031 1.4873-0.99153 3.1889-1.5742 4.7715-1.5742s3.0577 0.50297 4.4688 1.9141l1.875 1.875 1.2871-2.3184c5.4881-9.8786 13.62-11.151 20.182-8.6152 6.562 2.5356 11.127 8.9798 9.125 15.695l-0.73047 2.4473 2.5508 0.12305c3.5393 0.16954 5.9867 1.7189 7.6914 4.0488s2.5694 5.5072 2.4375 8.6758c-0.13191 3.1686-1.2495 6.2806-3.2793 8.5391-2.0298 2.2584-4.931 3.7598-9.1367 3.7598a2.0002 2.0002 0 1 0 0 4c5.2057 0 9.361-2.0258 12.111-5.0859 2.7504-3.0601 4.1348-7.0585 4.3008-11.047 0.16603-3.9884-0.87442-8.0176-3.2051-11.203-1.9405-2.6523-4.8854-4.5947-8.5039-5.3262 1.1657-8.1137-4.446-15.471-11.92-18.359-2.0378-0.78741-4.2338-1.2362-6.4805-1.291zm-9.832 13.02c-2.3769 0-4.3535 1.9766-4.3535 4.3535v35.293c0 2.3769 1.9766 4.3516 4.3535 4.3516h14.117c2.3769 0 4.3535-1.9747 4.3535-4.3516v-35.293c0-2.3769-1.9766-4.3535-4.3535-4.3535zm0 4h14.117c0.23007 0 0.35351 0.12344 0.35351 0.35352v35.293c0 0.23008-0.12344 0.35156-0.35351 0.35156h-14.117c-0.23008 0-0.35352-0.12148-0.35352-0.35156v-35.293c0-0.23008 0.12344-0.35352 0.35352-0.35352zm0 10.941v2.3535h7.0586v-2.3535zm0 4.7051v2.3535h11.764v-2.3535zm0 4.707v2.3516h11.764v-2.3516zm0 4.7051v2.3516h11.764v-2.3516z" color="#000000" color-rendering="auto" dominant-baseline="auto" image-rendering="auto" opacity="1" solid-color="#000000" stroke-width="3.3" style="font-feature-settings:normal;font-variant-alternates:normal;font-variant-caps:normal;font-variant-ligatures:normal;font-variant-numeric:normal;font-variant-position:normal;isolation:auto;mix-blend-mode:normal;shape-padding:0;text-decoration-color:#000000;text-decoration-line:none;text-decoration-style:solid;text-indent:0;text-orientation:mixed;text-transform:none;white-space:normal"/>
<path d="m266.03 15.99c-6.2196-0.1518-12.778 2.8236-17.459 9.9258-1.6939-1.0597-3.499-1.7578-5.3145-1.7578-2.5349 0-4.9482 0.88477-6.9902 2.2461-3.3952 2.2635-5.8652 6.0005-5.752 9.9121-3.6595 0.55339-6.6282 2.3911-8.502 5.0117-2.2355 3.1265-3.0806 7.1327-2.6758 11.09 0.80955 7.9143 7.051 15.927 17.977 15.893 2.416-0.0078 5.4642-0.0078 9.4727-0.0078a2.0002 2.0002 0 1 0 0-4c-4.0085 0-7.0595 8e-6 -9.4863 0.0078-9.0345 0.02876-13.348-6.0782-13.984-12.301-0.31826-3.1113 0.39332-6.1767 1.9512-8.3555 1.5578-2.1788 3.8577-3.5859 7.4023-3.5859h2.7754l-0.87695-2.6328c-0.77587-2.3276 0.94339-5.7201 3.918-7.7031 1.4873-0.99153 3.1889-1.5742 4.7715-1.5742s3.0577 0.50297 4.4688 1.9141l1.875 1.875 1.2871-2.3184c5.4881-9.8786 13.62-11.151 20.182-8.6152 6.562 2.5356 11.127 8.9798 9.125 15.695l-0.73047 2.4473 2.5508 0.12305c3.5393 0.16954 5.9867 1.7189 7.6914 4.0488s2.5694 5.5072 2.4375 8.6758c-0.13191 3.1686-1.2495 6.2806-3.2793 8.5391-2.0298 2.2584-4.931 3.7598-9.1367 3.7598a2.0002 2.0002 0 1 0 0 4c5.2057 0 9.361-2.0258 12.111-5.0859 2.7504-3.0601 4.1348-7.0585 4.3008-11.047 0.16603-3.9884-0.87442-8.0176-3.2051-11.203-1.9405-2.6523-4.8854-4.5947-8.5039-5.3262 1.1657-8.1137-4.446-15.471-11.92-18.359-2.0378-0.78741-4.2338-1.2362-6.4805-1.291zm-9.832 13.02c-2.3769 0-4.3535 1.9766-4.3535 4.3535v35.293c0 2.3769 1.9766 4.3516 4.3535 4.3516h14.117c2.3769 0 4.3535-1.9747 4.3535-4.3516v-35.293c0-2.3769-1.9766-4.3535-4.3535-4.3535zm0 4h14.117c0.23007 0 0.35351 0.12344 0.35351 0.35352v35.293c0 0.23008-0.12344 0.35156-0.35351 0.35156h-14.117c-0.23008 0-0.35352-0.12148-0.35352-0.35156v-35.293c0-0.23008 0.12344-0.35352 0.35352-0.35352zm0 10.941v2.3535h7.0586v-2.3535zm0 4.7051v2.3535h11.764v-2.3535zm0 4.707v2.3516h11.764v-2.3516zm0 4.7051v2.3516h11.764v-2.3516z" color="#000000" color-rendering="auto" dominant-baseline="auto" image-rendering="auto" opacity="1" solid-color="#000000" stroke-width="3.6" style="font-feature-settings:normal;font-variant-alternates:normal;font-variant-caps:normal;font-variant-ligatures:normal;font-variant-numeric:normal;font-variant-position:normal;isolation:auto;mix-blend-mode:normal;shape-padding:0;text-decoration-color:#000000;text-decoration-line:none;text-decoration-style:solid;text-indent:0;text-orientation:mixed;text-transform:none;white-space:normal"/>
<path d="m266.03 15.99c-6.2196-0.1518-12.778 2.8236-17.459 9.9258-1.6939-1.0597-3.499-1.7578-5.3145-1.7578-2.5349 0-4.9482 0.88477-6.9902 2.2461-3.3952 2.2635-5.8652 6.0005-5.752 9.9121-3.6595 0.55339-6.6282 2.3911-8.502 5.0117-2.2355 3.1265-3.0806 7.1327-2.6758 11.09 0.80955 7.9143 7.051 15.927 17.977 15.893 2.416-0.0078 5.4642-0.0078 9.4727-0.0078a2.0002 2.0002 0 1 0 0-4c-4.0085 0-7.0595 8e-6 -9.4863 0.0078-9.0345 0.02876-13.348-6.0782-13.984-12.301-0.31826-3.1113 0.39332-6.1767 1.9512-8.3555 1.5578-2.1788 3.8577-3.5859 7.4023-3.5859h2.7754l-0.87695-2.6328c-0.77587-2.3276 0.94339-5.7201 3.918-7.7031 1.4873-0.99153 3.1889-1.5742 4.7715-1.5742s3.0577 0.50297 4.4688 1.9141l1.875 1.875 1.2871-2.3184c5.4881-9.8786 13.62-11.151 20.182-8.6152 6.562 2.5356 11.127 8.9798 9.125 15.695l-0.73047 2.4473 2.5508 0.12305c3.5393 0.16954 5.9867 1.7189 7.6914 4.0488s2.5694 5.5072 2.4375 8.6758c-0.13191 3.1686-1.2495 6.2806-3.2793 8.5391-2.0298 2.2584-4.931 3.7598-9.1367 3.7598a2.0002 2.0002 0 1 0 0 4c5.2057 0 9.361-2.0258 12.111-5.0859 2.7504-3.0601 4.1348-7.0585 4.3008-11.047 0.16603-3.9884-0.87442-8.0176-3.2051-11.203-1.9405-2.6523-4.8854-4.5947-8.5039-5.3262 1.1657-8.1137-4.446-15.471-11.92-18.359-2.0378-0.78741-4.2338-1.2362-6.4805-1.291zm-9.832 13.02c-2.3769 0-4.3535 1.9766-4.3535 4.3535v35.293c0 2.3769 1.9766 4.3516 4.3535 4.3516h14.117c2.3769 0 4.3535-1.9747 4.3535-4.3516v-35.293c0-2.3769-1.9766-4.3535-4.3535-4.3535zm0 4h14.117c0.23007 0 0.35351 0.12344 0.35351 0.35352v35.293c0 0.23008-0.12344 0.35156-0.35351 0.35156h-14.117c-0.23008 0-0.35352-0.12148-0.35352-0.35156v-35.293c0-0.23008 0.12344-0.35352 0.35352-0.35352zm0 10.941v2.3535h7.0586v-2.3535zm0 4.7051v2.3535h11.764v-2.3535zm0 4.707v2.3516h11.764v-2.3516zm0 4.7051v2.3516h11.764v-2.3516z" color="#000000" color-rendering="auto" dominant-baseline="auto" image-rendering="auto" opacity="1" solid-color="#000000" stroke-width="3.9" style="font-feature-settings:normal;font-variant-alternates:normal;font-variant-caps:normal;font-variant-ligatures:normal;font-variant-numeric:normal;font-variant-position:normal;isolation:auto;mix-blend-mode:normal;shape-padding:0;text-decoration-color:#000000;text-decoration-line:none;text-decoration-style:solid;text-indent:0;text-orientation:mixed;text-transform:none;white-space:normal"/>
<path d="m266.03 15.99c-6.2196-0.1518-12.778 2.8236-17.459 9.9258-1.6939-1.0597-3.499-1.7578-5.3145-1.7578-2.5349 0-4.9482 0.88477-6.9902 2.2461-3.3952 2.2635-5.8652 6.0005-5.752 9.9121-3.6595 0.55339-6.6282 2.3911-8.502 5.0117-2.2355 3.1265-3.0806 7.1327-2.6758 11.09 0.80955 7.9143 7.051 15.927 17.977 15.893 2.416-0.0078 5.4642-0.0078 9.4727-0.0078a2.0002 2.0002 0 1 0 0-4c-4.0085 0-7.0595 8e-6 -9.4863 0.0078-9.0345 0.02876-13.348-6.0782-13.984-12.301-0.31826-3.1113 0.39332-6.1767 1.9512-8.3555 1.5578-2.1788 3.8577-3.5859 7.4023-3.5859h2.7754l-0.87695-2.6328c-0.77587-2.3276 0.94339-5.7201 3.918-7.7031 1.4873-0.99153 3.1889-1.5742 4.7715-1.5742s3.0577 0.50297 4.4688 1.9141l1.875 1.875 1.2871-2.3184c5.4881-9.8786 13.62-11.151 20.182-8.6152 6.562 2.5356 11.127 8.9798 9.125 15.695l-0.73047 2.4473 2.5508 0.12305c3.5393 0.16954 5.9867 1.7189 7.6914 4.0488s2.5694 5.5072 2.4375 8.6758c-0.13191 3.1686-1.2495 6.2806-3.2793 8.5391-2.0298 2.2584-4.931 3.7598-9.1367 3.7598a2.0002 2.0002 0 1 0 0 4c5.2057 0 9.361-2.0258 12.111-5.0859 2.7504-3.0601 4.1348-7.0585 4.3008-11.047 0.16603-3.9884-0.87442-8.0176-3.2051-11.203-1.9405-2.6523-4.8854-4.5947-8.5039-5.3262 1.1657-8.1137-4.446-15.471-11.92-18.359-2.0378-0.78741-4.2338-1.2362-6.4805-1.291zm-9.832 13.02c-2.3769 0-4.3535 1.9766-4.3535 4.3535v35.293c0 2.3769 1.9766 4.3516 4.3535 4.3516h14.117c2.3769 0 4.3535-1.9747 4.3535-4.3516v-35.293c0-2.3769-1.9766-4.3535-4.3535-4.3535zm0 4h14.117c0.23007 0 0.35351 0.12344 0.35351 0.35352v35.293c0 0.23008-0.12344 0.35156-0.35351 0.35156h-14.117c-0.23008 0-0.35352-0.12148-0.35352-0.35156v-35.293c0-0.23008 0.12344-0.35352 0.35352-0.35352zm0 10.941v2.3535h7.0586v-2.3535zm0 4.7051v2.3535h11.764v-2.3535zm0 4.707v2.3516h11.764v-2.3516zm0 4.7051v2.3516h11.764v-2.3516z" color="#000000" color-rendering="auto" dominant-baseline="auto" image-rendering="auto" opacity="1" solid-color="#000000" stroke-width="4.2" style="font-feature-settings:normal;font-variant-alternates:normal;font-variant-caps:normal;font-variant-ligatures:normal;font-variant-numeric:normal;font-variant-position:normal;isolation:auto;mix-blend-mode:normal;shape-padding:0;text-decoration-color:#000000;text-decoration-line:none;text-decoration-style:solid;text-indent:0;text-orientation:mixed;text-transform:none;white-space:normal"/>
<path d="m266.03 15.99c-6.2196-0.1518-12.778 2.8236-17.459 9.9258-1.6939-1.0597-3.499-1.7578-5.3145-1.7578-2.5349 0-4.9482 0.88477-6.9902 2.2461-3.3952 2.2635-5.8652 6.0005-5.752 9.9121-3.6595 0.55339-6.6282 2.3911-8.502 5.0117-2.2355 3.1265-3.0806 7.1327-2.6758 11.09 0.80955 7.9143 7.051 15.927 17.977 15.893 2.416-0.0078 5.4642-0.0078 9.4727-0.0078a2.0002 2.0002 0 1 0 0-4c-4.0085 0-7.0595 8e-6 -9.4863 0.0078-9.0345 0.02876-13.348-6.0782-13.984-12.301-0.31826-3.1113 0.39332-6.1767 1.9512-8.3555 1.5578-2.1788 3.8577-3.5859 7.4023-3.5859h2.7754l-0.87695-2.6328c-0.77587-2.3276 0.94339-5.7201 3.918-7.7031 1.4873-0.99153 3.1889-1.5742 4.7715-1.5742s3.0577 0.50297 4.4688 1.9141l1.875 1.875 1.2871-2.3184c5.4881-9.8786 13.62-11.151 20.182-8.6152 6.562 2.5356 11.127 8.9798 9.125 15.695l-0.73047 2.4473 2.5508 0.12305c3.5393 0.16954 5.9867 1.7189 7.6914 4.0488s2.5694 5.5072 2.4375 8.6758c-0.13191 3.1686-1.2495 6.2806-3.2793 8.5391-2.0298 2.2584-4.931 3.7598-9.1367 3.7598a2.0002 2.0002 0 1 0 0 4c5.2057 0 9.361-2.0258 12.111-5.0859 2.7504-3.0601 4.1348-7.0585 4.3008-11.047 0.16603-3.9884-0.87442-8.0176-3.2051-11.203-1.9405-2.6523-4.8854-4.5947-8.5039-5.3262 1.1657-8.1137-4.446-15.471-11.92-18.359-2.0378-0.78741-4.2338-1.2362-6.4805-1.291zm-9.832 13.02c-2.3769 0-4.3535 1.9766-4.3535 4.3535v35.293c0 2.3769 1.9766 4.3516 4.3535 4.3516h14.117c2.3769 0 4.3535-1.9747 4.3535-4.3516v-35.293c0-2.3769-1.9766-4.3535-4.3535-4.3535zm0 4h14.117c0.23007 0 0.35351 0.12344 0.35351 0.35352v35.293c0 0.23008-0.12344 0.35156-0.35351 0.35156h-14.117c-0.23008 0-0.35352-0.12148-0.35352-0.35156v-35.293c0-0.23008 0.12344-0.35352 0.35352-0.35352zm0 10.941v2.3535h7.0586v-2.3535zm0 4.7051v2.3535h11.764v-2.3535zm0 4.707v2.3516h11.764v-2.3516zm0 4.7051v2.3516h11.764v-2.3516z" color="#000000" color-rendering="auto" dominant-baseline="auto" image-rendering="auto" opacity="1" solid-color="#000000" stroke-width="4.5" style="font-feature-settings:normal;font-variant-alternates:normal;font-variant-caps:normal;font-variant-ligatures:normal;font-variant-numeric:normal;font-variant-position:normal;isolation:auto;mix-blend-mode:normal;shape-padding:0;text-decoration-color:#000000;text-decoration-line:none;text-decoration-style:solid;text-indent:0;text-orientation:mixed;text-transform:none;white-space:normal"/>
<path d="m266.03 15.99c-6.2196-0.1518-12.778 2.8236-17.459 9.9258-1.6939-1.0597-3.499-1.7578-5.3145-1.7578-2.5349 0-4.9482 0.88477-6.9902 2.2461-3.3952 2.2635-5.8652 6.0005-5.752 9.9121-3.6595 0.55339-6.6282 2.3911-8.502 5.0117-2.2355 3.1265-3.0806 7.1327-2.6758 11.09 0.80955 7.9143 7.051 15.927 17.977 15.893 2.416-0.0078 5.4642-0.0078 9.4727-0.0078a2.0002 2.0002 0 1 0 0-4c-4.0085 0-7.0595 8e-6 -9.4863 0.0078-9.0345 0.02876-13.348-6.0782-13.984-12.301-0.31826-3.1113 0.39332-6.1767 1.9512-8.3555 1.5578-2.1788 3.8577-3.5859 7.4023-3.5859h2.7754l-0.87695-2.6328c-0.77587-2.3276 0.94339-5.7201 3.918-7.7031 1.4873-0.99153 3.1889-1.5742 4.7715-1.5742s3.0577 0.50297 4.4688 1.9141l1.875 1.875 1.2871-2.3184c5.4881-9.8786 13.62-11.151 20.182-8.6152 6.562 2.5356 11.127 8.9798 9.125 15.695l-0.73047 2.4473 2.5508 0.12305c3.5393 0.16954 5.9867 1.7189 7.6914 4.0488s2.5694 5.5072 2.4375 8.6758c-0.13191 3.1686-1.2495 6.2806-3.2793 8.5391-2.0298 2.2584-4.931 3.7598-9.1367 3.7598a2.0002 2.0002 0 1 0 0 4c5.2057 0 9.361-2.0258 12.111-5.0859 2.7504-3.0601 4.1348-7.0585 4.3008-11.047 0.16603-3.9884-0.87442-8.0176-3.2051-11.203-1.9405-2.6523-4.8854-4.5947-8.5039-5.3262 1.1657-8.1137-4.446-15.471-11.92-18.359-2.0378-0.78741-4.2338-1.2362-6.4805-1.291zm-9.832 13.02c-2.3769 0-4.3535 1.9766-4.3535 4.3535v35.293c0 2.3769 1.9766 4.3516 4.3535 4.3516h14.117c2.3769 0 4.3535-1.9747 4.3535-4.3516v-35.293c0-2.3769-1.9766-4.3535-4.3535-4.3535zm0 4h14.117c0.23007 0 0.35351 0.12344 0.35351 0.35352v35.293c0 0.23008-0.12344 0.35156-0.35351 0.35156h-14.117c-0.23008 0-0.35352-0.12148-0.35352-0.35156v-35.293c0-0.23008 0.12344-0.35352 0.35352-0.35352zm0 10.941v2.3535h7.0586v-2.3535zm0 4.7051v2.3535h11.764v-2.3535zm0 4.707v2.3516h11.764v-2.3516zm0 4.7051v2.3516h11.764v-2.3516z" color="#000000" color-rendering="auto" dominant-baseline="auto" image-rendering="auto" opacity="1" solid-color="#000000" stroke-width="4.8" style="font-feature-settings:normal;font-variant-alternates:normal;font-variant-caps:normal;font-variant-ligatures:normal;font-variant-numeric:normal;font-variant-position:normal;isolation:auto;mix-blend-mode:normal;shape-padding:0;text-decoration-color:#000000;text-decoration-line:none;text-decoration-style:solid;text-indent:0;text-orientation:mixed;text-transform:none;white-space:normal"/>
<path d="m266.03 15.99c-6.2196-0.1518-12.778 2.8236-17.459 9.9258-1.6939-1.0597-3.499-1.7578-5.3145-1.7578-2.5349 0-4.9482 0.88477-6.9902 2.2461-3.3952 2.2635-5.8652 6.0005-5.752 9.9121-3.6595 0.55339-6.6282 2.3911-8.502 5.0117-2.2355 3.1265-3.0806 7.1327-2.6758 11.09 0.80955 7.9143 7.051 15.927 17.977 15.893 2.416-0.0078 5.4642-0.0078 9.4727-0.0078a2.0002 2.0002 0 1 0 0-4c-4.0085 0-7.0595 8e-6 -9.4863 0.0078-9.0345 0.02876-13.348-6.0782-13.984-12.301-0.31826-3.1113 0.39332-6.1767 1.9512-8.3555 1.5578-2.1788 3.8577-3.5859 7.4023-3.5859h2.7754l-0.87695-2.6328c-0.77587-2.3276 0.94339-5.7201 3.918-7.7031 1.4873-0.99153 3.1889-1.5742 4.7715-1.5742s3.0577 0.50297 4.4688 1.9141l1.875 1.875 1.2871-2.3184c5.4881-9.8786 13.62-11.151 20.182-8.6152 6.562 2.5356 11.127 8.9798 9.125 15.695l-0.73047 2.4473 2.5508 0.12305c3.5393 0.16954 5.9867 1.7189 7.6914 4.0488s2.5694 5.5072 2.4375 8.6758c-0.13191 3.1686-1.2495 6.2806-3.2793 8.5391-2.0298 2.2584-4.931 3.7598-9.1367 3.7598a2.0002 2.0002 0 1 0 0 4c5.2057 0 9.361-2.0258 12.111-5.0859 2.7504-3.0601 4.1348-7.0585 4.3008-11.047 0.16603-3.9884-0.87442-8.0176-3.2051-11.203-1.9405-2.6523-4.8854-4.5947-8.5039-5.3262 1.1657-8.1137-4.446-15.471-11.92-18.359-2.0378-0.78741-4.2338-1.2362-6.4805-1.291zm-9.832 13.02c-2.3769 0-4.3535 1.9766-4.3535 4.3535v35.293c0 2.3769 1.9766 4.3516 4.3535 4.3516h14.117c2.3769 0 4.3535-1.9747 4.3535-4.3516v-35.293c0-2.3769-1.9766-4.3535-4.3535-4.3535zm0 4h14.117c0.23007 0 0.35351 0.12344 0.35351 0.35352v35.293c0 0.23008-0.12344 0.35156-0.35351 0.35156h-14.117c-0.23008 0-0.35352-0.12148-0.35352-0.35156v-35.293c0-0.23008 0.12344-0.35352 0.35352-0.35352zm0 10.941v2.3535h7.0586v-2.3535zm0 4.7051v2.3535h11.764v-2.3535zm0 4.707v2.3516h11.764v-2.3516zm0 4.7051v2.3516h11.764v-2.3516z" color="#000000" color-rendering="auto" dominant-baseline="auto" image-rendering="auto" opacity="1" solid-color="#000000" stroke-width="5.1" style="font-feature-settings:normal;font-variant-alternates:normal;font-variant-caps:normal;font-variant-ligatures:normal;font-variant-numeric:normal;font-variant-position:normal;isolation:auto;mix-blend-mode:normal;shape-padding:0;text-decoration-color:#000000;text-decoration-line:none;text-decoration-style:solid;text-indent:0;text-orientation:mixed;text-transform:none;white-space:normal"/>
<path d="m266.03 15.99c-6.2196-0.1518-12.778 2.8236-17.459 9.9258-1.6939-1.0597-3.499-1.7578-5.3145-1.7578-2.5349 0-4.9482 0.88477-6.9902 2.2461-3.3952 2.2635-5.8652 6.0005-5.752 9.9121-3.6595 0.55339-6.6282 2.3911-8.502 5.0117-2.2355 3.1265-3.0806 7.1327-2.6758 11.09 0.80955 7.9143 7.051 15.927 17.977 15.893 2.416-0.0078 5.4642-0.0078 9.4727-0.0078a2.0002 2.0002 0 1 0 0-4c-4.0085 0-7.0595 8e-6 -9.4863 0.0078-9.0345 0.02876-13.348-6.0782-13.984-12.301-0.31826-3.1113 0.39332-6.1767 1.9512-8.3555 1.5578-2.1788 3.8577-3.5859 7.4023-3.5859h2.7754l-0.87695-2.6328c-0.77587-2.3276 0.94339-5.7201 3.918-7.7031 1.4873-0.99153 3.1889-1.5742 4.7715-1.5742s3.0577 0.50297 4.4688 1.9141l1.875 1.875 1.2871-2.3184c5.4881-9.8786 13.62-11.151 20.182-8.6152 6.562 2.5356 11.127 8.9798 9.125 15.695l-0.73047 2.4473 2.5508 0.12305c3.5393 0.16954 5.9867 1.7189 7.6914 4.0488s2.5694 5.5072 2.4375 8.6758c-0.13191 3.1686-1.2495 6.2806-3.2793 8.5391-2.0298 2.2584-4.931 3.7598-9.1367 3.7598a2.0002 2.0002 0 1 0 0 4c5.2057 0 9.361-2.0258 12.111-5.0859 2.7504-3.0601 4.1348-7.0585 4.3008-11.047 0.16603-3.9884-0.87442-8.0176-3.2051-11.203-1.9405-2.6523-4.8854-4.5947-8.5039-5.3262 1.1657-8.1137-4.446-15.471-11.92-18.359-2.0378-0.78741-4.2338-1.2362-6.4805-1.291zm-9.832 13.02c-2.3769 0-4.3535 1.9766-4.3535 4.3535v35.293c0 2.3769 1.9766 4.3516 4.3535 4.3516h14.117c2.3769 0 4.3535-1.9747 4.3535-4.3516v-35.293c0-2.3769-1.9766-4.3535-4.3535-4.3535zm0 4h14.117c0.23007 0 0.35351 0.12344 0.35351 0.35352v35.293c0 0.23008-0.12344 0.35156-0.35351 0.35156h-14.117c-0.23008 0-0.35352-0.12148-0.35352-0.35156v-35.293c0-0.23008 0.12344-0.35352 0.35352-0.35352zm0 10.941v2.3535h7.0586v-2.3535zm0 4.7051v2.3535h11.764v-2.3535zm0 4.707v2.3516h11.764v-2.3516zm0 4.7051v2.3516h11.764v-2.3516z" color="#000000" color-rendering="auto" dominant-baseline="auto" image-rendering="auto" opacity="1" solid-color="#000000" stroke-width="5.4" style="font-feature-settings:normal;font-variant-alternates:normal;font-variant-caps:normal;font-variant-ligatures:normal;font-variant-numeric:normal;font-variant-position:normal;isolation:auto;mix-blend-mode:normal;shape-padding:0;text-decoration-color:#000000;text-decoration-line:none;text-decoration-style:solid;text-indent:0;text-orientation:mixed;text-transform:none;white-space:normal"/>
<path d="m266.03 15.99c-6.2196-0.1518-12.778 2.8236-17.459 9.9258-1.6939-1.0597-3.499-1.7578-5.3145-1.7578-2.5349 0-4.9482 0.88477-6.9902 2.2461-3.3952 2.2635-5.8652 6.0005-5.752 9.9121-3.6595 0.55339-6.6282 2.3911-8.502 5.0117-2.2355 3.1265-3.0806 7.1327-2.6758 11.09 0.80955 7.9143 7.051 15.927 17.977 15.893 2.416-0.0078 5.4642-0.0078 9.4727-0.0078a2.0002 2.0002 0 1 0 0-4c-4.0085 0-7.0595 8e-6 -9.4863 0.0078-9.0345 0.02876-13.348-6.0782-13.984-12.301-0.31826-3.1113 0.39332-6.1767 1.9512-8.3555 1.5578-2.1788 3.8577-3.5859 7.4023-3.5859h2.7754l-0.87695-2.6328c-0.77587-2.3276 0.94339-5.7201 3.918-7.7031 1.4873-0.99153 3.1889-1.5742 4.7715-1.5742s3.0577 0.50297 4.4688 1.9141l1.875 1.875 1.2871-2.3184c5.4881-9.8786 13.62-11.151 20.182-8.6152 6.562 2.5356 11.127 8.9798 9.125 15.695l-0.73047 2.4473 2.5508 0.12305c3.5393 0.16954 5.9867 1.7189 7.6914 4.0488s2.5694 5.5072 2.4375 8.6758c-0.13191 3.1686-1.2495 6.2806-3.2793 8.5391-2.0298 2.2584-4.931 3.7598-9.1367 3.7598a2.0002 2.0002 0 1 0 0 4c5.2057 0 9.361-2.0258 12.111-5.0859 2.7504-3.0601 4.1348-7.0585 4.3008-11.047 0.16603-3.9884-0.87442-8.0176-3.2051-11.203-1.9405-2.6523-4.8854-4.5947-8.5039-5.3262 1.1657-8.1137-4.446-15.471-11.92-18.359-2.0378-0.78741-4.2338-1.2362-6.4805-1.291zm-9.832 13.02c-2.3769 0-4.3535 1.9766-4.3535 4.3535v35.293c0 2.3769 1.9766 4.3516 4.3535 4.3516h14.117c2.3769 0 4.3535-1.9747 4.3535-4.3516v-35.293c0-2.3769-1.9766-4.3535-4.3535-4.3535zm0 4h14.117c0.23007 0 0.35351 0.12344 0.35351 0.35352v35.293c0 0.23008-0.12344 0.35156-0.35351 0.35156h-14.117c-0.23008 0-0.35352-0.12148-0.35352-0.35156v-35.293c0-0.23008 0.12344-0.35352 0.35352-0.35352zm0 10.941v2.3535h7.0586v-2.3535zm0 4.7051v2.3535h11.764v-2.3535zm0 4.707v2.3516h11.764v-2.3516zm0 4.7051v2.3516h11.764v-2.3516z" color="#000000" color-rendering="auto" dominant-baseline="auto" image-rendering="auto" opacity="1" solid-color="#000000" stroke-width="5.7" style="font-feature-settings:normal;font-variant-alternates:normal;font-variant-caps:normal;font-variant-ligatures:normal;font-variant-numeric:normal;font-variant-position:normal;isolation:auto;mix-blend-mode:normal;shape-padding:0;text-decoration-color:#000000;text-decoration-line:none;text-decoration-style:solid;text-indent:0;text-orientation:mixed;text-transform:none;white-space:normal"/>
<path d="m266.03 15.99c-6.2196-0.1518-12.778 2.8236-17.459 9.9258-1.6939-1.0597-3.499-1.7578-5.3145-1.7578-2.5349 0-4.9482 0.88477-6.9902 2.2461-3.3952 2.2635-5.8652 6.0005-5.752 9.9121-3.6595 0.55339-6.6282 2.3911-8.502 5.0117-2.2355 3.1265-3.0806 7.1327-2.6758 11.09 0.80955 7.9143 7.051 15.927 17.977 15.893 2.416-0.0078 5.4642-0.0078 9.4727-0.0078a2.0002 2.0002 0 1 0 0-4c-4.0085 0-7.0595 8e-6 -9.4863 0.0078-9.0345 0.02876-13.348-6.0782-13.984-12.301-0.31826-3.1113 0.39332-6.1767 1.9512-8.3555 1.5578-2.1788 3.8577-3.5859 7.4023-3.5859h2.7754l-0.87695-2.6328c-0.77587-2.3276 0.94339-5.7201 3.918-7.7031 1.4873-0.99153 3.1889-1.5742 4.7715-1.5742s3.0577 0.50297 4.4688 1.9141l1.875 1.875 1.2871-2.3184c5.4881-9.8786 13.62-11.151 20.182-8.6152 6.562 2.5356 11.127 8.9798 9.125 15.695l-0.73047 2.4473 2.5508 0.12305c3.5393 0.16954 5.9867 1.7189 7.6914 4.0488s2.5694 5.5072 2.4375 8.6758c-0.13191 3.1686-1.2495 6.2806-3.2793 8.5391-2.0298 2.2584-4.931 3.7598-9.1367 3.7598a2.0002 2.0002 0 1 0 0 4c5.2057 0 9.361-2.0258 12.111-5.0859 2.7504-3.0601 4.1348-7.0585 4.3008-11.047 0.16603-3.9884-0.87442-8.0176-3.2051-11.203-1.9405-2.6523-4.8854-4.5947-8.5039-5.3262 1.1657-8.1137-4.446-15.471-11.92-18.359-2.0378-0.78741-4.2338-1.2362-6.4805-1.291zm-9.832 13.02c-2.3769 0-4.3535 1.9766-4.3535 4.3535v35.293c0 2.3769 1.9766 4.3516 4.3535 4.3516h14.117c2.3769 0 4.3535-1.9747 4.3535-4.3516v-35.293c0-2.3769-1.9766-4.3535-4.3535-4.3535zm0 4h14.117c0.23007 0 0.35351 0.12344 0.35351 0.35352v35.293c0 0.23008-0.12344 0.35156-0.35351 0.35156h-14.117c-0.23008 0-0.35352-0.12148-0.35352-0.35156v-35.293c0-0.23008 0.12344-0.35352 0.35352-0.35352zm0 10.941v2.3535h7.0586v-2.3535zm0 4.7051v2.3535h11.764v-2.3535zm0 4.707v2.3516h11.764v-2.3516zm0 4.7051v2.3516h11.764v-2.3516z" color="#000000" color-rendering="auto" dominant-baseline="auto" image-rendering="auto" opacity="1" solid-color="#000000" stroke-width="6" style="font-feature-settings:normal;font-variant-alternates:normal;font-variant-caps:normal;font-variant-ligatures:normal;font-variant-numeric:normal;font-variant-position:normal;isolation:auto;mix-blend-mode:normal;shape-padding:0;text-decoration-color:#000000;text-decoration-line:none;text-decoration-style:solid;text-indent:0;text-orientation:mixed;text-transform:none;white-space:normal"/>
<path d="m266.03 15.99c-6.2196-0.1518-12.778 2.8236-17.459 9.9258-1.6939-1.0597-3.499-1.7578-5.3145-1.7578-2.5349 0-4.9482 0.88477-6.9902 2.2461-3.3952 2.2635-5.8652 6.0005-5.752 9.9121-3.6595 0.55339-6.6282 2.3911-8.502 5.0117-2.2355 3.1265-3.0806 7.1327-2.6758 11.09 0.80955 7.9143 7.051 15.927 17.977 15.893 2.416-0.0078 5.4642-0.0078 9.4727-0.0078a2.0002 2.0002 0 1 0 0-4c-4.0085 0-7.0595 8e-6 -9.4863 0.0078-9.0345 0.02876-13.348-6.0782-13.984-12.301-0.31826-3.1113 0.39332-6.1767 1.9512-8.3555 1.5578-2.1788 3.8577-3.5859 7.4023-3.5859h2.7754l-0.87695-2.6328c-0.77587-2.3276 0.94339-5.7201 3.918-7.7031 1.4873-0.99153 3.1889-1.5742 4.7715-1.5742s3.0577 0.50297 4.4688 1.9141l1.875 1.875 1.2871-2.3184c5.4881-9.8786 13.62-11.151 20.182-8.6152 6.562 2.5356 11.127 8.9798 9.125 15.695l-0.73047 2.4473 2.5508 0.12305c3.5393 0.16954 5.9867 1.7189 7.6914 4.0488s2.5694 5.5072 2.4375 8.6758c-0.13191 3.1686-1.2495 6.2806-3.2793 8.5391-2.0298 2.2584-4.931 3.7598-9.1367 3.7598a2.0002 2.0002 0 1 0 0 4c5.2057 0 9.361-2.0258 12.111-5.0859 2.7504-3.0601 4.1348-7.0585 4.3008-11.047 0.16603-3.9884-0.87442-8.0176-3.2051-11.203-1.9405-2.6523-4.8854-4.5947-8.5039-5.3262 1.1657-8.1137-4.446-15.471-11.92-18.359-2.0378-0.78741-4.2338-1.2362-6.4805-1.291zm-9.832 13.02c-2.3769 0-4.3535 1.9766-4.3535 4.3535v35.293c0 2.3769 1.9766 4.3516 4.3535 4.3516h14.117c2.3769 0 4.3535-1.9747 4.3535-4.3516v-35.293c0-2.3769-1.9766-4.3535-4.3535-4.3535zm0 4h14.117c0.23007 0 0.35351 0.12344 0.35351 0.35352v35.293c0 0.23008-0.12344 0.35156-0.35351 0.35156h-14.117c-0.23008 0-0.35352-0.12148-0.35352-0.35156v-35.293c0-0.23008 0.12344-0.35352 0.35352-0.35352zm0 10.941v2.3535h7.0586v-2.3535zm0 4.7051v2.3535h11.764v-2.3535zm0 4.707v2.3516h11.764v-2.3516zm0 4.7051v2.3516h11.764v-2.3516z" color="#000000" color-rendering="auto" dominant-baseline="auto" image-rendering="auto" opacity="1" solid-color="#000000" stroke-width="6.5" style="font-feature-settings:normal;font-variant-alternates:normal;font-variant-caps:normal;font-variant-ligatures:normal;font-variant-numeric:normal;font-variant-position:normal;isolation:auto;mix-blend-mode:normal;shape-padding:0;text-decoration-color:#000000;text-decoration-line:none;text-decoration-style:solid;text-indent:0;text-orientation:mixed;text-transform:none;white-space:normal"/>
<path d="m266.03 15.99c-6.2196-0.1518-12.778 2.8236-17.459 9.9258-1.6939-1.0597-3.499-1.7578-5.3145-1.7578-2.5349 0-4.9482 0.88477-6.9902 2.2461-3.3952 2.2635-5.8652 6.0005-5.752 9.9121-3.6595 0.55339-6.6282 2.3911-8.502 5.0117-2.2355 3.1265-3.0806 7.1327-2.6758 11.09 0.80955 7.9143 7.051 15.927 17.977 15.893 2.416-0.0078 5.4642-0.0078 9.4727-0.0078a2.0002 2.0002 0 1 0 0-4c-4.0085 0-7.0595 8e-6 -9.4863 0.0078-9.0345 0.02876-13.348-6.0782-13.984-12.301-0.31826-3.1113 0.39332-6.1767 1.9512-8.3555 1.5578-2.1788 3.8577-3.5859 7.4023-3.5859h2.7754l-0.87695-2.6328c-0.77587-2.3276 0.94339-5.7201 3.918-7.7031 1.4873-0.99153 3.1889-1.5742 4.7715-1.5742s3.0577 0.50297 4.4688 1.9141l1.875 1.875 1.2871-2.3184c5.4881-9.8786 13.62-11.151 20.182-8.6152 6.562 2.5356 11.127 8.9798 9.125 15.695l-0.73047 2.4473 2.5508 0.12305c3.5393 0.16954 5.9867 1.7189 7.6914 4.0488s2.5694 5.5072 2.4375 8.6758c-0.13191 3.1686-1.2495 6.2806-3.2793 8.5391-2.0298 2.2584-4.931 3.7598-9.1367 3.7598a2.0002 2.0002 0 1 0 0 4c5.2057 0 9.361-2.0258 12.111-5.0859 2.7504-3.0601 4.1348-7.0585 4.3008-11.047 0.16603-3.9884-0.87442-8.0176-3.2051-11.203-1.9405-2.6523-4.8854-4.5947-8.5039-5.3262 1.1657-8.1137-4.446-15.471-11.92-18.359-2.0378-0.78741-4.2338-1.2362-6.4805-1.291zm-9.832 13.02c-2.3769 0-4.3535 1.9766-4.3535 4.3535v35.293c0 2.3769 1.9766 4.3516 4.3535 4.3516h14.117c2.3769 0 4.3535-1.9747 4.3535-4.3516v-35.293c0-2.3769-1.9766-4.3535-4.3535-4.3535zm0 4h14.117c0.23007 0 0.35351 0.12344 0.35351 0.35352v35.293c0 0.23008-0.12344 0.35156-0.35351 0.35156h-14.117c-0.23008 0-0.35352-0.12148-0.35352-0.35156v-35.293c0-0.23008 0.12344-0.35352 0.35352-0.35352zm0 10.941v2.3535h7.0586v-2.3535zm0 4.7051v2.3535h11.764v-2.3535zm0 4.707v2.3516h11.764v-2.3516zm0 4.7051v2.3516h11.764v-2.3516z" color="#000000" color-rendering="auto" dominant-baseline="auto" image-rendering="auto" opacity="1" solid-color="#000000" stroke-width="7" style="font-feature-settings:normal;font-variant-alternates:normal;font-variant-caps:normal;font-variant-ligatures:normal;font-variant-numeric:normal;font-variant-position:normal;isolation:auto;mix-blend-mode:normal;shape-padding:0;text-decoration-color:#000000;text-decoration-line:none;text-decoration-style:solid;text-indent:0;text-orientation:mixed;text-transform:none;white-space:normal"/>
</g>
<path d="m84.834 82.59c18.823 0 18.823-28.234 2.3836-29.022 4.675-15.683-21.206-29.8-32.971-8.624-7.0586-7.0586-18.823 2.3529-16.47 9.4114-16.47 0-15.323 28.306 4.6372 28.242 2.4214-0.0078 5.4715-0.0078 9.48-0.0078" stroke="#fff" stroke-linecap="round" stroke-width="4"/>
<path d="m58.953 49.65v32.94c0 2.3529 0 4.7057 2.3529 4.7057h14.117c2.3529 0 2.9851-2.3529 3.2155-4.7057l0.28222-32.94c0-0.84138-2.3945-1.4997-3.4977-1.4997l-14.117-0.2307c-1.0734 0-2.3529 0.83543-2.3529 1.7304z" stroke="#fff" stroke-width=".23529"/>
<rect x="58.953" y="47.297" width="18.823" height="39.999" rx="2.3529" ry="2.3529" stroke="#fff" stroke-linecap="round" stroke-linejoin="bevel" stroke-width="4"/>
<path d="m61.305 61.414h7.0586" stroke="#fff" stroke-width="2.3529px"/>
<path d="m61.305 66.12h11.764" stroke="#fff" stroke-width="2.3529px"/>
<path d="m61.305 70.826h11.764" stroke="#fff" stroke-width="2.3529px"/>
<path d="m61.305 75.532h11.764" stroke="#fff" stroke-width="2.3529px"/>
</g>
</svg>
