<svg width="128" height="128" version="1.1" viewBox="0 0 33.867 33.867" xmlns="http://www.w3.org/2000/svg" xmlns:xlink="http://www.w3.org/1999/xlink">
<defs>
<linearGradient id="linearGradient1632" x1="132.21" x2="132.21" y1="42.152" y2="70.68" gradientTransform="matrix(.97573 0 0 .97573 -111.78 -37.203)" gradientUnits="userSpaceOnUse">
<stop stop-color="#986af3" offset="0"/>
<stop stop-color="#4a23fc" offset="1"/>
</linearGradient>
<filter id="filter963" x="-.058134" y="-.060168" width="1.1163" height="1.1203" color-interpolation-filters="sRGB">
<feGaussianBlur stdDeviation="0.39358164"/>
</filter>
<linearGradient id="linearGradient1991" x1="9.7411" x2="18.968" y1="21.847" y2="55.165" gradientUnits="userSpaceOnUse">
<stop stop-color="#fff" offset="0"/>
<stop stop-color="#562efb" offset="1"/>
</linearGradient>
</defs>
<g transform="matrix(.97573 0 0 .97573 -65.748 -37.203)" fill="none" opacity=".29677" stroke="#000" stroke-linecap="round" stroke-linejoin="round" stroke-opacity=".02">
<rect x="69.84" y="40.71" width="29.811" height="29.811" rx="6.6099" ry="6.6099" stroke-width=".1"/>
<rect x="69.84" y="40.71" width="29.811" height="29.811" rx="6.6099" ry="6.6099" stroke-width=".2"/>
<rect x="69.84" y="40.71" width="29.811" height="29.811" rx="6.6099" ry="6.6099" stroke-width=".3"/>
<rect x="69.84" y="40.71" width="29.811" height="29.811" rx="6.6099" ry="6.6099" stroke-width=".4"/>
<rect x="69.84" y="40.71" width="29.811" height="29.811" rx="6.6099" ry="6.6099" stroke-width=".5"/>
<rect x="69.84" y="40.71" width="29.811" height="29.811" rx="6.6099" ry="6.6099" stroke-width=".6"/>
<rect x="69.84" y="40.71" width="29.811" height="29.811" rx="6.6099" ry="6.6099" stroke-width=".7"/>
<rect x="69.84" y="40.71" width="29.811" height="29.811" rx="6.6099" ry="6.6099" stroke-width=".8"/>
<rect x="69.84" y="40.71" width="29.811" height="29.811" rx="6.6099" ry="6.6099"/>
<rect x="69.84" y="40.71" width="29.811" height="29.811" rx="6.6099" ry="6.6099" stroke-width="1.2"/>
<rect x="69.84" y="40.71" width="29.811" height="29.811" rx="6.6099" ry="6.6099" stroke-width="1.4"/>
<rect x="69.84" y="40.71" width="29.811" height="29.811" rx="6.6099" ry="6.6099" stroke-width="1.6"/>
<rect x="69.84" y="40.71" width="29.811" height="29.811" rx="6.6099" ry="6.6099" stroke-width="1.8"/>
<rect x="69.84" y="40.71" width="29.811" height="29.811" rx="6.6099" ry="6.6099" stroke-width="2"/>
<rect x="69.84" y="40.71" width="29.811" height="29.811" rx="6.6099" ry="6.6099" stroke-width="2.2"/>
<rect x="69.84" y="40.71" width="29.811" height="29.811" rx="6.6099" ry="6.6099" stroke-width="2.6"/>
<rect x="69.84" y="40.71" width="29.811" height="29.811" rx="6.6099" ry="6.6099" stroke-width="3"/>
<rect x="69.84" y="40.71" width="29.811" height="29.811" rx="6.6099" ry="6.6099" stroke-width="3.4"/>
<rect x="69.84" y="40.71" width="29.811" height="29.811" rx="6.6099" ry="6.6099" stroke-width="3.8"/>
<rect x="69.84" y="40.71" width="29.811" height="29.811" rx="6.6099" ry="6.6099" stroke-width="4.2"/>
<rect x="69.84" y="40.71" width="29.811" height="29.811" rx="6.6099" ry="6.6099" stroke-width="4.6"/>
<rect x="69.84" y="40.71" width="29.811" height="29.811" rx="6.6099" ry="6.6099" stroke-width="5"/>
</g>
<rect x="2.3963" y="2.5186" width="29.087" height="29.087" rx="6.4495" ry="6.4495" fill="url(#linearGradient1632)" stroke-linecap="round" stroke-linejoin="round" stroke-width="2.6877"/>
<g fill="#00084b" fill-opacity=".082341" stroke-width=".5807">
<path d="m18.89 9.2789c-1.1229 0-2.0324 1.4295-2.0324 3.1927 0 1.764 0.90952 3.195 2.0324 3.195 1.1221 0 2.0324-1.4309 2.0324-3.195 0-1.7632-0.91034-3.1927-2.0324-3.1927zm-4.6456 1.1614c-1.1229 0-2.0324 1.4295-2.0324 3.1927 0 1.764 0.90953 3.195 2.0324 3.195 1.1221 0 2.0324-1.4309 2.0324-3.195 0-1.7632-0.91034-3.1927-2.0324-3.1927zm9.3524 4.0649c-0.82217 0.01319-1.76 0.66341-2.2922 1.6627-0.65587 1.2299-0.44755 2.5219 0.46388 2.8865 0.91143 0.36455 2.1816-0.33831 2.8366-1.5674 0.65498-1.2299 0.44755-2.5208-0.46388-2.8853-0.17106-0.06835-0.35467-0.09945-0.5444-0.0964zm-13.526 0.58069c-0.1729 0.0024-0.3401 0.03274-0.49677 0.09527-0.91152 0.3646-1.1189 1.6564-0.46388 2.8865 0.65504 1.2293 1.925 1.9313 2.8366 1.5674 0.91152-0.3646 1.1189-1.6572 0.46388-2.8865-0.54246-1.0186-1.5067-1.6739-2.3398-1.6627zm6.5986 2.3228s-1.2255-0.0031-2.0665 0.74969c-1.1638 1.0415-2.5054 3.2573-2.5054 3.2573-0.71049 1.1123-1.0468 1.7021-1.0468 2.3171 0 1.2171 0.90966 1.8056 2.1345 1.8056 0.53842 0 0.87385 0.0039 1.7546-0.45026 0 0 0.57112-0.5242 1.919-0.47182 1.3349-0.05332 1.9043 0.46614 1.9043 0.46614 0.88071 0.45513 1.229 0.45594 1.7693 0.45594 1.2239 0 2.1322-0.59037 2.1322-1.8056 0-0.61589-0.33522-1.2058-1.0457-2.3171 0 0-1.3775-2.1782-2.5043-3.2573-0.7882-0.75273-2.0676-0.74969-2.0676-0.74969z"/>
<path d="m19.03 9.5931c-1.1229 0-2.0324 1.4295-2.0324 3.1927 0 1.764 0.90952 3.195 2.0324 3.195 1.1221 0 2.0324-1.4309 2.0324-3.195 0-1.7632-0.91034-3.1927-2.0324-3.1927zm-4.6456 1.1614c-1.1229 0-2.0324 1.4295-2.0324 3.1927 0 1.764 0.90953 3.195 2.0324 3.195 1.1221 0 2.0324-1.4309 2.0324-3.195 0-1.7632-0.91034-3.1927-2.0324-3.1927zm9.3524 4.0649c-0.82217 0.01319-1.76 0.66341-2.2922 1.6627-0.65587 1.2299-0.44755 2.5219 0.46388 2.8865 0.91143 0.36455 2.1816-0.33831 2.8366-1.5674 0.65498-1.2299 0.44755-2.5208-0.46388-2.8853-0.17106-0.06835-0.35467-0.09945-0.5444-0.0964zm-13.526 0.58069c-0.1729 0.0024-0.3401 0.03274-0.49677 0.09527-0.91152 0.3646-1.1189 1.6564-0.46388 2.8865 0.65504 1.2293 1.925 1.9313 2.8366 1.5674 0.91152-0.3646 1.1189-1.6572 0.46388-2.8865-0.54246-1.0186-1.5067-1.6739-2.3398-1.6627zm6.5986 2.3228s-1.2255-0.0031-2.0665 0.74969c-1.1638 1.0415-2.5054 3.2573-2.5054 3.2573-0.71049 1.1123-1.0468 1.7021-1.0468 2.3171 0 1.2171 0.90966 1.8056 2.1345 1.8056 0.53842 0 0.87385 0.0039 1.7546-0.45026 0 0 0.57112-0.5242 1.919-0.47182 1.3349-0.05332 1.9043 0.46614 1.9043 0.46614 0.88071 0.45513 1.229 0.45594 1.7693 0.45594 1.2239 0 2.1322-0.59037 2.1322-1.8056 0-0.61589-0.33522-1.2058-1.0457-2.3171 0 0-1.3775-2.1782-2.5043-3.2573-0.7882-0.75273-2.0676-0.74969-2.0676-0.74969z"/>
<path d="m19.309 10.094c-1.1229 0-2.0324 1.4295-2.0324 3.1927 0 1.764 0.90952 3.195 2.0324 3.195 1.1221 0 2.0324-1.4309 2.0324-3.195 0-1.7632-0.91034-3.1927-2.0324-3.1927zm-4.6456 1.1614c-1.1229 0-2.0324 1.4295-2.0324 3.1927 0 1.764 0.90953 3.195 2.0324 3.195 1.1221 0 2.0324-1.4309 2.0324-3.195 0-1.7632-0.91034-3.1927-2.0324-3.1927zm9.3524 4.0649c-0.82217 0.01319-1.76 0.66341-2.2922 1.6627-0.65587 1.2299-0.44755 2.5219 0.46388 2.8865 0.91143 0.36455 2.1816-0.33831 2.8366-1.5674 0.65498-1.2299 0.44755-2.5208-0.46388-2.8853-0.17106-0.06835-0.35467-0.09945-0.5444-0.0964zm-13.526 0.58069c-0.1729 0.0024-0.3401 0.03274-0.49677 0.09527-0.91152 0.3646-1.1189 1.6564-0.46388 2.8865 0.65504 1.2293 1.925 1.9313 2.8366 1.5674 0.91152-0.3646 1.1189-1.6572 0.46388-2.8865-0.54246-1.0186-1.5067-1.6739-2.3398-1.6627zm6.5986 2.3228s-1.2255-0.0031-2.0665 0.74969c-1.1638 1.0415-2.5054 3.2573-2.5054 3.2573-0.71049 1.1123-1.0468 1.7021-1.0468 2.3171 0 1.2171 0.90966 1.8056 2.1345 1.8056 0.53842 0 0.87385 0.0039 1.7546-0.45026 0 0 0.57112-0.5242 1.919-0.47182 1.3349-0.05332 1.9043 0.46614 1.9043 0.46614 0.88071 0.45513 1.229 0.45594 1.7693 0.45594 1.2239 0 2.1322-0.59037 2.1322-1.8056 0-0.61589-0.33522-1.2058-1.0457-2.3171 0 0-1.3775-2.1782-2.5043-3.2573-0.7882-0.75273-2.0676-0.74969-2.0676-0.74969z"/>
</g>
<path d="m18.52 9.0544c-1.1229 0-2.0324 1.4295-2.0324 3.1927 0 1.764 0.90952 3.195 2.0324 3.195 1.1221 0 2.0324-1.4309 2.0324-3.195 0-1.7632-0.91034-3.1927-2.0324-3.1927zm-4.6456 1.1614c-1.1229 0-2.0324 1.4295-2.0324 3.1927 0 1.764 0.90953 3.195 2.0324 3.195 1.1221 0 2.0324-1.4309 2.0324-3.195 0-1.7632-0.91034-3.1927-2.0324-3.1927zm9.3524 4.0649c-0.82217 0.01319-1.76 0.66341-2.2922 1.6627-0.65587 1.2299-0.44755 2.5219 0.46388 2.8865 0.91143 0.36455 2.1816-0.33831 2.8366-1.5674 0.65498-1.2299 0.44755-2.5208-0.46388-2.8853-0.17106-0.06835-0.35467-0.09945-0.5444-0.0964zm-13.526 0.58069c-0.1729 0.0024-0.3401 0.03274-0.49677 0.09527-0.91152 0.3646-1.1189 1.6564-0.46388 2.8865 0.65504 1.2293 1.925 1.9313 2.8366 1.5674 0.91152-0.3646 1.1189-1.6572 0.46388-2.8865-0.54246-1.0186-1.5067-1.6739-2.3398-1.6627zm6.5986 2.3228s-1.2255-0.0031-2.0665 0.74969c-1.1638 1.0415-2.5054 3.2573-2.5054 3.2573-0.71049 1.1123-1.0468 1.7021-1.0468 2.3171 0 1.2171 0.90966 1.8056 2.1345 1.8056 0.53842 0 0.87385 0.0039 1.7546-0.45026 0 0 0.57112-0.5242 1.919-0.47182 1.3349-0.05332 1.9043 0.46614 1.9043 0.46614 0.88071 0.45513 1.229 0.45594 1.7693 0.45594 1.2239 0 2.1322-0.59037 2.1322-1.8056 0-0.61589-0.33522-1.2058-1.0457-2.3171 0 0-1.3775-2.1782-2.5043-3.2573-0.7882-0.75273-2.0676-0.74969-2.0676-0.74969z" fill="url(#linearGradient1991)" stroke-width=".5807"/>
<path d="m18.52 9.0542c-1.1229 0-2.0324 1.4299-2.0324 3.1931 0 0.92421 0.24985 1.7564 0.64906 2.3399-0.11703-0.40347-0.18242-0.85166-0.18242-1.324 0-1.7632 0.90952-3.1926 2.0324-3.1926 0.53452 0 1.0205 0.32494 1.3834 0.85524-0.32004-1.1037-1.0279-1.8717-1.85-1.8717zm-4.6457 1.1617c-1.1229 0-2.0324 1.4294-2.0324 3.1926 0 0.92406 0.25049 1.7559 0.64957 2.3394-0.11691-0.40329-0.18294-0.8509-0.18294-1.3229 0-1.7632 0.90953-3.1926 2.0324-3.1926 0.53441 0 1.0205 0.32461 1.3834 0.85473-0.32007-1.1036-1.028-1.8712-1.85-1.8712zm9.3524 4.0649c-0.82217 0.01319-1.7597 0.66315-2.2918 1.6624-0.55528 1.0413-0.49127 2.1269 0.094568 2.6567-0.048327-0.4957 0.069867-1.0745 0.37155-1.6402 0.53217-0.99928 1.4702-1.6492 2.2924-1.6624 0.18973-0.00305 0.37309 0.027769 0.54415 0.096119 0.13979 0.055912 0.26288 0.13403 0.36897 0.22996-0.05652-0.5819-0.34276-1.0495-0.83509-1.2464-0.17106-0.06835-0.35494-0.099168-0.54467-0.096118zm-13.526 0.58084c-0.1729 0.0024-0.34046 0.032555-0.49713 0.095085-0.91152 0.3646-1.1186 1.6566-0.46354 2.8866 0.056579 0.10618 0.11781 0.20796 0.18293 0.30592-0.2656-0.98291 0.011169-1.8817 0.74724-2.1761 0.15667-0.06253 0.32371-0.093201 0.49661-0.095601 0.74679-0.01004 1.5982 0.51682 2.1575 1.3596-0.063313-0.23536-0.15751-0.47534-0.28422-0.71314-0.54246-1.0186-1.5063-1.6736-2.3394-1.6624zm6.5986 2.3223s-1.2256-0.002961-2.0665 0.74982c-0.48936 0.43793-1.0092 1.083-1.4485 1.6841-0.092621 0.26596-0.24606 0.48967-0.45682 0.64854-0.36132 0.53134-0.59996 0.92449-0.59996 0.92449-0.71049 1.1123-1.047 1.7022-1.047 2.3172 0 0.5357 0.17623 0.94983 0.47801 1.2454-0.007481-0.073611-0.011369-0.15005-0.011369-0.22893 0-0.61496 0.33596-1.2049 1.0464-2.3172 0 0 1.3415-2.2157 2.5053-3.2572 0.84093-0.75279 2.0665-0.74982 2.0665-0.74982h0.37775s1.2794-0.002907 2.0676 0.74982c1.1268 1.0792 2.5042 3.2572 2.5042 3.2572 0.20222 0.31631 0.37287 0.58961 0.51521 0.83406-0.12778-0.47756-0.44887-1.0176-0.98134-1.8505 0 0-1.3774-2.178-2.5042-3.2572-0.7882-0.75273-2.0676-0.74982-2.0676-0.74982h-0.37776z" fill="#43009c" fill-opacity=".22802" filter="url(#filter963)" stroke-width=".5807"/>
</svg>
