<svg width="128" height="128" version="1.1" viewBox="0 0 33.867 33.867" xmlns="http://www.w3.org/2000/svg" xmlns:osb="http://www.openswatchbook.org/uri/2009/osb" xmlns:xlink="http://www.w3.org/1999/xlink">
<defs>
<clipPath>
<rect width="384" height="384"/>
</clipPath>
<clipPath>
<rect width="384" height="384"/>
</clipPath>
<linearGradient id="linearGradient948" x1="122.34" x2="84.091" y1="117.04" y2="71.02" gradientTransform="matrix(.26458 0 0 .26458 -70.665 275.53)" gradientUnits="userSpaceOnUse">
<stop stop-color="#d5dada" offset="0"/>
<stop stop-color="#f1f1f1" offset="1"/>
</linearGradient>
<linearGradient id="linearGradient4901" x1="54.052" x2="51.259" y1="47.929" y2="30.072" gradientTransform="matrix(.25946 0 0 .25946 .39418 263.37)" gradientUnits="userSpaceOnUse">
<stop stop-color="#e2e2e2" stop-opacity=".99216" offset="0"/>
<stop stop-color="#d7d7d7" stop-opacity=".99216" offset=".070363"/>
<stop stop-color="#ebebeb" offset="1"/>
</linearGradient>
<linearGradient id="linearGradient4975" x1="13.826" x2="14.541" y1="272.37" y2="277" gradientTransform="matrix(3.7795 0 0 3.7795 0 -994.52)" gradientUnits="userSpaceOnUse">
<stop offset="0"/>
<stop stop-opacity="0" offset="1"/>
</linearGradient>
<linearGradient id="linearGradient5180" x1="-8.3137" x2="-9.3235" y1="291.02" y2="312.8" gradientTransform="matrix(2.8979 -.40639 .40639 2.8979 -53.333 -785.13)" gradientUnits="userSpaceOnUse">
<stop stop-color="#e4e4e4" offset="0"/>
<stop stop-color="#ececec" stop-opacity="0" offset="1"/>
</linearGradient>
<linearGradient id="linearGradient5252" x1="20.631" x2="17.722" y1="292.56" y2="273.77" gradientUnits="userSpaceOnUse">
<stop stop-color="#3c6df5" offset="0"/>
<stop stop-color="#3fa8fa" offset="1"/>
</linearGradient>
</defs>
<g transform="translate(0 -263.13)">
<g transform="matrix(.98062 0 0 .98062 -30.972 5.1074)" fill="none" stroke="#000" stroke-linejoin="bevel" stroke-opacity=".0078431">
<path d="m61.182 268.8c-0.06661-3e-3 -0.13445-4.9e-4 -0.20309 0.01l-27.587 4.1419c-0.5491 0.0824-0.92477 0.59088-0.84233 1.14l0.58498 3.8948 2.4991 16.646c0.08244 0.5491 0.59088 0.92477 1.14 0.84233l27.587-4.1419c0.54753-0.0822 0.92192-0.58803 0.84232-1.1353-2.27e-4 -2e-3 2.36e-4 -3e-3 0-5e-3l-3.084-20.541c-0.0097-0.0647-0.0261-0.12661-0.04702-0.18604-0.0038-0.0108-0.0091-0.0208-0.01395-0.031-0.0039-8e-3 -0.0073-0.0165-0.01085-0.0248-0.01671-0.0395-0.03399-0.0782-0.0553-0.11472-0.01108-0.019-0.02393-0.0367-0.03617-0.0548-0.02177-0.0322-0.04459-0.0633-0.06976-0.0925-0.01451-0.0168-0.0299-0.0328-0.04547-0.0486-0.02812-0.0286-0.05763-0.0552-0.08888-0.0801-0.01257-0.01-0.02533-0.0199-0.03824-0.0295-0.03434-0.0248-0.07021-0.0469-0.10749-0.0672-0.01315-7e-3 -0.02653-0.0138-0.03979-0.0207-0.01044-5e-3 -0.02067-0.0112-0.03152-0.016-0.03361-0.0149-0.06857-0.0265-0.10387-0.0377-0.01326-4e-3 -0.02659-8e-3 -0.03979-0.0124-0.0084-3e-3 -0.01662-6e-3 -0.02532-8e-3 -0.05968-0.0145-0.12068-0.0247-0.18345-0.0279z" stroke-width=".2"/>
<path d="m61.182 268.8c-0.06661-3e-3 -0.13445-4.9e-4 -0.20309 0.01l-27.587 4.1419c-0.5491 0.0824-0.92477 0.59088-0.84233 1.14l0.58498 3.8948 2.4991 16.646c0.08244 0.5491 0.59088 0.92477 1.14 0.84233l27.587-4.1419c0.54753-0.0822 0.92192-0.58803 0.84232-1.1353-2.27e-4 -2e-3 2.36e-4 -3e-3 0-5e-3l-3.084-20.541c-0.0097-0.0647-0.0261-0.12661-0.04702-0.18604-0.0038-0.0108-0.0091-0.0208-0.01395-0.031-0.0039-8e-3 -0.0073-0.0165-0.01085-0.0248-0.01671-0.0395-0.03399-0.0782-0.0553-0.11472-0.01108-0.019-0.02393-0.0367-0.03617-0.0548-0.02177-0.0322-0.04459-0.0633-0.06976-0.0925-0.01451-0.0168-0.0299-0.0328-0.04547-0.0486-0.02812-0.0286-0.05763-0.0552-0.08888-0.0801-0.01257-0.01-0.02533-0.0199-0.03824-0.0295-0.03434-0.0248-0.07021-0.0469-0.10749-0.0672-0.01315-7e-3 -0.02653-0.0138-0.03979-0.0207-0.01044-5e-3 -0.02067-0.0112-0.03152-0.016-0.03361-0.0149-0.06857-0.0265-0.10387-0.0377-0.01326-4e-3 -0.02659-8e-3 -0.03979-0.0124-0.0084-3e-3 -0.01662-6e-3 -0.02532-8e-3 -0.05968-0.0145-0.12068-0.0247-0.18345-0.0279z" stroke-width=".4"/>
<path d="m61.182 268.8c-0.06661-3e-3 -0.13445-4.9e-4 -0.20309 0.01l-27.587 4.1419c-0.5491 0.0824-0.92477 0.59088-0.84233 1.14l0.58498 3.8948 2.4991 16.646c0.08244 0.5491 0.59088 0.92477 1.14 0.84233l27.587-4.1419c0.54753-0.0822 0.92192-0.58803 0.84232-1.1353-2.27e-4 -2e-3 2.36e-4 -3e-3 0-5e-3l-3.084-20.541c-0.0097-0.0647-0.0261-0.12661-0.04702-0.18604-0.0038-0.0108-0.0091-0.0208-0.01395-0.031-0.0039-8e-3 -0.0073-0.0165-0.01085-0.0248-0.01671-0.0395-0.03399-0.0782-0.0553-0.11472-0.01108-0.019-0.02393-0.0367-0.03617-0.0548-0.02177-0.0322-0.04459-0.0633-0.06976-0.0925-0.01451-0.0168-0.0299-0.0328-0.04547-0.0486-0.02812-0.0286-0.05763-0.0552-0.08888-0.0801-0.01257-0.01-0.02533-0.0199-0.03824-0.0295-0.03434-0.0248-0.07021-0.0469-0.10749-0.0672-0.01315-7e-3 -0.02653-0.0138-0.03979-0.0207-0.01044-5e-3 -0.02067-0.0112-0.03152-0.016-0.03361-0.0149-0.06857-0.0265-0.10387-0.0377-0.01326-4e-3 -0.02659-8e-3 -0.03979-0.0124-0.0084-3e-3 -0.01662-6e-3 -0.02532-8e-3 -0.05968-0.0145-0.12068-0.0247-0.18345-0.0279z" stroke-width=".6"/>
<path d="m61.182 268.8c-0.06661-3e-3 -0.13445-4.9e-4 -0.20309 0.01l-27.587 4.1419c-0.5491 0.0824-0.92477 0.59088-0.84233 1.14l0.58498 3.8948 2.4991 16.646c0.08244 0.5491 0.59088 0.92477 1.14 0.84233l27.587-4.1419c0.54753-0.0822 0.92192-0.58803 0.84232-1.1353-2.27e-4 -2e-3 2.36e-4 -3e-3 0-5e-3l-3.084-20.541c-0.0097-0.0647-0.0261-0.12661-0.04702-0.18604-0.0038-0.0108-0.0091-0.0208-0.01395-0.031-0.0039-8e-3 -0.0073-0.0165-0.01085-0.0248-0.01671-0.0395-0.03399-0.0782-0.0553-0.11472-0.01108-0.019-0.02393-0.0367-0.03617-0.0548-0.02177-0.0322-0.04459-0.0633-0.06976-0.0925-0.01451-0.0168-0.0299-0.0328-0.04547-0.0486-0.02812-0.0286-0.05763-0.0552-0.08888-0.0801-0.01257-0.01-0.02533-0.0199-0.03824-0.0295-0.03434-0.0248-0.07021-0.0469-0.10749-0.0672-0.01315-7e-3 -0.02653-0.0138-0.03979-0.0207-0.01044-5e-3 -0.02067-0.0112-0.03152-0.016-0.03361-0.0149-0.06857-0.0265-0.10387-0.0377-0.01326-4e-3 -0.02659-8e-3 -0.03979-0.0124-0.0084-3e-3 -0.01662-6e-3 -0.02532-8e-3 -0.05968-0.0145-0.12068-0.0247-0.18345-0.0279z" stroke-width=".8"/>
<path d="m61.182 268.8c-0.06661-3e-3 -0.13445-4.9e-4 -0.20309 0.01l-27.587 4.1419c-0.5491 0.0824-0.92477 0.59088-0.84233 1.14l0.58498 3.8948 2.4991 16.646c0.08244 0.5491 0.59088 0.92477 1.14 0.84233l27.587-4.1419c0.54753-0.0822 0.92192-0.58803 0.84232-1.1353-2.27e-4 -2e-3 2.36e-4 -3e-3 0-5e-3l-3.084-20.541c-0.0097-0.0647-0.0261-0.12661-0.04702-0.18604-0.0038-0.0108-0.0091-0.0208-0.01395-0.031-0.0039-8e-3 -0.0073-0.0165-0.01085-0.0248-0.01671-0.0395-0.03399-0.0782-0.0553-0.11472-0.01108-0.019-0.02393-0.0367-0.03617-0.0548-0.02177-0.0322-0.04459-0.0633-0.06976-0.0925-0.01451-0.0168-0.0299-0.0328-0.04547-0.0486-0.02812-0.0286-0.05763-0.0552-0.08888-0.0801-0.01257-0.01-0.02533-0.0199-0.03824-0.0295-0.03434-0.0248-0.07021-0.0469-0.10749-0.0672-0.01315-7e-3 -0.02653-0.0138-0.03979-0.0207-0.01044-5e-3 -0.02067-0.0112-0.03152-0.016-0.03361-0.0149-0.06857-0.0265-0.10387-0.0377-0.01326-4e-3 -0.02659-8e-3 -0.03979-0.0124-0.0084-3e-3 -0.01662-6e-3 -0.02532-8e-3 -0.05968-0.0145-0.12068-0.0247-0.18345-0.0279z"/>
<path d="m61.182 268.8c-0.06661-3e-3 -0.13445-4.9e-4 -0.20309 0.01l-27.587 4.1419c-0.5491 0.0824-0.92477 0.59088-0.84233 1.14l0.58498 3.8948 2.4991 16.646c0.08244 0.5491 0.59088 0.92477 1.14 0.84233l27.587-4.1419c0.54753-0.0822 0.92192-0.58803 0.84232-1.1353-2.27e-4 -2e-3 2.36e-4 -3e-3 0-5e-3l-3.084-20.541c-0.0097-0.0647-0.0261-0.12661-0.04702-0.18604-0.0038-0.0108-0.0091-0.0208-0.01395-0.031-0.0039-8e-3 -0.0073-0.0165-0.01085-0.0248-0.01671-0.0395-0.03399-0.0782-0.0553-0.11472-0.01108-0.019-0.02393-0.0367-0.03617-0.0548-0.02177-0.0322-0.04459-0.0633-0.06976-0.0925-0.01451-0.0168-0.0299-0.0328-0.04547-0.0486-0.02812-0.0286-0.05763-0.0552-0.08888-0.0801-0.01257-0.01-0.02533-0.0199-0.03824-0.0295-0.03434-0.0248-0.07021-0.0469-0.10749-0.0672-0.01315-7e-3 -0.02653-0.0138-0.03979-0.0207-0.01044-5e-3 -0.02067-0.0112-0.03152-0.016-0.03361-0.0149-0.06857-0.0265-0.10387-0.0377-0.01326-4e-3 -0.02659-8e-3 -0.03979-0.0124-0.0084-3e-3 -0.01662-6e-3 -0.02532-8e-3 -0.05968-0.0145-0.12068-0.0247-0.18345-0.0279z" stroke-width="1.2"/>
<path d="m61.182 268.8c-0.06661-3e-3 -0.13445-4.9e-4 -0.20309 0.01l-27.587 4.1419c-0.5491 0.0824-0.92477 0.59088-0.84233 1.14l0.58498 3.8948 2.4991 16.646c0.08244 0.5491 0.59088 0.92477 1.14 0.84233l27.587-4.1419c0.54753-0.0822 0.92192-0.58803 0.84232-1.1353-2.27e-4 -2e-3 2.36e-4 -3e-3 0-5e-3l-3.084-20.541c-0.0097-0.0647-0.0261-0.12661-0.04702-0.18604-0.0038-0.0108-0.0091-0.0208-0.01395-0.031-0.0039-8e-3 -0.0073-0.0165-0.01085-0.0248-0.01671-0.0395-0.03399-0.0782-0.0553-0.11472-0.01108-0.019-0.02393-0.0367-0.03617-0.0548-0.02177-0.0322-0.04459-0.0633-0.06976-0.0925-0.01451-0.0168-0.0299-0.0328-0.04547-0.0486-0.02812-0.0286-0.05763-0.0552-0.08888-0.0801-0.01257-0.01-0.02533-0.0199-0.03824-0.0295-0.03434-0.0248-0.07021-0.0469-0.10749-0.0672-0.01315-7e-3 -0.02653-0.0138-0.03979-0.0207-0.01044-5e-3 -0.02067-0.0112-0.03152-0.016-0.03361-0.0149-0.06857-0.0265-0.10387-0.0377-0.01326-4e-3 -0.02659-8e-3 -0.03979-0.0124-0.0084-3e-3 -0.01662-6e-3 -0.02532-8e-3 -0.05968-0.0145-0.12068-0.0247-0.18345-0.0279z" stroke-width="1.4"/>
<path d="m61.182 268.8c-0.06661-3e-3 -0.13445-4.9e-4 -0.20309 0.01l-27.587 4.1419c-0.5491 0.0824-0.92477 0.59088-0.84233 1.14l0.58498 3.8948 2.4991 16.646c0.08244 0.5491 0.59088 0.92477 1.14 0.84233l27.587-4.1419c0.54753-0.0822 0.92192-0.58803 0.84232-1.1353-2.27e-4 -2e-3 2.36e-4 -3e-3 0-5e-3l-3.084-20.541c-0.0097-0.0647-0.0261-0.12661-0.04702-0.18604-0.0038-0.0108-0.0091-0.0208-0.01395-0.031-0.0039-8e-3 -0.0073-0.0165-0.01085-0.0248-0.01671-0.0395-0.03399-0.0782-0.0553-0.11472-0.01108-0.019-0.02393-0.0367-0.03617-0.0548-0.02177-0.0322-0.04459-0.0633-0.06976-0.0925-0.01451-0.0168-0.0299-0.0328-0.04547-0.0486-0.02812-0.0286-0.05763-0.0552-0.08888-0.0801-0.01257-0.01-0.02533-0.0199-0.03824-0.0295-0.03434-0.0248-0.07021-0.0469-0.10749-0.0672-0.01315-7e-3 -0.02653-0.0138-0.03979-0.0207-0.01044-5e-3 -0.02067-0.0112-0.03152-0.016-0.03361-0.0149-0.06857-0.0265-0.10387-0.0377-0.01326-4e-3 -0.02659-8e-3 -0.03979-0.0124-0.0084-3e-3 -0.01662-6e-3 -0.02532-8e-3 -0.05968-0.0145-0.12068-0.0247-0.18345-0.0279z" stroke-width="1.6"/>
<path d="m61.182 268.8c-0.06661-3e-3 -0.13445-4.9e-4 -0.20309 0.01l-27.587 4.1419c-0.5491 0.0824-0.92477 0.59088-0.84233 1.14l0.58498 3.8948 2.4991 16.646c0.08244 0.5491 0.59088 0.92477 1.14 0.84233l27.587-4.1419c0.54753-0.0822 0.92192-0.58803 0.84232-1.1353-2.27e-4 -2e-3 2.36e-4 -3e-3 0-5e-3l-3.084-20.541c-0.0097-0.0647-0.0261-0.12661-0.04702-0.18604-0.0038-0.0108-0.0091-0.0208-0.01395-0.031-0.0039-8e-3 -0.0073-0.0165-0.01085-0.0248-0.01671-0.0395-0.03399-0.0782-0.0553-0.11472-0.01108-0.019-0.02393-0.0367-0.03617-0.0548-0.02177-0.0322-0.04459-0.0633-0.06976-0.0925-0.01451-0.0168-0.0299-0.0328-0.04547-0.0486-0.02812-0.0286-0.05763-0.0552-0.08888-0.0801-0.01257-0.01-0.02533-0.0199-0.03824-0.0295-0.03434-0.0248-0.07021-0.0469-0.10749-0.0672-0.01315-7e-3 -0.02653-0.0138-0.03979-0.0207-0.01044-5e-3 -0.02067-0.0112-0.03152-0.016-0.03361-0.0149-0.06857-0.0265-0.10387-0.0377-0.01326-4e-3 -0.02659-8e-3 -0.03979-0.0124-0.0084-3e-3 -0.01662-6e-3 -0.02532-8e-3 -0.05968-0.0145-0.12068-0.0247-0.18345-0.0279z" stroke-width="1.8"/>
</g>
<path d="m29.024 268.7c-0.06533-3e-3 -0.13185-4.7e-4 -0.19915 0.01l-27.052 4.0616c-0.53846 0.0808-0.90684 0.57943-0.826 1.1179l0.57364 3.8194 28.996-4.3535 2.4511 16.328c-2.23e-4 -2e-3 2.31e-4 -3e-3 0-5e-3l-3.0243-20.143c-0.07074-0.47116-0.46148-0.81192-0.91873-0.83564z" fill="url(#linearGradient4901)"/>
<path d="m29.205 268.73c0.02184 5e-3 0.04255 0.0136 0.06385 0.0203-0.02135-7e-3 -0.04197-0.0149-0.06385-0.0203zm0.16571 0.0572c0.02405 0.0107 0.04688 0.0235 0.06993 0.0359-0.02311-0.0126-0.04581-0.0252-0.06993-0.0359zm0.15962 0.0902c0.01832 0.0127 0.03579 0.0266 0.0532 0.0406-0.01752-0.014-0.03479-0.0278-0.0532-0.0406zm0.13733 0.11555c0.01643 0.0165 0.03238 0.0335 0.04763 0.0512-0.0153-0.0178-0.03115-0.0346-0.04763-0.0512zm0.11604 0.14189c0.01201 0.0177 0.02461 0.0351 0.03547 0.0537-0.0109-0.0187-0.02343-0.0359-0.03547-0.0537zm0.08969 0.16621c0.0078 0.0184 0.01761 0.0357 0.02432 0.0548-0.0067-0.0191-0.01651-0.0362-0.02432-0.0548zm0.64357 4.0565-28.996 4.3535 2.4506 16.323c0.080844 0.53846 0.57943 0.90684 1.1179 0.826l27.052-4.0616c0.53692-0.0806 0.90406-0.57665 0.826-1.1133z" fill="url(#linearGradient5252)"/>
<path transform="matrix(.26458 0 0 .26458 0 263.13)" d="m102.89 49.461-33.135 4.6465-0.36914 0.49609 4.6465 33.133 0.49219 0.375 33.133-4.6465 0.375-0.49609-4.6465-33.133-0.49609-0.375zm-0.30859 0.93164 4.5234 32.262-32.268 4.5254-4.5234-32.262 32.268-4.5254zm-47.164 5.7246-33.133 4.6465-0.36914 0.49609 4.6465 33.135 0.49024 0.375 33.135-4.6465 0.375-0.49805-4.6465-33.133-0.49805-0.375zm-0.30859 0.93359 4.5254 32.262-32.268 4.5234-4.5234-32.262 32.266-4.5234zm27.496 4.1133c-0.41748 0.017434-0.861 0.058945-1.332 0.125l-6.2793 0.88281 0.13672 0.98438 1.4238-0.048828 0.46875 0.28516 1.9023 13.572-0.37109 0.40234-1.3848 0.32031 0.14062 1.0098 6.502-0.91211c4.187-0.58715 6.1871-2.6252 5.752-5.7285-0.33849-2.4137-2.2004-3.6833-5.1348-3.2969 2.2746-0.97198 3.3055-2.3996 3.043-4.2715-0.33244-2.3706-1.9449-3.4463-4.8672-3.3242zm-1.0586 1.2422c2.1003-0.069765 3.2572 0.77782 3.502 2.5234 0.33502 2.389-0.94869 3.6249-4.0273 4.0566-0.29556 0.041575-0.6157 0.085815-0.93945 0.10547l-0.88867-6.3301c0.61208-0.11263 1.0744-0.22456 1.3945-0.26953 0.33865-0.04749 0.65894-0.075972 0.95898-0.085938zm15.693 1.252c-0.31258-0.012995-0.63904 0.003722-0.97461 0.050781-3.3003 0.4628-5.334 3.3338-4.8125 7.0527 0.50772 3.6205 3.0927 5.745 6.3438 5.2891 1.5516-0.2177 3.0842-0.93455 4.4238-2.127l-0.19141-1.3535c-1.2726 1.1328-2.4345 1.7961-3.666 1.9688-2.4876 0.34885-4.3997-1.2908-4.8418-4.4434l-0.039063-0.27148 7.9805-1.1191c-0.01323-0.27439-0.04753-0.5213-0.08203-0.76758-0.37173-2.6508-1.9526-4.1883-4.1406-4.2793zm-0.54688 1.1719c1.3128 0.055264 2.1576 1.0045 2.4023 2.75l0.054688 0.39453-5.6895 0.79883c-0.14581-2.1142 1.0644-3.691 2.6406-3.9121 0.20627-0.028913 0.40425-0.039145 0.5918-0.03125zm-49.404 0.40039c-0.10105-0.006363-0.20252-0.002885-0.30664 0.011719-0.83298 0.11679-1.4193 0.86368-1.2988 1.7227 0.11682 0.83301 0.88577 1.3883 1.7188 1.2715 0.83298-0.11679 1.4176-0.8623 1.3008-1.6953-0.10222-0.72885-0.70668-1.266-1.4141-1.3105zm-10.65 2.4434-6.3516 0.89062 0.14648 1.043 1.6602-0.074219 0.49609 0.30078 2.0117 14.344-0.39258 0.42578-1.623 0.36133 0.15039 1.0664 12.469-1.748-0.66406-4.7383-1.3535 0.19141-0.003906 3.1855-0.30664 0.4668-5.8828 0.82422-2.0625-14.707 0.39062-0.42578 1.4629-0.36328-0.14648-1.043zm46.975 2.0781c2.119-0.059038 3.2875 0.85534 3.5625 2.8164 0.34885 2.4876-1.0376 3.711-4.3379 4.1738-0.51721 0.072565-1.064 0.1257-1.6621 0.1582v-0.001953l-0.92188-6.5742c0.94672-0.2332 1.7522-0.39848 2.3926-0.48828 0.34173-0.04792 0.66409-0.075551 0.9668-0.083985zm-34.936 1.1445-0.99024 0.13867-2.8613 1.3574 0.11328 0.80664 1.8223-0.25586 1.3223 9.4238-0.38477 0.47852-1.3613 0.32422 0.13086 0.93555 5.8574-0.82031-0.13281-0.9375-1.4238 0.066406-0.52539-0.34961-1.5664-11.168zm13.008 29.92-33.133 4.6465-0.36914 0.49609 1.7305 12.34 0.86523-0.13086-1.668-11.895 32.268-4.5254 1.623 11.582 0.86524-0.12891-1.6836-12.01-0.49805-0.375zm-13.549 10.871-5.084 0.71289 0.13672 0.9668 1.4824 0.01562 0.49609 0.375 0.30859 2.2031 1.3047-0.19532-0.30664-2.1914 0.375-0.49805 1.4238-0.42187-0.13672-0.9668zm-11.449 1.6055-4.5508 0.63672 0.13477 0.96875 1.5703-0.07227 0.48242 0.2793 0.34766 2.4785 1.3047-0.19531-0.19922-1.4277 1.1504 1.2852 2.4883-0.375-2.6445-2.9726-0.083985-0.60547z" fill="url(#linearGradient5180)"/>
<path transform="matrix(.26458 0 0 .26458 0 263.13)" d="m115.34 38.631-109.59 16.453 1.3535 9.0195 109.62-16.264-1.3828-9.209z" color="#000000" color-rendering="auto" dominant-baseline="auto" fill="url(#linearGradient4975)" image-rendering="auto" opacity=".572" shape-rendering="auto" solid-color="#000000" style="font-feature-settings:normal;font-variant-alternates:normal;font-variant-caps:normal;font-variant-ligatures:normal;font-variant-numeric:normal;font-variant-position:normal;isolation:auto;mix-blend-mode:normal;shape-padding:0;text-decoration-color:#000000;text-decoration-line:none;text-decoration-style:solid;text-indent:0;text-orientation:mixed;text-transform:none;white-space:normal"/>
<g transform="matrix(.87914 -.13524 .13524 .87914 1.5188 39.689)">
<circle cx="-38.526" cy="261.91" r="1.336" fill="#ff2911" style="paint-order:fill markers stroke"/>
<circle cx="-34.572" cy="261.91" r="1.336" fill="#f89c22" style="paint-order:fill markers stroke"/>
<circle cx="-30.619" cy="261.91" r="1.336" fill="#2ecc3f" style="paint-order:fill markers stroke"/>
<path transform="matrix(.26458 0 0 .26458 0 263.13)" d="m-150.61-5.2949a5.0494 5.0494 0 0 0-0.0508 0.66992 5.0494 5.0494 0 0 0 5.0488 5.0508 5.0494 5.0494 0 0 0 5.0508-5.0508 5.0494 5.0494 0 0 0-0.0508-0.66602 5.0494 5.0494 0 0 1-5 4.377 5.0494 5.0494 0 0 1-4.998-4.3809z" fill="#e61700" fill-opacity=".80303" style="paint-order:fill markers stroke"/>
<path transform="matrix(.26458 0 0 .26458 0 263.13)" d="m-145.61-9.6738a5.0494 5.0494 0 0 0-5.0488 5.0488 5.0494 5.0494 0 0 0 0.0586 0.72656 5.0494 5.0494 0 0 1 4.9902-4.332 5.0494 5.0494 0 0 1 4.9922 4.3242 5.0494 5.0494 0 0 0 0.0586-0.71875 5.0494 5.0494 0 0 0-5.0508-5.0488z" fill="#ff6b5b" fill-opacity=".39773" style="paint-order:fill markers stroke"/>
<path transform="matrix(.26458 0 0 .26458 0 263.13)" d="m-125.67-5.3184a5.0494 5.0494 0 0 1-4.9941 4.3594 5.0494 5.0494 0 0 1-4.9961-4.3574 5.0494 5.0494 0 0 0-0.0547 0.69141 5.0494 5.0494 0 0 0 5.0508 5.0508 5.0494 5.0494 0 0 0 5.0488-5.0508 5.0494 5.0494 0 0 0-0.0547-0.69336z" fill="#ec8a07" style="paint-order:fill markers stroke"/>
<path transform="matrix(.26458 0 0 .26458 0 263.13)" d="m-130.67-9.6738a5.0494 5.0494 0 0 0-5.0508 5.0488 5.0494 5.0494 0 0 0 0.0449 0.61133 5.0494 5.0494 0 0 1 5.0059-4.4219 5.0494 5.0494 0 0 1 5.0059 4.4355 5.0494 5.0494 0 0 0 0.043-0.625 5.0494 5.0494 0 0 0-5.0488-5.0488z" fill="#f9aa42" fill-opacity=".85145" style="paint-order:fill markers stroke"/>
<path transform="matrix(.26458 0 0 .26458 0 263.13)" d="m-110.72-5.2969a5.0494 5.0494 0 0 1-5 4.3828 5.0494 5.0494 0 0 1-5-4.3789 5.0494 5.0494 0 0 0-0.0488 0.66797 5.0494 5.0494 0 0 0 5.0488 5.0508 5.0494 5.0494 0 0 0 5.0488-5.0508 5.0494 5.0494 0 0 0-0.0488-0.67188z" fill="#27ae36" style="paint-order:fill markers stroke"/>
<path transform="matrix(.26458 0 0 .26458 0 263.13)" d="m-115.72-9.6738a5.0494 5.0494 0 0 0-5.0488 5.0488 5.0494 5.0494 0 0 0 0.0488 0.67188 5.0494 5.0494 0 0 1 5-4.3809 5.0494 5.0494 0 0 1 5 4.377 5.0494 5.0494 0 0 0 0.0488-0.66797 5.0494 5.0494 0 0 0-5.0488-5.0488z" fill="#50d85f" fill-opacity=".77536" style="paint-order:fill markers stroke"/>
</g>
</g>
</svg>
