<svg width="128" height="128" version="1.1" viewBox="0 0 128 128" xmlns="http://www.w3.org/2000/svg" xmlns:xlink="http://www.w3.org/1999/xlink">
<defs>
<linearGradient id="linearGradient4513" x1="594.55" x2="595.11" y1="573.7" y2="609.29" gradientTransform="translate(-548.02 -541.4)" gradientUnits="userSpaceOnUse">
<stop stop-color="#c8dde2" offset="0"/>
<stop stop-color="#a4a9ae" offset="1"/>
</linearGradient>
</defs>
<g transform="matrix(2.4042 0 0 2.4042 -58.124 -45.756)">
<path d="m29.722 32.119c-2.2715 0-4.0996 1.8281-4.0996 4.0996v12.172c0.92705 0.21217 2.0764 0.0797 2.6445-0.47656a3.7511 4.8376 0 0 1 2.4395-1.1699 3.7511 4.8376 0 0 1 3.752 4.8379 3.7511 4.8376 0 0 1-3.752 4.8379 3.7511 4.8376 0 0 1-2.4824-1.2168c-0.58007-0.5261-1.6962-0.64622-2.6016-0.43945v12.182c0 2.2715 1.8281 4.0996 4.0996 4.0996h32.482c2.2716 0 4.0996-1.8281 4.0996-4.0996v-11.066c0.67118-2.2248 2.9756-1.8042 3.9883-0.60937v-6e-3a3.7511 4.8376 0 0 0 2.4277 1.1562 3.7511 4.8376 0 0 0 3.75-4.8379 3.7511 4.8376 0 0 0-3.75-4.8379 3.7511 4.8376 0 0 0-2.4648 1.1953c-1.0289 1.1655-3.2873 1.5567-3.9512-0.64453v-11.076c0-2.2716-1.8281-4.0996-4.0996-4.0996z" fill="#828d90" style="paint-order:fill markers stroke"/>
<path d="m29.722 31.259c-2.2715 0-4.0996 1.8281-4.0996 4.0996v12.172c0.92705 0.21217 2.0764 0.0797 2.6445-0.47656a3.7511 4.8376 0 0 1 2.4395-1.1699 3.7511 4.8376 0 0 1 3.752 4.8379 3.7511 4.8376 0 0 1-3.752 4.8379 3.7511 4.8376 0 0 1-2.4824-1.2168c-0.58007-0.5261-1.6962-0.64622-2.6016-0.43945v12.182c0 2.2715 1.8281 4.0996 4.0996 4.0996h32.482c2.2716 0 4.0996-1.8281 4.0996-4.0996v-11.066c0.67118-2.2248 2.9756-1.8042 3.9883-0.60937v-6e-3a3.7511 4.8376 0 0 0 2.4277 1.1562 3.7511 4.8376 0 0 0 3.75-4.8379 3.7511 4.8376 0 0 0-3.75-4.8379 3.7511 4.8376 0 0 0-2.4648 1.1953c-1.0289 1.1655-3.2873 1.5567-3.9512-0.64453v-11.076c0-2.2716-1.8281-4.0996-4.0996-4.0996z" fill="url(#linearGradient4513)" style="paint-order:fill markers stroke"/>
</g>
<path d="m74.097 46.367c-4.147-2.1999-9.0957-2.8882-13.862-1.5451-9.5402 2.6883-14.746 12.493-11.629 21.901 0.43206 1.3042 0.99787 2.5272 1.6847 3.6651l-17.775 33.471 1.4105 4.2578 5.7293 3.042 8.636-2.4326 2.9076-5.4761-1.4121-4.2587 4.3188-1.2159-1.4112-4.2603 4.3188-1.2159-1.4121-4.2587 8.6369-2.4342 3.2159-6.0568c1.3565-0.06944 2.7155-0.28484 4.0649-0.66512 9.5402-2.6883 14.746-12.493 11.629-21.901-1.5586-4.7044-4.9031-8.4163-9.0502-10.616zm-3.3156 6.1682c1.0373 0.55073 1.8733 1.479 2.2624 2.6535 0.7782 2.3489-0.52504 4.8034-2.9067 5.4746-2.3817 0.67114-4.9511-0.69308-5.7293-3.042-0.7782-2.3489 0.52504-4.8034 2.9067-5.4746 1.1908-0.33557 2.4297-0.16221 3.4669 0.38852z" fill="#fff"/>
<rect x="-98.691" y="-20.677" width="113.8" height="113.56" fill-opacity="0"/>
</svg>
