<svg width="128" height="128" version="1.1" viewBox="0 0 128 128" xmlns="http://www.w3.org/2000/svg" xmlns:xlink="http://www.w3.org/1999/xlink">
<defs>
<linearGradient id="linearGradient825" x1="-211.53" x2="-276.07" y1="492.75" y2="177.08" gradientTransform="matrix(.23549 0 0 .23549 117.91 -14.038)" gradientUnits="userSpaceOnUse">
<stop stop-color="#a75e41" offset="0"/>
<stop stop-color="#d99552" offset="1"/>
</linearGradient>
<linearGradient id="linearGradient1573" x1="-342.14" x2="-390.5" y1="344.56" y2="346.98" gradientTransform="matrix(.23549 0 0 .23549 117.91 -14.038)" gradientUnits="userSpaceOnUse">
<stop offset="0"/>
<stop stop-opacity="0" offset="1"/>
</linearGradient>
<linearGradient id="linearGradient1613" x1="-279.27" x2="-275.04" y1="522.43" y2="562.63" gradientTransform="matrix(.23549 0 0 .23549 117.91 -14.038)" gradientUnits="userSpaceOnUse">
<stop offset="0"/>
<stop stop-opacity="0" offset="1"/>
</linearGradient>
<radialGradient id="radialGradient1645" cx="-362.44" cy="561" r="8.9507" gradientTransform="matrix(-.44112 -.034218 .036222 -.46696 -147.64 366.39)" gradientUnits="userSpaceOnUse">
<stop offset="0"/>
<stop stop-opacity="0" offset="1"/>
</radialGradient>
<linearGradient id="linearGradient4597" x1="72.567" x2="63.218" y1="115.74" y2="15.936" gradientUnits="userSpaceOnUse">
<stop stop-color="#2156ff" offset="0"/>
<stop stop-color="#3bcbff" offset="1"/>
</linearGradient>
</defs>
<flowRoot transform="translate(0,-384)" fill="#000000" font-family="'Source Sans Pro'" font-size="40px" letter-spacing="0px" stroke-width="1px" word-spacing="0px" style="line-height:125%" xml:space="preserve"><flowRegion><rect x="-352.07" y="251.21" width="36.05" height="98.947"/></flowRegion><flowPara/></flowRoot>
<text y="-246.31117" fill="#000000" font-family="'Source Sans Pro'" font-size="40px" letter-spacing="0px" stroke-width="1px" word-spacing="0px" style="line-height:125%" xml:space="preserve"><tspan x="0" y="-211.31117"/></text>
<g transform="matrix(.23549 0 0 .23549 193.15 -64.819)">
<path d="m-394.85 288.54 35.254-5.4237" fill="none" stroke="#fff" stroke-linecap="round" stroke-width="5"/>
<path d="m-773.15 368 327.59-68.881 97.078 423.72-347.11 80.14z" fill-opacity=".027473"/>
<path d="m-774.05 369.51 327.59-68.881 97.078 423.72-347.11 80.14z" fill-opacity=".027473"/>
<path d="m-774.81 370.87 327.59-68.881 97.078 423.72-347.11 80.14z" fill-opacity=".027473"/>
<path d="m-775.49 372.08 327.59-68.881 97.078 423.72-347.11 80.14z" fill-opacity=".027473"/>
<path d="m-776.02 372.99 327.59-68.881 97.078 423.72-347.11 80.14z" fill-opacity=".027473"/>
</g>
<path d="m26.702 18.455 73.948-5.3672c0.39922-0.02898 0.70624 0.28573 0.7606 0.68229l13.136 95.829c0.0544 0.39656-0.28341 0.72738-0.6823 0.7606l-81.805 6.8122c-0.39889 0.0332-0.73891-0.28261-0.7606-0.68229l-5.279-97.274c-0.021689-0.39968 0.28307-0.73162 0.68229-0.7606z" fill="#e7e7e7" style="paint-order:fill markers stroke"/>
<path d="m11.132 21.086 77.144-16.221 22.861 99.782-81.741 18.872z" fill="url(#linearGradient825)"/>
<g transform="matrix(.23549 0 0 .23549 3.0032 4.3196)" fill="#273b65" stroke="#fff">
<path d="m365.11 50.247c0-3.8352-9.2044-39.886-9.2044-39.886l-313.72 68.266 75.936 418.8 245.45-61.362" stroke-opacity=".39011" stroke-width="5"/>
<path d="m362.81 39.125-6.9033-28.764c-6.1362 0.38352-313.72 68.266-313.72 68.266l75.936 418.8 217.07-54.076" stroke-opacity=".94505" stroke-width="2"/>
</g>
<circle cx="29.205" cy="35.455" r="9.7708" fill="none" opacity=".768" stroke="#fff" stroke-linecap="square" stroke-width="1.1774" style="paint-order:fill markers stroke"/>
<path d="m114.33 110.45-82.113 7.4014 0.20697 4.9719 82.041-9.6331z" fill="url(#linearGradient1613)"/>
<path d="m31.645 116.78-3.4091 0.22721 1.1611 6.5106 3.0545-1.4357-0.2371-4.2346z" fill="url(#radialGradient1645)" opacity=".388"/>
<path d="m27.085 19.605 73.948-5.3672c0.39922-0.02897 0.70624 0.28573 0.7606 0.68229l13.136 95.829c0.0544 0.39656-0.2834 0.72738-0.68229 0.76059l-81.805 6.8122c-0.39889 0.0332-0.73891-0.28261-0.7606-0.68229l-5.279-97.274c-0.02169-0.39968 0.28307-0.73162 0.68229-0.7606z" fill="#dcdcdc" style="paint-order:fill markers stroke"/>
<path d="m26.462 17.863-11.876 2.497 1.1618 26.612 12.488 70.037 3.4091-0.22721z" fill="url(#linearGradient1573)"/>
<path d="m26.574 18.966 73.948-5.3672c0.39922-0.02897 0.70624 0.28574 0.7606 0.6823l13.136 95.829c0.0544 0.39656-0.2834 0.72738-0.68229 0.7606l-81.805 6.8122c-0.39889 0.0332-0.73891-0.28261-0.7606-0.68229l-5.279-97.274c-0.02169-0.39968 0.28307-0.73162 0.68229-0.7606z" fill="#464646" style="paint-order:fill markers stroke"/>
<path d="m26.447 17.561 73.948-5.3672c0.39922-0.02897 0.70624 0.28573 0.7606 0.68229l13.136 95.829c0.0544 0.39656-0.2834 0.72738-0.68229 0.76059l-81.805 6.8122c-0.39889 0.0332-0.73891-0.28261-0.7606-0.68229l-5.279-97.274c-0.02169-0.39968 0.28307-0.73162 0.68229-0.7606z" fill="url(#linearGradient4597)" style="paint-order:fill markers stroke"/>
<g transform="matrix(.20839 0 0 .20839 40.434 -127.46)">
<text x="13.384521" y="1018.6487" fill="#000000" font-family="sans-serif" font-size="15px" letter-spacing="0px" stroke-width="1px" word-spacing="0px" style="line-height:125%" xml:space="preserve"><tspan x="13.384521" y="1018.6487"/></text>
<text x="24.008951" y="1026.7778" fill="#000000" font-family="Courier" font-size="19.093px" letter-spacing="1px" stroke-width="1px" word-spacing="0px" style="line-height:85.00000238%" xml:space="preserve"><tspan x="24.008951" y="1026.7778" font-family="Cantarell" letter-spacing="1px" text-align="center" text-anchor="middle" style="line-height:85.00000238%"/></text>
<circle cx="128" cy="924.36" r="122.23" fill="#fff" stroke="#000" stroke-width="5.5317"/>
<g transform="matrix(4.9797 -1.6201 1.6201 4.9797 -1657.3 -4153.4)" stroke="#000">
<rect x="10.744" y="1022.1" width="26.513" height="7.5724" stroke-width=".87748"/>
<rect x="5.5791" y="1030.1" width="36.842" height=".47633" stroke-width="1.0287"/>
</g>
</g>
</svg>
