<svg width="128" height="128" version="1.1" viewBox="0 0 33.867 33.867" xmlns="http://www.w3.org/2000/svg" xmlns:osb="http://www.openswatchbook.org/uri/2009/osb" xmlns:xlink="http://www.w3.org/1999/xlink">
<defs>
<clipPath>
<rect width="384" height="384"/>
</clipPath>
<clipPath>
<rect width="384" height="384"/>
</clipPath>
<linearGradient id="linearGradient948" x1="122.34" x2="84.091" y1="117.04" y2="71.02" gradientTransform="matrix(.26458 0 0 .26458 -73.214 269.23)" gradientUnits="userSpaceOnUse" xlink:href="#linearGradient944"/>
<linearGradient id="linearGradient944">
<stop stop-color="#d5dada" offset="0"/>
<stop stop-color="#f1f1f1" offset="1"/>
</linearGradient>
<linearGradient id="linearGradient993" x1="-39.014" x2="-21.756" y1="265.76" y2="285.73" gradientUnits="userSpaceOnUse">
<stop stop-color="#00d0c7" offset="0"/>
<stop stop-color="#00ab9b" offset="1"/>
</linearGradient>
<clipPath>
<rect width="384" height="384"/>
</clipPath>
<clipPath>
<rect width="384" height="384"/>
</clipPath>
<linearGradient id="linearGradient1194" x1="122.34" x2="84.091" y1="117.04" y2="71.02" gradientTransform="matrix(.26458 0 0 .26458 -114.23 271.81)" gradientUnits="userSpaceOnUse" xlink:href="#linearGradient944"/>
<filter id="filter4187-3" color-interpolation-filters="sRGB">
<feFlood flood-color="rgb(0,0,0)" flood-opacity=".49804" result="flood"/>
<feComposite in="flood" in2="SourceGraphic" operator="in" result="composite1"/>
<feGaussianBlur in="composite1" result="blur" stdDeviation="1"/>
<feOffset dx="1.38778e-16" dy="1" result="offset"/>
<feComposite in="SourceGraphic" in2="offset" result="composite2"/>
</filter>
</defs>
<g transform="translate(0 -263.13)">
<g transform="matrix(.97507 -.15 .15 .97507 22.55 10.715)" fill="none" opacity=".389" stroke="#000" stroke-linecap="round" stroke-linejoin="round" stroke-opacity=".039216">
<rect transform="rotate(-.018651)" x="-61.945" y="253.77" width="25.83" height="29.567" rx="1.4423" ry="1.4423" opacity="1" stroke-width=".15" style="paint-order:fill markers stroke"/>
<rect transform="rotate(-.018651)" x="-61.945" y="253.77" width="25.83" height="29.567" rx="1.4423" ry="1.4423" opacity="1" stroke-width=".3" style="paint-order:fill markers stroke"/>
<rect transform="rotate(-.018651)" x="-61.945" y="253.77" width="25.83" height="29.567" rx="1.4423" ry="1.4423" opacity="1" stroke-width=".45" style="paint-order:fill markers stroke"/>
<rect transform="rotate(-.018651)" x="-61.945" y="253.77" width="25.83" height="29.567" rx="1.4423" ry="1.4423" opacity="1" stroke-width=".6" style="paint-order:fill markers stroke"/>
<rect transform="rotate(-.018651)" x="-61.945" y="253.77" width="25.83" height="29.567" rx="1.4423" ry="1.4423" opacity="1" stroke-width=".85" style="paint-order:fill markers stroke"/>
<rect transform="rotate(-.018651)" x="-61.945" y="253.77" width="25.83" height="29.567" rx="1.4423" ry="1.4423" opacity="1" style="paint-order:fill markers stroke"/>
</g>
<rect transform="rotate(-8.764)" x="-40.457" y="264.37" width="25.483" height="29.169" rx="1.4229" ry="1.4229" fill="url(#linearGradient993)" style="paint-order:fill markers stroke"/>
<path d="m22.303 273.4a0.28629 0.74979 0 0 1-0.28606 0.74979 0.28629 0.74979 0 0 1-0.28652-0.74858 0.28629 0.74979 0 0 1 0.28559-0.751 0.28629 0.74979 0 0 1 0.28698 0.74737" fill-opacity="0" style="paint-order:fill markers stroke"/>
<path transform="matrix(.65052 -.10929 .10929 .65052 4.0929 270.8)" d="m10.467 2.75a1.2501 1.2501 0 0 0-1.2051 0.91797l-6.875 25a1.2501 1.2501 0 0 0 1.2051 1.582h20a1.2501 1.2501 0 0 0 1.2051-1.582l-3.6094-13.125 4.416-7.6484c0.32894-0.56974 0.13614-1.2941-0.43359-1.623l-0.10938-0.0625c-0.56974-0.32894-1.2922-0.13419-1.6211 0.43555l-3.1836 5.5137-2.334-8.4902a1.2501 1.2501 0 0 0-1.2051-0.91797zm0.95117 2.5h4.3457l2.7363 9.9492-5.748 9.957c-0.32894 0.56974-0.13614 1.2922 0.43359 1.6211l0.10938 0.0625c0.56974 0.32894 1.2922 0.13614 1.6211-0.43359l4.5156-7.8223 2.5215 9.166h-16.723z" color="#000000" color-rendering="auto" dominant-baseline="auto" fill="#fff" fill-rule="evenodd" filter="url(#filter4187-3)" image-rendering="auto" shape-rendering="auto" solid-color="#000000" style="font-feature-settings:normal;font-variant-alternates:normal;font-variant-caps:normal;font-variant-ligatures:normal;font-variant-numeric:normal;font-variant-position:normal;isolation:auto;mix-blend-mode:normal;shape-padding:0;text-decoration-color:#000000;text-decoration-line:none;text-decoration-style:solid;text-indent:0;text-orientation:mixed;text-transform:none;white-space:normal"/>
</g>
</svg>
