<svg width="128" height="128" version="1.1" viewBox="0 0 33.867 33.867" xmlns="http://www.w3.org/2000/svg" xmlns:osb="http://www.openswatchbook.org/uri/2009/osb" xmlns:xlink="http://www.w3.org/1999/xlink">
<defs>
<linearGradient id="linearGradient4601" x1="-23.371" x2="-23.368" y1="265.06" y2="258.26" gradientTransform="matrix(.97502 -.15031 .15031 .97502 1.7893 9.4995)" gradientUnits="userSpaceOnUse">
<stop stop-color="#d3d3d3" offset="0"/>
<stop stop-color="#e0e0e0" stop-opacity=".80303" offset="1"/>
</linearGradient>
<clipPath>
<rect width="384" height="384"/>
</clipPath>
<clipPath>
<rect width="384" height="384"/>
</clipPath>
<linearGradient id="linearGradient948" x1="122.34" x2="84.091" y1="117.04" y2="71.02" gradientTransform="matrix(.26458 0 0 .26458 -73.214 269.23)" gradientUnits="userSpaceOnUse">
<stop stop-color="#d5dada" offset="0"/>
<stop stop-color="#f1f1f1" offset="1"/>
</linearGradient>
<linearGradient id="linearGradient4667" x1="35.812" x2="11.654" y1="277.09" y2="283.8" gradientUnits="userSpaceOnUse">
<stop offset="0"/>
<stop stop-opacity="0" offset="1"/>
</linearGradient>
</defs>
<g transform="translate(0 -263.13)">
<g transform="matrix(.97507 -.15 .15 .97507 22.55 10.715)" fill="none" opacity=".389" stroke="#000" stroke-linecap="round" stroke-linejoin="round" stroke-opacity=".039216">
<rect transform="rotate(-.018651)" x="-61.945" y="253.77" width="25.83" height="29.567" rx="1.4423" ry="1.4423" opacity="1" stroke-width=".15" style="paint-order:fill markers stroke"/>
<rect transform="rotate(-.018651)" x="-61.945" y="253.77" width="25.83" height="29.567" rx="1.4423" ry="1.4423" opacity="1" stroke-width=".3" style="paint-order:fill markers stroke"/>
<rect transform="rotate(-.018651)" x="-61.945" y="253.77" width="25.83" height="29.567" rx="1.4423" ry="1.4423" opacity="1" stroke-width=".45" style="paint-order:fill markers stroke"/>
<rect transform="rotate(-.018651)" x="-61.945" y="253.77" width="25.83" height="29.567" rx="1.4423" ry="1.4423" opacity="1" stroke-width=".6" style="paint-order:fill markers stroke"/>
<rect transform="rotate(-.018651)" x="-61.945" y="253.77" width="25.83" height="29.567" rx="1.4423" ry="1.4423" opacity="1" stroke-width=".85" style="paint-order:fill markers stroke"/>
<rect transform="rotate(-.018651)" x="-61.945" y="253.77" width="25.83" height="29.567" rx="1.4423" ry="1.4423" opacity="1" style="paint-order:fill markers stroke"/>
</g>
<rect transform="rotate(-8.764)" x="-40.457" y="264.37" width="25.483" height="29.169" rx="1.4229" ry="1.4229" fill="#ececec" style="paint-order:fill markers stroke"/>
<path d="m1.7032 267.24 22.373-3.4491c0.77908-0.1201 1.503 0.41041 1.6231 1.1895l0.78031 5.061-25.187 3.8749-0.77888-5.0528c-0.12009-0.77908 0.4104-1.503 1.1895-1.6231z" fill="url(#linearGradient4601)" style="paint-order:fill markers stroke"/>
<g transform="matrix(.89651 -.13791 .13791 .89651 1.9046 30.379)">
<circle cx="-38.526" cy="261.91" r="1.336" fill="#ff2911" style="paint-order:fill markers stroke"/>
<circle cx="-34.572" cy="261.91" r="1.336" fill="#f89c22" style="paint-order:fill markers stroke"/>
<circle cx="-30.619" cy="261.91" r="1.336" fill="#2ecc3f" style="paint-order:fill markers stroke"/>
<path transform="matrix(.26458 0 0 .26458 0 263.13)" d="m-150.61-5.2949a5.0494 5.0494 0 0 0-0.0508 0.66992 5.0494 5.0494 0 0 0 5.0488 5.0508 5.0494 5.0494 0 0 0 5.0508-5.0508 5.0494 5.0494 0 0 0-0.0508-0.66602 5.0494 5.0494 0 0 1-5 4.377 5.0494 5.0494 0 0 1-4.998-4.3809z" fill="#e61700" fill-opacity=".80303" style="paint-order:fill markers stroke"/>
<path transform="matrix(.26458 0 0 .26458 0 263.13)" d="m-145.61-9.6738a5.0494 5.0494 0 0 0-5.0488 5.0488 5.0494 5.0494 0 0 0 0.0586 0.72656 5.0494 5.0494 0 0 1 4.9902-4.332 5.0494 5.0494 0 0 1 4.9922 4.3242 5.0494 5.0494 0 0 0 0.0586-0.71875 5.0494 5.0494 0 0 0-5.0508-5.0488z" fill="#ff6b5b" fill-opacity=".39773" style="paint-order:fill markers stroke"/>
<path transform="matrix(.26458 0 0 .26458 0 263.13)" d="m-125.67-5.3184a5.0494 5.0494 0 0 1-4.9941 4.3594 5.0494 5.0494 0 0 1-4.9961-4.3574 5.0494 5.0494 0 0 0-0.0547 0.69141 5.0494 5.0494 0 0 0 5.0508 5.0508 5.0494 5.0494 0 0 0 5.0488-5.0508 5.0494 5.0494 0 0 0-0.0547-0.69336z" fill="#ec8a07" style="paint-order:fill markers stroke"/>
<path transform="matrix(.26458 0 0 .26458 0 263.13)" d="m-130.67-9.6738a5.0494 5.0494 0 0 0-5.0508 5.0488 5.0494 5.0494 0 0 0 0.0449 0.61133 5.0494 5.0494 0 0 1 5.0059-4.4219 5.0494 5.0494 0 0 1 5.0059 4.4355 5.0494 5.0494 0 0 0 0.043-0.625 5.0494 5.0494 0 0 0-5.0488-5.0488z" fill="#f9aa42" fill-opacity=".85145" style="paint-order:fill markers stroke"/>
<path transform="matrix(.26458 0 0 .26458 0 263.13)" d="m-110.72-5.2969a5.0494 5.0494 0 0 1-5 4.3828 5.0494 5.0494 0 0 1-5-4.3789 5.0494 5.0494 0 0 0-0.0488 0.66797 5.0494 5.0494 0 0 0 5.0488 5.0508 5.0494 5.0494 0 0 0 5.0488-5.0508 5.0494 5.0494 0 0 0-0.0488-0.67188z" fill="#27ae36" style="paint-order:fill markers stroke"/>
<path transform="matrix(.26458 0 0 .26458 0 263.13)" d="m-115.72-9.6738a5.0494 5.0494 0 0 0-5.0488 5.0488 5.0494 5.0494 0 0 0 0.0488 0.67188 5.0494 5.0494 0 0 1 5-4.3809 5.0494 5.0494 0 0 1 5 4.377 5.0494 5.0494 0 0 0 0.0488-0.66797 5.0494 5.0494 0 0 0-5.0488-5.0488z" fill="#50d85f" fill-opacity=".77536" style="paint-order:fill markers stroke"/>
</g>
<g transform="matrix(.97507 -.15 .15 .97507 1.7893 9.4995)" fill="none" stroke="#000" stroke-linecap="round" stroke-linejoin="round" stroke-opacity=".064394">
<rect x="-27.81" y="260.42" width="10.47" height="2.603" rx="1.3015" ry="1.3015" stroke-width=".1" style="paint-order:fill markers stroke"/>
<rect x="-27.81" y="260.42" width="10.47" height="2.603" rx="1.3015" ry="1.3015" stroke-width=".2" style="paint-order:fill markers stroke"/>
<rect x="-27.81" y="260.42" width="10.47" height="2.603" rx="1.3015" ry="1.3015" stroke-width=".3" style="paint-order:fill markers stroke"/>
</g>
<rect transform="rotate(-8.7453)" x="-27.112" y="266.58" width="10.329" height="2.568" rx="1.284" ry="1.284" fill="#fff" fill-opacity=".85145" style="paint-order:fill markers stroke"/>
<path d="m23.906 268.26c-0.09705 0.13233-0.21945 0.24607-0.36152 0.33349-0.14207 0.0874-0.30383 0.14851-0.4796 0.17555l-7.6707 1.18c-0.17576 0.027-0.3484 0.0174-0.51018-0.0233-0.16178-0.0407-0.31271-0.11237-0.44504-0.20942 0.39157 8e-3 0.81608 0.0476 1.2505-0.0198l6.9638-1.0802c0.46308-0.0718 0.87575-0.23577 1.2528-0.356z" fill="#ccc" fill-opacity=".85145" style="paint-order:fill markers stroke"/>
<rect transform="rotate(-8.7453)" x="-40.369" y="270.92" width="25.483" height=".4338" rx="0" ry="0" fill-opacity=".1553" style="paint-order:fill markers stroke"/>
<rect transform="rotate(-8.7453)" x="-40.369" y="270.68" width="25.483" height=".24552" rx="0" ry="0" fill="#fff" fill-opacity=".1553" style="paint-order:fill markers stroke"/>
<path d="m15.41 275.07c-0.2221-0.12753-0.521-0.10136-0.73777 0.0271-0.22712 0.13467-0.42856 0.4231-0.51493 0.69731l-0.0037 9e-3c-0.4492 1.4726-1.1182 3.5722-2.0051 6.2877l-1.6628 5.1088-0.0038 0.0114c-0.09051 0.28735-0.10591 0.66033-0.03941 0.95418l0.04224 0.14224c0.10001 0.27463 0.2905 0.51015 0.4837 0.62109 0.203 0.11657 0.49663 0.0846 0.72206-0.0485 0.21653-0.12915 0.439-0.385 0.53064-0.67594l0.49337-1.5412 3.7681 0.15564c0.13136 0.56919 0.26546 1.1501 0.34453 1.5804l-0.0076-0.0579c0.04342 0.31517 0.20682 0.65943 0.40696 0.83212l0.03374 0.0267c0.19397 0.14686 0.4783 0.17327 0.70993 0.0846 0.2177-0.0827 0.45273-0.29022 0.57548-0.55663l0.02012-0.0452c0.11802-0.28957 0.16042-0.71944 0.08637-1.0467-0.0817-0.4403-0.16972-0.88693-0.26662-1.3376l-0.0087-0.0303-0.41677-1.7192-0.0014-7e-3 -0.31849-1.2868-1.6714-7.3355-0.0042-0.0186c-0.04479-0.18359-0.11938-0.35449-0.20872-0.48998-0.08934-0.13548-0.20536-0.25362-0.33306-0.33159zm-0.52867 4.8862 0.94635 4.1617 0.0072 0.0256 0.0058 0.021-2.2857-0.0944z" color="#000000" color-rendering="auto" dominant-baseline="auto" fill="url(#linearGradient4667)" image-rendering="auto" shape-rendering="auto" solid-color="#000000" style="font-feature-settings:normal;font-variant-alternates:normal;font-variant-caps:normal;font-variant-ligatures:normal;font-variant-numeric:normal;font-variant-position:normal;isolation:auto;mix-blend-mode:normal;shape-padding:0;text-decoration-color:#000000;text-decoration-line:none;text-decoration-style:solid;text-indent:0;text-orientation:mixed;text-transform:none;white-space:normal"/>
</g>
</svg>
