<svg width="128" height="128" version="1.1" viewBox="0 0 33.867 33.867" xmlns="http://www.w3.org/2000/svg" xmlns:xlink="http://www.w3.org/1999/xlink">
<defs>
<linearGradient id="linearGradient838" x1="-146.65" x2="-146.65" y1="195.59" y2="157.63" gradientUnits="userSpaceOnUse">
<stop stop-color="#e4dee7" offset="0"/>
<stop stop-color="#dcd5e1" offset=".187"/>
<stop stop-color="#b3afb9" offset=".43348"/>
<stop stop-color="#9d97a4" offset=".54615"/>
<stop stop-color="#9893a0" offset=".69404"/>
<stop stop-color="#888191" offset=".81846"/>
<stop stop-color="#736b77" offset="1"/>
</linearGradient>
<linearGradient id="linearGradient858" x1="-149.66" x2="-149.66" y1="195.4" y2="197.12" gradientUnits="userSpaceOnUse">
<stop stop-color="#918a98" offset="0"/>
<stop stop-color="#656268" offset="1"/>
</linearGradient>
<linearGradient id="linearGradient886" x1="44.171" x2="44.171" y1="13.358" y2="154.97" gradientTransform="matrix(.14034 0 0 .14034 10.571 268.6)" gradientUnits="userSpaceOnUse">
<stop stop-color="#7b4d74" offset="0"/>
<stop stop-color="#3c1e2f" offset="1"/>
</linearGradient>
<linearGradient id="linearGradient4592" x1="2.1807" x2="32.438" y1="280.18" y2="280.37" gradientUnits="userSpaceOnUse">
<stop stop-color="#ffe2f0" offset="0"/>
<stop stop-color="#c32573" offset="1"/>
</linearGradient>
</defs>
<g transform="translate(0 -263.13)">
<g transform="matrix(.14034 0 0 .14034 37.772 268.75)">
<path d="m-181.88 182.35c-3.7685 4.796-7.3966 8.4392-7.3375 10.759 0.0532 2.0908 2.018 4.9114 4.1096 4.9114h75.127c2.0915 0 3.7223-2.8874 3.7755-4.9782 0.059-2.3193-3.569-5.9625-7.3375-10.759z" fill-opacity=".1623" style="paint-order:fill markers stroke"/>
<path d="m-181.88 181.65c-3.7685 4.796-7.3966 8.4392-7.3375 10.759 0.0532 2.0908 2.018 4.9114 4.1096 4.9114h75.127c2.0915 0 3.7223-2.8874 3.7755-4.9782 0.059-2.3193-3.569-5.9625-7.3375-10.759z" fill="url(#linearGradient858)" style="paint-order:fill markers stroke"/>
<path d="m-181.88 183.63c-3.7685 4.796-7.3966 8.4392-7.3375 10.759 0.0532 2.0908 2.018 4.9114 4.1096 4.9114h75.127c2.0915 0 3.7223-2.8874 3.7755-4.9782 0.059-2.3193-3.569-5.9625-7.3375-10.759z" fill-opacity=".036649" style="paint-order:fill markers stroke"/>
<path d="m-181.88 182.89c-3.7685 4.796-7.3966 8.4392-7.3375 10.759 0.0532 2.0908 2.018 4.9114 4.1096 4.9114h75.127c2.0915 0 3.7223-2.8874 3.7755-4.9782 0.059-2.3193-3.569-5.9625-7.3375-10.759z" fill-opacity=".04712" style="paint-order:fill markers stroke"/>
<path d="m-148.44 156.1-5.1e-4 0.0155-21.164 0.18139c-2.0914 0.0179-3.9529 1.6915-3.775 3.7755 0.98672 11.557-3.8178 15.38-8.1597 20.906-3.7685 4.796-7.3966 8.4392-7.3375 10.759 0.0532 2.0908 1.6839 3.7755 3.7755 3.7755h75.127c2.0915 0 3.7223-1.6846 3.7755-3.7755 0.059-2.3193-3.569-5.9625-7.3375-10.759-4.3419-5.5258-9.1464-9.3484-8.1597-20.906 0.17792-2.084-1.6835-3.7576-3.775-3.7755l-21.164-0.18139-5.1e-4 -0.0155-0.90227 8e-3z" fill="url(#linearGradient838)" style="paint-order:fill markers stroke"/>
</g>
<path d="m5.4246 270.2h23.26c2.143 0 3.0935 1.0303 3.3943 3.3943l1.7789 13.981c0.23736 1.8654-1.5139 3.3943-3.3943 3.3943h-26.842c-1.8805 0-3.6349-1.5293-3.3943-3.3943l1.8036-13.981c0.29832-2.3125 1.0262-3.3943 3.3943-3.3943z" fill="#8c7a93" style="paint-order:fill markers stroke"/>
<path d="m5.4246 270.2h23.26c2.143 0 3.091 1.0306 3.3943 3.3943l1.7259 13.45c0.21666 1.6885-1.1425 3.3943-3.3413 3.3943h-26.842c-2.7807 0-3.5196-2.4603-3.3943-3.3943l1.8036-13.45c0.30988-2.311 1.0262-3.3943 3.3943-3.3943z" fill="url(#linearGradient886)" style="paint-order:fill markers stroke"/>
<path d="m5.9808 270.84h22.093c2.3681 0 3.0228 0.45365 3.3943 3.3943l1.5383 12.175c0.30846 2.4413-0.955 3.3943-3.1537 3.3943h-25.675c-2.7807 0-3.3634-1.564-3.1318-3.3943l1.541-12.175c0.30491-2.409 0.68866-3.3943 3.3943-3.3943z" fill="url(#linearGradient4592)" style="paint-order:fill markers stroke"/>
</g>
</svg>
