<svg width="128" height="128" version="1.1" viewBox="0 0 128 128" xmlns="http://www.w3.org/2000/svg" xmlns:xlink="http://www.w3.org/1999/xlink">
<defs>
<linearGradient id="linearGradient1037">
<stop offset="0"/>
<stop stop-opacity="0" offset="1"/>
</linearGradient>
<linearGradient id="linearGradient847" x1="305.66" x2="497.8" y1="79.373" y2="79.373" gradientTransform="matrix(.54037 0 0 .65797 -152.49 -13.687)" gradientUnits="userSpaceOnUse">
<stop stop-color="#fff" stop-opacity="0" offset="0"/>
<stop stop-color="#fff" stop-opacity=".83529" offset=".28947"/>
<stop stop-color="#fff" offset=".5"/>
<stop stop-color="#fff" stop-opacity=".8342" offset=".75"/>
<stop stop-color="#fff" stop-opacity="0" offset="1"/>
</linearGradient>
<linearGradient id="linearGradient865" x1="407.92" x2="407.92" y1="220.23" y2="85.447" gradientTransform="matrix(.54037 0 0 .54037 -152.49 -4.4708)" gradientUnits="userSpaceOnUse">
<stop stop-color="#1d79ca" offset="0"/>
<stop stop-color="#2a8fde" offset=".1882"/>
<stop stop-color="#2d93e2" offset=".24479"/>
<stop stop-color="#329bea" offset=".35894"/>
<stop stop-color="#36a2f0" offset=".46989"/>
<stop stop-color="#39a6f4" offset=".51491"/>
<stop stop-color="#3ba9f7" offset=".56514"/>
<stop stop-color="#3ba9f7" stop-opacity=".96471" offset=".6087"/>
<stop stop-color="#3ba9f7" stop-opacity=".87059" offset=".66497"/>
<stop stop-color="#3ba9f7" stop-opacity=".4456" offset="1"/>
</linearGradient>
<linearGradient id="linearGradient960" x1="277.34" x2="277.34" y1="16.454" y2="86.485" gradientTransform="matrix(.54037 0 0 .54037 -83.447 -4.4708)" gradientUnits="userSpaceOnUse">
<stop stop-color="#595854" offset="0"/>
<stop stop-color="#4a4944" offset=".77409"/>
<stop stop-color="#3d3c38" offset=".90964"/>
<stop stop-color="#272725" offset="1"/>
</linearGradient>
<linearGradient id="linearGradient986" x1="394.31" x2="394.31" y1="92.667" y2="75.334" gradientTransform="matrix(.54037 0 0 .54037 -152.49 -4.4708)" gradientUnits="userSpaceOnUse">
<stop offset="0"/>
<stop stop-opacity="0" offset="1"/>
</linearGradient>
<linearGradient id="linearGradient1007" x1="417.15" x2="423.55" y1="62.873" y2="62.784" gradientUnits="userSpaceOnUse" xlink:href="#linearGradient1037"/>
<radialGradient id="radialGradient1015" cx="418.13" cy="45.528" r="5.8605" gradientTransform="matrix(.84532 -.016177 .016274 .85038 64.098 11.893)" gradientUnits="userSpaceOnUse" xlink:href="#linearGradient1037"/>
<linearGradient id="linearGradient1023" x1="-43.955" x2="-38.899" y1="376.13" y2="376.13" gradientUnits="userSpaceOnUse" xlink:href="#linearGradient1037"/>
<linearGradient id="linearGradient1031" x1="334.35" x2="327.4" y1="62.873" y2="62.873" gradientUnits="userSpaceOnUse" xlink:href="#linearGradient1037"/>
<radialGradient id="radialGradient1039" cx="334.61" cy="45.008" r="5.8149" gradientTransform="matrix(1.2391 2.9466e-8 -1.9498e-8 .81995 -80.017 6.7827)" gradientUnits="userSpaceOnUse" xlink:href="#linearGradient1037"/>
<linearGradient id="linearGradient1060" x1="334.35" x2="327.4" y1="62.873" y2="62.873" gradientTransform="translate(17.162 -25.743)" gradientUnits="userSpaceOnUse" xlink:href="#linearGradient1037"/>
<linearGradient id="linearGradient1062" x1="417.15" x2="423.55" y1="62.873" y2="62.784" gradientTransform="translate(58.119 -19.928)" gradientUnits="userSpaceOnUse" xlink:href="#linearGradient1037"/>
<linearGradient id="linearGradient1064" x1="-43.955" x2="-38.899" y1="376.13" y2="376.13" gradientTransform="translate(25.743 17.162)" gradientUnits="userSpaceOnUse" xlink:href="#linearGradient1037"/>
<radialGradient id="radialGradient1066" cx="334.61" cy="45.008" r="5.8149" gradientTransform="matrix(1.2391 2.9466e-8 -1.9498e-8 .81995 -62.855 -18.96)" gradientUnits="userSpaceOnUse" xlink:href="#linearGradient1037"/>
<radialGradient id="radialGradient1068" cx="411.28" cy="44.594" r="5.8605" gradientTransform="matrix(1.9562 2.4932e-6 -2.3624e-6 1.8535 -334.35 -58.898)" gradientUnits="userSpaceOnUse" xlink:href="#linearGradient1037"/>
<linearGradient id="linearGradient1090" x1="255.11" x2="273.34" y1="96" y2="96" gradientTransform="matrix(.54037 0 0 .54037 -24.763 -4.1292)" gradientUnits="userSpaceOnUse">
<stop stop-color="#9e0f00" offset="0"/>
<stop stop-color="#970e00" stop-opacity=".95294" offset=".2"/>
<stop stop-color="#cf1200" stop-opacity=".98039" offset=".5136"/>
<stop stop-color="#d81300" stop-opacity=".98824" offset=".648"/>
<stop stop-color="#dd1400" stop-opacity=".99216" offset=".84"/>
<stop stop-color="#e41500" offset="1"/>
</linearGradient>
</defs>
<rect x="113.09" y="37.893" width="9.8535" height="19.707" rx="1.0626" ry="1.0626" fill="url(#linearGradient1090)"/>
<path d="m18.274 12.007c-3.0999 0-5.5958 2.4948-5.5958 5.5948v83.15c0 0.81642 0.58367 1.3279 1.4367 1.7309l48.453 22.955c0.58725 0.28152 1.2031 0.42807 1.8132 0.45489 0.14459 6e-3 0.2892 7e-3 0.43272 0 0.61009-0.0268 1.2249-0.17337 1.8122-0.45489l48.443-22.919c0.88969-0.43963 1.4367-0.95108 1.4367-1.7675v-83.15c0-3.0999-2.4948-5.5948-5.5948-5.5948z" fill="#3796e0"/>
<g transform="matrix(.54037 0 0 .54037 -152.49 -4.4708)">
<rect x="343.05" y="17.944" width="8.7223" height="38.373" rx="0" ry="0" fill="url(#linearGradient1060)" opacity=".347"/>
<rect x="475.27" y="23.759" width="8.7223" height="54.462" rx="0" ry="0" fill="url(#linearGradient1062)" opacity=".347"/>
<rect transform="rotate(-90)" x="-18.212" y="350.79" width="8.7223" height="119.4" rx="0" ry="0" fill="url(#linearGradient1064)" opacity=".347"/>
<path d="m350.79 9.4899h-8.3711l0.63206 8.4541 7.7429 0.0027-0.0179-6.7116z" fill="url(#radialGradient1066)" opacity=".409"/>
<path d="m470.05 11.181 0.13241 12.578h13.809l0.75892-7.6407z" fill="url(#radialGradient1068)" opacity=".529"/>
</g>
<path d="m37.05 4.2153c-0.90823 0-1.6401 0.73083-1.6401 1.6391v34.837c0 0.90823 0.73189 1.6401 1.6401 1.6401h63.8c2.7247 0 4.9182-2.1935 4.9182-4.9182v-28.28c0-2.7247-2.1936-4.9182-4.9182-4.9182h-37.843z" fill="url(#linearGradient960)"/>
<path d="m88.478 4.2153v34.401c0 0.90823 0.73083 1.6401 1.6391 1.6401h2.4211c0.90823 0 1.6391-0.73189 1.6391-1.6401v-34.401z" fill="#302f2c"/>
<rect x="26.319" y="37.877" width="79.29" height="50.778" rx="0" ry="0" fill="#fff"/>
<g transform="matrix(.54037 0 0 .54037 -152.49 -4.4708)" opacity=".347">
<rect x="325.89" y="43.687" width="8.7223" height="38.373" rx="0" ry="0" fill="url(#linearGradient1031)" opacity="1"/>
<rect x="417.15" y="43.687" width="8.7223" height="38.373" rx="0" ry="0" fill="url(#linearGradient1007)" opacity="1"/>
<rect transform="rotate(-90)" x="-43.955" y="333.62" width="8.7223" height="85.018" rx="0" ry="0" fill="url(#linearGradient1023)" opacity="1"/>
<path d="m333.62 35.233h-8.3711l0.63206 8.4541 7.7429 0.0027-0.0179-6.7116z" fill="url(#radialGradient1039)"/>
<path d="m418.63 37.177 6e-3 6.51h7.2359l0.75892-7.6407z" fill="url(#radialGradient1015)"/>
</g>
<path d="m37.216 4.2153v38.116h0.81056v-38.116z" color="#000000" color-rendering="auto" dominant-baseline="auto" fill-opacity=".32124" image-rendering="auto" shape-rendering="auto" solid-color="#000000" style="font-feature-settings:normal;font-variant-alternates:normal;font-variant-caps:normal;font-variant-ligatures:normal;font-variant-numeric:normal;font-variant-position:normal;isolation:auto;mix-blend-mode:normal;shape-padding:0;text-decoration-color:#000000;text-decoration-line:none;text-decoration-style:solid;text-indent:0;text-orientation:mixed;text-transform:none;white-space:normal"/>
<rect x="26.319" y="17.845" width="48.688" height="70.81" rx="1.4737" ry="1.4737" fill="#fff"/>
<path d="m12.678 37.88v62.872c0 0.81642 0.58336 1.3279 1.4364 1.7309l48.453 22.955c0.58725 0.28152 1.2031 0.42806 1.8132 0.45489 0.14459 6e-3 0.2892 7e-3 0.43272 0 0.61009-0.0268 1.2249-0.17337 1.8121-0.45489l48.444-22.919c0.88969-0.43962 1.4364-0.95035 1.4364-1.7668v-62.872z" fill="#3ba9f7" fill-opacity=".83938"/>
<path d="m12.678 37.88v62.872c0 0.81642 0.58336 1.3279 1.4364 1.7309l48.453 22.955c0.58725 0.28152 1.2031 0.42806 1.8132 0.45489 0.14459 6e-3 0.2892 7e-3 0.43272 0 0.61009-0.0268 1.2249-0.17337 1.8121-0.45489l48.444-22.919c0.88969-0.43962 1.4364-0.95035 1.4364-1.7668v-62.872z" fill="url(#linearGradient865)"/>
<path d="m12.678 37.88v1.081h103.83v-1.081z" fill="url(#linearGradient847)" opacity=".423"/>
<g transform="matrix(.54037 0 0 .54037 -49.894 -4.2115)" fill="#14a95c">
<path d="m145.12 45.78v32.108h82.167v-32.108z" fill="#14a95c"/>
</g>
<path d="m12.678 23.254v14.626h103.83c7e-3 -5.1767-0.90035-8.4354 0-12.356v-2.2702z" fill="url(#linearGradient986)"/>
</svg>
