<svg width="128" height="128" version="1.1" viewBox="0 0 33.867 33.867" xmlns="http://www.w3.org/2000/svg" xmlns:xlink="http://www.w3.org/1999/xlink">
<defs>
<linearGradient id="linearGradient1632" x1="132.16" x2="132.21" y1="40.946" y2="70.68" gradientTransform="matrix(.97573 0 0 .97573 -111.77 -37.203)" gradientUnits="userSpaceOnUse">
<stop stop-color="#c18f90" offset="0"/>
<stop stop-color="#b18758" offset=".072561"/>
<stop stop-color="#966c41" offset="1"/>
</linearGradient>
<linearGradient id="linearGradient4296">
<stop offset="0"/>
<stop stop-opacity="0" offset="1"/>
</linearGradient>
<linearGradient id="linearGradient4302" x1="-149" x2="-146.6" y1="1486.1" y2="1487.6" gradientTransform="matrix(1.7065 .26809 -.26809 1.7065 820.52 -2408.9)" gradientUnits="userSpaceOnUse" xlink:href="#linearGradient4296"/>
<linearGradient id="linearGradient4302-0" x1="-149" x2="-146.6" y1="1486.1" y2="1487.6" gradientTransform="matrix(1.7065 .26809 -.26809 1.7065 820.06 -2372.1)" gradientUnits="userSpaceOnUse" xlink:href="#linearGradient4296"/>
<linearGradient id="linearGradient4302-0-0" x1="-149" x2="-146.6" y1="1486.1" y2="1487.6" gradientTransform="matrix(1.7065 .26809 -.26809 1.7065 819.52 -2335.5)" gradientUnits="userSpaceOnUse" xlink:href="#linearGradient4296"/>
<radialGradient id="radialGradient1401" cx="16.313" cy="3.5548" r="13.907" gradientTransform="matrix(5.3818 0 0 2.0531 -71.481 -4.362)" gradientUnits="userSpaceOnUse">
<stop stop-color="#007dd5" offset="0"/>
<stop stop-color="#005fc5" offset="1"/>
</radialGradient>
</defs>
<rect x="2.4065" y="2.5186" width="27.814" height="29.087" rx="6.4495" ry="6.4495" fill="url(#linearGradient1632)" stroke-linecap="round" stroke-linejoin="round" stroke-width="2.6877"/>
<g transform="matrix(.97573 0 0 .97573 -65.748 -37.203)" fill="none" opacity=".29677" stroke="#000" stroke-linecap="round" stroke-linejoin="round" stroke-opacity=".02">
<rect x="69.84" y="40.71" width="29.811" height="29.811" rx="6.6099" ry="6.6099" stroke-width=".1"/>
<rect x="69.84" y="40.71" width="29.811" height="29.811" rx="6.6099" ry="6.6099" stroke-width=".2"/>
<rect x="69.84" y="40.71" width="29.811" height="29.811" rx="6.6099" ry="6.6099" stroke-width=".3"/>
<rect x="69.84" y="40.71" width="29.811" height="29.811" rx="6.6099" ry="6.6099" stroke-width=".4"/>
<rect x="69.84" y="40.71" width="29.811" height="29.811" rx="6.6099" ry="6.6099" stroke-width=".5"/>
<rect x="69.84" y="40.71" width="29.811" height="29.811" rx="6.6099" ry="6.6099" stroke-width=".6"/>
<rect x="69.84" y="40.71" width="29.811" height="29.811" rx="6.6099" ry="6.6099" stroke-width=".7"/>
<rect x="69.84" y="40.71" width="29.811" height="29.811" rx="6.6099" ry="6.6099" stroke-width=".8"/>
<rect x="69.84" y="40.71" width="29.811" height="29.811" rx="6.6099" ry="6.6099"/>
<rect x="69.84" y="40.71" width="29.811" height="29.811" rx="6.6099" ry="6.6099" stroke-width="1.2"/>
<rect x="69.84" y="40.71" width="29.811" height="29.811" rx="6.6099" ry="6.6099" stroke-width="1.4"/>
<rect x="69.84" y="40.71" width="29.811" height="29.811" rx="6.6099" ry="6.6099" stroke-width="1.6"/>
<rect x="69.84" y="40.71" width="29.811" height="29.811" rx="6.6099" ry="6.6099" stroke-width="1.8"/>
<rect x="69.84" y="40.71" width="29.811" height="29.811" rx="6.6099" ry="6.6099" stroke-width="2"/>
<rect x="69.84" y="40.71" width="29.811" height="29.811" rx="6.6099" ry="6.6099" stroke-width="2.2"/>
<rect x="69.84" y="40.71" width="29.811" height="29.811" rx="6.6099" ry="6.6099" stroke-width="2.6"/>
<rect x="69.84" y="40.71" width="29.811" height="29.811" rx="6.6099" ry="6.6099" stroke-width="3"/>
<rect x="69.84" y="40.71" width="29.811" height="29.811" rx="6.6099" ry="6.6099" stroke-width="3.4"/>
<rect x="69.84" y="40.71" width="29.811" height="29.811" rx="6.6099" ry="6.6099" stroke-width="3.8"/>
<rect x="69.84" y="40.71" width="29.811" height="29.811" rx="6.6099" ry="6.6099" stroke-width="4.2"/>
<rect x="69.84" y="40.71" width="29.811" height="29.811" rx="6.6099" ry="6.6099" stroke-width="4.6"/>
<rect x="69.84" y="40.71" width="29.811" height="29.811" rx="6.6099" ry="6.6099" stroke-width="5"/>
</g>
<rect x="2.4065" y="2.5186" width="29.087" height="29.087" rx="6.4495" ry="6.4495" fill="#5485ff" stroke-linecap="round" stroke-linejoin="round" stroke-width="2.6877"/>
<path transform="scale(.26458)" d="m107.9 84.578c-1.7244-0.014403-3.1223 1.3616-3.1367 3.0859l-0.1582 18.82c-0.0144 1.7243 1.3616 3.1243 3.0859 3.1387l6.5098 0.05468c2.7856-3.7308 4.5244-8.2919 4.791-13.258l0.03906-4.6875v-4.3047c-0.16444-1.555-1.4522-2.7698-3.0547-2.7832l-8.0762-0.066406z" color="#000000" fill="#dd9201"/>
<path transform="scale(.26458)" d="m103.02 107.16c0.19015 1.4088 1.4065 2.5002 2.9141 2.5117l8.2656 0.02148c0.08849-0.11836 0.17145-0.2413 0.25781-0.36133l-8.5469-0.02539c-1.393-0.01247-2.5427-0.92373-2.8906-2.1465z" color="#000000" opacity=".556"/>
<path d="m31.308 22.97-1.5356 1.8466 0.03951-1.7401z" fill="url(#linearGradient4302-0-0)" fill-rule="evenodd" opacity=".35"/>
<rect transform="rotate(.47855)" x="29.306" y="16.335" width="2.39" height="6.6269" rx=".78993" ry=".78993" color="#000000" fill="#05d562"/>
<path d="m31.395 17.153-1.5356 1.8473 0.03944-1.7401z" fill="url(#linearGradient4302-0)" fill-rule="evenodd" opacity=".35"/>
<rect transform="rotate(.47855)" x="29.306" y="10.498" width="2.39" height="6.6269" rx="1.195" ry="1.195" color="#000000" fill="#15bfe3"/>
<path d="m31.468 11.304-1.5357 1.8474 0.03947-1.7396z" fill="url(#linearGradient4302)" fill-rule="evenodd" opacity=".35"/>
<path transform="scale(.26458)" d="m103.11 19c-2.5021-0.020899-4.5338 1.9764-4.5547 4.4785l-0.13281 16.014c-0.020899 2.5021 1.9764 4.5318 4.4785 4.5527l12.014 0.10156c1.8271 0.015261 3.3936-1.0518 4.1191-2.5996v-7.6523c0-5.5791-1.86-10.705-4.9902-14.805l-10.934-0.089844z" color="#000000" fill="#dddedd"/>
<path d="m31.595 11.023c-0.0909 0.32898-0.40189 0.56913-0.77571 0.56492l-0.82846-0.0084c-0.36911-2e-5 -0.6726-0.24398-0.76465-0.56803 0.05033 0.37276 0.37229 0.66212 0.77116 0.66523l0.8147 0.0069c0.40189 0.0027 0.7301-0.28475 0.78297-0.66062z" color="#000000" opacity=".556"/>
<path d="m31.551 16.722c-0.09087 0.32925-0.40185 0.56924-0.77567 0.5647l-0.8284-0.0084c-0.36916-2.7e-5 -0.67278-0.24325-0.76472-0.56771 0.05025 0.37317 0.37222 0.66237 0.77111 0.66532l0.81468 7e-3c0.40215 1e-3 0.73006-0.28449 0.78299-0.66088z" color="#000000" opacity=".556"/>
<path d="m31.503 22.56c-0.09091 0.32848-0.40191 0.56923-0.7758 0.5655l-0.82832-0.0092c-0.36911-2e-5 -0.67261-0.24392-0.76468-0.56787 0.05039 0.37277 0.37243 0.66112 0.77125 0.66498l0.81476 0.0061c0.4015 0.0051 0.72988-0.28347 0.78279-0.65956z" color="#000000" opacity=".556"/>
<rect x="2.4065" y="2.5186" width="27.814" height="29.087" rx="6.4495" ry="6.4495" fill="url(#radialGradient1401)" stroke-linecap="round" stroke-linejoin="round" stroke-width="2.6877"/>
<path transform="scale(.26458)" d="m27.359 10.285c-10.527 2.6989-18.264 12.217-18.264 23.609v61.186c0 12.244 8.937 22.322 20.67 24.098-6.4279-4.9452-10.561-12.713-10.561-21.486v-68.006c0-7.6226 3.1208-14.487 8.1543-19.4z" fill="#0050a5" stroke-linecap="round" stroke-linejoin="round" stroke-width="10.158"/>
<path d="m17.038 6.6436c-5.7987-0.048337-10.556 4.58-10.604 10.33-0.048042 5.7506 4.6307 10.458 10.429 10.507 5.7988 0.04779 10.555-4.5804 10.603-10.331 0.04808-5.7506-4.6299-10.458-10.429-10.507zm-9e-3 1.0582c5.233 0.043166 9.4238 4.2664 9.3807 9.439-0.01853 2.2114-0.8093 4.2339-2.1154 5.8245-0.10007-0.07889-3.0448-2.2156-5.1604-2.233 0 0-0.67862-0.7874-0.43831-2.2209 0 0 0.82116-0.7105 1.0643-2.5019 0 0 0.27089-1.1068 0.04347-1.2238 0 0 0.01873-0.40573 0.15593-1.1392 0.1364-0.73178 0.22244-3.1938-3.1344-3.2219-3.3569-0.02796-3.3121 2.4345-3.1879 3.1696 0.12432 0.73502 0.13754 1.1415 0.13754 1.1415-0.2293 0.11287 0.02223 1.224 0.02223 1.224 0.21335 1.7948 1.0224 2.5193 1.0224 2.5193 0.21644 1.4359-0.47471 2.2142-0.47471 2.2142-1.8999-0.01658-4.3809 1.5893-4.9642 1.9833-1.201-1.5843-1.9058-3.5579-1.888-5.6929 0.043166-5.1734 4.3041-9.326 9.537-9.2817z" color="#000000" color-rendering="auto" fill="#fffffe" image-rendering="auto" opacity=".326" shape-rendering="auto" solid-color="#000000" style="isolation:auto;mix-blend-mode:normal;text-decoration-color:#000000;text-decoration-line:none;text-decoration-style:solid;text-indent:0;text-transform:none;white-space:normal"/>
</svg>
