<svg width="128" height="128" version="1.1" viewBox="0 0 33.867 33.867" xmlns="http://www.w3.org/2000/svg" xmlns:xlink="http://www.w3.org/1999/xlink">
<defs>
<linearGradient id="linearGradient1632" x1="132.21" x2="132.21" y1="42.152" y2="70.68" gradientTransform="matrix(.97573 0 0 .97573 -111.77 -37.183)" gradientUnits="userSpaceOnUse">
<stop stop-color="#fafafc" offset="0"/>
<stop stop-color="#e2e6ea" offset="1"/>
</linearGradient>
</defs>
<g transform="matrix(.97573 0 0 .97573 -65.737 -37.183)" fill="none" opacity=".295" stroke="#000" stroke-linecap="round" stroke-linejoin="round" stroke-opacity=".02">
<rect x="69.84" y="40.71" width="29.811" height="29.811" rx="6.6099" ry="6.6099" stroke-width=".1"/>
<rect x="69.84" y="40.71" width="29.811" height="29.811" rx="6.6099" ry="6.6099" stroke-width=".2"/>
<rect x="69.84" y="40.71" width="29.811" height="29.811" rx="6.6099" ry="6.6099" stroke-width=".3"/>
<rect x="69.84" y="40.71" width="29.811" height="29.811" rx="6.6099" ry="6.6099" stroke-width=".4"/>
<rect x="69.84" y="40.71" width="29.811" height="29.811" rx="6.6099" ry="6.6099" stroke-width=".5"/>
<rect x="69.84" y="40.71" width="29.811" height="29.811" rx="6.6099" ry="6.6099" stroke-width=".6"/>
<rect x="69.84" y="40.71" width="29.811" height="29.811" rx="6.6099" ry="6.6099" stroke-width=".7"/>
<rect x="69.84" y="40.71" width="29.811" height="29.811" rx="6.6099" ry="6.6099" stroke-width=".8"/>
<rect x="69.84" y="40.71" width="29.811" height="29.811" rx="6.6099" ry="6.6099"/>
<rect x="69.84" y="40.71" width="29.811" height="29.811" rx="6.6099" ry="6.6099" stroke-width="1.2"/>
<rect x="69.84" y="40.71" width="29.811" height="29.811" rx="6.6099" ry="6.6099" stroke-width="1.4"/>
<rect x="69.84" y="40.71" width="29.811" height="29.811" rx="6.6099" ry="6.6099" stroke-width="1.6"/>
<rect x="69.84" y="40.71" width="29.811" height="29.811" rx="6.6099" ry="6.6099" stroke-width="1.8"/>
<rect x="69.84" y="40.71" width="29.811" height="29.811" rx="6.6099" ry="6.6099" stroke-width="2"/>
<rect x="69.84" y="40.71" width="29.811" height="29.811" rx="6.6099" ry="6.6099" stroke-width="2.2"/>
<rect x="69.84" y="40.71" width="29.811" height="29.811" rx="6.6099" ry="6.6099" stroke-width="2.6"/>
<rect x="69.84" y="40.71" width="29.811" height="29.811" rx="6.6099" ry="6.6099" stroke-width="3"/>
<rect x="69.84" y="40.71" width="29.811" height="29.811" rx="6.6099" ry="6.6099" stroke-width="3.4"/>
<rect x="69.84" y="40.71" width="29.811" height="29.811" rx="6.6099" ry="6.6099" stroke-width="3.8"/>
<rect x="69.84" y="40.71" width="29.811" height="29.811" rx="6.6099" ry="6.6099" stroke-width="4.2"/>
<rect x="69.84" y="40.71" width="29.811" height="29.811" rx="6.6099" ry="6.6099" stroke-width="4.6"/>
<rect x="69.84" y="40.71" width="29.811" height="29.811" rx="6.6099" ry="6.6099" stroke-width="5"/>
</g>
<rect x="2.4074" y="2.5392" width="29.087" height="29.087" rx="6.4495" ry="6.4495" fill="url(#linearGradient1632)" stroke-linecap="round" stroke-linejoin="round" stroke-width="2.6877"/>
<path d="m22.878 7.2061c-0.0878-7.343e-4 -0.17509 0.013465-0.25809 0.042185l-8.7481 2.0025c-0.22459 0.047473-0.41638 0.1925-0.52322 0.39568l-4.9259 6.859c-0.12946 0.12973-0.2085 0.30134-0.22294 0.48405-7.8e-6 0.0019-7.8e-6 4e-3 0 6e-3 -0.00185 0.02071-0.00285 0.04148-0.00301 0.06227 3.275e-4 0.02282 0.00167 0.0456 0.00401 0.06829 0.00242 0.02561 0.00609 0.05108 0.011049 0.07632 0.00509 0.0254 0.011466 0.05054 0.019081 0.07532 0.023063 0.07914 0.058664 0.15407 0.10545 0.22194 3.401e-4 6.97e-4 6.832e-4 0.0014 0.00102 0.0021l4.5503 9.7071 1e-3 0.0031c0.0013 0.0047 0.0026 0.0094 0.0042 0.01406 6.98e-4 0.0019 0.0014 4e-3 0.0021 6e-3 0.0075 0.02385 0.01627 0.04731 0.0261 0.07029 0.0071 0.01632 0.01484 0.03241 0.02311 0.04819 0.0057 0.01152 0.0118 0.02292 0.01807 0.03413 0.0065 0.01055 0.01319 0.02092 0.02009 0.03114 0.0056 0.0089 0.01124 0.01752 0.01709 0.0261 0.01208 0.01725 0.02475 0.03401 0.03815 0.05022 0.0022 0.0031 0.0047 6e-3 0.0071 9e-3 0.01194 0.01346 0.02432 0.02654 0.03716 0.03917 0.0069 0.0072 0.01392 0.0142 0.0211 0.0211 0.0072 0.0068 0.01459 0.01347 0.02209 0.02007 0.01524 0.01305 0.031 0.02539 0.0472 0.03716 6.99e-4 3.33e-4 0.0014 6.98e-4 0.0021 1e-3l0.0021 0.0021c0.01946 0.01399 0.03957 0.02705 0.06026 0.03917 6.98e-4 6.97e-4 0.0014 0.0014 0.0021 0.0021 0.0019 1e-3 4e-3 0.0021 6e-3 0.0031 0.01866 0.01083 0.03774 0.02088 0.05724 0.03012 0.0024 0.0014 0.0047 0.0028 0.0071 0.0042 0.0076 0.0032 0.01537 0.0061 0.02311 9e-3 0.01 0.0046 0.01999 0.0089 0.03012 0.01305 0.02143 0.0081 0.04322 0.01503 0.06528 0.0211 0.10937 0.03108 0.22425 0.0376 0.33642 0.01909l10.326 0.01111c0.57688 0.07009 1.0211-0.49874 0.81341-1.0415l-1.2243-4.897c-0.03549-0.51408-0.55541-0.84946-1.0384-0.66984-0.0024 6.98e-4 -0.0047 0.0014-0.0071 0.0021l-5.1937 1.439-2.0788-3.7226 1.4883-4.6482 6.8194-0.54832 0.69996-0.87671-0.73009-4.8309c1e-3 -0.42267-0.33794-0.76745-0.76038-0.77353z" fill="#007c7d" fill-rule="evenodd" stroke-width=".36727"/>
<path d="m8.7686 17.414 7.8281-3.2957 6.497-5.9577m1.3945 19.405-7.0675-3.9406m-3.8982 3.9295 9.6663-5.5774m-9.6663 5.5774 3.8982-3.9295m-3.8982 3.9295 1.2677-8.176m-6.0216-1.9648 6.0216 1.9648m1.8065-5.2605-1.8065 5.2605 2.6305 4.2464 5.7681-1.6479 1.2994 5.5885-10.966-0.01111-4.7539-10.141 5.1659-7.1936zm-2.6622-3.8979 9.1592-2.0598 0.76062 5.3556-7.2576 0.60211" fill="none" opacity=".2" stroke="#000" stroke-linecap="round" stroke-linejoin="bevel" stroke-width="1.4691"/>
<path d="m8.7686 17.047 7.8281-3.2957 6.497-5.9577m1.3945 19.405-7.0675-3.9406m-3.8982 3.9295 9.6663-5.5774m-9.6663 5.5774 3.8982-3.9295m-3.8982 3.9295 1.2677-8.176m-6.0216-1.9648 6.0216 1.9648m1.8065-5.2605-1.8065 5.2605 2.6305 4.2464 5.7681-1.6479 1.2994 5.5885-10.966-0.01111-4.7539-10.141 5.1659-7.1936zm-2.6622-3.8979 9.1592-2.0598 0.76062 5.3556-7.2576 0.60211" fill="none" stroke="#00feff" stroke-linecap="round" stroke-linejoin="bevel" stroke-width="1.4691"/>
<path d="m23.111 7.0523a0.73461 0.73461 0 0 0-0.2525 0.041602l-9.0856 2.0429a0.73461 0.73461 0 0 0-0.49567 0.37229l-5.0371 7.0147a0.73461 0.73461 0 0 0-0.21305 0.46411 0.73461 0.73461 0 0 0-0.00215 0.06384 0.73461 0.73461 0 0 0 0.00215 0.05236 0.73461 0.73461 0 0 0 0.00143 0.01578 0.73461 0.73461 0 0 0 0.020084 0.1119 0.73461 0.73461 0 0 1 0.19153-0.34073l5.0371-7.0147a0.73461 0.73461 0 0 1 0.49567-0.37229l9.0856-2.0429a0.73461 0.73461 0 0 1 0.2525-0.041602 0.73461 0.73461 0 0 1 0.72378 0.73956l0.70226 4.9424 0.04447-0.05523-0.74674-5.2544a0.73461 0.73461 0 0 0-0.72377-0.73955zm-2.5458 2.4303-0.53082 0.11907-3.3097 3.035-1.3565-1.9856-0.21735 0.04878 1.5738 2.304zm2.4002 3.0034-3.8499 0.31921-0.44044 0.40385 4.342-0.3601zm-7.6775 1.0186-4.0242 1.695-0.37803 0.52652 4.5973-1.9361zm0.08034 1.9282-0.14705 0.06241-0.89092 2.5938-2.9697-0.96839-0.49137 0.20659 3.4611 1.1291zm-5.2142 3.2064 3.0113 6.4244 0.8034-5.1798-0.05451-0.01793-0.74889 4.8305-2.8083-5.9911zm5.5248 0.41318-0.08106 0.236 2.1548 3.4783 5.1805-1.4798h7.34e-4a0.73461 0.73461 0 0 1 0.99565 0.63196l1.2524 5.3893a0.73461 0.73461 0 0 1 0.02438 0.07962 0.73461 0.73461 0 0 0-0.02439-0.44689l-1.2524-5.3893a0.73461 0.73461 0 0 0-0.99565-0.63196h-7.34e-4l-5.1805 1.4798zm0.67213 4.2415-1.6886 1.7015-0.06743 0.43542 1.8959-1.911zm4.3628 0.95978-0.32351 0.1865 3.0063 1.6764-0.09828-0.42179zm-3.8183 2.2029-0.63555 0.36655 5.3972 0.0057-0.65994-0.36799z" fill="#fff" fill-rule="evenodd" opacity=".2" stroke-width=".36727"/>
<path d="m22.872 7.0042a1.4691 1.4691 0 0 0-1.4691 1.4691 1.4691 1.4691 0 0 0 1.4691 1.4691 1.4691 1.4691 0 0 0 1.4691-1.4691 1.4691 1.4691 0 0 0-1.4691-1.4691zm-8.8145 1.4691a1.4691 1.4691 0 0 0-1.4691 1.4691 1.4691 1.4691 0 0 0 1.4691 1.4691 1.4691 1.4691 0 0 0 1.4691-1.4691 1.4691 1.4691 0 0 0-1.4691-1.4691zm9.549 3.6727a1.4691 1.4691 0 0 0-1.4691 1.4691 1.4691 1.4691 0 0 0 1.4691 1.4691 1.4691 1.4691 0 0 0 1.4691-1.4691 1.4691 1.4691 0 0 0-1.4691-1.4691zm-6.6109 0.73454a1.4691 1.4691 0 0 0-1.4691 1.4691 1.4691 1.4691 0 0 0 1.4691 1.4691 1.4691 1.4691 0 0 0 1.4691-1.4691 1.4691 1.4691 0 0 0-1.4691-1.4691zm-8.08 2.9382a1.4691 1.4691 0 0 0-1.4691 1.4691 1.4691 1.4691 0 0 0 1.4691 1.4691 1.4691 1.4691 0 0 0 1.4691-1.4691 1.4691 1.4691 0 0 0-1.4691-1.4691zm5.8763 2.2036a1.4691 1.4691 0 0 0-1.4691 1.4691 1.4691 1.4691 0 0 0 1.4691 1.4691 1.4691 1.4691 0 0 0 1.4691-1.4691 1.4691 1.4691 0 0 0-1.4691-1.4691zm8.08 2.9382a1.4691 1.4691 0 0 0-1.4691 1.4691 1.4691 1.4691 0 0 0 1.4691 1.4691 1.4691 1.4691 0 0 0 1.4691-1.4691 1.4691 1.4691 0 0 0-1.4691-1.4691zm-4.4072 1.4691a1.4691 1.4691 0 0 0-1.4691 1.4691 1.4691 1.4691 0 0 0 1.4691 1.4691 1.4691 1.4691 0 0 0 1.4691-1.4691 1.4691 1.4691 0 0 0-1.4691-1.4691zm-5.1418 3.6727a1.4691 1.4691 0 0 0-1.4691 1.4691 1.4691 1.4691 0 0 0 1.4691 1.4691 1.4691 1.4691 0 0 0 1.4691-1.4691 1.4691 1.4691 0 0 0-1.4691-1.4691zm11.018 0a1.4691 1.4691 0 0 0-1.4691 1.4691 1.4691 1.4691 0 0 0 1.4691 1.4691 1.4691 1.4691 0 0 0 1.4691-1.4691 1.4691 1.4691 0 0 0-1.4691-1.4691z" opacity=".1" stroke-width=".36727"/>
<path d="m22.872 6.637a1.4691 1.4691 0 0 0-1.4691 1.4691 1.4691 1.4691 0 0 0 1.4691 1.4691 1.4691 1.4691 0 0 0 1.4691-1.4691 1.4691 1.4691 0 0 0-1.4691-1.4691zm-8.8145 1.4691a1.4691 1.4691 0 0 0-1.4691 1.4691 1.4691 1.4691 0 0 0 1.4691 1.4691 1.4691 1.4691 0 0 0 1.4691-1.4691 1.4691 1.4691 0 0 0-1.4691-1.4691zm9.549 3.6727a1.4691 1.4691 0 0 0-1.4691 1.4691 1.4691 1.4691 0 0 0 1.4691 1.4691 1.4691 1.4691 0 0 0 1.4691-1.4691 1.4691 1.4691 0 0 0-1.4691-1.4691zm-6.6109 0.73454a1.4691 1.4691 0 0 0-1.4691 1.4691 1.4691 1.4691 0 0 0 1.4691 1.4691 1.4691 1.4691 0 0 0 1.4691-1.4691 1.4691 1.4691 0 0 0-1.4691-1.4691zm-8.08 2.9382a1.4691 1.4691 0 0 0-1.4691 1.4691 1.4691 1.4691 0 0 0 1.4691 1.4691 1.4691 1.4691 0 0 0 1.4691-1.4691 1.4691 1.4691 0 0 0-1.4691-1.4691zm5.8763 2.2036a1.4691 1.4691 0 0 0-1.4691 1.4691 1.4691 1.4691 0 0 0 1.4691 1.4691 1.4691 1.4691 0 0 0 1.4691-1.4691 1.4691 1.4691 0 0 0-1.4691-1.4691zm8.08 2.9382a1.4691 1.4691 0 0 0-1.4691 1.4691 1.4691 1.4691 0 0 0 1.4691 1.4691 1.4691 1.4691 0 0 0 1.4691-1.4691 1.4691 1.4691 0 0 0-1.4691-1.4691zm-4.4072 1.4691a1.4691 1.4691 0 0 0-1.4691 1.4691 1.4691 1.4691 0 0 0 1.4691 1.4691 1.4691 1.4691 0 0 0 1.4691-1.4691 1.4691 1.4691 0 0 0-1.4691-1.4691zm-5.1418 3.6727a1.4691 1.4691 0 0 0-1.4691 1.4691 1.4691 1.4691 0 0 0 1.4691 1.4691 1.4691 1.4691 0 0 0 1.4691-1.4691 1.4691 1.4691 0 0 0-1.4691-1.4691zm11.018 0a1.4691 1.4691 0 0 0-1.4691 1.4691 1.4691 1.4691 0 0 0 1.4691 1.4691 1.4691 1.4691 0 0 0 1.4691-1.4691 1.4691 1.4691 0 0 0-1.4691-1.4691z" fill="#ff6060" stroke-width=".36727"/>
</svg>
