<svg width="128" height="128" version="1.1" viewBox="0 0 128 128" xml:space="preserve" xmlns="http://www.w3.org/2000/svg">
<style type="text/css">
	.st0{fill:#007D5A;}
	.st1{fill:#073C34;}
	.st2{fill:url(#SVGID_1_);}
	.st3{fill:url(#SVGID_2_);}
	.st4{fill:#FFF293;}
	.st5{fill:url(#SVGID_3_);}
</style>
<g transform="matrix(.14584 0 0 .14584 -10.902 124.28)"><g transform="translate(0,-896)">
	
		<path class="st0" d="m871.7 314.7c0-8.9 6.1-16.3 14.3-18.5v-189.2h-747.9v189.2c8.2 2.1 14.3 9.6 14.3 18.5s-6.1 16.3-14.3 18.5v571.8h747.9v-571.8c-8.3-2.2-14.3-9.6-14.3-18.5z" fill="#007d5a"/>
	
	
		<path class="st1" d="m863.4 314.7c0-10.3 5.7-19.3 14.1-24v-174.7h-731v174.7c8.4 4.7 14.1 13.6 14.1 24 0 10.3-5.7 19.3-14.1 24v557.3h731v-557.3c-8.4-4.7-14.1-13.7-14.1-24z" fill="#073c34"/>
	
	
		<linearGradient id="SVGID_1_" x1="193.94" x2="826.77" y1="836.45" y2="168.12" gradientUnits="userSpaceOnUse">
			<stop stop-color="#8B8B8B" offset="0"/>
			<stop stop-color="#ACADAD" offset=".05"/>
			<stop stop-color="#C2C4C3" offset=".95"/>
			<stop stop-color="#B9BAB9" offset=".9632"/>
			<stop stop-color="#9FA09F" offset=".9855"/>
			<stop stop-color="#8B8B8B" offset="1"/>
		</linearGradient>
		<path class="st2" d="m751.7 154.3h-479.4c-46.9 0-85 38.1-85 85v522.4c0 46.9 38.1 85 85 85h479.3c46.9 0 85-38.1 85-85v-522.4c0.1-46.9-38-85-84.9-85z" fill="url(#SVGID_1_)"/>
	
	
		<linearGradient id="SVGID_2_" x1="217" x2="808" y1="173.1" y2="829.1" gradientUnits="userSpaceOnUse">
			<stop stop-color="#E0E1E0" offset="0"/>
			<stop stop-color="#ACADAD" stop-opacity="0" offset=".05"/>
			<stop stop-color="#C2C4C3" stop-opacity="0" offset=".9444"/>
			<stop stop-color="#E0E1E0" offset="1"/>
		</linearGradient>
		<path class="st3" d="m751.7 154.3h-479.4c-46.9 0-85 38.1-85 85v522.4c0 46.9 38.1 85 85 85h479.3c46.9 0 85-38.1 85-85v-522.4c0.1-46.9-38-85-84.9-85z" fill="url(#SVGID_2_)"/>
	
	
		<circle class="st4" cx="213.2" cy="130" r="6" fill="#fff293"/>
	
	
		<circle class="st4" cx="167.2" cy="139" r="10.3" fill="#fff293"/>
	
	
		<circle class="st4" cx="220.9" cy="118.6" r="6" fill="#fff293"/>
	
	
		<circle class="st4" cx="227.3" cy="130" r="6" fill="#fff293"/>
	
	
		<circle class="st4" cx="235.1" cy="118.6" r="6" fill="#fff293"/>
	
	
		<circle class="st4" cx="491.8" cy="130" r="6" fill="#fff293"/>
	
	
		<circle class="st4" cx="499.5" cy="118.6" r="6" fill="#fff293"/>
	
	
		<circle class="st4" cx="505.9" cy="130" r="6" fill="#fff293"/>
	
	
		<circle class="st4" cx="513.6" cy="118.6" r="6" fill="#fff293"/>
	
	
		<circle class="st4" cx="592.8" cy="130" r="6" fill="#fff293"/>
	
	
		<circle class="st4" cx="600.5" cy="118.6" r="6" fill="#fff293"/>
	
	
		<circle class="st4" cx="606.9" cy="130" r="6" fill="#fff293"/>
	
	
		<circle class="st4" cx="614.6" cy="118.6" r="6" fill="#fff293"/>
	
	
		<circle class="st4" cx="676.1" cy="130" r="6" fill="#fff293"/>
	
	
		<circle class="st4" cx="683.8" cy="118.6" r="6" fill="#fff293"/>
	
	
		<circle class="st4" cx="690.2" cy="130" r="6" fill="#fff293"/>
	
	
		<circle class="st4" cx="698" cy="118.6" r="6" fill="#fff293"/>
	
	
		<circle class="st4" cx="743.5" cy="130" r="6" fill="#fff293"/>
	
	
		<circle class="st4" cx="751.1" cy="118.6" r="6" fill="#fff293"/>
	
	
		<circle class="st4" cx="757.5" cy="130" r="6" fill="#fff293"/>
	
	
		<circle class="st4" cx="765.3" cy="118.6" r="6" fill="#fff293"/>
	
	
		<circle class="st4" cx="808.4" cy="130" r="6" fill="#fff293"/>
	
	
		<circle class="st4" cx="816.1" cy="118.6" r="6" fill="#fff293"/>
	
	
		<circle class="st4" cx="822.5" cy="130" r="6" fill="#fff293"/>
	
	
		<circle class="st4" cx="830.3" cy="118.6" r="6" fill="#fff293"/>
	
	
		<circle class="st4" cx="866.1" cy="190.1" r="6" fill="#fff293"/>
	
	
		<circle class="st4" cx="877.5" cy="182.9" r="6" fill="#fff293"/>
	
	
		<circle class="st4" cx="866.1" cy="203.3" r="6" fill="#fff293"/>
	
	
		<circle class="st4" cx="877.5" cy="197" r="6" fill="#fff293"/>
	
	
		<circle class="st4" cx="866.1" cy="176" r="6" fill="#fff293"/>
	
	
		<circle class="st4" cx="877.5" cy="169.7" r="6" fill="#fff293"/>
	
	
		<circle class="st4" cx="873.5" cy="120.3" r="6" fill="#fff293"/>
	
	
		<circle class="st4" cx="402.8" cy="882.4" r="5.5" fill="#fff293"/>
	
	
		<circle class="st4" cx="408.3" cy="893.2" r="5.5" fill="#fff293"/>
	
	
		<circle class="st4" cx="421.9" cy="893.2" r="5.5" fill="#fff293"/>
	
	
		<circle class="st4" cx="435.3" cy="893.2" r="5.5" fill="#fff293"/>
	
	
		<circle class="st4" cx="448.6" cy="893.2" r="5.5" fill="#fff293"/>
	
	
		<circle class="st4" cx="462.2" cy="893.2" r="5.5" fill="#fff293"/>
	
	
		<circle class="st4" cx="475.3" cy="893.2" r="5.5" fill="#fff293"/>
	
	
		<circle class="st4" cx="488.5" cy="893.2" r="5.5" fill="#fff293"/>
	
	
		<circle class="st4" cx="501.6" cy="893.2" r="5.5" fill="#fff293"/>
	
	
		<circle class="st4" cx="514.7" cy="893.2" r="5.5" fill="#fff293"/>
	
	
		<circle class="st4" cx="527.9" cy="893.2" r="5.5" fill="#fff293"/>
	
	
		<circle class="st4" cx="541.2" cy="893.2" r="5.5" fill="#fff293"/>
	
	
		<circle class="st4" cx="554.4" cy="893.2" r="5.5" fill="#fff293"/>
	
	
		<circle class="st4" cx="567.5" cy="893.2" r="5.5" fill="#fff293"/>
	
	
		<circle class="st4" cx="580.9" cy="893.2" r="5.5" fill="#fff293"/>
	
	
		<circle class="st4" cx="594.3" cy="893.2" r="5.5" fill="#fff293"/>
	
	
		<circle class="st4" cx="607.5" cy="893.2" r="5.5" fill="#fff293"/>
	
	
		<circle class="st4" cx="621.2" cy="893.2" r="5.5" fill="#fff293"/>
	
	
		<circle class="st4" cx="634.4" cy="893.2" r="5.5" fill="#fff293"/>
	
	
		<circle class="st4" cx="647.3" cy="893.2" r="5.5" fill="#fff293"/>
	
	
		<circle class="st4" cx="660.9" cy="893.2" r="5.5" fill="#fff293"/>
	
	
		<circle class="st4" cx="674.3" cy="893.2" r="5.5" fill="#fff293"/>
	
	
		<circle class="st4" cx="686.8" cy="893.2" r="5.5" fill="#fff293"/>
	
	
		<circle class="st4" cx="701" cy="893.2" r="5.5" fill="#fff293"/>
	
	
		<circle class="st4" cx="713.7" cy="893.2" r="5.5" fill="#fff293"/>
	
	
		<circle class="st4" cx="726.8" cy="893.2" r="5.5" fill="#fff293"/>
	
	
		<circle class="st4" cx="740.7" cy="893.2" r="5.5" fill="#fff293"/>
	
	
		<circle class="st4" cx="753.6" cy="893.2" r="5.5" fill="#fff293"/>
	
	
		<circle class="st4" cx="766.7" cy="893.2" r="5.5" fill="#fff293"/>
	
	
		<circle class="st4" cx="780.6" cy="893.2" r="5.5" fill="#fff293"/>
	
	
		<circle class="st4" cx="793.5" cy="893.2" r="5.5" fill="#fff293"/>
	
	
		<circle class="st4" cx="806.3" cy="893.2" r="5.5" fill="#fff293"/>
	
	
		<circle class="st4" cx="820.3" cy="893.2" r="5.5" fill="#fff293"/>
	
	
		<circle class="st4" cx="833.3" cy="893.2" r="5.5" fill="#fff293"/>
	
	
		<circle class="st4" cx="415.5" cy="882.4" r="5.5" fill="#fff293"/>
	
	
		<circle class="st4" cx="428.7" cy="882.4" r="5.5" fill="#fff293"/>
	
	
		<circle class="st4" cx="197.1" cy="882.4" r="5.5" fill="#fff293"/>
	
	
		<circle class="st4" cx="202.6" cy="893.2" r="5.5" fill="#fff293"/>
	
	
		<circle class="st4" cx="216.2" cy="893.2" r="5.5" fill="#fff293"/>
	
	
		<circle class="st4" cx="229.6" cy="893.2" r="5.5" fill="#fff293"/>
	
	
		<circle class="st4" cx="209.9" cy="882.4" r="5.5" fill="#fff293"/>
	
	
		<circle class="st4" cx="223" cy="882.4" r="5.5" fill="#fff293"/>
	
	
		<circle class="st4" cx="148.6" cy="811.6" r="5.5" fill="#fff293"/>
	
	
		<circle class="st4" cx="159.5" cy="817.1" r="5.5" fill="#fff293"/>
	
	
		<circle class="st4" cx="159.5" cy="830.7" r="5.5" fill="#fff293"/>
	
	
		<circle class="st4" cx="159.5" cy="844.1" r="5.5" fill="#fff293"/>
	
	
		<circle class="st4" cx="148.6" cy="824.3" r="5.5" fill="#fff293"/>
	
	
		<circle class="st4" cx="148.6" cy="837.4" r="5.5" fill="#fff293"/>
	
	
		<circle class="st4" cx="442.7" cy="882.4" r="5.5" fill="#fff293"/>
	
	
		<circle class="st4" cx="455.5" cy="882.4" r="5.5" fill="#fff293"/>
	
	
		<circle class="st4" cx="468.4" cy="882.4" r="5.5" fill="#fff293"/>
	
	
		<circle class="st4" cx="482.2" cy="882.4" r="5.5" fill="#fff293"/>
	
	
		<circle class="st4" cx="495.1" cy="882.4" r="5.5" fill="#fff293"/>
	
	
		<circle class="st4" cx="508" cy="882.4" r="5.5" fill="#fff293"/>
	
	
		<circle class="st4" cx="521.9" cy="882.4" r="5.5" fill="#fff293"/>
	
	
		<circle class="st4" cx="535" cy="882.4" r="5.5" fill="#fff293"/>
	
	
		<circle class="st4" cx="548.2" cy="882.4" r="5.5" fill="#fff293"/>
	
	
		<circle class="st4" cx="561.8" cy="882.4" r="5.5" fill="#fff293"/>
	
	
		<circle class="st4" cx="574.8" cy="882.4" r="5.5" fill="#fff293"/>
	
	
		<circle class="st4" cx="588" cy="882.4" r="5.5" fill="#fff293"/>
	
	
		<circle class="st4" cx="601.4" cy="882.4" r="5.5" fill="#fff293"/>
	
	
		<circle class="st4" cx="614.7" cy="882.4" r="5.5" fill="#fff293"/>
	
	
		<circle class="st4" cx="627.7" cy="882.4" r="5.5" fill="#fff293"/>
	
	
		<circle class="st4" cx="641.3" cy="882.4" r="5.5" fill="#fff293"/>
	
	
		<circle class="st4" cx="654.2" cy="882.4" r="5.5" fill="#fff293"/>
	
	
		<circle class="st4" cx="667.5" cy="882.4" r="5.5" fill="#fff293"/>
	
	
		<circle class="st4" cx="681.2" cy="882.4" r="5.5" fill="#fff293"/>
	
	
		<circle class="st4" cx="694.4" cy="882.4" r="5.5" fill="#fff293"/>
	
	
		<circle class="st4" cx="707.3" cy="882.4" r="5.5" fill="#fff293"/>
	
	
		<circle class="st4" cx="721.2" cy="882.4" r="5.5" fill="#fff293"/>
	
	
		<circle class="st4" cx="734" cy="882.4" r="5.5" fill="#fff293"/>
	
	
		<circle class="st4" cx="747.1" cy="882.4" r="5.5" fill="#fff293"/>
	
	
		<circle class="st4" cx="761.2" cy="882.4" r="5.5" fill="#fff293"/>
	
	
		<circle class="st4" cx="773.9" cy="882.4" r="5.5" fill="#fff293"/>
	
	
		<circle class="st4" cx="787" cy="882.4" r="5.5" fill="#fff293"/>
	
	
		<circle class="st4" cx="800.7" cy="882.4" r="5.5" fill="#fff293"/>
	
	
		<circle class="st4" cx="813.7" cy="882.4" r="5.5" fill="#fff293"/>
	
	
		<circle class="st4" cx="826.5" cy="882.4" r="5.5" fill="#fff293"/>
	
	
		<circle class="st4" cx="866.7" cy="417.1" r="5.5" fill="#fff293"/>
	
	
		<circle class="st4" cx="877.5" cy="422.6" r="5.5" fill="#fff293"/>
	
	
		<circle class="st4" cx="877.5" cy="436.2" r="5.5" fill="#fff293"/>
	
	
		<circle class="st4" cx="877.5" cy="449.5" r="5.5" fill="#fff293"/>
	
	
		<circle class="st4" cx="877.5" cy="462.8" r="5.5" fill="#fff293"/>
	
	
		<circle class="st4" cx="877.5" cy="476.5" r="5.5" fill="#fff293"/>
	
	
		<circle class="st4" cx="877.5" cy="489.6" r="5.5" fill="#fff293"/>
	
	
		<circle class="st4" cx="877.5" cy="502.7" r="5.5" fill="#fff293"/>
	
	
		<circle class="st4" cx="877.5" cy="515.9" r="5.5" fill="#fff293"/>
	
	
		<circle class="st4" cx="877.5" cy="529" r="5.5" fill="#fff293"/>
	
	
		<circle class="st4" cx="877.5" cy="542.1" r="5.5" fill="#fff293"/>
	
	
		<circle class="st4" cx="877.5" cy="555.5" r="5.5" fill="#fff293"/>
	
	
		<circle class="st4" cx="877.5" cy="568.7" r="5.5" fill="#fff293"/>
	
	
		<circle class="st4" cx="877.5" cy="581.8" r="5.5" fill="#fff293"/>
	
	
		<circle class="st4" cx="877.5" cy="595.2" r="5.5" fill="#fff293"/>
	
	
		<circle class="st4" cx="877.5" cy="608.6" r="5.5" fill="#fff293"/>
	
	
		<circle class="st4" cx="877.5" cy="621.8" r="5.5" fill="#fff293"/>
	
	
		<circle class="st4" cx="877.5" cy="635.4" r="5.5" fill="#fff293"/>
	
	
		<circle class="st4" cx="877.5" cy="648.7" r="5.5" fill="#fff293"/>
	
	
		<circle class="st4" cx="877.5" cy="661.6" r="5.5" fill="#fff293"/>
	
	
		<circle class="st4" cx="877.5" cy="675.2" r="5.5" fill="#fff293"/>
	
	
		<circle class="st4" cx="877.5" cy="688.6" r="5.5" fill="#fff293"/>
	
	
		<circle class="st4" cx="877.5" cy="701" r="5.5" fill="#fff293"/>
	
	
		<circle class="st4" cx="877.5" cy="715.3" r="5.5" fill="#fff293"/>
	
	
		<circle class="st4" cx="877.5" cy="728" r="5.5" fill="#fff293"/>
	
	
		<circle class="st4" cx="877.5" cy="741" r="5.5" fill="#fff293"/>
	
	
		<circle class="st4" cx="877.5" cy="755" r="5.5" fill="#fff293"/>
	
	
		<circle class="st4" cx="877.5" cy="767.8" r="5.5" fill="#fff293"/>
	
	
		<circle class="st4" cx="877.5" cy="781" r="5.5" fill="#fff293"/>
	
	
		<circle class="st4" cx="877.5" cy="794.8" r="5.5" fill="#fff293"/>
	
	
		<circle class="st4" cx="877.5" cy="807.7" r="5.5" fill="#fff293"/>
	
	
		<circle class="st4" cx="877.5" cy="820.5" r="5.5" fill="#fff293"/>
	
	
		<circle class="st4" cx="877.5" cy="834.5" r="5.5" fill="#fff293"/>
	
	
		<circle class="st4" cx="877.5" cy="847.6" r="5.5" fill="#fff293"/>
	
	
		<circle class="st4" cx="874.4" cy="887.9" r="5.5" fill="#fff293"/>
	
	
		<circle class="st4" cx="866.7" cy="429.8" r="5.5" fill="#fff293"/>
	
	
		<circle class="st4" cx="866.7" cy="442.9" r="5.5" fill="#fff293"/>
	
	
		<circle class="st4" cx="866.7" cy="456.9" r="5.5" fill="#fff293"/>
	
	
		<circle class="st4" cx="866.7" cy="469.8" r="5.5" fill="#fff293"/>
	
	
		<circle class="st4" cx="866.7" cy="482.7" r="5.5" fill="#fff293"/>
	
	
		<circle class="st4" cx="866.7" cy="496.5" r="5.5" fill="#fff293"/>
	
	
		<circle class="st4" cx="866.7" cy="509.4" r="5.5" fill="#fff293"/>
	
	
		<circle class="st4" cx="866.7" cy="522.2" r="5.5" fill="#fff293"/>
	
	
		<circle class="st4" cx="866.7" cy="536.1" r="5.5" fill="#fff293"/>
	
	
		<circle class="st4" cx="866.7" cy="549.3" r="5.5" fill="#fff293"/>
	
	
		<circle class="st4" cx="866.7" cy="562.5" r="5.5" fill="#fff293"/>
	
	
		<circle class="st4" cx="866.7" cy="576.1" r="5.5" fill="#fff293"/>
	
	
		<circle class="st4" cx="866.7" cy="589.1" r="5.5" fill="#fff293"/>
	
	
		<circle class="st4" cx="866.7" cy="602.2" r="5.5" fill="#fff293"/>
	
	
		<circle class="st4" cx="866.7" cy="615.6" r="5.5" fill="#fff293"/>
	
	
		<circle class="st4" cx="866.7" cy="629" r="5.5" fill="#fff293"/>
	
	
		<circle class="st4" cx="866.7" cy="641.9" r="5.5" fill="#fff293"/>
	
	
		<circle class="st4" cx="866.7" cy="655.6" r="5.5" fill="#fff293"/>
	
	
		<circle class="st4" cx="866.7" cy="668.4" r="5.5" fill="#fff293"/>
	
	
		<circle class="st4" cx="866.7" cy="681.8" r="5.5" fill="#fff293"/>
	
	
		<circle class="st4" cx="866.7" cy="695.5" r="5.5" fill="#fff293"/>
	
	
		<circle class="st4" cx="866.7" cy="708.7" r="5.5" fill="#fff293"/>
	
	
		<circle class="st4" cx="866.7" cy="721.6" r="5.5" fill="#fff293"/>
	
	
		<circle class="st4" cx="866.7" cy="735.5" r="5.5" fill="#fff293"/>
	
	
		<circle class="st4" cx="866.7" cy="748.3" r="5.5" fill="#fff293"/>
	
	
		<circle class="st4" cx="866.7" cy="761.3" r="5.5" fill="#fff293"/>
	
	
		<circle class="st4" cx="866.7" cy="775.4" r="5.5" fill="#fff293"/>
	
	
		<circle class="st4" cx="866.7" cy="788.2" r="5.5" fill="#fff293"/>
	
	
		<circle class="st4" cx="866.7" cy="801.3" r="5.5" fill="#fff293"/>
	
	
		<circle class="st4" cx="866.7" cy="815" r="5.5" fill="#fff293"/>
	
	
		<circle class="st4" cx="866.7" cy="828" r="5.5" fill="#fff293"/>
	
	
		<circle class="st4" cx="866.7" cy="840.8" r="5.5" fill="#fff293"/>
	
	
		<linearGradient id="SVGID_3_" x1="222.67" x2="813.6" y1="500.54" y2="500.54" gradientUnits="userSpaceOnUse">
			<stop stop-color="#E0E1E0" offset="0"/>
			<stop stop-color="#DEDFDE" offset=".5808"/>
			<stop stop-color="#D8D9D7" offset=".79"/>
			<stop stop-color="#CECDCC" offset=".9386"/>
			<stop stop-color="#C7C6C4" offset="1"/>
		</linearGradient>
		<path class="st5" d="m763.3 188.3h-502.6c-21 0-38 17-38 38v548.4c0 21 17 38 38 38h502.7c21 0 38-17 38-38v-548.4c-0.1-21-17.1-38-38.1-38z" fill="url(#SVGID_3_)"/>
	
</g></g>

<g transform="matrix(.091472 0 0 .091472 27.187 58.672)" fill="#b3b3b3"><path d="m187.89 178.12h-44.368l-13.573-32.738h-73.944l-12.366 32.738h-43.637l66.667-165.35h47.761zm-96.733-125.84-24.243 64.244h50.913z"/><path d="m349.06 12.776h35.88v165.35h-41.219v-103.28l-44.608 51.877h-6.301l-44.605-51.877v103.28h-41.219v-165.34h35.88l53.092 61.336z"/><path d="m489.38 12.776c60.364 0 91.391 37.573 91.391 82.909 0 47.517-30.058 82.437-96 82.437h-68.369v-165.35zm-31.762 135.04h26.906c41.457 0 53.823-28.129 53.823-52.377 0-28.368-15.276-52.363-54.308-52.363h-26.422v104.74z"/><polygon points="610.8 0 800 0 800 189.21 748.03 137.24 748.03 51.981 662.77 51.981"/><polygon points="609.2 115.9 609.2 190.8 684.09 190.8 737.59 137.3 662.71 137.3 662.71 62.397"/></g></svg>
