<svg width="128" height="128" version="1.1" viewBox="0 0 33.867 33.867" xmlns="http://www.w3.org/2000/svg" xmlns:xlink="http://www.w3.org/1999/xlink">
<defs>
<linearGradient id="linearGradient1878" x1="5.1502" x2="28.199" y1="7.0988" y2="28.948" gradientUnits="userSpaceOnUse">
<stop stop-color="#dbe1e1" offset="0"/>
<stop stop-color="#c2c6c6" offset="1"/>
</linearGradient>
</defs>
<g transform="translate(0 -263.13)">
<g transform="translate(.27019 263.02)">
<g transform="translate(40.39 14.999)">
<path d="m-35.995-11.365c-1.5988 0-2.9099 1.3112-2.9099 2.9099v22.932c0 1.5988 1.3112 2.9099 2.9099 2.9099h23.364c1.5988 0 2.9099-1.3112 2.9099-2.9099v-22.932c0-1.5988-1.3112-2.9099-2.9099-2.9099z" fill-opacity=".24084" stroke-width="1.0053"/>
<path d="m-36.078-11.466c-1.61 0-2.9305 1.3204-2.9305 2.9305v23.094c0 1.61 1.3204 2.9305 2.9305 2.9305h23.529c1.61 0 2.9305-1.3204 2.9305-2.9305v-23.094c0-1.61-1.3204-2.9305-2.9305-2.9305z" fill-opacity=".19895" stroke-width="1.0124"/>
<path d="m-36.16-11.568c-1.6213 0-2.951 1.3297-2.951 2.951v23.256c0 1.6213 1.3297 2.951 2.951 2.951h23.694c1.6213 0 2.951-1.3297 2.951-2.951v-23.256c0-1.6213-1.3297-2.951-2.951-2.951z" fill-opacity=".10995" stroke-width="1.0195"/>
<path d="m-36.253-11.682c-1.634 0-2.9741 1.3401-2.9741 2.9741v23.438c0 1.634 1.3401 2.9741 2.9741 2.9741h23.879c1.634 0 2.9741-1.3401 2.9741-2.9741v-23.438c0-1.634-1.3401-2.9741-2.9741-2.9741z" fill-opacity=".062827" stroke-width="1.0275"/>
<path d="m-36.356-11.809c-1.6481 0-2.9998 1.3517-2.9998 2.9998v23.64c0 1.6481 1.3517 2.9998 2.9998 2.9998h24.085c1.6481 0 2.9998-1.3517 2.9998-2.9998v-23.64c0-1.6481-1.3517-2.9998-2.9998-2.9998z" fill-opacity=".031414" stroke-width="1.0364"/>
</g>
<rect x="11.626" y="12.218" width="9.2208" height="10.29" ry="2.144" fill="none" filter="url(#a)" opacity=".824"/>
<path d="m4.4199 3.6401c-1.5903 0-2.8945 1.3042-2.8945 2.8945v22.811c0 1.5903 1.3042 2.8945 2.8945 2.8945h23.24c1.5903 0 2.8945-1.3042 2.8945-2.8945v-22.811c0-1.5903-1.3042-2.8945-2.8945-2.8945z" fill="#fff"/>
<path d="m5.0892 5.0261h21.902c1.1878 0 2.144 0.95622 2.144 2.144v21.373c0 1.1878-0.95622 2.144-2.144 2.144h-21.902c-1.1878 0-2.144-0.95622-2.144-2.144v-21.373c0-1.1878 0.95622-2.144 2.144-2.144z" fill="url(#linearGradient1878)" style="paint-order:fill markers stroke"/>
<g transform="scale(.26458)">
<path d="m81.602 13.758a23.95 23.95 0 0 0-2.6133 10.818 23.95 23.95 0 0 0 23.951 23.951 23.95 23.95 0 0 0 12.543-3.5703v-20.26c0-6.0106-4.9289-10.939-10.939-10.939z" fill-opacity=".026178"/>
<path d="m83.957 13.758a22.027 22.027 0 0 0-2.6133 10.387 22.027 22.027 0 0 0 22.027 22.027 22.027 22.027 0 0 0 12.111-3.6426v-17.832c0-6.0106-4.9289-10.939-10.939-10.939z" fill-opacity=".28272"/>
<path d="m83.205 13.758a22.705 22.705 0 0 0-2.5391 10.387 22.705 22.705 0 0 0 22.705 22.705 22.705 22.705 0 0 0 12.111-3.5117v-18.641c0-6.0106-4.9289-10.939-10.939-10.939z" fill-opacity=".15707"/>
<path d="m82.301 13.758a23.518 23.518 0 0 0-2.4492 10.387 23.518 23.518 0 0 0 23.52 23.52 23.518 23.518 0 0 0 12.111-3.3867v-19.58c0-6.0106-4.9289-10.939-10.939-10.939z" fill-opacity=".089005"/>
<path d="m82.301 13.758a23.518 23.518 0 0 0-2.4492 10.387 23.518 23.518 0 0 0 23.52 23.52 23.518 23.518 0 0 0 12.111-3.3867v-19.58c0-6.0106-4.9289-10.939-10.939-10.939z" fill-opacity=".052356"/>
</g>
<circle cx="27.242" cy="6.4602" r="5.4691" fill="#df4b41" stroke="#b73329" stroke-width=".37341"/>
<g transform="translate(0 -263.13)" fill="none">
<path d="m0.13364 263.32h33.676v33.81h-33.676z"/>
<rect x="2.2755" y="267.52" width="27.496" height="27.068" ry="2.1414"/>
</g>
</g>
</g>
</svg>
