<svg width="128" height="128" version="1.1" viewBox="0 0 33.867 33.867" xmlns="http://www.w3.org/2000/svg">
<g transform="translate(0 -263.13)">
<g transform="translate(4.5972e-6 -.047432)">
<rect x=".36458" y="266.83" width="33.137" height="27.2" rx=".62355" opacity=".25"/>
<rect x=".36458" y="266.3" width="33.137" height="27.2" rx=".62355" fill="#9a9a9a" stroke="#4d4d4d" stroke-linecap="round" stroke-linejoin="round" stroke-width=".2"/>
<path d="m0.988 266.72c-0.34545 0-0.62335 0.27801-0.62335 0.62359v4.2432h33.137v-4.2432c0-0.34558-0.27831-0.62359-0.62376-0.62359z" opacity=".25"/>
<path d="m0.988 266.3c-0.34545 0-0.62335 0.27801-0.62335 0.62361v4.2432h33.137v-4.2432c0-0.3456-0.27831-0.62361-0.62376-0.62361z" fill="#fff" stroke="#4d4d4d" stroke-linecap="round" stroke-linejoin="round" stroke-width=".2"/>
<path transform="matrix(.7999 0 0 .80022 69.632 147.23)" d="m-84.515 151.87 3.1452-1.8159v3.6318z" fill="#8e97a5"/>
<path transform="matrix(-.7999 0 0 .80022 69.632 147.23)" d="m74.66 151.87 3.1452-1.8159v3.6318z" fill="#8e97a5"/>
<rect transform="matrix(.73311 .68011 -.70762 .70659 0 0)" x="199.55" y="185.58" width=".99673" height="3.9813" rx="0" ry="0" fill="#8e97a5"/>
<rect transform="matrix(-.73311 .68011 .70762 .70659 0 0)" x="179.85" y="204.54" width=".99673" height="3.9813" rx="0" ry="0" fill="#8e97a5"/>
<path d="m25.92 267.16-1.9172 1.7629h0.58531v1.5367h2.6637v-1.5367h0.58573z" fill="#8d95a4"/>
<path d="m18.629 269.1c0.05771 0.26117 0.19822 0.5034 0.39627 0.68317 0.19806 0.17976 0.45273 0.2962 0.71826 0.32841 0.26553 0.0322 0.54065-0.02 0.77594-0.14719 0.23529-0.1272 0.42963-0.32882 0.5481-0.56862 0.12754-0.25817 0.16603-0.55931 0.10751-0.84126-0.05852-0.28194-0.21367-0.5429-0.43341-0.72898-0.21975-0.18609-0.5027-0.29613-0.79043-0.3074-0.28773-0.0113-0.57842 0.0763-0.81205 0.24464" fill="none" stroke="#8d95a4" stroke-linecap="round" stroke-width=".7"/>
<path d="m18.172 270.23 1.3275-1.3044-1.5117-0.25993z" fill="#8e97a5"/>
</g>
</g>
</svg>
