<svg width="128" height="128" version="1.1" viewBox="0 0 128 128" xmlns="http://www.w3.org/2000/svg" xmlns:xlink="http://www.w3.org/1999/xlink">
<defs>
<linearGradient id="linearGradient1021">
<stop stop-color="#d1d1d1" offset="0"/>
<stop stop-color="#d1d1d1" stop-opacity="0" offset="1"/>
</linearGradient>
<linearGradient id="linearGradient971">
<stop stop-color="#d9d9d9" offset="0"/>
<stop stop-color="#4c4c4c" stop-opacity="0" offset="1"/>
</linearGradient>
<linearGradient id="linearGradient961">
<stop stop-color="#4c4c4c" offset="0"/>
<stop stop-color="#242424" offset="1"/>
</linearGradient>
<linearGradient id="linearGradient953">
<stop stop-color="#010101" offset="0"/>
<stop stop-color="#383838" offset="1"/>
</linearGradient>
<linearGradient id="linearGradient843">
<stop stop-color="#f9f9f9" offset="0"/>
<stop stop-color="#c9c9c9" offset=".53271"/>
<stop stop-color="#878787" offset="1"/>
</linearGradient>
<radialGradient id="radialGradient829" cx="-466.44" cy="527.19" r="496.81" gradientTransform="matrix(.95658 0 0 .95902 -102.7 -922.12)" gradientUnits="userSpaceOnUse">
<stop offset="0"/>
<stop stop-color="#202020" offset=".95644"/>
<stop stop-color="#212121" stop-opacity=".57647" offset=".97679"/>
<stop stop-color="#242424" stop-opacity="0" offset="1"/>
</radialGradient>
<linearGradient id="linearGradient845" x1="-513.95" x2="-519.39" y1="92.874" y2="915.13" gradientTransform="translate(0,-896)" gradientUnits="userSpaceOnUse">
<stop stop-color="#fcfcfc" offset="0"/>
<stop stop-color="#f2f2f2" offset="1"/>
</linearGradient>
<linearGradient id="linearGradient857" x1="-764.99" x2="-732" y1="459.52" y2="459.52" gradientTransform="translate(0,-896)" gradientUnits="userSpaceOnUse" xlink:href="#linearGradient843"/>
<linearGradient id="linearGradient870" x1="377.38" x2="377.38" y1="455.96" y2="561.1" gradientUnits="userSpaceOnUse">
<stop stop-color="#252525" offset="0"/>
<stop stop-color="#060606" offset="1"/>
</linearGradient>
<radialGradient id="radialGradient911" cx="591.76" cy="783.34" r="36.817" gradientTransform="matrix(1.1109 0 0 1.0955 -62.287 -65.95)" gradientUnits="userSpaceOnUse">
<stop stop-color="#171919" offset="0"/>
<stop stop-color="#171919" stop-opacity="0" offset="1"/>
</radialGradient>
<linearGradient id="linearGradient933" x1="585.05" x2="600.39" y1="755.06" y2="818.34" gradientUnits="userSpaceOnUse">
<stop stop-color="#5c5c5c" offset="0"/>
<stop stop-color="#353535" offset="1"/>
</linearGradient>
<linearGradient id="linearGradient955" x1="535.41" x2="827.65" y1="671.08" y2="671.08" gradientUnits="userSpaceOnUse" xlink:href="#linearGradient953"/>
<linearGradient id="linearGradient963" x1="535.41" x2="827.65" y1="671.08" y2="671.08" gradientUnits="userSpaceOnUse" xlink:href="#linearGradient961"/>
<radialGradient id="radialGradient973" cx="697.61" cy="691.11" r="55.61" gradientTransform="matrix(1.9793 0 0 .62792 -758.84 322.03)" gradientUnits="userSpaceOnUse" xlink:href="#linearGradient971"/>
<radialGradient id="radialGradient1025" cx="1177.6" cy="694.3" r="113.49" gradientTransform="matrix(1 0 0 .30159 0 484.91)" gradientUnits="userSpaceOnUse" xlink:href="#linearGradient1021"/>
<linearGradient id="linearGradient1088" x1="-756.32" x2="-732" y1="459.52" y2="459.52" gradientTransform="matrix(-1 0 0 1 -1094.5 -896)" gradientUnits="userSpaceOnUse" xlink:href="#linearGradient843"/>
</defs>
<g transform="matrix(.12681 0 0 .12681 134.09 117.29)">
<path d="m30.373-416.54a579.25 544.54 0 0 1-578.96 544.54 579.25 544.54 0 0 1-579.55-543.98 579.25 544.54 0 0 1 578.36-545.1 579.25 544.54 0 0 1 580.15 543.42l-579.25 1.1226z" fill="url(#radialGradient829)" opacity=".275" style="paint-order:fill markers stroke"/>
<circle cx="-548.88" cy="-416.54" r="462.1" fill="url(#linearGradient845)" style="paint-order:fill markers stroke"/>
<path d="m-725.72 10.384c-55.537-23.004-106.59-56.841-149.92-100.17-86.661-86.661-135.35-204.2-135.35-326.76s48.686-240.09 135.35-326.76c43.33-43.33 94.38-77.167 149.92-100.17z" fill="url(#linearGradient857)" opacity=".12" style="paint-order:fill markers stroke"/>
<path d="m-368.81 10.384c55.537-23.004 106.59-56.841 149.92-100.17 86.661-86.661 135.35-204.2 135.35-326.76s-48.686-240.09-135.35-326.76c-43.33-43.33-94.38-77.167-149.92-100.17z" fill="url(#linearGradient1088)" opacity=".048" style="paint-order:fill markers stroke"/>
<g transform="translate(-1063.4 -927.01)">
<g transform="matrix(-1 0 0 1 1582.6 0)">
<path d="m1369.6 420.9 29.81 0.47657-0.6355 177.37c-15.211 3.3626-27.42-0.28069-40.653-1.5341z" fill="#252525" stroke="#202020" stroke-width="4"/>
<g transform="translate(566.17 -160.61)">
<path d="m536.18 627.04c64.3-50.618 192.71-49.419 291.47-66.732l-16.875 220.14c-102.41 8.6753-173.05-24.2-275.36-70.567z" fill="url(#linearGradient955)"/>
<path d="m827.65 560.31c-98.766 17.313-227.17 16.114-291.47 66.732l-0.0371 3.9531c64.399-50.352 188.7-51.103 287.29-68.385l-16.107 213.62c-102.39 8.6742-169.58-24.193-271.87-70.551l-0.0391 4.2012c102.32 46.367 172.96 79.244 275.37 70.568z" fill="url(#linearGradient963)"/>
</g>
<ellipse transform="rotate(-7.8518)" cx="1177.6" cy="694.3" rx="113.49" ry="34.226" fill="url(#radialGradient1025)" opacity=".073" style="paint-order:normal"/>
</g>
<g transform="translate(-553.5)">
<path d="m1369.6 420.9 29.81 0.47657-0.6355 177.37c-15.211 3.3626-27.42-0.28069-40.653-1.5341z" fill="#252525" stroke="#202020" stroke-width="4"/>
<g transform="translate(566.17 -160.61)">
<path d="m536.18 627.04c64.3-50.618 192.71-49.419 291.47-66.732l-16.875 220.14c-102.41 8.6753-173.05-24.2-275.36-70.567z" fill="url(#linearGradient955)"/>
<path d="m827.65 560.31c-98.766 17.313-227.17 16.114-291.47 66.732l-0.0371 3.9531c64.399-50.352 188.7-51.103 287.29-68.385l-16.107 213.62c-102.39 8.6742-169.58-24.193-271.87-70.551l-0.0391 4.2012c102.32 46.367 172.96 79.244 275.37 70.568z" fill="url(#linearGradient963)"/>
</g>
<ellipse transform="rotate(-7.8518)" cx="1177.6" cy="694.3" rx="113.49" ry="34.226" fill="url(#radialGradient1025)" opacity=".073" style="paint-order:normal"/>
</g>
<g transform="translate(144.97 .76703)">
<path d="m350.48 453.71h38.454c11.02 0 20.214 8.8764 19.892 19.892-0.75299 25.709-1.2642 51.054 0 73.737 0.61321 11.003-8.8717 19.892-19.892 19.892h-38.454c-11.02 0-20.53-8.8902-19.892-19.892 1.3727-23.664 1.6886-48.032 0-73.737-0.72235-10.996 8.8717-19.892 19.892-19.892z" fill="url(#linearGradient870)" style="paint-order:fill markers stroke"/>
<path d="m350.48 453.71c-11.02 0-20.615 8.8943-19.893 19.891 1.6886 25.705 1.3727 50.074 0 73.738-0.63817 11.002 8.8726 19.891 19.893 19.891h38.453c11.02 0 20.506-8.8877 19.893-19.891-1.2642-22.683-0.75299-48.03 0-73.738 0.32264-11.015-8.8726-19.891-19.893-19.891zm1.0547 3.1152h36.344c10.415 0 19.104 8.3902 18.799 18.801-0.71166 24.297-1.1948 48.252 0 69.689 0.57955 10.399-8.3838 18.799-18.799 18.799h-36.344c-10.415 0-19.402-8.4012-18.799-18.799 1.2973-22.365 1.5959-45.396 0-69.689-0.6827-10.393 8.3838-18.801 18.799-18.801z" fill="#252525" style="paint-order:fill markers stroke"/>
</g>
</g>
<g transform="translate(-1144.4 -924.4)">
<ellipse cx="595.13" cy="792.23" rx="40.902" ry="40.335" fill="url(#radialGradient911)" opacity=".63" style="paint-order:fill markers stroke"/>
<circle cx="595.12" cy="786.7" r="33.462" fill="url(#linearGradient933)" style="paint-order:fill markers stroke"/>
<path d="m595.12 753.24a33.462 33.462 0 0 0-33.463 33.461 33.462 33.462 0 0 0 0.0899 2.4199 33.462 33.462 0 0 1 33.373-31.662 33.462 33.462 0 0 1 33.371 31.041 33.462 33.462 0 0 0 0.0898-1.7988 33.462 33.462 0 0 0-33.461-33.461z" fill="#fff" fill-opacity=".3022" style="paint-order:fill markers stroke"/>
<g transform="translate(.86299 1.8218)">
<path d="m586.11 773.56a2.9722 2.9722 0 0 0-2.9727 2.9727 2.9722 2.9722 0 0 0 2.9727 2.9727 2.9722 2.9722 0 0 0 2.9727-2.9727 2.9722 2.9722 0 0 0-2.9727-2.9727zm16.684 0a2.9722 2.9722 0 0 0-2.9726 2.9727 2.9722 2.9722 0 0 0 2.9726 2.9727 2.9722 2.9722 0 0 0 2.9707-2.9727 2.9722 2.9722 0 0 0-2.9707-2.9727zm-17.066 16.684a2.9722 2.9722 0 0 0-2.9727 2.9707 2.9722 2.9722 0 0 0 2.9727 2.9727 2.9722 2.9722 0 0 0 2.9707-2.9727 2.9722 2.9722 0 0 0-2.9707-2.9707zm17.066 0a2.9722 2.9722 0 0 0-2.9726 2.9707 2.9722 2.9722 0 0 0 2.9726 2.9727 2.9722 2.9722 0 0 0 2.9707-2.9727 2.9722 2.9722 0 0 0-2.9707-2.9707z" opacity=".473" style="paint-order:fill markers stroke"/>
<path d="m586.11 776.63h16.971v16.971h-16.971z" fill="none" stroke="#c3c3c3" stroke-linecap="round" stroke-linejoin="round" stroke-width="1.5" style="paint-order:normal"/>
</g>
</g>
<g transform="translate(-130.99 -1427.3)" fill="none" stroke="#000" stroke-linecap="round" stroke-linejoin="bevel" stroke-opacity=".041825">
<path d="m-743.68 900.04 1.6524 21.559-7.2734 0.1172 0.63672 177.37c7.32 1.6182 13.942 1.6089 20.32 1.0293l1.5391 20.064c9.6007 0.8133 18.921 1.2611 28.016 1.3672h2e-3c54.567 0.6358 100.96-11.042 150.48-30.041 5.5022-2.1109 11.044-4.3127 16.639-6.5976 4.1964-1.7138 8.4355-3.4881 12.699-5.293 4.2632-1.8046 8.551-3.6393 12.895-5.5293 15.755-6.8552 32.153-14.286 49.363-22.088 1.3306 9.3001 9.932 16.34 19.736 16.34h38.455c9.7612 0 18.312-6.9768 19.713-16.217 4.4638 2.0234 8.9424 4.053 13.293 6.0195 21.57 9.75 41.813 18.77 61.395 26.768 8.3922 3.4273 16.662 6.667 24.863 9.6953 13.67 5.0476 27.145 9.5094 40.672 13.277 2.7052 0.7536 5.412 1.4786 8.123 2.1758h2e-3c0.5349 0.1376 1.0722 0.2612 1.6074 0.3965 15.741 3.9802 31.624 7.0046 48.033 8.8809 1.4139 0.1616 2.83 0.3143 4.252 0.459 5.6883 0.5788 11.442 1.0215 17.277 1.3203 1.4588 0.075 2.9214 0.1406 4.3906 0.1972h2e-3c1.4686 0.057 2.9424 0.1043 4.4219 0.1426h2e-3c0.0279 7e-4 0.0561 0 0.084 0 4.4125 0.1133 8.8745 0.1444 13.393 0.092h2e-3c3.0309-0.035 6.0867-0.1086 9.1699-0.2207 1.542-0.056 3.0927-0.1217 4.6484-0.1973 4.6673-0.227 9.3969-0.5426 14.197-0.9492l1.5391-20.064c6.3781 0.5796 13 0.5889 20.32-1.0293l0.63672-177.37-7.2734-0.1172 1.6523-21.559h-2e-3c-24.692 4.3281-51.234 7.5001-78.166 10.613-13.466 1.5565-27.029 3.0988-40.506 4.7637-6.7383 0.8324-13.455 1.6944-20.127 2.6054-16.681 2.2776-33.084 4.8557-48.852 8-12.614 2.5155-24.822 5.3942-36.439 8.7735-4.3568 1.2672-8.6313 2.6042-12.812 4.0195-4.1812 1.4153-8.2694 2.9085-12.256 4.4863-5.3152 2.1037-10.448 4.3586-15.377 6.7813-2.4644 1.2113-4.879 2.4642-7.2383 3.7617s-4.6638 2.6393-6.9121 4.0273c-1.1242 0.694-2.2347 1.3998-3.3301 2.1172-2.3949 1.5686-4.713 3.1982-6.9648 4.8828-3.4115-6.0096-10-10.057-17.434-10.057h-38.455c-7.4556 0-14.255 4.074-17.652 10.113-1.2459-0.9336-2.5085-1.8544-3.7988-2.752-2.1317-1.4827-4.322-2.9167-6.5703-4.3047s-4.5548-2.7298-6.9141-4.0273c-2.3592-1.2975-4.7719-2.5504-7.2363-3.7617-3.6966-1.817-7.5086-3.5406-11.426-5.1758-3.9166-1.635-7.9388-3.1828-12.057-4.6504h-2e-3c-1.3728-0.4893-2.7547-0.9697-4.1484-1.4414-2.7875-0.9435-5.6174-1.8519-8.4844-2.7285-2.8663-0.8765-5.7709-1.7213-8.7109-2.5352h-2e-3c-10.292-2.8492-21.017-5.3282-32.055-7.5293-15.768-3.1443-32.171-5.7224-48.852-8-6.6723-0.911-13.389-1.773-20.127-2.6054-13.477-1.6649-27.04-3.2072-40.506-4.7637-10.099-1.1674-20.146-2.3442-30.059-3.586-3.3044-0.4139-6.593-0.8348-9.8652-1.2656-13.089-1.7229-25.896-3.5976-38.242-5.7617h-2e-3z" stroke-width="5"/>
<path d="m-743.68 900.04 1.6524 21.559-7.2734 0.1172 0.63672 177.37c7.32 1.6182 13.942 1.6089 20.32 1.0293l1.5391 20.064c9.6007 0.8133 18.921 1.2611 28.016 1.3672h2e-3c54.567 0.6358 100.96-11.042 150.48-30.041 5.5022-2.1109 11.044-4.3127 16.639-6.5976 4.1964-1.7138 8.4355-3.4881 12.699-5.293 4.2632-1.8046 8.551-3.6393 12.895-5.5293 15.755-6.8552 32.153-14.286 49.363-22.088 1.3306 9.3001 9.932 16.34 19.736 16.34h38.455c9.7612 0 18.312-6.9768 19.713-16.217 4.4638 2.0234 8.9424 4.053 13.293 6.0195 21.57 9.75 41.813 18.77 61.395 26.768 8.3922 3.4273 16.662 6.667 24.863 9.6953 13.67 5.0476 27.145 9.5094 40.672 13.277 2.7052 0.7536 5.412 1.4786 8.123 2.1758h2e-3c0.5349 0.1376 1.0722 0.2612 1.6074 0.3965 15.741 3.9802 31.624 7.0046 48.033 8.8809 1.4139 0.1616 2.83 0.3143 4.252 0.459 5.6883 0.5788 11.442 1.0215 17.277 1.3203 1.4588 0.075 2.9214 0.1406 4.3906 0.1972h2e-3c1.4686 0.057 2.9424 0.1043 4.4219 0.1426h2e-3c0.0279 7e-4 0.0561 0 0.084 0 4.4125 0.1133 8.8745 0.1444 13.393 0.092h2e-3c3.0309-0.035 6.0867-0.1086 9.1699-0.2207 1.542-0.056 3.0927-0.1217 4.6484-0.1973 4.6673-0.227 9.3969-0.5426 14.197-0.9492l1.5391-20.064c6.3781 0.5796 13 0.5889 20.32-1.0293l0.63672-177.37-7.2734-0.1172 1.6523-21.559h-2e-3c-24.692 4.3281-51.234 7.5001-78.166 10.613-13.466 1.5565-27.029 3.0988-40.506 4.7637-6.7383 0.8324-13.455 1.6944-20.127 2.6054-16.681 2.2776-33.084 4.8557-48.852 8-12.614 2.5155-24.822 5.3942-36.439 8.7735-4.3568 1.2672-8.6313 2.6042-12.812 4.0195-4.1812 1.4153-8.2694 2.9085-12.256 4.4863-5.3152 2.1037-10.448 4.3586-15.377 6.7813-2.4644 1.2113-4.879 2.4642-7.2383 3.7617s-4.6638 2.6393-6.9121 4.0273c-1.1242 0.694-2.2347 1.3998-3.3301 2.1172-2.3949 1.5686-4.713 3.1982-6.9648 4.8828-3.4115-6.0096-10-10.057-17.434-10.057h-38.455c-7.4556 0-14.255 4.074-17.652 10.113-1.2459-0.9336-2.5085-1.8544-3.7988-2.752-2.1317-1.4827-4.322-2.9167-6.5703-4.3047s-4.5548-2.7298-6.9141-4.0273c-2.3592-1.2975-4.7719-2.5504-7.2363-3.7617-3.6966-1.817-7.5086-3.5406-11.426-5.1758-3.9166-1.635-7.9388-3.1828-12.057-4.6504h-2e-3c-1.3728-0.4893-2.7547-0.9697-4.1484-1.4414-2.7875-0.9435-5.6174-1.8519-8.4844-2.7285-2.8663-0.8765-5.7709-1.7213-8.7109-2.5352h-2e-3c-10.292-2.8492-21.017-5.3282-32.055-7.5293-15.768-3.1443-32.171-5.7224-48.852-8-6.6723-0.911-13.389-1.773-20.127-2.6054-13.477-1.6649-27.04-3.2072-40.506-4.7637-10.099-1.1674-20.146-2.3442-30.059-3.586-3.3044-0.4139-6.593-0.8348-9.8652-1.2656-13.089-1.7229-25.896-3.5976-38.242-5.7617h-2e-3z" stroke-width="10"/>
<path d="m-743.68 900.04 1.6524 21.559-7.2734 0.1172 0.63672 177.37c7.32 1.6182 13.942 1.6089 20.32 1.0293l1.5391 20.064c9.6007 0.8133 18.921 1.2611 28.016 1.3672h2e-3c54.567 0.6358 100.96-11.042 150.48-30.041 5.5022-2.1109 11.044-4.3127 16.639-6.5976 4.1964-1.7138 8.4355-3.4881 12.699-5.293 4.2632-1.8046 8.551-3.6393 12.895-5.5293 15.755-6.8552 32.153-14.286 49.363-22.088 1.3306 9.3001 9.932 16.34 19.736 16.34h38.455c9.7612 0 18.312-6.9768 19.713-16.217 4.4638 2.0234 8.9424 4.053 13.293 6.0195 21.57 9.75 41.813 18.77 61.395 26.768 8.3922 3.4273 16.662 6.667 24.863 9.6953 13.67 5.0476 27.145 9.5094 40.672 13.277 2.7052 0.7536 5.412 1.4786 8.123 2.1758h2e-3c0.5349 0.1376 1.0722 0.2612 1.6074 0.3965 15.741 3.9802 31.624 7.0046 48.033 8.8809 1.4139 0.1616 2.83 0.3143 4.252 0.459 5.6883 0.5788 11.442 1.0215 17.277 1.3203 1.4588 0.075 2.9214 0.1406 4.3906 0.1972h2e-3c1.4686 0.057 2.9424 0.1043 4.4219 0.1426h2e-3c0.0279 7e-4 0.0561 0 0.084 0 4.4125 0.1133 8.8745 0.1444 13.393 0.092h2e-3c3.0309-0.035 6.0867-0.1086 9.1699-0.2207 1.542-0.056 3.0927-0.1217 4.6484-0.1973 4.6673-0.227 9.3969-0.5426 14.197-0.9492l1.5391-20.064c6.3781 0.5796 13 0.5889 20.32-1.0293l0.63672-177.37-7.2734-0.1172 1.6523-21.559h-2e-3c-24.692 4.3281-51.234 7.5001-78.166 10.613-13.466 1.5565-27.029 3.0988-40.506 4.7637-6.7383 0.8324-13.455 1.6944-20.127 2.6054-16.681 2.2776-33.084 4.8557-48.852 8-12.614 2.5155-24.822 5.3942-36.439 8.7735-4.3568 1.2672-8.6313 2.6042-12.812 4.0195-4.1812 1.4153-8.2694 2.9085-12.256 4.4863-5.3152 2.1037-10.448 4.3586-15.377 6.7813-2.4644 1.2113-4.879 2.4642-7.2383 3.7617s-4.6638 2.6393-6.9121 4.0273c-1.1242 0.694-2.2347 1.3998-3.3301 2.1172-2.3949 1.5686-4.713 3.1982-6.9648 4.8828-3.4115-6.0096-10-10.057-17.434-10.057h-38.455c-7.4556 0-14.255 4.074-17.652 10.113-1.2459-0.9336-2.5085-1.8544-3.7988-2.752-2.1317-1.4827-4.322-2.9167-6.5703-4.3047s-4.5548-2.7298-6.9141-4.0273c-2.3592-1.2975-4.7719-2.5504-7.2363-3.7617-3.6966-1.817-7.5086-3.5406-11.426-5.1758-3.9166-1.635-7.9388-3.1828-12.057-4.6504h-2e-3c-1.3728-0.4893-2.7547-0.9697-4.1484-1.4414-2.7875-0.9435-5.6174-1.8519-8.4844-2.7285-2.8663-0.8765-5.7709-1.7213-8.7109-2.5352h-2e-3c-10.292-2.8492-21.017-5.3282-32.055-7.5293-15.768-3.1443-32.171-5.7224-48.852-8-6.6723-0.911-13.389-1.773-20.127-2.6054-13.477-1.6649-27.04-3.2072-40.506-4.7637-10.099-1.1674-20.146-2.3442-30.059-3.586-3.3044-0.4139-6.593-0.8348-9.8652-1.2656-13.089-1.7229-25.896-3.5976-38.242-5.7617h-2e-3z" stroke-width="15"/>
<path d="m-743.68 900.04 1.6524 21.559-7.2734 0.1172 0.63672 177.37c7.32 1.6182 13.942 1.6089 20.32 1.0293l1.5391 20.064c9.6007 0.8133 18.921 1.2611 28.016 1.3672h2e-3c54.567 0.6358 100.96-11.042 150.48-30.041 5.5022-2.1109 11.044-4.3127 16.639-6.5976 4.1964-1.7138 8.4355-3.4881 12.699-5.293 4.2632-1.8046 8.551-3.6393 12.895-5.5293 15.755-6.8552 32.153-14.286 49.363-22.088 1.3306 9.3001 9.932 16.34 19.736 16.34h38.455c9.7612 0 18.312-6.9768 19.713-16.217 4.4638 2.0234 8.9424 4.053 13.293 6.0195 21.57 9.75 41.813 18.77 61.395 26.768 8.3922 3.4273 16.662 6.667 24.863 9.6953 13.67 5.0476 27.145 9.5094 40.672 13.277 2.7052 0.7536 5.412 1.4786 8.123 2.1758h2e-3c0.5349 0.1376 1.0722 0.2612 1.6074 0.3965 15.741 3.9802 31.624 7.0046 48.033 8.8809 1.4139 0.1616 2.83 0.3143 4.252 0.459 5.6883 0.5788 11.442 1.0215 17.277 1.3203 1.4588 0.075 2.9214 0.1406 4.3906 0.1972h2e-3c1.4686 0.057 2.9424 0.1043 4.4219 0.1426h2e-3c0.0279 7e-4 0.0561 0 0.084 0 4.4125 0.1133 8.8745 0.1444 13.393 0.092h2e-3c3.0309-0.035 6.0867-0.1086 9.1699-0.2207 1.542-0.056 3.0927-0.1217 4.6484-0.1973 4.6673-0.227 9.3969-0.5426 14.197-0.9492l1.5391-20.064c6.3781 0.5796 13 0.5889 20.32-1.0293l0.63672-177.37-7.2734-0.1172 1.6523-21.559h-2e-3c-24.692 4.3281-51.234 7.5001-78.166 10.613-13.466 1.5565-27.029 3.0988-40.506 4.7637-6.7383 0.8324-13.455 1.6944-20.127 2.6054-16.681 2.2776-33.084 4.8557-48.852 8-12.614 2.5155-24.822 5.3942-36.439 8.7735-4.3568 1.2672-8.6313 2.6042-12.812 4.0195-4.1812 1.4153-8.2694 2.9085-12.256 4.4863-5.3152 2.1037-10.448 4.3586-15.377 6.7813-2.4644 1.2113-4.879 2.4642-7.2383 3.7617s-4.6638 2.6393-6.9121 4.0273c-1.1242 0.694-2.2347 1.3998-3.3301 2.1172-2.3949 1.5686-4.713 3.1982-6.9648 4.8828-3.4115-6.0096-10-10.057-17.434-10.057h-38.455c-7.4556 0-14.255 4.074-17.652 10.113-1.2459-0.9336-2.5085-1.8544-3.7988-2.752-2.1317-1.4827-4.322-2.9167-6.5703-4.3047s-4.5548-2.7298-6.9141-4.0273c-2.3592-1.2975-4.7719-2.5504-7.2363-3.7617-3.6966-1.817-7.5086-3.5406-11.426-5.1758-3.9166-1.635-7.9388-3.1828-12.057-4.6504h-2e-3c-1.3728-0.4893-2.7547-0.9697-4.1484-1.4414-2.7875-0.9435-5.6174-1.8519-8.4844-2.7285-2.8663-0.8765-5.7709-1.7213-8.7109-2.5352h-2e-3c-10.292-2.8492-21.017-5.3282-32.055-7.5293-15.768-3.1443-32.171-5.7224-48.852-8-6.6723-0.911-13.389-1.773-20.127-2.6054-13.477-1.6649-27.04-3.2072-40.506-4.7637-10.099-1.1674-20.146-2.3442-30.059-3.586-3.3044-0.4139-6.593-0.8348-9.8652-1.2656-13.089-1.7229-25.896-3.5976-38.242-5.7617h-2e-3z" stroke-width="20"/>
<path d="m-743.68 900.04 1.6524 21.559-7.2734 0.1172 0.63672 177.37c7.32 1.6182 13.942 1.6089 20.32 1.0293l1.5391 20.064c9.6007 0.8133 18.921 1.2611 28.016 1.3672h2e-3c54.567 0.6358 100.96-11.042 150.48-30.041 5.5022-2.1109 11.044-4.3127 16.639-6.5976 4.1964-1.7138 8.4355-3.4881 12.699-5.293 4.2632-1.8046 8.551-3.6393 12.895-5.5293 15.755-6.8552 32.153-14.286 49.363-22.088 1.3306 9.3001 9.932 16.34 19.736 16.34h38.455c9.7612 0 18.312-6.9768 19.713-16.217 4.4638 2.0234 8.9424 4.053 13.293 6.0195 21.57 9.75 41.813 18.77 61.395 26.768 8.3922 3.4273 16.662 6.667 24.863 9.6953 13.67 5.0476 27.145 9.5094 40.672 13.277 2.7052 0.7536 5.412 1.4786 8.123 2.1758h2e-3c0.5349 0.1376 1.0722 0.2612 1.6074 0.3965 15.741 3.9802 31.624 7.0046 48.033 8.8809 1.4139 0.1616 2.83 0.3143 4.252 0.459 5.6883 0.5788 11.442 1.0215 17.277 1.3203 1.4588 0.075 2.9214 0.1406 4.3906 0.1972h2e-3c1.4686 0.057 2.9424 0.1043 4.4219 0.1426h2e-3c0.0279 7e-4 0.0561 0 0.084 0 4.4125 0.1133 8.8745 0.1444 13.393 0.092h2e-3c3.0309-0.035 6.0867-0.1086 9.1699-0.2207 1.542-0.056 3.0927-0.1217 4.6484-0.1973 4.6673-0.227 9.3969-0.5426 14.197-0.9492l1.5391-20.064c6.3781 0.5796 13 0.5889 20.32-1.0293l0.63672-177.37-7.2734-0.1172 1.6523-21.559h-2e-3c-24.692 4.3281-51.234 7.5001-78.166 10.613-13.466 1.5565-27.029 3.0988-40.506 4.7637-6.7383 0.8324-13.455 1.6944-20.127 2.6054-16.681 2.2776-33.084 4.8557-48.852 8-12.614 2.5155-24.822 5.3942-36.439 8.7735-4.3568 1.2672-8.6313 2.6042-12.812 4.0195-4.1812 1.4153-8.2694 2.9085-12.256 4.4863-5.3152 2.1037-10.448 4.3586-15.377 6.7813-2.4644 1.2113-4.879 2.4642-7.2383 3.7617s-4.6638 2.6393-6.9121 4.0273c-1.1242 0.694-2.2347 1.3998-3.3301 2.1172-2.3949 1.5686-4.713 3.1982-6.9648 4.8828-3.4115-6.0096-10-10.057-17.434-10.057h-38.455c-7.4556 0-14.255 4.074-17.652 10.113-1.2459-0.9336-2.5085-1.8544-3.7988-2.752-2.1317-1.4827-4.322-2.9167-6.5703-4.3047s-4.5548-2.7298-6.9141-4.0273c-2.3592-1.2975-4.7719-2.5504-7.2363-3.7617-3.6966-1.817-7.5086-3.5406-11.426-5.1758-3.9166-1.635-7.9388-3.1828-12.057-4.6504h-2e-3c-1.3728-0.4893-2.7547-0.9697-4.1484-1.4414-2.7875-0.9435-5.6174-1.8519-8.4844-2.7285-2.8663-0.8765-5.7709-1.7213-8.7109-2.5352h-2e-3c-10.292-2.8492-21.017-5.3282-32.055-7.5293-15.768-3.1443-32.171-5.7224-48.852-8-6.6723-0.911-13.389-1.773-20.127-2.6054-13.477-1.6649-27.04-3.2072-40.506-4.7637-10.099-1.1674-20.146-2.3442-30.059-3.586-3.3044-0.4139-6.593-0.8348-9.8652-1.2656-13.089-1.7229-25.896-3.5976-38.242-5.7617h-2e-3z" stroke-width="25"/>
<path d="m-743.68 900.04 1.6524 21.559-7.2734 0.1172 0.63672 177.37c7.32 1.6182 13.942 1.6089 20.32 1.0293l1.5391 20.064c9.6007 0.8133 18.921 1.2611 28.016 1.3672h2e-3c54.567 0.6358 100.96-11.042 150.48-30.041 5.5022-2.1109 11.044-4.3127 16.639-6.5976 4.1964-1.7138 8.4355-3.4881 12.699-5.293 4.2632-1.8046 8.551-3.6393 12.895-5.5293 15.755-6.8552 32.153-14.286 49.363-22.088 1.3306 9.3001 9.932 16.34 19.736 16.34h38.455c9.7612 0 18.312-6.9768 19.713-16.217 4.4638 2.0234 8.9424 4.053 13.293 6.0195 21.57 9.75 41.813 18.77 61.395 26.768 8.3922 3.4273 16.662 6.667 24.863 9.6953 13.67 5.0476 27.145 9.5094 40.672 13.277 2.7052 0.7536 5.412 1.4786 8.123 2.1758h2e-3c0.5349 0.1376 1.0722 0.2612 1.6074 0.3965 15.741 3.9802 31.624 7.0046 48.033 8.8809 1.4139 0.1616 2.83 0.3143 4.252 0.459 5.6883 0.5788 11.442 1.0215 17.277 1.3203 1.4588 0.075 2.9214 0.1406 4.3906 0.1972h2e-3c1.4686 0.057 2.9424 0.1043 4.4219 0.1426h2e-3c0.0279 7e-4 0.0561 0 0.084 0 4.4125 0.1133 8.8745 0.1444 13.393 0.092h2e-3c3.0309-0.035 6.0867-0.1086 9.1699-0.2207 1.542-0.056 3.0927-0.1217 4.6484-0.1973 4.6673-0.227 9.3969-0.5426 14.197-0.9492l1.5391-20.064c6.3781 0.5796 13 0.5889 20.32-1.0293l0.63672-177.37-7.2734-0.1172 1.6523-21.559h-2e-3c-24.692 4.3281-51.234 7.5001-78.166 10.613-13.466 1.5565-27.029 3.0988-40.506 4.7637-6.7383 0.8324-13.455 1.6944-20.127 2.6054-16.681 2.2776-33.084 4.8557-48.852 8-12.614 2.5155-24.822 5.3942-36.439 8.7735-4.3568 1.2672-8.6313 2.6042-12.812 4.0195-4.1812 1.4153-8.2694 2.9085-12.256 4.4863-5.3152 2.1037-10.448 4.3586-15.377 6.7813-2.4644 1.2113-4.879 2.4642-7.2383 3.7617s-4.6638 2.6393-6.9121 4.0273c-1.1242 0.694-2.2347 1.3998-3.3301 2.1172-2.3949 1.5686-4.713 3.1982-6.9648 4.8828-3.4115-6.0096-10-10.057-17.434-10.057h-38.455c-7.4556 0-14.255 4.074-17.652 10.113-1.2459-0.9336-2.5085-1.8544-3.7988-2.752-2.1317-1.4827-4.322-2.9167-6.5703-4.3047s-4.5548-2.7298-6.9141-4.0273c-2.3592-1.2975-4.7719-2.5504-7.2363-3.7617-3.6966-1.817-7.5086-3.5406-11.426-5.1758-3.9166-1.635-7.9388-3.1828-12.057-4.6504h-2e-3c-1.3728-0.4893-2.7547-0.9697-4.1484-1.4414-2.7875-0.9435-5.6174-1.8519-8.4844-2.7285-2.8663-0.8765-5.7709-1.7213-8.7109-2.5352h-2e-3c-10.292-2.8492-21.017-5.3282-32.055-7.5293-15.768-3.1443-32.171-5.7224-48.852-8-6.6723-0.911-13.389-1.773-20.127-2.6054-13.477-1.6649-27.04-3.2072-40.506-4.7637-10.099-1.1674-20.146-2.3442-30.059-3.586-3.3044-0.4139-6.593-0.8348-9.8652-1.2656-13.089-1.7229-25.896-3.5976-38.242-5.7617h-2e-3z" stroke-width="30"/>
<path d="m-743.68 900.04 1.6524 21.559-7.2734 0.1172 0.63672 177.37c7.32 1.6182 13.942 1.6089 20.32 1.0293l1.5391 20.064c9.6007 0.8133 18.921 1.2611 28.016 1.3672h2e-3c54.567 0.6358 100.96-11.042 150.48-30.041 5.5022-2.1109 11.044-4.3127 16.639-6.5976 4.1964-1.7138 8.4355-3.4881 12.699-5.293 4.2632-1.8046 8.551-3.6393 12.895-5.5293 15.755-6.8552 32.153-14.286 49.363-22.088 1.3306 9.3001 9.932 16.34 19.736 16.34h38.455c9.7612 0 18.312-6.9768 19.713-16.217 4.4638 2.0234 8.9424 4.053 13.293 6.0195 21.57 9.75 41.813 18.77 61.395 26.768 8.3922 3.4273 16.662 6.667 24.863 9.6953 13.67 5.0476 27.145 9.5094 40.672 13.277 2.7052 0.7536 5.412 1.4786 8.123 2.1758h2e-3c0.5349 0.1376 1.0722 0.2612 1.6074 0.3965 15.741 3.9802 31.624 7.0046 48.033 8.8809 1.4139 0.1616 2.83 0.3143 4.252 0.459 5.6883 0.5788 11.442 1.0215 17.277 1.3203 1.4588 0.075 2.9214 0.1406 4.3906 0.1972h2e-3c1.4686 0.057 2.9424 0.1043 4.4219 0.1426h2e-3c0.0279 7e-4 0.0561 0 0.084 0 4.4125 0.1133 8.8745 0.1444 13.393 0.092h2e-3c3.0309-0.035 6.0867-0.1086 9.1699-0.2207 1.542-0.056 3.0927-0.1217 4.6484-0.1973 4.6673-0.227 9.3969-0.5426 14.197-0.9492l1.5391-20.064c6.3781 0.5796 13 0.5889 20.32-1.0293l0.63672-177.37-7.2734-0.1172 1.6523-21.559h-2e-3c-24.692 4.3281-51.234 7.5001-78.166 10.613-13.466 1.5565-27.029 3.0988-40.506 4.7637-6.7383 0.8324-13.455 1.6944-20.127 2.6054-16.681 2.2776-33.084 4.8557-48.852 8-12.614 2.5155-24.822 5.3942-36.439 8.7735-4.3568 1.2672-8.6313 2.6042-12.812 4.0195-4.1812 1.4153-8.2694 2.9085-12.256 4.4863-5.3152 2.1037-10.448 4.3586-15.377 6.7813-2.4644 1.2113-4.879 2.4642-7.2383 3.7617s-4.6638 2.6393-6.9121 4.0273c-1.1242 0.694-2.2347 1.3998-3.3301 2.1172-2.3949 1.5686-4.713 3.1982-6.9648 4.8828-3.4115-6.0096-10-10.057-17.434-10.057h-38.455c-7.4556 0-14.255 4.074-17.652 10.113-1.2459-0.9336-2.5085-1.8544-3.7988-2.752-2.1317-1.4827-4.322-2.9167-6.5703-4.3047s-4.5548-2.7298-6.9141-4.0273c-2.3592-1.2975-4.7719-2.5504-7.2363-3.7617-3.6966-1.817-7.5086-3.5406-11.426-5.1758-3.9166-1.635-7.9388-3.1828-12.057-4.6504h-2e-3c-1.3728-0.4893-2.7547-0.9697-4.1484-1.4414-2.7875-0.9435-5.6174-1.8519-8.4844-2.7285-2.8663-0.8765-5.7709-1.7213-8.7109-2.5352h-2e-3c-10.292-2.8492-21.017-5.3282-32.055-7.5293-15.768-3.1443-32.171-5.7224-48.852-8-6.6723-0.911-13.389-1.773-20.127-2.6054-13.477-1.6649-27.04-3.2072-40.506-4.7637-10.099-1.1674-20.146-2.3442-30.059-3.586-3.3044-0.4139-6.593-0.8348-9.8652-1.2656-13.089-1.7229-25.896-3.5976-38.242-5.7617h-2e-3z" stroke-width="40"/>
<path d="m-743.68 900.04 1.6524 21.559-7.2734 0.1172 0.63672 177.37c7.32 1.6182 13.942 1.6089 20.32 1.0293l1.5391 20.064c9.6007 0.8133 18.921 1.2611 28.016 1.3672h2e-3c54.567 0.6358 100.96-11.042 150.48-30.041 5.5022-2.1109 11.044-4.3127 16.639-6.5976 4.1964-1.7138 8.4355-3.4881 12.699-5.293 4.2632-1.8046 8.551-3.6393 12.895-5.5293 15.755-6.8552 32.153-14.286 49.363-22.088 1.3306 9.3001 9.932 16.34 19.736 16.34h38.455c9.7612 0 18.312-6.9768 19.713-16.217 4.4638 2.0234 8.9424 4.053 13.293 6.0195 21.57 9.75 41.813 18.77 61.395 26.768 8.3922 3.4273 16.662 6.667 24.863 9.6953 13.67 5.0476 27.145 9.5094 40.672 13.277 2.7052 0.7536 5.412 1.4786 8.123 2.1758h2e-3c0.5349 0.1376 1.0722 0.2612 1.6074 0.3965 15.741 3.9802 31.624 7.0046 48.033 8.8809 1.4139 0.1616 2.83 0.3143 4.252 0.459 5.6883 0.5788 11.442 1.0215 17.277 1.3203 1.4588 0.075 2.9214 0.1406 4.3906 0.1972h2e-3c1.4686 0.057 2.9424 0.1043 4.4219 0.1426h2e-3c0.0279 7e-4 0.0561 0 0.084 0 4.4125 0.1133 8.8745 0.1444 13.393 0.092h2e-3c3.0309-0.035 6.0867-0.1086 9.1699-0.2207 1.542-0.056 3.0927-0.1217 4.6484-0.1973 4.6673-0.227 9.3969-0.5426 14.197-0.9492l1.5391-20.064c6.3781 0.5796 13 0.5889 20.32-1.0293l0.63672-177.37-7.2734-0.1172 1.6523-21.559h-2e-3c-24.692 4.3281-51.234 7.5001-78.166 10.613-13.466 1.5565-27.029 3.0988-40.506 4.7637-6.7383 0.8324-13.455 1.6944-20.127 2.6054-16.681 2.2776-33.084 4.8557-48.852 8-12.614 2.5155-24.822 5.3942-36.439 8.7735-4.3568 1.2672-8.6313 2.6042-12.812 4.0195-4.1812 1.4153-8.2694 2.9085-12.256 4.4863-5.3152 2.1037-10.448 4.3586-15.377 6.7813-2.4644 1.2113-4.879 2.4642-7.2383 3.7617s-4.6638 2.6393-6.9121 4.0273c-1.1242 0.694-2.2347 1.3998-3.3301 2.1172-2.3949 1.5686-4.713 3.1982-6.9648 4.8828-3.4115-6.0096-10-10.057-17.434-10.057h-38.455c-7.4556 0-14.255 4.074-17.652 10.113-1.2459-0.9336-2.5085-1.8544-3.7988-2.752-2.1317-1.4827-4.322-2.9167-6.5703-4.3047s-4.5548-2.7298-6.9141-4.0273c-2.3592-1.2975-4.7719-2.5504-7.2363-3.7617-3.6966-1.817-7.5086-3.5406-11.426-5.1758-3.9166-1.635-7.9388-3.1828-12.057-4.6504h-2e-3c-1.3728-0.4893-2.7547-0.9697-4.1484-1.4414-2.7875-0.9435-5.6174-1.8519-8.4844-2.7285-2.8663-0.8765-5.7709-1.7213-8.7109-2.5352h-2e-3c-10.292-2.8492-21.017-5.3282-32.055-7.5293-15.768-3.1443-32.171-5.7224-48.852-8-6.6723-0.911-13.389-1.773-20.127-2.6054-13.477-1.6649-27.04-3.2072-40.506-4.7637-10.099-1.1674-20.146-2.3442-30.059-3.586-3.3044-0.4139-6.593-0.8348-9.8652-1.2656-13.089-1.7229-25.896-3.5976-38.242-5.7617h-2e-3z" stroke-width="55"/>
</g>
</g>
</svg>
