<svg width="128" height="128" version="1.1" viewBox="0 0 256 256" xmlns="http://www.w3.org/2000/svg" xmlns:xlink="http://www.w3.org/1999/xlink">
<defs>
<linearGradient id="linearGradient3445" x1="76" x2="38" y1="1044.4" y2="957.86" gradientTransform="translate(1,48)" gradientUnits="userSpaceOnUse">
<stop stop-color="#e6e6e6" offset="0"/>
<stop stop-color="#f9f9f9" offset="1"/>
</linearGradient>
<linearGradient id="linearGradient3507" x1="49.569" x2="51.952" y1="1030.1" y2="968.57" gradientTransform="translate(1,48)" gradientUnits="userSpaceOnUse">
<stop stop-color="#b2b2b2" offset="0"/>
<stop stop-color="#6a6a6a" offset="1"/>
</linearGradient>
<linearGradient id="linearGradient3571" x1="734.68" x2="450.43" y1="-1005.7" y2="-1060.1" gradientTransform="matrix(.4131 -.2385 -.2385 -.4131 -383.98 787.52)" gradientUnits="userSpaceOnUse">
<stop stop-color="#d0d0d0" offset="0"/>
<stop stop-color="#fcfcfc" offset="1"/>
</linearGradient>
<linearGradient id="linearGradient3573" x1="564.39" x2="462.09" y1="929.21" y2="913.76" gradientTransform="matrix(.4131 -.2385 .2385 .4131 -383.98 787.52)" gradientUnits="userSpaceOnUse">
<stop stop-color="#e3e3e3" offset="0"/>
<stop stop-color="#efefef" offset="1"/>
</linearGradient>
</defs>
<g transform="translate(0 -844.36)">
<g transform="matrix(2.7978 0 0 2.7978 -8.0899 -1973.7)">
<rect x="4.5" y="1008.9" width="89" height="89" rx="10.595" ry="10.595" opacity=".05"/>
<g transform="translate(1,48)">
<rect x="4" y="961.36" width="88" height="88" rx="10.476" ry="10.476" opacity=".05"/>
<rect x="4.5" y="961.86" width="87" height="87" rx="10.357" ry="10.357" opacity=".05"/>
<rect x="5" y="962.36" width="86" height="86" rx="10.238" ry="10.238" opacity=".1"/>
<rect x="5.5" y="962.86" width="85" height="85" rx="10.119" ry="10.119" opacity=".1"/>
<rect x="6" y="963.36" width="84" height="84" rx="10" ry="10" opacity=".3"/>
</g>
<rect x="7" y="1010.4" width="84" height="84" rx="10" ry="10" fill="url(#linearGradient3445)"/>
<rect x="13" y="1016.4" width="72" height="72" rx="8.5714" ry="8.5714" fill="url(#linearGradient3507)"/>
<path d="m83.094 1023.5-63.938 36.906c-1.763 1.0179-2.9866 4.112-1.9688 5.875l12.688 22.031h46.562c4.7486 0 8.5625-3.8139 8.5625-8.5625v-50.875c0-2.0521-0.7122-3.9025-1.9062-5.375z" opacity=".05"/>
<path d="m83.094 1022.5-63.938 36.906c-1.763 1.0179-2.9866 4.112-1.9688 5.875l13.281 23.031h45.969c4.7486 0 8.5625-3.8139 8.5625-8.5625v-51.875c0-2.0521-0.7122-3.9025-1.9062-5.375z" opacity=".05"/>
<path d="m83.094 1021.5-63.938 36.906c-1.763 1.0179-2.9866 4.112-1.9688 5.875l13.844 24.031h45.406c4.7486 0 8.5625-3.8139 8.5625-8.5625v-52.875c0-2.0521-0.7122-3.9025-1.9062-5.375z" opacity=".05"/>
<path d="m83.094 1020.5-63.938 36.906c-1.763 1.0179-2.9866 4.112-1.9688 5.875l14.438 25.031h44.812c4.7486 0 8.5625-3.8139 8.5625-8.5625v-53.875c0-2.0521-0.7122-3.9025-1.9062-5.375z" opacity=".05"/>
<path d="m83.094 1019.5-63.938 36.906c-1.763 1.0179-2.9866 4.112-1.9688 5.875l15 26.031h44.25c4.7486 0 8.5625-3.8139 8.5625-8.5625v-54.875c0-2.0521-0.7122-3.9025-1.9062-5.375z" opacity=".1"/>
<path d="m83.562 1020.2-64.219 37.094c-1.7189 0.9924-2.3049 3.1561-1.3125 4.875l15.125 26.219h43.281c4.7486 0 8.5625-3.8139 8.5625-8.5625v-54.875c0-1.765-0.52998-3.3896-1.4375-4.75z" fill="url(#linearGradient3573)"/>
<path d="m85 1035.5-61.781 35.656 0.25 0.4063 61.531-35.531z" opacity=".3"/>
<path d="m85 1036-61.531 35.531 9.7188 16.812h43.25c4.7486 0 8.5625-3.8139 8.5625-8.5625z" fill="url(#linearGradient3571)"/>
<path d="m85 1034.9-62 35.812 0.21875 0.4062 61.781-35.656z" opacity=".15"/>
<circle transform="rotate(-30)" cx="-507.06" cy="932.52" r="3.651" fill="#ff6052" stroke="#e14c45" stroke-width=".44935"/>
<circle transform="rotate(-30)" cx="-494.83" cy="932.52" r="3.651" fill="#ffbe04" stroke="#f0b10e" stroke-width=".44935"/>
<circle transform="rotate(-30)" cx="-482.69" cy="932.52" r="3.6522" fill="#14ce36" stroke="#09b63a" stroke-width=".4495"/>
<g transform="translate(1,48)">
<path d="m20.557 968.36c-4.7486 0-8.5574 3.8088-8.5574 8.5574v54.885c0 4.7485 3.8088 8.5574 8.5574 8.5574h54.885c4.7486 0 8.5574-3.8089 8.5574-8.5574v-54.885c0-4.7486-3.8088-8.5574-8.5574-8.5574zm0.92213 1.1803h53.041c4.5929 0 8.2992 3.7063 8.2992 8.2992v53.041c0 4.5929-3.7063 8.2993-8.2992 8.2993h-53.041c-4.5929 0-8.2992-3.7064-8.2992-8.2993v-53.041c0-4.5929 3.7063-8.2992 8.2992-8.2992z" opacity=".05"/>
<path d="m20.557 968.36c-4.7486 0-8.5574 3.8088-8.5574 8.5574v54.885c0 4.7485 3.8088 8.5574 8.5574 8.5574h54.885c4.7486 0 8.5574-3.8089 8.5574-8.5574v-54.885c0-4.7486-3.8088-8.5574-8.5574-8.5574zm1.8074 2.3607h51.27c4.4372 0 8.0041 3.5669 8.0041 8.0041v51.27c0 4.4372-3.5669 8.0042-8.0041 8.0042h-51.27c-4.4372 0-8.0041-3.567-8.0041-8.0042v-51.27c0-4.4372 3.5669-8.0041 8.0041-8.0041z" opacity=".05"/>
<path d="m20.557 968.36c-4.7486 0-8.5574 3.8088-8.5574 8.5574v54.885c0 4.7485 3.8088 8.5574 8.5574 8.5574h54.885c4.7486 0 8.5574-3.8089 8.5574-8.5574v-54.885c0-4.7486-3.8088-8.5574-8.5574-8.5574zm0.47951 0.59017h53.926c4.6707 0 8.4467 3.776 8.4467 8.4467v53.926c0 4.6706-3.776 8.4467-8.4467 8.4467h-53.926c-4.6707 0-8.4467-3.7761-8.4467-8.4467v-53.926c0-4.6707 3.776-8.4467 8.4467-8.4467z" opacity=".05"/>
<path d="m20.557 968.36c-4.7486 0-8.5574 3.8088-8.5574 8.5574v54.885c0 4.7485 3.8088 8.5574 8.5574 8.5574h54.885c4.7486 0 8.5574-3.8089 8.5574-8.5574v-54.885c0-4.7486-3.8088-8.5574-8.5574-8.5574zm1.3648 1.7705h52.156c4.515 0 8.1516 3.6366 8.1516 8.1516v52.156c0 4.515-3.6366 8.1517-8.1516 8.1517h-52.156c-4.515 0-8.1516-3.6367-8.1516-8.1517v-52.156c0-4.515 3.6366-8.1516 8.1516-8.1516z" opacity=".05"/>
</g>
<path d="m83.562 1020.2-64.219 37.094c-1.6486 0.9518-2.235 2.9754-1.4062 4.6563-0.42304-1.5307 0.21005-3.1963 1.6562-4.0313l64.219-37.094c0.22688 0.3401 0.41644 0.6913 0.59375 1.0625-0.22874-0.5948-0.49446-1.1639-0.84375-1.6875z" fill="#fff" opacity=".5"/>
</g>
</g>
</svg>
