<svg width="128" height="128" viewBox="0 0 128 128" xmlns="http://www.w3.org/2000/svg">
<linearGradient id="a" x1="66.016" x2="64.334" y1="119.35" y2="1.3385" gradientUnits="userSpaceOnUse">
<stop stop-color="#cccdd1" offset="0"/>
<stop stop-color="#f7f9f9" offset="1"/>
</linearGradient>
<linearGradient id="b" x1="64.429" x2="63.703" y1="9.497" y2="114.03" gradientUnits="userSpaceOnUse">
<stop stop-color="#c2aaf1" offset="0"/>
<stop stop-color="#8a43ce" offset="1"/>
</linearGradient>
<filter id="c" x="-.27997" y="-.27449" width="1.5599" height="1.549" color-interpolation-filters="sRGB">
<feGaussianBlur stdDeviation="7.5012652"/>
</filter>
<circle cx="64.333" cy="64.226" r="60.566" fill="url(#b)" stroke="#cccdd1" stroke-width="4.6449"/>
<path d="m64.334 1.3385c-34.705 0-62.888 28.182-62.888 62.887 0 34.705 28.184 62.888 62.888 62.888 34.705 0 62.887-28.184 62.887-62.888 0-34.705-28.182-62.887-62.887-62.887zm0 4.6449c32.194 0 58.242 26.048 58.242 58.242 0 32.194-26.048 58.243-58.242 58.243-32.194 0-58.243-26.049-58.243-58.243 0-32.194 26.049-58.242 58.243-58.242z" fill="url(#a)"/>
<g stroke-width="2.5631">
<path d="m76.556 31.457c-0.2318-0.02602-0.46485-0.01896-0.72086 0.01999-0.34135 0.05211-0.72512 0.15965-1.2115 0.30536-3.482 1.0432-4.7807 4.1108-4.7807 9.8718 0 2.7177-0.28615 5.5703-0.63576 6.3376-0.36854 0.80885-1.7253 1.9488-3.2339 2.7132-5.038 2.5529-12.401 8.8078-20.009 16.305-4.229 4.1674-7.5657 7.9975-9.2911 9.1359-3.1284 2.0641-3.1289 2.0673-1.5869 2.3778l1.5418 0.31538-1.4567 0.40548c-0.80206 0.22491-1.4567 0.61177-1.4567 0.85603 0 0.57622 4.1033-0.13646 9.0659-2.1976 3.768-1.5651 4.1443-1.9078 15.063-2.9635 3.9321-0.38037 4.05-0.24575 1.8422 2.2177-0.94585 1.0553-0.92092 1.2052 1.1364 5.9772 2.0929 4.8545 2.7833 9.169 1.5819 9.9119-0.87056 0.53802-0.54176 1.4746 1.0913 2.4579h-0.01513c2.4892 1.3924 5.1016 1.677 7.7694 1.4618 1.2042-0.0487 1.1755-0.20356 0.42551-0.77093-0.56614-0.42831-1.5952-0.78093-2.2877-0.78093-2.1932 0-4.3843-1.4568-4.0148-2.9285 0.18103-0.7216 0.06429-1.6316-0.26031-2.0224-0.37189-0.4482-0.57096-3.1887-0.53564-7.4139 0.04821-5.7669 0.20146-6.886 1.0813-8.0046 0.56264-0.71531 1.3323-1.9014 1.7121-2.6332 0.37971-0.73204 2.9026-2.3915 4.6656-3.6894 1.763-1.2981 3.8272-3.1757 4.5855-4.17 3.1558-4.1375 4.094-10.19 2.7583-17.776-0.98474-5.5927-1.5361-6.4289 1.2465-7.7493 3.4019-1.6143 11.586 0.0051 16.174 2.3778 0.84708 0.43805 1.375 0.53154 1.1764 0.21025-1.102-1.7831-6.1955-4.4649-13.226-5.3364-1.7639-0.21863-3.8282-2.5013-5.4415-3.5042-1.3622-0.84681-2.0579-1.2385-2.7533-1.3166zm-13.651 43.858c0.42645-0.14212 0.58211 0.63535 0.31037 2.2177-0.21289 1.2397-0.36388 3.0317-0.3354 3.9798 0.05995 1.997-0.20694 2.1612-1.0262 0.63076-0.81634-1.5254-0.80594-3.9992 0.02512-5.5516 0.41339-0.77247 0.77036-1.1912 1.0262-1.2765z" fill-opacity=".44091" filter="url(#c)" opacity=".329"/>
<path d="m76.556 31.457c-0.2318-0.02602-0.46485-0.01896-0.72086 0.01999-0.34135 0.05211-0.72512 0.15965-1.2115 0.30536-3.482 1.0432-4.7807 4.1108-4.7807 9.8718 0 2.7177-0.28615 5.5703-0.63576 6.3376-0.36854 0.80885-1.7253 1.9488-3.2339 2.7132-5.038 2.5529-12.401 8.8078-20.009 16.305-4.229 4.1674-7.5657 7.9975-9.2911 9.1359-3.1284 2.0641-3.1289 2.0673-1.5869 2.3778l1.5418 0.31538-1.4567 0.40548c-0.80206 0.22491-1.4567 0.61177-1.4567 0.85603 0 0.57622 4.1033-0.13646 9.0659-2.1976 3.768-1.5651 4.1443-1.9078 15.063-2.9635 3.9321-0.38037 4.05-0.24575 1.8422 2.2177-0.94585 1.0553-0.92092 1.2052 1.1364 5.9772 2.0929 4.8545 2.7833 9.169 1.5819 9.9119-0.87056 0.53802-0.54176 1.4746 1.0913 2.4579h-0.01513c2.4892 1.3924 5.1016 1.677 7.7694 1.4618 1.2042-0.0487 1.1755-0.20356 0.42551-0.77093-0.56614-0.42831-1.5952-0.78093-2.2877-0.78093-2.1932 0-4.3843-1.4568-4.0148-2.9285 0.18103-0.7216 0.06429-1.6316-0.26031-2.0224-0.37189-0.4482-0.57096-3.1887-0.53564-7.4139 0.04821-5.7669 0.20146-6.886 1.0813-8.0046 0.56264-0.71531 1.3323-1.9014 1.7121-2.6332 0.37971-0.73204 2.9026-2.3915 4.6656-3.6894 1.763-1.2981 3.8272-3.1757 4.5855-4.17 3.1558-4.1375 4.094-10.19 2.7583-17.776-0.98474-5.5927-1.5361-6.4289 1.2465-7.7493 3.4019-1.6143 11.586 0.0051 16.174 2.3778 0.84708 0.43805 1.375 0.53154 1.1764 0.21025-1.102-1.7831-6.1955-4.4649-13.226-5.3364-1.7639-0.21863-3.8282-2.5013-5.4415-3.5042-1.3622-0.84681-2.0579-1.2385-2.7533-1.3166zm-13.651 43.858c0.42645-0.14212 0.58211 0.63535 0.31037 2.2177-0.21289 1.2397-0.36388 3.0317-0.3354 3.9798 0.05995 1.997-0.20694 2.1612-1.0262 0.63076-0.81634-1.5254-0.80594-3.9992 0.02512-5.5516 0.41339-0.77247 0.77036-1.1912 1.0262-1.2765z" fill="#fff"/>
</g>
</svg>
