<svg width="128" height="128" version="1.1" viewBox="0 0 128 128" xmlns="http://www.w3.org/2000/svg" xmlns:xlink="http://www.w3.org/1999/xlink">
<defs>
<linearGradient id="linearGradient825" x1="-741.83" x2="-741.83" y1="959.05" y2="93.836" gradientTransform="matrix(.13668 0 0 .13668 162.31 -5.9893)" gradientUnits="userSpaceOnUse">
<stop stop-color="#ccd4da" offset="0"/>
<stop stop-color="#fff" offset="1"/>
</linearGradient>
<linearGradient id="linearGradient835" x1="-738.76" x2="-738.76" y1="931.43" y2="152.13" gradientTransform="matrix(.13668 0 0 .13668 162.31 -5.9893)" gradientUnits="userSpaceOnUse">
<stop stop-color="#dfe3e8" offset="0"/>
<stop stop-color="#fefeff" offset="1"/>
</linearGradient>
</defs>
<circle cx="63.592" cy="64.286" r="61.38" fill="url(#linearGradient825)"/>
<circle cx="63.592" cy="64.286" r="55.09" fill="url(#linearGradient835)"/>
<path d="m76.021 31.257c-0.2598-0.0052-0.51694 0.01323-0.77419 0.05288-3.087 0.47662-5.47 4.2056-9.609 11.837l-4.4895 8.277 13.939 17.173 0.74762 0.74382h24.171c-2.7114-6.0527-14.049-29.06-16.239-32.516-1.171-1.8481-3.5735-4.0648-5.3434-4.9297-0.82797-0.40465-1.6227-0.62195-2.4023-0.63759zm-27.871 16.713c-0.17941-0.0068-0.36019 0.0037-0.54271 0.03024-1.4597 0.21392-3.0756 1.4765-5.8595 3.48-5.4832 4.615-11.098 12.579-14.383 17.859h40.8c-3.3467-5.012-11.207-13.908-15.658-18.512-1.8734-1.9288-3.1009-2.8106-4.3567-2.8577zm-22.231 27.199c0.36764 0.66558 0.76253 1.3683 1.2486 2.1252 1.2279 1.9124 4.3371 7.6057 6.9108 12.649 5.6265 11.025 8.5434 15.233 11.905 17.18 5.6695 3.2832 8.9107-0.22122 19.078-20.622 2.6107-5.2387 4.4326-9.1381 5.3776-11.332zm50.702 0-6.7703 13.419c3.9459 3.3762 7.7758 6.1706 10.44 6.0037 6.0802-0.38072 7.8159-4.5695 14.421-13.92l3.8861-5.5028z" opacity=".1" stroke-width="1.9431"/>
<path d="m76.62 73.225-6.7684 13.421c3.9459 3.3762 7.7761 6.1697 10.44 6.0028 6.0802-0.38072 7.8132-4.5715 14.418-13.922l3.8857-5.5013z" fill="#4a4a4a" stroke-width="1.9431"/>
<path d="m25.919 73.225c0.36764 0.66564 0.76121 1.3666 1.2472 2.1235 1.2279 1.9124 4.3399 7.6067 6.9136 12.65 5.6265 11.025 8.5409 15.235 11.903 17.182 5.6695 3.2833 8.9126-0.22151 19.08-20.622 2.6107-5.2387 4.4311-9.1389 5.376-11.333z" fill="#0eb5fd" stroke-width="1.9431"/>
<path d="m75.245 29.365c-3.087 0.47662-5.4675 4.2064-9.6066 11.837l-4.4895 8.2777 13.937 17.172 0.74905 0.74383h24.169c-2.7114-6.0527-14.047-29.06-16.237-32.516-1.171-1.8481-3.5751-4.0655-5.3449-4.9305-1.104-0.53955-2.1482-0.74331-3.1772-0.58442z" fill="#f05abe" stroke-width="1.9431"/>
<path d="m47.608 46.055c-1.4597 0.21392-3.0761 1.4791-5.86 3.4826-5.4832 4.615-11.097 12.578-14.382 17.859h40.801c-3.3467-5.012-11.208-13.909-15.659-18.513-2.141-2.2044-3.4402-3.0418-4.8999-2.8278z" fill="#00d49f" stroke-width="1.9431"/>
</svg>
