<svg width="136.53" height="136.53" version="1.1" viewBox="0 0 136.53 136.53" xmlns="http://www.w3.org/2000/svg" xmlns:xlink="http://www.w3.org/1999/xlink">
<defs>
<linearGradient id="linearGradient888" x1="92.724" x2="49.227" y1="134.69" y2="7.8758" gradientUnits="userSpaceOnUse">
<stop stop-color="#5d6cf5" offset="0"/>
<stop stop-color="#669ddc" offset=".27748"/>
<stop stop-color="#72bce7" offset=".55496"/>
<stop stop-color="#b4dfae" offset=".80492"/>
<stop stop-color="#f7daac" offset="1"/>
</linearGradient>
</defs>
<filter x="-.069933" y="-.054406" width="1.1399" height="1.1088" color-interpolation-filters="sRGB">
<feGaussianBlur stdDeviation="1.9764485"/>
</filter>
<path d="m68.113 2.2168c-36.979 1e-7 -67.023 30.042-67.023 67.021-6e-7 36.979 30.044 67.021 67.023 67.021 36.979 0 67.021-30.042 67.021-67.021 0-36.979-30.042-67.021-67.021-67.021z" color="#000000" color-rendering="auto" dominant-baseline="auto" fill="url(#linearGradient888)" image-rendering="auto" shape-rendering="auto" solid-color="#000000" style="font-feature-settings:normal;font-variant-alternates:normal;font-variant-caps:normal;font-variant-ligatures:normal;font-variant-numeric:normal;font-variant-position:normal;isolation:auto;mix-blend-mode:normal;shape-padding:0;text-decoration-color:#000000;text-decoration-line:none;text-decoration-style:solid;text-indent:0;text-orientation:mixed;text-transform:none;white-space:normal"/>
<path d="m82.224 26.738c-5.9129 0.12255-23.013 6.9852-22.954 13.301l-0.10427 1.566c-0.08329 15.266 6.2539 27.322 6.0061 42.516-0.60538 0.95885-1.3517 1.4498-2.3809 1.7246-12.43-15.061-23.81 15.048-9.8457 20.008 40.393 19.463 20.061-33.857 19.727-53.242 5.4835-3.5089 14.86-2.4868 17.23-7.377 12.728-13.293 6.6691-11.011-4.8984-12.611 6.6125-4.9505 4.6129-5.0628-2.7798-5.8847zm-0.22017 7.6249c0.93993 0.0074 1.8326 0.08306 2.6367 0.22656 0.0012 2.11e-4 0.0027-2.12e-4 0.0039 0 1.3748 0.25823 2.304 0.9822 2.9785 2.0273 0.67591 1.0473 1.0505 2.435 1.1113 3.8535 0.06079 1.4185-0.19254 2.8601-0.66992 3.9746-0.47738 1.1145-1.1592 1.8514-1.8457 2.1055-0.04847 0.01782-0.09548 0.03937-0.14062 0.06445-1.9716 1.1054-4.6802 1.4094-7.4277 1.8125-2.7475 0.40308-5.5928 0.91768-7.6641 2.9082-0.18693 0.17952-0.29686 0.4246-0.30664 0.68359-0.50315 13.35-0.21345 26.698-0.34961 40-0.30358 5.9763-1.7487 8.9774-4.375 10.555-2.6167 1.5715-6.8066 1.7755-12.668 1.3027-6.3068-1.2372-7.942-10.851-2.5098-14.125 0.0557-0.03325 0.10803-0.07185 0.15625-0.11523 1.8968-1.7187 4.7672-1.5846 7.8301-1.5156 1.5314 0.03447 3.0816 0.04651 4.543-0.34375 1.4614-0.39026 2.8454-1.2602 3.7324-2.8125 0.08312-0.14598 0.12812-0.31055 0.13086-0.47852 0.2557-15.387 0.15052-27.5 0.23438-42.869 1.58e-4 -0.02345-5.09e-4 -0.0469-2e-3 -0.07031-0.0584-0.90663 0.2946-1.7545 1.0762-2.6211s1.9892-1.6949 3.4434-2.3848c2.9084-1.3797 6.7881-2.2038 10.082-2.1777z" color="#000000" color-rendering="auto" dominant-baseline="auto" fill-opacity=".064639" image-rendering="auto" shape-rendering="auto" solid-color="#000000" style="font-feature-settings:normal;font-variant-alternates:normal;font-variant-caps:normal;font-variant-ligatures:normal;font-variant-numeric:normal;font-variant-position:normal;isolation:auto;mix-blend-mode:normal;paint-order:fill markers stroke;shape-padding:0;text-decoration-color:#000000;text-decoration-line:none;text-decoration-style:solid;text-indent:0;text-orientation:mixed;text-transform:none;white-space:normal"/>
<path d="m68.111 9.7168a59.522 59.522 0 0 0-59.521 59.521 59.522 59.522 0 0 0 59.523 59.521 59.522 59.522 0 0 0 59.521-59.521 59.522 59.522 0 0 0-59.523-59.521zm13.9 23.646c0.9892 0.007838 1.9372 0.086417 2.8086 0.24219 6.5969 1.228 5.9219 12.337 1.7461 13.883-4.4605 2.5008-11.298 1.1195-14.887 4.5684-0.50195 13.319-0.21265 26.665-0.34961 39.996-0.61794 12.281-6.277 13.79-18.197 12.818-7.2498-1.3814-9.1154-12.211-2.8711-15.975 4.5424-4.1159 12.888 0.8578 15.908-4.4277 0.25548-15.374 0.15048-27.481 0.23438-42.857-0.31425-4.8784 8.683-8.3029 15.607-8.248z" fill="#fff" style="paint-order:fill markers stroke"/>
</svg>
