<svg width="128" height="128" version="1.1" viewBox="0 0 128 128" xmlns="http://www.w3.org/2000/svg" xmlns:xlink="http://www.w3.org/1999/xlink">
<defs>
<linearGradient id="linearGradient849" x1="60.022" x2="62.679" y1="9.4465" y2="119.01" gradientUnits="userSpaceOnUse">
<stop stop-color="#46bde7" offset="0"/>
<stop stop-color="#226ad8" stop-opacity=".88973" offset="1"/>
</linearGradient>
</defs>
<linearGradient id="b" x1="66.016" x2="64.334" y1="119.35" y2="1.3385" gradientUnits="userSpaceOnUse">
<stop stop-color="#cccdd1" offset="0"/>
<stop stop-color="#f7f9f9" offset="1"/>
</linearGradient>
<filter x="-.10578" y="-.12938" width="1.2116" height="1.2588" color-interpolation-filters="sRGB">
<feGaussianBlur stdDeviation="1.2811285"/>
</filter>
<circle cx="64.333" cy="64.226" r="60.566" fill="url(#linearGradient849)" stroke="#cccdd1" stroke-width="4.6449"/>
<path d="m64.334 1.3385c-34.705 0-62.888 28.182-62.888 62.887 0 34.705 28.184 62.888 62.888 62.888 34.705 0 62.887-28.184 62.887-62.888 0-34.705-28.182-62.887-62.887-62.887zm0 4.6449c32.194 0 58.242 26.048 58.242 58.242 0 32.194-26.048 58.243-58.242 58.243-32.194 0-58.243-26.049-58.243-58.243 0-32.194 26.049-58.242 58.243-58.242z" fill="url(#b)"/>
<path d="m81.732 35.608c-11.179 0-13.275 16.987-6.9816 16.987 6.2872 0 18.167-16.987 6.9816-16.987zm-17.214 2.612c-0.17822 0-0.36875 0.01839-0.56542 0.03072-6.3363 0.79896-4.1115 11.523-0.7375 11.726 3.2634 0.19052 6.8341-11.738 1.2906-11.763zm-10.989 3.9579c-0.38719-0.02458-0.81125 0.04917-1.2906 0.24583-5.0949 2.0896-0.77437 10.724 2.0773 10.141 2.5874-0.52239 2.9561-10.147-0.78666-10.386zm-8.3091 7.0554c-0.4425-0.01219-0.92187 0.14135-1.432 0.5224-4.0747 3.0422 1.3767 10.393 3.7735 9.2494 2.0957-0.99562 0.75594-9.6551-2.3416-9.7718zm24.073 7.0185c-8.8315-0.15364-20.478 4.3266-22.469 13.336-2.151 9.7411 8.8561 23.256 20.343 23.256 5.648 0 12.169-5.1625 13.386-11.708 0.93416-4.9843-10.958-2.9869-10.534 0.31344 0.51625 3.9579-2.8639 5.9123-6.1704 3.3618-10.54-8.1186 17.442-12.169 15.598-23.262-0.5777-3.4478-4.8613-5.2055-10.159-5.2977z" fill="#fffbfb" stroke-width="2.0659"/>
</svg>
