<svg width="128" height="128" version="1.1" viewBox="0 0 128 128" xmlns="http://www.w3.org/2000/svg" xmlns:xlink="http://www.w3.org/1999/xlink">
<defs>
<linearGradient id="linearGradient825" x1="-741.83" x2="-741.83" y1="959.05" y2="93.836" gradientTransform="matrix(.13668 0 0 .13668 162.31 -5.9893)" gradientUnits="userSpaceOnUse">
<stop stop-color="#dc3074" offset="0"/>
<stop stop-color="#e96683" offset="1"/>
</linearGradient>
<linearGradient id="linearGradient835" x1="-738.76" x2="-738.76" y1="931.43" y2="152.13" gradientTransform="matrix(.13668 0 0 .13668 162.31 -5.9893)" gradientUnits="userSpaceOnUse">
<stop stop-color="#f0317e" offset="0"/>
<stop stop-color="#e85e7c" offset="1"/>
</linearGradient>
</defs>
<circle cx="63.592" cy="64.286" r="61.38" fill="url(#linearGradient825)"/>
<circle cx="63.592" cy="64.286" r="55.09" fill="url(#linearGradient835)"/>
<g transform="translate(-1.9676)" fill="none" stroke-linecap="round" stroke-width="3">
<path d="m74.241 38.898 7.0686-10.989" color="#000000"/>
<path d="m52.103 38.898-7.0686-10.989" color="#000000"/>
</g>
<path d="m41.843 32.345c-13.24 0.0013-23.971 10.737-23.971 23.977 0 24.278 32.735 30.445 46.168 49.299 11.112-17.98 44.629-29.173 45.271-49.299 4.7e-4 -13.241-10.733-23.977-23.975-23.977-9.3426 0.017855-17.823 5.4629-21.73 13.949-3.9121-8.4969-12.409-13.944-21.764-13.949zm5.8965 23.291c0.1074-0.01217 0.21859-0.01026 0.33203 0.0078l14.168 2.2578v24.438l-14.168-2.2578c-0.90753-0.14455-1.6602-0.73924-1.6602-1.6582v-21.119c0-0.8041 0.57636-1.583 1.3281-1.668zm31.705 0c0.75203 0.08526 1.3281 0.86387 1.3281 1.668v21.119c0 0.91897-0.75263 1.5137-1.6602 1.6582l-14.168 2.2578v-24.438l14.168-2.2578c0.11344-0.01806 0.2246-0.01999 0.33203-0.0078zm-3.3418 3.0664-9.8516 1.1855c-0.20926 0.02518-0.35721 0.21457-0.33203 0.42383 0.02518 0.20926 0.21457 0.35721 0.42383 0.33203l9.8516-1.1855c0.20926-0.02518 0.35721-0.21457 0.33203-0.42383-0.02518-0.20926-0.21457-0.35721-0.42383-0.33203zm0 2.5156-9.8516 1.1855c-0.20926 0.02518-0.35721 0.21262-0.33203 0.42188s0.21457 0.35916 0.42383 0.33398l9.8516-1.1855c0.20926-0.02518 0.35721-0.21457 0.33203-0.42383-0.02518-0.20926-0.21457-0.35721-0.42383-0.33203zm0 2.5156-9.8516 1.1836c-0.20926 0.02518-0.35721 0.21457-0.33203 0.42383 0.02518 0.20926 0.21457 0.35721 0.42383 0.33203l9.8516-1.1855c0.20926-0.02518 0.35721-0.21262 0.33203-0.42188-0.02518-0.20926-0.21457-0.35721-0.42383-0.33203z" fill="#fff"/>
</svg>
