<svg width="128" height="128" version="1.1" viewBox="0 0 33.867 33.867" xmlns="http://www.w3.org/2000/svg" xmlns:xlink="http://www.w3.org/1999/xlink">
<defs>
<linearGradient id="linearGradient1632" x1="132.21" x2="132.21" y1="42.152" y2="70.68" gradientTransform="matrix(.97573 0 0 .97573 -111.78 -37.203)" gradientUnits="userSpaceOnUse">
<stop stop-color="#14afe1" offset="0"/>
<stop stop-color="#0d5fd1" offset="1"/>
</linearGradient>
<linearGradient id="linearGradient1386" x1="6.6664" x2="6.6664" y1="9.3061" y2="51.702" gradientUnits="userSpaceOnUse">
<stop stop-color="#fff" offset="0"/>
<stop stop-color="#0d63d2" offset="1"/>
</linearGradient>
</defs>
<g transform="matrix(.97573 0 0 .97573 -65.748 -37.203)" fill="none" opacity=".29677" stroke="#000" stroke-linecap="round" stroke-linejoin="round" stroke-opacity=".02">
<rect x="69.84" y="40.71" width="29.811" height="29.811" rx="6.6099" ry="6.6099" stroke-width=".1"/>
<rect x="69.84" y="40.71" width="29.811" height="29.811" rx="6.6099" ry="6.6099" stroke-width=".2"/>
<rect x="69.84" y="40.71" width="29.811" height="29.811" rx="6.6099" ry="6.6099" stroke-width=".3"/>
<rect x="69.84" y="40.71" width="29.811" height="29.811" rx="6.6099" ry="6.6099" stroke-width=".4"/>
<rect x="69.84" y="40.71" width="29.811" height="29.811" rx="6.6099" ry="6.6099" stroke-width=".5"/>
<rect x="69.84" y="40.71" width="29.811" height="29.811" rx="6.6099" ry="6.6099" stroke-width=".6"/>
<rect x="69.84" y="40.71" width="29.811" height="29.811" rx="6.6099" ry="6.6099" stroke-width=".7"/>
<rect x="69.84" y="40.71" width="29.811" height="29.811" rx="6.6099" ry="6.6099" stroke-width=".8"/>
<rect x="69.84" y="40.71" width="29.811" height="29.811" rx="6.6099" ry="6.6099"/>
<rect x="69.84" y="40.71" width="29.811" height="29.811" rx="6.6099" ry="6.6099" stroke-width="1.2"/>
<rect x="69.84" y="40.71" width="29.811" height="29.811" rx="6.6099" ry="6.6099" stroke-width="1.4"/>
<rect x="69.84" y="40.71" width="29.811" height="29.811" rx="6.6099" ry="6.6099" stroke-width="1.6"/>
<rect x="69.84" y="40.71" width="29.811" height="29.811" rx="6.6099" ry="6.6099" stroke-width="1.8"/>
<rect x="69.84" y="40.71" width="29.811" height="29.811" rx="6.6099" ry="6.6099" stroke-width="2"/>
<rect x="69.84" y="40.71" width="29.811" height="29.811" rx="6.6099" ry="6.6099" stroke-width="2.2"/>
<rect x="69.84" y="40.71" width="29.811" height="29.811" rx="6.6099" ry="6.6099" stroke-width="2.6"/>
<rect x="69.84" y="40.71" width="29.811" height="29.811" rx="6.6099" ry="6.6099" stroke-width="3"/>
<rect x="69.84" y="40.71" width="29.811" height="29.811" rx="6.6099" ry="6.6099" stroke-width="3.4"/>
<rect x="69.84" y="40.71" width="29.811" height="29.811" rx="6.6099" ry="6.6099" stroke-width="3.8"/>
<rect x="69.84" y="40.71" width="29.811" height="29.811" rx="6.6099" ry="6.6099" stroke-width="4.2"/>
<rect x="69.84" y="40.71" width="29.811" height="29.811" rx="6.6099" ry="6.6099" stroke-width="4.6"/>
<rect x="69.84" y="40.71" width="29.811" height="29.811" rx="6.6099" ry="6.6099" stroke-width="5"/>
</g>
<rect x="2.3963" y="2.5186" width="29.087" height="29.087" rx="6.4495" ry="6.4495" fill="url(#linearGradient1632)" stroke-linecap="round" stroke-linejoin="round" stroke-width="2.6877"/>
<path d="m16.556 7.1457v0.00215h-7.11e-4c-5.4847 0.042-9.8885 4.4692-9.8885 9.9643 0 5.5211 4.4445 9.9657 9.9657 9.9657 5.3218 0 9.6429-4.1301 9.9476-9.3734l0.01877-0.01738v-8.5482c0-1.1042-0.88891-1.9931-1.9931-1.9931h-0.8544v9.9664a7.1185 7.1185 0 0 0 0 7.11e-4 7.1185 7.1185 0 0 0 0 7.12e-4 7.1185 7.1185 0 0 0 0 7.12e-4 7.1185 7.1185 0 0 1-7.1182 7.1182 7.1185 7.1185 0 0 1-7.1188-7.1182 7.1185 7.1185 0 0 1 7.1188-7.1188 7.1185 7.1185 0 0 1 4.9825 2.0438v-4.8936zm0.07647 4.9832c-2.7521 0-4.9832 2.2311-4.9832 4.9832 0 2.7521 2.2311 4.9832 4.9832 4.9832 2.7521 0 4.9832-2.2311 4.9832-4.9832 0-2.7521-2.2311-4.9832-4.9832-4.9832zm0 3.5594a1.4238 1.4238 0 0 1 1.4238 1.4238 1.4238 1.4238 0 0 1-1.4238 1.4238 1.4238 1.4238 0 0 1-1.4238-1.4238 1.4238 1.4238 0 0 1 1.4238-1.4238z" fill="url(#linearGradient1386)" stroke-width=".35594"/>
</svg>
