<svg width="128" height="128" version="1.1" viewBox="0 0 128 128" xmlns="http://www.w3.org/2000/svg" xmlns:osb="http://www.openswatchbook.org/uri/2009/osb" xmlns:xlink="http://www.w3.org/1999/xlink">
<defs>
<linearGradient id="linearGradient825" x1="-741.83" x2="-741.83" y1="959.05" y2="93.836" gradientTransform="matrix(.13668 0 0 .13668 162.31 -5.9893)" gradientUnits="userSpaceOnUse">
<stop stop-color="#1a1d20" offset="0"/>
<stop stop-color="#49545e" offset="1"/>
</linearGradient>
<linearGradient id="linearGradient835" x1="-738.76" x2="-738.76" y1="931.43" y2="152.13" gradientTransform="matrix(.13668 0 0 .13668 162.31 -5.9893)" gradientUnits="userSpaceOnUse">
<stop stop-color="#4b5661" offset="0"/>
<stop stop-color="#1a1d20" offset="1"/>
</linearGradient>
<filter id="filter1_d-4" x="27.204" y="29.048" width="78.356" height="71.952" color-interpolation-filters="sRGB" filterUnits="userSpaceOnUse">
<feFlood flood-opacity="0" result="BackgroundImageFix"/>
<feColorMatrix in="SourceAlpha" values="0 0 0 0 0 0 0 0 0 0 0 0 0 0 0 0 0 0 127 0"/>
<feOffset dy="4"/>
<feGaussianBlur stdDeviation="6"/>
<feColorMatrix values="0 0 0 0 0 0 0 0 0 0 0 0 0 0 0 0 0 0 0.33 0"/>
<feBlend in2="BackgroundImageFix" mode="darken" result="effect1_dropShadow"/>
<feBlend in="SourceGraphic" in2="effect1_dropShadow" result="shape"/>
</filter>
</defs>
<circle cx="63.592" cy="64.286" r="61.38" fill="url(#linearGradient825)"/>
<circle cx="63.592" cy="64.286" r="55.09" fill="url(#linearGradient835)"/>
<style><![CDATA[.B{clip-path:url(#C)}.C{fill:#3e2723}.D{fill-opacity:.15}.E{fill-opacity:.2}]]></style>
<path d="m83.166 42.048c1.776 0 3.144 0.384 4.104 1.152 1.008 0.768 1.512 1.824 1.512 3.168 0 0.672-0.096 1.32-0.288 1.944l-1.872 6.696c-0.336 1.248-0.888 2.136-1.656 2.664s-1.776 0.792-3.024 0.792c-1.2 0-2.16-0.24-2.88-0.72-0.72-0.528-1.248-1.368-1.584-2.52l-1.152-4.104c-0.192-0.72-0.432-1.2-0.72-1.44s-0.888-0.36-1.8-0.36h-7.2l-4.032 14.256h1.368c0.672 0 1.248-0.096 1.728-0.288 0.528-0.192 1.08-0.552 1.656-1.08l2.232-1.872c0.816-0.72 1.536-1.224 2.16-1.512 0.672-0.336 1.368-0.504 2.088-0.504 0.912 0 1.656 0.264 2.232 0.792 0.624 0.528 0.936 1.272 0.936 2.232 0 0.384-0.072 0.84-0.216 1.368l-3.168 10.944c-0.72 2.352-2.016 3.528-3.888 3.528-1.536 0-2.736-0.792-3.6-2.376l-1.296-2.448c-0.336-0.672-0.648-1.104-0.936-1.296s-0.72-0.288-1.296-0.288h-2.088l-3.024 10.728c-0.096 0.288-0.144 0.672-0.144 1.152 0 0.672 0.144 1.224 0.432 1.656 0.336 0.432 0.816 0.888 1.44 1.368 0.528 0.432 0.888 0.792 1.08 1.08 0.192 0.24 0.288 0.552 0.288 0.936 0 0.864-0.384 1.464-1.152 1.8s-1.896 0.504-3.384 0.504h-18.072c-1.248 0-2.184-0.216-2.808-0.648-0.624-0.48-0.84-1.128-0.648-1.944 0.096-0.432 0.288-0.768 0.576-1.008 0.24-0.288 0.624-0.6 1.152-0.936 0.816-0.48 1.464-0.984 1.944-1.512s0.864-1.344 1.152-2.448l8.856-31.032c0.192-0.624 0.288-1.2 0.288-1.728 0-0.576-0.096-1.056-0.288-1.44-0.144-0.384-0.384-0.792-0.72-1.224-0.432-0.624-0.648-1.128-0.648-1.512 0-0.144 0.048-0.408 0.144-0.792 0.192-0.624 0.624-1.056 1.296-1.296 0.672-0.288 1.656-0.432 2.952-0.432z" fill="#fff" filter="url(#filter1_d-4)"/>
</svg>
