<svg width="128" height="128" version="1.1" viewBox="0 0 33.867 33.867" xmlns="http://www.w3.org/2000/svg" xmlns:xlink="http://www.w3.org/1999/xlink">
<defs>
<linearGradient id="linearGradient1632" x1="132.21" x2="132.21" y1="42.152" y2="70.68" gradientTransform="matrix(.97573 0 0 .97573 -111.74 -37.237)" gradientUnits="userSpaceOnUse">
<stop stop-color="#affcaf" offset="0"/>
<stop stop-color="#118585" offset="1"/>
</linearGradient>
<linearGradient id="linearGradient1033" x1="7.2413" x2="7.2413" y1="11.464" y2="43.88" gradientUnits="userSpaceOnUse">
<stop stop-color="#fff" offset="0"/>
<stop stop-color="#1c8d88" offset="1"/>
</linearGradient>
</defs>
<g transform="matrix(.97573 0 0 .97573 -65.714 -37.237)" fill="none" opacity=".295" stroke="#000" stroke-linecap="round" stroke-linejoin="round" stroke-opacity=".02">
<rect x="69.84" y="40.71" width="29.811" height="29.811" rx="6.6099" ry="6.6099" stroke-width=".1"/>
<rect x="69.84" y="40.71" width="29.811" height="29.811" rx="6.6099" ry="6.6099" stroke-width=".2"/>
<rect x="69.84" y="40.71" width="29.811" height="29.811" rx="6.6099" ry="6.6099" stroke-width=".3"/>
<rect x="69.84" y="40.71" width="29.811" height="29.811" rx="6.6099" ry="6.6099" stroke-width=".4"/>
<rect x="69.84" y="40.71" width="29.811" height="29.811" rx="6.6099" ry="6.6099" stroke-width=".5"/>
<rect x="69.84" y="40.71" width="29.811" height="29.811" rx="6.6099" ry="6.6099" stroke-width=".6"/>
<rect x="69.84" y="40.71" width="29.811" height="29.811" rx="6.6099" ry="6.6099" stroke-width=".7"/>
<rect x="69.84" y="40.71" width="29.811" height="29.811" rx="6.6099" ry="6.6099" stroke-width=".8"/>
<rect x="69.84" y="40.71" width="29.811" height="29.811" rx="6.6099" ry="6.6099"/>
<rect x="69.84" y="40.71" width="29.811" height="29.811" rx="6.6099" ry="6.6099" stroke-width="1.2"/>
<rect x="69.84" y="40.71" width="29.811" height="29.811" rx="6.6099" ry="6.6099" stroke-width="1.4"/>
<rect x="69.84" y="40.71" width="29.811" height="29.811" rx="6.6099" ry="6.6099" stroke-width="1.6"/>
<rect x="69.84" y="40.71" width="29.811" height="29.811" rx="6.6099" ry="6.6099" stroke-width="1.8"/>
<rect x="69.84" y="40.71" width="29.811" height="29.811" rx="6.6099" ry="6.6099" stroke-width="2"/>
<rect x="69.84" y="40.71" width="29.811" height="29.811" rx="6.6099" ry="6.6099" stroke-width="2.2"/>
<rect x="69.84" y="40.71" width="29.811" height="29.811" rx="6.6099" ry="6.6099" stroke-width="2.6"/>
<rect x="69.84" y="40.71" width="29.811" height="29.811" rx="6.6099" ry="6.6099" stroke-width="3"/>
<rect x="69.84" y="40.71" width="29.811" height="29.811" rx="6.6099" ry="6.6099" stroke-width="3.4"/>
<rect x="69.84" y="40.71" width="29.811" height="29.811" rx="6.6099" ry="6.6099" stroke-width="3.8"/>
<rect x="69.84" y="40.71" width="29.811" height="29.811" rx="6.6099" ry="6.6099" stroke-width="4.2"/>
<rect x="69.84" y="40.71" width="29.811" height="29.811" rx="6.6099" ry="6.6099" stroke-width="4.6"/>
<rect x="69.84" y="40.71" width="29.811" height="29.811" rx="6.6099" ry="6.6099" stroke-width="5"/>
</g>
<rect x="2.4305" y="2.4846" width="29.087" height="29.087" rx="6.4495" ry="6.4495" fill="url(#linearGradient1632)" stroke-linecap="round" stroke-linejoin="round" stroke-width="2.6877"/>
<g fill="#08002f" fill-opacity=".084406" opacity=".28221" stroke-width=".53443">
<path d="m12.708 7.7091-0.43631 0.28809 1.1064 1.6597c-1.4981 0.94969-2.5614 2.5592-2.9582 4.288h13.116c-0.39609-1.7291-1.4582-3.3377-2.9561-4.288l1.1064-1.6597-0.43631-0.28809-1.1252 1.6847c-0.96839-0.517-2.0483-0.7892-3.146-0.79329-1.0989 0.00202-2.1801 0.27295-3.1502 0.78912zm1.3319 3.0291c0.44274 0 0.80164 0.35891 0.80164 0.80164 0 0.44274-0.35891 0.80164-0.80164 0.80164-0.44274 0-0.80164-0.35891-0.80164-0.80164 0-0.44274 0.35891-0.80164 0.80164-0.80164zm5.8787 0c0.44274 0 0.80164 0.35891 0.80164 0.80164 0 0.44274-0.35891 0.80164-0.80164 0.80164-0.44274 0-0.80164-0.35891-0.80164-0.80164 0-0.44274 0.35891-0.80164 0.80164-0.80164zm-11.507 4.2754c-0.58949 0.0099-1.0603 0.53675-1.0522 1.1774v6.196c0 1.5488 2.1377 1.5488 2.1377 0v-6.196c0.0083-0.65488-0.48299-1.1877-1.0856-1.1774zm2.1544 0v10.288c0 0.8142 0.63631 1.4697 1.4258 1.4697h2.3152v-1.0689h2.1377v-1.0939c-0.27968-0.04873-0.69566-0.13123-0.90811-0.23172-1.6971-0.60829-2.8303-2.2158-2.8329-4.0187 0-2.3613 1.9142-4.2754 4.2754-4.2754 2.3613 0 4.2754 1.9142 4.2754 4.2754-8.56e-4 1.7758-1.0994 3.3662-2.7598 3.9957-0.24216 0.11128-0.68173 0.20458-0.98118 0.25678v1.0918h2.1377v1.0689h2.3152c0.78953 0 1.4258-0.65548 1.4258-1.4697v-10.288zm14.947 0c-0.58949 0.0099-1.0603 0.53675-1.0522 1.1774v6.196c0 1.5488 2.1377 1.5488 2.1377 0v-6.196c0.0083-0.65488-0.48299-1.1877-1.0856-1.1774zm-8.5342 3.2066c-1.1806 0-2.1377 0.95709-2.1377 2.1377 0 1.1806 0.95709 2.1377 2.1377 2.1377 1.1806 0 2.1377-0.95709 2.1377-2.1377 0-1.1806-0.95709-2.1377-2.1377-2.1377zm0 0.71188c0.78763-3.84e-4 1.4262 0.63821 1.4258 1.4258 3.84e-4 0.78763-0.63821 1.4262-1.4258 1.4258-0.78763 3.86e-4 -1.4262-0.63821-1.4258-1.4258 4.99e-4 -0.14232 0.02232-0.28376 0.06472-0.41961 0.11516 0.25531 0.36918 0.41949 0.64925 0.41961 0.393-3.84e-4 0.71149-0.31888 0.71188-0.71188-1.22e-4 -0.28007-0.1643-0.5341-0.41961-0.64925 0.13586-0.0424 0.27729-0.06422 0.41961-0.06472z"/>
<path d="m12.928 7.9877-0.43631 0.28809 1.1064 1.6597c-1.4981 0.94969-2.5614 2.5592-2.9582 4.288h13.116c-0.39609-1.7291-1.4582-3.3377-2.9561-4.288l1.1064-1.6597-0.43631-0.28809-1.1252 1.6847c-0.96839-0.517-2.0483-0.7892-3.146-0.79329-1.0989 0.00202-2.1801 0.27295-3.1502 0.78912zm1.3319 3.0291c0.44274 0 0.80164 0.35891 0.80164 0.80164 0 0.44274-0.35891 0.80164-0.80164 0.80164-0.44274 0-0.80164-0.35891-0.80164-0.80164 0-0.44274 0.35891-0.80164 0.80164-0.80164zm5.8787 0c0.44274 0 0.80164 0.35891 0.80164 0.80164 0 0.44274-0.35891 0.80164-0.80164 0.80164-0.44274 0-0.80164-0.35891-0.80164-0.80164 0-0.44274 0.35891-0.80164 0.80164-0.80164zm-11.507 4.2754c-0.58949 0.0099-1.0603 0.53675-1.0522 1.1774v6.196c0 1.5488 2.1377 1.5488 2.1377 0v-6.196c0.0083-0.65488-0.48299-1.1877-1.0856-1.1774zm2.1544 0v10.288c0 0.8142 0.63631 1.4697 1.4258 1.4697h2.3152v-1.0689h2.1377v-1.0939c-0.27968-0.04873-0.69566-0.13123-0.90811-0.23172-1.6971-0.60829-2.8303-2.2158-2.8329-4.0187 0-2.3613 1.9142-4.2754 4.2754-4.2754 2.3613 0 4.2754 1.9142 4.2754 4.2754-8.56e-4 1.7758-1.0994 3.3662-2.7598 3.9957-0.24216 0.11128-0.68173 0.20458-0.98118 0.25678v1.0918h2.1377v1.0689h2.3152c0.78953 0 1.4258-0.65548 1.4258-1.4697v-10.288zm14.947 0c-0.58949 0.0099-1.0603 0.53675-1.0522 1.1774v6.196c0 1.5488 2.1377 1.5488 2.1377 0v-6.196c0.0083-0.65488-0.48299-1.1877-1.0856-1.1774zm-8.5342 3.2066c-1.1806 0-2.1377 0.95709-2.1377 2.1377 0 1.1806 0.95709 2.1377 2.1377 2.1377 1.1806 0 2.1377-0.95709 2.1377-2.1377 0-1.1806-0.95709-2.1377-2.1377-2.1377zm0 0.71188c0.78763-3.84e-4 1.4262 0.63821 1.4258 1.4258 3.84e-4 0.78763-0.63821 1.4262-1.4258 1.4258-0.78763 3.86e-4 -1.4262-0.63821-1.4258-1.4258 4.99e-4 -0.14232 0.02232-0.28376 0.06472-0.41961 0.11516 0.25531 0.36918 0.41949 0.64925 0.41961 0.393-3.84e-4 0.71149-0.31888 0.71188-0.71188-1.22e-4 -0.28007-0.1643-0.5341-0.41961-0.64925 0.13586-0.0424 0.27729-0.06422 0.41961-0.06472z"/>
<path d="m13.127 8.2811-0.43631 0.28809 1.1064 1.6597c-1.4981 0.94969-2.5614 2.5592-2.9582 4.288h13.116c-0.39609-1.7291-1.4582-3.3377-2.9561-4.288l1.1064-1.6597-0.43631-0.28809-1.1252 1.6847c-0.96839-0.517-2.0483-0.7892-3.146-0.79329-1.0989 0.00202-2.1801 0.27295-3.1502 0.78912zm1.3319 3.0291c0.44274 0 0.80164 0.35891 0.80164 0.80164 0 0.44274-0.35891 0.80164-0.80164 0.80164-0.44274 0-0.80164-0.35891-0.80164-0.80164 0-0.44274 0.35891-0.80164 0.80164-0.80164zm5.8787 0c0.44274 0 0.80164 0.35891 0.80164 0.80164 0 0.44274-0.35891 0.80164-0.80164 0.80164-0.44274 0-0.80164-0.35891-0.80164-0.80164 0-0.44274 0.35891-0.80164 0.80164-0.80164zm-11.507 4.2754c-0.58949 0.0099-1.0603 0.53675-1.0522 1.1774v6.196c0 1.5488 2.1377 1.5488 2.1377 0v-6.196c0.0083-0.65488-0.48299-1.1877-1.0856-1.1774zm2.1544 0v10.288c0 0.8142 0.63631 1.4697 1.4258 1.4697h2.3152v-1.0689h2.1377v-1.0939c-0.27968-0.04873-0.69566-0.13123-0.90811-0.23172-1.6971-0.60829-2.8303-2.2158-2.8329-4.0187 0-2.3613 1.9142-4.2754 4.2754-4.2754 2.3613 0 4.2754 1.9142 4.2754 4.2754-8.56e-4 1.7758-1.0994 3.3662-2.7598 3.9957-0.24216 0.11128-0.68173 0.20458-0.98118 0.25678v1.0918h2.1377v1.0689h2.3152c0.78953 0 1.4258-0.65548 1.4258-1.4697v-10.288zm14.947 0c-0.58949 0.0099-1.0603 0.53675-1.0522 1.1774v6.196c0 1.5488 2.1377 1.5488 2.1377 0v-6.196c0.0083-0.65488-0.48299-1.1877-1.0856-1.1774zm-8.5342 3.2066c-1.1806 0-2.1377 0.95709-2.1377 2.1377 0 1.1806 0.95709 2.1377 2.1377 2.1377 1.1806 0 2.1377-0.95709 2.1377-2.1377 0-1.1806-0.95709-2.1377-2.1377-2.1377zm0 0.71188c0.78763-3.84e-4 1.4262 0.63821 1.4258 1.4258 3.84e-4 0.78763-0.63821 1.4262-1.4258 1.4258-0.78763 3.86e-4 -1.4262-0.63821-1.4258-1.4258 4.99e-4 -0.14232 0.02232-0.28376 0.06472-0.41961 0.11516 0.25531 0.36918 0.41949 0.64925 0.41961 0.393-3.84e-4 0.71149-0.31888 0.71188-0.71188-1.22e-4 -0.28007-0.1643-0.5341-0.41961-0.64925 0.13586-0.0424 0.27729-0.06422 0.41961-0.06472z"/>
<path d="m13.406 8.7604-0.43631 0.28809 1.1064 1.6597c-1.4981 0.94969-2.5614 2.5592-2.9582 4.288h13.116c-0.39609-1.7291-1.4582-3.3377-2.9561-4.288l1.1064-1.6597-0.43631-0.28809-1.1252 1.6847c-0.96839-0.517-2.0483-0.7892-3.146-0.7933-1.0989 0.00202-2.1801 0.27295-3.1502 0.78912zm1.3319 3.0291c0.44274 0 0.80164 0.35891 0.80164 0.80164 0 0.44274-0.35891 0.80164-0.80164 0.80164-0.44274 0-0.80164-0.35891-0.80164-0.80164 0-0.44274 0.35891-0.80164 0.80164-0.80164zm5.8787 0c0.44274 0 0.80164 0.35891 0.80164 0.80164 0 0.44274-0.35891 0.80164-0.80164 0.80164-0.44274 0-0.80164-0.35891-0.80164-0.80164 0-0.44274 0.35891-0.80164 0.80164-0.80164zm-11.507 4.2754c-0.58949 0.0099-1.0603 0.53675-1.0522 1.1774v6.196c0 1.5488 2.1377 1.5488 2.1377 0v-6.196c0.0083-0.65488-0.48299-1.1877-1.0856-1.1774zm2.1544 0v10.288c0 0.8142 0.63631 1.4697 1.4258 1.4697h2.3152v-1.0689h2.1377v-1.0939c-0.27968-0.04873-0.69566-0.13123-0.90811-0.23172-1.6971-0.60829-2.8303-2.2158-2.8329-4.0187 0-2.3613 1.9142-4.2754 4.2754-4.2754 2.3613 0 4.2754 1.9142 4.2754 4.2754-8.56e-4 1.7758-1.0994 3.3662-2.7598 3.9957-0.24216 0.11128-0.68173 0.20458-0.98118 0.25678v1.0918h2.1377v1.0689h2.3152c0.78953 0 1.4258-0.65548 1.4258-1.4697v-10.288zm14.947 0c-0.58949 0.0099-1.0603 0.53675-1.0522 1.1774v6.196c0 1.5488 2.1377 1.5488 2.1377 0v-6.196c0.0083-0.65488-0.48299-1.1877-1.0856-1.1774zm-8.5342 3.2066c-1.1806 0-2.1377 0.95709-2.1377 2.1377 0 1.1806 0.95709 2.1377 2.1377 2.1377 1.1806 0 2.1377-0.95709 2.1377-2.1377 0-1.1806-0.95709-2.1377-2.1377-2.1377zm0 0.71188c0.78763-3.84e-4 1.4262 0.63821 1.4258 1.4258 3.84e-4 0.78763-0.63821 1.4262-1.4258 1.4258-0.78763 3.86e-4 -1.4262-0.63821-1.4258-1.4258 4.99e-4 -0.14232 0.02232-0.28376 0.06472-0.41961 0.11516 0.25531 0.36918 0.41949 0.64925 0.41961 0.393-3.84e-4 0.71149-0.31888 0.71188-0.71188-1.22e-4 -0.28007-0.1643-0.5341-0.41961-0.64925 0.13586-0.0424 0.27729-0.06422 0.41961-0.06472z"/>
<path d="m13.956 9.4039-0.43631 0.28809 1.1064 1.6597c-1.4981 0.94969-2.5614 2.5592-2.9582 4.288h13.116c-0.39609-1.7291-1.4582-3.3377-2.9561-4.288l1.1064-1.6597-0.43631-0.28809-1.1252 1.6847c-0.96839-0.517-2.0483-0.7892-3.146-0.7933-1.0989 2e-3 -2.1801 0.27295-3.1502 0.78912zm1.3319 3.0291c0.44274 0 0.80164 0.35891 0.80164 0.80164 0 0.44274-0.35891 0.80164-0.80164 0.80164-0.44274 0-0.80164-0.35891-0.80164-0.80164 0-0.44274 0.35891-0.80164 0.80164-0.80164zm5.8787 0c0.44274 0 0.80164 0.35891 0.80164 0.80164 0 0.44274-0.35891 0.80164-0.80164 0.80164-0.44274 0-0.80164-0.35891-0.80164-0.80164 0-0.44274 0.35891-0.80164 0.80164-0.80164zm-11.507 4.2754c-0.58949 0.0099-1.0603 0.53675-1.0522 1.1774v6.196c0 1.5488 2.1377 1.5488 2.1377 0v-6.196c0.0083-0.65488-0.48299-1.1877-1.0856-1.1774zm2.1544 0v10.288c0 0.8142 0.63631 1.4697 1.4258 1.4697h2.3152v-1.0689h2.1377v-1.0939c-0.27968-0.04873-0.69566-0.13123-0.90811-0.23172-1.6971-0.60829-2.8303-2.2158-2.8329-4.0187 0-2.3613 1.9142-4.2754 4.2754-4.2754 2.3613 0 4.2754 1.9142 4.2754 4.2754-8.56e-4 1.7758-1.0994 3.3662-2.7598 3.9957-0.24216 0.11128-0.68173 0.20458-0.98118 0.25678v1.0918h2.1377v1.0689h2.3152c0.78953 0 1.4258-0.65548 1.4258-1.4697v-10.288zm14.947 0c-0.58949 0.0099-1.0603 0.53675-1.0522 1.1774v6.196c0 1.5488 2.1377 1.5488 2.1377 0v-6.196c0.0083-0.65488-0.48299-1.1877-1.0856-1.1774zm-8.5342 3.2066c-1.1806 0-2.1377 0.95709-2.1377 2.1377 0 1.1806 0.95709 2.1377 2.1377 2.1377 1.1806 0 2.1377-0.95709 2.1377-2.1377 0-1.1806-0.95709-2.1377-2.1377-2.1377zm0 0.71188c0.78763-3.84e-4 1.4262 0.63821 1.4258 1.4258 3.84e-4 0.78763-0.63821 1.4262-1.4258 1.4258-0.78763 3.86e-4 -1.4262-0.63821-1.4258-1.4258 4.99e-4 -0.14232 0.02232-0.28376 0.06472-0.41961 0.11516 0.25531 0.36918 0.41949 0.64925 0.41961 0.393-3.84e-4 0.71149-0.31888 0.71188-0.71188-1.22e-4 -0.28007-0.1643-0.5341-0.41961-0.64925 0.13586-0.0424 0.27729-0.06422 0.41961-0.06472z"/>
</g>
<path d="m12.59 7.2606-0.43631 0.28809 1.1064 1.6597c-1.4981 0.94969-2.5614 2.5592-2.9582 4.288h13.116c-0.39609-1.7291-1.4582-3.3377-2.9561-4.288l1.1064-1.6597-0.43631-0.28809-1.1252 1.6847c-0.96839-0.517-2.0483-0.7892-3.146-0.79329-1.0989 0.00202-2.1801 0.27295-3.1502 0.78912zm1.3319 3.0291c0.44274 0 0.80164 0.35891 0.80164 0.80164 0 0.44274-0.35891 0.80164-0.80164 0.80164-0.44274 0-0.80164-0.35891-0.80164-0.80164 0-0.44274 0.35891-0.80164 0.80164-0.80164zm5.8787 0c0.44274 0 0.80164 0.35891 0.80164 0.80164 0 0.44274-0.35891 0.80164-0.80164 0.80164-0.44274 0-0.80164-0.35891-0.80164-0.80164 0-0.44274 0.35891-0.80164 0.80164-0.80164zm-11.507 4.2754c-0.58949 0.0099-1.0603 0.53675-1.0522 1.1774v6.196c0 1.5488 2.1377 1.5488 2.1377 0v-6.196c0.0083-0.65488-0.48299-1.1877-1.0856-1.1774zm2.1544 0v10.288c0 0.8142 0.63631 1.4697 1.4258 1.4697h2.3152v-1.0689h2.1377v-1.0939c-0.27968-0.04873-0.69566-0.13123-0.90811-0.23172-1.6971-0.60829-2.8303-2.2158-2.8329-4.0187 0-2.3613 1.9142-4.2754 4.2754-4.2754 2.3613 0 4.2754 1.9142 4.2754 4.2754-8.56e-4 1.7758-1.0994 3.3662-2.7598 3.9957-0.24216 0.11128-0.68173 0.20458-0.98118 0.25678v1.0918h2.1377v1.0689h2.3152c0.78953 0 1.4258-0.65548 1.4258-1.4697v-10.288zm14.947 0c-0.58949 0.0099-1.0603 0.53675-1.0522 1.1774v6.196c0 1.5488 2.1377 1.5488 2.1377 0v-6.196c0.0083-0.65488-0.48299-1.1877-1.0856-1.1774zm-8.5342 3.2066c-1.1806 0-2.1377 0.95709-2.1377 2.1377 0 1.1806 0.95709 2.1377 2.1377 2.1377 1.1806 0 2.1377-0.95709 2.1377-2.1377 0-1.1806-0.95709-2.1377-2.1377-2.1377zm0 0.71188c0.78763-3.84e-4 1.4262 0.63821 1.4258 1.4258 3.84e-4 0.78763-0.63821 1.4262-1.4258 1.4258-0.78763 3.86e-4 -1.4262-0.63821-1.4258-1.4258 4.99e-4 -0.14232 0.02232-0.28376 0.06472-0.41961 0.11516 0.25531 0.36918 0.41949 0.64925 0.41961 0.393-3.84e-4 0.71149-0.31888 0.71188-0.71188-1.22e-4 -0.28007-0.1643-0.5341-0.41961-0.64925 0.13586-0.0424 0.27729-0.06422 0.41961-0.06472z" fill="url(#linearGradient1033)" stroke-width=".53443"/>
</svg>
