<svg width="170.67" height="170.67" version="1.1" viewBox="0 0 170.67 170.67" xmlns="http://www.w3.org/2000/svg" xmlns:xlink="http://www.w3.org/1999/xlink">
<defs>
<linearGradient id="linearGradient1001">
<stop stop-color="#7507eb" offset="0"/>
<stop stop-color="#7507eb" stop-opacity="0" offset="1"/>
</linearGradient>
<linearGradient id="linearGradient839">
<stop stop-color="#448eff" offset="0"/>
<stop stop-color="#5eacff" offset="1"/>
</linearGradient>
<linearGradient id="linearGradient825" x1="102.27" x2="89.998" y1="146.51" y2="253.89" gradientTransform="translate(-244.94 .51135)" gradientUnits="userSpaceOnUse" xlink:href="#linearGradient839"/>
<linearGradient id="linearGradient853" x1="-42.954" x2="-30.426" y1="110.33" y2="110.33" gradientTransform="translate(-14.096 118.48)" gradientUnits="userSpaceOnUse">
<stop stop-color="#0d0f13" offset="0"/>
<stop stop-color="#2c2f33" offset=".11932"/>
<stop stop-color="#4f5458" offset=".23864"/>
<stop stop-color="#131924" offset=".41255"/>
<stop stop-color="#0d1013" offset=".77604"/>
<stop stop-color="#868686" stop-opacity=".92015" offset=".91041"/>
<stop stop-color="#2c2e33" offset="1"/>
</linearGradient>
<linearGradient id="linearGradient882" x1="165.05" x2="176.52" y1="35.245" y2="39.464" gradientTransform="rotate(.55044 -10689 -28688)" gradientUnits="userSpaceOnUse">
<stop stop-color="#eaebf2" offset="0"/>
<stop stop-color="#f5f5f8" offset=".22201"/>
<stop stop-color="#cbcdd5" offset=".75728"/>
<stop stop-color="#e2e3e7" offset=".89709"/>
<stop stop-color="#b9bbc5" offset="1"/>
</linearGradient>
<linearGradient id="linearGradient982" x1="102.27" x2="89.998" y1="146.51" y2="253.89" gradientTransform="rotate(-12.246 -29.567 1379.8)" gradientUnits="userSpaceOnUse" xlink:href="#linearGradient839"/>
<linearGradient id="linearGradient1056" x1="227.34" x2="33.52" y1="208.52" y2="237.77" gradientUnits="userSpaceOnUse" xlink:href="#linearGradient1001"/>
<linearGradient id="linearGradient1107" x1="-94.011" x2="-200.41" y1="98.718" y2="138.09" gradientUnits="userSpaceOnUse">
<stop stop-color="#68ff7a" offset="0"/>
<stop stop-color="#0fe1ff" stop-opacity=".53612" offset=".69491"/>
<stop stop-color="#0ffff0" stop-opacity="0" offset="1"/>
</linearGradient>
<linearGradient id="linearGradient1285" x1="227.34" x2="33.52" y1="208.52" y2="237.77" gradientTransform="translate(-240.34 -80.283)" gradientUnits="userSpaceOnUse" xlink:href="#linearGradient1001"/>
</defs>
<g transform="translate(241.54 -104.14)">
<path d="m-234.51 152.72 5.7967 112.29 157.65-19.827-23.438-111.6z" fill="url(#linearGradient982)"/>
<path d="m-228.46 155.49 0.0771 1.764c-0.58644 0.0775-1.4759 0.19934-2.047 0.27441 0.35957 0.0657 1.0721 0.0752 2.0609 0.0384l4.1416 94.476-0.89338 0.25786 0.89964-0.10931 0.30905 7.0499-2.1082 0.83933s2.0727-0.25568 2.1333-0.26319l0.0625 1.4114 0.99993-0.0432c-0.0307-0.34133-0.0647-0.99244-0.0975-1.4898 2.8955-0.35844 35.164-4.3518 70.586-8.7394 18.489-2.2902 37.046-4.5896 51.115-6.3338 12.689-1.5732 19.749-2.4495 21.82-2.7095 0.20804 1.1 0.58428 2.1617 1.5827 2.8902l-0.61159-3.0111c0.09288-0.012 1.3675-0.1698 1.4012-0.17422l-0.1292-0.99124c-0.03039 4e-3 -1.3744 0.17121-1.4711 0.18341l-1.3607-6.7018 2.4013-0.60317-2.4625 0.30266-17.457-85.942c-0.15869-2.4096-0.4327-4.5901-1.1387-6.646 0.67565-0.0891 1.6927-0.22764 2.3482-0.31381-0.39214-0.0889-1.3037-0.09-2.4805-0.0472-0.35248-0.94808-0.79246-1.8725-1.3767-2.779l0.56526 2.8252c-16.486 0.83225-88.784 11.06-128.28 16.28-0.19277-1.071-0.38779-1.7041-0.58587-1.6956zm0.64857 2.0397c15.184-0.72192 88.154-10.89 128.31-16.195l18.494 92.592-140.19 17.246-2.1105 0.60798c-0.99829-23.988-2.6067-82.65-4.5003-94.251zm7.5719 3.4769c-5e-3 -0.0237 0.0466 0.34685 0.0939 0.81903 0.0109 0.10844 0.0286 0.30152 0.0407 0.42687l-1.4888 0.20323 0.13537 0.99191 1.4464-0.19604c0.0147 0.16163 0.0245 0.25888 0.0401 0.433 0.0939 1.0473 0.20929 2.4176 0.32075 3.7337l-2.995 0.4462 0.14681 0.98942 2.9331-0.43677c0.018 0.21398 0.034 0.38423 0.0519 0.59832 0.19656 2.3478 0.26538 3.2087 0.38195 4.6418l-1.4714 0.2374 0.16062 0.98843 1.3923-0.22423c0.0336 0.4144 0.15629 1.8987 0.15629 1.8987l0.99588-0.0803s-0.12537-1.5309-0.16142-1.9776l30.684-4.9453-0.079-0.49251 0.49032-0.0982-0.37012-1.8523c0.77586 0.12099 1.3008 0.41755 1.7162 0.81668 0.74404 0.71484 1.1912 1.9244 1.7645 3.2585 0.57331 1.3341 1.321 2.8055 2.8758 3.7468 1.0475 0.63414 2.4195 0.98792 4.2362 0.98121 0.0712 0.47399 0.12684 0.86208 0.19851 1.338 0.51033 3.3889 0.79331 5.2259 1.0151 6.6748l-0.33434 0.0526 0.15639 0.98734 0.32821-0.0532c0.0247 0.16088 0.18934 1.25 0.18934 1.25l0.9882-0.15247s-0.16537-1.0919-0.19018-1.2538l30.871-4.9257-0.0794-0.49442 0.49566-0.0736-2.3921-16.131-0.49375 0.0732-0.0828-0.49167-30.821 5.1368c-0.0152-0.12975-0.0525-0.40485-0.0538-0.43202l-0.99867 0.0489c5e-3 0.0978 0.0438 0.37257 0.0649 0.54752l-1.221 0.20302 0.16401 0.98569 1.1844-0.1971c0.0743 0.54038 0.15675 1.1356 0.26526 1.8851 0.14458 0.99895 0.34295 2.3142 0.52387 3.5278-1.4789-0.0209-2.5012-0.32488-3.2371-0.77037-1.1471-0.69444-1.7298-1.7881-2.2738-3.054-0.54401-1.2659-1.0004-2.6911-2.1032-3.7506-0.72542-0.69697-1.7268-1.1463-3.0576-1.251l-1.4134-7.092-0.49075 0.0963-0.0674-0.49501-29.506 4.0139c-0.011-0.11407-0.027-0.2914-0.037-0.39169-0.0479-0.47843-0.0687-0.73068-0.11212-0.93099zm1.2194 2.1097 29.082-3.9579 1.2807 6.4253c-0.41851 0.0199-0.85544 0.0592-1.3305 0.14089a0.75008 0.75008 0 0 0-0.0749 0.0142 0.75008 0.75008 0 0 0 0.32794 1.4637c0.51896-0.0893 0.96769-0.13216 1.3714-0.14577l0.31791 1.5938-30.098 4.848c-0.11653-1.4381-0.18005-2.256-0.37342-4.5657-0.0198-0.23701-0.038-0.4261-0.0579-0.66295l23.138-3.4413-0.14681-0.98942-23.076 3.4319c-0.10992-1.2937-0.22385-2.6443-0.31637-3.6767-0.0172-0.19174-0.0278-0.30152-0.0438-0.47815zm42.254 5.7263 30.356-5.0598 2.2448 15.14-30.376 4.8464c-0.22203-1.451-0.5038-3.283-1.0134-6.6672-0.0657-0.43624-0.11688-0.7907-0.18211-1.2256 0.61025-0.0432 1.2542-0.11395 1.9599-0.23353a0.75008 0.75008 0 0 0 0.27992-0.10077 1.5388 1.6356 77.754 0 0-0.0774 0.8682 1.5388 1.6356 77.754 0 0 1.9251 1.153 1.5388 1.6356 77.754 0 0 1.2711-1.8508l-8.5e-4 -4e-3a1.5388 1.6356 77.754 0 0-1.9289-1.1522 1.5388 1.6356 77.754 0 0-0.8346 0.45496 0.75008 0.75008 0 0 0-0.88347-0.84752c-0.71249 0.12078-1.3471 0.18997-1.9313 0.22732-0.18742-1.2571-0.39151-2.6115-0.54068-3.642-0.10993-0.75965-0.19375-1.3655-0.26791-1.9065zm-11.927 11.347 0.17224 1.6314-31.444 5.2561 0.0832 0.49358-0.49484 0.0774 2.9948 19.166-1.5676 0.20835 0.13301 0.99042 1.5886-0.21291 0.17759 1.1406 0.98776-0.15443-0.17457-1.1173 32.839-4.3817-0.13156-0.99273-1.8085 0.24063-2.091-19.882 1.0124-0.16981-0.16442-0.9876-0.95284 0.15882-0.16471-1.5691zm55.34-11.404-0.97555 0.21993 0.39039 1.734-2.3522 0.39662 0.16587 0.98529 2.4061-0.40632 5.2162 23.185c-1.6377 0.78002-2.7712 1.7583-3.5355 2.8639-1.168 1.6896-1.4811 3.5776-1.7674 5.3102s-0.55347 3.3068-1.4075 4.5465c-0.85403 1.2398-2.309 2.2647-5.3127 2.834a0.75008 0.75008 0 1 0 0.27954 1.4722c3.2507-0.61603 5.1693-1.8587 6.2691-3.4552 1.0998-1.5966 1.3667-3.4287 1.6516-5.1531 0.28493-1.7244 0.58093-3.345 1.5195-4.7028 0.56849-0.82235 1.3865-1.579 2.6396-2.2218l3.7484 16.662c-0.11672 0.0171-1.4228 0.21292-1.4228 0.21292l0.14681 0.98943s1.3678-0.20376 1.4965-0.22291l0.34534 1.5359 0.97555-0.21993-0.33001-1.4653c1.9253-0.28592 6.8412-1.0143 13.888-2.0731 4.1545-0.62423 8.3686-1.2611 11.668-1.769 2.3786-0.36615 3.3926-0.53871 4.4666-0.71963l0.47127 2.2541 0.97894-0.2043-0.46132-2.2082c0.11716-0.0213 0.67111-0.10371 0.73972-0.1186l-0.21211-0.97725c-0.04737 0.0103-0.62854 0.0983-0.73208 0.11694l-8.8745-42.471-0.48947 0.10214-0.0832-0.49359-31.104 5.2483zm-85.961 19.195 30.897-5.1633 2.0881 19.851-30.063 4.013zm47.877-8.9866a1.5388 1.6356 77.754 0 0-1.2669 1.8519 1.5388 1.6356 77.754 0 0 1.9251 1.1531 1.5388 1.6356 77.754 0 0 1.2711-1.8508l-8.5e-4 -4e-3a1.5388 1.6356 77.754 0 0-1.9285-1.1503zm38.706-7.4458 30.576-5.1576 8.7665 41.955c-1.0436 0.17473-2.0425 0.34519-4.4146 0.71036-3.2967 0.50751-7.5099 1.144-11.664 1.7682-7.083 1.0642-12.077 1.805-13.959 2.0846l-3.8108-16.94c0.58395-0.23358 1.2514-0.44499 2.0028-0.63457a1.5388 1.6356 77.754 0 0 1.705 0.64523 1.5388 1.6356 77.754 0 0 1.2711-1.8508l-8.5e-4 -4e-3a1.5388 1.6356 77.754 0 0-1.9285-1.1503 1.5388 1.6356 77.754 0 0-1.1255 0.84587 0.75025 0.75025 0 0 0-0.15137 0.0209c-0.77434 0.18966-1.4672 0.413-2.1035 0.65843zm6.2364 8.2357a1.5388 1.6356 77.754 0 0-1.2669 1.8519 1.5388 1.6356 77.754 0 0 1.9251 1.153 1.5388 1.6356 77.754 0 0 1.2696-1.8485l-1e-3 -6e-3a1.5388 1.6356 77.754 0 0-1.9266-1.1507zm-47.389 25.181c-3e-3 -0.0118 0.0236 0.1324 0.0493 0.31908 0.0258 0.18665 0.0596 0.44167 0.10008 0.75572 0.017 0.13188 0.0469 0.37362 0.066 0.5253-0.2859 0.0477-0.72205 0.11866-0.96277 0.15904-0.92092 0.15435-1.444 0.24149-1.6278 0.28137l0.21211 0.97724c0.0371-8e-3 0.66228-0.11929 1.5816-0.27328 0.22991-0.0385 0.64858-0.10844 0.91996-0.15373 0.0429 0.34726 0.0731 0.58734 0.12228 0.98674 0.10297 0.83739 0.2417 2.0061 0.36289 3.0071l-0.67049 0.0876 0.12919 0.99124 0.66287-0.086c0.0622 0.51573 0.11718 0.96512 0.18115 1.4976-3.9856 1.4708-5.1828 4.0204-6.457 6.2082-0.99572 1.7096-2.0772 3.2823-4.8651 4.4636l-1.0806-8.1556 0.92138-0.13798-0.14867-0.98902-0.90419 0.13435-0.18343-1.3792-0.99083 0.13115 0.18526 1.3968-30.453 4.5454-0.0782-1.2721-0.99769 0.0626 0.0831 1.359-2.1393 0.31844 0.14681 0.98943 2.0541-0.30594 0.28073 4.5898-2.1921 0.39782 0.17781 0.98469 2.0748-0.37636 0.88253 14.434-1.6444 0.17705 0.10589 0.9943 1.5997-0.17134 0.16582 2.7161 0.9981-0.0608-0.16813-2.7636 32.171-3.4652 0.2259 1.7037 0.99083-0.13115-0.22284-1.6804 1.4803-0.15941-0.10822-0.99581-1.5037 0.16248-1.529-11.538c3.3939-1.3804 4.8742-3.3537 5.9633-5.2236 1.2911-2.2167 2.0443-4.1431 5.3442-5.433 0.0111 0.0888 0.0191 0.1585 0.0297 0.24737 0.44157 3.6871 0.65319 5.4843 0.86959 7.312l-1.5572 0.23802 0.15248 0.98819 1.5224-0.23252c0.0435 0.36724 0.24594 2.0631 0.24594 2.0631l0.99414-0.1159s-0.20507-1.7205-0.25-2.1002l35.087-5.3712-0.15062-0.9886-35.054 5.366c-0.21753-1.8368-0.42648-3.6074-0.86593-7.2768-0.0198-0.16509-0.036-0.29447-0.0558-0.45958 0.1183-0.0365 0.21092-0.0793 0.33486-0.11463a0.75008 0.75008 0 0 0-0.35977-1.4548 0.75008 0.75008 0 0 0-0.0511 0.0131c-0.0378 0.0113-0.0712 0.0226-0.10859 0.0338-0.0557-0.46314-0.10343-0.85699-0.15773-1.3068l28.39-3.7137-0.13114-0.99081-28.378 3.7131c-0.12095-0.99803-0.26043-2.1635-0.36315-2.999-0.0511-0.41542-0.0826-0.66856-0.12717-1.0277 0.60015-0.0996 1.0515-0.17584 1.7708-0.29441 2.9885-0.49258 6.8908-1.1302 10.766-1.7631 7.7494-1.2658 15.388-2.5086 15.388-2.5086l-0.1602-0.98652s-7.6389 1.2409-15.389 2.5067c-3.875 0.63293-7.7776 1.2727-10.767 1.7654-0.70388 0.11604-1.1436 0.1904-1.7341 0.28849-0.0177-0.13995-0.0443-0.36559-0.0601-0.48861-0.0406-0.31584-0.0756-0.57306-0.10215-0.76528-0.0266-0.19221-0.0399-0.29417-0.0616-0.39433zm-42.789 16.294 30.523-4.5565 1.1086 8.3674c-0.89798 0.30941-1.9077 0.59418-3.1496 0.82953a0.75025 0.75025 0 1 0 0.27995 1.4742c1.157-0.21929 2.1702-0.48783 3.0698-0.79222l1.495 11.289-32.1 3.4598-0.88599-14.505 27.904-5.0573-0.1774-0.98279-27.789 5.0344zm48.174-7.846a1.5388 1.6356 77.754 0 0-1.2669 1.8519 1.5388 1.6356 77.754 0 0 1.9251 1.153 1.5388 1.6356 77.754 0 0 1.2711-1.8508l-8.5e-4 -4e-3a1.5388 1.6356 77.754 0 0-1.9285-1.1503zm-54.801 38.666 138.92-16.867 3.4494-0.8666 0.78479 3.9288c0.36517 0.70189 0.45934 1.6629 0.58501 2.6491-2.0376 0.25548-9.114 1.1352-21.787 2.7063-14.069 1.7442-32.626 4.0436-51.115 6.3338-36.88 4.5683-70.341 8.8876-70.517 8.9103-0.0984-1.6765-0.20802-4.0335-0.32365-6.795z" color="#000000" color-rendering="auto" dominant-baseline="auto" fill="#fff" image-rendering="auto" shape-rendering="auto" solid-color="#000000" style="font-feature-settings:normal;font-variant-alternates:normal;font-variant-caps:normal;font-variant-ligatures:normal;font-variant-numeric:normal;font-variant-position:normal;isolation:auto;mix-blend-mode:normal;shape-padding:0;text-decoration-color:#000000;text-decoration-line:none;text-decoration-style:solid;text-indent:0;text-orientation:mixed;text-transform:none;white-space:normal"/>
<path d="m-151.42 141.37-67.416 9.2148-11.998 73.451 1.377 26.662 67.098 5.9727 89.6-11.268 0.05273-7.9844-19.193-91.396z" fill="#1a1a1a" fill-opacity=".327"/>
<path d="m-214.51 137.68-18.153 110.96 158.26 14.062 0.76703-114.03z" fill="url(#linearGradient825)"/>
<path d="m-209.18 141.67-0.29883 1.7402c-0.58953-0.0487-1.4846-0.11825-2.0586-0.16602 0.33746 0.14044 1.0317 0.30089 2.0058 0.47461l-15.992 93.205-0.92774 0.0625 0.90235 0.084-1.1934 6.9551-2.2383 0.37305s2.0798 0.18978 2.1406 0.19531l-0.23828 1.3926 0.98633 0.16992c0.0424-0.34008 0.14728-0.98358 0.2207-1.4766 2.9057 0.2639 35.287 3.206 70.834 6.4316 18.554 1.6836 37.176 3.3727 51.295 4.6523 12.734 1.1542 19.82 1.7953 21.898 1.9805-0.03001 1.1191 0.11245 2.2365 0.9336 3.1602l0.04101-3.0723c0.09331 8e-3 1.3724 0.12413 1.4062 0.12695l0.08399-0.99609c-0.03045-3e-3 -1.3794-0.12421-1.4766-0.13281l0.09179-6.8379 2.4746-0.0801-2.4707-0.22656 1.1699-87.689c0.35603-2.3885 0.55076-4.5774 0.29688-6.7363 0.67918 0.0562 1.7024 0.13658 2.3613 0.19141-0.36437-0.17002-1.255-0.36445-2.4141-0.57226-0.14336-1.0013-0.37724-1.998-0.75586-3.0078l-0.04687 2.8809c-16.287-2.6836-89.11-8.0236-128.82-11.301 0.0388-1.0876-0.0175-1.7476-0.21289-1.7812zm0.20117 2.1309c14.992 2.5152 88.458 8.0566 128.82 11.389l-1.5664 94.408-140.66-12.883-2.1914 0.14649c4.1126-23.654 14.984-81.322 15.594-93.061zm6.6621 5.0039c0-0.0242-0.028 0.34885-0.082 0.82031-0.0124 0.10827-0.036 0.30072-0.0508 0.42578l-1.498-0.11719-0.0781 0.99805 1.4551 0.11523c-0.0199 0.16107-0.031 0.25817-0.0527 0.43164-0.13042 1.0434-0.30827 2.407-0.47852 3.7168l-3.0215-0.19922-0.0664 0.99805 2.959 0.19531c-0.0278 0.21292-0.0483 0.38269-0.0762 0.59571-0.3059 2.336-0.42127 3.192-0.61132 4.6172l-1.4883-0.0801-0.0527 1 1.4082 0.0762c-0.0551 0.41209-0.25 1.8887-0.25 1.8887l0.99024 0.13281s0.20219-1.5226 0.26172-1.9668l31.035 1.6758 0.0273-0.49805 0.5 8e-3 0.0312-1.8887c0.73254 0.2828 1.1826 0.68395 1.5039 1.1621 0.57548 0.8564 0.75591 2.1333 1.0332 3.5586 0.27729 1.4253 0.69586 3.0219 2.0156 4.2715 0.88917 0.8419 2.1549 1.4786 3.9316 1.8574-0.031 0.4783-0.0589 0.86937-0.0898 1.3496-0.2201 3.42-0.33321 5.2753-0.42383 6.7383l-0.33789-0.0195-0.0566 0.99804 0.33203 0.0176c-0.01 0.16245-0.0801 1.2617-0.0801 1.2617l0.99805 0.0606s0.07-1.1022 0.0801-1.2656l31.213 1.7344 0.0273-0.5 0.5 0.0332 1.084-16.271-0.49804-0.0332 0.0234-0.49804-31.209-1.5176c0.0127-0.13001 0.0346-0.40677 0.0391-0.43359l-0.98632-0.16407c-0.0161 0.0966-0.0362 0.37339-0.0527 0.54883l-1.2363-0.0606-0.0488 0.99805 1.1992 0.0586c-0.042 0.54385-0.0877 1.1431-0.14062 1.8984-0.0706 1.0069-0.15572 2.3343-0.23633 3.5586-1.4408-0.33416-2.3754-0.84801-3-1.4395-0.97372-0.92196-1.3111-2.1143-1.5742-3.4668-0.26312-1.3525-0.40687-2.8421-1.2598-4.1113-0.56108-0.83498-1.4443-1.4865-2.7227-1.8711l0.12305-7.2305-0.5-0.01 0.0391-0.49805-29.686-2.3359c0.0135-0.1138 0.0354-0.2905 0.0469-0.39063 0.0547-0.4777 0.0879-0.72861 0.0879-0.93359zm0.74414 2.3203 29.26 2.3008-0.11132 6.5508c-0.41321-0.0693-0.84852-0.12363-1.3301-0.14453a0.75008 0.75008 0 0 0-0.0762-2e-3 0.75008 0.75008 0 0 0 0.01 1.5c0.5261 0.0228 0.97371 0.0761 1.3711 0.14843l-0.0274 1.625-30.441-1.6465c0.19116-1.4301 0.30256-2.2428 0.60351-4.541 0.0309-0.23582 0.0532-0.42447 0.084-0.66015l23.342 1.5449 0.0664-0.99805-23.279-1.541c0.167-1.2876 0.34214-2.6316 0.47071-3.6602 0.0239-0.19101 0.0368-0.30055 0.0586-0.47656zm40.078 14.559 30.738 1.4941-1.0176 15.271-30.713-1.707c0.0908-1.4651 0.20403-3.3152 0.42382-6.7305 0.0283-0.44026 0.0535-0.7975 0.082-1.2363 0.60553 0.0872 1.2499 0.15468 1.9648 0.1875a0.75008 0.75008 0 0 0 0.29492-0.0391 1.6356 1.5388 0 0 0-0.25976 0.83203 1.6356 1.5388 0 0 0 1.6367 1.5352 1.6356 1.5388 0 0 0 1.6348-1.5391v-4e-3a1.6356 1.5388 0 0 0-1.6406-1.5352 1.6356 1.5388 0 0 0-0.91211 0.26758 0.75008 0.75008 0 0 0-0.6836-1.0156c-0.72189-0.0331-1.3567-0.10008-1.9355-0.1875 0.0835-1.2683 0.17133-2.6351 0.24414-3.6738 0.0537-0.76569 0.1003-1.3756 0.14257-1.9199zm-14.062 8.5586-0.17773 1.6309-31.844-1.5332-0.0234 0.5-0.5-0.0293-1.1387 19.365-1.5762-0.12891-0.0801 0.9961 1.5977 0.1289-0.0684 1.1524 0.99804 0.0586 0.0664-1.1289 33.021 2.6836 0.082-0.99805-1.8184-0.14844 2.1738-19.873 1.0254 0.0488 0.0488-1-0.96484-0.0469 0.17187-1.5684zm56.5 0.59375-1 8e-3 0.0137 1.7773-2.3828-0.11133-0.0469 0.99805 2.4375 0.11328 0.17969 23.764c-1.7659 0.4149-3.0811 1.1305-4.0625 2.0488-1.4998 1.4034-2.2063 3.182-2.8535 4.8145-0.64726 1.6324-1.2423 3.1141-2.3398 4.1445-1.0976 1.0304-2.7368 1.7234-5.793 1.6426a0.75008 0.75008 0 1 0-0.0391 1.498c3.3074 0.0875 5.4459-0.71992 6.8594-2.0469 1.4134-1.327 2.0628-3.0608 2.707-4.6856 0.64421-1.6247 1.2772-3.1457 2.4824-4.2734 0.72998-0.68305 1.6899-1.249 3.0508-1.6113l0.12891 17.078c-0.1177-8e-3 -1.4356-0.0937-1.4356-0.0937l-0.0664 0.99805s1.3799 0.091 1.5098 0.0996l0.0117 1.5742 1-8e-3 -0.0117-1.502c1.9421 0.12896 6.9006 0.45991 14.012 0.91992 4.1924 0.27121 8.4457 0.54265 11.777 0.74609 2.4021 0.1467 3.4297 0.19316 4.5176 0.24415l-0.01757 2.3027 1 8e-3 0.01757-2.2559c0.11902 4e-3 0.67784 0.041 0.74805 0.041v-1c-0.04847 0-0.63508-0.0373-0.74023-0.041l0.33593-43.387-0.5-4e-3 0.02344-0.5-31.51-1.4688zm-88.076 0.52539 31.289 1.5078-2.1699 19.842-30.23-2.4551zm48.693 1.373a1.6356 1.5388 0 0 0-1.6309 1.541 1.6356 1.5388 0 0 0 1.6367 1.5352 1.6356 1.5388 0 0 0 1.6348-1.5391v-4e-3a1.6356 1.5388 0 0 0-1.6406-1.5332zm39.404 0.9336 30.975 1.4453-0.33203 42.859c-1.0569-0.0506-2.0692-0.0959-4.4648-0.24219-3.3294-0.20332-7.5817-0.47493-11.773-0.7461-7.1475-0.46237-12.185-0.79768-14.084-0.92382l-0.13086-17.363c0.62021-0.1044 1.3173-0.16943 2.0918-0.19532a1.6356 1.5388 0 0 0 1.5293 0.99219 1.6356 1.5388 0 0 0 1.6348-1.5391v-4e-3a1.6356 1.5388 0 0 0-1.6406-1.5332 1.6356 1.5388 0 0 0-1.2793 0.58789 0.75025 0.75025 0 0 0-0.15235-0.0117c-0.79695 0.0211-1.5214 0.0924-2.1953 0.19727zm4.3476 9.3711a1.6356 1.5388 0 0 0-1.6308 1.541 1.6356 1.5388 0 0 0 1.6367 1.5352 1.6356 1.5388 0 0 0 1.6328-1.5371v-6e-3a1.6356 1.5388 0 0 0-1.6387-1.5332zm-51.652 14.557c0-0.0121-5e-3 0.13439-0.0195 0.32227-0.0144 0.18787-0.0354 0.44427-0.0625 0.75976-0.0114 0.13247-0.0334 0.37507-0.0469 0.52735-0.28952-0.014-0.73079-0.0372-0.9746-0.0488-0.9327-0.0445-1.4624-0.0703-1.6504-0.0703v1c0.038 0 0.67251 0.0239 1.6035 0.0684 0.23286 0.0111 0.65683 0.0316 0.93164 0.0449-0.0317 0.34847-0.0531 0.58949-0.0898 0.99023-0.077 0.84017-0.18931 2.0117-0.28321 3.0156l-0.67382-0.0566-0.084 0.99609 0.66602 0.0566c-0.0486 0.51719-0.0902 0.96801-0.14063 1.502-4.2069 0.59199-5.9176 2.8295-7.627 4.6973-1.3357 1.4595-2.7261 2.767-5.7012 3.3301l0.67383-8.1992 0.92968 0.0606 0.0645-0.99805-0.91211-0.0605 0.11328-1.3867-0.9961-0.082-0.11523 1.4043-30.725-2.0176 0.19336-1.2598-0.98828-0.1504-0.20703 1.3457-2.1582-0.14258-0.0664 0.99805 2.0723 0.13672-0.69922 4.5449-2.2266-0.0762-0.0351 1 2.1074 0.0723-2.1992 14.293-1.6445-0.17578-0.10742 0.99414 1.5996 0.17187-0.41407 2.6895 0.98828 0.15234 0.42188-2.7363 32.174 3.4375-0.14063 1.7129 0.9961 0.082 0.13867-1.6894 1.4805 0.15821 0.10547-0.9961-1.5039-0.16016 0.95312-11.6c3.6095-0.62909 5.4746-2.2435 6.9356-3.8398 1.7319-1.8924 2.8766-3.6152 6.375-4.1758-8e-3 0.0891-0.015 0.15894-0.0234 0.24805-0.35056 3.6969-0.52497 5.4981-0.70117 7.3301l-1.5723-0.0977-0.0606 0.99805 1.5371 0.0957c-0.0354 0.3681-0.19727 2.0684-0.19727 2.0684l0.9961 0.0976s0.16453-1.7248 0.20117-2.1055l35.428 2.1934 0.0625-0.99805-35.395-2.1914c0.17703-1.8412 0.34838-3.6157 0.69727-7.2949 0.0157-0.16552 0.0273-0.2954 0.043-0.46094 0.12336-0.0106 0.22295-0.0328 0.35156-0.041a0.75008 0.75008 0 0 0-0.043-1.498 0.75008 0.75008 0 0 0-0.0527 2e-3c-0.0393 3e-3 -0.0744 7e-3 -0.11329 0.01 0.0438-0.46442 0.0807-0.85943 0.12305-1.3106l28.531 2.3926 0.082-0.99609-28.52-2.3906c0.0935-1.001 0.2044-2.1695 0.28125-3.0078 0.0382-0.4168 0.0611-0.67086 0.0937-1.0312 0.60761 0.03 1.0649 0.0512 1.793 0.0879 3.025 0.15252 6.9738 0.35716 10.895 0.56055 7.8416 0.40676 15.57 0.8125 15.57 0.8125l0.0527-0.99805s-7.7283-0.40766-15.57-0.81445c-3.921-0.2034-7.8706-0.40603-10.896-0.5586-0.71248-0.0359-1.158-0.0565-1.7559-0.0859 0.0124-0.14052 0.0343-0.36666 0.0449-0.49024 0.0273-0.31727 0.0477-0.57605 0.0625-0.76953s0.0234-0.29595 0.0234-0.39844zm-45.271 6.8477 30.795 2.0215-0.69141 8.4121c-0.94318 0.1119-1.9903 0.17601-3.2539 0.14258a0.75025 0.75025 0 1 0-0.0391 1.5c1.1771 0.0311 2.2243-0.0164 3.168-0.12305l-0.93359 11.35-32.104-3.4277 2.2109-14.363 28.342 0.97656 0.0351-0.99805-28.225-0.97461zm48.742 2.5508a1.6356 1.5388 0 0 0-1.6309 1.541 1.6356 1.5388 0 0 0 1.6367 1.5352 1.6356 1.5388 0 0 0 1.6348-1.5391v-4e-3a1.6356 1.5388 0 0 0-1.6406-1.5332zm-61.756 26.162 139.34 12.984 3.5547-0.11523-0.06641 4.0059c0.20798 0.76338 0.09616 1.7225 0.0098 2.7129-2.0455-0.18254-9.1474-0.82386-21.865-1.9766-14.119-1.2797-32.741-2.9687-51.295-4.6524-37.01-3.3584-70.626-6.2348-70.803-6.25 0.25941-1.6593 0.65226-3.9858 1.125-6.709z" color="#000000" color-rendering="auto" dominant-baseline="auto" fill="#fff" image-rendering="auto" shape-rendering="auto" solid-color="#000000" style="font-feature-settings:normal;font-variant-alternates:normal;font-variant-caps:normal;font-variant-ligatures:normal;font-variant-numeric:normal;font-variant-position:normal;isolation:auto;mix-blend-mode:normal;shape-padding:0;text-decoration-color:#000000;text-decoration-line:none;text-decoration-style:solid;text-indent:0;text-orientation:mixed;text-transform:none;white-space:normal"/>
<g transform="translate(-240.34 -80.283)">
<path d="m32.727 264.76c33.174-10.217 52.744-24.541 107.9-28.124 30.47-10.738 14.63-46.533-9.2044-44.488-59.05-3.6799-92.453 11.293-138.07 17.386z" fill="url(#linearGradient1056)"/>
</g>
<path d="m-124.88 111.29c-38.781-0.30162-66.409 7.5086-96.457 13.559l2.5039 25.727 118.68-12.506c5.6493-3.406 10.96-6.9991 15.307-11.129-3.8503-8.9523-13.107-16.025-24.072-15.084-5.536-0.34499-10.847-0.52662-15.963-0.56641z" fill="url(#linearGradient1107)" opacity=".731"/>
<path d="m-84.61 136.14a12.294 8.1356 0 0 1-12.284 8.1356 12.294 8.1356 0 0 1-12.304-8.1225 12.294 8.1356 0 0 1 12.264-8.1487 12.294 8.1356 0 0 1 12.323 8.1093" fill-opacity="0" opacity=".731" style="paint-order:fill markers stroke"/>
<path d="m-85.418 136.23a12.432 7.6836 0 0 1-12.422 7.6836 12.432 7.6836 0 0 1-12.442-7.6712 12.432 7.6836 0 0 1 12.402-7.696 12.432 7.6836 0 0 1 12.462 7.6588" fill="#ffc40f" fill-opacity=".098859" opacity=".731" style="paint-order:fill markers stroke"/>
<path d="m-84.875 133.88a12.432 7.6836 0 0 1-12.422 7.6836 12.432 7.6836 0 0 1-12.442-7.6712 12.432 7.6836 0 0 1 12.402-7.696 12.432 7.6836 0 0 1 12.462 7.6588" fill="#ffc40f" fill-opacity=".098859" opacity=".731" style="paint-order:fill markers stroke"/>
<path d="m-83.791 138.03a12.432 7.6836 0 0 1-12.422 7.6836 12.432 7.6836 0 0 1-12.442-7.6712 12.432 7.6836 0 0 1 12.402-7.696 12.432 7.6836 0 0 1 12.462 7.6588" fill="#ffc40f" fill-opacity=".098859" opacity=".731" style="paint-order:fill markers stroke"/>
<path d="m-88.31 133.51a12.432 7.6836 0 0 1-12.422 7.6836 12.432 7.6836 0 0 1-12.442-7.6712 12.432 7.6836 0 0 1 12.402-7.696 12.432 7.6836 0 0 1 12.462 7.6588" fill="#ffc40f" fill-opacity=".098859" opacity=".731" style="paint-order:fill markers stroke"/>
<path d="m-91.203 137.85a12.432 7.6836 0 0 1-12.422 7.6836 12.432 7.6836 0 0 1-12.442-7.6712 12.432 7.6836 0 0 1 12.402-7.696 12.432 7.6836 0 0 1 12.462 7.6588" fill="#ffc40f" fill-opacity=".098859" opacity=".731" style="paint-order:fill markers stroke"/>
<path d="m-89.034 142.19a12.432 7.6836 0 0 1-12.422 7.6836 12.432 7.6836 0 0 1-12.442-7.6712 12.432 7.6836 0 0 1 12.402-7.696 12.432 7.6836 0 0 1 12.462 7.6588" fill="#ffc40f" fill-opacity=".098859" opacity=".731" style="paint-order:fill markers stroke"/>
<path d="m-88.31 133.51a12.432 7.6836 0 0 1-12.422 7.6836 12.432 7.6836 0 0 1-12.442-7.6712 12.432 7.6836 0 0 1 12.402-7.696 12.432 7.6836 0 0 1 12.462 7.6588" fill="#ffc40f" fill-opacity=".098859" opacity=".731" style="paint-order:fill markers stroke"/>
<path d="m-85.237 141.83a12.432 7.6836 0 0 1-12.422 7.6836 12.432 7.6836 0 0 1-12.442-7.6712 12.432 7.6836 0 0 1 12.402-7.696 12.432 7.6836 0 0 1 12.462 7.6588" fill="#ffc40f" fill-opacity=".098859" opacity=".731" style="paint-order:fill markers stroke"/>
<path d="m-85.237 141.83a12.432 7.6836 0 0 1-12.422 7.6836 12.432 7.6836 0 0 1-12.442-7.6712 12.432 7.6836 0 0 1 12.402-7.696 12.432 7.6836 0 0 1 12.462 7.6588" fill="#ff720f" fill-opacity=".098859" opacity=".731" style="paint-order:fill markers stroke"/>
<path d="m-89.034 142.19a12.432 7.6836 0 0 1-12.422 7.6836 12.432 7.6836 0 0 1-12.442-7.6712 12.432 7.6836 0 0 1 12.402-7.696 12.432 7.6836 0 0 1 12.462 7.6588" fill="#ff720f" fill-opacity=".098859" opacity=".731" style="paint-order:fill markers stroke"/>
<path d="m-89.034 144.72a12.432 7.6836 0 0 1-12.422 7.6836 12.432 7.6836 0 0 1-12.442-7.6712 12.432 7.6836 0 0 1 12.402-7.696 12.432 7.6836 0 0 1 12.462 7.6588" fill="#ff720f" fill-opacity=".098859" opacity=".731" style="paint-order:fill markers stroke"/>
<path d="m-89.847 147.07a12.432 7.6836 0 0 1-12.422 7.6836 12.432 7.6836 0 0 1-12.442-7.6712 12.432 7.6836 0 0 1 12.402-7.696 12.432 7.6836 0 0 1 12.462 7.6588" fill="#ff720f" fill-opacity=".098859" opacity=".731" style="paint-order:fill markers stroke"/>
<path d="m-85.056 132.07a12.432 7.6836 0 0 1-12.422 7.6836 12.432 7.6836 0 0 1-12.442-7.6712 12.432 7.6836 0 0 1 12.402-7.696 12.432 7.6836 0 0 1 12.462 7.6588" fill="#ff720f" fill-opacity=".098859" opacity=".731" style="paint-order:fill markers stroke"/>
<rect transform="rotate(20.202)" x="-57.05" y="150.57" width="12.897" height="156.47" rx="6.0871" ry="2.961" fill="url(#linearGradient853)" style="paint-order:fill markers stroke"/>
<path d="m-99.738 123.48 0.67624 0.25624c3.1534 1.1949 5.2123 3.3873 4.6429 4.9258l-12.514 33.815c-3.3828-2.2526-6.6689-4.6159-12.06-4.57l12.514-33.815c0.56936-1.5384 3.5879-1.807 6.7413-0.61205z" fill="url(#linearGradient882)" style="paint-order:fill markers stroke"/>
<g transform="matrix(.66899 0 0 .66899 -215.31 87.261)" fill="#fff">
<path d="m62.457 71.28c0.39296-0.39296-12.133-7.6807-11.577-7.6807s-11.97 7.2877-11.577 7.6807c0.39296 0.39296 7.6807-12.133 7.6807-11.577s-7.2877-11.97-7.6807-11.577c-0.39296 0.39296 12.133 7.6807 11.577 7.6807s11.97-7.2877 11.577-7.6807-7.6807 12.133-7.6807 11.577 7.2877 11.97 7.6807 11.577z" opacity=".731" style="paint-order:fill markers stroke"/>
<path d="m58.116 59.524c-0.0052-0.21042-4.5589 3.0174-4.4138 2.8649 0.14512-0.15246-2.8542 4.5549-2.6438 4.5497 0.21042-0.0052-3.0174-4.5589-2.8649-4.4138s-4.5549-2.8542-4.5497-2.6438c0.0052 0.21042 4.5589-3.0174 4.4138-2.8649-0.14512 0.15246 2.8542-4.5549 2.6438-4.5497-0.21042 0.0052 3.0174 4.5589 2.8649 4.4138-0.15246-0.14512 4.5549 2.8542 4.5497 2.6438z" opacity=".731" style="paint-order:fill markers stroke"/>
</g>
<g transform="matrix(.66899 0 0 .66899 -190.77 109.76)" fill="#fff">
<path d="m62.457 71.28c0.39296-0.39296-12.133-7.6807-11.577-7.6807s-11.97 7.2877-11.577 7.6807c0.39296 0.39296 7.6807-12.133 7.6807-11.577s-7.2877-11.97-7.6807-11.577c-0.39296 0.39296 12.133 7.6807 11.577 7.6807s11.97-7.2877 11.577-7.6807-7.6807 12.133-7.6807 11.577 7.2877 11.97 7.6807 11.577z" opacity=".731" style="paint-order:fill markers stroke"/>
<path d="m58.116 59.524c-0.0052-0.21042-4.5589 3.0174-4.4138 2.8649 0.14512-0.15246-2.8542 4.5549-2.6438 4.5497 0.21042-0.0052-3.0174-4.5589-2.8649-4.4138s-4.5549-2.8542-4.5497-2.6438c0.0052 0.21042 4.5589-3.0174 4.4138-2.8649-0.14512 0.15246 2.8542-4.5549 2.6438-4.5497-0.21042 0.0052 3.0174 4.5589 2.8649 4.4138-0.15246-0.14512 4.5549 2.8542 4.5497 2.6438z" opacity=".731" style="paint-order:fill markers stroke"/>
</g>
<g transform="matrix(.51452 0 0 .53658 -177.54 94.143)" fill="#fff">
<path d="m62.457 71.28c0.39296-0.39296-12.133-7.6807-11.577-7.6807s-11.97 7.2877-11.577 7.6807c0.39296 0.39296 7.6807-12.133 7.6807-11.577s-7.2877-11.97-7.6807-11.577c-0.39296 0.39296 12.133 7.6807 11.577 7.6807s11.97-7.2877 11.577-7.6807-7.6807 12.133-7.6807 11.577 7.2877 11.97 7.6807 11.577z" opacity=".731" style="paint-order:fill markers stroke"/>
<path d="m58.116 59.524c-0.0052-0.21042-4.5589 3.0174-4.4138 2.8649 0.14512-0.15246-2.8542 4.5549-2.6438 4.5497 0.21042-0.0052-3.0174-4.5589-2.8649-4.4138s-4.5549-2.8542-4.5497-2.6438c0.0052 0.21042 4.5589-3.0174 4.4138-2.8649-0.14512 0.15246 2.8542-4.5549 2.6438-4.5497-0.21042 0.0052 3.0174 4.5589 2.8649 4.4138-0.15246-0.14512 4.5549 2.8542 4.5497 2.6438z" opacity=".731" style="paint-order:fill markers stroke"/>
</g>
<g transform="matrix(.51452 0 0 .53658 -156.57 113.57)" fill="#fff">
<path d="m62.457 71.28c0.39296-0.39296-12.133-7.6807-11.577-7.6807s-11.97 7.2877-11.577 7.6807c0.39296 0.39296 7.6807-12.133 7.6807-11.577s-7.2877-11.97-7.6807-11.577c-0.39296 0.39296 12.133 7.6807 11.577 7.6807s11.97-7.2877 11.577-7.6807-7.6807 12.133-7.6807 11.577 7.2877 11.97 7.6807 11.577z" opacity=".731" style="paint-order:fill markers stroke"/>
<path d="m58.116 59.524c-0.0052-0.21042-4.5589 3.0174-4.4138 2.8649 0.14512-0.15246-2.8542 4.5549-2.6438 4.5497 0.21042-0.0052-3.0174-4.5589-2.8649-4.4138s-4.5549-2.8542-4.5497-2.6438c0.0052 0.21042 4.5589-3.0174 4.4138-2.8649-0.14512 0.15246 2.8542-4.5549 2.6438-4.5497-0.21042 0.0052 3.0174 4.5589 2.8649 4.4138-0.15246-0.14512 4.5549 2.8542 4.5497 2.6438z" opacity=".731" style="paint-order:fill markers stroke"/>
</g>
<g transform="matrix(.34911 0 0 .34911 -137.84 106.27)" fill="#fff">
<path d="m62.457 71.28c0.39296-0.39296-12.133-7.6807-11.577-7.6807s-11.97 7.2877-11.577 7.6807c0.39296 0.39296 7.6807-12.133 7.6807-11.577s-7.2877-11.97-7.6807-11.577c-0.39296 0.39296 12.133 7.6807 11.577 7.6807s11.97-7.2877 11.577-7.6807-7.6807 12.133-7.6807 11.577 7.2877 11.97 7.6807 11.577z" opacity=".731" style="paint-order:fill markers stroke"/>
<path d="m58.116 59.524c-0.0052-0.21042-4.5589 3.0174-4.4138 2.8649 0.14512-0.15246-2.8542 4.5549-2.6438 4.5497 0.21042-0.0052-3.0174-4.5589-2.8649-4.4138s-4.5549-2.8542-4.5497-2.6438c0.0052 0.21042 4.5589-3.0174 4.4138-2.8649-0.14512 0.15246 2.8542-4.5549 2.6438-4.5497-0.21042 0.0052 3.0174 4.5589 2.8649 4.4138-0.15246-0.14512 4.5549 2.8542 4.5497 2.6438z" opacity=".731" style="paint-order:fill markers stroke"/>
</g>
<g transform="matrix(.34911 0 0 .34911 -118.93 120.43)" fill="#fff">
<path d="m62.457 71.28c0.39296-0.39296-12.133-7.6807-11.577-7.6807s-11.97 7.2877-11.577 7.6807c0.39296 0.39296 7.6807-12.133 7.6807-11.577s-7.2877-11.97-7.6807-11.577c-0.39296 0.39296 12.133 7.6807 11.577 7.6807s11.97-7.2877 11.577-7.6807-7.6807 12.133-7.6807 11.577 7.2877 11.97 7.6807 11.577z" opacity=".731" style="paint-order:fill markers stroke"/>
<path d="m58.116 59.524c-0.0052-0.21042-4.5589 3.0174-4.4138 2.8649 0.14512-0.15246-2.8542 4.5549-2.6438 4.5497 0.21042-0.0052-3.0174-4.5589-2.8649-4.4138s-4.5549-2.8542-4.5497-2.6438c0.0052 0.21042 4.5589-3.0174 4.4138-2.8649-0.14512 0.15246 2.8542-4.5549 2.6438-4.5497-0.21042 0.0052 3.0174 4.5589 2.8649 4.4138-0.15246-0.14512 4.5549 2.8542 4.5497 2.6438z" opacity=".731" style="paint-order:fill markers stroke"/>
</g>
<g transform="matrix(.22427 0 0 .22427 -108.82 114.18)" fill="#fff">
<path d="m62.457 71.28c0.39296-0.39296-12.133-7.6807-11.577-7.6807s-11.97 7.2877-11.577 7.6807c0.39296 0.39296 7.6807-12.133 7.6807-11.577s-7.2877-11.97-7.6807-11.577c-0.39296 0.39296 12.133 7.6807 11.577 7.6807s11.97-7.2877 11.577-7.6807-7.6807 12.133-7.6807 11.577 7.2877 11.97 7.6807 11.577z" opacity=".731" style="paint-order:fill markers stroke"/>
<path d="m58.116 59.524c-0.0052-0.21042-4.5589 3.0174-4.4138 2.8649 0.14512-0.15246-2.8542 4.5549-2.6438 4.5497 0.21042-0.0052-3.0174-4.5589-2.8649-4.4138s-4.5549-2.8542-4.5497-2.6438c0.0052 0.21042 4.5589-3.0174 4.4138-2.8649-0.14512 0.15246 2.8542-4.5549 2.6438-4.5497-0.21042 0.0052 3.0174 4.5589 2.8649 4.4138-0.15246-0.14512 4.5549 2.8542 4.5497 2.6438z" opacity=".731" style="paint-order:fill markers stroke"/>
</g>
<g transform="matrix(.22427 0 0 .22427 -105.21 121.84)" fill="#fff">
<path d="m62.457 71.28c0.39296-0.39296-12.133-7.6807-11.577-7.6807s-11.97 7.2877-11.577 7.6807c0.39296 0.39296 7.6807-12.133 7.6807-11.577s-7.2877-11.97-7.6807-11.577c-0.39296 0.39296 12.133 7.6807 11.577 7.6807s11.97-7.2877 11.577-7.6807-7.6807 12.133-7.6807 11.577 7.2877 11.97 7.6807 11.577z" opacity=".731" style="paint-order:fill markers stroke"/>
<path d="m58.116 59.524c-0.0052-0.21042-4.5589 3.0174-4.4138 2.8649 0.14512-0.15246-2.8542 4.5549-2.6438 4.5497 0.21042-0.0052-3.0174-4.5589-2.8649-4.4138s-4.5549-2.8542-4.5497-2.6438c0.0052 0.21042 4.5589-3.0174 4.4138-2.8649-0.14512 0.15246 2.8542-4.5549 2.6438-4.5497-0.21042 0.0052 3.0174 4.5589 2.8649 4.4138-0.15246-0.14512 4.5549 2.8542 4.5497 2.6438z" opacity=".731" style="paint-order:fill markers stroke"/>
</g>
<g transform="matrix(.22427 0 0 .22427 -96.795 114.41)" fill="#fff">
<path d="m62.457 71.28c0.39296-0.39296-12.133-7.6807-11.577-7.6807s-11.97 7.2877-11.577 7.6807c0.39296 0.39296 7.6807-12.133 7.6807-11.577s-7.2877-11.97-7.6807-11.577c-0.39296 0.39296 12.133 7.6807 11.577 7.6807s11.97-7.2877 11.577-7.6807-7.6807 12.133-7.6807 11.577 7.2877 11.97 7.6807 11.577z" opacity=".731" style="paint-order:fill markers stroke"/>
<path d="m58.116 59.524c-0.0052-0.21042-4.5589 3.0174-4.4138 2.8649 0.14512-0.15246-2.8542 4.5549-2.6438 4.5497 0.21042-0.0052-3.0174-4.5589-2.8649-4.4138s-4.5549-2.8542-4.5497-2.6438c0.0052 0.21042 4.5589-3.0174 4.4138-2.8649-0.14512 0.15246 2.8542-4.5549 2.6438-4.5497-0.21042 0.0052 3.0174 4.5589 2.8649 4.4138-0.15246-0.14512 4.5549 2.8542 4.5497 2.6438z" opacity=".731" style="paint-order:fill markers stroke"/>
</g>
<g transform="matrix(.16186 0 0 .16186 -111.34 121.48)" fill="#fff">
<path d="m62.457 71.28c0.39296-0.39296-12.133-7.6807-11.577-7.6807s-11.97 7.2877-11.577 7.6807c0.39296 0.39296 7.6807-12.133 7.6807-11.577s-7.2877-11.97-7.6807-11.577c-0.39296 0.39296 12.133 7.6807 11.577 7.6807s11.97-7.2877 11.577-7.6807-7.6807 12.133-7.6807 11.577 7.2877 11.97 7.6807 11.577z" opacity=".731" style="paint-order:fill markers stroke"/>
<path d="m58.116 59.524c-0.0052-0.21042-4.5589 3.0174-4.4138 2.8649 0.14512-0.15246-2.8542 4.5549-2.6438 4.5497 0.21042-0.0052-3.0174-4.5589-2.8649-4.4138s-4.5549-2.8542-4.5497-2.6438c0.0052 0.21042 4.5589-3.0174 4.4138-2.8649-0.14512 0.15246 2.8542-4.5549 2.6438-4.5497-0.21042 0.0052 3.0174 4.5589 2.8649 4.4138-0.15246-0.14512 4.5549 2.8542 4.5497 2.6438z" opacity=".731" style="paint-order:fill markers stroke"/>
</g>
<g transform="matrix(.16186 0 0 .16186 -115.68 113.07)" fill="#fff">
<path d="m62.457 71.28c0.39296-0.39296-12.133-7.6807-11.577-7.6807s-11.97 7.2877-11.577 7.6807c0.39296 0.39296 7.6807-12.133 7.6807-11.577s-7.2877-11.97-7.6807-11.577c-0.39296 0.39296 12.133 7.6807 11.577 7.6807s11.97-7.2877 11.577-7.6807-7.6807 12.133-7.6807 11.577 7.2877 11.97 7.6807 11.577z" opacity=".731" style="paint-order:fill markers stroke"/>
<path d="m58.116 59.524c-0.0052-0.21042-4.5589 3.0174-4.4138 2.8649 0.14512-0.15246-2.8542 4.5549-2.6438 4.5497 0.21042-0.0052-3.0174-4.5589-2.8649-4.4138s-4.5549-2.8542-4.5497-2.6438c0.0052 0.21042 4.5589-3.0174 4.4138-2.8649-0.14512 0.15246 2.8542-4.5549 2.6438-4.5497-0.21042 0.0052 3.0174 4.5589 2.8649 4.4138-0.15246-0.14512 4.5549 2.8542 4.5497 2.6438z" opacity=".731" style="paint-order:fill markers stroke"/>
</g>
<g transform="matrix(.16186 0 0 .16186 -100.67 112.62)" fill="#fff">
<path d="m62.457 71.28c0.39296-0.39296-12.133-7.6807-11.577-7.6807s-11.97 7.2877-11.577 7.6807c0.39296 0.39296 7.6807-12.133 7.6807-11.577s-7.2877-11.97-7.6807-11.577c-0.39296 0.39296 12.133 7.6807 11.577 7.6807s11.97-7.2877 11.577-7.6807-7.6807 12.133-7.6807 11.577 7.2877 11.97 7.6807 11.577z" opacity=".731" style="paint-order:fill markers stroke"/>
<path d="m58.116 59.524c-0.0052-0.21042-4.5589 3.0174-4.4138 2.8649 0.14512-0.15246-2.8542 4.5549-2.6438 4.5497 0.21042-0.0052-3.0174-4.5589-2.8649-4.4138s-4.5549-2.8542-4.5497-2.6438c0.0052 0.21042 4.5589-3.0174 4.4138-2.8649-0.14512 0.15246 2.8542-4.5549 2.6438-4.5497-0.21042 0.0052 3.0174 4.5589 2.8649 4.4138-0.15246-0.14512 4.5549 2.8542 4.5497 2.6438z" opacity=".731" style="paint-order:fill markers stroke"/>
</g>
<g transform="matrix(.34911 0 0 .34911 -131.51 122)" fill="#fff">
<path d="m62.457 71.28c0.39296-0.39296-12.133-7.6807-11.577-7.6807s-11.97 7.2877-11.577 7.6807c0.39296 0.39296 7.6807-12.133 7.6807-11.577s-7.2877-11.97-7.6807-11.577c-0.39296 0.39296 12.133 7.6807 11.577 7.6807s11.97-7.2877 11.577-7.6807-7.6807 12.133-7.6807 11.577 7.2877 11.97 7.6807 11.577z" opacity=".731" style="paint-order:fill markers stroke"/>
<path d="m58.116 59.524c-0.0052-0.21042-4.5589 3.0174-4.4138 2.8649 0.14512-0.15246-2.8542 4.5549-2.6438 4.5497 0.21042-0.0052-3.0174-4.5589-2.8649-4.4138s-4.5549-2.8542-4.5497-2.6438c0.0052 0.21042 4.5589-3.0174 4.4138-2.8649-0.14512 0.15246 2.8542-4.5549 2.6438-4.5497-0.21042 0.0052 3.0174 4.5589 2.8649 4.4138-0.15246-0.14512 4.5549 2.8542 4.5497 2.6438z" opacity=".731" style="paint-order:fill markers stroke"/>
</g>
<g fill="#fff" fill-opacity=".20532">
<path transform="rotate(26.065)" d="m-22.534 166.39a11.299 13.379 0 0 1-11.29 13.379 11.299 13.379 0 0 1-11.309-13.357 11.299 13.379 0 0 1 11.272-13.4 11.299 13.379 0 0 1 11.327 13.335" opacity=".731" style="paint-order:fill markers stroke"/>
<path transform="rotate(26.065)" d="m-21.502 166.21a12.281 14.541 0 0 1-12.271 14.541 12.281 14.541 0 0 1-12.291-14.518 12.281 14.541 0 0 1 12.252-14.565 12.281 14.541 0 0 1 12.311 14.494" opacity=".731" style="paint-order:fill markers stroke"/>
<path transform="rotate(26.065)" d="m-20.505 166.35a13.319 15.769 0 0 1-13.308 15.769 13.319 15.769 0 0 1-13.329-15.744 13.319 15.769 0 0 1 13.286-15.795 13.319 15.769 0 0 1 13.351 15.718" opacity=".731" style="paint-order:fill markers stroke"/>
</g>
<g transform="translate(-240.34 -80.283)" opacity=".081">
<path transform="translate(240.34 80.283)" d="m-103.11 122.74c-1.7043-0.0778-3.0172 0.38809-3.373 1.3496l-12.514 33.814c0.60194-5e-3 1.174 0.0247 1.7266 0.0762 3.9465-0.48373 8.0796-0.91236 12.465-1.2637l10.383-28.057c0.56934-1.5384-1.4891-3.7309-4.6426-4.9258l-0.67578-0.25586c-1.1825-0.44809-2.3466-0.69158-3.3691-0.73829z" fill="url(#linearGradient1285)"/>
</g>
</g>
</svg>
