<svg width="128" height="128" version="1.1" viewBox="0 0 33.867 33.867" xmlns="http://www.w3.org/2000/svg" xmlns:xlink="http://www.w3.org/1999/xlink">
<defs>
<radialGradient id="radialGradient948" cx="16.951" cy="6.0443" r="14.544" gradientTransform="matrix(3.1335 0 0 1.9874 -36.165 -5.9684)" gradientUnits="userSpaceOnUse">
<stop stop-color="#00c4fc" offset="0"/>
<stop stop-color="#006cea" offset="1"/>
</radialGradient>
<linearGradient id="linearGradient975" x1="9.472" x2="9.472" y1="7.3581" y2="55.821" gradientUnits="userSpaceOnUse">
<stop stop-color="#fff" offset="0"/>
<stop stop-color="#007dee" offset="1"/>
</linearGradient>
</defs>
<g transform="matrix(.97573 0 0 .96361 -65.737 -36.328)" fill="none" opacity=".18754" stroke="#000" stroke-linecap="round" stroke-linejoin="round" stroke-opacity=".02">
<rect x="69.84" y="40.71" width="29.811" height="29.811" rx="6.6099" ry="6.6099" stroke-width=".1"/>
<rect x="69.84" y="40.71" width="29.811" height="29.811" rx="6.6099" ry="6.6099" stroke-width=".2"/>
<rect x="69.84" y="40.71" width="29.811" height="29.811" rx="6.6099" ry="6.6099" stroke-width=".3"/>
<rect x="69.84" y="40.71" width="29.811" height="29.811" rx="6.6099" ry="6.6099" stroke-width=".4"/>
<rect x="69.84" y="40.71" width="29.811" height="29.811" rx="6.6099" ry="6.6099" stroke-width=".5"/>
<rect x="69.84" y="40.71" width="29.811" height="29.811" rx="6.6099" ry="6.6099" stroke-width=".6"/>
<rect x="69.84" y="40.71" width="29.811" height="29.811" rx="6.6099" ry="6.6099" stroke-width=".7"/>
<rect x="69.84" y="40.71" width="29.811" height="29.811" rx="6.6099" ry="6.6099" stroke-width=".8"/>
<rect x="69.84" y="40.71" width="29.811" height="29.811" rx="6.6099" ry="6.6099"/>
<rect x="69.84" y="40.71" width="29.811" height="29.811" rx="6.6099" ry="6.6099" stroke-width="1.2"/>
<rect x="69.84" y="40.71" width="29.811" height="29.811" rx="6.6099" ry="6.6099" stroke-width="1.4"/>
<rect x="69.84" y="40.71" width="29.811" height="29.811" rx="6.6099" ry="6.6099" stroke-width="1.6"/>
<rect x="69.84" y="40.71" width="29.811" height="29.811" rx="6.6099" ry="6.6099" stroke-width="1.8"/>
<rect x="69.84" y="40.71" width="29.811" height="29.811" rx="6.6099" ry="6.6099" stroke-width="2"/>
<rect x="69.84" y="40.71" width="29.811" height="29.811" rx="6.6099" ry="6.6099" stroke-width="2.2"/>
<rect x="69.84" y="40.71" width="29.811" height="29.811" rx="6.6099" ry="6.6099" stroke-width="2.6"/>
<rect x="69.84" y="40.71" width="29.811" height="29.811" rx="6.6099" ry="6.6099" stroke-width="3"/>
<rect x="69.84" y="40.71" width="29.811" height="29.811" rx="6.6099" ry="6.6099" stroke-width="3.4"/>
<rect x="69.84" y="40.71" width="29.811" height="29.811" rx="6.6099" ry="6.6099" stroke-width="3.8"/>
<rect x="69.84" y="40.71" width="29.811" height="29.811" rx="6.6099" ry="6.6099" stroke-width="4.2"/>
<rect x="69.84" y="40.71" width="29.811" height="29.811" rx="6.6099" ry="6.6099" stroke-width="4.6"/>
<rect x="69.84" y="40.71" width="29.811" height="29.811" rx="6.6099" ry="6.6099" stroke-width="5"/>
</g>
<rect x="2.4074" y="2.5392" width="29.087" height="29.087" rx="6.4495" ry="6.4495" fill="url(#radialGradient948)" stroke-linecap="round" stroke-linejoin="round" stroke-width="2.6877"/>
<path d="m17.633 8.2684c-2.6285 0-4.7594 2.1309-4.7594 4.7594 0.0026 1.4846 0.69767 2.8831 1.8797 3.7814-3.329 3.8437-4.5635 8.3342-4.5635 8.3342-0.12125 0.42937 0.07195 0.88535 0.46478 1.0969 0 0 0.60281 0.30998 1.717 0.56571 1.1142 0.25573 2.8182 0.49998 5.2614 0.49998s4.1471-0.24425 5.2614-0.49998c1.1142-0.25573 1.717-0.56571 1.717-0.56571 0.39283-0.21154 0.58604-0.66752 0.46478-1.0969 0 0-1.2339-4.489-4.5615-8.3323 1.1819-0.89912 1.8763-2.2984 1.8777-3.7833 0-2.6285-2.1309-4.7594-4.7594-4.7594zm0 10.946c2.3797 0 2.3797 2.312 2.3797 2.312v1.0199h-3.3318s1e-6 1.3598 1.1898 1.3598c1.8018 0 2.142-0.67991 2.142-0.67991v1.0199s-0.47621 0.67991-2.142 0.67991c-2.6177 0-2.6174-2.3798-2.6174-2.8558 0 0 2e-6 -2.8558 2.3797-2.8558zm0 0.95214c-0.95188 0-1.0199 1.3598-1.0199 1.3598h2.0397s-0.06799-1.3598-1.0199-1.3598z" fill="#000721" fill-opacity=".085272" stroke-width=".33996"/>
<path d="m16.951 7.5641c-2.6285 0-4.7594 2.1309-4.7594 4.7594 0.0026 1.4846 0.69767 2.8831 1.8797 3.7814-3.329 3.8437-4.5635 8.3342-4.5635 8.3342-0.12125 0.42937 0.07195 0.88535 0.46478 1.0969 0 0 0.60281 0.30998 1.717 0.56571 1.1142 0.25573 2.8182 0.49998 5.2614 0.49998s4.1471-0.24425 5.2614-0.49998c1.1142-0.25573 1.717-0.56571 1.717-0.56571 0.39283-0.21154 0.58604-0.66752 0.46478-1.0969 0 0-1.2339-4.489-4.5615-8.3323 1.1819-0.89912 1.8763-2.2984 1.8777-3.7833 0-2.6285-2.1309-4.7594-4.7594-4.7594zm0 10.946c2.3797 0 2.3797 2.312 2.3797 2.312v1.0199h-3.3318s1e-6 1.3598 1.1898 1.3598c1.8018 0 2.142-0.67991 2.142-0.67991v1.0199s-0.47621 0.67991-2.142 0.67991c-2.6177 0-2.6174-2.3798-2.6174-2.8558 0 0 2e-6 -2.8558 2.3797-2.8558zm0 0.95214c-0.95188 0-1.0199 1.3598-1.0199 1.3598h2.0397s-0.06799-1.3598-1.0199-1.3598z" fill="url(#linearGradient975)" stroke-width=".33996"/>
<path d="m19.394 8.2393c0.96723 0.87115 1.5756 2.1331 1.5756 3.5373-0.001407 1.485-0.69555 2.8841-1.8774 3.7832 3.3276 3.8432 4.5615 8.3323 4.5615 8.3323 0.12126 0.42937-0.072262 0.88555-0.46509 1.0971 0 0-0.60245 0.30961-1.7167 0.56534-1.1142 0.25573-2.8185 0.50023-5.2617 0.50023s-4.1469-0.2445-5.2612-0.50023c-0.62409-0.14324-1.0812-0.30169-1.3684-0.41496 0.085807 0.16387 0.21948 0.30362 0.39171 0.39636 0 0 0.60297 0.31013 1.7172 0.56586 1.1142 0.25573 2.818 0.49971 5.2612 0.49971 2.4432 0 4.1475-0.24398 5.2617-0.49971 1.1142-0.25573 1.7167-0.56586 1.7167-0.56586 0.39282-0.21154 0.58634-0.6672 0.46509-1.0966 0 0-1.2339-4.4891-4.5615-8.3323 1.1819-0.89912 1.876-2.2988 1.8774-3.7837 0-1.7351-0.92887-3.2524-2.3161-4.084zm-3.1838 9.724c-2.3797 0-2.3797 2.8562-2.3797 2.8562 0 0.3841 2.62e-4 2.008 1.3761 2.6205-0.63539-0.73879-0.63562-1.7769-0.63562-2.0738 0 0 8e-6 -2.8556 2.3797-2.8556 0.43063 0 0.78238 0.076488 1.0713 0.2005-0.34764-0.41376-0.90783-0.74776-1.8118-0.74776zm0.80874 1.5022c0.18967 0.37721 0.21136 0.80977 0.21136 0.80977h-1.1932c-0.092666 0.29045-0.10594 0.54725-0.10594 0.54725h2.0397s-0.065226-1.2935-0.95188-1.357zm1.571 2.5099s-0.34022 0.67954-2.142 0.67954c-0.088718 0-0.17-0.008228-0.24598-0.022221 0.16295 0.29941 0.45626 0.56947 0.9865 0.56947 0.61809 0 1.0645-0.080388 1.3839-0.18552 0.008659-0.010498 0.01757-0.021704 0.01757-0.021704v-1.0196z" fill="#0007ac" fill-opacity=".099316" stroke-width=".33996"/>
</svg>
