<svg width="128" height="128" version="1.1" viewBox="0 0 128 128" xmlns="http://www.w3.org/2000/svg" xmlns:xlink="http://www.w3.org/1999/xlink">
<defs>
<linearGradient id="linearGradient825" x1="-741.83" x2="-741.83" y1="959.05" y2="93.836" gradientTransform="matrix(.13668 0 0 .13668 162.31 -5.9893)" gradientUnits="userSpaceOnUse">
<stop stop-color="#ccd4da" offset="0"/>
<stop stop-color="#fff" offset="1"/>
</linearGradient>
<linearGradient id="linearGradient835" x1="-738.76" x2="-738.76" y1="931.43" y2="152.13" gradientTransform="matrix(.13668 0 0 .13668 162.31 -5.9893)" gradientUnits="userSpaceOnUse">
<stop stop-color="#dfe3e8" offset="0"/>
<stop stop-color="#fefeff" offset="1"/>
</linearGradient>
</defs>
<circle cx="63.592" cy="64.286" r="61.38" fill="url(#linearGradient825)"/>
<circle cx="63.592" cy="64.286" r="55.09" fill="url(#linearGradient835)"/>
<g transform="translate(-1.3619 -2.4176)" stroke-width=".16616">
<path d="m65.161 29.716c-4.7438 0-9.0646 4.057-12.166 11.424-0.36499 0.86687-0.70871 1.7695-1.0317 2.7039-0.97091-0.1876-1.9249-0.34119-2.8584-0.45855-7.9301-0.99693-13.604 0.71747-15.977 4.825-2.3709 4.1075-1.0173 9.8778 3.8115 16.249 0.56815 0.74929 1.1775 1.4983 1.8251 2.2451-0.64764 0.74672-1.2573 1.4958-1.8254 2.245-4.8288 6.3711-6.1824 12.141-3.8115 16.249h3.3e-4c2.3729 4.1074 8.0465 5.8218 15.977 4.825 0.93346-0.11739 1.8875-0.27093 2.8584-0.45855 0.32287 0.93445 0.66668 1.8371 1.0317 2.7039 3.1018 7.3665 7.4226 11.424 12.166 11.424 4.7439 0 9.0646-4.0569 12.166-11.424 0.36498-0.86683 0.70879-1.7695 1.0317-2.7039 0.97092 0.18762 1.9249 0.34116 2.8584 0.45855 7.9301 0.99694 13.604-0.71747 15.977-4.825 2.3709-4.1075 1.0173-9.8778-3.8115-16.249-0.56816-0.74929-1.1775-1.4983-1.8251-2.245 0.64764-0.74673 1.257-1.4958 1.8251-2.245 4.8288-6.3711 6.1824-12.141 3.8115-16.249-2.3727-4.1075-8.0463-5.8218-15.977-4.825-0.93334 0.11737-1.8873 0.27064-2.8581 0.45823-0.32294-0.93434-0.66701-1.8368-1.032-2.7036-3.1018-7.3665-7.4226-11.424-12.166-11.424zm0 3.6989c3.1144 0 6.3063 3.3386 8.7573 9.16 0.2859 0.67899 0.55747 1.3837 0.81585 2.1091-3.0979 0.83029-6.3194 1.9711-9.5731 3.3929-3.2537-1.4217-6.4752-2.5626-9.5731-3.3929 0.25842-0.7255 0.52992-1.43 0.81586-2.1091 2.451-5.8213 5.643-9.16 8.7572-9.16zm-20.362 13.391c1.1886-5e-3 2.4742 0.0772 3.8453 0.24956 0.72992 0.0918 1.4754 0.21021 2.2318 0.34886-0.82961 3.0966-1.4503 6.4582-1.8465 9.9849-2.8568 2.107-5.458 4.326-7.7253 6.5933-0.49893-0.58628-0.97348-1.1733-1.4185-1.7602-3.8154-5.0322-5.1101-9.4671-3.5529-12.163 1.2166-2.1066 4.2213-3.2355 8.4662-3.253zm40.724 0c4.2449 0.0175 7.2496 1.1465 8.4662 3.253 1.557 2.6964 0.26239 7.1312-3.5529 12.163-0.44505 0.58695-0.9192 1.1742-1.4182 1.7605-2.2673-2.2673-4.8685-4.4863-7.7253-6.5933-0.39626-3.527-1.0172-6.8884-1.8469-9.9852 0.75632-0.13865 1.5018-0.25708 2.2317-0.34886 1.371-0.17232 2.6567-0.25447 3.8453-0.24956zm-31.036 1.4088c2.0008 0.52921 4.0629 1.2013 6.1572 2.0039-1.2722 0.65121-2.5427 1.3406-3.8054 2.0705-1.263 0.729-2.4962 1.484-3.6963 2.26 0.35238-2.2152 0.80234-4.3365 1.3445-6.3344zm21.348 0c0.54218 1.9979 0.9921 4.1191 1.3445 6.3344-1.2002-0.77601-2.4335-1.5309-3.6966-2.26-1.2626-0.72989-2.5328-1.4192-3.805-2.0705 2.0943-0.80264 4.1564-1.4747 6.1572-2.0039zm-10.675 3.9157c2.1565 0.99494 4.3239 2.121 6.4729 3.3621 2.1496 1.241 4.207 2.5564 6.1491 3.9245 0.21366 2.3656 0.32388 4.8048 0.32388 7.2868s-0.11022 4.9209-0.32388 7.2865c-1.942 1.368-3.9992 2.6832-6.1487 3.9241-2.1491 1.2409-4.3166 2.3671-6.4729 3.3621-2.1564-0.99494-4.3237-2.1212-6.4726-3.3621-2.1496-1.241-4.207-2.5564-6.1491-3.9245-0.21364-2.3656-0.32387-4.8046-0.32387-7.2865 0-2.4821 0.11021-4.9212 0.32387-7.2868 1.9421-1.368 3.9992-2.6832 6.1487-3.9241 2.149-1.2408 4.3163-2.3672 6.4726-3.3621zm3.3e-4 5.3261c-5.1068 0-9.247 4.14-9.247 9.247 0 5.107 4.14 9.247 9.247 9.247 5.1068 0 9.247-4.14 9.247-9.247 0-5.107-4.14-9.247-9.247-9.247zm-16.535 4.9159c-0.072 1.4273-0.10904 2.8728-0.10904 4.3311 0 1.4582 0.0371 2.9035 0.10904 4.3308-1.742-1.4126-3.3536-2.8628-4.8127-4.3311 1.459-1.4682 3.0708-2.9182 4.8127-4.3308zm33.071 3.3e-4c1.742 1.4126 3.3536 2.8628 4.8127 4.3311-1.459 1.4682-3.0708 2.9182-4.8127 4.3308 0.072-1.4273 0.10904-2.8728 0.10904-4.3311 0-1.4582-0.0371-2.9036-0.10904-4.3308zm-40.393 7.0512c2.2673 2.2674 4.8687 4.4865 7.7256 6.5937 0.39635 3.5275 1.0193 6.8872 1.8488 9.9846-0.75711 0.13885-1.5034 0.25761-2.234 0.34951-6.2676 0.78774-10.754-0.30709-12.311-3.0035v-3.4e-4c-1.557-2.6964-0.26239-7.1312 3.5529-12.163 0.44505-0.58695 0.9192-1.1742 1.4182-1.7605zm47.714 3.3e-4c0.49892 0.58629 0.97347 1.1733 1.4185 1.7602 3.8154 5.0322 5.1101 9.4671 3.5529 12.163-1.5572 2.6964-6.0439 3.791-12.311 3.0031-0.73064-0.0919-1.4769-0.21003-2.234-0.34886 0.82953-3.0974 1.4525-6.4571 1.8488-9.9846 2.8568-2.107 5.458-4.326 7.7253-6.5933zm-35.876 9.4336c1.2002 0.77595 2.4333 1.531 3.6963 2.26 1.2626 0.72989 2.5331 1.4193 3.8054 2.0705-2.0944 0.80269-4.1566 1.475-6.1575 2.0042-0.54191-1.998-0.9918-4.1196-1.3442-6.3347zm24.038 0c-0.35235 2.2151-0.80222 4.3364-1.3442 6.3344-2.0009-0.5292-4.0631-1.2013-6.1575-2.0039 1.2722-0.65112 2.5426-1.3406 3.805-2.0705 1.2631-0.72904 2.4964-1.484 3.6966-2.26zm-12.019 6.4726c3.2538 1.4218 6.4754 2.5626 9.5734 3.3929-0.25843 0.72574-0.53016 1.4301-0.81617 2.1094-2.451 5.8213-5.643 9.16-8.7573 9.16v-3.3e-4c-3.1143 0-6.3061-3.3387-8.7573-9.16-0.28596-0.67915-0.55779-1.3834-0.81617-2.1091 3.098-0.8303 6.3196-1.9711 9.5734-3.3929z" fill="#4d4d4d"/>
<path d="m72.872 33.415a3.6988 3.6988 0 0 0-3.6989 3.6986 3.6988 3.6988 0 0 0 3.6989 3.6989 3.6988 3.6988 0 0 0 3.6989-3.6989 3.6988 3.6988 0 0 0-3.6989-3.6986zm-37.599 37.472a3.6988 3.6988 0 0 0-3.6989 3.6986 3.6988 3.6988 0 0 0 3.6989 3.6989 3.6988 3.6988 0 0 0 3.6989-3.6989 3.6988 3.6988 0 0 0-3.6989-3.6986zm51.251 13.826a3.6988 3.6988 0 0 0-3.6986 3.6986 3.6988 3.6988 0 0 0 3.6986 3.6989 3.6988 3.6988 0 0 0 3.6989-3.6989 3.6988 3.6988 0 0 0-3.6989-3.6986z" fill="#ffe000"/>
</g>
</svg>
