<svg width="128" height="128" version="1.1" viewBox="0 0 128 128" xmlns="http://www.w3.org/2000/svg" xmlns:xlink="http://www.w3.org/1999/xlink">
<defs>
<linearGradient id="linearGradient825" x1="-741.83" x2="-741.83" y1="959.05" y2="93.836" gradientTransform="matrix(.13668 0 0 .13668 162.31 -5.9893)" gradientUnits="userSpaceOnUse">
<stop stop-color="#ccd4da" offset="0"/>
<stop stop-color="#fff" offset="1"/>
</linearGradient>
<linearGradient id="linearGradient835" x1="-738.76" x2="-738.76" y1="931.43" y2="152.13" gradientTransform="matrix(.13668 0 0 .13668 162.31 -5.9893)" gradientUnits="userSpaceOnUse">
<stop stop-color="#dfe3e8" offset="0"/>
<stop stop-color="#fefeff" offset="1"/>
</linearGradient>
</defs>
<circle cx="63.592" cy="64.286" r="61.38" fill="url(#linearGradient825)"/>
<circle cx="63.592" cy="64.286" r="55.09" fill="url(#linearGradient835)"/>
<g transform="translate(2.1695 1.0847)" fill="#333">
<path d="m71.54 94.032c-4.9265-0.80901-11.324-6.4571-17.166-15.131-2.447-3.638-4.9539-8.135-6.5944-11.821-0.3221-0.74159-0.44945-0.91638-0.54683-0.80901-0.19476 0.20475-1.628 3.3059-2.3796 5.1587-1.2684 3.1212-2.1549 6.0875-2.6617 8.944-0.33209 1.7953-0.35207 5.266-0.04994 6.3497 0.70164 2.4969 2.2348 3.5506 4.6243 3.1411 1.7254-0.29214 3.8028-1.2285 6.0176-2.7317 0.9763-0.66419 1.2385-0.78154 1.618-0.78154 0.58428 0 1.0138 0.31212 1.2185 0.87892 0.13733 0.37953 0.13733 0.49689 0 0.85895-0.13733 0.36206-0.36206 0.5668-1.3958 1.2585-1.4332 0.9763-3.8927 2.2248-5.1312 2.6243-3.286 1.0537-5.8428 0.66418-7.6556-1.1511-1.658-1.668-2.3421-4.3597-2.1274-8.125 0.26218-4.8865 2.4395-11.568 5.8328-18.123l0.84896-1.638-0.64421-1.7454c-0.62423-1.668-1.8328-5.5307-1.8328-5.8229 0-0.21474-0.36955-0.1648-2.01 0.23471-3.7454 0.91638-6.5245 2.0974-8.5146 3.5906-3.9202 2.9464-2.8865 6.2623 2.9838 9.5683 0.93635 0.53684 1.1511 0.819 1.1511 1.5206 0 0.36206-0.06742 0.50688-0.36955 0.80901-0.64421 0.64421-1.2385 0.50688-3.2285-0.72162-2.8665-1.7853-4.6818-3.8028-5.326-5.9502-0.23471-0.78154-0.23471-2.3496 0-3.1411 0.33209-1.1411 0.90639-2.0475 1.9401-3.0812 2.3022-2.3222 6.135-4.1075 11.384-5.306 1.0737-0.2447 1.3159-0.33209 1.2784-0.46942-0.02996-0.09738-0.15731-0.70164-0.28215-1.3658-0.71163-3.8228-0.7316-8.2124-0.04994-10.652 0.78903-2.7991 2.2148-4.477 4.487-5.2561 0.92636-0.31212 2.7891-0.26218 4.0575 0.11736 1.2884 0.37954 2.8665 1.1611 4.2723 2.1074 1.6779 1.1211 2.1748 1.5906 2.2423 2.1349 0.15731 1.2485-1.1211 1.9226-2.1748 1.1311-3.296-2.447-5.6481-3.3933-7.5408-2.9938-1.3758 0.29214-2.4195 1.6979-2.9464 3.9601-0.21474 0.8964-0.2447 1.3259-0.2447 3.5606 0 2.5469 0.03995 2.9464 0.49689 5.6081l0.23471 1.3359 0.54683-0.06742c2.5269-0.30213 4.7017-0.51687 6.0376-0.59427l1.5906-0.08739 0.26218-0.31212c2.6917-3.4533 6.5944-7.4908 9.5583-9.8704 5.6681-4.5444 10.525-6.125 13.87-4.507 1.8927 0.90639 3.0812 2.7791 3.5506 5.5507 0.30213 1.8053 0.05743 6.0875-0.4095 7.2961-0.15731 0.4095-0.68166 0.71163-1.2485 0.71163-0.35207 0-0.53684-0.06742-0.80901-0.3221-0.33209-0.28215-0.35207-0.36955-0.35207-0.94634 0-0.34208 0.08739-1.3359 0.19476-2.1948 0.32211-2.4969 0.09739-4.8391-0.57429-6.1749-0.34208-0.6542-1.0138-1.3458-1.6105-1.628-0.43946-0.22472-0.68166-0.25469-1.6979-0.25469-1.0937 0-1.3059 0.03995-2.3596 0.4095-3.3059 1.1311-7.0913 3.8428-11.169 7.9877-0.78903 0.79902-1.9401 2.0475-2.5843 2.7991l-1.1985 1.3459 1.0237 0.02996c14.337 0.34208 26.423 3.638 32.118 8.7493 1.2784 1.1511 2.3896 2.8665 2.7017 4.2048 0.1648 0.68166 0.17479 2 0.01 2.7017-0.58428 2.5943-3.4433 5.1587-7.6182 6.8092-0.66419 0.26218-0.78903 0.28215-1.1611 0.17479-0.5743-0.17479-0.95633-0.66419-0.95633-1.2485 0-0.69165 0.3221-1.0237 1.5206-1.5306 2.5843-1.0837 4.5944-2.6043 5.3559-4.0675 0.27217-0.49689 0.30213-0.69165 0.30213-1.5032 0-0.82898-0.02996-0.99378-0.36206-1.618-0.45944-0.8964-1.9901-2.4295-3.2585-3.2685-6.2224-4.1075-17.956-6.7892-29.808-6.7892h-1.9501l-0.74159 0.99378c-1.1012 1.4932-3.4907 5.1312-4.4371 6.7592l-0.83897 1.4332 0.5743 1.3259c5.7829 13.266 14.757 24.482 21.381 26.725 1.4432 0.46942 2.5369 0.47692 3.4033 0.04994 1.648-0.80901 2.5219-2.9064 2.6542-6.3997 0.21474-5.8628-1.8927-13.968-5.8229-22.345-0.4095-0.86894-0.6542-1.5306-0.6542-1.7753 0-0.70164 0.58428-1.2585 1.3059-1.2485 0.64421 0 0.92636 0.25469 1.4233 1.2984 3.1886 6.6718 5.316 13.371 6.115 19.214 0.26218 1.9601 0.26218 5.9702 0 7.4034-0.42947 2.2922-1.191 3.9402-2.3421 5.1112-1.4133 1.4133-3.2385 1.9501-5.4034 1.6005m-22.872-35.659c0.4095-0.67417 1.1985-1.8627 1.7553-2.6717 0.55682-0.819 1.0038-1.5106 1.0038-1.5606 0-0.14732-5.1112 0.37953-5.2561 0.52685-0.08739 0.09738 0.20475 1.2285 0.88641 3.3259 0.47692 1.5206 0.63422 1.8328 0.74159 1.7179 0.0774-0.08739 0.46942-0.68166 0.86893-1.3359"/>
<path d="m65.502 65.424c0 2.0675-1.6779 3.7454-3.7454 3.7454-2.0675 0-3.7454-1.6779-3.7454-3.7454 0-2.0675 1.6779-3.7554 3.7454-3.7554 2.0675 0 3.7454 1.6879 3.7454 3.7554"/>
</g>
</svg>
