<?xml version="1.0" encoding="UTF-8" standalone="no"?>
<svg
   width="128"
   height="128"
   version="1.1"
   viewBox="0 0 128 128"
   id="svg6"
   sodipodi:docname="template-darker-green.svg"
   inkscape:version="1.4.3 (0d15f75042, 2025-12-25)"
   xmlns:inkscape="http://www.inkscape.org/namespaces/inkscape"
   xmlns:sodipodi="http://sodipodi.sourceforge.net/DTD/sodipodi-0.dtd"
   xmlns="http://www.w3.org/2000/svg"
   xmlns:svg="http://www.w3.org/2000/svg">
  <sodipodi:namedview
     id="namedview6"
     pagecolor="#ffffff"
     bordercolor="#000000"
     borderopacity="0.25"
     inkscape:showpageshadow="2"
     inkscape:pageopacity="0.0"
     inkscape:pagecheckerboard="0"
     inkscape:deskcolor="#d1d1d1"
     inkscape:zoom="7.328125"
     inkscape:cx="64"
     inkscape:cy="64"
     inkscape:window-width="1920"
     inkscape:window-height="1168"
     inkscape:window-x="0"
     inkscape:window-y="0"
     inkscape:window-maximized="1"
     inkscape:current-layer="svg6" />
  <defs
     id="defs2">
    <linearGradient
       id="linearGradient826"
       x1="66.53"
       x2="64.334"
       y1="122.26"
       y2="5.9834"
       gradientUnits="userSpaceOnUse">
      <stop
         stop-color="#23b200"
         offset="0"
         id="stop1"
         style="stop-color:#008899;stop-opacity:1;" />
      <stop
         stop-color="#00f48d"
         offset="1"
         id="stop2"
         style="stop-color:#66ff66;stop-opacity:1;" />
    </linearGradient>
    <filter
       id="b-3"
       width="1.2235556"
       height="1.2086299"
       x="-0.11177779"
       y="-0.10431496"
       color-interpolation-filters="sRGB">
      <feGaussianBlur
         stdDeviation=".414"
         id="feGaussianBlur4" />
    </filter>
    <linearGradient
       id="c"
       x1="8.2019997"
       x2="8.2019997"
       y1="4.2329998"
       y2="12.7"
       gradientUnits="userSpaceOnUse">
      <stop
         offset="0"
         stop-color="#fff"
         id="stop3-6" />
      <stop
         offset="1"
         stop-color="#c0f6cc"
         id="stop4-7" />
    </linearGradient>
  </defs>
  <linearGradient
     id="b"
     x1="66.016"
     x2="64.334"
     y1="119.35"
     y2="1.3385"
     gradientUnits="userSpaceOnUse">
    <stop
       stop-color="#dcdde0"
       offset="0"
       id="stop3" />
    <stop
       stop-color="#f7f9f9"
       offset="1"
       id="stop4" />
  </linearGradient>
  <path
     d="m124.9 64.226a60.566 60.566 0 0 1-60.566 60.566 60.566 60.566 0 0 1-60.566-60.566 60.566 60.566 0 0 1 60.566-60.566 60.566 60.566 0 0 1 60.566 60.566z"
     fill="url(#linearGradient826)"
     stroke="#cccdd1"
     stroke-width="4.6449"
     id="path4" />
  <path
     d="m64.334 1.3385c-34.705 0-62.888 28.182-62.888 62.887 0 34.705 28.184 62.888 62.888 62.888 34.705 0 62.887-28.184 62.887-62.888 0-34.705-28.182-62.887-62.887-62.887zm0 4.6449c32.194 0 58.242 26.048 58.242 58.242 0 32.194-26.048 58.243-58.242 58.243-32.194 0-58.243-26.049-58.243-58.243 0-32.194 26.049-58.242 58.243-58.242z"
     fill="url(#b)"
     id="path5" />
  <g
     id="g5"
     transform="matrix(7.3554665,0,0,7.3554665,1.7247054,2.3275101)">
    <path
       d="m 8.149,4.076 a 0.635,0.635 0 1 0 0,1.27 c 0,0 0.118,-0.006 0.394,0.086 0.277,0.092 0.66,0.279 1.062,0.68 0.401,0.402 0.588,0.785 0.68,1.062 0.092,0.277 0.086,0.394 0.086,0.394 a 0.635,0.635 0 1 0 1.27,0 c 0,0 -0.006,-0.358 -0.151,-0.796 A 4,4 0 0 0 10.503,5.214 4,4 0 0 0 8.945,4.228 C 8.508,4.082 8.149,4.076 8.149,4.076 M 7.514,5.663 c 0,0 -0.359,0.006 -0.796,0.152 A 4,4 0 0 0 5.16,6.802 4,4 0 0 0 4.174,8.36 C 4.028,8.797 4.022,9.156 4.022,9.156 a 0.635,0.635 0 1 0 1.27,0 c 0,0 -0.006,-0.118 0.086,-0.395 A 2.7,2.7 0 0 1 6.058,7.7 2.7,2.7 0 0 1 7.12,7.02 C 7.397,6.927 7.514,6.933 7.514,6.933 a 0.635,0.635 0 1 0 0,-1.27 m 4.753,2.214 a 0.635,0.635 0 0 0 -0.626,0.644 c 0,0 0.007,0.117 -0.086,0.394 a 2.7,2.7 0 0 1 -0.68,1.062 2.7,2.7 0 0 1 -1.062,0.68 c -0.276,0.092 -0.394,0.086 -0.394,0.086 a 0.635,0.635 0 1 0 0,1.27 c 0,0 0.359,-0.006 0.796,-0.152 a 4,4 0 0 0 1.558,-0.986 c 0.551,-0.551 0.84,-1.12 0.986,-1.558 0.146,-0.438 0.152,-0.796 0.152,-0.796 A 0.635,0.635 0 0 0 12.267,7.877 m -6.35,1.588 a 0.635,0.635 0 0 0 -0.625,0.643 c 0,0 0.006,0.359 0.152,0.797 0.145,0.437 0.435,1.006 0.986,1.557 0.551,0.551 1.12,0.841 1.558,0.987 0.438,0.146 0.796,0.152 0.796,0.152 a 0.635,0.635 0 1 0 0,-1.27 c 0,0 -0.117,0.006 -0.394,-0.086 A 2.7,2.7 0 0 1 7.328,11.565 2.7,2.7 0 0 1 6.648,10.503 C 6.556,10.226 6.562,10.108 6.562,10.108 A 0.635,0.635 0 0 0 5.917,9.465"
       filter="url(#b)"
       opacity="0.15"
       id="path4-5"
       style="filter:url(#b-3)" />
    <path
       fill="url(#c)"
       d="m 8.149,3.704 a 0.635,0.635 0 1 0 0,1.27 c 0,0 0.118,-0.006 0.394,0.086 0.277,0.093 0.66,0.28 1.062,0.68 0.401,0.402 0.588,0.785 0.68,1.062 0.092,0.277 0.086,0.395 0.086,0.395 a 0.635,0.635 0 1 0 1.27,0 c 0,0 -0.006,-0.36 -0.151,-0.797 A 4,4 0 0 0 10.503,4.843 4,4 0 0 0 8.945,3.856 C 8.508,3.71 8.149,3.704 8.149,3.704 M 7.514,5.292 c 0,0 -0.359,0.006 -0.796,0.152 A 4,4 0 0 0 5.16,6.43 4,4 0 0 0 4.174,7.988 C 4.028,8.425 4.022,8.784 4.022,8.784 a 0.635,0.635 0 1 0 1.27,0 c 0,0 -0.006,-0.117 0.086,-0.394 A 2.7,2.7 0 0 1 6.058,7.328 2.7,2.7 0 0 1 7.12,6.648 C 7.397,6.556 7.514,6.562 7.514,6.562 a 0.635,0.635 0 1 0 0,-1.27 m 4.753,2.214 a 0.635,0.635 0 0 0 -0.626,0.643 c 0,0 0.007,0.118 -0.086,0.395 a 2.7,2.7 0 0 1 -0.68,1.061 2.7,2.7 0 0 1 -1.062,0.68 c -0.276,0.093 -0.394,0.087 -0.394,0.087 a 0.635,0.635 0 1 0 0,1.27 c 0,0 0.359,-0.007 0.796,-0.152 a 4,4 0 0 0 1.558,-0.987 c 0.551,-0.551 0.84,-1.12 0.986,-1.558 0.146,-0.438 0.152,-0.796 0.152,-0.796 A 0.635,0.635 0 0 0 12.267,7.506 M 5.917,9.093 A 0.635,0.635 0 0 0 5.292,9.737 c 0,0 0.006,0.358 0.152,0.796 0.145,0.437 0.435,1.006 0.986,1.558 0.551,0.55 1.12,0.84 1.558,0.986 0.438,0.146 0.796,0.152 0.796,0.152 a 0.635,0.635 0 1 0 0,-1.27 c 0,0 -0.117,0.006 -0.394,-0.086 A 2.7,2.7 0 0 1 7.328,11.193 2.7,2.7 0 0 1 6.648,10.131 C 6.556,9.854 6.562,9.737 6.562,9.737 A 0.635,0.635 0 0 0 5.917,9.093"
       id="path5-3"
       style="fill:url(#c)" />
  </g>
</svg>
