<svg width="128" height="128" version="1.1" viewBox="0 0 33.867 33.867" xmlns="http://www.w3.org/2000/svg" xmlns:xlink="http://www.w3.org/1999/xlink">
<defs>
<linearGradient id="linearGradient1051" x1="202.8" x2="203.08" y1="199.7" y2="109.33" gradientTransform="matrix(.25569 0 0 .25569 -82.594 241.24)" gradientUnits="userSpaceOnUse">
<stop stop-color="#383d3d" offset="0"/>
<stop stop-color="#3f4848" offset="1"/>
</linearGradient>
<linearGradient id="linearGradient1059" x1="219.46" x2="219.46" y1="90.679" y2="204.32" gradientTransform="matrix(.25209 -.042761 .042761 .25209 -41.086 251.65)" gradientUnits="userSpaceOnUse">
<stop stop-color="#ebf4f5" offset="0"/>
<stop stop-color="#cfcfcf" offset="1"/>
</linearGradient>
<filter id="filter1243" x="-.016602" y="-.014712" width="1.0332" height="1.0294" color-interpolation-filters="sRGB">
<feGaussianBlur stdDeviation="0.75075161"/>
</filter>
</defs>
<g transform="translate(0 -263.13)">
<path transform="matrix(.26458 0 0 .26458 0 263.13)" d="m97.59 2.7285c-0.45037-0.014789-0.90883 0.015339-1.3711 0.09375l-78.777 13.361c-3.6981 0.62729-6.1703 4.1105-5.543 7.8086l0.32031 1.8828c4.35e-4 0.002582-4.38e-4 0.00523 0 0.007812l15.568 91.779 0.32031 1.8906c0.62731 3.6981 4.1105 6.1703 7.8086 5.543l78.777-13.363c3.6981-0.62729 6.1703-4.1085 5.543-7.8066l-0.31836-1.8789-0.00195-0.01368-4.9688-29.287-10.6-62.49c-0.00169-0.009945-0.00413-0.019369-0.00586-0.029297l-0.31641-1.8613c-0.54889-3.2359-3.283-5.5332-6.4355-5.6367zm0.16797 5.7441c1.1733 0.038386 2.1922 0.89335 2.3965 2.0977l15.699 92.549v0.00391c0.23104 1.3748-0.68944 2.6691-2.0645 2.9023l-78.904 13.383c-1.3763 0.23358-2.6708-0.68618-2.9043-2.0625l-15.699-92.547c-4.43e-4 -0.002614 4.35e-4 -0.005199 0-0.007812-0.22865-1.3734 0.6888-2.6654 2.0625-2.8984l78.904-13.385c0.17204-0.029197 0.34215-0.04064 0.50976-0.035156z" fill="#080f10" fill-opacity=".6166" filter="url(#filter1243)" style="paint-order:fill markers stroke"/>
<path d="m4.6995 267.92c-0.97846 0.16598-1.6326 1.0873-1.4666 2.0658l4.204 24.783c0.16597 0.97846 1.0873 1.6326 2.0658 1.4666l20.843-3.5356c0.97846-0.16597 1.6326-1.0873 1.4666-2.0658l-4.204-24.783c-0.16598-0.97846-1.0873-1.6326-2.0658-1.4666zm0.15402 1.01 20.877-3.5413c0.36415-0.0618 0.70705 0.18155 0.76882 0.54571l4.2385 24.987c0.06177 0.36416-0.18168 0.70708-0.54584 0.76885l-20.877 3.5413c-0.36415 0.0618-0.70707-0.18169-0.76885-0.54584l-4.2385-24.987c-0.061771-0.36415 0.18171-0.70694 0.54586-0.76871z" fill="#3c3c3c" style="paint-order:fill markers stroke"/>
<path d="m4.6146 267.42c-0.97846 0.16597-1.6326 1.0873-1.4666 2.0658l4.204 24.783c0.16597 0.97846 1.0873 1.6326 2.0658 1.4666l20.843-3.5356c0.97846-0.16597 1.6326-1.0873 1.4666-2.0658l-4.204-24.783c-0.16597-0.97846-1.0873-1.6326-2.0658-1.4666zm0.15402 1.01 20.877-3.5413c0.36415-0.0618 0.70705 0.18155 0.76882 0.5457l4.2385 24.987c0.06177 0.36415-0.18168 0.70708-0.54584 0.76885l-20.877 3.5413c-0.36415 0.0618-0.70707-0.18169-0.76885-0.54584l-4.2385-24.987c-0.061771-0.36415 0.18171-0.70694 0.54586-0.76871z" fill="url(#linearGradient1059)" style="paint-order:fill markers stroke"/>
<path d="m3.4263 268.18c-0.050434 0.0224-0.082407 0.0735-0.079563 0.12982 0.024538-0.0442 0.050977-0.0873 0.079131-0.12921 1.661e-4 -2.4e-4 2.769e-4 -3.9e-4 4.431e-4 -6.3e-4zm1.3424 0.24351c-0.36415 0.0618-0.60763 0.40456-0.54586 0.76871l4.2385 24.987c0.05791 0.34139 0.36284 0.57671 0.70079 0.5539 4.41e-5 -1e-5 6.6e-5 -2e-5 1.334e-4 -3e-5 0.022487-2e-3 0.045208-4e-3 0.067924-8e-3l20.877-3.5413c0.25035-0.0425 0.4437-0.21783 0.52-0.44162 0.01387-0.0407 0.02386-0.0829 0.02963-0.12631 0.0087-0.0651 0.0078-0.13264-0.0038-0.20092l-4.2385-24.987c-0.01158-0.0683-0.03304-0.13236-0.06268-0.19093-0.01976-0.039-0.04312-0.0756-0.06963-0.10948-0.14582-0.18606-0.38616-0.28776-0.63652-0.2453zm3.1607 26.882c0.017386 0.0384 0.051195 0.0665 0.091561 0.076-4.014e-4 -3.4e-4 -8.205e-4 -6.7e-4 -0.00124-1e-3 -0.030934-0.024-0.060995-0.049-0.09032-0.075z" style="paint-order:fill markers stroke"/>
<rect transform="rotate(-9.6274)" x="-40.211" y="266.13" width="21.217" height="25.299" rx=".11839" ry=".11839" fill="url(#linearGradient1051)" style="paint-order:fill markers stroke"/>
<path d="m7.4347 270.73 1.5075-0.25572" fill="none" stroke="#eecf6f" stroke-width=".37075"/>
<path d="m8.7361 271.56 1.2549-0.21286" fill="none" stroke="#59fe9a" stroke-width=".37075"/>
<path d="m10.345 271.28 2.0128-0.34144" fill="none" stroke="#fff" stroke-width=".37075"/>
<path d="m13.149 270.81 1.6339-0.27715" fill="none" stroke="#838383" stroke-width=".37075"/>
<path d="m22.888 270.17 3.1245-0.53001" fill="none" stroke="#fdb409" stroke-width=".37075"/>
<path d="m8.9664 272.53 1.2549-0.21286" fill="none" stroke="#817e77" stroke-width=".37075"/>
<path d="m10.567 272.26 1.2549-0.21286" fill="none" stroke="#f2ce7a" stroke-width=".37075"/>
<path d="m12.419 271.94 3.7646-0.63858" fill="none" stroke="#7d9ee3" stroke-width=".37075"/>
<path d="m16.698 271.22 1.5581-0.26429" fill="none" stroke="#c0ce82" stroke-width=".37075"/>
<path d="m18.904 270.84 1.7602-0.29858" fill="none" stroke="#92c4eb" stroke-width=".37075"/>
<path d="m21.347 270.43 0.83377-0.14144" fill="none" stroke="#817e77" stroke-width=".37075"/>
<path d="m9.1643 273.56 1.8848-0.31972" fill="none" stroke="#3e75e8" stroke-width=".37075"/>
<path d="m11.593 273.15 1.8848-0.31972" fill="none" stroke="#e735e3" stroke-width=".37075"/>
<path d="m17.253 272.19 4.5731-0.77573" fill="none" stroke="#81f08d" stroke-width=".37075"/>
<path d="m22.606 271.28 2.8517-0.48373" fill="none" stroke="#d44444" stroke-width=".37075"/>
<path d="m9.3199 274.53 4.2523-0.72131" fill="none" stroke="#e47c63" stroke-width=".37075"/>
<path d="m8.9201 275.71 2.5348-0.42998" fill="none" stroke="#6e6e6e" stroke-width=".37075"/>
<path d="m9.0927 276.73 4.5358-0.7694" fill="none" stroke="#13a09e" stroke-width=".37075"/>
<path d="m9.4824 278.82 2.168-0.36776" fill="none" stroke="#a06313" stroke-width=".37075"/>
<path d="m13.376 277.1 2.168-0.36776" fill="none" stroke="#f4f061" stroke-width=".37075"/>
<path d="m15.944 276.66 8.2709-1.403" fill="none" stroke="#fff" stroke-width=".37075"/>
<path d="m25.415 275.06 1.0675-0.18108" fill="none" stroke="#c7f17a" stroke-width=".37075"/>
<path d="m13.416 281.38 1.0675-0.18108" fill="none" stroke="#83d0f0" stroke-width=".37075"/>
<path d="m15.484 281.03 1.0675-0.18108" fill="none" stroke="#ea5252" stroke-width=".37075"/>
<path d="m12.835 280.38 1.0675-0.18108" fill="none" stroke="#89ea7b" stroke-width=".37075"/>
<path d="m13.094 283.53 1.7678-0.29987" fill="none" stroke="#a0139d" stroke-width=".37075"/>
<path d="m15.595 283.1 1.7678-0.29987" fill="none" stroke="#e4e735" stroke-width=".37075"/>
<path d="m18.197 282.66 1.1008-0.18673" fill="none" stroke="#a0139d" stroke-width=".37075"/>
<path d="m13.601 287.73 1.1008-0.18674" fill="none" stroke="#a0a09d" stroke-width=".37075"/>
<path d="m12.276 289.02 1.1008-0.18673" fill="none" stroke="#a0139d" stroke-width=".37075"/>
<path d="m14.31 288.67 1.6344-0.27725" fill="none" stroke="#a0613e" stroke-width=".37075"/>
<path d="m16.454 288.31 1.6344-0.27725" fill="none" stroke="#a0139d" stroke-width=".37075"/>
<path d="m18.613 287.94 1.0341-0.17542" fill="none" stroke="#a0909d" stroke-width=".37075"/>
<path d="m11.871 290.11 1.0341-0.17541" fill="none" stroke="#7fd282" stroke-width=".37075"/>
<path d="m13.616 289.81 1.0341-0.17542" fill="none" stroke="#eb5656" stroke-width=".37075"/>
<path d="m15.597 289.47 4.0525-0.68742" fill="none" stroke="#8aa2d5" stroke-width=".37075"/>
<path d="m12.107 291.21 4.0525-0.68743" fill="none" stroke="#939393" stroke-width=".37075"/>
<path d="m16.823 290.41 4.0525-0.68743" fill="none" stroke="#1358a0" stroke-width=".37075"/>
<path d="m4.98 269.09c-0.064664 0.011-0.10789 0.0719-0.096922 0.13653l4.1914 24.709c0.010969 0.0647 0.071857 0.10789 0.13652 0.0969l1.3123-0.22261-4.231-24.943z" fill="#fff" fill-opacity=".094862"/>
<path d="m5.9277 271.05a0.213 0.213 0 0 0-0.17438 0.24562 0.213 0.213 0 0 0 0.24562 0.17437 0.213 0.213 0 0 0 0.17437-0.24562 0.213 0.213 0 0 0-0.24562-0.17437zm0.16476 0.97129a0.213 0.213 0 0 0-0.17438 0.24562 0.213 0.213 0 0 0 0.24562 0.17437 0.213 0.213 0 0 0 0.17437-0.24562 0.213 0.213 0 0 0-0.24561-0.17437zm0.16476 0.97129a0.213 0.213 0 0 0-0.17438 0.24562 0.213 0.213 0 0 0 0.24562 0.17437 0.213 0.213 0 0 0 0.17437-0.24561 0.213 0.213 0 0 0-0.24562-0.17438zm0.16476 0.97129a0.213 0.213 0 0 0-0.17438 0.24562 0.213 0.213 0 0 0 0.24562 0.17437 0.213 0.213 0 0 0 0.17437-0.24561 0.213 0.213 0 0 0-0.24562-0.17438zm0.16476 0.9713a0.213 0.213 0 0 0-0.17438 0.24561 0.213 0.213 0 0 0 0.24562 0.17438 0.213 0.213 0 0 0 0.17437-0.24562 0.213 0.213 0 0 0-0.24562-0.17437zm0.16476 0.97129a0.213 0.213 0 0 0-0.17438 0.24561 0.213 0.213 0 0 0 0.24562 0.17438 0.213 0.213 0 0 0 0.17437-0.24562 0.213 0.213 0 0 0-0.24561-0.17437zm0.16476 0.97129a0.213 0.213 0 0 0-0.17438 0.24562 0.213 0.213 0 0 0 0.24562 0.17437 0.213 0.213 0 0 0 0.17437-0.24562 0.213 0.213 0 0 0-0.24562-0.17437zm0.16476 0.97129a0.213 0.213 0 0 0-0.17438 0.24562 0.213 0.213 0 0 0 0.24562 0.17437 0.213 0.213 0 0 0 0.17437-0.24561 0.213 0.213 0 0 0-0.24561-0.17438zm0.16476 0.97129a0.213 0.213 0 0 0-0.17438 0.24562 0.213 0.213 0 0 0 0.24562 0.17437 0.213 0.213 0 0 0 0.17437-0.24561 0.213 0.213 0 0 0-0.24562-0.17438zm0.16476 0.9713a0.213 0.213 0 0 0-0.17438 0.24561 0.213 0.213 0 0 0 0.24562 0.17437 0.213 0.213 0 0 0 0.17437-0.24561 0.213 0.213 0 0 0-0.24562-0.17437zm0.16476 0.97129a0.213 0.213 0 0 0-0.17438 0.24562 0.213 0.213 0 0 0 0.24562 0.17437 0.213 0.213 0 0 0 0.17437-0.24562 0.213 0.213 0 0 0-0.24562-0.17437zm0.16476 0.97129a0.213 0.213 0 0 0-0.17438 0.24562 0.213 0.213 0 0 0 0.24562 0.17437 0.213 0.213 0 0 0 0.17437-0.24562 0.213 0.213 0 0 0-0.24561-0.17437zm0.16476 0.97129a0.213 0.213 0 0 0-0.17438 0.24562 0.213 0.213 0 0 0 0.24562 0.17437 0.213 0.213 0 0 0 0.17437-0.24561 0.213 0.213 0 0 0-0.24562-0.17438zm0.16476 0.97129a0.213 0.213 0 0 0-0.17438 0.24562 0.213 0.213 0 0 0 0.24562 0.17437 0.213 0.213 0 0 0 0.17437-0.24561 0.213 0.213 0 0 0-0.24562-0.17438zm0.16476 0.9713a0.213 0.213 0 0 0-0.17438 0.24561 0.213 0.213 0 0 0 0.24562 0.17438 0.213 0.213 0 0 0 0.17437-0.24562 0.213 0.213 0 0 0-0.24562-0.17437zm0.16476 0.97129a0.213 0.213 0 0 0-0.17438 0.24561 0.213 0.213 0 0 0 0.24562 0.17438 0.213 0.213 0 0 0 0.17437-0.24562 0.213 0.213 0 0 0-0.24561-0.17437zm0.16474 0.97116a0.213 0.213 0 0 0-0.17438 0.24562 0.213 0.213 0 0 0 0.24564 0.1745 0.213 0.213 0 0 0 0.17435-0.24575 0.213 0.213 0 0 0-0.24562-0.17437zm0.16476 0.97129a0.213 0.213 0 0 0-0.17438 0.24562 0.213 0.213 0 0 0 0.24562 0.17437 0.213 0.213 0 0 0 0.17437-0.24562 0.213 0.213 0 0 0-0.24561-0.17437zm0.16476 0.97129a0.213 0.213 0 0 0-0.17438 0.24562 0.213 0.213 0 0 0 0.24562 0.17437 0.213 0.213 0 0 0 0.17437-0.24561 0.213 0.213 0 0 0-0.24562-0.17438zm0.16476 0.9713a0.213 0.213 0 0 0-0.17438 0.24561 0.213 0.213 0 0 0 0.24562 0.17438 0.213 0.213 0 0 0 0.17437-0.24562 0.213 0.213 0 0 0-0.24562-0.17437zm0.16476 0.97129a0.213 0.213 0 0 0-0.17438 0.24561 0.213 0.213 0 0 0 0.24562 0.17438 0.213 0.213 0 0 0 0.17437-0.24562 0.213 0.213 0 0 0-0.24562-0.17437zm0.16476 0.97129a0.213 0.213 0 0 0-0.17438 0.24561 0.213 0.213 0 0 0 0.24562 0.17438 0.213 0.213 0 0 0 0.17437-0.24562 0.213 0.213 0 0 0-0.24561-0.17437z" fill="#8ff7ff" style="paint-order:fill markers stroke"/>
<path d="m13.572 273.81c-1.2425 0.21935-1.8663 0.52185-2.4237 1.0121-0.55212 0.48251-0.74256 1.1335-0.60106 1.9351l0.42166 2.3885c0.08468 0.47963-0.0687 0.85191-0.40381 1.1534-0.33249 0.29764-1.1503 0.59145-1.9228 0.72784l0.25629 1.4518c1.5226-0.2688 2.6653 0.0373 2.8341 0.99334l0.38416 2.176c0.15514 0.87878 0.55605 1.4951 1.201 1.7829 0.65575 0.29253 1.3615 0.36044 2.683 0.1371l-0.24663-1.397c-0.65832 0.10656-1.0185 0.0404-1.3495-0.12397-0.33103-0.16412-0.52284-0.44211-0.59728-0.86378l-0.40803-2.3112c-0.18185-1.0301-0.80486-1.5508-2.1474-1.503l-0.0193-0.10931c1.2749-0.43094 1.6785-1.1527 1.4984-2.1731l-0.40347-2.2854c-0.07445-0.4217 0.01453-0.72617 0.26995-0.99036 0.25811-0.26781 0.57542-0.46336 1.2211-0.60392zm6.5442-1.1553 0.24663 1.397c0.65463-0.0899 1.0199-0.014 1.3541 0.1493 0.33042 0.16069 0.51829 0.41635 0.59274 0.83806l0.40348 2.2854c0.18014 1.0204 0.80656 1.5604 2.1519 1.5287l0.0193 0.10931c-1.2777 0.41474-1.6848 1.1173-1.5029 2.1474l0.40803 2.3112c0.07444 0.42168-0.01055 0.74868-0.2654 1.0161-0.25166 0.26667-0.57068 0.45258-1.2256 0.57817l0.24663 1.397c1.3213-0.24293 1.9579-0.54799 2.4738-1.0475 0.51066-0.49177 0.67307-1.2076 0.51793-2.0863l-0.38416-2.176c-0.16878-0.95604 0.80009-1.6349 2.3227-1.9037l-0.2563-1.4518c-0.77255 0.13639-1.6415 0.14046-2.0526-0.026-0.4213-0.16778-0.69287-0.46518-0.77755-0.94482l-0.42166-2.3884c-0.1415-0.80153-0.54337-1.348-1.2273-1.6123-0.69154-0.2696-1.3806-0.33715-2.6231-0.1178z" fill="#f7f4ef"/>
</g>
</svg>
