<svg width="128" height="128" version="1.1" viewBox="0 0 33.867 33.867" xmlns="http://www.w3.org/2000/svg" xmlns:osb="http://www.openswatchbook.org/uri/2009/osb" xmlns:xlink="http://www.w3.org/1999/xlink">
<defs>
<linearGradient id="linearGradient4601" x1="-23.371" x2="-23.368" y1="265.06" y2="258.26" gradientTransform="matrix(.97502 -.15031 .15031 .97502 1.7893 9.4995)" gradientUnits="userSpaceOnUse">
<stop stop-color="#d3d3d3" offset="0"/>
<stop stop-color="#e0e0e0" stop-opacity=".80303" offset="1"/>
</linearGradient>
<clipPath>
<rect width="384" height="384"/>
</clipPath>
<clipPath>
<rect width="384" height="384"/>
</clipPath>
<linearGradient id="linearGradient948" x1="122.34" x2="84.091" y1="117.04" y2="71.02" gradientTransform="matrix(.26458 0 0 .26458 -73.214 269.23)" gradientUnits="userSpaceOnUse">
<stop stop-color="#d5dada" offset="0"/>
<stop stop-color="#f1f1f1" offset="1"/>
</linearGradient>
<linearGradient id="linearGradient1615" x1="21.771" x2="30.878" y1="281.85" y2="291.66" gradientTransform="matrix(.80418 0 0 .80418 -38.977 59.607)" gradientUnits="userSpaceOnUse">
<stop stop-color="#aa75e6" offset="0"/>
<stop stop-color="#8935f0" offset="1"/>
</linearGradient>
<linearGradient id="linearGradient4285" x1="21.771" x2="30.878" y1="281.85" y2="291.66" gradientTransform="matrix(.94412 0 0 .94412 -42.626 19.514)" gradientUnits="userSpaceOnUse">
<stop stop-color="#F1F1F2" offset="0"/>
<stop stop-color="#E4E5E6" offset=".091914"/>
<stop stop-color="#D9DADB" offset=".2357"/>
<stop stop-color="#D2D4D5" offset=".438"/>
<stop stop-color="#D0D2D3" offset="1"/>
</linearGradient>
</defs>
<g transform="translate(0 -263.13)">
<g transform="matrix(.97507 -.15 .15 .97507 22.55 10.715)" fill="none" opacity=".389" stroke="#000" stroke-linecap="round" stroke-linejoin="round" stroke-opacity=".039216">
<rect transform="rotate(-.018651)" x="-61.945" y="253.77" width="25.83" height="29.567" rx="1.4423" ry="1.4423" opacity="1" stroke-width=".15" style="paint-order:fill markers stroke"/>
<rect transform="rotate(-.018651)" x="-61.945" y="253.77" width="25.83" height="29.567" rx="1.4423" ry="1.4423" opacity="1" stroke-width=".3" style="paint-order:fill markers stroke"/>
<rect transform="rotate(-.018651)" x="-61.945" y="253.77" width="25.83" height="29.567" rx="1.4423" ry="1.4423" opacity="1" stroke-width=".45" style="paint-order:fill markers stroke"/>
<rect transform="rotate(-.018651)" x="-61.945" y="253.77" width="25.83" height="29.567" rx="1.4423" ry="1.4423" opacity="1" stroke-width=".6" style="paint-order:fill markers stroke"/>
<rect transform="rotate(-.018651)" x="-61.945" y="253.77" width="25.83" height="29.567" rx="1.4423" ry="1.4423" opacity="1" stroke-width=".85" style="paint-order:fill markers stroke"/>
<rect transform="rotate(-.018651)" x="-61.945" y="253.77" width="25.83" height="29.567" rx="1.4423" ry="1.4423" opacity="1" style="paint-order:fill markers stroke"/>
</g>
<rect transform="rotate(-8.764)" x="-40.457" y="264.37" width="25.483" height="29.169" rx="1.4229" ry="1.4229" fill="#ececec" style="paint-order:fill markers stroke"/>
<g transform="translate(-13.796 1.1451)" fill="none" stroke="#000">
<path d="m28.113 273.64c-0.64411-0.0101-1.3392 0.0615-2.0789 0.2527h-5.17e-4c-1.1406 0.29553-2.3905 0.85805-3.7155 1.8629 0.25467-0.046 0.49132-0.0853 0.71262-0.11885 0.0093-1e-3 0.01865-3e-3 0.02791-4e-3 0.01615-2e-3 0.02898-4e-3 0.04496-6e-3 0.72323-0.0992 1.7704-0.18933 2.3461 7e-3 0.0012 2e-3 0.0036 4e-3 0.0047 6e-3 -3.1079 0.26865-3.4661 4.0885-3.2194 6.6384-3.35e-4 7e-3 -0.0024 0.0131-0.0026 0.0196-0.04173 0.55793 0.2098 1.2475 0.20981 1.2475 0 0 0.31729-0.63944 1.0309-1.5214-0.03608 0.0541-0.07242 0.10884-0.10594 0.15244-0.03944 0.18449-0.06678 0.41406-0.11937 0.61547-0.27364 1.797-0.18707 3.2342 0.10387 4.332 0.03646 0.13758 0.36154 0.89866 0.40204 1.0227 0.26788 1.1354 1.3338 2.0304 1.3338 2.0304s0.06123-0.66984 0.30334-1.6893c1.8508 0.7046 3.8754 0.8172 5.7934 0.31781 2.1704-0.57258 4.0689-1.8928 5.3614-3.7279-0.68205-0.38307-3.4835-2.0464-3.9171-3.9202-0.22461-0.97067 0.09464-1.9803 1.7477-2.9404 0.82403-0.32335 1.7172-0.59901 2.6898-0.80926-0.48562-1.1992-2.029-2.1834-4.0359-2.0851-0.29806-0.0566-2.1259-1.6377-4.917-1.6816zm2.465 1.5668c0.43596-5e-3 0.93512 0.22184 1.2692 1.0898-1.5654 0.5885-2.1766-0.78289-2.1766-0.78289s0.20588-0.15051 0.50074-0.24082c0.12286-0.0376 0.26137-0.0646 0.40669-0.0661z" stroke-opacity=".053232" stroke-width=".26458"/>
<path d="m28.113 273.64c-0.64411-0.0101-1.3392 0.0615-2.0789 0.2527h-5.17e-4c-1.1406 0.29553-2.3905 0.85805-3.7155 1.8629 0.25467-0.046 0.49132-0.0853 0.71262-0.11885 0.0093-1e-3 0.01865-3e-3 0.02791-4e-3 0.01615-2e-3 0.02898-4e-3 0.04496-6e-3 0.72323-0.0992 1.7704-0.18933 2.3461 7e-3 0.0012 2e-3 0.0036 4e-3 0.0047 6e-3 -3.1079 0.26865-3.4661 4.0885-3.2194 6.6384-3.35e-4 7e-3 -0.0024 0.0131-0.0026 0.0196-0.04173 0.55793 0.2098 1.2475 0.20981 1.2475 0 0 0.31729-0.63944 1.0309-1.5214-0.03608 0.0541-0.07242 0.10884-0.10594 0.15244-0.03944 0.18449-0.06678 0.41406-0.11937 0.61547-0.27364 1.797-0.18707 3.2342 0.10387 4.332 0.03646 0.13758 0.36154 0.89866 0.40204 1.0227 0.26788 1.1354 1.3338 2.0304 1.3338 2.0304s0.06123-0.66984 0.30334-1.6893c1.8508 0.7046 3.8754 0.8172 5.7934 0.31781 2.1704-0.57258 4.0689-1.8928 5.3614-3.7279-0.68205-0.38307-3.4835-2.0464-3.9171-3.9202-0.22461-0.97067 0.09464-1.9803 1.7477-2.9404 0.82403-0.32335 1.7172-0.59901 2.6898-0.80926-0.48562-1.1992-2.029-2.1834-4.0359-2.0851-0.29806-0.0566-2.1259-1.6377-4.917-1.6816zm2.465 1.5668c0.43596-5e-3 0.93512 0.22184 1.2692 1.0898-1.5654 0.5885-2.1766-0.78289-2.1766-0.78289s0.20588-0.15051 0.50074-0.24082c0.12286-0.0376 0.26137-0.0646 0.40669-0.0661z" stroke-opacity=".022814" stroke-width=".375"/>
<path d="m28.113 273.64c-0.64411-0.0101-1.3392 0.0615-2.0789 0.2527h-5.17e-4c-1.1406 0.29553-2.3905 0.85805-3.7155 1.8629 0.25467-0.046 0.49132-0.0853 0.71262-0.11885 0.0093-1e-3 0.01865-3e-3 0.02791-4e-3 0.01615-2e-3 0.02898-4e-3 0.04496-6e-3 0.72323-0.0992 1.7704-0.18933 2.3461 7e-3 0.0012 2e-3 0.0036 4e-3 0.0047 6e-3 -3.1079 0.26865-3.4661 4.0885-3.2194 6.6384-3.35e-4 7e-3 -0.0024 0.0131-0.0026 0.0196-0.04173 0.55793 0.2098 1.2475 0.20981 1.2475 0 0 0.31729-0.63944 1.0309-1.5214-0.03608 0.0541-0.07242 0.10884-0.10594 0.15244-0.03944 0.18449-0.06678 0.41406-0.11937 0.61547-0.27364 1.797-0.18707 3.2342 0.10387 4.332 0.03646 0.13758 0.36154 0.89866 0.40204 1.0227 0.26788 1.1354 1.3338 2.0304 1.3338 2.0304s0.06123-0.66984 0.30334-1.6893c1.8508 0.7046 3.8754 0.8172 5.7934 0.31781 2.1704-0.57258 4.0689-1.8928 5.3614-3.7279-0.68205-0.38307-3.4835-2.0464-3.9171-3.9202-0.22461-0.97067 0.09464-1.9803 1.7477-2.9404 0.82403-0.32335 1.7172-0.59901 2.6898-0.80926-0.48562-1.1992-2.029-2.1834-4.0359-2.0851-0.29806-0.0566-2.1259-1.6377-4.917-1.6816zm2.465 1.5668c0.43596-5e-3 0.93512 0.22184 1.2692 1.0898-1.5654 0.5885-2.1766-0.78289-2.1766-0.78289s0.20588-0.15051 0.50074-0.24082c0.12286-0.0376 0.26137-0.0646 0.40669-0.0661z" stroke-opacity=".022814" stroke-width=".75"/>
<path d="m28.113 273.64c-0.64411-0.0101-1.3392 0.0615-2.0789 0.2527h-5.17e-4c-1.1406 0.29553-2.3905 0.85805-3.7155 1.8629 0.25467-0.046 0.49132-0.0853 0.71262-0.11885 0.0093-1e-3 0.01865-3e-3 0.02791-4e-3 0.01615-2e-3 0.02898-4e-3 0.04496-6e-3 0.72323-0.0992 1.7704-0.18933 2.3461 7e-3 0.0012 2e-3 0.0036 4e-3 0.0047 6e-3 -3.1079 0.26865-3.4661 4.0885-3.2194 6.6384-3.35e-4 7e-3 -0.0024 0.0131-0.0026 0.0196-0.04173 0.55793 0.2098 1.2475 0.20981 1.2475 0 0 0.31729-0.63944 1.0309-1.5214-0.03608 0.0541-0.07242 0.10884-0.10594 0.15244-0.03944 0.18449-0.06678 0.41406-0.11937 0.61547-0.27364 1.797-0.18707 3.2342 0.10387 4.332 0.03646 0.13758 0.36154 0.89866 0.40204 1.0227 0.26788 1.1354 1.3338 2.0304 1.3338 2.0304s0.06123-0.66984 0.30334-1.6893c1.8508 0.7046 3.8754 0.8172 5.7934 0.31781 2.1704-0.57258 4.0689-1.8928 5.3614-3.7279-0.68205-0.38307-3.4835-2.0464-3.9171-3.9202-0.22461-0.97067 0.09464-1.9803 1.7477-2.9404 0.82403-0.32335 1.7172-0.59901 2.6898-0.80926-0.48562-1.1992-2.029-2.1834-4.0359-2.0851-0.29806-0.0566-2.1259-1.6377-4.917-1.6816zm2.465 1.5668c0.43596-5e-3 0.93512 0.22184 1.2692 1.0898-1.5654 0.5885-2.1766-0.78289-2.1766-0.78289s0.20588-0.15051 0.50074-0.24082c0.12286-0.0376 0.26137-0.0646 0.40669-0.0661z" stroke-opacity=".022814" stroke-width=".14062"/>
</g>
<path d="m12.384 275.05c-1.1406 0.29553-2.3907 0.85774-3.7158 1.8626 2.0802-0.37576 3.0296-0.32009 3.136-0.11674-3.4692 0.29989-3.5144 5.0303-3.1139 7.473 0.024826 0.15144 0.069668 0.13575 0.097236 0.26808 0 0 0.83933-1.8371 1.216-2.0908 0.11607-0.0782 0.24728-0.15798 0.3904-0.24001-0.26885 0.47713-0.49195 0.88606-0.67676 1.1264-0.03944 0.18449-0.06705 0.41419-0.11964 0.6156-0.27364 1.797-0.18693 3.234 0.104 4.3318 0.03646 0.13758 0.36143 0.89865 0.40192 1.0227 0.55567 0.37204 0.86715 0.0357 1.4882 0.28352 0.07795-0.15975 0.15826-0.32237 0.17603-0.40419-0.04818 0.15716-0.08265 0.28804-0.12089 0.42727 1.8759 0.73685 3.9371 0.86024 5.8875 0.35242 2.1704-0.57258 4.0689-1.8931 5.3614-3.7282-0.68205-0.38307-3.4836-2.0464-3.9172-3.9201-0.22461-0.97067 0.09477-1.9804 1.7478-2.9405 0.82403-0.32335 1.7172-0.59889 2.6897-0.80914-0.48562-1.1992-2.0289-2.1836-4.0358-2.0853-0.36684-0.0697-3.0511-2.4482-6.9964-1.4284zm4.1377 1.38c0.49145-0.1505 1.2301-0.13371 1.6756 1.0236-1.5654 0.5885-2.1764-0.78261-2.1764-0.78261s0.20594-0.15076 0.50081-0.24107z" fill="#afafaf" fill-rule="evenodd"/>
<path d="m1.7032 267.24 22.373-3.4491c0.77908-0.1201 1.503 0.41041 1.6231 1.1895l0.78031 5.061-25.187 3.8749-0.77888-5.0528c-0.12009-0.77908 0.4104-1.503 1.1895-1.6231z" fill="url(#linearGradient4601)" style="paint-order:fill markers stroke"/>
<g transform="matrix(.89651 -.13791 .13791 .89651 1.9046 30.379)">
<circle cx="-38.526" cy="261.91" r="1.336" fill="#ff2911" style="paint-order:fill markers stroke"/>
<circle cx="-34.572" cy="261.91" r="1.336" fill="#f89c22" style="paint-order:fill markers stroke"/>
<circle cx="-30.619" cy="261.91" r="1.336" fill="#2ecc3f" style="paint-order:fill markers stroke"/>
<path transform="matrix(.26458 0 0 .26458 0 263.13)" d="m-150.61-5.2949a5.0494 5.0494 0 0 0-0.0508 0.66992 5.0494 5.0494 0 0 0 5.0488 5.0508 5.0494 5.0494 0 0 0 5.0508-5.0508 5.0494 5.0494 0 0 0-0.0508-0.66602 5.0494 5.0494 0 0 1-5 4.377 5.0494 5.0494 0 0 1-4.998-4.3809z" fill="#e61700" fill-opacity=".80303" style="paint-order:fill markers stroke"/>
<path transform="matrix(.26458 0 0 .26458 0 263.13)" d="m-145.61-9.6738a5.0494 5.0494 0 0 0-5.0488 5.0488 5.0494 5.0494 0 0 0 0.0586 0.72656 5.0494 5.0494 0 0 1 4.9902-4.332 5.0494 5.0494 0 0 1 4.9922 4.3242 5.0494 5.0494 0 0 0 0.0586-0.71875 5.0494 5.0494 0 0 0-5.0508-5.0488z" fill="#ff6b5b" fill-opacity=".39773" style="paint-order:fill markers stroke"/>
<path transform="matrix(.26458 0 0 .26458 0 263.13)" d="m-125.67-5.3184a5.0494 5.0494 0 0 1-4.9941 4.3594 5.0494 5.0494 0 0 1-4.9961-4.3574 5.0494 5.0494 0 0 0-0.0547 0.69141 5.0494 5.0494 0 0 0 5.0508 5.0508 5.0494 5.0494 0 0 0 5.0488-5.0508 5.0494 5.0494 0 0 0-0.0547-0.69336z" fill="#ec8a07" style="paint-order:fill markers stroke"/>
<path transform="matrix(.26458 0 0 .26458 0 263.13)" d="m-130.67-9.6738a5.0494 5.0494 0 0 0-5.0508 5.0488 5.0494 5.0494 0 0 0 0.0449 0.61133 5.0494 5.0494 0 0 1 5.0059-4.4219 5.0494 5.0494 0 0 1 5.0059 4.4355 5.0494 5.0494 0 0 0 0.043-0.625 5.0494 5.0494 0 0 0-5.0488-5.0488z" fill="#f9aa42" fill-opacity=".85145" style="paint-order:fill markers stroke"/>
<path transform="matrix(.26458 0 0 .26458 0 263.13)" d="m-110.72-5.2969a5.0494 5.0494 0 0 1-5 4.3828 5.0494 5.0494 0 0 1-5-4.3789 5.0494 5.0494 0 0 0-0.0488 0.66797 5.0494 5.0494 0 0 0 5.0488 5.0508 5.0494 5.0494 0 0 0 5.0488-5.0508 5.0494 5.0494 0 0 0-0.0488-0.67188z" fill="#27ae36" style="paint-order:fill markers stroke"/>
<path transform="matrix(.26458 0 0 .26458 0 263.13)" d="m-115.72-9.6738a5.0494 5.0494 0 0 0-5.0488 5.0488 5.0494 5.0494 0 0 0 0.0488 0.67188 5.0494 5.0494 0 0 1 5-4.3809 5.0494 5.0494 0 0 1 5 4.377 5.0494 5.0494 0 0 0 0.0488-0.66797 5.0494 5.0494 0 0 0-5.0488-5.0488z" fill="#50d85f" fill-opacity=".77536" style="paint-order:fill markers stroke"/>
</g>
<g transform="matrix(.97507 -.15 .15 .97507 1.7893 9.4995)" fill="none" stroke="#000" stroke-linecap="round" stroke-linejoin="round" stroke-opacity=".064394">
<rect x="-27.81" y="260.42" width="10.47" height="2.603" rx="1.3015" ry="1.3015" stroke-width=".1" style="paint-order:fill markers stroke"/>
<rect x="-27.81" y="260.42" width="10.47" height="2.603" rx="1.3015" ry="1.3015" stroke-width=".2" style="paint-order:fill markers stroke"/>
<rect x="-27.81" y="260.42" width="10.47" height="2.603" rx="1.3015" ry="1.3015" stroke-width=".3" style="paint-order:fill markers stroke"/>
</g>
<rect transform="rotate(-8.7453)" x="-27.112" y="266.58" width="10.329" height="2.568" rx="1.284" ry="1.284" fill="#fff" fill-opacity=".85145" style="paint-order:fill markers stroke"/>
<path d="m23.906 268.26c-0.09705 0.13233-0.21945 0.24607-0.36152 0.33349-0.14207 0.0874-0.30383 0.14851-0.4796 0.17555l-7.6707 1.18c-0.17576 0.027-0.3484 0.0174-0.51018-0.0233-0.16178-0.0407-0.31271-0.11237-0.44504-0.20942 0.39157 8e-3 0.81608 0.0476 1.2505-0.0198l6.9638-1.0802c0.46308-0.0718 0.87575-0.23577 1.2528-0.356z" fill="#ccc" fill-opacity=".85145" style="paint-order:fill markers stroke"/>
<rect transform="rotate(-8.7453)" x="-40.369" y="270.92" width="25.483" height=".4338" rx="0" ry="0" fill-opacity=".1553" style="paint-order:fill markers stroke"/>
<rect transform="rotate(-8.7453)" x="-40.369" y="270.68" width="25.483" height=".24552" rx="0" ry="0" fill="#fff" fill-opacity=".1553" style="paint-order:fill markers stroke"/>
<ellipse transform="matrix(.9879 -.15512 .14902 .98883 0 0)" cx="-17.194" cy="289.88" rx="7.1055" ry="7.246" fill="#343434" fill-opacity=".20455" opacity=".097" style="paint-order:fill markers stroke"/>
<ellipse transform="matrix(.9879 -.15512 .14902 .98883 0 0)" cx="-17.308" cy="289.92" rx="7.1055" ry="7.246" fill="#343434" fill-opacity=".20455" opacity=".097" style="paint-order:fill markers stroke"/>
<ellipse transform="matrix(.9879 -.15512 .14902 .98883 0 0)" cx="-17.422" cy="289.95" rx="7.1055" ry="7.246" fill="#343434" fill-opacity=".20455" opacity=".097" style="paint-order:fill markers stroke"/>
<path transform="matrix(.26458 0 0 .26458 0 263.13)" d="m98.523 72.387a26.842 27.399 7.696e-6 0 0-5.3516 0.28711 26.842 27.399 7.696e-6 0 0-22.449 31.246 26.842 27.399 7.696e-6 0 0 5.1992 12.422l31.871-4.9141c2.9446-0.45394 4.95-3.1902 4.4961-6.1348l-4.75-30.809a26.842 27.399 7.696e-6 0 0-9.0156-2.0977z" fill="#343434" fill-opacity=".20455" opacity=".097" style="paint-order:fill markers stroke"/>
<path transform="matrix(.26458 0 0 .26458 0 263.13)" d="m98.322 73.004a26.842 27.399 7.696e-6 0 0-5.3535 0.28906 26.842 27.399 7.696e-6 0 0-22.449 31.246 26.842 27.399 7.696e-6 0 0 4.7891 11.896l32.484-5.0078c2.9446-0.45394 4.95-3.1902 4.4961-6.1348l-4.6328-30.055a26.842 27.399 7.696e-6 0 0-9.334-2.2344z" fill="#343434" fill-opacity=".20455" opacity=".097" style="paint-order:fill markers stroke"/>
<path transform="matrix(.26458 0 0 .26458 0 263.13)" d="m97.816 73.211a26.842 27.399 7.696e-6 0 0-5.3516 0.28711 26.842 27.399 7.696e-6 0 0-22.449 31.246 26.842 27.399 7.696e-6 0 0 4.707 11.781l33.07-5.0977c2.9446-0.45394 4.95-3.1902 4.4961-6.1348l-4.5625-29.602a26.842 27.399 7.696e-6 0 0-9.9102-2.4805z" fill="#343434" fill-opacity=".20455" opacity=".14" style="paint-order:fill markers stroke"/>
<circle transform="rotate(-8.7453)" cx="-18.007" cy="290.01" r="7.1539" fill="url(#linearGradient4285)" style="paint-order:fill markers stroke"/>
<circle transform="matrix(.98837 -.15204 .15204 .98837 0 0)" cx="-18.007" cy="290.01" r="6.0936" fill="url(#linearGradient1615)" style="paint-order:fill markers stroke"/>
<g transform="matrix(.83461 0 0 .83461 4.2722 47.816)" fill="#fff">
<path d="m29.56 284.52-4.3412 3.7788 2.481 1.6677zm-4.6678 4.2647-1.8599 5.4461 4.3409-3.7784z" fill-opacity=".74242" style="paint-order:fill markers stroke"/>
<circle transform="matrix(.92958 .36863 -.36863 .92958 0 0)" cx="131.12" cy="259.3" r="1.891" style="paint-order:fill markers stroke"/>
</g>
<path d="m10.059 276.42c-0.58114 0.14652-1.1165 0.31859-1.3834 0.49072 0 0 2.2241-0.44681 3.1473-0.11392 0.30894-0.15286 0.52774-0.44913 0.49503-0.76601-0.19418-0.0267-1.2903 0.14504-2.2589 0.38921zm6.139 2.3982s-7.5406 2.3415-7.6153 4.6358c-0.041726 0.55793 0.20961 1.2473 0.20961 1.2473 0 0 1.9719-4.0378 7.4057-5.8831zm3.4531 0.69621c-2.3547 0.64887-7.3401 2.8181-9.5474 9.7883 0.26788 1.1354 1.3341 2.0304 1.3341 2.0304s0.79437-9.448 9.4906-12.082c0 0-0.49246 0.0474-1.2774 0.26366z" fill="#fff" fill-rule="evenodd"/>
</g>
</svg>
