<svg width="128" height="128" version="1.1" viewBox="0 0 128 128" xmlns="http://www.w3.org/2000/svg" xmlns:xlink="http://www.w3.org/1999/xlink">
<defs>
<linearGradient id="linearGradient825" x1="-741.83" x2="-741.83" y1="959.05" y2="93.836" gradientTransform="matrix(.1342 0 0 .1342 160.37 -5.4564)" gradientUnits="userSpaceOnUse">
<stop stop-color="#f21504" offset="0"/>
<stop stop-color="#ff9143" offset="1"/>
</linearGradient>
<linearGradient id="linearGradient835" x1="-738.76" x2="-738.76" y1="931.43" y2="152.13" gradientTransform="matrix(.1342 0 0 .1342 160.37 -5.4564)" gradientUnits="userSpaceOnUse">
<stop stop-color="#fb3523" offset="0"/>
<stop stop-color="#ff8d41" offset="1"/>
</linearGradient>
<linearGradient id="d-3-0" x1="31.121" x2="31.525" y1="18.007" y2="47.409" gradientTransform="matrix(2.0092 0 0 2.0092 -6.045 4.3321)" gradientUnits="userSpaceOnUse">
<stop stop-color="#fff" offset="0"/>
<stop stop-color="#fdeae1" offset="1"/>
</linearGradient>
<filter id="e-2-5" x="-.060001" y="-.059999" width="1.12" height="1.12" color-interpolation-filters="sRGB">
<feGaussianBlur stdDeviation="0.70000967"/>
</filter>
</defs>
<g transform="translate(-138.41 -15.501)" fill="none" opacity=".445" stroke="#000" stroke-linecap="round" stroke-linejoin="round" stroke-opacity=".031373">
<circle cx="202.16" cy="79.683" r="60.269" opacity="1" stroke-width=".5"/>
<circle cx="202.16" cy="79.683" r="60.269" opacity="1"/>
<circle cx="202.16" cy="79.683" r="60.269" opacity="1" stroke-width="1.5"/>
<circle cx="202.16" cy="79.683" r="60.269" opacity="1" stroke-width="2"/>
<circle cx="202.16" cy="79.683" r="60.269" opacity="1" stroke-width="2.5"/>
<circle cx="202.16" cy="79.683" r="60.269" opacity="1" stroke-width="3"/>
<circle cx="202.16" cy="79.683" r="60.269" opacity="1" stroke-width="3.5"/>
<circle cx="202.16" cy="79.683" r="60.269" opacity="1" stroke-width="4"/>
<circle cx="202.16" cy="79.683" r="60.269" opacity="1" stroke-width="4.5"/>
<circle cx="202.16" cy="79.683" r="60.269" opacity="1" stroke-width="5.5"/>
<circle cx="202.16" cy="79.683" r="60.269" opacity="1" stroke-width="6.5"/>
</g>
<circle cx="63.433" cy="63.547" r="60.269" fill="url(#linearGradient825)"/>
<circle cx="63.433" cy="63.547" r="54.093" fill="url(#linearGradient835)"/>
<g transform="translate(5.1831 -5.0803)">
<path transform="matrix(2.0092 0 0 2.0092 -65.329 -63.624)" d="m60.627 51.829c-1.0461 0.02035-2.0758 0.06105-2.7556 0.16281-3.0405 0.46401-5.4786 1.5304-7.0456 3.0853a6.2682 6.2682 0 0 0-1.7095 2.9306c-0.18316 0.70822-0.24422 2.3404-0.0529 2.9631 0.63903 2.1979 2.1572 3.883 5.0064 5.5762 1.2129 0.71636 2.1491 1.1885 4.8436 2.4055 3.2359 1.4531 4.2209 2.0392 4.6808 2.7678 0.17909 0.29306 0.24422 0.44773 0.2198 0.80184-0.0488 0.5617-0.32969 0.84254-0.98907 1.0827-0.43959 0.15467-0.59833 0.20351-1.4327 0.20351-1.5263-0.01628-2.8695-0.3012-4.7337-0.96465a17.225 17.225 0 0 1-3.6836-1.8072c-1.0827-0.70822-1.1682-0.73264-1.4897-0.5617-0.24014 0.13432-1.9985 1.7014-3.2969 2.9713-0.85068 0.82626-0.86289 0.99314-0.27678 1.563 0.57391 0.56984 2.1939 1.7706 3.0812 2.2834 0.96465 0.56984 1.6078 0.88325 2.6945 1.2862 1.8235 0.67566 3.3539 0.95651 6.2193 1.2007 0.65124 0.05291 2.9794 0.06105 3.7975 0 4.4854-0.35818 8.1446-1.8235 10.07-3.9685 0.69194-0.76114 1.1071-1.4164 1.4327-2.3282 0.31748-0.88732 0.39888-2.6294 0.16282-3.6877-0.38261-1.7136-1.4165-3.2643-3.0812-4.5709-1.6688-1.3106-3.362-2.1817-7.4282-3.8098-2.841-1.1315-3.9074-1.7339-4.1842-2.3648-0.1506-0.33783-0.061-0.93616 0.16281-1.1641 0.44773-0.4518 1.3106-0.61461 2.4259-0.48029 2.0758 0.25643 4.7459 1.2089 7.0985 2.5236 0.45587 0.25236 0.89546 0.46401 0.99315 0.48436 0.37853 0.09769 0.61054-0.05291 2.145-1.8072 1.8845-2.1572 1.8642-2.0718 0.82626-2.8085-3.0934-2.2142-6.6752-3.5004-10.786-3.8871a28.744 28.744 0 0 0-2.9184-0.0814z" filter="url(#e-2-5)" opacity=".15" stroke-width="3.7796"/>
<path d="m56.485 40.513c-2.1019 0.04088-4.1708 0.12266-5.5367 0.32712-6.1091 0.93231-11.008 3.0749-14.156 6.1991a12.594 12.594 0 0 0-3.4348 5.8883c-0.36801 1.423-0.4907 4.7024-0.10629 5.9536 1.284 4.4161 4.3343 7.8019 10.059 11.204 2.437 1.4393 4.3181 2.388 9.732 4.8332 6.5017 2.9196 8.4808 4.0972 9.4049 5.5612 0.35984 0.58883 0.4907 0.8996 0.44163 1.6111-0.09805 1.1286-0.66243 1.6929-1.9873 2.1754-0.88324 0.31077-1.2022 0.4089-2.8786 0.4089-3.0667-0.03271-5.7655-0.60518-9.5111-1.9382a34.609 34.609 0 0 1-7.4012-3.6311c-2.1754-1.423-2.3472-1.472-2.9932-1.1286-0.4825 0.26988-4.0155 3.4185-6.6243 5.9701-1.7092 1.6602-1.7338 1.9955-0.55612 3.1404 1.1531 1.1449 4.4081 3.5576 6.1909 4.5879 1.9382 1.1449 3.2305 1.7747 5.4139 2.5843 3.6638 1.3576 6.7388 1.9219 12.496 2.4125 1.3085 0.10631 5.9863 0.12266 7.6301 0 9.0122-0.71967 16.364-3.6639 20.233-7.9737 1.3903-1.5293 2.2244-2.8459 2.8786-4.6779 0.63789-1.7828 0.80145-5.2831 0.32714-7.4095-0.76876-3.443-2.8461-6.5588-6.1909-9.184-3.353-2.6333-6.7551-4.3836-14.925-7.6548-5.7083-2.2735-7.8509-3.4838-8.4071-4.7515-0.30259-0.67878-0.12256-1.881 0.32712-2.339 0.8996-0.90778 2.6333-1.2349 4.8742-0.96502 4.1708 0.51523 9.5357 2.429 14.263 5.0705 0.91595 0.50705 1.7992 0.93231 1.9955 0.9732 0.76056 0.19628 1.2267-0.10631 4.3098-3.6311 3.7864-4.3343 3.7456-4.1627 1.6602-5.643-6.2154-4.4489-13.412-7.0331-21.672-7.8101a57.754 57.754 0 0 0-5.8638-0.16355z" fill="url(#d-3-0)" stroke-width="7.5941"/>
</g>
</svg>
