<svg width="128" height="128" version="1.1" viewBox="0 0 128 128" xmlns="http://www.w3.org/2000/svg" xmlns:osb="http://www.openswatchbook.org/uri/2009/osb" xmlns:xlink="http://www.w3.org/1999/xlink">
<defs>
<linearGradient id="linearGradient825" x1="-741.83" x2="-741.83" y1="959.05" y2="93.836" gradientTransform="matrix(.13668 0 0 .13668 162.31 -5.9893)" gradientUnits="userSpaceOnUse">
<stop stop-color="#d8dfe3" offset="0"/>
<stop stop-color="#f5f9fd" offset="1"/>
</linearGradient>
<style id="current-color-scheme" type="text/css">.ColorScheme-Text { color:#5c616c; } .ColorScheme-Highlight { color:#5294e2; }</style>
<style id="current-color-scheme-3" type="text/css">.ColorScheme-Text { color:#5c616c; } .ColorScheme-Highlight { color:#5294e2; }</style>
<style id="current-color-scheme-7" type="text/css">.ColorScheme-Text { color:#5c616c; } .ColorScheme-Highlight { color:#5294e2; }</style>
<style id="current-color-scheme-35" type="text/css">.ColorScheme-Text { color:#5c616c; } .ColorScheme-Highlight { color:#5294e2; }</style>
<style id="current-color-scheme-9" type="text/css">.ColorScheme-Text { color:#5c616c; } .ColorScheme-Highlight { color:#5294e2; }</style>
<style id="current-color-scheme-2" type="text/css">.ColorScheme-Text { color:#5c616c; } .ColorScheme-Highlight { color:#5294e2; }</style>
<style id="current-color-scheme-0" type="text/css">.ColorScheme-Text { color:#5c616c; } .ColorScheme-Highlight { color:#5294e2; }</style>
<style id="current-color-scheme-36" type="text/css">.ColorScheme-Text { color:#5c616c; } .ColorScheme-Highlight { color:#5294e2; }</style>
<style id="current-color-scheme-6" type="text/css">.ColorScheme-Text { color:#5c616c; } .ColorScheme-Highlight { color:#5294e2; }</style>
<style id="current-color-scheme-61" type="text/css">.ColorScheme-Text { color:#5c616c; } .ColorScheme-Highlight { color:#5294e2; }</style>
<style id="current-color-scheme-79" type="text/css">.ColorScheme-Text { color:#5c616c; } .ColorScheme-Highlight { color:#5294e2; }</style>
<style id="current-color-scheme-23" type="text/css">.ColorScheme-Text { color:#5c616c; } .ColorScheme-Highlight { color:#5294e2; }</style>
<style id="current-color-scheme-92" type="text/css">.ColorScheme-Text { color:#5c616c; } .ColorScheme-Highlight { color:#5294e2; }</style>
<style id="current-color-scheme-97" type="text/css">.ColorScheme-Text { color:#5c616c; } .ColorScheme-Highlight { color:#5294e2; }</style>
<style id="current-color-scheme-612" type="text/css">.ColorScheme-Text { color:#5c616c; } .ColorScheme-Highlight { color:#5294e2; }</style>
<style id="current-color-scheme-1" type="text/css">.ColorScheme-Text { color:#5c616c; } .ColorScheme-Highlight { color:#5294e2; }</style>
<style id="current-color-scheme-3-0" type="text/css">.ColorScheme-Text { color:#5c616c; } .ColorScheme-Highlight { color:#5294e2; }</style>
<style id="current-color-scheme-7-6" type="text/css">.ColorScheme-Text { color:#5c616c; } .ColorScheme-Highlight { color:#5294e2; }</style>
<style id="current-color-scheme-35-3" type="text/css">.ColorScheme-Text { color:#5c616c; } .ColorScheme-Highlight { color:#5294e2; }</style>
<style id="current-color-scheme-9-2" type="text/css">.ColorScheme-Text { color:#5c616c; } .ColorScheme-Highlight { color:#5294e2; }</style>
<style id="current-color-scheme-2-0" type="text/css">.ColorScheme-Text { color:#5c616c; } .ColorScheme-Highlight { color:#5294e2; }</style>
<style id="current-color-scheme-0-6" type="text/css">.ColorScheme-Text { color:#5c616c; } .ColorScheme-Highlight { color:#5294e2; }</style>
<style id="current-color-scheme-36-1" type="text/css">.ColorScheme-Text { color:#5c616c; } .ColorScheme-Highlight { color:#5294e2; }</style>
<style id="current-color-scheme-6-5" type="text/css">.ColorScheme-Text { color:#5c616c; } .ColorScheme-Highlight { color:#5294e2; }</style>
<style id="current-color-scheme-61-5" type="text/css">.ColorScheme-Text { color:#5c616c; } .ColorScheme-Highlight { color:#5294e2; }</style>
<style id="current-color-scheme-79-4" type="text/css">.ColorScheme-Text { color:#5c616c; } .ColorScheme-Highlight { color:#5294e2; }</style>
<style id="current-color-scheme-23-7" type="text/css">.ColorScheme-Text { color:#5c616c; } .ColorScheme-Highlight { color:#5294e2; }</style>
<style id="current-color-scheme-92-6" type="text/css">.ColorScheme-Text { color:#5c616c; } .ColorScheme-Highlight { color:#5294e2; }</style>
<style id="current-color-scheme-97-5" type="text/css">.ColorScheme-Text { color:#5c616c; } .ColorScheme-Highlight { color:#5294e2; }</style>
<style id="current-color-scheme-612-6" type="text/css">.ColorScheme-Text { color:#5c616c; } .ColorScheme-Highlight { color:#5294e2; }</style>
<clipPath>
<rect width="384" height="384"/>
</clipPath>
<clipPath>
<rect width="384" height="384"/>
</clipPath>
<clipPath>
<rect width="384" height="384"/>
</clipPath>
<clipPath>
<rect width="384" height="384"/>
</clipPath>
<linearGradient id="linearGradient5161" x1="63.273" x2="63.013" y1="116.36" y2="17.147" gradientUnits="userSpaceOnUse">
<stop stop-color="#eef3f6" offset="0"/>
<stop stop-color="#f5f9fd" offset="1"/>
</linearGradient>
</defs>
<circle cx="63.592" cy="64.286" r="61.38" fill="url(#linearGradient825)"/>
<circle cx="63.592" cy="64.286" r="55.09" fill="url(#linearGradient5161)"/>
<g transform="matrix(.12736 0 0 .12736 -113.36 110.97)">
<path d="m1280.2-689.61a107.38 107.38 0 0 0-0.7148 0.0254h-1.1387v0.041a107.38 107.38 0 0 0-105.53 107.31 107.38 107.38 0 0 0 105.53 107.29v0.0664h1.3086a107.38 107.38 0 0 0 0.5449 0.0273 107.38 107.38 0 0 0 0.7715-0.0273h108.17v-214.71h-108.44a107.38 107.38 0 0 0-0.5059-0.0254z" fill="#f24e1e"/>
<path d="m1498.1-689.61a107.38 107.38 0 0 1 0.7149 0.0254h1.1386v0.041a107.38 107.38 0 0 1 105.53 107.31 107.38 107.38 0 0 1-105.53 107.29v0.0664h-1.3086a107.38 107.38 0 0 1-0.5449 0.0273 107.38 107.38 0 0 1-0.7715-0.0273h-108.17v-214.71h108.44a107.38 107.38 0 0 1 0.5058-0.0254z" fill="#ff7262"/>
<path d="m1280.2-474.85a107.38 107.38 0 0 0-0.7148 0.0254h-1.1387v0.041a107.38 107.38 0 0 0-105.53 107.31 107.38 107.38 0 0 0 105.53 107.29v0.0664h1.3086a107.38 107.38 0 0 0 0.5449 0.0273 107.38 107.38 0 0 0 0.7715-0.0273h108.17v-214.71h-108.44a107.38 107.38 0 0 0-0.5059-0.0254z" fill="#a259ff"/>
<circle cx="1497.8" cy="-366.65" r="108.45" fill="#1abcfe"/>
<path d="m1280.6-260.57 0.022 0.0977a108.45 108.45 0 0 0-108.07 108.44 108.45 108.45 0 0 0 108.46 108.46 108.45 108.45 0 0 0 108.18-103.07l0.1875 0.10742-0.01-3.7051a108.45 108.45 0 0 0 0.09-1.7871 108.45 108.45 0 0 0-0.098-2.7754l-0.2068-105.31z" fill="#0acf83"/>
</g>
</svg>
