<svg width="128" height="128" version="1.1" viewBox="0 0 128 128" xmlns="http://www.w3.org/2000/svg" xmlns:xlink="http://www.w3.org/1999/xlink">
<defs>
<linearGradient id="linearGradient4586" x1="61.883" x2="61.116" y1="143.58" y2="36.197" gradientTransform="matrix(.62485 0 0 .62485 20.612 27.184)" gradientUnits="userSpaceOnUse">
<stop stop-color="#1f76f4" offset="0"/>
<stop stop-color="#1acffc" offset="1"/>
</linearGradient>
<linearGradient id="linearGradient4588" x1="142.42" x2="142.42" y1="143.01" y2="33.32" gradientTransform="matrix(.62485 0 0 .62485 20.659 27.173)" gradientUnits="userSpaceOnUse">
<stop stop-color="#dce8f4" offset="0"/>
<stop stop-color="#f6f7f7" offset="1"/>
</linearGradient>
<linearGradient id="linearGradient4590" x1="87.093" x2="88.83" y1="21.048" y2="174.45" gradientUnits="userSpaceOnUse">
<stop stop-color="#fff" stop-opacity=".50898" offset="0"/>
<stop stop-color="#fff" stop-opacity="0" offset="1"/>
</linearGradient>
</defs>
<filter x="-.029931" y="-.018413" width="1.0599" height="1.0368" color-interpolation-filters="sRGB">
<feGaussianBlur stdDeviation=".99453124"/>
</filter>
<filter x="-.016331" y="-.017297" width="1.0327" height="1.0346" color-interpolation-filters="sRGB">
<feGaussianBlur stdDeviation=".9356259"/>
</filter>
<g transform="matrix(1.3439 0 0 1.3439 -45.714 -44.429)">
<g transform="translate(-115.61)" fill="none" stroke="#000" stroke-linecap="round" stroke-linejoin="round" stroke-opacity=".0039216">
<rect x="153.8" y="41.055" width="85.792" height="80.999" ry="5.5118" stroke-width=".1"/>
<rect x="153.8" y="41.055" width="85.792" height="80.999" ry="5.5118" stroke-width=".2"/>
<rect x="153.8" y="41.055" width="85.792" height="80.999" ry="5.5118" stroke-width=".3"/>
<rect x="153.8" y="41.055" width="85.792" height="80.999" ry="5.5118" stroke-width=".4"/>
<rect x="153.8" y="41.055" width="85.792" height="80.999" ry="5.5118" stroke-width=".5"/>
<rect x="153.8" y="41.055" width="85.792" height="80.999" ry="5.5118" stroke-width=".6"/>
<rect x="153.8" y="41.055" width="85.792" height="80.999" ry="5.5118" stroke-width=".7"/>
<rect x="153.8" y="41.055" width="85.792" height="80.999" ry="5.5118" stroke-width=".8"/>
<rect x="153.8" y="41.055" width="85.792" height="80.999" ry="5.5118" stroke-width=".9"/>
<rect x="153.8" y="41.055" width="85.792" height="80.999" ry="5.5118"/>
<rect x="153.8" y="41.055" width="85.792" height="80.999" ry="5.5118" stroke-width="1.1"/>
<rect x="153.8" y="41.055" width="85.792" height="80.999" ry="5.5118" stroke-width="1.2"/>
<rect x="153.8" y="41.055" width="85.792" height="80.999" ry="5.5118" stroke-width="1.3"/>
<rect x="153.8" y="41.055" width="85.792" height="80.999" ry="5.5118" stroke-width="1.4"/>
<rect x="153.8" y="41.055" width="85.792" height="80.999" ry="5.5118" stroke-width="1.5"/>
<rect x="153.8" y="41.055" width="85.792" height="80.999" ry="5.5118" stroke-width="1.6"/>
<rect x="153.8" y="41.055" width="85.792" height="80.999" ry="5.5118" stroke-width="1.7"/>
<rect x="153.8" y="41.055" width="85.792" height="80.999" ry="5.5118" stroke-width="1.8"/>
<rect x="153.8" y="41.055" width="85.792" height="80.999" ry="5.5118" stroke-width="1.9"/>
<rect x="153.8" y="41.055" width="85.792" height="80.999" ry="5.5118" stroke-width="2"/>
<rect x="153.8" y="41.055" width="85.792" height="80.999" ry="5.5118" stroke-width="2.1"/>
<rect x="153.8" y="41.055" width="85.792" height="80.999" ry="5.5118" stroke-width="2.2"/>
<rect x="153.8" y="41.055" width="85.792" height="80.999" ry="5.5118" stroke-width="2.3"/>
<rect x="153.8" y="41.055" width="85.792" height="80.999" ry="5.5118" stroke-width="2.4"/>
<rect x="153.8" y="41.055" width="85.792" height="80.999" ry="5.5118" stroke-width="2.5"/>
<rect x="153.8" y="41.055" width="85.792" height="80.999" ry="5.5118" stroke-width="2.6"/>
<rect x="153.8" y="41.055" width="85.792" height="80.999" ry="5.5118" stroke-width="2.7"/>
<rect x="153.8" y="41.055" width="85.792" height="80.999" ry="5.5118" stroke-width="2.8"/>
<rect x="153.8" y="41.055" width="85.792" height="80.999" ry="5.5118" stroke-width="2.9"/>
<rect x="153.8" y="41.055" width="85.792" height="80.999" ry="5.5118" stroke-width="3"/>
<rect x="153.8" y="41.055" width="85.792" height="80.999" ry="5.5118" stroke-width="3.1"/>
<rect x="153.8" y="41.055" width="85.792" height="80.999" ry="5.5118" stroke-width="3.2"/>
<rect x="153.8" y="41.055" width="85.792" height="80.999" ry="5.5118" stroke-width="3.3"/>
<rect x="153.8" y="41.055" width="85.792" height="80.999" ry="5.5118" stroke-width="3.4"/>
<rect x="153.8" y="41.055" width="85.792" height="80.999" ry="5.5118" stroke-width="3.5"/>
<rect x="153.8" y="41.055" width="85.792" height="80.999" ry="5.5118" stroke-width="3.6"/>
<rect x="153.8" y="41.055" width="85.792" height="80.999" ry="5.5118" stroke-width="3.7"/>
<rect x="153.8" y="41.055" width="85.792" height="80.999" ry="5.5118" stroke-width="3.8"/>
<rect x="153.8" y="41.055" width="85.792" height="80.999" ry="5.5118" stroke-width="3.9"/>
<rect x="153.8" y="41.055" width="85.792" height="80.999" ry="5.5118" stroke-width="4"/>
<rect x="153.8" y="41.055" width="85.792" height="80.999" ry="5.5118" stroke-width="4.1"/>
<rect x="153.8" y="41.055" width="85.792" height="80.999" ry="5.5118" stroke-width="4.2"/>
<rect x="153.8" y="41.055" width="85.792" height="80.999" ry="5.5118" stroke-width="4.3"/>
<rect x="153.8" y="41.055" width="85.792" height="80.999" ry="5.5118" stroke-width="4.4"/>
<rect x="153.8" y="41.055" width="85.792" height="80.999" ry="5.5118" stroke-width="4.5"/>
<rect x="153.8" y="41.055" width="85.792" height="80.999" ry="5.5118" stroke-width="4.6"/>
<rect x="153.8" y="41.055" width="85.792" height="80.999" ry="5.5118" stroke-width="4.7"/>
<rect x="153.8" y="41.055" width="85.792" height="80.999" ry="5.5118" stroke-width="4.8"/>
<rect x="153.8" y="41.055" width="85.792" height="80.999" ry="5.5118" stroke-width="4.9"/>
<rect x="153.8" y="41.055" width="85.792" height="80.999" ry="5.5118" stroke-width="5"/>
</g>
<rect x="38.191" y="41.055" width="85.792" height="80.999" ry="5.5118" fill="url(#linearGradient4586)" stroke-width=".62485"/>
<path d="m82.717 41.975c-8.0284 13.08-8.6657 27.382-8.8203 38.5 0.02587 1.7826-0.07914 2.0651 1.5195 2.1074l9.1504 0.04297c1.3306 0.01612 1.3241 0.52353 1.2715 1.7559-0.56517 13.303 0.93088 25.467 3.0195 37.674h29.613c2.372 0 4.3798-1.4866 5.1602-3.5801 0.0605-0.32831 0.0957-0.66537 0.0957-1.0117v-69.977c0-3.0535-2.4582-5.5117-5.5117-5.5117z" fill-opacity=".049587" stroke-width=".62485"/>
<path d="m82.682 42.025c-8.0284 13.08-8.6657 27.382-8.8203 38.5 0.02587 1.7826-0.07914 2.0651 1.5195 2.1074l9.1504 0.04297c1.3306 0.01612 1.3241 0.52354 1.2715 1.7559-0.56438 13.284 0.92569 25.433 3.0098 37.623h29.658c2.3241 0 4.3003-1.4264 5.1133-3.4531 0.0699-0.3517 0.10743-0.71503 0.10743-1.0879v-69.977c0-3.0535-2.4582-5.5117-5.5117-5.5117z" fill-opacity=".049587" stroke-width=".62485"/>
<path d="m82.643 42.072c-8.0284 13.08-8.6657 27.382-8.8203 38.5 0.02587 1.7826-0.07914 2.0651 1.5195 2.1074l9.1504 0.04297c1.3306 0.01612 1.3241 0.52354 1.2715 1.7559-0.56366 13.267 0.92209 25.402 3.002 37.576h29.705c2.2646 0 4.199-1.3546 5.0488-3.2988 0.0846-0.38513 0.13281-0.78402 0.13281-1.1953v-69.977c0-3.0535-2.4582-5.5117-5.5117-5.5117z" fill-opacity=".049587" stroke-width=".62485"/>
<path d="m82.604 42.111c-8.0284 13.08-8.6657 27.382-8.8203 38.5 0.02587 1.7826-0.07914 2.0651 1.5195 2.1074l9.1504 0.04297c1.3306 0.01612 1.3241 0.52353 1.2715 1.7559-0.56306 13.253 0.91973 25.376 2.9961 37.537h29.75c2.2136 0 4.1081-1.296 4.9863-3.1699 0.0981-0.41284 0.15625-0.84145 0.15625-1.2852v-69.977c0-3.0535-2.4582-5.5117-5.5117-5.5117z" fill-opacity=".049587" stroke-width=".62485"/>
<path d="m82.564 42.154c-8.0284 13.08-8.6657 27.382-8.8203 38.5 0.02587 1.7826-0.07914 2.0651 1.5195 2.1074l9.1504 0.04297c1.3306 0.01612 1.3241 0.52353 1.2715 1.7559-0.5624 13.238 0.91578 25.347 2.9883 37.494h29.797c2.164 0 4.0228-1.2387 4.9258-3.0449 0.11118-0.43776 0.17774-0.89388 0.17774-1.3672v-69.977c0-3.0535-2.4582-5.5117-5.5117-5.5117z" fill-opacity=".049587" stroke-width=".62485"/>
<path d="m82.514 42.201c-8.0284 13.08-8.6657 27.382-8.8203 38.5 0.02587 1.7826-0.08109 2.0651 1.5176 2.1074l9.1523 0.04297c1.3306 0.01612 1.3241 0.52354 1.2715 1.7559-0.56165 13.22 0.91414 25.317 2.9824 37.447h29.854c2.0977 0 3.9139-1.1606 4.8457-2.877 3.9e-4 -1e-3 2e-3 -2e-3 2e-3 -4e-3 0.13209-0.47194 0.20312-0.96865 0.20312-1.4844v-69.975c0-3.0535-2.4582-5.5137-5.5117-5.5137z" fill-opacity=".049587" stroke-width=".62485"/>
<path d="m82.463 42.275c-8.0284 13.08-8.6657 27.382-8.8203 38.5 0.02587 1.7826-0.08109 2.0651 1.5176 2.1074l9.1523 0.04297c1.3306 0.01612 1.3241 0.52354 1.2715 1.7559-0.5605 13.193 0.90906 25.267 2.9707 37.373h29.916c2.0575 0 3.8401-1.119 4.7871-2.7812 0.13654-0.47989 0.21289-0.98449 0.21289-1.5098v-69.975c0-3.0535-2.4582-5.5137-5.5117-5.5137z" fill-opacity=".049587" stroke-width=".62485"/>
<path d="m82.408 42.357c-8.0284 13.08-8.6657 27.382-8.8203 38.5 0.02587 1.7826-0.08109 2.0651 1.5176 2.1074l9.1523 0.04297c1.3306 0.01612 1.3241 0.52354 1.2715 1.7559-0.55924 13.163 0.90274 25.213 2.957 37.291h29.984c2.0141 0 3.7631-1.0734 4.7246-2.6777 0.14052-0.48667 0.22071-0.9977 0.22071-1.5312v-69.975c0-3.0535-2.4582-5.5137-5.5117-5.5137z" fill-opacity=".049587" stroke-width=".62485"/>
<path d="m82.287 42.537c-8.0284 13.08-8.6657 27.382-8.8203 38.5 0.02587 1.7826-0.08109 2.0651 1.5176 2.1074l9.1523 0.04297c1.3306 0.01612 1.3241 0.52353 1.2715 1.7559-0.55647 13.098 0.88766 25.093 2.9258 37.111h30.137c1.9182 0 3.5994-0.9709 4.5859-2.4492 0.1496-0.50154 0.23828-1.0283 0.23828-1.5801v-69.975c0-3.0535-2.4582-5.5137-5.5117-5.5137z" fill-opacity=".049587" stroke-width=".62485"/>
<path d="m82.342 42.432c-8.0284 13.08-8.6657 27.382-8.8203 38.5 0.02587 1.7826-0.08109 2.0651 1.5176 2.1074l9.1523 0.04297c1.3306 0.01612 1.3241 0.52354 1.2715 1.7559-0.55809 13.136 0.89578 25.163 2.9434 37.217h30.064c1.9503 0 3.6536-1.0052 4.6328-2.5254 0.15567-0.50952 0.24609-1.0471 0.24609-1.6094v-69.975c0-3.0535-2.4582-5.5137-5.5117-5.5137z" fill-opacity=".049587" stroke-width=".62485"/>
<path d="m82.205 42.646c-8.0284 13.08-8.6657 27.382-8.8203 38.5 0.02587 1.7826-0.08109 2.0651 1.5176 2.1074l9.1523 0.04297c1.3306 0.01612 1.3241 0.52353 1.2715 1.7559-0.55478 13.058 0.87987 25.02 2.9082 37.002h30.236c1.8656 0 3.5056-0.91973 4.502-2.3301 0.15167-0.50428 0.24023-1.0345 0.24023-1.5898v-69.975c0-3.0535-2.4582-5.5137-5.5117-5.5137z" fill-opacity=".049587" stroke-width=".62485"/>
<path d="m82.287 42.537c-8.0284 13.08-8.6657 27.382-8.8203 38.5 0.02587 1.7826-0.08109 2.0651 1.5176 2.1074l9.1523 0.04297c1.3306 0.01612 1.3241 0.52353 1.2715 1.7559-0.55647 13.098 0.88766 25.093 2.9258 37.111h30.137c1.9182 0 3.5994-0.9709 4.5859-2.4492 0.1496-0.50154 0.23828-1.0283 0.23828-1.5801v-69.975c0-3.0535-2.4582-5.5137-5.5117-5.5137z" fill-opacity=".049587" stroke-width=".62485"/>
<path d="m82.756 41.928c-8.0284 13.08-8.6657 27.382-8.8203 38.5 0.02587 1.7826-0.08109 2.0651 1.5176 2.1074l9.1523 0.04297c1.3306 0.01612 1.3241 0.52353 1.2715 1.7559-0.56587 13.319 0.93267 25.498 3.0254 37.721h29.568c2.4256 0 4.4704-1.5541 5.2109-3.7227 0.0507-0.29806 0.082-0.60275 0.082-0.91601v-69.975c0-3.0535-2.4582-5.5137-5.5117-5.5137z" fill-opacity=".049587" stroke-width=".62485"/>
<path d="m83.021 41.044c-8.0284 13.08-8.6666 27.383-8.8212 38.501 0.0259 1.7826-0.0793 2.0641 1.5194 2.1064l9.1507 0.0427c1.3306 0.0161 1.3243 0.52385 1.2717 1.7562-0.57934 13.636 1.001 26.077 3.1719 38.593h29.205c3.0535 0 5.5114-2.4579 5.5114-5.5114v-69.975c0-3.0535-2.4579-5.5126-5.5114-5.5126z" fill="url(#linearGradient4588)" stroke-width=".62485"/>
<g transform="matrix(.62485 0 0 .62485 20.712 27.219)" stroke-linecap="round">
<rect x="29.549" y="23.648" width="134.47" height="126.73" ry="8.8209" fill="none" stroke="url(#linearGradient4590)" stroke-width="1.5"/>
<path d="m66.483 53.576c-1.8404 0-3.3223 1.4819-3.3223 3.3223v9.0859c0 1.8404 1.4819 3.3223 3.3223 3.3223 1.8404 0 3.3223-1.4819 3.3223-3.3223v-9.0859c0-1.8404-1.4819-3.3223-3.3223-3.3223zm61.555 0c-1.8404 0-3.3223 1.4819-3.3223 3.3223v9.0859c0 1.8404 1.4819 3.3223 3.3223 3.3223 1.8404 0 3.3223-1.4819 3.3223-3.3223v-9.0859c0-1.8404-1.4819-3.3223-3.3223-3.3223zm-71.055 49.672a2.5002 2.5002 0 0 0-1.7539 4.1797c11.303 12.801 27.809 17.942 43.635 17.375 15.825-0.56711 31.136-6.7401 40.451-17.172a2.5003 2.5003 0 1 0-3.7305-3.3301c-8.1334 9.1085-22.274 14.982-36.898 15.506-14.624 0.52406-29.567-4.2006-39.709-15.688a2.5002 2.5002 0 0 0-1.9941-0.87109z" fill="#1b1b1b" stroke="#fff" stroke-opacity=".50898" stroke-width=".015"/>
</g>
</g>
</svg>
