<svg width="128" height="128" version="1.1" viewBox="0 0 33.867 33.867" xmlns="http://www.w3.org/2000/svg" xmlns:xlink="http://www.w3.org/1999/xlink">
<defs>
<linearGradient id="linearGradient1632" x1="132.21" x2="132.21" y1="42.152" y2="70.68" gradientTransform="matrix(.97573 0 0 .97573 -111.77 -37.183)" gradientUnits="userSpaceOnUse">
<stop stop-color="#fafafc" offset="0"/>
<stop stop-color="#e2e6ea" offset="1"/>
</linearGradient>
<linearGradient id="linearGradient912" x1="24.345" x2="29.94" y1="21.704" y2="30.039" gradientTransform="translate(.54772 -.34714)" gradientUnits="userSpaceOnUse">
<stop stop-color="#e7654b" offset="0"/>
<stop stop-color="#e9791e" offset="1"/>
</linearGradient>
</defs>
<g transform="matrix(.97573 0 0 .97573 -65.737 -37.183)" fill="none" opacity=".295" stroke="#000" stroke-linecap="round" stroke-linejoin="round" stroke-opacity=".02">
<rect x="69.84" y="40.71" width="29.811" height="29.811" rx="6.6099" ry="6.6099" stroke-width=".1"/>
<rect x="69.84" y="40.71" width="29.811" height="29.811" rx="6.6099" ry="6.6099" stroke-width=".2"/>
<rect x="69.84" y="40.71" width="29.811" height="29.811" rx="6.6099" ry="6.6099" stroke-width=".3"/>
<rect x="69.84" y="40.71" width="29.811" height="29.811" rx="6.6099" ry="6.6099" stroke-width=".4"/>
<rect x="69.84" y="40.71" width="29.811" height="29.811" rx="6.6099" ry="6.6099" stroke-width=".5"/>
<rect x="69.84" y="40.71" width="29.811" height="29.811" rx="6.6099" ry="6.6099" stroke-width=".6"/>
<rect x="69.84" y="40.71" width="29.811" height="29.811" rx="6.6099" ry="6.6099" stroke-width=".7"/>
<rect x="69.84" y="40.71" width="29.811" height="29.811" rx="6.6099" ry="6.6099" stroke-width=".8"/>
<rect x="69.84" y="40.71" width="29.811" height="29.811" rx="6.6099" ry="6.6099"/>
<rect x="69.84" y="40.71" width="29.811" height="29.811" rx="6.6099" ry="6.6099" stroke-width="1.2"/>
<rect x="69.84" y="40.71" width="29.811" height="29.811" rx="6.6099" ry="6.6099" stroke-width="1.4"/>
<rect x="69.84" y="40.71" width="29.811" height="29.811" rx="6.6099" ry="6.6099" stroke-width="1.6"/>
<rect x="69.84" y="40.71" width="29.811" height="29.811" rx="6.6099" ry="6.6099" stroke-width="1.8"/>
<rect x="69.84" y="40.71" width="29.811" height="29.811" rx="6.6099" ry="6.6099" stroke-width="2"/>
<rect x="69.84" y="40.71" width="29.811" height="29.811" rx="6.6099" ry="6.6099" stroke-width="2.2"/>
<rect x="69.84" y="40.71" width="29.811" height="29.811" rx="6.6099" ry="6.6099" stroke-width="2.6"/>
<rect x="69.84" y="40.71" width="29.811" height="29.811" rx="6.6099" ry="6.6099" stroke-width="3"/>
<rect x="69.84" y="40.71" width="29.811" height="29.811" rx="6.6099" ry="6.6099" stroke-width="3.4"/>
<rect x="69.84" y="40.71" width="29.811" height="29.811" rx="6.6099" ry="6.6099" stroke-width="3.8"/>
<rect x="69.84" y="40.71" width="29.811" height="29.811" rx="6.6099" ry="6.6099" stroke-width="4.2"/>
<rect x="69.84" y="40.71" width="29.811" height="29.811" rx="6.6099" ry="6.6099" stroke-width="4.6"/>
<rect x="69.84" y="40.71" width="29.811" height="29.811" rx="6.6099" ry="6.6099" stroke-width="5"/>
</g>
<rect x="2.4074" y="2.5392" width="29.087" height="29.087" rx="6.4495" ry="6.4495" fill="url(#linearGradient1632)" stroke-linecap="round" stroke-linejoin="round" stroke-width="2.6877"/>
<g stroke-width=".61203">
<path d="m9.6209 10.035c-1.6413 0-2.5067 1.1046-2.5067 2.8223v0.84992h5.5083v-3.6722zm4.8377 0v3.6722h5.5083v-3.6722zm7.3444 0v3.6722h5.5083v-0.84992c0-1.7177-0.86538-2.8223-2.5067-2.8223zm-14.689 5.5083v3.6722h5.5083v-3.6722zm14.689 0v3.6722h5.5083v-3.6722zm-14.689 5.5083v0.84992c0 1.7177 0.86538 2.8223 2.5067 2.8223h3.0016v-3.6722zm7.3444 0v3.6722h5.5083v-3.6722zm7.3444 0v3.6722h3.0016c1.6413 0 2.5067-1.1046 2.5067-2.8223v-0.84992z" opacity=".2"/>
<path d="m9.6209 9.4233c-1.6413 0-2.5067 1.1046-2.5067 2.8223v0.84991h5.5083v-3.6722zm4.8377 0v3.6722h5.5083v-3.6722zm7.3444 0v3.6722h5.5083v-0.84991c0-1.7177-0.86538-2.8223-2.5067-2.8223zm-14.689 5.5083v3.6722h5.5083v-3.6722zm14.689 0v3.6722h5.5083v-3.6722zm-14.689 5.5083v0.84992c0 1.7177 0.86538 2.8223 2.5067 2.8223h3.0016v-3.6722zm7.3444 0v3.6722h5.5083v-3.6722zm7.3444 0v3.6722h3.0016c1.6413 0 2.5067-1.1046 2.5067-2.8223v-0.84992z" fill="#ed5f00"/>
</g>
<g transform="translate(.54772 -.34714)" fill="#081633" fill-opacity=".13749" opacity=".12684" shape-rendering="auto">
<path d="m25.684 17.729c-0.22438 0-0.45108 0.07084-0.64062 0.20898v-2e-3c-0.68326 0.4974-2.8405 1.8934-5.3789 2.1309-0.65428 0.06098-1.1663 0.61593-1.1777 1.2715a0.65154 0.65154 0 0 0 0 2e-3c-0.01724 1.1246 0.05555 3.5574 0.94141 5.9844 0.88585 2.427 2.6545 4.8863 5.9219 5.7637a0.65154 0.65154 0 0 0 2e-3 0c0.21811 0.05814 0.44595 0.05814 0.66406 0a0.65154 0.65154 0 0 0 2e-3 0c3.2675-0.87665 5.0359-3.3346 5.9219-5.7617 0.88595-2.4271 0.95984-4.8622 0.94336-5.9863-0.0084-0.65936-0.52365-1.2125-1.1777-1.2734h-2e-3c-2.5361-0.23785-4.6902-1.6301-5.377-2.1289-0.19089-0.13918-0.41825-0.20898-0.64258-0.20898zm0 1.3359c0.84628 0.60549 3.0509 2.0293 5.8965 2.2969 0.01505 1.0335-0.06935 3.3372-0.86523 5.5176-0.79544 2.1792-2.2316 4.1959-5.0273 4.9492v2e-3c-0.0015-4.07e-4 -0.0024-0.0015-0.0039-2e-3 -6.35e-4 7.5e-5 -0.0011-2.28e-4 -2e-3 0-2.7971-0.7536-4.2338-2.7698-5.0293-4.9492-0.79577-2.1802-0.87902-4.4846-0.86328-5.5176 2.8457-0.26755 5.0486-1.6907 5.8945-2.2969z" color="#000000" color-rendering="auto" dominant-baseline="auto" image-rendering="auto" solid-color="#000000" stop-color="#000000" style="font-feature-settings:normal;font-variant-alternates:normal;font-variant-caps:normal;font-variant-east-asian:normal;font-variant-ligatures:normal;font-variant-numeric:normal;font-variant-position:normal;font-variation-settings:normal;inline-size:0;isolation:auto;mix-blend-mode:normal;shape-margin:0;shape-padding:0;text-decoration-color:#000000;text-decoration-line:none;text-decoration-style:solid;text-indent:0;text-orientation:mixed;text-transform:none;white-space:normal"/>
<path d="m25.511 18.004c-0.22438 0-0.45108 0.07084-0.64062 0.20898v-2e-3c-0.68326 0.4974-2.8405 1.8934-5.3789 2.1309-0.65428 0.06098-1.1663 0.61593-1.1777 1.2715a0.65154 0.65154 0 0 0 0 2e-3c-0.01724 1.1246 0.05555 3.5574 0.94141 5.9844 0.88585 2.427 2.6545 4.8863 5.9219 5.7637a0.65154 0.65154 0 0 0 2e-3 0c0.21811 0.05814 0.44595 0.05814 0.66406 0a0.65154 0.65154 0 0 0 2e-3 0c3.2675-0.87665 5.0359-3.3346 5.9219-5.7617 0.88595-2.4271 0.95984-4.8622 0.94336-5.9863-0.0084-0.65936-0.52365-1.2125-1.1777-1.2734h-2e-3c-2.5361-0.23785-4.6902-1.6301-5.377-2.1289-0.19089-0.13918-0.41825-0.20898-0.64258-0.20898zm0 1.3359c0.84628 0.60549 3.0509 2.0293 5.8965 2.2969 0.01505 1.0335-0.06935 3.3372-0.86523 5.5176-0.79544 2.1792-2.2316 4.1959-5.0273 4.9492v2e-3c-0.0015-4.07e-4 -0.0024-0.0015-0.0039-2e-3 -6.35e-4 7.5e-5 -0.0011-2.28e-4 -2e-3 0-2.7971-0.7536-4.2338-2.7698-5.0293-4.9492-0.79577-2.1802-0.87902-4.4846-0.86328-5.5176 2.8457-0.26755 5.0486-1.6907 5.8945-2.2969z" color="#000000" color-rendering="auto" dominant-baseline="auto" image-rendering="auto" solid-color="#000000" stop-color="#000000" style="font-feature-settings:normal;font-variant-alternates:normal;font-variant-caps:normal;font-variant-east-asian:normal;font-variant-ligatures:normal;font-variant-numeric:normal;font-variant-position:normal;font-variation-settings:normal;inline-size:0;isolation:auto;mix-blend-mode:normal;shape-margin:0;shape-padding:0;text-decoration-color:#000000;text-decoration-line:none;text-decoration-style:solid;text-indent:0;text-orientation:mixed;text-transform:none;white-space:normal"/>
<path d="m25.355 18.451c-0.22438 0-0.45108 0.07084-0.64062 0.20898v-2e-3c-0.68326 0.4974-2.8405 1.8934-5.3789 2.1309-0.65428 0.06098-1.1663 0.61593-1.1777 1.2715a0.65154 0.65154 0 0 0 0 2e-3c-0.01724 1.1246 0.05555 3.5574 0.94141 5.9844 0.88585 2.427 2.6545 4.8863 5.9219 5.7637a0.65154 0.65154 0 0 0 2e-3 0c0.21811 0.05814 0.44595 0.05814 0.66406 0a0.65154 0.65154 0 0 0 2e-3 0c3.2675-0.87665 5.0359-3.3346 5.9219-5.7617 0.88595-2.4271 0.95984-4.8622 0.94336-5.9863-0.0084-0.65936-0.52365-1.2125-1.1777-1.2734h-2e-3c-2.5361-0.23785-4.6902-1.6301-5.377-2.1289-0.19089-0.13918-0.41825-0.20898-0.64258-0.20898zm0 1.3359c0.84628 0.60549 3.0509 2.0293 5.8965 2.2969 0.01505 1.0335-0.06935 3.3372-0.86523 5.5176-0.79544 2.1792-2.2316 4.1959-5.0273 4.9492v2e-3c-0.0015-4.07e-4 -0.0024-0.0015-0.0039-2e-3 -6.35e-4 7.5e-5 -0.0011-2.28e-4 -2e-3 0-2.7971-0.7536-4.2338-2.7698-5.0293-4.9492-0.79577-2.1802-0.87902-4.4846-0.86328-5.5176 2.8457-0.26755 5.0486-1.6907 5.8945-2.2969z" color="#000000" color-rendering="auto" dominant-baseline="auto" image-rendering="auto" solid-color="#000000" stop-color="#000000" style="font-feature-settings:normal;font-variant-alternates:normal;font-variant-caps:normal;font-variant-east-asian:normal;font-variant-ligatures:normal;font-variant-numeric:normal;font-variant-position:normal;font-variation-settings:normal;inline-size:0;isolation:auto;mix-blend-mode:normal;shape-margin:0;shape-padding:0;text-decoration-color:#000000;text-decoration-line:none;text-decoration-style:solid;text-indent:0;text-orientation:mixed;text-transform:none;white-space:normal"/>
<path d="m25.159 18.773c-0.22438 0-0.45108 0.07084-0.64062 0.20898v-2e-3c-0.68326 0.4974-2.8405 1.8934-5.3789 2.1309-0.65428 0.06098-1.1663 0.61593-1.1777 1.2715a0.65154 0.65154 0 0 0 0 2e-3c-0.01724 1.1246 0.05555 3.5574 0.94141 5.9844 0.88585 2.427 2.6545 4.8863 5.9219 5.7637a0.65154 0.65154 0 0 0 2e-3 0c0.21811 0.05814 0.44595 0.05814 0.66406 0a0.65154 0.65154 0 0 0 2e-3 0c3.2675-0.87665 5.0359-3.3346 5.9219-5.7617 0.88595-2.4271 0.95984-4.8622 0.94336-5.9863-0.0084-0.65936-0.52365-1.2125-1.1777-1.2734h-2e-3c-2.5361-0.23785-4.6902-1.6301-5.377-2.1289-0.19089-0.13918-0.41825-0.20898-0.64258-0.20898zm0 1.3359c0.84628 0.60549 3.0509 2.0293 5.8965 2.2969 0.01505 1.0335-0.06935 3.3372-0.86523 5.5176-0.79544 2.1792-2.2316 4.1959-5.0273 4.9492v2e-3c-0.0015-4.07e-4 -0.0024-0.0015-0.0039-2e-3 -6.35e-4 7.5e-5 -0.0011-2.28e-4 -2e-3 0-2.7971-0.7536-4.2338-2.7698-5.0293-4.9492-0.79577-2.1802-0.87902-4.4846-0.86328-5.5176 2.8457-0.26755 5.0486-1.6907 5.8945-2.2969z" color="#000000" color-rendering="auto" dominant-baseline="auto" image-rendering="auto" solid-color="#000000" stop-color="#000000" style="font-feature-settings:normal;font-variant-alternates:normal;font-variant-caps:normal;font-variant-east-asian:normal;font-variant-ligatures:normal;font-variant-numeric:normal;font-variant-position:normal;font-variation-settings:normal;inline-size:0;isolation:auto;mix-blend-mode:normal;shape-margin:0;shape-padding:0;text-decoration-color:#000000;text-decoration-line:none;text-decoration-style:solid;text-indent:0;text-orientation:mixed;text-transform:none;white-space:normal"/>
</g>
<path d="m26.497 17.977c-0.09053 0-0.18066 0.0279-0.25754 0.08394-0.73434 0.53459-2.9664 1.996-5.7011 2.2518-0.32909 0.03019-0.58178 0.30357-0.58752 0.63409-0.03307 2.157 0.31302 9.4799 6.3817 11.11 0.10778 0.02873 0.22163 0.02873 0.3294 0 6.0687-1.6282 6.4145-8.9525 6.3829-11.11-0.0042-0.33052-0.25846-0.6039-0.58753-0.63409-2.7347-0.2558-4.9665-1.7172-5.7022-2.2518-0.07687-0.05605-0.16758-0.08394-0.25812-0.08394z" color="#000000" color-rendering="auto" dominant-baseline="auto" fill="url(#linearGradient912)" image-rendering="auto" shape-rendering="auto" solid-color="#000000" stop-color="#000000" style="font-feature-settings:normal;font-variant-alternates:normal;font-variant-caps:normal;font-variant-east-asian:normal;font-variant-ligatures:normal;font-variant-numeric:normal;font-variant-position:normal;font-variation-settings:normal;inline-size:0;isolation:auto;mix-blend-mode:normal;shape-margin:0;shape-padding:0;text-decoration-color:#000000;text-decoration-line:none;text-decoration-style:solid;text-indent:0;text-orientation:mixed;text-transform:none;white-space:normal"/>
<g transform="matrix(.55264 0 0 .76798 2.5838 1.2412)" fill="#fff" stroke-width=".19435" aria-label="VPN">
<path d="m34.286 28.306h1.469l1.5032 4.1832 1.4994-4.1832h1.469l-2.0992 5.6674h-1.7424z"/>
<path d="m40.978 28.306h2.4256q1.0819 0 1.6588 0.48209 0.58079 0.4783 0.58079 1.3666 0 0.89206-0.58079 1.3741-0.57699 0.47829-1.6588 0.47829h-0.96418v1.9663h-1.4615zm1.4615 1.0591v1.5829h0.80855q0.42515 0 0.65671-0.20498 0.23156-0.20878 0.23156-0.58838t-0.23156-0.58458q-0.23156-0.20498-0.65671-0.20498z"/>
<path d="m46.676 28.306h1.6323l2.0612 3.8871v-3.8871h1.3855v5.6674h-1.6323l-2.0612-3.8871v3.8871h-1.3855z"/>
</g>
<path d="m26.497 18.137c-0.20078 0-0.40364 0.06339-0.57325 0.187v-0.0017c-0.6114 0.44509-2.5418 1.6943-4.8132 1.9067-0.58547 0.05457-1.0437 0.55115-1.0539 1.1378a0.58301 0.58301 0 0 0 0 0.0017c-0.01543 1.0064 0.04971 3.1832 0.84239 5.355 0.79268 2.1717 2.3753 4.3724 5.299 5.1575a0.58301 0.58301 0 0 0 0.0017 0c0.19517 0.05203 0.39905 0.05203 0.59422 0a0.58301 0.58301 0 0 0 0.0017 0c2.9238-0.78445 4.5063-2.9839 5.299-5.1557 0.79277-2.1719 0.85888-4.3508 0.84414-5.3567-0.0075-0.59001-0.46858-1.0849-1.0539-1.1395h-0.0017c-2.2693-0.21283-4.1968-1.4586-4.8114-1.905-0.17081-0.12455-0.37426-0.187-0.575-0.187zm0 1.1954c0.75728 0.5418 2.73 1.8159 5.2763 2.0553 0.01347 0.92483-0.06205 2.9862-0.77423 4.9373-0.71178 1.95-1.9969 3.7546-4.4986 4.4287v0.0017c-0.0014-3.65e-4 -0.0021-0.0014-0.0035-0.0017-5.68e-4 6.7e-5 -9.85e-4 -2.04e-4 -0.0017 0-2.5029-0.67434-3.7885-2.4785-4.5003-4.4287-0.71208-1.9509-0.78657-4.0129-0.77248-4.9373 2.5464-0.23941 4.5176-1.5129 5.2746-2.0553z" color="#000000" color-rendering="auto" dominant-baseline="auto" fill="#111" fill-opacity=".038387" image-rendering="auto" shape-rendering="auto" solid-color="#000000" stop-color="#000000" style="font-feature-settings:normal;font-variant-alternates:normal;font-variant-caps:normal;font-variant-east-asian:normal;font-variant-ligatures:normal;font-variant-numeric:normal;font-variant-position:normal;font-variation-settings:normal;inline-size:0;isolation:auto;mix-blend-mode:normal;shape-margin:0;shape-padding:0;text-decoration-color:#000000;text-decoration-line:none;text-decoration-style:solid;text-indent:0;text-orientation:mixed;text-transform:none;white-space:normal"/>
<path d="m26.497 17.327c-0.22438 0-0.45108 0.07084-0.64062 0.20898v-2e-3c-0.68326 0.4974-2.8405 1.8934-5.3789 2.1309-0.65428 0.06098-1.1663 0.61593-1.1777 1.2715a0.65154 0.65154 0 0 0 0 2e-3c-0.01724 1.1246 0.05555 3.5574 0.94141 5.9844 0.88585 2.427 2.6545 4.8863 5.9219 5.7637a0.65154 0.65154 0 0 0 2e-3 0c0.21811 0.05814 0.44595 0.05814 0.66406 0a0.65154 0.65154 0 0 0 2e-3 0c3.2675-0.87665 5.0359-3.3346 5.9219-5.7617 0.88595-2.4271 0.95984-4.8622 0.94336-5.9863-0.0084-0.65936-0.52365-1.2125-1.1777-1.2734h-2e-3c-2.5361-0.23785-4.6902-1.6301-5.377-2.1289-0.19089-0.13918-0.41825-0.20898-0.64258-0.20898zm0 1.3359c0.84628 0.60549 3.0509 2.0293 5.8965 2.2969 0.01505 1.0335-0.06935 3.3372-0.86523 5.5176-0.79544 2.1792-2.2316 4.1959-5.0273 4.9492v2e-3c-0.0015-4.07e-4 -0.0024-0.0015-0.0039-2e-3 -6.35e-4 7.5e-5 -0.0011-2.28e-4 -2e-3 0-2.7971-0.7536-4.2338-2.7698-5.0293-4.9492-0.79577-2.1802-0.87902-4.4846-0.86328-5.5176 2.8457-0.26755 5.0486-1.6907 5.8945-2.2969z" color="#000000" color-rendering="auto" dominant-baseline="auto" fill="#fff" image-rendering="auto" shape-rendering="auto" solid-color="#000000" stop-color="#000000" style="font-feature-settings:normal;font-variant-alternates:normal;font-variant-caps:normal;font-variant-east-asian:normal;font-variant-ligatures:normal;font-variant-numeric:normal;font-variant-position:normal;font-variation-settings:normal;inline-size:0;isolation:auto;mix-blend-mode:normal;shape-margin:0;shape-padding:0;text-decoration-color:#000000;text-decoration-line:none;text-decoration-style:solid;text-indent:0;text-orientation:mixed;text-transform:none;white-space:normal"/>
</svg>
