<svg width="170.67" height="170.67" version="1.1" viewBox="0 0 170.67 170.67" xmlns="http://www.w3.org/2000/svg" xmlns:xlink="http://www.w3.org/1999/xlink">
<defs>
<linearGradient id="linearGradient1248">
<stop stop-color="#a6a7a7" offset="0"/>
<stop stop-color="#686760" stop-opacity="0" offset="1"/>
</linearGradient>
<linearGradient id="linearGradient1250" x1="97.103" x2="98.018" y1="147.88" y2="154.38" gradientUnits="userSpaceOnUse">
<stop stop-color="#acafac" offset="0"/>
<stop stop-color="#686760" offset="1"/>
</linearGradient>
<linearGradient id="linearGradient1273" x1="45.036" x2="96.934" y1="158.36" y2="153.66" gradientUnits="userSpaceOnUse" xlink:href="#linearGradient1248"/>
<linearGradient id="linearGradient1281" x1="137.24" x2="96.934" y1="132.69" y2="153.66" gradientUnits="userSpaceOnUse" xlink:href="#linearGradient1248"/>
<filter id="filter1342" x="-.022498" y="-.020771" width="1.045" height="1.0415" color-interpolation-filters="sRGB">
<feGaussianBlur stdDeviation="1.2103751"/>
</filter>
<linearGradient id="linearGradient1401" x1="140.71" x2="157.68" y1="213.09" y2="213.45" gradientTransform="matrix(1.0732 0 0 1.0732 -149.64 13.608)" gradientUnits="userSpaceOnUse">
<stop stop-color="#69777e" offset="0"/>
<stop stop-color="#7c8a8e" offset="1"/>
</linearGradient>
<filter id="filter1409" x="-.0094774" y="-.0097258" width="1.019" height="1.0195" color-interpolation-filters="sRGB">
<feGaussianBlur stdDeviation="0.57345633"/>
</filter>
</defs>
<path transform="matrix(1.0732 0 0 1.0732 -6.9033 -8.9291)" d="m16.184 38.654 119.69-18.377c2.8062-0.43926 2.8319-0.53471 3.6158 3.6158l19.45 118.24-125.86 19.449-19.065-117.87c-0.55115-3.7877-0.59393-4.4876 2.1695-5.0621z" fill-opacity=".475" filter="url(#filter1409)"/>
<path d="m11.014 32.623 127.28-19.791c3.0117-0.47141 3.0392-0.57385 3.8805 3.8805l20.179 123.79-134.27 20.179-19.403-122.62c-0.5915-4.065-0.63741-4.8161 2.3283-5.4327z" fill="url(#linearGradient1401)"/>
<path transform="matrix(1.0732 0 0 1.0732 -6.9033 -8.9291)" d="m19.384 38.004 112.24-17.897 17.392 112.53-110.99 19.909z" fill-opacity=".7125" filter="url(#filter1342)"/>
<path transform="matrix(1.0732 0 0 1.0732 -6.9033 -8.9291)" d="m27.884 38.754 97.742-17.897 22.142 117.78-107.99 17.409z" fill-opacity=".22083" filter="url(#filter1342)"/>
<path d="m14.723 23.9 117.17-19.208 19.756 120.73-119.64 19.756z" fill="#fafafa"/>
<path d="m131.89 4.6932-117.17 19.207 5.2382 36.753 118.08-18.379z" fill="#e8684f"/>
<g transform="matrix(1.0732 0 0 1.0732 -12.442 -22.887)">
<path d="m41.42 156.6 1.7897 6.3919 109.3-19.431 0.3835-5.3692c-36.65 4.9824-74.489 12.797-111.48 18.409z" fill="url(#linearGradient1250)"/>
<path d="m41.42 156.6 1.7897 6.3919 109.3-19.431 0.3835-5.3692c-36.65 7.2213-74.489 13.878-111.48 18.409z" fill="url(#linearGradient1273)"/>
<path d="m41.42 156.6 1.7897 6.3919 109.3-19.431 0.3835-5.3692c-36.65 7.2213-74.489 13.878-111.48 18.409z" fill="url(#linearGradient1281)"/>
</g>
<path d="m140.05 12.613c-0.35854 0.0051-0.83155 0.07812-1.3918 0.16559l21.743 128.02 1.9494-0.29345-20.177-123.79c-0.63098-3.3408-0.80562-4.1189-2.1234-4.1z" fill="#fff" fill-opacity=".25"/>
<path d="m28.088 160.68 1.3144 1.7896 132.71-20.502 0.24192-1.4673z" fill="#1f2427"/>
<path d="m59.195 21.149 2.4213 12.315c0.17399 0.90104 0.43952 1.618 0.7925 2.1508 0.35298 0.53287 0.89563 0.88366 1.63 1.0478 0.7344 0.16413 1.7682 0.14205 3.1029-0.06569 0.52731-0.08208 0.99145-0.20242 1.3893-0.35717 0.41434-0.15729 0.78696-0.42214 1.1166-0.79829 0.34377-0.39382 0.67565-0.97142 0.99596-1.7328 0.71546 0.69302 1.5393 1.2135 2.4713 1.5635 0.92974 0.33482 1.8052 0.43749 2.6291 0.30925 0.43712-0.06803 0.82591-0.22836 1.1855-0.44426l1.8853 9.5797c0.17399 0.90104 0.43683 1.6184 0.7898 2.1512 0.35298 0.53287 0.89832 0.88324 1.6327 1.0474s1.7682 0.14205 3.1029-0.06569l2.248-0.34989c1.4501-0.2257 2.5887-0.51242 3.4126-0.85722 0.82162-0.35991 1.4193-0.74661 1.7937-1.1607 0.37437-0.41405 0.59667-0.82639 0.66739-1.2396 0.0707-0.41319 0.0817-0.786 0.03-1.1183-0.181-1.1629-0.88058-2.2315-2.095-3.2026-1.2003-0.9888-2.875-2.0511-5.0263-3.1857 0.4756-0.41433 0.99225-0.82713 1.5526-1.2392 0.57446-0.42972 1.2978-0.92944 2.1712-1.4985 0.84676-0.55975 1.9581-1.2821 3.2677-2.1251 0.22098 0.15755 0.47221 0.27631 0.76102 0.35407 0.56022 0.12937 1.2943 0.12461 2.2006-0.01645 1.3183-0.20518 2.3039-0.70702 2.9562-1.5046 0.64988-0.8127 0.86469-1.9207 0.64608-3.3253-0.0705-0.45308-0.2176-0.97218-0.44344-1.5558-0.22586-0.58359-0.48578-1.1626-0.77755-1.7359-0.29411-0.58844-0.57774-1.1156-0.85305-1.5832l-1.8972 0.99163c0.49651 0.80443 0.95257 1.6211 1.369 2.4535 0.43295 0.8298 0.69234 1.525 0.77931 2.0838 0.12223 0.78535-9e-3 1.3384-0.39762 1.6618-0.38848 0.32343-0.93825 0.54118-1.6468 0.65146-0.64266 0.10003-1.1352 0.12194-1.4813 0.06751-0.32954-0.05699-0.56664-0.16554-0.7102-0.32882-0.12943-0.18095-0.21048-0.37794-0.24339-0.58938-0.04-0.25675-0.0662-0.5784-0.0755-0.96368-0.0117-0.40036-0.0129-0.8006-8e-3 -1.2035 0.0213-0.4055 0.034-0.74927 0.0412-1.0288l-1.9283-0.02317c-7e-3 1.113-0.0464 1.9764-0.1089 2.631l-0.7625-1.0723c-1.4335 0.97796-2.6743 1.8684-3.8231 2.72-0.0014-0.0081-0.0074-0.01262-0.0087-0.02075-0.06582-0.42288-0.07515-0.90867-0.0256-1.4578 0.04954-0.54912 0.09455-1.0273 0.1323-1.4354l-1.9288-0.18612c-0.09441 1.1284-0.19347 2.0088-0.29718 2.6437-0.10371 0.63489-0.24955 1.1128-0.43558 1.4356-0.17191 0.30519-0.41377 0.52313-0.73158 0.64994-0.32016 0.11172-0.74572 0.20725-1.273 0.28932-9.88e-4 1.53e-4 -0.0017 2.62e-4 -0.0027 4.15e-4 -0.42844 0.06668-0.82632 0.06721-1.1912 2.58e-4 -0.35072-0.08463-0.71407-0.30571-1.0906-0.66476-0.36008-0.36161-0.79431-0.93612-1.305-1.7229-0.553-0.84205-1.0601-1.4921-1.519-1.9466-0.4448-0.47217-0.89581-0.77972-1.3572-0.92447-0.4637-0.15986-0.9683-0.19746-1.5121-0.11283-0.39548 0.06155-0.82578 0.22864-1.2896 0.50191-0.44731 0.27072-0.90214 0.70597-1.366 1.3041-0.44739 0.59557-0.86057 1.4181-1.2374 2.4668-0.28265 0.78649-0.5223 1.4111-0.72014 1.875-0.18371 0.44625-0.40228 0.78058-0.6542 1.0054-0.23545 0.22227-0.58385 0.36996-1.0452 0.44177-0.93927 0.14619-1.6425 0.17823-2.111 0.09645-0.45194-0.08434-0.77384-0.31188-0.96678-0.68403-0.17881-0.38982-0.34321-0.95158-0.49136-1.6865l-2.3116-11.591zm30.602-3.1381c-0.34605 0.05386-0.62361 0.2132-0.83552 0.47822-0.19544 0.26245-0.27086 0.54518-0.22385 0.84724 0.047 0.30206 0.2048 0.54849 0.47076 0.73913 0.28008 0.17297 0.59151 0.23124 0.93756 0.17738 0.32956-0.05129 0.59574-0.19946 0.79353-0.44681 0.21192-0.26501 0.29239-0.54854 0.24538-0.85059-0.047-0.30206-0.20986-0.54771-0.49228-0.73578-0.26596-0.19064-0.56601-0.26008-0.89558-0.20878zm-1.2919 2.7543c-0.34606 0.05386-0.62361 0.2132-0.83553 0.47822-0.19544 0.26245-0.27086 0.54518-0.22384 0.84724 0.04701 0.30205 0.20438 0.5458 0.47033 0.73643 0.28008 0.17297 0.59193 0.23394 0.93798 0.18008 0.32957-0.05129 0.59264-0.20175 0.79042-0.44909 0.21192-0.26501 0.29551-0.54626 0.24849-0.84831-0.047-0.30206-0.21253-0.54729-0.49498-0.73536-0.26595-0.19064-0.56331-0.2605-0.89287-0.2092zm3.3626-0.52336c-0.34604 0.05386-0.6263 0.21361-0.83821 0.47863-0.19544 0.26245-0.26816 0.54476-0.22115 0.84682 0.047 0.30206 0.20169 0.54622 0.46764 0.73685 0.28008 0.17297 0.59462 0.23352 0.94067 0.17966 0.32957-0.0513 0.59263-0.20175 0.79043-0.44909 0.21191-0.26501 0.29549-0.54626 0.24848-0.84831-0.047-0.30206-0.21254-0.54729-0.49497-0.73536-0.26596-0.19063-0.56332-0.2605-0.89289-0.2092zm-36.522 10.208-1.6732 1.1198c0.5601 0.67079 1.0007 1.2349 1.3254 1.6948 0.32475 0.45992 0.56788 0.88001 0.72787 1.2573 0.15999 0.37728 0.27248 0.77623 0.33829 1.1991 0.10343 0.66452 0.04191 1.3936-0.18896 2.1875-0.21673 0.77623-0.72746 1.5686-1.5303 2.3742-0.78641 0.80302-1.974 1.5752-3.5631 2.3175l0.98403 1.6098c0.49202-0.20032 1.0392-0.4857 1.6396-0.85758 0.61682-0.37444 1.2125-0.82498 1.7894-1.3479 0.59332-0.52547 1.1143-1.1325 1.564-1.8213 0.46859-0.67621 0.80862-1.4232 1.0183-2.2448 0.22616-0.8241 0.26542-1.714 0.11732-2.6655-0.10343-0.66452-0.36296-1.4117-0.77943-2.244-0.39999-0.83492-0.99014-1.6949-1.7691-2.5791zm18.201-1.5093c0.379-0.05899 0.73001 0.03183 1.0548 0.27519 0.32244 0.22825 0.62384 0.5458 0.90622 0.95044 0.28239 0.40464 0.55881 0.81678 0.82706 1.2391 0.22179 0.34914 0.33862 0.66344 0.37092 0.9481l-0.31499 0.04902 0.13693 0.70266c-0.2182 0.34465-0.57656 0.56502-1.0935 0.64548-0.54379 0.08464-1.1933-0.01448-1.9465-0.29944-0.75556-0.30006-1.4787-0.839-2.1729-1.6127 0.37922-1.0335 0.75471-1.7568 1.1291-2.1708 0.37438-0.41405 0.74269-0.65554 1.1029-0.72707zm16.954 0.30693c-0.0711 0.50306-0.17088 0.91649-0.31429 1.1874-0.15308 0.31773-0.37884 0.53704-0.68018 0.66128-0.30134 0.12425-0.69951 0.22493-1.1939 0.30187-0.34822 0.0542-0.63028 0.07045-0.89313 0.07268 0.96286-0.70517 1.867-1.3774 3.0815-2.2232zm-4.9005 3.5398c0.13865 0.12321 0.28402 0.23185 0.44521 0.30927 0.24157 0.10672 0.49043 0.17 0.74456 0.21294-0.07717 0.05108-0.2046 0.13759-0.27969 0.18722-1.2996 0.86742-2.2267 1.6765-2.7848 2.4285-0.15541 0.19434-0.25121 0.44817-0.28658 0.76305-0.03538 0.31488-0.02631 0.64585 0.02775 0.99322 0.02116 0.13593 0.25225 0.3256 0.69475 0.5661 0.4425 0.2405 1.0024 0.5311 1.6802 0.87419 0.67787 0.34308 1.3681 0.75498 2.0671 1.234 1.0168 0.67705 1.7056 1.2507 2.0656 1.7206 0.37654 0.46733 0.59129 0.87579 0.64535 1.2232 0.0306 0.19634 0.0118 0.39947-0.0565 0.61119-0.0542 0.19406-0.20851 0.39561-0.46279 0.60534-0.24015 0.19206-0.63962 0.38642-1.1999 0.5819-0.56264 0.18038-1.3224 0.34399-2.2782 0.49274l-2.3234 0.36162c-0.93927 0.14619-1.6452 0.17865-2.1137 0.09686-0.45195-0.08434-0.77384-0.31188-0.96679-0.68403-0.17881-0.38982-0.34052-0.952-0.48866-1.6869l-1.9091-9.5732c0.23866 0.11982 0.49955 0.2138 0.78695 0.27267 0.57199 0.0966 1.1793 0.09554 1.822-0.0045 9.53e-4 -1.48e-4 0.0018-2.77e-4 0.0027-4.15e-4 0.0099-0.0015 0.01677-0.0053 0.0265-0.0069l0.90034 0.91267c0.88116-0.70268 1.9763-1.5427 3.241-2.4912zm-15.651 6.2575-1.0658 1.6028 0.80809 0.47938c-1.0148 1.1789-1.6904 2.2585-2.0272 3.2391-0.32271 0.96288-0.43698 1.7455-0.34295 2.3497 0.1904 1.2233 0.73296 2.068 1.6321 2.5313 0.89676 0.44823 1.9568 0.57693 3.1762 0.38714 0.8404-0.1308 1.5196-0.36869 2.0399-0.71264 0.51796-0.35905 0.90276-0.76737 1.1524-1.2239 0.24727-0.47161 0.40287-0.93772 0.46653-1.3962 0.06365-0.4585 0.06751-0.85951 0.01345-1.2069-0.13869-0.89106-0.4933-1.7036-1.0628-2.4348s-1.2721-1.3934-2.1076-1.9903c-0.83553-0.59698-1.7289-1.1387-2.6822-1.6246zm1.0679 2.8043c0.77672 0.43598 1.3749 0.8528 1.7914 1.252 0.41421 0.38412 0.708 0.75484 0.88212 1.1145 0.17411 0.35962 0.28746 0.71308 0.34152 1.0604 0.09873 0.63432-0.03366 1.1809-0.40098 1.6402-0.36967 0.44425-0.96707 0.7308-1.791 0.85904-0.65913 0.10259-1.2353 0.03078-1.7296-0.21713-0.4778-0.25048-0.76684-0.69273-0.86557-1.327-0.08462-0.5437 0.02093-1.2116 0.32006-2.0007 0.31561-0.79162 0.7998-1.5837 1.452-2.3813z" fill="#fff" stroke-width="1.5125"/>
<path d="m86.531 66.109-24.785 29.621 35.385 18.463 2.3125-4.4336-20.909-10.909-1.8259-12.271 13.537-17.124z" color="#000000" color-rendering="auto" dominant-baseline="auto" fill="#3b484e" image-rendering="auto" shape-rendering="auto" solid-color="#000000" style="font-feature-settings:normal;font-variant-alternates:normal;font-variant-caps:normal;font-variant-ligatures:normal;font-variant-numeric:normal;font-variant-position:normal;isolation:auto;mix-blend-mode:normal;shape-padding:0;text-decoration-color:#000000;text-decoration-line:none;text-decoration-style:solid;text-indent:0;text-orientation:mixed;text-transform:none;white-space:normal"/>
</svg>
