<svg width="128" height="128" version="1.1" viewBox="0 0 128 128" xmlns="http://www.w3.org/2000/svg" xmlns:osb="http://www.openswatchbook.org/uri/2009/osb" xmlns:xlink="http://www.w3.org/1999/xlink">
<defs>
<linearGradient id="linearGradient825" x1="-741.83" x2="-741.83" y1="959.05" y2="93.836" gradientTransform="matrix(.13668 0 0 .13668 162.31 -5.9893)" gradientUnits="userSpaceOnUse">
<stop stop-color="#d8dfe3" offset="0"/>
<stop stop-color="#f5f9fd" offset="1"/>
</linearGradient>
<style id="current-color-scheme" type="text/css">.ColorScheme-Text { color:#5c616c; } .ColorScheme-Highlight { color:#5294e2; }</style>
<style id="current-color-scheme-3" type="text/css">.ColorScheme-Text { color:#5c616c; } .ColorScheme-Highlight { color:#5294e2; }</style>
<style id="current-color-scheme-7" type="text/css">.ColorScheme-Text { color:#5c616c; } .ColorScheme-Highlight { color:#5294e2; }</style>
<style id="current-color-scheme-35" type="text/css">.ColorScheme-Text { color:#5c616c; } .ColorScheme-Highlight { color:#5294e2; }</style>
<style id="current-color-scheme-9" type="text/css">.ColorScheme-Text { color:#5c616c; } .ColorScheme-Highlight { color:#5294e2; }</style>
<style id="current-color-scheme-2" type="text/css">.ColorScheme-Text { color:#5c616c; } .ColorScheme-Highlight { color:#5294e2; }</style>
<style id="current-color-scheme-0" type="text/css">.ColorScheme-Text { color:#5c616c; } .ColorScheme-Highlight { color:#5294e2; }</style>
<style id="current-color-scheme-36" type="text/css">.ColorScheme-Text { color:#5c616c; } .ColorScheme-Highlight { color:#5294e2; }</style>
<style id="current-color-scheme-6" type="text/css">.ColorScheme-Text { color:#5c616c; } .ColorScheme-Highlight { color:#5294e2; }</style>
<style id="current-color-scheme-61" type="text/css">.ColorScheme-Text { color:#5c616c; } .ColorScheme-Highlight { color:#5294e2; }</style>
<style id="current-color-scheme-79" type="text/css">.ColorScheme-Text { color:#5c616c; } .ColorScheme-Highlight { color:#5294e2; }</style>
<style id="current-color-scheme-23" type="text/css">.ColorScheme-Text { color:#5c616c; } .ColorScheme-Highlight { color:#5294e2; }</style>
<style id="current-color-scheme-92" type="text/css">.ColorScheme-Text { color:#5c616c; } .ColorScheme-Highlight { color:#5294e2; }</style>
<style id="current-color-scheme-97" type="text/css">.ColorScheme-Text { color:#5c616c; } .ColorScheme-Highlight { color:#5294e2; }</style>
<style id="current-color-scheme-612" type="text/css">.ColorScheme-Text { color:#5c616c; } .ColorScheme-Highlight { color:#5294e2; }</style>
<style id="current-color-scheme-1" type="text/css">.ColorScheme-Text { color:#5c616c; } .ColorScheme-Highlight { color:#5294e2; }</style>
<style id="current-color-scheme-3-0" type="text/css">.ColorScheme-Text { color:#5c616c; } .ColorScheme-Highlight { color:#5294e2; }</style>
<style id="current-color-scheme-7-6" type="text/css">.ColorScheme-Text { color:#5c616c; } .ColorScheme-Highlight { color:#5294e2; }</style>
<style id="current-color-scheme-35-3" type="text/css">.ColorScheme-Text { color:#5c616c; } .ColorScheme-Highlight { color:#5294e2; }</style>
<style id="current-color-scheme-9-2" type="text/css">.ColorScheme-Text { color:#5c616c; } .ColorScheme-Highlight { color:#5294e2; }</style>
<style id="current-color-scheme-2-0" type="text/css">.ColorScheme-Text { color:#5c616c; } .ColorScheme-Highlight { color:#5294e2; }</style>
<style id="current-color-scheme-0-6" type="text/css">.ColorScheme-Text { color:#5c616c; } .ColorScheme-Highlight { color:#5294e2; }</style>
<style id="current-color-scheme-36-1" type="text/css">.ColorScheme-Text { color:#5c616c; } .ColorScheme-Highlight { color:#5294e2; }</style>
<style id="current-color-scheme-6-5" type="text/css">.ColorScheme-Text { color:#5c616c; } .ColorScheme-Highlight { color:#5294e2; }</style>
<style id="current-color-scheme-61-5" type="text/css">.ColorScheme-Text { color:#5c616c; } .ColorScheme-Highlight { color:#5294e2; }</style>
<style id="current-color-scheme-79-4" type="text/css">.ColorScheme-Text { color:#5c616c; } .ColorScheme-Highlight { color:#5294e2; }</style>
<style id="current-color-scheme-23-7" type="text/css">.ColorScheme-Text { color:#5c616c; } .ColorScheme-Highlight { color:#5294e2; }</style>
<style id="current-color-scheme-92-6" type="text/css">.ColorScheme-Text { color:#5c616c; } .ColorScheme-Highlight { color:#5294e2; }</style>
<style id="current-color-scheme-97-5" type="text/css">.ColorScheme-Text { color:#5c616c; } .ColorScheme-Highlight { color:#5294e2; }</style>
<style id="current-color-scheme-612-6" type="text/css">.ColorScheme-Text { color:#5c616c; } .ColorScheme-Highlight { color:#5294e2; }</style>
<clipPath>
<rect width="384" height="384"/>
</clipPath>
<clipPath>
<rect width="384" height="384"/>
</clipPath>
<clipPath>
<rect width="384" height="384"/>
</clipPath>
<clipPath>
<rect width="384" height="384"/>
</clipPath>
<linearGradient id="linearGradient5161" x1="63.273" x2="63.013" y1="116.36" y2="17.147" gradientUnits="userSpaceOnUse">
<stop stop-color="#eef3f6" offset="0"/>
<stop stop-color="#f5f9fd" offset="1"/>
</linearGradient>
</defs>
<circle cx="63.592" cy="64.286" r="61.38" fill="url(#linearGradient825)"/>
<circle cx="63.592" cy="64.286" r="55.09" fill="url(#linearGradient5161)"/>
<g transform="translate(-118.73 -.31745)" fill="none" opacity=".48" shape-rendering="auto" stroke="#ff2a6d" stroke-linejoin="bevel" stroke-opacity=".011765">
<path d="m201.54 41.908c-12.709 0-23.055 10.346-23.055 23.055s10.346 23.055 23.055 23.055c12.709 0 23.055-10.346 23.055-23.055s-10.346-23.055-23.055-23.055zm0 4c10.547 0 19.055 8.5075 19.055 19.055s-8.5075 19.055-19.055 19.055c-10.547 0-19.055-8.5075-19.055-19.055s8.5075-19.055 19.055-19.055zm-45.551 9.6348c-8.944 0-16.238 7.2923-16.238 16.236 0 8.944 7.2942 16.238 16.238 16.238s16.236-7.2942 16.236-16.238c0-8.944-7.2923-16.236-16.236-16.236zm0 4c6.7823 0 12.236 5.4541 12.236 12.236s-5.4541 12.238-12.236 12.238-12.238-5.456-12.238-12.238 5.456-12.236 12.238-12.236z" color="#000000" color-rendering="auto" dominant-baseline="auto" image-rendering="auto" opacity="1" solid-color="#000000" stroke-width=".1" style="font-feature-settings:normal;font-variant-alternates:normal;font-variant-caps:normal;font-variant-ligatures:normal;font-variant-numeric:normal;font-variant-position:normal;isolation:auto;mix-blend-mode:normal;shape-padding:0;text-decoration-color:#000000;text-decoration-line:none;text-decoration-style:solid;text-indent:0;text-orientation:mixed;text-transform:none;white-space:normal"/>
<path d="m201.54 41.908c-12.709 0-23.055 10.346-23.055 23.055s10.346 23.055 23.055 23.055c12.709 0 23.055-10.346 23.055-23.055s-10.346-23.055-23.055-23.055zm0 4c10.547 0 19.055 8.5075 19.055 19.055s-8.5075 19.055-19.055 19.055c-10.547 0-19.055-8.5075-19.055-19.055s8.5075-19.055 19.055-19.055zm-45.551 9.6348c-8.944 0-16.238 7.2923-16.238 16.236 0 8.944 7.2942 16.238 16.238 16.238s16.236-7.2942 16.236-16.238c0-8.944-7.2923-16.236-16.236-16.236zm0 4c6.7823 0 12.236 5.4541 12.236 12.236s-5.4541 12.238-12.236 12.238-12.238-5.456-12.238-12.238 5.456-12.236 12.238-12.236z" color="#000000" color-rendering="auto" dominant-baseline="auto" image-rendering="auto" opacity="1" solid-color="#000000" stroke-width=".2" style="font-feature-settings:normal;font-variant-alternates:normal;font-variant-caps:normal;font-variant-ligatures:normal;font-variant-numeric:normal;font-variant-position:normal;isolation:auto;mix-blend-mode:normal;shape-padding:0;text-decoration-color:#000000;text-decoration-line:none;text-decoration-style:solid;text-indent:0;text-orientation:mixed;text-transform:none;white-space:normal"/>
<path d="m201.54 41.908c-12.709 0-23.055 10.346-23.055 23.055s10.346 23.055 23.055 23.055c12.709 0 23.055-10.346 23.055-23.055s-10.346-23.055-23.055-23.055zm0 4c10.547 0 19.055 8.5075 19.055 19.055s-8.5075 19.055-19.055 19.055c-10.547 0-19.055-8.5075-19.055-19.055s8.5075-19.055 19.055-19.055zm-45.551 9.6348c-8.944 0-16.238 7.2923-16.238 16.236 0 8.944 7.2942 16.238 16.238 16.238s16.236-7.2942 16.236-16.238c0-8.944-7.2923-16.236-16.236-16.236zm0 4c6.7823 0 12.236 5.4541 12.236 12.236s-5.4541 12.238-12.236 12.238-12.238-5.456-12.238-12.238 5.456-12.236 12.238-12.236z" color="#000000" color-rendering="auto" dominant-baseline="auto" image-rendering="auto" opacity="1" solid-color="#000000" stroke-width=".3" style="font-feature-settings:normal;font-variant-alternates:normal;font-variant-caps:normal;font-variant-ligatures:normal;font-variant-numeric:normal;font-variant-position:normal;isolation:auto;mix-blend-mode:normal;shape-padding:0;text-decoration-color:#000000;text-decoration-line:none;text-decoration-style:solid;text-indent:0;text-orientation:mixed;text-transform:none;white-space:normal"/>
<path d="m201.54 41.908c-12.709 0-23.055 10.346-23.055 23.055s10.346 23.055 23.055 23.055c12.709 0 23.055-10.346 23.055-23.055s-10.346-23.055-23.055-23.055zm0 4c10.547 0 19.055 8.5075 19.055 19.055s-8.5075 19.055-19.055 19.055c-10.547 0-19.055-8.5075-19.055-19.055s8.5075-19.055 19.055-19.055zm-45.551 9.6348c-8.944 0-16.238 7.2923-16.238 16.236 0 8.944 7.2942 16.238 16.238 16.238s16.236-7.2942 16.236-16.238c0-8.944-7.2923-16.236-16.236-16.236zm0 4c6.7823 0 12.236 5.4541 12.236 12.236s-5.4541 12.238-12.236 12.238-12.238-5.456-12.238-12.238 5.456-12.236 12.238-12.236z" color="#000000" color-rendering="auto" dominant-baseline="auto" image-rendering="auto" opacity="1" solid-color="#000000" stroke-width=".4" style="font-feature-settings:normal;font-variant-alternates:normal;font-variant-caps:normal;font-variant-ligatures:normal;font-variant-numeric:normal;font-variant-position:normal;isolation:auto;mix-blend-mode:normal;shape-padding:0;text-decoration-color:#000000;text-decoration-line:none;text-decoration-style:solid;text-indent:0;text-orientation:mixed;text-transform:none;white-space:normal"/>
<path d="m201.54 41.908c-12.709 0-23.055 10.346-23.055 23.055s10.346 23.055 23.055 23.055c12.709 0 23.055-10.346 23.055-23.055s-10.346-23.055-23.055-23.055zm0 4c10.547 0 19.055 8.5075 19.055 19.055s-8.5075 19.055-19.055 19.055c-10.547 0-19.055-8.5075-19.055-19.055s8.5075-19.055 19.055-19.055zm-45.551 9.6348c-8.944 0-16.238 7.2923-16.238 16.236 0 8.944 7.2942 16.238 16.238 16.238s16.236-7.2942 16.236-16.238c0-8.944-7.2923-16.236-16.236-16.236zm0 4c6.7823 0 12.236 5.4541 12.236 12.236s-5.4541 12.238-12.236 12.238-12.238-5.456-12.238-12.238 5.456-12.236 12.238-12.236z" color="#000000" color-rendering="auto" dominant-baseline="auto" image-rendering="auto" opacity="1" solid-color="#000000" stroke-width=".5" style="font-feature-settings:normal;font-variant-alternates:normal;font-variant-caps:normal;font-variant-ligatures:normal;font-variant-numeric:normal;font-variant-position:normal;isolation:auto;mix-blend-mode:normal;shape-padding:0;text-decoration-color:#000000;text-decoration-line:none;text-decoration-style:solid;text-indent:0;text-orientation:mixed;text-transform:none;white-space:normal"/>
<path d="m201.54 41.908c-12.709 0-23.055 10.346-23.055 23.055s10.346 23.055 23.055 23.055c12.709 0 23.055-10.346 23.055-23.055s-10.346-23.055-23.055-23.055zm0 4c10.547 0 19.055 8.5075 19.055 19.055s-8.5075 19.055-19.055 19.055c-10.547 0-19.055-8.5075-19.055-19.055s8.5075-19.055 19.055-19.055zm-45.551 9.6348c-8.944 0-16.238 7.2923-16.238 16.236 0 8.944 7.2942 16.238 16.238 16.238s16.236-7.2942 16.236-16.238c0-8.944-7.2923-16.236-16.236-16.236zm0 4c6.7823 0 12.236 5.4541 12.236 12.236s-5.4541 12.238-12.236 12.238-12.238-5.456-12.238-12.238 5.456-12.236 12.238-12.236z" color="#000000" color-rendering="auto" dominant-baseline="auto" image-rendering="auto" opacity="1" solid-color="#000000" stroke-width=".6" style="font-feature-settings:normal;font-variant-alternates:normal;font-variant-caps:normal;font-variant-ligatures:normal;font-variant-numeric:normal;font-variant-position:normal;isolation:auto;mix-blend-mode:normal;shape-padding:0;text-decoration-color:#000000;text-decoration-line:none;text-decoration-style:solid;text-indent:0;text-orientation:mixed;text-transform:none;white-space:normal"/>
<path d="m201.54 41.908c-12.709 0-23.055 10.346-23.055 23.055s10.346 23.055 23.055 23.055c12.709 0 23.055-10.346 23.055-23.055s-10.346-23.055-23.055-23.055zm0 4c10.547 0 19.055 8.5075 19.055 19.055s-8.5075 19.055-19.055 19.055c-10.547 0-19.055-8.5075-19.055-19.055s8.5075-19.055 19.055-19.055zm-45.551 9.6348c-8.944 0-16.238 7.2923-16.238 16.236 0 8.944 7.2942 16.238 16.238 16.238s16.236-7.2942 16.236-16.238c0-8.944-7.2923-16.236-16.236-16.236zm0 4c6.7823 0 12.236 5.4541 12.236 12.236s-5.4541 12.238-12.236 12.238-12.238-5.456-12.238-12.238 5.456-12.236 12.238-12.236z" color="#000000" color-rendering="auto" dominant-baseline="auto" image-rendering="auto" opacity="1" solid-color="#000000" stroke-width=".7" style="font-feature-settings:normal;font-variant-alternates:normal;font-variant-caps:normal;font-variant-ligatures:normal;font-variant-numeric:normal;font-variant-position:normal;isolation:auto;mix-blend-mode:normal;shape-padding:0;text-decoration-color:#000000;text-decoration-line:none;text-decoration-style:solid;text-indent:0;text-orientation:mixed;text-transform:none;white-space:normal"/>
<path d="m201.54 41.908c-12.709 0-23.055 10.346-23.055 23.055s10.346 23.055 23.055 23.055c12.709 0 23.055-10.346 23.055-23.055s-10.346-23.055-23.055-23.055zm0 4c10.547 0 19.055 8.5075 19.055 19.055s-8.5075 19.055-19.055 19.055c-10.547 0-19.055-8.5075-19.055-19.055s8.5075-19.055 19.055-19.055zm-45.551 9.6348c-8.944 0-16.238 7.2923-16.238 16.236 0 8.944 7.2942 16.238 16.238 16.238s16.236-7.2942 16.236-16.238c0-8.944-7.2923-16.236-16.236-16.236zm0 4c6.7823 0 12.236 5.4541 12.236 12.236s-5.4541 12.238-12.236 12.238-12.238-5.456-12.238-12.238 5.456-12.236 12.238-12.236z" color="#000000" color-rendering="auto" dominant-baseline="auto" image-rendering="auto" opacity="1" solid-color="#000000" stroke-width=".8" style="font-feature-settings:normal;font-variant-alternates:normal;font-variant-caps:normal;font-variant-ligatures:normal;font-variant-numeric:normal;font-variant-position:normal;isolation:auto;mix-blend-mode:normal;shape-padding:0;text-decoration-color:#000000;text-decoration-line:none;text-decoration-style:solid;text-indent:0;text-orientation:mixed;text-transform:none;white-space:normal"/>
<path d="m201.54 41.908c-12.709 0-23.055 10.346-23.055 23.055s10.346 23.055 23.055 23.055c12.709 0 23.055-10.346 23.055-23.055s-10.346-23.055-23.055-23.055zm0 4c10.547 0 19.055 8.5075 19.055 19.055s-8.5075 19.055-19.055 19.055c-10.547 0-19.055-8.5075-19.055-19.055s8.5075-19.055 19.055-19.055zm-45.551 9.6348c-8.944 0-16.238 7.2923-16.238 16.236 0 8.944 7.2942 16.238 16.238 16.238s16.236-7.2942 16.236-16.238c0-8.944-7.2923-16.236-16.236-16.236zm0 4c6.7823 0 12.236 5.4541 12.236 12.236s-5.4541 12.238-12.236 12.238-12.238-5.456-12.238-12.238 5.456-12.236 12.238-12.236z" color="#000000" color-rendering="auto" dominant-baseline="auto" image-rendering="auto" opacity="1" solid-color="#000000" stroke-width=".9" style="font-feature-settings:normal;font-variant-alternates:normal;font-variant-caps:normal;font-variant-ligatures:normal;font-variant-numeric:normal;font-variant-position:normal;isolation:auto;mix-blend-mode:normal;shape-padding:0;text-decoration-color:#000000;text-decoration-line:none;text-decoration-style:solid;text-indent:0;text-orientation:mixed;text-transform:none;white-space:normal"/>
<path d="m201.54 41.908c-12.709 0-23.055 10.346-23.055 23.055s10.346 23.055 23.055 23.055c12.709 0 23.055-10.346 23.055-23.055s-10.346-23.055-23.055-23.055zm0 4c10.547 0 19.055 8.5075 19.055 19.055s-8.5075 19.055-19.055 19.055c-10.547 0-19.055-8.5075-19.055-19.055s8.5075-19.055 19.055-19.055zm-45.551 9.6348c-8.944 0-16.238 7.2923-16.238 16.236 0 8.944 7.2942 16.238 16.238 16.238s16.236-7.2942 16.236-16.238c0-8.944-7.2923-16.236-16.236-16.236zm0 4c6.7823 0 12.236 5.4541 12.236 12.236s-5.4541 12.238-12.236 12.238-12.238-5.456-12.238-12.238 5.456-12.236 12.238-12.236z" color="#000000" color-rendering="auto" dominant-baseline="auto" image-rendering="auto" opacity="1" solid-color="#000000" style="font-feature-settings:normal;font-variant-alternates:normal;font-variant-caps:normal;font-variant-ligatures:normal;font-variant-numeric:normal;font-variant-position:normal;isolation:auto;mix-blend-mode:normal;shape-padding:0;text-decoration-color:#000000;text-decoration-line:none;text-decoration-style:solid;text-indent:0;text-orientation:mixed;text-transform:none;white-space:normal"/>
<path d="m201.54 41.908c-12.709 0-23.055 10.346-23.055 23.055s10.346 23.055 23.055 23.055c12.709 0 23.055-10.346 23.055-23.055s-10.346-23.055-23.055-23.055zm0 4c10.547 0 19.055 8.5075 19.055 19.055s-8.5075 19.055-19.055 19.055c-10.547 0-19.055-8.5075-19.055-19.055s8.5075-19.055 19.055-19.055zm-45.551 9.6348c-8.944 0-16.238 7.2923-16.238 16.236 0 8.944 7.2942 16.238 16.238 16.238s16.236-7.2942 16.236-16.238c0-8.944-7.2923-16.236-16.236-16.236zm0 4c6.7823 0 12.236 5.4541 12.236 12.236s-5.4541 12.238-12.236 12.238-12.238-5.456-12.238-12.238 5.456-12.236 12.238-12.236z" color="#000000" color-rendering="auto" dominant-baseline="auto" image-rendering="auto" opacity="1" solid-color="#000000" stroke-width="1.1" style="font-feature-settings:normal;font-variant-alternates:normal;font-variant-caps:normal;font-variant-ligatures:normal;font-variant-numeric:normal;font-variant-position:normal;isolation:auto;mix-blend-mode:normal;shape-padding:0;text-decoration-color:#000000;text-decoration-line:none;text-decoration-style:solid;text-indent:0;text-orientation:mixed;text-transform:none;white-space:normal"/>
<path d="m201.54 41.908c-12.709 0-23.055 10.346-23.055 23.055s10.346 23.055 23.055 23.055c12.709 0 23.055-10.346 23.055-23.055s-10.346-23.055-23.055-23.055zm0 4c10.547 0 19.055 8.5075 19.055 19.055s-8.5075 19.055-19.055 19.055c-10.547 0-19.055-8.5075-19.055-19.055s8.5075-19.055 19.055-19.055zm-45.551 9.6348c-8.944 0-16.238 7.2923-16.238 16.236 0 8.944 7.2942 16.238 16.238 16.238s16.236-7.2942 16.236-16.238c0-8.944-7.2923-16.236-16.236-16.236zm0 4c6.7823 0 12.236 5.4541 12.236 12.236s-5.4541 12.238-12.236 12.238-12.238-5.456-12.238-12.238 5.456-12.236 12.238-12.236z" color="#000000" color-rendering="auto" dominant-baseline="auto" image-rendering="auto" opacity="1" solid-color="#000000" stroke-width="1.2" style="font-feature-settings:normal;font-variant-alternates:normal;font-variant-caps:normal;font-variant-ligatures:normal;font-variant-numeric:normal;font-variant-position:normal;isolation:auto;mix-blend-mode:normal;shape-padding:0;text-decoration-color:#000000;text-decoration-line:none;text-decoration-style:solid;text-indent:0;text-orientation:mixed;text-transform:none;white-space:normal"/>
<path d="m201.54 41.908c-12.709 0-23.055 10.346-23.055 23.055s10.346 23.055 23.055 23.055c12.709 0 23.055-10.346 23.055-23.055s-10.346-23.055-23.055-23.055zm0 4c10.547 0 19.055 8.5075 19.055 19.055s-8.5075 19.055-19.055 19.055c-10.547 0-19.055-8.5075-19.055-19.055s8.5075-19.055 19.055-19.055zm-45.551 9.6348c-8.944 0-16.238 7.2923-16.238 16.236 0 8.944 7.2942 16.238 16.238 16.238s16.236-7.2942 16.236-16.238c0-8.944-7.2923-16.236-16.236-16.236zm0 4c6.7823 0 12.236 5.4541 12.236 12.236s-5.4541 12.238-12.236 12.238-12.238-5.456-12.238-12.238 5.456-12.236 12.238-12.236z" color="#000000" color-rendering="auto" dominant-baseline="auto" image-rendering="auto" opacity="1" solid-color="#000000" stroke-width="1.3" style="font-feature-settings:normal;font-variant-alternates:normal;font-variant-caps:normal;font-variant-ligatures:normal;font-variant-numeric:normal;font-variant-position:normal;isolation:auto;mix-blend-mode:normal;shape-padding:0;text-decoration-color:#000000;text-decoration-line:none;text-decoration-style:solid;text-indent:0;text-orientation:mixed;text-transform:none;white-space:normal"/>
<path d="m201.54 41.908c-12.709 0-23.055 10.346-23.055 23.055s10.346 23.055 23.055 23.055c12.709 0 23.055-10.346 23.055-23.055s-10.346-23.055-23.055-23.055zm0 4c10.547 0 19.055 8.5075 19.055 19.055s-8.5075 19.055-19.055 19.055c-10.547 0-19.055-8.5075-19.055-19.055s8.5075-19.055 19.055-19.055zm-45.551 9.6348c-8.944 0-16.238 7.2923-16.238 16.236 0 8.944 7.2942 16.238 16.238 16.238s16.236-7.2942 16.236-16.238c0-8.944-7.2923-16.236-16.236-16.236zm0 4c6.7823 0 12.236 5.4541 12.236 12.236s-5.4541 12.238-12.236 12.238-12.238-5.456-12.238-12.238 5.456-12.236 12.238-12.236z" color="#000000" color-rendering="auto" dominant-baseline="auto" image-rendering="auto" opacity="1" solid-color="#000000" stroke-width="1.4" style="font-feature-settings:normal;font-variant-alternates:normal;font-variant-caps:normal;font-variant-ligatures:normal;font-variant-numeric:normal;font-variant-position:normal;isolation:auto;mix-blend-mode:normal;shape-padding:0;text-decoration-color:#000000;text-decoration-line:none;text-decoration-style:solid;text-indent:0;text-orientation:mixed;text-transform:none;white-space:normal"/>
<path d="m201.54 41.908c-12.709 0-23.055 10.346-23.055 23.055s10.346 23.055 23.055 23.055c12.709 0 23.055-10.346 23.055-23.055s-10.346-23.055-23.055-23.055zm0 4c10.547 0 19.055 8.5075 19.055 19.055s-8.5075 19.055-19.055 19.055c-10.547 0-19.055-8.5075-19.055-19.055s8.5075-19.055 19.055-19.055zm-45.551 9.6348c-8.944 0-16.238 7.2923-16.238 16.236 0 8.944 7.2942 16.238 16.238 16.238s16.236-7.2942 16.236-16.238c0-8.944-7.2923-16.236-16.236-16.236zm0 4c6.7823 0 12.236 5.4541 12.236 12.236s-5.4541 12.238-12.236 12.238-12.238-5.456-12.238-12.238 5.456-12.236 12.238-12.236z" color="#000000" color-rendering="auto" dominant-baseline="auto" image-rendering="auto" opacity="1" solid-color="#000000" stroke-width="1.6" style="font-feature-settings:normal;font-variant-alternates:normal;font-variant-caps:normal;font-variant-ligatures:normal;font-variant-numeric:normal;font-variant-position:normal;isolation:auto;mix-blend-mode:normal;shape-padding:0;text-decoration-color:#000000;text-decoration-line:none;text-decoration-style:solid;text-indent:0;text-orientation:mixed;text-transform:none;white-space:normal"/>
<path d="m201.54 41.908c-12.709 0-23.055 10.346-23.055 23.055s10.346 23.055 23.055 23.055c12.709 0 23.055-10.346 23.055-23.055s-10.346-23.055-23.055-23.055zm0 4c10.547 0 19.055 8.5075 19.055 19.055s-8.5075 19.055-19.055 19.055c-10.547 0-19.055-8.5075-19.055-19.055s8.5075-19.055 19.055-19.055zm-45.551 9.6348c-8.944 0-16.238 7.2923-16.238 16.236 0 8.944 7.2942 16.238 16.238 16.238s16.236-7.2942 16.236-16.238c0-8.944-7.2923-16.236-16.236-16.236zm0 4c6.7823 0 12.236 5.4541 12.236 12.236s-5.4541 12.238-12.236 12.238-12.238-5.456-12.238-12.238 5.456-12.236 12.238-12.236z" color="#000000" color-rendering="auto" dominant-baseline="auto" image-rendering="auto" opacity="1" solid-color="#000000" stroke-width="1.8" style="font-feature-settings:normal;font-variant-alternates:normal;font-variant-caps:normal;font-variant-ligatures:normal;font-variant-numeric:normal;font-variant-position:normal;isolation:auto;mix-blend-mode:normal;shape-padding:0;text-decoration-color:#000000;text-decoration-line:none;text-decoration-style:solid;text-indent:0;text-orientation:mixed;text-transform:none;white-space:normal"/>
<path d="m201.54 41.908c-12.709 0-23.055 10.346-23.055 23.055s10.346 23.055 23.055 23.055c12.709 0 23.055-10.346 23.055-23.055s-10.346-23.055-23.055-23.055zm0 4c10.547 0 19.055 8.5075 19.055 19.055s-8.5075 19.055-19.055 19.055c-10.547 0-19.055-8.5075-19.055-19.055s8.5075-19.055 19.055-19.055zm-45.551 9.6348c-8.944 0-16.238 7.2923-16.238 16.236 0 8.944 7.2942 16.238 16.238 16.238s16.236-7.2942 16.236-16.238c0-8.944-7.2923-16.236-16.236-16.236zm0 4c6.7823 0 12.236 5.4541 12.236 12.236s-5.4541 12.238-12.236 12.238-12.238-5.456-12.238-12.238 5.456-12.236 12.238-12.236z" color="#000000" color-rendering="auto" dominant-baseline="auto" image-rendering="auto" opacity="1" solid-color="#000000" stroke-width="2" style="font-feature-settings:normal;font-variant-alternates:normal;font-variant-caps:normal;font-variant-ligatures:normal;font-variant-numeric:normal;font-variant-position:normal;isolation:auto;mix-blend-mode:normal;shape-padding:0;text-decoration-color:#000000;text-decoration-line:none;text-decoration-style:solid;text-indent:0;text-orientation:mixed;text-transform:none;white-space:normal"/>
<path d="m201.54 41.908c-12.709 0-23.055 10.346-23.055 23.055s10.346 23.055 23.055 23.055c12.709 0 23.055-10.346 23.055-23.055s-10.346-23.055-23.055-23.055zm0 4c10.547 0 19.055 8.5075 19.055 19.055s-8.5075 19.055-19.055 19.055c-10.547 0-19.055-8.5075-19.055-19.055s8.5075-19.055 19.055-19.055zm-45.551 9.6348c-8.944 0-16.238 7.2923-16.238 16.236 0 8.944 7.2942 16.238 16.238 16.238s16.236-7.2942 16.236-16.238c0-8.944-7.2923-16.236-16.236-16.236zm0 4c6.7823 0 12.236 5.4541 12.236 12.236s-5.4541 12.238-12.236 12.238-12.238-5.456-12.238-12.238 5.456-12.236 12.238-12.236z" color="#000000" color-rendering="auto" dominant-baseline="auto" image-rendering="auto" opacity="1" solid-color="#000000" stroke-width="2.2" style="font-feature-settings:normal;font-variant-alternates:normal;font-variant-caps:normal;font-variant-ligatures:normal;font-variant-numeric:normal;font-variant-position:normal;isolation:auto;mix-blend-mode:normal;shape-padding:0;text-decoration-color:#000000;text-decoration-line:none;text-decoration-style:solid;text-indent:0;text-orientation:mixed;text-transform:none;white-space:normal"/>
<path d="m201.54 41.908c-12.709 0-23.055 10.346-23.055 23.055s10.346 23.055 23.055 23.055c12.709 0 23.055-10.346 23.055-23.055s-10.346-23.055-23.055-23.055zm0 4c10.547 0 19.055 8.5075 19.055 19.055s-8.5075 19.055-19.055 19.055c-10.547 0-19.055-8.5075-19.055-19.055s8.5075-19.055 19.055-19.055zm-45.551 9.6348c-8.944 0-16.238 7.2923-16.238 16.236 0 8.944 7.2942 16.238 16.238 16.238s16.236-7.2942 16.236-16.238c0-8.944-7.2923-16.236-16.236-16.236zm0 4c6.7823 0 12.236 5.4541 12.236 12.236s-5.4541 12.238-12.236 12.238-12.238-5.456-12.238-12.238 5.456-12.236 12.238-12.236z" color="#000000" color-rendering="auto" dominant-baseline="auto" image-rendering="auto" opacity="1" solid-color="#000000" stroke-width="2.4" style="font-feature-settings:normal;font-variant-alternates:normal;font-variant-caps:normal;font-variant-ligatures:normal;font-variant-numeric:normal;font-variant-position:normal;isolation:auto;mix-blend-mode:normal;shape-padding:0;text-decoration-color:#000000;text-decoration-line:none;text-decoration-style:solid;text-indent:0;text-orientation:mixed;text-transform:none;white-space:normal"/>
<path d="m201.54 41.908c-12.709 0-23.055 10.346-23.055 23.055s10.346 23.055 23.055 23.055c12.709 0 23.055-10.346 23.055-23.055s-10.346-23.055-23.055-23.055zm0 4c10.547 0 19.055 8.5075 19.055 19.055s-8.5075 19.055-19.055 19.055c-10.547 0-19.055-8.5075-19.055-19.055s8.5075-19.055 19.055-19.055zm-45.551 9.6348c-8.944 0-16.238 7.2923-16.238 16.236 0 8.944 7.2942 16.238 16.238 16.238s16.236-7.2942 16.236-16.238c0-8.944-7.2923-16.236-16.236-16.236zm0 4c6.7823 0 12.236 5.4541 12.236 12.236s-5.4541 12.238-12.236 12.238-12.238-5.456-12.238-12.238 5.456-12.236 12.238-12.236z" color="#000000" color-rendering="auto" dominant-baseline="auto" image-rendering="auto" opacity="1" solid-color="#000000" stroke-width="2.6" style="font-feature-settings:normal;font-variant-alternates:normal;font-variant-caps:normal;font-variant-ligatures:normal;font-variant-numeric:normal;font-variant-position:normal;isolation:auto;mix-blend-mode:normal;shape-padding:0;text-decoration-color:#000000;text-decoration-line:none;text-decoration-style:solid;text-indent:0;text-orientation:mixed;text-transform:none;white-space:normal"/>
<path d="m201.54 41.908c-12.709 0-23.055 10.346-23.055 23.055s10.346 23.055 23.055 23.055c12.709 0 23.055-10.346 23.055-23.055s-10.346-23.055-23.055-23.055zm0 4c10.547 0 19.055 8.5075 19.055 19.055s-8.5075 19.055-19.055 19.055c-10.547 0-19.055-8.5075-19.055-19.055s8.5075-19.055 19.055-19.055zm-45.551 9.6348c-8.944 0-16.238 7.2923-16.238 16.236 0 8.944 7.2942 16.238 16.238 16.238s16.236-7.2942 16.236-16.238c0-8.944-7.2923-16.236-16.236-16.236zm0 4c6.7823 0 12.236 5.4541 12.236 12.236s-5.4541 12.238-12.236 12.238-12.238-5.456-12.238-12.238 5.456-12.236 12.238-12.236z" color="#000000" color-rendering="auto" dominant-baseline="auto" image-rendering="auto" opacity="1" solid-color="#000000" stroke-width="3" style="font-feature-settings:normal;font-variant-alternates:normal;font-variant-caps:normal;font-variant-ligatures:normal;font-variant-numeric:normal;font-variant-position:normal;isolation:auto;mix-blend-mode:normal;shape-padding:0;text-decoration-color:#000000;text-decoration-line:none;text-decoration-style:solid;text-indent:0;text-orientation:mixed;text-transform:none;white-space:normal"/>
<path d="m201.54 41.908c-12.709 0-23.055 10.346-23.055 23.055s10.346 23.055 23.055 23.055c12.709 0 23.055-10.346 23.055-23.055s-10.346-23.055-23.055-23.055zm0 4c10.547 0 19.055 8.5075 19.055 19.055s-8.5075 19.055-19.055 19.055c-10.547 0-19.055-8.5075-19.055-19.055s8.5075-19.055 19.055-19.055zm-45.551 9.6348c-8.944 0-16.238 7.2923-16.238 16.236 0 8.944 7.2942 16.238 16.238 16.238s16.236-7.2942 16.236-16.238c0-8.944-7.2923-16.236-16.236-16.236zm0 4c6.7823 0 12.236 5.4541 12.236 12.236s-5.4541 12.238-12.236 12.238-12.238-5.456-12.238-12.238 5.456-12.236 12.238-12.236z" color="#000000" color-rendering="auto" dominant-baseline="auto" image-rendering="auto" opacity="1" solid-color="#000000" stroke-width="3.4" style="font-feature-settings:normal;font-variant-alternates:normal;font-variant-caps:normal;font-variant-ligatures:normal;font-variant-numeric:normal;font-variant-position:normal;isolation:auto;mix-blend-mode:normal;shape-padding:0;text-decoration-color:#000000;text-decoration-line:none;text-decoration-style:solid;text-indent:0;text-orientation:mixed;text-transform:none;white-space:normal"/>
<path d="m201.54 41.908c-12.709 0-23.055 10.346-23.055 23.055s10.346 23.055 23.055 23.055c12.709 0 23.055-10.346 23.055-23.055s-10.346-23.055-23.055-23.055zm0 4c10.547 0 19.055 8.5075 19.055 19.055s-8.5075 19.055-19.055 19.055c-10.547 0-19.055-8.5075-19.055-19.055s8.5075-19.055 19.055-19.055zm-45.551 9.6348c-8.944 0-16.238 7.2923-16.238 16.236 0 8.944 7.2942 16.238 16.238 16.238s16.236-7.2942 16.236-16.238c0-8.944-7.2923-16.236-16.236-16.236zm0 4c6.7823 0 12.236 5.4541 12.236 12.236s-5.4541 12.238-12.236 12.238-12.238-5.456-12.238-12.238 5.456-12.236 12.238-12.236z" color="#000000" color-rendering="auto" dominant-baseline="auto" image-rendering="auto" opacity="1" solid-color="#000000" stroke-width="3.6" style="font-feature-settings:normal;font-variant-alternates:normal;font-variant-caps:normal;font-variant-ligatures:normal;font-variant-numeric:normal;font-variant-position:normal;isolation:auto;mix-blend-mode:normal;shape-padding:0;text-decoration-color:#000000;text-decoration-line:none;text-decoration-style:solid;text-indent:0;text-orientation:mixed;text-transform:none;white-space:normal"/>
<path d="m201.54 41.908c-12.709 0-23.055 10.346-23.055 23.055s10.346 23.055 23.055 23.055c12.709 0 23.055-10.346 23.055-23.055s-10.346-23.055-23.055-23.055zm0 4c10.547 0 19.055 8.5075 19.055 19.055s-8.5075 19.055-19.055 19.055c-10.547 0-19.055-8.5075-19.055-19.055s8.5075-19.055 19.055-19.055zm-45.551 9.6348c-8.944 0-16.238 7.2923-16.238 16.236 0 8.944 7.2942 16.238 16.238 16.238s16.236-7.2942 16.236-16.238c0-8.944-7.2923-16.236-16.236-16.236zm0 4c6.7823 0 12.236 5.4541 12.236 12.236s-5.4541 12.238-12.236 12.238-12.238-5.456-12.238-12.238 5.456-12.236 12.238-12.236z" color="#000000" color-rendering="auto" dominant-baseline="auto" image-rendering="auto" opacity="1" solid-color="#000000" stroke-width="4" style="font-feature-settings:normal;font-variant-alternates:normal;font-variant-caps:normal;font-variant-ligatures:normal;font-variant-numeric:normal;font-variant-position:normal;isolation:auto;mix-blend-mode:normal;shape-padding:0;text-decoration-color:#000000;text-decoration-line:none;text-decoration-style:solid;text-indent:0;text-orientation:mixed;text-transform:none;white-space:normal"/>
<path d="m201.54 41.908c-12.709 0-23.055 10.346-23.055 23.055s10.346 23.055 23.055 23.055c12.709 0 23.055-10.346 23.055-23.055s-10.346-23.055-23.055-23.055zm0 4c10.547 0 19.055 8.5075 19.055 19.055s-8.5075 19.055-19.055 19.055c-10.547 0-19.055-8.5075-19.055-19.055s8.5075-19.055 19.055-19.055zm-45.551 9.6348c-8.944 0-16.238 7.2923-16.238 16.236 0 8.944 7.2942 16.238 16.238 16.238s16.236-7.2942 16.236-16.238c0-8.944-7.2923-16.236-16.236-16.236zm0 4c6.7823 0 12.236 5.4541 12.236 12.236s-5.4541 12.238-12.236 12.238-12.238-5.456-12.238-12.238 5.456-12.236 12.238-12.236z" color="#000000" color-rendering="auto" dominant-baseline="auto" image-rendering="auto" opacity="1" solid-color="#000000" stroke-width="4.4" style="font-feature-settings:normal;font-variant-alternates:normal;font-variant-caps:normal;font-variant-ligatures:normal;font-variant-numeric:normal;font-variant-position:normal;isolation:auto;mix-blend-mode:normal;shape-padding:0;text-decoration-color:#000000;text-decoration-line:none;text-decoration-style:solid;text-indent:0;text-orientation:mixed;text-transform:none;white-space:normal"/>
<path d="m201.54 41.908c-12.709 0-23.055 10.346-23.055 23.055s10.346 23.055 23.055 23.055c12.709 0 23.055-10.346 23.055-23.055s-10.346-23.055-23.055-23.055zm0 4c10.547 0 19.055 8.5075 19.055 19.055s-8.5075 19.055-19.055 19.055c-10.547 0-19.055-8.5075-19.055-19.055s8.5075-19.055 19.055-19.055zm-45.551 9.6348c-8.944 0-16.238 7.2923-16.238 16.236 0 8.944 7.2942 16.238 16.238 16.238s16.236-7.2942 16.236-16.238c0-8.944-7.2923-16.236-16.236-16.236zm0 4c6.7823 0 12.236 5.4541 12.236 12.236s-5.4541 12.238-12.236 12.238-12.238-5.456-12.238-12.238 5.456-12.236 12.238-12.236z" color="#000000" color-rendering="auto" dominant-baseline="auto" image-rendering="auto" opacity="1" solid-color="#000000" stroke-width="4.8" style="font-feature-settings:normal;font-variant-alternates:normal;font-variant-caps:normal;font-variant-ligatures:normal;font-variant-numeric:normal;font-variant-position:normal;isolation:auto;mix-blend-mode:normal;shape-padding:0;text-decoration-color:#000000;text-decoration-line:none;text-decoration-style:solid;text-indent:0;text-orientation:mixed;text-transform:none;white-space:normal"/>
<path d="m201.54 41.908c-12.709 0-23.055 10.346-23.055 23.055s10.346 23.055 23.055 23.055c12.709 0 23.055-10.346 23.055-23.055s-10.346-23.055-23.055-23.055zm0 4c10.547 0 19.055 8.5075 19.055 19.055s-8.5075 19.055-19.055 19.055c-10.547 0-19.055-8.5075-19.055-19.055s8.5075-19.055 19.055-19.055zm-45.551 9.6348c-8.944 0-16.238 7.2923-16.238 16.236 0 8.944 7.2942 16.238 16.238 16.238s16.236-7.2942 16.236-16.238c0-8.944-7.2923-16.236-16.236-16.236zm0 4c6.7823 0 12.236 5.4541 12.236 12.236s-5.4541 12.238-12.236 12.238-12.238-5.456-12.238-12.238 5.456-12.236 12.238-12.236z" color="#000000" color-rendering="auto" dominant-baseline="auto" image-rendering="auto" opacity="1" solid-color="#000000" stroke-width="5.2" style="font-feature-settings:normal;font-variant-alternates:normal;font-variant-caps:normal;font-variant-ligatures:normal;font-variant-numeric:normal;font-variant-position:normal;isolation:auto;mix-blend-mode:normal;shape-padding:0;text-decoration-color:#000000;text-decoration-line:none;text-decoration-style:solid;text-indent:0;text-orientation:mixed;text-transform:none;white-space:normal"/>
<path d="m201.54 41.908c-12.709 0-23.055 10.346-23.055 23.055s10.346 23.055 23.055 23.055c12.709 0 23.055-10.346 23.055-23.055s-10.346-23.055-23.055-23.055zm0 4c10.547 0 19.055 8.5075 19.055 19.055s-8.5075 19.055-19.055 19.055c-10.547 0-19.055-8.5075-19.055-19.055s8.5075-19.055 19.055-19.055zm-45.551 9.6348c-8.944 0-16.238 7.2923-16.238 16.236 0 8.944 7.2942 16.238 16.238 16.238s16.236-7.2942 16.236-16.238c0-8.944-7.2923-16.236-16.236-16.236zm0 4c6.7823 0 12.236 5.4541 12.236 12.236s-5.4541 12.238-12.236 12.238-12.238-5.456-12.238-12.238 5.456-12.236 12.238-12.236z" color="#000000" color-rendering="auto" dominant-baseline="auto" image-rendering="auto" opacity="1" solid-color="#000000" stroke-width="5.6" style="font-feature-settings:normal;font-variant-alternates:normal;font-variant-caps:normal;font-variant-ligatures:normal;font-variant-numeric:normal;font-variant-position:normal;isolation:auto;mix-blend-mode:normal;shape-padding:0;text-decoration-color:#000000;text-decoration-line:none;text-decoration-style:solid;text-indent:0;text-orientation:mixed;text-transform:none;white-space:normal"/>
<path d="m201.54 41.908c-12.709 0-23.055 10.346-23.055 23.055s10.346 23.055 23.055 23.055c12.709 0 23.055-10.346 23.055-23.055s-10.346-23.055-23.055-23.055zm0 4c10.547 0 19.055 8.5075 19.055 19.055s-8.5075 19.055-19.055 19.055c-10.547 0-19.055-8.5075-19.055-19.055s8.5075-19.055 19.055-19.055zm-45.551 9.6348c-8.944 0-16.238 7.2923-16.238 16.236 0 8.944 7.2942 16.238 16.238 16.238s16.236-7.2942 16.236-16.238c0-8.944-7.2923-16.236-16.236-16.236zm0 4c6.7823 0 12.236 5.4541 12.236 12.236s-5.4541 12.238-12.236 12.238-12.238-5.456-12.238-12.238 5.456-12.236 12.238-12.236z" color="#000000" color-rendering="auto" dominant-baseline="auto" image-rendering="auto" opacity="1" solid-color="#000000" stroke-width="6" style="font-feature-settings:normal;font-variant-alternates:normal;font-variant-caps:normal;font-variant-ligatures:normal;font-variant-numeric:normal;font-variant-position:normal;isolation:auto;mix-blend-mode:normal;shape-padding:0;text-decoration-color:#000000;text-decoration-line:none;text-decoration-style:solid;text-indent:0;text-orientation:mixed;text-transform:none;white-space:normal"/>
</g>
<path d="m82.814 41.59c-12.709 0-23.055 10.346-23.055 23.055s10.346 23.055 23.055 23.055 23.055-10.346 23.055-23.055-10.346-23.055-23.055-23.055zm0 4c10.547 0 19.055 8.5075 19.055 19.055s-8.5075 19.055-19.055 19.055-19.055-8.5075-19.055-19.055 8.5075-19.055 19.055-19.055zm-45.551 9.6348c-8.944 0-16.238 7.2923-16.238 16.236 0 8.944 7.2942 16.238 16.238 16.238s16.236-7.2942 16.236-16.238c0-8.944-7.2923-16.236-16.236-16.236zm0 4c6.7823 0 12.236 5.4541 12.236 12.236s-5.4541 12.238-12.236 12.238-12.238-5.456-12.238-12.238 5.456-12.236 12.238-12.236z" color="#000000" color-rendering="auto" dominant-baseline="auto" fill="#ff2a6d" image-rendering="auto" shape-rendering="auto" solid-color="#000000" style="font-feature-settings:normal;font-variant-alternates:normal;font-variant-caps:normal;font-variant-ligatures:normal;font-variant-numeric:normal;font-variant-position:normal;isolation:auto;mix-blend-mode:normal;shape-padding:0;text-decoration-color:#000000;text-decoration-line:none;text-decoration-style:solid;text-indent:0;text-orientation:mixed;text-transform:none;white-space:normal"/>
</svg>
