<svg width="136.53" height="136.53" version="1.1" viewBox="0 0 136.53 136.53" xmlns="http://www.w3.org/2000/svg" xmlns:xlink="http://www.w3.org/1999/xlink">
<defs>
<linearGradient id="linearGradient881" x1="74.704" x2="77.588" y1="130.15" y2="11.32" gradientUnits="userSpaceOnUse">
<stop stop-color="#ff3747" offset="0"/>
<stop stop-color="#ff9668" offset="1"/>
</linearGradient>
<filter id="filter901" x="-.0384" y="-.0384" width="1.0768" height="1.0768" color-interpolation-filters="sRGB">
<feGaussianBlur stdDeviation="1.9287549"/>
</filter>
<filter id="filter870" x="-.25759" y="-.24209" width="1.5152" height="1.4842" color-interpolation-filters="sRGB">
<feGaussianBlur stdDeviation="8.9458425"/>
</filter>
</defs>
<circle cx="68.112" cy="69.239" r="64.022" fill="url(#linearGradient881)" stroke="#e83c2b" stroke-width="6"/>
<circle cx="68.112" cy="69.239" r="64.022" fill="none" stroke="#fff" stroke-width="6"/>
<path d="m33.777 32.346a4.0004 4.0004 0 0 0-2.4336 7.2793l26.945 19.346a10.762 10.762 0 0 0-0.46289 3.0938 10.762 10.762 0 0 0 4.002 8.3691l-2.1973 29.502a10.762 10.762 0 0 0-7.7832 10.332 10.762 10.762 0 0 0 10.762 10.762 10.762 10.762 0 0 0 10.762-10.762 10.762 10.762 0 0 0-5.7773-9.5332l2.082-27.965a10.762 10.762 0 0 0 5.1367-1.9355l17.047 12.238a10.762 10.762 0 0 0-0.40234 2.9082 10.762 10.762 0 0 0 10.762 10.762 10.762 10.762 0 0 0 10.762-10.762 10.762 10.762 0 0 0-10.762-10.764 10.762 10.762 0 0 0-5.4766 1.5117l-17.596-12.631a10.762 10.762 0 0 0 0.20312-2.0332 10.762 10.762 0 0 0-10.762-10.762 10.762 10.762 0 0 0-5.3027 1.4062l-27.275-19.582a4.0004 4.0004 0 0 0-2.2324-0.78125z" fill="#853e17" fill-opacity=".94819" filter="url(#filter870)" opacity=".553"/>
<path d="m33.777 32.346a4.0004 4.0004 0 0 0-2.4336 7.2793l26.945 19.346a10.762 10.762 0 0 0-0.46289 3.0938 10.762 10.762 0 0 0 4.002 8.3691l-2.1973 29.502a10.762 10.762 0 0 0-7.7832 10.332 10.762 10.762 0 0 0 10.762 10.762 10.762 10.762 0 0 0 10.762-10.762 10.762 10.762 0 0 0-5.7773-9.5332l2.082-27.965a10.762 10.762 0 0 0 5.1367-1.9355l17.047 12.238a10.762 10.762 0 0 0-0.40234 2.9082 10.762 10.762 0 0 0 10.762 10.762 10.762 10.762 0 0 0 10.762-10.762 10.762 10.762 0 0 0-10.762-10.764 10.762 10.762 0 0 0-5.4766 1.5117l-17.596-12.631a10.762 10.762 0 0 0 0.20312-2.0332 10.762 10.762 0 0 0-10.762-10.762 10.762 10.762 0 0 0-5.3027 1.4062l-27.275-19.582a4.0004 4.0004 0 0 0-2.2324-0.78125z" fill="#fff" fill-opacity=".94819"/>
<circle cx="68.299" cy="69.052" r="60.274" fill="none" filter="url(#filter901)" opacity=".075" stroke="#7b1c19" stroke-width="5.6487"/>
<circle cx="68.112" cy="69.239" r="64.022" fill="none" stroke="#fff" stroke-width="6"/>
</svg>
