<svg width="128" height="128" version="1.1" viewBox="0 0 33.867 33.867" xmlns="http://www.w3.org/2000/svg" xmlns:xlink="http://www.w3.org/1999/xlink">
<defs>
<linearGradient id="linearGradient1632" x1="132.21" x2="132.21" y1="42.152" y2="70.68" gradientTransform="matrix(.97573 0 0 .97573 -111.77 -37.203)" gradientUnits="userSpaceOnUse">
<stop stop-color="#f37373" offset="0"/>
<stop stop-color="#e84ba8" offset="1"/>
</linearGradient>
<linearGradient id="linearGradient1151" x1="8.1056" x2="8.1056" y1="8.6618" y2="42.132" gradientUnits="userSpaceOnUse">
<stop stop-color="#fff" offset="0"/>
<stop stop-color="#ea51a0" offset="1"/>
</linearGradient>
</defs>
<g transform="matrix(.97573 0 0 .97573 -65.748 -37.203)" fill="none" opacity=".29677" stroke="#000" stroke-linecap="round" stroke-linejoin="round" stroke-opacity=".02">
<rect x="69.84" y="40.71" width="29.811" height="29.811" rx="6.6099" ry="6.6099" stroke-width=".1"/>
<rect x="69.84" y="40.71" width="29.811" height="29.811" rx="6.6099" ry="6.6099" stroke-width=".2"/>
<rect x="69.84" y="40.71" width="29.811" height="29.811" rx="6.6099" ry="6.6099" stroke-width=".3"/>
<rect x="69.84" y="40.71" width="29.811" height="29.811" rx="6.6099" ry="6.6099" stroke-width=".4"/>
<rect x="69.84" y="40.71" width="29.811" height="29.811" rx="6.6099" ry="6.6099" stroke-width=".5"/>
<rect x="69.84" y="40.71" width="29.811" height="29.811" rx="6.6099" ry="6.6099" stroke-width=".6"/>
<rect x="69.84" y="40.71" width="29.811" height="29.811" rx="6.6099" ry="6.6099" stroke-width=".7"/>
<rect x="69.84" y="40.71" width="29.811" height="29.811" rx="6.6099" ry="6.6099" stroke-width=".8"/>
<rect x="69.84" y="40.71" width="29.811" height="29.811" rx="6.6099" ry="6.6099"/>
<rect x="69.84" y="40.71" width="29.811" height="29.811" rx="6.6099" ry="6.6099" stroke-width="1.2"/>
<rect x="69.84" y="40.71" width="29.811" height="29.811" rx="6.6099" ry="6.6099" stroke-width="1.4"/>
<rect x="69.84" y="40.71" width="29.811" height="29.811" rx="6.6099" ry="6.6099" stroke-width="1.6"/>
<rect x="69.84" y="40.71" width="29.811" height="29.811" rx="6.6099" ry="6.6099" stroke-width="1.8"/>
<rect x="69.84" y="40.71" width="29.811" height="29.811" rx="6.6099" ry="6.6099" stroke-width="2"/>
<rect x="69.84" y="40.71" width="29.811" height="29.811" rx="6.6099" ry="6.6099" stroke-width="2.2"/>
<rect x="69.84" y="40.71" width="29.811" height="29.811" rx="6.6099" ry="6.6099" stroke-width="2.6"/>
<rect x="69.84" y="40.71" width="29.811" height="29.811" rx="6.6099" ry="6.6099" stroke-width="3"/>
<rect x="69.84" y="40.71" width="29.811" height="29.811" rx="6.6099" ry="6.6099" stroke-width="3.4"/>
<rect x="69.84" y="40.71" width="29.811" height="29.811" rx="6.6099" ry="6.6099" stroke-width="3.8"/>
<rect x="69.84" y="40.71" width="29.811" height="29.811" rx="6.6099" ry="6.6099" stroke-width="4.2"/>
<rect x="69.84" y="40.71" width="29.811" height="29.811" rx="6.6099" ry="6.6099" stroke-width="4.6"/>
<rect x="69.84" y="40.71" width="29.811" height="29.811" rx="6.6099" ry="6.6099" stroke-width="5"/>
</g>
<rect x="2.4065" y="2.5186" width="29.087" height="29.087" rx="6.4495" ry="6.4495" fill="url(#linearGradient1632)" stroke-linecap="round" stroke-linejoin="round" stroke-width="2.6877"/>
<g fill="#000f37" fill-opacity=".045956" stroke-width=".98273">
<path d="m9.923 6.9079c-0.81665 0-1.4743 0.65768-1.4743 1.4743v10.81c0 0.81665 0.65768 1.4743 1.4743 1.4743 0.81665 0 1.4738-0.65768 1.4738-1.4743v-10.81c0-0.81665-0.65716-1.4743-1.4738-1.4743zm4.9134 3.931c-0.81665 0-1.4738 0.65768-1.4738 1.4743v13.758c0 0.81665 0.65716 1.4743 1.4738 1.4743s1.4743-0.65768 1.4743-1.4743v-13.758c0-0.81665-0.65768-1.4743-1.4743-1.4743zm4.9139 0c-0.81665 0-1.4743 0.65768-1.4743 1.4743v13.758c0 0.81665 0.65768 1.4743 1.4743 1.4743s1.4738-0.65768 1.4738-1.4743v-13.758c0-0.81665-0.65716-1.4743-1.4738-1.4743zm4.9134 0c-0.81665 0-1.4738 0.65768-1.4738 1.4743v6.8786c0 0.81665 0.65716 1.4743 1.4738 1.4743s1.4743-0.65768 1.4743-1.4743v-6.8786c0-0.81665-0.65768-1.4743-1.4743-1.4743z"/>
<path d="m10.286 7.3055c-0.81665 0-1.4743 0.65768-1.4743 1.4743v10.81c0 0.81665 0.65768 1.4743 1.4743 1.4743 0.81665 0 1.4738-0.65768 1.4738-1.4743v-10.81c0-0.81665-0.65716-1.4743-1.4738-1.4743zm4.9134 3.931c-0.81665 0-1.4738 0.65768-1.4738 1.4743v13.758c0 0.81665 0.65716 1.4743 1.4738 1.4743s1.4743-0.65768 1.4743-1.4743v-13.758c0-0.81665-0.65768-1.4743-1.4743-1.4743zm4.9139 0c-0.81665 0-1.4743 0.65768-1.4743 1.4743v13.758c0 0.81665 0.65768 1.4743 1.4743 1.4743s1.4738-0.65768 1.4738-1.4743v-13.758c0-0.81665-0.65716-1.4743-1.4738-1.4743zm4.9134 0c-0.81665 0-1.4738 0.65768-1.4738 1.4743v6.8786c0 0.81665 0.65716 1.4743 1.4738 1.4743s1.4743-0.65768 1.4743-1.4743v-6.8786c0-0.81665-0.65768-1.4743-1.4743-1.4743z"/>
<path d="m10.777 7.7498c-0.81665 0-1.4743 0.65768-1.4743 1.4743v10.81c0 0.81665 0.65768 1.4743 1.4743 1.4743 0.81665 0 1.4738-0.65768 1.4738-1.4743v-10.81c0-0.81665-0.65716-1.4743-1.4738-1.4743zm4.9134 3.931c-0.81665 0-1.4738 0.65768-1.4738 1.4743v13.758c0 0.81665 0.65716 1.4743 1.4738 1.4743s1.4743-0.65768 1.4743-1.4743v-13.758c0-0.81665-0.65768-1.4743-1.4743-1.4743zm4.9139 0c-0.81665 0-1.4743 0.65768-1.4743 1.4743v13.758c0 0.81665 0.65768 1.4743 1.4743 1.4743s1.4738-0.65768 1.4738-1.4743v-13.758c0-0.81665-0.65716-1.4743-1.4738-1.4743zm4.9134 0c-0.81665 0-1.4738 0.65768-1.4738 1.4743v6.8786c0 0.81665 0.65716 1.4743 1.4738 1.4743s1.4743-0.65768 1.4743-1.4743v-6.8786c0-0.81665-0.65768-1.4743-1.4743-1.4743z"/>
<path d="m11.385 8.7554c-0.81665 0-1.4743 0.65768-1.4743 1.4743v10.81c0 0.81665 0.65768 1.4743 1.4743 1.4743 0.81665 0 1.4738-0.65768 1.4738-1.4743v-10.81c0-0.81665-0.65716-1.4743-1.4738-1.4743zm4.9134 3.931c-0.81665 0-1.4738 0.65768-1.4738 1.4743v13.758c0 0.81665 0.65716 1.4743 1.4738 1.4743s1.4743-0.65768 1.4743-1.4743v-13.758c0-0.81665-0.65768-1.4743-1.4743-1.4743zm4.9139 0c-0.81665 0-1.4743 0.65768-1.4743 1.4743v13.758c0 0.81665 0.65768 1.4743 1.4743 1.4743s1.4738-0.65768 1.4738-1.4743v-13.758c0-0.81665-0.65716-1.4743-1.4738-1.4743zm4.9134 0c-0.81665 0-1.4738 0.65768-1.4738 1.4743v6.8786c0 0.81665 0.65716 1.4743 1.4738 1.4743s1.4743-0.65768 1.4743-1.4743v-6.8786c0-0.81665-0.65768-1.4743-1.4743-1.4743z"/>
</g>
<path d="m9.5799 6.7436c-0.81665 0-1.4743 0.65768-1.4743 1.4743v10.81c0 0.81665 0.65768 1.4743 1.4743 1.4743 0.81665 0 1.4738-0.65768 1.4738-1.4743v-10.81c0-0.81665-0.65716-1.4743-1.4738-1.4743zm4.9134 3.931c-0.81665 0-1.4738 0.65768-1.4738 1.4743v13.758c0 0.81665 0.65716 1.4743 1.4738 1.4743s1.4743-0.65768 1.4743-1.4743v-13.758c0-0.81665-0.65768-1.4743-1.4743-1.4743zm4.9139 0c-0.81665 0-1.4743 0.65768-1.4743 1.4743v13.758c0 0.81665 0.65768 1.4743 1.4743 1.4743s1.4738-0.65768 1.4738-1.4743v-13.758c0-0.81665-0.65716-1.4743-1.4738-1.4743zm4.9134 0c-0.81665 0-1.4738 0.65768-1.4738 1.4743v6.8786c0 0.81665 0.65716 1.4743 1.4738 1.4743s1.4743-0.65768 1.4743-1.4743v-6.8786c0-0.81665-0.65768-1.4743-1.4743-1.4743z" fill="url(#linearGradient1151)" stroke-width=".98273"/>
</svg>
