<svg width="136.53" height="136.53" viewBox="0 0 136.53 136.53" xmlns="http://www.w3.org/2000/svg">
<linearGradient id="a" x1="62.044" x2="66.817" y1="5.8312" y2="47.149" gradientUnits="userSpaceOnUse">
<stop stop-color="#e8b22b" offset="0"/>
<stop stop-color="#54f2ab" stop-opacity=".79216" offset="1"/>
</linearGradient>
<linearGradient id="b" x1="88.226" x2="38.181" y1="119.56" y2="35.285" gradientUnits="userSpaceOnUse">
<stop stop-color="#17c7e7" offset="0"/>
<stop stop-color="#f2f154" stop-opacity="0" offset="1"/>
</linearGradient>
<linearGradient id="c" x1="61.626" x2="95.322" y1="48.64" y2="103.02" gradientUnits="userSpaceOnUse">
<stop stop-color="#f66456" offset="0"/>
<stop stop-color="#d9493e" stop-opacity="0" offset="1"/>
</linearGradient>
<linearGradient id="d" x1="32.315" x2="61.767" y1="92.484" y2="57.318" gradientUnits="userSpaceOnUse">
<stop stop-color="#96f795" offset="0"/>
<stop stop-color="#c1b508" stop-opacity="0" offset="1"/>
</linearGradient>
<linearGradient id="e" x1="96.532" x2="61.767" y1="97.691" y2="59.054" gradientUnits="userSpaceOnUse">
<stop stop-color="#17cae7" offset="0"/>
<stop stop-color="#75f590" stop-opacity="0" offset="1"/>
</linearGradient>
<linearGradient id="f" x1="139.34" x2="61.767" y1="-7.0235" y2="59.054" gradientUnits="userSpaceOnUse">
<stop stop-color="#49dbed" offset="0"/>
<stop stop-color="#fbc94b" stop-opacity="0" offset="1"/>
</linearGradient>
<filter id="g" x="-.069933" y="-.054406" width="1.1399" height="1.1088" color-interpolation-filters="sRGB">
<feGaussianBlur stdDeviation="1.9764485"/>
</filter>
<circle cx="68.112" cy="69.239" r="64.022" fill="#fff" fill-opacity=".99543" stroke="url(#a)" stroke-opacity=".94819" stroke-width="6"/>
<g filter="url(#g)">
<path d="m94.762 22.988c-0.18436-0.01537-0.37443-0.0043-0.56836 0.03711l-42.135 9c-1.5514 0.33137-3.0684 1.8901-3.0684 3.4766v7.3633l-0.17578 43.832c-3.6613 2.8187-11.949 1.7492-16.5 5.7871-4.261 4.8885-4.3315 12.827 1.1797 16.061 7.1568 4.0445 20.656 0.7443 19.996-12.293l0.4961-44.543 37.85-6.3984 0.0645 31.945c-3.7744 2.5968-11.795 1.6648-16.248 5.6152-4.261 4.8885-4.3315 12.826 1.1797 16.059 7.1568 4.0445 20.656 0.7443 19.996-12.293l0.0859-43.764c0.0849-0.25645 0.14258-0.52803 0.14258-0.82617v-16.158c0-1.3881-1.0044-2.7928-2.2949-2.9004z" fill="#17c7e7"/>
<path d="m94.762 22.988c-0.18436-0.01537-0.37443-0.0043-0.56836 0.03711l-42.135 9c-1.5514 0.33137-3.0684 1.8901-3.0684 3.4766v7.3633l-0.17578 43.832c-3.6613 2.8187-11.949 1.7492-16.5 5.7871-4.261 4.8885-4.3315 12.827 1.1797 16.061 7.1568 4.0445 20.656 0.7443 19.996-12.293l0.4961-44.543 37.85-6.3984 0.0645 31.945c-3.7744 2.5968-11.795 1.6648-16.248 5.6152-4.261 4.8885-4.3315 12.826 1.1797 16.059 7.1568 4.0445 20.656 0.7443 19.996-12.293l0.0859-43.764c0.0849-0.25645 0.14258-0.52803 0.14258-0.82617v-16.158c0-1.3881-1.0044-2.7928-2.2949-2.9004z" fill="url(#c)"/>
<path d="m94.762 22.988c-0.18436-0.01537-0.37443-0.0043-0.56836 0.03711l-42.135 9c-1.5514 0.33137-3.0684 1.8901-3.0684 3.4766v7.3633l-0.17578 43.832c-3.6613 2.8187-11.949 1.7492-16.5 5.7871-4.261 4.8885-4.3315 12.827 1.1797 16.061 7.1568 4.0445 20.656 0.7443 19.996-12.293l0.4961-44.543 37.85-6.3984 0.0645 31.945c-3.7744 2.5968-11.795 1.6648-16.248 5.6152-4.261 4.8885-4.3315 12.826 1.1797 16.059 7.1568 4.0445 20.656 0.7443 19.996-12.293l0.0859-43.764c0.0849-0.25645 0.14258-0.52803 0.14258-0.82617v-16.158c0-1.3881-1.0044-2.7928-2.2949-2.9004z" fill="url(#c)"/>
<path d="m94.762 22.988c-0.18436-0.01537-0.37443-0.0043-0.56836 0.03711l-42.135 9c-1.5514 0.33137-3.0684 1.8901-3.0684 3.4766v7.3633l-0.17578 43.832c-3.6613 2.8187-11.949 1.7492-16.5 5.7871-4.261 4.8885-4.3315 12.827 1.1797 16.061 7.1568 4.0445 20.656 0.7443 19.996-12.293l0.4961-44.543 37.85-6.3984 0.0645 31.945c-3.7744 2.5968-11.795 1.6648-16.248 5.6152-4.261 4.8885-4.3315 12.826 1.1797 16.059 7.1568 4.0445 20.656 0.7443 19.996-12.293l0.0859-43.764c0.0849-0.25645 0.14258-0.52803 0.14258-0.82617v-16.158c0-1.3881-1.0044-2.7928-2.2949-2.9004z" fill="url(#d)"/>
<path d="m94.762 22.988c-0.18436-0.01537-0.37443-0.0043-0.56836 0.03711l-42.135 9c-1.5514 0.33137-3.0684 1.8901-3.0684 3.4766v7.3633l-0.17578 43.832c-3.6613 2.8187-11.949 1.7492-16.5 5.7871-4.261 4.8885-4.3315 12.827 1.1797 16.061 7.1568 4.0445 20.656 0.7443 19.996-12.293l0.4961-44.543 37.85-6.3984 0.0645 31.945c-3.7744 2.5968-11.795 1.6648-16.248 5.6152-4.261 4.8885-4.3315 12.826 1.1797 16.059 7.1568 4.0445 20.656 0.7443 19.996-12.293l0.0859-43.764c0.0849-0.25645 0.14258-0.52803 0.14258-0.82617v-16.158c0-1.3881-1.0044-2.7928-2.2949-2.9004z" fill="url(#e)"/>
<path d="m94.762 22.988c-0.18436-0.01537-0.37443-0.0043-0.56836 0.03711l-42.135 9c-1.5514 0.33137-3.0684 1.8901-3.0684 3.4766v7.3633l-0.17578 43.832c-3.6613 2.8187-11.949 1.7492-16.5 5.7871-4.261 4.8885-4.3315 12.827 1.1797 16.061 7.1568 4.0445 20.656 0.7443 19.996-12.293l0.4961-44.543 37.85-6.3984 0.0645 31.945c-3.7744 2.5968-11.795 1.6648-16.248 5.6152-4.261 4.8885-4.3315 12.826 1.1797 16.059 7.1568 4.0445 20.656 0.7443 19.996-12.293l0.0859-43.764c0.0849-0.25645 0.14258-0.52803 0.14258-0.82617v-16.158c0-1.3881-1.0044-2.7928-2.2949-2.9004z" fill="url(#f)"/>
</g>
<circle cx="68.112" cy="69.239" r="64.022" fill="none" stroke="url(#b)" stroke-opacity=".94819" stroke-width="6"/>
<path d="m94.762 22.988c-0.18436-0.01537-0.37443-0.0043-0.56836 0.03711l-42.135 9c-1.5514 0.33137-3.0684 1.8901-3.0684 3.4766v7.3633l-0.17578 43.832c-3.6613 2.8187-11.949 1.7492-16.5 5.7871-4.261 4.8885-4.3315 12.827 1.1797 16.061 7.1568 4.0445 20.656 0.7443 19.996-12.293l0.4961-44.543 37.85-6.3984 0.0645 31.945c-3.7744 2.5968-11.795 1.6648-16.248 5.6152-4.261 4.8885-4.3315 12.826 1.1797 16.059 7.1568 4.0445 20.656 0.7443 19.996-12.293l0.0859-43.764c0.0849-0.25645 0.14258-0.52803 0.14258-0.82617v-16.158c0-1.3881-1.0044-2.7928-2.2949-2.9004z" fill="#17c7e7"/>
<path d="m94.762 22.988c-0.18436-0.01537-0.37443-0.0043-0.56836 0.03711l-42.135 9c-1.5514 0.33137-3.0684 1.8901-3.0684 3.4766v7.3633l-0.17578 43.832c-3.6613 2.8187-11.949 1.7492-16.5 5.7871-4.261 4.8885-4.3315 12.827 1.1797 16.061 7.1568 4.0445 20.656 0.7443 19.996-12.293l0.4961-44.543 37.85-6.3984 0.0645 31.945c-3.7744 2.5968-11.795 1.6648-16.248 5.6152-4.261 4.8885-4.3315 12.826 1.1797 16.059 7.1568 4.0445 20.656 0.7443 19.996-12.293l0.0859-43.764c0.0849-0.25645 0.14258-0.52803 0.14258-0.82617v-16.158c0-1.3881-1.0044-2.7928-2.2949-2.9004z" fill="url(#c)"/>
<path d="m94.762 22.988c-0.18436-0.01537-0.37443-0.0043-0.56836 0.03711l-42.135 9c-1.5514 0.33137-3.0684 1.8901-3.0684 3.4766v7.3633l-0.17578 43.832c-3.6613 2.8187-11.949 1.7492-16.5 5.7871-4.261 4.8885-4.3315 12.827 1.1797 16.061 7.1568 4.0445 20.656 0.7443 19.996-12.293l0.4961-44.543 37.85-6.3984 0.0645 31.945c-3.7744 2.5968-11.795 1.6648-16.248 5.6152-4.261 4.8885-4.3315 12.826 1.1797 16.059 7.1568 4.0445 20.656 0.7443 19.996-12.293l0.0859-43.764c0.0849-0.25645 0.14258-0.52803 0.14258-0.82617v-16.158c0-1.3881-1.0044-2.7928-2.2949-2.9004z" fill="url(#c)"/>
<path d="m94.762 22.988c-0.18436-0.01537-0.37443-0.0043-0.56836 0.03711l-42.135 9c-1.5514 0.33137-3.0684 1.8901-3.0684 3.4766v7.3633l-0.17578 43.832c-3.6613 2.8187-11.949 1.7492-16.5 5.7871-4.261 4.8885-4.3315 12.827 1.1797 16.061 7.1568 4.0445 20.656 0.7443 19.996-12.293l0.4961-44.543 37.85-6.3984 0.0645 31.945c-3.7744 2.5968-11.795 1.6648-16.248 5.6152-4.261 4.8885-4.3315 12.826 1.1797 16.059 7.1568 4.0445 20.656 0.7443 19.996-12.293l0.0859-43.764c0.0849-0.25645 0.14258-0.52803 0.14258-0.82617v-16.158c0-1.3881-1.0044-2.7928-2.2949-2.9004z" fill="url(#d)"/>
<path d="m94.762 22.988c-0.18436-0.01537-0.37443-0.0043-0.56836 0.03711l-42.135 9c-1.5514 0.33137-3.0684 1.8901-3.0684 3.4766v7.3633l-0.17578 43.832c-3.6613 2.8187-11.949 1.7492-16.5 5.7871-4.261 4.8885-4.3315 12.827 1.1797 16.061 7.1568 4.0445 20.656 0.7443 19.996-12.293l0.4961-44.543 37.85-6.3984 0.0645 31.945c-3.7744 2.5968-11.795 1.6648-16.248 5.6152-4.261 4.8885-4.3315 12.826 1.1797 16.059 7.1568 4.0445 20.656 0.7443 19.996-12.293l0.0859-43.764c0.0849-0.25645 0.14258-0.52803 0.14258-0.82617v-16.158c0-1.3881-1.0044-2.7928-2.2949-2.9004z" fill="url(#e)"/>
<path d="m94.762 22.988c-0.18436-0.01537-0.37443-0.0043-0.56836 0.03711l-42.135 9c-1.5514 0.33137-3.0684 1.8901-3.0684 3.4766v7.3633l-0.17578 43.832c-3.6613 2.8187-11.949 1.7492-16.5 5.7871-4.261 4.8885-4.3315 12.827 1.1797 16.061 7.1568 4.0445 20.656 0.7443 19.996-12.293l0.4961-44.543 37.85-6.3984 0.0645 31.945c-3.7744 2.5968-11.795 1.6648-16.248 5.6152-4.261 4.8885-4.3315 12.826 1.1797 16.059 7.1568 4.0445 20.656 0.7443 19.996-12.293l0.0859-43.764c0.0849-0.25645 0.14258-0.52803 0.14258-0.82617v-16.158c0-1.3881-1.0044-2.7928-2.2949-2.9004z" fill="url(#f)"/>
</svg>
