<svg width="136.53" height="136.53" version="1.1" viewBox="0 0 136.53 136.53" xmlns="http://www.w3.org/2000/svg" xmlns:xlink="http://www.w3.org/1999/xlink">
<defs>
<linearGradient id="linearGradient903" x1="71.355" x2="68.287" y1="128.53" y2="15.141" gradientUnits="userSpaceOnUse">
<stop stop-color="#3b88bf" offset="0"/>
<stop stop-color="#2f0f71" offset="1"/>
</linearGradient>
</defs>
<linearGradient id="b" x1="7.2316" x2="126.7" y1="101.27" y2="101.27" gradientUnits="userSpaceOnUse">
<stop stop-color="#fc3a83" offset="0"/>
<stop stop-color="#a42cc3" offset="1"/>
</linearGradient>
<linearGradient id="c" x1="94.868" x2="66.52" y1="67.153" y2="133.97" gradientUnits="userSpaceOnUse">
<stop stop-color="#18cad9" offset="0"/>
<stop stop-color="#41d1e6" offset="1"/>
</linearGradient>
<linearGradient id="d" x1="99.811" x2="44.749" y1="117.83" y2="35.1" gradientUnits="userSpaceOnUse">
<stop stop-color="#0fb19d" offset="0"/>
<stop stop-color="#995086" stop-opacity="0" offset="1"/>
</linearGradient>
<filter id="e" x="-.015862" y="-.049289" width="1.0317" height="1.0986" color-interpolation-filters="sRGB">
<feGaussianBlur stdDeviation=".76648924"/>
</filter>
<linearGradient id="f" x1="82.551" x2="75.522" y1="129.67" y2="61.341" gradientUnits="userSpaceOnUse">
<stop stop-color="#01b7e9" offset="0"/>
<stop stop-color="#4272e9" offset="1"/>
</linearGradient>
<linearGradient id="g" x1="-16.505" x2="51.187" y1="117.83" y2="44.291" gradientUnits="userSpaceOnUse">
<stop stop-color="#d97482" offset="0"/>
<stop stop-color="#d97482" stop-opacity="0" offset="1"/>
</linearGradient>
<linearGradient id="h" x1="63.305" x2="57.453" y1="113.22" y2="53.855" gradientUnits="userSpaceOnUse">
<stop stop-color="#48cdf9" offset="0"/>
<stop stop-color="#48cdf9" stop-opacity="0" offset="1"/>
</linearGradient>
<linearGradient id="i" x1="78.895" x2="88.41" y1="34.123" y2="80.816" gradientUnits="userSpaceOnUse">
<stop stop-color="#69f8e8" offset="0"/>
<stop stop-color="#69f8e8" stop-opacity="0" offset="1"/>
</linearGradient>
<linearGradient id="j" x1="39.413" x2="30.621" y1="67.226" y2="94.277" gradientUnits="userSpaceOnUse">
<stop stop-color="#ff68f2" offset="0"/>
<stop stop-color="#ffe2fc" stop-opacity="0" offset="1"/>
</linearGradient>
<circle cx="68.953" cy="68.366" r="64.022" fill="url(#linearGradient903)" stroke="#eee" stroke-width="6"/>
<circle cx="68.953" cy="68.366" r="64.022" fill="url(#h)"/>
<path d="m13.295 96.034c39.147-23.113 78.295-41.398 117.44-19.67-8.5695 67.073-93.452 74.456-117.44 19.67z" fill="url(#c)"/>
<circle cx="68.953" cy="68.366" r="64.022" fill="url(#d)"/>
<path d="m6.9115 70.779c35.186-16.307 73.347 20.939 110.53 40.589-40.039 45.708-112.32 21.362-110.53-40.589z" fill="#8d18d9" fill-opacity=".69962"/>
<circle cx="68.953" cy="68.366" r="64.022" fill="url(#g)"/>
<path d="m13.295 96.034c60.212-58.895 88.925-36.502 115.98-9.818-29.615 75.149-105.3 47.858-115.98 9.818z" fill="url(#f)"/>
<path d="m50.332 130.17c32.742-30.62 51.99-29.558 67.11-18.802 8.4088-5.9741 8.2445-13.663 9.2565-21.116-59.222 33.188-71.061-42.839-119.47-8.9672 4.3256 18.527 5.2581 37.807 43.101 48.886z" fill="url(#b)" opacity=".625"/>
<path d="m10.628 95.014c38.998-17.637 77.306-42.864 120.11-18.65-9.9387 58.664-88.988 82.836-120.11 18.65z" fill="#08cdb7" fill-opacity=".37262"/>
<path d="m88.41 80.816c-14.712-0.039913-21.758 10.929-37.576 18.73 23.638 12.281 43.302 34.901 72.736 1.5039 0.73981-1.9226 1.3521-3.9341 1.8145-6.0391-17.149-10.385-28.376-14.172-36.975-14.195zm35.16 20.234c-0.85542 2.2231-1.8921 4.32-3.082 6.3008 1.8052-2.6508 3.5143-5.5222 5.0996-8.6582-0.67809 0.81625-1.3497 1.5996-2.0176 2.3574zm-3.082 6.3008c-2.5857 3.7968-5.3793 7.112-8.3398 9.9766 3.2585-2.8945 6.0819-6.2178 8.3398-9.9766zm-8.3398 9.9766c-11.873 10.547-29.493 15.4-46.418 14.812 16.063 1.9946 32.945-1.7765 46.418-14.812zm-46.418 14.812c-18.817-2.3365-36.496-12.572-46.232-25.086-0.16079 0.0075-0.31469 0.01854-0.47656 0.02539 7.1532 15.851 26.428 24.357 46.709 25.061zm-46.232-25.086c13.824-0.6447 23.618-3.7014 31.336-7.5078-7.2849-3.7847-14.946-6.5927-23.389-6.4688-4.4775 0.065711-9.1739 0.95384-14.15 2.9551 1.3284 3.7705 3.4524 7.4863 6.2031 11.021z" fill="#fff" fill-opacity=".46768"/>
<path d="m50.332 130.17c32.742-30.62 51.99-29.558 67.11-18.802 8.4088-5.9741 8.2445-13.663 9.2565-21.116-59.222 33.188-71.061-42.839-119.47-8.9672 4.3256 18.527 5.2581 37.807 43.101 48.886z" fill="url(#j)" opacity=".625"/>
<path d="m67.938 88.695c-4.9452 3.4419-10.173 7.4333-17.104 10.852 7.6654 3.9824 14.913 9.0453 22.211 12.939 18.122-10.831 31.034-9.4312 41.748-2.8691 2.8343-2.3214 5.7515-5.1332 8.7773-8.5664 0.73981-1.9226 1.3521-3.9341 1.8145-6.0391-1.2602-0.76315-2.4782-1.4808-3.6758-2.1738-23.801 11.397-39.64 4.5777-53.771-4.1426zm55.633 12.355c-0.85542 2.2231-1.8921 4.32-3.082 6.3008 1.7654-2.5923 3.4366-5.3997 4.9922-8.4551 0.00765-0.035976 0.01786-0.071421 0.02539-0.10742-0.65004 0.78054-1.2948 1.5347-1.9356 2.2617zm-3.082 6.3008c-0.92725 1.3616-1.8903 2.6398-2.8691 3.8789 0.18288-0.13251 0.34679-0.27016 0.52148-0.4043 0.83559-1.1155 1.624-2.2699 2.3477-3.4746zm-69.654-7.8047c-7.2849-3.7847-14.946-6.5927-23.389-6.4688-4.4775 0.065711-9.1739 0.95384-14.15 2.9551 1.3284 3.7705 3.4524 7.4863 6.2031 11.021 13.824-0.6447 23.618-3.7014 31.336-7.5078zm-31.336 7.5078c-0.16079 0.0075-0.31469 0.01854-0.47656 0.02539 5.3125 11.772 17.316 19.483 31.447 22.965 0.41704-0.38932 0.82366-0.75569 1.2363-1.1348-13.27-4.4676-24.947-12.525-32.207-21.855z" fill="#fff" fill-opacity=".82129" opacity=".649"/>
<path d="m13.295 96.033c33.787-25.194 64.472-64.348 115.98-9.8171" fill="none" filter="url(#e)" stroke="#edfcfd" stroke-width=".5"/>
<path d="m13.295 96.034c60.212-58.895 88.925-36.502 115.98-9.818-29.615 75.149-105.3 47.858-115.98 9.818z" fill="#cbf4ff" fill-opacity=".32319"/>
<path d="m10.628 95.014c38.998-17.637 77.306-42.864 120.11-18.65-9.9387 58.664-88.988 82.836-120.11 18.65z" fill="url(#i)"/>
<circle cx="68.953" cy="68.366" r="64.022" fill="none" stroke="#eee" stroke-width="6"/>
</svg>
