<svg version="1.1" viewBox="0 0 48 48" xmlns="http://www.w3.org/2000/svg" xmlns:xlink="http://www.w3.org/1999/xlink">
<defs>
<linearGradient id="linearGradient4198" x1="-24.722" x2="-24.516" y1="42.541" y2="-3.607" gradientTransform="matrix(1.0527 0 0 .92457 52.41 6.0016)" gradientUnits="userSpaceOnUse">
<stop stop-color="#f0e9c8" offset="0"/>
<stop stop-color="#f4efd8" offset="1"/>
</linearGradient>
</defs>
<path d="m8 3h32c1.108 0 2 0.892 2 2v40c0 1.108-0.892 2-2 2h-32c-1.108 0-2-0.892-2-2v-40c0-1.108 0.892-2 2-2z" fill-opacity=".66667"/>
<path d="m8 2h32c1.108 0 2 0.892 2 2v40c0 1.108-0.892 2-2 2h-32c-1.108 0-2-0.892-2-2v-40c0-1.108 0.892-2 2-2z" fill="url(#linearGradient4198)"/>
<g fill="#0055d4" stroke-width="1px">
<path d="m20.384 32.92q-0.0964 0.0482 0.0964 0.24099 1.1086 0.40968 2.3135 1.3495 0.1446 0.28919 0.86757 0.38558 0.53018-0.26509 0.43378-1.3014-0.14459-2.7232-0.28919-5.5187v-2.1689q0.0482-0.84347 0.72297-0.98806 0.67477-0.16869 1.3977-0.26509 0.53018-0.0964 1.0122-0.57838 1.1327-1.1568 2.3617-2.1207 1.47-0.81937 1.5905-2.4581-0.0482-0.89167-0.67477-1.4941-0.62658-0.60248-1.4459-0.62658-1.1568 0.0482-2.2171 0.40968-1.0363 0.33739-2.1689 0.40968l-0.28919-0.19279q0.0964-1.5182 0.40968-2.0966 0.33739-0.57838 1.7592-0.55428 0.31329 0.0241 0.74707-0.0723 0.45788-0.1205 0.50608-0.45788-0.19279-0.62658-1.3736-0.60248-1.1809 0.0241-1.1327 0.0241-0.21689-0.14459-0.19279-0.28919-0.0241-0.55428 0.0482-0.77117 0.0964-0.40968 0.14459-0.91576-0.19279-1.5423-1.6869-1.3495 0.0964 0.1205 0.33739 0.57838 0.21689 0.28919 0.14459 0.72297v1.7351q-0.16869 1.0122-1.47 1.2773-1.2773 0.24099-1.952 0.45788 0.74707 0.62658 2.3135 0.67477 0.19279-0.0964 0.62658 0.24099v1.5905q-0.89167 0.57838-1.952 0.65068-1.0363 0.0723-2.0484 0.21689v0.24099q0.74707 0.43378 1.6387 0.43378 1.1327 0.0482 2.0725-0.43378 0.21689 0.0241 0.28919 0.24099 0.48198 2.2171-1.6869 2.3135-0.0723 0.0964 0 0.19279 0.86757-0.0241 1.1327 0.21689 0.28919 0.24099 0.26509 1.1327-0.0723 1.2772-0.93986 1.4941-0.84347 0.19279-1.9038 0.48198-0.16869 0.1205-0.0482 0.24099 0.74707 0.38559 1.9279 0.24099 0.24099 0 0.1446 0.48198-2.3376 3.9522-6.0248 6.0489-0.33739 0.24099 0.28919 0.1446 1.9761-0.60248 3.4944-2.0484 1.5182-1.47 2.7232-3.1329 0.1205-0.19279 0.19279-0.0964 0.67477 0.96396 0.43378 2.2171v1.5905q0 0.57838-0.14459 1.3254-0.1205 0.74707-0.43378 0.81937-0.79527-0.0964-1.205-0.19279-0.77117-0.0482-1.1568-0.0964zm3.4221-12.17q0.1446-0.77117 0.1446-1.5423 0.0964-0.36149 0.62658-0.43378 2.0002-0.45788 4.0004-0.91576 0.21689-0.0482 0.60248 0.1205 0.40968 0.14459 0.26509 0.69887-0.79527 2.2894-2.0725 4.3378-0.55428 0.62658-1.1568 0.67477-1.47-0.0241-2.4099 0.53018-0.19279-0.0241-0.24099-0.28919 0.0964-1.3977 0.31329-1.7592 0.21689-0.38558 1.5664-0.65068 0.28919-0.0964 0.38558-0.43378 0.0241-0.28919-0.24099-0.38558-1.0845 0.1446-1.6387 0.28919-0.1205-0.0482-0.1446-0.24099zm-4.4824 2.9401q-0.0241-1.3254-0.69887-2.4099-0.65068-1.0845-1.8074-1.3495 0.36149 1.3254 0.77117 2.6268 0.43378 1.3014 1.3495 2.3858h0.19279q0.19279-0.48198 0.19279-1.2532zm6.0248 4.0486q-0.67477-0.0241-0.24099 0.14459 1.6146 0.67477 3.7595 1.8315t4.0004 2.1689q0.53018 0.19279 0.48198-0.77117-0.0482-0.77117-1.0122-1.3736-0.96396-0.60248-2.3376-1.0122-1.3736-0.43378-2.675-0.67477-1.2773-0.24099-1.9761-0.31329z" fill="#0055d4"/>
</g>
</svg>
