<svg width="96" height="96" version="1.1" xmlns="http://www.w3.org/2000/svg" xmlns:xlink="http://www.w3.org/1999/xlink">
<defs>
<linearGradient id="linearGradient4261">
<stop stop-color="#586c71" offset="0"/>
<stop stop-color="#597075" offset="1"/>
</linearGradient>
<linearGradient id="linearGradient4251">
<stop stop-color="#3b3f40" offset="0"/>
<stop stop-color="#4d5253" offset="1"/>
</linearGradient>
<linearGradient id="linearGradient4178">
<stop stop-color="#8ba4aa" offset="0"/>
<stop stop-color="#6f8c92" offset="1"/>
</linearGradient>
<linearGradient id="linearGradient4128" x1="7.7721" x2="87.516" y1="1046" y2="1046" gradientTransform="translate(0 -2.6172e-6)" gradientUnits="userSpaceOnUse">
<stop stop-color="#5e656a" offset="0"/>
<stop stop-color="#737273" offset=".050529"/>
<stop stop-color="#373737" offset=".18049"/>
<stop stop-color="#6d6b6a" offset=".82272"/>
<stop stop-color="#5e5d5d" offset=".9425"/>
<stop stop-color="#6f757a" offset="1"/>
</linearGradient>
<linearGradient id="linearGradient4158" x1="21.011" x2="40.011" y1="1036.1" y2="968" gradientTransform="translate(0 -2.6172e-6)" gradientUnits="userSpaceOnUse">
<stop stop-color="#757a7b" offset="0"/>
<stop stop-color="#d2e1e5" offset="1"/>
</linearGradient>
<radialGradient id="radialGradient4186" cx="-18.219" cy="85.049" r="3.266" gradientTransform="matrix(.4443 -.4443 .43301 .43301 55.543 923.01)" gradientUnits="userSpaceOnUse" xlink:href="#linearGradient4178"/>
<radialGradient id="radialGradient4249" cx="-18.219" cy="85.049" r="3.266" gradientTransform="matrix(.4443 -.4443 .43301 .43301 55.543 984.01)" gradientUnits="userSpaceOnUse" xlink:href="#linearGradient4251"/>
<radialGradient id="radialGradient4259" cx="-18.219" cy="85.049" r="3.266" gradientTransform="matrix(.4443 -.4443 .43301 .43301 55.543 954.01)" gradientUnits="userSpaceOnUse" xlink:href="#linearGradient4261"/>
<radialGradient id="radialGradient4273" cx="-18.219" cy="85.049" r="3.266" gradientTransform="matrix(.4443 -.4443 .43301 .43301 -16.457 923.01)" gradientUnits="userSpaceOnUse" xlink:href="#linearGradient4178"/>
<radialGradient id="radialGradient4275" cx="-18.219" cy="85.049" r="3.266" gradientTransform="matrix(.4443 -.4443 .43301 .43301 -16.457 984.01)" gradientUnits="userSpaceOnUse" xlink:href="#linearGradient4251"/>
<radialGradient id="radialGradient4277" cx="-18.219" cy="85.049" r="3.266" gradientTransform="matrix(.4443 -.4443 .43301 .43301 -16.457 954.01)" gradientUnits="userSpaceOnUse" xlink:href="#linearGradient4261"/>
<linearGradient id="linearGradient4297" x1="52.326" x2="31.113" y1="973.87" y2="967.86" gradientTransform="matrix(1.0095 0 0 .96 -.049372 38.814)" gradientUnits="userSpaceOnUse">
<stop stop-color="#121212" offset="0"/>
<stop stop-color="#3f3e3e" offset="1"/>
</linearGradient>
<linearGradient id="linearGradient4306" x1="57.188" x2="57.188" y1="977.17" y2="966.55" gradientTransform="matrix(1.0476 0 0 1.1818 -1.8095 -176.7)" gradientUnits="userSpaceOnUse">
<stop stop-color="#b6c4c8" offset="0"/>
<stop stop-color="#ddecee" offset="1"/>
</linearGradient>
<linearGradient id="linearGradient4312" x1="42.073" x2="42.073" y1="980.1" y2="964.86" gradientTransform="matrix(.95833 0 0 .88235 1.5833 115.34)" gradientUnits="userSpaceOnUse">
<stop stop-color="#88969a" offset="0"/>
<stop stop-color="#c0cfd4" offset=".28696"/>
<stop stop-color="#b9c9ce" offset=".6087"/>
<stop stop-color="#d2e1e5" offset="1"/>
</linearGradient>
<linearGradient id="linearGradient4340" x1="53.033" x2="55.685" y1="1010.3" y2="998.62" gradientTransform="translate(0 -2.6172e-6)" gradientUnits="userSpaceOnUse">
<stop stop-color="#797e81" offset="0"/>
<stop stop-color="#b0b7bb" offset=".34201"/>
<stop stop-color="#b8c5c8" offset="1"/>
</linearGradient>
<linearGradient id="linearGradient4348" x1="53.49" x2="69.711" y1="1029.6" y2="983.83" gradientTransform="translate(0 -2.6172e-6)" gradientUnits="userSpaceOnUse">
<stop stop-color="#83898b" offset="0"/>
<stop stop-color="#6f7677" offset=".1904"/>
<stop stop-color="#c2cfd3" offset=".39515"/>
<stop stop-color="#e6eef0" offset="1"/>
</linearGradient>
<linearGradient id="linearGradient4352" x1="50.912" x2="50.912" y1="1025.5" y2="988.02" gradientTransform="matrix(.95409 0 0 .92303 2.2035 77.229)" gradientUnits="userSpaceOnUse">
<stop stop-color="#7d8385" offset="0"/>
<stop stop-color="#bccdd1" offset="1"/>
</linearGradient>
<linearGradient id="linearGradient4372" x1="48.79" x2="48.79" y1="1009.7" y2="1001.2" gradientTransform="matrix(.90295 0 0 .80113 4.6586 197.89)" gradientUnits="userSpaceOnUse">
<stop stop-color="#909b9f" offset="0"/>
<stop stop-color="#bbc8cb" offset="1"/>
</linearGradient>
<linearGradient id="linearGradient4390" x1="69.75" x2="69.75" y1="1001.1" y2="972.11" gradientUnits="userSpaceOnUse">
<stop stop-color="#a5b2b5" offset="0"/>
<stop stop-color="#b9cacd" offset=".35345"/>
<stop stop-color="#cad8db" offset="1"/>
</linearGradient>
<linearGradient id="linearGradient4405" x1="69.75" x2="69.75" y1="1001.1" y2="972.11" gradientTransform="translate(2 2.4112)" gradientUnits="userSpaceOnUse">
<stop stop-color="#d2dde0" offset="0"/>
<stop stop-color="#e0e8ea" offset=".35345"/>
<stop stop-color="#dbe5e7" offset="1"/>
</linearGradient>
<linearGradient id="linearGradient4462" x1="69.191" x2="69.191" y1="87.105" y2="87.729" gradientTransform="translate(.125 956.36)" gradientUnits="userSpaceOnUse">
<stop offset="0"/>
<stop stop-color="#2f2f2f" offset="1"/>
</linearGradient>
<radialGradient id="radialGradient3119" cx="-75.884" cy="44.052" r="29.714" gradientTransform="matrix(.96563 .0033022 0 .65529 121.51 979.34)" gradientUnits="userSpaceOnUse">
<stop stop-opacity="0" offset="0"/>
<stop stop-opacity="0" offset=".81612"/>
<stop stop-opacity=".023529" offset=".90911"/>
<stop stop-opacity=".2" offset="1"/>
</radialGradient>
</defs>
<g transform="translate(0 -956.36)">
<rect x="3.5" y="960.86" width="89" height="89" rx="10.595" ry="10.595" opacity=".05"/>
<g transform="translate(0 -2.6172e-6)">
<rect x="4" y="961.36" width="88" height="88" rx="10.476" ry="10.476" opacity=".05"/>
<rect x="4.5" y="961.86" width="87" height="87" rx="10.357" ry="10.357" opacity=".05"/>
<rect x="5" y="962.36" width="86" height="86" rx="10.238" ry="10.238" opacity=".1"/>
<rect x="5.5" y="962.86" width="85" height="85" rx="10.119" ry="10.119" opacity=".1"/>
<rect x="6" y="963.36" width="84" height="84" rx="10" ry="10" opacity=".3"/>
</g>
<rect x="6" y="962.36" width="84" height="84" rx="10" ry="10" fill="url(#linearGradient4128)"/>
<path d="m16 962.36h64c5.54 0 10 4.46 10 10v54c0 5.54-4.46 10-10 10h-64c-5.54 0-10-4.46-10-10v-54c0-5.54 4.46-10 10-10z" fill="url(#linearGradient4158)"/>
<ellipse cx="48" cy="1008.4" rx="32.397" ry="22.967" opacity=".05"/>
<ellipse cx="48" cy="1007.9" rx="32.309" ry="22.967" opacity=".1"/>
<circle cx="84" cy="968.36" r="2" fill="url(#radialGradient4186)"/>
<circle cx="84" cy="1029.4" r="2" fill="url(#radialGradient4249)"/>
<circle cx="84" cy="999.36" r="2" fill="url(#radialGradient4259)"/>
<circle cx="12" cy="968.36" r="2" fill="url(#radialGradient4273)"/>
<path d="m12 1026.4a2 2 0 0 0-2 2 2 2 0 0 0 0.06445 0.5039 2 2 0 0 1 1.9356-1.5039 2 2 0 0 1 1.9355 1.4961 2 2 0 0 0 0.06445-0.4961 2 2 0 0 0-2-2z" fill="#999"/>
<circle cx="12" cy="1029.4" r="2" fill="url(#radialGradient4275)"/>
<circle cx="12" cy="999.36" r="2" fill="url(#radialGradient4277)"/>
<ellipse cx="48" cy="1007.4" rx="32.309" ry="22.967" opacity=".1"/>
<rect x="57.5" y="979.38" width="1.5" height="6" rx="0" ry="0" opacity=".2"/>
<ellipse cx="48" cy="1006.4" rx="33.016" ry="22.967" fill="url(#linearGradient4348)"/>
<path d="m63.744 969.51c-1.5187 0.05942-2.7441 1.3499-2.7441 3.0273v16.185c9.9726 2.5103 17.636 10.272 19.957 17.266l-0.91414-33.982c-0.03767-1.677-1.2255-3.0868-2.7441-3.0273z" fill="url(#linearGradient4405)"/>
<ellipse cx="48" cy="1006.2" rx="31.5" ry="21.2" fill="url(#linearGradient4352)"/>
<ellipse cx="48" cy="1006.1" rx="28.874" ry="19.207" fill="#fea"/>
<path d="m68.417 1019.7a28.874 19.207 0 0 1-20.417 5.6256l-1e-6 -19.207z" fill="#37c871"/>
<path d="m19.126 1006.1a28.874 19.207 0 0 1 8.4571-13.581l20.417 13.581z" fill="#7df4fc"/>
<path d="m48 1025.3a28.874 19.207 0 0 1-20.417-5.6256 28.874 19.207 0 0 1-8.4571-13.581h28.874z" fill="#fff"/>
<path d="m48 986.89c-15.947 0-28.887 8.6089-28.887 19.217 0 10.608 12.94 19.19 28.887 19.19 15.947 0 28.887-8.5821 28.887-19.19 0-10.608-12.94-19.217-28.887-19.217zm0 5.1459c11.684 0 21.17 6.2986 21.17 14.071 0 7.772-9.486 14.071-21.17 14.071-11.684 0-21.17-6.2987-21.17-14.071 0-7.7722 9.486-14.071 21.17-14.071z" fill="url(#radialGradient3119)"/>
<ellipse cx="48" cy="1004.1" rx="12.207" ry="8.4919" opacity=".1"/>
<ellipse cx="48" cy="1004.1" rx="11.5" ry="8" opacity=".1"/>
<ellipse cx="48" cy="1003" rx="11.5" ry="8" fill="url(#linearGradient4340)"/>
<ellipse cx="48" cy="1001.5" rx="10.384" ry="6.409" fill="url(#linearGradient4372)"/>
<rect x="15" y="965.36" width="46" height="15" rx="2.7434" ry="3.0278" fill="url(#linearGradient4312)"/>
<path d="m61.744 967.11c-1.5198 0-2.7441 1.3499-2.7441 3.0273v16.186c9.9725 2.5103 18.137 12.351 20.458 19.344l-0.70833-35.53c0-1.6774-1.2243-3.0273-2.7441-3.0273z" fill="url(#linearGradient4390)"/>
<rect x="16" y="965.36" width="44" height="13" rx="2.6241" ry="2.6241" fill="url(#linearGradient4306)"/>
<rect x="18" y="967.36" width="40" height="9" rx="1.0095" ry=".96" fill="url(#linearGradient4297)"/>
<g transform="matrix(.79822 0 0 .79822 -15.629 193.38)" fill="#747474">
<g fill="#747474" stroke-width="1px">
<path d="m46.114 972.91q0.0016 0.5189-0.22898 0.74953-0.22898 0.22897-0.74788 0.22897-0.49749 0-0.738-0.23886-0.23886-0.24051-0.24051-0.73964v-1.509h0.25204 0.25369v1.5254q0 0.26028 0.11696 0.39041 0.11861 0.13014 0.35582 0.13014 0.25369 0 0.36241-0.1186 0.10872-0.12026 0.10872-0.40195v-1.5254h0.25204 0.25369v1.509z"/>
<path d="m47.589 972.56q0-0.10378-0.08566-0.16638t-0.22733-0.0626q-0.13673 0-0.21415 0.0478-0.07578 0.0461-0.07578 0.13014 0 0.0593 0.08731 0.10213 0.08566 0.0412 0.30475 0.0906 0.43489 0.0972 0.5815 0.21251 0.14661 0.11531 0.14661 0.36241 0 0.26357-0.21415 0.42501-0.2125 0.15979-0.56174 0.15979-0.41348 0-0.63751-0.15815-0.22239-0.15814-0.23721-0.46125h0.48102q0.0049 0.12355 0.10872 0.19439 0.10543 0.0692 0.28499 0.0692 0.14167 0 0.22074-0.0478 0.08072-0.0494 0.08072-0.13672 0-0.061-0.07742-0.10379-0.07742-0.0412-0.27181-0.084-0.45466-0.10213-0.60786-0.2158-0.1532-0.11202-0.1532-0.34758 0-0.26687 0.19768-0.42995 0.19933-0.16473 0.52385-0.16473 0.3657 0 0.58974 0.16143 0.22404 0.15979 0.22404 0.42336h-0.46784z"/>
<path d="m49.162 973.86q-0.40854 0-0.63092-0.25204-0.22074-0.25204-0.22074-0.71823 0-0.42996 0.22568-0.67211 0.22568-0.2438 0.62598-0.2438 0.41018 0 0.63092 0.24874 0.22239 0.2471 0.22239 0.70505 0.0033 0.0527-0.0082 0.10708h-1.2207q0.01647 0.2125 0.0939 0.31793 0.09884 0.13179 0.32946 0.13179 0.10708 0 0.19768-0.0609 0.09225-0.061 0.11037-0.14661h0.48102q-0.06095 0.27345-0.28334 0.4283-0.22074 0.15485-0.5535 0.15485zm0.36076-1.1268q-0.01647-0.16144-0.08566-0.25204-0.0906-0.12025-0.28169-0.12025-0.18285 0-0.2784 0.14002-0.0593 0.0889-0.08566 0.23227h0.73141z"/>
<path d="m51.6 973.82-0.52055-1.7923h0.25039 0.25039l0.28663 1.3162 0.26851-1.3162h0.23557 0.23721l0.26522 1.3195 0.29158-1.3195h0.23721 0.23886l-0.5189 1.7923h-0.24051-0.24216l-0.2751-1.3343-0.28169 1.3343h-0.24051-0.24216z"/>
<path d="m53.906 973.82v-1.7923h0.23557 0.23721v1.7923h-0.23557-0.23721zm-0.0049-2.4397h0.48102v0.43819h-0.48102v-0.43819z"/>
<path d="m55.647 973.83q-0.11861 0.01-0.29158 0.01-0.25039 0-0.36076-0.089-0.10872-0.0906-0.10872-0.29487v-1.0971h-0.24874v-0.33111h0.24874v-0.48267h0.47278v0.48267h0.28828v0.33111h-0.28828v1.018q0 0.0626 0.03624 0.0824 0.03789 0.0198 0.15485 0.0198h0.09719v0.35088z"/>
<path d="m55.95 973.82v-2.4216h0.23557 0.23721v0.85661l0.03789-0.0527q0.17462-0.22238 0.50737-0.22238 0.28334 0 0.44313 0.16802 0.16144 0.16803 0.16144 0.46619v1.2058h-0.23557-0.23721v-1.1202q0-0.16638-0.07248-0.24545-0.07083-0.0807-0.21909-0.0807-0.18615 0-0.28663 0.11202-0.09884 0.11202-0.09884 0.32288v1.0114h-0.23557-0.23721z"/>
<path d="m60.497 973.15q-0.03624 0.33441-0.24875 0.5222-0.2125 0.1878-0.5535 0.1878-0.40689 0-0.62928-0.24216-0.22074-0.24216-0.22074-0.69023 0-0.43818 0.22898-0.69517 0.23062-0.25862 0.62104-0.25862 0.34594 0 0.56668 0.19108 0.22074 0.19109 0.23557 0.50244h-0.48102q-0.0066-0.13344-0.09554-0.2158-0.08731-0.0824-0.22568-0.0824-0.17791 0-0.27181 0.14332-0.09225 0.14167-0.09225 0.41512 0 0.26687 0.09225 0.40689 0.0939 0.13838 0.27181 0.13838 0.12849 0 0.21745-0.089 0.08895-0.0889 0.10378-0.23392h0.48102z"/>
<path d="m61.256 973.86q-0.24875 0-0.4003-0.14167-0.15155-0.14332-0.15155-0.37559 0-0.24545 0.13673-0.39206 0.13673-0.14826 0.39865-0.18615l0.31134-0.0428q0.1219-0.0165 0.20262-0.056 0.03459-0.0165 0.05271-0.0593 0.01977-0.0428 0.01483-0.0873-0.0099-0.0758-0.07742-0.11861-0.08072-0.0511-0.23227-0.0511-0.13508 0-0.21086 0.0659-0.07578 0.0659-0.08072 0.18614h-0.45301q0.01483-0.31463 0.21415-0.47113 0.19933-0.15649 0.5848-0.15649 0.33441 0 0.52714 0.14166 0.19438 0.14003 0.19438 0.38383v1.0016q0 0.12026 0.01977 0.16967 0.01977 0.0478 0.07907 0.0758v2e-3 0.0642h-0.25534-0.25533q-0.0313-0.10872-0.04118-0.2125l-0.0016-3e-3q-0.22239 0.26357-0.57656 0.26357zm0.56832-0.70835v-0.20592q-0.08237 0.0461-0.21745 0.0741l-0.17462 0.033q-0.12355 0.0231-0.1878 0.0857-0.06424 0.0609-0.06424 0.15485 0 0.10707 0.05766 0.16803 0.05766 0.061 0.16144 0.061 0.22733 0 0.36241-0.15979 0.02636-0.0313 0.04448-0.0923 0.01812-0.0609 0.01812-0.11861z"/>
<path d="m63.18 972.03v1.1218q0 0.16473 0.07083 0.24381 0.07084 0.0791 0.21745 0.0791 0.1845 0 0.28334-0.11202 0.09884-0.11202 0.09884-0.32288v-1.0098h0.23557 0.23721v1.7923h-0.22404-0.22568v-0.26851q-0.02471 0.0494-0.0593 0.0922-0.17462 0.22239-0.50573 0.22239-0.28334 0-0.44313-0.16638-0.15814-0.16803-0.15814-0.46455v-1.2075h0.23557 0.23722z"/>
<path d="m65.59 973.83q-0.11861 0.01-0.29158 0.01-0.25039 0-0.36076-0.089-0.10872-0.0906-0.10872-0.29487v-1.0971h-0.24874v-0.33111h0.24874v-0.48267h0.47278v0.48267h0.28828v0.33111h-0.28828v1.018q0 0.0626 0.03624 0.0824 0.03789 0.0198 0.15485 0.0198h0.09719v0.35088z"/>
<path d="m65.912 973.82v-1.7923h0.23557 0.23721v1.7923h-0.23557-0.23721zm-0.0049-2.4397h0.48102v0.43819h-0.48102v-0.43819z"/>
<path d="m67.641 973.86q-0.42007 0-0.66881-0.25204-0.2471-0.25204-0.2471-0.68035 0-0.43818 0.2471-0.69517 0.24875-0.25862 0.66881-0.25862 0.42336 0 0.67046 0.25862 0.2471 0.25699 0.2471 0.69517 0 0.42831-0.2471 0.68035t-0.67046 0.25204zm0-0.39536q0.21086 0 0.32123-0.13838 0.11037-0.13837 0.11037-0.40359 0-0.27181-0.11037-0.41183-0.11037-0.14167-0.32123-0.14167t-0.32123 0.14167q-0.10872 0.14002-0.10872 0.41183 0 0.26522 0.10872 0.40359 0.11037 0.13838 0.32123 0.13838z"/>
<path d="m68.892 973.82v-1.7923h0.22404 0.22568v0.26522q0.028-0.0478 0.06095-0.0906 0.17462-0.22238 0.50738-0.22238 0.28334 0 0.44313 0.16802 0.16144 0.16803 0.16144 0.46619v1.2058h-0.23557-0.23721v-1.1202q0-0.16638-0.07248-0.24545-0.07084-0.0807-0.21909-0.0807-0.18615 0-0.28663 0.11202-0.09884 0.11202-0.09884 0.32288v1.0114h-0.23557-0.23721z"/>
</g>
</g>
<path d="m56.601 975.15h-3.8004-3.8004l3.8004-6.5826 1.9002 3.2913z" fill="#696969"/>
<path d="m54.966 974.21h-2.1653-2.1653l2.1653-3.7503 1.0826 1.8752z" fill="#121212"/>
<g transform="matrix(.79822 0 0 .79822 -15.629 194.36)" fill="#999">
<g fill="#999" stroke-width="1px">
<path d="m43.961 975.06 0.62052-1.6436h0.12634 0.12746l0.59034 1.6436h-0.11963-0.11963l-0.16659-0.4763h-0.65742l-0.17218 0.4763h-0.11404-0.11516zm0.7368-1.402-0.26386 0.72898h0.51766l-0.2538-0.72898z"/>
<path d="m45.607 975.06v-1.1963h0.09504 0.09615v0.17666l0.04472-0.0593q0.13081-0.15317 0.32759-0.15317 0.1979 0 0.30523 0.10733t0.10733 0.30523v0.81954h-0.10062-0.10063v-0.75134q0-0.15765-0.06149-0.22696-0.06038-0.0704-0.19678-0.0704-0.14535 0-0.23032 0.11069-0.08497 0.10957-0.08497 0.2974v0.64065h-0.10062-0.10063z"/>
<path d="m47.852 973.86-0.45505 1.2355q-0.1051 0.27616-0.18783 0.36113-0.08162 0.085-0.24597 0.085-0.05367 1e-3 -0.09727-0.0123v-0.18672q0.04584 0.0168 0.11516 0.0179 0.0682 0 0.11404-0.0559 0.04584-0.0559 0.10398-0.20908l0.0034-0.019-0.44387-1.2164h0.11404 0.11516l0.31976 0.98949 0.32424-0.98949h0.10957 0.11069z"/>
<path d="m49.118 975.09q-0.24038 0-0.38238-0.17889-0.14199-0.18001-0.14199-0.48524 0-0.26945 0.13752-0.43492 0.13752-0.16547 0.3589-0.16547 0.22026 0 0.34884 0.18671l0.01565 0.0224v-0.62052h0.10062 0.10063v1.6436h-0.0928-0.09392v-0.16324l-0.02572 0.0369q-0.1241 0.15876-0.32536 0.15876zm0.01118-1.0834q-0.16883 0-0.24709 0.10845-0.07826 0.10734-0.07826 0.34213 0 0.22138 0.08385 0.34101 0.08497 0.11963 0.2415 0.11963 0.14647 0 0.23591-0.10957 0.08944-0.11069 0.08944-0.29181 0-0.24486-0.08497-0.37679-0.08385-0.13305-0.24038-0.13305z"/>
<path d="m50.251 975.09q-0.17554 0-0.2784-0.0939-0.10286-0.0939-0.10286-0.2538 0-0.161 0.09615-0.25603 0.09727-0.095 0.28287-0.11852l0.27392-0.0347q0.03354-3e-3 0.06373-0.0112 0.03913-0.0101 0.06038-0.0403 0.02124-0.0302 0.02124-0.076v-0.0101q0-0.0961-0.07267-0.14982-0.07267-0.0548-0.20237-0.0548-0.1241 0-0.19454 0.0581-0.06932 0.057-0.08385 0.17106h-0.1856q0.01454-0.19678 0.13864-0.29517 0.1241-0.0995 0.35554-0.0995 0.21802 0 0.33206 0.095 0.11404 0.0939 0.11404 0.27504v0.65742q0 0.0302 0.01789 0.0492 0.01901 0.0179 0.05031 0.0179 0.0089 0 0.02571-2e-3 0.01789-2e-3 0.03801-7e-3v0.14535q-0.02907 0.0112-0.06149 0.0179-0.03242 7e-3 -0.05479 7e-3 -0.11404 0-0.16547-0.0626-0.03354-0.0414-0.04808-0.1174-0.02236 0.028-0.05143 0.0537-0.15094 0.13528-0.36896 0.13528zm0.41704-0.50648v-0.12969q-0.0559 0.0268-0.1241 0.0369l-0.18448 0.0268q-0.14535 0.0201-0.21243 0.0682-0.06708 0.047-0.06708 0.12857 0 0.10063 0.05478 0.15541 0.05479 0.0537 0.15541 0.0537 0.15876 0 0.26833-0.0861 0.07491-0.0604 0.09951-0.1364 0.0045-0.0145 0.0067-0.0458 0.0034-0.0324 0.0034-0.0716z"/>
<path d="m51.65 975.06q-0.10286 0.0156-0.14982 0.0156-0.13193 0-0.18672-0.0581-0.05367-0.0581-0.05367-0.20013v-0.78823h-0.16547v-0.16436h0.16547v-0.33541h0.20125v0.33541h0.18895v0.16436h-0.18895v0.78823q0 0.0403 0.03131 0.0637 0.03242 0.0235 0.08609 0.0235h0.07156v0.15541z"/>
<path d="m52.161 975.09q-0.17554 0-0.2784-0.0939-0.10286-0.0939-0.10286-0.2538 0-0.161 0.09615-0.25603 0.09727-0.095 0.28287-0.11852l0.27392-0.0347q0.03354-3e-3 0.06373-0.0112 0.03913-0.0101 0.06038-0.0403 0.02124-0.0302 0.02124-0.076v-0.0101q0-0.0961-0.07267-0.14982-0.07267-0.0548-0.20237-0.0548-0.1241 0-0.19454 0.0581-0.06932 0.057-0.08385 0.17106h-0.1856q0.01454-0.19678 0.13864-0.29517 0.1241-0.0995 0.35554-0.0995 0.21802 0 0.33206 0.095 0.11404 0.0939 0.11404 0.27504v0.65742q0 0.0302 0.01789 0.0492 0.01901 0.0179 0.05031 0.0179 0.0089 0 0.02571-2e-3 0.01789-2e-3 0.03801-7e-3v0.14535q-0.02907 0.0112-0.06149 0.0179-0.03242 7e-3 -0.05479 7e-3 -0.11404 0-0.16547-0.0626-0.03354-0.0414-0.04808-0.1174-0.02236 0.028-0.05143 0.0537-0.15094 0.13528-0.36896 0.13528zm0.41704-0.50648v-0.12969q-0.0559 0.0268-0.1241 0.0369l-0.18448 0.0268q-0.14535 0.0201-0.21243 0.0682-0.06708 0.047-0.06708 0.12857 0 0.10063 0.05478 0.15541 0.05479 0.0537 0.15541 0.0537 0.15876 0 0.26833-0.0861 0.07491-0.0604 0.09951-0.1364 0.0045-0.0145 0.0067-0.0458 0.0034-0.0324 0.0034-0.0716z"/>
<path d="m53.76 975.06v-1.6436h0.10062 0.10063v1.6436h-0.10063-0.10062z"/>
<path d="m54.753 975.09q-0.24821 0-0.4025-0.17442-0.15318-0.17441-0.15318-0.45728 0-0.28399 0.15318-0.45841 0.15429-0.17441 0.4025-0.17441 0.25045 0 0.40362 0.17441 0.15317 0.17442 0.15317 0.45841 0 0.28287-0.15317 0.45728-0.15317 0.17442-0.40362 0.17442zm0-0.1733q0.15876 0 0.25268-0.1241 0.09392-0.12411 0.09392-0.3343 0-0.2102-0.09392-0.3343-0.09392-0.12523-0.25268-0.12523-0.15876 0-0.25268 0.12523-0.0928 0.1241-0.0928 0.3343 0 0.21019 0.0928 0.3343 0.09392 0.1241 0.25268 0.1241z"/>
<path d="m56.225 974.21q-0.0089-0.0995-0.08162-0.15429-0.07156-0.0548-0.19342-0.0548-0.12522 0-0.19119 0.0436-0.06485 0.0436-0.06485 0.12746 0 0.0637 0.04584 0.0962 0.04584 0.0324 0.18224 0.0648l0.20796 0.0492q0.17442 0.0425 0.24933 0.1174 0.07379 0.0738 0.07379 0.20684 0 0.17777-0.12858 0.28175-0.12746 0.10398-0.34548 0.10398-0.25268 0-0.37679-0.0995-0.1241-0.10062-0.13752-0.31529h0.19342q0.01453 0.12746 0.08944 0.18448 0.07603 0.057 0.23144 0.057 0.13529 0 0.2046-0.0514 0.07044-0.0514 0.07044-0.14982 0-0.0626-0.04584-0.095t-0.18448-0.0648l-0.20796-0.0492q-0.16883-0.0403-0.24038-0.11292-0.07156-0.0716-0.07156-0.20125 0-0.16883 0.11963-0.26722 0.12075-0.0995 0.32647-0.0995 0.20908 0 0.33206 0.10174 0.1241 0.10174 0.13193 0.28063h-0.18895z"/>
<path d="m57.37 974.21q-0.0089-0.0995-0.08162-0.15429-0.07156-0.0548-0.19342-0.0548-0.12522 0-0.19119 0.0436-0.06485 0.0436-0.06485 0.12746 0 0.0637 0.04584 0.0962 0.04584 0.0324 0.18224 0.0648l0.20796 0.0492q0.17442 0.0425 0.24933 0.1174 0.07379 0.0738 0.07379 0.20684 0 0.17777-0.12858 0.28175-0.12746 0.10398-0.34548 0.10398-0.25268 0-0.37679-0.0995-0.1241-0.10062-0.13752-0.31529h0.19342q0.01453 0.12746 0.08944 0.18448 0.07603 0.057 0.23144 0.057 0.13528 0 0.2046-0.0514 0.07044-0.0514 0.07044-0.14982 0-0.0626-0.04584-0.095t-0.18448-0.0648l-0.20796-0.0492q-0.16883-0.0403-0.24038-0.11292-0.07156-0.0716-0.07156-0.20125 0-0.16883 0.11963-0.26722 0.12075-0.0995 0.32647-0.0995 0.20908 0 0.33206 0.10174 0.1241 0.10174 0.13193 0.28063h-0.18895z"/>
<path d="m58.471 975.06v-1.1963h0.10062 0.10062v1.1963h-0.10062-0.10062zm-0.0022-1.6436h0.20572v0.22808h-0.20572v-0.22808z"/>
<path d="m59.66 974.21q-0.0089-0.0995-0.08162-0.15429-0.07156-0.0548-0.19342-0.0548-0.12522 0-0.19119 0.0436-0.06485 0.0436-0.06485 0.12746 0 0.0637 0.04584 0.0962 0.04584 0.0324 0.18224 0.0648l0.20796 0.0492q0.17442 0.0425 0.24933 0.1174 0.07379 0.0738 0.07379 0.20684 0 0.17777-0.12858 0.28175-0.12746 0.10398-0.34548 0.10398-0.25268 0-0.37679-0.0995-0.1241-0.10062-0.13752-0.31529h0.19342q0.01454 0.12746 0.08944 0.18448 0.07603 0.057 0.23144 0.057 0.13528 0 0.2046-0.0514 0.07044-0.0514 0.07044-0.14982 0-0.0626-0.04584-0.095t-0.18448-0.0648l-0.20796-0.0492q-0.16883-0.0403-0.24038-0.11292-0.07155-0.0716-0.07155-0.20125 0-0.16883 0.11963-0.26722 0.12075-0.0995 0.32647-0.0995 0.20908 0 0.33206 0.10174 0.1241 0.10174 0.13193 0.28063h-0.18895z"/>
<path d="m60.754 975.06v-1.1963h0.09504 0.09615v0.17666l0.04472-0.0593q0.13081-0.15317 0.32759-0.15317 0.1979 0 0.30523 0.10733 0.10733 0.10733 0.10733 0.30523v0.81954h-0.10062-0.10063v-0.75134q0-0.15765-0.06149-0.22696-0.06038-0.0704-0.19678-0.0704-0.14535 0-0.23032 0.11069-0.08497 0.10957-0.08497 0.2974v0.64065h-0.10062-0.10062z"/>
<path d="m62.516 975.09q-0.24821 0-0.4025-0.17442-0.15318-0.17441-0.15318-0.45728 0-0.28399 0.15318-0.45841 0.15429-0.17441 0.4025-0.17441 0.25045 0 0.40362 0.17441 0.15317 0.17442 0.15317 0.45841 0 0.28287-0.15317 0.45728-0.15317 0.17442-0.40362 0.17442zm0-0.1733q0.15876 0 0.25268-0.1241 0.09392-0.12411 0.09392-0.3343 0-0.2102-0.09392-0.3343-0.09392-0.12523-0.25268-0.12523-0.15876 0-0.25268 0.12523-0.0928 0.1241-0.0928 0.3343 0 0.21019 0.0928 0.3343 0.09392 0.1241 0.25268 0.1241z"/>
<path d="m63.743 975.06q-0.10286 0.0156-0.14982 0.0156-0.13193 0-0.18672-0.0581-0.05367-0.0581-0.05367-0.20013v-0.78823h-0.16547v-0.16436h0.16547v-0.33541h0.20125v0.33541h0.18895v0.16436h-0.18895v0.78823q0 0.0403 0.03131 0.0637 0.03242 0.0235 0.08609 0.0235h0.07156v0.15541z"/>
<path d="m65.012 975.4q0.1733 0 0.26386-0.10957 0.09056-0.10845 0.09056-0.31753v-0.0391l-0.0011 1e-3q-0.1241 0.15876-0.32424 0.15876-0.24038 0-0.38238-0.17889-0.14199-0.18001-0.14199-0.48524 0-0.26945 0.13976-0.43492t0.36561-0.16547q0.21578 0 0.34213 0.18671l0.01454 0.0212v-0.17218h0.18895v1.108q-0.0011 0.303-0.1364 0.44834-0.13529 0.14535-0.41592 0.14535-0.20349 0-0.32312-0.0939-0.11963-0.0939-0.14423-0.2728h0.20572q0.01789 0.0962 0.08497 0.14758 0.0682 0.0525 0.1733 0.0525zm0.03913-1.3875q-0.16883 0-0.24709 0.10733-0.07715 0.10733-0.07715 0.34101 0 0.22026 0.08385 0.33989 0.08497 0.11851 0.24038 0.11851 0.14647 0 0.23591-0.10957 0.08944-0.10957 0.08944-0.28957 0-0.2538-0.08162-0.38014-0.0805-0.12746-0.24374-0.12746z"/>
<path d="m66.056 973.86v0.77146q0 0.15094 0.05814 0.21803 0.05814 0.066 0.18895 0.066 0.14535 0 0.23032-0.1118 0.08497-0.11293 0.08497-0.30523v-0.63842h0.10062 0.10062v1.1963h-0.09503-0.09615v-0.18225q-0.02012 0.0324-0.04472 0.0615-0.12858 0.15317-0.322 0.15317-0.20349 0-0.30523-0.10174-0.10174-0.10175-0.10174-0.30523v-0.82178h0.10063 0.10062z"/>
<path d="m67.438 975.09q-0.17554 0-0.2784-0.0939-0.10286-0.0939-0.10286-0.2538 0-0.161 0.09615-0.25603 0.09727-0.095 0.28287-0.11852l0.27392-0.0347q0.03354-3e-3 0.06373-0.0112 0.03913-0.0101 0.06037-0.0403t0.02124-0.076v-0.0101q0-0.0961-0.07267-0.14982-0.07267-0.0548-0.20237-0.0548-0.1241 0-0.19454 0.0581-0.06932 0.057-0.08385 0.17106h-0.1856q0.01453-0.19678 0.13864-0.29517 0.1241-0.0995 0.35554-0.0995 0.21802 0 0.33206 0.095 0.11404 0.0939 0.11404 0.27504v0.65742q0 0.0302 0.01789 0.0492 0.01901 0.0179 0.05031 0.0179 0.0089 0 0.02572-2e-3 0.01789-2e-3 0.03801-7e-3v0.14535q-0.02907 0.0112-0.06149 0.0179-0.03242 7e-3 -0.05479 7e-3 -0.11404 0-0.16547-0.0626-0.03354-0.0414-0.04808-0.1174-0.02236 0.028-0.05143 0.0537-0.15094 0.13528-0.36896 0.13528zm0.41704-0.50648v-0.12969q-0.0559 0.0268-0.1241 0.0369l-0.18448 0.0268q-0.14535 0.0201-0.21243 0.0682-0.06708 0.047-0.06708 0.12857 0 0.10063 0.05479 0.15541 0.05478 0.0537 0.15541 0.0537 0.15876 0 0.26833-0.0861 0.07491-0.0604 0.09951-0.1364 0.0045-0.0145 0.0067-0.0458 0.0034-0.0324 0.0034-0.0716z"/>
<path d="m68.425 975.06v-1.1963h0.09503 0.09615v0.20461q0.02572-0.0481 0.05479-0.0872 0.11404-0.15317 0.28063-0.15317 0.02795 0 0.05702 0.0101v0.20572l-0.04137-1e-3q-0.16324 0-0.25268 0.0984-0.08833 0.0973-0.08833 0.2784v0.64065h-0.10063-0.10062z"/>
<path d="m69.477 975.09q-0.17554 0-0.2784-0.0939-0.10286-0.0939-0.10286-0.2538 0-0.161 0.09615-0.25603 0.09727-0.095 0.28287-0.11852l0.27392-0.0347q0.03354-3e-3 0.06373-0.0112 0.03913-0.0101 0.06038-0.0403 0.02124-0.0302 0.02124-0.076v-0.0101q0-0.0961-0.07267-0.14982-0.07267-0.0548-0.20237-0.0548-0.1241 0-0.19454 0.0581-0.06932 0.057-0.08385 0.17106h-0.1856q0.01454-0.19678 0.13864-0.29517 0.1241-0.0995 0.35554-0.0995 0.21802 0 0.33206 0.095 0.11404 0.0939 0.11404 0.27504v0.65742q0 0.0302 0.01789 0.0492 0.01901 0.0179 0.05031 0.0179 0.0089 0 0.02572-2e-3 0.01789-2e-3 0.03801-7e-3v0.14535q-0.02907 0.0112-0.06149 0.0179-0.03242 7e-3 -0.05478 7e-3 -0.11404 0-0.16547-0.0626-0.03354-0.0414-0.04808-0.1174-0.02236 0.028-0.05143 0.0537-0.15094 0.13528-0.36896 0.13528zm0.41704-0.50648v-0.12969q-0.0559 0.0268-0.1241 0.0369l-0.18448 0.0268q-0.14535 0.0201-0.21243 0.0682-0.06708 0.047-0.06708 0.12857 0 0.10063 0.05478 0.15541 0.05478 0.0537 0.15541 0.0537 0.15876 0 0.26833-0.0861 0.07491-0.0604 0.09951-0.1364 0.0045-0.0145 0.0067-0.0458 0.0034-0.0324 0.0034-0.0716z"/>
<path d="m70.437 975.06v-1.1963h0.09503 0.09615v0.17666l0.04472-0.0593q0.13081-0.15317 0.32759-0.15317 0.1979 0 0.30523 0.10733t0.10733 0.30523v0.81954h-0.10063-0.10062v-0.75134q0-0.15765-0.06149-0.22696-0.06038-0.0704-0.19678-0.0704-0.14535 0-0.23032 0.11069-0.08497 0.10957-0.08497 0.2974v0.64065h-0.10062-0.10063z"/>
<path d="m72.151 975.06q-0.10286 0.0156-0.14982 0.0156-0.13193 0-0.18672-0.0581-0.05367-0.0581-0.05367-0.20013v-0.78823h-0.16547v-0.16436h0.16547v-0.33541h0.20125v0.33541h0.18895v0.16436h-0.18895v0.78823q0 0.0403 0.03131 0.0637 0.03242 0.0235 0.08609 0.0235h0.07155v0.15541z"/>
<path d="m72.834 975.09q-0.2538 0-0.39915-0.161t-0.14535-0.44499q0-0.30187 0.15317-0.47964 0.15429-0.17889 0.41368-0.17889 0.23479 0 0.37902 0.17441 0.14423 0.17442 0.14423 0.45841l-0.0022 0.0716h-0.87432q0.0123 0.17889 0.08162 0.27281 0.08497 0.11404 0.26833 0.11404 0.11516 0 0.20125-0.0648t0.1051-0.16547h0.19902q-0.04472 0.19678-0.17889 0.30076-0.13417 0.10286-0.34548 0.10286zm0.33542-0.72227q-0.0089-0.16659-0.08274-0.25939-0.08162-0.10286-0.23926-0.10286-0.15876 0-0.2538 0.11852-0.07491 0.0928-0.09056 0.24373h0.66636z"/>
<path d="m74.108 975.09q-0.2538 0-0.39915-0.161-0.14535-0.161-0.14535-0.44499 0-0.30187 0.15317-0.47964 0.15429-0.17889 0.41368-0.17889 0.23479 0 0.37902 0.17441 0.14423 0.17442 0.14423 0.45841l-0.0022 0.0716h-0.87432q0.0123 0.17889 0.08162 0.27281 0.08497 0.11404 0.26833 0.11404 0.11516 0 0.20125-0.0648 0.08609-0.0648 0.1051-0.16547h0.19901q-0.04472 0.19678-0.17889 0.30076-0.13417 0.10286-0.34548 0.10286zm0.33542-0.72227q-0.0089-0.16659-0.08274-0.25939-0.08162-0.10286-0.23926-0.10286-0.15876 0-0.2538 0.11852-0.07491 0.0928-0.09056 0.24373h0.66636z"/>
<path d="m75.352 975.09q-0.24038 0-0.38238-0.17889-0.14199-0.18001-0.14199-0.48524 0-0.26945 0.13752-0.43492t0.3589-0.16547q0.22026 0 0.34884 0.18671l0.01565 0.0224v-0.62052h0.10062 0.10063v1.6436h-0.0928-0.09392v-0.16324l-0.02572 0.0369q-0.1241 0.15876-0.32536 0.15876zm0.01118-1.0834q-0.16883 0-0.24709 0.10845-0.07826 0.10734-0.07826 0.34213 0 0.22138 0.08385 0.34101 0.08497 0.11963 0.2415 0.11963 0.14647 0 0.23591-0.10957 0.08945-0.11069 0.08945-0.29181 0-0.24486-0.08497-0.37679-0.08385-0.13305-0.24038-0.13305z"/>
<path d="m76.22 974.81h0.23926v0.24262h-0.23926v-0.24262z"/>
<path d="m44.114 977.92v-1.6436h0.11069 0.56462q0.31306 0 0.49754 0.22362 0.1856 0.22249 0.1856 0.59928 0 0.37566-0.19007 0.59816-0.18895 0.22249-0.51095 0.22249h-0.54673-0.11069zm0.22249-0.19007h0.40697q0.23926 0 0.36896-0.16435 0.13081-0.16436 0.13081-0.46623 0-0.303-0.12522-0.46735-0.12522-0.16548-0.35554-0.16548h-0.42598v1.2634z"/>
<path d="m46.22 977.95q-0.24821 0-0.4025-0.17442-0.15318-0.17442-0.15318-0.45729 0-0.28399 0.15318-0.4584 0.15429-0.17442 0.4025-0.17442 0.25045 0 0.40362 0.17442 0.15317 0.17441 0.15317 0.4584 0 0.28287-0.15317 0.45729t-0.40362 0.17442zm0-0.1733q0.15876 0 0.25268-0.12411 0.09392-0.1241 0.09392-0.3343 0-0.21019-0.09392-0.3343-0.09392-0.12522-0.25268-0.12522-0.15876 0-0.25268 0.12522-0.0928 0.12411-0.0928 0.3343 0 0.2102 0.0928 0.3343 0.09392 0.12411 0.25268 0.12411z"/>
<path d="m47.007 977.92v-1.1963h0.09504 0.09615v0.17665l0.04472-0.0593q0.13081-0.15317 0.32759-0.15317 0.1979 0 0.30523 0.10733 0.10733 0.10734 0.10733 0.30523v0.81954h-0.10062-0.10062v-0.75133q0-0.15765-0.06149-0.22697-0.06038-0.0704-0.19678-0.0704-0.14535 0-0.23032 0.11069-0.08497 0.10957-0.08497 0.2974v0.64065h-0.10063-0.10062z"/>
<path d="m48.268 976.86v-0.58251h0.16659v0.58251h-0.16659z"/>
<path d="m49.159 977.92q-0.10286 0.0157-0.14982 0.0157-0.13193 0-0.18672-0.0581-0.05367-0.0581-0.05367-0.20013v-0.78824h-0.16547v-0.16435h0.16547v-0.33542h0.20125v0.33542h0.18895v0.16435h-0.18895v0.78824q0 0.0403 0.0313 0.0637 0.03242 0.0235 0.08609 0.0235h0.07156v0.15541z"/>
<path d="m50.24 976.89v1.0297h-0.10062-0.10063v-1.0297h-0.16547v-0.16659h0.16547v-0.20349q0-0.13305 0.07827-0.20013 0.07826-0.0671 0.23479-0.0671l0.08833 3e-3v0.18112l-0.07938-3e-3q-0.05814 0-0.08945 0.038-0.03131 0.0369-0.03131 0.10622v0.14535h0.20013v0.16659h-0.20013z"/>
<path d="m51.112 977.95q-0.24821 0-0.4025-0.17442-0.15317-0.17442-0.15317-0.45729 0-0.28399 0.15317-0.4584 0.15429-0.17442 0.4025-0.17442 0.25044 0 0.40362 0.17442 0.15318 0.17441 0.15318 0.4584 0 0.28287-0.15318 0.45729-0.15317 0.17442-0.40362 0.17442zm0-0.1733q0.15876 0 0.25268-0.12411 0.09392-0.1241 0.09392-0.3343 0-0.21019-0.09392-0.3343-0.09392-0.12522-0.25268-0.12522-0.15876 0-0.25268 0.12522-0.0928 0.12411-0.0928 0.3343 0 0.2102 0.0928 0.3343 0.09392 0.12411 0.25268 0.12411z"/>
<path d="m51.927 977.92v-1.1963h0.09504 0.09615v0.2046q0.02571-0.0481 0.05479-0.0872 0.11404-0.15317 0.28063-0.15317 0.02795 0 0.05702 0.0101v0.20573l-0.04137-1e-3q-0.16324 0-0.25268 0.0984-0.08833 0.0973-0.08833 0.27839v0.64065h-0.10062-0.10063z"/>
<path d="m53.102 978.26q0.1733 0 0.26386-0.10957 0.09056-0.10845 0.09056-0.31752v-0.0391l-0.0011 1e-3q-0.1241 0.15877-0.32424 0.15877-0.24038 0-0.38238-0.17889-0.14199-0.18001-0.14199-0.48524 0-0.26945 0.13976-0.43493 0.13976-0.16547 0.3656-0.16547 0.21579 0 0.34213 0.18672l0.01454 0.0212v-0.17218h0.18895v1.108q-0.0011 0.30299-0.1364 0.44834-0.13528 0.14535-0.41592 0.14535-0.20349 0-0.32312-0.0939-0.11963-0.0939-0.14423-0.27281h0.20572q0.01789 0.0961 0.08497 0.14759 0.0682 0.0525 0.1733 0.0525zm0.03913-1.3875q-0.16883 0-0.24709 0.10734-0.07715 0.10733-0.07715 0.341 0 0.22026 0.08385 0.33989 0.08497 0.11852 0.24038 0.11852 0.14647 0 0.23591-0.10957 0.08944-0.10957 0.08944-0.28958 0-0.2538-0.08162-0.38014-0.0805-0.12746-0.24374-0.12746z"/>
<path d="m54.426 977.95q-0.2538 0-0.39915-0.161-0.14535-0.16101-0.14535-0.44499 0-0.30188 0.15317-0.47965 0.15429-0.17889 0.41368-0.17889 0.23479 0 0.37902 0.17442 0.14423 0.17441 0.14423 0.4584l-0.0022 0.0716h-0.87432q0.0123 0.17889 0.08162 0.2728 0.08497 0.11405 0.26833 0.11405 0.11516 0 0.20125-0.0648 0.08609-0.0648 0.1051-0.16547h0.19901q-0.04472 0.19677-0.17889 0.30075-0.13417 0.10287-0.34548 0.10287zm0.33542-0.72227q-0.0089-0.16659-0.08274-0.25939-0.08162-0.10286-0.23926-0.10286-0.15876 0-0.2538 0.11851-0.07491 0.0928-0.09056 0.24374h0.66636z"/>
<path d="m55.653 977.92q-0.10286 0.0157-0.14982 0.0157-0.13193 0-0.18672-0.0581-0.05367-0.0581-0.05367-0.20013v-0.78824h-0.16547v-0.16435h0.16547v-0.33542h0.20125v0.33542h0.18895v0.16435h-0.18895v0.78824q0 0.0403 0.03131 0.0637 0.03242 0.0235 0.08609 0.0235h0.07156v0.15541z"/>
<path d="m56.923 977.92q-0.10286 0.0157-0.14982 0.0157-0.13193 0-0.18672-0.0581-0.05367-0.0581-0.05367-0.20013v-0.78824h-0.16547v-0.16435h0.16547v-0.33542h0.20125v0.33542h0.18895v0.16435h-0.18895v0.78824q0 0.0403 0.03131 0.0637 0.03242 0.0235 0.08609 0.0235h0.07156v0.15541z"/>
<path d="m57.606 977.95q-0.24821 0-0.4025-0.17442-0.15317-0.17442-0.15317-0.45729 0-0.28399 0.15317-0.4584 0.15429-0.17442 0.4025-0.17442 0.25044 0 0.40362 0.17442 0.15317 0.17441 0.15317 0.4584 0 0.28287-0.15317 0.45729-0.15318 0.17442-0.40362 0.17442zm0-0.1733q0.15876 0 0.25268-0.12411 0.09392-0.1241 0.09392-0.3343 0-0.21019-0.09392-0.3343-0.09392-0.12522-0.25268-0.12522-0.15876 0-0.25268 0.12522-0.0928 0.12411-0.0928 0.3343 0 0.2102 0.0928 0.3343 0.09392 0.12411 0.25268 0.12411z"/>
<path d="m59.012 976.28h0.10062 0.10063v0.60264q0.13193-0.19343 0.34101-0.19119 0.23479 0 0.3712 0.16212 0.13752 0.161 0.13752 0.43604 0 0.31194-0.13864 0.48971-0.13752 0.17666-0.38238 0.17666-0.20237 0-0.322-0.15541l-0.01901-0.0246v0.14758h-0.18895v-1.6436zm0.5199 1.5016q0.15765 0 0.23926-0.11852 0.08162-0.11963 0.08162-0.34771 0-0.22473-0.07826-0.33207-0.07826-0.10845-0.2415-0.10845-0.16659 0-0.24374 0.12187-0.07603 0.12187-0.07603 0.38573 0 0.19119 0.08274 0.29517t0.23591 0.10398z"/>
<path d="m60.618 977.95q-0.17554 0-0.2784-0.0939-0.10286-0.0939-0.10286-0.2538 0-0.161 0.09615-0.25604 0.09727-0.095 0.28287-0.11851l0.27392-0.0347q0.03354-3e-3 0.06373-0.0112 0.03913-0.0101 0.06038-0.0403 0.02124-0.0302 0.02124-0.076v-0.0101q0-0.0962-0.07267-0.14982-0.07267-0.0548-0.20237-0.0548-0.1241 0-0.19454 0.0581-0.06932 0.057-0.08385 0.17107h-0.1856q0.01454-0.19678 0.13864-0.29517 0.1241-0.0995 0.35554-0.0995 0.21802 0 0.33206 0.095 0.11404 0.0939 0.11404 0.27505v0.65742q0 0.0302 0.01789 0.0492 0.01901 0.0179 0.05031 0.0179 0.0089 0 0.02572-2e-3 0.01789-2e-3 0.03801-7e-3v0.14534q-0.02907 0.0112-0.06149 0.0179-0.03242 7e-3 -0.05479 7e-3 -0.11404 0-0.16547-0.0626-0.03354-0.0414-0.04808-0.1174-0.02236 0.028-0.05143 0.0537-0.15094 0.13529-0.36896 0.13529zm0.41704-0.50649v-0.12969q-0.0559 0.0268-0.1241 0.0369l-0.18448 0.0268q-0.14535 0.0201-0.21243 0.0682-0.06708 0.047-0.06708 0.12858 0 0.10062 0.05479 0.15541 0.05479 0.0537 0.15541 0.0537 0.15876 0 0.26834-0.0861 0.07491-0.0604 0.09951-0.1364 0.0045-0.0145 0.0067-0.0458 0.0034-0.0324 0.0034-0.0716z"/>
<path d="m62.521 977.49q-0.03131 0.22585-0.15988 0.34436-0.12858 0.11852-0.34213 0.11852-0.23815 0-0.38014-0.17107-0.14199-0.17106-0.14199-0.46064t0.14647-0.46064q0.14758-0.17218 0.39579-0.17218 0.21578 0 0.34436 0.11851 0.12858 0.1174 0.13752 0.32424h-0.19342q-0.0123-0.12858-0.08944-0.19901-0.07715-0.0704-0.20572-0.0704-0.15206 0-0.23926 0.12299-0.08609 0.12186-0.08609 0.33653 0 0.22809 0.0805 0.34325t0.23926 0.11516q0.1174 0 0.19566-0.0749 0.07938-0.076 0.1051-0.21467h0.19342z"/>
<path d="m62.727 977.92v-1.6436h0.10062 0.10062v0.947l0.50536-0.49977h0.12746 0.12858l-0.45505 0.44387 0.48524 0.75245h-0.13081-0.13193l-0.3712-0.60822-0.15765 0.15429v0.45393h-0.10062-0.10062z"/>
<path d="m64.075 976.72v0.77146q0 0.15094 0.05814 0.21802 0.05814 0.066 0.18895 0.066 0.14535 0 0.23032-0.11181 0.08497-0.11292 0.08497-0.30523v-0.63841h0.10062 0.10062v1.1963h-0.09503-0.09615v-0.18224q-0.02013 0.0324-0.04472 0.0615-0.12858 0.15318-0.322 0.15318-0.20349 0-0.30523-0.10175-0.10174-0.10174-0.10174-0.30523v-0.82177h0.10063 0.10062z"/>
<path d="m65.126 976.72h0.09504 0.09615v0.16994l0.01006-0.0145q0.1297-0.19119 0.34101-0.19119 0.23479 0 0.3712 0.16212 0.13752 0.161 0.13752 0.43604 0 0.31194-0.13864 0.48971-0.13752 0.17666-0.38238 0.17666-0.20237 0-0.322-0.15541l-0.0067-9e-3v0.60487h-0.10063-0.10062v-1.6693zm0.5199 1.0543q0.15765 0 0.23926-0.11852 0.08162-0.11963 0.08162-0.34771 0-0.22473-0.07826-0.33207-0.07826-0.10845-0.2415-0.10845-0.16659 0-0.24374 0.12187-0.07603 0.12187-0.07603 0.38573 0 0.19119 0.08274 0.29517t0.23591 0.10398z"/>
<path d="m68.022 976.72-0.45505 1.2354q-0.1051 0.27617-0.18783 0.36114-0.08162 0.085-0.24597 0.085-0.05367 1e-3 -0.09727-0.0123v-0.18671q0.04584 0.0168 0.11516 0.0179 0.0682 0 0.11404-0.0559 0.04584-0.0559 0.10398-0.20908l0.0034-0.019-0.44387-1.2164h0.11404 0.11516l0.31976 0.98948 0.32424-0.98948h0.10957 0.11069z"/>
<path d="m68.684 977.95q-0.24821 0-0.4025-0.17442-0.15318-0.17442-0.15318-0.45729 0-0.28399 0.15318-0.4584 0.15429-0.17442 0.4025-0.17442 0.25045 0 0.40362 0.17442 0.15317 0.17441 0.15317 0.4584 0 0.28287-0.15317 0.45729t-0.40362 0.17442zm0-0.1733q0.15876 0 0.25268-0.12411 0.09392-0.1241 0.09392-0.3343 0-0.21019-0.09392-0.3343-0.09392-0.12522-0.25268-0.12522-0.15876 0-0.25268 0.12522-0.0928 0.12411-0.0928 0.3343 0 0.2102 0.0928 0.3343 0.09392 0.12411 0.25268 0.12411z"/>
<path d="m69.679 976.72v0.77146q0 0.15094 0.05814 0.21802 0.05814 0.066 0.18895 0.066 0.14535 0 0.23032-0.11181 0.08497-0.11292 0.08497-0.30523v-0.63841h0.10063 0.10062v1.1963h-0.09503-0.09615v-0.18224q-0.02013 0.0324-0.04472 0.0615-0.12858 0.15318-0.322 0.15318-0.20349 0-0.30523-0.10175-0.10174-0.10174-0.10174-0.30523v-0.82177h0.10063 0.10062z"/>
<path d="m70.773 977.92v-1.1963h0.09504 0.09615v0.2046q0.02572-0.0481 0.05478-0.0872 0.11404-0.15317 0.28063-0.15317 0.02795 0 0.05702 0.0101v0.20573l-0.04137-1e-3q-0.16324 0-0.25268 0.0984-0.08833 0.0973-0.08833 0.27839v0.64065h-0.10063-0.10062z"/>
<path d="m72.601 977.95q-0.24038 0-0.38238-0.17889-0.14199-0.18001-0.14199-0.48524 0-0.26945 0.13752-0.43493 0.13752-0.16547 0.3589-0.16547 0.22026 0 0.34884 0.18672l0.01565 0.0224v-0.62053h0.10062 0.10063v1.6436h-0.0928-0.09392v-0.16323l-0.02572 0.0369q-0.1241 0.15877-0.32536 0.15877zm0.01118-1.0834q-0.16883 0-0.24709 0.10845-0.07826 0.10733-0.07826 0.34212 0 0.22138 0.08385 0.34101 0.08497 0.11963 0.2415 0.11963 0.14647 0 0.23591-0.10957 0.08944-0.11068 0.08944-0.29181 0-0.24485-0.08497-0.37679-0.08385-0.13304-0.24038-0.13304z"/>
<path d="m73.735 977.95q-0.17554 0-0.2784-0.0939-0.10286-0.0939-0.10286-0.2538 0-0.161 0.09615-0.25604 0.09727-0.095 0.28287-0.11851l0.27392-0.0347q0.03354-3e-3 0.06373-0.0112 0.03913-0.0101 0.06037-0.0403t0.02124-0.076v-0.0101q0-0.0962-0.07267-0.14982-0.07267-0.0548-0.20237-0.0548-0.1241 0-0.19454 0.0581-0.06932 0.057-0.08385 0.17107h-0.1856q0.01453-0.19678 0.13864-0.29517 0.1241-0.0995 0.35554-0.0995 0.21802 0 0.33206 0.095 0.11404 0.0939 0.11404 0.27505v0.65742q0 0.0302 0.01789 0.0492 0.01901 0.0179 0.05031 0.0179 0.0089 0 0.02571-2e-3 0.01789-2e-3 0.03801-7e-3v0.14534q-0.02907 0.0112-0.06149 0.0179-0.03242 7e-3 -0.05478 7e-3 -0.11404 0-0.16547-0.0626-0.03354-0.0414-0.04808-0.1174-0.02236 0.028-0.05143 0.0537-0.15094 0.13529-0.36896 0.13529zm0.41704-0.50649v-0.12969q-0.0559 0.0268-0.1241 0.0369l-0.18448 0.0268q-0.14535 0.0201-0.21243 0.0682-0.06708 0.047-0.06708 0.12858 0 0.10062 0.05479 0.15541 0.05478 0.0537 0.15541 0.0537 0.15876 0 0.26833-0.0861 0.07491-0.0604 0.09951-0.1364 0.0045-0.0145 0.0067-0.0458 0.0034-0.0324 0.0034-0.0716z"/>
<path d="m75.134 977.92q-0.10286 0.0157-0.14982 0.0157-0.13193 0-0.18672-0.0581-0.05367-0.0581-0.05367-0.20013v-0.78824h-0.16547v-0.16435h0.16547v-0.33542h0.20125v0.33542h0.18895v0.16435h-0.18895v0.78824q0 0.0403 0.03131 0.0637 0.03242 0.0235 0.08609 0.0235h0.07156v0.15541z"/>
<path d="m75.645 977.95q-0.17554 0-0.2784-0.0939-0.10286-0.0939-0.10286-0.2538 0-0.161 0.09615-0.25604 0.09727-0.095 0.28287-0.11851l0.27392-0.0347q0.03354-3e-3 0.06373-0.0112 0.03913-0.0101 0.06038-0.0403 0.02124-0.0302 0.02124-0.076v-0.0101q0-0.0962-0.07267-0.14982-0.07267-0.0548-0.20237-0.0548-0.1241 0-0.19454 0.0581-0.06932 0.057-0.08385 0.17107h-0.1856q0.01453-0.19678 0.13864-0.29517 0.1241-0.0995 0.35554-0.0995 0.21802 0 0.33206 0.095 0.11404 0.0939 0.11404 0.27505v0.65742q0 0.0302 0.01789 0.0492 0.01901 0.0179 0.05031 0.0179 0.0089 0 0.02572-2e-3 0.01789-2e-3 0.03801-7e-3v0.14534q-0.02907 0.0112-0.06149 0.0179-0.03242 7e-3 -0.05478 7e-3 -0.11404 0-0.16547-0.0626-0.03354-0.0414-0.04808-0.1174-0.02236 0.028-0.05143 0.0537-0.15094 0.13529-0.36896 0.13529zm0.41704-0.50649v-0.12969q-0.0559 0.0268-0.1241 0.0369l-0.18448 0.0268q-0.14535 0.0201-0.21243 0.0682-0.06708 0.047-0.06708 0.12858 0 0.10062 0.05478 0.15541 0.05478 0.0537 0.15541 0.0537 0.15876 0 0.26833-0.0861 0.07491-0.0604 0.09951-0.1364 0.0045-0.0145 0.0067-0.0458 0.0034-0.0324 0.0034-0.0716z"/>
<path d="m76.654 977.68h0.23926v0.24262h-0.23926v-0.24262z"/>
</g>
</g>
<path d="m6 1035.4v1c0 5.54 4.46 10 10 10h64c5.54 0 10-4.46 10-10v-1c0 5.54-4.46 10-10 10h-64c-5.54 0-10-4.46-10-10z" fill="#464646"/>
<path d="m45 1035.4v11h2.75v-11zm4 0v11h2.75v-11zm4 0v11h2.75v-11zm4 0v11h2.75v-11zm4 0v11h2.75v-11zm4 0v11h2.75v-11zm4 0v11h2.75v-11z" fill="url(#linearGradient4462)"/>
<path d="m6 1025.4v1c0 5.54 4.46 10 10 10h64c5.54 0 10-4.46 10-10v-1c0 5.54-4.46 10-10 10h-64c-5.54 0-10-4.46-10-10z" fill="#808080" opacity=".7"/>
<path d="m12 996.36a2 2 0 0 0-2 2 2 2 0 0 0 0.06445 0.5039 2 2 0 0 1 1.9355-1.5039 2 2 0 0 1 1.9355 1.4961 2 2 0 0 0 0.06445-0.4961 2 2 0 0 0-2-2z" fill="#aababe"/>
</g>
</svg>
