<svg width="128" height="128" version="1.1" viewBox="0 0 33.867 33.867" xmlns="http://www.w3.org/2000/svg" xmlns:xlink="http://www.w3.org/1999/xlink">
<defs>
<linearGradient id="linearGradient2091" x1="14.672" x2="14.672" y1="31.189" y2="3.9822" gradientTransform="translate(-.01947 .010429)" gradientUnits="userSpaceOnUse">
<stop stop-color="#ffa31e" offset="0"/>
<stop stop-color="#ffdb5a" offset="1"/>
</linearGradient>
<linearGradient id="linearGradient1006" x1="5.8412" x2="5.8412" y1="17.235" y2="52.951" gradientUnits="userSpaceOnUse">
<stop stop-color="#fff" offset="0"/>
<stop stop-color="#ffac27" offset="1"/>
</linearGradient>
</defs>
<g transform="matrix(.97573 0 0 .97573 -65.768 -37.193)" fill="none" opacity=".295" stroke="#000" stroke-linecap="round" stroke-linejoin="round" stroke-opacity=".02">
<rect x="69.84" y="40.71" width="29.811" height="29.811" rx="6.6099" ry="6.6099" stroke-width=".1"/>
<rect x="69.84" y="40.71" width="29.811" height="29.811" rx="6.6099" ry="6.6099" stroke-width=".2"/>
<rect x="69.84" y="40.71" width="29.811" height="29.811" rx="6.6099" ry="6.6099" stroke-width=".3"/>
<rect x="69.84" y="40.71" width="29.811" height="29.811" rx="6.6099" ry="6.6099" stroke-width=".4"/>
<rect x="69.84" y="40.71" width="29.811" height="29.811" rx="6.6099" ry="6.6099" stroke-width=".5"/>
<rect x="69.84" y="40.71" width="29.811" height="29.811" rx="6.6099" ry="6.6099" stroke-width=".6"/>
<rect x="69.84" y="40.71" width="29.811" height="29.811" rx="6.6099" ry="6.6099" stroke-width=".7"/>
<rect x="69.84" y="40.71" width="29.811" height="29.811" rx="6.6099" ry="6.6099" stroke-width=".8"/>
<rect x="69.84" y="40.71" width="29.811" height="29.811" rx="6.6099" ry="6.6099"/>
<rect x="69.84" y="40.71" width="29.811" height="29.811" rx="6.6099" ry="6.6099" stroke-width="1.2"/>
<rect x="69.84" y="40.71" width="29.811" height="29.811" rx="6.6099" ry="6.6099" stroke-width="1.4"/>
<rect x="69.84" y="40.71" width="29.811" height="29.811" rx="6.6099" ry="6.6099" stroke-width="1.6"/>
<rect x="69.84" y="40.71" width="29.811" height="29.811" rx="6.6099" ry="6.6099" stroke-width="1.8"/>
<rect x="69.84" y="40.71" width="29.811" height="29.811" rx="6.6099" ry="6.6099" stroke-width="2"/>
<rect x="69.84" y="40.71" width="29.811" height="29.811" rx="6.6099" ry="6.6099" stroke-width="2.2"/>
<rect x="69.84" y="40.71" width="29.811" height="29.811" rx="6.6099" ry="6.6099" stroke-width="2.6"/>
<rect x="69.84" y="40.71" width="29.811" height="29.811" rx="6.6099" ry="6.6099" stroke-width="3"/>
<rect x="69.84" y="40.71" width="29.811" height="29.811" rx="6.6099" ry="6.6099" stroke-width="3.4"/>
<rect x="69.84" y="40.71" width="29.811" height="29.811" rx="6.6099" ry="6.6099" stroke-width="3.8"/>
<rect x="69.84" y="40.71" width="29.811" height="29.811" rx="6.6099" ry="6.6099" stroke-width="4.2"/>
<rect x="69.84" y="40.71" width="29.811" height="29.811" rx="6.6099" ry="6.6099" stroke-width="4.6"/>
<rect x="69.84" y="40.71" width="29.811" height="29.811" rx="6.6099" ry="6.6099" stroke-width="5"/>
</g>
<rect x="2.3768" y="2.529" width="29.087" height="29.087" rx="6.4495" ry="6.4495" fill="url(#linearGradient2091)" stroke-linecap="round" stroke-linejoin="round" stroke-width="2.688"/>
<g fill="#180000" fill-opacity=".051888" opacity=".22404" stroke-width=".36427">
<path d="m16.132 7.442c-1.4886-0.022358-2.7597 1.2183-2.7733 2.7071v7.29e-4l-0.0036 0.44395c-1.8686 0.7765-3.3533 2.2601-4.13 4.1286l-0.45178 0.0036h-0.00217c-1.4888 0.0135-2.7294 1.2847-2.7071 2.7732v0.001456c0.063604 4.1817 2.0391 7.0436 4.0624 8.5304 1.9979 1.4682 4.0705 1.7666 4.0852 1.7687 0.72161 0.10846 1.5903-0.11646 2.1593-0.59264 0.2749-0.23006 0.47809-0.49555 0.63178-0.77549 0.22787 0.41381 0.53009 0.80074 1.011 1.07 0.65294 0.36564 1.5578 0.41765 2.2489 0.17217 0.0988-0.02865 2.0823-0.61088 3.7565-2.2767 1.6898-1.6814 2.2721-3.7091 2.293-3.7828 0.19759-0.572 0.12071-1.1433-0.0619-1.6819 0.13353-0.31885 0.21273-0.66404 0.21273-1.0252 0-0.2567-0.08195-0.49111-0.15154-0.72853 0.06959-0.23742 0.15154-0.47183 0.15154-0.72854 0-0.23389-0.07986-0.44552-0.13802-0.66379 0.11744-0.39829 0.16484-0.81469 0.10743-1.1967-0.0021-0.01475-0.30053-2.0873-1.7687-4.0852-1.4868-2.0233-4.3487-3.9988-8.5304-4.0625zm-0.03273 2.1856c3.5546 0.053666 5.6624 1.6179 6.8037 3.171 1.1413 1.5531 1.3688 3.1155 1.3688 3.1155a0.54646 0.54646 0 1 1-1.0814 0.15794s-0.19032-1.296-1.1682-2.6267c-0.91569-1.2461-2.5274-2.4633-5.39-2.6587l-0.01212 1.3945a5.464 5.464 0 0 1 5.1076 5.4512 5.464 5.464 0 0 1-5.464 5.464 5.464 5.464 0 0 1-5.4462-5.109l-1.4094 0.01212c0.19523 2.8631 1.4132 4.4742 2.6594 5.39 1.3307 0.97789 2.6267 1.1682 2.6267 1.1682a0.54646 0.54646 0 1 1-0.15794 1.0814s-1.5624-0.22755-3.1155-1.3688c-1.5531-1.1413-3.1173-3.2491-3.171-6.8037a0.54646 0.54646 0 0 1 0.54142-0.55494l2.0647-0.01707a5.464 5.464 0 0 1 4.6707-4.67l0.01779-2.0554a0.54646 0.54646 0 0 1 0.55494-0.54142zm0.16435 4.362a3.6427 3.6427 0 0 0-3.6427 3.6427 3.6427 3.6427 0 0 0 3.6427 3.6427 3.6427 3.6427 0 0 0 3.6427-3.6427 3.6427 3.6427 0 0 0-3.6427-3.6427zm0 0.72854a2.9141 2.9141 0 0 1 2.9141 2.9141 2.9141 2.9141 0 0 1-2.9141 2.9141 2.9141 2.9141 0 0 1-2.9141-2.9141 2.9141 2.9141 0 0 1 2.9141-2.9141zm0 1.0928a1.8213 1.8213 0 0 0-1.8213 1.8213 1.8213 1.8213 0 0 0 1.8213 1.8213 1.8213 1.8213 0 0 0 1.8213-1.8213 1.8213 1.8213 0 0 0-1.8213-1.8213zm0 0.36427a1.4571 1.4571 0 0 1 1.4571 1.4571 1.4571 1.4571 0 0 1-1.4571 1.4571 1.4571 1.4571 0 0 1-1.4571-1.4571 1.4571 1.4571 0 0 1 1.4571-1.4571zm0 0.36427a1.0928 1.0928 0 0 0-1.0928 1.0928 1.0928 1.0928 0 0 0 1.0928 1.0928 1.0928 1.0928 0 0 0 1.0928-1.0928 1.0928 1.0928 0 0 0-1.0928-1.0928zm7.4675 0.36427a0.5464 0.5464 0 0 1 0.5464 0.5464 0.5464 0.5464 0 0 1-0.5464 0.5464 0.5464 0.5464 0 0 1-0.5464-0.5464 0.5464 0.5464 0 0 1 0.5464-0.5464zm0 1.4571a0.5464 0.5464 0 0 1 0.5464 0.5464 0.5464 0.5464 0 0 1-0.5464 0.5464 0.5464 0.5464 0 0 1-0.5464-0.5464 0.5464 0.5464 0 0 1 0.5464-0.5464zm0.0072 1.8142a0.54646 0.54646 0 0 1 0.51083 0.72711s-0.55583 1.7358-1.7715 2.9454c-1.225 1.2188-2.944 1.7701-2.944 1.7701a0.54646 0.54646 0 1 1-0.3472-1.0359s1.5502-0.54339 2.52-1.5083c0.95209-0.94732 1.5069-2.5186 1.5069-2.5186a0.54646 0.54646 0 0 1 0.52506-0.37992z"/>
<path d="m16.369 7.7437c-1.4886-0.022358-2.7597 1.2183-2.7733 2.7071v7.29e-4l-0.0036 0.44395c-1.8686 0.7765-3.3533 2.2601-4.13 4.1286l-0.45178 0.0036h-0.00217c-1.4888 0.0135-2.7294 1.2847-2.7071 2.7732v0.001456c0.063604 4.1817 2.0391 7.0436 4.0624 8.5304 1.9979 1.4682 4.0705 1.7666 4.0852 1.7687 0.72161 0.10846 1.5903-0.11646 2.1593-0.59264 0.2749-0.23006 0.47809-0.49555 0.63178-0.77549 0.22787 0.41381 0.53009 0.80074 1.011 1.07 0.65294 0.36564 1.5578 0.41765 2.2489 0.17217 0.0988-0.02865 2.0823-0.61088 3.7565-2.2767 1.6898-1.6814 2.2721-3.7091 2.293-3.7828 0.19759-0.572 0.12071-1.1433-0.0619-1.6819 0.13353-0.31885 0.21273-0.66404 0.21273-1.0252 0-0.2567-0.08195-0.49111-0.15154-0.72853 0.06959-0.23742 0.15154-0.47183 0.15154-0.72854 0-0.23389-0.07986-0.44552-0.13802-0.66379 0.11744-0.39829 0.16484-0.81469 0.10743-1.1967-0.0021-0.01475-0.30053-2.0873-1.7687-4.0852-1.4868-2.0233-4.3487-3.9988-8.5304-4.0625zm-0.03273 2.1856c3.5546 0.053666 5.6624 1.6179 6.8037 3.171 1.1413 1.5531 1.3688 3.1155 1.3688 3.1155a0.54646 0.54646 0 1 1-1.0814 0.15794s-0.19032-1.296-1.1682-2.6267c-0.91569-1.2461-2.5274-2.4633-5.39-2.6587l-0.01212 1.3945a5.464 5.464 0 0 1 5.1076 5.4512 5.464 5.464 0 0 1-5.464 5.464 5.464 5.464 0 0 1-5.4462-5.109l-1.4094 0.01212c0.19523 2.8631 1.4132 4.4742 2.6594 5.39 1.3307 0.97789 2.6267 1.1682 2.6267 1.1682a0.54646 0.54646 0 1 1-0.15794 1.0814s-1.5624-0.22755-3.1155-1.3688-3.1173-3.2491-3.171-6.8037a0.54646 0.54646 0 0 1 0.54142-0.55494l2.0647-0.01707a5.464 5.464 0 0 1 4.6707-4.67l0.01779-2.0554a0.54646 0.54646 0 0 1 0.55494-0.54142zm0.16435 4.362a3.6427 3.6427 0 0 0-3.6427 3.6427 3.6427 3.6427 0 0 0 3.6427 3.6427 3.6427 3.6427 0 0 0 3.6427-3.6427 3.6427 3.6427 0 0 0-3.6427-3.6427zm0 0.72854a2.9141 2.9141 0 0 1 2.9141 2.9141 2.9141 2.9141 0 0 1-2.9141 2.9141 2.9141 2.9141 0 0 1-2.9141-2.9141 2.9141 2.9141 0 0 1 2.9141-2.9141zm0 1.0928a1.8213 1.8213 0 0 0-1.8213 1.8213 1.8213 1.8213 0 0 0 1.8213 1.8213 1.8213 1.8213 0 0 0 1.8213-1.8213 1.8213 1.8213 0 0 0-1.8213-1.8213zm0 0.36427a1.4571 1.4571 0 0 1 1.4571 1.4571 1.4571 1.4571 0 0 1-1.4571 1.4571 1.4571 1.4571 0 0 1-1.4571-1.4571 1.4571 1.4571 0 0 1 1.4571-1.4571zm0 0.36427a1.0928 1.0928 0 0 0-1.0928 1.0928 1.0928 1.0928 0 0 0 1.0928 1.0928 1.0928 1.0928 0 0 0 1.0928-1.0928 1.0928 1.0928 0 0 0-1.0928-1.0928zm7.4675 0.36427a0.5464 0.5464 0 0 1 0.5464 0.5464 0.5464 0.5464 0 0 1-0.5464 0.5464 0.5464 0.5464 0 0 1-0.5464-0.5464 0.5464 0.5464 0 0 1 0.5464-0.5464zm0 1.4571a0.5464 0.5464 0 0 1 0.5464 0.5464 0.5464 0.5464 0 0 1-0.5464 0.5464 0.5464 0.5464 0 0 1-0.5464-0.5464 0.5464 0.5464 0 0 1 0.5464-0.5464zm0.0072 1.8142a0.54646 0.54646 0 0 1 0.51083 0.72711s-0.55583 1.7358-1.7715 2.9454c-1.225 1.2188-2.944 1.7701-2.944 1.7701a0.54646 0.54646 0 1 1-0.3472-1.0359s1.5502-0.54339 2.52-1.5083c0.95209-0.94732 1.5069-2.5186 1.5069-2.5186a0.54646 0.54646 0 0 1 0.52506-0.37992z"/>
<path d="m16.503 7.919c-1.4886-0.022358-2.7597 1.2183-2.7733 2.7071v7.29e-4l-0.0036 0.44395c-1.8686 0.7765-3.3533 2.2601-4.13 4.1286l-0.45178 0.0036h-0.00217c-1.4888 0.0135-2.7294 1.2847-2.7071 2.7732v0.001456c0.063604 4.1817 2.0391 7.0436 4.0624 8.5304 1.9979 1.4682 4.0705 1.7666 4.0852 1.7687 0.72161 0.10846 1.5903-0.11646 2.1593-0.59264 0.2749-0.23006 0.47809-0.49555 0.63178-0.77549 0.22787 0.41381 0.53009 0.80074 1.011 1.07 0.65294 0.36564 1.5578 0.41765 2.2489 0.17217 0.0988-0.02865 2.0823-0.61088 3.7565-2.2767 1.6898-1.6814 2.2721-3.7091 2.293-3.7828 0.19759-0.572 0.12071-1.1433-0.0619-1.6819 0.13353-0.31885 0.21273-0.66404 0.21273-1.0252 0-0.2567-0.08195-0.49111-0.15154-0.72853 0.06959-0.23742 0.15154-0.47183 0.15154-0.72854 0-0.23389-0.07986-0.44552-0.13802-0.66379 0.11744-0.39829 0.16484-0.81469 0.10743-1.1967-0.0021-0.01475-0.30053-2.0873-1.7687-4.0852-1.4868-2.0233-4.3487-3.9988-8.5304-4.0625zm-0.03273 2.1856c3.5546 0.05367 5.6624 1.6179 6.8037 3.171 1.1413 1.5531 1.3688 3.1155 1.3688 3.1155a0.54646 0.54646 0 1 1-1.0814 0.15794s-0.19032-1.296-1.1682-2.6267c-0.91569-1.2461-2.5274-2.4633-5.39-2.6587l-0.01212 1.3945a5.464 5.464 0 0 1 5.1076 5.4512 5.464 5.464 0 0 1-5.464 5.464 5.464 5.464 0 0 1-5.4462-5.109l-1.4094 0.01212c0.19523 2.8631 1.4132 4.4742 2.6594 5.39 1.3307 0.97789 2.6267 1.1682 2.6267 1.1682a0.54646 0.54646 0 1 1-0.15794 1.0814s-1.5624-0.22755-3.1155-1.3688-3.1173-3.2491-3.171-6.8037a0.54646 0.54646 0 0 1 0.54142-0.55494l2.0647-0.01707a5.464 5.464 0 0 1 4.6707-4.67l0.01779-2.0554a0.54646 0.54646 0 0 1 0.55494-0.54142zm0.16435 4.362a3.6427 3.6427 0 0 0-3.6427 3.6427 3.6427 3.6427 0 0 0 3.6427 3.6427 3.6427 3.6427 0 0 0 3.6427-3.6427 3.6427 3.6427 0 0 0-3.6427-3.6427zm0 0.72854a2.9141 2.9141 0 0 1 2.9141 2.9141 2.9141 2.9141 0 0 1-2.9141 2.9141 2.9141 2.9141 0 0 1-2.9141-2.9141 2.9141 2.9141 0 0 1 2.9141-2.9141zm0 1.0928a1.8213 1.8213 0 0 0-1.8213 1.8213 1.8213 1.8213 0 0 0 1.8213 1.8213 1.8213 1.8213 0 0 0 1.8213-1.8213 1.8213 1.8213 0 0 0-1.8213-1.8213zm0 0.36427a1.4571 1.4571 0 0 1 1.4571 1.4571 1.4571 1.4571 0 0 1-1.4571 1.4571 1.4571 1.4571 0 0 1-1.4571-1.4571 1.4571 1.4571 0 0 1 1.4571-1.4571zm0 0.36427a1.0928 1.0928 0 0 0-1.0928 1.0928 1.0928 1.0928 0 0 0 1.0928 1.0928 1.0928 1.0928 0 0 0 1.0928-1.0928 1.0928 1.0928 0 0 0-1.0928-1.0928zm7.4675 0.36427a0.5464 0.5464 0 0 1 0.5464 0.5464 0.5464 0.5464 0 0 1-0.5464 0.5464 0.5464 0.5464 0 0 1-0.5464-0.5464 0.5464 0.5464 0 0 1 0.5464-0.5464zm0 1.4571a0.5464 0.5464 0 0 1 0.5464 0.5464 0.5464 0.5464 0 0 1-0.5464 0.5464 0.5464 0.5464 0 0 1-0.5464-0.5464 0.5464 0.5464 0 0 1 0.5464-0.5464zm0.0072 1.8142a0.54646 0.54646 0 0 1 0.51083 0.72711s-0.55583 1.7358-1.7715 2.9454c-1.225 1.2188-2.944 1.7701-2.944 1.7701a0.54646 0.54646 0 1 1-0.3472-1.0359s1.5502-0.54339 2.52-1.5083c0.95209-0.94732 1.5069-2.5186 1.5069-2.5186a0.54646 0.54646 0 0 1 0.52506-0.37992z"/>
<path d="m16.59 8.0138c-1.4886-0.022358-2.7597 1.2183-2.7733 2.7071v7.29e-4l-0.0036 0.44395c-1.8686 0.7765-3.3533 2.2601-4.13 4.1286l-0.45178 0.0036h-0.00217c-1.4888 0.0135-2.7294 1.2847-2.7071 2.7732v0.001456c0.063604 4.1817 2.0391 7.0436 4.0624 8.5304 1.9979 1.4682 4.0705 1.7666 4.0852 1.7687 0.72161 0.10846 1.5903-0.11646 2.1593-0.59264 0.2749-0.23006 0.47809-0.49555 0.63178-0.77549 0.22787 0.41381 0.53009 0.80074 1.011 1.07 0.65294 0.36564 1.5578 0.41765 2.2489 0.17217 0.0988-0.02865 2.0823-0.61088 3.7565-2.2767 1.6898-1.6814 2.2721-3.7091 2.293-3.7828 0.19759-0.572 0.12071-1.1433-0.0619-1.6819 0.13353-0.31885 0.21273-0.66404 0.21273-1.0252 0-0.2567-0.08195-0.49111-0.15154-0.72853 0.06959-0.23742 0.15154-0.47183 0.15154-0.72854 0-0.23389-0.07986-0.44552-0.13802-0.66379 0.11744-0.39829 0.16484-0.81469 0.10743-1.1967-0.0021-0.01475-0.30053-2.0873-1.7687-4.0852-1.4868-2.0233-4.3487-3.9988-8.5304-4.0625zm-0.03273 2.1856c3.5546 0.05367 5.6624 1.6179 6.8037 3.171 1.1413 1.5531 1.3688 3.1155 1.3688 3.1155a0.54646 0.54646 0 1 1-1.0814 0.15794s-0.19032-1.296-1.1682-2.6267c-0.91569-1.2461-2.5274-2.4633-5.39-2.6587l-0.01212 1.3945a5.464 5.464 0 0 1 5.1076 5.4512 5.464 5.464 0 0 1-5.464 5.464 5.464 5.464 0 0 1-5.4462-5.109l-1.4094 0.01212c0.19523 2.8631 1.4132 4.4742 2.6594 5.39 1.3307 0.97789 2.6267 1.1682 2.6267 1.1682a0.54646 0.54646 0 1 1-0.15794 1.0814s-1.5624-0.22755-3.1155-1.3688-3.1173-3.2491-3.171-6.8037a0.54646 0.54646 0 0 1 0.54142-0.55494l2.0647-0.01707a5.464 5.464 0 0 1 4.6707-4.67l0.01779-2.0554a0.54646 0.54646 0 0 1 0.55494-0.54142zm0.16435 4.362a3.6427 3.6427 0 0 0-3.6427 3.6427 3.6427 3.6427 0 0 0 3.6427 3.6427 3.6427 3.6427 0 0 0 3.6427-3.6427 3.6427 3.6427 0 0 0-3.6427-3.6427zm0 0.72854a2.9141 2.9141 0 0 1 2.9141 2.9141 2.9141 2.9141 0 0 1-2.9141 2.9141 2.9141 2.9141 0 0 1-2.9141-2.9141 2.9141 2.9141 0 0 1 2.9141-2.9141zm0 1.0928a1.8213 1.8213 0 0 0-1.8213 1.8213 1.8213 1.8213 0 0 0 1.8213 1.8213 1.8213 1.8213 0 0 0 1.8213-1.8213 1.8213 1.8213 0 0 0-1.8213-1.8213zm0 0.36427a1.4571 1.4571 0 0 1 1.4571 1.4571 1.4571 1.4571 0 0 1-1.4571 1.4571 1.4571 1.4571 0 0 1-1.4571-1.4571 1.4571 1.4571 0 0 1 1.4571-1.4571zm0 0.36427a1.0928 1.0928 0 0 0-1.0928 1.0928 1.0928 1.0928 0 0 0 1.0928 1.0928 1.0928 1.0928 0 0 0 1.0928-1.0928 1.0928 1.0928 0 0 0-1.0928-1.0928zm7.4675 0.36427a0.5464 0.5464 0 0 1 0.5464 0.5464 0.5464 0.5464 0 0 1-0.5464 0.5464 0.5464 0.5464 0 0 1-0.5464-0.5464 0.5464 0.5464 0 0 1 0.5464-0.5464zm0 1.4571a0.5464 0.5464 0 0 1 0.5464 0.5464 0.5464 0.5464 0 0 1-0.5464 0.5464 0.5464 0.5464 0 0 1-0.5464-0.5464 0.5464 0.5464 0 0 1 0.5464-0.5464zm0.0072 1.8142a0.54646 0.54646 0 0 1 0.51083 0.72711s-0.55583 1.7358-1.7715 2.9454c-1.225 1.2188-2.944 1.7701-2.944 1.7701a0.54646 0.54646 0 1 1-0.3472-1.0359s1.5502-0.54339 2.52-1.5083c0.95209-0.94732 1.5069-2.5186 1.5069-2.5186a0.54646 0.54646 0 0 1 0.52506-0.37992z"/>
</g>
<path d="m15.909 7.043c-1.4886-0.022358-2.7597 1.2183-2.7733 2.7071v7.29e-4l-0.0036 0.44395c-1.8686 0.7765-3.3533 2.2601-4.13 4.1286l-0.45178 0.0036h-0.00217c-1.4888 0.0135-2.7294 1.2847-2.7071 2.7732v0.001456c0.063604 4.1817 2.0391 7.0436 4.0624 8.5304 1.9979 1.4682 4.0705 1.7666 4.0852 1.7687 0.72161 0.10846 1.5903-0.11646 2.1593-0.59264 0.2749-0.23006 0.47809-0.49555 0.63178-0.77549 0.22787 0.41381 0.53009 0.80074 1.011 1.07 0.65294 0.36564 1.5578 0.41765 2.2489 0.17217 0.0988-0.02865 2.0823-0.61088 3.7565-2.2767 1.6898-1.6814 2.2721-3.7091 2.293-3.7828 0.19759-0.572 0.12071-1.1433-0.0619-1.6819 0.13353-0.31885 0.21273-0.66404 0.21273-1.0252 0-0.2567-0.08195-0.49111-0.15154-0.72853 0.06959-0.23742 0.15154-0.47183 0.15154-0.72854 0-0.23389-0.07986-0.44552-0.13802-0.66379 0.11744-0.39829 0.16484-0.81469 0.10743-1.1967-0.0021-0.01475-0.30053-2.0873-1.7687-4.0852-1.4868-2.0233-4.3487-3.9988-8.5304-4.0625zm-0.03273 2.1856c3.5546 0.053666 5.6624 1.6179 6.8037 3.171 1.1413 1.5531 1.3688 3.1155 1.3688 3.1155a0.54646 0.54646 0 1 1-1.0814 0.15794s-0.19032-1.296-1.1682-2.6267c-0.91569-1.2461-2.5274-2.4633-5.39-2.6587l-0.01212 1.3945a5.464 5.464 0 0 1 5.1076 5.4512 5.464 5.464 0 0 1-5.464 5.464 5.464 5.464 0 0 1-5.4462-5.109l-1.4094 0.01212c0.19523 2.8631 1.4132 4.4742 2.6594 5.39 1.3307 0.97789 2.6267 1.1682 2.6267 1.1682a0.54646 0.54646 0 1 1-0.15794 1.0814s-1.5624-0.22755-3.1155-1.3688c-1.5531-1.1413-3.1173-3.2491-3.171-6.8037a0.54646 0.54646 0 0 1 0.54142-0.55494l2.0647-0.01707a5.464 5.464 0 0 1 4.6707-4.67l0.01779-2.0554a0.54646 0.54646 0 0 1 0.55494-0.54142zm0.16435 4.362a3.6427 3.6427 0 0 0-3.6427 3.6427 3.6427 3.6427 0 0 0 3.6427 3.6427 3.6427 3.6427 0 0 0 3.6427-3.6427 3.6427 3.6427 0 0 0-3.6427-3.6427zm0 0.72854a2.9141 2.9141 0 0 1 2.9141 2.9141 2.9141 2.9141 0 0 1-2.9141 2.9141 2.9141 2.9141 0 0 1-2.9141-2.9141 2.9141 2.9141 0 0 1 2.9141-2.9141zm0 1.0928a1.8213 1.8213 0 0 0-1.8213 1.8213 1.8213 1.8213 0 0 0 1.8213 1.8213 1.8213 1.8213 0 0 0 1.8213-1.8213 1.8213 1.8213 0 0 0-1.8213-1.8213zm0 0.36427a1.4571 1.4571 0 0 1 1.4571 1.4571 1.4571 1.4571 0 0 1-1.4571 1.4571 1.4571 1.4571 0 0 1-1.4571-1.4571 1.4571 1.4571 0 0 1 1.4571-1.4571zm0 0.36427a1.0928 1.0928 0 0 0-1.0928 1.0928 1.0928 1.0928 0 0 0 1.0928 1.0928 1.0928 1.0928 0 0 0 1.0928-1.0928 1.0928 1.0928 0 0 0-1.0928-1.0928zm7.4675 0.36427a0.5464 0.5464 0 0 1 0.5464 0.5464 0.5464 0.5464 0 0 1-0.5464 0.5464 0.5464 0.5464 0 0 1-0.5464-0.5464 0.5464 0.5464 0 0 1 0.5464-0.5464zm0 1.4571a0.5464 0.5464 0 0 1 0.5464 0.5464 0.5464 0.5464 0 0 1-0.5464 0.5464 0.5464 0.5464 0 0 1-0.5464-0.5464 0.5464 0.5464 0 0 1 0.5464-0.5464zm0.0072 1.8142a0.54646 0.54646 0 0 1 0.51083 0.72711s-0.55583 1.7358-1.7715 2.9454c-1.225 1.2188-2.944 1.7701-2.944 1.7701a0.54646 0.54646 0 1 1-0.3472-1.0359s1.5502-0.54339 2.52-1.5083c0.95209-0.94732 1.5069-2.5186 1.5069-2.5186a0.54646 0.54646 0 0 1 0.52506-0.37992z" fill="url(#linearGradient1006)" stroke-width=".36427"/>
</svg>
