<svg width="128" height="128" viewBox="0 0 128 128" xmlns="http://www.w3.org/2000/svg">
<linearGradient id="a" x1="64.429" x2="63.703" y1="9.497" y2="114.03" gradientUnits="userSpaceOnUse">
<stop stop-color="#eee998" offset="0"/>
<stop stop-color="#f5bb57" offset="1"/>
</linearGradient>
<circle cx="64.333" cy="64.226" r="60.566" fill="url(#a)" stroke="#f6f6f6" stroke-width="4.6449"/>
<path d="m65.755 34.054c-16.625 0-30.188 13.532-30.188 30.156s13.563 30.188 30.188 30.188 30.125-13.563 30.125-30.188-13.5-30.156-30.125-30.156zm-31.688 4.7188a2.5002 2.5002 0 0 0-2 1.2188c-4.7517 7.7159-8.1282 14.769-8.5625 22.656s2.1611 16.323 8.5938 26.625a2.5002 2.5002 0 1 0 4.2187-2.6562c-6.1067-9.7796-8.177-17.067-7.8125-23.688s3.2514-12.855 7.8437-20.312a2.5002 2.5002 0 0 0-2.2812-3.8438zm60.188 0a2.5002 2.5002 0 0 0-1.9375 3.8438c4.5923 7.457 7.4792 13.692 7.8437 20.312 0.36453 6.6201-1.7371 13.908-7.8437 23.688a2.5059 2.5059 0 1 0 4.25 2.6562c6.4326-10.302 9.028-18.738 8.5937-26.625-0.43428-7.8869-3.842-14.94-8.5937-22.656a2.5002 2.5002 0 0 0-2.3125-1.2188zm-28.5 0.96875c13.544 0 24.438 10.925 24.438 24.469 0 13.544-10.893 24.469-24.438 24.469-13.544 0-24.469-10.925-24.469-24.469 0-13.544 10.925-24.469 24.469-24.469zm-0.03125 6.2188c-1.2214 3.7e-5 -2.1693 0.49743-2.8438 1.5-0.65626 1.0026-1 2.5808-1 4.75-1e-5 0.51045 0.02603 0.99482 0.0625 1.4688 0.03645 0.47399 0.08332 0.97659 0.15625 1.4688 0.07291 0.49221 0.14582 0.9844 0.21875 1.5312 0.07291 0.5469 0.15884 1.1433 0.25 1.7812l1.7812 12.844h2.6562l1.7812-12.781c0.0729-0.61977 0.14582-1.2031 0.21875-1.75 0.09113-0.54685 0.16405-1.0703 0.21875-1.5625 0.05467-0.51039 0.08852-0.99476 0.125-1.4688 0.03644-0.47393 0.06248-0.9583 0.0625-1.4688-1.7e-5 -1.1849-0.08595-2.1979-0.25-3-0.14585-0.82028-0.39064-1.4765-0.71875-1.9688-0.30991-0.49215-0.70054-0.83069-1.1562-1.0312-0.45574-0.21871-0.96095-0.31246-1.5625-0.3125zm0.03125 28c-0.60158 9e-6 -1.1589 0.09376-1.6875 0.3125-0.52866 0.21876-0.9922 0.52344-1.375 0.90625-0.38282 0.38282-0.66928 0.84636-0.90625 1.375-0.21876 0.51042-0.34376 1.0417-0.34375 1.625-9e-6 0.60157 0.12499 1.1589 0.34375 1.6875 0.23697 0.52865 0.52343 0.99219 0.90625 1.375 0.3828 0.38281 0.84634 0.70052 1.375 0.9375 0.52863 0.21875 1.0859 0.3125 1.6875 0.3125 0.58332 0 1.1458-0.09375 1.6562-0.3125 0.52863-0.23698 0.99217-0.55469 1.375-0.9375 0.3828-0.38281 0.68748-0.84635 0.90625-1.375 0.21873-0.52864 0.31248-1.0859 0.3125-1.6875-1.8e-5 -0.58333-0.09377-1.1146-0.3125-1.625-0.21877-0.52864-0.52345-0.99218-0.90625-1.375-0.38283-0.3828-0.84637-0.68749-1.375-0.90625-0.51043-0.21874-1.0729-0.31249-1.6562-0.3125z" fill="#1b2831"/>
</svg>
