<svg width="25.6" height="25.6" version="1.1" viewBox="0 0 25.6 25.6" xmlns="http://www.w3.org/2000/svg" xmlns:xlink="http://www.w3.org/1999/xlink">
<defs>
<linearGradient id="linearGradient862">
<stop stop-color="#606060" offset="0"/>
<stop stop-color="#929292" offset=".4512"/>
<stop stop-color="#8f8f8f" offset=".65778"/>
<stop stop-color="#787878" offset=".75089"/>
<stop stop-color="#646464" offset=".84789"/>
<stop stop-color="#808080" offset=".93323"/>
<stop stop-color="#343434" stop-opacity=".94444" offset="1"/>
</linearGradient>
<radialGradient id="radialGradient830" cx="37.169" cy="11.745" r="10.45" gradientTransform="matrix(.99959 .028712 -.029359 1.0221 -24.476 -.94017)" gradientUnits="userSpaceOnUse">
<stop stop-color="#807370" offset="0"/>
<stop stop-color="#e3e3e3" offset=".56431"/>
<stop stop-color="#ededed" offset=".65524"/>
<stop stop-color="#e3e3e3" offset=".8162"/>
<stop stop-color="#d4d4d4" offset=".90443"/>
<stop stop-color="#c5c5c5" offset="1"/>
</radialGradient>
<linearGradient id="linearGradient866" x1="15.878" x2="20.42" y1="4.6092" y2="2.5766" gradientTransform="translate(2.9965 6.2064)" gradientUnits="userSpaceOnUse" xlink:href="#linearGradient862"/>
<linearGradient id="linearGradient880" x1="15.878" x2="20.42" y1="4.6092" y2="2.5766" gradientTransform="rotate(-89.166 14.569 8.5808)" gradientUnits="userSpaceOnUse" xlink:href="#linearGradient862"/>
<linearGradient id="linearGradient884" x1="15.878" x2="20.42" y1="4.6092" y2="2.5766" gradientTransform="rotate(182.87 11.395 9.8789)" gradientUnits="userSpaceOnUse" xlink:href="#linearGradient862"/>
<linearGradient id="linearGradient911" x1="15.878" x2="20.42" y1="4.6092" y2="2.5766" gradientTransform="rotate(90.87 8.2125 11.454)" gradientUnits="userSpaceOnUse" xlink:href="#linearGradient862"/>
<radialGradient id="radialGradient919" cx="41.325" cy="12.608" r="6.861" gradientTransform="matrix(1 0 0 1.0079 -28.461 .43067)" gradientUnits="userSpaceOnUse">
<stop stop-color="#525252" stop-opacity=".040404" offset="0"/>
<stop stop-color="#4f4f4f" stop-opacity="0" offset=".71986"/>
<stop stop-color="#4c4c4c" stop-opacity=".039216" offset=".80682"/>
<stop stop-color="#484848" stop-opacity=".10196" offset=".85425"/>
<stop stop-color="#313131" stop-opacity=".4798" offset="1"/>
</radialGradient>
</defs>
<g transform="translate(-46.359 3.2964)" fill="none" stroke="#000" stroke-linecap="round" stroke-linejoin="round" stroke-opacity=".0078431">
<path d="m59.07 5.1956c-1.3529-0.029128-2.7326 0.849-2.3652 2.4238l0.0039-2e-3a0.59661 0.59661 0 0 0 0.59375 0.54492 0.59661 0.59661 0 0 0 0.5957-0.5957 0.59661 0.59661 0 0 0-0.1875-0.43359c-0.28236-0.48447-0.20048-0.82909 0.02539-1.0547 0.68121-0.5206 1.5368-0.41606 1.957-0.10742 0.36255 0.23881 0.6239 0.6983 0.58008 1.584-0.0045 1.2457-1.7729 2.3423-1.4805 4.3223-0.0012 0.16391 0.23394 0.1635 0.2168-0.02734-0.05696-1.3471 1.5182-2.4688 2.1328-3.5898 0.38327-0.72339 0.18978-1.5589-0.04883-1.9863-0.40921-0.71626-1.2117-1.0606-2.0234-1.0781zm-0.23633 7.3867a0.8 0.8 0 0 0-0.79883 0.80078 0.8 0.8 0 0 0 0.79883 0.80078 0.8 0.8 0 0 0 0.80078-0.80078 0.8 0.8 0 0 0-0.80078-0.80078z" stroke-width=".1"/>
<path d="m59.07 5.1956c-1.3529-0.029128-2.7326 0.849-2.3652 2.4238l0.0039-2e-3a0.59661 0.59661 0 0 0 0.59375 0.54492 0.59661 0.59661 0 0 0 0.5957-0.5957 0.59661 0.59661 0 0 0-0.1875-0.43359c-0.28236-0.48447-0.20048-0.82909 0.02539-1.0547 0.68121-0.5206 1.5368-0.41606 1.957-0.10742 0.36255 0.23881 0.6239 0.6983 0.58008 1.584-0.0045 1.2457-1.7729 2.3423-1.4805 4.3223-0.0012 0.16391 0.23394 0.1635 0.2168-0.02734-0.05696-1.3471 1.5182-2.4688 2.1328-3.5898 0.38327-0.72339 0.18978-1.5589-0.04883-1.9863-0.40921-0.71626-1.2117-1.0606-2.0234-1.0781zm-0.23633 7.3867a0.8 0.8 0 0 0-0.79883 0.80078 0.8 0.8 0 0 0 0.79883 0.80078 0.8 0.8 0 0 0 0.80078-0.80078 0.8 0.8 0 0 0-0.80078-0.80078z" stroke-width=".2"/>
<path d="m59.07 5.1956c-1.3529-0.029128-2.7326 0.849-2.3652 2.4238l0.0039-2e-3a0.59661 0.59661 0 0 0 0.59375 0.54492 0.59661 0.59661 0 0 0 0.5957-0.5957 0.59661 0.59661 0 0 0-0.1875-0.43359c-0.28236-0.48447-0.20048-0.82909 0.02539-1.0547 0.68121-0.5206 1.5368-0.41606 1.957-0.10742 0.36255 0.23881 0.6239 0.6983 0.58008 1.584-0.0045 1.2457-1.7729 2.3423-1.4805 4.3223-0.0012 0.16391 0.23394 0.1635 0.2168-0.02734-0.05696-1.3471 1.5182-2.4688 2.1328-3.5898 0.38327-0.72339 0.18978-1.5589-0.04883-1.9863-0.40921-0.71626-1.2117-1.0606-2.0234-1.0781zm-0.23633 7.3867a0.8 0.8 0 0 0-0.79883 0.80078 0.8 0.8 0 0 0 0.79883 0.80078 0.8 0.8 0 0 0 0.80078-0.80078 0.8 0.8 0 0 0-0.80078-0.80078z" stroke-width=".3"/>
<path d="m59.07 5.1956c-1.3529-0.029128-2.7326 0.849-2.3652 2.4238l0.0039-2e-3a0.59661 0.59661 0 0 0 0.59375 0.54492 0.59661 0.59661 0 0 0 0.5957-0.5957 0.59661 0.59661 0 0 0-0.1875-0.43359c-0.28236-0.48447-0.20048-0.82909 0.02539-1.0547 0.68121-0.5206 1.5368-0.41606 1.957-0.10742 0.36255 0.23881 0.6239 0.6983 0.58008 1.584-0.0045 1.2457-1.7729 2.3423-1.4805 4.3223-0.0012 0.16391 0.23394 0.1635 0.2168-0.02734-0.05696-1.3471 1.5182-2.4688 2.1328-3.5898 0.38327-0.72339 0.18978-1.5589-0.04883-1.9863-0.40921-0.71626-1.2117-1.0606-2.0234-1.0781zm-0.23633 7.3867a0.8 0.8 0 0 0-0.79883 0.80078 0.8 0.8 0 0 0 0.79883 0.80078 0.8 0.8 0 0 0 0.80078-0.80078 0.8 0.8 0 0 0-0.80078-0.80078z" stroke-width=".4"/>
<path d="m59.07 5.1956c-1.3529-0.029128-2.7326 0.849-2.3652 2.4238l0.0039-2e-3a0.59661 0.59661 0 0 0 0.59375 0.54492 0.59661 0.59661 0 0 0 0.5957-0.5957 0.59661 0.59661 0 0 0-0.1875-0.43359c-0.28236-0.48447-0.20048-0.82909 0.02539-1.0547 0.68121-0.5206 1.5368-0.41606 1.957-0.10742 0.36255 0.23881 0.6239 0.6983 0.58008 1.584-0.0045 1.2457-1.7729 2.3423-1.4805 4.3223-0.0012 0.16391 0.23394 0.1635 0.2168-0.02734-0.05696-1.3471 1.5182-2.4688 2.1328-3.5898 0.38327-0.72339 0.18978-1.5589-0.04883-1.9863-0.40921-0.71626-1.2117-1.0606-2.0234-1.0781zm-0.23633 7.3867a0.8 0.8 0 0 0-0.79883 0.80078 0.8 0.8 0 0 0 0.79883 0.80078 0.8 0.8 0 0 0 0.80078-0.80078 0.8 0.8 0 0 0-0.80078-0.80078z" stroke-width=".6"/>
<path d="m59.07 5.1956c-1.3529-0.029128-2.7326 0.849-2.3652 2.4238l0.0039-2e-3a0.59661 0.59661 0 0 0 0.59375 0.54492 0.59661 0.59661 0 0 0 0.5957-0.5957 0.59661 0.59661 0 0 0-0.1875-0.43359c-0.28236-0.48447-0.20048-0.82909 0.02539-1.0547 0.68121-0.5206 1.5368-0.41606 1.957-0.10742 0.36255 0.23881 0.6239 0.6983 0.58008 1.584-0.0045 1.2457-1.7729 2.3423-1.4805 4.3223-0.0012 0.16391 0.23394 0.1635 0.2168-0.02734-0.05696-1.3471 1.5182-2.4688 2.1328-3.5898 0.38327-0.72339 0.18978-1.5589-0.04883-1.9863-0.40921-0.71626-1.2117-1.0606-2.0234-1.0781zm-0.23633 7.3867a0.8 0.8 0 0 0-0.79883 0.80078 0.8 0.8 0 0 0 0.79883 0.80078 0.8 0.8 0 0 0 0.80078-0.80078 0.8 0.8 0 0 0-0.80078-0.80078z" stroke-width=".8"/>
<path d="m59.07 5.1956c-1.3529-0.029128-2.7326 0.849-2.3652 2.4238l0.0039-2e-3a0.59661 0.59661 0 0 0 0.59375 0.54492 0.59661 0.59661 0 0 0 0.5957-0.5957 0.59661 0.59661 0 0 0-0.1875-0.43359c-0.28236-0.48447-0.20048-0.82909 0.02539-1.0547 0.68121-0.5206 1.5368-0.41606 1.957-0.10742 0.36255 0.23881 0.6239 0.6983 0.58008 1.584-0.0045 1.2457-1.7729 2.3423-1.4805 4.3223-0.0012 0.16391 0.23394 0.1635 0.2168-0.02734-0.05696-1.3471 1.5182-2.4688 2.1328-3.5898 0.38327-0.72339 0.18978-1.5589-0.04883-1.9863-0.40921-0.71626-1.2117-1.0606-2.0234-1.0781zm-0.23633 7.3867a0.8 0.8 0 0 0-0.79883 0.80078 0.8 0.8 0 0 0 0.79883 0.80078 0.8 0.8 0 0 0 0.80078-0.80078 0.8 0.8 0 0 0-0.80078-0.80078z"/>
<path d="m59.07 5.1956c-1.3529-0.029128-2.7326 0.849-2.3652 2.4238l0.0039-2e-3a0.59661 0.59661 0 0 0 0.59375 0.54492 0.59661 0.59661 0 0 0 0.5957-0.5957 0.59661 0.59661 0 0 0-0.1875-0.43359c-0.28236-0.48447-0.20048-0.82909 0.02539-1.0547 0.68121-0.5206 1.5368-0.41606 1.957-0.10742 0.36255 0.23881 0.6239 0.6983 0.58008 1.584-0.0045 1.2457-1.7729 2.3423-1.4805 4.3223-0.0012 0.16391 0.23394 0.1635 0.2168-0.02734-0.05696-1.3471 1.5182-2.4688 2.1328-3.5898 0.38327-0.72339 0.18978-1.5589-0.04883-1.9863-0.40921-0.71626-1.2117-1.0606-2.0234-1.0781zm-0.23633 7.3867a0.8 0.8 0 0 0-0.79883 0.80078 0.8 0.8 0 0 0 0.79883 0.80078 0.8 0.8 0 0 0 0.80078-0.80078 0.8 0.8 0 0 0-0.80078-0.80078z" stroke-width="1.2"/>
<path d="m59.07 5.1956c-1.3529-0.029128-2.7326 0.849-2.3652 2.4238l0.0039-2e-3a0.59661 0.59661 0 0 0 0.59375 0.54492 0.59661 0.59661 0 0 0 0.5957-0.5957 0.59661 0.59661 0 0 0-0.1875-0.43359c-0.28236-0.48447-0.20048-0.82909 0.02539-1.0547 0.68121-0.5206 1.5368-0.41606 1.957-0.10742 0.36255 0.23881 0.6239 0.6983 0.58008 1.584-0.0045 1.2457-1.7729 2.3423-1.4805 4.3223-0.0012 0.16391 0.23394 0.1635 0.2168-0.02734-0.05696-1.3471 1.5182-2.4688 2.1328-3.5898 0.38327-0.72339 0.18978-1.5589-0.04883-1.9863-0.40921-0.71626-1.2117-1.0606-2.0234-1.0781zm-0.23633 7.3867a0.8 0.8 0 0 0-0.79883 0.80078 0.8 0.8 0 0 0 0.79883 0.80078 0.8 0.8 0 0 0 0.80078-0.80078 0.8 0.8 0 0 0-0.80078-0.80078z" stroke-width="1.4"/>
<path d="m59.07 5.1956c-1.3529-0.029128-2.7326 0.849-2.3652 2.4238l0.0039-2e-3a0.59661 0.59661 0 0 0 0.59375 0.54492 0.59661 0.59661 0 0 0 0.5957-0.5957 0.59661 0.59661 0 0 0-0.1875-0.43359c-0.28236-0.48447-0.20048-0.82909 0.02539-1.0547 0.68121-0.5206 1.5368-0.41606 1.957-0.10742 0.36255 0.23881 0.6239 0.6983 0.58008 1.584-0.0045 1.2457-1.7729 2.3423-1.4805 4.3223-0.0012 0.16391 0.23394 0.1635 0.2168-0.02734-0.05696-1.3471 1.5182-2.4688 2.1328-3.5898 0.38327-0.72339 0.18978-1.5589-0.04883-1.9863-0.40921-0.71626-1.2117-1.0606-2.0234-1.0781zm-0.23633 7.3867a0.8 0.8 0 0 0-0.79883 0.80078 0.8 0.8 0 0 0 0.79883 0.80078 0.8 0.8 0 0 0 0.80078-0.80078 0.8 0.8 0 0 0-0.80078-0.80078z" stroke-width="1.9"/>
</g>
<ellipse cx="12.864" cy="13.138" rx="6.861" ry="6.9153" fill="url(#radialGradient919)"/>
<path d="m12.833 2.6589a10.451 10.451 0 0 0-10.449 10.451 10.451 10.451 0 0 0 10.449 10.451 10.451 10.451 0 0 0 10.451-10.451 10.451 10.451 0 0 0-10.451-10.451zm0 4.0078a6.4431 6.4431 0 0 1 6.4434 6.4434 6.4431 6.4431 0 0 1-6.4434 6.4434 6.4431 6.4431 0 0 1-6.4434-6.4434 6.4431 6.4431 0 0 1 6.4434-6.4434z" fill="url(#radialGradient830)"/>
<path d="m14.475 1.8666c-1.509-0.078395-3.2342 0.18046-5.2031 0.87695l-0.01367 0.00391-1.9219 1-0.21094 0.083984-0.02539 0.021484c-1.1205 0.94822-2.1295 1.5227-2.9414 2.0918-0.81193 0.56909-1.4386 1.1503-1.7109 2.0801-0.19098 0.65212-0.3788 1.3908-0.49805 2.25-0.21269 1.5324-0.20776 3.4465 0.36719 5.9336l0.0039 0.01563 0.0059 0.01367c1.1101 2.7567 2.4405 5.2842 4.5996 6.7871 2.1591 1.5029 5.1302 1.9443 9.4141 0.57812l0.02539-0.0078 0.02148-0.01563c1.8554-1.1755 4.4866-2.1774 6.1855-4.2441 1.6989-2.0668 2.4095-5.1958 0.49219-10.488l-2e-3 -0.00781-0.0039-0.00586c-1.009-2.2942-2.4628-4.5189-4.6758-5.8223-1.1065-0.65171-2.3992-1.0661-3.9082-1.1445zm-0.02539 0.39453c1.448 0.074578 2.6769 0.47515 3.7305 1.0957 2.1047 1.2396 3.5197 3.3823 4.5098 5.6309 1.8867 5.2122 1.183 8.1366-0.42578 10.094-1.6016 1.9483-4.1526 2.94-6.0605 4.1426-4.2005 1.3359-7.0026 0.89699-9.0488-0.52734-2.0448-1.4233-3.3505-3.8664-4.4492-6.5918-0.56141-2.4362-0.56531-4.2897-0.35938-5.7734 0.1157-0.83364 0.29647-1.5517 0.48438-2.1934 0.23891-0.81579 0.77086-1.3131 1.5586-1.8652 0.77802-0.54532 1.799-1.1381 2.9316-2.0898l0.18359-0.072266 1.9062-0.99219c1.9267-0.6808 3.5927-0.93192 5.0391-0.85742z" color="#000000" color-rendering="auto" dominant-baseline="auto" fill="#f3f3f3" image-rendering="auto" shape-rendering="auto" solid-color="#000000" stroke="#a5a5a5" stroke-width=".1" style="font-feature-settings:normal;font-variant-alternates:normal;font-variant-caps:normal;font-variant-ligatures:normal;font-variant-numeric:normal;font-variant-position:normal;isolation:auto;mix-blend-mode:normal;shape-padding:0;text-decoration-color:#000000;text-decoration-line:none;text-decoration-style:solid;text-indent:0;text-orientation:mixed;text-transform:none;white-space:normal"/>
<path d="m22.576 10.185-3.3789 1.9473a6.4431 6.4431 0 0 1 0.0078 0.06836l4.0176-0.19922a10.451 10.451 0 0 0-0.1875-1.1289z" fill="#4c4c4c" fill-opacity=".17677"/>
<path d="m18.107 9.6775c0.75645 0.97815 0.84957 1.7522 0.95879 2.5312l4.5638-0.80538c0.41762-0.06657 0.47683-0.46731 0.42187-0.65198-0.30558-1.242-0.83265-2.4524-1.4957-3.6434-0.04516-0.099215-0.35848-0.068307-0.46022 0z" fill="url(#linearGradient866)"/>
<path d="m9.4676 7.9647c0.98906-0.74212 1.7644-0.82396 2.5449-0.92183l-0.73884-4.5751c-0.060486-0.41854-0.46032-0.48359-0.64576-0.43132-1.2464 0.28747-2.4643 0.79685-3.6648 1.4425-0.09986 0.043711-0.07352 0.35745-0.0067 0.46017z" fill="url(#linearGradient880)"/>
<path d="m7.1307 16.099-4.2754 0.11133a10.451 10.451 0 0 0 1.252 2.6348l3.0957-2.6172a6.4431 6.4431 0 0 1-0.072265-0.12891z" fill="#4c4c4c" fill-opacity=".17677"/>
<path d="m7.3628 16.092c-0.70651-1.0148-0.76075-1.7925-0.83082-2.576l-4.5984 0.57582c-0.42042 0.04558-0.49964 0.44284-0.45399 0.63003 0.243 1.2558 0.70879 2.4911 1.3114 3.7137 0.04013 0.10135 0.35461 0.08617 0.45964 0.02305z" fill="url(#linearGradient884)"/>
<path d="m16.089 18.472c-0.98952 0.74151-1.7649 0.82287-2.5455 0.92025l0.73601 4.5755c0.06023 0.41858 0.46002 0.48387 0.6455 0.43172 1.2465-0.28669 2.4648-0.79533 3.6657-1.4402 0.09989-0.04364 0.07374-0.3574 7e-3 -0.46017z" fill="url(#linearGradient911)"/>
<path d="m12.71 8.492c-1.3529-0.029128-2.7326 0.849-2.3652 2.4238l0.0039-2e-3a0.59661 0.59661 0 0 0 0.59375 0.54492 0.59661 0.59661 0 0 0 0.5957-0.5957 0.59661 0.59661 0 0 0-0.1875-0.43359c-0.28236-0.48447-0.20048-0.82909 0.02539-1.0547 0.68121-0.5206 1.5368-0.41606 1.957-0.10742 0.36255 0.23881 0.6239 0.6983 0.58008 1.584-0.0045 1.2457-1.7729 2.3423-1.4805 4.3223-0.0012 0.16391 0.23394 0.1635 0.2168-0.02734-0.05696-1.3471 1.5182-2.4688 2.1328-3.5898 0.38327-0.72339 0.18978-1.5589-0.04883-1.9863-0.40921-0.71626-1.2117-1.0606-2.0234-1.0781zm-0.23633 7.3867a0.8 0.8 0 0 0-0.79883 0.80078 0.8 0.8 0 0 0 0.79883 0.80078 0.8 0.8 0 0 0 0.80078-0.80078 0.8 0.8 0 0 0-0.80078-0.80078z" fill="#4c4c4c"/>
</svg>
