<svg width="128" height="128" version="1.1" viewBox="0 0 33.867 33.867" xmlns="http://www.w3.org/2000/svg" xmlns:xlink="http://www.w3.org/1999/xlink">
<defs>
<linearGradient id="linearGradient897" x1="2686" x2="2686" y1="1088.8" y2="1770.4" gradientTransform="matrix(.042779 0 0 .042779 -95.919 -44.867)" gradientUnits="userSpaceOnUse">
<stop stop-color="#93eb2d" offset="0"/>
<stop stop-color="#10af62" offset="1"/>
</linearGradient>
<radialGradient id="radialGradient898" cx="60.636" cy="20.456" r="17.304" gradientTransform="translate(-43.433 -3.9449)" gradientUnits="userSpaceOnUse">
<stop stop-color="#0b0b0b" offset="0"/>
<stop stop-color="#0b0b0b" stop-opacity=".85882" offset=".68076"/>
<stop stop-color="#0b0b0b" stop-opacity=".83137" offset=".69925"/>
<stop stop-color="#0b0b0b" stop-opacity=".80392" offset=".71879"/>
<stop stop-color="#0b0b0b" stop-opacity=".78039" offset=".73593"/>
<stop stop-color="#0b0b0b" stop-opacity=".75686" offset=".75022"/>
<stop stop-color="#0b0b0b" stop-opacity=".73333" offset=".76799"/>
<stop stop-color="#0b0b0b" stop-opacity=".082353" offset=".91501"/>
<stop stop-color="#0b0b0b" stop-opacity=".070588" offset=".92247"/>
<stop stop-color="#0b0b0b" stop-opacity=".058824" offset=".92919"/>
<stop stop-color="#0b0b0b" stop-opacity=".047059" offset=".93841"/>
<stop stop-color="#0b0b0b" stop-opacity=".031373" offset=".94761"/>
<stop stop-color="#0b0b0b" stop-opacity=".023529" offset=".95381"/>
<stop stop-color="#0b0b0b" stop-opacity=".015686" offset=".95886"/>
<stop stop-color="#0b0b0b" stop-opacity=".011765" offset=".96356"/>
<stop stop-color="#0b0b0b" stop-opacity=".0078431" offset=".96845"/>
<stop stop-color="#0b0b0b" stop-opacity=".0039216" offset=".97348"/>
<stop stop-color="#0b0b0b" stop-opacity="0" offset=".97812"/>
<stop stop-color="#0b0b0b" stop-opacity="0" offset=".98456"/>
<stop stop-color="#0b0b0b" stop-opacity="0" offset=".98701"/>
<stop stop-color="#0b0b0b" stop-opacity="0" offset=".98925"/>
<stop stop-color="#0b0b0b" stop-opacity="0" offset="1"/>
</radialGradient>
<radialGradient id="radialGradient993" cx="16.968" cy="3.7659" r="13.696" gradientTransform="matrix(4.8886 0 0 1.8641 -65.724 -2.4383)" gradientUnits="userSpaceOnUse">
<stop stop-color="#30e59e" stop-opacity=".52549" offset="0"/>
<stop stop-color="#1abb47" offset="1"/>
</radialGradient>
<linearGradient id="linearGradient1206" x1="5.6282" x2="5.6282" y1="12.218" y2="63.11" gradientTransform="matrix(.81081 0 0 .81081 3.2255 2.6245)" gradientUnits="userSpaceOnUse">
<stop stop-color="#fff" offset="0"/>
<stop stop-color="#45dfca" offset="1"/>
</linearGradient>
</defs>
<circle cx="17.203" cy="16.512" r="17.304" fill="url(#radialGradient898)" opacity=".30973" stroke-linecap="square" stroke-linejoin="round" stroke-width="3"/>
<circle cx="17.203" cy="16.512" r="15.118" fill="url(#linearGradient897)" stroke="#b1aaaa" stroke-linecap="square" stroke-opacity=".99216" stroke-width=".057556"/>
<circle cx="17.203" cy="16.512" r="13.102" fill="url(#radialGradient993)"/>
<g transform="matrix(.81081 0 0 .81081 3.2255 2.6245)" fill="#03002e" fill-opacity=".021321" stroke-width=".5803">
<path d="m5.6745 11.186v11.606h2.3212v-6.3833h1.1606v4.0621h2.3212v-9.2848h-2.3212v2.9015h-1.1606v-2.9015zm11.606 0a4.6423 4.6423 0 0 0-4.6424 4.6424 4.6423 4.6423 0 0 0 4.6424 4.6424 4.6423 4.6423 0 0 0 4.6424-4.6424 4.6423 4.6423 0 0 0-4.6424-4.6424zm5.803 0v9.2848h2.3212v-4.9858l1.1606 2.0106v5.2964h2.3212v-11.606h-2.3212v1.9608l-1.1606-1.9608zm-5.803 2.3212a2.3212 2.3212 0 0 1 2.3212 2.3212 2.3212 2.3212 0 0 1-2.3212 2.3212 2.3212 2.3212 0 0 1-2.3212-2.3212 2.3212 2.3212 0 0 1 2.3212-2.3212zm-4.6424 8.1242v2.3212h9.2848v-2.3212z"/>
<path d="m5.4895 11.032v11.606h2.3212v-6.3833h1.1606v4.0621h2.3212v-9.2848h-2.3212v2.9015h-1.1606v-2.9015zm11.606 0a4.6423 4.6423 0 0 0-4.6424 4.6424 4.6423 4.6423 0 0 0 4.6424 4.6424 4.6423 4.6423 0 0 0 4.6424-4.6424 4.6423 4.6423 0 0 0-4.6424-4.6424zm5.803 0v9.2848h2.3212v-4.9858l1.1606 2.0106v5.2964h2.3212v-11.606h-2.3212v1.9608l-1.1606-1.9608zm-5.803 2.3212a2.3212 2.3212 0 0 1 2.3212 2.3212 2.3212 2.3212 0 0 1-2.3212 2.3212 2.3212 2.3212 0 0 1-2.3212-2.3212 2.3212 2.3212 0 0 1 2.3212-2.3212zm-4.6424 8.1242v2.3212h9.2848v-2.3212z"/>
<path d="m5.725 11.475v11.606h2.3212v-6.3833h1.1606v4.0621h2.3212v-9.2848h-2.3212v2.9015h-1.1606v-2.9015zm11.606 0a4.6423 4.6423 0 0 0-4.6424 4.6424 4.6423 4.6423 0 0 0 4.6424 4.6424 4.6423 4.6423 0 0 0 4.6424-4.6424 4.6423 4.6423 0 0 0-4.6424-4.6424zm5.803 0v9.2848h2.3212v-4.9858l1.1606 2.0106v5.2964h2.3212v-11.606h-2.3212v1.9608l-1.1606-1.9608zm-5.803 2.3212a2.3212 2.3212 0 0 1 2.3212 2.3212 2.3212 2.3212 0 0 1-2.3212 2.3212 2.3212 2.3212 0 0 1-2.3212-2.3212 2.3212 2.3212 0 0 1 2.3212-2.3212zm-4.6424 8.1242v2.3212h9.2848v-2.3212z"/>
<path d="m5.8211 11.788v11.606h2.3212v-6.3833h1.1606v4.0621h2.3212v-9.2848h-2.3212v2.9015h-1.1606v-2.9015zm11.606 0a4.6423 4.6423 0 0 0-4.6424 4.6424 4.6423 4.6423 0 0 0 4.6424 4.6424 4.6423 4.6423 0 0 0 4.6424-4.6424 4.6423 4.6423 0 0 0-4.6424-4.6424zm5.803 0v9.2848h2.3212v-4.9858l1.1606 2.0106v5.2964h2.3212v-11.606h-2.3212v1.9608l-1.1606-1.9608zm-5.803 2.3212a2.3212 2.3212 0 0 1 2.3212 2.3212 2.3212 2.3212 0 0 1-2.3212 2.3212 2.3212 2.3212 0 0 1-2.3212-2.3212 2.3212 2.3212 0 0 1 2.3212-2.3212zm-4.6424 8.1242v2.3212h9.2848v-2.3212z"/>
<path d="m5.9397 12.138v11.606h2.3212v-6.3833h1.1606v4.0621h2.3212v-9.2848h-2.3212v2.9015h-1.1606v-2.9015zm11.606 0a4.6423 4.6423 0 0 0-4.6424 4.6424 4.6423 4.6423 0 0 0 4.6424 4.6424 4.6423 4.6423 0 0 0 4.6424-4.6424 4.6423 4.6423 0 0 0-4.6424-4.6424zm5.803 0v9.2848h2.3212v-4.9858l1.1606 2.0106v5.2964h2.3212v-11.606h-2.3212v1.9608l-1.1606-1.9608zm-5.803 2.3212a2.3212 2.3212 0 0 1 2.3212 2.3212 2.3212 2.3212 0 0 1-2.3212 2.3212 2.3212 2.3212 0 0 1-2.3212-2.3212 2.3212 2.3212 0 0 1 2.3212-2.3212zm-4.6424 8.1242v2.3212h9.2848v-2.3212z"/>
<path d="m6.149 12.54v11.606h2.3212v-6.3833h1.1606v4.0621h2.3212v-9.2848h-2.3212v2.9015h-1.1606v-2.9015zm11.606 0a4.6423 4.6423 0 0 0-4.6424 4.6424 4.6423 4.6423 0 0 0 4.6424 4.6424 4.6423 4.6423 0 0 0 4.6424-4.6424 4.6423 4.6423 0 0 0-4.6424-4.6424zm5.803 0v9.2848h2.3212v-4.9858l1.1606 2.0106v5.2964h2.3212v-11.606h-2.3212v1.9608l-1.1606-1.9608zm-5.803 2.3212a2.3212 2.3212 0 0 1 2.3212 2.3212 2.3212 2.3212 0 0 1-2.3212 2.3212 2.3212 2.3212 0 0 1-2.3212-2.3212 2.3212 2.3212 0 0 1 2.3212-2.3212zm-4.6424 8.1242v2.3212h9.2848v-2.3212z"/>
<path d="m5.3705 10.822v11.606h2.3212v-6.3833h1.1606v4.0621h2.3212v-9.2848h-2.3212v2.9015h-1.1606v-2.9015zm11.606 0a4.6423 4.6423 0 0 0-4.6424 4.6424 4.6423 4.6423 0 0 0 4.6424 4.6424 4.6423 4.6423 0 0 0 4.6424-4.6424 4.6423 4.6423 0 0 0-4.6424-4.6424zm5.803 0v9.2848h2.3212v-4.9858l1.1606 2.0106v5.2964h2.3212v-11.606h-2.3212v1.9608l-1.1606-1.9608zm-5.803 2.3212a2.3212 2.3212 0 0 1 2.3212 2.3212 2.3212 2.3212 0 0 1-2.3212 2.3212 2.3212 2.3212 0 0 1-2.3212-2.3212 2.3212 2.3212 0 0 1 2.3212-2.3212zm-4.6424 8.1242v2.3212h9.2848v-2.3212z"/>
<path d="m6.1593 13.279v11.606h2.3212v-6.3833h1.1606v4.0621h2.3212v-9.2848h-2.3212v2.9015h-1.1606v-2.9015zm11.606 0a4.6423 4.6423 0 0 0-4.6424 4.6424 4.6423 4.6423 0 0 0 4.6424 4.6424 4.6423 4.6423 0 0 0 4.6424-4.6424 4.6423 4.6423 0 0 0-4.6424-4.6424zm5.803 0v9.2848h2.3212v-4.9858l1.1606 2.0106v5.2964h2.3212v-11.606h-2.3212v1.9608l-1.1606-1.9608zm-5.803 2.3212a2.3212 2.3212 0 0 1 2.3212 2.3212 2.3212 2.3212 0 0 1-2.3212 2.3212 2.3212 2.3212 0 0 1-2.3212-2.3212 2.3212 2.3212 0 0 1 2.3212-2.3212zm-4.6424 8.1242v2.3212h9.2848v-2.3212z"/>
</g>
<path d="m7.7889 11.609v9.4103h1.8821v-5.1756h0.94103v3.2936h1.8821v-7.5282h-1.8821v2.3526h-0.94103v-2.3526zm9.4103 0a3.7641 3.7641 0 0 0-3.7641 3.7641 3.7641 3.7641 0 0 0 3.7641 3.7641 3.7641 3.7641 0 0 0 3.7641-3.7641 3.7641 3.7641 0 0 0-3.7641-3.7641zm4.7051 0v7.5282h1.8821v-4.0426l0.94103 1.6303v4.2944h1.8821v-9.4103h-1.8821v1.5898l-0.94103-1.5898zm-4.7051 1.8821a1.882 1.882 0 0 1 1.8821 1.8821 1.882 1.882 0 0 1-1.8821 1.8821 1.882 1.882 0 0 1-1.8821-1.8821 1.882 1.882 0 0 1 1.8821-1.8821zm-3.7641 6.5872v1.8821h7.5282v-1.8821z" fill="url(#linearGradient1206)" stroke-width=".47051"/>
</svg>
