<svg width="128" height="128" version="1.1" viewBox="0 0 33.867 33.867" xmlns="http://www.w3.org/2000/svg" xmlns:xlink="http://www.w3.org/1999/xlink">
<defs>
<linearGradient id="linearGradient897" x1="2686" x2="2686" y1="1088.8" y2="1770.4" gradientTransform="matrix(.042779 0 0 .042779 -95.919 -44.867)" gradientUnits="userSpaceOnUse">
<stop stop-color="#ffcc60" offset="0"/>
<stop stop-color="#ff0202" offset="1"/>
</linearGradient>
<radialGradient id="radialGradient898" cx="60.636" cy="20.456" r="17.304" gradientTransform="translate(-43.433 -3.9449)" gradientUnits="userSpaceOnUse">
<stop stop-color="#0b0b0b" offset="0"/>
<stop stop-color="#0b0b0b" stop-opacity=".85882" offset=".68076"/>
<stop stop-color="#0b0b0b" stop-opacity=".83137" offset=".69925"/>
<stop stop-color="#0b0b0b" stop-opacity=".80392" offset=".71879"/>
<stop stop-color="#0b0b0b" stop-opacity=".78039" offset=".73593"/>
<stop stop-color="#0b0b0b" stop-opacity=".75686" offset=".75022"/>
<stop stop-color="#0b0b0b" stop-opacity=".73333" offset=".76799"/>
<stop stop-color="#0b0b0b" stop-opacity=".082353" offset=".91501"/>
<stop stop-color="#0b0b0b" stop-opacity=".070588" offset=".92247"/>
<stop stop-color="#0b0b0b" stop-opacity=".058824" offset=".92919"/>
<stop stop-color="#0b0b0b" stop-opacity=".047059" offset=".93841"/>
<stop stop-color="#0b0b0b" stop-opacity=".031373" offset=".94761"/>
<stop stop-color="#0b0b0b" stop-opacity=".023529" offset=".95381"/>
<stop stop-color="#0b0b0b" stop-opacity=".015686" offset=".95886"/>
<stop stop-color="#0b0b0b" stop-opacity=".011765" offset=".96356"/>
<stop stop-color="#0b0b0b" stop-opacity=".0078431" offset=".96845"/>
<stop stop-color="#0b0b0b" stop-opacity=".0039216" offset=".97348"/>
<stop stop-color="#0b0b0b" stop-opacity="0" offset=".97812"/>
<stop stop-color="#0b0b0b" stop-opacity="0" offset=".98456"/>
<stop stop-color="#0b0b0b" stop-opacity="0" offset=".98701"/>
<stop stop-color="#0b0b0b" stop-opacity="0" offset=".98925"/>
<stop stop-color="#0b0b0b" stop-opacity="0" offset="1"/>
</radialGradient>
<radialGradient id="radialGradient993" cx="16.968" cy="3.7659" r="13.696" gradientTransform="matrix(4.8886 0 0 1.8641 -65.724 -2.4383)" gradientUnits="userSpaceOnUse">
<stop stop-color="#ffb648" offset="0"/>
<stop stop-color="#ff332b" offset="1"/>
</radialGradient>
</defs>
<circle cx="17.203" cy="16.512" r="17.304" fill="url(#radialGradient898)" opacity=".30973" stroke-linecap="square" stroke-linejoin="round" stroke-width="3"/>
<circle cx="17.203" cy="16.512" r="15.118" fill="url(#linearGradient897)" stroke="#b1aaaa" stroke-linecap="square" stroke-opacity=".99216" stroke-width=".057556"/>
<circle cx="17.203" cy="16.512" r="13.102" fill="url(#radialGradient993)"/>
<g transform="matrix(.92258 0 0 .92258 1.7823 -.067436)" fill="#2b0000" fill-opacity=".047235" stroke-width=".36383">
<path d="m7.5262 25.947c-0.13223-0.2018-0.13325-0.23675-0.012376-0.4213 1.3099-0.90989 3.0872-1.7413 4.1404-2.7654 2.6505-3.528 2.5283-6.4851 2.4466-10.402-0.03846-1.6819-0.05244-1.7984-0.49194-2.8621-0.09762-0.23626-0.09578-0.30657 0.01307-0.5014 0.16784-0.30036 0.45022-0.32438 1.186-0.10089 0.9621 0.29223 1.7666 0.64565 1.9177 0.93784 0.12317 0.23818 0.1205 0.29844-0.03764 0.8499-0.50915 2.5718-0.25282 3.9665-0.35122 6.3959l0.91354 1.1722c2.1807 2.8988 4.5604 5.1821 7.8493 6.3046 0.76095 0.27798 1.5261 0.41054 1.3583 1.1002-0.21318 0.287-0.75962 0.39626-2.3513 0.47012-1.4117 0.06552-2.5386 0.05996-2.9643-0.29821-2.7797-2.3387-2.9343-3.628-5.1466-6.7881l-0.45615 0.94159c-1.288 3.3261-3.9124 5.7829-7.3109 6.1349-0.53666 0.04988-0.56392 0.04336-0.70251-0.16817zm10.42-9.5788c-0.37524-0.26283-0.25846-0.45211 1.1458-1.8571 1.4331-1.4339 1.9169-2.0748 1.9169-2.5219 0-0.18929 0.06588-0.60094 0.26617-0.64763 1.1584-0.27003 2.0295 0.96868 2.6509 1.8919 0.08918 0.34936-0.13702 0.61466-0.68702 0.80578-0.59492 0.20674-0.95693 0.30198-2.2612 1.0619-0.96633 0.37232-2.0349 1.51-3.0316 1.2671zm-8.814-2.7338c-0.10963-0.33008-0.11617-0.44476-0.03417-0.60039 0.22782-0.43245 0.4781-0.42021 1.4268 0.06978 0.83024 0.4288 1.9137 1.2039 2.0872 1.619 0.19367 0.87555-0.06671 1.7345-0.81387 1.692-1.0036-0.05714-2.2685-1.7026-2.6659-2.7804z"/>
<path d="m7.6985 26.211c-0.13223-0.2018-0.13325-0.23675-0.012376-0.4213 1.3099-0.90989 3.0872-1.7413 4.1404-2.7654 2.6505-3.528 2.5283-6.4851 2.4466-10.402-0.03846-1.6819-0.05244-1.7984-0.49194-2.8621-0.09762-0.23626-0.09578-0.30657 0.01307-0.5014 0.16784-0.30036 0.45022-0.32438 1.186-0.10089 0.9621 0.29223 1.7666 0.64565 1.9177 0.93784 0.12317 0.23818 0.1205 0.29844-0.03764 0.8499-0.50915 2.5718-0.25282 3.9665-0.35122 6.3959l0.91354 1.1722c2.1807 2.8988 4.5604 5.1821 7.8493 6.3046 0.76095 0.27798 1.5261 0.41054 1.3583 1.1002-0.21318 0.287-0.75962 0.39626-2.3513 0.47012-1.4117 0.06552-2.5386 0.05996-2.9643-0.29821-2.7797-2.3387-2.9343-3.628-5.1466-6.7881l-0.45615 0.94159c-1.288 3.3261-3.9124 5.7829-7.3109 6.1349-0.53666 0.04988-0.56392 0.04336-0.70251-0.16817zm10.42-9.5788c-0.37524-0.26283-0.25846-0.45211 1.1458-1.8571 1.4331-1.4339 1.9169-2.0748 1.9169-2.5219 0-0.18929 0.06588-0.60094 0.26617-0.64763 1.1584-0.27003 2.0295 0.96868 2.6509 1.8919 0.08918 0.34936-0.13702 0.61466-0.68702 0.80578-0.59492 0.20674-0.95693 0.30198-2.2612 1.0619-0.96633 0.37232-2.0349 1.51-3.0316 1.2671zm-8.814-2.7338c-0.10963-0.33008-0.11617-0.44476-0.03417-0.60039 0.22782-0.43245 0.4781-0.42021 1.4268 0.06978 0.83024 0.4288 1.9137 1.2039 2.0872 1.619 0.19367 0.87555-0.06671 1.7345-0.81387 1.692-1.0036-0.05714-2.2685-1.7026-2.6659-2.7804z"/>
<path d="m7.8951 26.715c-0.13223-0.2018-0.13325-0.23675-0.012376-0.4213 1.3099-0.90989 3.0872-1.7413 4.1404-2.7654 2.6505-3.528 2.5283-6.4851 2.4466-10.402-0.03846-1.6819-0.05244-1.7984-0.49194-2.8621-0.09762-0.23626-0.09578-0.30657 0.01307-0.5014 0.16784-0.30036 0.45022-0.32438 1.186-0.10089 0.9621 0.29223 1.7666 0.64565 1.9177 0.93784 0.12317 0.23818 0.1205 0.29844-0.03764 0.8499-0.50915 2.5718-0.25282 3.9665-0.35122 6.3959l0.91354 1.1722c2.1807 2.8988 4.5604 5.1821 7.8493 6.3046 0.76095 0.27798 1.5261 0.41054 1.3583 1.1002-0.21318 0.287-0.75962 0.39626-2.3513 0.47012-1.4117 0.06552-2.5386 0.05996-2.9643-0.29821-2.7797-2.3387-2.9343-3.628-5.1466-6.7881l-0.45615 0.94159c-1.288 3.3261-3.9124 5.7829-7.3109 6.1349-0.53666 0.04988-0.56392 0.04336-0.70251-0.16817zm10.42-9.5788c-0.37524-0.26283-0.25846-0.45211 1.1458-1.8571 1.4331-1.4339 1.9169-2.0748 1.9169-2.5219 0-0.18929 0.06588-0.60094 0.26617-0.64763 1.1584-0.27003 2.0295 0.96868 2.6509 1.8919 0.08918 0.34936-0.13702 0.61466-0.68702 0.80578-0.59492 0.20674-0.95693 0.30198-2.2612 1.0619-0.96633 0.37232-2.0349 1.51-3.0316 1.2671zm-8.814-2.7338c-0.10963-0.33008-0.11617-0.44476-0.03417-0.60039 0.22782-0.43245 0.4781-0.42021 1.4268 0.06978 0.83024 0.4288 1.9137 1.2039 2.0872 1.619 0.19367 0.87555-0.06671 1.7345-0.81387 1.692-1.0036-0.05714-2.2685-1.7026-2.6659-2.7804z"/>
<path d="m8.1245 27.172c-0.13223-0.2018-0.13325-0.23675-0.012376-0.4213 1.3099-0.90989 3.0872-1.7413 4.1404-2.7654 2.6505-3.528 2.5283-6.4851 2.4466-10.402-0.03846-1.6819-0.05244-1.7984-0.49194-2.8621-0.09762-0.23626-0.09578-0.30657 0.01307-0.5014 0.16784-0.30036 0.45022-0.32438 1.186-0.10089 0.9621 0.29223 1.7666 0.64565 1.9177 0.93784 0.12317 0.23818 0.1205 0.29844-0.03764 0.8499-0.50915 2.5718-0.25282 3.9665-0.35122 6.3959l0.91354 1.1722c2.1807 2.8988 4.5604 5.1821 7.8493 6.3046 0.76095 0.27798 1.5261 0.41054 1.3583 1.1002-0.21318 0.287-0.75962 0.39626-2.3513 0.47012-1.4117 0.06552-2.5386 0.05996-2.9643-0.29821-2.7797-2.3387-2.9343-3.628-5.1466-6.7881l-0.45615 0.94159c-1.288 3.3261-3.9124 5.7829-7.3109 6.1349-0.53666 0.04988-0.56392 0.04336-0.70251-0.16817zm10.42-9.5788c-0.37524-0.26283-0.25846-0.45211 1.1458-1.8571 1.4331-1.4339 1.9169-2.0748 1.9169-2.5219 0-0.18929 0.06588-0.60094 0.26617-0.64763 1.1584-0.27003 2.0295 0.96868 2.6509 1.8919 0.08918 0.34936-0.13702 0.61466-0.68702 0.80578-0.59492 0.20674-0.95693 0.30198-2.2612 1.0619-0.96633 0.37232-2.0349 1.51-3.0316 1.2671zm-8.814-2.7338c-0.10963-0.33008-0.11617-0.44476-0.03417-0.60039 0.22782-0.43245 0.4781-0.42021 1.4268 0.06978 0.83024 0.4288 1.9137 1.2039 2.0872 1.619 0.19367 0.87555-0.06671 1.7345-0.81387 1.692-1.0036-0.05714-2.2685-1.7026-2.6659-2.7804z"/>
<path d="m8.3467 27.782c-0.13223-0.2018-0.13325-0.23675-0.012376-0.4213 1.3099-0.90989 3.0872-1.7413 4.1404-2.7654 2.6505-3.528 2.5283-6.4851 2.4466-10.402-0.03846-1.6819-0.05244-1.7984-0.49194-2.8621-0.09762-0.23626-0.09578-0.30657 0.01307-0.5014 0.16784-0.30036 0.45022-0.32438 1.186-0.10089 0.9621 0.29223 1.7666 0.64565 1.9177 0.93784 0.12317 0.23818 0.1205 0.29844-0.03764 0.8499-0.50915 2.5718-0.25282 3.9665-0.35122 6.3959l0.91354 1.1722c2.1807 2.8988 4.5604 5.1821 7.8493 6.3046 0.76095 0.27798 1.5261 0.41054 1.3583 1.1002-0.21318 0.287-0.75962 0.39626-2.3513 0.47012-1.4117 0.06552-2.5386 0.05996-2.9643-0.29821-2.7797-2.3387-2.9343-3.628-5.1466-6.7881l-0.45615 0.94159c-1.288 3.3261-3.9124 5.7829-7.3109 6.1349-0.53666 0.04988-0.56392 0.04336-0.70251-0.16817zm10.42-9.5788c-0.37524-0.26283-0.25846-0.45211 1.1458-1.8571 1.4331-1.4339 1.9169-2.0748 1.9169-2.5219 0-0.18929 0.06588-0.60094 0.26617-0.64763 1.1584-0.27003 2.0295 0.96868 2.6509 1.8919 0.08918 0.34936-0.13702 0.61466-0.68702 0.80578-0.59492 0.20674-0.95693 0.30198-2.2612 1.0619-0.96633 0.37232-2.0349 1.51-3.0316 1.2671zm-8.814-2.7338c-0.10963-0.33008-0.11617-0.44476-0.03417-0.60039 0.22782-0.43245 0.4781-0.42021 1.4268 0.06978 0.83024 0.4288 1.9137 1.2039 2.0872 1.619 0.19367 0.87555-0.06671 1.7345-0.81387 1.692-1.0036-0.05714-2.2685-1.7026-2.6659-2.7804z"/>
</g>
<path d="m8.6196 23.481c-0.12199-0.18618-0.12293-0.21842-0.011418-0.38868 1.2085-0.83945 2.8482-1.6065 3.8198-2.5513 2.4453-3.2549 2.3326-5.9831 2.2572-9.5966-0.03548-1.5517-0.04838-1.6592-0.45386-2.6405-0.09006-0.21797-0.08836-0.28284 0.01206-0.46258 0.15484-0.27711 0.41536-0.29927 1.0942-0.093078 0.88762 0.26961 1.6298 0.59567 1.7692 0.86524 0.11363 0.21974 0.11117 0.27533-0.03473 0.7841-0.46974 2.3727-0.23325 3.6595-0.32403 5.9008l0.84282 1.0815c2.0119 2.6744 4.2074 4.781 7.2417 5.8165 0.70204 0.25646 1.4079 0.37876 1.2531 1.015-0.19668 0.26478-0.70081 0.36558-2.1692 0.43372-1.3024 0.06045-2.3421 0.05532-2.7348-0.27512-2.5645-2.1576-2.7072-3.3472-4.7482-6.2626l-0.42084 0.8687c-1.1883 3.0686-3.6095 5.3352-6.7449 5.66-0.49511 0.04602-0.52026 0.04-0.64813-0.15515zm9.6135-8.8372c-0.34619-0.24248-0.23845-0.41711 1.0571-1.7134 1.3222-1.3229 1.7685-1.9142 1.7685-2.3267 0-0.17464 0.06078-0.55441 0.24557-0.59749 1.0687-0.24913 1.8724 0.89369 2.4457 1.7454 0.08228 0.32231-0.12641 0.56707-0.63383 0.7434-0.54887 0.19073-0.88285 0.2786-2.0861 0.97968-0.89152 0.3435-1.8774 1.3931-2.7969 1.169zm-8.1316-2.5221c-0.10115-0.30453-0.10717-0.41033-0.03153-0.55391 0.21018-0.39897 0.44109-0.38768 1.3164 0.06438 0.76597 0.39561 1.7656 1.1107 1.9256 1.4937 0.17868 0.80777-0.06155 1.6003-0.75086 1.561-0.92589-0.05272-2.0929-1.5708-2.4595-2.5652z" fill="#fff" stroke-width=".33566"/>
</svg>
