<svg width="128" height="128" version="1.1" viewBox="0 0 33.867 33.867" xmlns="http://www.w3.org/2000/svg" xmlns:xlink="http://www.w3.org/1999/xlink">
<defs>
<linearGradient id="linearGradient897" x1="2686" x2="2686" y1="1088.8" y2="1770.4" gradientTransform="matrix(.042779 0 0 .042779 -95.919 -44.867)" gradientUnits="userSpaceOnUse">
<stop stop-color="#f864f7" offset="0"/>
<stop stop-color="#8b0bcf" offset="1"/>
</linearGradient>
<radialGradient id="radialGradient898" cx="60.636" cy="20.456" r="17.304" gradientTransform="translate(-43.433 -3.9449)" gradientUnits="userSpaceOnUse">
<stop stop-color="#0b0b0b" offset="0"/>
<stop stop-color="#0b0b0b" stop-opacity=".85882" offset=".68076"/>
<stop stop-color="#0b0b0b" stop-opacity=".83137" offset=".69925"/>
<stop stop-color="#0b0b0b" stop-opacity=".80392" offset=".71879"/>
<stop stop-color="#0b0b0b" stop-opacity=".78039" offset=".73593"/>
<stop stop-color="#0b0b0b" stop-opacity=".75686" offset=".75022"/>
<stop stop-color="#0b0b0b" stop-opacity=".73333" offset=".76799"/>
<stop stop-color="#0b0b0b" stop-opacity=".082353" offset=".91501"/>
<stop stop-color="#0b0b0b" stop-opacity=".070588" offset=".92247"/>
<stop stop-color="#0b0b0b" stop-opacity=".058824" offset=".92919"/>
<stop stop-color="#0b0b0b" stop-opacity=".047059" offset=".93841"/>
<stop stop-color="#0b0b0b" stop-opacity=".031373" offset=".94761"/>
<stop stop-color="#0b0b0b" stop-opacity=".023529" offset=".95381"/>
<stop stop-color="#0b0b0b" stop-opacity=".015686" offset=".95886"/>
<stop stop-color="#0b0b0b" stop-opacity=".011765" offset=".96356"/>
<stop stop-color="#0b0b0b" stop-opacity=".0078431" offset=".96845"/>
<stop stop-color="#0b0b0b" stop-opacity=".0039216" offset=".97348"/>
<stop stop-color="#0b0b0b" stop-opacity="0" offset=".97812"/>
<stop stop-color="#0b0b0b" stop-opacity="0" offset=".98456"/>
<stop stop-color="#0b0b0b" stop-opacity="0" offset=".98701"/>
<stop stop-color="#0b0b0b" stop-opacity="0" offset=".98925"/>
<stop stop-color="#0b0b0b" stop-opacity="0" offset="1"/>
</radialGradient>
<radialGradient id="radialGradient993" cx="16.968" cy="4.6709" r="13.696" gradientTransform="matrix(4.8886 0 0 1.5421 -65.724 -.93385)" gradientUnits="userSpaceOnUse">
<stop stop-color="#e84efc" offset="0"/>
<stop stop-color="#b20ce6" offset="1"/>
</radialGradient>
<linearGradient id="linearGradient1508" x1="7.6892" x2="7.6892" y1="10.895" y2="62.209" gradientTransform="translate(.036982 .018048)" gradientUnits="userSpaceOnUse">
<stop stop-color="#fff" offset="0"/>
<stop stop-color="#8700de" offset="1"/>
</linearGradient>
</defs>
<circle cx="17.203" cy="16.512" r="17.304" fill="url(#radialGradient898)" opacity=".30973" stroke-linecap="square" stroke-linejoin="round" stroke-width="3"/>
<circle cx="17.203" cy="16.512" r="15.118" fill="url(#linearGradient897)" stroke="#b1aaaa" stroke-linecap="square" stroke-opacity=".99216" stroke-width=".057556"/>
<circle cx="17.203" cy="16.512" r="13.102" fill="url(#radialGradient993)"/>
<g transform="translate(.036982 .018048)" fill="#0a0010" fill-opacity=".021767" stroke-width=".48747">
<path d="m11.191 7.3212c-0.01209-3.416e-4 -0.02438 1.286e-4 -0.03721 0.00103-0.10264 0.00719-0.23014 0.05338-0.41238 0.14211-1.0225 0.49781-2.16 1.9424-2.6541 3.3698-0.44061 1.2729-0.483 2.6685-0.11731 3.8029 0.41976 1.263 1.1671 2.3323 2.1704 3.2225 0.2908 0.6349-0.11733 1.0783 0.06976 2.7719 0.43778 4.0504 1.4126 6.488 6.7748 6.488 5.3622 0 6.3375-2.4376 6.7748-6.488 0.18709-1.6937-0.22103-2.137 0.06976-2.7719 1.0033-0.89025 1.7512-1.9596 2.1709-3.2225 0.36569-1.1344 0.32331-2.5299-0.1173-3.8029-0.49409-1.4275-1.6316-2.872-2.6541-3.3698-0.18223-0.08873-0.30974-0.13487-0.41238-0.14211-0.10264-0.00719-0.17975 0.025571-0.26252 0.095601 0 0 0.70112 0.71986 0.77928 1.4268-0.14673 0.51586-1.1358 0.43253-1.1358 0.43253s1.5249 1.4045 1.7937 2.4975c0.21652 0.91827 0.09916 2.6152-0.91881 3.0406 0 0-2.5338-0.8785-6.0875-0.8785s-6.087 0.8785-6.087 0.8785c-1.018-0.42543-1.1353-2.1224-0.91881-3.0406 0.26884-1.093 1.7937-2.4975 1.7937-2.4975s-0.98912 0.08333-1.1358-0.43253c0.07817-0.70692 0.77876-1.4268 0.77876-1.4268-0.07241-0.061276-0.14019-0.094244-0.22479-0.096635zm9.4511 13.462a1.864 2.2668 26.323 0 1 0.78186 0.17105 1.864 2.2668 26.323 0 1 0.63097 2.8737 1.864 2.2668 26.323 0 1-2.6841 1.1684 1.864 2.2668 26.323 0 1-0.63149-2.8732 1.864 2.2668 26.323 0 1 1.9027-1.34zm-7.3143 5.17e-4a2.2668 1.864 63.677 0 1 1.9027 1.34 2.2668 1.864 63.677 0 1-0.63149 2.8732 2.2668 1.864 63.677 0 1-2.6841-1.1684 2.2668 1.864 63.677 0 1 0.63149-2.8737 2.2668 1.864 63.677 0 1 0.78135-0.17105z"/>
<path d="m11.274 7.384c-0.01209-3.416e-4 -0.02438 1.286e-4 -0.03721 0.00103-0.10264 0.00719-0.23014 0.05338-0.41238 0.14211-1.0225 0.49781-2.16 1.9424-2.6541 3.3698-0.44061 1.2729-0.483 2.6685-0.11731 3.8029 0.41976 1.263 1.1671 2.3323 2.1704 3.2225 0.2908 0.6349-0.11733 1.0783 0.06976 2.7719 0.43778 4.0504 1.4126 6.488 6.7748 6.488 5.3622 0 6.3375-2.4376 6.7748-6.488 0.18709-1.6937-0.22103-2.137 0.06976-2.7719 1.0033-0.89025 1.7512-1.9596 2.1709-3.2225 0.36569-1.1344 0.32331-2.5299-0.1173-3.8029-0.49409-1.4275-1.6316-2.872-2.6541-3.3698-0.18223-0.08873-0.30974-0.13487-0.41238-0.14211-0.10264-0.00719-0.17975 0.025571-0.26252 0.095601 0 0 0.70112 0.71986 0.77928 1.4268-0.14673 0.51586-1.1358 0.43253-1.1358 0.43253s1.5249 1.4045 1.7937 2.4975c0.21652 0.91827 0.09916 2.6152-0.91881 3.0406 0 0-2.5338-0.8785-6.0875-0.8785s-6.087 0.8785-6.087 0.8785c-1.018-0.42543-1.1353-2.1224-0.91881-3.0406 0.26884-1.093 1.7937-2.4975 1.7937-2.4975s-0.98912 0.08333-1.1358-0.43253c0.07817-0.70692 0.77876-1.4268 0.77876-1.4268-0.07241-0.061276-0.14019-0.094244-0.22479-0.096635zm9.4511 13.462a1.864 2.2668 26.323 0 1 0.78186 0.17105 1.864 2.2668 26.323 0 1 0.63097 2.8737 1.864 2.2668 26.323 0 1-2.6841 1.1684 1.864 2.2668 26.323 0 1-0.63149-2.8732 1.864 2.2668 26.323 0 1 1.9027-1.34zm-7.3143 5.17e-4a2.2668 1.864 63.677 0 1 1.9027 1.34 2.2668 1.864 63.677 0 1-0.63149 2.8732 2.2668 1.864 63.677 0 1-2.6841-1.1684 2.2668 1.864 63.677 0 1 0.63149-2.8737 2.2668 1.864 63.677 0 1 0.78135-0.17105z"/>
<path d="m11.367 7.4577c-0.01209-3.416e-4 -0.02438 1.286e-4 -0.03721 0.00103-0.10264 0.00719-0.23014 0.05338-0.41238 0.14211-1.0225 0.49781-2.16 1.9424-2.6541 3.3698-0.44061 1.2729-0.483 2.6685-0.11731 3.8029 0.41976 1.263 1.1671 2.3323 2.1704 3.2225 0.2908 0.6349-0.11733 1.0783 0.06976 2.7719 0.43778 4.0504 1.4126 6.488 6.7748 6.488 5.3622 0 6.3375-2.4376 6.7748-6.488 0.18709-1.6937-0.22103-2.137 0.06976-2.7719 1.0033-0.89025 1.7512-1.9596 2.1709-3.2225 0.36569-1.1344 0.32331-2.5299-0.1173-3.8029-0.49409-1.4275-1.6316-2.872-2.6541-3.3698-0.18223-0.08873-0.30974-0.13487-0.41238-0.14211-0.10264-0.00719-0.17975 0.025571-0.26252 0.095601 0 0 0.70112 0.71986 0.77928 1.4268-0.14673 0.51586-1.1358 0.43253-1.1358 0.43253s1.5249 1.4045 1.7937 2.4975c0.21652 0.91827 0.09916 2.6152-0.91881 3.0406 0 0-2.5338-0.8785-6.0875-0.8785s-6.087 0.8785-6.087 0.8785c-1.018-0.42543-1.1353-2.1224-0.91881-3.0406 0.26884-1.093 1.7937-2.4975 1.7937-2.4975s-0.98912 0.08333-1.1358-0.43253c0.07817-0.70692 0.77876-1.4268 0.77876-1.4268-0.07241-0.061276-0.14019-0.094244-0.22479-0.096635zm9.4511 13.462a1.864 2.2668 26.323 0 1 0.78186 0.17105 1.864 2.2668 26.323 0 1 0.63097 2.8737 1.864 2.2668 26.323 0 1-2.6841 1.1684 1.864 2.2668 26.323 0 1-0.63149-2.8732 1.864 2.2668 26.323 0 1 1.9027-1.34zm-7.3143 5.17e-4a2.2668 1.864 63.677 0 1 1.9027 1.34 2.2668 1.864 63.677 0 1-0.63149 2.8732 2.2668 1.864 63.677 0 1-2.6841-1.1684 2.2668 1.864 63.677 0 1 0.63149-2.8737 2.2668 1.864 63.677 0 1 0.78135-0.17105z"/>
<path d="m11.499 7.4806c-0.01209-3.416e-4 -0.02438 1.286e-4 -0.03721 0.00103-0.10264 0.00719-0.23014 0.05338-0.41238 0.14211-1.0225 0.49781-2.16 1.9424-2.6541 3.3698-0.44061 1.2729-0.483 2.6685-0.11731 3.8029 0.41976 1.263 1.1671 2.3323 2.1704 3.2225 0.2908 0.6349-0.11733 1.0783 0.06976 2.7719 0.43778 4.0504 1.4126 6.488 6.7748 6.488 5.3622 0 6.3375-2.4376 6.7748-6.488 0.18709-1.6937-0.22103-2.137 0.06976-2.7719 1.0033-0.89025 1.7512-1.9596 2.1709-3.2225 0.36569-1.1344 0.32331-2.5299-0.1173-3.8029-0.49409-1.4275-1.6316-2.872-2.6541-3.3698-0.18223-0.08873-0.30974-0.13487-0.41238-0.14211-0.10264-0.00719-0.17975 0.025571-0.26252 0.095601 0 0 0.70112 0.71986 0.77928 1.4268-0.14673 0.51586-1.1358 0.43253-1.1358 0.43253s1.5249 1.4045 1.7937 2.4975c0.21652 0.91827 0.09916 2.6152-0.91881 3.0406 0 0-2.5338-0.8785-6.0875-0.8785s-6.087 0.8785-6.087 0.8785c-1.018-0.42543-1.1353-2.1224-0.91881-3.0406 0.26884-1.093 1.7937-2.4975 1.7937-2.4975s-0.98912 0.08333-1.1358-0.43253c0.07817-0.70692 0.77876-1.4268 0.77876-1.4268-0.07241-0.061276-0.14019-0.094244-0.22479-0.096635zm9.4511 13.462a1.864 2.2668 26.323 0 1 0.78186 0.17105 1.864 2.2668 26.323 0 1 0.63097 2.8737 1.864 2.2668 26.323 0 1-2.6841 1.1684 1.864 2.2668 26.323 0 1-0.63149-2.8732 1.864 2.2668 26.323 0 1 1.9027-1.34zm-7.3143 5.17e-4a2.2668 1.864 63.677 0 1 1.9027 1.34 2.2668 1.864 63.677 0 1-0.63149 2.8732 2.2668 1.864 63.677 0 1-2.6841-1.1684 2.2668 1.864 63.677 0 1 0.63149-2.8737 2.2668 1.864 63.677 0 1 0.78135-0.17105z"/>
<path d="m11.592 7.5543c-0.01209-3.416e-4 -0.02438 1.286e-4 -0.03721 0.00103-0.10264 0.00719-0.23014 0.05338-0.41238 0.14211-1.0225 0.49781-2.16 1.9424-2.6541 3.3698-0.44061 1.2729-0.483 2.6685-0.11731 3.8029 0.41976 1.263 1.1671 2.3323 2.1704 3.2225 0.2908 0.6349-0.11733 1.0783 0.06976 2.7719 0.43778 4.0504 1.4126 6.488 6.7748 6.488 5.3622 0 6.3375-2.4376 6.7748-6.488 0.18709-1.6937-0.22103-2.137 0.06976-2.7719 1.0033-0.89025 1.7512-1.9596 2.1709-3.2225 0.36569-1.1344 0.32331-2.5299-0.1173-3.8029-0.49409-1.4275-1.6316-2.872-2.6541-3.3698-0.18223-0.08873-0.30974-0.13487-0.41238-0.14211-0.10264-0.00719-0.17975 0.025571-0.26252 0.095601 0 0 0.70112 0.71986 0.77928 1.4268-0.14673 0.51586-1.1358 0.43253-1.1358 0.43253s1.5249 1.4045 1.7937 2.4975c0.21652 0.91827 0.09916 2.6152-0.91881 3.0406 0 0-2.5338-0.8785-6.0875-0.8785s-6.087 0.8785-6.087 0.8785c-1.018-0.42543-1.1353-2.1224-0.91881-3.0406 0.26884-1.093 1.7937-2.4975 1.7937-2.4975s-0.98912 0.08333-1.1358-0.43253c0.07817-0.70692 0.77876-1.4268 0.77876-1.4268-0.07241-0.061276-0.14019-0.094244-0.22479-0.096635zm9.4511 13.462a1.864 2.2668 26.323 0 1 0.78186 0.17105 1.864 2.2668 26.323 0 1 0.63097 2.8737 1.864 2.2668 26.323 0 1-2.6841 1.1684 1.864 2.2668 26.323 0 1-0.63149-2.8732 1.864 2.2668 26.323 0 1 1.9027-1.34zm-7.3143 5.17e-4a2.2668 1.864 63.677 0 1 1.9027 1.34 2.2668 1.864 63.677 0 1-0.63149 2.8732 2.2668 1.864 63.677 0 1-2.6841-1.1684 2.2668 1.864 63.677 0 1 0.63149-2.8737 2.2668 1.864 63.677 0 1 0.78135-0.17105z"/>
<path d="m11.723 7.5773c-0.01209-3.416e-4 -0.02438 1.286e-4 -0.03721 0.00103-0.10264 0.00719-0.23014 0.05338-0.41238 0.14211-1.0225 0.49781-2.16 1.9424-2.6541 3.3698-0.44061 1.2729-0.483 2.6685-0.11731 3.8029 0.41976 1.263 1.1671 2.3323 2.1704 3.2225 0.2908 0.6349-0.11733 1.0783 0.06976 2.7719 0.43778 4.0504 1.4126 6.488 6.7748 6.488 5.3622 0 6.3375-2.4376 6.7748-6.488 0.18709-1.6937-0.22103-2.137 0.06976-2.7719 1.0033-0.89025 1.7512-1.9596 2.1709-3.2225 0.36569-1.1344 0.32331-2.5299-0.1173-3.8029-0.49409-1.4275-1.6316-2.872-2.6541-3.3698-0.18223-0.08873-0.30974-0.13487-0.41238-0.14211-0.10264-0.00719-0.17975 0.025571-0.26252 0.095601 0 0 0.70112 0.71986 0.77928 1.4268-0.14673 0.51586-1.1358 0.43253-1.1358 0.43253s1.5249 1.4045 1.7937 2.4975c0.21652 0.91827 0.09916 2.6152-0.91881 3.0406 0 0-2.5338-0.8785-6.0875-0.8785s-6.087 0.8785-6.087 0.8785c-1.018-0.42543-1.1353-2.1224-0.91881-3.0406 0.26884-1.093 1.7937-2.4975 1.7937-2.4975s-0.98912 0.08333-1.1358-0.43253c0.07817-0.70692 0.77876-1.4268 0.77876-1.4268-0.07241-0.061276-0.14019-0.094244-0.22479-0.096635zm9.4511 13.462a1.864 2.2668 26.323 0 1 0.78186 0.17105 1.864 2.2668 26.323 0 1 0.63097 2.8737 1.864 2.2668 26.323 0 1-2.6841 1.1684 1.864 2.2668 26.323 0 1-0.63149-2.8732 1.864 2.2668 26.323 0 1 1.9027-1.34zm-7.3143 5.17e-4a2.2668 1.864 63.677 0 1 1.9027 1.34 2.2668 1.864 63.677 0 1-0.63149 2.8732 2.2668 1.864 63.677 0 1-2.6841-1.1684 2.2668 1.864 63.677 0 1 0.63149-2.8737 2.2668 1.864 63.677 0 1 0.78135-0.17105z"/>
<path d="m11.868 7.643c-0.01209-3.416e-4 -0.02438 1.286e-4 -0.03721 0.00103-0.10264 0.00719-0.23014 0.05338-0.41238 0.14211-1.0225 0.49781-2.16 1.9424-2.6541 3.3698-0.44061 1.2729-0.483 2.6685-0.11731 3.8029 0.41976 1.263 1.1671 2.3323 2.1704 3.2225 0.2908 0.6349-0.11733 1.0783 0.06976 2.7719 0.43778 4.0504 1.4126 6.488 6.7748 6.488 5.3622 0 6.3375-2.4376 6.7748-6.488 0.18709-1.6937-0.22103-2.137 0.06976-2.7719 1.0033-0.89025 1.7512-1.9596 2.1709-3.2225 0.36569-1.1344 0.32331-2.5299-0.1173-3.8029-0.49409-1.4275-1.6316-2.872-2.6541-3.3698-0.18223-0.08873-0.30974-0.13487-0.41238-0.14211-0.10264-0.00719-0.17975 0.025571-0.26252 0.095601 0 0 0.70112 0.71986 0.77928 1.4268-0.14673 0.51586-1.1358 0.43253-1.1358 0.43253s1.5249 1.4045 1.7937 2.4975c0.21652 0.91827 0.09916 2.6152-0.91881 3.0406 0 0-2.5338-0.8785-6.0875-0.8785s-6.087 0.8785-6.087 0.8785c-1.018-0.42543-1.1353-2.1224-0.91881-3.0406 0.26884-1.093 1.7937-2.4975 1.7937-2.4975s-0.98912 0.08333-1.1358-0.43253c0.07817-0.70692 0.77876-1.4268 0.77876-1.4268-0.07241-0.061276-0.14019-0.094244-0.22479-0.096635zm9.4511 13.462a1.864 2.2668 26.323 0 1 0.78186 0.17105 1.864 2.2668 26.323 0 1 0.63097 2.8737 1.864 2.2668 26.323 0 1-2.6841 1.1684 1.864 2.2668 26.323 0 1-0.63149-2.8732 1.864 2.2668 26.323 0 1 1.9027-1.34zm-7.3143 5.17e-4a2.2668 1.864 63.677 0 1 1.9027 1.34 2.2668 1.864 63.677 0 1-0.63149 2.8732 2.2668 1.864 63.677 0 1-2.6841-1.1684 2.2668 1.864 63.677 0 1 0.63149-2.8737 2.2668 1.864 63.677 0 1 0.78135-0.17105z"/>
<path d="m12.043 7.7045c-0.01209-3.416e-4 -0.02438 1.286e-4 -0.03721 0.00103-0.10264 0.00719-0.23014 0.05338-0.41238 0.14211-1.0225 0.49781-2.16 1.9424-2.6541 3.3698-0.44061 1.2729-0.483 2.6685-0.11731 3.8029 0.41976 1.263 1.1671 2.3323 2.1704 3.2225 0.2908 0.6349-0.11733 1.0783 0.06976 2.7719 0.43778 4.0504 1.4126 6.488 6.7748 6.488 5.3622 0 6.3375-2.4376 6.7748-6.488 0.18709-1.6937-0.22103-2.137 0.06976-2.7719 1.0033-0.89025 1.7512-1.9596 2.1709-3.2225 0.36569-1.1344 0.32331-2.5299-0.1173-3.8029-0.49409-1.4275-1.6316-2.872-2.6541-3.3698-0.18223-0.08873-0.30974-0.13487-0.41238-0.14211-0.10264-0.00719-0.17975 0.025571-0.26252 0.095601 0 0 0.70112 0.71986 0.77928 1.4268-0.14673 0.51586-1.1358 0.43253-1.1358 0.43253s1.5249 1.4045 1.7937 2.4975c0.21652 0.91827 0.09916 2.6152-0.91881 3.0406 0 0-2.5338-0.8785-6.0875-0.8785s-6.087 0.8785-6.087 0.8785c-1.018-0.42543-1.1353-2.1224-0.91881-3.0406 0.26884-1.093 1.7937-2.4975 1.7937-2.4975s-0.98912 0.08333-1.1358-0.43253c0.07817-0.70692 0.77876-1.4268 0.77876-1.4268-0.07241-0.061276-0.14019-0.094244-0.22479-0.096635zm9.4511 13.462a1.864 2.2668 26.323 0 1 0.78186 0.17105 1.864 2.2668 26.323 0 1 0.63097 2.8737 1.864 2.2668 26.323 0 1-2.6841 1.1684 1.864 2.2668 26.323 0 1-0.63149-2.8732 1.864 2.2668 26.323 0 1 1.9027-1.34zm-7.3143 5.17e-4a2.2668 1.864 63.677 0 1 1.9027 1.34 2.2668 1.864 63.677 0 1-0.63149 2.8732 2.2668 1.864 63.677 0 1-2.6841-1.1684 2.2668 1.864 63.677 0 1 0.63149-2.8737 2.2668 1.864 63.677 0 1 0.78135-0.17105z"/>
<path d="m12.257 7.7575c-0.01209-3.416e-4 -0.02438 1.286e-4 -0.03721 0.00103-0.10264 0.00719-0.23014 0.05338-0.41238 0.14211-1.0225 0.49781-2.16 1.9424-2.6541 3.3698-0.44061 1.2729-0.483 2.6685-0.11731 3.8029 0.41976 1.263 1.1671 2.3323 2.1704 3.2225 0.2908 0.6349-0.11733 1.0783 0.06976 2.7719 0.43778 4.0504 1.4126 6.488 6.7748 6.488 5.3622 0 6.3375-2.4376 6.7748-6.488 0.18709-1.6937-0.22103-2.137 0.06976-2.7719 1.0033-0.89025 1.7512-1.9596 2.1709-3.2225 0.36569-1.1344 0.32331-2.5299-0.1173-3.8029-0.49409-1.4275-1.6316-2.872-2.6541-3.3698-0.18223-0.08873-0.30974-0.13487-0.41238-0.14211-0.10264-0.00719-0.17975 0.025571-0.26252 0.095601 0 0 0.70112 0.71986 0.77928 1.4268-0.14673 0.51586-1.1358 0.43253-1.1358 0.43253s1.5249 1.4045 1.7937 2.4975c0.21652 0.91827 0.09916 2.6152-0.91881 3.0406 0 0-2.5338-0.8785-6.0875-0.8785s-6.087 0.8785-6.087 0.8785c-1.018-0.42543-1.1353-2.1224-0.91881-3.0406 0.26884-1.093 1.7937-2.4975 1.7937-2.4975s-0.98912 0.08333-1.1358-0.43253c0.07817-0.70692 0.77876-1.4268 0.77876-1.4268-0.07241-0.061276-0.14019-0.094244-0.22479-0.096635zm9.4511 13.462a1.864 2.2668 26.323 0 1 0.78186 0.17105 1.864 2.2668 26.323 0 1 0.63097 2.8737 1.864 2.2668 26.323 0 1-2.6841 1.1684 1.864 2.2668 26.323 0 1-0.63149-2.8732 1.864 2.2668 26.323 0 1 1.9027-1.34zm-7.3143 5.17e-4a2.2668 1.864 63.677 0 1 1.9027 1.34 2.2668 1.864 63.677 0 1-0.63149 2.8732 2.2668 1.864 63.677 0 1-2.6841-1.1684 2.2668 1.864 63.677 0 1 0.63149-2.8737 2.2668 1.864 63.677 0 1 0.78135-0.17105z"/>
</g>
<path d="m11.194 7.2019c-0.01209-3.416e-4 -0.02438 1.286e-4 -0.03721 0.00103-0.10264 0.00719-0.23014 0.05338-0.41238 0.14211-1.0225 0.49781-2.16 1.9424-2.6541 3.3698-0.44061 1.2729-0.483 2.6685-0.11731 3.8029 0.41976 1.263 1.1671 2.3323 2.1704 3.2225 0.2908 0.6349-0.11733 1.0783 0.06976 2.7719 0.43778 4.0504 1.4126 6.488 6.7748 6.488 5.3622 0 6.3375-2.4376 6.7748-6.488 0.18709-1.6937-0.22103-2.137 0.06976-2.7719 1.0033-0.89025 1.7512-1.9596 2.1709-3.2225 0.36569-1.1344 0.32331-2.5299-0.1173-3.8029-0.49409-1.4275-1.6316-2.872-2.6541-3.3698-0.18223-0.08873-0.30974-0.13487-0.41238-0.14211-0.10264-0.00719-0.17975 0.025571-0.26252 0.095601 0 0 0.70112 0.71986 0.77928 1.4268-0.14673 0.51586-1.1358 0.43253-1.1358 0.43253s1.5249 1.4045 1.7937 2.4975c0.21652 0.91827 0.09916 2.6152-0.91881 3.0406 0 0-2.5338-0.8785-6.0875-0.8785s-6.087 0.8785-6.087 0.8785c-1.018-0.42543-1.1353-2.1224-0.91881-3.0406 0.26884-1.093 1.7937-2.4975 1.7937-2.4975s-0.98912 0.083327-1.1358-0.43253c0.07817-0.70692 0.77876-1.4268 0.77876-1.4268-0.07241-0.061276-0.14019-0.094244-0.22479-0.096635zm9.4511 13.462a1.864 2.2668 26.323 0 1 0.78186 0.17105 1.864 2.2668 26.323 0 1 0.63097 2.8737 1.864 2.2668 26.323 0 1-2.6841 1.1684 1.864 2.2668 26.323 0 1-0.63149-2.8732 1.864 2.2668 26.323 0 1 1.9027-1.34zm-7.3143 5.17e-4a2.2668 1.864 63.677 0 1 1.9027 1.34 2.2668 1.864 63.677 0 1-0.63149 2.8732 2.2668 1.864 63.677 0 1-2.6841-1.1684 2.2668 1.864 63.677 0 1 0.63149-2.8737 2.2668 1.864 63.677 0 1 0.78135-0.17105z" fill="url(#linearGradient1508)" stroke-width=".48747"/>
</svg>
