<?xml version="1.0" encoding="UTF-8" standalone="no"?>
<svg
   width="128"
   height="128"
   version="1.1"
   viewBox="0 0 128 128"
   id="svg11"
   sodipodi:docname="home-assistant.svg"
   inkscape:version="1.4.3 (0d15f75042, 2025-12-25)"
   xmlns:inkscape="http://www.inkscape.org/namespaces/inkscape"
   xmlns:sodipodi="http://sodipodi.sourceforge.net/DTD/sodipodi-0.dtd"
   xmlns="http://www.w3.org/2000/svg"
   xmlns:svg="http://www.w3.org/2000/svg">
  <sodipodi:namedview
     id="namedview11"
     pagecolor="#ffffff"
     bordercolor="#000000"
     borderopacity="0.25"
     inkscape:showpageshadow="2"
     inkscape:pageopacity="0.0"
     inkscape:pagecheckerboard="0"
     inkscape:deskcolor="#d1d1d1"
     inkscape:zoom="7.328125"
     inkscape:cx="64.06823"
     inkscape:cy="64"
     inkscape:window-width="1920"
     inkscape:window-height="1168"
     inkscape:window-x="0"
     inkscape:window-y="0"
     inkscape:window-maximized="1"
     inkscape:current-layer="svg11" />
  <defs
     id="defs6">
    <linearGradient
       id="linearGradient825"
       x1="-741.83"
       x2="-741.83"
       y1="959.05"
       y2="93.836"
       gradientTransform="matrix(.13668 0 0 .13668 162.31 -5.9893)"
       gradientUnits="userSpaceOnUse">
      <stop
         stop-color="#0241b5"
         offset="0"
         id="stop1" />
      <stop
         stop-color="#57b9f2"
         offset="1"
         id="stop2" />
    </linearGradient>
    <linearGradient
       id="linearGradient835"
       x1="-738.76"
       x2="-738.76"
       y1="931.43"
       y2="152.13"
       gradientTransform="matrix(.13668 0 0 .13668 162.31 -5.9893)"
       gradientUnits="userSpaceOnUse">
      <stop
         stop-color="#0152ee"
         offset="0"
         id="stop3"
         style="stop-color:#2f71f9;stop-opacity:1;" />
      <stop
         stop-color="#2ba7ef"
         offset="1"
         id="stop4"
         style="stop-color:#02c5fd;stop-opacity:1;" />
    </linearGradient>
    <linearGradient
       id="linearGradient860"
       x1="50.303"
       x2="50.303"
       y1="40.983"
       y2="224.23"
       gradientUnits="userSpaceOnUse">
      <stop
         stop-color="#fff"
         offset="0"
         id="stop5" />
      <stop
         stop-color="#0961ee"
         offset="1"
         id="stop6" />
    </linearGradient>
  </defs>
  <circle
     cx="63.592"
     cy="64.286"
     r="61.38"
     fill="url(#linearGradient825)"
     id="circle6" />
  <circle
     cx="63.592"
     cy="64.286"
     r="55.09"
     fill="url(#linearGradient835)"
     id="circle7" />
  <path
     d="m 62.554032,96.54419 -0.05991,-0.06 0.05991,0.06 H 34.460158 c -0.870427,0 -1.560762,-0.70535 -1.560762,-1.56077 V 68.120165 h -7.023465 c -1.035512,0 -1.875929,-0.840412 -1.875929,-1.875926 0,-0.495241 0.195095,-0.975482 0.540254,-1.320653 l 37.77365,-38.223869 c 0.915457,-0.930452 2.401196,-0.930452 3.331641,-0.01493 l 0.01422,0.01493 19.734755,19.854797 v -3.676811 c 0,-0.870432 0.70534,-1.560764 1.56076,-1.560764 h 6.55824 c 0.87044,0 1.56076,0.705342 1.56076,1.560764 v 13.491659 l 8.389148,8.554224 c 0.72036,0.735362 0.72036,1.935955 -0.0301,2.656307 -0.34518,0.345182 -0.82541,0.540272 -1.32065,0.540272 H 95.074282 V 94.96841 c 0,0.87043 -0.70536,1.56077 -1.56078,1.56077 H 65.404691 l 0.03005,-0.03 -0.03005,0.03 5.852893,-5.83788 h 5.402666 c 0.4202,1.17058 1.530753,2.01099 2.851406,2.01099 1.665812,0 3.031496,-1.35066 3.031496,-3.01648 0,-1.66583 -1.35068,-3.01649 -3.031496,-3.01649 -1.320653,0 -2.446211,0.84041 -2.851406,2.01099 h -6.243083 l -5.432693,5.43268 v -6.61827 l 6.468188,-6.468187 h 10.460173 c 0.4202,1.170577 1.530757,2.010987 2.851407,2.010987 1.66581,0 3.0315,-1.350663 3.0315,-3.016485 0,-1.665821 -1.35067,-3.016488 -3.0315,-3.016488 -1.32065,0 -2.446194,0.840415 -2.851407,2.010994 h -8.434162 l 6.047988,-6.032984 v -5.042472 l 4.352151,-4.337154 c 0.39019,0.195101 0.84041,0.300153 1.30563,0.300153 1.66583,0 3.03151,-1.350664 3.03151,-3.01649 0,-1.665825 -1.35068,-3.016489 -3.03151,-3.016489 -1.66581,0 -3.03148,1.350664 -3.03148,3.016489 0,0.465231 0.105068,0.915452 0.300145,1.305653 l -2.926446,2.91143 V 55.87412 c 1.170571,-0.420202 2.026011,-1.530755 2.026011,-2.851408 0,-1.665824 -1.35068,-3.016488 -3.031515,-3.016488 -1.665829,0 -3.031496,1.350664 -3.031496,3.016488 0,1.320653 0.840417,2.431206 2.026011,2.851408 v 9.229557 l -2.926446,-2.926449 c 0.195095,-0.390192 0.300145,-0.840413 0.300145,-1.305634 0,-1.665835 -1.350662,-3.016499 -3.031496,-3.016499 -1.680835,0 -3.031497,1.350664 -3.031497,3.016499 0,1.665816 1.350662,3.016488 3.031497,3.016488 0.465231,0 0.91544,-0.105067 1.305648,-0.300161 l 4.352149,4.337154 v 4.202069 l -5.447698,5.447684 V 73.58286 c 1.17059,-0.420212 2.025994,-1.530765 2.025994,-2.851399 0,-1.665835 -1.350663,-3.016497 -3.031497,-3.016497 -1.665812,0 -3.031478,1.350662 -3.031478,3.016497 0,1.320634 0.840417,2.431187 2.025993,2.851399 v 6.002962 L 65.014501,84.62831 V 55.033697 l 4.142032,-4.142031 c 0.39019,0.195091 0.840417,0.30015 1.305648,0.30015 1.66583,0 3.031496,-1.350673 3.031496,-3.016488 0,-1.665835 -1.350662,-3.016499 -3.031496,-3.016499 -1.665812,0 -3.031479,1.350664 -3.031479,3.016499 0,0.46522 0.105068,0.915442 0.300128,1.305643 l -3.721832,3.721832 -3.721832,-3.721832 c 0.195095,-0.390201 0.300145,-0.840423 0.300145,-1.305643 0,-1.665835 -1.350662,-3.016499 -3.031496,-3.016499 -1.66583,0 -3.031497,1.350664 -3.031497,3.016499 0,1.665815 1.350662,3.016488 3.031497,3.016488 0.465231,0 0.91544,-0.10505 1.305648,-0.30015 l 4.142032,4.142031 v 21.130429 l -7.263574,-7.248569 v -5.792856 c 1.170572,-0.420212 2.025993,-1.530755 2.025993,-2.851408 0,-1.665826 -1.350662,-3.01649 -3.031478,-3.01649 -1.665847,0 -3.031496,1.350664 -3.031496,3.01649 0,1.320653 0.840399,2.431196 2.025993,2.851408 v 3.781861 L 48.071882,61.261785 V 55.66402 c 1.170589,-0.420212 2.025993,-1.530755 2.025993,-2.851409 0,-1.665825 -1.350662,-3.016489 -3.031496,-3.016489 -1.665812,0 -3.031497,1.350664 -3.031497,3.016489 0,1.320654 0.840435,2.431197 2.026011,2.851409 v 6.438168 l 6.243084,6.228077 h -3.586773 c -0.420218,-1.170574 -1.530771,-2.010996 -2.851406,-2.010996 -1.66583,0 -3.031496,1.350664 -3.031496,3.016499 0,1.665824 1.350662,3.016488 3.031496,3.016488 1.320635,0 2.446211,-0.840423 2.851406,-2.010996 h 5.612766 l 8.689276,8.674281 V 94.09798 l -4.637272,-4.63729 v -5.80786 c 1.170571,-0.42021 2.025993,-1.53076 2.025993,-2.851409 0,-1.665822 -1.350662,-3.016488 -3.031496,-3.016488 -1.665812,0 -3.031497,1.350666 -3.031497,3.016488 0,1.320649 0.840417,2.431199 2.026011,2.851409 v 3.78186 l -6.753346,-6.73832 c 0.195113,-0.390193 0.300163,-0.840416 0.300163,-1.305645 0,-1.665823 -1.35068,-3.016497 -3.031514,-3.016497 -1.665812,0 -3.031496,1.350674 -3.031496,3.016497 0,1.665822 1.35068,3.016485 3.031496,3.016485 0.465231,0 0.915458,-0.10505 1.305648,-0.30014 l 6.753346,6.73832 h -3.58679 c -0.4202,-1.17058 -1.530753,-2.01099 -2.851406,-2.01099 -1.665812,0 -3.031478,1.35067 -3.031478,3.01649 0,1.66582 1.350662,3.01649 3.031478,3.01649 1.320653,0 2.446229,-0.84042 2.851406,-2.011 h 5.612784 l 5.582756,5.68781 M 47.021365,51.597008 c -0.675331,0 -1.215603,0.540261 -1.215603,1.215603 0,0.660322 0.540272,1.215604 1.215603,1.215604 0.675331,0 1.215603,-0.540272 1.215603,-1.215604 0,-0.675342 -0.540272,-1.215603 -1.215603,-1.215603 z m 7.668786,7.458681 c -0.675331,0 -1.215603,0.540271 -1.215603,1.215604 0,0.660332 0.540272,1.215593 1.215603,1.215593 0.675331,0 1.215585,-0.540262 1.215585,-1.215593 0,-0.675333 -0.540254,-1.215604 -1.215585,-1.215604 z m 2.836401,-12.095964 c -0.675331,0 -1.215603,0.540261 -1.215603,1.215603 0,0.675322 0.540272,1.215583 1.215603,1.215583 0.675331,0 1.215585,-0.540261 1.215585,-1.215583 0,-0.675342 -0.555258,-1.215603 -1.215585,-1.215603 z m 27.65864,15.112452 c 0.67534,0 1.2156,-0.540262 1.2156,-1.215593 0,-0.675341 -0.54026,-1.215603 -1.2156,-1.215603 -0.67532,0 -1.21561,0.540262 -1.21561,1.215603 0,0.675331 0.54029,1.215593 1.21561,1.215593 z M 70.447941,49.375912 c 0.675313,0 1.215585,-0.540263 1.215585,-1.215594 0,-0.675342 -0.540272,-1.215603 -1.215585,-1.215603 -0.675349,0 -1.215621,0.540261 -1.215621,1.215603 0,0.675331 0.540272,1.215594 1.215621,1.215594 z m 1.41068,10.280079 c -0.675331,0 -1.215603,0.540262 -1.215603,1.215603 0,0.675322 0.540272,1.215584 1.215603,1.215584 0.675331,0 1.215603,-0.540262 1.215603,-1.215584 0,-0.675341 -0.555276,-1.215603 -1.215603,-1.215603 z m -26.052859,8.464174 c -0.675331,0 -1.215585,0.540261 -1.215585,1.215603 0,0.660323 0.540254,1.215592 1.215585,1.215592 0.675331,0 1.215603,-0.540259 1.215603,-1.215592 0,-0.675342 -0.540272,-1.215603 -1.215603,-1.215603 z m 38.97425,13.101463 c 0.67531,0 1.21558,-0.540268 1.21558,-1.215599 0,-0.675335 -0.54027,-1.215602 -1.21558,-1.215602 -0.67535,0 -1.21562,0.540267 -1.21562,1.215602 0,0.675331 0.54027,1.215599 1.21562,1.215599 z M 78.521904,51.807109 c -0.675331,0 -1.215585,0.54027 -1.215585,1.215603 0,0.660332 0.540254,1.215603 1.215585,1.215603 0.675349,0 1.215603,-0.540261 1.215603,-1.215603 -0.01422,-0.675333 -0.555276,-1.215603 -1.215603,-1.215603 z m -7.473673,17.72375 c -0.675349,0 -1.215621,0.540271 -1.215621,1.215602 0,0.675332 0.540272,1.215594 1.215621,1.215594 0.675331,0 1.215585,-0.540262 1.215585,-1.215594 0,-0.675331 -0.540254,-1.215602 -1.215585,-1.215602 z M 46.82627,78.20514 c -0.675331,0 -1.215603,0.540266 -1.215603,1.215599 0,0.660325 0.540272,1.215602 1.215603,1.215602 0.675331,0 1.215603,-0.540269 1.215603,-1.215602 -0.01422,-0.675333 -0.555277,-1.215599 -1.215603,-1.215599 z m 1.605793,10.47517 c -0.675331,0 -1.215603,0.54027 -1.215603,1.2156 0,0.66032 0.540272,1.2156 1.215603,1.2156 0.675331,0 1.215603,-0.54027 1.215603,-1.2156 0,-0.67533 -0.540272,-1.2156 -1.215603,-1.2156 z m 31.095344,2.22109 c 0.675331,0 1.215603,-0.54026 1.215603,-1.21559 0,-0.66033 -0.540272,-1.2156 -1.215603,-1.2156 -0.675331,0 -1.215603,0.54026 -1.215603,1.2156 0,0.67533 0.540272,1.21559 1.215603,1.21559 z M 57.316435,79.615836 c -0.675314,0 -1.215586,0.540267 -1.215586,1.215598 0,0.660326 0.540272,1.215606 1.215586,1.215606 0.675348,0 1.215603,-0.54027 1.215603,-1.215606 0,-0.675331 -0.540255,-1.215598 -1.215603,-1.215598 z"
     style="fill:#ffffff;stroke-width:0.150074"
     id="path1" />
</svg>
