<svg width="128" height="128" version="1.1" viewBox="0 0 128 128" xmlns="http://www.w3.org/2000/svg" xmlns:xlink="http://www.w3.org/1999/xlink">
<defs>
<linearGradient id="linearGradient825" x1="-741.83" x2="-741.83" y1="959.05" y2="93.836" gradientTransform="matrix(.1342 0 0 .1342 160.37 -5.4564)" gradientUnits="userSpaceOnUse">
<stop stop-color="#0081f7" offset="0"/>
<stop stop-color="#3fbdff" offset="1"/>
</linearGradient>
<linearGradient id="linearGradient835" x1="-738.76" x2="-738.76" y1="931.43" y2="152.13" gradientTransform="matrix(.1342 0 0 .1342 160.37 -5.4564)" gradientUnits="userSpaceOnUse">
<stop stop-color="#1f93ff" offset="0"/>
<stop stop-color="#39bdff" offset="1"/>
</linearGradient>
</defs>
<g transform="translate(-138.41 -15.501)" fill="none" opacity=".445" stroke="#000" stroke-linecap="round" stroke-linejoin="round" stroke-opacity=".031373">
<circle cx="202.16" cy="79.683" r="60.269" opacity="1" stroke-width=".5"/>
<circle cx="202.16" cy="79.683" r="60.269" opacity="1"/>
<circle cx="202.16" cy="79.683" r="60.269" opacity="1" stroke-width="1.5"/>
<circle cx="202.16" cy="79.683" r="60.269" opacity="1" stroke-width="2"/>
<circle cx="202.16" cy="79.683" r="60.269" opacity="1" stroke-width="2.5"/>
<circle cx="202.16" cy="79.683" r="60.269" opacity="1" stroke-width="3"/>
<circle cx="202.16" cy="79.683" r="60.269" opacity="1" stroke-width="3.5"/>
<circle cx="202.16" cy="79.683" r="60.269" opacity="1" stroke-width="4"/>
<circle cx="202.16" cy="79.683" r="60.269" opacity="1" stroke-width="4.5"/>
<circle cx="202.16" cy="79.683" r="60.269" opacity="1" stroke-width="5.5"/>
<circle cx="202.16" cy="79.683" r="60.269" opacity="1" stroke-width="6.5"/>
</g>
<circle cx="63.433" cy="63.547" r="60.269" fill="url(#linearGradient825)"/>
<circle cx="63.433" cy="63.547" r="54.093" fill="url(#linearGradient835)"/>
<path d="m49.262 31.716-14.186 19.149 4.0101 7.9502h42.508c-0.40101 10.196-0.47119 12.662-2.6467 17.936-1.2833 3.1078-2.9073 5.0529-6.1556 6.5766-3.2583 1.5239-8.4714 2.4461-16.392 1.9349l-0.64164 9.9452c8.9226 0.58148 15.8-0.30077 21.255-2.8372a22.216 22.216 0 0 0 11.158-11.82c4.0303-9.7648 2.9474-14.637 3.6192-26.437l-0.21053-5.2734h-42.599l8.291-11.178z" fill="#fff" fill-rule="evenodd" stroke-width="8.0207"/>
</svg>
