<svg width="128" height="128" version="1.1" xmlns="http://www.w3.org/2000/svg" xmlns:xlink="http://www.w3.org/1999/xlink">
<defs>
<linearGradient id="linearGradient6461" x1="118.39" x2="118.39" y1="101.61" y2="148.65" gradientTransform="matrix(5.9582 0 0 5.9582 -342.59 -360.29)" gradientUnits="userSpaceOnUse">
<stop stop-color="#f4f4f4" offset="0"/>
<stop stop-color="#dce3ec" offset="1"/>
</linearGradient>
<linearGradient id="linearGradient916" x1="72.772" x2="72.065" y1="108.4" y2="224.58" gradientTransform="matrix(.84827 0 0 .84827 2.708 -83.53)" gradientUnits="userSpaceOnUse">
<stop stop-color="#80faed" offset="0"/>
<stop stop-color="#097fca" offset="1"/>
</linearGradient>
<filter id="filter982" x="-.034921" y="-.037148" width="1.0698" height="1.0743" color-interpolation-filters="sRGB">
<feGaussianBlur stdDeviation="1.6936817"/>
</filter>
</defs>
<path d="m64.438 11.649c30.932 0.39916 55.355 16.126 56.159 42.575 0.83015 27.305-23.849 52.126-56.14 53.107-4.5674 0.13886-11.595-0.95797-15.886-1.6397-2.0734 3.5341-15.768 10.268-23.341 10.588 1.8946-2.2652 8.4833-9.4906 9.0531-13.57l-8.5607-5.9364c-1.2056-0.83684-2.3644-1.7306-3.4755-2.6757-11.2-9.527-17.548-24.271-17.981-38.514-0.83019-27.307 24.896-42.861 57.186-43.842 1.0091-0.03071 3.0156 0.9157 2.9848-0.09074z" color="#000000" fill="none" stroke="#000" stroke-linecap="round" stroke-opacity=".077778" stroke-width="2"/>
<path d="m64.438 11.649c30.932 0.39916 55.355 16.126 56.159 42.575 0.83015 27.305-23.849 52.126-56.14 53.107-4.5674 0.13886-11.595-0.95797-15.886-1.6397-2.0734 3.5341-15.768 10.268-23.341 10.588 1.8946-2.2652 8.4833-9.4906 9.0531-13.57l-8.5607-5.9364c-1.2056-0.83684-2.3644-1.7306-3.4755-2.6757-11.2-9.527-17.548-24.271-17.981-38.514-0.83019-27.307 24.896-42.861 57.186-43.842 1.0091-0.03071 3.0156 0.9157 2.9848-0.09074z" color="#000000" fill="none" stroke="#000" stroke-linecap="round" stroke-opacity=".077778" stroke-width="5"/>
<path d="m64.438 11.648v0.001953c0.030822 1.0064-1.9753 0.061087-2.9844 0.091797-32.29 0.9817-58.016 16.535-57.186 43.842 0.43304 14.244 6.7804 28.987 17.98 38.514 1.1111 0.9451 2.271 1.8389 3.4766 2.6758l8.5605 5.9375c-0.56982 4.079-7.1601 11.303-9.0547 13.568 7.5725-0.32031 21.268-7.0538 23.342-10.588 2.9971 0.47618 7.3202 1.1462 11.217 1.4648 6.3257 6.1892 15.787 10.121 26.371 10.121 2.6954 0 5.3067-0.27234 7.8242-0.74023 2.794-0.59121 9.979 4.4216 13.617 4.5332 0.40963-1.5853-5.739-6.7894-3.377-7.9726 9.8676-5.0142 16.426-14.015 16.426-24.293 0-5.0568-1.6-9.8021-4.3926-13.92 2.9929-6.4562 4.5585-13.469 4.3398-20.66-0.80411-26.449-25.228-42.177-56.16-42.576z" color="#000000" fill="#304050" fill-opacity=".22814" filter="url(#filter982)"/>
<path d="m64.438 11.649c30.932 0.39916 55.355 16.126 56.159 42.575 0.83015 27.305-23.849 52.126-56.14 53.107-4.5674 0.13886-11.595-0.95797-15.886-1.6397-2.0734 3.5341-15.768 10.268-23.341 10.588 1.8946-2.2652 8.4833-9.4906 9.0531-13.57l-8.5607-5.9364c-1.2056-0.83684-2.3644-1.7306-3.4755-2.6757-11.2-9.527-17.548-24.271-17.981-38.514-0.83019-27.307 24.896-42.861 57.186-43.842l2.9848-0.09074z" color="#000000" fill="url(#linearGradient916)"/>
<path d="m84.399 60.293c-18.23 0.77172-32.729 13.259-32.729 28.511 0 15.745 15.435 28.473 34.49 28.473 2.6954 0 5.3064-0.27091 7.8239-0.7388 2.794-0.59121 9.9789 4.4206 13.617 4.5321 0.40963-1.5853-5.7385-6.7893-3.3764-7.9725 9.8676-5.0142 16.426-14.015 16.426-24.293 0-15.746-15.435-28.511-34.49-28.511-0.59552 0-1.1733-0.08101-1.7614 0z" color="#000000" fill="url(#linearGradient6461)"/>
<circle cx="70.553" cy="89.15" r="5.6177" color="#000000" fill="#0dd7ba"/>
<circle cx="87.465" cy="89.15" r="5.6177" color="#000000" fill="#0dd7ba"/>
<circle cx="104.73" cy="89.15" r="5.6177" color="#000000" fill="#0dd7ba"/>
</svg>
