<svg width="128" height="128" version="1.1" viewBox="0 0 128 128" xmlns="http://www.w3.org/2000/svg" xmlns:xlink="http://www.w3.org/1999/xlink">
<defs>
<linearGradient id="linearGradient823" x1="69.054" x2="68.287" y1="10.514" y2="121.01" gradientTransform="matrix(.94602 0 0 .94602 -.89771 -.44925)" gradientUnits="userSpaceOnUse">
<stop stop-color="#fd814d" offset="0"/>
<stop stop-color="#fd5738" offset="1"/>
</linearGradient>
<linearGradient id="linearGradient1080" x1="701.81" x2="699.28" y1="398.37" y2="220.53" gradientTransform="matrix(.66355 0 0 .66355 -399.67 -144.99)" gradientUnits="userSpaceOnUse">
<stop stop-color="#cccdd1" offset="0"/>
<stop stop-color="#f7f9f9" offset="1"/>
</linearGradient>
</defs>
<circle cx="64.333" cy="64.226" r="60.566" fill="url(#linearGradient823)" stroke="#cccdd1" stroke-width="4.6449"/>
<path d="m41.635 36.191c4.6623 0 9.1508 0.60322 13.465 1.8097 4.3146 1.2065 8.3532 2.9139 12.116 5.1224 3.7626 2.2084 7.1878 4.8565 10.276 7.9443 3.0876 3.0877 5.7357 6.5129 7.9443 10.275 2.2081 3.7628 3.9156 7.8013 5.1224 12.116 1.2066 4.3146 1.8098 8.8027 1.8098 13.465 0 1.4723-0.52135 2.7295-1.5642 3.7727-1.0429 1.0432-2.3004 1.5641-3.7727 1.5641-1.4724 0-2.7299-0.52114-3.7731-1.5641-1.0427-1.0429-1.5641-2.3004-1.5641-3.7727 0-3.681-0.48072-7.2287-1.4417-10.644-0.96108-3.4145-2.311-6.6048-4.0491-9.5698-1.7381-2.9652-3.8236-5.6643-6.2572-8.0977-2.4335-2.4334-5.1325-4.5191-8.0977-6.2573-2.965-1.7381-6.155-3.0877-9.5699-4.0488-3.4149-0.9611-6.9627-1.4416-10.643-1.4416-1.4723 0-2.7299-0.52143-3.7728-1.5643-1.0429-1.0429-1.5643-2.3005-1.5643-3.7728 0-1.4723 0.52146-2.7299 1.5643-3.7728 1.0428-1.0428 2.3004-1.5642 3.7727-1.5642zm0 20.183c4.2124 0 8.1692 0.80771 11.87 2.4231 3.7012 1.6154 6.9321 3.8034 9.6926 6.564 2.7607 2.7607 4.9487 5.9913 6.564 9.6923 1.6155 3.7016 2.4232 7.658 2.4232 11.871 0 1.4723-0.52135 2.7295-1.5641 3.7727-1.0429 1.0429-2.3004 1.5641-3.7731 1.5641-1.4723 0-2.7298-0.52113-3.7727-1.5641-1.0429-1.0429-1.5643-2.3004-1.5643-3.7727 0-2.7403-0.52146-5.3167-1.5643-7.7297-1.0429-2.4129-2.4641-4.5191-4.2635-6.3185-1.7994-1.7996-3.9056-3.2207-6.3186-4.2636-2.4129-1.0427-4.9895-1.5641-7.7296-1.5641-1.4723 0-2.7299-0.52133-3.7728-1.5642-1.0429-1.043-1.5643-2.3006-1.5643-3.7728 0-1.4723 0.52146-2.7299 1.5643-3.7728 1.0429-1.0431 2.3005-1.5645 3.7728-1.5645zm9.8153 28.035c0 1.0634-0.19406 2.0449-0.5828 2.9447-0.38863 0.90004-0.92013 1.687-1.595 2.3619-0.67483 0.6745-1.4723 1.2064-2.3925 1.595-0.92018 0.38843-1.8915 0.58252-2.914 0.58252-1.0633 0-2.0448-0.19416-2.9446-0.58252-0.89974-0.38837-1.687-0.92057-2.3618-1.595-0.67483-0.6748-1.2065-1.4621-1.595-2.3619-0.38863-0.89985-0.5828-1.8813-0.5828-2.9447 0-1.0221 0.19406-1.9936 0.5828-2.9135 0.38863-0.9206 0.92013-1.718 1.595-2.3926 0.67483-0.6748 1.4621-1.2064 2.3618-1.595 0.89974-0.38838 1.8813-0.58275 2.9446-0.58275 1.0225 0 1.9938 0.19432 2.914 0.58275 0.92013 0.38869 1.7176 0.92021 2.3925 1.595 0.67483 0.67461 1.2064 1.4723 1.595 2.3926 0.38864 0.92001 0.5828 1.8912 0.5828 2.9135z" fill="#f7f7f7" stroke="#000" stroke-opacity=".045627" stroke-width="2.4356"/>
<path d="m64.334 1.3385c-34.705 0-62.888 28.182-62.888 62.887 0 34.705 28.184 62.888 62.888 62.888 34.705 0 62.887-28.184 62.887-62.888 0-34.705-28.182-62.887-62.887-62.887zm0 4.6449c32.194 0 58.242 26.048 58.242 58.242 0 32.194-26.048 58.243-58.242 58.243-32.194 0-58.243-26.049-58.243-58.243 0-32.194 26.049-58.242 58.243-58.242z" color="#000000" color-rendering="auto" dominant-baseline="auto" fill="url(#linearGradient1080)" image-rendering="auto" shape-rendering="auto" solid-color="#000000" style="font-feature-settings:normal;font-variant-alternates:normal;font-variant-caps:normal;font-variant-ligatures:normal;font-variant-numeric:normal;font-variant-position:normal;isolation:auto;mix-blend-mode:normal;shape-padding:0;text-decoration-color:#000000;text-decoration-line:none;text-decoration-style:solid;text-indent:0;text-orientation:mixed;text-transform:none;white-space:normal"/>
<path d="m41.635 36.191c4.6623 0 9.1508 0.60322 13.465 1.8097 4.3146 1.2065 8.3532 2.9139 12.116 5.1224 3.7626 2.2084 7.1878 4.8565 10.276 7.9443 3.0876 3.0877 5.7357 6.5129 7.9443 10.275 2.2081 3.7628 3.9156 7.8013 5.1224 12.116 1.2066 4.3146 1.8098 8.8027 1.8098 13.465 0 1.4723-0.52135 2.7295-1.5642 3.7727-1.0429 1.0432-2.3004 1.5641-3.7727 1.5641-1.4724 0-2.7299-0.52114-3.7731-1.5641-1.0427-1.0429-1.5641-2.3004-1.5641-3.7727 0-3.681-0.48072-7.2287-1.4417-10.644-0.96108-3.4145-2.311-6.6048-4.0491-9.5698-1.7381-2.9652-3.8236-5.6643-6.2572-8.0977-2.4335-2.4334-5.1325-4.5191-8.0977-6.2573-2.965-1.7381-6.155-3.0877-9.5699-4.0488-3.4149-0.9611-6.9627-1.4416-10.643-1.4416-1.4723 0-2.7299-0.52143-3.7728-1.5643-1.0429-1.0429-1.5643-2.3005-1.5643-3.7728 0-1.4723 0.52146-2.7299 1.5643-3.7728 1.0428-1.0428 2.3004-1.5642 3.7727-1.5642zm0 20.183c4.2124 0 8.1692 0.80771 11.87 2.4231 3.7012 1.6154 6.9321 3.8034 9.6926 6.564 2.7607 2.7607 4.9487 5.9913 6.564 9.6923 1.6155 3.7016 2.4232 7.658 2.4232 11.871 0 1.4723-0.52135 2.7295-1.5641 3.7727-1.0429 1.0429-2.3004 1.5641-3.7731 1.5641-1.4723 0-2.7298-0.52113-3.7727-1.5641-1.0429-1.0429-1.5643-2.3004-1.5643-3.7727 0-2.7403-0.52146-5.3167-1.5643-7.7297-1.0429-2.4129-2.4641-4.5191-4.2635-6.3185-1.7994-1.7996-3.9056-3.2207-6.3186-4.2636-2.4129-1.0427-4.9895-1.5641-7.7296-1.5641-1.4723 0-2.7299-0.52133-3.7728-1.5642-1.0429-1.043-1.5643-2.3006-1.5643-3.7728 0-1.4723 0.52146-2.7299 1.5643-3.7728 1.0429-1.0431 2.3005-1.5645 3.7728-1.5645zm9.8153 28.035c0 1.0634-0.19406 2.0449-0.5828 2.9447-0.38863 0.90004-0.92013 1.687-1.595 2.3619-0.67483 0.6745-1.4723 1.2064-2.3925 1.595-0.92018 0.38843-1.8915 0.58252-2.914 0.58252-1.0633 0-2.0448-0.19416-2.9446-0.58252-0.89974-0.38837-1.687-0.92057-2.3618-1.595-0.67483-0.6748-1.2065-1.4621-1.595-2.3619-0.38863-0.89985-0.5828-1.8813-0.5828-2.9447 0-1.0221 0.19406-1.9936 0.5828-2.9135 0.38863-0.9206 0.92013-1.718 1.595-2.3926 0.67483-0.6748 1.4621-1.2064 2.3618-1.595 0.89974-0.38838 1.8813-0.58275 2.9446-0.58275 1.0225 0 1.9938 0.19432 2.914 0.58275 0.92013 0.38869 1.7176 0.92021 2.3925 1.595 0.67483 0.67461 1.2064 1.4723 1.595 2.3926 0.38864 0.92001 0.5828 1.8912 0.5828 2.9135z" fill="#f7f7f7" stroke-width="2.4356"/>
<path d="m41.635 36.191c-1.4723 0-2.7287 0.52166-3.7715 1.5645-1.0429 1.0429-1.5645 2.2992-1.5645 3.7715 0 1.4723 0.52159 2.7305 1.5645 3.7734 1.0429 1.0429 2.2992 1.5645 3.7715 1.5645 3.6807 0 7.2296 0.48031 10.645 1.4414 3.4149 0.96108 6.6033 2.3107 9.5684 4.0488 2.9652 1.7381 5.6661 3.8244 8.0996 6.2578 2.4336 2.4334 4.5177 5.1325 6.2559 8.0977 1.7381 2.9651 3.0878 6.1558 4.0488 9.5703 0.96102 3.4152 1.4434 6.9615 1.4434 10.643 0 1.4723 0.51985 2.7306 1.5625 3.7734 1.0432 1.043 2.301 1.5645 3.7734 1.5645 1.4723 0 2.7305-0.52127 3.7734-1.5645 1.0429-1.0432 1.5645-2.3011 1.5645-3.7734 0-4.6627-0.60396-9.1503-1.8105-13.465-1.2067-4.3148-2.9149-8.3524-5.123-12.115-2.2086-3.7625-4.8557-7.1876-7.9434-10.275-3.088-3.0877-6.5128-5.7369-10.275-7.9453-3.7624-2.2084-7.8026-3.9166-12.117-5.123-4.3147-1.2065-8.8025-1.8086-13.465-1.8086zm0 0.90039c4.5847 0 8.9889 0.59157 13.223 1.7754 4.2428 1.1864 8.2078 2.8626 11.902 5.0312 3.6974 2.1702 7.0611 4.7703 10.096 7.8047 3.0343 3.0344 5.6344 6.3984 7.8047 10.096 2.1684 3.6951 3.8446 7.6594 5.0312 11.902 1.1839 4.2336 1.7773 8.6376 1.7773 13.223 0 1.2598-0.40751 2.2432-1.3008 3.1367-0.8931 0.89332-1.8767 1.3008-3.1367 1.3008-1.2601 0-2.2433-0.4075-3.1367-1.3008-0.89298-0.89317-1.3008-1.8769-1.3008-3.1367 0-3.7594-0.49076-7.3904-1.4746-10.887-0.98102-3.4853-2.3609-6.7486-4.1387-9.7812-1.7765-3.0305-3.9113-5.7924-6.3984-8.2793-2.4869-2.4869-5.2467-4.62-8.2773-6.3965-3.0326-1.7777-6.2955-3.1577-9.7812-4.1387-3.4961-0.98395-7.1296-1.4766-10.889-1.4766-1.2598 0-2.2435-0.40764-3.1367-1.3008-0.89314-0.89318-1.3008-1.877-1.3008-3.1367 0-1.2598 0.40766-2.2416 1.3008-3.1348 0.89306-0.89304 1.8769-1.3008 3.1367-1.3008zm0 19.281c-1.4723 0-2.7286 0.52137-3.7715 1.5645-1.0429 1.0429-1.5645 2.3011-1.5645 3.7734 0 1.4723 0.52159 2.7305 1.5645 3.7734 1.0429 1.0429 2.2992 1.5645 3.7715 1.5645 2.7401 0 5.3176 0.52176 7.7305 1.5645 2.413 1.0429 4.5189 2.4621 6.3184 4.2617 1.7995 1.7994 3.2208 3.9074 4.2637 6.3203 1.0429 2.4129 1.5645 4.9882 1.5645 7.7285 0 1.4723 0.52159 2.7306 1.5645 3.7734 1.0429 1.043 2.2992 1.5645 3.7715 1.5645 1.4727 0 2.7305-0.52157 3.7734-1.5645 1.0428-1.0432 1.5645-2.3011 1.5645-3.7734 0-4.2128-0.80832-8.1695-2.4238-11.871-1.6154-3.701-3.8037-6.9307-6.5645-9.6914-2.7605-2.7605-5.9902-4.949-9.6914-6.5645-3.7012-1.6154-7.6586-2.4238-11.871-2.4238zm0 0.90039c4.0974 0 7.9233 0.7823 11.51 2.3477 3.6041 1.5731 6.7376 3.6966 9.418 6.377 2.6806 2.6805 4.802 5.8121 6.375 9.416 1.5655 3.5869 2.3477 7.412 2.3477 11.51 0 1.2598-0.40758 2.2432-1.3008 3.1367-0.89316 0.89314-1.8764 1.3008-3.1367 1.3008-1.2599 0-2.2437-0.40761-3.1367-1.3008-0.89315-0.89317-1.3008-1.8769-1.3008-3.1367 0-2.8545-0.54464-5.5591-1.6367-8.0859-1.0853-2.5112-2.5729-4.7175-4.4531-6.5977-1.8802-1.8803-4.0864-3.3678-6.5977-4.4531h-0.001953c-2.5268-1.0919-5.2317-1.6387-8.0859-1.6387-1.2598 0-2.2436-0.40765-3.1367-1.3008-0.89316-0.89326-1.3008-1.8769-1.3008-3.1367 0-1.2598 0.40766-2.2436 1.3008-3.1367 0.89318-0.89332 1.8769-1.3008 3.1367-1.3008zm2.332 19.652c-1.0633 0-2.0456 0.19366-2.9453 0.58203-0.89974 0.38865-1.6865 0.92091-2.3613 1.5957-0.67483 0.67461-1.2071 1.472-1.5957 2.3926-0.38874 0.91989-0.58203 1.89-0.58203 2.9121 0 1.0634 0.1934 2.0455 0.58203 2.9453 0.38848 0.89984 0.92087 1.6865 1.5957 2.3613 0.67483 0.67441 1.4616 1.2073 2.3613 1.5957 0.89974 0.38836 1.882 0.58203 2.9453 0.58203 1.0225 0 1.9939-0.1936 2.9141-0.58203 0.92013-0.38862 1.7177-0.9212 2.3926-1.5957 0.67483-0.6749 1.2051-1.4613 1.5938-2.3613 0.38874-0.89985 0.58398-1.8819 0.58398-2.9453 0-1.0223-0.19535-1.9921-0.58398-2.9121-0.38853-0.92028-0.91892-1.718-1.5938-2.3926-0.67483-0.6748-1.4724-1.207-2.3926-1.5957-0.92018-0.38844-1.8916-0.58203-2.9141-0.58203zm0 0.89844c0.90844 0 1.7523 0.16971 2.5625 0.51172 0.82092 0.34678 1.5162 0.81115 2.1074 1.4023 0.59108 0.59089 1.0557 1.2865 1.4023 2.1074 0.3421 0.80984 0.51172 1.6541 0.51172 2.5625 0 0.95393-0.17226 1.8066-0.50976 2.5879-0.34594 0.80116-0.80975 1.4874-1.4043 2.082-0.59138 0.5911-1.2867 1.0557-2.1074 1.4023-0.8101 0.34196-1.6539 0.51172-2.5625 0.51172-0.95375 0-1.8066-0.17058-2.5879-0.50781-0.80046-0.34552-1.4873-0.81189-2.082-1.4062-0.59447-0.59444-1.0605-1.2811-1.4062-2.082-0.33745-0.78134-0.50781-1.634-0.50781-2.5879 0-0.90822 0.16962-1.753 0.51172-2.5625 0.34671-0.82128 0.81119-1.5165 1.4023-2.1074 0.59446-0.59443 1.2811-1.0583 2.082-1.4043 0.7814-0.33729 1.6343-0.50976 2.5879-0.50976z" color="#000000" color-rendering="auto" dominant-baseline="auto" fill="#fff" image-rendering="auto" shape-rendering="auto" solid-color="#000000" style="font-feature-settings:normal;font-variant-alternates:normal;font-variant-caps:normal;font-variant-ligatures:normal;font-variant-numeric:normal;font-variant-position:normal;isolation:auto;mix-blend-mode:normal;shape-padding:0;text-decoration-color:#000000;text-decoration-line:none;text-decoration-style:solid;text-indent:0;text-orientation:mixed;text-transform:none;white-space:normal"/>
</svg>
