<svg width="128" height="128" version="1.1" viewBox="0 0 33.867 33.867" xmlns="http://www.w3.org/2000/svg" xmlns:xlink="http://www.w3.org/1999/xlink">
<defs>
<linearGradient id="linearGradient948" x1="122.34" x2="84.091" y1="117.04" y2="71.02" gradientTransform="matrix(.26458 0 0 .26458 -.75005 260.85)" gradientUnits="userSpaceOnUse">
<stop stop-color="#d5dada" offset="0"/>
<stop stop-color="#f1f1f1" offset="1"/>
</linearGradient>
<linearGradient id="linearGradient872" x1="36.952" x2="67.633" y1="28.276" y2="108.05" gradientTransform="matrix(.25321 0 0 .25321 -.094183 263.44)" gradientUnits="userSpaceOnUse">
<stop stop-color="#feb518" offset="0"/>
<stop stop-color="#f0903c" offset="1"/>
</linearGradient>
<filter id="a" x="-.015688" y="-.015513" width="1.0314" height="1.031" color-interpolation-filters="sRGB">
<feGaussianBlur stdDeviation=".7986332"/>
</filter>
<linearGradient id="linearGradient1615" x1="21.771" x2="30.878" y1="281.85" y2="291.66" gradientTransform="matrix(.95701 0 0 .95701 .62362 13.803)" gradientUnits="userSpaceOnUse">
<stop stop-color="#f3f9f9" offset="0"/>
<stop stop-color="#d5dada" offset="1"/>
</linearGradient>
</defs>
<g transform="translate(0 -263.13)">
<rect transform="matrix(.24271 -.039392 .039392 .24271 -37.675 277.01)" x="159.55" y="-8.1697" width="107.46" height="109.13" rx="4.827" fill="#5d5d5d" filter="url(#a)"/>
<rect transform="rotate(-9.2188)" x="-42.336" y="265.39" width="26.423" height="26.833" rx="1.1869" fill="#fff" stroke-width=".24588"/>
<path d="m2.3222 270.33 23.167-4.0814 4.024 22.994-23.109 4.2539z" fill="url(#linearGradient872)" stroke-width=".24588"/>
<g fill-opacity=".079848" opacity=".288">
<path transform="matrix(.26458 0 0 .26458 0 263.13)" d="m96.484 66.16a27.598 27.598 0 0 0-27.598 27.598 27.598 27.598 0 0 0 6.9961 18.312l37.262-6.0469c2.453-0.39814 4.1071-2.6934 3.709-5.1465l-4.8594-29.941a27.598 27.598 0 0 0-15.51-4.7754z" opacity="1" style="paint-order:fill markers stroke"/>
<path transform="matrix(.26458 0 0 .26458 0 263.13)" d="m96.295 65.781a27.788 27.788 0 0 0-27.789 27.787 27.788 27.788 0 0 0 7.1367 18.541l37.502-6.0859c2.453-0.39814 4.1071-2.6934 3.709-5.1465l-4.9121-30.27a27.788 27.788 0 0 0-15.646-4.8262z" opacity="1" style="paint-order:fill markers stroke"/>
<path transform="matrix(.26458 0 0 .26458 0 263.13)" d="m96.057 65.305a28.025 28.025 0 0 0-28.025 28.025 28.025 28.025 0 0 0 7.3105 18.83l37.803-6.1367c2.453-0.39814 4.1071-2.6934 3.709-5.1465l-4.9805-30.68a28.025 28.025 0 0 0-15.816-4.8926z" opacity="1" style="paint-order:fill markers stroke"/>
<path transform="matrix(.26458 0 0 .26458 0 263.13)" d="m95.914 65.02a28.168 28.168 0 0 0-28.168 28.168 28.168 28.168 0 0 0 7.4141 19.002l37.984-6.166c2.453-0.39814 4.1071-2.6934 3.709-5.1465l-5.0195-30.926a28.168 28.168 0 0 0-15.92-4.9316z" opacity="1" style="paint-order:fill markers stroke"/>
<path transform="matrix(.26458 0 0 .26458 0 263.13)" d="m95.676 64.545a28.406 28.406 0 0 0-28.406 28.406 28.406 28.406 0 0 0 7.5879 19.287l38.287-6.2148c2.453-0.39814 4.1071-2.6934 3.709-5.1465l-5.0859-31.33a28.406 28.406 0 0 0-16.092-5.002z" opacity="1" style="paint-order:fill markers stroke"/>
<path transform="matrix(.26458 0 0 .26458 0 263.13)" d="m95.438 64.07a28.643 28.643 0 0 0-28.643 28.643 28.643 28.643 0 0 0 7.7617 19.574l38.588-6.2637c2.453-0.39814 4.1071-2.6934 3.709-5.1465l-5.1504-31.734a28.643 28.643 0 0 0-16.266-5.0723z" opacity="1" style="paint-order:fill markers stroke"/>
<path transform="matrix(.26458 0 0 .26458 0 263.13)" d="m95.201 63.594a28.881 28.881 0 0 0-28.881 28.881 28.881 28.881 0 0 0 7.9336 19.861l38.891-6.3125c2.453-0.39814 4.1071-2.6934 3.709-5.1465l-5.2168-32.141a28.881 28.881 0 0 0-16.436-5.1426z" opacity="1" style="paint-order:fill markers stroke"/>
<path transform="matrix(.26458 0 0 .26458 0 263.13)" d="m95.01 63.213a29.071 29.071 0 0 0-29.07 29.072 29.071 29.071 0 0 0 8.0723 20.09l39.133-6.3516c2.453-0.39814 4.1071-2.6934 3.709-5.1465l-5.2695-32.465a29.071 29.071 0 0 0-16.574-5.1992z" opacity="1" style="paint-order:fill markers stroke"/>
</g>
<circle cx="25.578" cy="287.99" r="7.2515" fill="url(#linearGradient1615)" style="paint-order:fill markers stroke"/>
<path d="m23.603 285.35c-0.19679-5e-3 -0.35921 0.15275-0.35938 0.34961v4.584c1.65e-4 0.26954 0.29212 0.43776 0.52539 0.30273l3.9688-2.291c0.23468-0.13447 0.23468-0.47295 0-0.60742l-3.9688-2.291c-0.05056-0.0292-0.10763-0.0454-0.16602-0.0469z" color="#000000" color-rendering="auto" dominant-baseline="auto" fill="#e68811" image-rendering="auto" shape-rendering="auto" solid-color="#000000" style="font-feature-settings:normal;font-variant-alternates:normal;font-variant-caps:normal;font-variant-ligatures:normal;font-variant-numeric:normal;font-variant-position:normal;isolation:auto;mix-blend-mode:normal;paint-order:fill markers stroke;shape-padding:0;text-decoration-color:#000000;text-decoration-line:none;text-decoration-style:solid;text-indent:0;text-orientation:mixed;text-transform:none;white-space:normal"/>
<path transform="matrix(.26458 0 0 .26458 0 263.13)" d="m43.516 27.408-3.4648 0.58398c-0.017008 0.001625-0.033849 0.002079-0.050781 0.005859v0.001953c-0.24922 0.068409-0.40615 0.31572-0.36133 0.57031l3.373 20.025c0.27194 1.6145 0.07619 2.8536-0.48633 3.7344-0.56254 0.88082-1.5047 1.4657-2.9375 1.707-2.3094 0.38899-4.0702-0.76235-4.4941-2.8574-0.055162-0.26041-0.30536-0.43178-0.56836-0.39063l-3.4492 0.58008c-0.27376 0.045354-0.45885 0.30471-0.41211 0.57812 0.75298 4.4704 4.807 7.0817 9.6406 6.2676 2.6618-0.44833 4.7193-1.6362 5.9648-3.4375 1.2455-1.8013 1.6616-4.1766 1.2012-6.9102l-3.377-20.047c-0.04543-0.27364-0.30457-0.45882-0.57812-0.41211zm-19.529 3.2891-3.4668 0.58398c-0.017121 0.001625-0.033955 0.004033-0.050781 0.007812-0.24923 0.06841-0.40418 0.31572-0.35938 0.57031l4.6816 27.793c0.048994 0.27024 0.30547 0.45056 0.57617 0.4043l3.4648-0.58398c0.27093-0.044976 0.45436-0.2989 0.41211-0.57031l-4.6797-27.793c-0.045468-0.27364-0.30459-0.45882-0.57812-0.41211zm15.92 31.449-15.523 2.9961 0.71484 3.7129 15.525-3.0039-0.7168-3.7051z" color="#000000" color-rendering="auto" dominant-baseline="auto" fill="#fff" image-rendering="auto" shape-rendering="auto" solid-color="#000000" style="font-feature-settings:normal;font-variant-alternates:normal;font-variant-caps:normal;font-variant-ligatures:normal;font-variant-numeric:normal;font-variant-position:normal;isolation:auto;mix-blend-mode:normal;shape-padding:0;text-decoration-color:#000000;text-decoration-line:none;text-decoration-style:solid;text-indent:0;text-orientation:mixed;text-transform:none;white-space:normal"/>
<g transform="translate(-34.396)" fill="none" opacity=".21" shape-rendering="auto" stroke="#130a01" stroke-linecap="round" stroke-linejoin="round" stroke-opacity=".011765">
<path d="m45.934 270.61-0.91674 0.15451c-0.0045 4.3e-4 -9e-3 5.5e-4 -0.01344 2e-3v5.2e-4c-0.06594 0.0181-0.10746 0.0835-0.0956 0.15089l0.89245 5.2984c0.07195 0.42716 0.02016 0.755-0.12867 0.98805-0.14884 0.23305-0.39812 0.3878-0.77721 0.45165-0.61104 0.10292-1.0769-0.2017-1.1891-0.75602-0.01459-0.0689-0.08079-0.11424-0.15038-0.10335l-0.91261 0.15347c-0.07243 0.012-0.1214 0.0806-0.10904 0.15297 0.19923 1.1828 1.2718 1.8737 2.5507 1.6583 0.70427-0.11862 1.2487-0.43291 1.5782-0.9095 0.32955-0.4766 0.43963-1.105 0.31781-1.8283l-0.89349-5.3041c-0.01202-0.0724-0.08058-0.1214-0.15296-0.10904zm-5.1671 0.87023-0.91726 0.15451c-0.0045 4.3e-4 -9e-3 1e-3 -0.01344 2e-3 -0.06594 0.0181-0.10694 0.0835-0.09508 0.1509l1.2387 7.3536c0.01296 0.0715 0.08082 0.11921 0.15244 0.10697l0.91674-0.15451c0.07168-0.0119 0.12022-0.0791 0.10904-0.1509l-1.2382-7.3536c-0.01203-0.0724-0.08059-0.1214-0.15296-0.10904zm4.2121 8.3209-4.1072 0.79272 0.18914 0.98237 4.1078-0.79479z" color="#000000" color-rendering="auto" dominant-baseline="auto" image-rendering="auto" opacity="1" solid-color="#000000" stroke-width=".1" style="font-feature-settings:normal;font-variant-alternates:normal;font-variant-caps:normal;font-variant-ligatures:normal;font-variant-numeric:normal;font-variant-position:normal;isolation:auto;mix-blend-mode:normal;shape-padding:0;text-decoration-color:#000000;text-decoration-line:none;text-decoration-style:solid;text-indent:0;text-orientation:mixed;text-transform:none;white-space:normal"/>
<path d="m45.934 270.61-0.91674 0.15451c-0.0045 4.3e-4 -9e-3 5.5e-4 -0.01344 2e-3v5.2e-4c-0.06594 0.0181-0.10746 0.0835-0.0956 0.15089l0.89245 5.2984c0.07195 0.42716 0.02016 0.755-0.12867 0.98805-0.14884 0.23305-0.39812 0.3878-0.77721 0.45165-0.61104 0.10292-1.0769-0.2017-1.1891-0.75602-0.01459-0.0689-0.08079-0.11424-0.15038-0.10335l-0.91261 0.15347c-0.07243 0.012-0.1214 0.0806-0.10904 0.15297 0.19923 1.1828 1.2718 1.8737 2.5507 1.6583 0.70427-0.11862 1.2487-0.43291 1.5782-0.9095 0.32955-0.4766 0.43963-1.105 0.31781-1.8283l-0.89349-5.3041c-0.01202-0.0724-0.08058-0.1214-0.15296-0.10904zm-5.1671 0.87023-0.91726 0.15451c-0.0045 4.3e-4 -9e-3 1e-3 -0.01344 2e-3 -0.06594 0.0181-0.10694 0.0835-0.09508 0.1509l1.2387 7.3536c0.01296 0.0715 0.08082 0.11921 0.15244 0.10697l0.91674-0.15451c0.07168-0.0119 0.12022-0.0791 0.10904-0.1509l-1.2382-7.3536c-0.01203-0.0724-0.08059-0.1214-0.15296-0.10904zm4.2121 8.3209-4.1072 0.79272 0.18914 0.98237 4.1078-0.79479z" color="#000000" color-rendering="auto" dominant-baseline="auto" image-rendering="auto" opacity="1" solid-color="#000000" stroke-width=".3" style="font-feature-settings:normal;font-variant-alternates:normal;font-variant-caps:normal;font-variant-ligatures:normal;font-variant-numeric:normal;font-variant-position:normal;isolation:auto;mix-blend-mode:normal;shape-padding:0;text-decoration-color:#000000;text-decoration-line:none;text-decoration-style:solid;text-indent:0;text-orientation:mixed;text-transform:none;white-space:normal"/>
<path d="m45.934 270.61-0.91674 0.15451c-0.0045 4.3e-4 -9e-3 5.5e-4 -0.01344 2e-3v5.2e-4c-0.06594 0.0181-0.10746 0.0835-0.0956 0.15089l0.89245 5.2984c0.07195 0.42716 0.02016 0.755-0.12867 0.98805-0.14884 0.23305-0.39812 0.3878-0.77721 0.45165-0.61104 0.10292-1.0769-0.2017-1.1891-0.75602-0.01459-0.0689-0.08079-0.11424-0.15038-0.10335l-0.91261 0.15347c-0.07243 0.012-0.1214 0.0806-0.10904 0.15297 0.19923 1.1828 1.2718 1.8737 2.5507 1.6583 0.70427-0.11862 1.2487-0.43291 1.5782-0.9095 0.32955-0.4766 0.43963-1.105 0.31781-1.8283l-0.89349-5.3041c-0.01202-0.0724-0.08058-0.1214-0.15296-0.10904zm-5.1671 0.87023-0.91726 0.15451c-0.0045 4.3e-4 -9e-3 1e-3 -0.01344 2e-3 -0.06594 0.0181-0.10694 0.0835-0.09508 0.1509l1.2387 7.3536c0.01296 0.0715 0.08082 0.11921 0.15244 0.10697l0.91674-0.15451c0.07168-0.0119 0.12022-0.0791 0.10904-0.1509l-1.2382-7.3536c-0.01203-0.0724-0.08059-0.1214-0.15296-0.10904zm4.2121 8.3209-4.1072 0.79272 0.18914 0.98237 4.1078-0.79479z" color="#000000" color-rendering="auto" dominant-baseline="auto" image-rendering="auto" opacity="1" solid-color="#000000" stroke-width=".5" style="font-feature-settings:normal;font-variant-alternates:normal;font-variant-caps:normal;font-variant-ligatures:normal;font-variant-numeric:normal;font-variant-position:normal;isolation:auto;mix-blend-mode:normal;shape-padding:0;text-decoration-color:#000000;text-decoration-line:none;text-decoration-style:solid;text-indent:0;text-orientation:mixed;text-transform:none;white-space:normal"/>
<path d="m45.934 270.61-0.91674 0.15451c-0.0045 4.3e-4 -9e-3 5.5e-4 -0.01344 2e-3v5.2e-4c-0.06594 0.0181-0.10746 0.0835-0.0956 0.15089l0.89245 5.2984c0.07195 0.42716 0.02016 0.755-0.12867 0.98805-0.14884 0.23305-0.39812 0.3878-0.77721 0.45165-0.61104 0.10292-1.0769-0.2017-1.1891-0.75602-0.01459-0.0689-0.08079-0.11424-0.15038-0.10335l-0.91261 0.15347c-0.07243 0.012-0.1214 0.0806-0.10904 0.15297 0.19923 1.1828 1.2718 1.8737 2.5507 1.6583 0.70427-0.11862 1.2487-0.43291 1.5782-0.9095 0.32955-0.4766 0.43963-1.105 0.31781-1.8283l-0.89349-5.3041c-0.01202-0.0724-0.08058-0.1214-0.15296-0.10904zm-5.1671 0.87023-0.91726 0.15451c-0.0045 4.3e-4 -9e-3 1e-3 -0.01344 2e-3 -0.06594 0.0181-0.10694 0.0835-0.09508 0.1509l1.2387 7.3536c0.01296 0.0715 0.08082 0.11921 0.15244 0.10697l0.91674-0.15451c0.07168-0.0119 0.12022-0.0791 0.10904-0.1509l-1.2382-7.3536c-0.01203-0.0724-0.08059-0.1214-0.15296-0.10904zm4.2121 8.3209-4.1072 0.79272 0.18914 0.98237 4.1078-0.79479z" color="#000000" color-rendering="auto" dominant-baseline="auto" image-rendering="auto" opacity="1" solid-color="#000000" stroke-width=".7" style="font-feature-settings:normal;font-variant-alternates:normal;font-variant-caps:normal;font-variant-ligatures:normal;font-variant-numeric:normal;font-variant-position:normal;isolation:auto;mix-blend-mode:normal;shape-padding:0;text-decoration-color:#000000;text-decoration-line:none;text-decoration-style:solid;text-indent:0;text-orientation:mixed;text-transform:none;white-space:normal"/>
<path d="m45.934 270.61-0.91674 0.15451c-0.0045 4.3e-4 -9e-3 5.5e-4 -0.01344 2e-3v5.2e-4c-0.06594 0.0181-0.10746 0.0835-0.0956 0.15089l0.89245 5.2984c0.07195 0.42716 0.02016 0.755-0.12867 0.98805-0.14884 0.23305-0.39812 0.3878-0.77721 0.45165-0.61104 0.10292-1.0769-0.2017-1.1891-0.75602-0.01459-0.0689-0.08079-0.11424-0.15038-0.10335l-0.91261 0.15347c-0.07243 0.012-0.1214 0.0806-0.10904 0.15297 0.19923 1.1828 1.2718 1.8737 2.5507 1.6583 0.70427-0.11862 1.2487-0.43291 1.5782-0.9095 0.32955-0.4766 0.43963-1.105 0.31781-1.8283l-0.89349-5.3041c-0.01202-0.0724-0.08058-0.1214-0.15296-0.10904zm-5.1671 0.87023-0.91726 0.15451c-0.0045 4.3e-4 -9e-3 1e-3 -0.01344 2e-3 -0.06594 0.0181-0.10694 0.0835-0.09508 0.1509l1.2387 7.3536c0.01296 0.0715 0.08082 0.11921 0.15244 0.10697l0.91674-0.15451c0.07168-0.0119 0.12022-0.0791 0.10904-0.1509l-1.2382-7.3536c-0.01203-0.0724-0.08059-0.1214-0.15296-0.10904zm4.2121 8.3209-4.1072 0.79272 0.18914 0.98237 4.1078-0.79479z" color="#000000" color-rendering="auto" dominant-baseline="auto" image-rendering="auto" opacity="1" solid-color="#000000" stroke-width=".9" style="font-feature-settings:normal;font-variant-alternates:normal;font-variant-caps:normal;font-variant-ligatures:normal;font-variant-numeric:normal;font-variant-position:normal;isolation:auto;mix-blend-mode:normal;shape-padding:0;text-decoration-color:#000000;text-decoration-line:none;text-decoration-style:solid;text-indent:0;text-orientation:mixed;text-transform:none;white-space:normal"/>
<path d="m45.934 270.61-0.91674 0.15451c-0.0045 4.3e-4 -9e-3 5.5e-4 -0.01344 2e-3v5.2e-4c-0.06594 0.0181-0.10746 0.0835-0.0956 0.15089l0.89245 5.2984c0.07195 0.42716 0.02016 0.755-0.12867 0.98805-0.14884 0.23305-0.39812 0.3878-0.77721 0.45165-0.61104 0.10292-1.0769-0.2017-1.1891-0.75602-0.01459-0.0689-0.08079-0.11424-0.15038-0.10335l-0.91261 0.15347c-0.07243 0.012-0.1214 0.0806-0.10904 0.15297 0.19923 1.1828 1.2718 1.8737 2.5507 1.6583 0.70427-0.11862 1.2487-0.43291 1.5782-0.9095 0.32955-0.4766 0.43963-1.105 0.31781-1.8283l-0.89349-5.3041c-0.01202-0.0724-0.08058-0.1214-0.15296-0.10904zm-5.1671 0.87023-0.91726 0.15451c-0.0045 4.3e-4 -9e-3 1e-3 -0.01344 2e-3 -0.06594 0.0181-0.10694 0.0835-0.09508 0.1509l1.2387 7.3536c0.01296 0.0715 0.08082 0.11921 0.15244 0.10697l0.91674-0.15451c0.07168-0.0119 0.12022-0.0791 0.10904-0.1509l-1.2382-7.3536c-0.01203-0.0724-0.08059-0.1214-0.15296-0.10904zm4.2121 8.3209-4.1072 0.79272 0.18914 0.98237 4.1078-0.79479z" color="#000000" color-rendering="auto" dominant-baseline="auto" image-rendering="auto" opacity="1" solid-color="#000000" stroke-width="1.1" style="font-feature-settings:normal;font-variant-alternates:normal;font-variant-caps:normal;font-variant-ligatures:normal;font-variant-numeric:normal;font-variant-position:normal;isolation:auto;mix-blend-mode:normal;shape-padding:0;text-decoration-color:#000000;text-decoration-line:none;text-decoration-style:solid;text-indent:0;text-orientation:mixed;text-transform:none;white-space:normal"/>
<path d="m45.934 270.61-0.91674 0.15451c-0.0045 4.3e-4 -9e-3 5.5e-4 -0.01344 2e-3v5.2e-4c-0.06594 0.0181-0.10746 0.0835-0.0956 0.15089l0.89245 5.2984c0.07195 0.42716 0.02016 0.755-0.12867 0.98805-0.14884 0.23305-0.39812 0.3878-0.77721 0.45165-0.61104 0.10292-1.0769-0.2017-1.1891-0.75602-0.01459-0.0689-0.08079-0.11424-0.15038-0.10335l-0.91261 0.15347c-0.07243 0.012-0.1214 0.0806-0.10904 0.15297 0.19923 1.1828 1.2718 1.8737 2.5507 1.6583 0.70427-0.11862 1.2487-0.43291 1.5782-0.9095 0.32955-0.4766 0.43963-1.105 0.31781-1.8283l-0.89349-5.3041c-0.01202-0.0724-0.08058-0.1214-0.15296-0.10904zm-5.1671 0.87023-0.91726 0.15451c-0.0045 4.3e-4 -9e-3 1e-3 -0.01344 2e-3 -0.06594 0.0181-0.10694 0.0835-0.09508 0.1509l1.2387 7.3536c0.01296 0.0715 0.08082 0.11921 0.15244 0.10697l0.91674-0.15451c0.07168-0.0119 0.12022-0.0791 0.10904-0.1509l-1.2382-7.3536c-0.01203-0.0724-0.08059-0.1214-0.15296-0.10904zm4.2121 8.3209-4.1072 0.79272 0.18914 0.98237 4.1078-0.79479z" color="#000000" color-rendering="auto" dominant-baseline="auto" image-rendering="auto" opacity="1" solid-color="#000000" stroke-width="1.3" style="font-feature-settings:normal;font-variant-alternates:normal;font-variant-caps:normal;font-variant-ligatures:normal;font-variant-numeric:normal;font-variant-position:normal;isolation:auto;mix-blend-mode:normal;shape-padding:0;text-decoration-color:#000000;text-decoration-line:none;text-decoration-style:solid;text-indent:0;text-orientation:mixed;text-transform:none;white-space:normal"/>
<path d="m45.934 270.61-0.91674 0.15451c-0.0045 4.3e-4 -9e-3 5.5e-4 -0.01344 2e-3v5.2e-4c-0.06594 0.0181-0.10746 0.0835-0.0956 0.15089l0.89245 5.2984c0.07195 0.42716 0.02016 0.755-0.12867 0.98805-0.14884 0.23305-0.39812 0.3878-0.77721 0.45165-0.61104 0.10292-1.0769-0.2017-1.1891-0.75602-0.01459-0.0689-0.08079-0.11424-0.15038-0.10335l-0.91261 0.15347c-0.07243 0.012-0.1214 0.0806-0.10904 0.15297 0.19923 1.1828 1.2718 1.8737 2.5507 1.6583 0.70427-0.11862 1.2487-0.43291 1.5782-0.9095 0.32955-0.4766 0.43963-1.105 0.31781-1.8283l-0.89349-5.3041c-0.01202-0.0724-0.08058-0.1214-0.15296-0.10904zm-5.1671 0.87023-0.91726 0.15451c-0.0045 4.3e-4 -9e-3 1e-3 -0.01344 2e-3 -0.06594 0.0181-0.10694 0.0835-0.09508 0.1509l1.2387 7.3536c0.01296 0.0715 0.08082 0.11921 0.15244 0.10697l0.91674-0.15451c0.07168-0.0119 0.12022-0.0791 0.10904-0.1509l-1.2382-7.3536c-0.01203-0.0724-0.08059-0.1214-0.15296-0.10904zm4.2121 8.3209-4.1072 0.79272 0.18914 0.98237 4.1078-0.79479z" color="#000000" color-rendering="auto" dominant-baseline="auto" image-rendering="auto" opacity="1" solid-color="#000000" stroke-width="1.5" style="font-feature-settings:normal;font-variant-alternates:normal;font-variant-caps:normal;font-variant-ligatures:normal;font-variant-numeric:normal;font-variant-position:normal;isolation:auto;mix-blend-mode:normal;shape-padding:0;text-decoration-color:#000000;text-decoration-line:none;text-decoration-style:solid;text-indent:0;text-orientation:mixed;text-transform:none;white-space:normal"/>
<path d="m45.934 270.61-0.91674 0.15451c-0.0045 4.3e-4 -9e-3 5.5e-4 -0.01344 2e-3v5.2e-4c-0.06594 0.0181-0.10746 0.0835-0.0956 0.15089l0.89245 5.2984c0.07195 0.42716 0.02016 0.755-0.12867 0.98805-0.14884 0.23305-0.39812 0.3878-0.77721 0.45165-0.61104 0.10292-1.0769-0.2017-1.1891-0.75602-0.01459-0.0689-0.08079-0.11424-0.15038-0.10335l-0.91261 0.15347c-0.07243 0.012-0.1214 0.0806-0.10904 0.15297 0.19923 1.1828 1.2718 1.8737 2.5507 1.6583 0.70427-0.11862 1.2487-0.43291 1.5782-0.9095 0.32955-0.4766 0.43963-1.105 0.31781-1.8283l-0.89349-5.3041c-0.01202-0.0724-0.08058-0.1214-0.15296-0.10904zm-5.1671 0.87023-0.91726 0.15451c-0.0045 4.3e-4 -9e-3 1e-3 -0.01344 2e-3 -0.06594 0.0181-0.10694 0.0835-0.09508 0.1509l1.2387 7.3536c0.01296 0.0715 0.08082 0.11921 0.15244 0.10697l0.91674-0.15451c0.07168-0.0119 0.12022-0.0791 0.10904-0.1509l-1.2382-7.3536c-0.01203-0.0724-0.08059-0.1214-0.15296-0.10904zm4.2121 8.3209-4.1072 0.79272 0.18914 0.98237 4.1078-0.79479z" color="#000000" color-rendering="auto" dominant-baseline="auto" image-rendering="auto" opacity="1" solid-color="#000000" stroke-width="1.7" style="font-feature-settings:normal;font-variant-alternates:normal;font-variant-caps:normal;font-variant-ligatures:normal;font-variant-numeric:normal;font-variant-position:normal;isolation:auto;mix-blend-mode:normal;shape-padding:0;text-decoration-color:#000000;text-decoration-line:none;text-decoration-style:solid;text-indent:0;text-orientation:mixed;text-transform:none;white-space:normal"/>
<path d="m45.934 270.61-0.91674 0.15451c-0.0045 4.3e-4 -9e-3 5.5e-4 -0.01344 2e-3v5.2e-4c-0.06594 0.0181-0.10746 0.0835-0.0956 0.15089l0.89245 5.2984c0.07195 0.42716 0.02016 0.755-0.12867 0.98805-0.14884 0.23305-0.39812 0.3878-0.77721 0.45165-0.61104 0.10292-1.0769-0.2017-1.1891-0.75602-0.01459-0.0689-0.08079-0.11424-0.15038-0.10335l-0.91261 0.15347c-0.07243 0.012-0.1214 0.0806-0.10904 0.15297 0.19923 1.1828 1.2718 1.8737 2.5507 1.6583 0.70427-0.11862 1.2487-0.43291 1.5782-0.9095 0.32955-0.4766 0.43963-1.105 0.31781-1.8283l-0.89349-5.3041c-0.01202-0.0724-0.08058-0.1214-0.15296-0.10904zm-5.1671 0.87023-0.91726 0.15451c-0.0045 4.3e-4 -9e-3 1e-3 -0.01344 2e-3 -0.06594 0.0181-0.10694 0.0835-0.09508 0.1509l1.2387 7.3536c0.01296 0.0715 0.08082 0.11921 0.15244 0.10697l0.91674-0.15451c0.07168-0.0119 0.12022-0.0791 0.10904-0.1509l-1.2382-7.3536c-0.01203-0.0724-0.08059-0.1214-0.15296-0.10904zm4.2121 8.3209-4.1072 0.79272 0.18914 0.98237 4.1078-0.79479z" color="#000000" color-rendering="auto" dominant-baseline="auto" image-rendering="auto" opacity="1" solid-color="#000000" stroke-width="1.9" style="font-feature-settings:normal;font-variant-alternates:normal;font-variant-caps:normal;font-variant-ligatures:normal;font-variant-numeric:normal;font-variant-position:normal;isolation:auto;mix-blend-mode:normal;shape-padding:0;text-decoration-color:#000000;text-decoration-line:none;text-decoration-style:solid;text-indent:0;text-orientation:mixed;text-transform:none;white-space:normal"/>
<path d="m45.934 270.61-0.91674 0.15451c-0.0045 4.3e-4 -9e-3 5.5e-4 -0.01344 2e-3v5.2e-4c-0.06594 0.0181-0.10746 0.0835-0.0956 0.15089l0.89245 5.2984c0.07195 0.42716 0.02016 0.755-0.12867 0.98805-0.14884 0.23305-0.39812 0.3878-0.77721 0.45165-0.61104 0.10292-1.0769-0.2017-1.1891-0.75602-0.01459-0.0689-0.08079-0.11424-0.15038-0.10335l-0.91261 0.15347c-0.07243 0.012-0.1214 0.0806-0.10904 0.15297 0.19923 1.1828 1.2718 1.8737 2.5507 1.6583 0.70427-0.11862 1.2487-0.43291 1.5782-0.9095 0.32955-0.4766 0.43963-1.105 0.31781-1.8283l-0.89349-5.3041c-0.01202-0.0724-0.08058-0.1214-0.15296-0.10904zm-5.1671 0.87023-0.91726 0.15451c-0.0045 4.3e-4 -9e-3 1e-3 -0.01344 2e-3 -0.06594 0.0181-0.10694 0.0835-0.09508 0.1509l1.2387 7.3536c0.01296 0.0715 0.08082 0.11921 0.15244 0.10697l0.91674-0.15451c0.07168-0.0119 0.12022-0.0791 0.10904-0.1509l-1.2382-7.3536c-0.01203-0.0724-0.08059-0.1214-0.15296-0.10904zm4.2121 8.3209-4.1072 0.79272 0.18914 0.98237 4.1078-0.79479z" color="#000000" color-rendering="auto" dominant-baseline="auto" image-rendering="auto" opacity="1" solid-color="#000000" stroke-width="2" style="font-feature-settings:normal;font-variant-alternates:normal;font-variant-caps:normal;font-variant-ligatures:normal;font-variant-numeric:normal;font-variant-position:normal;isolation:auto;mix-blend-mode:normal;shape-padding:0;text-decoration-color:#000000;text-decoration-line:none;text-decoration-style:solid;text-indent:0;text-orientation:mixed;text-transform:none;white-space:normal"/>
<path d="m45.934 270.61-0.91674 0.15451c-0.0045 4.3e-4 -9e-3 5.5e-4 -0.01344 2e-3v5.2e-4c-0.06594 0.0181-0.10746 0.0835-0.0956 0.15089l0.89245 5.2984c0.07195 0.42716 0.02016 0.755-0.12867 0.98805-0.14884 0.23305-0.39812 0.3878-0.77721 0.45165-0.61104 0.10292-1.0769-0.2017-1.1891-0.75602-0.01459-0.0689-0.08079-0.11424-0.15038-0.10335l-0.91261 0.15347c-0.07243 0.012-0.1214 0.0806-0.10904 0.15297 0.19923 1.1828 1.2718 1.8737 2.5507 1.6583 0.70427-0.11862 1.2487-0.43291 1.5782-0.9095 0.32955-0.4766 0.43963-1.105 0.31781-1.8283l-0.89349-5.3041c-0.01202-0.0724-0.08058-0.1214-0.15296-0.10904zm-5.1671 0.87023-0.91726 0.15451c-0.0045 4.3e-4 -9e-3 1e-3 -0.01344 2e-3 -0.06594 0.0181-0.10694 0.0835-0.09508 0.1509l1.2387 7.3536c0.01296 0.0715 0.08082 0.11921 0.15244 0.10697l0.91674-0.15451c0.07168-0.0119 0.12022-0.0791 0.10904-0.1509l-1.2382-7.3536c-0.01203-0.0724-0.08059-0.1214-0.15296-0.10904zm4.2121 8.3209-4.1072 0.79272 0.18914 0.98237 4.1078-0.79479z" color="#000000" color-rendering="auto" dominant-baseline="auto" image-rendering="auto" opacity="1" solid-color="#000000" stroke-width="2.2" style="font-feature-settings:normal;font-variant-alternates:normal;font-variant-caps:normal;font-variant-ligatures:normal;font-variant-numeric:normal;font-variant-position:normal;isolation:auto;mix-blend-mode:normal;shape-padding:0;text-decoration-color:#000000;text-decoration-line:none;text-decoration-style:solid;text-indent:0;text-orientation:mixed;text-transform:none;white-space:normal"/>
<path d="m45.934 270.61-0.91674 0.15451c-0.0045 4.3e-4 -9e-3 5.5e-4 -0.01344 2e-3v5.2e-4c-0.06594 0.0181-0.10746 0.0835-0.0956 0.15089l0.89245 5.2984c0.07195 0.42716 0.02016 0.755-0.12867 0.98805-0.14884 0.23305-0.39812 0.3878-0.77721 0.45165-0.61104 0.10292-1.0769-0.2017-1.1891-0.75602-0.01459-0.0689-0.08079-0.11424-0.15038-0.10335l-0.91261 0.15347c-0.07243 0.012-0.1214 0.0806-0.10904 0.15297 0.19923 1.1828 1.2718 1.8737 2.5507 1.6583 0.70427-0.11862 1.2487-0.43291 1.5782-0.9095 0.32955-0.4766 0.43963-1.105 0.31781-1.8283l-0.89349-5.3041c-0.01202-0.0724-0.08058-0.1214-0.15296-0.10904zm-5.1671 0.87023-0.91726 0.15451c-0.0045 4.3e-4 -9e-3 1e-3 -0.01344 2e-3 -0.06594 0.0181-0.10694 0.0835-0.09508 0.1509l1.2387 7.3536c0.01296 0.0715 0.08082 0.11921 0.15244 0.10697l0.91674-0.15451c0.07168-0.0119 0.12022-0.0791 0.10904-0.1509l-1.2382-7.3536c-0.01203-0.0724-0.08059-0.1214-0.15296-0.10904zm4.2121 8.3209-4.1072 0.79272 0.18914 0.98237 4.1078-0.79479z" color="#000000" color-rendering="auto" dominant-baseline="auto" image-rendering="auto" opacity="1" solid-color="#000000" stroke-width="2.4" style="font-feature-settings:normal;font-variant-alternates:normal;font-variant-caps:normal;font-variant-ligatures:normal;font-variant-numeric:normal;font-variant-position:normal;isolation:auto;mix-blend-mode:normal;shape-padding:0;text-decoration-color:#000000;text-decoration-line:none;text-decoration-style:solid;text-indent:0;text-orientation:mixed;text-transform:none;white-space:normal"/>
<path d="m45.934 270.61-0.91674 0.15451c-0.0045 4.3e-4 -9e-3 5.5e-4 -0.01344 2e-3v5.2e-4c-0.06594 0.0181-0.10746 0.0835-0.0956 0.15089l0.89245 5.2984c0.07195 0.42716 0.02016 0.755-0.12867 0.98805-0.14884 0.23305-0.39812 0.3878-0.77721 0.45165-0.61104 0.10292-1.0769-0.2017-1.1891-0.75602-0.01459-0.0689-0.08079-0.11424-0.15038-0.10335l-0.91261 0.15347c-0.07243 0.012-0.1214 0.0806-0.10904 0.15297 0.19923 1.1828 1.2718 1.8737 2.5507 1.6583 0.70427-0.11862 1.2487-0.43291 1.5782-0.9095 0.32955-0.4766 0.43963-1.105 0.31781-1.8283l-0.89349-5.3041c-0.01202-0.0724-0.08058-0.1214-0.15296-0.10904zm-5.1671 0.87023-0.91726 0.15451c-0.0045 4.3e-4 -9e-3 1e-3 -0.01344 2e-3 -0.06594 0.0181-0.10694 0.0835-0.09508 0.1509l1.2387 7.3536c0.01296 0.0715 0.08082 0.11921 0.15244 0.10697l0.91674-0.15451c0.07168-0.0119 0.12022-0.0791 0.10904-0.1509l-1.2382-7.3536c-0.01203-0.0724-0.08059-0.1214-0.15296-0.10904zm4.2121 8.3209-4.1072 0.79272 0.18914 0.98237 4.1078-0.79479z" color="#000000" color-rendering="auto" dominant-baseline="auto" image-rendering="auto" opacity="1" solid-color="#000000" stroke-width="2.6" style="font-feature-settings:normal;font-variant-alternates:normal;font-variant-caps:normal;font-variant-ligatures:normal;font-variant-numeric:normal;font-variant-position:normal;isolation:auto;mix-blend-mode:normal;shape-padding:0;text-decoration-color:#000000;text-decoration-line:none;text-decoration-style:solid;text-indent:0;text-orientation:mixed;text-transform:none;white-space:normal"/>
<path d="m45.934 270.61-0.91674 0.15451c-0.0045 4.3e-4 -9e-3 5.5e-4 -0.01344 2e-3v5.2e-4c-0.06594 0.0181-0.10746 0.0835-0.0956 0.15089l0.89245 5.2984c0.07195 0.42716 0.02016 0.755-0.12867 0.98805-0.14884 0.23305-0.39812 0.3878-0.77721 0.45165-0.61104 0.10292-1.0769-0.2017-1.1891-0.75602-0.01459-0.0689-0.08079-0.11424-0.15038-0.10335l-0.91261 0.15347c-0.07243 0.012-0.1214 0.0806-0.10904 0.15297 0.19923 1.1828 1.2718 1.8737 2.5507 1.6583 0.70427-0.11862 1.2487-0.43291 1.5782-0.9095 0.32955-0.4766 0.43963-1.105 0.31781-1.8283l-0.89349-5.3041c-0.01202-0.0724-0.08058-0.1214-0.15296-0.10904zm-5.1671 0.87023-0.91726 0.15451c-0.0045 4.3e-4 -9e-3 1e-3 -0.01344 2e-3 -0.06594 0.0181-0.10694 0.0835-0.09508 0.1509l1.2387 7.3536c0.01296 0.0715 0.08082 0.11921 0.15244 0.10697l0.91674-0.15451c0.07168-0.0119 0.12022-0.0791 0.10904-0.1509l-1.2382-7.3536c-0.01203-0.0724-0.08059-0.1214-0.15296-0.10904zm4.2121 8.3209-4.1072 0.79272 0.18914 0.98237 4.1078-0.79479z" color="#000000" color-rendering="auto" dominant-baseline="auto" image-rendering="auto" opacity="1" solid-color="#000000" stroke-width="2.8" style="font-feature-settings:normal;font-variant-alternates:normal;font-variant-caps:normal;font-variant-ligatures:normal;font-variant-numeric:normal;font-variant-position:normal;isolation:auto;mix-blend-mode:normal;shape-padding:0;text-decoration-color:#000000;text-decoration-line:none;text-decoration-style:solid;text-indent:0;text-orientation:mixed;text-transform:none;white-space:normal"/>
<path d="m45.934 270.61-0.91674 0.15451c-0.0045 4.3e-4 -9e-3 5.5e-4 -0.01344 2e-3v5.2e-4c-0.06594 0.0181-0.10746 0.0835-0.0956 0.15089l0.89245 5.2984c0.07195 0.42716 0.02016 0.755-0.12867 0.98805-0.14884 0.23305-0.39812 0.3878-0.77721 0.45165-0.61104 0.10292-1.0769-0.2017-1.1891-0.75602-0.01459-0.0689-0.08079-0.11424-0.15038-0.10335l-0.91261 0.15347c-0.07243 0.012-0.1214 0.0806-0.10904 0.15297 0.19923 1.1828 1.2718 1.8737 2.5507 1.6583 0.70427-0.11862 1.2487-0.43291 1.5782-0.9095 0.32955-0.4766 0.43963-1.105 0.31781-1.8283l-0.89349-5.3041c-0.01202-0.0724-0.08058-0.1214-0.15296-0.10904zm-5.1671 0.87023-0.91726 0.15451c-0.0045 4.3e-4 -9e-3 1e-3 -0.01344 2e-3 -0.06594 0.0181-0.10694 0.0835-0.09508 0.1509l1.2387 7.3536c0.01296 0.0715 0.08082 0.11921 0.15244 0.10697l0.91674-0.15451c0.07168-0.0119 0.12022-0.0791 0.10904-0.1509l-1.2382-7.3536c-0.01203-0.0724-0.08059-0.1214-0.15296-0.10904zm4.2121 8.3209-4.1072 0.79272 0.18914 0.98237 4.1078-0.79479z" color="#000000" color-rendering="auto" dominant-baseline="auto" image-rendering="auto" opacity="1" solid-color="#000000" stroke-width="3" style="font-feature-settings:normal;font-variant-alternates:normal;font-variant-caps:normal;font-variant-ligatures:normal;font-variant-numeric:normal;font-variant-position:normal;isolation:auto;mix-blend-mode:normal;shape-padding:0;text-decoration-color:#000000;text-decoration-line:none;text-decoration-style:solid;text-indent:0;text-orientation:mixed;text-transform:none;white-space:normal"/>
</g>
</g>
</svg>
