<svg width="128" height="128" version="1.1" viewBox="0 0 33.867 33.867" xmlns="http://www.w3.org/2000/svg" xmlns:xlink="http://www.w3.org/1999/xlink">
<defs>
<linearGradient id="linearGradient897" x1="2686" x2="2686" y1="1088.8" y2="1770.4" gradientTransform="matrix(.042779 0 0 .042779 -95.919 -44.867)" gradientUnits="userSpaceOnUse">
<stop stop-color="#52c4ff" offset="0"/>
<stop stop-color="#0441ff" offset="1"/>
</linearGradient>
<radialGradient id="radialGradient898" cx="60.636" cy="20.456" r="17.304" gradientTransform="translate(-43.433 -3.9449)" gradientUnits="userSpaceOnUse">
<stop stop-color="#0b0b0b" offset="0"/>
<stop stop-color="#0b0b0b" stop-opacity=".85882" offset=".68076"/>
<stop stop-color="#0b0b0b" stop-opacity=".83137" offset=".69925"/>
<stop stop-color="#0b0b0b" stop-opacity=".80392" offset=".71879"/>
<stop stop-color="#0b0b0b" stop-opacity=".78039" offset=".73593"/>
<stop stop-color="#0b0b0b" stop-opacity=".75686" offset=".75022"/>
<stop stop-color="#0b0b0b" stop-opacity=".73333" offset=".76799"/>
<stop stop-color="#0b0b0b" stop-opacity=".082353" offset=".91501"/>
<stop stop-color="#0b0b0b" stop-opacity=".070588" offset=".92247"/>
<stop stop-color="#0b0b0b" stop-opacity=".058824" offset=".92919"/>
<stop stop-color="#0b0b0b" stop-opacity=".047059" offset=".93841"/>
<stop stop-color="#0b0b0b" stop-opacity=".031373" offset=".94761"/>
<stop stop-color="#0b0b0b" stop-opacity=".023529" offset=".95381"/>
<stop stop-color="#0b0b0b" stop-opacity=".015686" offset=".95886"/>
<stop stop-color="#0b0b0b" stop-opacity=".011765" offset=".96356"/>
<stop stop-color="#0b0b0b" stop-opacity=".0078431" offset=".96845"/>
<stop stop-color="#0b0b0b" stop-opacity=".0039216" offset=".97348"/>
<stop stop-color="#0b0b0b" stop-opacity="0" offset=".97812"/>
<stop stop-color="#0b0b0b" stop-opacity="0" offset=".98456"/>
<stop stop-color="#0b0b0b" stop-opacity="0" offset=".98701"/>
<stop stop-color="#0b0b0b" stop-opacity="0" offset=".98925"/>
<stop stop-color="#0b0b0b" stop-opacity="0" offset="1"/>
</radialGradient>
<radialGradient id="radialGradient993" cx="16.968" cy="4.6709" r="13.696" gradientTransform="matrix(4.8886 0 0 1.8641 -65.724 -2.4383)" gradientUnits="userSpaceOnUse">
<stop stop-color="#4ec5fc" offset="0"/>
<stop stop-color="#004bf2" offset="1"/>
</radialGradient>
<linearGradient id="linearGradient963" x1="14.324" x2="14.324" y1="13.464" y2="23.481" gradientTransform="translate(.016317 -1.2898)" gradientUnits="userSpaceOnUse">
<stop stop-color="#fff" offset="0"/>
<stop stop-color="#c2e4ff" offset="1"/>
</linearGradient>
</defs>
<circle cx="17.203" cy="16.512" r="17.304" fill="url(#radialGradient898)" opacity=".30973" stroke-linecap="square" stroke-linejoin="round" stroke-width="3"/>
<circle cx="17.203" cy="16.512" r="15.118" fill="url(#linearGradient897)" stroke="#b1aaaa" stroke-linecap="square" stroke-opacity=".99216" stroke-width=".057556"/>
<circle cx="17.203" cy="16.512" r="13.102" fill="url(#radialGradient993)"/>
<path d="m17.893 7.8609c-2.998 0.0032-5.4907 2.4069-5.6037 5.4029-1.9326 0.4531-3.3104 2.1896-3.3131 4.1744 0 2.3553 1.9379 4.2933 4.2933 4.2933 0 0 0.28864 0.32893 0.16908 1.2437-0.1037 0.79524-2.4504 1.4757-2.4504 1.4757s4.0475 1.2357 6.0224-0.19298c1.716-1.2411 1.8745-2.5277 1.8745-2.5277l4.9524 0.0013c1.9927 0 3.6328-1.64 3.6328-3.6328 0-1.9927-1.64-3.6328-3.6328-3.6328-0.14332 0.0013-0.286 0.01123-0.428 0.02973 0.06341-0.3362 0.09643-0.67833 0.09776-1.0205 0-3.0799-2.5343-5.6143-5.6143-5.6143z" fill="#001e6e" fill-opacity=".26971" stroke-width=".6605"/>
<path d="m17.107 7.4145c-2.998 0.0032-5.4907 2.4069-5.6037 5.4029-1.9326 0.4531-3.3104 2.1896-3.3131 4.1744 0 2.3553 1.9379 4.2933 4.2933 4.2933 0 0 0.28864 0.32893 0.16908 1.2437-0.1037 0.79524-1.6651 1.9221-1.6651 1.9221s3.2622 0.7893 5.2371-0.63936c1.716-1.2411 1.8745-2.5277 1.8745-2.5277l4.9524 0.0013c1.9927 0 3.6328-1.64 3.6328-3.6328 0-1.9927-1.64-3.6328-3.6328-3.6328-0.14332 0.0013-0.286 0.01123-0.428 0.02973 0.06341-0.3362 0.09643-0.67833 0.09776-1.0205 0-3.0799-2.5343-5.6143-5.6143-5.6143z" fill="url(#linearGradient963)" stroke-width=".6605"/>
<path d="m17.107 7.4146c-0.38464 4.233e-4 -0.76095 0.040655-1.125 0.11627 0.09999-0.00551 0.20058-0.00868 0.30179-0.00878 3.0799-2e-7 5.6141 2.5347 5.6141 5.6146-0.0013 0.34214-0.03426 0.6839-0.09767 1.0201 0.14201-0.0185 0.28456-0.02815 0.42788-0.02946 1.9927 0 3.6329 1.6401 3.6329 3.6329 0 1.6944-1.1873 3.1297-2.7673 3.5228 1.9734-0.02327 3.5905-1.6523 3.5905-3.6308 0-1.9927-1.6401-3.6329-3.6329-3.6329-0.14332 0.0013-0.28587 0.01147-0.42788 0.02997 0.06341-0.3362 0.09634-0.67847 0.09767-1.0206 0-3.0799-2.5342-5.6141-5.6141-5.6141zm0.16846 13.977s-0.15832 1.2864-1.8743 2.5275c-0.53186 0.38476-1.1572 0.60532-1.787 0.72709 0.88721-0.06249 1.8448-0.28092 2.6102-0.83458 1.506-1.0892 1.7971-2.1611 1.8495-2.42z" fill="#0075ff" fill-opacity=".09734" stroke-width=".6605"/>
</svg>
