<svg width="128" height="128" version="1.1" viewBox="0 0 128 128" xmlns="http://www.w3.org/2000/svg" xmlns:xlink="http://www.w3.org/1999/xlink">
<defs>
<linearGradient id="linearGradient5095" x1="570.66" x2="788.53" y1="524.47" y2="862.92" gradientTransform="matrix(.2704 0 0 .2704 -132.55 -111.64)" gradientUnits="userSpaceOnUse">
<stop stop-color="#f6f6f6" offset="0"/>
<stop stop-color="#e6e6e6" offset="1"/>
</linearGradient>
</defs>
<rect transform="matrix(.98725 -.15918 .15918 .98725 0 0)" x="-1.1398" y="20.351" width="106.18" height="105.3" rx="7.3329" ry="7.3329" fill="none" stroke="#000" stroke-linecap="round" stroke-linejoin="round" stroke-opacity=".064394" stroke-width="1.6224" style="paint-order:fill markers stroke"/>
<rect transform="matrix(.98725 -.15918 .15918 .98725 0 0)" x="-1.1398" y="20.351" width="106.18" height="105.3" rx="7.3329" ry="7.3329" fill="none" stroke="#000" stroke-linecap="round" stroke-linejoin="round" stroke-opacity=".064394" stroke-width="1.0816" style="paint-order:fill markers stroke"/>
<rect transform="matrix(.98725 -.15918 .15918 .98725 0 0)" x="-1.1398" y="20.351" width="106.18" height="105.3" rx="7.3329" ry="7.3329" fill="url(#linearGradient5095)" stroke="#c9c9c9" stroke-linecap="round" stroke-linejoin="round" stroke-width=".5408" style="paint-order:fill markers stroke"/>
<path d="m85.326 61.287c-1.3085 0.053735-2.7065 0.44384-4.0801 1.2441-0.77049 0.45126-1.0742 1.2148-1.0742 1.2148s0.48302-0.31052 1.6016-0.77734c4.5744-1.9077 12.815 4.1525-0.47656 14.656-0.033317 0.1959-0.21892 0.44535-0.21875 0.44531 15.795-7.5652 11.314-17.073 4.248-16.783zm-6.1719 4.8555s-5.7365 2.203-11.561 3.8359c-7.1281 1.9984-14.878 3.6112-18.879 3.8379-9.4736 0.53801 4.1758-5.6055 4.1758-5.6055 0-1e-6 -5.628 0.6908-11.822 5.3047-7.3284 5.4562 21.067 1.8505 34.859-4.7578 1.3122-1.3204 3.2266-2.6152 3.2266-2.6152zm-4.6875 9.2773c-8.7687 3.4999-14.038 4.454-20.832 5.0449-5.2526 0.4563-2.3613-2.6875-2.3613-2.6875-12.475 6.9797 9.2289 8.0178 26.807-1.0039-2.1126-0.31771-3.6133-1.3535-3.6133-1.3535zm-0.90625 8.7227c-6.6205 2.6171-9.7858 3.3315-16.158 3.8164-5.2598 0.39761-2.5918-1.9297-2.5918-1.9297-11.45 5.7028 9.3496 8.9515 23.488-0.60547-2.7113-0.49626-4.7383-1.2812-4.7383-1.2812zm16.836 1.668c0.016577 0.009101 2.5586 1.4106-1.8301 3.7188-8.3731 4.3989-36.335 10.609-44.797 8.7109-3.04-0.6835 1.899-3.3869 3.4863-4.0625 1.6551-0.70498 2.6543-0.82617 2.6543-0.82617-3.5443-1.5994-19.352 8.1911-7.4766 7.8496 32.378-0.93703 56.802-13.276 47.963-15.391zm5.752 3.0469s-0.50247 2.7322-10.836 6.8066c-11.658 4.5983-26.629 7.1963-35.756 7.4336 0 0 2.1003 1.1529 11.527-0.03516 14.342-1.8136 35.837-7.4013 35.064-14.205z" clip-rule="evenodd" fill="#496c95" fill-rule="evenodd" stroke-width="1.3721"/>
<g transform="translate(-109.63 19.661)" clip-rule="evenodd" fill="none" opacity=".387" stroke="#000" stroke-linecap="round" stroke-linejoin="bevel" stroke-opacity=".034351">
<path d="m170.96 2.0206c5.7908 12.359-8.3835 19.149-12.219 28.273-2.6112 6.216 3.9948 11.09 12.744 16.387-4.1701-6.0161-15.136-9.8753-4.2969-22.418 13.517-15.632 3.7715-22.242 3.7715-22.242zm12.941 14.182c1.8e-4 -3.4e-5 -25.649 11.896-9.9375 24.252 4.6369 3.6428 0.59766 8.4941 0.59766 8.4941s8.6839-6.8242 3.0625-12.207c-5.2495-5.0156-8.973-7.2927 6.2773-20.539zm11.053 25.424c-1.3086 0.05374-2.7065 0.44384-4.0801 1.2441-0.77049 0.45126-1.0742 1.2148-1.0742 1.2148s0.48302-0.31052 1.6016-0.77734c4.5744-1.9077 12.815 4.1525-0.47656 14.656-0.0333 0.1959-0.21892 0.44535-0.21875 0.44531 15.795-7.5652 11.314-17.073 4.248-16.783zm-6.1719 4.8555s-5.7365 2.203-11.561 3.8359c-7.1281 1.9984-14.878 3.6112-18.879 3.8379-9.4736 0.53801 4.1758-5.6055 4.1758-5.6055 0-1e-6 -5.628 0.6908-11.822 5.3047-7.3284 5.4562 21.067 1.8505 34.859-4.7578 1.3122-1.3204 3.2266-2.6152 3.2266-2.6152zm-4.6875 9.2773c-8.7687 3.4999-14.038 4.454-20.832 5.0449-5.2526 0.4563-2.3613-2.6875-2.3613-2.6875-12.475 6.9797 9.2289 8.0178 26.807-1.0039-2.1126-0.31771-3.6133-1.3535-3.6133-1.3535zm-0.90625 8.7227c-6.6205 2.6171-9.7858 3.3315-16.158 3.8164-5.2598 0.39761-2.5918-1.9297-2.5918-1.9297-11.45 5.7028 9.3496 8.9515 23.488-0.60547-2.7113-0.49626-4.7383-1.2812-4.7383-1.2812zm16.836 1.668c0.0166 0.0091 2.5586 1.4106-1.8301 3.7188-8.3731 4.3989-36.335 10.609-44.797 8.7109-3.04-0.6835 1.899-3.3869 3.4863-4.0625 1.6551-0.70498 2.6543-0.82617 2.6543-0.82617-3.5443-1.5994-19.352 8.1911-7.4766 7.8496 32.378-0.93703 56.802-13.276 47.963-15.391zm5.752 3.0469s-0.50247 2.7322-10.836 6.8066c-11.658 4.5983-26.629 7.1963-35.756 7.4336 0 0 2.1003 1.1529 11.527-0.0352 14.342-1.8136 35.837-7.4013 35.064-14.205z" stroke-width=".5"/>
<path d="m170.96 2.0206c5.7908 12.359-8.3835 19.149-12.219 28.273-2.6112 6.216 3.9948 11.09 12.744 16.387-4.1701-6.0161-15.136-9.8753-4.2969-22.418 13.517-15.632 3.7715-22.242 3.7715-22.242zm12.941 14.182c1.8e-4 -3.4e-5 -25.649 11.896-9.9375 24.252 4.6369 3.6428 0.59766 8.4941 0.59766 8.4941s8.6839-6.8242 3.0625-12.207c-5.2495-5.0156-8.973-7.2927 6.2773-20.539zm11.053 25.424c-1.3086 0.05374-2.7065 0.44384-4.0801 1.2441-0.77049 0.45126-1.0742 1.2148-1.0742 1.2148s0.48302-0.31052 1.6016-0.77734c4.5744-1.9077 12.815 4.1525-0.47656 14.656-0.0333 0.1959-0.21892 0.44535-0.21875 0.44531 15.795-7.5652 11.314-17.073 4.248-16.783zm-6.1719 4.8555s-5.7365 2.203-11.561 3.8359c-7.1281 1.9984-14.878 3.6112-18.879 3.8379-9.4736 0.53801 4.1758-5.6055 4.1758-5.6055 0-1e-6 -5.628 0.6908-11.822 5.3047-7.3284 5.4562 21.067 1.8505 34.859-4.7578 1.3122-1.3204 3.2266-2.6152 3.2266-2.6152zm-4.6875 9.2773c-8.7687 3.4999-14.038 4.454-20.832 5.0449-5.2526 0.4563-2.3613-2.6875-2.3613-2.6875-12.475 6.9797 9.2289 8.0178 26.807-1.0039-2.1126-0.31771-3.6133-1.3535-3.6133-1.3535zm-0.90625 8.7227c-6.6205 2.6171-9.7858 3.3315-16.158 3.8164-5.2598 0.39761-2.5918-1.9297-2.5918-1.9297-11.45 5.7028 9.3496 8.9515 23.488-0.60547-2.7113-0.49626-4.7383-1.2812-4.7383-1.2812zm16.836 1.668c0.0166 0.0091 2.5586 1.4106-1.8301 3.7188-8.3731 4.3989-36.335 10.609-44.797 8.7109-3.04-0.6835 1.899-3.3869 3.4863-4.0625 1.6551-0.70498 2.6543-0.82617 2.6543-0.82617-3.5443-1.5994-19.352 8.1911-7.4766 7.8496 32.378-0.93703 56.802-13.276 47.963-15.391zm5.752 3.0469s-0.50247 2.7322-10.836 6.8066c-11.658 4.5983-26.629 7.1963-35.756 7.4336 0 0 2.1003 1.1529 11.527-0.0352 14.342-1.8136 35.837-7.4013 35.064-14.205z"/>
<path d="m170.96 2.0206c5.7908 12.359-8.3835 19.149-12.219 28.273-2.6112 6.216 3.9948 11.09 12.744 16.387-4.1701-6.0161-15.136-9.8753-4.2969-22.418 13.517-15.632 3.7715-22.242 3.7715-22.242zm12.941 14.182c1.8e-4 -3.4e-5 -25.649 11.896-9.9375 24.252 4.6369 3.6428 0.59766 8.4941 0.59766 8.4941s8.6839-6.8242 3.0625-12.207c-5.2495-5.0156-8.973-7.2927 6.2773-20.539zm11.053 25.424c-1.3086 0.05374-2.7065 0.44384-4.0801 1.2441-0.77049 0.45126-1.0742 1.2148-1.0742 1.2148s0.48302-0.31052 1.6016-0.77734c4.5744-1.9077 12.815 4.1525-0.47656 14.656-0.0333 0.1959-0.21892 0.44535-0.21875 0.44531 15.795-7.5652 11.314-17.073 4.248-16.783zm-6.1719 4.8555s-5.7365 2.203-11.561 3.8359c-7.1281 1.9984-14.878 3.6112-18.879 3.8379-9.4736 0.53801 4.1758-5.6055 4.1758-5.6055 0-1e-6 -5.628 0.6908-11.822 5.3047-7.3284 5.4562 21.067 1.8505 34.859-4.7578 1.3122-1.3204 3.2266-2.6152 3.2266-2.6152zm-4.6875 9.2773c-8.7687 3.4999-14.038 4.454-20.832 5.0449-5.2526 0.4563-2.3613-2.6875-2.3613-2.6875-12.475 6.9797 9.2289 8.0178 26.807-1.0039-2.1126-0.31771-3.6133-1.3535-3.6133-1.3535zm-0.90625 8.7227c-6.6205 2.6171-9.7858 3.3315-16.158 3.8164-5.2598 0.39761-2.5918-1.9297-2.5918-1.9297-11.45 5.7028 9.3496 8.9515 23.488-0.60547-2.7113-0.49626-4.7383-1.2812-4.7383-1.2812zm16.836 1.668c0.0166 0.0091 2.5586 1.4106-1.8301 3.7188-8.3731 4.3989-36.335 10.609-44.797 8.7109-3.04-0.6835 1.899-3.3869 3.4863-4.0625 1.6551-0.70498 2.6543-0.82617 2.6543-0.82617-3.5443-1.5994-19.352 8.1911-7.4766 7.8496 32.378-0.93703 56.802-13.276 47.963-15.391zm5.752 3.0469s-0.50247 2.7322-10.836 6.8066c-11.658 4.5983-26.629 7.1963-35.756 7.4336 0 0 2.1003 1.1529 11.527-0.0352 14.342-1.8136 35.837-7.4013 35.064-14.205z" stroke-width="1.5"/>
<path d="m170.96 2.0206c5.7908 12.359-8.3835 19.149-12.219 28.273-2.6112 6.216 3.9948 11.09 12.744 16.387-4.1701-6.0161-15.136-9.8753-4.2969-22.418 13.517-15.632 3.7715-22.242 3.7715-22.242zm12.941 14.182c1.8e-4 -3.4e-5 -25.649 11.896-9.9375 24.252 4.6369 3.6428 0.59766 8.4941 0.59766 8.4941s8.6839-6.8242 3.0625-12.207c-5.2495-5.0156-8.973-7.2927 6.2773-20.539zm11.053 25.424c-1.3086 0.05374-2.7065 0.44384-4.0801 1.2441-0.77049 0.45126-1.0742 1.2148-1.0742 1.2148s0.48302-0.31052 1.6016-0.77734c4.5744-1.9077 12.815 4.1525-0.47656 14.656-0.0333 0.1959-0.21892 0.44535-0.21875 0.44531 15.795-7.5652 11.314-17.073 4.248-16.783zm-6.1719 4.8555s-5.7365 2.203-11.561 3.8359c-7.1281 1.9984-14.878 3.6112-18.879 3.8379-9.4736 0.53801 4.1758-5.6055 4.1758-5.6055 0-1e-6 -5.628 0.6908-11.822 5.3047-7.3284 5.4562 21.067 1.8505 34.859-4.7578 1.3122-1.3204 3.2266-2.6152 3.2266-2.6152zm-4.6875 9.2773c-8.7687 3.4999-14.038 4.454-20.832 5.0449-5.2526 0.4563-2.3613-2.6875-2.3613-2.6875-12.475 6.9797 9.2289 8.0178 26.807-1.0039-2.1126-0.31771-3.6133-1.3535-3.6133-1.3535zm-0.90625 8.7227c-6.6205 2.6171-9.7858 3.3315-16.158 3.8164-5.2598 0.39761-2.5918-1.9297-2.5918-1.9297-11.45 5.7028 9.3496 8.9515 23.488-0.60547-2.7113-0.49626-4.7383-1.2812-4.7383-1.2812zm16.836 1.668c0.0166 0.0091 2.5586 1.4106-1.8301 3.7188-8.3731 4.3989-36.335 10.609-44.797 8.7109-3.04-0.6835 1.899-3.3869 3.4863-4.0625 1.6551-0.70498 2.6543-0.82617 2.6543-0.82617-3.5443-1.5994-19.352 8.1911-7.4766 7.8496 32.378-0.93703 56.802-13.276 47.963-15.391zm5.752 3.0469s-0.50247 2.7322-10.836 6.8066c-11.658 4.5983-26.629 7.1963-35.756 7.4336 0 0 2.1003 1.1529 11.527-0.0352 14.342-1.8136 35.837-7.4013 35.064-14.205z" stroke-width="2"/>
<path d="m170.96 2.0206c5.7908 12.359-8.3835 19.149-12.219 28.273-2.6112 6.216 3.9948 11.09 12.744 16.387-4.1701-6.0161-15.136-9.8753-4.2969-22.418 13.517-15.632 3.7715-22.242 3.7715-22.242zm12.941 14.182c1.8e-4 -3.4e-5 -25.649 11.896-9.9375 24.252 4.6369 3.6428 0.59766 8.4941 0.59766 8.4941s8.6839-6.8242 3.0625-12.207c-5.2495-5.0156-8.973-7.2927 6.2773-20.539zm11.053 25.424c-1.3086 0.05374-2.7065 0.44384-4.0801 1.2441-0.77049 0.45126-1.0742 1.2148-1.0742 1.2148s0.48302-0.31052 1.6016-0.77734c4.5744-1.9077 12.815 4.1525-0.47656 14.656-0.0333 0.1959-0.21892 0.44535-0.21875 0.44531 15.795-7.5652 11.314-17.073 4.248-16.783zm-6.1719 4.8555s-5.7365 2.203-11.561 3.8359c-7.1281 1.9984-14.878 3.6112-18.879 3.8379-9.4736 0.53801 4.1758-5.6055 4.1758-5.6055 0-1e-6 -5.628 0.6908-11.822 5.3047-7.3284 5.4562 21.067 1.8505 34.859-4.7578 1.3122-1.3204 3.2266-2.6152 3.2266-2.6152zm-4.6875 9.2773c-8.7687 3.4999-14.038 4.454-20.832 5.0449-5.2526 0.4563-2.3613-2.6875-2.3613-2.6875-12.475 6.9797 9.2289 8.0178 26.807-1.0039-2.1126-0.31771-3.6133-1.3535-3.6133-1.3535zm-0.90625 8.7227c-6.6205 2.6171-9.7858 3.3315-16.158 3.8164-5.2598 0.39761-2.5918-1.9297-2.5918-1.9297-11.45 5.7028 9.3496 8.9515 23.488-0.60547-2.7113-0.49626-4.7383-1.2812-4.7383-1.2812zm16.836 1.668c0.0166 0.0091 2.5586 1.4106-1.8301 3.7188-8.3731 4.3989-36.335 10.609-44.797 8.7109-3.04-0.6835 1.899-3.3869 3.4863-4.0625 1.6551-0.70498 2.6543-0.82617 2.6543-0.82617-3.5443-1.5994-19.352 8.1911-7.4766 7.8496 32.378-0.93703 56.802-13.276 47.963-15.391zm5.752 3.0469s-0.50247 2.7322-10.836 6.8066c-11.658 4.5983-26.629 7.1963-35.756 7.4336 0 0 2.1003 1.1529 11.527-0.0352 14.342-1.8136 35.837-7.4013 35.064-14.205z" stroke-width="2.5"/>
<path d="m170.96 2.0206c5.7908 12.359-8.3835 19.149-12.219 28.273-2.6112 6.216 3.9948 11.09 12.744 16.387-4.1701-6.0161-15.136-9.8753-4.2969-22.418 13.517-15.632 3.7715-22.242 3.7715-22.242zm12.941 14.182c1.8e-4 -3.4e-5 -25.649 11.896-9.9375 24.252 4.6369 3.6428 0.59766 8.4941 0.59766 8.4941s8.6839-6.8242 3.0625-12.207c-5.2495-5.0156-8.973-7.2927 6.2773-20.539zm11.053 25.424c-1.3086 0.05374-2.7065 0.44384-4.0801 1.2441-0.77049 0.45126-1.0742 1.2148-1.0742 1.2148s0.48302-0.31052 1.6016-0.77734c4.5744-1.9077 12.815 4.1525-0.47656 14.656-0.0333 0.1959-0.21892 0.44535-0.21875 0.44531 15.795-7.5652 11.314-17.073 4.248-16.783zm-6.1719 4.8555s-5.7365 2.203-11.561 3.8359c-7.1281 1.9984-14.878 3.6112-18.879 3.8379-9.4736 0.53801 4.1758-5.6055 4.1758-5.6055 0-1e-6 -5.628 0.6908-11.822 5.3047-7.3284 5.4562 21.067 1.8505 34.859-4.7578 1.3122-1.3204 3.2266-2.6152 3.2266-2.6152zm-4.6875 9.2773c-8.7687 3.4999-14.038 4.454-20.832 5.0449-5.2526 0.4563-2.3613-2.6875-2.3613-2.6875-12.475 6.9797 9.2289 8.0178 26.807-1.0039-2.1126-0.31771-3.6133-1.3535-3.6133-1.3535zm-0.90625 8.7227c-6.6205 2.6171-9.7858 3.3315-16.158 3.8164-5.2598 0.39761-2.5918-1.9297-2.5918-1.9297-11.45 5.7028 9.3496 8.9515 23.488-0.60547-2.7113-0.49626-4.7383-1.2812-4.7383-1.2812zm16.836 1.668c0.0166 0.0091 2.5586 1.4106-1.8301 3.7188-8.3731 4.3989-36.335 10.609-44.797 8.7109-3.04-0.6835 1.899-3.3869 3.4863-4.0625 1.6551-0.70498 2.6543-0.82617 2.6543-0.82617-3.5443-1.5994-19.352 8.1911-7.4766 7.8496 32.378-0.93703 56.802-13.276 47.963-15.391zm5.752 3.0469s-0.50247 2.7322-10.836 6.8066c-11.658 4.5983-26.629 7.1963-35.756 7.4336 0 0 2.1003 1.1529 11.527-0.0352 14.342-1.8136 35.837-7.4013 35.064-14.205z" stroke-width="3"/>
</g>
<path d="m61.332 21.682c5.7908 12.359-8.3835 19.149-12.219 28.273-2.6112 6.216 3.9948 11.09 12.744 16.387-4.1701-6.0161-15.136-9.8753-4.2969-22.418 13.517-15.632 3.7715-22.242 3.7715-22.242zm12.941 14.182c1.74e-4 -3.4e-5 -25.649 11.896-9.9375 24.252 4.6369 3.6428 0.59766 8.4941 0.59766 8.4941s8.6839-6.8242 3.0625-12.207c-5.2495-5.0156-8.973-7.2927 6.2773-20.539z" clip-rule="evenodd" fill="#ceb851" fill-rule="evenodd" stroke-width="1.3721"/>
</svg>
