<svg width="128" height="128" version="1.1" viewBox="0 0 33.867 33.867" xmlns="http://www.w3.org/2000/svg" xmlns:xlink="http://www.w3.org/1999/xlink">
<defs>
<linearGradient id="linearGradient1632" x1="132.21" x2="132.21" y1="42.152" y2="70.68" gradientUnits="userSpaceOnUse">
<stop stop-color="#f8fcfc" offset="0"/>
<stop stop-color="#d7e1f4" offset="1"/>
</linearGradient>
</defs>
<g transform="matrix(.97573 0 0 .97573 -111.78 -37.203)">
<g transform="translate(47.173)" fill="none" opacity=".20513" stroke="#000" stroke-linecap="round" stroke-linejoin="round" stroke-opacity=".02">
<rect x="69.84" y="40.71" width="29.811" height="29.811" rx="6.6099" ry="6.6099" stroke-width=".1"/>
<rect x="69.84" y="40.71" width="29.811" height="29.811" rx="6.6099" ry="6.6099" stroke-width=".2"/>
<rect x="69.84" y="40.71" width="29.811" height="29.811" rx="6.6099" ry="6.6099" stroke-width=".3"/>
<rect x="69.84" y="40.71" width="29.811" height="29.811" rx="6.6099" ry="6.6099" stroke-width=".4"/>
<rect x="69.84" y="40.71" width="29.811" height="29.811" rx="6.6099" ry="6.6099" stroke-width=".5"/>
<rect x="69.84" y="40.71" width="29.811" height="29.811" rx="6.6099" ry="6.6099" stroke-width=".6"/>
<rect x="69.84" y="40.71" width="29.811" height="29.811" rx="6.6099" ry="6.6099" stroke-width=".7"/>
<rect x="69.84" y="40.71" width="29.811" height="29.811" rx="6.6099" ry="6.6099" stroke-width=".8"/>
<rect x="69.84" y="40.71" width="29.811" height="29.811" rx="6.6099" ry="6.6099"/>
<rect x="69.84" y="40.71" width="29.811" height="29.811" rx="6.6099" ry="6.6099" stroke-width="1.2"/>
<rect x="69.84" y="40.71" width="29.811" height="29.811" rx="6.6099" ry="6.6099" stroke-width="1.4"/>
<rect x="69.84" y="40.71" width="29.811" height="29.811" rx="6.6099" ry="6.6099" stroke-width="1.6"/>
<rect x="69.84" y="40.71" width="29.811" height="29.811" rx="6.6099" ry="6.6099" stroke-width="1.8"/>
<rect x="69.84" y="40.71" width="29.811" height="29.811" rx="6.6099" ry="6.6099" stroke-width="2"/>
<rect x="69.84" y="40.71" width="29.811" height="29.811" rx="6.6099" ry="6.6099" stroke-width="2.2"/>
<rect x="69.84" y="40.71" width="29.811" height="29.811" rx="6.6099" ry="6.6099" stroke-width="2.6"/>
<rect x="69.84" y="40.71" width="29.811" height="29.811" rx="6.6099" ry="6.6099" stroke-width="3"/>
<rect x="69.84" y="40.71" width="29.811" height="29.811" rx="6.6099" ry="6.6099" stroke-width="3.4"/>
<rect x="69.84" y="40.71" width="29.811" height="29.811" rx="6.6099" ry="6.6099" stroke-width="3.8"/>
<rect x="69.84" y="40.71" width="29.811" height="29.811" rx="6.6099" ry="6.6099" stroke-width="4.2"/>
<rect x="69.84" y="40.71" width="29.811" height="29.811" rx="6.6099" ry="6.6099" stroke-width="4.6"/>
<rect x="69.84" y="40.71" width="29.811" height="29.811" rx="6.6099" ry="6.6099" stroke-width="5"/>
</g>
<rect x="117.01" y="40.71" width="29.811" height="29.811" rx="6.6099" ry="6.6099" fill="url(#linearGradient1632)" stroke-linecap="round" stroke-linejoin="round" stroke-width="2.7545"/>
<g transform="matrix(.84124 0 0 .84124 107.39 26.777)">
<circle cx="37.788" cy="23.754" r="1.5" fill="#767677"/>
<circle cx="22.288" cy="46.254" r="2" fill="#9e9e9e"/>
<circle cx="20.788" cy="24.754" r="1.5" fill="#616262"/>
<path d="m29.288 24.254c-5 0-9 4-10 7 3-3 7-4 10-4s7 1 10 4c-1-3-5-7-10-7zm-10 14c1 3 5 7 10 7s9-4 10-7c-3 3-7 4-10 4s-7-1-10-4z" fill="#f37726"/>
</g>
</g>
</svg>
