<svg width="136.53" height="136.53" version="1.1" viewBox="0 0 136.53 136.53" xmlns="http://www.w3.org/2000/svg" xmlns:xlink="http://www.w3.org/1999/xlink">
<defs>
<linearGradient id="linearGradient859" x1="73.909" x2="79.909" y1="8.694" y2="137.96" gradientUnits="userSpaceOnUse">
<stop stop-color="#f1f1f1" offset="0"/>
<stop stop-color="#d9dad9" offset="1"/>
</linearGradient>
<linearGradient id="linearGradient867" x1="68.113" x2="68.113" y1="119.96" y2="8.7812" gradientUnits="userSpaceOnUse">
<stop stop-color="#852e61" offset="0"/>
<stop stop-color="#f7986e" offset="1"/>
</linearGradient>
</defs>
<filter x="-.069933" y="-.054406" width="1.1399" height="1.1088" color-interpolation-filters="sRGB">
<feGaussianBlur stdDeviation="1.9764485"/>
</filter>
<path d="m68.113 2.2168c-36.979 0-67.021 30.042-67.021 67.021 0 36.979 30.042 67.021 67.021 67.021 36.979 0 67.021-30.042 67.021-67.021 0-36.979-30.042-67.021-67.021-67.021z" color="#000000" color-rendering="auto" dominant-baseline="auto" fill="url(#linearGradient859)" image-rendering="auto" shape-rendering="auto" solid-color="#000000" style="font-feature-settings:normal;font-variant-alternates:normal;font-variant-caps:normal;font-variant-ligatures:normal;font-variant-numeric:normal;font-variant-position:normal;isolation:auto;mix-blend-mode:normal;shape-padding:0;text-decoration-color:#000000;text-decoration-line:none;text-decoration-style:solid;text-indent:0;text-orientation:mixed;text-transform:none;white-space:normal"/>
<path d="m68.113 8.7812c-33.39-2.971e-4 -60.457 27.067-60.457 60.457-2.96e-4 33.39 27.067 60.457 60.457 60.457 33.39 3e-4 60.457-27.067 60.457-60.457 3e-4 -33.39-27.067-60.457-60.457-60.457z" fill="url(#linearGradient867)" style="paint-order:fill markers stroke"/>
<path d="m85.907 41.829c-1.161 0-2.6219 0.18861-3.2436 0.42032-2.6543 0.98921-4.7132 4.0612-5.8925 8.7872-1.8969 7.6022-5.1559 10.992-10.568 10.992-1.6533 0-1.6687 0.33018-0.08724 1.8082 3.0704 2.8696 4.9386 7.1701 5.4444 12.538 0.19884 2.1097 0.49565 3.0438 1.2412 3.9178 0.53788 0.63054 1.201 1.142 1.4791 1.142 0.27811 0 0.81823-0.93413 1.2015-2.0778 0.5151-1.537 0.78016-4.249 1.0151-10.397 0.27243-7.1283 0.4445-8.6448 1.2015-10.599 1.9377-5.0032 6.2704-7.6769 10.683-5.7001 2.1185 0.94914 3.9486 3.7057 6.634 8.4045 1.9916 3.4848 4.2296 6.1146 5.2065 6.1146 0.49346 0 0.50455-0.67777 0.0158-0.97547-0.9926-0.6051-1.7337-4.4476-1.8598-9.6516-0.12604-5.2073-0.17196-5.4851-1.4553-7.9664-2.1629-4.1821-6.3655-6.7569-11.016-6.7569zm-28.658 19.442c-0.38383 0.0034-0.8227 0.037-1.368 0.08724-2.5796 0.23761-3.8622 0.57578-3.8622 1.0191 0 0.14486 1.5992 1.8628 3.549 3.8186 3.8784 3.8904 5.7337 6.9865 6.5785 10.98 0.38035 1.2999 0.49435 2.6302 0.57894 3.9653-2.8967 1.3158-4.7583 4.2019-4.7624 7.3835 0 4.4851 3.6359 8.121 8.121 8.121 4.4851 0 8.121-3.6359 8.121-8.121-0.0029-3.1225-1.7958-5.9667-4.6117-7.3161-0.40875-1.1215-0.30533-2.2075-0.30533-3.315 0-6.6361-3.4685-12.749-8.8824-15.655-1.371-0.736-2.0049-0.97798-3.1564-0.96754zm-8.4938 2.6449-2.1889 1.483c-3.2138 2.1833-6.3452 5.7303-8.0298 9.0925-1.3346 2.6636-1.4999 3.348-1.6575 6.8323-0.1096 2.4231-0.41398 4.3354-0.80893 5.1034-0.85751 1.6674-0.43192 3.2323 0.97548 3.5807 0.59251 0.14668 1.9891 1.1873 3.1049 2.3078 3.7359 3.7519 10.842 5.2907 17.19 3.7235 1.6434-0.40577 1.8427-0.76405 0.87238-1.5584-0.34852-0.2853-1.091-1.4111-1.6535-2.5061-1.9238-3.7448-1.2082-8.403 1.7606-11.408 1.347-1.3636 1.4274-1.5805 1.1936-3.2635-0.13777-0.99208-0.70906-2.7013-1.2729-3.7988-1.149-2.2366-5.9852-7.4616-8.1012-8.7515zm-3.9891 16.488c1.6819 0 3.0454 1.3635 3.0454 3.0454 0 1.6819-1.3635 3.0454-3.0454 3.0454-1.6819 0-3.0454-1.3635-3.0454-3.0454 0-1.6819 1.3635-3.0454 3.0454-3.0454zm21.318 4.0605c2.2426 0 4.0605 1.818 4.0605 4.0605s-1.818 4.0605-4.0605 4.0605c-2.2426 0-4.0605-1.818-4.0605-4.0605s1.818-4.0605 4.0605-4.0605z" fill="#fff" stroke-width="2.0303"/>
</svg>
