<svg width="128" height="128" version="1.1" viewBox="0 0 33.867 33.867" xml:space="preserve" xmlns="http://www.w3.org/2000/svg" xmlns:xlink="http://www.w3.org/1999/xlink"><defs><linearGradient id="linearGradient4292" x1="19.336" x2="19.336" y1="31.327" y2="3.272" gradientTransform="translate(.11421 -.0065306)" gradientUnits="userSpaceOnUse"><stop stop-color="#4a718b" offset="0"/><stop stop-color="#ab5d59" offset="1"/></linearGradient><linearGradient id="linearGradient4259" x1="32.643" x2="-.021682" y1="17.868" y2="17.868" gradientTransform="translate(.11421 -1.0674)" gradientUnits="userSpaceOnUse"><stop stop-color="#507297" offset="0"/><stop stop-color="#c3ccda" offset=".25869"/><stop stop-color="#c3cad5" offset=".51739"/><stop stop-color="#c0c9d3" offset=".71043"/><stop stop-color="#223c62" offset="1"/></linearGradient><linearGradient id="linearGradient4390" x1="2.3963" x2="15.522" y1="18.621" y2="18.621" gradientTransform="translate(.11421 -.0065306)" gradientUnits="userSpaceOnUse"><stop offset="0"/><stop stop-color="#85a2e9" stop-opacity="0" offset="1"/></linearGradient><linearGradient id="linearGradient4223" x1="2.452" x2="4.1614" y1="14.837" y2="14.837" gradientTransform="translate(.02355 .076923)" gradientUnits="userSpaceOnUse"><stop stop-color="#3397d8" offset="0"/><stop stop-color="#73b8e4" offset=".22937"/><stop stop-color="#87c3e8" offset=".50314"/><stop stop-color="#75bae4" offset=".7881"/><stop stop-color="#2c77b3" offset="1"/></linearGradient><linearGradient id="linearGradient4327" x1="18.56" x2="18.56" y1="26.492" y2="4.831" gradientTransform="translate(.11421 -.0065306)" gradientUnits="userSpaceOnUse"><stop stop-color="#65abe6" offset="0"/><stop stop-color="#86cae1" offset="1"/></linearGradient><linearGradient id="linearGradient4319" x1="13.332" x2="16.76" y1="95.192" y2="107.98" gradientTransform="matrix(.26458 0 0 .26458 .11421 -.0065306)" gradientUnits="userSpaceOnUse"><stop stop-color="#2b4e5d" stop-opacity="0" offset="0"/><stop stop-color="#4c718a" offset="1"/></linearGradient><linearGradient id="linearGradient7160" x1="19.083" x2="16.568" y1="36.417" y2="4.208" gradientUnits="userSpaceOnUse"><stop stop-color="#6bb1e5" offset="0"/><stop stop-color="#fff" offset="1"/></linearGradient><filter id="filter7174" x="-.095396" y="-.082638" width="1.1908" height="1.1653" color-interpolation-filters="sRGB"><feGaussianBlur stdDeviation="0.50460525"/></filter></defs><g transform="matrix(.97573 0 0 .97573 -65.634 -37.21)" fill="none" opacity=".295" stroke="#000" stroke-linecap="round" stroke-linejoin="round" stroke-opacity=".02"><rect x="69.84" y="40.71" width="29.811" height="29.811" rx="6.6099" ry="6.6099" stroke-width=".1"/><rect x="69.84" y="40.71" width="29.811" height="29.811" rx="6.6099" ry="6.6099" stroke-width=".2"/><rect x="69.84" y="40.71" width="29.811" height="29.811" rx="6.6099" ry="6.6099" stroke-width=".3"/><rect x="69.84" y="40.71" width="29.811" height="29.811" rx="6.6099" ry="6.6099" stroke-width=".4"/><rect x="69.84" y="40.71" width="29.811" height="29.811" rx="6.6099" ry="6.6099" stroke-width=".5"/><rect x="69.84" y="40.71" width="29.811" height="29.811" rx="6.6099" ry="6.6099" stroke-width=".6"/><rect x="69.84" y="40.71" width="29.811" height="29.811" rx="6.6099" ry="6.6099" stroke-width=".7"/><rect x="69.84" y="40.71" width="29.811" height="29.811" rx="6.6099" ry="6.6099" stroke-width=".8"/><rect x="69.84" y="40.71" width="29.811" height="29.811" rx="6.6099" ry="6.6099"/><rect x="69.84" y="40.71" width="29.811" height="29.811" rx="6.6099" ry="6.6099" stroke-width="1.2"/><rect x="69.84" y="40.71" width="29.811" height="29.811" rx="6.6099" ry="6.6099" stroke-width="1.4"/><rect x="69.84" y="40.71" width="29.811" height="29.811" rx="6.6099" ry="6.6099" stroke-width="1.6"/><rect x="69.84" y="40.71" width="29.811" height="29.811" rx="6.6099" ry="6.6099" stroke-width="1.8"/><rect x="69.84" y="40.71" width="29.811" height="29.811" rx="6.6099" ry="6.6099" stroke-width="2"/><rect x="69.84" y="40.71" width="29.811" height="29.811" rx="6.6099" ry="6.6099" stroke-width="2.2"/><rect x="69.84" y="40.71" width="29.811" height="29.811" rx="6.6099" ry="6.6099" stroke-width="2.6"/><rect x="69.84" y="40.71" width="29.811" height="29.811" rx="6.6099" ry="6.6099" stroke-width="3"/><rect x="69.84" y="40.71" width="29.811" height="29.811" rx="6.6099" ry="6.6099" stroke-width="3.4"/><rect x="69.84" y="40.71" width="29.811" height="29.811" rx="6.6099" ry="6.6099" stroke-width="3.8"/><rect x="69.84" y="40.71" width="29.811" height="29.811" rx="6.6099" ry="6.6099" stroke-width="4.2"/><rect x="69.84" y="40.71" width="29.811" height="29.811" rx="6.6099" ry="6.6099" stroke-width="4.6"/><rect x="69.84" y="40.71" width="29.811" height="29.811" rx="6.6099" ry="6.6099" stroke-width="5"/></g><rect x="2.5105" y="2.5121" width="29.087" height="29.087" rx="6.4495" ry="6.4495" fill="url(#linearGradient4292)" stroke-linecap="round" stroke-linejoin="round" stroke-width="2.688"/><path d="m8.9599 6.6898h15.345c3.573 0 6.4495 2.8765 6.4495 6.4495v10.95c0 3.573-2.8765 6.4495-6.4495 6.4495h-15.345c-2.6808 0-6.4495-2.8765-6.4495-6.4495v-10.95c0-3.573 2.8765-6.4495 6.4495-6.4495z" fill="url(#linearGradient4259)" stroke-linecap="round" stroke-linejoin="round" stroke-width="2.688"/><path d="m8.9599 6.6898h15.345c3.573 0 6.4495 2.8765 6.4495 6.4495v10.95c0 3.573-2.8765 6.4495-6.4495 6.4495h-15.345c-2.6808 0-6.4495-2.8765-6.4495-6.4495v-10.95c0-3.573 2.8765-6.4495 6.4495-6.4495z" fill="url(#linearGradient4390)" opacity=".45176" stroke-linecap="round" stroke-linejoin="round" stroke-width="2.688"/><path d="m5.2038 3.7312c-0.13336 0.09195-0.26283 0.18892-0.38861 0.29042-0.085241 0.06879-0.16855 0.13994-0.25011 0.21291-1.2649 1.176-2.0547 2.8555-2.0547 4.7268v16.189c0 2.4894 1.3971 4.639 3.4525 5.7149l0.81545-0.69246c-2.1239-0.56911-2.1314-3.3696-2.1314-7.3643z" fill="url(#linearGradient4223)" stroke-linecap="round" stroke-linejoin="round" stroke-width="2.688"/><path d="m15.005 2.5122c-0.81364 0-1.4826 0.15065-2.0324 0.42323h-5.9609c-1.3087 0-2.3621 1.054-2.3621 2.3626v20.553c0 1.3087 1.7928 2.3621 3.1015 2.3621l17.404 0.0021c3.573 0 6.4497-2.8767 6.4497-6.4497v-12.804c0-3.573-2.8767-6.4492-6.4497-6.4492z" fill="url(#linearGradient4327)" stroke-linecap="round" stroke-linejoin="round" stroke-width="2.688"/><path d="m5.2038 3.7312c-0.13336 0.09195-0.26283 0.18892-0.38861 0.29042-0.085241 0.06879-0.16855 0.13994-0.25011 0.21291-1.2649 1.176-2.0547 2.8555-2.0547 4.7268v16.189c0 2.4894 1.3971 4.639 3.4525 5.7149l1.2822-0.66464c-2.1239-0.56911-2.5982-3.3974-2.5982-7.3921z" fill="url(#linearGradient4319)" stroke-linecap="round" stroke-linejoin="round" stroke-width="2.688"/><path d="m8.9602 2.5122c-3.573 0-6.4497 2.8762-6.4497 6.4492v0.48731c0-3.573 2.8767-6.4497 6.4497-6.4497h16.188c3.573 0 6.4497 2.8767 6.4497 6.4497v-0.48731c0-3.573-2.8767-6.4492-6.4497-6.4492z" fill="#c2e3f1" stroke-linecap="round" stroke-linejoin="round" stroke-width="2.688"/><g transform="translate(.11421 -.0065306)" opacity=".34628" stroke-linecap="round" stroke-linejoin="round" stroke-width="10.159"><path transform="scale(.26458)" d="m119.02 81.693c0 13.504-10.873 24.377-24.377 24.377l-65.777-8e-3c-4.9462 0-11.723-3.9816-11.723-8.9277v0.5957c0 4.9462 6.7765 8.9277 11.723 8.9277l65.777 8e-3c13.504 0 24.377-10.873 24.377-24.377z" fill-opacity=".17939"/><path transform="scale(.26458)" d="m119.02 81.17c0 13.504-10.873 24.377-24.377 24.377l-65.777-8e-3c-4.9462 0-11.723-3.9816-11.723-8.9277v1.1191c0 4.9462 6.7765 8.9277 11.723 8.9277l65.777 8e-3c13.504 0 24.377-10.873 24.377-24.377z" fill-opacity=".17939"/><path transform="scale(.26458)" d="m119.02 80.684c0 13.504-10.873 24.377-24.377 24.377l-65.777-8e-3c-4.9462 0-11.723-3.9816-11.723-8.9277v1.6055c0 4.9462 6.7765 8.9277 11.723 8.9277l65.777 8e-3c13.504 0 24.377-10.873 24.377-24.377z" fill-opacity=".17939"/><path transform="scale(.26458)" d="m119.02 80.232c0 13.504-10.873 24.377-24.377 24.377l-65.777-8e-3c-4.9462 0-11.723-3.9816-11.723-8.9277v2.0566c0 4.9462 6.7765 8.9277 11.723 8.9277l65.777 8e-3c13.504 0 24.377-10.873 24.377-24.377z" fill-opacity=".17939"/><path transform="scale(.26458)" d="m119.02 79.527c0 13.504-10.873 24.377-24.377 24.377l-65.777-8e-3c-4.9462 0-11.723-3.9816-11.723-8.9277v2.7617c0 4.9462 6.7765 8.9277 11.723 8.9277l65.777 8e-3c13.504 0 24.377-10.873 24.377-24.377z" fill-opacity=".26883"/></g><path d="m18.679 23.139c-0.10857-0.04953-0.30292-0.26852-0.46806-0.52741-0.39031-0.61191-0.39864-0.81937-0.03482-0.86653 0.47628-0.06174 1.204-0.29666 1.7049-0.55037 0.58042-0.29397 0.96503-0.58064 1.34-0.99878 0.54411-0.60676 0.83195-1.3987 0.78996-2.1735-0.03266-0.60262-0.2537-1.1337-0.65869-1.5827-0.30291-0.33582-1.0008-0.75594-1.1306-0.68059-0.0258 0.01497-0.1594 0.25828-0.2969 0.54067-0.63325 1.3006-1.3414 2.2939-2.4689 3.463-0.57256 0.59374-0.54777 0.53374-0.41205 0.99745 0.04628 0.15813 0.09181 0.3597 0.10118 0.44793 0.01534 0.14444 0.0097 0.16944-0.05637 0.25094-0.07911 0.09754-0.46239 0.31537-0.75813 0.43086-0.37422 0.14614-0.51461 0.08264-0.74841-0.33852-0.11824-0.213-0.14208-0.21047-0.56249 0.0598-0.85044 0.54672-1.9931 0.63975-2.8117 0.22893-0.19419-0.09745-0.28324-0.16689-0.49261-0.38411-0.21708-0.22522-0.27491-0.30652-0.384-0.53977-0.17363-0.37126-0.24237-0.67622-0.2613-1.1592-0.04196-1.0707 0.37251-2.1827 1.2042-3.2306 0.57665-0.72658 1.3015-1.3397 2.0981-1.7746 0.19465-0.10627 0.37244-0.22256 0.39509-0.25843 0.04089-0.06474 0.0474-0.13305 0.12797-1.3413 0.0307-0.4603 0.02956-0.50732-0.01325-0.55174-0.05051-0.0524 0.01458-0.04734-1.7802-0.13844-0.93694-0.04756-1.119-0.07034-1.23-0.15395-0.15287-0.11512-0.17124-0.20293-0.16211-0.77493 0.0094-0.58945 0.0266-0.64871 0.2114-0.72882 0.08581-0.0372 0.15533-0.03902 0.46607-0.01219 0.99562 0.08597 2.5126 0.15387 2.6069 0.11668 0.03609-0.01424 0.07841-0.0608 0.09405-0.10347 0.03312-0.09038 0.15193-1.0916 0.19464-1.6403 0.04626-0.5942 0.09711-0.64764 0.61457-0.64582 0.48594 0.0017 0.97026 0.15037 1.1554 0.35465 0.1212 0.13375 0.12031 0.23936-0.0082 0.96389-0.13064 0.73657-0.14845 0.94396-0.0849 0.98847 0.05069 0.03551 0.28416 0.01906 1.0809-0.07616 1.0924-0.13056 2.231-0.33702 3.1385-0.56912 0.63012-0.16115 0.78305-0.13717 0.90181 0.14138 0.12055 0.28275 0.09262 1.0332-0.0497 1.3354-0.11924 0.25326-0.28106 0.32294-1.0563 0.45487-0.78894 0.13427-2.0865 0.24983-3.4421 0.30657-0.83753 0.03505-0.89855 0.0432-0.94906 0.12667-0.03761 0.06215-0.15598 1.0982-0.15544 1.3605 2e-4 0.09873 0.01286 0.14368 0.04393 0.15605 0.024 0.0096 0.23471-0.0067 0.46824-0.03609 0.53427-0.06728 1.622-0.07509 2.0686-0.01486 0.36106 0.04869 0.32884 0.06888 0.53496-0.33523 0.21914-0.42965 0.27767-0.44041 0.84364-0.15521 0.35264 0.1777 0.44496 0.27735 0.4153 0.44827-0.0112 0.06459-0.02196 0.17402-0.0239 0.24318l-0.0035 0.12575 0.32242 0.11001c0.78242 0.26696 1.3838 0.7129 1.8731 1.389 0.54219 0.74921 0.79418 1.5497 0.7911 2.513-0.0033 1.0233-0.29444 1.8387-0.94764 2.6538-0.82997 1.0357-2.0986 1.7915-3.5066 2.0891-0.45411 0.09599-0.50979 0.10003-0.62899 0.04567zm-4.5567-2.8226c0.20582-0.0557 0.72864-0.3301 0.8524-0.44738 0.10304-0.09764 0.10392-0.05523-0.01282-0.61425-0.13178-0.63102-0.23686-1.7252-0.23866-2.4851-7.29e-4 -0.30775-0.01565-0.39499-0.07134-0.41716-0.1259-0.05013-0.99264 0.7866-1.3335 1.2873-0.57073 0.83844-0.73886 1.5869-0.48546 2.1612 0.21722 0.49227 0.68456 0.6791 1.2893 0.51542zm2.7709-2.1618c0.70938-0.75658 1.3642-1.691 1.689-2.41 0.144-0.31881 0.14495-0.38594 0.0059-0.41654-0.15854-0.03489-1.0234-0.02429-1.2929 0.01585-0.47577 0.07084-0.8149 0.15615-0.89112 0.22416-0.07267 0.06484-0.07342 0.06971-0.08337 0.53787-0.01548 0.72824 0.08117 2.2307 0.15104 2.348 0.04207 0.07062 0.13942 0.0015 0.42147-0.29934z" fill="#00001d" fill-opacity=".30645" filter="url(#filter7174)" opacity=".45629" stroke-width=".028474"/><path d="m18.428 22.957c-0.10857-0.04953-0.30292-0.26852-0.46806-0.52741-0.39031-0.61191-0.39864-0.81937-0.03482-0.86653 0.47628-0.06174 1.204-0.29666 1.7049-0.55037 0.58042-0.29397 0.96503-0.58064 1.34-0.99878 0.54411-0.60676 0.83195-1.3987 0.78996-2.1735-0.03266-0.60262-0.2537-1.1337-0.65869-1.5827-0.30291-0.33582-1.0008-0.75594-1.1306-0.68059-0.0258 0.01497-0.1594 0.25828-0.2969 0.54067-0.63325 1.3006-1.3414 2.2939-2.4689 3.463-0.57256 0.59374-0.54777 0.53374-0.41205 0.99745 0.04628 0.15813 0.09181 0.3597 0.10118 0.44793 0.01534 0.14444 0.0097 0.16944-0.05637 0.25094-0.07911 0.09754-0.46239 0.31537-0.75813 0.43086-0.37422 0.14614-0.51461 0.08264-0.74841-0.33852-0.11824-0.213-0.14208-0.21047-0.56249 0.0598-0.85044 0.54672-1.9931 0.63975-2.8117 0.22893-0.19419-0.09745-0.28324-0.16689-0.49261-0.38411-0.21708-0.22522-0.27491-0.30652-0.384-0.53977-0.17363-0.37126-0.24237-0.67622-0.2613-1.1592-0.04196-1.0707 0.37251-2.1827 1.2042-3.2306 0.57665-0.72658 1.3015-1.3397 2.0981-1.7746 0.19465-0.10627 0.37244-0.22256 0.39509-0.25843 0.04089-0.06474 0.0474-0.13305 0.12797-1.3413 0.0307-0.4603 0.02956-0.50732-0.01325-0.55174-0.05051-0.0524 0.01458-0.04734-1.7802-0.13844-0.93694-0.04756-1.119-0.07034-1.23-0.15395-0.15287-0.11512-0.17124-0.20293-0.16211-0.77493 0.0094-0.58945 0.0266-0.64871 0.2114-0.72882 0.08581-0.0372 0.15533-0.03902 0.46607-0.01219 0.99562 0.08597 2.5126 0.15387 2.6069 0.11668 0.03609-0.01424 0.07841-0.0608 0.09405-0.10347 0.03312-0.09038 0.15193-1.0916 0.19464-1.6403 0.04626-0.5942 0.09711-0.64764 0.61457-0.64582 0.48594 0.00174 0.97026 0.15037 1.1554 0.35465 0.1212 0.13375 0.12031 0.23936-0.0082 0.96389-0.13064 0.73657-0.14845 0.94396-0.0849 0.98847 0.05069 0.03551 0.28416 0.01906 1.0809-0.07616 1.0924-0.13056 2.231-0.33702 3.1385-0.56911 0.63012-0.16115 0.78305-0.13717 0.90181 0.14138 0.12055 0.28275 0.09262 1.0332-0.0497 1.3354-0.11924 0.25326-0.28106 0.32294-1.0563 0.45487-0.78894 0.13427-2.0865 0.24983-3.4421 0.30657-0.83753 0.03505-0.89855 0.0432-0.94906 0.12667-0.03761 0.06215-0.15598 1.0982-0.15544 1.3605 2e-4 0.09873 0.01286 0.14368 0.04393 0.15605 0.024 0.0096 0.23471-0.0067 0.46824-0.03609 0.53427-0.06728 1.622-0.07509 2.0686-0.01486 0.36106 0.04869 0.32884 0.06888 0.53496-0.33523 0.21914-0.42965 0.27767-0.44041 0.84364-0.15521 0.35264 0.1777 0.44496 0.27735 0.4153 0.44827-0.0112 0.06459-0.02196 0.17402-0.0239 0.24318l-0.0035 0.12575 0.32242 0.11001c0.78242 0.26696 1.3838 0.7129 1.8731 1.389 0.54219 0.74921 0.79418 1.5497 0.7911 2.513-0.0033 1.0233-0.29444 1.8387-0.94764 2.6538-0.82997 1.0357-2.0986 1.7915-3.5066 2.0891-0.45411 0.09599-0.50979 0.10003-0.62899 0.04567zm-4.5567-2.8226c0.20582-0.0557 0.72864-0.3301 0.8524-0.44738 0.10304-0.09764 0.10392-0.05523-0.01282-0.61425-0.13178-0.63102-0.23686-1.7252-0.23866-2.4851-7.29e-4 -0.30775-0.01565-0.39499-0.07134-0.41716-0.1259-0.05013-0.99264 0.7866-1.3335 1.2873-0.57073 0.83844-0.73886 1.5869-0.48546 2.1612 0.21722 0.49227 0.68456 0.6791 1.2893 0.51542zm2.7709-2.1618c0.70938-0.75658 1.3642-1.691 1.689-2.41 0.144-0.31881 0.14495-0.38594 0.0059-0.41654-0.15854-0.03489-1.0234-0.02429-1.2929 0.01585-0.47577 0.07084-0.8149 0.15615-0.89112 0.22416-0.07267 0.06484-0.07342 0.06971-0.08337 0.53787-0.01548 0.72824 0.08117 2.2307 0.15104 2.348 0.04207 0.07062 0.13942 0.0015 0.42147-0.29934z" fill="url(#linearGradient7160)" stroke-width=".028474"/></svg>
