<svg width="128" height="128" viewBox="0 0 128 128" xmlns="http://www.w3.org/2000/svg">
<linearGradient id="a" x1="64.429" x2="63.703" y1="9.497" y2="114.03" gradientUnits="userSpaceOnUse">
<stop stop-color="#e6b1a7" offset="0"/>
<stop stop-color="#f54457" offset="1"/>
</linearGradient>
<filter id="b" x="-.1911" y="-.2548" width="1.3822" height="1.5096" color-interpolation-filters="sRGB">
<feGaussianBlur stdDeviation="4.9716929"/>
</filter>
<linearGradient id="c" x1="76.023" x2="78.608" y1="141.01" y2="-11.456" gradientUnits="userSpaceOnUse">
<stop stop-color="#e6e6e6" offset="0"/>
<stop stop-color="#f5f5f5" offset="1"/>
</linearGradient>
<circle cx="64.333" cy="64.226" r="60.566" fill="url(#a)" stroke="url(#c)" stroke-width="4.6449"/>
<g transform="translate(-.23514)" stroke-width=".12195">
<path d="m45.056 41.002c-2.1571 0-3.9024 1.7455-3.9024 3.9025v7.8049c-2.1571 0-3.9025 1.7455-3.9025 3.9024-2.1571 0-3.9024 1.7455-3.9024 3.9024v23.415c0 2.1571 1.7455 3.9024 3.9024 3.9024h31.22c2.1571 0 3.9024-1.7455 3.9024-3.9024v-23.415c0-2.1569-1.7454-3.9024-3.9024-3.9024h-15.61c0-2.1571-1.7455-3.9024-3.9024-3.9024v-3.9024h15.61v-7.8049zm23.415 0v7.8049h11.707c2.1571 0 3.902-1.7454 3.902-3.9024 0-2.1571-1.7447-3.9025-3.902-3.9025zm27.317 15.61-11.707 7.8049h-3.902c-2.1571 0-3.9024 1.7455-3.9024 3.9024v7.8049c0 2.1571 1.7455 3.9024 3.9024 3.9024h3.902l11.707 7.8049zm-56.585 23.415h19.512c1.0785 0 1.9512 0.87269 1.9512 1.9512s-0.87269 1.9512-1.9512 1.9512h-19.512c-1.0785 0-1.9512-0.87268-1.9512-1.9512s0.87269-1.9512 1.9512-1.9512z" filter="url(#b)" opacity=".357"/>
<path d="m45.056 41.002c-2.1571 0-3.9024 1.7455-3.9024 3.9025v7.8049c-2.1571 0-3.9025 1.7455-3.9025 3.9024-2.1571 0-3.9024 1.7455-3.9024 3.9024v23.415c0 2.1571 1.7455 3.9024 3.9024 3.9024h31.22c2.1571 0 3.9024-1.7455 3.9024-3.9024v-23.415c0-2.1569-1.7454-3.9024-3.9024-3.9024h-15.61c0-2.1571-1.7455-3.9024-3.9024-3.9024v-3.9024h15.61v-7.8049zm23.415 0v7.8049h11.707c2.1571 0 3.902-1.7454 3.902-3.9024 0-2.1571-1.7447-3.9025-3.902-3.9025zm27.317 15.61-11.707 7.8049h-3.902c-2.1571 0-3.9024 1.7455-3.9024 3.9024v7.8049c0 2.1571 1.7455 3.9024 3.9024 3.9024h3.902l11.707 7.8049zm-56.585 23.415h19.512c1.0785 0 1.9512 0.87269 1.9512 1.9512s-0.87269 1.9512-1.9512 1.9512h-19.512c-1.0785 0-1.9512-0.87268-1.9512-1.9512s0.87269-1.9512 1.9512-1.9512z" fill="#fff"/>
</g>
</svg>
