<svg width="128" height="128" version="1.1" viewBox="0 0 33.867 33.867" xmlns="http://www.w3.org/2000/svg" xmlns:xlink="http://www.w3.org/1999/xlink">
<defs>
<radialGradient id="radialGradient1003" cx="16.933" cy="14.76" r="14.543" gradientTransform="matrix(-1.6731 0 0 -1.7356 45.264 32.022)" gradientUnits="userSpaceOnUse">
<stop stop-color="#08bcfe" offset="0"/>
<stop stop-color="#0d6be6" offset="1"/>
</radialGradient>
</defs>
<g transform="matrix(.97573 0 0 .97573 -65.748 -37.203)" fill="none" opacity=".29677" stroke="#000" stroke-linecap="round" stroke-linejoin="round" stroke-opacity=".02">
<rect x="69.84" y="40.71" width="29.811" height="29.811" rx="6.6099" ry="6.6099" stroke-width=".1"/>
<rect x="69.84" y="40.71" width="29.811" height="29.811" rx="6.6099" ry="6.6099" stroke-width=".2"/>
<rect x="69.84" y="40.71" width="29.811" height="29.811" rx="6.6099" ry="6.6099" stroke-width=".3"/>
<rect x="69.84" y="40.71" width="29.811" height="29.811" rx="6.6099" ry="6.6099" stroke-width=".4"/>
<rect x="69.84" y="40.71" width="29.811" height="29.811" rx="6.6099" ry="6.6099" stroke-width=".5"/>
<rect x="69.84" y="40.71" width="29.811" height="29.811" rx="6.6099" ry="6.6099" stroke-width=".6"/>
<rect x="69.84" y="40.71" width="29.811" height="29.811" rx="6.6099" ry="6.6099" stroke-width=".7"/>
<rect x="69.84" y="40.71" width="29.811" height="29.811" rx="6.6099" ry="6.6099" stroke-width=".8"/>
<rect x="69.84" y="40.71" width="29.811" height="29.811" rx="6.6099" ry="6.6099"/>
<rect x="69.84" y="40.71" width="29.811" height="29.811" rx="6.6099" ry="6.6099" stroke-width="1.2"/>
<rect x="69.84" y="40.71" width="29.811" height="29.811" rx="6.6099" ry="6.6099" stroke-width="1.4"/>
<rect x="69.84" y="40.71" width="29.811" height="29.811" rx="6.6099" ry="6.6099" stroke-width="1.6"/>
<rect x="69.84" y="40.71" width="29.811" height="29.811" rx="6.6099" ry="6.6099" stroke-width="1.8"/>
<rect x="69.84" y="40.71" width="29.811" height="29.811" rx="6.6099" ry="6.6099" stroke-width="2"/>
<rect x="69.84" y="40.71" width="29.811" height="29.811" rx="6.6099" ry="6.6099" stroke-width="2.2"/>
<rect x="69.84" y="40.71" width="29.811" height="29.811" rx="6.6099" ry="6.6099" stroke-width="2.6"/>
<rect x="69.84" y="40.71" width="29.811" height="29.811" rx="6.6099" ry="6.6099" stroke-width="3"/>
<rect x="69.84" y="40.71" width="29.811" height="29.811" rx="6.6099" ry="6.6099" stroke-width="3.4"/>
<rect x="69.84" y="40.71" width="29.811" height="29.811" rx="6.6099" ry="6.6099" stroke-width="3.8"/>
<rect x="69.84" y="40.71" width="29.811" height="29.811" rx="6.6099" ry="6.6099" stroke-width="4.2"/>
<rect x="69.84" y="40.71" width="29.811" height="29.811" rx="6.6099" ry="6.6099" stroke-width="4.6"/>
<rect x="69.84" y="40.71" width="29.811" height="29.811" rx="6.6099" ry="6.6099" stroke-width="5"/>
</g>
<rect x="2.39" y="2.39" width="29.087" height="29.087" rx="6.4489" fill="url(#radialGradient1003)" stroke-width=".99999"/>
<path d="m11.559 8.8735v2.4482h10.609v-2.4482zm-0.01912 3.3455c-0.03502 0.0043-0.07075 0.01326-0.09722 0.03985l-1.2161 1.2097c-0.05094 0.05098-0.05499 0.12797-0.01753 0.18967l1.2894 2.1262c-0.30366 0.4948-0.53659 1.035-0.69493 1.6082l-2.3828 0.49251c-0.072368 0.0148-0.12592 0.08511-0.12592 0.15939v1.7086c0 0.0724 0.055717 0.13471 0.12592 0.15141l2.3111 0.55945c0.14536 0.64487 0.39104 1.25 0.71724 1.8027l-0.50844 0.77303-0.03507-0.0111-0.49091 0.80809-0.3124 0.47338c-0.01295 0.0196-0.01265 0.04324-0.01593 0.06534l-0.0048 8e-3c-0.03758 0.06127-0.02415 0.13869 0.0271 0.18967l1.2066 1.2098c0.05294 0.05185 0.13371 0.0594 0.19605 0.01912l1.1476-0.74912 0.97067-0.58814c0.51908 0.31132 1.0873 0.54911 1.6895 0.69971l0.49091 2.3542c0.01542 0.0725 0.07524 0.12431 0.14982 0.12431h1.8075c0.07459 0 0.13605-0.05177 0.15143-0.12431l0.49091-2.3542c0.60221-0.15061 1.1688-0.38839 1.6879-0.69971l0.97067 0.58814 1.1476 0.74912c0.06235 0.04028 0.1431 0.03272 0.19605-0.01912l1.2082-1.2097c0.05125-0.05098 0.06308-0.1284 0.02551-0.18967l-0.0048-8e-3c-0.0032-0.0221-0.0031-0.04576-0.01595-0.06534l-0.3124-0.47338-0.49091-0.80809-0.03507 0.0111-0.50844-0.77303c0.32621-0.55272 0.57188-1.1578 0.71724-1.8027l2.3111-0.55945c0.07025-0.01669 0.12592-0.079 0.12592-0.15141v-1.7086c0-0.07427-0.05354-0.14453-0.12592-0.15939l-2.3828-0.49251c-0.15831-0.57317-0.39124-1.1134-0.6949-1.6082l1.291-2.1262c0.03744-0.0617 0.03182-0.13869-0.01912-0.18967l-1.2161-1.2097c-0.02648-0.02657-0.06221-0.03556-0.09722-0.03985v0.0015c-0.03459-0.0034-0.06765 1.5e-4 -0.09882 0.02071l-2.1023 1.3723c-0.24412-0.13952-0.43312-0.26436-0.67421-0.37133v1.9844a4.57 4.57 0 0 1 2.1214 3.8476 4.57 4.57 0 0 1-4.5696 4.5696 4.57 4.57 0 0 1-4.5696-4.5696 4.57 4.57 0 0 1 2.1214-3.8524v-1.9796c-0.24109 0.10661-0.4301 0.2302-0.67421 0.36978l-2.1023-1.3707c-0.03117-0.02056-0.06423-0.02415-0.09882-0.02071zm4.0994 3.591v5.3044h2.4482v-5.3044z" opacity=".2" stroke-width=".40803"/>
<path d="m11.541 11.811c-0.03502 0.0043-0.07234 0.01249-0.09882 0.03905l-1.2145 1.2105c-0.05094 0.05098-0.05658 0.12797-0.01912 0.18967l1.291 2.1254c-0.30366 0.4948-0.53659 1.0358-0.69493 1.609l-2.3836 0.4933c-0.072368 0.01481-0.12592 0.08433-0.12592 0.15859v1.7094c0 0.0724 0.055717 0.13391 0.12592 0.15062l2.3111 0.55945c0.14536 0.64487 0.39104 1.2507 0.71724 1.8035l-0.50924 0.77223-0.03427-0.0111-0.49091 0.8073-0.3124 0.47418c-0.01295 0.0196-0.01265 0.04246-0.01593 0.06455l-4e-3 8e-3c-0.03758 0.06127-0.02574 0.14028 0.02551 0.19126l1.2074 1.209c0.05294 0.05185 0.13371 0.05941 0.19605 0.01912l1.1484-0.74992 0.97067-0.58655c0.51908 0.31132 1.0857 0.54911 1.6879 0.69971l0.49091 2.3526c0.01542 0.07253 0.07605 0.12512 0.15062 0.12512h1.8075c0.0746 0 0.13525-0.05257 0.15062-0.12512l0.49091-2.3526c0.60221-0.15061 1.1688-0.38839 1.6879-0.69971l0.97067 0.58654 1.1484 0.74992c0.06235 0.04028 0.1431 0.03272 0.19605-0.01912l1.2074-1.209c0.05125-0.05098 0.06307-0.12999 0.02551-0.19126l-4e-3 -8e-3c-0.0032-0.02208-0.0031-0.04495-0.01593-0.06456l-0.3124-0.47418-0.49091-0.8073-0.03427 0.0111-0.50924-0.77223c0.3262-0.55272 0.57188-1.1586 0.71724-1.8035l2.3111-0.55865c0.07022-0.01672 0.12593-0.079 0.12593-0.15143v-1.7094c0-0.07427-0.05354-0.14373-0.12592-0.15859l-2.3837-0.4933c-0.15834-0.57317-0.39127-1.1142-0.69493-1.609l1.291-2.1254c0.03744-0.0617 0.03182-0.13869-0.01912-0.18967l-1.2145-1.2105c-0.02648-0.02657-0.0638-0.03478-0.09882-0.03905v0.0015c-0.03459-0.0034-0.06685 1.36e-4 -0.09802 0.02073l-2.1015 1.3715c-0.24415-0.1396-0.43373-0.26389-0.67501-0.37057v1.9836a4.57 4.57 0 0 1 2.1214 3.8484 4.57 4.57 0 0 1-4.5696 4.5696 4.57 4.57 0 0 1-4.5696-4.5696 4.57 4.57 0 0 1 2.1214-3.8516v-1.9804c-0.24128 0.10669-0.43086 0.23098-0.675 0.37057l-2.1015-1.3715c-0.03117-0.02056-0.06343-0.02415-0.09802-0.02073z" fill="#fff" stroke-width=".40803"/>
<rect x="15.639" y="9.6896" width="2.4482" height="11.017" fill="#fff" stroke-width=".40803"/>
<rect transform="rotate(90)" x="8.4655" y="-22.168" width="2.4482" height="10.609" fill="#fff" stroke-width=".40803"/>
</svg>
