<svg width="128" height="128" version="1.1" viewBox="0 0 128 128" xmlns="http://www.w3.org/2000/svg" xmlns:xlink="http://www.w3.org/1999/xlink">
<defs>
<linearGradient id="linearGradient825" x1="-741.83" x2="-741.83" y1="959.05" y2="93.836" gradientTransform="matrix(.13668 0 0 .13668 162.31 -5.9893)" gradientUnits="userSpaceOnUse">
<stop stop-color="#0067aa" offset="0"/>
<stop stop-color="#38c9ff" offset="1"/>
</linearGradient>
<linearGradient id="linearGradient835" x1="-722.89" x2="-738.76" y1="875.88" y2="152.13" gradientTransform="matrix(.13668 0 0 .13668 162.31 -5.9893)" gradientUnits="userSpaceOnUse">
<stop stop-color="#2182ea" offset="0"/>
<stop stop-color="#38c9ff" offset="1"/>
</linearGradient>
</defs>
<circle cx="63.592" cy="64.286" r="61.38" fill="url(#linearGradient825)"/>
<circle cx="63.592" cy="64.286" r="55.09" fill="url(#linearGradient835)"/>
<g transform="translate(-677.42 -218.32)">
<path d="m758.31 242.73c-1.3763 1.5868-2.0524 3.5422-2.0524 5.4902 0 1.4442 0.37239 2.8829 1.1034 4.1626-2.1994-1.6331-4.6041-3.0334-7.1878-4.1541-0.51864-0.22512-1.1221 0.0128-1.3471 0.5319-0.22512 0.51879 0.0128 1.1222 0.53189 1.3474 4.913 2.131 9.142 5.3314 12.475 9.2488-1.4202-0.98018-3.0869-1.4822-4.7615-1.4822-1.9423 0-3.892 0.67234-5.4768 2.0412 2.9512 3.4124 8.0526 3.8619 11.551 1.0811 3.0215 4.0228 5.1542 8.6882 6.1965 13.667-1.3805-0.27387-3.0532-0.94914-4.5865-2.5018 0 0-1.3679-1.1542-3.4199-1.5534l-2e-3 8.7e-4c-0.40487-0.0793-0.83605-0.12861-1.288-0.13388-0.2712-3e-3 -0.54986 9e-3 -0.83496 0.0411-2.6614 0.29632-5.8872 2.244-8.7574 8.4068-7e-3 0.0125-0.0128 0.0256-0.0195 0.0393 0 0-6.5154-5.7535-13.402-5.796-4.4652-0.0267-10.991 2.2618-17.763 2.1677-3.6758-0.0525-7.4238-0.80861-10.957-3.0167 0 0-0.3476 2.2377-0.14211 5.5167 0.052 0.87089 0.14683 1.8146 0.29577 2.8076 0.21827 1.4624 0.55716 3.0348 1.0693 4.6449 0.0622 0.1935 0.12702 0.38799 0.19292 0.5818 0.29352 0.85546 0.6352 1.7169 1.0376 2.5797l1e-3 1e-3c0.65082 1.3964 1.4531 2.789 2.4416 4.1316 2.0155 5e-3 4.95-0.17129 6.7293-0.94481 0.11186-0.0486 0.21943-0.0992 0.32194-0.15275 0.19265-0.10088 0.39898-0.14668 0.60127-0.14332 0.44505 7e-3 0.87077 0.25298 1.0906 0.67521 0.32156 0.61336 0.0838 1.3714-0.53037 1.6912-0.14801 0.079-0.30234 0.15141-0.46343 0.22152-1.6335 0.71011-3.8038 0.99922-5.6634 1.1055 1.6e-4 1.5e-4 1.6e-4 4.3e-4 3.1e-4 4.3e-4 1.3184 1.3506 2.8737 2.6129 4.7085 3.7336 1.8149-0.59933 4.0482-1.4482 5.0925-2.2304 0.21208-0.1593 0.45812-0.24123 0.70442-0.25043 0.0352-1e-3 0.0705-1e-3 0.10559 4.4e-4 0.36095 0.0168 0.71174 0.18892 0.94572 0.50055 0.41597 0.554 0.30359 1.3393-0.25073 1.7554-0.65169 0.48936-1.5692 0.96322-2.5539 1.3915-0.33902 0.14738-0.68583 0.28893-1.0315 0.42478-1.0791-0.48991-2.082-1.0222-3.0118-1.5917 0.92994 0.56958 1.9326 1.102 3.0118 1.592 1.3735 0.621 2.8718 1.173 4.5046 1.6358 1.1809 0.33823 2.4314 0.62989 3.7555 0.86934 0.71572 0.13196 1.4533 0.24716 2.2119 0.3478 0 0-0.0154 0.0193-0.0444 0.0575-0.0417 0.0508-0.10957 0.13698-0.20569 0.25165-0.0664 0.0818-0.14891 0.17787-0.24161 0.28755-1.3778 1.6039-5.5554 6.0227-11.239 7.9464-1.2688 0.42922-1.8296 1.9076-1.1709 3.0748 1.5925 2.8239 5.1763 7.1326 12.379 7.6595 1.0318 0.0746 1.9761-0.58916 2.2328-1.5926 0.58392-2.2854 2.181-6.536 6.3946-9.9654 0.29368-0.23899 0.61577-0.43377 0.9579-0.5824 0.54154-0.23541 1.133-0.3558 1.7326-0.35206 6.0419 0.0377 11.474-2.3294 15.462-6.1566 4.8862-4.6885 7.6064-11.57 6.6313-18.91-0.43764-3.2991 0.8538-6.5041 3.2738-8.5851 0.39058 2.4761 0.51443 5.0184 0.34506 7.5886-0.0372 0.56444 0.3904 1.0524 0.95485 1.0896 0.0229 1e-3 0.0457 2e-3 0.0685 2e-3 0.53485 0 0.98536-0.41529 1.0212-0.95667 0.20089-3.0491 0.0127-6.0612-0.52642-8.9792 0.18865-0.0973 0.38044-0.19043 0.57723-0.27599 0.069-0.0299 0.1388-0.0585 0.20844-0.087 0 0-0.31677 0.0659-0.83588 0.0925-0.47857-2.4849-1.2125-4.9-2.1805-7.2085 3.838-1.9111 5.6528-6.4713 4.0647-10.543-3.3131 1.2925-5.3378 4.4586-5.3378 7.8107 0 6e-3 2.9e-4 0.0118 3e-4 0.0176-2.1187-4.0811-4.9988-7.7536-8.5039-10.793 2.6356-3.4866 2.154-8.4665-1.1952-11.375zm-43.016 52.304c-0.58045-0.59271-1.1146-1.2037-1.6069-1.826 0.49228 0.62234 1.0265 1.2333 1.6069 1.826zm44.895-19.284a1.2543 1.2543 0 0 1 1.2543 1.2543 1.2543 1.2543 0 0 1-1.2543 1.2543 1.2543 1.2543 0 0 1-1.2546-1.2543 1.2543 1.2543 0 0 1 1.2546-1.2543zm-52.019 2.0828c0.52829 0.21718 1.1962 0.47009 1.9745 0.72451 2.0311 0.66166 4.8218 1.3249 7.8807 1.3428 0.69064 4e-3 1.25 0.5692 1.2451 1.2625-4e-3 0.5121-0.31234 0.95081-0.75402 1.1429-0.15642 0.0679-0.32698 0.10391-0.50755 0.10406-3.866-0.0245-7.2832-0.95525-9.543-1.7691-0.14894-0.99303-0.24373-1.9368-0.29576-2.8076zm10.547 7.5901v3e-4c0.53505-8e-3 1.0347 0.33022 1.2092 0.86479 0.20269 0.62131-0.10323 1.2852-0.69073 1.5406-0.0352 0.0153-0.0726 0.0297-0.11137 0.0411-2.1911 0.71556-5.6362 0.72317-8.3581 0.57875l-8.8e-4 -2e-3c-0.40242-0.86279-0.7441-1.7243-1.0376-2.5797 2.8108 0.20222 6.586 0.28242 8.6171-0.38157 0.12368-0.0404 0.24897-0.0606 0.37245-0.0624zm14.062 13.665c0.32104 2e-3 0.64099 0.12705 0.88395 0.37336 0.48717 0.49216 0.48215 1.2856-0.0113 1.7737-0.50539 0.49869-1.4238 1.0876-2.3771 1.6298-1.3241-0.23945-2.5746-0.53111-3.7555-0.86934 1.5403-0.74812 3.7334-1.9166 4.3702-2.5454 0.24679-0.24405 0.56871-0.36433 0.88974-0.3621z" fill="#fff" stroke-width=".15579"/>
</g>
</svg>
