<svg width="128" height="128" version="1.1" viewBox="0 0 128 128" xmlns="http://www.w3.org/2000/svg" xmlns:xlink="http://www.w3.org/1999/xlink">
<defs>
<linearGradient id="linearGradient825" x1="-741.83" x2="-741.83" y1="959.05" y2="93.836" gradientTransform="matrix(.13668 0 0 .13668 162.31 -5.9893)" gradientUnits="userSpaceOnUse">
<stop stop-color="#20a0c6" offset="0"/>
<stop stop-color="#a9e7c0" offset="1"/>
</linearGradient>
<linearGradient id="linearGradient835" x1="-738.76" x2="-738.76" y1="931.43" y2="152.13" gradientTransform="matrix(.13668 0 0 .13668 162.31 -5.9893)" gradientUnits="userSpaceOnUse">
<stop stop-color="#24b1df" offset="0"/>
<stop stop-color="#8fe0ad" offset="1"/>
</linearGradient>
</defs>
<circle cx="63.592" cy="64.286" r="61.38" fill="url(#linearGradient825)"/>
<circle cx="63.592" cy="64.286" r="55.09" fill="url(#linearGradient835)"/>
<g transform="translate(176.42)" fill="none" opacity=".724" stroke="#000" stroke-opacity=".011765">
<path d="m-118.33 97.047c-10.556-2.2472-19.1-10.474-21.514-20.716-3.3475-14.201 4.8102-28.729 18.588-33.103 4.7539-1.509 12.13-1.509 16.884 0 16.411 5.2091 24.166 24.295 16.119 39.668-2.2657 4.3285-7.6462 9.592-11.955 11.695-3.384 1.6516-10.155 3.3632-12.978 3.2808-0.80663-0.0236-3.1211-0.39503-5.1434-0.82552zm27.738-27.732c0.59716-0.59716 0.66108-1.3085 0.29498-3.2828-1.9547-10.541-8.3826-17.063-18.767-19.041-1.914-0.36453-2.4519-0.27358-3.2801 0.55459-0.92811 0.92811-0.96921 1.6455-0.65123 11.367 0.21554 6.5899 0.54997 10.517 0.91645 10.762 0.31738 0.21225 5.1102 0.38952 10.651 0.39394 8.112 0.0066 10.222-0.1404 10.836-0.75431zm-1.5122-22.915c-0.54324-0.60028-2.3637-1.9407-4.0455-2.9788-2.2785-1.4064-3.018-2.152-2.9018-2.9256 0.35316-2.3495 1.644-2.2005 5.9789 0.69025 5.3857 3.5914 5.184 3.3513 4.1455 4.9363-1.0839 1.6543-1.8692 1.7229-3.177 0.27785zm-26.488-9.094c0-0.90188-0.37037-1.3491-1.3131-1.5858-1.0828-0.27178-1.3131-0.64697-1.3131-2.1395 0-1.2518 0.31327-1.9776 1.016-2.3536 1.3214-0.7072 13.455-0.7072 14.776 0 0.7027 0.37607 1.016 1.1018 1.016 2.3536 0 1.4925-0.23027 1.8677-1.3131 2.1395-0.94276 0.23663-1.3131 0.68388-1.3131 1.5858 0 1.2486-0.0348 1.2562-5.7778 1.2562-5.7429 0-5.7778-0.0077-5.7778-1.2562z" stroke-width=".1"/>
<path d="m-118.33 97.047c-10.556-2.2472-19.1-10.474-21.514-20.716-3.3475-14.201 4.8102-28.729 18.588-33.103 4.7539-1.509 12.13-1.509 16.884 0 16.411 5.2091 24.166 24.295 16.119 39.668-2.2657 4.3285-7.6462 9.592-11.955 11.695-3.384 1.6516-10.155 3.3632-12.978 3.2808-0.80663-0.0236-3.1211-0.39503-5.1434-0.82552zm27.738-27.732c0.59716-0.59716 0.66108-1.3085 0.29498-3.2828-1.9547-10.541-8.3826-17.063-18.767-19.041-1.914-0.36453-2.4519-0.27358-3.2801 0.55459-0.92811 0.92811-0.96921 1.6455-0.65123 11.367 0.21554 6.5899 0.54997 10.517 0.91645 10.762 0.31738 0.21225 5.1102 0.38952 10.651 0.39394 8.112 0.0066 10.222-0.1404 10.836-0.75431zm-1.5122-22.915c-0.54324-0.60028-2.3637-1.9407-4.0455-2.9788-2.2785-1.4064-3.018-2.152-2.9018-2.9256 0.35316-2.3495 1.644-2.2005 5.9789 0.69025 5.3857 3.5914 5.184 3.3513 4.1455 4.9363-1.0839 1.6543-1.8692 1.7229-3.177 0.27785zm-26.488-9.094c0-0.90188-0.37037-1.3491-1.3131-1.5858-1.0828-0.27178-1.3131-0.64697-1.3131-2.1395 0-1.2518 0.31327-1.9776 1.016-2.3536 1.3214-0.7072 13.455-0.7072 14.776 0 0.7027 0.37607 1.016 1.1018 1.016 2.3536 0 1.4925-0.23027 1.8677-1.3131 2.1395-0.94276 0.23663-1.3131 0.68388-1.3131 1.5858 0 1.2486-0.0348 1.2562-5.7778 1.2562-5.7429 0-5.7778-0.0077-5.7778-1.2562z" stroke-width=".2"/>
<path d="m-118.33 97.047c-10.556-2.2472-19.1-10.474-21.514-20.716-3.3475-14.201 4.8102-28.729 18.588-33.103 4.7539-1.509 12.13-1.509 16.884 0 16.411 5.2091 24.166 24.295 16.119 39.668-2.2657 4.3285-7.6462 9.592-11.955 11.695-3.384 1.6516-10.155 3.3632-12.978 3.2808-0.80663-0.0236-3.1211-0.39503-5.1434-0.82552zm27.738-27.732c0.59716-0.59716 0.66108-1.3085 0.29498-3.2828-1.9547-10.541-8.3826-17.063-18.767-19.041-1.914-0.36453-2.4519-0.27358-3.2801 0.55459-0.92811 0.92811-0.96921 1.6455-0.65123 11.367 0.21554 6.5899 0.54997 10.517 0.91645 10.762 0.31738 0.21225 5.1102 0.38952 10.651 0.39394 8.112 0.0066 10.222-0.1404 10.836-0.75431zm-1.5122-22.915c-0.54324-0.60028-2.3637-1.9407-4.0455-2.9788-2.2785-1.4064-3.018-2.152-2.9018-2.9256 0.35316-2.3495 1.644-2.2005 5.9789 0.69025 5.3857 3.5914 5.184 3.3513 4.1455 4.9363-1.0839 1.6543-1.8692 1.7229-3.177 0.27785zm-26.488-9.094c0-0.90188-0.37037-1.3491-1.3131-1.5858-1.0828-0.27178-1.3131-0.64697-1.3131-2.1395 0-1.2518 0.31327-1.9776 1.016-2.3536 1.3214-0.7072 13.455-0.7072 14.776 0 0.7027 0.37607 1.016 1.1018 1.016 2.3536 0 1.4925-0.23027 1.8677-1.3131 2.1395-0.94276 0.23663-1.3131 0.68388-1.3131 1.5858 0 1.2486-0.0348 1.2562-5.7778 1.2562-5.7429 0-5.7778-0.0077-5.7778-1.2562z" stroke-width=".3"/>
<path d="m-118.33 97.047c-10.556-2.2472-19.1-10.474-21.514-20.716-3.3475-14.201 4.8102-28.729 18.588-33.103 4.7539-1.509 12.13-1.509 16.884 0 16.411 5.2091 24.166 24.295 16.119 39.668-2.2657 4.3285-7.6462 9.592-11.955 11.695-3.384 1.6516-10.155 3.3632-12.978 3.2808-0.80663-0.0236-3.1211-0.39503-5.1434-0.82552zm27.738-27.732c0.59716-0.59716 0.66108-1.3085 0.29498-3.2828-1.9547-10.541-8.3826-17.063-18.767-19.041-1.914-0.36453-2.4519-0.27358-3.2801 0.55459-0.92811 0.92811-0.96921 1.6455-0.65123 11.367 0.21554 6.5899 0.54997 10.517 0.91645 10.762 0.31738 0.21225 5.1102 0.38952 10.651 0.39394 8.112 0.0066 10.222-0.1404 10.836-0.75431zm-1.5122-22.915c-0.54324-0.60028-2.3637-1.9407-4.0455-2.9788-2.2785-1.4064-3.018-2.152-2.9018-2.9256 0.35316-2.3495 1.644-2.2005 5.9789 0.69025 5.3857 3.5914 5.184 3.3513 4.1455 4.9363-1.0839 1.6543-1.8692 1.7229-3.177 0.27785zm-26.488-9.094c0-0.90188-0.37037-1.3491-1.3131-1.5858-1.0828-0.27178-1.3131-0.64697-1.3131-2.1395 0-1.2518 0.31327-1.9776 1.016-2.3536 1.3214-0.7072 13.455-0.7072 14.776 0 0.7027 0.37607 1.016 1.1018 1.016 2.3536 0 1.4925-0.23027 1.8677-1.3131 2.1395-0.94276 0.23663-1.3131 0.68388-1.3131 1.5858 0 1.2486-0.0348 1.2562-5.7778 1.2562-5.7429 0-5.7778-0.0077-5.7778-1.2562z" stroke-width=".4"/>
<path d="m-118.33 97.047c-10.556-2.2472-19.1-10.474-21.514-20.716-3.3475-14.201 4.8102-28.729 18.588-33.103 4.7539-1.509 12.13-1.509 16.884 0 16.411 5.2091 24.166 24.295 16.119 39.668-2.2657 4.3285-7.6462 9.592-11.955 11.695-3.384 1.6516-10.155 3.3632-12.978 3.2808-0.80663-0.0236-3.1211-0.39503-5.1434-0.82552zm27.738-27.732c0.59716-0.59716 0.66108-1.3085 0.29498-3.2828-1.9547-10.541-8.3826-17.063-18.767-19.041-1.914-0.36453-2.4519-0.27358-3.2801 0.55459-0.92811 0.92811-0.96921 1.6455-0.65123 11.367 0.21554 6.5899 0.54997 10.517 0.91645 10.762 0.31738 0.21225 5.1102 0.38952 10.651 0.39394 8.112 0.0066 10.222-0.1404 10.836-0.75431zm-1.5122-22.915c-0.54324-0.60028-2.3637-1.9407-4.0455-2.9788-2.2785-1.4064-3.018-2.152-2.9018-2.9256 0.35316-2.3495 1.644-2.2005 5.9789 0.69025 5.3857 3.5914 5.184 3.3513 4.1455 4.9363-1.0839 1.6543-1.8692 1.7229-3.177 0.27785zm-26.488-9.094c0-0.90188-0.37037-1.3491-1.3131-1.5858-1.0828-0.27178-1.3131-0.64697-1.3131-2.1395 0-1.2518 0.31327-1.9776 1.016-2.3536 1.3214-0.7072 13.455-0.7072 14.776 0 0.7027 0.37607 1.016 1.1018 1.016 2.3536 0 1.4925-0.23027 1.8677-1.3131 2.1395-0.94276 0.23663-1.3131 0.68388-1.3131 1.5858 0 1.2486-0.0348 1.2562-5.7778 1.2562-5.7429 0-5.7778-0.0077-5.7778-1.2562z" stroke-width=".5"/>
<path d="m-118.33 97.047c-10.556-2.2472-19.1-10.474-21.514-20.716-3.3475-14.201 4.8102-28.729 18.588-33.103 4.7539-1.509 12.13-1.509 16.884 0 16.411 5.2091 24.166 24.295 16.119 39.668-2.2657 4.3285-7.6462 9.592-11.955 11.695-3.384 1.6516-10.155 3.3632-12.978 3.2808-0.80663-0.0236-3.1211-0.39503-5.1434-0.82552zm27.738-27.732c0.59716-0.59716 0.66108-1.3085 0.29498-3.2828-1.9547-10.541-8.3826-17.063-18.767-19.041-1.914-0.36453-2.4519-0.27358-3.2801 0.55459-0.92811 0.92811-0.96921 1.6455-0.65123 11.367 0.21554 6.5899 0.54997 10.517 0.91645 10.762 0.31738 0.21225 5.1102 0.38952 10.651 0.39394 8.112 0.0066 10.222-0.1404 10.836-0.75431zm-1.5122-22.915c-0.54324-0.60028-2.3637-1.9407-4.0455-2.9788-2.2785-1.4064-3.018-2.152-2.9018-2.9256 0.35316-2.3495 1.644-2.2005 5.9789 0.69025 5.3857 3.5914 5.184 3.3513 4.1455 4.9363-1.0839 1.6543-1.8692 1.7229-3.177 0.27785zm-26.488-9.094c0-0.90188-0.37037-1.3491-1.3131-1.5858-1.0828-0.27178-1.3131-0.64697-1.3131-2.1395 0-1.2518 0.31327-1.9776 1.016-2.3536 1.3214-0.7072 13.455-0.7072 14.776 0 0.7027 0.37607 1.016 1.1018 1.016 2.3536 0 1.4925-0.23027 1.8677-1.3131 2.1395-0.94276 0.23663-1.3131 0.68388-1.3131 1.5858 0 1.2486-0.0348 1.2562-5.7778 1.2562-5.7429 0-5.7778-0.0077-5.7778-1.2562z" stroke-width=".6"/>
<path d="m-118.33 97.047c-10.556-2.2472-19.1-10.474-21.514-20.716-3.3475-14.201 4.8102-28.729 18.588-33.103 4.7539-1.509 12.13-1.509 16.884 0 16.411 5.2091 24.166 24.295 16.119 39.668-2.2657 4.3285-7.6462 9.592-11.955 11.695-3.384 1.6516-10.155 3.3632-12.978 3.2808-0.80663-0.0236-3.1211-0.39503-5.1434-0.82552zm27.738-27.732c0.59716-0.59716 0.66108-1.3085 0.29498-3.2828-1.9547-10.541-8.3826-17.063-18.767-19.041-1.914-0.36453-2.4519-0.27358-3.2801 0.55459-0.92811 0.92811-0.96921 1.6455-0.65123 11.367 0.21554 6.5899 0.54997 10.517 0.91645 10.762 0.31738 0.21225 5.1102 0.38952 10.651 0.39394 8.112 0.0066 10.222-0.1404 10.836-0.75431zm-1.5122-22.915c-0.54324-0.60028-2.3637-1.9407-4.0455-2.9788-2.2785-1.4064-3.018-2.152-2.9018-2.9256 0.35316-2.3495 1.644-2.2005 5.9789 0.69025 5.3857 3.5914 5.184 3.3513 4.1455 4.9363-1.0839 1.6543-1.8692 1.7229-3.177 0.27785zm-26.488-9.094c0-0.90188-0.37037-1.3491-1.3131-1.5858-1.0828-0.27178-1.3131-0.64697-1.3131-2.1395 0-1.2518 0.31327-1.9776 1.016-2.3536 1.3214-0.7072 13.455-0.7072 14.776 0 0.7027 0.37607 1.016 1.1018 1.016 2.3536 0 1.4925-0.23027 1.8677-1.3131 2.1395-0.94276 0.23663-1.3131 0.68388-1.3131 1.5858 0 1.2486-0.0348 1.2562-5.7778 1.2562-5.7429 0-5.7778-0.0077-5.7778-1.2562z" stroke-width=".7"/>
<path d="m-118.33 97.047c-10.556-2.2472-19.1-10.474-21.514-20.716-3.3475-14.201 4.8102-28.729 18.588-33.103 4.7539-1.509 12.13-1.509 16.884 0 16.411 5.2091 24.166 24.295 16.119 39.668-2.2657 4.3285-7.6462 9.592-11.955 11.695-3.384 1.6516-10.155 3.3632-12.978 3.2808-0.80663-0.0236-3.1211-0.39503-5.1434-0.82552zm27.738-27.732c0.59716-0.59716 0.66108-1.3085 0.29498-3.2828-1.9547-10.541-8.3826-17.063-18.767-19.041-1.914-0.36453-2.4519-0.27358-3.2801 0.55459-0.92811 0.92811-0.96921 1.6455-0.65123 11.367 0.21554 6.5899 0.54997 10.517 0.91645 10.762 0.31738 0.21225 5.1102 0.38952 10.651 0.39394 8.112 0.0066 10.222-0.1404 10.836-0.75431zm-1.5122-22.915c-0.54324-0.60028-2.3637-1.9407-4.0455-2.9788-2.2785-1.4064-3.018-2.152-2.9018-2.9256 0.35316-2.3495 1.644-2.2005 5.9789 0.69025 5.3857 3.5914 5.184 3.3513 4.1455 4.9363-1.0839 1.6543-1.8692 1.7229-3.177 0.27785zm-26.488-9.094c0-0.90188-0.37037-1.3491-1.3131-1.5858-1.0828-0.27178-1.3131-0.64697-1.3131-2.1395 0-1.2518 0.31327-1.9776 1.016-2.3536 1.3214-0.7072 13.455-0.7072 14.776 0 0.7027 0.37607 1.016 1.1018 1.016 2.3536 0 1.4925-0.23027 1.8677-1.3131 2.1395-0.94276 0.23663-1.3131 0.68388-1.3131 1.5858 0 1.2486-0.0348 1.2562-5.7778 1.2562-5.7429 0-5.7778-0.0077-5.7778-1.2562z" stroke-width=".8"/>
<path d="m-118.33 97.047c-10.556-2.2472-19.1-10.474-21.514-20.716-3.3475-14.201 4.8102-28.729 18.588-33.103 4.7539-1.509 12.13-1.509 16.884 0 16.411 5.2091 24.166 24.295 16.119 39.668-2.2657 4.3285-7.6462 9.592-11.955 11.695-3.384 1.6516-10.155 3.3632-12.978 3.2808-0.80663-0.0236-3.1211-0.39503-5.1434-0.82552zm27.738-27.732c0.59716-0.59716 0.66108-1.3085 0.29498-3.2828-1.9547-10.541-8.3826-17.063-18.767-19.041-1.914-0.36453-2.4519-0.27358-3.2801 0.55459-0.92811 0.92811-0.96921 1.6455-0.65123 11.367 0.21554 6.5899 0.54997 10.517 0.91645 10.762 0.31738 0.21225 5.1102 0.38952 10.651 0.39394 8.112 0.0066 10.222-0.1404 10.836-0.75431zm-1.5122-22.915c-0.54324-0.60028-2.3637-1.9407-4.0455-2.9788-2.2785-1.4064-3.018-2.152-2.9018-2.9256 0.35316-2.3495 1.644-2.2005 5.9789 0.69025 5.3857 3.5914 5.184 3.3513 4.1455 4.9363-1.0839 1.6543-1.8692 1.7229-3.177 0.27785zm-26.488-9.094c0-0.90188-0.37037-1.3491-1.3131-1.5858-1.0828-0.27178-1.3131-0.64697-1.3131-2.1395 0-1.2518 0.31327-1.9776 1.016-2.3536 1.3214-0.7072 13.455-0.7072 14.776 0 0.7027 0.37607 1.016 1.1018 1.016 2.3536 0 1.4925-0.23027 1.8677-1.3131 2.1395-0.94276 0.23663-1.3131 0.68388-1.3131 1.5858 0 1.2486-0.0348 1.2562-5.7778 1.2562-5.7429 0-5.7778-0.0077-5.7778-1.2562z" stroke-width=".9"/>
<path d="m-118.33 97.047c-10.556-2.2472-19.1-10.474-21.514-20.716-3.3475-14.201 4.8102-28.729 18.588-33.103 4.7539-1.509 12.13-1.509 16.884 0 16.411 5.2091 24.166 24.295 16.119 39.668-2.2657 4.3285-7.6462 9.592-11.955 11.695-3.384 1.6516-10.155 3.3632-12.978 3.2808-0.80663-0.0236-3.1211-0.39503-5.1434-0.82552zm27.738-27.732c0.59716-0.59716 0.66108-1.3085 0.29498-3.2828-1.9547-10.541-8.3826-17.063-18.767-19.041-1.914-0.36453-2.4519-0.27358-3.2801 0.55459-0.92811 0.92811-0.96921 1.6455-0.65123 11.367 0.21554 6.5899 0.54997 10.517 0.91645 10.762 0.31738 0.21225 5.1102 0.38952 10.651 0.39394 8.112 0.0066 10.222-0.1404 10.836-0.75431zm-1.5122-22.915c-0.54324-0.60028-2.3637-1.9407-4.0455-2.9788-2.2785-1.4064-3.018-2.152-2.9018-2.9256 0.35316-2.3495 1.644-2.2005 5.9789 0.69025 5.3857 3.5914 5.184 3.3513 4.1455 4.9363-1.0839 1.6543-1.8692 1.7229-3.177 0.27785zm-26.488-9.094c0-0.90188-0.37037-1.3491-1.3131-1.5858-1.0828-0.27178-1.3131-0.64697-1.3131-2.1395 0-1.2518 0.31327-1.9776 1.016-2.3536 1.3214-0.7072 13.455-0.7072 14.776 0 0.7027 0.37607 1.016 1.1018 1.016 2.3536 0 1.4925-0.23027 1.8677-1.3131 2.1395-0.94276 0.23663-1.3131 0.68388-1.3131 1.5858 0 1.2486-0.0348 1.2562-5.7778 1.2562-5.7429 0-5.7778-0.0077-5.7778-1.2562z"/>
<path d="m-118.33 97.047c-10.556-2.2472-19.1-10.474-21.514-20.716-3.3475-14.201 4.8102-28.729 18.588-33.103 4.7539-1.509 12.13-1.509 16.884 0 16.411 5.2091 24.166 24.295 16.119 39.668-2.2657 4.3285-7.6462 9.592-11.955 11.695-3.384 1.6516-10.155 3.3632-12.978 3.2808-0.80663-0.0236-3.1211-0.39503-5.1434-0.82552zm27.738-27.732c0.59716-0.59716 0.66108-1.3085 0.29498-3.2828-1.9547-10.541-8.3826-17.063-18.767-19.041-1.914-0.36453-2.4519-0.27358-3.2801 0.55459-0.92811 0.92811-0.96921 1.6455-0.65123 11.367 0.21554 6.5899 0.54997 10.517 0.91645 10.762 0.31738 0.21225 5.1102 0.38952 10.651 0.39394 8.112 0.0066 10.222-0.1404 10.836-0.75431zm-1.5122-22.915c-0.54324-0.60028-2.3637-1.9407-4.0455-2.9788-2.2785-1.4064-3.018-2.152-2.9018-2.9256 0.35316-2.3495 1.644-2.2005 5.9789 0.69025 5.3857 3.5914 5.184 3.3513 4.1455 4.9363-1.0839 1.6543-1.8692 1.7229-3.177 0.27785zm-26.488-9.094c0-0.90188-0.37037-1.3491-1.3131-1.5858-1.0828-0.27178-1.3131-0.64697-1.3131-2.1395 0-1.2518 0.31327-1.9776 1.016-2.3536 1.3214-0.7072 13.455-0.7072 14.776 0 0.7027 0.37607 1.016 1.1018 1.016 2.3536 0 1.4925-0.23027 1.8677-1.3131 2.1395-0.94276 0.23663-1.3131 0.68388-1.3131 1.5858 0 1.2486-0.0348 1.2562-5.7778 1.2562-5.7429 0-5.7778-0.0077-5.7778-1.2562z" stroke-width="1.1"/>
<path d="m-118.33 97.047c-10.556-2.2472-19.1-10.474-21.514-20.716-3.3475-14.201 4.8102-28.729 18.588-33.103 4.7539-1.509 12.13-1.509 16.884 0 16.411 5.2091 24.166 24.295 16.119 39.668-2.2657 4.3285-7.6462 9.592-11.955 11.695-3.384 1.6516-10.155 3.3632-12.978 3.2808-0.80663-0.0236-3.1211-0.39503-5.1434-0.82552zm27.738-27.732c0.59716-0.59716 0.66108-1.3085 0.29498-3.2828-1.9547-10.541-8.3826-17.063-18.767-19.041-1.914-0.36453-2.4519-0.27358-3.2801 0.55459-0.92811 0.92811-0.96921 1.6455-0.65123 11.367 0.21554 6.5899 0.54997 10.517 0.91645 10.762 0.31738 0.21225 5.1102 0.38952 10.651 0.39394 8.112 0.0066 10.222-0.1404 10.836-0.75431zm-1.5122-22.915c-0.54324-0.60028-2.3637-1.9407-4.0455-2.9788-2.2785-1.4064-3.018-2.152-2.9018-2.9256 0.35316-2.3495 1.644-2.2005 5.9789 0.69025 5.3857 3.5914 5.184 3.3513 4.1455 4.9363-1.0839 1.6543-1.8692 1.7229-3.177 0.27785zm-26.488-9.094c0-0.90188-0.37037-1.3491-1.3131-1.5858-1.0828-0.27178-1.3131-0.64697-1.3131-2.1395 0-1.2518 0.31327-1.9776 1.016-2.3536 1.3214-0.7072 13.455-0.7072 14.776 0 0.7027 0.37607 1.016 1.1018 1.016 2.3536 0 1.4925-0.23027 1.8677-1.3131 2.1395-0.94276 0.23663-1.3131 0.68388-1.3131 1.5858 0 1.2486-0.0348 1.2562-5.7778 1.2562-5.7429 0-5.7778-0.0077-5.7778-1.2562z" stroke-width="1.2"/>
<path d="m-118.33 97.047c-10.556-2.2472-19.1-10.474-21.514-20.716-3.3475-14.201 4.8102-28.729 18.588-33.103 4.7539-1.509 12.13-1.509 16.884 0 16.411 5.2091 24.166 24.295 16.119 39.668-2.2657 4.3285-7.6462 9.592-11.955 11.695-3.384 1.6516-10.155 3.3632-12.978 3.2808-0.80663-0.0236-3.1211-0.39503-5.1434-0.82552zm27.738-27.732c0.59716-0.59716 0.66108-1.3085 0.29498-3.2828-1.9547-10.541-8.3826-17.063-18.767-19.041-1.914-0.36453-2.4519-0.27358-3.2801 0.55459-0.92811 0.92811-0.96921 1.6455-0.65123 11.367 0.21554 6.5899 0.54997 10.517 0.91645 10.762 0.31738 0.21225 5.1102 0.38952 10.651 0.39394 8.112 0.0066 10.222-0.1404 10.836-0.75431zm-1.5122-22.915c-0.54324-0.60028-2.3637-1.9407-4.0455-2.9788-2.2785-1.4064-3.018-2.152-2.9018-2.9256 0.35316-2.3495 1.644-2.2005 5.9789 0.69025 5.3857 3.5914 5.184 3.3513 4.1455 4.9363-1.0839 1.6543-1.8692 1.7229-3.177 0.27785zm-26.488-9.094c0-0.90188-0.37037-1.3491-1.3131-1.5858-1.0828-0.27178-1.3131-0.64697-1.3131-2.1395 0-1.2518 0.31327-1.9776 1.016-2.3536 1.3214-0.7072 13.455-0.7072 14.776 0 0.7027 0.37607 1.016 1.1018 1.016 2.3536 0 1.4925-0.23027 1.8677-1.3131 2.1395-0.94276 0.23663-1.3131 0.68388-1.3131 1.5858 0 1.2486-0.0348 1.2562-5.7778 1.2562-5.7429 0-5.7778-0.0077-5.7778-1.2562z" stroke-width="1.4"/>
<path d="m-118.33 97.047c-10.556-2.2472-19.1-10.474-21.514-20.716-3.3475-14.201 4.8102-28.729 18.588-33.103 4.7539-1.509 12.13-1.509 16.884 0 16.411 5.2091 24.166 24.295 16.119 39.668-2.2657 4.3285-7.6462 9.592-11.955 11.695-3.384 1.6516-10.155 3.3632-12.978 3.2808-0.80663-0.0236-3.1211-0.39503-5.1434-0.82552zm27.738-27.732c0.59716-0.59716 0.66108-1.3085 0.29498-3.2828-1.9547-10.541-8.3826-17.063-18.767-19.041-1.914-0.36453-2.4519-0.27358-3.2801 0.55459-0.92811 0.92811-0.96921 1.6455-0.65123 11.367 0.21554 6.5899 0.54997 10.517 0.91645 10.762 0.31738 0.21225 5.1102 0.38952 10.651 0.39394 8.112 0.0066 10.222-0.1404 10.836-0.75431zm-1.5122-22.915c-0.54324-0.60028-2.3637-1.9407-4.0455-2.9788-2.2785-1.4064-3.018-2.152-2.9018-2.9256 0.35316-2.3495 1.644-2.2005 5.9789 0.69025 5.3857 3.5914 5.184 3.3513 4.1455 4.9363-1.0839 1.6543-1.8692 1.7229-3.177 0.27785zm-26.488-9.094c0-0.90188-0.37037-1.3491-1.3131-1.5858-1.0828-0.27178-1.3131-0.64697-1.3131-2.1395 0-1.2518 0.31327-1.9776 1.016-2.3536 1.3214-0.7072 13.455-0.7072 14.776 0 0.7027 0.37607 1.016 1.1018 1.016 2.3536 0 1.4925-0.23027 1.8677-1.3131 2.1395-0.94276 0.23663-1.3131 0.68388-1.3131 1.5858 0 1.2486-0.0348 1.2562-5.7778 1.2562-5.7429 0-5.7778-0.0077-5.7778-1.2562z" stroke-width="1.6"/>
<path d="m-118.33 97.047c-10.556-2.2472-19.1-10.474-21.514-20.716-3.3475-14.201 4.8102-28.729 18.588-33.103 4.7539-1.509 12.13-1.509 16.884 0 16.411 5.2091 24.166 24.295 16.119 39.668-2.2657 4.3285-7.6462 9.592-11.955 11.695-3.384 1.6516-10.155 3.3632-12.978 3.2808-0.80663-0.0236-3.1211-0.39503-5.1434-0.82552zm27.738-27.732c0.59716-0.59716 0.66108-1.3085 0.29498-3.2828-1.9547-10.541-8.3826-17.063-18.767-19.041-1.914-0.36453-2.4519-0.27358-3.2801 0.55459-0.92811 0.92811-0.96921 1.6455-0.65123 11.367 0.21554 6.5899 0.54997 10.517 0.91645 10.762 0.31738 0.21225 5.1102 0.38952 10.651 0.39394 8.112 0.0066 10.222-0.1404 10.836-0.75431zm-1.5122-22.915c-0.54324-0.60028-2.3637-1.9407-4.0455-2.9788-2.2785-1.4064-3.018-2.152-2.9018-2.9256 0.35316-2.3495 1.644-2.2005 5.9789 0.69025 5.3857 3.5914 5.184 3.3513 4.1455 4.9363-1.0839 1.6543-1.8692 1.7229-3.177 0.27785zm-26.488-9.094c0-0.90188-0.37037-1.3491-1.3131-1.5858-1.0828-0.27178-1.3131-0.64697-1.3131-2.1395 0-1.2518 0.31327-1.9776 1.016-2.3536 1.3214-0.7072 13.455-0.7072 14.776 0 0.7027 0.37607 1.016 1.1018 1.016 2.3536 0 1.4925-0.23027 1.8677-1.3131 2.1395-0.94276 0.23663-1.3131 0.68388-1.3131 1.5858 0 1.2486-0.0348 1.2562-5.7778 1.2562-5.7429 0-5.7778-0.0077-5.7778-1.2562z" stroke-width="1.8"/>
<path d="m-118.33 97.047c-10.556-2.2472-19.1-10.474-21.514-20.716-3.3475-14.201 4.8102-28.729 18.588-33.103 4.7539-1.509 12.13-1.509 16.884 0 16.411 5.2091 24.166 24.295 16.119 39.668-2.2657 4.3285-7.6462 9.592-11.955 11.695-3.384 1.6516-10.155 3.3632-12.978 3.2808-0.80663-0.0236-3.1211-0.39503-5.1434-0.82552zm27.738-27.732c0.59716-0.59716 0.66108-1.3085 0.29498-3.2828-1.9547-10.541-8.3826-17.063-18.767-19.041-1.914-0.36453-2.4519-0.27358-3.2801 0.55459-0.92811 0.92811-0.96921 1.6455-0.65123 11.367 0.21554 6.5899 0.54997 10.517 0.91645 10.762 0.31738 0.21225 5.1102 0.38952 10.651 0.39394 8.112 0.0066 10.222-0.1404 10.836-0.75431zm-1.5122-22.915c-0.54324-0.60028-2.3637-1.9407-4.0455-2.9788-2.2785-1.4064-3.018-2.152-2.9018-2.9256 0.35316-2.3495 1.644-2.2005 5.9789 0.69025 5.3857 3.5914 5.184 3.3513 4.1455 4.9363-1.0839 1.6543-1.8692 1.7229-3.177 0.27785zm-26.488-9.094c0-0.90188-0.37037-1.3491-1.3131-1.5858-1.0828-0.27178-1.3131-0.64697-1.3131-2.1395 0-1.2518 0.31327-1.9776 1.016-2.3536 1.3214-0.7072 13.455-0.7072 14.776 0 0.7027 0.37607 1.016 1.1018 1.016 2.3536 0 1.4925-0.23027 1.8677-1.3131 2.1395-0.94276 0.23663-1.3131 0.68388-1.3131 1.5858 0 1.2486-0.0348 1.2562-5.7778 1.2562-5.7429 0-5.7778-0.0077-5.7778-1.2562z" stroke-width="2"/>
<path d="m-118.33 97.047c-10.556-2.2472-19.1-10.474-21.514-20.716-3.3475-14.201 4.8102-28.729 18.588-33.103 4.7539-1.509 12.13-1.509 16.884 0 16.411 5.2091 24.166 24.295 16.119 39.668-2.2657 4.3285-7.6462 9.592-11.955 11.695-3.384 1.6516-10.155 3.3632-12.978 3.2808-0.80663-0.0236-3.1211-0.39503-5.1434-0.82552zm27.738-27.732c0.59716-0.59716 0.66108-1.3085 0.29498-3.2828-1.9547-10.541-8.3826-17.063-18.767-19.041-1.914-0.36453-2.4519-0.27358-3.2801 0.55459-0.92811 0.92811-0.96921 1.6455-0.65123 11.367 0.21554 6.5899 0.54997 10.517 0.91645 10.762 0.31738 0.21225 5.1102 0.38952 10.651 0.39394 8.112 0.0066 10.222-0.1404 10.836-0.75431zm-1.5122-22.915c-0.54324-0.60028-2.3637-1.9407-4.0455-2.9788-2.2785-1.4064-3.018-2.152-2.9018-2.9256 0.35316-2.3495 1.644-2.2005 5.9789 0.69025 5.3857 3.5914 5.184 3.3513 4.1455 4.9363-1.0839 1.6543-1.8692 1.7229-3.177 0.27785zm-26.488-9.094c0-0.90188-0.37037-1.3491-1.3131-1.5858-1.0828-0.27178-1.3131-0.64697-1.3131-2.1395 0-1.2518 0.31327-1.9776 1.016-2.3536 1.3214-0.7072 13.455-0.7072 14.776 0 0.7027 0.37607 1.016 1.1018 1.016 2.3536 0 1.4925-0.23027 1.8677-1.3131 2.1395-0.94276 0.23663-1.3131 0.68388-1.3131 1.5858 0 1.2486-0.0348 1.2562-5.7778 1.2562-5.7429 0-5.7778-0.0077-5.7778-1.2562z" stroke-width="2.2"/>
<path d="m-118.33 97.047c-10.556-2.2472-19.1-10.474-21.514-20.716-3.3475-14.201 4.8102-28.729 18.588-33.103 4.7539-1.509 12.13-1.509 16.884 0 16.411 5.2091 24.166 24.295 16.119 39.668-2.2657 4.3285-7.6462 9.592-11.955 11.695-3.384 1.6516-10.155 3.3632-12.978 3.2808-0.80663-0.0236-3.1211-0.39503-5.1434-0.82552zm27.738-27.732c0.59716-0.59716 0.66108-1.3085 0.29498-3.2828-1.9547-10.541-8.3826-17.063-18.767-19.041-1.914-0.36453-2.4519-0.27358-3.2801 0.55459-0.92811 0.92811-0.96921 1.6455-0.65123 11.367 0.21554 6.5899 0.54997 10.517 0.91645 10.762 0.31738 0.21225 5.1102 0.38952 10.651 0.39394 8.112 0.0066 10.222-0.1404 10.836-0.75431zm-1.5122-22.915c-0.54324-0.60028-2.3637-1.9407-4.0455-2.9788-2.2785-1.4064-3.018-2.152-2.9018-2.9256 0.35316-2.3495 1.644-2.2005 5.9789 0.69025 5.3857 3.5914 5.184 3.3513 4.1455 4.9363-1.0839 1.6543-1.8692 1.7229-3.177 0.27785zm-26.488-9.094c0-0.90188-0.37037-1.3491-1.3131-1.5858-1.0828-0.27178-1.3131-0.64697-1.3131-2.1395 0-1.2518 0.31327-1.9776 1.016-2.3536 1.3214-0.7072 13.455-0.7072 14.776 0 0.7027 0.37607 1.016 1.1018 1.016 2.3536 0 1.4925-0.23027 1.8677-1.3131 2.1395-0.94276 0.23663-1.3131 0.68388-1.3131 1.5858 0 1.2486-0.0348 1.2562-5.7778 1.2562-5.7429 0-5.7778-0.0077-5.7778-1.2562z" stroke-width="2.4"/>
<path d="m-118.33 97.047c-10.556-2.2472-19.1-10.474-21.514-20.716-3.3475-14.201 4.8102-28.729 18.588-33.103 4.7539-1.509 12.13-1.509 16.884 0 16.411 5.2091 24.166 24.295 16.119 39.668-2.2657 4.3285-7.6462 9.592-11.955 11.695-3.384 1.6516-10.155 3.3632-12.978 3.2808-0.80663-0.0236-3.1211-0.39503-5.1434-0.82552zm27.738-27.732c0.59716-0.59716 0.66108-1.3085 0.29498-3.2828-1.9547-10.541-8.3826-17.063-18.767-19.041-1.914-0.36453-2.4519-0.27358-3.2801 0.55459-0.92811 0.92811-0.96921 1.6455-0.65123 11.367 0.21554 6.5899 0.54997 10.517 0.91645 10.762 0.31738 0.21225 5.1102 0.38952 10.651 0.39394 8.112 0.0066 10.222-0.1404 10.836-0.75431zm-1.5122-22.915c-0.54324-0.60028-2.3637-1.9407-4.0455-2.9788-2.2785-1.4064-3.018-2.152-2.9018-2.9256 0.35316-2.3495 1.644-2.2005 5.9789 0.69025 5.3857 3.5914 5.184 3.3513 4.1455 4.9363-1.0839 1.6543-1.8692 1.7229-3.177 0.27785zm-26.488-9.094c0-0.90188-0.37037-1.3491-1.3131-1.5858-1.0828-0.27178-1.3131-0.64697-1.3131-2.1395 0-1.2518 0.31327-1.9776 1.016-2.3536 1.3214-0.7072 13.455-0.7072 14.776 0 0.7027 0.37607 1.016 1.1018 1.016 2.3536 0 1.4925-0.23027 1.8677-1.3131 2.1395-0.94276 0.23663-1.3131 0.68388-1.3131 1.5858 0 1.2486-0.0348 1.2562-5.7778 1.2562-5.7429 0-5.7778-0.0077-5.7778-1.2562z" stroke-width="2.6"/>
<path d="m-118.33 97.047c-10.556-2.2472-19.1-10.474-21.514-20.716-3.3475-14.201 4.8102-28.729 18.588-33.103 4.7539-1.509 12.13-1.509 16.884 0 16.411 5.2091 24.166 24.295 16.119 39.668-2.2657 4.3285-7.6462 9.592-11.955 11.695-3.384 1.6516-10.155 3.3632-12.978 3.2808-0.80663-0.0236-3.1211-0.39503-5.1434-0.82552zm27.738-27.732c0.59716-0.59716 0.66108-1.3085 0.29498-3.2828-1.9547-10.541-8.3826-17.063-18.767-19.041-1.914-0.36453-2.4519-0.27358-3.2801 0.55459-0.92811 0.92811-0.96921 1.6455-0.65123 11.367 0.21554 6.5899 0.54997 10.517 0.91645 10.762 0.31738 0.21225 5.1102 0.38952 10.651 0.39394 8.112 0.0066 10.222-0.1404 10.836-0.75431zm-1.5122-22.915c-0.54324-0.60028-2.3637-1.9407-4.0455-2.9788-2.2785-1.4064-3.018-2.152-2.9018-2.9256 0.35316-2.3495 1.644-2.2005 5.9789 0.69025 5.3857 3.5914 5.184 3.3513 4.1455 4.9363-1.0839 1.6543-1.8692 1.7229-3.177 0.27785zm-26.488-9.094c0-0.90188-0.37037-1.3491-1.3131-1.5858-1.0828-0.27178-1.3131-0.64697-1.3131-2.1395 0-1.2518 0.31327-1.9776 1.016-2.3536 1.3214-0.7072 13.455-0.7072 14.776 0 0.7027 0.37607 1.016 1.1018 1.016 2.3536 0 1.4925-0.23027 1.8677-1.3131 2.1395-0.94276 0.23663-1.3131 0.68388-1.3131 1.5858 0 1.2486-0.0348 1.2562-5.7778 1.2562-5.7429 0-5.7778-0.0077-5.7778-1.2562z" stroke-width="3"/>
<path d="m-118.33 97.047c-10.556-2.2472-19.1-10.474-21.514-20.716-3.3475-14.201 4.8102-28.729 18.588-33.103 4.7539-1.509 12.13-1.509 16.884 0 16.411 5.2091 24.166 24.295 16.119 39.668-2.2657 4.3285-7.6462 9.592-11.955 11.695-3.384 1.6516-10.155 3.3632-12.978 3.2808-0.80663-0.0236-3.1211-0.39503-5.1434-0.82552zm27.738-27.732c0.59716-0.59716 0.66108-1.3085 0.29498-3.2828-1.9547-10.541-8.3826-17.063-18.767-19.041-1.914-0.36453-2.4519-0.27358-3.2801 0.55459-0.92811 0.92811-0.96921 1.6455-0.65123 11.367 0.21554 6.5899 0.54997 10.517 0.91645 10.762 0.31738 0.21225 5.1102 0.38952 10.651 0.39394 8.112 0.0066 10.222-0.1404 10.836-0.75431zm-1.5122-22.915c-0.54324-0.60028-2.3637-1.9407-4.0455-2.9788-2.2785-1.4064-3.018-2.152-2.9018-2.9256 0.35316-2.3495 1.644-2.2005 5.9789 0.69025 5.3857 3.5914 5.184 3.3513 4.1455 4.9363-1.0839 1.6543-1.8692 1.7229-3.177 0.27785zm-26.488-9.094c0-0.90188-0.37037-1.3491-1.3131-1.5858-1.0828-0.27178-1.3131-0.64697-1.3131-2.1395 0-1.2518 0.31327-1.9776 1.016-2.3536 1.3214-0.7072 13.455-0.7072 14.776 0 0.7027 0.37607 1.016 1.1018 1.016 2.3536 0 1.4925-0.23027 1.8677-1.3131 2.1395-0.94276 0.23663-1.3131 0.68388-1.3131 1.5858 0 1.2486-0.0348 1.2562-5.7778 1.2562-5.7429 0-5.7778-0.0077-5.7778-1.2562z" stroke-width="3.4"/>
<path d="m-118.33 97.047c-10.556-2.2472-19.1-10.474-21.514-20.716-3.3475-14.201 4.8102-28.729 18.588-33.103 4.7539-1.509 12.13-1.509 16.884 0 16.411 5.2091 24.166 24.295 16.119 39.668-2.2657 4.3285-7.6462 9.592-11.955 11.695-3.384 1.6516-10.155 3.3632-12.978 3.2808-0.80663-0.0236-3.1211-0.39503-5.1434-0.82552zm27.738-27.732c0.59716-0.59716 0.66108-1.3085 0.29498-3.2828-1.9547-10.541-8.3826-17.063-18.767-19.041-1.914-0.36453-2.4519-0.27358-3.2801 0.55459-0.92811 0.92811-0.96921 1.6455-0.65123 11.367 0.21554 6.5899 0.54997 10.517 0.91645 10.762 0.31738 0.21225 5.1102 0.38952 10.651 0.39394 8.112 0.0066 10.222-0.1404 10.836-0.75431zm-1.5122-22.915c-0.54324-0.60028-2.3637-1.9407-4.0455-2.9788-2.2785-1.4064-3.018-2.152-2.9018-2.9256 0.35316-2.3495 1.644-2.2005 5.9789 0.69025 5.3857 3.5914 5.184 3.3513 4.1455 4.9363-1.0839 1.6543-1.8692 1.7229-3.177 0.27785zm-26.488-9.094c0-0.90188-0.37037-1.3491-1.3131-1.5858-1.0828-0.27178-1.3131-0.64697-1.3131-2.1395 0-1.2518 0.31327-1.9776 1.016-2.3536 1.3214-0.7072 13.455-0.7072 14.776 0 0.7027 0.37607 1.016 1.1018 1.016 2.3536 0 1.4925-0.23027 1.8677-1.3131 2.1395-0.94276 0.23663-1.3131 0.68388-1.3131 1.5858 0 1.2486-0.0348 1.2562-5.7778 1.2562-5.7429 0-5.7778-0.0077-5.7778-1.2562z" stroke-width="3.8"/>
<path d="m-118.33 97.047c-10.556-2.2472-19.1-10.474-21.514-20.716-3.3475-14.201 4.8102-28.729 18.588-33.103 4.7539-1.509 12.13-1.509 16.884 0 16.411 5.2091 24.166 24.295 16.119 39.668-2.2657 4.3285-7.6462 9.592-11.955 11.695-3.384 1.6516-10.155 3.3632-12.978 3.2808-0.80663-0.0236-3.1211-0.39503-5.1434-0.82552zm27.738-27.732c0.59716-0.59716 0.66108-1.3085 0.29498-3.2828-1.9547-10.541-8.3826-17.063-18.767-19.041-1.914-0.36453-2.4519-0.27358-3.2801 0.55459-0.92811 0.92811-0.96921 1.6455-0.65123 11.367 0.21554 6.5899 0.54997 10.517 0.91645 10.762 0.31738 0.21225 5.1102 0.38952 10.651 0.39394 8.112 0.0066 10.222-0.1404 10.836-0.75431zm-1.5122-22.915c-0.54324-0.60028-2.3637-1.9407-4.0455-2.9788-2.2785-1.4064-3.018-2.152-2.9018-2.9256 0.35316-2.3495 1.644-2.2005 5.9789 0.69025 5.3857 3.5914 5.184 3.3513 4.1455 4.9363-1.0839 1.6543-1.8692 1.7229-3.177 0.27785zm-26.488-9.094c0-0.90188-0.37037-1.3491-1.3131-1.5858-1.0828-0.27178-1.3131-0.64697-1.3131-2.1395 0-1.2518 0.31327-1.9776 1.016-2.3536 1.3214-0.7072 13.455-0.7072 14.776 0 0.7027 0.37607 1.016 1.1018 1.016 2.3536 0 1.4925-0.23027 1.8677-1.3131 2.1395-0.94276 0.23663-1.3131 0.68388-1.3131 1.5858 0 1.2486-0.0348 1.2562-5.7778 1.2562-5.7429 0-5.7778-0.0077-5.7778-1.2562z" stroke-width="4.2"/>
<path d="m-118.33 97.047c-10.556-2.2472-19.1-10.474-21.514-20.716-3.3475-14.201 4.8102-28.729 18.588-33.103 4.7539-1.509 12.13-1.509 16.884 0 16.411 5.2091 24.166 24.295 16.119 39.668-2.2657 4.3285-7.6462 9.592-11.955 11.695-3.384 1.6516-10.155 3.3632-12.978 3.2808-0.80663-0.0236-3.1211-0.39503-5.1434-0.82552zm27.738-27.732c0.59716-0.59716 0.66108-1.3085 0.29498-3.2828-1.9547-10.541-8.3826-17.063-18.767-19.041-1.914-0.36453-2.4519-0.27358-3.2801 0.55459-0.92811 0.92811-0.96921 1.6455-0.65123 11.367 0.21554 6.5899 0.54997 10.517 0.91645 10.762 0.31738 0.21225 5.1102 0.38952 10.651 0.39394 8.112 0.0066 10.222-0.1404 10.836-0.75431zm-1.5122-22.915c-0.54324-0.60028-2.3637-1.9407-4.0455-2.9788-2.2785-1.4064-3.018-2.152-2.9018-2.9256 0.35316-2.3495 1.644-2.2005 5.9789 0.69025 5.3857 3.5914 5.184 3.3513 4.1455 4.9363-1.0839 1.6543-1.8692 1.7229-3.177 0.27785zm-26.488-9.094c0-0.90188-0.37037-1.3491-1.3131-1.5858-1.0828-0.27178-1.3131-0.64697-1.3131-2.1395 0-1.2518 0.31327-1.9776 1.016-2.3536 1.3214-0.7072 13.455-0.7072 14.776 0 0.7027 0.37607 1.016 1.1018 1.016 2.3536 0 1.4925-0.23027 1.8677-1.3131 2.1395-0.94276 0.23663-1.3131 0.68388-1.3131 1.5858 0 1.2486-0.0348 1.2562-5.7778 1.2562-5.7429 0-5.7778-0.0077-5.7778-1.2562z" stroke-width="5"/>
</g>
<path d="m58.084 97.047c-10.556-2.2472-19.1-10.474-21.514-20.716-3.3475-14.201 4.8102-28.729 18.588-33.103 4.7539-1.509 12.13-1.509 16.884 0 16.411 5.2091 24.166 24.295 16.119 39.668-2.2657 4.3285-7.6462 9.592-11.955 11.695-3.384 1.6516-10.155 3.3632-12.978 3.2808-0.80662-0.0236-3.1211-0.39503-5.1433-0.82552zm27.738-27.732c0.59716-0.59716 0.66108-1.3085 0.29498-3.2828-1.9547-10.541-8.3826-17.063-18.767-19.041-1.914-0.36453-2.4519-0.27358-3.2801 0.55459-0.92811 0.92811-0.96921 1.6455-0.65123 11.367 0.21554 6.5899 0.54998 10.517 0.91645 10.762 0.31738 0.21225 5.1102 0.38952 10.651 0.39394 8.112 0.0066 10.222-0.1404 10.836-0.75431zm-1.5122-22.915c-0.54324-0.60028-2.3637-1.9407-4.0455-2.9788-2.2785-1.4064-3.018-2.152-2.9018-2.9256 0.35316-2.3495 1.644-2.2005 5.9789 0.69025 5.3857 3.5914 5.184 3.3513 4.1455 4.9363-1.0839 1.6543-1.8692 1.7229-3.177 0.27785zm-26.488-9.094c0-0.90188-0.37037-1.3491-1.3131-1.5858-1.0829-0.27178-1.3131-0.64697-1.3131-2.1395 0-1.2518 0.31327-1.9776 1.016-2.3536 1.3214-0.7072 13.455-0.7072 14.776 0 0.7027 0.37607 1.016 1.1018 1.016 2.3536 0 1.4925-0.23027 1.8677-1.3131 2.1395-0.94276 0.23663-1.3131 0.68388-1.3131 1.5858 0 1.2486-0.03482 1.2562-5.7778 1.2562-5.7429 0-5.7778-0.0077-5.7778-1.2562z" fill="#fff" stroke-width=".52525"/>
</svg>
