<svg width="64" height="64" version="1.1" viewBox="0 0 16.933 16.933" xmlns="http://www.w3.org/2000/svg">
<path d="m8.4928 0.58a7.9729 7.9729 0 0 0-7.9732 7.9726 7.9729 7.9729 0 0 0 7.9732 7.9732 7.9729 7.9729 0 0 0 7.9726-7.9732 7.9729 7.9729 0 0 0-7.9726-7.9726zm-0.011369 1.404a0.75007 0.75007 0 0 1 0.76171 0.75965v5.01a0.75008 0.75008 0 0 1-1.5002 0v-5.01a0.75007 0.75007 0 0 1 0.73846-0.75965zm-3.4396 2.5332a0.75007 0.75007 0 0 1 0.54519 1.2888c-0.74428 0.74427-1.203 1.7659-1.203 2.9047-2e-7 2.2778 1.8316 4.1072 4.1093 4.1072s4.1072-1.8295 4.1072-4.1072c0-1.1389-0.45875-2.1605-1.203-2.9047a0.75061 0.75061 0 0 1 1.0604-1.0625c1.014 1.014 1.6428 2.423 1.6428 3.9672 0 3.0884-2.519 5.6074-5.6074 5.6074s-5.6095-2.519-5.6095-5.6074c0-1.5442 0.62877-2.9532 1.6428-3.9672a0.75007 0.75007 0 0 1 0.51521-0.22634z" fill="#25282d" fill-opacity=".6114" stroke-width=".28484"/>
</svg>
