<svg width="128" height="128" viewBox="0 0 128 128" xmlns="http://www.w3.org/2000/svg">
<linearGradient id="a" x1="66.016" x2="64.334" y1="119.35" y2="1.3385" gradientUnits="userSpaceOnUse">
<stop stop-color="#cccdd1" offset="0"/>
<stop stop-color="#f7f9f9" offset="1"/>
</linearGradient>
<linearGradient id="b" x1="63.869" x2="63.703" y1="22.084" y2="114.03" gradientUnits="userSpaceOnUse" spreadMethod="reflect">
<stop stop-color="#74e899" offset="0"/>
<stop stop-color="#37b9ea" offset="1"/>
</linearGradient>
<circle cx="64.333" cy="64.226" r="60.566" fill="url(#b)" stroke="#cccdd1" stroke-width="4.6449"/>
<path d="m64.334 1.3385c-34.705 0-62.888 28.182-62.888 62.887 0 34.705 28.184 62.888 62.888 62.888 34.705 0 62.887-28.184 62.887-62.888 0-34.705-28.182-62.887-62.887-62.887zm0 4.6449c32.194 0 58.242 26.048 58.242 58.242 0 32.194-26.048 58.243-58.242 58.243-32.194 0-58.243-26.049-58.243-58.243 0-32.194 26.049-58.242 58.243-58.242z" fill="url(#a)"/>
<path d="m60.924 31.271c-1.2591 0-2.1798 1.0171-2.2728 2.2728l-0.39063 5.2958a26.137 26.137 0 0 0-12.878 7.4309l-4.7808-2.3083c-1.0904-0.62956-2.4733-0.25589-3.1029 0.83454l-3.4092 5.9039c-0.62956 1.0904-0.21084 2.3989 0.8301 3.1073l4.3724 2.9741a26.137 26.137 0 0 0-1.0964 7.4442 26.137 26.137 0 0 0 1.1009 7.4398l-4.3769 2.9786c-1.0904 0.62956-1.4597 2.0169-0.8301 3.1073l3.4092 5.9039c0.62956 1.0904 1.9689 1.3818 3.1029 0.83454l4.7675-2.2994a26.137 26.137 0 0 0 12.891 7.4265l0.39063 5.2913c0 1.2591 1.0137 2.2728 2.2728 2.2728h6.8183c1.2591 0 2.1798-1.0171 2.2728-2.2728l0.39064-5.2957a26.137 26.137 0 0 0 12.878-7.4309l4.7808 2.3083c1.0904 0.62956 2.4733 0.25589 3.1029-0.83454l3.4092-5.9039c0.62956-1.0904 0.21084-2.3989-0.8301-3.1073l-4.3724-2.9741a26.137 26.137 0 0 0 1.0964-7.4442 26.137 26.137 0 0 0-1.1009-7.4398l4.3769-2.9786c1.0904-0.62956 1.4597-2.0169 0.8301-3.1073l-3.4092-5.9039c-0.62956-1.0904-1.9689-1.3818-3.1029-0.83454l-4.7675 2.2994a26.137 26.137 0 0 0-12.891-7.4265l-0.39064-5.2913c0-1.2591-1.0137-2.2728-2.2728-2.2728zm-12.86 21.911h4.3236v8.9801h1.3939l4.3103-8.9801h5.2913l-6.0193 10.09 6.5209 11.999h-5.2469l-4.368-9.1799h-1.8821v9.1799h-4.3236zm15.701 0h4.5367l3.6533 16.447 0.16868 0.84785h0.08877l0.16868-0.80346 3.6844-16.491h4.5367l-6.1747 22.089h-4.4878z" fill="#fff"/>
</svg>
