<svg width="136.53" height="136.53" version="1.1" viewBox="0 0 136.53 136.53" xmlns="http://www.w3.org/2000/svg" xmlns:xlink="http://www.w3.org/1999/xlink">
<defs>
<linearGradient id="linearGradient859" x1="73.909" x2="79.909" y1="8.694" y2="137.96" gradientUnits="userSpaceOnUse">
<stop stop-color="#f1f1f1" offset="0"/>
<stop stop-color="#d9dad9" offset="1"/>
</linearGradient>
<linearGradient id="linearGradient867" x1="68.113" x2="68.113" y1="119.15" y2="8.7812" gradientUnits="userSpaceOnUse">
<stop stop-color="#29010a" offset="0"/>
<stop stop-color="#4a0b19" offset="1"/>
</linearGradient>
</defs>
<filter x="-.069933" y="-.054406" width="1.1399" height="1.1088" color-interpolation-filters="sRGB">
<feGaussianBlur stdDeviation="1.9764485"/>
</filter>
<path d="m68.113 2.2168c-36.979 0-67.021 30.042-67.021 67.021 0 36.979 30.042 67.021 67.021 67.021 36.979 0 67.021-30.042 67.021-67.021 0-36.979-30.042-67.021-67.021-67.021z" color="#000000" color-rendering="auto" dominant-baseline="auto" fill="url(#linearGradient859)" image-rendering="auto" shape-rendering="auto" solid-color="#000000" style="font-feature-settings:normal;font-variant-alternates:normal;font-variant-caps:normal;font-variant-ligatures:normal;font-variant-numeric:normal;font-variant-position:normal;isolation:auto;mix-blend-mode:normal;shape-padding:0;text-decoration-color:#000000;text-decoration-line:none;text-decoration-style:solid;text-indent:0;text-orientation:mixed;text-transform:none;white-space:normal"/>
<path d="m68.113 8.7812c-33.39-2.971e-4 -60.457 27.067-60.457 60.457-2.96e-4 33.39 27.067 60.457 60.457 60.457 33.39 3e-4 60.457-27.067 60.457-60.457 3e-4 -33.39-27.067-60.457-60.457-60.457z" fill="url(#linearGradient867)" style="paint-order:fill markers stroke"/>
<path d="m49.93 91.704c-1.475-0.19857-4.0988-1.0523-5.8489-1.8948-11.403-5.4632-16.066-19.223-10.45-30.813 6.4162-13.252 23.923-16.631 34.458-6.6488 3.0464 2.8819 4.3995 5.3412 8.9861 16.245 4.7881 11.403 5.6731 13.196 7.2246 14.716 1.6622 1.6168 3.2024 2.1614 6.1496 2.1614 4.842 0 8.2997-2.9925 8.2997-7.1679 0-3.5343-1.2424-4.6661-7.5792-6.9155-9.6499-3.4804-12.776-6.6261-12.787-12.943 0-3.3698 0.8538-5.6163 3.0237-7.9451 3.1145-3.3244 8.4869-4.4222 13.241-2.7713 2.0281 0.72047 6.2716 4.476 6.2716 5.5511 0 0.52192-2.4593 2.1161-3.8236 2.4933-0.72048 0.18723-1.3417-0.05675-2.1728-0.85379-1.6849-1.6168-2.8252-2.1161-4.842-2.1161-3.4804 0-5.639 2.0934-5.639 5.4745 0 3.3698 1.3729 4.5101 8.2316 6.8247 9.4513 3.1911 12.242 6.073 12.299 12.742 0.0567 5.761-2.5387 9.9165-7.7012 12.376-2.3486 1.1091-3.1457 1.2509-6.9807 1.2509-5.4745-0.01126-7.9338-1.0183-11.003-4.476-2.0622-2.326-4.1555-6.6914-10.858-22.627-2.7798-6.6034-6.3482-9.8399-12.299-11.114-3.0152-0.6439-7.2133-0.04539-9.9506 1.3956-2.6692 1.3956-5.6504 4.5441-7.0573 7.4232-1.163 2.3373-1.2736 2.9925-1.2736 7.0573 0 3.8775 0.156 4.7966 1.1289 6.924 1.475 3.2478 4.3768 6.2489 7.5679 7.8657 2.3061 1.163 3.0237 1.3076 6.7027 1.3076 3.5343 0 4.442-0.16733 6.5496-1.1743 2.4054-1.1743 5.639-4.0562 6.958-6.2148l0.68644-1.1204 1.353 3.0918c0.75452 1.7076 1.3615 3.3131 1.3615 3.6024 0 0.85379-3.0578 3.6449-5.8603 5.3837-4.2548 2.6266-9.1421 3.6109-14.361 2.9018" fill="#fff" stroke-width=".66628"/>
</svg>
