<svg width="128" height="128" version="1.1" viewBox="0 0 33.867 33.867" xmlns="http://www.w3.org/2000/svg" xmlns:xlink="http://www.w3.org/1999/xlink">
<defs>
<linearGradient id="linearGradient897" x1="2686" x2="2686" y1="1088.8" y2="1770.4" gradientTransform="matrix(.042779 0 0 .042779 -95.919 -44.867)" gradientUnits="userSpaceOnUse">
<stop stop-color="#39bdfc" offset="0"/>
<stop stop-color="#4900e9" offset="1"/>
</linearGradient>
<radialGradient id="radialGradient898" cx="60.636" cy="20.456" r="17.304" gradientTransform="translate(-43.433 -3.9449)" gradientUnits="userSpaceOnUse">
<stop stop-color="#0b0b0b" offset="0"/>
<stop stop-color="#0b0b0b" stop-opacity=".85882" offset=".68076"/>
<stop stop-color="#0b0b0b" stop-opacity=".83137" offset=".69925"/>
<stop stop-color="#0b0b0b" stop-opacity=".80392" offset=".71879"/>
<stop stop-color="#0b0b0b" stop-opacity=".78039" offset=".73593"/>
<stop stop-color="#0b0b0b" stop-opacity=".75686" offset=".75022"/>
<stop stop-color="#0b0b0b" stop-opacity=".73333" offset=".76799"/>
<stop stop-color="#0b0b0b" stop-opacity=".082353" offset=".91501"/>
<stop stop-color="#0b0b0b" stop-opacity=".070588" offset=".92247"/>
<stop stop-color="#0b0b0b" stop-opacity=".058824" offset=".92919"/>
<stop stop-color="#0b0b0b" stop-opacity=".047059" offset=".93841"/>
<stop stop-color="#0b0b0b" stop-opacity=".031373" offset=".94761"/>
<stop stop-color="#0b0b0b" stop-opacity=".023529" offset=".95381"/>
<stop stop-color="#0b0b0b" stop-opacity=".015686" offset=".95886"/>
<stop stop-color="#0b0b0b" stop-opacity=".011765" offset=".96356"/>
<stop stop-color="#0b0b0b" stop-opacity=".0078431" offset=".96845"/>
<stop stop-color="#0b0b0b" stop-opacity=".0039216" offset=".97348"/>
<stop stop-color="#0b0b0b" stop-opacity="0" offset=".97812"/>
<stop stop-color="#0b0b0b" stop-opacity="0" offset=".98456"/>
<stop stop-color="#0b0b0b" stop-opacity="0" offset=".98701"/>
<stop stop-color="#0b0b0b" stop-opacity="0" offset=".98925"/>
<stop stop-color="#0b0b0b" stop-opacity="0" offset="1"/>
</radialGradient>
<radialGradient id="radialGradient993" cx="17.489" cy="3.9765" r="13.696" gradientTransform="matrix(2.0752 0 0 1.5421 -18.496 -.93385)" gradientUnits="userSpaceOnUse">
<stop stop-color="#3898fc" offset="0"/>
<stop stop-color="#4538f8" offset="1"/>
</radialGradient>
</defs>
<circle cx="17.203" cy="16.512" r="17.304" fill="url(#radialGradient898)" opacity=".30973" stroke-linecap="square" stroke-linejoin="round" stroke-width="3"/>
<circle cx="17.203" cy="16.512" r="15.118" fill="url(#linearGradient897)" stroke="#b1aaaa" stroke-linecap="square" stroke-opacity=".99216" stroke-width=".057556"/>
<circle cx="17.203" cy="16.512" r="13.102" fill="url(#radialGradient993)"/>
<path d="m17.223 8.0849c-0.10922 0-0.08866 0.42572 0.02573 0.52246 0.12879 0.10892 0.31835 0.48906 0.37404 0.75203l0.04354 0.20582-0.35425 0.07519c-0.84439 0.17862-1.008 0.76083-0.46309 1.6426 0.19131 0.30962 0.19167 0.31842 0.15435 0.98951-0.02797 0.50327-0.01282 0.75829 0.05739 0.99941 0.10909 0.3743 0.41367 0.71826 0.73224 0.82723 0.35234 0.12052 1.3088 0.06367 1.6644-0.09896 0.38899-0.17793 0.89588-0.70599 1.037-1.0825 0.16621-0.44344 0.10286-1.055-0.16228-1.5892-0.25489-0.51354-0.9195-1.2121-1.3814-1.4506-0.24419-0.12608-0.35954-0.23349-0.44132-0.41362-0.11677-0.25717-1.163-1.3794-1.2864-1.3794zm-6.0538 2.0265c-0.01455-0.0013-0.02738 0.0036-0.03958 0.01589-0.1264 0.1268-0.22927 0.79318-0.21769 1.415 0.01091 0.58848-0.0042 0.71023-0.12071 0.90639-0.387 0.65177-0.45265 1.8458-0.13854 2.5233 0.27773 0.59903 0.7375 0.96486 1.4388 1.1399 0.48953 0.1222 0.82001 0.10505 1.2804-0.06332 1.2688-0.46398 1.4882-1.3686 0.57788-2.3887-0.36911-0.41362-0.54027-0.75096-0.54027-1.0568 0-0.37225-0.13658-0.73639-0.36612-0.9816-0.20664-0.22074-0.21826-0.22303-0.6135-0.18802-0.22158 0.01964-0.48279 0.05488-0.57985 0.07916-0.16115 0.04033-0.18658 0.01857-0.30279-0.23946-0.07001-0.15541-0.12778-0.41668-0.12864-0.58183-0.0012-0.25508-0.1475-0.57064-0.24936-0.57986zm12.876 1.0152c-0.15964-0.03159-0.20898 0.33875-0.08115 0.60756 0.059 0.124 0.09813 0.33414 0.08709 0.46705l-0.0198 0.24144-0.34039 0.0059c-0.26399 5e-3 -0.39116 0.04741-0.5759 0.18802-0.21621 0.16454-0.54664 0.72228-0.54819 0.92618-3.45e-4 0.04508-0.20148 0.48353-0.44726 0.97368-0.24578 0.49016-0.46689 0.9895-0.49278 1.1083-0.13881 0.63686 0.24633 1.1128 1.1676 1.4447 0.38903 0.14013 0.79583 0.1512 1.2369 0.03364 0.71682-0.19106 1.1777-0.55259 1.4566-1.1439 0.14704-0.31193 0.16723-0.43847 0.16426-1.0054-0.0038-0.73479-0.14279-1.1986-0.5185-1.7277-0.11728-0.16506-0.26079-0.48701-0.31862-0.71436-0.11837-0.46535-0.61698-1.3748-0.76984-1.4051zm-16.551 5.0663c-0.016467-0.0038-0.028665-0.0017-0.037607 0.0078-0.13233 0.14214 0.066789 1.5215 0.26717 1.8504 0.049192 0.08075 0.11855 0.35654 0.15635 0.61152 0.1714 1.1565 0.97812 2.2368 1.8939 2.5371 0.31285 0.10258 0.99187 0.06461 1.4308-0.07916 0.36304-0.11891 0.4842-0.20063 0.75797-0.50861 0.56815-0.63916 0.67203-1.2713 0.29092-1.7831-0.10087-0.13546-0.40947-0.38817-0.68474-0.56198-0.27527-0.17377-0.755-0.49456-1.0647-0.71245-0.9072-0.63824-1.0027-0.69737-1.2527-0.77182-0.31738-0.0945-0.64044 0.0063-0.90441 0.28102l-0.2078 0.21374-0.12864-0.22759c-0.071614-0.12617-0.1305-0.29312-0.13061-0.37008-2.337e-4 -0.1381-0.27052-0.46005-0.38591-0.48684zm11.575 1.0113c-0.39851 0.0019-0.8586 0.06591-1.3893 0.19394-1.4997 0.36183-2.2086 0.79297-2.5312 1.5377-0.13967 0.32244-0.15077 0.43362-0.1128 1.0509 0.03862 0.62753 0.02836 0.71788-0.11874 1.0311-0.14949 0.31826-0.32212 0.49775-1.1142 1.1637-0.25151 0.21145-0.27453 0.26103-0.30279 0.64912-0.02631 0.36138-1.5e-5 0.48027 0.18208 0.86681 0.38886 0.82558 1.0905 1.3795 1.9691 1.5516 0.41593 0.08146 0.69092 0.08153 1.4051 0.0021 2.7762-0.30949 5.9673-1.3099 6.8791-2.1572 0.47668-0.44299 0.6667-0.85143 0.6986-1.5001 0.06088-1.2384-0.4969-1.9808-1.4922-1.985-0.77915-0.0031-1.5627-0.45597-1.884-1.0885-0.238-0.46842-0.72046-0.93572-1.1716-1.134-0.28196-0.12398-0.61871-0.18413-1.0172-0.18212z" fill="#fff" stroke-width=".50663"/>
</svg>
