<svg width="512" height="512" viewBox="0 0 512 512" xmlns="http://www.w3.org/2000/svg">
<linearGradient id="a" x1="476.86" x2="476.36" y1="112.16" y2="162.63" gradientTransform="matrix(5.2904 6e-8 -6e-8 5.2904 -2379.8 -500.04)" gradientUnits="userSpaceOnUse">
<stop stop-color="#657d83" offset="0"/>
<stop stop-color="#53676c" offset="1"/>
</linearGradient>
<rect transform="matrix(.99768 .068112 -.068112 .99768 0 0)" x="292.9" y="4.1388" width="195.15" height="411.66" ry="25.079" fill="#53676c"/>
<path transform="matrix(.99768 .068112 -.068112 .99768 0 0)" d="m290.88 24.843h176.12v367.26h-176.12z" fill="#fff"/>
<path transform="matrix(.98865 -.15021 .15021 .98865 0 0)" d="m16.549 49.945h298.99v464.95h-298.99z" fill="url(#a)"/>
<path d="m211.75 199.96-66.33 84.898c-12.437 15.918-8.9552 44.274 6.9631 56.711 15.919 12.437 44.274 8.9552 56.711-6.9632l74.621-95.51c8.2913-10.612 5.9703-29.516-4.6419-37.807-10.612-8.2912-29.516-5.9703-37.807 4.6421l-66.33 84.898c-4.1457 5.3061-2.9851 14.758 2.321 18.904 5.3061 4.1454 14.758 2.9851 18.903-2.3211l58.038-74.286 10.612 8.2912-58.038 74.286c-8.2913 10.612-27.195 12.933-37.807 4.6421-10.612-8.2912-12.933-27.195-4.6423-37.807l66.33-84.898c12.437-15.919 40.792-19.4 56.71-6.9632 15.918 12.437 19.4 40.792 6.9632 56.71l-8.2912 10.612-66.33 84.898c-16.583 21.225-54.39 25.867-75.614 9.2844-21.224-16.583-25.867-54.389-9.2842-75.614l66.33-84.898z" fill="#fff"/>
</svg>
