<svg width="128" height="128" version="1.1" viewBox="0 0 33.867 33.867" xmlns="http://www.w3.org/2000/svg" xmlns:xlink="http://www.w3.org/1999/xlink">
<defs>
<linearGradient id="linearGradient1632" x1="123.67" x2="140.82" y1="44.82" y2="67.168" gradientTransform="matrix(.97573 0 0 .97573 -111.75 -37.28)" gradientUnits="userSpaceOnUse">
<stop stop-color="#32353e" offset="0"/>
<stop stop-color="#4d4747" offset="1"/>
</linearGradient>
<filter id="b" x="-.071054" y="-.079411" width="1.1421" height="1.1588" color-interpolation-filters="sRGB">
<feGaussianBlur stdDeviation="1.125"/>
</filter>
</defs>
<g transform="matrix(.97573 0 0 .97573 -65.721 -37.28)" fill="none" opacity=".29676" stroke="#000" stroke-linecap="round" stroke-linejoin="round" stroke-opacity=".02">
<rect x="69.84" y="40.71" width="29.811" height="29.811" rx="6.6099" ry="6.6099" stroke-width=".1"/>
<rect x="69.84" y="40.71" width="29.811" height="29.811" rx="6.6099" ry="6.6099" stroke-width=".2"/>
<rect x="69.84" y="40.71" width="29.811" height="29.811" rx="6.6099" ry="6.6099" stroke-width=".3"/>
<rect x="69.84" y="40.71" width="29.811" height="29.811" rx="6.6099" ry="6.6099" stroke-width=".4"/>
<rect x="69.84" y="40.71" width="29.811" height="29.811" rx="6.6099" ry="6.6099" stroke-width=".5"/>
<rect x="69.84" y="40.71" width="29.811" height="29.811" rx="6.6099" ry="6.6099" stroke-width=".6"/>
<rect x="69.84" y="40.71" width="29.811" height="29.811" rx="6.6099" ry="6.6099" stroke-width=".7"/>
<rect x="69.84" y="40.71" width="29.811" height="29.811" rx="6.6099" ry="6.6099" stroke-width=".8"/>
<rect x="69.84" y="40.71" width="29.811" height="29.811" rx="6.6099" ry="6.6099"/>
<rect x="69.84" y="40.71" width="29.811" height="29.811" rx="6.6099" ry="6.6099" stroke-width="1.2"/>
<rect x="69.84" y="40.71" width="29.811" height="29.811" rx="6.6099" ry="6.6099" stroke-width="1.4"/>
<rect x="69.84" y="40.71" width="29.811" height="29.811" rx="6.6099" ry="6.6099" stroke-width="1.6"/>
<rect x="69.84" y="40.71" width="29.811" height="29.811" rx="6.6099" ry="6.6099" stroke-width="1.8"/>
<rect x="69.84" y="40.71" width="29.811" height="29.811" rx="6.6099" ry="6.6099" stroke-width="2"/>
<rect x="69.84" y="40.71" width="29.811" height="29.811" rx="6.6099" ry="6.6099" stroke-width="2.2"/>
<rect x="69.84" y="40.71" width="29.811" height="29.811" rx="6.6099" ry="6.6099" stroke-width="2.6"/>
<rect x="69.84" y="40.71" width="29.811" height="29.811" rx="6.6099" ry="6.6099" stroke-width="3"/>
<rect x="69.84" y="40.71" width="29.811" height="29.811" rx="6.6099" ry="6.6099" stroke-width="3.4"/>
<rect x="69.84" y="40.71" width="29.811" height="29.811" rx="6.6099" ry="6.6099" stroke-width="3.8"/>
<rect x="69.84" y="40.71" width="29.811" height="29.811" rx="6.6099" ry="6.6099" stroke-width="4.2"/>
<rect x="69.84" y="40.71" width="29.811" height="29.811" rx="6.6099" ry="6.6099" stroke-width="4.6"/>
<rect x="69.84" y="40.71" width="29.811" height="29.811" rx="6.6099" ry="6.6099" stroke-width="5"/>
</g>
<rect x="2.4238" y="2.4414" width="29.087" height="29.087" rx="6.4495" ry="6.4495" fill="url(#linearGradient1632)" stroke-linecap="round" stroke-linejoin="round" stroke-width="2.6877"/>
<path transform="matrix(.50067 0 0 .50067 1.1007 1.883)" d="m36.021 16a3.889 6.07 78.451 0 0-2.342 0.314 3.889 6.07 78.451 0 0-4.531 5.245 3.889 6.07 78.451 0 0 7.172 2.125 3.889 6.07 78.451 0 0 4.531-5.245 3.889 6.07 78.451 0 0-4.83-2.439zm-19.758 1.008a6.681 5.231 45 0 0-3.139 1.428 6.681 5.231 45 0 0 1.377 8.457 6.681 5.231 45 0 0 8.373 0.671 6.681 5.231 45 0 0-1.377-8.457 6.681 5.231 45 0 0-5.234-2.1zm19.236 10.992a14.5 11 0 0 0-14.5 11 14.5 11 0 0 0 14.5 11 14.5 11 0 0 0 14.5-11 14.5 11 0 0 0-14.5-11z" filter="url(#b)" opacity=".2"/>
<path d="m19.135 9.393a1.9471 3.0391 78.451 0 0-1.1726 0.15721 1.9471 3.0391 78.451 0 0-2.2685 2.626 1.9471 3.0391 78.451 0 0 3.5908 1.0639 1.9471 3.0391 78.451 0 0 2.2685-2.626 1.9471 3.0391 78.451 0 0-2.4182-1.2211zm-9.8923 0.50468a3.345 2.619 45 0 0-1.5716 0.71496 3.345 2.619 45 0 0 0.68942 4.2342 3.345 2.619 45 0 0 4.1921 0.33595 3.345 2.619 45 0 0-0.68942-4.2342 3.345 2.619 45 0 0-2.6205-1.0514zm9.6309 5.5034a7.2597 5.5074 0 0 0-7.2597 5.5074 7.2597 5.5074 0 0 0 7.2597 5.5074 7.2597 5.5074 0 0 0 7.2597-5.5074 7.2597 5.5074 0 0 0-7.2597-5.5074z" fill="#f3fafa" stroke-width=".50067"/>
<path d="m19.135 9.393a1.9471 3.0391 78.451 0 0-1.1726 0.15721 1.9471 3.0391 78.451 0 0-2.3001 2.4458 1.9471 3.0391 78.451 0 1 2.3001-1.9451 1.9471 3.0391 78.451 0 1 1.1726-0.15721 1.9471 3.0391 78.451 0 1 2.4182 1.2216 1.9471 3.0391 78.451 0 1 0.03155 0.17975 1.9471 3.0391 78.451 0 0-0.03155-0.68091 1.9471 3.0391 78.451 0 0-2.4182-1.2211zm-9.8923 0.50468a3.345 2.619 45 0 0-1.5716 0.71496 3.345 2.619 45 0 0-0.53572 1.857 3.345 2.619 45 0 1 0.53572-1.3568 3.345 2.619 45 0 1 1.5716-0.71446 3.345 2.619 45 0 1 2.6205 1.0514 3.345 2.619 45 0 1 1.2256 2.3767 3.345 2.619 45 0 0-1.2256-2.8779 3.345 2.619 45 0 0-2.6205-1.0514zm9.6309 5.5034a7.2597 5.5074 0 0 0-7.2597 5.5074 7.2597 5.5074 0 0 0 0.02503 0.25034 7.2597 5.5074 0 0 1 7.2352-5.257 7.2597 5.5074 0 0 1 7.2442 5.1614 7.2597 5.5074 0 0 0 0.01552-0.15471 7.2597 5.5074 0 0 0-7.2597-5.5074z" fill="#fff" opacity=".2" stroke-width=".50067"/>
</svg>
