<svg width="128" height="128" version="1.1" viewBox="0 0 33.867 33.867" xmlns="http://www.w3.org/2000/svg" xmlns:xlink="http://www.w3.org/1999/xlink">
<defs>
<linearGradient id="linearGradient850">
<stop stop-color="#fffdff" offset="0"/>
<stop stop-color="#f4eef4" offset="1"/>
</linearGradient>
<linearGradient id="linearGradient828" x1="17.151" x2="16.772" y1="250.51" y2="281.98" gradientUnits="userSpaceOnUse">
<stop stop-color="#e6e1e6" offset="0"/>
<stop stop-color="#afafaf" stop-opacity="0" offset="1"/>
</linearGradient>
<linearGradient id="linearGradient844" x1="70.715" x2="71.785" y1="133" y2="76.215" gradientUnits="userSpaceOnUse">
<stop stop-color="#e3dbe3" offset="0"/>
<stop stop-color="#efe6ef" stop-opacity="0" offset="1"/>
</linearGradient>
<linearGradient id="linearGradient852" x1="16.914" x2="16.468" y1="263.55" y2="295.31" gradientUnits="userSpaceOnUse" xlink:href="#linearGradient850"/>
<filter id="filter874" x="-.0048" y="-.0048" width="1.0096" height="1.0096" color-interpolation-filters="sRGB">
<feGaussianBlur stdDeviation="0.039343971"/>
</filter>
<linearGradient id="linearGradient886" x1="17.75" x2="17.082" y1="271.12" y2="287.76" gradientUnits="userSpaceOnUse" xlink:href="#linearGradient850"/>
<linearGradient id="linearGradient936" x1="75.459" x2="63.139" y1="-11.704" y2="117.58" gradientUnits="userSpaceOnUse">
<stop stop-color="#f49bb8" stop-opacity=".81364" offset="0"/>
<stop stop-color="#e93c75" stop-opacity="0" offset="1"/>
</linearGradient>
<linearGradient id="linearGradient953" x1="73.215" x2="67.544" y1="-43.137" y2="61.689" gradientUnits="userSpaceOnUse">
<stop stop-color="#fff" offset="0"/>
<stop stop-color="#fff" stop-opacity="0" offset="1"/>
</linearGradient>
<filter id="filter986" x="-.0552" y="-.0552" width="1.1104" height="1.1104" color-interpolation-filters="sRGB">
<feGaussianBlur stdDeviation="0.35807435"/>
</filter>
<linearGradient id="linearGradient1005" x1="61.577" x2="64.766" y1="183.48" y2="109.99" gradientUnits="userSpaceOnUse">
<stop stop-color="#616161" offset="0"/>
<stop stop-color="#616161" stop-opacity="0" offset="1"/>
</linearGradient>
</defs>
<g transform="translate(0 -263.13)">
<circle cx="16.914" cy="280.27" r="16.725" fill="url(#linearGradient852)" stroke-width=".26458"/>
<path transform="matrix(.26458 0 0 .26458 0 263.13)" d="m63.928 1.5723a63.214 63.214 0 0 0-9.4766 0.76367c-5.5147 8.7749-8.8418 19.357-8.1797 29.98a36.997 36.997 0 0 1 15.504-4.4492c3.7851-10.115 10.407-18.279 15.955-24.719a63.214 63.214 0 0 0-13.803-1.5762zm-42.451 16.471a63.214 63.214 0 0 0-13.803 18.047c4.1639 9.1818 10.899 17.573 19.762 22.898a36.997 36.997 0 0 1 5.7188-14.699c-6.208-8.4569-9.3846-18.159-11.678-26.246zm88.201 3.1582c-10.671 0.12589-21.782 3.2546-30.574 9.8789a36.997 36.997 0 0 1 13.6 10.473c10.779-2.396 21.458-1.3714 29.742-0.57422a63.214 63.214 0 0 0-12.768-19.777zm-9.5918 35.953a36.997 36.997 0 0 1 0.83984 7.6328 36.997 36.997 0 0 1-1.4609 10.186c8.2258 7.2947 13.773 16.381 18.098 23.123a63.214 63.214 0 0 0 8.4336-21.498c-6.28-8.6502-15.371-15.981-25.91-19.443zm-99.27 10.482a63.214 63.214 0 0 0 5.0039 21.865c9.6778 2.6249 20.434 2.8043 30.199-0.49805a36.997 36.997 0 0 1-7.7324-14.299c-10.399-0.5242-19.845-4.016-27.471-7.0684zm89.191 23.363a36.997 36.997 0 0 1-15.104 9.0781c-0.9329 10.709-4.7507 20.394-7.5176 27.799a63.214 63.214 0 0 0 21.98-5.3066c3.1736-9.9004 3.7647-21.233 0.64062-31.57zm-47.162 4.1738c-8.4875 6.1594-18.05 9.4782-25.664 12.061a63.214 63.214 0 0 0 17.709 13.641c9.3077-4.0171 17.982-10.728 23.658-19.531a36.997 36.997 0 0 1-15.703-6.1699z" fill="#e93c75"/>
<circle cx="16.914" cy="280.27" r="14.599" fill="none" stroke="url(#linearGradient828)" stroke-width="1.7"/>
<circle cx="16.914" cy="280.27" r="9.836" fill="none" filter="url(#filter874)" stroke="#fff9ff" stroke-width=".2"/>
<circle cx="16.914" cy="280.27" r="9.7887" fill="#d85f97"/>
<circle cx="16.914" cy="280.27" r="7.7842" filter="url(#filter986)"/>
<circle cx="16.914" cy="280.27" r="7.7842" fill="url(#linearGradient886)"/>
<ellipse cx="16.914" cy="280.27" r="14.599" fill="none" stroke="url(#linearGradient828)" stroke-width="1.7"/>
<path transform="matrix(.26458 0 0 .26458 0 263.13)" d="m63.928 1.5723a63.214 63.214 0 0 0-9.4766 0.76367c-5.5147 8.7749-8.8418 19.357-8.1797 29.98a36.997 36.997 0 0 1 15.504-4.4492c3.7851-10.115 10.407-18.279 15.955-24.719a63.214 63.214 0 0 0-13.803-1.5762zm-42.451 16.471a63.214 63.214 0 0 0-13.803 18.047c4.1639 9.1818 10.899 17.573 19.762 22.898a36.997 36.997 0 0 1 5.7188-14.699c-6.208-8.4569-9.3846-18.159-11.678-26.246zm88.201 3.1582c-10.671 0.12589-21.782 3.2546-30.574 9.8789a36.997 36.997 0 0 1 13.6 10.473c10.779-2.396 21.458-1.3714 29.742-0.57422a63.214 63.214 0 0 0-12.768-19.777zm-9.5918 35.953a36.997 36.997 0 0 1 0.83984 7.6328 36.997 36.997 0 0 1-1.4609 10.186c8.2258 7.2947 13.773 16.381 18.098 23.123a63.214 63.214 0 0 0 8.4336-21.498c-6.28-8.6502-15.371-15.981-25.91-19.443zm-99.27 10.482a63.214 63.214 0 0 0 5.0039 21.865c9.6778 2.6249 20.434 2.8043 30.199-0.49805a36.997 36.997 0 0 1-7.7324-14.299c-10.399-0.5242-19.845-4.016-27.471-7.0684zm89.191 23.363a36.997 36.997 0 0 1-15.104 9.0781c-0.9329 10.709-4.7507 20.394-7.5176 27.799a63.214 63.214 0 0 0 21.98-5.3066c3.1736-9.9004 3.7647-21.233 0.64062-31.57zm-47.162 4.1738c-8.4875 6.1594-18.05 9.4782-25.664 12.061a63.214 63.214 0 0 0 17.709 13.641c9.3077-4.0171 17.982-10.728 23.658-19.531a36.997 36.997 0 0 1-15.703-6.1699z" fill="url(#linearGradient936)"/>
<path transform="matrix(.26458 0 0 .26458 0 263.13)" d="m63.928 1.5723a63.214 63.214 0 0 0-63.213 63.213 63.214 63.214 0 0 0 57.955 62.951 52.679 52.679 0 0 1-47.42-52.414 52.679 52.679 0 0 1 52.678-52.68 52.679 52.679 0 0 1 52.68 52.68 52.679 52.679 0 0 1-48.953 52.545 63.214 63.214 0 0 0 59.488-63.082 63.214 63.214 0 0 0-63.215-63.213z" fill="url(#linearGradient953)"/>
<path d="m16.981 273.56a7.2497 7.2497 0 0 0-7.2495 7.25 7.2497 7.2497 0 0 0 2.4728 5.4457 6.0673 4.6983 0 0 1-1.2903-2.8944 6.0673 4.6983 0 0 1 6.067-4.6982 6.0673 4.6983 0 0 1 6.0675 4.6982 6.0673 4.6983 0 0 1-1.3028 2.9007 7.2497 7.2497 0 0 0 2.4853-5.4519 7.2497 7.2497 0 0 0-7.25-7.25zm-4.6828 12.783a7.2497 7.2497 0 0 0 0.01781 0.0154 6.0673 4.6983 0 0 1-0.01781-0.0154zm3.921 1.6744a7.2497 7.2497 0 0 0 0.05776 7e-3 6.0673 4.6983 0 0 1-0.05776-7e-3zm1.3322 0.0168a6.0673 4.6983 0 0 1-0.08471 8e-3 7.2497 7.2497 0 0 0 0.08471-8e-3z" fill="#fff"/>
<path transform="matrix(.26458 0 0 .26458 0 263.13)" d="m63.928 1.5723a63.214 63.214 0 0 0-63.213 63.213 63.214 63.214 0 0 0 63.213 63.215 63.214 63.214 0 0 0 63.215-63.215 63.214 63.214 0 0 0-63.215-63.213zm0 17.32a45.893 45.893 0 0 1 45.895 45.893 45.893 45.893 0 0 1-45.895 45.893 45.893 45.893 0 0 1-45.893-45.893 45.893 45.893 0 0 1 45.893-45.893z" fill="url(#linearGradient844)"/>
<path transform="matrix(.26458 0 0 .26458 0 263.13)" d="m63.928 1.5723a63.214 63.214 0 0 0-63.213 63.213 63.214 63.214 0 0 0 63.213 63.215 63.214 63.214 0 0 0 63.215-63.215 63.214 63.214 0 0 0-63.215-63.213zm0 17.32a45.893 45.893 0 0 1 45.895 45.893 45.893 45.893 0 0 1-45.895 45.893 45.893 45.893 0 0 1-45.893-45.893 45.893 45.893 0 0 1 45.893-45.893z" fill="url(#linearGradient1005)"/>
<path d="m21.55 280.42-7.733 4.4647v-8.9293z" fill="#eb477d" stroke="#eb477d" stroke-linecap="round" stroke-linejoin="round"/>
<path d="m16.981 273.56a7.2497 7.2497 0 0 0-7.2495 7.25 7.2497 7.2497 0 0 0 2.4728 5.4457 6.0673 4.6983 0 0 1-1.2903-2.8944 6.0673 4.6983 0 0 1 6.067-4.6982 6.0673 4.6983 0 0 1 6.0675 4.6982 6.0673 4.6983 0 0 1-1.3028 2.9007 7.2497 7.2497 0 0 0 2.4853-5.4519 7.2497 7.2497 0 0 0-7.25-7.25zm-4.6828 12.783a7.2497 7.2497 0 0 0 0.01781 0.0154 6.0673 4.6983 0 0 1-0.01781-0.0154zm3.921 1.6744a7.2497 7.2497 0 0 0 0.05776 7e-3 6.0673 4.6983 0 0 1-0.05776-7e-3zm1.3322 0.0168a6.0673 4.6983 0 0 1-0.08471 8e-3 7.2497 7.2497 0 0 0 0.08471-8e-3z" fill="#fff" fill-opacity=".19091"/>
</g>
</svg>
