<svg width="128" height="128" version="1.1" viewBox="0 0 33.867 33.867" xmlns="http://www.w3.org/2000/svg" xmlns:xlink="http://www.w3.org/1999/xlink">
<defs>
<radialGradient id="radialGradient870" cx="16.951" cy="2.8905" r="14.544" gradientTransform="matrix(7.6697 0 0 2.6553 -113.06 -4.7848)" gradientUnits="userSpaceOnUse">
<stop stop-color="#aa5fff" offset="0"/>
<stop stop-color="#5100ea" offset="1"/>
</radialGradient>
<linearGradient id="linearGradient1310" x1="14.337" x2="14.337" y1="22.584" y2="49.071" gradientTransform="matrix(1.4814 0 0 1.4814 -13.145 -16.378)" gradientUnits="userSpaceOnUse">
<stop stop-color="#fff" offset="0"/>
<stop stop-color="#fff" stop-opacity="0" offset="1"/>
</linearGradient>
</defs>
<g stroke-linecap="round" stroke-linejoin="round">
<g transform="matrix(.97573 0 0 .97573 -65.737 -37.183)" fill="none" opacity=".295" stroke="#000" stroke-opacity=".02">
<rect x="69.84" y="40.71" width="29.811" height="29.811" rx="6.6099" ry="6.6099" stroke-width=".1"/>
<rect x="69.84" y="40.71" width="29.811" height="29.811" rx="6.6099" ry="6.6099" stroke-width=".2"/>
<rect x="69.84" y="40.71" width="29.811" height="29.811" rx="6.6099" ry="6.6099" stroke-width=".3"/>
<rect x="69.84" y="40.71" width="29.811" height="29.811" rx="6.6099" ry="6.6099" stroke-width=".4"/>
<rect x="69.84" y="40.71" width="29.811" height="29.811" rx="6.6099" ry="6.6099" stroke-width=".5"/>
<rect x="69.84" y="40.71" width="29.811" height="29.811" rx="6.6099" ry="6.6099" stroke-width=".6"/>
<rect x="69.84" y="40.71" width="29.811" height="29.811" rx="6.6099" ry="6.6099" stroke-width=".7"/>
<rect x="69.84" y="40.71" width="29.811" height="29.811" rx="6.6099" ry="6.6099" stroke-width=".8"/>
<rect x="69.84" y="40.71" width="29.811" height="29.811" rx="6.6099" ry="6.6099"/>
<rect x="69.84" y="40.71" width="29.811" height="29.811" rx="6.6099" ry="6.6099" stroke-width="1.2"/>
<rect x="69.84" y="40.71" width="29.811" height="29.811" rx="6.6099" ry="6.6099" stroke-width="1.4"/>
<rect x="69.84" y="40.71" width="29.811" height="29.811" rx="6.6099" ry="6.6099" stroke-width="1.6"/>
<rect x="69.84" y="40.71" width="29.811" height="29.811" rx="6.6099" ry="6.6099" stroke-width="1.8"/>
<rect x="69.84" y="40.71" width="29.811" height="29.811" rx="6.6099" ry="6.6099" stroke-width="2"/>
<rect x="69.84" y="40.71" width="29.811" height="29.811" rx="6.6099" ry="6.6099" stroke-width="2.2"/>
<rect x="69.84" y="40.71" width="29.811" height="29.811" rx="6.6099" ry="6.6099" stroke-width="2.6"/>
<rect x="69.84" y="40.71" width="29.811" height="29.811" rx="6.6099" ry="6.6099" stroke-width="3"/>
<rect x="69.84" y="40.71" width="29.811" height="29.811" rx="6.6099" ry="6.6099" stroke-width="3.4"/>
<rect x="69.84" y="40.71" width="29.811" height="29.811" rx="6.6099" ry="6.6099" stroke-width="3.8"/>
<rect x="69.84" y="40.71" width="29.811" height="29.811" rx="6.6099" ry="6.6099" stroke-width="4.2"/>
<rect x="69.84" y="40.71" width="29.811" height="29.811" rx="6.6099" ry="6.6099" stroke-width="4.6"/>
<rect x="69.84" y="40.71" width="29.811" height="29.811" rx="6.6099" ry="6.6099" stroke-width="5"/>
</g>
<rect x="2.4074" y="2.5392" width="29.087" height="29.087" rx="6.4495" ry="6.4495" fill="url(#radialGradient870)" stroke-width="2.6877"/>
<path d="m16.948 6.1226-0.02985 0.057419c-0.27856 0.024932-0.52732 0.19698-0.64458 0.45472a0.39199 0.39199 0 0 0 0 7.644e-4l-0.81911 1.8082-1.9743 0.19751c-0.32253 0.03209-0.5771 0.26287-0.66677 0.53281-0.08977 0.27024-0.02398 0.60732 0.21588 0.82601l1.3114 1.195-2.8876 5.6182c1.6414 1.4689 3.5089 2.1916 5.3893 2.1932 1.9071 0.0016 3.8415-0.73838 5.573-2.2575l-2.8363-5.5164 1.332-1.1873c0.24191-0.21579 0.31146-0.55115 0.22507-0.82218-0.0864-0.27103-0.33772-0.506-0.65989-0.54199l-1.9728-0.21894-0.79768-1.8174c-0.12401-0.28212-0.40458-0.4673-0.71271-0.46927h-7.84e-4c-0.0039-2.52e-5 -0.0076 7.333e-4 -0.01155 7.644e-4l-0.02755-0.053582zm0.0398 0.83672 0.88878 2.0248a0.39199 0.39199 0 0 0 7.85e-4 7.64e-4l0.09034 0.20516 0.22277 0.02526 0.37358 0.04134 1.825 0.20363-1.6505 1.4706a0.39199 0.39199 0 0 0-0.0024 0.0031l-0.16612 0.14851 0.49147 2.3862h-7.84e-4l-1.9085-1.1146-0.19521-0.11407-0.19598 0.11177-1.9215 1.0932 0.47003-2.1603 0.04823-0.22047-0.16382-0.14928-0.0031-0.0031-0.47999-0.43712-1.1537-1.0526a0.39199 0.39199 0 0 0 7.84e-4 -0.0015l1.786-0.17837 0.41338-0.04134 0.22507-0.02221zm-2.2836 8.0526a1.4847 1.4847 0 0 1 1.4851 1.4851 1.4847 1.4847 0 0 1-1.4851 1.4844 1.4847 1.4847 0 0 1-1.4844-1.4844 1.4847 1.4847 0 0 1 1.4844-1.4851zm3.6952 0.57185a0.82184 0.82184 0 0 1 0.82218 0.82218 0.82184 0.82184 0 0 1-0.82218 0.82141 0.82184 0.82184 0 0 1-0.82141-0.82141 0.82184 0.82184 0 0 1 0.82141-0.82218zm4.3826 1.8794c-1.8216 1.5427-3.8848 2.329-5.9405 2.3272-2.022-0.0018-4.0216-0.76835-5.7568-2.2606l-1.4231 2.7681 0.08497-0.0934c4.2019 3.8196 10.09 3.9269 14.583 0.26793zm-1.4874 1.8763a0.94127 0.94127 0 0 1 0.94083 0.9416 0.94127 0.94127 0 0 1-0.94083 0.94084 0.94127 0.94127 0 0 1-0.9416-0.94084 0.94127 0.94127 0 0 1 0.9416-0.9416zm-11.942 1.5601-0.875 1.7018c-0.70889 1.2449-0.39743 2.6834 0.59788 3.2634 2.5055 1.4531 5.1422 2.1736 7.7931 2.168h0.13626c2.6601 0.01067 5.3073-0.7099 7.8214-2.168 0.9953-0.58002 1.3068-2.0186 0.59788-3.2634l-0.72878-1.4162c-4.7016 3.73-10.922 3.624-15.343-0.28554zm7.3674 0.05435a0.70394 0.70394 0 0 1 0.70352 0.70352 0.70394 0.70394 0 0 1-0.70352 0.70428 0.70394 0.70394 0 0 1-0.70428-0.70428 0.70394 0.70394 0 0 1 0.70428-0.70352zm-5.805 2.6281a0.94127 0.94127 0 0 1 0.9416 0.9416 0.94127 0.94127 0 0 1-0.9416 0.94083 0.94127 0.94127 0 0 1-0.94084-0.94083 0.94127 0.94127 0 0 1 0.94084-0.9416zm7.9355 0.59175a1.2842 1.2842 0 0 1 1.2846 1.2846 1.2842 1.2842 0 0 1-1.2846 1.2838 1.2842 1.2842 0 0 1-1.2838-1.2838 1.2842 1.2842 0 0 1 1.2838-1.2846z" fill="url(#linearGradient1310)" stroke-width="1.1747"/>
</g>
</svg>
