<svg width="170.67" height="170.67" viewBox="0 0 170.67 170.67" xmlns="http://www.w3.org/2000/svg">
<linearGradient id="a" x1="295.05" x2="430.28" y1="-2.5311" y2="66.893" gradientUnits="userSpaceOnUse">
<stop stop-color="#fefefe" offset="0"/>
<stop stop-color="#edf0f4" offset="1"/>
</linearGradient>
<linearGradient id="b" x1="322.07" x2="396.89" y1="45.19" y2="45.19" gradientUnits="userSpaceOnUse">
<stop stop-color="#fc7333" offset="0"/>
<stop stop-color="#d54161" offset=".5"/>
<stop stop-color="#a65495" offset=".80304"/>
<stop stop-color="#6c69d2" offset="1"/>
</linearGradient>
<linearGradient id="c" x1="163.21" x2="238.03" y1="55.288" y2="55.288" gradientTransform="matrix(-.5 -.86603 .86603 -.5 368.21 275.67)" gradientUnits="userSpaceOnUse">
<stop stop-color="#55d4a2" offset="0"/>
<stop stop-color="#86d149" offset=".5"/>
<stop stop-color="#e9d730" offset=".80304"/>
<stop stop-color="#fc822f" offset="1"/>
</linearGradient>
<linearGradient id="d" x1="163.21" x2="238.03" y1="55.288" y2="55.288" gradientTransform="matrix(-.5 .86603 -.86603 -.5 511.66 -48.39)" gradientUnits="userSpaceOnUse">
<stop stop-color="#5078f4" offset="0"/>
<stop stop-color="#54b7fc" offset=".5"/>
<stop stop-color="#5edaf2" offset=".80304"/>
<stop stop-color="#52d5ad" offset="1"/>
</linearGradient>
<filter id="e" x="-.015405" y="-.023869" width="1.0308" height="1.0477" color-interpolation-filters="sRGB">
<feGaussianBlur stdDeviation=".58093268"/>
</filter>
<filter id="f" x="-.033556" y="-.015767" width="1.0671" height="1.0315" color-interpolation-filters="sRGB">
<feGaussianBlur stdDeviation=".58093268"/>
</filter>
<filter id="g" x="-.018004" y="-.018287" width="1.036" height="1.0366" color-interpolation-filters="sRGB">
<feGaussianBlur stdDeviation=".58093268"/>
</filter>
<filter id="h" x="-.078784" y="-.074913" width="1.1576" height="1.1498" color-interpolation-filters="sRGB">
<feGaussianBlur stdDeviation="3.7179691"/>
</filter>
<filter id="i" x="-.03" y="-.03" width="1.06" height="1.06" color-interpolation-filters="sRGB">
<feGaussianBlur stdDeviation="2.1062147"/>
</filter>
<g transform="matrix(.90688 0 0 .90688 -228.48 25.393)">
<circle cx="346.03" cy="66.893" r="84.249" fill="#333" filter="url(#i)" stroke="url(#a)" stroke-linecap="round" stroke-linejoin="round" stroke-width="3"/>
<circle cx="346.03" cy="66.893" r="84.249" fill="url(#a)" stroke="url(#a)" stroke-linecap="round" stroke-linejoin="round" stroke-width="3"/>
<path d="m346.67 7.3364-26.215 29.584 36.219 17.678-2.4727-11.506c0.45339-0.09485 0.68013-0.20734 1.4258-0.23047 1.3217-0.041 3.0264 0.06847 4.959 0.38281 3.8652 0.62868 8.6495 2.0765 13.361 4.7051 9.4236 5.2572 18.593 15.093 20.186 32.98l1.4912 2.6469 1.4912-2.5961c1.0703-8.7507 1.4591-18.894-1.6152-28.74-3.0744-9.8459-9.6784-19.35-22.248-26.59-6.5566-3.7765-14.686-6.4874-24.547-7.6641z" fill="#fff" filter="url(#g)" opacity=".26162"/>
<path d="m352.42 41.935 2.1422 9.9623-31.673-15.459 22.883-25.823 1.6619 8.693c10.208 1.0748 18.456 3.8319 25.072 7.6429 24.556 14.144 25.24 36.539 23.123 53.847-3.2685-36.704-38.192-41.429-43.209-38.863z" fill="url(#b)" filter="url(#h)" stroke="#000" stroke-opacity=".088083"/>
<path d="m289.4 104.32 38.728 7.9107-2.8-40.205-8.728 7.8943c-0.30884-0.34522-0.51963-0.48534-0.91248-1.1195-0.69637-1.1241-1.4539-2.6552-2.148-4.486-1.3881-3.6617-2.5265-8.529-2.606-13.924-0.15894-10.79 3.7746-23.648 18.469-33.971l1.5466-2.6149-2.9939 0.0066c-8.1134 3.4485-17.093 8.1835-24.082 15.769-6.9896 7.5854-11.918 18.057-11.903 32.562 8e-3 7.5664 1.7247 15.962 5.6362 25.09z" fill="#fff" filter="url(#f)" opacity=".26162"/>
<path d="m316.49 82.039 7.5565-6.8364 2.4483 35.159-33.805-6.9056 6.6974-5.7858c-4.1733-9.378-5.9093-17.899-5.9171-25.535-0.0291-28.338 19.024-40.128 35.072-46.949-30.152 21.183-16.783 53.79-12.052 56.852z" fill="url(#c)" filter="url(#h)" stroke="#000" stroke-opacity=".088083"/>
<path d="m402.66 105.53-12.513-37.495-33.419 22.527 11.201 3.6115c-0.14455 0.44007-0.1605 0.69268-0.5133 1.35-0.62535 1.1651-1.5725 2.5867-2.811 4.1032-2.477 3.033-6.1231 6.4525-10.755 9.2187-9.2646 5.5324-22.367 8.5552-38.655 0.99096l-3.0378-0.032 1.5027 2.5895c7.0432 5.3022 15.633 10.711 25.697 12.971 10.064 2.2605 21.597 1.2932 34.152-5.9725 6.5488-3.79 12.961-9.4748 18.911-17.426z" fill="#fff" filter="url(#e)" opacity=".26162"/>
<path d="m369.83 93.211-9.6987-3.1259 29.225-19.7 10.922 32.729-8.3593-2.9073c-6.0349 8.3032-12.546 14.067-19.155 17.892-24.527 14.194-44.264 3.5886-58.195-6.8986 33.421 15.521 54.975-12.361 55.261-17.989z" fill="url(#d)" filter="url(#h)" stroke="#000" stroke-opacity=".088083"/>
<path d="m346.67 7.3364-26.215 29.584 36.219 17.678-2.4727-11.506c0.45339-0.09485 0.68013-0.20734 1.4258-0.23047 1.3217-0.041 3.0264 0.06847 4.959 0.38281 3.8652 0.62868 8.6495 2.0765 13.361 4.7051 9.4236 5.2572 18.593 15.093 20.186 32.98l1.4912 2.6469 1.4912-2.5961c1.0703-8.7507 1.4591-18.894-1.6152-28.74-3.0744-9.8459-9.6784-19.35-22.248-26.59-6.5566-3.7765-14.686-6.4874-24.547-7.6641z" fill="#fff" filter="url(#g)" opacity=".431"/>
<path d="m352.42 41.935 2.1422 9.9623-31.673-15.459 22.883-25.823 1.6619 8.693c10.208 1.0748 18.456 3.8319 25.072 7.6429 24.556 14.144 25.24 36.539 23.123 53.847-3.2685-36.704-38.192-41.429-43.209-38.863z" fill="url(#b)" stroke="#000" stroke-opacity=".088083"/>
<path d="m289.4 104.32 38.728 7.9107-2.8-40.205-8.728 7.8943c-0.30884-0.34522-0.51963-0.48534-0.91248-1.1195-0.69637-1.1241-1.4539-2.6552-2.148-4.486-1.3881-3.6617-2.5265-8.529-2.606-13.924-0.15894-10.79 3.7746-23.648 18.469-33.971l1.5466-2.6149-2.9939 0.0066c-8.1134 3.4485-17.093 8.1835-24.082 15.769-6.9896 7.5854-11.918 18.057-11.903 32.562 8e-3 7.5664 1.7247 15.962 5.6362 25.09z" fill="#fff" filter="url(#f)" opacity=".431"/>
<path d="m316.49 82.039 7.5565-6.8364 2.4483 35.159-33.805-6.9056 6.6974-5.7858c-4.1733-9.378-5.9093-17.899-5.9171-25.535-0.0291-28.338 19.024-40.128 35.072-46.949-30.152 21.183-16.783 53.79-12.052 56.852z" fill="url(#c)" stroke="#000" stroke-opacity=".088083"/>
<path d="m402.66 105.53-12.513-37.495-33.419 22.527 11.201 3.6115c-0.14455 0.44007-0.1605 0.69268-0.5133 1.35-0.62535 1.1651-1.5725 2.5867-2.811 4.1032-2.477 3.033-6.1231 6.4525-10.755 9.2187-9.2646 5.5324-22.367 8.5552-38.655 0.99096l-3.0378-0.032 1.5027 2.5895c7.0432 5.3022 15.633 10.711 25.697 12.971 10.064 2.2605 21.597 1.2932 34.152-5.9725 6.5488-3.79 12.961-9.4748 18.911-17.426z" fill="#fff" filter="url(#e)" opacity=".431"/>
<path d="m369.83 93.211-9.6987-3.1259 29.225-19.7 10.922 32.729-8.3593-2.9073c-6.0349 8.3032-12.546 14.067-19.155 17.892-24.527 14.194-44.264 3.5886-58.195-6.8986 33.421 15.521 54.975-12.361 55.261-17.989z" fill="url(#d)" stroke="#000" stroke-opacity=".088083"/>
</g>
</svg>
