<svg width="128" height="128" version="1.1" viewBox="0 0 33.867 33.867" xmlns="http://www.w3.org/2000/svg" xmlns:xlink="http://www.w3.org/1999/xlink">
<defs>
<radialGradient id="radialGradient1999" cx="17.076" cy="4.6282" r="14.544" gradientTransform="matrix(4.7283 0 0 1.6998 -63.506 -2.7937)" gradientUnits="userSpaceOnUse">
<stop stop-color="#73f4b5" offset="0"/>
<stop stop-color="#2b93fa" offset="1"/>
</radialGradient>
<linearGradient id="linearGradient1113" x1="19.493" x2="19.493" y1="82.014" y2="11.778" gradientUnits="userSpaceOnUse">
<stop stop-color="#2b93fa" offset="0"/>
<stop stop-color="#ecfbf8" offset="1"/>
</linearGradient>
</defs>
<g transform="matrix(.97573 0 0 .96361 -65.737 -36.328)" fill="none" opacity=".18754" stroke="#000" stroke-linecap="round" stroke-linejoin="round" stroke-opacity=".02">
<rect x="69.84" y="40.71" width="29.811" height="29.811" rx="6.6099" ry="6.6099" stroke-width=".1"/>
<rect x="69.84" y="40.71" width="29.811" height="29.811" rx="6.6099" ry="6.6099" stroke-width=".2"/>
<rect x="69.84" y="40.71" width="29.811" height="29.811" rx="6.6099" ry="6.6099" stroke-width=".3"/>
<rect x="69.84" y="40.71" width="29.811" height="29.811" rx="6.6099" ry="6.6099" stroke-width=".4"/>
<rect x="69.84" y="40.71" width="29.811" height="29.811" rx="6.6099" ry="6.6099" stroke-width=".5"/>
<rect x="69.84" y="40.71" width="29.811" height="29.811" rx="6.6099" ry="6.6099" stroke-width=".6"/>
<rect x="69.84" y="40.71" width="29.811" height="29.811" rx="6.6099" ry="6.6099" stroke-width=".7"/>
<rect x="69.84" y="40.71" width="29.811" height="29.811" rx="6.6099" ry="6.6099" stroke-width=".8"/>
<rect x="69.84" y="40.71" width="29.811" height="29.811" rx="6.6099" ry="6.6099"/>
<rect x="69.84" y="40.71" width="29.811" height="29.811" rx="6.6099" ry="6.6099" stroke-width="1.2"/>
<rect x="69.84" y="40.71" width="29.811" height="29.811" rx="6.6099" ry="6.6099" stroke-width="1.4"/>
<rect x="69.84" y="40.71" width="29.811" height="29.811" rx="6.6099" ry="6.6099" stroke-width="1.6"/>
<rect x="69.84" y="40.71" width="29.811" height="29.811" rx="6.6099" ry="6.6099" stroke-width="1.8"/>
<rect x="69.84" y="40.71" width="29.811" height="29.811" rx="6.6099" ry="6.6099" stroke-width="2"/>
<rect x="69.84" y="40.71" width="29.811" height="29.811" rx="6.6099" ry="6.6099" stroke-width="2.2"/>
<rect x="69.84" y="40.71" width="29.811" height="29.811" rx="6.6099" ry="6.6099" stroke-width="2.6"/>
<rect x="69.84" y="40.71" width="29.811" height="29.811" rx="6.6099" ry="6.6099" stroke-width="3"/>
<rect x="69.84" y="40.71" width="29.811" height="29.811" rx="6.6099" ry="6.6099" stroke-width="3.4"/>
<rect x="69.84" y="40.71" width="29.811" height="29.811" rx="6.6099" ry="6.6099" stroke-width="3.8"/>
<rect x="69.84" y="40.71" width="29.811" height="29.811" rx="6.6099" ry="6.6099" stroke-width="4.2"/>
<rect x="69.84" y="40.71" width="29.811" height="29.811" rx="6.6099" ry="6.6099" stroke-width="4.6"/>
<rect x="69.84" y="40.71" width="29.811" height="29.811" rx="6.6099" ry="6.6099" stroke-width="5"/>
</g>
<rect x="2.4074" y="2.5392" width="29.087" height="29.087" rx="6.4495" ry="6.4495" fill="url(#radialGradient1999)" stroke-linecap="round" stroke-linejoin="round" stroke-width="2.6877"/>
<g fill="#3626ff" fill-opacity=".086235" opacity=".4982" stroke-width=".50945">
<path d="m16.93 7.5391a10.189 10.189 0 0 0-10.177 10.188 10.189 10.189 0 0 0 10.189 10.189 10.189 10.189 0 0 0 10.189-10.189 10.189 10.189 0 0 0-5.1433-8.8368 2.5475 2.5475 0 0 1 0.02885 0.36716v1.9373a7.1323 7.1323 0 0 1 2.0577 5.004 7.1323 7.1323 0 0 1-7.1323 7.1323 7.1323 7.1323 0 0 1-7.1323-7.1323 7.1323 7.1323 0 0 1 5.7662-6.994c0.3257-0.40478 0.69138-0.85905 0.85373-1.0657 0.1494-0.19013 0.2934-0.36618 0.43383-0.52736 0.02056-0.023624 0.04612-0.049492 0.06666-0.072645zm2.1761 1.5284c-0.04886-0.00358-0.09218 5.041e-4 -0.12138 0.013939-0.05179 0.023786-0.29915 0.30974-0.55224 0.63184-0.25309 0.3221-0.80546 1.0098-1.2279 1.5313-0.4224 0.52153-1.2249 1.5206-1.7811 2.2179-1.0926 1.3699-1.2668 1.6459-1.4468 2.2965-0.1124 0.40636-0.1223 1.0626-0.02197 1.4438 0.27529 1.0451 1.1953 1.8286 2.3821 2.0298 0.05395 0.0092 0.24034 0.02032 0.41294 0.02291 0.7191 0.01084 1.3314-0.24218 1.8498-0.76517 0.27322-0.27564 0.34848-0.38417 0.51642-0.73632 0.10822-0.22689 0.22577-0.52917 0.26268-0.67065 0.09469-0.36288 0.13978-1.1122 0.09055-2.8279v-4.998c-0.019375-0.10128-0.21663-0.17968-0.36319-0.19006z"/>
<path d="m17.119 8.1216a10.189 10.189 0 0 0-10.177 10.188 10.189 10.189 0 0 0 10.189 10.189 10.189 10.189 0 0 0 10.189-10.189 10.189 10.189 0 0 0-5.1433-8.8368 2.5475 2.5475 0 0 1 0.02885 0.36716v1.9373a7.1323 7.1323 0 0 1 2.0577 5.004 7.1323 7.1323 0 0 1-7.1323 7.1323 7.1323 7.1323 0 0 1-7.1323-7.1323 7.1323 7.1323 0 0 1 5.7662-6.994c0.3257-0.40478 0.69138-0.85905 0.85373-1.0657 0.1494-0.19013 0.2934-0.36618 0.43383-0.52736 0.02056-0.023624 0.04612-0.049492 0.06666-0.072645zm2.1761 1.5284c-0.04886-0.00358-0.09218 5.041e-4 -0.12138 0.013939-0.05179 0.023786-0.29915 0.30974-0.55224 0.63184-0.25309 0.3221-0.80546 1.0098-1.2279 1.5313-0.4224 0.52153-1.2249 1.5206-1.7811 2.2179-1.0926 1.3699-1.2668 1.6459-1.4468 2.2965-0.1124 0.40636-0.1223 1.0626-0.02197 1.4438 0.27529 1.0451 1.1953 1.8286 2.3821 2.0298 0.05395 0.0092 0.24034 0.02032 0.41294 0.02291 0.7191 0.01084 1.3314-0.24218 1.8498-0.76517 0.27322-0.27564 0.34848-0.38417 0.51642-0.73632 0.10822-0.22689 0.22577-0.52917 0.26268-0.67065 0.09469-0.36288 0.13978-1.1122 0.09055-2.8279v-4.998c-0.019375-0.10128-0.21663-0.17968-0.36319-0.19006z"/>
<path d="m17.417 8.6929a10.189 10.189 0 0 0-10.177 10.188 10.189 10.189 0 0 0 10.189 10.189 10.189 10.189 0 0 0 10.189-10.189 10.189 10.189 0 0 0-5.1433-8.8368 2.5475 2.5475 0 0 1 0.02885 0.36716v1.9373a7.1323 7.1323 0 0 1 2.0577 5.004 7.1323 7.1323 0 0 1-7.1323 7.1323 7.1323 7.1323 0 0 1-7.1323-7.1323 7.1323 7.1323 0 0 1 5.7662-6.994c0.3257-0.40478 0.69138-0.85905 0.85373-1.0657 0.1494-0.19013 0.2934-0.36618 0.43383-0.52736 0.02056-0.023624 0.04612-0.049492 0.06666-0.072645zm2.1761 1.5284c-0.04886-0.0036-0.09218 5.05e-4 -0.12138 0.01394-0.05179 0.02379-0.29915 0.30974-0.55224 0.63184-0.25309 0.3221-0.80546 1.0098-1.2279 1.5313-0.4224 0.52153-1.2249 1.5206-1.7811 2.2179-1.0926 1.3699-1.2668 1.6459-1.4468 2.2965-0.1124 0.40636-0.1223 1.0626-0.02197 1.4438 0.27529 1.0451 1.1953 1.8286 2.3821 2.0298 0.05395 0.0092 0.24034 0.02032 0.41294 0.02291 0.7191 0.01084 1.3314-0.24218 1.8498-0.76517 0.27322-0.27564 0.34848-0.38417 0.51642-0.73632 0.10822-0.22689 0.22577-0.52917 0.26268-0.67065 0.09469-0.36288 0.13978-1.1122 0.09055-2.8279v-4.998c-0.01938-0.10128-0.21663-0.17968-0.36319-0.19006z"/>
</g>
<path d="m16.567 7.349a10.189 10.189 0 0 0-10.177 10.188 10.189 10.189 0 0 0 10.189 10.189 10.189 10.189 0 0 0 10.189-10.189 10.189 10.189 0 0 0-5.1433-8.8368 2.5475 2.5475 0 0 1 0.02885 0.36716v1.9373a7.1323 7.1323 0 0 1 2.0577 5.004 7.1323 7.1323 0 0 1-7.1323 7.1323 7.1323 7.1323 0 0 1-7.1323-7.1323 7.1323 7.1323 0 0 1 5.7662-6.994c0.3257-0.40478 0.69138-0.85905 0.85373-1.0657 0.1494-0.19013 0.2934-0.36618 0.43383-0.52736 0.02056-0.023624 0.04612-0.049492 0.06666-0.072645zm2.1761 1.5284c-0.04886-0.00358-0.09218 5.041e-4 -0.12138 0.013939-0.05179 0.023786-0.29915 0.30974-0.55224 0.63184-0.25309 0.3221-0.80546 1.0098-1.2279 1.5313-0.4224 0.52153-1.2249 1.5206-1.7811 2.2179-1.0926 1.3699-1.2668 1.6459-1.4468 2.2965-0.1124 0.40636-0.1223 1.0626-0.02197 1.4438 0.27529 1.0451 1.1953 1.8286 2.3821 2.0298 0.05395 0.0092 0.24034 0.02032 0.41294 0.02291 0.7191 0.01084 1.3314-0.24218 1.8498-0.76517 0.27322-0.27564 0.34848-0.38417 0.51642-0.73632 0.10822-0.22689 0.22577-0.52917 0.26268-0.67065 0.09469-0.36288 0.13978-1.1122 0.09055-2.8279v-4.998c-0.019375-0.10128-0.21663-0.17968-0.36319-0.19006z" fill="url(#linearGradient1113)" stroke-width=".50945"/>
</svg>
