<svg width="128" height="128" version="1.1" viewBox="0 0 128 128" xmlns="http://www.w3.org/2000/svg" xmlns:xlink="http://www.w3.org/1999/xlink">
<defs>
<linearGradient id="linearGradient825" x1="-741.83" x2="-741.83" y1="959.05" y2="93.836" gradientTransform="matrix(.1342 0 0 .1342 160.37 -5.4564)" gradientUnits="userSpaceOnUse">
<stop stop-color="#bc1f30" offset="0"/>
<stop stop-color="#e45767" offset="1"/>
</linearGradient>
<linearGradient id="linearGradient835" x1="-738.76" x2="-738.76" y1="931.43" y2="152.13" gradientTransform="matrix(.1342 0 0 .1342 160.37 -5.4564)" gradientUnits="userSpaceOnUse">
<stop stop-color="#d02336" offset="0"/>
<stop stop-color="#e35666" offset="1"/>
</linearGradient>
</defs>
<g transform="translate(-138.41 -15.501)" fill="none" opacity=".445" stroke="#000" stroke-linecap="round" stroke-linejoin="round" stroke-opacity=".031373">
<circle cx="202.16" cy="79.683" r="60.269" opacity="1" stroke-width=".5"/>
<circle cx="202.16" cy="79.683" r="60.269" opacity="1"/>
<circle cx="202.16" cy="79.683" r="60.269" opacity="1" stroke-width="1.5"/>
<circle cx="202.16" cy="79.683" r="60.269" opacity="1" stroke-width="2"/>
<circle cx="202.16" cy="79.683" r="60.269" opacity="1" stroke-width="2.5"/>
<circle cx="202.16" cy="79.683" r="60.269" opacity="1" stroke-width="3"/>
<circle cx="202.16" cy="79.683" r="60.269" opacity="1" stroke-width="3.5"/>
<circle cx="202.16" cy="79.683" r="60.269" opacity="1" stroke-width="4"/>
<circle cx="202.16" cy="79.683" r="60.269" opacity="1" stroke-width="4.5"/>
<circle cx="202.16" cy="79.683" r="60.269" opacity="1" stroke-width="5.5"/>
<circle cx="202.16" cy="79.683" r="60.269" opacity="1" stroke-width="6.5"/>
</g>
<circle cx="63.433" cy="63.547" r="60.269" fill="url(#linearGradient825)"/>
<circle cx="63.433" cy="63.547" r="54.093" fill="url(#linearGradient835)"/>
<path d="m41.71 35.373c-3.3448 0.10426-6.5759 1.6153-9.0508 3.9044-2.5152 2.3265-4.3181 5.523-4.6831 8.9596-0.18261 1.7184-0.0052 3.4798 0.55599 5.111 0.56101 1.6316 1.5101 3.1305 2.7697 4.2914 1.4857 1.3691 3.3427 2.2328 5.0488 3.3038 0.85318 0.53562 1.6775 1.13 2.3842 1.853 0.70669 0.72302 1.2943 1.5807 1.6178 2.5453 0.2879 0.8583 0.35893 1.7856 0.23041 2.6826-0.12852 0.89739-0.45553 1.7633-0.93166 2.53-0.95219 1.5339-2.4875 2.6506-4.1723 3.2479-1.9542 0.69253-4.107 0.72688-5.9905 1.5985-1.4905 0.68965-2.7441 1.8923-3.5263 3.3546-0.7819 1.4625-1.0916 3.1779-0.9016 4.8311 0.2233 1.9426 1.1378 3.7902 2.5095 5.162 1.3716 1.3718 3.1866 2.2653 5.089 2.5607 2.7894 0.43292 5.771-0.47455 7.7987-2.4689 1.0138-0.99719 1.7872-2.2443 2.2189-3.6093 0.4317-1.3652 0.52092-2.8453 0.24042-4.2508-0.21421-1.0731-0.63618-2.09-1.0268-3.1102-0.39063-1.0207-0.7573-2.0654-0.85149-3.1561-0.16628-1.9259 0.55962-3.8852 1.8182-5.3349 1.2586-1.4497 3.0169-2.4036 4.8736-2.8254 1.1978-0.2721 2.4467-0.33305 3.6565-0.12218 1.2097 0.21113 2.3807 0.6951 3.3608 1.4457 0.98022 0.75064 1.7637 1.7709 2.1989 2.9373 0.4352 1.1664 0.51231 2.4787 0.16528 3.6753-0.35543 1.2255-1.1194 2.2766-1.8933 3.2833-0.77389 1.0068-1.5837 2.0181-2.0436 3.2071-0.50715 1.3113-0.55785 2.7898-0.21036 4.1539 0.34748 1.364 1.0818 2.6151 2.0436 3.6296 1.064 1.1226 2.4115 1.9634 3.8768 2.4232 1.4654 0.46005 2.9642 0.53962 4.4981 0.53962 1.5337 0 3.1326-0.07956 4.5982-0.53962 1.4654-0.45975 2.8128-1.3006 3.8768-2.4232 0.96178-1.0147 1.6961-2.2657 2.0436-3.6296 0.34748-1.3642 0.29678-2.8425-0.21036-4.1539-0.45988-1.189-1.2697-2.2004-2.0436-3.2071-0.77391-1.0069-1.5379-2.0579-1.8933-3.2833-0.34699-1.1966-0.2699-2.509 0.16528-3.6753 0.4352-1.1664 1.2186-2.1867 2.1989-2.9373 0.98022-0.75066 2.1513-1.2346 3.3608-1.4457 1.2097-0.21086 2.4587-0.14991 3.6565 0.12218 1.8565 0.42171 3.6149 1.3756 4.8736 2.8254 1.2586 1.4497 1.9845 3.4093 1.8182 5.3349-0.09417 1.0908-0.46086 2.1355-0.85149 3.1561-0.39063 1.0204-0.8126 2.0373-1.0268 3.1102-0.28049 1.4054-0.19128 2.8854 0.24042 4.2508 0.4317 1.365 1.2051 2.6119 2.2189 3.6093 2.0277 1.9944 5.0093 2.9021 7.7987 2.4689 1.9022-0.29529 3.7174-1.1889 5.089-2.5607 1.3716-1.3718 2.2862-3.2193 2.5095-5.162 0.19006-1.6532-0.11966-3.3685-0.9016-4.8311-0.78194-1.4625-2.0357-2.6651-3.5263-3.3546-1.8836-0.87158-4.0363-0.90595-5.9905-1.5985-1.6848-0.59713-3.2202-1.714-4.1723-3.2479-0.47611-0.76683-0.80312-1.6327-0.93163-2.53-0.12852-0.89714-0.05749-1.8245 0.23041-2.6826 0.32357-0.96464 0.91112-1.8223 1.6178-2.5453 0.70668-0.72302 1.531-1.3174 2.3842-1.853 1.7064-1.071 3.5632-1.9347 5.0488-3.3038 1.2597-1.1609 2.2089-2.66 2.7697-4.2914 0.56098-1.6313 0.73856-3.3926 0.55599-5.111-0.3652-3.4366-2.1679-6.6329-4.6831-8.9596-2.4749-2.2892-5.7059-3.8002-9.0508-3.9044-1.6725-0.05213-3.357 0.24516-4.8986 0.90612-1.5417 0.66098-2.9356 1.6879-4.0019 2.9984-1.2226 1.5023-1.9911 3.328-2.6948 5.1415-0.70368 1.8138-1.3688 3.6629-2.4343 5.2841-1.7571 2.6734-4.5303 5.2128-7.6937 5.2128-3.1634 0-5.9365-2.5394-7.6937-5.2128-1.0655-1.6212-1.7306-3.4701-2.4343-5.2841-0.70368-1.8135-1.4721-3.6392-2.6948-5.1415-1.0665-1.3105-2.4604-2.3374-4.0019-2.9984-1.5417-0.66098-3.2261-0.95825-4.8986-0.90612zm21.724 24.755a5.1289 5.213 0 0 1 5.1289 5.2128 5.1289 5.213 0 0 1-5.1289 5.2128 5.1289 5.213 0 0 1-5.1289-5.2128 5.1289 5.213 0 0 1 5.1289-5.2128z" fill="#fff" stroke-width="2.1348"/>
</svg>
