<svg width="128" height="128" version="1.1" viewBox="0 0 33.867 33.867" xmlns="http://www.w3.org/2000/svg" xmlns:xlink="http://www.w3.org/1999/xlink">
<defs>
<linearGradient id="linearGradient1632" x1="132.21" x2="132.21" y1="42.152" y2="70.68" gradientTransform="matrix(.97573 0 0 .97573 -111.77 -37.183)" gradientUnits="userSpaceOnUse">
<stop stop-color="#ffcd48" offset="0"/>
<stop stop-color="#ffc547" offset="1"/>
</linearGradient>
</defs>
<g transform="matrix(.97573 0 0 .97573 -65.737 -37.183)" fill="none" opacity=".295" stroke="#000" stroke-linecap="round" stroke-linejoin="round" stroke-opacity=".02">
<rect x="69.84" y="40.71" width="29.811" height="29.811" rx="6.6099" ry="6.6099" stroke-width=".1"/>
<rect x="69.84" y="40.71" width="29.811" height="29.811" rx="6.6099" ry="6.6099" stroke-width=".2"/>
<rect x="69.84" y="40.71" width="29.811" height="29.811" rx="6.6099" ry="6.6099" stroke-width=".3"/>
<rect x="69.84" y="40.71" width="29.811" height="29.811" rx="6.6099" ry="6.6099" stroke-width=".4"/>
<rect x="69.84" y="40.71" width="29.811" height="29.811" rx="6.6099" ry="6.6099" stroke-width=".5"/>
<rect x="69.84" y="40.71" width="29.811" height="29.811" rx="6.6099" ry="6.6099" stroke-width=".6"/>
<rect x="69.84" y="40.71" width="29.811" height="29.811" rx="6.6099" ry="6.6099" stroke-width=".7"/>
<rect x="69.84" y="40.71" width="29.811" height="29.811" rx="6.6099" ry="6.6099" stroke-width=".8"/>
<rect x="69.84" y="40.71" width="29.811" height="29.811" rx="6.6099" ry="6.6099"/>
<rect x="69.84" y="40.71" width="29.811" height="29.811" rx="6.6099" ry="6.6099" stroke-width="1.2"/>
<rect x="69.84" y="40.71" width="29.811" height="29.811" rx="6.6099" ry="6.6099" stroke-width="1.4"/>
<rect x="69.84" y="40.71" width="29.811" height="29.811" rx="6.6099" ry="6.6099" stroke-width="1.6"/>
<rect x="69.84" y="40.71" width="29.811" height="29.811" rx="6.6099" ry="6.6099" stroke-width="1.8"/>
<rect x="69.84" y="40.71" width="29.811" height="29.811" rx="6.6099" ry="6.6099" stroke-width="2"/>
<rect x="69.84" y="40.71" width="29.811" height="29.811" rx="6.6099" ry="6.6099" stroke-width="2.2"/>
<rect x="69.84" y="40.71" width="29.811" height="29.811" rx="6.6099" ry="6.6099" stroke-width="2.6"/>
<rect x="69.84" y="40.71" width="29.811" height="29.811" rx="6.6099" ry="6.6099" stroke-width="3"/>
<rect x="69.84" y="40.71" width="29.811" height="29.811" rx="6.6099" ry="6.6099" stroke-width="3.4"/>
<rect x="69.84" y="40.71" width="29.811" height="29.811" rx="6.6099" ry="6.6099" stroke-width="3.8"/>
<rect x="69.84" y="40.71" width="29.811" height="29.811" rx="6.6099" ry="6.6099" stroke-width="4.2"/>
<rect x="69.84" y="40.71" width="29.811" height="29.811" rx="6.6099" ry="6.6099" stroke-width="4.6"/>
<rect x="69.84" y="40.71" width="29.811" height="29.811" rx="6.6099" ry="6.6099" stroke-width="5"/>
</g>
<rect x="2.4074" y="2.5392" width="29.087" height="29.087" rx="6.4495" ry="6.4495" fill="url(#linearGradient1632)" stroke-linecap="round" stroke-linejoin="round" stroke-width="2.6877"/>
<path d="m16.691 7.1156c-5.9564 0-10.752 4.7952-10.752 10.752 0 5.9564 4.7952 10.752 10.752 10.752 5.9564 0 10.752-4.7952 10.752-10.752 0-5.9564-4.7952-10.752-10.752-10.752zm0 2.3039c4.68 0 8.4476 3.7677 8.4476 8.4476 0 1.5426-0.41598 2.9817-1.1325 4.2238h-5.0113a2.3039 2.3039 0 0 0-2.3039-2.3039 2.3039 2.3039 0 0 0-0.08175 0.01277l-2.1359-3.6988a1.0752 1.0752 0 0 0-0.65247-0.50098 1.0752 1.0752 0 0 0-0.81596 0.10725 1.0752 1.0752 0 0 0-0.39373 1.4692l2.1412 3.7071a2.3039 2.3039 0 0 0-0.36523 1.2074h-5.0113c-0.71647-1.2422-1.1325-2.6812-1.1325-4.2238 0-4.68 3.7677-8.4476 8.4476-8.4476zm0 3.0816c-2.4826 0-4.307 0.69443-5.5055 1.3994-1.1985 0.70502-1.8082 1.4564-1.8082 1.4564a0.57598 0.57598 0 0 0 0.09 0.80997 0.57598 0.57598 0 0 0 0.80997-0.08999s0.44631-0.56852 1.4917-1.1835c1.0454-0.61493 2.6528-1.2404 4.922-1.2404s3.8767 0.62552 4.922 1.2404c1.0454 0.61493 1.4917 1.1835 1.4917 1.1835a0.57598 0.57598 0 0 0 0.80997 0.08999 0.57598 0.57598 0 0 0 0.08999-0.80997s-0.60965-0.75142-1.8082-1.4564c-1.1985-0.70502-3.023-1.3994-5.5055-1.3994z" fill="#1a1a1a" stroke-width=".38398"/>
</svg>
