<svg width="128" height="128" version="1.1" viewBox="0 0 128 128" xmlns="http://www.w3.org/2000/svg" xmlns:osb="http://www.openswatchbook.org/uri/2009/osb" xmlns:xlink="http://www.w3.org/1999/xlink">
<defs>
<linearGradient id="linearGradient825" x1="-741.83" x2="-741.83" y1="959.05" y2="93.836" gradientTransform="matrix(.13668 0 0 .13668 162.31 -5.9893)" gradientUnits="userSpaceOnUse">
<stop stop-color="#d8dfe3" offset="0"/>
<stop stop-color="#f5f9fd" offset="1"/>
</linearGradient>
<style id="current-color-scheme" type="text/css">.ColorScheme-Text { color:#5c616c; } .ColorScheme-Highlight { color:#5294e2; }</style>
<style id="current-color-scheme-3" type="text/css">.ColorScheme-Text { color:#5c616c; } .ColorScheme-Highlight { color:#5294e2; }</style>
<style id="current-color-scheme-7" type="text/css">.ColorScheme-Text { color:#5c616c; } .ColorScheme-Highlight { color:#5294e2; }</style>
<style id="current-color-scheme-35" type="text/css">.ColorScheme-Text { color:#5c616c; } .ColorScheme-Highlight { color:#5294e2; }</style>
<style id="current-color-scheme-9" type="text/css">.ColorScheme-Text { color:#5c616c; } .ColorScheme-Highlight { color:#5294e2; }</style>
<style id="current-color-scheme-2" type="text/css">.ColorScheme-Text { color:#5c616c; } .ColorScheme-Highlight { color:#5294e2; }</style>
<style id="current-color-scheme-0" type="text/css">.ColorScheme-Text { color:#5c616c; } .ColorScheme-Highlight { color:#5294e2; }</style>
<style id="current-color-scheme-36" type="text/css">.ColorScheme-Text { color:#5c616c; } .ColorScheme-Highlight { color:#5294e2; }</style>
<style id="current-color-scheme-6" type="text/css">.ColorScheme-Text { color:#5c616c; } .ColorScheme-Highlight { color:#5294e2; }</style>
<style id="current-color-scheme-61" type="text/css">.ColorScheme-Text { color:#5c616c; } .ColorScheme-Highlight { color:#5294e2; }</style>
<style id="current-color-scheme-79" type="text/css">.ColorScheme-Text { color:#5c616c; } .ColorScheme-Highlight { color:#5294e2; }</style>
<style id="current-color-scheme-23" type="text/css">.ColorScheme-Text { color:#5c616c; } .ColorScheme-Highlight { color:#5294e2; }</style>
<style id="current-color-scheme-92" type="text/css">.ColorScheme-Text { color:#5c616c; } .ColorScheme-Highlight { color:#5294e2; }</style>
<style id="current-color-scheme-97" type="text/css">.ColorScheme-Text { color:#5c616c; } .ColorScheme-Highlight { color:#5294e2; }</style>
<style id="current-color-scheme-612" type="text/css">.ColorScheme-Text { color:#5c616c; } .ColorScheme-Highlight { color:#5294e2; }</style>
<style id="current-color-scheme-1" type="text/css">.ColorScheme-Text { color:#5c616c; } .ColorScheme-Highlight { color:#5294e2; }</style>
<style id="current-color-scheme-3-0" type="text/css">.ColorScheme-Text { color:#5c616c; } .ColorScheme-Highlight { color:#5294e2; }</style>
<style id="current-color-scheme-7-6" type="text/css">.ColorScheme-Text { color:#5c616c; } .ColorScheme-Highlight { color:#5294e2; }</style>
<style id="current-color-scheme-35-3" type="text/css">.ColorScheme-Text { color:#5c616c; } .ColorScheme-Highlight { color:#5294e2; }</style>
<style id="current-color-scheme-9-2" type="text/css">.ColorScheme-Text { color:#5c616c; } .ColorScheme-Highlight { color:#5294e2; }</style>
<style id="current-color-scheme-2-0" type="text/css">.ColorScheme-Text { color:#5c616c; } .ColorScheme-Highlight { color:#5294e2; }</style>
<style id="current-color-scheme-0-6" type="text/css">.ColorScheme-Text { color:#5c616c; } .ColorScheme-Highlight { color:#5294e2; }</style>
<style id="current-color-scheme-36-1" type="text/css">.ColorScheme-Text { color:#5c616c; } .ColorScheme-Highlight { color:#5294e2; }</style>
<style id="current-color-scheme-6-5" type="text/css">.ColorScheme-Text { color:#5c616c; } .ColorScheme-Highlight { color:#5294e2; }</style>
<style id="current-color-scheme-61-5" type="text/css">.ColorScheme-Text { color:#5c616c; } .ColorScheme-Highlight { color:#5294e2; }</style>
<style id="current-color-scheme-79-4" type="text/css">.ColorScheme-Text { color:#5c616c; } .ColorScheme-Highlight { color:#5294e2; }</style>
<style id="current-color-scheme-23-7" type="text/css">.ColorScheme-Text { color:#5c616c; } .ColorScheme-Highlight { color:#5294e2; }</style>
<style id="current-color-scheme-92-6" type="text/css">.ColorScheme-Text { color:#5c616c; } .ColorScheme-Highlight { color:#5294e2; }</style>
<style id="current-color-scheme-97-5" type="text/css">.ColorScheme-Text { color:#5c616c; } .ColorScheme-Highlight { color:#5294e2; }</style>
<style id="current-color-scheme-612-6" type="text/css">.ColorScheme-Text { color:#5c616c; } .ColorScheme-Highlight { color:#5294e2; }</style>
<clipPath>
<rect width="384" height="384"/>
</clipPath>
<clipPath>
<rect width="384" height="384"/>
</clipPath>
<clipPath>
<rect width="384" height="384"/>
</clipPath>
<clipPath>
<rect width="384" height="384"/>
</clipPath>
<linearGradient id="linearGradient5161" x1="63.273" x2="63.013" y1="116.36" y2="17.147" gradientUnits="userSpaceOnUse">
<stop stop-color="#eef3f6" offset="0"/>
<stop stop-color="#f5f9fd" offset="1"/>
</linearGradient>
<linearGradient id="e-3" x1="25.68" x2="26.448" y1="39.395" y2="17.376" gradientUnits="userSpaceOnUse">
<stop stop-color="#345f29" offset="0"/>
<stop stop-color="#59a446" offset="1"/>
</linearGradient>
<linearGradient id="a-5" x1="15.707" x2="25.68" y1="32.561" y2="39.395" gradientUnits="userSpaceOnUse">
<stop stop-color="#ad7c59" offset="0"/>
<stop stop-color="#835b41" offset="1"/>
</linearGradient>
</defs>
<circle cx="63.592" cy="64.286" r="61.38" fill="url(#linearGradient825)"/>
<circle cx="63.592" cy="64.286" r="55.09" fill="url(#linearGradient5161)"/>
<g transform="matrix(1.7618 0 0 1.7618 -47.906 -40.405)">
<g transform="translate(95.506 -.32617)" fill="none" opacity=".672" stroke="#000" stroke-linecap="round" stroke-linejoin="round" stroke-opacity=".0078431">
<path d="m-32.221 41.082-16 9.3379v18.66l15.998 9.334v-0.0039l2e-3 0.0039 16-9.334v-18.664l-0.0039 2e-3z" stroke-width=".05"/>
<path d="m-32.221 41.082-16 9.3379v18.66l15.998 9.334v-0.0039l2e-3 0.0039 16-9.334v-18.664l-0.0039 2e-3z" stroke-width=".1"/>
<path d="m-32.221 41.082-16 9.3379v18.66l15.998 9.334v-0.0039l2e-3 0.0039 16-9.334v-18.664l-0.0039 2e-3z" stroke-width=".15"/>
<path d="m-32.221 41.082-16 9.3379v18.66l15.998 9.334v-0.0039l2e-3 0.0039 16-9.334v-18.664l-0.0039 2e-3z" stroke-width=".2"/>
<path d="m-32.221 41.082-16 9.3379v18.66l15.998 9.334v-0.0039l2e-3 0.0039 16-9.334v-18.664l-0.0039 2e-3z" stroke-width=".25"/>
<path d="m-32.221 41.082-16 9.3379v18.66l15.998 9.334v-0.0039l2e-3 0.0039 16-9.334v-18.664l-0.0039 2e-3z" stroke-width=".3"/>
<path d="m-32.221 41.082-16 9.3379v18.66l15.998 9.334v-0.0039l2e-3 0.0039 16-9.334v-18.664l-0.0039 2e-3z" stroke-width=".35"/>
<path d="m-32.221 41.082-16 9.3379v18.66l15.998 9.334v-0.0039l2e-3 0.0039 16-9.334v-18.664l-0.0039 2e-3z" stroke-width=".4"/>
<path d="m-32.221 41.082-16 9.3379v18.66l15.998 9.334v-0.0039l2e-3 0.0039 16-9.334v-18.664l-0.0039 2e-3z" stroke-width=".45"/>
<path d="m-32.221 41.082-16 9.3379v18.66l15.998 9.334v-0.0039l2e-3 0.0039 16-9.334v-18.664l-0.0039 2e-3z" stroke-width=".5"/>
<path d="m-32.221 41.082-16 9.3379v18.66l15.998 9.334v-0.0039l2e-3 0.0039 16-9.334v-18.664l-0.0039 2e-3z" stroke-width=".6"/>
<path d="m-32.221 41.082-16 9.3379v18.66l15.998 9.334v-0.0039l2e-3 0.0039 16-9.334v-18.664l-0.0039 2e-3z" stroke-width=".7"/>
<path d="m-32.221 41.082-16 9.3379v18.66l15.998 9.334v-0.0039l2e-3 0.0039 16-9.334v-18.664l-0.0039 2e-3z" stroke-width=".8"/>
<path d="m-32.221 41.082-16 9.3379v18.66l15.998 9.334v-0.0039l2e-3 0.0039 16-9.334v-18.664l-0.0039 2e-3z" stroke-width=".9"/>
<path d="m-32.221 41.082-16 9.3379v18.66l15.998 9.334v-0.0039l2e-3 0.0039 16-9.334v-18.664l-0.0039 2e-3z"/>
<path d="m-32.221 41.082-16 9.3379v18.66l15.998 9.334v-0.0039l2e-3 0.0039 16-9.334v-18.664l-0.0039 2e-3z" stroke-width="1.1"/>
<path d="m-32.221 41.082-16 9.3379v18.66l15.998 9.334v-0.0039l2e-3 0.0039 16-9.334v-18.664l-0.0039 2e-3z" stroke-width="1.2"/>
<path d="m-32.221 41.082-16 9.3379v18.66l15.998 9.334v-0.0039l2e-3 0.0039 16-9.334v-18.664l-0.0039 2e-3z" stroke-width="1.3"/>
<path d="m-32.221 41.082-16 9.3379v18.66l15.998 9.334v-0.0039l2e-3 0.0039 16-9.334v-18.664l-0.0039 2e-3z" stroke-width="1.4"/>
<path d="m-32.221 41.082-16 9.3379v18.66l15.998 9.334v-0.0039l2e-3 0.0039 16-9.334v-18.664l-0.0039 2e-3z" stroke-width="1.5"/>
<path d="m-32.221 41.082-16 9.3379v18.66l15.998 9.334v-0.0039l2e-3 0.0039 16-9.334v-18.664l-0.0039 2e-3z" stroke-width="1.6"/>
<path d="m-32.221 41.082-16 9.3379v18.66l15.998 9.334v-0.0039l2e-3 0.0039 16-9.334v-18.664l-0.0039 2e-3z" stroke-width="1.8"/>
<path d="m-32.221 41.082-16 9.3379v18.66l15.998 9.334v-0.0039l2e-3 0.0039 16-9.334v-18.664l-0.0039 2e-3z" stroke-width="2"/>
<path d="m-32.221 41.082-16 9.3379v18.66l15.998 9.334v-0.0039l2e-3 0.0039 16-9.334v-18.664l-0.0039 2e-3z" stroke-width="2.2"/>
<path d="m-32.221 41.082-16 9.3379v18.66l15.998 9.334v-0.0039l2e-3 0.0039 16-9.334v-18.664l-0.0039 2e-3z" stroke-width="2.4"/>
<path d="m-32.221 41.082-16 9.3379v18.66l15.998 9.334v-0.0039l2e-3 0.0039 16-9.334v-18.664l-0.0039 2e-3z" stroke-width="2.6"/>
<path d="m-32.221 41.082-16 9.3379v18.66l15.998 9.334v-0.0039l2e-3 0.0039 16-9.334v-18.664l-0.0039 2e-3z" stroke-width="2.8"/>
<path d="m-32.221 41.082-16 9.3379v18.66l15.998 9.334v-0.0039l2e-3 0.0039 16-9.334v-18.664l-0.0039 2e-3z" stroke-width="3"/>
<path d="m-32.221 41.082-16 9.3379v18.66l15.998 9.334v-0.0039l2e-3 0.0039 16-9.334v-18.664l-0.0039 2e-3z" stroke-width="3.2"/>
<path d="m-32.221 41.082-16 9.3379v18.66l15.998 9.334v-0.0039l2e-3 0.0039 16-9.334v-18.664l-0.0039 2e-3z" stroke-width="3.4"/>
<path d="m-32.221 41.082-16 9.3379v18.66l15.998 9.334v-0.0039l2e-3 0.0039 16-9.334v-18.664l-0.0039 2e-3z" stroke-width="3.7"/>
<path d="m-32.221 41.082-16 9.3379v18.66l15.998 9.334v-0.0039l2e-3 0.0039 16-9.334v-18.664l-0.0039 2e-3z" stroke-width="4"/>
<path d="m-32.221 41.082-16 9.3379v18.66l15.998 9.334v-0.0039l2e-3 0.0039 16-9.334v-18.664l-0.0039 2e-3z" stroke-width="4.3"/>
<path d="m-32.221 41.082-16 9.3379v18.66l15.998 9.334v-0.0039l2e-3 0.0039 16-9.334v-18.664l-0.0039 2e-3z" stroke-width="4.6"/>
<path d="m-32.221 41.082-16 9.3379v18.66l15.998 9.334v-0.0039l2e-3 0.0039 16-9.334v-18.664l-0.0039 2e-3z" stroke-width="4.9"/>
<path d="m-32.221 41.082-16 9.3379v18.66l15.998 9.334v-0.0039l2e-3 0.0039 16-9.334v-18.664l-0.0039 2e-3z" stroke-width="5.2"/>
<path d="m-32.221 41.082-16 9.3379v18.66l15.998 9.334v-0.0039l2e-3 0.0039 16-9.334v-18.664l-0.0039 2e-3z" stroke-width="5.5"/>
<path d="m-32.221 41.082-16 9.3379v18.66l15.998 9.334v-0.0039l2e-3 0.0039 16-9.334v-18.664l-0.0039 2e-3z" stroke-width="5.8"/>
</g>
<g transform="matrix(1.3035 0 0 1.317 28.81 19.539)" fill-rule="evenodd">
<path d="m14.173 23.2 12.275 21.257 12.273-21.257-12.273-7.09" fill="url(#e-3)"/>
<path d="m14.173 23.2v3.543l12.274 7.09 1e-3 -3.547z" fill="#59a849"/>
<path d="m26.448 33.827 12.274-7.087v-3.543l-12.274 7.086z" fill="#3e7231"/>
<path d="m14.173 26.74v10.63l12.274 7.087v-10.63z" fill="url(#a-5)"/>
<path d="m26.448 33.827 12.274-7.087v10.63l-12.274 7.087z" fill="#573d2b"/>
</g>
</g>
</svg>
