<svg width="128" height="128" version="1.1" viewBox="0 0 33.867 33.867" xmlns="http://www.w3.org/2000/svg" xmlns:osb="http://www.openswatchbook.org/uri/2009/osb" xmlns:xlink="http://www.w3.org/1999/xlink">
<defs>
<linearGradient id="linearGradient1014" x1="174.79" x2="280.1" y1="250.81" y2="354.68" gradientTransform="matrix(.24529 0 0 .24529 -82.007 204.89)" gradientUnits="userSpaceOnUse">
<stop stop-color="#d75e2b" offset="0"/>
<stop stop-color="#c74ce2" offset=".31248"/>
<stop stop-color="#a44ae7" offset=".44736"/>
<stop stop-color="#8248ed" offset=".67856"/>
<stop stop-color="#3d45f8" offset="1"/>
</linearGradient>
<linearGradient id="linearGradient1029" x1="238.14" x2="238.14" y1="362.08" y2="278.42" gradientTransform="matrix(.24239 -.037664 .037664 .24239 -49.575 215.05)" gradientUnits="userSpaceOnUse">
<stop stop-color="#eaeaea" offset="0"/>
<stop stop-color="#fbfbfb" offset="1"/>
</linearGradient>
</defs>
<g transform="translate(0 -263.13)">
<rect transform="rotate(-8.8325)" x="-39.131" y="264.37" width="25.83" height="29.567" rx="1.4423" ry="1.4423" fill="url(#linearGradient1014)" style="paint-order:fill markers stroke"/>
<path d="m3.3503 267.02c-0.78957 0.12269-1.3264 0.85705-1.2037 1.6466l0.092529 0.59546c-0.12269-0.78956 0.41414-1.5239 1.2037-1.6466l22.674-3.5232c0.78957-0.12269 1.5241 0.41413 1.6467 1.2037l-0.09253-0.59547c-0.12269-0.78956-0.85717-1.3264-1.6467-1.2037z" fill="#fff" fill-opacity=".23954" style="paint-order:fill markers stroke"/>
<path d="m30.35 281.94 1.3645 8.7813c0.12269 0.78956-0.41418 1.524-1.2037 1.6467l-22.674 3.5232c-0.78957 0.12269-1.524-0.41418-1.6467-1.2038l-1.3645-8.7813z" fill-opacity=".14068" style="paint-order:fill markers stroke"/>
<path d="m30.403 282.28 1.3645 8.7813c0.12269 0.78956-0.41418 1.524-1.2037 1.6467l-22.674 3.5232c-0.78957 0.12269-1.524-0.41419-1.6467-1.2038l-1.3645-8.7813z" fill="url(#linearGradient1029)" style="paint-order:fill markers stroke"/>
<path d="m7.8903 296.23c-0.78957 0.12269-1.5239-0.41414-1.6466-1.2037l-0.092528-0.59546c0.12269 0.78956 0.85705 1.3264 1.6466 1.2037l22.674-3.5232c0.78957-0.12269 1.3265-0.85707 1.2038-1.6466l0.09253 0.59546c0.12269 0.78957-0.41427 1.524-1.2038 1.6466z" fill-opacity=".068441" style="paint-order:fill markers stroke"/>
<path d="m15.701 287.21 0.83834 5.3952 4.2533-3.4236zm-5.3362 2.0441-3.0149 2.4268 3.6091 1.3975-0.15981-1.0285 1.9413 0.75165-0.59425-3.8243-1.6217 1.3053zm13.414-2.0844 0.59425 3.8243 1.6217-1.3053 0.15981 1.0285 3.0149-2.4268-3.6091-1.3975 0.15981 1.0285z" fill="#4d4d4d" style="paint-order:fill markers stroke"/>
<path d="m4.8792 286.25 0.035228 0.22671 25.524-3.9662-0.03523-0.22671z" fill="#fff" fill-opacity=".053232" style="paint-order:fill markers stroke"/>
<path d="m15.701 287.21 0.83834 5.3952 4.2533-3.4236z" fill="#ca4cf6" style="paint-order:fill markers stroke"/>
<path transform="matrix(.26458 0 0 .26458 0 263.13)" d="m58.791 19.865c-1.1227 0-1.9721 0.90603-2.0273 2.0273l-0.16602 3.3516a21.822 21.822 0 0 0-4.6191 1.9199l-2.4395-2.209c-0.83195-0.75383-2.0714-0.79389-2.8652 0l-5.4414 5.4414c-0.79385 0.79385-0.79386 2.0733 0 2.8672l2.2129 2.3945a21.822 21.822 0 0 0-1.9082 4.6641l-3.3691 0.16602c-1.1227 0-2.0273 0.90471-2.0273 2.0273v7.6973c0 1.1227 0.90552 1.9812 2.0273 2.0254l3.4199 0.13477a21.822 21.822 0 0 0 1.9121 4.5176l-2.2676 2.5039c-0.79386 0.79389-0.79385 2.0694 0 2.8633l5.4414 5.4434c0.79385 0.79385 2.0407 0.76195 2.8652 0l2.5059-2.3145a21.822 21.822 0 0 0 4.5527 1.8398l0.16602 3.3691c0 1.1227 0.90466 2.0254 2.0273 2.0254h7.6973c1.1227 0 1.9832-0.90359 2.0273-2.0254l0.13477-3.4238a21.822 21.822 0 0 0 4.4316-1.8613l2.5879 2.3906c0.8245 0.76195 2.0714 0.79385 2.8652 0l5.4434-5.4434c0.79386-0.79385 0.79386-2.0694 0-2.8633l-2.3613-2.6055a21.822 21.822 0 0 0 1.8301-4.416l3.4238-0.13477c1.1227 0 2.0254-0.90268 2.0254-2.0254v-7.6973c0-1.1226-0.90406-1.972-2.0254-2.0273l-3.3516-0.16602a21.822 21.822 0 0 0-1.873-4.5352l2.332-2.5234c0.79386-0.79385 0.79386-2.0733 0-2.8672l-5.4434-5.4414c-0.79385-0.79389-2.0333-0.75383-2.8652 0l-2.4922 2.2598a21.822 21.822 0 0 0-4.5273-1.9004l-0.13477-3.4219c0-1.1227-0.90466-2.0273-2.0273-2.0273h-7.6973zm-4.2441 17.832 19.242 7.4512-16.074 12.939-3.168-20.391z" fill="#f9f9f9" style="paint-order:fill markers stroke"/>
</g>
</svg>
