<svg width="128" height="128" version="1.1" viewBox="0 0 33.867 33.867" xmlns="http://www.w3.org/2000/svg" xmlns:xlink="http://www.w3.org/1999/xlink">
<defs>
<linearGradient id="linearGradient936" x1="-27.206" x2="-27.206" y1="-1.3796" y2="25.268" gradientTransform="translate(43.842 5.6325)" gradientUnits="userSpaceOnUse">
<stop stop-color="#f5f9fb" offset="0"/>
<stop stop-color="#f5eeec" offset="1"/>
</linearGradient>
<filter id="b-367" x="-.065871" y="-.16468" width="1.1317" height="1.3294" color-interpolation-filters="sRGB">
<feGaussianBlur stdDeviation="1.074"/>
</filter>
<filter id="c-5" x="-.050416" y="-.16806" width="1.1008" height="1.3361" color-interpolation-filters="sRGB">
<feGaussianBlur stdDeviation=".548"/>
</filter>
</defs>
<g transform="matrix(.97573 0 0 .97573 -65.777 -37.256)" fill="none" opacity=".29676" stroke="#000" stroke-linecap="round" stroke-linejoin="round" stroke-opacity=".02">
<rect x="69.84" y="40.71" width="29.811" height="29.811" rx="6.6099" ry="6.6099" stroke-width=".1"/>
<rect x="69.84" y="40.71" width="29.811" height="29.811" rx="6.6099" ry="6.6099" stroke-width=".2"/>
<rect x="69.84" y="40.71" width="29.811" height="29.811" rx="6.6099" ry="6.6099" stroke-width=".3"/>
<rect x="69.84" y="40.71" width="29.811" height="29.811" rx="6.6099" ry="6.6099" stroke-width=".4"/>
<rect x="69.84" y="40.71" width="29.811" height="29.811" rx="6.6099" ry="6.6099" stroke-width=".5"/>
<rect x="69.84" y="40.71" width="29.811" height="29.811" rx="6.6099" ry="6.6099" stroke-width=".6"/>
<rect x="69.84" y="40.71" width="29.811" height="29.811" rx="6.6099" ry="6.6099" stroke-width=".7"/>
<rect x="69.84" y="40.71" width="29.811" height="29.811" rx="6.6099" ry="6.6099" stroke-width=".8"/>
<rect x="69.84" y="40.71" width="29.811" height="29.811" rx="6.6099" ry="6.6099"/>
<rect x="69.84" y="40.71" width="29.811" height="29.811" rx="6.6099" ry="6.6099" stroke-width="1.2"/>
<rect x="69.84" y="40.71" width="29.811" height="29.811" rx="6.6099" ry="6.6099" stroke-width="1.4"/>
<rect x="69.84" y="40.71" width="29.811" height="29.811" rx="6.6099" ry="6.6099" stroke-width="1.6"/>
<rect x="69.84" y="40.71" width="29.811" height="29.811" rx="6.6099" ry="6.6099" stroke-width="1.8"/>
<rect x="69.84" y="40.71" width="29.811" height="29.811" rx="6.6099" ry="6.6099" stroke-width="2"/>
<rect x="69.84" y="40.71" width="29.811" height="29.811" rx="6.6099" ry="6.6099" stroke-width="2.2"/>
<rect x="69.84" y="40.71" width="29.811" height="29.811" rx="6.6099" ry="6.6099" stroke-width="2.6"/>
<rect x="69.84" y="40.71" width="29.811" height="29.811" rx="6.6099" ry="6.6099" stroke-width="3"/>
<rect x="69.84" y="40.71" width="29.811" height="29.811" rx="6.6099" ry="6.6099" stroke-width="3.4"/>
<rect x="69.84" y="40.71" width="29.811" height="29.811" rx="6.6099" ry="6.6099" stroke-width="3.8"/>
<rect x="69.84" y="40.71" width="29.811" height="29.811" rx="6.6099" ry="6.6099" stroke-width="4.2"/>
<rect x="69.84" y="40.71" width="29.811" height="29.811" rx="6.6099" ry="6.6099" stroke-width="4.6"/>
<rect x="69.84" y="40.71" width="29.811" height="29.811" rx="6.6099" ry="6.6099" stroke-width="5"/>
</g>
<rect x="2.3673" y="2.4659" width="29.087" height="29.087" rx="6.4495" ry="6.4495" fill="url(#linearGradient936)" stroke-linecap="round" stroke-linejoin="round" stroke-width="2.6877"/>
<path transform="matrix(.60606 0 0 .60606 -2.3361 -2.6019)" d="m23.522 25.478c-1.565 0-3.26 1.304-5.87 3.913-1.81 1.81-3.913 3.913-3.913 5.217 0 1.305 1.894 2.842 3.913 4.24s4.044 2.282 5.74 2.282 2.871-1.11 5.673-3.913c2.61-2.609 2.935-3.913 2.935-4.565 0-1.304-1.304-2.935-3.26-4.565-1.678-1.398-3.653-2.609-5.218-2.609zm19.565 0c-1.565 0-3.54 1.21-5.217 2.609-1.957 1.63-3.261 3.26-3.261 4.565 0 0.652 0.326 1.956 2.935 4.565 2.802 2.803 3.977 3.913 5.673 3.913s3.72-0.885 5.74-2.283c2.019-1.397 3.913-2.934 3.913-4.239 0-1.304-2.104-3.408-3.913-5.217-2.61-2.609-4.305-3.913-5.87-3.913z" filter="url(#b-367)" opacity=".1"/>
<path d="m11.129 12.049c-0.94848 0-1.9757 0.7903-3.5576 2.3715-1.097 1.097-2.3715 2.3715-2.3715 3.1618 0 0.7903 1.1479 1.7224 2.3715 2.5697 1.2242 0.84666 2.4509 1.383 3.4788 1.383 1.0279 0 1.74-0.67272 3.4382-2.3715 1.5818-1.5812 1.7788-2.3715 1.7788-2.7667 0-0.7903-0.7903-1.7788-1.9757-2.7667-1.017-0.84727-2.2139-1.5812-3.1624-1.5812zm11.858 0c-0.94848 0-2.1454 0.73333-3.1618 1.5812-1.1861 0.98787-1.9764 1.9757-1.9764 2.7667 0 0.39515 0.19757 1.1854 1.7782 2.7667 1.6988 1.6988 2.4109 2.3715 3.4388 2.3715 1.0279 0 2.2545-0.53636 3.4788-1.3836 1.2236-0.84666 2.3715-1.7782 2.3715-2.5691 0-0.7909-1.2751-2.0654-2.3715-3.1618-1.5818-1.5812-2.6091-2.3715-3.5576-2.3715z" fill="#424957" stroke-width=".60606"/>
<path transform="matrix(.60606 0 0 .60606 -2.3361 -2.6019)" d="m24.174 29.391a3.913 3.913 0 0 0-3.913 3.913 3.913 3.913 0 0 0 3.913 3.913 3.913 3.913 0 0 0 3.913-3.913 3.913 3.913 0 0 0-3.913-3.913zm18.261 0a3.913 3.913 0 0 0-3.913 3.913 3.913 3.913 0 0 0 3.913 3.913 3.913 3.913 0 0 0 3.913-3.913 3.913 3.913 0 0 0-3.913-3.913zm-18.261 2.609a1.304 1.304 0 0 1 1.304 1.304 1.304 1.304 0 0 1-1.304 1.304 1.304 1.304 0 0 1-1.304-1.304 1.304 1.304 0 0 1 1.304-1.304zm18.261 0a1.304 1.304 0 0 1 1.304 1.304 1.304 1.304 0 0 1-1.304 1.304 1.304 1.304 0 0 1-1.304-1.304 1.304 1.304 0 0 1 1.304-1.304z" filter="url(#c-5)" opacity=".1"/>
<path d="m11.524 14.42a2.3715 2.3715 0 0 0-2.3715 2.3715 2.3715 2.3715 0 0 0 2.3715 2.3715 2.3715 2.3715 0 0 0 2.3715-2.3715 2.3715 2.3715 0 0 0-2.3715-2.3715zm11.067 0a2.3715 2.3715 0 0 0-2.3715 2.3715 2.3715 2.3715 0 0 0 2.3715 2.3715 2.3715 2.3715 0 0 0 2.3715-2.3715 2.3715 2.3715 0 0 0-2.3715-2.3715zm-11.067 1.5812a0.7903 0.7903 0 0 1 0.7903 0.7903 0.7903 0.7903 0 0 1-0.7903 0.7903 0.7903 0.7903 0 0 1-0.7903-0.7903 0.7903 0.7903 0 0 1 0.7903-0.7903zm11.067 0a0.7903 0.7903 0 0 1 0.7903 0.7903 0.7903 0.7903 0 0 1-0.7903 0.7903 0.7903 0.7903 0 0 1-0.7903-0.7903 0.7903 0.7903 0 0 1 0.7903-0.7903z" fill="#f0f0f0" stroke-width=".60606"/>
</svg>
