<svg width="128" height="128" version="1.1" viewBox="0 0 33.867 33.867" xmlns="http://www.w3.org/2000/svg" xmlns:xlink="http://www.w3.org/1999/xlink">
<defs>
<linearGradient id="linearGradient897" x1="2686" x2="2686" y1="1088.8" y2="1770.4" gradientTransform="matrix(.042779 0 0 .042779 -95.919 -44.867)" gradientUnits="userSpaceOnUse">
<stop stop-color="#ffcc60" offset="0"/>
<stop stop-color="#ff0202" offset="1"/>
</linearGradient>
<radialGradient id="radialGradient898" cx="60.636" cy="20.456" r="17.304" gradientTransform="translate(-43.433 -3.9449)" gradientUnits="userSpaceOnUse">
<stop stop-color="#0b0b0b" offset="0"/>
<stop stop-color="#0b0b0b" stop-opacity=".85882" offset=".68076"/>
<stop stop-color="#0b0b0b" stop-opacity=".83137" offset=".69925"/>
<stop stop-color="#0b0b0b" stop-opacity=".80392" offset=".71879"/>
<stop stop-color="#0b0b0b" stop-opacity=".78039" offset=".73593"/>
<stop stop-color="#0b0b0b" stop-opacity=".75686" offset=".75022"/>
<stop stop-color="#0b0b0b" stop-opacity=".73333" offset=".76799"/>
<stop stop-color="#0b0b0b" stop-opacity=".082353" offset=".91501"/>
<stop stop-color="#0b0b0b" stop-opacity=".070588" offset=".92247"/>
<stop stop-color="#0b0b0b" stop-opacity=".058824" offset=".92919"/>
<stop stop-color="#0b0b0b" stop-opacity=".047059" offset=".93841"/>
<stop stop-color="#0b0b0b" stop-opacity=".031373" offset=".94761"/>
<stop stop-color="#0b0b0b" stop-opacity=".023529" offset=".95381"/>
<stop stop-color="#0b0b0b" stop-opacity=".015686" offset=".95886"/>
<stop stop-color="#0b0b0b" stop-opacity=".011765" offset=".96356"/>
<stop stop-color="#0b0b0b" stop-opacity=".0078431" offset=".96845"/>
<stop stop-color="#0b0b0b" stop-opacity=".0039216" offset=".97348"/>
<stop stop-color="#0b0b0b" stop-opacity="0" offset=".97812"/>
<stop stop-color="#0b0b0b" stop-opacity="0" offset=".98456"/>
<stop stop-color="#0b0b0b" stop-opacity="0" offset=".98701"/>
<stop stop-color="#0b0b0b" stop-opacity="0" offset=".98925"/>
<stop stop-color="#0b0b0b" stop-opacity="0" offset="1"/>
</radialGradient>
<radialGradient id="radialGradient993" cx="16.968" cy="3.7659" r="13.696" gradientTransform="matrix(4.8886 0 0 1.8641 -65.724 -2.4383)" gradientUnits="userSpaceOnUse">
<stop stop-color="#ffb648" offset="0"/>
<stop stop-color="#ff332b" offset="1"/>
</radialGradient>
</defs>
<circle cx="17.203" cy="16.512" r="17.304" fill="url(#radialGradient898)" opacity=".30973" stroke-linecap="square" stroke-linejoin="round" stroke-width="3"/>
<circle cx="17.203" cy="16.512" r="15.118" fill="url(#linearGradient897)" stroke="#b1aaaa" stroke-linecap="square" stroke-opacity=".99216" stroke-width=".057556"/>
<circle cx="17.203" cy="16.512" r="13.102" fill="url(#radialGradient993)"/>
<path d="m20.215 8.5324a5.8292 1.9431 0 0 0-5.8292 1.9431 5.8292 1.9431 0 0 0 5.8292 1.9431 5.8292 1.9431 0 0 0 5.8292-1.9431 5.8292 1.9431 0 0 0-5.8292-1.9431zm5.6375 3.3984a5.8292 1.9431 0 0 1-5.6375 1.4592 5.8292 1.9431 0 0 1-5.6375-1.4554 5.8292 1.9431 0 0 0-0.19165 0.48387 5.8292 1.9431 0 0 0 5.8292 1.9431 5.8292 1.9431 0 0 0 5.8292-1.9431 5.8292 1.9431 0 0 0-0.19165-0.48766zm0 1.9431a5.8292 1.9431 0 0 1-5.6375 1.4592 5.8292 1.9431 0 0 1-5.6375-1.4554 5.8292 1.9431 0 0 0-0.19165 0.48387 5.8292 1.9431 0 0 0 0.8406 0.99999c1.7661 0.08579 3.2637 0.43056 4.1442 0.92029a5.8292 1.9431 0 0 0 0.84439 0.02277 5.8292 1.9431 0 0 0 5.8292-1.9431 5.8292 1.9431 0 0 0-0.19165-0.48766zm0 1.9431a5.8292 1.9431 0 0 1-5.6375 1.4592s7e-5 0.70852 0 0.97153a5.8292 1.9431 0 0 0 5.8292-1.9431 5.8292 1.9431 0 0 0-0.19165-0.48766zm0 1.9431a5.8292 1.9431 0 0 1-5.6375 1.4592c-9e-5 0.42264 7e-5 0.49262 0 0.97153a5.8292 1.9431 0 0 0 5.8292-1.9431 5.8292 1.9431 0 0 0-0.19165-0.48766zm0 1.9431a5.8292 1.9431 0 0 1-5.6375 1.4592c0 0.43179-1.14e-4 0.69022 0 0.97153a5.8292 1.9431 0 0 0 5.8292-1.9431 5.8292 1.9431 0 0 0-0.19165-0.48766zm0 1.9431a5.8292 1.9431 0 0 1-5.6375 1.4592c0 0.34709-0.29582 0.66864-0.77418 0.95066a5.8292 1.9431 0 0 0 0.77418 0.02088 5.8292 1.9431 0 0 0 5.8292-1.9431 5.8292 1.9431 0 0 0-0.19165-0.48766z" opacity=".2" stroke-width=".48576"/>
<path d="m14.386 15.333a5.8292 1.9431 0 0 0-5.8292 1.9431 5.8292 1.9431 0 0 0 5.8292 1.9431 5.8292 1.9431 0 0 0 5.8292-1.9431 5.8292 1.9431 0 0 0-5.8292-1.9431zm5.6375 3.3984a5.8292 1.9431 0 0 1-5.6375 1.4592 5.8292 1.9431 0 0 1-5.6375-1.4554 5.8292 1.9431 0 0 0-0.19165 0.48387 5.8292 1.9431 0 0 0 5.8292 1.9431 5.8292 1.9431 0 0 0 5.8292-1.9431 5.8292 1.9431 0 0 0-0.19165-0.48766zm0 1.9431a5.8292 1.9431 0 0 1-5.6375 1.4592 5.8292 1.9431 0 0 1-5.6375-1.4554 5.8292 1.9431 0 0 0-0.19165 0.48387 5.8292 1.9431 0 0 0 5.8292 1.9431 5.8292 1.9431 0 0 0 5.8292-1.9431 5.8292 1.9431 0 0 0-0.19165-0.48766zm0 1.9431a5.8292 1.9431 0 0 1-5.6375 1.4592 5.8292 1.9431 0 0 1-5.6375-1.4554 5.8292 1.9431 0 0 0-0.19165 0.48387 5.8292 1.9431 0 0 0 5.8292 1.9431 5.8292 1.9431 0 0 0 5.8292-1.9431 5.8292 1.9431 0 0 0-0.19165-0.48766z" opacity=".2" stroke-width=".48576"/>
<path d="m20.215 8.0467a5.8292 1.9431 0 0 0-5.8292 1.9431 5.8292 1.9431 0 0 0 5.8292 1.9431 5.8292 1.9431 0 0 0 5.8292-1.9431 5.8292 1.9431 0 0 0-5.8292-1.9431zm5.6375 3.3984a5.8292 1.9431 0 0 1-5.6375 1.4592 5.8292 1.9431 0 0 1-5.6375-1.4554 5.8292 1.9431 0 0 0-0.19165 0.48387 5.8292 1.9431 0 0 0 5.8292 1.9431 5.8292 1.9431 0 0 0 5.8292-1.9431 5.8292 1.9431 0 0 0-0.19165-0.48766zm0 1.9431a5.8292 1.9431 0 0 1-5.6375 1.4592 5.8292 1.9431 0 0 1-5.6375-1.4554 5.8292 1.9431 0 0 0-0.19165 0.48387 5.8292 1.9431 0 0 0 0.8406 0.99999c1.7661 0.08577 3.2637 0.43056 4.1442 0.92029a5.8292 1.9431 0 0 0 0.84439 0.02277 5.8292 1.9431 0 0 0 5.8292-1.9431 5.8292 1.9431 0 0 0-0.19165-0.48766zm0 1.9431a5.8292 1.9431 0 0 1-5.6375 1.4592s7e-5 0.70852 0 0.97153a5.8292 1.9431 0 0 0 5.8292-1.9431 5.8292 1.9431 0 0 0-0.19165-0.48766zm0 1.9431a5.8292 1.9431 0 0 1-5.6375 1.4592c-9e-5 0.42265 7e-5 0.49262 0 0.97153a5.8292 1.9431 0 0 0 5.8292-1.9431 5.8292 1.9431 0 0 0-0.19165-0.48766zm0 1.9431a5.8292 1.9431 0 0 1-5.6375 1.4592c0 0.43179-1.14e-4 0.69023 0 0.97152a5.8292 1.9431 0 0 0 5.8292-1.9431 5.8292 1.9431 0 0 0-0.19165-0.48766zm0 1.9431a5.8292 1.9431 0 0 1-5.6375 1.4592c0 0.34709-0.29582 0.66864-0.77418 0.95065a5.8292 1.9431 0 0 0 0.77418 0.02088 5.8292 1.9431 0 0 0 5.8292-1.9431 5.8292 1.9431 0 0 0-0.19165-0.48766z" fill="#ffd8c6" stroke-width=".48576"/>
<path d="m14.386 14.847a5.8292 1.9431 0 0 0-5.8292 1.9431 5.8292 1.9431 0 0 0 5.8292 1.9431 5.8292 1.9431 0 0 0 5.8292-1.9431 5.8292 1.9431 0 0 0-5.8292-1.9431zm5.6375 3.3984a5.8292 1.9431 0 0 1-5.6375 1.4592 5.8292 1.9431 0 0 1-5.6375-1.4554 5.8292 1.9431 0 0 0-0.19165 0.48387 5.8292 1.9431 0 0 0 5.8292 1.9431 5.8292 1.9431 0 0 0 5.8292-1.9431 5.8292 1.9431 0 0 0-0.19165-0.48766zm0 1.9431a5.8292 1.9431 0 0 1-5.6375 1.4592 5.8292 1.9431 0 0 1-5.6375-1.4554 5.8292 1.9431 0 0 0-0.19165 0.48387 5.8292 1.9431 0 0 0 5.8292 1.9431 5.8292 1.9431 0 0 0 5.8292-1.9431 5.8292 1.9431 0 0 0-0.19165-0.48766zm0 1.9431a5.8292 1.9431 0 0 1-5.6375 1.4592 5.8292 1.9431 0 0 1-5.6375-1.4554 5.8292 1.9431 0 0 0-0.19165 0.48387 5.8292 1.9431 0 0 0 5.8292 1.9431 5.8292 1.9431 0 0 0 5.8292-1.9431 5.8292 1.9431 0 0 0-0.19165-0.48766z" fill="#fff" stroke-width=".48576"/>
</svg>
