<svg width="128" height="128" version="1.1" viewBox="0 0 33.867 33.867" xmlns="http://www.w3.org/2000/svg" xmlns:xlink="http://www.w3.org/1999/xlink">
<defs>
<linearGradient id="linearGradient953" x1="429.37" x2="329.28" y1="323.76" y2="253.73" gradientTransform="translate(.50513 .50513)" gradientUnits="userSpaceOnUse">
<stop stop-color="#e5e7ef" offset="0"/>
<stop stop-color="#ecedf3" offset="1"/>
</linearGradient>
<linearGradient id="linearGradient955" x1="388.84" x2="388.84" y1="223.75" y2="249.39" gradientTransform="translate(.50513 .50513)" gradientUnits="userSpaceOnUse">
<stop stop-color="#141100" offset="0"/>
<stop stop-color="#030200" offset="1"/>
</linearGradient>
<radialGradient id="radialGradient968" cx="16.12" cy="27.271" r="14.544" gradientTransform="matrix(4.1118 -4.1118 1.5627 1.5627 -82.991 51.089)" gradientUnits="userSpaceOnUse">
<stop stop-color="#846ddf" offset="0"/>
<stop stop-color="#c076d7" offset="1"/>
</radialGradient>
</defs>
<g transform="matrix(.97573 0 0 .97573 -65.83 -36.915)" fill="none" opacity=".13962" stroke="#000" stroke-linecap="round" stroke-linejoin="round" stroke-opacity=".02">
<rect x="69.84" y="40.71" width="29.811" height="29.811" rx="6.6099" ry="6.6099" stroke-width=".1"/>
<rect x="69.84" y="40.71" width="29.811" height="29.811" rx="6.6099" ry="6.6099" stroke-width=".2"/>
<rect x="69.84" y="40.71" width="29.811" height="29.811" rx="6.6099" ry="6.6099" stroke-width=".3"/>
<rect x="69.84" y="40.71" width="29.811" height="29.811" rx="6.6099" ry="6.6099" stroke-width=".4"/>
<rect x="69.84" y="40.71" width="29.811" height="29.811" rx="6.6099" ry="6.6099" stroke-width=".5"/>
<rect x="69.84" y="40.71" width="29.811" height="29.811" rx="6.6099" ry="6.6099" stroke-width=".6"/>
<rect x="69.84" y="40.71" width="29.811" height="29.811" rx="6.6099" ry="6.6099" stroke-width=".7"/>
<rect x="69.84" y="40.71" width="29.811" height="29.811" rx="6.6099" ry="6.6099" stroke-width=".8"/>
<rect x="69.84" y="40.71" width="29.811" height="29.811" rx="6.6099" ry="6.6099"/>
<rect x="69.84" y="40.71" width="29.811" height="29.811" rx="6.6099" ry="6.6099" stroke-width="1.2"/>
<rect x="69.84" y="40.71" width="29.811" height="29.811" rx="6.6099" ry="6.6099" stroke-width="1.4"/>
<rect x="69.84" y="40.71" width="29.811" height="29.811" rx="6.6099" ry="6.6099" stroke-width="1.6"/>
<rect x="69.84" y="40.71" width="29.811" height="29.811" rx="6.6099" ry="6.6099" stroke-width="1.8"/>
<rect x="69.84" y="40.71" width="29.811" height="29.811" rx="6.6099" ry="6.6099" stroke-width="2"/>
<rect x="69.84" y="40.71" width="29.811" height="29.811" rx="6.6099" ry="6.6099" stroke-width="2.2"/>
<rect x="69.84" y="40.71" width="29.811" height="29.811" rx="6.6099" ry="6.6099" stroke-width="2.6"/>
<rect x="69.84" y="40.71" width="29.811" height="29.811" rx="6.6099" ry="6.6099" stroke-width="3"/>
<rect x="69.84" y="40.71" width="29.811" height="29.811" rx="6.6099" ry="6.6099" stroke-width="3.4"/>
<rect x="69.84" y="40.71" width="29.811" height="29.811" rx="6.6099" ry="6.6099" stroke-width="3.8"/>
<rect x="69.84" y="40.71" width="29.811" height="29.811" rx="6.6099" ry="6.6099" stroke-width="4.2"/>
<rect x="69.84" y="40.71" width="29.811" height="29.811" rx="6.6099" ry="6.6099" stroke-width="4.6"/>
<rect x="69.84" y="40.71" width="29.811" height="29.811" rx="6.6099" ry="6.6099" stroke-width="5"/>
</g>
<rect x="2.2835" y="2.4875" width="29.087" height="29.087" rx="6.4495" ry="6.4495" fill="url(#radialGradient968)" stroke-linecap="round" stroke-linejoin="round" stroke-width="2.6877"/>
<path transform="scale(.26458)" d="m40.238 9.4023a1.9316 1.9316 0 0 0-1.9316 1.9316 1.9316 1.9316 0 0 0 1.9316 1.9316 1.9316 1.9316 0 0 0 1.9316-1.9316 1.9316 1.9316 0 0 0-1.9316-1.9316zm9.6211 0a1.9316 1.9316 0 0 0-1.9316 1.9316 1.9316 1.9316 0 0 0 1.9316 1.9316 1.9316 1.9316 0 0 0 1.9316-1.9316 1.9316 1.9316 0 0 0-1.9316-1.9316zm9.6211 0a1.9316 1.9316 0 0 0-1.9316 1.9316 1.9316 1.9316 0 0 0 1.9316 1.9316 1.9316 1.9316 0 0 0 1.9316-1.9316 1.9316 1.9316 0 0 0-1.9316-1.9316zm9.6191 0a1.9316 1.9316 0 0 0-1.9316 1.9316 1.9316 1.9316 0 0 0 1.9316 1.9316 1.9316 1.9316 0 0 0 1.9316-1.9316 1.9316 1.9316 0 0 0-1.9316-1.9316zm9.6211 0a1.9316 1.9316 0 0 0-1.9316 1.9316 1.9316 1.9316 0 0 0 1.9316 1.9316 1.9316 1.9316 0 0 0 1.9316-1.9316 1.9316 1.9316 0 0 0-1.9316-1.9316zm9.6191 0a1.9316 1.9316 0 0 0-1.9316 1.9316 1.9316 1.9316 0 0 0 1.9316 1.9316 1.9316 1.9316 0 0 0 1.9316-1.9316 1.9316 1.9316 0 0 0-1.9316-1.9316zm-57.184 0.076172c-0.48542 0.036146-0.96644 0.084508-1.4434 0.14844a1.9316 1.9316 0 0 0-1.0254 1.707 1.9316 1.9316 0 0 0 1.9316 1.9316 1.9316 1.9316 0 0 0 1.9316-1.9316 1.9316 1.9316 0 0 0-1.3945-1.8555zm65.986 0.10547a1.9316 1.9316 0 0 0-1.1133 1.75 1.9316 1.9316 0 0 0 1.9316 1.9316 1.9316 1.9316 0 0 0 1.9316-1.9316 1.9316 1.9316 0 0 0-0.59961-1.3984c-0.70606-0.14928-1.4228-0.26446-2.1504-0.35156zm-74.229 1.9922c-0.96202 0.43602-1.8915 0.93008-2.7812 1.4824a1.9316 1.9316 0 0 0 0.86524 0.20703 1.9316 1.9316 0 0 0 1.916-1.6895zm83.076 0.85352a1.9316 1.9316 0 0 0 1.377 0.82422c-0.44957-0.28843-0.90765-0.5652-1.377-0.82422zm-84.992 4.0996a1.9316 1.9316 0 0 0-1.9316 1.9316 1.9316 1.9316 0 0 0 1.9316 1.9316 1.9316 1.9316 0 0 0 1.9316-1.9316 1.9316 1.9316 0 0 0-1.9316-1.9316zm9.6211 0a1.9316 1.9316 0 0 0-1.9316 1.9316 1.9316 1.9316 0 0 0 1.9316 1.9316 1.9316 1.9316 0 0 0 1.9316-1.9316 1.9316 1.9316 0 0 0-1.9316-1.9316zm9.6191 0a1.9316 1.9316 0 0 0-1.9316 1.9316 1.9316 1.9316 0 0 0 1.9316 1.9316 1.9316 1.9316 0 0 0 1.9316-1.9316 1.9316 1.9316 0 0 0-1.9316-1.9316zm9.6211 0a1.9316 1.9316 0 0 0-1.9316 1.9316 1.9316 1.9316 0 0 0 1.9316 1.9316 1.9316 1.9316 0 0 0 1.9316-1.9316 1.9316 1.9316 0 0 0-1.9316-1.9316zm9.6211 0a1.9316 1.9316 0 0 0-1.9316 1.9316 1.9316 1.9316 0 0 0 1.9316 1.9316 1.9316 1.9316 0 0 0 1.9316-1.9316 1.9316 1.9316 0 0 0-1.9316-1.9316zm9.6191 0a1.9316 1.9316 0 0 0-1.9316 1.9316 1.9316 1.9316 0 0 0 1.9316 1.9316 1.9316 1.9316 0 0 0 1.9316-1.9316 1.9316 1.9316 0 0 0-1.9316-1.9316zm9.6211 0a1.9316 1.9316 0 0 0-1.9316 1.9316 1.9316 1.9316 0 0 0 1.9316 1.9316 1.9316 1.9316 0 0 0 1.9316-1.9316 1.9316 1.9316 0 0 0-1.9316-1.9316zm9.6191 0a1.9316 1.9316 0 0 0-1.9316 1.9316 1.9316 1.9316 0 0 0 1.9316 1.9316 1.9316 1.9316 0 0 0 1.9316-1.9316 1.9316 1.9316 0 0 0-1.9316-1.9316zm9.6211 0a1.9316 1.9316 0 0 0-1.9316 1.9316 1.9316 1.9316 0 0 0 1.9316 1.9316 1.9316 1.9316 0 0 0 1.9316-1.9316 1.9316 1.9316 0 0 0-1.9316-1.9316zm9.6191 0a1.9316 1.9316 0 0 0-1.9316 1.9316 1.9316 1.9316 0 0 0 1.9316 1.9316 1.9316 1.9316 0 0 0 1.9316-1.9316 1.9316 1.9316 0 0 0-1.9316-1.9316zm-96.201 7.1289a1.9316 1.9316 0 0 0-0.60547 0.097656c-0.40752 0.90681-0.76842 1.8404-1.0645 2.8027a1.9316 1.9316 0 0 0 1.6699 0.96289 1.9316 1.9316 0 0 0 1.9316-1.9316 1.9316 1.9316 0 0 0-1.9316-1.9316zm9.6191 0a1.9316 1.9316 0 0 0-1.9316 1.9316 1.9316 1.9316 0 0 0 1.9316 1.9316 1.9316 1.9316 0 0 0 1.9316-1.9316 1.9316 1.9316 0 0 0-1.9316-1.9316zm9.6211 0a1.9316 1.9316 0 0 0-1.9316 1.9316 1.9316 1.9316 0 0 0 1.9316 1.9316 1.9316 1.9316 0 0 0 1.9316-1.9316 1.9316 1.9316 0 0 0-1.9316-1.9316zm9.6191 0a1.9316 1.9316 0 0 0-1.9316 1.9316 1.9316 1.9316 0 0 0 1.9316 1.9316 1.9316 1.9316 0 0 0 1.9316-1.9316 1.9316 1.9316 0 0 0-1.9316-1.9316zm9.6211 0a1.9316 1.9316 0 0 0-1.9316 1.9316 1.9316 1.9316 0 0 0 1.9316 1.9316 1.9316 1.9316 0 0 0 1.9316-1.9316 1.9316 1.9316 0 0 0-1.9316-1.9316zm9.6211 0a1.9316 1.9316 0 0 0-1.9316 1.9316 1.9316 1.9316 0 0 0 1.9316 1.9316 1.9316 1.9316 0 0 0 1.9316-1.9316 1.9316 1.9316 0 0 0-1.9316-1.9316zm9.6191 0a1.9316 1.9316 0 0 0-1.9316 1.9316 1.9316 1.9316 0 0 0 1.9316 1.9316 1.9316 1.9316 0 0 0 1.9316-1.9316 1.9316 1.9316 0 0 0-1.9316-1.9316zm9.6211 0a1.9316 1.9316 0 0 0-1.9316 1.9316 1.9316 1.9316 0 0 0 1.9316 1.9316 1.9316 1.9316 0 0 0 1.9316-1.9316 1.9316 1.9316 0 0 0-1.9316-1.9316zm9.6191 0a1.9316 1.9316 0 0 0-1.9316 1.9316 1.9316 1.9316 0 0 0 1.9316 1.9316 1.9316 1.9316 0 0 0 1.9316-1.9316 1.9316 1.9316 0 0 0-1.9316-1.9316zm9.6211 0a1.9316 1.9316 0 0 0-1.9316 1.9316 1.9316 1.9316 0 0 0 1.9316 1.9316 1.9316 1.9316 0 0 0 1.9316-1.9316 1.9316 1.9316 0 0 0-1.9316-1.9316zm9.6191 0a1.9316 1.9316 0 0 0-1.9316 1.9316 1.9316 1.9316 0 0 0 1.9316 1.9316 1.9316 1.9316 0 0 0 1.9316-1.9316 1.9316 1.9316 0 0 0-1.9316-1.9316zm8.8691 0.15234a1.9316 1.9316 0 0 0-1.1797 1.7793 1.9316 1.9316 0 0 0 1.9316 1.9316 1.9316 1.9316 0 0 0 0.53711-0.076172c-0.33455-1.2554-0.76856-2.4688-1.2891-3.6348zm-105.07 6.9746a1.9316 1.9316 0 0 0-1.9316 1.9316 1.9316 1.9316 0 0 0 1.9316 1.9316 1.9316 1.9316 0 0 0 1.9316-1.9316 1.9316 1.9316 0 0 0-1.9316-1.9316zm9.6191 0a1.9316 1.9316 0 0 0-1.9316 1.9316 1.9316 1.9316 0 0 0 1.9316 1.9316 1.9316 1.9316 0 0 0 1.9316-1.9316 1.9316 1.9316 0 0 0-1.9316-1.9316zm9.6211 0a1.9316 1.9316 0 0 0-1.9316 1.9316 1.9316 1.9316 0 0 0 1.9316 1.9316 1.9316 1.9316 0 0 0 1.9316-1.9316 1.9316 1.9316 0 0 0-1.9316-1.9316zm9.6191 0a1.9316 1.9316 0 0 0-1.9316 1.9316 1.9316 1.9316 0 0 0 1.9316 1.9316 1.9316 1.9316 0 0 0 1.9316-1.9316 1.9316 1.9316 0 0 0-1.9316-1.9316zm9.6211 0a1.9316 1.9316 0 0 0-1.9316 1.9316 1.9316 1.9316 0 0 0 1.9316 1.9316 1.9316 1.9316 0 0 0 1.9316-1.9316 1.9316 1.9316 0 0 0-1.9316-1.9316zm9.6211 0a1.9316 1.9316 0 0 0-1.9316 1.9316 1.9316 1.9316 0 0 0 1.9316 1.9316 1.9316 1.9316 0 0 0 1.9316-1.9316 1.9316 1.9316 0 0 0-1.9316-1.9316zm9.6191 0a1.9316 1.9316 0 0 0-1.9316 1.9316 1.9316 1.9316 0 0 0 1.9316 1.9316 1.9316 1.9316 0 0 0 1.9316-1.9316 1.9316 1.9316 0 0 0-1.9316-1.9316zm9.6211 0a1.9316 1.9316 0 0 0-1.9316 1.9316 1.9316 1.9316 0 0 0 1.9316 1.9316 1.9316 1.9316 0 0 0 1.9316-1.9316 1.9316 1.9316 0 0 0-1.9316-1.9316zm9.6191 0a1.9316 1.9316 0 0 0-1.9316 1.9316 1.9316 1.9316 0 0 0 1.9316 1.9316 1.9316 1.9316 0 0 0 1.9316-1.9316 1.9316 1.9316 0 0 0-1.9316-1.9316zm9.6211 0a1.9316 1.9316 0 0 0-1.9316 1.9316 1.9316 1.9316 0 0 0 1.9316 1.9316 1.9316 1.9316 0 0 0 1.9316-1.9316 1.9316 1.9316 0 0 0-1.9316-1.9316zm9.6191 0a1.9316 1.9316 0 0 0-1.9316 1.9316 1.9316 1.9316 0 0 0 1.9316 1.9316 1.9316 1.9316 0 0 0 1.9316-1.9316 1.9316 1.9316 0 0 0-1.9316-1.9316zm9.6211 0a1.9316 1.9316 0 0 0-1.9316 1.9316 1.9316 1.9316 0 0 0 1.9316 1.9316 1.9316 1.9316 0 0 0 1.3652-0.56641v-0.30469c0-0.86086-0.04464-1.7096-0.13086-2.5469a1.9316 1.9316 0 0 0-1.2344-0.44531zm-105.82 7.1289a1.9316 1.9316 0 0 0-1.9316 1.9316 1.9316 1.9316 0 0 0 1.9316 1.9316 1.9316 1.9316 0 0 0 1.9316-1.9316 1.9316 1.9316 0 0 0-1.9316-1.9316zm9.6191 0a1.9316 1.9316 0 0 0-1.9316 1.9316 1.9316 1.9316 0 0 0 1.9316 1.9316 1.9316 1.9316 0 0 0 1.9316-1.9316 1.9316 1.9316 0 0 0-1.9316-1.9316zm9.6211 0a1.9316 1.9316 0 0 0-1.9316 1.9316 1.9316 1.9316 0 0 0 1.9316 1.9316 1.9316 1.9316 0 0 0 1.9316-1.9316 1.9316 1.9316 0 0 0-1.9316-1.9316zm9.6191 0a1.9316 1.9316 0 0 0-1.9316 1.9316 1.9316 1.9316 0 0 0 1.9316 1.9316 1.9316 1.9316 0 0 0 1.9316-1.9316 1.9316 1.9316 0 0 0-1.9316-1.9316zm9.6211 0a1.9316 1.9316 0 0 0-1.9316 1.9316 1.9316 1.9316 0 0 0 1.9316 1.9316 1.9316 1.9316 0 0 0 1.9316-1.9316 1.9316 1.9316 0 0 0-1.9316-1.9316zm9.6211 0a1.9316 1.9316 0 0 0-1.9316 1.9316 1.9316 1.9316 0 0 0 1.9316 1.9316 1.9316 1.9316 0 0 0 1.9316-1.9316 1.9316 1.9316 0 0 0-1.9316-1.9316zm9.6191 0a1.9316 1.9316 0 0 0-1.9316 1.9316 1.9316 1.9316 0 0 0 1.9316 1.9316 1.9316 1.9316 0 0 0 1.9316-1.9316 1.9316 1.9316 0 0 0-1.9316-1.9316zm9.6211 0a1.9316 1.9316 0 0 0-1.9316 1.9316 1.9316 1.9316 0 0 0 1.9316 1.9316 1.9316 1.9316 0 0 0 1.9316-1.9316 1.9316 1.9316 0 0 0-1.9316-1.9316zm9.6191 0a1.9316 1.9316 0 0 0-1.9316 1.9316 1.9316 1.9316 0 0 0 1.9316 1.9316 1.9316 1.9316 0 0 0 1.9316-1.9316 1.9316 1.9316 0 0 0-1.9316-1.9316zm9.6211 0a1.9316 1.9316 0 0 0-1.9316 1.9316 1.9316 1.9316 0 0 0 1.9316 1.9316 1.9316 1.9316 0 0 0 1.9316-1.9316 1.9316 1.9316 0 0 0-1.9316-1.9316zm9.6191 0a1.9316 1.9316 0 0 0-1.9316 1.9316 1.9316 1.9316 0 0 0 1.9316 1.9316 1.9316 1.9316 0 0 0 1.9316-1.9316 1.9316 1.9316 0 0 0-1.9316-1.9316zm9.6211 0a1.9316 1.9316 0 0 0-1.9316 1.9316 1.9316 1.9316 0 0 0 1.9316 1.9316 1.9316 1.9316 0 0 0 1.3652-0.56641v-2.7324a1.9316 1.9316 0 0 0-1.3652-0.56445zm-105.82 7.127a1.9316 1.9316 0 0 0-1.9316 1.9316 1.9316 1.9316 0 0 0 1.9316 1.9316 1.9316 1.9316 0 0 0 1.9316-1.9316 1.9316 1.9316 0 0 0-1.9316-1.9316zm9.6191 0a1.9316 1.9316 0 0 0-1.9316 1.9316 1.9316 1.9316 0 0 0 1.9316 1.9316 1.9316 1.9316 0 0 0 1.9316-1.9316 1.9316 1.9316 0 0 0-1.9316-1.9316zm9.6211 0a1.9316 1.9316 0 0 0-1.9316 1.9316 1.9316 1.9316 0 0 0 1.9316 1.9316 1.9316 1.9316 0 0 0 1.9316-1.9316 1.9316 1.9316 0 0 0-1.9316-1.9316zm9.6191 0a1.9316 1.9316 0 0 0-1.9316 1.9316 1.9316 1.9316 0 0 0 1.9316 1.9316 1.9316 1.9316 0 0 0 1.9316-1.9316 1.9316 1.9316 0 0 0-1.9316-1.9316zm9.6211 0a1.9316 1.9316 0 0 0-1.9316 1.9316 1.9316 1.9316 0 0 0 1.9316 1.9316 1.9316 1.9316 0 0 0 1.9316-1.9316 1.9316 1.9316 0 0 0-1.9316-1.9316zm9.6211 0a1.9316 1.9316 0 0 0-1.9316 1.9316 1.9316 1.9316 0 0 0 1.9316 1.9316 1.9316 1.9316 0 0 0 1.9316-1.9316 1.9316 1.9316 0 0 0-1.9316-1.9316zm9.6191 0a1.9316 1.9316 0 0 0-1.9316 1.9316 1.9316 1.9316 0 0 0 1.9316 1.9316 1.9316 1.9316 0 0 0 1.9316-1.9316 1.9316 1.9316 0 0 0-1.9316-1.9316zm9.6211 0a1.9316 1.9316 0 0 0-1.9316 1.9316 1.9316 1.9316 0 0 0 1.9316 1.9316 1.9316 1.9316 0 0 0 1.9316-1.9316 1.9316 1.9316 0 0 0-1.9316-1.9316zm9.6191 0a1.9316 1.9316 0 0 0-1.9316 1.9316 1.9316 1.9316 0 0 0 1.9316 1.9316 1.9316 1.9316 0 0 0 1.9316-1.9316 1.9316 1.9316 0 0 0-1.9316-1.9316zm9.6211 0a1.9316 1.9316 0 0 0-1.9316 1.9316 1.9316 1.9316 0 0 0 1.9316 1.9316 1.9316 1.9316 0 0 0 1.9316-1.9316 1.9316 1.9316 0 0 0-1.9316-1.9316zm9.6191 0a1.9316 1.9316 0 0 0-1.9316 1.9316 1.9316 1.9316 0 0 0 1.9316 1.9316 1.9316 1.9316 0 0 0 1.9316-1.9316 1.9316 1.9316 0 0 0-1.9316-1.9316zm9.6211 0a1.9316 1.9316 0 0 0-1.9316 1.9316 1.9316 1.9316 0 0 0 1.9316 1.9316 1.9316 1.9316 0 0 0 1.3652-0.56641v-2.7324a1.9316 1.9316 0 0 0-1.3652-0.56445zm-105.82 7.1289a1.9316 1.9316 0 0 0-1.9316 1.9297 1.9316 1.9316 0 0 0 1.9316 1.9316 1.9316 1.9316 0 0 0 1.9316-1.9316 1.9316 1.9316 0 0 0-1.9316-1.9297zm9.6191 0a1.9316 1.9316 0 0 0-1.9316 1.9297 1.9316 1.9316 0 0 0 1.9316 1.9316 1.9316 1.9316 0 0 0 1.9316-1.9316 1.9316 1.9316 0 0 0-1.9316-1.9297zm9.6211 0a1.9316 1.9316 0 0 0-1.9316 1.9297 1.9316 1.9316 0 0 0 1.9316 1.9316 1.9316 1.9316 0 0 0 1.9316-1.9316 1.9316 1.9316 0 0 0-1.9316-1.9297zm9.6191 0a1.9316 1.9316 0 0 0-1.9316 1.9297 1.9316 1.9316 0 0 0 1.9316 1.9316 1.9316 1.9316 0 0 0 1.9316-1.9316 1.9316 1.9316 0 0 0-1.9316-1.9297zm9.6211 0a1.9316 1.9316 0 0 0-1.9316 1.9297 1.9316 1.9316 0 0 0 1.9316 1.9316 1.9316 1.9316 0 0 0 1.9316-1.9316 1.9316 1.9316 0 0 0-1.9316-1.9297zm9.6211 0a1.9316 1.9316 0 0 0-1.9316 1.9297 1.9316 1.9316 0 0 0 1.9316 1.9316 1.9316 1.9316 0 0 0 1.9316-1.9316 1.9316 1.9316 0 0 0-1.9316-1.9297zm9.6191 0a1.9316 1.9316 0 0 0-1.9316 1.9297 1.9316 1.9316 0 0 0 1.9316 1.9316 1.9316 1.9316 0 0 0 1.9316-1.9316 1.9316 1.9316 0 0 0-1.9316-1.9297zm9.6211 0a1.9316 1.9316 0 0 0-1.9316 1.9297 1.9316 1.9316 0 0 0 1.9316 1.9316 1.9316 1.9316 0 0 0 1.9316-1.9316 1.9316 1.9316 0 0 0-1.9316-1.9297zm9.6191 0a1.9316 1.9316 0 0 0-1.9316 1.9297 1.9316 1.9316 0 0 0 1.9316 1.9316 1.9316 1.9316 0 0 0 1.9316-1.9316 1.9316 1.9316 0 0 0-1.9316-1.9297zm9.6211 0a1.9316 1.9316 0 0 0-1.9316 1.9297 1.9316 1.9316 0 0 0 1.9316 1.9316 1.9316 1.9316 0 0 0 1.9316-1.9316 1.9316 1.9316 0 0 0-1.9316-1.9297zm9.6191 0a1.9316 1.9316 0 0 0-1.9316 1.9297 1.9316 1.9316 0 0 0 1.9316 1.9316 1.9316 1.9316 0 0 0 1.9316-1.9316 1.9316 1.9316 0 0 0-1.9316-1.9297zm9.6211 0a1.9316 1.9316 0 0 0-1.9316 1.9297 1.9316 1.9316 0 0 0 1.9316 1.9316 1.9316 1.9316 0 0 0 1.3652-0.56641v-2.7305a1.9316 1.9316 0 0 0-1.3652-0.56445zm-105.82 7.127a1.9316 1.9316 0 0 0-1.9316 1.9316 1.9316 1.9316 0 0 0 1.9316 1.9316 1.9316 1.9316 0 0 0 1.9316-1.9316 1.9316 1.9316 0 0 0-1.9316-1.9316zm9.6191 0a1.9316 1.9316 0 0 0-1.9316 1.9316 1.9316 1.9316 0 0 0 1.9316 1.9316 1.9316 1.9316 0 0 0 1.9316-1.9316 1.9316 1.9316 0 0 0-1.9316-1.9316zm9.6211 0a1.9316 1.9316 0 0 0-1.9316 1.9316 1.9316 1.9316 0 0 0 1.9316 1.9316 1.9316 1.9316 0 0 0 1.9316-1.9316 1.9316 1.9316 0 0 0-1.9316-1.9316zm9.6191 0a1.9316 1.9316 0 0 0-1.9316 1.9316 1.9316 1.9316 0 0 0 1.9316 1.9316 1.9316 1.9316 0 0 0 1.9316-1.9316 1.9316 1.9316 0 0 0-1.9316-1.9316zm9.6211 0a1.9316 1.9316 0 0 0-1.9316 1.9316 1.9316 1.9316 0 0 0 1.9316 1.9316 1.9316 1.9316 0 0 0 1.9316-1.9316 1.9316 1.9316 0 0 0-1.9316-1.9316zm9.6211 0a1.9316 1.9316 0 0 0-1.9316 1.9316 1.9316 1.9316 0 0 0 1.9316 1.9316 1.9316 1.9316 0 0 0 1.9316-1.9316 1.9316 1.9316 0 0 0-1.9316-1.9316zm9.6191 0a1.9316 1.9316 0 0 0-1.9316 1.9316 1.9316 1.9316 0 0 0 1.9316 1.9316 1.9316 1.9316 0 0 0 1.9316-1.9316 1.9316 1.9316 0 0 0-1.9316-1.9316zm9.6211 0a1.9316 1.9316 0 0 0-1.9316 1.9316 1.9316 1.9316 0 0 0 1.9316 1.9316 1.9316 1.9316 0 0 0 1.9316-1.9316 1.9316 1.9316 0 0 0-1.9316-1.9316zm9.6191 0a1.9316 1.9316 0 0 0-1.9316 1.9316 1.9316 1.9316 0 0 0 1.9316 1.9316 1.9316 1.9316 0 0 0 1.9316-1.9316 1.9316 1.9316 0 0 0-1.9316-1.9316zm9.6211 0a1.9316 1.9316 0 0 0-1.9316 1.9316 1.9316 1.9316 0 0 0 1.9316 1.9316 1.9316 1.9316 0 0 0 1.9316-1.9316 1.9316 1.9316 0 0 0-1.9316-1.9316zm9.6191 0a1.9316 1.9316 0 0 0-1.9316 1.9316 1.9316 1.9316 0 0 0 1.9316 1.9316 1.9316 1.9316 0 0 0 1.9316-1.9316 1.9316 1.9316 0 0 0-1.9316-1.9316zm9.6211 0a1.9316 1.9316 0 0 0-1.9316 1.9316 1.9316 1.9316 0 0 0 1.9316 1.9316 1.9316 1.9316 0 0 0 1.3652-0.56641v-2.7324a1.9316 1.9316 0 0 0-1.3652-0.56445zm-105.82 7.127a1.9316 1.9316 0 0 0-1.9316 1.9316 1.9316 1.9316 0 0 0 1.9316 1.9316 1.9316 1.9316 0 0 0 1.9316-1.9316 1.9316 1.9316 0 0 0-1.9316-1.9316zm9.6191 0a1.9316 1.9316 0 0 0-1.9316 1.9316 1.9316 1.9316 0 0 0 1.9316 1.9316 1.9316 1.9316 0 0 0 1.9316-1.9316 1.9316 1.9316 0 0 0-1.9316-1.9316zm9.6211 0a1.9316 1.9316 0 0 0-1.9316 1.9316 1.9316 1.9316 0 0 0 1.9316 1.9316 1.9316 1.9316 0 0 0 1.9316-1.9316 1.9316 1.9316 0 0 0-1.9316-1.9316zm9.6191 0a1.9316 1.9316 0 0 0-1.9316 1.9316 1.9316 1.9316 0 0 0 1.9316 1.9316 1.9316 1.9316 0 0 0 1.9316-1.9316 1.9316 1.9316 0 0 0-1.9316-1.9316zm9.6211 0a1.9316 1.9316 0 0 0-1.9316 1.9316 1.9316 1.9316 0 0 0 1.9316 1.9316 1.9316 1.9316 0 0 0 1.9316-1.9316 1.9316 1.9316 0 0 0-1.9316-1.9316zm9.6211 0a1.9316 1.9316 0 0 0-1.9316 1.9316 1.9316 1.9316 0 0 0 1.9316 1.9316 1.9316 1.9316 0 0 0 1.9316-1.9316 1.9316 1.9316 0 0 0-1.9316-1.9316zm9.6191 0a1.9316 1.9316 0 0 0-1.9316 1.9316 1.9316 1.9316 0 0 0 1.9316 1.9316 1.9316 1.9316 0 0 0 1.9316-1.9316 1.9316 1.9316 0 0 0-1.9316-1.9316zm9.6211 0a1.9316 1.9316 0 0 0-1.9316 1.9316 1.9316 1.9316 0 0 0 1.9316 1.9316 1.9316 1.9316 0 0 0 1.9316-1.9316 1.9316 1.9316 0 0 0-1.9316-1.9316zm9.6191 0a1.9316 1.9316 0 0 0-1.9316 1.9316 1.9316 1.9316 0 0 0 1.9316 1.9316 1.9316 1.9316 0 0 0 1.9316-1.9316 1.9316 1.9316 0 0 0-1.9316-1.9316zm9.6211 0a1.9316 1.9316 0 0 0-1.9316 1.9316 1.9316 1.9316 0 0 0 1.9316 1.9316 1.9316 1.9316 0 0 0 1.9316-1.9316 1.9316 1.9316 0 0 0-1.9316-1.9316zm9.6191 0a1.9316 1.9316 0 0 0-1.9316 1.9316 1.9316 1.9316 0 0 0 1.9316 1.9316 1.9316 1.9316 0 0 0 1.9316-1.9316 1.9316 1.9316 0 0 0-1.9316-1.9316zm9.6211 0a1.9316 1.9316 0 0 0-1.9316 1.9316 1.9316 1.9316 0 0 0 1.9316 1.9316 1.9316 1.9316 0 0 0 1.3652-0.56641v-2.7324a1.9316 1.9316 0 0 0-1.3652-0.56445zm-105.82 7.1289a1.9316 1.9316 0 0 0-1.9316 1.9316 1.9316 1.9316 0 0 0 1.9316 1.9316 1.9316 1.9316 0 0 0 1.9316-1.9316 1.9316 1.9316 0 0 0-1.9316-1.9316zm9.6191 0a1.9316 1.9316 0 0 0-1.9316 1.9316 1.9316 1.9316 0 0 0 1.9316 1.9316 1.9316 1.9316 0 0 0 1.9316-1.9316 1.9316 1.9316 0 0 0-1.9316-1.9316zm9.6211 0a1.9316 1.9316 0 0 0-1.9316 1.9316 1.9316 1.9316 0 0 0 1.9316 1.9316 1.9316 1.9316 0 0 0 1.9316-1.9316 1.9316 1.9316 0 0 0-1.9316-1.9316zm9.6191 0a1.9316 1.9316 0 0 0-1.9316 1.9316 1.9316 1.9316 0 0 0 1.9316 1.9316 1.9316 1.9316 0 0 0 1.9316-1.9316 1.9316 1.9316 0 0 0-1.9316-1.9316zm9.6211 0a1.9316 1.9316 0 0 0-1.9316 1.9316 1.9316 1.9316 0 0 0 1.9316 1.9316 1.9316 1.9316 0 0 0 1.9316-1.9316 1.9316 1.9316 0 0 0-1.9316-1.9316zm9.6211 0a1.9316 1.9316 0 0 0-1.9316 1.9316 1.9316 1.9316 0 0 0 1.9316 1.9316 1.9316 1.9316 0 0 0 1.9316-1.9316 1.9316 1.9316 0 0 0-1.9316-1.9316zm9.6191 0a1.9316 1.9316 0 0 0-1.9316 1.9316 1.9316 1.9316 0 0 0 1.9316 1.9316 1.9316 1.9316 0 0 0 1.9316-1.9316 1.9316 1.9316 0 0 0-1.9316-1.9316zm9.6211 0a1.9316 1.9316 0 0 0-1.9316 1.9316 1.9316 1.9316 0 0 0 1.9316 1.9316 1.9316 1.9316 0 0 0 1.9316-1.9316 1.9316 1.9316 0 0 0-1.9316-1.9316zm9.6191 0a1.9316 1.9316 0 0 0-1.9316 1.9316 1.9316 1.9316 0 0 0 1.9316 1.9316 1.9316 1.9316 0 0 0 1.9316-1.9316 1.9316 1.9316 0 0 0-1.9316-1.9316zm9.6211 0a1.9316 1.9316 0 0 0-1.9316 1.9316 1.9316 1.9316 0 0 0 1.9316 1.9316 1.9316 1.9316 0 0 0 1.9316-1.9316 1.9316 1.9316 0 0 0-1.9316-1.9316zm9.6191 0a1.9316 1.9316 0 0 0-1.9316 1.9316 1.9316 1.9316 0 0 0 1.9316 1.9316 1.9316 1.9316 0 0 0 1.9316-1.9316 1.9316 1.9316 0 0 0-1.9316-1.9316zm9.6211 0a1.9316 1.9316 0 0 0-1.9316 1.9316 1.9316 1.9316 0 0 0 1.9316 1.9316 1.9316 1.9316 0 0 0 1.3652-0.56641v-2.7324a1.9316 1.9316 0 0 0-1.3652-0.56445zm-105.82 7.127a1.9316 1.9316 0 0 0-1.9316 1.9316 1.9316 1.9316 0 0 0 1.9316 1.9316 1.9316 1.9316 0 0 0 1.9316-1.9316 1.9316 1.9316 0 0 0-1.9316-1.9316zm9.6191 0a1.9316 1.9316 0 0 0-1.9316 1.9316 1.9316 1.9316 0 0 0 1.9316 1.9316 1.9316 1.9316 0 0 0 1.9316-1.9316 1.9316 1.9316 0 0 0-1.9316-1.9316zm9.6211 0a1.9316 1.9316 0 0 0-1.9316 1.9316 1.9316 1.9316 0 0 0 1.9316 1.9316 1.9316 1.9316 0 0 0 1.9316-1.9316 1.9316 1.9316 0 0 0-1.9316-1.9316zm9.6191 0a1.9316 1.9316 0 0 0-1.9316 1.9316 1.9316 1.9316 0 0 0 1.9316 1.9316 1.9316 1.9316 0 0 0 1.9316-1.9316 1.9316 1.9316 0 0 0-1.9316-1.9316zm9.6211 0a1.9316 1.9316 0 0 0-1.9316 1.9316 1.9316 1.9316 0 0 0 1.9316 1.9316 1.9316 1.9316 0 0 0 1.9316-1.9316 1.9316 1.9316 0 0 0-1.9316-1.9316zm9.6211 0a1.9316 1.9316 0 0 0-1.9316 1.9316 1.9316 1.9316 0 0 0 1.9316 1.9316 1.9316 1.9316 0 0 0 1.9316-1.9316 1.9316 1.9316 0 0 0-1.9316-1.9316zm9.6191 0a1.9316 1.9316 0 0 0-1.9316 1.9316 1.9316 1.9316 0 0 0 1.9316 1.9316 1.9316 1.9316 0 0 0 1.9316-1.9316 1.9316 1.9316 0 0 0-1.9316-1.9316zm9.6211 0a1.9316 1.9316 0 0 0-1.9316 1.9316 1.9316 1.9316 0 0 0 1.9316 1.9316 1.9316 1.9316 0 0 0 1.9316-1.9316 1.9316 1.9316 0 0 0-1.9316-1.9316zm9.6191 0a1.9316 1.9316 0 0 0-1.9316 1.9316 1.9316 1.9316 0 0 0 1.9316 1.9316 1.9316 1.9316 0 0 0 1.9316-1.9316 1.9316 1.9316 0 0 0-1.9316-1.9316zm9.6211 0a1.9316 1.9316 0 0 0-1.9316 1.9316 1.9316 1.9316 0 0 0 1.9316 1.9316 1.9316 1.9316 0 0 0 1.9316-1.9316 1.9316 1.9316 0 0 0-1.9316-1.9316zm9.6191 0a1.9316 1.9316 0 0 0-1.9316 1.9316 1.9316 1.9316 0 0 0 1.9316 1.9316 1.9316 1.9316 0 0 0 1.9316-1.9316 1.9316 1.9316 0 0 0-1.9316-1.9316zm9.6211 0a1.9316 1.9316 0 0 0-1.9316 1.9316 1.9316 1.9316 0 0 0 1.9316 1.9316 1.9316 1.9316 0 0 0 1.3652-0.56641v-2.7324a1.9316 1.9316 0 0 0-1.3652-0.56445zm-105.82 7.1289a1.9316 1.9316 0 0 0-1.9316 1.9316 1.9316 1.9316 0 0 0 1.9316 1.9316 1.9316 1.9316 0 0 0 1.9316-1.9316 1.9316 1.9316 0 0 0-1.9316-1.9316zm9.6191 0a1.9316 1.9316 0 0 0-1.9316 1.9316 1.9316 1.9316 0 0 0 1.9316 1.9316 1.9316 1.9316 0 0 0 1.9316-1.9316 1.9316 1.9316 0 0 0-1.9316-1.9316zm9.6211 0a1.9316 1.9316 0 0 0-1.9316 1.9316 1.9316 1.9316 0 0 0 1.9316 1.9316 1.9316 1.9316 0 0 0 1.9316-1.9316 1.9316 1.9316 0 0 0-1.9316-1.9316zm9.6191 0a1.9316 1.9316 0 0 0-1.9316 1.9316 1.9316 1.9316 0 0 0 1.9316 1.9316 1.9316 1.9316 0 0 0 1.9316-1.9316 1.9316 1.9316 0 0 0-1.9316-1.9316zm9.6211 0a1.9316 1.9316 0 0 0-1.9316 1.9316 1.9316 1.9316 0 0 0 1.9316 1.9316 1.9316 1.9316 0 0 0 1.9316-1.9316 1.9316 1.9316 0 0 0-1.9316-1.9316zm9.6211 0a1.9316 1.9316 0 0 0-1.9316 1.9316 1.9316 1.9316 0 0 0 1.9316 1.9316 1.9316 1.9316 0 0 0 1.9316-1.9316 1.9316 1.9316 0 0 0-1.9316-1.9316zm9.6191 0a1.9316 1.9316 0 0 0-1.9316 1.9316 1.9316 1.9316 0 0 0 1.9316 1.9316 1.9316 1.9316 0 0 0 1.9316-1.9316 1.9316 1.9316 0 0 0-1.9316-1.9316zm9.6211 0a1.9316 1.9316 0 0 0-1.9316 1.9316 1.9316 1.9316 0 0 0 1.9316 1.9316 1.9316 1.9316 0 0 0 1.9316-1.9316 1.9316 1.9316 0 0 0-1.9316-1.9316zm9.6191 0a1.9316 1.9316 0 0 0-1.9316 1.9316 1.9316 1.9316 0 0 0 1.9316 1.9316 1.9316 1.9316 0 0 0 1.9316-1.9316 1.9316 1.9316 0 0 0-1.9316-1.9316zm9.6211 0a1.9316 1.9316 0 0 0-1.9316 1.9316 1.9316 1.9316 0 0 0 1.9316 1.9316 1.9316 1.9316 0 0 0 1.9316-1.9316 1.9316 1.9316 0 0 0-1.9316-1.9316zm9.6191 0a1.9316 1.9316 0 0 0-1.9316 1.9316 1.9316 1.9316 0 0 0 1.9316 1.9316 1.9316 1.9316 0 0 0 1.9316-1.9316 1.9316 1.9316 0 0 0-1.9316-1.9316zm9.6211 0a1.9316 1.9316 0 0 0-1.9316 1.9316 1.9316 1.9316 0 0 0 1.9316 1.9316 1.9316 1.9316 0 0 0 1.3652-0.56641v-2.7324a1.9316 1.9316 0 0 0-1.3652-0.56445zm-105.82 7.127a1.9316 1.9316 0 0 0-1.9316 1.9316 1.9316 1.9316 0 0 0 1.9316 1.9316 1.9316 1.9316 0 0 0 1.9316-1.9316 1.9316 1.9316 0 0 0-1.9316-1.9316zm9.6191 0a1.9316 1.9316 0 0 0-1.9316 1.9316 1.9316 1.9316 0 0 0 1.9316 1.9316 1.9316 1.9316 0 0 0 1.9316-1.9316 1.9316 1.9316 0 0 0-1.9316-1.9316zm9.6211 0a1.9316 1.9316 0 0 0-1.9316 1.9316 1.9316 1.9316 0 0 0 1.9316 1.9316 1.9316 1.9316 0 0 0 1.9316-1.9316 1.9316 1.9316 0 0 0-1.9316-1.9316zm9.6191 0a1.9316 1.9316 0 0 0-1.9316 1.9316 1.9316 1.9316 0 0 0 1.9316 1.9316 1.9316 1.9316 0 0 0 1.9316-1.9316 1.9316 1.9316 0 0 0-1.9316-1.9316zm9.6211 0a1.9316 1.9316 0 0 0-1.9316 1.9316 1.9316 1.9316 0 0 0 1.9316 1.9316 1.9316 1.9316 0 0 0 1.9316-1.9316 1.9316 1.9316 0 0 0-1.9316-1.9316zm9.6211 0a1.9316 1.9316 0 0 0-1.9316 1.9316 1.9316 1.9316 0 0 0 1.9316 1.9316 1.9316 1.9316 0 0 0 1.9316-1.9316 1.9316 1.9316 0 0 0-1.9316-1.9316zm9.6191 0a1.9316 1.9316 0 0 0-1.9316 1.9316 1.9316 1.9316 0 0 0 1.9316 1.9316 1.9316 1.9316 0 0 0 1.9316-1.9316 1.9316 1.9316 0 0 0-1.9316-1.9316zm9.6211 0a1.9316 1.9316 0 0 0-1.9316 1.9316 1.9316 1.9316 0 0 0 1.9316 1.9316 1.9316 1.9316 0 0 0 1.9316-1.9316 1.9316 1.9316 0 0 0-1.9316-1.9316zm9.6191 0a1.9316 1.9316 0 0 0-1.9316 1.9316 1.9316 1.9316 0 0 0 1.9316 1.9316 1.9316 1.9316 0 0 0 1.9316-1.9316 1.9316 1.9316 0 0 0-1.9316-1.9316zm9.6211 0a1.9316 1.9316 0 0 0-1.9316 1.9316 1.9316 1.9316 0 0 0 1.9316 1.9316 1.9316 1.9316 0 0 0 1.9316-1.9316 1.9316 1.9316 0 0 0-1.9316-1.9316zm9.6191 0a1.9316 1.9316 0 0 0-1.9316 1.9316 1.9316 1.9316 0 0 0 1.9316 1.9316 1.9316 1.9316 0 0 0 1.9316-1.9316 1.9316 1.9316 0 0 0-1.9316-1.9316zm9.6211 0a1.9316 1.9316 0 0 0-1.9316 1.9316 1.9316 1.9316 0 0 0 1.9316 1.9316 1.9316 1.9316 0 0 0 1.1172-0.35547c0.1373-0.96768 0.21332-1.9535 0.23437-2.9551a1.9316 1.9316 0 0 0-1.3516-0.55273zm-105.82 7.1289a1.9316 1.9316 0 0 0-1.4785 0.68946c0.36614 1.0926 0.8063 2.1495 1.3164 3.166a1.9316 1.9316 0 0 0 0.16211 0.00781 1.9316 1.9316 0 0 0 1.9316-1.9316 1.9316 1.9316 0 0 0-1.9316-1.9316zm9.6191 0a1.9316 1.9316 0 0 0-1.9316 1.9316 1.9316 1.9316 0 0 0 1.9316 1.9316 1.9316 1.9316 0 0 0 1.9316-1.9316 1.9316 1.9316 0 0 0-1.9316-1.9316zm9.6211 0a1.9316 1.9316 0 0 0-1.9316 1.9316 1.9316 1.9316 0 0 0 1.9316 1.9316 1.9316 1.9316 0 0 0 1.9316-1.9316 1.9316 1.9316 0 0 0-1.9316-1.9316zm9.6191 0a1.9316 1.9316 0 0 0-1.9316 1.9316 1.9316 1.9316 0 0 0 1.9316 1.9316 1.9316 1.9316 0 0 0 1.9316-1.9316 1.9316 1.9316 0 0 0-1.9316-1.9316zm9.6211 0a1.9316 1.9316 0 0 0-1.9316 1.9316 1.9316 1.9316 0 0 0 1.9316 1.9316 1.9316 1.9316 0 0 0 1.9316-1.9316 1.9316 1.9316 0 0 0-1.9316-1.9316zm9.6211 0a1.9316 1.9316 0 0 0-1.9316 1.9316 1.9316 1.9316 0 0 0 1.9316 1.9316 1.9316 1.9316 0 0 0 1.9316-1.9316 1.9316 1.9316 0 0 0-1.9316-1.9316zm9.6191 0a1.9316 1.9316 0 0 0-1.9316 1.9316 1.9316 1.9316 0 0 0 1.9316 1.9316 1.9316 1.9316 0 0 0 1.9316-1.9316 1.9316 1.9316 0 0 0-1.9316-1.9316zm9.6211 0a1.9316 1.9316 0 0 0-1.9316 1.9316 1.9316 1.9316 0 0 0 1.9316 1.9316 1.9316 1.9316 0 0 0 1.9316-1.9316 1.9316 1.9316 0 0 0-1.9316-1.9316zm9.6191 0a1.9316 1.9316 0 0 0-1.9316 1.9316 1.9316 1.9316 0 0 0 1.9316 1.9316 1.9316 1.9316 0 0 0 1.9316-1.9316 1.9316 1.9316 0 0 0-1.9316-1.9316zm9.6211 0a1.9316 1.9316 0 0 0-1.9316 1.9316 1.9316 1.9316 0 0 0 1.9316 1.9316 1.9316 1.9316 0 0 0 1.9316-1.9316 1.9316 1.9316 0 0 0-1.9316-1.9316zm9.6191 0a1.9316 1.9316 0 0 0-1.9316 1.9316 1.9316 1.9316 0 0 0 1.9316 1.9316 1.9316 1.9316 0 0 0 1.9316-1.9316 1.9316 1.9316 0 0 0-1.9316-1.9316zm9.6211 0a1.9316 1.9316 0 0 0-1.9316 1.9316 1.9316 1.9316 0 0 0 0.87109 1.6113c0.5448-1.1261 1.0043-2.3019 1.373-3.5176a1.9316 1.9316 0 0 0-0.3125-0.02539zm-96.203 7.127a1.9316 1.9316 0 0 0-1.9316 1.9316 1.9316 1.9316 0 0 0 1.9316 1.9316 1.9316 1.9316 0 0 0 1.9316-1.9316 1.9316 1.9316 0 0 0-1.9316-1.9316zm9.6211 0a1.9316 1.9316 0 0 0-1.9316 1.9316 1.9316 1.9316 0 0 0 1.9316 1.9316 1.9316 1.9316 0 0 0 1.9316-1.9316 1.9316 1.9316 0 0 0-1.9316-1.9316zm9.6191 0a1.9316 1.9316 0 0 0-1.9316 1.9316 1.9316 1.9316 0 0 0 1.9316 1.9316 1.9316 1.9316 0 0 0 1.9316-1.9316 1.9316 1.9316 0 0 0-1.9316-1.9316zm9.6211 0a1.9316 1.9316 0 0 0-1.9316 1.9316 1.9316 1.9316 0 0 0 1.9316 1.9316 1.9316 1.9316 0 0 0 1.9316-1.9316 1.9316 1.9316 0 0 0-1.9316-1.9316zm9.6211 0a1.9316 1.9316 0 0 0-1.9316 1.9316 1.9316 1.9316 0 0 0 1.9316 1.9316 1.9316 1.9316 0 0 0 1.9316-1.9316 1.9316 1.9316 0 0 0-1.9316-1.9316zm9.6191 0a1.9316 1.9316 0 0 0-1.9316 1.9316 1.9316 1.9316 0 0 0 1.9316 1.9316 1.9316 1.9316 0 0 0 1.9316-1.9316 1.9316 1.9316 0 0 0-1.9316-1.9316zm9.6211 0a1.9316 1.9316 0 0 0-1.9316 1.9316 1.9316 1.9316 0 0 0 1.9316 1.9316 1.9316 1.9316 0 0 0 1.9316-1.9316 1.9316 1.9316 0 0 0-1.9316-1.9316zm9.6191 0a1.9316 1.9316 0 0 0-1.9316 1.9316 1.9316 1.9316 0 0 0 1.9316 1.9316 1.9316 1.9316 0 0 0 1.9316-1.9316 1.9316 1.9316 0 0 0-1.9316-1.9316zm9.6211 0a1.9316 1.9316 0 0 0-1.9316 1.9316 1.9316 1.9316 0 0 0 1.9316 1.9316 1.9316 1.9316 0 0 0 1.9316-1.9316 1.9316 1.9316 0 0 0-1.9316-1.9316zm9.6191 0a1.9316 1.9316 0 0 0-1.9316 1.9316 1.9316 1.9316 0 0 0 1.9316 1.9316 1.9316 1.9316 0 0 0 1.9316-1.9316 1.9316 1.9316 0 0 0-1.9316-1.9316zm-76.961 7.1289a1.9316 1.9316 0 0 0-1.9316 1.9316 1.9316 1.9316 0 0 0 0.14453 0.72657c1.1083 0.18987 2.2414 0.3039 3.3965 0.33984a1.9316 1.9316 0 0 0 0.32226-1.0664 1.9316 1.9316 0 0 0-1.9316-1.9316zm9.6191 0a1.9316 1.9316 0 0 0-1.9316 1.9316 1.9316 1.9316 0 0 0 0.33594 1.0859h3.1934a1.9316 1.9316 0 0 0 0.33398-1.0859 1.9316 1.9316 0 0 0-1.9316-1.9316zm9.6211 0a1.9316 1.9316 0 0 0-1.9316 1.9316 1.9316 1.9316 0 0 0 0.33594 1.0859h3.1934a1.9316 1.9316 0 0 0 0.33398-1.0859 1.9316 1.9316 0 0 0-1.9316-1.9316zm9.6211 0a1.9316 1.9316 0 0 0-1.9316 1.9316 1.9316 1.9316 0 0 0 0.33594 1.0859h3.1934a1.9316 1.9316 0 0 0 0.33398-1.0859 1.9316 1.9316 0 0 0-1.9316-1.9316zm9.6191 0a1.9316 1.9316 0 0 0-1.9316 1.9316 1.9316 1.9316 0 0 0 0.33594 1.0859h3.1934a1.9316 1.9316 0 0 0 0.33398-1.0859 1.9316 1.9316 0 0 0-1.9316-1.9316zm9.6211 0a1.9316 1.9316 0 0 0-1.9316 1.9316 1.9316 1.9316 0 0 0 0.33594 1.0859h3.1934a1.9316 1.9316 0 0 0 0.33398-1.0859 1.9316 1.9316 0 0 0-1.9316-1.9316zm9.6191 0a1.9316 1.9316 0 0 0-1.9316 1.9316 1.9316 1.9316 0 0 0 0.33594 1.0859h3.1934a1.9316 1.9316 0 0 0 0.33398-1.0859 1.9316 1.9316 0 0 0-1.9316-1.9316zm9.6211 0a1.9316 1.9316 0 0 0-1.9316 1.9316 1.9316 1.9316 0 0 0 0.27344 0.99024c1.2088-0.10285 2.39-0.29298 3.541-0.56446a1.9316 1.9316 0 0 0 0.048828-0.42578 1.9316 1.9316 0 0 0-1.9316-1.9316zm-76.707 0.01758c0.3814 0.20939 0.76655 0.41233 1.1602 0.60156a1.9316 1.9316 0 0 0-1.1602-0.60156z" fill="#2c32d7" fill-opacity=".058696" stroke-linecap="square" stroke-linejoin="round" stroke-opacity=".088083" stroke-width="2.8158"/>
<g transform="matrix(.13671 0 0 .13671 -35.289 -21.598)">
<g transform="translate(.50516 .50513)" fill-opacity=".055063" opacity=".26448" stroke-linecap="square" stroke-linejoin="round" stroke-opacity=".088083">
<rect x="320.45" y="221.8" width="119.1" height="119.1" rx="8.9583" ry="8.9583" stroke-width="4.017"/>
<rect x="320.45" y="221.8" width="119.76" height="119.76" rx="9.0077" ry="9.0077" stroke-width="4.0392"/>
<rect x="320.45" y="221.8" width="120.49" height="120.49" rx="9.0624" ry="9.0624" stroke-width="4.0637"/>
<rect x="320.45" y="221.8" width="121.18" height="121.18" rx="9.1148" ry="9.1148" stroke-width="4.0872"/>
<rect x="320.45" y="221.8" width="121.88" height="121.88" rx="9.1677" ry="9.1677" stroke-width="4.1109"/>
<rect x="320.45" y="221.8" width="122.69" height="122.69" rx="9.2281" ry="9.2281" stroke-width="4.138"/>
<rect x="320.45" y="221.8" width="123.65" height="123.65" rx="9.3005" ry="9.3005" stroke-width="4.1705"/>
<rect x="320.45" y="221.8" width="124.8" height="124.8" rx="9.3868" ry="9.3868" stroke-width="4.2092"/>
</g>
<g fill-opacity=".10301" opacity=".14735" stroke-linecap="square" stroke-linejoin="round" stroke-opacity=".088083">
<rect x="319.73" y="221.08" width="119.82" height="119.82" rx="9.0123" ry="9.0123" stroke-width="4.0413"/>
<rect x="318.3" y="219.65" width="121.25" height="121.25" rx="9.1199" ry="9.1199" stroke-width="4.0895"/>
<rect x="316.66" y="218.01" width="122.89" height="122.89" rx="9.2435" ry="9.2435" stroke-width="4.1449"/>
</g>
<g transform="translate(3.0518e-5)">
<rect x="320.95" y="222.31" width="118.6" height="118.6" rx="8.9203" ry="8.9203" fill="url(#linearGradient953)" stroke-linecap="square" stroke-linejoin="round" stroke-opacity=".088083" stroke-width="4"/>
<path d="m342.45 222.31v20.396c0 3.7488 3.0187 6.7676 6.7676 6.7676h62.07c3.7488 0 6.7676-3.0187 6.7676-6.7676v-20.396z" fill="url(#linearGradient955)" stroke-linecap="square" stroke-linejoin="round" stroke-opacity=".088083" stroke-width="4"/>
<g transform="translate(137.68 .50513)" fill="#fae404" stroke-linecap="square" stroke-linejoin="round" stroke-opacity=".088083" stroke-width="4">
<rect x="222.44" y="230.88" width="16.247" height="7.6116" rx="3.8058" ry="3.8058"/>
<rect x="246.46" y="230.88" width="16.247" height="7.6116" rx="3.8058" ry="3.8058"/>
</g>
<path d="m376.12 317.83c-1.0808 0-2.0446 0.33178-2.709 0.83008s-1.0215 1.1283-1.0215 1.8086v9.1797h3.0996v-8.7188h5.6191v8.7188h3.0996v-8.7188h5.6191v8.7188h3.0996v-9.1797c0-0.68027-0.35708-1.3103-1.0215-1.8086s-1.6262-0.83008-2.707-0.83008zm34.875 0c-1.0808 0-2.0426 0.33178-2.707 0.83008s-1.0215 1.1283-1.0215 1.8086v6.541c0 0.68028 0.35708 1.3103 1.0215 1.8086s1.6262 0.83008 2.707 0.83008h13.078c1.0808 0 2.0446-0.33178 2.709-0.83008s1.0215-1.1283 1.0215-1.8086v-6.541c0-0.68027-0.35709-1.3103-1.0215-1.8086s-1.6282-0.83008-2.709-0.83008zm-0.6289 3.0996h14.338v5.6191h-14.338v-4.9902zm-10.27 1.2598c-0.86946 0-1.5488 0.67937-1.5488 1.5488 0 0.86946 0.67936 1.5508 1.5488 1.5508s1.5508-0.68133 1.5508-1.5508c0-0.86945-0.68133-1.5488-1.5508-1.5488z" color="#000000" color-rendering="auto" dominant-baseline="auto" fill="#9aa0aa" image-rendering="auto" shape-rendering="auto" solid-color="#000000" stop-color="#000000" style="font-feature-settings:normal;font-variant-alternates:normal;font-variant-caps:normal;font-variant-east-asian:normal;font-variant-ligatures:normal;font-variant-numeric:normal;font-variant-position:normal;font-variation-settings:normal;inline-size:0;isolation:auto;mix-blend-mode:normal;shape-margin:0;shape-padding:0;text-decoration-color:#000000;text-decoration-line:none;text-decoration-style:solid;text-indent:0;text-orientation:mixed;text-transform:none;white-space:normal"/>
</g>
</g>
</svg>
