<svg width="128" height="128" version="1.1" viewBox="0 0 128 128" xmlns="http://www.w3.org/2000/svg" xmlns:xlink="http://www.w3.org/1999/xlink">
<defs>
<linearGradient id="linearGradient827" x1="-350.66" x2="-101.11" y1="190.3" y2="455.96" gradientTransform="matrix(.19411 0 0 .19411 85.327 .71471)" gradientUnits="userSpaceOnUse">
<stop stop-color="#722bb3" offset="0"/>
<stop stop-color="#8535ce" offset="1"/>
</linearGradient>
<linearGradient id="linearGradient835" x1="758.26" x2="766.34" y1="166.21" y2="738.86" gradientTransform="matrix(.19411 0 0 .19411 -98.347 -14.557)" gradientUnits="userSpaceOnUse">
<stop stop-color="#b757e4" offset="0"/>
<stop stop-color="#ce63fe" offset=".22539"/>
<stop stop-color="#a43dde" offset=".22539"/>
<stop stop-color="#a147e8" offset=".46111"/>
<stop stop-color="#782dc4" offset=".46111"/>
<stop stop-color="#69369f" offset=".75362"/>
<stop stop-color="#5e338b" offset=".75414"/>
<stop stop-color="#5b4770" offset="1"/>
</linearGradient>
<linearGradient id="linearGradient863" x1="340.44" x2="379.54" y1="329.37" y2="329.37" gradientTransform="matrix(.19411 0 0 .19411 4.7065 .58039)" gradientUnits="userSpaceOnUse">
<stop stop-color="#121212" offset="0"/>
<stop stop-color="#121212" stop-opacity="0" offset="1"/>
</linearGradient>
<linearGradient id="linearGradient873" x1="165.38" x2="165.38" y1="493.02" y2="512.39" gradientTransform="matrix(.19411 0 0 .19411 4.7065 .58039)" gradientUnits="userSpaceOnUse">
<stop offset="0"/>
<stop stop-opacity="0" offset="1"/>
</linearGradient>
<radialGradient id="radialGradient885" cx="339.39" cy="482.86" r="30.703" gradientTransform="matrix(.25511 -.016608 .013465 .20682 -22.852 -.53658)" gradientUnits="userSpaceOnUse">
<stop offset="0"/>
<stop stop-opacity="0" offset="1"/>
</radialGradient>
<radialGradient id="radialGradient907" cx="354.04" cy="185.94" r="20.499" gradientTransform="matrix(.22311 .0060246 -.0049879 .18472 -4.6339 -1.1441)" gradientUnits="userSpaceOnUse">
<stop offset="0"/>
<stop stop-opacity="0" offset="1"/>
</radialGradient>
<radialGradient id="radialGradient917" cx="676.62" cy="-100.37" r="14.947" gradientTransform="matrix(.0056997 .2131 -.19815 .0052999 -13.303 -46.861)" gradientUnits="userSpaceOnUse">
<stop offset="0"/>
<stop stop-opacity="0" offset="1"/>
</radialGradient>
<linearGradient id="linearGradient994" x1="758.26" x2="766.34" y1="166.21" y2="738.86" gradientTransform="matrix(.19174 -.030225 .030225 .19174 -99.414 .93426)" gradientUnits="userSpaceOnUse">
<stop stop-color="#b757e4" offset="0"/>
<stop stop-color="#ce63fe" offset=".22539"/>
<stop stop-color="#bc67e5" offset="1"/>
</linearGradient>
</defs>
<rect transform="rotate(-8.9579)" x="13.481" y="16.167" width="91.78" height="115" rx="9.1177" ry="9.1177" fill="url(#linearGradient835)" style="paint-order:fill markers stroke"/>
<path d="m24.841 12.451 54.486-8.5886 17.907 113.6-54.486 8.5886c-4.9896 0.78651-9.6397-2.5972-10.426-7.5868l-15.067-95.586c-0.78651-4.9896 2.5972-9.6397 7.5868-10.426z" fill="url(#linearGradient994)" style="paint-order:fill markers stroke"/>
<path d="m72.805 35.435h5.2383l0.33577 57.89-7.5888 0.26863z" fill="url(#linearGradient863)"/>
<path d="m10.818 96.818v3.2236h59.972v-4.8354z" fill="url(#linearGradient873)" opacity=".659"/>
<path d="m70.79 100.04-0.0025-1.9996-0.83256-4.9058 4.2417 0.33818 3.6412-0.14822 3.989 0.04749-1.3297 7.3131-10.59 6.1259z" fill="url(#radialGradient885)"/>
<path d="m70.253 31.305 7.9582-0.1679-0.16789 4.2981h-5.2383z" fill="url(#radialGradient907)" opacity=".63"/>
<path d="m10.818 100.04v-5.2671h-5.8027v5.4611z" fill="url(#radialGradient917)" opacity=".594"/>
<rect x="6.4975" y="31.394" width="68.383" height="66.673" rx="4.7488" ry="4.7488" fill="url(#linearGradient827)" style="paint-order:fill markers stroke"/>
<g transform="translate(78.018 5.3626)" fill="none" opacity=".583" stroke="#000" stroke-linecap="round" stroke-linejoin="round" stroke-opacity=".031373">
<path d="m-44.319 41.743h-8.9463l-0.09596 35.249h9.0422v-21.292l13.98 21.292h8.9463l0.09596-35.249h-9.0422v21.292z"/>
<path d="m-44.319 41.743h-8.9463l-0.09596 35.249h9.0422v-21.292l13.98 21.292h8.9463l0.09596-35.249h-9.0422v21.292z" stroke-width="2"/>
<path d="m-44.319 41.743h-8.9463l-0.09596 35.249h9.0422v-21.292l13.98 21.292h8.9463l0.09596-35.249h-9.0422v21.292z" stroke-width="3"/>
<path d="m-44.319 41.743h-8.9463l-0.09596 35.249h9.0422v-21.292l13.98 21.292h8.9463l0.09596-35.249h-9.0422v21.292z" stroke-width="4"/>
<path d="m-44.319 41.743h-8.9463l-0.09596 35.249h9.0422v-21.292l13.98 21.292h8.9463l0.09596-35.249h-9.0422v21.292z" stroke-width="5"/>
<path d="m-44.319 41.743h-8.9463l-0.09596 35.249h9.0422v-21.292l13.98 21.292h8.9463l0.09596-35.249h-9.0422v21.292z" stroke-width="6"/>
<path d="m-44.319 41.743h-8.9463l-0.09596 35.249h9.0422v-21.292l13.98 21.292h8.9463l0.09596-35.249h-9.0422v21.292z" stroke-width="7"/>
<path d="m-44.319 41.743h-8.9463l-0.09596 35.249h9.0422v-21.292l13.98 21.292h8.9463l0.09596-35.249h-9.0422v21.292z" stroke-width="8"/>
<path d="m-44.319 41.743h-8.9463l-0.09596 35.249h9.0422v-21.292l13.98 21.292h8.9463l0.09596-35.249h-9.0422v21.292z" stroke-width="9"/>
<path d="m-44.319 41.743h-8.9463l-0.09596 35.249h9.0422v-21.292l13.98 21.292h8.9463l0.09596-35.249h-9.0422v21.292z" stroke-width="10"/>
<path d="m-44.319 41.743h-8.9463l-0.09596 35.249h9.0422v-21.292l13.98 21.292h8.9463l0.09596-35.249h-9.0422v21.292z" stroke-width="11"/>
</g>
<path d="m33.699 47.106h-8.9463l-0.09596 35.249h9.0422v-21.292l13.98 21.292h8.9463l0.09596-35.249h-9.0422v21.292z" fill="#fff"/>
</svg>
