<svg width="128" height="128" version="1.1" viewBox="0 0 33.867 33.867" xmlns="http://www.w3.org/2000/svg" xmlns:xlink="http://www.w3.org/1999/xlink">
<defs>
<linearGradient id="linearGradient936" x1="-27.206" x2="-27.206" y1="-1.3796" y2="25.268" gradientTransform="translate(43.842 5.6325)" gradientUnits="userSpaceOnUse">
<stop stop-color="#f5f9fb" offset="0"/>
<stop stop-color="#f5eeec" offset="1"/>
</linearGradient>
<filter id="b" x="-.14995" y="-.14418" width="1.2999" height="1.2884" color-interpolation-filters="sRGB">
<feGaussianBlur stdDeviation="1.562"/>
</filter>
<linearGradient id="c-3" x1="19.571" x2="43.065" y1="34.217" y2="34.217" gradientUnits="userSpaceOnUse">
<stop stop-color="#e9be35" offset="0"/>
<stop stop-color="#cc7533" offset="1"/>
</linearGradient>
<filter id="d-7" x="-.11539" y="-.30065" width="1.2308" height="1.6013" color-interpolation-filters="sRGB">
<feGaussianBlur stdDeviation="1.035"/>
</filter>
<linearGradient id="e-5" x1="18.071" x2="21.071" y1="24.717" y2="24.717" gradientUnits="userSpaceOnUse">
<stop stop-color="#ffc086" offset="0"/>
<stop stop-color="#ffd59c" offset="1"/>
</linearGradient>
<linearGradient id="f-3" x1="25.071" x2="43.071" y1="25.217" y2="25.217" gradientUnits="userSpaceOnUse">
<stop stop-color="#fdfa21" offset="0"/>
<stop stop-color="#fdbe21" offset="1"/>
</linearGradient>
<filter id="g-5" x="-.828" y="-.621" width="2.656" height="2.242" color-interpolation-filters="sRGB">
<feGaussianBlur stdDeviation="1.035"/>
</filter>
</defs>
<g transform="matrix(.97573 0 0 .97573 -65.777 -37.256)" fill="none" opacity=".29676" stroke="#000" stroke-linecap="round" stroke-linejoin="round" stroke-opacity=".02">
<rect x="69.84" y="40.71" width="29.811" height="29.811" rx="6.6099" ry="6.6099" stroke-width=".1"/>
<rect x="69.84" y="40.71" width="29.811" height="29.811" rx="6.6099" ry="6.6099" stroke-width=".2"/>
<rect x="69.84" y="40.71" width="29.811" height="29.811" rx="6.6099" ry="6.6099" stroke-width=".3"/>
<rect x="69.84" y="40.71" width="29.811" height="29.811" rx="6.6099" ry="6.6099" stroke-width=".4"/>
<rect x="69.84" y="40.71" width="29.811" height="29.811" rx="6.6099" ry="6.6099" stroke-width=".5"/>
<rect x="69.84" y="40.71" width="29.811" height="29.811" rx="6.6099" ry="6.6099" stroke-width=".6"/>
<rect x="69.84" y="40.71" width="29.811" height="29.811" rx="6.6099" ry="6.6099" stroke-width=".7"/>
<rect x="69.84" y="40.71" width="29.811" height="29.811" rx="6.6099" ry="6.6099" stroke-width=".8"/>
<rect x="69.84" y="40.71" width="29.811" height="29.811" rx="6.6099" ry="6.6099"/>
<rect x="69.84" y="40.71" width="29.811" height="29.811" rx="6.6099" ry="6.6099" stroke-width="1.2"/>
<rect x="69.84" y="40.71" width="29.811" height="29.811" rx="6.6099" ry="6.6099" stroke-width="1.4"/>
<rect x="69.84" y="40.71" width="29.811" height="29.811" rx="6.6099" ry="6.6099" stroke-width="1.6"/>
<rect x="69.84" y="40.71" width="29.811" height="29.811" rx="6.6099" ry="6.6099" stroke-width="1.8"/>
<rect x="69.84" y="40.71" width="29.811" height="29.811" rx="6.6099" ry="6.6099" stroke-width="2"/>
<rect x="69.84" y="40.71" width="29.811" height="29.811" rx="6.6099" ry="6.6099" stroke-width="2.2"/>
<rect x="69.84" y="40.71" width="29.811" height="29.811" rx="6.6099" ry="6.6099" stroke-width="2.6"/>
<rect x="69.84" y="40.71" width="29.811" height="29.811" rx="6.6099" ry="6.6099" stroke-width="3"/>
<rect x="69.84" y="40.71" width="29.811" height="29.811" rx="6.6099" ry="6.6099" stroke-width="3.4"/>
<rect x="69.84" y="40.71" width="29.811" height="29.811" rx="6.6099" ry="6.6099" stroke-width="3.8"/>
<rect x="69.84" y="40.71" width="29.811" height="29.811" rx="6.6099" ry="6.6099" stroke-width="4.2"/>
<rect x="69.84" y="40.71" width="29.811" height="29.811" rx="6.6099" ry="6.6099" stroke-width="4.6"/>
<rect x="69.84" y="40.71" width="29.811" height="29.811" rx="6.6099" ry="6.6099" stroke-width="5"/>
</g>
<rect x="2.3673" y="2.4659" width="29.087" height="29.087" rx="6.4495" ry="6.4495" fill="url(#linearGradient936)" stroke-linecap="round" stroke-linejoin="round" stroke-width="2.6877"/>
<g transform="matrix(.71477 0 0 .71477 -6.3823 -4.8992)">
<path d="m37.071 19.217c-1.48 0-2.7 0.4-3.648 1.072a0.9 0.9 0 0 0-0.352-0.072c-0.828 0-2 1-2 2.5 0 0.186 0.03 0.345 0.064 0.5h-5.064l5 2h-9.088a1.5 1.5 0 0 0-1.412-1 1.5 1.5 0 0 0-1.5 1.5 1.5 1.5 0 0 0 1.5 1.5c3.933 4.684 4.5 8 10.5 8 2 0 3.373-0.834 5-2l1 1-1-0.5c-0.575 1-1.877 2.5-5 2.5-2 0-3.206-0.501-4-1 0 2 1 1 1 2.5 0 1.413-1.488 2.75-2.836 3.813a15 15 0 0 0 9.836 3.687 15 15 0 0 0 8.994-3.014c-0.957-2.866-1.904-3.959-1.98-9.328 0.536 0.196 0.986 0.342 0.986 0.342 0-5 1-4 1-8 0-3.314-3.134-6-7-6z" filter="url(#b)" opacity=".15"/>
<path d="m20.071 24.217-0.5 2c3.933 4.684 4.5 8 10.5 8 2 0 3.373-0.834 5-2l1 1-1-0.5c-0.575 1-1.877 2.5-5 2.5-2 0-3.206-0.501-4-1 0 2 1 1 1 2.5 0 1.413-1.488 2.75-2.836 3.813a15 15 0 0 0 9.836 3.687 15 15 0 0 0 8.994-3.014c-0.998-2.988-1.994-3.997-1.994-9.986l-7-7z" fill="url(#c-3)"/>
<path d="m20.571 24.217a1.5 1.5 0 0 0-0.523 0.098l-0.477 1.902c0.286 0.34 0.522 0.657 0.775 0.982a1.5 1.5 0 0 0 0.225 0.018 1.5 1.5 0 0 0 1.5-1.5 1.5 1.5 0 0 0-1.5-1.5zm8 0 2.5 1c3.367 4.04 7.595 6.238 10.027 7.262-0.012-0.41-0.027-0.796-0.027-1.262l-7-7z" filter="url(#d-7)" opacity=".1"/>
<circle cx="19.571" cy="24.717" r="1.5" fill="url(#e-5)"/>
<path d="m36.071 18.217c-3.047 0-5.013 1.67-5.71 4h-5.29l5 2c5 6 12 8 12 8 0-5 1-4 1-8 0-3.314-3.134-6-7-6z" fill="url(#f-3)"/>
<path d="m34.071 21.717c0 1.5-1 2.5-2 2.5-0.529 0-1-0.563-1-1.5 0-1.5 1.172-2.5 2-2.5 0.673 0 1 0.6 1 1.5z" filter="url(#g-5)" opacity=".1"/>
<path d="m33.071 20.717c0 1.5-1 2.5-2 2.5-0.529 0-1-0.563-1-1.5 0-1.5 1.172-2.5 2-2.5 0.673 0 1 0.6 1 1.5z" fill="#f9f9f9"/>
</g>
</svg>
