<svg width="128" height="128" version="1.1" viewBox="0 0 33.867 33.867" xml:space="preserve" xmlns="http://www.w3.org/2000/svg" xmlns:xlink="http://www.w3.org/1999/xlink"><defs><linearGradient id="linearGradient912" x1="132.21" x2="132.21" y1="42.152" y2="70.68" gradientTransform="matrix(.97573 0 0 .97573 -111.89 -37.234)" gradientUnits="userSpaceOnUse"><stop stop-color="#f8fcfc" offset="0"/><stop stop-color="#e3e5e8" offset="1"/></linearGradient></defs><g transform="matrix(.97573 0 0 .97573 -65.83 -36.915)" fill="none" opacity=".13962" stroke="#000" stroke-linecap="round" stroke-linejoin="round" stroke-opacity=".02"><rect x="69.84" y="40.71" width="29.811" height="29.811" rx="6.6099" ry="6.6099" stroke-width=".1"/><rect x="69.84" y="40.71" width="29.811" height="29.811" rx="6.6099" ry="6.6099" stroke-width=".2"/><rect x="69.84" y="40.71" width="29.811" height="29.811" rx="6.6099" ry="6.6099" stroke-width=".3"/><rect x="69.84" y="40.71" width="29.811" height="29.811" rx="6.6099" ry="6.6099" stroke-width=".4"/><rect x="69.84" y="40.71" width="29.811" height="29.811" rx="6.6099" ry="6.6099" stroke-width=".5"/><rect x="69.84" y="40.71" width="29.811" height="29.811" rx="6.6099" ry="6.6099" stroke-width=".6"/><rect x="69.84" y="40.71" width="29.811" height="29.811" rx="6.6099" ry="6.6099" stroke-width=".7"/><rect x="69.84" y="40.71" width="29.811" height="29.811" rx="6.6099" ry="6.6099" stroke-width=".8"/><rect x="69.84" y="40.71" width="29.811" height="29.811" rx="6.6099" ry="6.6099"/><rect x="69.84" y="40.71" width="29.811" height="29.811" rx="6.6099" ry="6.6099" stroke-width="1.2"/><rect x="69.84" y="40.71" width="29.811" height="29.811" rx="6.6099" ry="6.6099" stroke-width="1.4"/><rect x="69.84" y="40.71" width="29.811" height="29.811" rx="6.6099" ry="6.6099" stroke-width="1.6"/><rect x="69.84" y="40.71" width="29.811" height="29.811" rx="6.6099" ry="6.6099" stroke-width="1.8"/><rect x="69.84" y="40.71" width="29.811" height="29.811" rx="6.6099" ry="6.6099" stroke-width="2"/><rect x="69.84" y="40.71" width="29.811" height="29.811" rx="6.6099" ry="6.6099" stroke-width="2.2"/><rect x="69.84" y="40.71" width="29.811" height="29.811" rx="6.6099" ry="6.6099" stroke-width="2.6"/><rect x="69.84" y="40.71" width="29.811" height="29.811" rx="6.6099" ry="6.6099" stroke-width="3"/><rect x="69.84" y="40.71" width="29.811" height="29.811" rx="6.6099" ry="6.6099" stroke-width="3.4"/><rect x="69.84" y="40.71" width="29.811" height="29.811" rx="6.6099" ry="6.6099" stroke-width="3.8"/><rect x="69.84" y="40.71" width="29.811" height="29.811" rx="6.6099" ry="6.6099" stroke-width="4.2"/><rect x="69.84" y="40.71" width="29.811" height="29.811" rx="6.6099" ry="6.6099" stroke-width="4.6"/><rect x="69.84" y="40.71" width="29.811" height="29.811" rx="6.6099" ry="6.6099" stroke-width="5"/></g><rect x="2.2835" y="2.4875" width="29.087" height="29.087" rx="6.4495" ry="6.4495" fill="url(#linearGradient912)" stroke-linecap="round" stroke-linejoin="round" stroke-width="2.6877"/><g transform="matrix(.37217 0 0 .37217 4.9178 4.9034)"><path d="m26 4.0001s-3.6262-0.0414-7.3418 1.8164c-3.7155 1.8578-7.6582 6.1836-7.6582 13.184v21h5.9991v-21c0-5 2.0573-6.6742 4.3418-7.8164 0.59471-0.29734 1.0957-0.36346 1.6591-0.53026v10.347c0 4 2.4427 6.8258 4.6582 7.9336 2.2155 1.1078 4.3418 1.0664 4.3418 1.0664s2.1262 0.0414 4.3418-1.0664c2.2155-1.1078 4.6582-3.9336 4.6582-7.9336v-10.347c0.56335 0.1668 1.0635 0.23292 1.6582 0.53026 2.2845 1.1422 4.3418 2.8164 4.3418 7.8164v21h6v-21c0-7-3.9427-11.326-7.6582-13.184-3.7155-1.8578-7.3418-1.8164-7.3418-1.8164h-3v17c0 2-0.55734 2.1742-1.3418 2.5664-0.78446 0.39222-1.6582 0.43359-1.6582 0.43359s-0.87375-0.0414-1.6582-0.43359c-0.78445-0.39223-1.3418-0.56641-1.3418-2.5664v-17z" opacity=".2"/><path d="m17 32.043c-7.8156 0.53045-14 7.0068-14 14.957s6.1843 14.427 14 14.957zm30 0v27.957h-7.0156c0.6296-0.83633 1.0156-1.8679 1.0156-3v-2c0-2.77-2.23-5-5-5h-8c-2.77 0-5 2.23-5 5v2c0 2.77 2.23 5 5 5h19v-0.04296c7.8156-0.53046 14-7.0068 14-14.957s-6.1843-14.427-14-14.957z" opacity=".2"/><path d="m26 3.0001s-3.6262-0.0414-7.3418 1.8164c-3.7155 1.8578-7.6582 6.1836-7.6582 13.184v21h5.9991v-21c0-5 2.0573-6.6742 4.3418-7.8164 0.59471-0.29734 1.0957-0.36346 1.6591-0.53026v10.347c0 4 2.4427 6.8258 4.6582 7.9336 2.2155 1.1078 4.3418 1.0664 4.3418 1.0664s2.1262 0.0414 4.3418-1.0664c2.2155-1.1078 4.6582-3.9336 4.6582-7.9336v-10.347c0.56335 0.1668 1.0635 0.23292 1.6582 0.53026 2.2845 1.1422 4.3418 2.8164 4.3418 7.8164v21h6v-21c0-7-3.9427-11.326-7.6582-13.184-3.7155-1.8578-7.3418-1.8164-7.3418-1.8164h-3v17c0 2-0.55734 2.1742-1.3418 2.5664-0.78446 0.39222-1.6582 0.43359-1.6582 0.43359s-0.87375-0.0414-1.6582-0.43359c-0.78445-0.39223-1.3418-0.56641-1.3418-2.5664v-17z" fill="#195bbd"/><path d="m17 31.043c-7.8156 0.53045-14 7.0068-14 14.957s6.1843 14.427 14 14.957zm30 0v27.957h-7.0156c0.6296-0.83633 1.0156-1.8679 1.0156-3v-2c0-2.77-2.23-5-5-5h-8c-2.77 0-5 2.23-5 5v2c0 2.77 2.23 5 5 5h19v-0.04296c7.8156-0.53046 14-7.0068 14-14.957s-6.1843-14.427-14-14.957z" fill="#229cfe"/><path d="m26 3s-3.6243-0.041402-7.3398 1.8164c-3.7155 1.8578-7.6602 6.1836-7.6602 13.184v1c0-7 3.9446-11.326 7.6602-13.184 3.7155-1.8578 7.3398-1.8164 7.3398-1.8164h3v-1zm9 0v1h3s3.6243-0.041371 7.3398 1.8164c3.7155 1.8578 7.6602 6.1836 7.6602 13.184v-1c0-7-3.9446-11.326-7.6602-13.184-3.7155-1.8578-7.3398-1.8164-7.3398-1.8164zm-6 17v1c0 2 0.55539 2.1742 1.3398 2.5664 0.78445 0.39219 1.6602 0.43359 1.6602 0.43359s0.8757-0.04137 1.6602-0.43359c0.78445-0.39223 1.3398-0.56642 1.3398-2.5664v-1c0 2-0.55539 2.1742-1.3398 2.5664-0.78446 0.39222-1.6602 0.43359-1.6602 0.43359s-0.8757-0.041401-1.6602-0.43359c-0.78445-0.39223-1.3398-0.56642-1.3398-2.5664z" fill="#fff" opacity=".1"/><path d="m17 31.043c-7.8156 0.53045-14 7.0068-14 14.957 0 0.16872 0.019864 0.33265 0.025391 0.5 0.25491-7.7183 6.3248-13.938 13.975-14.457zm30 0v1c7.6498 0.51919 13.72 6.7387 13.975 14.457 0.005527-0.16735 0.025391-0.33128 0.025391-0.5 0-7.9502-6.1844-14.427-14-14.957zm-19 17.957c-2.77 0-5 2.23-5 5v1c0-2.77 2.23-5 5-5h8c2.77 0 5 2.23 5 5v-1c0-2.77-2.23-5-5-5zm12.557 10c-0.15824 0.35397-0.34171 0.69374-0.57227 1h7.0156v-1z" fill="#fff" opacity=".2"/></g></svg>
