<svg width="128" height="128" version="1.1" viewBox="0 0 128 128" xmlns="http://www.w3.org/2000/svg" xmlns:osb="http://www.openswatchbook.org/uri/2009/osb" xmlns:xlink="http://www.w3.org/1999/xlink">
<defs>
<linearGradient id="linearGradient825" x1="-741.83" x2="-741.83" y1="959.05" y2="93.836" gradientTransform="matrix(.13668 0 0 .13668 162.31 -5.9893)" gradientUnits="userSpaceOnUse">
<stop stop-color="#013656" offset="0"/>
<stop stop-color="#2876c4" offset="1"/>
</linearGradient>
<style id="current-color-scheme" type="text/css">.ColorScheme-Text { color:#5c616c; } .ColorScheme-Highlight { color:#5294e2; }</style>
<style id="current-color-scheme-3" type="text/css">.ColorScheme-Text { color:#5c616c; } .ColorScheme-Highlight { color:#5294e2; }</style>
<style id="current-color-scheme-7" type="text/css">.ColorScheme-Text { color:#5c616c; } .ColorScheme-Highlight { color:#5294e2; }</style>
<style id="current-color-scheme-35" type="text/css">.ColorScheme-Text { color:#5c616c; } .ColorScheme-Highlight { color:#5294e2; }</style>
<style id="current-color-scheme-9" type="text/css">.ColorScheme-Text { color:#5c616c; } .ColorScheme-Highlight { color:#5294e2; }</style>
<style id="current-color-scheme-2" type="text/css">.ColorScheme-Text { color:#5c616c; } .ColorScheme-Highlight { color:#5294e2; }</style>
<style id="current-color-scheme-0" type="text/css">.ColorScheme-Text { color:#5c616c; } .ColorScheme-Highlight { color:#5294e2; }</style>
<style id="current-color-scheme-36" type="text/css">.ColorScheme-Text { color:#5c616c; } .ColorScheme-Highlight { color:#5294e2; }</style>
<style id="current-color-scheme-6" type="text/css">.ColorScheme-Text { color:#5c616c; } .ColorScheme-Highlight { color:#5294e2; }</style>
<style id="current-color-scheme-61" type="text/css">.ColorScheme-Text { color:#5c616c; } .ColorScheme-Highlight { color:#5294e2; }</style>
<style id="current-color-scheme-79" type="text/css">.ColorScheme-Text { color:#5c616c; } .ColorScheme-Highlight { color:#5294e2; }</style>
<style id="current-color-scheme-23" type="text/css">.ColorScheme-Text { color:#5c616c; } .ColorScheme-Highlight { color:#5294e2; }</style>
<style id="current-color-scheme-92" type="text/css">.ColorScheme-Text { color:#5c616c; } .ColorScheme-Highlight { color:#5294e2; }</style>
<style id="current-color-scheme-97" type="text/css">.ColorScheme-Text { color:#5c616c; } .ColorScheme-Highlight { color:#5294e2; }</style>
<style id="current-color-scheme-612" type="text/css">.ColorScheme-Text { color:#5c616c; } .ColorScheme-Highlight { color:#5294e2; }</style>
<style id="current-color-scheme-1" type="text/css">.ColorScheme-Text { color:#5c616c; } .ColorScheme-Highlight { color:#5294e2; }</style>
<style id="current-color-scheme-3-0" type="text/css">.ColorScheme-Text { color:#5c616c; } .ColorScheme-Highlight { color:#5294e2; }</style>
<style id="current-color-scheme-7-6" type="text/css">.ColorScheme-Text { color:#5c616c; } .ColorScheme-Highlight { color:#5294e2; }</style>
<style id="current-color-scheme-35-3" type="text/css">.ColorScheme-Text { color:#5c616c; } .ColorScheme-Highlight { color:#5294e2; }</style>
<style id="current-color-scheme-9-2" type="text/css">.ColorScheme-Text { color:#5c616c; } .ColorScheme-Highlight { color:#5294e2; }</style>
<style id="current-color-scheme-2-0" type="text/css">.ColorScheme-Text { color:#5c616c; } .ColorScheme-Highlight { color:#5294e2; }</style>
<style id="current-color-scheme-0-6" type="text/css">.ColorScheme-Text { color:#5c616c; } .ColorScheme-Highlight { color:#5294e2; }</style>
<style id="current-color-scheme-36-1" type="text/css">.ColorScheme-Text { color:#5c616c; } .ColorScheme-Highlight { color:#5294e2; }</style>
<style id="current-color-scheme-6-5" type="text/css">.ColorScheme-Text { color:#5c616c; } .ColorScheme-Highlight { color:#5294e2; }</style>
<style id="current-color-scheme-61-5" type="text/css">.ColorScheme-Text { color:#5c616c; } .ColorScheme-Highlight { color:#5294e2; }</style>
<style id="current-color-scheme-79-4" type="text/css">.ColorScheme-Text { color:#5c616c; } .ColorScheme-Highlight { color:#5294e2; }</style>
<style id="current-color-scheme-23-7" type="text/css">.ColorScheme-Text { color:#5c616c; } .ColorScheme-Highlight { color:#5294e2; }</style>
<style id="current-color-scheme-92-6" type="text/css">.ColorScheme-Text { color:#5c616c; } .ColorScheme-Highlight { color:#5294e2; }</style>
<style id="current-color-scheme-97-5" type="text/css">.ColorScheme-Text { color:#5c616c; } .ColorScheme-Highlight { color:#5294e2; }</style>
<style id="current-color-scheme-612-6" type="text/css">.ColorScheme-Text { color:#5c616c; } .ColorScheme-Highlight { color:#5294e2; }</style>
<clipPath>
<rect width="384" height="384"/>
</clipPath>
<clipPath>
<rect width="384" height="384"/>
</clipPath>
<clipPath>
<rect width="384" height="384"/>
</clipPath>
<clipPath>
<rect width="384" height="384"/>
</clipPath>
<linearGradient id="linearGradient5161" x1="63.273" x2="63.013" y1="116.36" y2="17.147" gradientUnits="userSpaceOnUse">
<stop stop-color="#014c7a" offset="0"/>
<stop stop-color="#2160a0" offset="1"/>
</linearGradient>
</defs>
<circle cx="63.592" cy="64.286" r="61.38" fill="url(#linearGradient825)"/>
<circle cx="63.592" cy="64.286" r="55.09" fill="url(#linearGradient5161)"/>
<path d="m98.435 98.669c-0.4671-0.30506-3.0297-1.7689-5.6944-3.2529-5.5467-3.0889-11.079-7.8184-11.079-9.4709 0-1.4665 1.8138-2.6388 4.5867-2.965 1.3309-0.15645 3.0757-0.41245 3.8774-0.56895l1.4577-0.2845-2.1611-1.5788c-2.0444-1.4935-3.6273-2.2347-8.2675-3.8717-3.0043-1.0597-5.1845-3.5302-7.641-8.6576-6.3988-13.357-7.5841-15.552-9.7586-18.072-2.4484-2.8372-5.9818-5.7932-10.726-8.9732-4.6586-3.1226-5.3842-3.4053-8.7445-3.4053-2.6758 0-3.2397-0.14817-4.9059-1.2891-2.6321-1.8022-5.2471-2.9167-6.8693-2.9275-2.0885-0.01422-1.8416 1.4776 0.78073 4.7171 2.5455 3.1446 3.1464 4.2235 4.4142 7.9271 0.52184 1.5244 1.9312 4.4752 3.1319 6.5574 1.2007 2.0821 2.183 3.9695 2.183 4.1943 0 0.22472-0.50332 1.8491-1.1185 3.6099-1.3523 3.8704-1.7264 8.0093-1.0014 11.078 1.2582 5.3252 2.8031 6.0506 3.6821 1.7287 0.76296-3.7517 2.0808-6.0185 3.493-6.0087 0.43448 0.0028 1.8191 2.1305 3.8621 5.9342 1.7516 3.2612 4.2822 7.3807 5.6235 9.1545 1.3413 1.7738 2.3521 3.3111 2.2464 3.4164-0.25066 0.2495-3.7214-2.6761-6.2521-5.2696-1.0954-1.1228-2.6662-3.1619-3.4907-4.5316-1.4227-2.3632-1.5187-2.4386-1.8822-1.4791-0.21057 0.55606-0.5161 1.6202-0.67878 2.3646-0.4692 2.1472-1.7788 3.5062-3.3787 3.5062-2.2398 0-3.8464-2.2462-5.1519-7.203-0.87236-3.3119-0.651-10.358 0.43575-13.871 0.70085-2.2659 0.70044-2.2699-0.34281-3.3807-1.343-1.4301-2.1075-2.9627-3.7605-7.5385-1.0484-2.9024-2.0172-4.5766-4.4235-7.6456-2.1638-2.7596-3.165-4.424-3.3631-5.5904-0.61434-3.619 0.78588-5.7203 3.7688-5.6558 2.3062 0.04985 7.0282 1.6286 9.0624 3.03 1.2001 0.8267 2.399 1.1871 4.721 1.419 5.712 0.57055 11.938 4.2088 18.466 10.79 6.3232 6.3752 11.084 13.892 12.854 20.293 1.1859 4.2895 3.0602 6.3137 8.2062 8.8617 3.7781 1.8707 4.9396 2.7198 8.3697 6.1194 2.1905 2.171 3.9827 4.269 3.9827 4.6622 0 0.86431-1.7779 1.4792-5.3079 1.8356-4.9496 0.49983-4.9116 0.40417-1.2063 3.0333 6.3163 4.4819 8.587 6.6663 9.2588 8.9067 0.32079 1.0697-0.0156 1.1637-1.2583 0.35184zm-54.362-53.659c-0.34552-0.823-1.0107-1.7001-1.4782-1.9491-0.99453-0.52971-1.097-1.3832-0.25015-2.0827 0.90798-0.74995 3.5429 0.46814 3.8769 1.7922 0.79449 3.1502-0.98669 5.0071-2.1486 2.2397z" fill="#fff" stroke-width="2.5868"/>
</svg>
