<svg width="128" height="128" version="1.1" viewBox="0 0 33.867 33.867" xmlns="http://www.w3.org/2000/svg" xmlns:xlink="http://www.w3.org/1999/xlink">
<defs>
<linearGradient id="linearGradient897" x1="2686" x2="2686" y1="1088.8" y2="1770.4" gradientTransform="matrix(.042779 0 0 .042779 -95.919 -44.867)" gradientUnits="userSpaceOnUse">
<stop stop-color="#8cf877" offset="0"/>
<stop stop-color="#0fbfa1" offset="1"/>
</linearGradient>
<radialGradient id="radialGradient898" cx="60.636" cy="20.456" r="17.304" gradientTransform="translate(-43.433 -3.9449)" gradientUnits="userSpaceOnUse">
<stop stop-color="#0b0b0b" offset="0"/>
<stop stop-color="#0b0b0b" stop-opacity=".85882" offset=".68076"/>
<stop stop-color="#0b0b0b" stop-opacity=".83137" offset=".69925"/>
<stop stop-color="#0b0b0b" stop-opacity=".80392" offset=".71879"/>
<stop stop-color="#0b0b0b" stop-opacity=".78039" offset=".73593"/>
<stop stop-color="#0b0b0b" stop-opacity=".75686" offset=".75022"/>
<stop stop-color="#0b0b0b" stop-opacity=".73333" offset=".76799"/>
<stop stop-color="#0b0b0b" stop-opacity=".082353" offset=".91501"/>
<stop stop-color="#0b0b0b" stop-opacity=".070588" offset=".92247"/>
<stop stop-color="#0b0b0b" stop-opacity=".058824" offset=".92919"/>
<stop stop-color="#0b0b0b" stop-opacity=".047059" offset=".93841"/>
<stop stop-color="#0b0b0b" stop-opacity=".031373" offset=".94761"/>
<stop stop-color="#0b0b0b" stop-opacity=".023529" offset=".95381"/>
<stop stop-color="#0b0b0b" stop-opacity=".015686" offset=".95886"/>
<stop stop-color="#0b0b0b" stop-opacity=".011765" offset=".96356"/>
<stop stop-color="#0b0b0b" stop-opacity=".0078431" offset=".96845"/>
<stop stop-color="#0b0b0b" stop-opacity=".0039216" offset=".97348"/>
<stop stop-color="#0b0b0b" stop-opacity="0" offset=".97812"/>
<stop stop-color="#0b0b0b" stop-opacity="0" offset=".98456"/>
<stop stop-color="#0b0b0b" stop-opacity="0" offset=".98701"/>
<stop stop-color="#0b0b0b" stop-opacity="0" offset=".98925"/>
<stop stop-color="#0b0b0b" stop-opacity="0" offset="1"/>
</radialGradient>
<radialGradient id="radialGradient993" cx="16.968" cy="4.6709" r="13.696" gradientTransform="matrix(4.8886 0 0 1.8641 -65.724 -2.4383)" gradientUnits="userSpaceOnUse">
<stop stop-color="#8af55d" offset="0"/>
<stop stop-color="#00c6a1" offset="1"/>
</radialGradient>
<linearGradient id="linearGradient905" x1="15.547" x2="15.547" y1="10.398" y2="25.913" gradientUnits="userSpaceOnUse">
<stop stop-color="#fff" offset="0"/>
<stop stop-color="#e1faf1" offset="1"/>
</linearGradient>
</defs>
<circle cx="17.203" cy="16.512" r="17.304" fill="url(#radialGradient898)" opacity=".30973" stroke-linecap="square" stroke-linejoin="round" stroke-width="3"/>
<circle cx="17.203" cy="16.512" r="15.118" fill="url(#linearGradient897)" stroke="#b1aaaa" stroke-linecap="square" stroke-opacity=".99216" stroke-width=".057556"/>
<circle cx="17.203" cy="16.512" r="13.102" fill="url(#radialGradient993)"/>
<g transform="translate(.22503 -.33427)" fill="#0c4f43" fill-opacity=".045615" opacity=".34384" shape-rendering="auto">
<path d="m19.134 6.0476c-0.08487 2e-3 -0.169 0.02013-0.2465 0.05478-0.24532 0.10769-0.37013 0.16321-0.42736 0.18758-0.01416 6e-3 -0.02541 0.0089-0.03152 0.01137-9.16e-4 3.79e-4 -0.0014 0.0018-0.0021 0.0021-4.18e-4 1.7e-4 -0.0017-1.59e-4 -0.0021 0-9.68e-4 3.98e-4 -2e-3 0.0014-0.0036 0.0021-5e-3 0.0015-0.0083 3.03e-4 -0.0217 0.0057-0.02127 0.0085-0.04058 0.01702-0.0739 0.03152-0.06654 0.02895-0.18996 0.08336-0.4377 0.19327l-8.0977 3.6055h0.01964a0.10001 0.10001 0 0 0-0.04082 0.0098c-0.07427 0.03345-0.12625 0.05663-0.1602 0.07235-0.01709 0.0079-0.0285 0.01342-0.04134 0.01964-0.01346 0.0064-0.01796 0.0092-0.02532 0.01343-0.0074 0.0043-0.0142 0.0082-0.01344 0.0078-0.08953 0.03893-0.26456 0.11234-0.58188 0.25011-0.19867 0.08584-0.34095 0.26722-0.37724 0.48059l-0.06821 0.39998a0.10001 0.10001 0 0 0-0.0021 0l-1.2909 7.5313-0.20929 1.2072c-0.03648 0.21115 0.03606 0.42699 0.19172 0.57412l7.2166 6.8223c0.0037 0.0036 0.0089 7e-3 0.01189 0.0098 0.172 0.15482 0.26207 0.23462 0.31058 0.2775 0.02423 0.02142 0.03853 0.03494 0.05478 0.04857 1e-3 8.58e-4 0.0026 0.0012 0.0036 0.0021 0.0013 0.0011 0.0028 3e-3 0.0041 0.0041 0.0025 0.0024 0.0038 0.0039 0.0057 0.0057 6.26e-4 5.92e-4 0.0019 0.0019 0.0021 0.0021 5.62e-4 4.26e-4 3e-3 0.0012 0.0041 0.0021l0.0016 0.0021c3e-3 0.0024 0.0089 0.0078 0.01757 0.0155 0.03917 0.03509 0.12403 0.10976 0.28732 0.25787 0.18461 0.16742 0.45012 0.21258 0.67954 0.11524 0.20801-0.0884 0.24155-0.10164 0.36122-0.15244l0.0021-0.0021c9.31e-4 -2.46e-4 0.0012 2.33e-4 0.0021 0a0.10001 0.10001 0 0 0 0.0041-0.0021c0.0028-9.16e-4 0.0027-0.0017 0.0036-0.0021 2.6e-4 -1.11e-4 0.0038-4.15e-4 0.0062-0.0015 9.9e-4 -4.66e-4 0.0018-0.0019 0.0021-0.0021a0.10001 0.10001 0 0 0 0.0016 0 0.10001 0.10001 0 0 0 0.0021 0c0.0027-0.0012-0.0043 0.0033 0.01757-0.0062a0.10001 0.10001 0 0 0 0-0.0021l0.0098-0.0021 0.43357-0.17363a0.10001 0.10001 0 0 0 0.0057-0.0036c0.0048-0.0023 0.01057-0.0053 0.0155-0.0078l7.8124-3.4592 0.0062-0.0021a0.10001 0.10001 0 0 0 0.0057-0.0021c1.13e-4 -4.8e-5 0.0038-0.0035 0.0078-0.0057 0.0018-9.87e-4 0.0028-0.0013 0.0041-0.0021l0.0021-0.0021h0.0021c0.0011-6.35e-4 3.86e-4 -0.0014 0.0016-0.0021l0.04703-0.01912c0.0064-0.0015 0.01124-0.0035 0.01757-0.0062l0.02739-0.01188c0.05195-0.02305 0.27273-0.12156 0.36328-0.16175l0.01189-0.0041a0.10001 0.10001 0 0 0 0.0078-0.0036c0.02168-0.0096 0.06021-0.02586 0.08578-0.03721a0.10001 0.10001 0 0 0 0.0021-0.0021c1.32e-4 -6.1e-5 0.0027-0.0013 0.0041-0.0021l0.03669-0.01757a0.10001 0.10001 0 0 0 0.0041-0.0021 0.10001 0.10001 0 0 0 0.0057-0.0021 0.10001 0.10001 0 0 0 0.0041 0c0.0031-0.0014 0.0055-0.0025 0.0078-0.0036 0.0024-0.0011 5e-3 -0.0027 0.0078-0.0041 0.0014-6.83e-4 0.0012-4.55e-4 0.0041-0.0021 0.0048-0.0023 7e-3 -2e-3 0.0098-0.0036 2.54e-4 -1.5e-4 -2.14e-4 -0.0019 0-0.0021 9.89e-4 -5.9e-4 0.0037-0.0021 0.0036-0.0021l0.0041-0.0021c0.0019-9.26e-4 0.0019-9.98e-4 0.0036-0.0021 0.18188-0.08068 0.25628-0.11203 0.58033-0.2558 0.19619-0.08661 0.33486-0.26508 0.37104-0.47646l1.5663-9.1095c0.03438-0.20052-0.02885-0.40594-0.17002-0.55242-0.10674-0.11105-0.16026-0.16498-0.18138-0.18758-0.0016-0.0022-0.0028-0.0044-0.0041-0.0062-0.0049-0.0053-0.0033-0.0054-0.0036-0.0057-0.04178-0.05266-0.08499-0.09199-0.34985-0.36535l-0.0036-0.0057c-0.0044-0.0051-8e-3 -0.01116-0.01188-0.0155a0.10001 0.10001 0 0 0-0.0062-0.0062c-2.0371-1.9292-0.31053-0.29541-7.358-6.9402-0.11155-0.10557-0.25848-0.16666-0.41186-0.17363-0.01299-6.18e-4 -0.02626-1.77e-4 -0.03927 0a0.10001 0.10001 0 0 0-0.0016 0zm-0.3266 2.6055 5.5237 5.24-6.8244 3.0277-5.5407-5.2462zm-8.3375 4.7713 5.4705 5.1816-1.0666 6.1976-5.4663-5.1759zm16.773 0.20154s0.0067 0.0011 0.0078 0.0015c-0.0022 0.0018-3e-3 0.0026-0.0041 0.0036-1.28e-4 -1.38e-4 -9.07e-4 -8.98e-4 -1e-3 -1e-3 -0.0076-0.0082-0.0033-0.0048-0.0026-0.0041zm-2.1931 2.4665-1.0413 6.043-6.8807 3.0567 1.0392-6.0451z" color="#000000" color-rendering="auto" dominant-baseline="auto" image-rendering="auto" solid-color="#000000" stop-color="#000000" style="font-feature-settings:normal;font-variant-alternates:normal;font-variant-caps:normal;font-variant-east-asian:normal;font-variant-ligatures:normal;font-variant-numeric:normal;font-variant-position:normal;font-variation-settings:normal;inline-size:0;isolation:auto;mix-blend-mode:normal;shape-margin:0;shape-padding:0;text-decoration-color:#000000;text-decoration-line:none;text-decoration-style:solid;text-indent:0;text-orientation:mixed;text-transform:none;white-space:normal"/>
<path d="m19.398 6.1219c-0.08487 2e-3 -0.169 0.02013-0.2465 0.05478-0.24532 0.10769-0.37013 0.16321-0.42736 0.18758-0.01416 6e-3 -0.02541 0.0089-0.03152 0.01137-9.16e-4 3.79e-4 -0.0014 0.0018-0.0021 0.0021-4.18e-4 1.7e-4 -0.0017-1.59e-4 -0.0021 0-9.68e-4 3.98e-4 -2e-3 0.0014-0.0036 0.0021-5e-3 0.0015-0.0083 3.03e-4 -0.0217 0.0057-0.02127 0.0085-0.04058 0.01702-0.0739 0.03152-0.06654 0.02895-0.18996 0.08336-0.4377 0.19327l-8.0977 3.6055h0.01964a0.10001 0.10001 0 0 0-0.04082 0.0098c-0.07427 0.03345-0.12625 0.05663-0.1602 0.07235-0.01709 0.0079-0.0285 0.01342-0.04134 0.01964-0.01346 0.0064-0.01796 0.0092-0.02532 0.01343-0.0074 0.0043-0.0142 0.0082-0.01344 0.0078-0.08953 0.03893-0.26456 0.11234-0.58188 0.25011-0.19867 0.08584-0.34095 0.26722-0.37724 0.48059l-0.06821 0.39998a0.10001 0.10001 0 0 0-0.0021 0l-1.2909 7.5313-0.20929 1.2072c-0.03648 0.21115 0.03606 0.42699 0.19172 0.57412l7.2166 6.8223c0.0037 0.0036 0.0089 7e-3 0.01189 0.0098 0.172 0.15482 0.26207 0.23462 0.31058 0.2775 0.02423 0.02142 0.03853 0.03494 0.05478 0.04857 1e-3 8.58e-4 0.0026 0.0012 0.0036 0.0021 0.0013 0.0011 0.0028 3e-3 0.0041 0.0041 0.0025 0.0024 0.0038 0.0039 0.0057 0.0057 6.26e-4 5.92e-4 0.0019 0.0019 0.0021 0.0021 5.62e-4 4.26e-4 3e-3 0.0012 0.0041 0.0021l0.0016 0.0021c3e-3 0.0024 0.0089 0.0078 0.01757 0.0155 0.03917 0.03509 0.12403 0.10976 0.28732 0.25787 0.18461 0.16742 0.45012 0.21258 0.67954 0.11524 0.20801-0.0884 0.24155-0.10164 0.36122-0.15244l0.0021-0.0021c9.31e-4 -2.46e-4 0.0012 2.33e-4 0.0021 0a0.10001 0.10001 0 0 0 0.0041-0.0021c0.0028-9.16e-4 0.0027-0.0017 0.0036-0.0021 2.6e-4 -1.11e-4 0.0038-4.15e-4 0.0062-0.0015 9.9e-4 -4.66e-4 0.0018-0.0019 0.0021-0.0021a0.10001 0.10001 0 0 0 0.0016 0 0.10001 0.10001 0 0 0 0.0021 0c0.0027-0.0012-0.0043 0.0033 0.01757-0.0062a0.10001 0.10001 0 0 0 0-0.0021l0.0098-0.0021 0.43357-0.17363a0.10001 0.10001 0 0 0 0.0057-0.0036c0.0048-0.0023 0.01057-0.0053 0.0155-0.0078l7.8124-3.4592 0.0062-0.0021a0.10001 0.10001 0 0 0 0.0057-0.0021c1.13e-4 -4.8e-5 0.0038-0.0035 0.0078-0.0057 0.0018-9.87e-4 0.0028-0.0013 0.0041-0.0021l0.0021-0.0021h0.0021c0.0011-6.35e-4 3.86e-4 -0.0014 0.0016-0.0021l0.04703-0.01912c0.0064-0.0015 0.01124-0.0035 0.01757-0.0062l0.02739-0.01188c0.05195-0.02305 0.27273-0.12156 0.36328-0.16175l0.01189-0.0041a0.10001 0.10001 0 0 0 0.0078-0.0036c0.02168-0.0096 0.06021-0.02586 0.08578-0.03721a0.10001 0.10001 0 0 0 0.0021-0.0021c1.32e-4 -6.1e-5 0.0027-0.0013 0.0041-0.0021l0.03669-0.01757a0.10001 0.10001 0 0 0 0.0041-0.0021 0.10001 0.10001 0 0 0 0.0057-0.0021 0.10001 0.10001 0 0 0 0.0041 0c0.0031-0.0014 0.0055-0.0025 0.0078-0.0036 0.0024-0.0011 5e-3 -0.0027 0.0078-0.0041 0.0014-6.83e-4 0.0012-4.55e-4 0.0041-0.0021 0.0048-0.0023 7e-3 -2e-3 0.0098-0.0036 2.54e-4 -1.5e-4 -2.14e-4 -0.0019 0-0.0021 9.89e-4 -5.9e-4 0.0037-0.0021 0.0036-0.0021l0.0041-0.0021c0.0019-9.26e-4 0.0019-9.98e-4 0.0036-0.0021 0.18188-0.08068 0.25628-0.11203 0.58033-0.2558 0.19619-0.08661 0.33486-0.26508 0.37104-0.47646l1.5663-9.1095c0.03438-0.20052-0.02885-0.40594-0.17002-0.55242-0.10674-0.11105-0.16026-0.16498-0.18138-0.18758-0.0016-0.0022-0.0028-0.0044-0.0041-0.0062-0.0049-0.0053-0.0033-0.0054-0.0036-0.0057-0.04178-0.05266-0.08499-0.09199-0.34985-0.36535l-0.0036-0.0057c-0.0044-0.0051-8e-3 -0.01116-0.01188-0.0155a0.10001 0.10001 0 0 0-0.0062-0.0062c-2.0371-1.9292-0.31053-0.29541-7.358-6.9402-0.11155-0.10557-0.25848-0.16666-0.41186-0.17363-0.01299-6.18e-4 -0.02626-1.77e-4 -0.03927 0a0.10001 0.10001 0 0 0-0.0016 0zm-0.3266 2.6055 5.5237 5.24-6.8244 3.0277-5.5407-5.2462zm-8.3375 4.7713 5.4705 5.1816-1.0666 6.1976-5.4663-5.1759zm16.773 0.20154s0.0067 0.0011 0.0078 0.0015c-0.0022 0.0018-3e-3 0.0026-0.0041 0.0036-1.28e-4 -1.38e-4 -9.07e-4 -8.98e-4 -1e-3 -1e-3 -0.0076-0.0082-0.0033-0.0048-0.0026-0.0041zm-2.1931 2.4665-1.0413 6.043-6.8807 3.0567 1.0392-6.0451z" color="#000000" color-rendering="auto" dominant-baseline="auto" image-rendering="auto" solid-color="#000000" stop-color="#000000" style="font-feature-settings:normal;font-variant-alternates:normal;font-variant-caps:normal;font-variant-east-asian:normal;font-variant-ligatures:normal;font-variant-numeric:normal;font-variant-position:normal;font-variation-settings:normal;inline-size:0;isolation:auto;mix-blend-mode:normal;shape-margin:0;shape-padding:0;text-decoration-color:#000000;text-decoration-line:none;text-decoration-style:solid;text-indent:0;text-orientation:mixed;text-transform:none;white-space:normal"/>
<path d="m20.004 6.2544c-0.11022 0.0026-0.21946 0.025777-0.32246 0.07183-0.24562 0.10782-0.37079 0.16297-0.42375 0.18552-2.97e-4 1.259e-4 -0.01068 0.00507-0.01964 0.00827-0.0026 9.43e-4 -5.43e-4 -4.49e-4 -0.0057 0.00155-0.0031 0.0012 3.1e-5 -0.00169-0.0041 0a0.20002 0.20002 0 0 0-0.0016 0.00207c-2.56e-4 -4.05e-5 -0.0026 0.00173-0.0041 0.00207-0.0085 0.00193-0.0034-0.0023-0.02325 0.00568-0.02463 0.00988-0.04626 0.02109-0.07855 0.03514-0.06764 0.029428-0.19137 0.083296-0.43925 0.19327l-8.0977 3.6055a0.20002 0.20002 0 0 0-0.01757 0.0098c-0.0012 5.12e-4 -0.0025-5.27e-4 -0.0036 0-0.0011 4.83e-4 -1e-3 0.0016-0.0021 0.0021-0.07224 0.03253-0.12416 0.05566-0.1602 0.07235-0.01852 0.0086-0.03206 0.01339-0.04496 0.01964-0.01493 0.0072-0.02464 0.01601-0.031 0.01964-0.0011 5.99e-4 -0.0055 0.0017-0.0062 0.0021a0.20002 0.20002 0 0 0-0.0021 0c-8e-4 4.65e-4 -7.6e-4 0.0011-0.0015 0.0016l-0.0041 0.0021c-0.0012 6.83e-4 -0.0026 0.0015-0.0036 0.0021l-0.0021 0.0021c-0.08954 0.03876-0.25555 0.10691-0.56276 0.2403-0.26092 0.11274-0.4464 0.3488-0.49403 0.6289l-0.064595 0.37672a0.20002 0.20002 0 0 0-0.00568 0.02377l-1.2909 7.5313-0.20929 1.2066c-0.047945 0.27751 0.046037 0.56106 0.25011 0.75396l7.2166 6.8223c0.01835 0.01732 0.0333 0.02738 0.01395 0.0093a0.20002 0.20002 0 0 0 0.0021 0.0041c0.1724 0.15519 0.26394 0.23445 0.31264 0.2775 0.02142 0.01894 0.03569 0.03321 0.05633 0.05064 7.49e-4 6.32e-4 0.0013 0.0014 0.0021 0.0021a0.20002 0.20002 0 0 0 0.0021 0.0021 0.20002 0.20002 0 0 0 0.0036 0.0021 0.20002 0.20002 0 0 0 0.0021 0.0015 0.20002 0.20002 0 0 0 0.0062 0.0062 0.20002 0.20002 0 0 0 0.0021 0.0021l0.0057 0.0036a0.20002 0.20002 0 0 0 0.0021 0.0021 0.20002 0.20002 0 0 0 0.0021 0.0021c-0.01-8e-3 -7.95e-4 2.91e-4 0.0078 0.0078 0.04107 0.03679 0.12428 0.11046 0.2868 0.25787 0.24204 0.21951 0.592 0.27807 0.89297 0.15038 0.2033-0.0864 0.23875-0.10171 0.35347-0.15038a0.20002 0.20002 0 0 0 0.0057-0.0041c0.0016-3.87e-4 0.0027 3.54e-4 0.0041 0h0.0021a0.20002 0.20002 0 0 0 0.0036-0.0016c0.0018-5.74e-4 0.0026-0.0015 0.0041-0.0021 0.0022-7.33e-4 0.0039-0.0014 0.0057-0.0021 0.0011-3.91e-4 0.0031 3.71e-4 0.0041 0 0.0074-0.0028 0.01401-0.0066 0.02119-0.0098a0.20002 0.20002 0 0 0 0.0041-0.0021l0.43356-0.17363a0.20002 0.20002 0 0 0 0.01757-0.0078c0.0046-0.0022 0.0066-0.0025 0.0098-0.0041 0.0013-7.51e-4 0.0023-0.0013 0.0036-0.0021 8.08e-4 -4.89e-4 0.0013-0.0016 0.0021-0.0021 0.0013-7.81e-4 0.0029-0.0013 0.0041-0.0021l7.7928-3.451c-5.76e-4 1.96e-4 -0.0015-1.93e-4 -0.0021 0h-0.04082a0.20002 0.20002 0 0 0 0.07596-0.01757l0.01189-0.0041c0.0012-7.2e-4 8.72e-4 -7.51e-4 0.0021-0.0016 0.0038-0.0022 0.0053-0.0025 0.0078-0.0041h-0.0041c0.0026-6.21e-4 0.0036-0.0014 0.0062-0.0021-2.69e-4 1.89e-4 2.85e-4 0.0019 0 0.0021l0.0021-0.0021c8.96e-4 -5.58e-4 7.51e-4 -0.0016 0.0016-0.0021 2.17e-4 -2.07e-4 0.0017-0.0018 0.0021-0.0021a0.20002 0.20002 0 0 0 0.0078-0.0057c0.0167-0.01612 0.05167-0.05172 0.05478-0.05478-3.67e-4 6.9e-4 -0.0021 0.0041-0.0021 0.0041 1.01e-4 -1.49e-4 -0.03733 0.03622-0.05271 0.05064 5.01e-4 -4.2e-4 0.0018 2.46e-4 0.0021 0a0.20002 0.20002 0 0 0 0.01395-0.01034l-0.01395 0.01447c0.01075-0.0037 0.02521-8e-3 0.02946-0.0098a0.20002 0.20002 0 0 0 0.0021 0l0.02739-0.01188c0.05082-0.02255 0.25112-0.11336 0.34727-0.15606l0.0098-0.0041c4.21e-4 -1.87e-4 0.0016 1.85e-4 0.0021 0a0.20002 0.20002 0 0 0 0.01188-0.0041c4e-3 -0.0016 8e-3 -0.0039 0.01189-0.0057l0.01137-0.0057c0.01998-0.0087 0.04953-0.02048 0.07441-0.03152a0.20002 0.20002 0 0 0 0.0057-0.0036c3.7e-5 -1.7e-5 0.0054-0.0017 0.0062-0.0021a0.20002 0.20002 0 0 0 0-0.0021 0.20002 0.20002 0 0 0 0.01757-0.0098 0.20002 0.20002 0 0 0 0.0021 0l0.0057-0.0021 0.0021-0.0021h0.0021a0.20002 0.20002 0 0 0 0.0057-0.0021 0.20002 0.20002 0 0 0 0.01189-0.0036c0.0036-0.0016 0.0076-2e-3 0.01189-0.0041 0.01163-0.0055 0.01362-0.0074 0.0098-0.0057-0.0011 5.57e-4 0.0016-0.0021 0.0015-0.0021l0.0098-0.0041c0.0023-0.0012 0.0025-0.0011 0.0041-0.0021 0.0047-0.0022 0.0049-8.17e-4 0.0098-0.0036a0.20002 0.20002 0 0 0 0-0.0021c5.56e-4 -3.04e-4 0.0014 3.45e-4 0.0021 0 0 0 1.4e-5 -2e-3 0-0.0021-5e-4 2.21e-4 -0.0016-2.22e-4 -0.0021 0-0.0027-0.0045-0.09973-0.17002-0.09973-0.17002 0-1e-6 2e-3 1e-6 0.0021 0l0.09973 0.16795v0.0021c2.49e-4 -1.42e-4 0.0017 1.98e-4 0.0021 0 1e-3 -5.92e-4 9.43e-4 -0.0014 0.0021-0.0021 3.99e-4 -2.36e-4 4.09e-4 -8.51e-4 0.0016-0.0016 0.0018-0.0011 0.0041-2e-3 0.0041-0.0021 2e-6 -1e-6 2e-3 4.4e-5 0.0021 0l0.0078-0.0041c0.16169-0.07157 0.24602-0.10505 0.55087-0.2403l0.0021-0.0021c0.2558-0.11399 0.43908-0.34903 0.48628-0.62477l1.5663-9.1095c0.04513-0.2632-0.03744-0.53224-0.22273-0.7245-0.09999-0.10402-0.14891-0.15212-0.16795-0.17208l0.0041 0.0062c0.0027 0.0043 0.0057 0.0099 0.0057 0.0098-1.51e-4 -2.7e-4 0.0135 0.03118 0.01343 0.03101-1.24e-4 -3.62e-4 0.0061 0.10969 0.0062 0.10955 0 0-0.03688-0.0086-0.06666-0.0155a0.20002 0.20002 0 0 0-0.04858-0.09405l0.0739-0.06046c1.99e-4 2.24e-4 0.0018-2.38e-4 0.0021 0-8.41e-4 -0.0011-0.0048-0.0046-0.0057-0.0057-0.04885-0.06107-0.11691-0.12458-0.33383-0.34778a0.20002 0.20002 0 0 0-0.0041-0.0041 0.20002 0.20002 0 0 0-0.01344-0.01912c0.01154 0.01338 0.0085 0.0099-0.01602-0.01757a0.20002 0.20002 0 0 0 0-0.0021c-0.0053-0.0058-0.01179-0.01219-0.01757-0.01757l-0.0021-0.0021c-2.036-1.9257-0.31116-0.29357-7.3567-6.9365-0.14726-0.13937-0.34053-0.21929-0.54105-0.22841-0.01564-6.667e-4 -0.02554-1.997e-4 -0.03514 0a0.20002 0.20002 0 0 0-0.01602 0 0.20002 0.20002 0 0 0-0.0036 0zm-0.7891 0.27492c5.53e-4 -2.744e-4 0.0016 2.426e-4 0.0021 0-0.01278 0.00865-0.0422 0.029358-0.05064 0.03514 0.0038-0.00371 0.0078-0.00778 0.0078-0.00775-7e-5 5.79e-5 0.03023-0.020895 0.04082-0.027389zm0.42581 2.7678 5.2111 4.9413-6.4296 2.8515-5.225-4.947zm-9.2697 1.3224c0.01418 0.02166 0.03359 0.05064 0.03359 0.05064v5.16e-4c-2.4e-5 1.7e-5 -0.0011 5.47e-4 -1e-3 5.17e-4 -9.49e-4 4.13e-4 -0.0052 0.0022-0.0062 0.0026zm17.758 3.2763 0.0155 1e-3 -1e-3 0.01395c-0.0019-0.0022-0.01244-0.01269-0.01447-0.01499zm-16.649 0.339 5.1191 4.8493-0.98444 5.7247-5.117-4.8457zm14.186 2.5973-0.96118 5.5707-6.4415 2.8613 0.95705-5.5707zm0.55449 7.7246c-2.92e-4 0.0081-8e-6 0.02745 0 0.02739 0 0-0.16182-0.01831-0.18552-0.02119 0.0238-6.68e-4 0.18552-0.0061 0.18552-0.0062zm-9.169 3.96-1e-3 1e-3c-1e-6 -8e-6 0-3.26e-4 0-5.16e-4 1.66e-4 -7.4e-5 9.31e-4 -4.82e-4 1e-3 -5.16e-4zm0.07545 0.18293a0.20002 0.20002 0 0 0 0.0021 0c-7.43e-4 3.07e-4 -1e-3 0.0017-0.0021 0.0021a0.20002 0.20002 0 0 0 0-0.0021z" color="#000000" color-rendering="auto" dominant-baseline="auto" image-rendering="auto" solid-color="#000000" stop-color="#000000" style="font-feature-settings:normal;font-variant-alternates:normal;font-variant-caps:normal;font-variant-east-asian:normal;font-variant-ligatures:normal;font-variant-numeric:normal;font-variant-position:normal;font-variation-settings:normal;inline-size:0;isolation:auto;mix-blend-mode:normal;shape-margin:0;shape-padding:0;text-decoration-color:#000000;text-decoration-line:none;text-decoration-style:solid;text-indent:0;text-orientation:mixed;text-transform:none;white-space:normal"/>
<path d="m20.722 6.5325c-0.11022 0.0026-0.21946 0.025777-0.32246 0.07183-0.24562 0.10782-0.37079 0.16297-0.42375 0.18552-2.97e-4 1.259e-4 -0.01068 0.00507-0.01964 0.00827-0.0026 9.43e-4 -5.43e-4 -4.49e-4 -0.0057 0.00155-0.0031 0.0012 3.1e-5 -0.00169-0.0041 0a0.20002 0.20002 0 0 0-0.0016 0.00207c-2.56e-4 -4.05e-5 -0.0026 0.00173-0.0041 0.00207-0.0085 0.00193-0.0034-0.0023-0.02325 0.00568-0.02463 0.00988-0.04626 0.02109-0.07855 0.03514-0.06764 0.029428-0.19137 0.083296-0.43925 0.19327l-8.0977 3.6055a0.20002 0.20002 0 0 0-0.01757 0.0098c-0.0012 5.12e-4 -0.0025-5.27e-4 -0.0036 0-0.0011 4.83e-4 -1e-3 0.0016-0.0021 0.0021-0.07224 0.03253-0.12416 0.05566-0.1602 0.07235-0.01852 0.0086-0.03206 0.01339-0.04496 0.01964-0.01493 0.0072-0.02464 0.01601-0.031 0.01964-0.0011 5.99e-4 -0.0055 0.0017-0.0062 0.0021a0.20002 0.20002 0 0 0-0.0021 0c-8e-4 4.65e-4 -7.6e-4 0.0011-0.0015 0.0016l-0.0041 0.0021c-0.0012 6.83e-4 -0.0026 0.0015-0.0036 0.0021l-0.0021 0.0021c-0.08954 0.03876-0.25555 0.10691-0.56276 0.2403-0.26092 0.11274-0.4464 0.3488-0.49403 0.6289l-0.06459 0.37672a0.20002 0.20002 0 0 0-0.0057 0.02377l-1.2909 7.5313-0.20929 1.2066c-0.047945 0.27751 0.046037 0.56106 0.25011 0.75396l7.2166 6.8223c0.01835 0.01732 0.0333 0.02738 0.01395 0.0093a0.20002 0.20002 0 0 0 0.0021 0.0041c0.1724 0.15519 0.26394 0.23445 0.31264 0.2775 0.02142 0.01894 0.03569 0.03321 0.05633 0.05064 7.49e-4 6.32e-4 0.0013 0.0014 0.0021 0.0021a0.20002 0.20002 0 0 0 0.0021 0.0021 0.20002 0.20002 0 0 0 0.0036 0.0021 0.20002 0.20002 0 0 0 0.0021 0.0015 0.20002 0.20002 0 0 0 0.0062 0.0062 0.20002 0.20002 0 0 0 0.0021 0.0021l0.0057 0.0036a0.20002 0.20002 0 0 0 0.0021 0.0021 0.20002 0.20002 0 0 0 0.0021 0.0021c-0.01-8e-3 -7.95e-4 2.91e-4 0.0078 0.0078 0.04107 0.03679 0.12428 0.11046 0.2868 0.25787 0.24204 0.21951 0.592 0.27807 0.89297 0.15038 0.2033-0.0864 0.23875-0.10171 0.35347-0.15038a0.20002 0.20002 0 0 0 0.0057-0.0041c0.0016-3.87e-4 0.0027 3.54e-4 0.0041 0h0.0021a0.20002 0.20002 0 0 0 0.0036-0.0016c0.0018-5.74e-4 0.0026-0.0015 0.0041-0.0021 0.0022-7.33e-4 0.0039-0.0014 0.0057-0.0021 0.0011-3.91e-4 0.0031 3.71e-4 0.0041 0 0.0074-0.0028 0.01401-0.0066 0.02119-0.0098a0.20002 0.20002 0 0 0 0.0041-0.0021l0.43356-0.17363a0.20002 0.20002 0 0 0 0.01757-0.0078c0.0046-0.0022 0.0066-0.0025 0.0098-0.0041 0.0013-7.51e-4 0.0023-0.0013 0.0036-0.0021 8.08e-4 -4.89e-4 0.0013-0.0016 0.0021-0.0021 0.0013-7.81e-4 0.0029-0.0013 0.0041-0.0021l7.7928-3.451c-5.76e-4 1.96e-4 -0.0015-1.93e-4 -0.0021 0h-0.04082a0.20002 0.20002 0 0 0 0.07596-0.01757l0.01189-0.0041c0.0012-7.2e-4 8.72e-4 -7.51e-4 0.0021-0.0016 0.0038-0.0022 0.0053-0.0025 0.0078-0.0041h-0.0041c0.0026-6.21e-4 0.0036-0.0014 0.0062-0.0021-2.69e-4 1.89e-4 2.85e-4 0.0019 0 0.0021l0.0021-0.0021c8.96e-4 -5.58e-4 7.51e-4 -0.0016 0.0016-0.0021 2.17e-4 -2.07e-4 0.0017-0.0018 0.0021-0.0021a0.20002 0.20002 0 0 0 0.0078-0.0057c0.0167-0.01612 0.05167-0.05172 0.05478-0.05478-3.67e-4 6.9e-4 -0.0021 0.0041-0.0021 0.0041 1.01e-4 -1.49e-4 -0.03733 0.03622-0.05271 0.05064 5.01e-4 -4.2e-4 0.0018 2.46e-4 0.0021 0a0.20002 0.20002 0 0 0 0.01395-0.01034l-0.01395 0.01447c0.01075-0.0037 0.02521-8e-3 0.02946-0.0098a0.20002 0.20002 0 0 0 0.0021 0l0.02739-0.01188c0.05082-0.02255 0.25112-0.11336 0.34727-0.15606l0.0098-0.0041c4.21e-4 -1.87e-4 0.0016 1.85e-4 0.0021 0a0.20002 0.20002 0 0 0 0.01188-0.0041c4e-3 -0.0016 8e-3 -0.0039 0.01189-0.0057l0.01137-0.0057c0.01998-0.0087 0.04953-0.02048 0.07441-0.03152a0.20002 0.20002 0 0 0 0.0057-0.0036c3.7e-5 -1.7e-5 0.0054-0.0017 0.0062-0.0021a0.20002 0.20002 0 0 0 0-0.0021 0.20002 0.20002 0 0 0 0.01757-0.0098 0.20002 0.20002 0 0 0 0.0021 0l0.0057-0.0021 0.0021-0.0021h0.0021a0.20002 0.20002 0 0 0 0.0057-0.0021 0.20002 0.20002 0 0 0 0.01189-0.0036c0.0036-0.0016 0.0076-2e-3 0.01189-0.0041 0.01163-0.0055 0.01362-0.0074 0.0098-0.0057-0.0011 5.57e-4 0.0016-0.0021 0.0015-0.0021l0.0098-0.0041c0.0023-0.0012 0.0025-0.0011 0.0041-0.0021 0.0047-0.0022 0.0049-8.17e-4 0.0098-0.0036a0.20002 0.20002 0 0 0 0-0.0021c5.56e-4 -3.04e-4 0.0014 3.45e-4 0.0021 0 0 0 1.4e-5 -2e-3 0-0.0021-5e-4 2.21e-4 -0.0016-2.22e-4 -0.0021 0-0.0027-0.0045-0.09973-0.17002-0.09973-0.17002 0-1e-6 2e-3 1e-6 0.0021 0l0.09973 0.16795v0.0021c2.49e-4 -1.42e-4 0.0017 1.98e-4 0.0021 0 1e-3 -5.92e-4 9.43e-4 -0.0014 0.0021-0.0021 3.99e-4 -2.36e-4 4.09e-4 -8.51e-4 0.0016-0.0016 0.0018-0.0011 0.0041-2e-3 0.0041-0.0021 2e-6 -1e-6 2e-3 4.4e-5 0.0021 0l0.0078-0.0041c0.16169-0.07157 0.24602-0.10505 0.55087-0.2403l0.0021-0.0021c0.2558-0.11399 0.43908-0.34903 0.48628-0.62477l1.5663-9.1095c0.04513-0.2632-0.03744-0.53224-0.22273-0.7245-0.09999-0.10402-0.14891-0.15212-0.16795-0.17208l0.0041 0.0062c0.0027 0.0043 0.0057 0.0099 0.0057 0.0098-1.51e-4 -2.7e-4 0.0135 0.03118 0.01343 0.03101-1.24e-4 -3.62e-4 0.0061 0.10969 0.0062 0.10955 0 0-0.03688-0.0086-0.06666-0.0155a0.20002 0.20002 0 0 0-0.04858-0.09405l0.0739-0.06046c1.99e-4 2.24e-4 0.0018-2.38e-4 0.0021 0-8.41e-4 -0.0011-0.0048-0.0046-0.0057-0.0057-0.04885-0.06107-0.11691-0.12458-0.33383-0.34778a0.20002 0.20002 0 0 0-0.0041-0.0041 0.20002 0.20002 0 0 0-0.01344-0.01912c0.01154 0.01338 0.0085 0.0099-0.01602-0.01757a0.20002 0.20002 0 0 0 0-0.0021c-0.0053-0.0058-0.01179-0.01219-0.01757-0.01757l-0.0021-0.0021c-2.036-1.9257-0.31116-0.29357-7.3567-6.9365-0.14726-0.13937-0.34053-0.21929-0.54105-0.22841-0.01564-6.667e-4 -0.02554-1.997e-4 -0.03514 0a0.20002 0.20002 0 0 0-0.01602 0 0.20002 0.20002 0 0 0-0.0036 0zm-0.7891 0.27492c5.53e-4 -2.744e-4 0.0016 2.426e-4 0.0021 0-0.01278 0.00865-0.0422 0.029358-0.05064 0.03514 0.0038-0.00371 0.0078-0.00778 0.0078-0.00775-7e-5 5.79e-5 0.03023-0.020895 0.04082-0.027389zm0.42581 2.7678 5.2111 4.9413-6.4296 2.8515-5.225-4.947zm-9.2697 1.3224c0.01418 0.02166 0.03359 0.05064 0.03359 0.05064v5.16e-4c-2.4e-5 1.7e-5 -0.0011 5.47e-4 -1e-3 5.17e-4 -9.49e-4 4.13e-4 -0.0052 0.0022-0.0062 0.0026zm17.758 3.2763 0.0155 1e-3 -1e-3 0.01395c-0.0019-0.0022-0.01244-0.01269-0.01447-0.01499zm-16.649 0.339 5.1191 4.8493-0.98444 5.7247-5.117-4.8457zm14.186 2.5973-0.96118 5.5707-6.4415 2.8613 0.95705-5.5707zm0.55449 7.7246c-2.92e-4 0.0081-8e-6 0.02745 0 0.02739 0 0-0.16182-0.01831-0.18552-0.02119 0.0238-6.68e-4 0.18552-0.0061 0.18552-0.0062zm-9.169 3.96-1e-3 1e-3c-1e-6 -8e-6 0-3.26e-4 0-5.16e-4 1.66e-4 -7.4e-5 9.31e-4 -4.82e-4 1e-3 -5.16e-4zm0.07545 0.18293a0.20002 0.20002 0 0 0 0.0021 0c-7.43e-4 3.07e-4 -1e-3 0.0017-0.0021 0.0021a0.20002 0.20002 0 0 0 0-0.0021z" color="#000000" color-rendering="auto" dominant-baseline="auto" image-rendering="auto" solid-color="#000000" stop-color="#000000" style="font-feature-settings:normal;font-variant-alternates:normal;font-variant-caps:normal;font-variant-east-asian:normal;font-variant-ligatures:normal;font-variant-numeric:normal;font-variant-position:normal;font-variation-settings:normal;inline-size:0;isolation:auto;mix-blend-mode:normal;shape-margin:0;shape-padding:0;text-decoration-color:#000000;text-decoration-line:none;text-decoration-style:solid;text-indent:0;text-orientation:mixed;text-transform:none;white-space:normal"/>
<path d="m21.929 7.5046c-0.11022 0.0026-0.21946 0.025777-0.32246 0.07183-0.24562 0.10782-0.37079 0.16297-0.42375 0.18552-2.97e-4 1.259e-4 -0.01068 0.00507-0.01964 0.00827-0.0026 9.43e-4 -5.43e-4 -4.49e-4 -0.0057 0.00155-0.0031 0.0012 3.1e-5 -0.00169-0.0041 0a0.20002 0.20002 0 0 0-0.0016 0.00207c-2.56e-4 -4.05e-5 -0.0026 0.00173-0.0041 0.00207-0.0085 0.00193-0.0034-0.0023-0.02325 0.00568-0.02463 0.00988-0.04626 0.02109-0.07855 0.03514-0.06764 0.029428-0.19137 0.083296-0.43925 0.19327l-8.0977 3.6055a0.20002 0.20002 0 0 0-0.01757 0.0098c-0.0012 5.12e-4 -0.0025-5.27e-4 -0.0036 0-0.0011 4.83e-4 -1e-3 0.0016-0.0021 0.0021-0.07224 0.03253-0.12416 0.05566-0.1602 0.07235-0.01852 0.0086-0.03206 0.01339-0.04496 0.01964-0.01493 0.0072-0.02464 0.01601-0.031 0.01964-0.0011 5.99e-4 -0.0055 0.0017-0.0062 0.0021a0.20002 0.20002 0 0 0-0.0021 0c-8e-4 4.65e-4 -7.6e-4 0.0011-0.0015 0.0016l-0.0041 0.0021c-0.0012 6.83e-4 -0.0026 0.0015-0.0036 0.0021l-0.0021 0.0021c-0.08954 0.03876-0.25555 0.10691-0.56276 0.2403-0.26092 0.11274-0.4464 0.3488-0.49403 0.6289l-0.06459 0.37672a0.20002 0.20002 0 0 0-0.0057 0.02377l-1.2909 7.5313-0.20929 1.2066c-0.047945 0.27751 0.046037 0.56106 0.25011 0.75396l7.2166 6.8223c0.01835 0.01732 0.0333 0.02738 0.01395 0.0093a0.20002 0.20002 0 0 0 0.0021 0.0041c0.1724 0.15519 0.26394 0.23445 0.31264 0.2775 0.02142 0.01894 0.03569 0.03321 0.05633 0.05064 7.49e-4 6.32e-4 0.0013 0.0014 0.0021 0.0021a0.20002 0.20002 0 0 0 0.0021 0.0021 0.20002 0.20002 0 0 0 0.0036 0.0021 0.20002 0.20002 0 0 0 0.0021 0.0015 0.20002 0.20002 0 0 0 0.0062 0.0062 0.20002 0.20002 0 0 0 0.0021 0.0021l0.0057 0.0036a0.20002 0.20002 0 0 0 0.0021 0.0021 0.20002 0.20002 0 0 0 0.0021 0.0021c-0.01-8e-3 -7.95e-4 2.91e-4 0.0078 0.0078 0.04107 0.03679 0.12428 0.11046 0.2868 0.25787 0.24204 0.21951 0.592 0.27807 0.89297 0.15038 0.2033-0.0864 0.23875-0.10171 0.35347-0.15038a0.20002 0.20002 0 0 0 0.0057-0.0041c0.0016-3.87e-4 0.0027 3.54e-4 0.0041 0h0.0021a0.20002 0.20002 0 0 0 0.0036-0.0016c0.0018-5.74e-4 0.0026-0.0015 0.0041-0.0021 0.0022-7.33e-4 0.0039-0.0014 0.0057-0.0021 0.0011-3.91e-4 0.0031 3.71e-4 0.0041 0 0.0074-0.0028 0.01401-0.0066 0.02119-0.0098a0.20002 0.20002 0 0 0 0.0041-0.0021l0.43356-0.17363a0.20002 0.20002 0 0 0 0.01757-0.0078c0.0046-0.0022 0.0066-0.0025 0.0098-0.0041 0.0013-7.51e-4 0.0023-0.0013 0.0036-0.0021 8.08e-4 -4.89e-4 0.0013-0.0016 0.0021-0.0021 0.0013-7.81e-4 0.0029-0.0013 0.0041-0.0021l7.7928-3.451c-5.76e-4 1.96e-4 -0.0015-1.93e-4 -0.0021 0h-0.04082a0.20002 0.20002 0 0 0 0.07596-0.01757l0.01189-0.0041c0.0012-7.2e-4 8.72e-4 -7.51e-4 0.0021-0.0016 0.0038-0.0022 0.0053-0.0025 0.0078-0.0041h-0.0041c0.0026-6.21e-4 0.0036-0.0014 0.0062-0.0021-2.69e-4 1.89e-4 2.85e-4 0.0019 0 0.0021l0.0021-0.0021c8.96e-4 -5.58e-4 7.51e-4 -0.0016 0.0016-0.0021 2.17e-4 -2.07e-4 0.0017-0.0018 0.0021-0.0021a0.20002 0.20002 0 0 0 0.0078-0.0057c0.0167-0.01612 0.05167-0.05172 0.05478-0.05478-3.67e-4 6.9e-4 -0.0021 0.0041-0.0021 0.0041 1.01e-4 -1.49e-4 -0.03733 0.03622-0.05271 0.05064 5.01e-4 -4.2e-4 0.0018 2.46e-4 0.0021 0a0.20002 0.20002 0 0 0 0.01395-0.01034l-0.01395 0.01447c0.01075-0.0037 0.02521-8e-3 0.02946-0.0098a0.20002 0.20002 0 0 0 0.0021 0l0.02739-0.01188c0.05082-0.02255 0.25112-0.11336 0.34727-0.15606l0.0098-0.0041c4.21e-4 -1.87e-4 0.0016 1.85e-4 0.0021 0a0.20002 0.20002 0 0 0 0.01188-0.0041c4e-3 -0.0016 8e-3 -0.0039 0.01189-0.0057l0.01137-0.0057c0.01998-0.0087 0.04953-0.02048 0.07441-0.03152a0.20002 0.20002 0 0 0 0.0057-0.0036c3.7e-5 -1.7e-5 0.0054-0.0017 0.0062-0.0021a0.20002 0.20002 0 0 0 0-0.0021 0.20002 0.20002 0 0 0 0.01757-0.0098 0.20002 0.20002 0 0 0 0.0021 0l0.0057-0.0021 0.0021-0.0021h0.0021a0.20002 0.20002 0 0 0 0.0057-0.0021 0.20002 0.20002 0 0 0 0.01189-0.0036c0.0036-0.0016 0.0076-2e-3 0.01189-0.0041 0.01163-0.0055 0.01362-0.0074 0.0098-0.0057-0.0011 5.57e-4 0.0016-0.0021 0.0015-0.0021l0.0098-0.0041c0.0023-0.0012 0.0025-0.0011 0.0041-0.0021 0.0047-0.0022 0.0049-8.17e-4 0.0098-0.0036a0.20002 0.20002 0 0 0 0-0.0021c5.56e-4 -3.04e-4 0.0014 3.45e-4 0.0021 0 0 0 1.4e-5 -2e-3 0-0.0021-5e-4 2.21e-4 -0.0016-2.22e-4 -0.0021 0-0.0027-0.0045-0.09973-0.17002-0.09973-0.17002 0-1e-6 2e-3 1e-6 0.0021 0l0.09973 0.16795v0.0021c2.49e-4 -1.42e-4 0.0017 1.98e-4 0.0021 0 1e-3 -5.92e-4 9.43e-4 -0.0014 0.0021-0.0021 3.99e-4 -2.36e-4 4.09e-4 -8.51e-4 0.0016-0.0016 0.0018-0.0011 0.0041-2e-3 0.0041-0.0021 2e-6 -1e-6 2e-3 4.4e-5 0.0021 0l0.0078-0.0041c0.16169-0.07157 0.24602-0.10505 0.55087-0.2403l0.0021-0.0021c0.2558-0.11399 0.43908-0.34903 0.48628-0.62477l1.5663-9.1095c0.04513-0.2632-0.03744-0.53224-0.22273-0.7245-0.09999-0.10402-0.14891-0.15212-0.16795-0.17208l0.0041 0.0062c0.0027 0.0043 0.0057 0.0099 0.0057 0.0098-1.51e-4 -2.7e-4 0.0135 0.03118 0.01343 0.03101-1.24e-4 -3.62e-4 0.0061 0.10969 0.0062 0.10955 0 0-0.03688-0.0086-0.06666-0.0155a0.20002 0.20002 0 0 0-0.04858-0.09405l0.0739-0.06046c1.99e-4 2.24e-4 0.0018-2.38e-4 0.0021 0-8.41e-4 -0.0011-0.0048-0.0046-0.0057-0.0057-0.04885-0.06107-0.11691-0.12458-0.33383-0.34778a0.20002 0.20002 0 0 0-0.0041-0.0041 0.20002 0.20002 0 0 0-0.01344-0.01912c0.01154 0.01338 0.0085 0.0099-0.01602-0.01757a0.20002 0.20002 0 0 0 0-0.0021c-0.0053-0.0058-0.01179-0.01219-0.01757-0.01757l-0.0021-0.0021c-2.036-1.9257-0.31116-0.29357-7.3567-6.9365-0.14726-0.13937-0.34053-0.21929-0.54105-0.22841-0.01564-6.667e-4 -0.02554-1.997e-4 -0.03514 0a0.20002 0.20002 0 0 0-0.01602 0 0.20002 0.20002 0 0 0-0.0036 0zm-0.7891 0.27492c5.53e-4 -2.744e-4 0.0016 2.426e-4 0.0021 0-0.01278 0.00865-0.0422 0.029358-0.05064 0.03514 0.0038-0.00371 0.0078-0.00778 0.0078-0.00775-7e-5 5.79e-5 0.03023-0.020895 0.04082-0.027389zm0.42581 2.7678 5.2111 4.9413-6.4296 2.8515-5.225-4.947zm-9.2697 1.3224c0.01418 0.02166 0.03359 0.05064 0.03359 0.05064v5.16e-4c-2.4e-5 1.7e-5 -0.0011 5.47e-4 -1e-3 5.17e-4 -9.49e-4 4.13e-4 -0.0052 0.0022-0.0062 0.0026zm17.758 3.2763 0.0155 1e-3 -1e-3 0.01395c-0.0019-0.0022-0.01244-0.01269-0.01447-0.01499zm-16.649 0.339 5.1191 4.8493-0.98444 5.7247-5.117-4.8457zm14.186 2.5973-0.96118 5.5707-6.4415 2.8613 0.95705-5.5707zm0.55449 7.7246c-2.92e-4 0.0081-8e-6 0.02745 0 0.02739 0 0-0.16182-0.01831-0.18552-0.02119 0.0238-6.68e-4 0.18552-0.0061 0.18552-0.0062zm-9.169 3.96-1e-3 1e-3c-1e-6 -8e-6 0-3.26e-4 0-5.16e-4 1.66e-4 -7.4e-5 9.31e-4 -4.82e-4 1e-3 -5.16e-4zm0.07545 0.18293a0.20002 0.20002 0 0 0 0.0021 0c-7.43e-4 3.07e-4 -1e-3 0.0017-0.0021 0.0021a0.20002 0.20002 0 0 0 0-0.0021z" color="#000000" color-rendering="auto" dominant-baseline="auto" image-rendering="auto" solid-color="#000000" stop-color="#000000" style="font-feature-settings:normal;font-variant-alternates:normal;font-variant-caps:normal;font-variant-east-asian:normal;font-variant-ligatures:normal;font-variant-numeric:normal;font-variant-position:normal;font-variation-settings:normal;inline-size:0;isolation:auto;mix-blend-mode:normal;shape-margin:0;shape-padding:0;text-decoration-color:#000000;text-decoration-line:none;text-decoration-style:solid;text-indent:0;text-orientation:mixed;text-transform:none;white-space:normal"/>
</g>
<g transform="translate(.22503 -.33427)" shape-rendering="auto">
<path d="m18.751 6.0445c-0.07161 0.0017-0.14216 0.01763-0.20755 0.046865-0.24732 0.10858-0.37179 0.1626-0.43016 0.18746-0.02918 0.012428-0.04339 0.017993-0.03571 0.015064-0.0059 0.00233-0.02125 0.00661-0.02566 0.00837-0.02208 0.00879-0.03841 0.015212-0.07141 0.02957-0.06601 0.028716-0.19087 0.08372-0.43852 0.1936l-8.1166 3.6142c-7.333e-4 -1e-6 -0.00147-1e-6 -0.0022 0-0.07397 0.03331-0.12425 0.05639-0.15789 0.07197-0.01682 0.0078-0.02786 0.01301-0.04017 0.01897-0.0069 0.0033-0.02818 0.0163-0.037939 0.0212-0.00238 1e-3 -0.00142 0.0011-0.00391 0.0022-0.090981 0.03956-0.26555 0.1129-0.58247 0.2505-0.16772 0.0725-0.28738 0.22492-0.31801 0.40505l-0.06974 0.40058-1.2927 7.5302-0.20866 1.2079c-0.030888 0.1788 0.030107 0.36116 0.16235 0.48539l7.2178 6.8217c0.0029 0.0028 0.0059 0.0056 0.0089 0.0084 0.17171 0.15457 0.26095 0.23312 0.30964 0.27617 0.02435 0.02153 0.03822 0.0339 0.053 0.04631s0.07013 0.05244 0.07755 0.05691c0.0075 0.0044-0.06086-0.04221-0.06304-0.04408-0.0022-0.0018 0.0075 0.0051 0.02734 0.02288 0.03964 0.03552 0.12344 0.1113 0.28677 0.25943 0.15591 0.1414 0.37978 0.17929 0.57354 0.09708 0.20939-0.08899 0.24106-0.10237 0.36265-0.15399 0.0021-8.72e-4 0.0046-0.0014 0.0067-0.0022 0.0019-8.32e-4 0.0023-0.0015 0.0039-0.0022 7.44e-4 -3.15e-4 0.0036-0.0018 0.0045-0.0022-0.0027 0.0012 0.0065-0.0023 0.0061-0.0022 0.0027-0.0012 0.01315-0.0043 0.0173-0.0061l0.01004-0.0045 0.43685-0.17463c0.0056-0.0027 0.01121-0.0055 0.01674-0.0084l7.8148-3.4609c0.0026-0.0011 0.0037-0.0012 0.0045-0.0017l0.0061-0.0022c0.0017-7.52e-4 0.0038-0.0035 0.0061-0.0045 5.2e-5 -2.4e-5 0.0044-0.0021 0.0045-0.0022l0.06304-0.02734c0.0035-0.0015 0.0045-4.31e-4 0.0084-0.0022l0.0279-0.01227c0.05052-0.02242 0.2713-0.12182 0.36265-0.16235l0.01897-0.0067c0.02224-0.0098 0.06167-0.02693 0.08648-0.03794 0.0019-8.73e-4 0.0041-3e-3 0.0061-0.0039l0.04017-0.0173c0.0069-3e-3 0.0021-0.0012 0.0084-0.0039 7.33e-4 1e-6 0.0015 1e-6 0.0022 0 0.0044-0.0019 0.02132-0.0099 0.0084-0.0045 0.0032-0.0014 0.0073-0.0025 0.0106-0.0039 0.0024-1e-3 0.0015-0.0013 0.0084-0.0045 0.0024-0.0011 0.0033-0.0025 0.0061-0.0039 0.18769-0.08328 0.25798-0.11373 0.58637-0.25943 0.16562-0.07311 0.28357-0.22437 0.31411-0.40282l1.5666-9.1097c0.02902-0.16925-0.02422-0.34222-0.14339-0.46586-0.10921-0.11362-0.16418-0.16904-0.18746-0.19416-0.02328-0.02512 0.01042 0.01141-0.0084-0.01227-0.03758-0.04737-0.07301-0.08082-0.34814-0.36488-0.0047-0.0057-0.0096-0.01126-0.01451-0.01674-2.0366-1.9305-0.30977-0.29677-7.3573-6.9416-0.09451-0.089448-0.21814-0.14175-0.34814-0.14729-0.01096-5.206e-4 -0.02194-7.067e-4 -0.03292-5.579e-4zm-0.50268 0.21759c8.27e-4 -8.48e-5 0.0084 0 0.0084 0-2.73e-4 2.3e-6 0.17121 0.025982 0.16849 0.025107-0.0026-8.45e-4 -0.16521-0.023544-0.17686-0.025107zm-0.05691 0.00837c-0.0314 0.00428-0.05895 0.00683-0.07365 0.010601 0.0067-0.00192 0.0015-0.00174 0.01227-0.00446 0.01085-0.00272 0.03355-0.00292 0.06137-0.00614zm0.25106 2.1614 5.6807 5.3901-7.0197 3.1143-0.03794-0.03403-5.664-5.3599zm-9.0171 1.7524s-5e-6 0.0059 0 0.0061c-0.05192 4e-3 -0.09503 7e-3 -0.10712 0.0084 0.0089-0.0021 0.01905-0.0039 0.01897-0.0039-1.49e-4 3e-5 0.08824-0.0106 0.08815-0.0106zm0.59251 2.9391 5.6071 5.308c0.0083 0.0079 0.01687 0.01552 0.02566 0.02287l0.01227 0.0106-1.1069 6.4378-5.6428-5.3415zm14.776 2.6992-1.0801 6.2799-7.1017 3.1545 1.0796-6.2816z" color="#000000" color-rendering="auto" dominant-baseline="auto" fill="url(#linearGradient905)" image-rendering="auto" solid-color="#000000" stop-color="#000000" style="font-feature-settings:normal;font-variant-alternates:normal;font-variant-caps:normal;font-variant-east-asian:normal;font-variant-ligatures:normal;font-variant-numeric:normal;font-variant-position:normal;font-variation-settings:normal;inline-size:0;isolation:auto;mix-blend-mode:normal;shape-margin:0;shape-padding:0;text-decoration-color:#000000;text-decoration-line:none;text-decoration-style:solid;text-indent:0;text-orientation:mixed;text-transform:none;white-space:normal"/>
<path transform="scale(.26458)" d="m67.027 29.322-26.611 11.756 2.6855 2.543 26.602-11.752 18.789 17.826 0.0059-2e-3zm-31.842 17.732-4.1738 24.332 2.6777 2.5352 4.1719-24.322 18.656 17.662 0.0039-0.01953-0.04687-0.03906c-0.03283-0.02827-0.06474-0.05759-0.0957-0.08789zm62.434 0.23047c0.79637 0.82065 1.0626 1.0897 1.1914 1.252 0.07113 0.0895-0.05478-0.05002 0.0332 0.04492 0.08797 0.09493 0.29428 0.30494 0.70703 0.73438 0.45107 0.46735 0.65269 1.1215 0.54297 1.7617l-5.9219 34.43c-0.11579 0.67414-0.56167 1.2454-1.1875 1.5215-1.2412 0.55068-1.5055 0.66571-2.2148 0.98047-0.01058 0.0053-0.01437 0.01147-0.02344 0.01563-0.02608 0.01209-0.02218 0.0138-0.03125 0.01758-0.01247 0.0053-0.02892 0.0084-0.04102 0.01367 0.04883-0.02041-0.01462 0.0104-0.03125 0.01758-0.0026 5e-6 -0.0052 5e-6 -0.0078 0-0.02381 0.0102-0.0071 0.0023-0.0332 0.01367l-0.15039 0.06641c-0.0076 0.0034-0.01626 0.01037-0.02344 0.01367-0.09377 0.04161-0.24407 0.10749-0.32812 0.14453l-0.07031 0.02539c-0.34526 0.15321-1.1802 0.52854-1.3711 0.61328l-0.10547 0.04687c-0.01474 0.0067-0.01802 0.0021-0.03125 0.0078l-0.23828 0.10352c-3.78e-4 3.78e-4 -0.01738 0.0077-0.01758 0.0078-0.0087 0.0038-0.01701 0.01474-0.02344 0.01758l-0.02344 0.0078c-3e-3 0.0019-0.0058 0.0017-0.01563 0.0059l-29.537 13.082c-0.02065 0.0108-0.04149 0.0212-0.0625 0.0312l-1.6504 0.66016-0.03906 0.0176c-0.01568 7e-3 -0.05425 0.017-0.06445 0.0215 0.0015-3.8e-4 -0.03364 0.0143-0.02344 0.01-0.0034 2e-3 -0.01477 7e-3 -0.01758 8e-3 -6e-3 3e-3 -0.0065 5e-3 -0.01367 8e-3 -0.0079 3e-3 -0.01745 5e-3 -0.02539 8e-3 -0.45952 0.19509-0.57969 0.24569-1.3711 0.58203-0.73244 0.31075-1.5787 0.16741-2.168-0.36719-0.6173-0.55988-0.93416-0.84622-1.084-0.98046-0.07498-0.0672-0.11183-0.0928-0.10352-0.0859 0.0082 7e-3 0.26663 0.18264 0.23828 0.16601-0.02804-0.0169-0.23711-0.16794-0.29297-0.21484-0.05586-0.0469-0.10914-0.0924-0.20117-0.17383-0.18405-0.1627-0.52092-0.46072-1.1699-1.0449-0.01118-0.0103-0.02225-0.0207-0.0332-0.0312l-24.766-23.407c0.05073 0.05971 0.10486 0.11644 0.16211 0.16992l27.279 25.783c0.01095 0.0105 0.02202 0.021 0.0332 0.0313 0.649 0.5842 0.98587 0.88026 1.1699 1.043 0.09203 0.0814 0.14531 0.12888 0.20117 0.17578 0.05586 0.0469 0.26492 0.19795 0.29297 0.21485 0.02835 0.0166-0.23004-0.15895-0.23828-0.16602-0.0083-7e-3 0.02853 0.0187 0.10352 0.0859 0.14982 0.13425 0.46669 0.42059 1.084 0.98047 0.58926 0.5346 1.4355 0.67794 2.168 0.36719 0.7914-0.33634 0.90962-0.38695 1.3691-0.58203 0.0079-3e-3 0.01745-5e-3 0.02539-8e-3 0.0072-3e-3 0.0096-5e-3 0.01563-8e-3 0.0028-1e-3 0.01418-8e-3 0.01758-0.01-0.0102 5e-3 0.023-8e-3 0.02148-8e-3 0.0102-5e-3 0.05072-0.0166 0.06641-0.0234l0.03711-0.0156 1.6523-0.66016c0.02102-0.0107 0.04186-0.0218 0.0625-0.0332l29.537-13.079c0.0098-0.0042 0.0126-4e-3 0.01563-0.0059l0.02344-0.0078c0.0064-0.0028 0.01474-0.0138 0.02344-0.01758 1.97e-4 -9e-5 0.0172-0.0074 0.01758-0.0078l0.23828-0.10352c0.01323-0.0057 0.01651-0.0031 0.03125-0.0098l0.10547-0.04492c0.19094-0.08474 1.0258-0.46007 1.3711-0.61328l0.07031-0.02539c0.08406-0.03704 0.23436-0.10292 0.32812-0.14453 0.0072-0.0033 0.01393-0.01027 0.02148-0.01367l0.15234-0.06641c0.02608-0.01134 0.0074-0.0035 0.03125-0.01367 0.0033 8e-6 0.0065 8e-6 0.0098 0 0.01663-0.0072 0.08008-0.03799 0.03125-0.01758 0.0121-0.0053 0.02659-0.01033 0.03906-0.01563 0.0091-0.0038 0.0071-0.0035 0.0332-0.01563 0.0091-0.0042 0.01286-0.01033 0.02344-0.01563 0.70939-0.31476 0.97368-0.42979 2.2148-0.98047 0.62583-0.27606 1.0717-0.84734 1.1875-1.5215l5.9219-34.432c0.10907-0.63955-0.0925-1.2929-0.54297-1.7598-0.41275-0.42943-0.62101-0.63944-0.70898-0.73438-0.088-0.09494 0.0399 0.04262-0.0312-0.04687-0.14204-0.17904-0.27459-0.3053-1.3144-1.3789-0.0185-0.02122-0.0373-0.04206-0.0567-0.0625-0.691-0.65501-2.0001-1.8852-2.4961-2.3555zm-3.9112 12.517-29.518 9.3699-1.4052 26.288 4.081-23.741 23.473-10.42z" color="#000000" color-rendering="auto" dominant-baseline="auto" fill="#41dc81" fill-opacity=".28484" image-rendering="auto" solid-color="#000000" stop-color="#000000" style="font-feature-settings:normal;font-variant-alternates:normal;font-variant-caps:normal;font-variant-east-asian:normal;font-variant-ligatures:normal;font-variant-numeric:normal;font-variant-position:normal;font-variation-settings:normal;inline-size:0;isolation:auto;mix-blend-mode:normal;shape-margin:0;shape-padding:0;text-decoration-color:#000000;text-decoration-line:none;text-decoration-style:solid;text-indent:0;text-orientation:mixed;text-transform:none;white-space:normal"/>
</g>
</svg>
