<svg width="128" height="128" version="1.1" viewBox="0 0 33.867 33.867" xmlns="http://www.w3.org/2000/svg" xmlns:xlink="http://www.w3.org/1999/xlink">
<defs>
<radialGradient id="radialGradient908" cx="16.937" cy="3.2428" r="14.544" gradientTransform="matrix(4.4792 0 0 2.0392 -58.927 -3.3698)" gradientUnits="userSpaceOnUse">
<stop stop-color="#ffe447" offset="0"/>
<stop stop-color="#ffb702" offset="1"/>
</radialGradient>
<linearGradient id="linearGradient1412" x1="17.592" x2="17.592" y1="9.6599" y2="73.16" gradientUnits="userSpaceOnUse">
<stop stop-color="#fff" offset="0"/>
<stop stop-color="#ffbb09" offset="1"/>
</linearGradient>
</defs>
<g transform="matrix(.97573 0 0 .97573 -65.587 -37.192)" fill="none" opacity=".29676" stroke="#000" stroke-linecap="round" stroke-linejoin="round" stroke-opacity=".02">
<rect x="69.84" y="40.71" width="29.811" height="29.811" rx="6.6099" ry="6.6099" stroke-width=".1"/>
<rect x="69.84" y="40.71" width="29.811" height="29.811" rx="6.6099" ry="6.6099" stroke-width=".2"/>
<rect x="69.84" y="40.71" width="29.811" height="29.811" rx="6.6099" ry="6.6099" stroke-width=".3"/>
<rect x="69.84" y="40.71" width="29.811" height="29.811" rx="6.6099" ry="6.6099" stroke-width=".4"/>
<rect x="69.84" y="40.71" width="29.811" height="29.811" rx="6.6099" ry="6.6099" stroke-width=".5"/>
<rect x="69.84" y="40.71" width="29.811" height="29.811" rx="6.6099" ry="6.6099" stroke-width=".6"/>
<rect x="69.84" y="40.71" width="29.811" height="29.811" rx="6.6099" ry="6.6099" stroke-width=".7"/>
<rect x="69.84" y="40.71" width="29.811" height="29.811" rx="6.6099" ry="6.6099" stroke-width=".8"/>
<rect x="69.84" y="40.71" width="29.811" height="29.811" rx="6.6099" ry="6.6099"/>
<rect x="69.84" y="40.71" width="29.811" height="29.811" rx="6.6099" ry="6.6099" stroke-width="1.2"/>
<rect x="69.84" y="40.71" width="29.811" height="29.811" rx="6.6099" ry="6.6099" stroke-width="1.4"/>
<rect x="69.84" y="40.71" width="29.811" height="29.811" rx="6.6099" ry="6.6099" stroke-width="1.6"/>
<rect x="69.84" y="40.71" width="29.811" height="29.811" rx="6.6099" ry="6.6099" stroke-width="1.8"/>
<rect x="69.84" y="40.71" width="29.811" height="29.811" rx="6.6099" ry="6.6099" stroke-width="2"/>
<rect x="69.84" y="40.71" width="29.811" height="29.811" rx="6.6099" ry="6.6099" stroke-width="2.2"/>
<rect x="69.84" y="40.71" width="29.811" height="29.811" rx="6.6099" ry="6.6099" stroke-width="2.6"/>
<rect x="69.84" y="40.71" width="29.811" height="29.811" rx="6.6099" ry="6.6099" stroke-width="3"/>
<rect x="69.84" y="40.71" width="29.811" height="29.811" rx="6.6099" ry="6.6099" stroke-width="3.4"/>
<rect x="69.84" y="40.71" width="29.811" height="29.811" rx="6.6099" ry="6.6099" stroke-width="3.8"/>
<rect x="69.84" y="40.71" width="29.811" height="29.811" rx="6.6099" ry="6.6099" stroke-width="4.2"/>
<rect x="69.84" y="40.71" width="29.811" height="29.811" rx="6.6099" ry="6.6099" stroke-width="4.6"/>
<rect x="69.84" y="40.71" width="29.811" height="29.811" rx="6.6099" ry="6.6099" stroke-width="5"/>
</g>
<rect x="2.5579" y="2.5293" width="29.087" height="29.087" rx="6.4495" ry="6.4495" fill="url(#radialGradient908)" stroke-linecap="round" stroke-linejoin="round" stroke-width="2.6877"/>
<g fill="#3c0000" fill-opacity=".052129" opacity=".27288" stroke-width=".45292">
<path d="m7.9329 9.3073v16.304h3.6234v-12.652c0.63366 0.02516 1.1222 0.06754 1.4101 0.14065 0.5193 0.13188 0.4467 0.05515 0.66523 0.55465 0.43707 0.999 0.64223 4.7098 0.64223 11.956h3.6242c0-1.3268 0.0066-2.5273 0.01062-3.6225h3.6119v3.6234h3.6234v-3.6234h3.6234v-3.6234h-3.6234v-3.6234h-3.6234v3.6234h-3.6287c-0.05656-2.7519-0.26385-4.615-0.94034-6.1613-0.57407-1.3122-1.8321-2.2939-3.0961-2.6149-0.74302-0.1887-1.4912-0.24823-2.2991-0.26892v-0.013269h-1.2331z"/>
<path d="m8.2646 9.6134v16.304h3.6234v-12.652c0.63366 0.02516 1.1222 0.06754 1.4101 0.14065 0.5193 0.13188 0.4467 0.05515 0.66523 0.55465 0.43707 0.999 0.64223 4.7098 0.64223 11.956h3.6242c0-1.3268 0.0066-2.5273 0.01062-3.6225h3.6119v3.6234h3.6234v-3.6234h3.6234v-3.6234h-3.6234v-3.6234h-3.6234v3.6234h-3.6287c-0.05656-2.7519-0.26385-4.615-0.94034-6.1613-0.57407-1.3122-1.8321-2.2939-3.0961-2.6149-0.74302-0.1887-1.4912-0.24823-2.2991-0.26892v-0.013269h-1.2331z"/>
<path d="m8.6026 9.9831v16.304h3.6234v-12.652c0.63366 0.02516 1.1222 0.06754 1.4101 0.14065 0.5193 0.13188 0.4467 0.05515 0.66523 0.55465 0.43707 0.999 0.64223 4.7098 0.64223 11.956h3.6242c0-1.3268 0.0066-2.5273 0.01062-3.6225h3.6119v3.6234h3.6234v-3.6234h3.6234v-3.6234h-3.6234v-3.6234h-3.6234v3.6234h-3.6287c-0.05656-2.7519-0.26385-4.615-0.94034-6.1613-0.57407-1.3122-1.8321-2.2939-3.0961-2.6149-0.74302-0.1887-1.4912-0.24823-2.2991-0.26892v-0.013269h-1.2331z"/>
<path d="m8.9438 10.425v16.304h3.6234v-12.652c0.63366 0.02516 1.1222 0.06754 1.4101 0.14065 0.5193 0.13188 0.4467 0.05515 0.66523 0.55465 0.43707 0.999 0.64223 4.7098 0.64223 11.956h3.6242c0-1.3268 0.0066-2.5273 0.01062-3.6225h3.6119v3.6234h3.6234v-3.6234h3.6234v-3.6234h-3.6234v-3.6234h-3.6234v3.6234h-3.6287c-0.05656-2.7519-0.26385-4.615-0.94034-6.1613-0.57407-1.3122-1.8321-2.2939-3.0961-2.6149-0.74302-0.1887-1.4912-0.24823-2.2991-0.26892v-0.01327h-1.2331z"/>
<path d="m9.3222 10.97v16.304h3.6234v-12.652c0.63366 0.02516 1.1222 0.06754 1.4101 0.14065 0.5193 0.13188 0.4467 0.05515 0.66523 0.55465 0.43707 0.999 0.64223 4.7098 0.64223 11.956h3.6242c0-1.3268 0.0066-2.5273 0.01062-3.6225h3.6119v3.6234h3.6234v-3.6234h3.6234v-3.6234h-3.6234v-3.6234h-3.6234v3.6234h-3.6287c-0.05656-2.7519-0.26385-4.615-0.94034-6.1613-0.57407-1.3122-1.8321-2.2939-3.0961-2.6149-0.74302-0.1887-1.4912-0.24823-2.2991-0.26892v-0.01327h-1.2331z"/>
</g>
<path d="m7.6768 8.9205v16.304h3.6234v-12.652c0.63366 0.02516 1.1222 0.06754 1.4101 0.14065 0.5193 0.13188 0.4467 0.05515 0.66523 0.55465 0.43707 0.999 0.64223 4.7098 0.64223 11.956h3.6242c0-1.3268 0.0066-2.5273 0.01062-3.6225h3.6119v3.6234h3.6234v-3.6234h3.6234v-3.6234h-3.6234v-3.6234h-3.6234v3.6234h-3.6287c-0.05656-2.7519-0.26385-4.615-0.94034-6.1613-0.57407-1.3122-1.8321-2.2939-3.0961-2.6149-0.74302-0.1887-1.4912-0.24823-2.2991-0.26892v-0.013269h-1.2331z" fill="url(#linearGradient1412)" stroke-width=".45292"/>
<g fill="none" stroke="#ffbb09" stroke-opacity=".039269">
<path d="m7.6768 8.9205v16.304h3.6234v-12.652c0.63366 0.02516 1.1222 0.06754 1.4101 0.14065 0.5193 0.13188 0.4467 0.05515 0.66523 0.55465 0.43707 0.999 0.64223 4.7098 0.64223 11.956h3.6242c0-1.3268 0.0066-2.5273 0.01062-3.6225h3.6119v3.6234h3.6234v-3.6234h3.6234v-3.6234h-3.6234v-3.6234h-3.6234v3.6234h-3.6287c-0.05656-2.7519-0.26385-4.615-0.94034-6.1613-0.57407-1.3122-1.8321-2.2939-3.0961-2.6149-0.74302-0.1887-1.4912-0.24823-2.2991-0.26892v-0.013269h-1.2331z" stroke-width=".8"/>
<path d="m7.6768 8.9205v16.304h3.6234v-12.652c0.63366 0.02516 1.1222 0.06754 1.4101 0.14065 0.5193 0.13188 0.4467 0.05515 0.66523 0.55465 0.43707 0.999 0.64223 4.7098 0.64223 11.956h3.6242c0-1.3268 0.0066-2.5273 0.01062-3.6225h3.6119v3.6234h3.6234v-3.6234h3.6234v-3.6234h-3.6234v-3.6234h-3.6234v3.6234h-3.6287c-0.05656-2.7519-0.26385-4.615-0.94034-6.1613-0.57407-1.3122-1.8321-2.2939-3.0961-2.6149-0.74302-0.1887-1.4912-0.24823-2.2991-0.26892v-0.013269h-1.2331z" stroke-width="1.2"/>
<path d="m7.6768 8.9205v16.304h3.6234v-12.652c0.63366 0.02516 1.1222 0.06754 1.4101 0.14065 0.5193 0.13188 0.4467 0.05515 0.66523 0.55465 0.43707 0.999 0.64223 4.7098 0.64223 11.956h3.6242c0-1.3268 0.0066-2.5273 0.01062-3.6225h3.6119v3.6234h3.6234v-3.6234h3.6234v-3.6234h-3.6234v-3.6234h-3.6234v3.6234h-3.6287c-0.05656-2.7519-0.26385-4.615-0.94034-6.1613-0.57407-1.3122-1.8321-2.2939-3.0961-2.6149-0.74302-0.1887-1.4912-0.24823-2.2991-0.26892v-0.013269h-1.2331z" stroke-width="1.6"/>
</g>
</svg>
