<svg width="128" height="128" version="1.1" viewBox="0 0 33.867 33.867" xmlns="http://www.w3.org/2000/svg" xmlns:xlink="http://www.w3.org/1999/xlink">
<defs>
<radialGradient id="radialGradient963" cx="16.951" cy="2.5104" r="14.544" gradientTransform="matrix(7.1386 0 0 2.2345 -103.92 -3.0991)" gradientUnits="userSpaceOnUse">
<stop stop-color="#c988fa" offset="0"/>
<stop stop-color="#e852a6" stop-opacity=".96863" offset="1"/>
</radialGradient>
</defs>
<g transform="matrix(.97573 0 0 .97573 -65.737 -37.183)" fill="none" opacity=".295" stroke="#000" stroke-linecap="round" stroke-linejoin="round" stroke-opacity=".02">
<rect x="69.84" y="40.71" width="29.811" height="29.811" rx="6.6099" ry="6.6099" stroke-width=".1"/>
<rect x="69.84" y="40.71" width="29.811" height="29.811" rx="6.6099" ry="6.6099" stroke-width=".2"/>
<rect x="69.84" y="40.71" width="29.811" height="29.811" rx="6.6099" ry="6.6099" stroke-width=".3"/>
<rect x="69.84" y="40.71" width="29.811" height="29.811" rx="6.6099" ry="6.6099" stroke-width=".4"/>
<rect x="69.84" y="40.71" width="29.811" height="29.811" rx="6.6099" ry="6.6099" stroke-width=".5"/>
<rect x="69.84" y="40.71" width="29.811" height="29.811" rx="6.6099" ry="6.6099" stroke-width=".6"/>
<rect x="69.84" y="40.71" width="29.811" height="29.811" rx="6.6099" ry="6.6099" stroke-width=".7"/>
<rect x="69.84" y="40.71" width="29.811" height="29.811" rx="6.6099" ry="6.6099" stroke-width=".8"/>
<rect x="69.84" y="40.71" width="29.811" height="29.811" rx="6.6099" ry="6.6099"/>
<rect x="69.84" y="40.71" width="29.811" height="29.811" rx="6.6099" ry="6.6099" stroke-width="1.2"/>
<rect x="69.84" y="40.71" width="29.811" height="29.811" rx="6.6099" ry="6.6099" stroke-width="1.4"/>
<rect x="69.84" y="40.71" width="29.811" height="29.811" rx="6.6099" ry="6.6099" stroke-width="1.6"/>
<rect x="69.84" y="40.71" width="29.811" height="29.811" rx="6.6099" ry="6.6099" stroke-width="1.8"/>
<rect x="69.84" y="40.71" width="29.811" height="29.811" rx="6.6099" ry="6.6099" stroke-width="2"/>
<rect x="69.84" y="40.71" width="29.811" height="29.811" rx="6.6099" ry="6.6099" stroke-width="2.2"/>
<rect x="69.84" y="40.71" width="29.811" height="29.811" rx="6.6099" ry="6.6099" stroke-width="2.6"/>
<rect x="69.84" y="40.71" width="29.811" height="29.811" rx="6.6099" ry="6.6099" stroke-width="3"/>
<rect x="69.84" y="40.71" width="29.811" height="29.811" rx="6.6099" ry="6.6099" stroke-width="3.4"/>
<rect x="69.84" y="40.71" width="29.811" height="29.811" rx="6.6099" ry="6.6099" stroke-width="3.8"/>
<rect x="69.84" y="40.71" width="29.811" height="29.811" rx="6.6099" ry="6.6099" stroke-width="4.2"/>
<rect x="69.84" y="40.71" width="29.811" height="29.811" rx="6.6099" ry="6.6099" stroke-width="4.6"/>
<rect x="69.84" y="40.71" width="29.811" height="29.811" rx="6.6099" ry="6.6099" stroke-width="5"/>
</g>
<rect x="2.5411" y="2.5392" width="29.087" height="29.087" rx="6.4495" ry="6.4495" fill="url(#radialGradient963)" stroke-linecap="round" stroke-linejoin="round" stroke-width="2.6877"/>
<path d="m19.834 6.4611c-6.0832 0-14.29 3.8623-14.29 10.621 0 3.3795 4.3451 5.3107 4.3451 5.3107s-2.8968-2.6071-2.8968-5.3107c0-4.0555 6.7593-7.2419 10.815-7.2419 2.0277 0 6.083 0.53263 6.083-1.5446 0-1.3518-2.5443-1.835-4.0556-1.835zm6.4696 5.7935s0.96558 1.4486 0.96558 5.504c0 4.0555-7.4489 7.735-11.491 6.3432-2.8032-0.96525-5.8897-1.1305-5.8897 0.94673 0 1.3518 2.3961 1.8645 3.8623 2.231 8.1109 2.0277 14.967-2.7619 14.967-9.521 0-3.3795-2.414-5.504-2.414-5.504zm-9.1731 2.8968a2.8968 1.9312 0 0 0-2.8968 1.9312 2.8968 1.9312 0 0 0 2.8968 1.9312 2.8968 1.9312 0 0 0 2.8968-1.9312 2.8968 1.9312 0 0 0-2.8968-1.9312z" fill="#fff" stroke-width=".48279"/>
</svg>
