<svg width="128" height="128" version="1.1" viewBox="0 0 33.867 33.867" xmlns="http://www.w3.org/2000/svg" xmlns:xlink="http://www.w3.org/1999/xlink">
<defs>
<linearGradient id="linearGradient897" x1="2686" x2="2686" y1="1088.8" y2="1770.4" gradientTransform="matrix(.042779 0 0 .042779 -95.919 -44.867)" gradientUnits="userSpaceOnUse">
<stop stop-color="#fff" offset="0"/>
<stop stop-color="#dfdfe1" offset="1"/>
</linearGradient>
<radialGradient id="radialGradient898" cx="60.636" cy="20.456" r="17.304" gradientTransform="translate(-43.433 -3.9449)" gradientUnits="userSpaceOnUse">
<stop stop-color="#0b0b0b" offset="0"/>
<stop stop-color="#0b0b0b" stop-opacity=".85882" offset=".68076"/>
<stop stop-color="#0b0b0b" stop-opacity=".83137" offset=".69925"/>
<stop stop-color="#0b0b0b" stop-opacity=".80392" offset=".71879"/>
<stop stop-color="#0b0b0b" stop-opacity=".78039" offset=".73593"/>
<stop stop-color="#0b0b0b" stop-opacity=".75686" offset=".75022"/>
<stop stop-color="#0b0b0b" stop-opacity=".73333" offset=".76799"/>
<stop stop-color="#0b0b0b" stop-opacity=".082353" offset=".91501"/>
<stop stop-color="#0b0b0b" stop-opacity=".070588" offset=".92247"/>
<stop stop-color="#0b0b0b" stop-opacity=".058824" offset=".92919"/>
<stop stop-color="#0b0b0b" stop-opacity=".047059" offset=".93841"/>
<stop stop-color="#0b0b0b" stop-opacity=".031373" offset=".94761"/>
<stop stop-color="#0b0b0b" stop-opacity=".023529" offset=".95381"/>
<stop stop-color="#0b0b0b" stop-opacity=".015686" offset=".95886"/>
<stop stop-color="#0b0b0b" stop-opacity=".011765" offset=".96356"/>
<stop stop-color="#0b0b0b" stop-opacity=".0078431" offset=".96845"/>
<stop stop-color="#0b0b0b" stop-opacity=".0039216" offset=".97348"/>
<stop stop-color="#0b0b0b" stop-opacity="0" offset=".97812"/>
<stop stop-color="#0b0b0b" stop-opacity="0" offset=".98456"/>
<stop stop-color="#0b0b0b" stop-opacity="0" offset=".98701"/>
<stop stop-color="#0b0b0b" stop-opacity="0" offset=".98925"/>
<stop stop-color="#0b0b0b" stop-opacity="0" offset="1"/>
</radialGradient>
<radialGradient id="radialGradient993" cx="16.969" cy="4.4334" r="13.696" gradientTransform="matrix(4.8886 0 0 1.5421 -65.724 -.93385)" gradientUnits="userSpaceOnUse">
<stop stop-color="#f3f4f4" offset="0"/>
<stop stop-color="#f0f0f1" offset="1"/>
</radialGradient>
</defs>
<circle cx="17.203" cy="16.512" r="17.304" fill="url(#radialGradient898)" opacity=".30973" stroke-linecap="square" stroke-linejoin="round" stroke-width="3"/>
<circle cx="17.203" cy="16.512" r="15.118" fill="url(#linearGradient897)" stroke="#b1aaaa" stroke-linecap="square" stroke-opacity=".99216" stroke-width=".057556"/>
<circle cx="17.203" cy="16.512" r="13.102" fill="url(#radialGradient993)"/>
<g transform="translate(1.9981 -1.0347)" stroke-width=".30146">
<path d="m8.1206 9.5297c-0.093943 0-0.18591 0.00854-0.27438 0.025317-0.088189 0.016806-0.17339 0.041748-0.25436 0.073605-0.081205 0.031948-0.15866 0.071748-0.23081 0.11717-0.3605 0.22714-0.59704 0.61165-0.59704 1.0498v11.396l1.7911 2.4117 1.3743 1.8088 1.3743-1.8088 1.7911-2.4117v-1.8312l4.4254 5.4493c0.23856 0.3609 0.66216 0.60234 1.1517 0.60234h3.6176c0.75155 0 1.3566-0.56447 1.3566-1.2659v-14.35c0-0.70145-0.60504-1.2659-1.3566-1.2659h-3.6176c-0.75155 0-1.3566 0.56447-1.3566 1.2659v4.7575l-4.4284-5.4911c-0.053893-0.066826-0.1166-0.11469-0.1837-0.15427-0.062963-0.059568-0.13091-0.11493-0.20549-0.16192h-6.03e-4c-0.14411-0.090707-0.30793-0.1571-0.48458-0.19077-2.64e-4 -5.02e-5 -8.66e-4 4.9e-5 -0.0011 0-0.08843-0.016806-0.17925-0.025317-0.27319-0.025317h-2.8639z" opacity=".2"/>
<path d="m8.1208 9.4393c-0.080852 0-0.15966 0.00718-0.23493 0.021432-0.075494 0.014391-0.14836 0.03572-0.2168 0.062645-0.068351 0.026889-0.13476 0.061071-0.19619 0.099742-0.30472 0.192-0.49789 0.509-0.49789 0.8713v11.325l2.0682 2.7565 0.88614 1.1821 0.88614-1.1821 2.0682-2.7565v-1.7616a0.21105 0.21105 0 0 1 0.37506-0.13272l4.4241 5.4479a0.21105 0.21105 0 0 1 0.01237 0.01649c0.19884 0.3018 0.55615 0.50943 0.97682 0.50943h3.6171c0.64585 0 1.1458-0.47507 1.1458-1.0551v-14.35c0-0.58005-0.49996-1.0551-1.1458-1.0551h-3.6171c-0.64585 0-1.1458 0.47507-1.1458 1.0551v4.7571a0.21105 0.21105 0 0 1-0.37506 0.13272l-4.4282-5.4908c-0.03555-0.044083-0.07864-0.076988-0.13601-0.10963a0.21105 0.21105 0 0 1-0.03874-0.028029c-0.05803-0.053881-0.11-0.098808-0.16074-0.13107a0.21105 0.21105 0 0 1-0.0017-0.0016 0.21105 0.21105 0 0 0-8.65e-4 0c-0.12188-0.076734-0.26121-0.13368-0.41129-0.16239a0.21105 0.21105 0 0 1-0.0017 0c-0.07546-0.014345-0.15327-0.021432-0.23412-0.021432h-2.8637z" fill="#fabe5c"/>
<path d="m11.31 9.55c-0.087 0.040209-0.39615-0.2314-0.4733-0.16919l-0.58609 0.47316 12.519 15.524 0.36528-0.10421 0.06004-0.5147 0.16084-1.6577-0.19001-0.59459-10.279-12.746c-0.19998-0.24798-0.51292-0.26528-0.77572-0.37167z" fill="#faab00"/>
<path d="m8.608 11.179-0.58609 0.47234c-0.58502 0.47179-0.61307 1.4014-0.062645 2.0839l9.6488 11.881 0.78072 0.14081 2.2608 0.35385z" fill="#ffcd6e"/>
<path d="m10.251 9.8539-1.6429 1.3247 12.042 14.932 2.1207-0.73218-0.26165-0.32444z" fill="#f5b94a"/>
<path d="m21.536 9.2283v16.882h0.75343c0.75155 0 1.3568-0.5647 1.3568-1.2662v-14.35c0-0.70145-0.60528-1.2662-1.3568-1.2662z" fill="#faab00"/>
<path d="m8.8742 9.2283v15.475l1.0551 1.4071 1.0551-1.4071v-15.475z" fill="#f5b94a"/>
<path d="m10.984 9.2283v15.475l2.1103-2.8134v-11.395c0-0.43818-0.23631-0.82304-0.5968-1.0502-2.06e-4 -1.288e-4 -6.34e-4 1.299e-4 -8.66e-4 0-0.14411-0.090696-0.30805-0.15675-0.4847-0.19042-2.63e-4 -5.02e-5 -5.42e-4 5.01e-5 -8.66e-4 0-0.08844-0.016806-0.17969-0.025556-0.27363-0.025556z" fill="#faab00"/>
<path d="m8.1208 9.2283c-0.093943 0-0.18603 0.00878-0.2745 0.025557-0.08819 0.016806-0.17374 0.041508-0.25471 0.073365-0.081205 0.031948-0.15866 0.071634-0.23081 0.11705-0.3605 0.22714-0.59681 0.612-0.59681 1.0502v11.395l2.1103 2.8134v-15.475z" fill="#ffcd6e"/>
<path d="m18.672 9.2283c-0.75155 0-1.3568 0.5647-1.3568 1.2662v14.35c0 0.70145 0.60528 1.2662 1.3568 1.2662h0.75342v-16.882z" fill="#ffcd6e"/>
<rect x="19.425" y="9.2283" width="2.1103" height="16.882" fill="#f5b94a"/>
<rect x="17.315" y="12.544" width="6.3308" height="1.8088" fill="#8d8d8d"/>
<path d="m18.672 9.2283c-0.75155 0-1.3568 0.5647-1.3568 1.2662v2.05h6.3308v-2.05c0-0.70145-0.60528-1.2662-1.3568-1.2662z" fill="#ff7863"/>
<path d="m6.764 21.89 1.7912 2.4117h2.7483l1.7912-2.4117z" fill="#f8e2c8"/>
<path d="m8.5552 24.302 1.3741 1.8088 1.3741-1.8088z" fill="#8d6e63"/>
<path d="m8.1206 9.2283c-0.093943 0-0.18591 0.00854-0.27438 0.025317-0.088189 0.016806-0.17339 0.041748-0.25436 0.073605-0.081205 0.031948-0.15866 0.071748-0.23081 0.11717-0.3605 0.22714-0.59704 0.61165-0.59704 1.0498v0.30146c0-0.43818 0.23655-0.82269 0.59704-1.0498 0.072151-0.045416 0.1496-0.085216 0.23081-0.11717 0.080977-0.031858 0.16617-0.056787 0.25436-0.073605 0.088474-0.016806 0.18044-0.025317 0.27438-0.025317h3.6176c0.09394 0 0.18478 0.00854 0.2732 0.025317 3e-4 5.02e-5 9.87e-4 -5.02e-5 0.0011 0 0.17665 0.03367 0.34047 0.10007 0.48458 0.19077h6.03e-4c0.07458 0.046988 0.14253 0.10235 0.20549 0.16192 0.06711 0.039583 0.12981 0.087437 0.1837 0.15426l4.4283 5.4911v-0.30147l-4.4283-5.4911c-0.053893-0.066825-0.1166-0.11468-0.1837-0.15426-0.062962-0.059568-0.13091-0.11493-0.20549-0.16192h-6.02e-4c-0.14411-0.090707-0.30793-0.1571-0.48458-0.19077-2.63e-4 -5.02e-5 -8.66e-4 5.02e-5 -0.0011 0-0.08843-0.016806-0.17925-0.025317-0.27319-0.025317h-2.8639z" fill="#fff" opacity=".2"/>
<path d="m18.672 9.2283c-0.75155 0-1.3566 0.56447-1.3566 1.2659v0.30146c0-0.70145 0.60504-1.2659 1.3566-1.2659h3.6176c0.75155 0 1.3566 0.56447 1.3566 1.2659v-0.30146c0-0.70145-0.60504-1.2659-1.3566-1.2659z" fill="#fff" opacity=".2"/>
<rect x="17.315" y="12.544" width="6.3308" height=".30146" opacity=".2"/>
<rect x="17.315" y="14.353" width="6.3308" height=".30146" fill="#fff" opacity=".2"/>
<path d="m6.764 21.89 0.22374 0.30146h5.8833l0.22374-0.30146z" fill="#fff" opacity=".2"/>
</g>
</svg>
