<svg width="136.53" height="136.53" version="1.1" viewBox="0 0 136.53 136.53" xmlns="http://www.w3.org/2000/svg" xmlns:xlink="http://www.w3.org/1999/xlink">
<defs>
<linearGradient id="linearGradient892">
<stop stop-color="#e87d2b" offset="0"/>
<stop stop-color="#ebcf91" offset=".33617"/>
<stop stop-color="#ece3b3" offset=".43765"/>
<stop stop-color="#d2e5be" offset=".60637"/>
<stop stop-color="#7cbbf1" offset="1"/>
</linearGradient>
<linearGradient id="linearGradient894" x1="10.638" x2="113.44" y1="34.526" y2="114.94" gradientUnits="userSpaceOnUse" xlink:href="#linearGradient892"/>
<linearGradient id="linearGradient931" x1="33.489" x2="102.45" y1="24.691" y2="103.08" gradientUnits="userSpaceOnUse" xlink:href="#linearGradient892"/>
<linearGradient id="linearGradient939" x1="42.101" x2="102.95" y1="24.113" y2="106.7" gradientTransform="translate(65.519 -9.835)" gradientUnits="userSpaceOnUse" xlink:href="#linearGradient892"/>
</defs>
<filter x="-.069933" y="-.054406" width="1.1399" height="1.1088" color-interpolation-filters="sRGB">
<feGaussianBlur stdDeviation="1.9764485"/>
</filter>
<path d="m68.113 2.2168c-36.979 0-67.021 30.042-67.021 67.021 0 36.979 30.042 67.021 67.021 67.021 36.979 0 67.021-30.042 67.021-67.021 0-36.979-30.042-67.021-67.021-67.021z" color="#000000" color-rendering="auto" dominant-baseline="auto" fill="url(#linearGradient894)" image-rendering="auto" shape-rendering="auto" solid-color="#000000" style="font-feature-settings:normal;font-variant-alternates:normal;font-variant-caps:normal;font-variant-ligatures:normal;font-variant-numeric:normal;font-variant-position:normal;isolation:auto;mix-blend-mode:normal;shape-padding:0;text-decoration-color:#000000;text-decoration-line:none;text-decoration-style:solid;text-indent:0;text-orientation:mixed;text-transform:none;white-space:normal"/>
<path d="m68.113 8.7812c-33.39-2.971e-4 -60.457 27.067-60.457 60.457-2.96e-4 33.39 27.067 60.457 60.457 60.457 33.39 3e-4 60.457-27.067 60.457-60.457 3e-4 -33.39-27.067-60.457-60.457-60.457z" fill="#fff" style="paint-order:fill markers stroke"/>
<g transform="translate(-65.519 9.835)" fill="none" opacity=".424" stroke="url(#linearGradient939)">
<path d="m140.13 33.132c-9.0273 0-16.791 5.2625-20.215 12.802-1.8321-1.4381-4.1329-2.2935-6.6318-2.2935-5.8835 0-10.673 4.7481-10.823 10.661-6.073 2.3032-10.392 8.2263-10.392 15.172 0 8.2043 6.0282 14.986 13.852 16.054v0.14715h55.424v-0.03045c7.7274-0.45326 13.857-6.9295 13.857-14.857 0-7.6452-5.7034-13.946-13.04-14.791 0.0305-0.46604 0.0507-0.93685 0.0507-1.4106 0-11.848-9.8866-21.453-22.082-21.453zm-13.893 19.084 17.79 12.381-17.79 12.381z" opacity=".13406"/>
<path d="m140.13 33.132c-9.0273 0-16.791 5.2625-20.215 12.802-1.8321-1.4381-4.1329-2.2935-6.6318-2.2935-5.8835 0-10.673 4.7481-10.823 10.661-6.073 2.3032-10.392 8.2263-10.392 15.172 0 8.2043 6.0282 14.986 13.852 16.054v0.14715h55.424v-0.03045c7.7274-0.45326 13.857-6.9295 13.857-14.857 0-7.6452-5.7034-13.946-13.04-14.791 0.0305-0.46604 0.0507-0.93685 0.0507-1.4106 0-11.848-9.8866-21.453-22.082-21.453zm-13.893 19.084 17.79 12.381-17.79 12.381z" opacity=".13406" stroke-width="2"/>
<path d="m140.13 33.132c-9.0273 0-16.791 5.2625-20.215 12.802-1.8321-1.4381-4.1329-2.2935-6.6318-2.2935-5.8835 0-10.673 4.7481-10.823 10.661-6.073 2.3032-10.392 8.2263-10.392 15.172 0 8.2043 6.0282 14.986 13.852 16.054v0.14715h55.424v-0.03045c7.7274-0.45326 13.857-6.9295 13.857-14.857 0-7.6452-5.7034-13.946-13.04-14.791 0.0305-0.46604 0.0507-0.93685 0.0507-1.4106 0-11.848-9.8866-21.453-22.082-21.453zm-13.893 19.084 17.79 12.381-17.79 12.381z" opacity=".13406" stroke-width="3"/>
<path d="m140.13 33.132c-9.0273 0-16.791 5.2625-20.215 12.802-1.8321-1.4381-4.1329-2.2935-6.6318-2.2935-5.8835 0-10.673 4.7481-10.823 10.661-6.073 2.3032-10.392 8.2263-10.392 15.172 0 8.2043 6.0282 14.986 13.852 16.054v0.14715h55.424v-0.03045c7.7274-0.45326 13.857-6.9295 13.857-14.857 0-7.6452-5.7034-13.946-13.04-14.791 0.0305-0.46604 0.0507-0.93685 0.0507-1.4106 0-11.848-9.8866-21.453-22.082-21.453zm-13.893 19.084 17.79 12.381-17.79 12.381z" opacity=".13406" stroke-width="4"/>
<path d="m140.13 33.132c-9.0273 0-16.791 5.2625-20.215 12.802-1.8321-1.4381-4.1329-2.2935-6.6318-2.2935-5.8835 0-10.673 4.7481-10.823 10.661-6.073 2.3032-10.392 8.2263-10.392 15.172 0 8.2043 6.0282 14.986 13.852 16.054v0.14715h55.424v-0.03045c7.7274-0.45326 13.857-6.9295 13.857-14.857 0-7.6452-5.7034-13.946-13.04-14.791 0.0305-0.46604 0.0507-0.93685 0.0507-1.4106 0-11.848-9.8866-21.453-22.082-21.453zm-13.893 19.084 17.79 12.381-17.79 12.381z" opacity=".13406" stroke-width="5"/>
</g>
<g transform="matrix(1.57 0 0 1.57 -547.48 -761.78)" stroke-width="1.3">
<circle cx="400.57" cy="531.8" r="0" stroke="url(#c-4)" stroke-width="1"/>
<circle cx="400.57" cy="531.8" r="0"/>
</g>
<path d="m74.608 42.967c-9.0273 0-16.791 5.2625-20.215 12.802-1.8321-1.4381-4.1329-2.2935-6.6318-2.2935-5.8835 0-10.673 4.7481-10.823 10.661-6.073 2.3032-10.392 8.2263-10.392 15.172 0 8.2043 6.0282 14.986 13.852 16.054v0.14715h55.424v-0.03045c7.7274-0.45326 13.857-6.9295 13.857-14.857 0-7.6452-5.7034-13.946-13.04-14.791 0.0305-0.46604 0.0507-0.93685 0.0507-1.4106 0-11.848-9.8866-21.453-22.082-21.453zm-13.893 19.084 17.79 12.381-17.79 12.381z" fill="url(#linearGradient931)"/>
</svg>
