<svg width="128" height="128" version="1.1" viewBox="0 0 128 128" xmlns="http://www.w3.org/2000/svg">
<linearGradient id="a" x1="51.458" x2="51.659" y1="23.679" y2="118.36" gradientUnits="userSpaceOnUse">
<stop stop-color="#22e491" offset="0"/>
<stop stop-color="#89deeb" offset="1"/>
</linearGradient>
<path d="m290.99-9.666c9.2776-27.329 35.15-46.994 65.615-46.994 30.629 0 56.616 19.878 65.763 47.437" fill="none"/>
<path d="m276.15 43.47c48.019 84.933 142.14 51.635 160.2 0.5" fill="none"/>
<path d="m7.0907 18.956a3.141 3.141 0 0 0-0.29615 0.05855l0.13204 0.901a3.141 3.141 0 0 1 0.29615-0.05855 3.141 3.141 0 0 1 3.4605 2.2034 3.141 3.141 0 0 0-0.02919-0.45197 3.141 3.141 0 0 0-3.5633-2.6525zm90.906-13.322a3.141 3.141 0 0 0-2.6525 3.5633 3.141 3.141 0 0 0 0.10284 0.44903 3.141 3.141 0 0 1 2.6816-3.1114 3.141 3.141 0 0 1 0.1916-0.021343l-0.13204-0.901a3.141 3.141 0 0 0-0.1916 0.021343zm-89.742 21.264a3.141 3.141 0 0 0-0.29615 0.05855l0.13204 0.901a3.141 3.141 0 0 1 0.29615-0.05855 3.141 3.141 0 0 1 3.4605 2.2034 3.141 3.141 0 0 0-0.02919-0.45197 3.141 3.141 0 0 0-3.5633-2.6525zm90.906-13.322a3.141 3.141 0 0 0-2.6525 3.5633 3.141 3.141 0 0 0 0.10284 0.44903 3.141 3.141 0 0 1 2.6816-3.1114 3.141 3.141 0 0 1 0.1916-0.02134l-0.13204-0.901a3.141 3.141 0 0 0-0.1916 0.02134zm-89.742 21.264a3.141 3.141 0 0 0-0.29615 0.05855l0.13204 0.901a3.141 3.141 0 0 1 0.29615-0.05854 3.141 3.141 0 0 1 3.4605 2.2034 3.141 3.141 0 0 0-0.02919-0.45197 3.141 3.141 0 0 0-3.5633-2.6525zm90.906-13.322a3.141 3.141 0 0 0-2.6525 3.5633 3.141 3.141 0 0 0 0.10284 0.44903 3.141 3.141 0 0 1 2.6816-3.1114 3.141 3.141 0 0 1 0.19161-0.02135l-0.13204-0.901a3.141 3.141 0 0 0-0.1916 0.02134zm-89.742 21.264a3.141 3.141 0 0 0-0.29615 0.05854l0.13204 0.901a3.141 3.141 0 0 1 0.29615-0.05854 3.141 3.141 0 0 1 3.4604 2.2029 3.141 3.141 0 0 0-0.02919-0.45197 3.141 3.141 0 0 0-3.5633-2.6519zm90.906-13.322a3.141 3.141 0 0 0-2.6525 3.5628 3.141 3.141 0 0 0 0.10284 0.44903 3.141 3.141 0 0 1 2.6817-3.1108 3.141 3.141 0 0 1 0.19161-0.02135l-0.13204-0.901a3.141 3.141 0 0 0-0.1916 0.02135zm-89.742 21.264a3.141 3.141 0 0 0-0.29615 0.05854l0.13204 0.901a3.141 3.141 0 0 1 0.29615-0.05854 3.141 3.141 0 0 1 3.4605 2.2034 3.141 3.141 0 0 0-0.02919-0.45197 3.141 3.141 0 0 0-3.5633-2.6525zm90.906-13.322a3.141 3.141 0 0 0-2.6525 3.5633 3.141 3.141 0 0 0 0.10284 0.44903 3.141 3.141 0 0 1 2.6816-3.1114 3.141 3.141 0 0 1 0.19161-0.02135l-0.13204-0.901a3.141 3.141 0 0 0-0.1916 0.02135zm-89.742 21.264a3.141 3.141 0 0 0-0.29615 0.05854l0.13204 0.901a3.141 3.141 0 0 1 0.29615-0.05854 3.141 3.141 0 0 1 3.4605 2.2034 3.141 3.141 0 0 0-0.02919-0.45197 3.141 3.141 0 0 0-3.5633-2.6525zm90.906-13.322a3.141 3.141 0 0 0-2.6525 3.5633 3.141 3.141 0 0 0 0.10284 0.44903 3.141 3.141 0 0 1 2.6816-3.1114 3.141 3.141 0 0 1 0.1916-0.02135l-0.13203-0.901a3.141 3.141 0 0 0-0.1916 0.02135zm-89.742 21.265a3.141 3.141 0 0 0-0.29615 0.05854l0.13196 0.90045a3.141 3.141 0 0 1 0.29615-0.05854 3.141 3.141 0 0 1 3.4605 2.2034 3.141 3.141 0 0 0-0.02911-0.45142 3.141 3.141 0 0 0-3.5633-2.6525zm90.906-13.322a3.141 3.141 0 0 0-2.6525 3.5633 3.141 3.141 0 0 0 0.10276 0.44848 3.141 3.141 0 0 1 2.6816-3.1114 3.141 3.141 0 0 1 0.1916-0.02135l-0.13203-0.901a3.141 3.141 0 0 0-0.19153 0.021885zm-89.742 21.264a3.141 3.141 0 0 0-0.29615 0.05854l0.13196 0.90046a3.141 3.141 0 0 1 0.29615-0.05854 3.141 3.141 0 0 1 3.4605 2.2034 3.141 3.141 0 0 0-0.02911-0.45142 3.141 3.141 0 0 0-3.5633-2.6525zm90.906-13.322a3.141 3.141 0 0 0-2.6524 3.5633 3.141 3.141 0 0 0 0.10276 0.44848 3.141 3.141 0 0 1 2.6816-3.1114 3.141 3.141 0 0 1 0.1916-0.02135l-0.13195-0.90045a3.141 3.141 0 0 0-0.1916 0.02135zm-89.742 21.264a3.141 3.141 0 0 0-0.29615 0.05854l0.13196 0.90045a3.141 3.141 0 0 1 0.29615-0.05854 3.141 3.141 0 0 1 3.4605 2.2034 3.141 3.141 0 0 0-0.02919-0.45197 3.141 3.141 0 0 0-3.5633-2.6519zm90.906-13.322a3.141 3.141 0 0 0-2.6525 3.5628 3.141 3.141 0 0 0 0.10284 0.44903 3.141 3.141 0 0 1 2.6816-3.1114 3.141 3.141 0 0 1 0.1916-0.02135l-0.13195-0.90045a3.141 3.141 0 0 0-0.19161 0.02135zm-89.742 21.264a3.141 3.141 0 0 0-0.29615 0.05854l0.13196 0.90045a3.141 3.141 0 0 1 0.29615-0.05854 3.141 3.141 0 0 1 3.4605 2.2034 3.141 3.141 0 0 0-0.02911-0.45142 3.141 3.141 0 0 0-3.5633-2.6525zm90.906-13.322a3.141 3.141 0 0 0-2.6524 3.5633 3.141 3.141 0 0 0 0.10284 0.44903 3.141 3.141 0 0 1 2.6816-3.1119 3.141 3.141 0 0 1 0.1916-0.02135l-0.13195-0.90045a3.141 3.141 0 0 0-0.19161 0.02135zm-89.742 21.264a3.141 3.141 0 0 0-0.29615 0.05854l0.13196 0.90045a3.141 3.141 0 0 1 0.29615-0.05854 3.141 3.141 0 0 1 3.4605 2.2034 3.141 3.141 0 0 0-0.02911-0.45141 3.141 3.141 0 0 0-3.5633-2.6525zm90.906-13.322a3.141 3.141 0 0 0-2.6524 3.5633 3.141 3.141 0 0 0 0.10284 0.44903 3.141 3.141 0 0 1 2.6816-3.1119 3.141 3.141 0 0 1 0.1916-0.02135l-0.13196-0.90045a3.141 3.141 0 0 0-0.1916 0.02135zm-89.742 21.264a3.141 3.141 0 0 0-0.29615 0.0585l0.13196 0.90045a3.141 3.141 0 0 1 0.29615-0.0585 3.141 3.141 0 0 1 3.4605 2.2034 3.141 3.141 0 0 0-0.02911-0.45141 3.141 3.141 0 0 0-3.5633-2.6525zm90.906-13.322a3.141 3.141 0 0 0-2.6524 3.5633 3.141 3.141 0 0 0 0.10276 0.44848 3.141 3.141 0 0 1 2.6816-3.1114 3.141 3.141 0 0 1 0.1916-0.02135l-0.13196-0.90045a3.141 3.141 0 0 0-0.1916 0.02135zm-89.742 21.264a3.141 3.141 0 0 0-0.29615 0.0585l0.13196 0.90045a3.141 3.141 0 0 1 0.29615-0.0585 3.141 3.141 0 0 1 3.4605 2.2034 3.141 3.141 0 0 0-0.02911-0.45142 3.141 3.141 0 0 0-3.5633-2.6524zm90.906-13.322a3.141 3.141 0 0 0-2.6524 3.5633 3.141 3.141 0 0 0 0.10284 0.44903 3.141 3.141 0 0 1 2.6816-3.1119 3.141 3.141 0 0 1 0.1916-0.0213l-0.13196-0.90045a3.141 3.141 0 0 0-0.1916 0.0213zm-89.742 21.264a3.141 3.141 0 0 0-0.29615 0.0585l0.13196 0.90045a3.141 3.141 0 0 1 0.29615-0.0585 3.141 3.141 0 0 1 3.5633 2.6519 3.141 3.141 0 0 1 0.02735 0.33215l1.9773-0.28976a2.7541 2.7541 0 0 1-0.1209-0.49184 2.7541 2.7541 0 0 1-0.02534-0.40651l-1.963 0.28766a3.141 3.141 0 0 0-0.02735-0.33215 3.141 3.141 0 0 0-3.5633-2.6519zm90.906-13.322a3.141 3.141 0 0 0-2.6525 3.5628 3.141 3.141 0 0 0 0.0663 0.32643l-1.7333 0.254a2.7541 2.7541 0 0 1 0.0913 0.39686 2.7541 2.7541 0 0 1 0.0253 0.50585l1.7487-0.25626a3.141 3.141 0 0 1-0.0664-0.32643 3.141 3.141 0 0 1 2.6525-3.5628 3.141 3.141 0 0 1 0.1916-0.0214l-0.13196-0.90045a3.141 3.141 0 0 0-0.1916 0.0214zm-83.133 12.4a2.7541 2.7541 0 0 0-2.3256 3.1243 2.7541 2.7541 0 0 0 0.10643 0.4429 2.7541 2.7541 0 0 1 2.3512-2.6668 2.7541 2.7541 0 0 1 3.0178 1.871 2.7541 2.7541 0 0 0-0.02548-0.44578 2.7541 2.7541 0 0 0-3.1243-2.3256zm7.5651-1.1086a2.7541 2.7541 0 0 0-2.3256 3.1243 2.7541 2.7541 0 0 0 0.10643 0.44289 2.7541 2.7541 0 0 1 2.3512-2.6668 2.7541 2.7541 0 0 1 3.0178 1.871 2.7541 2.7541 0 0 0-0.02548-0.44578 2.7541 2.7541 0 0 0-3.1243-2.3256zm7.5645-1.1085a2.7541 2.7541 0 0 0-2.3256 3.1243 2.7541 2.7541 0 0 0 0.10643 0.44289 2.7541 2.7541 0 0 1 2.3512-2.6668 2.7541 2.7541 0 0 1 3.0178 1.871 2.7541 2.7541 0 0 0-0.02548-0.44578 2.7541 2.7541 0 0 0-3.1243-2.3256zm7.5651-1.1086a2.7541 2.7541 0 0 0-2.3256 3.1243 2.7541 2.7541 0 0 0 0.10643 0.44289 2.7541 2.7541 0 0 1 2.3512-2.6667 2.7541 2.7541 0 0 1 3.0178 1.871 2.7541 2.7541 0 0 0-0.02548-0.44578 2.7541 2.7541 0 0 0-3.1243-2.3256zm7.5645-1.1085a2.7541 2.7541 0 0 0-2.3256 3.1243 2.7541 2.7541 0 0 0 0.10643 0.44289 2.7541 2.7541 0 0 1 2.3512-2.6667 2.7541 2.7541 0 0 1 3.0178 1.871 2.7541 2.7541 0 0 0-0.02548-0.44578 2.7541 2.7541 0 0 0-3.1243-2.3256zm7.5651-1.1086a2.7541 2.7541 0 0 0-2.3256 3.1243 2.7541 2.7541 0 0 0 0.10643 0.44289 2.7541 2.7541 0 0 1 2.3512-2.6667 2.7541 2.7541 0 0 1 3.0178 1.871 2.7541 2.7541 0 0 0-0.02548-0.44578 2.7541 2.7541 0 0 0-3.1243-2.3256zm7.5651-1.1086a2.7541 2.7541 0 0 0-2.3256 3.1243 2.7541 2.7541 0 0 0 0.10643 0.4429 2.7541 2.7541 0 0 1 2.3512-2.6668 2.7541 2.7541 0 0 1 3.0178 1.871 2.7541 2.7541 0 0 0-0.02548-0.44578 2.7541 2.7541 0 0 0-3.1243-2.3256zm7.5645-1.1085a2.7541 2.7541 0 0 0-2.3256 3.1243 2.7541 2.7541 0 0 0 0.10643 0.4429 2.7541 2.7541 0 0 1 2.3512-2.6668 2.7541 2.7541 0 0 1 3.0178 1.871 2.7541 2.7541 0 0 0-0.02548-0.44578 2.7541 2.7541 0 0 0-3.1243-2.3256zm7.5651-1.1086a2.7541 2.7541 0 0 0-2.3256 3.1243 2.7541 2.7541 0 0 0 0.10643 0.4429 2.7541 2.7541 0 0 1 2.3512-2.6668 2.7541 2.7541 0 0 1 3.0178 1.871 2.7541 2.7541 0 0 0-0.02548-0.44577 2.7541 2.7541 0 0 0-3.1243-2.3256zm7.5645-1.1085a2.7541 2.7541 0 0 0-2.3256 3.1243 2.7541 2.7541 0 0 0 0.10643 0.4429 2.7541 2.7541 0 0 1 2.3512-2.6668 2.7541 2.7541 0 0 1 3.0178 1.871 2.7541 2.7541 0 0 0-0.0255-0.44578 2.7541 2.7541 0 0 0-3.1243-2.3256zm7.5651-1.1086a2.7541 2.7541 0 0 0-2.3256 3.1243 2.7541 2.7541 0 0 0 0.10643 0.4429 2.7541 2.7541 0 0 1 2.3512-2.6668 2.7541 2.7541 0 0 1 3.0178 1.871 2.7541 2.7541 0 0 0-0.0255-0.44578 2.7541 2.7541 0 0 0-3.1243-2.3256zm-72.484 13.915a2.7541 2.7541 0 0 1 0.09126 0.39686 2.7541 2.7541 0 0 1 0.02531 0.50585l2.2107-0.32397a2.7541 2.7541 0 0 1-0.1209-0.49185 2.7541 2.7541 0 0 1-0.02534-0.40651zm7.5651-1.1086a2.7541 2.7541 0 0 1 0.09127 0.39686 2.7541 2.7541 0 0 1 0.02531 0.50585l2.2102-0.32389a2.7541 2.7541 0 0 1-0.1209-0.49184 2.7541 2.7541 0 0 1-0.02534-0.40652zm7.5645-1.1085a2.7541 2.7541 0 0 1 0.09126 0.39685 2.7541 2.7541 0 0 1 0.02531 0.50585l2.2107-0.32397a2.7541 2.7541 0 0 1-0.1209-0.49184 2.7541 2.7541 0 0 1-0.02534-0.40652zm7.5651-1.1086a2.7541 2.7541 0 0 1 0.09126 0.39685 2.7541 2.7541 0 0 1 0.02531 0.50585l2.2102-0.32389a2.7541 2.7541 0 0 1-0.1209-0.49184 2.7541 2.7541 0 0 1-0.02534-0.40652zm7.5645-1.1085a2.7541 2.7541 0 0 1 0.09127 0.39685 2.7541 2.7541 0 0 1 0.02531 0.50585l2.2107-0.32397a2.7541 2.7541 0 0 1-0.1209-0.49184 2.7541 2.7541 0 0 1-0.02534-0.40652zm7.5651-1.1086a2.7541 2.7541 0 0 1 0.09126 0.39685 2.7541 2.7541 0 0 1 0.02531 0.50585l2.2107-0.32397a2.7541 2.7541 0 0 1-0.1209-0.49184 2.7541 2.7541 0 0 1-0.02534-0.40651zm7.5651-1.1086a2.7541 2.7541 0 0 1 0.09127 0.39685 2.7541 2.7541 0 0 1 0.0253 0.50585l2.2102-0.32389a2.7541 2.7541 0 0 1-0.1209-0.49184 2.7541 2.7541 0 0 1-0.02534-0.40651zm7.5645-1.1085a2.7541 2.7541 0 0 1 0.09126 0.39685 2.7541 2.7541 0 0 1 0.02531 0.50585l2.2107-0.32397a2.7541 2.7541 0 0 1-0.1209-0.49184 2.7541 2.7541 0 0 1-0.02534-0.40651zm7.5651-1.1086a2.7541 2.7541 0 0 1 0.09127 0.39685 2.7541 2.7541 0 0 1 0.02531 0.50586l2.2102-0.3239a2.7541 2.7541 0 0 1-0.1209-0.49184 2.7541 2.7541 0 0 1-0.02534-0.40651zm7.5645-1.1085a2.7541 2.7541 0 0 1 0.0913 0.39686 2.7541 2.7541 0 0 1 0.0253 0.50585l2.2108-0.32397a2.7541 2.7541 0 0 1-0.1209-0.49185 2.7541 2.7541 0 0 1-0.0253-0.40651z" fill-opacity=".14449" stroke-width=".28429"/>
<path d="m7.0907 18.956a3.141 3.141 0 0 0-0.29615 0.05855l0.1648 1.1246a3.141 3.141 0 0 1 0.29615-0.05855 3.141 3.141 0 0 1 3.4273 2.0955 3.141 3.141 0 0 0-0.02875-0.56764 3.141 3.141 0 0 0-3.5633-2.6525zm90.906-13.322a3.141 3.141 0 0 0-2.6525 3.5633 3.141 3.141 0 0 0 0.13614 0.55751 3.141 3.141 0 0 1 2.6811-2.9963 3.141 3.141 0 0 1 0.1916-0.021344l-0.1648-1.1246a3.141 3.141 0 0 0-0.1916 0.021343zm-89.742 21.264a3.141 3.141 0 0 0-0.29615 0.05855l0.1648 1.1246a3.141 3.141 0 0 1 0.29615-0.05855 3.141 3.141 0 0 1 3.4273 2.0955 3.141 3.141 0 0 0-0.02875-0.56764 3.141 3.141 0 0 0-3.5633-2.6525zm90.906-13.322a3.141 3.141 0 0 0-2.6525 3.5633 3.141 3.141 0 0 0 0.13614 0.55751 3.141 3.141 0 0 1 2.6811-2.9963 3.141 3.141 0 0 1 0.1916-0.02134l-0.1648-1.1246a3.141 3.141 0 0 0-0.1916 0.02134zm-89.742 21.264a3.141 3.141 0 0 0-0.29615 0.05855l0.1648 1.1246a3.141 3.141 0 0 1 0.29615-0.05854 3.141 3.141 0 0 1 3.4273 2.0955 3.141 3.141 0 0 0-0.02875-0.56764 3.141 3.141 0 0 0-3.5633-2.6525zm90.906-13.322a3.141 3.141 0 0 0-2.6525 3.5633 3.141 3.141 0 0 0 0.13614 0.55751 3.141 3.141 0 0 1 2.6811-2.9963 3.141 3.141 0 0 1 0.19161-0.02135l-0.16481-1.1246a3.141 3.141 0 0 0-0.1916 0.02134zm-89.742 21.264a3.141 3.141 0 0 0-0.29615 0.05854l0.1648 1.1246a3.141 3.141 0 0 1 0.29622-0.05801 3.141 3.141 0 0 1 3.4272 2.0949 3.141 3.141 0 0 0-0.02883-0.56819 3.141 3.141 0 0 0-3.5633-2.6519zm90.906-13.322a3.141 3.141 0 0 0-2.6525 3.5628 3.141 3.141 0 0 0 0.13614 0.55751 3.141 3.141 0 0 1 2.6812-2.9957 3.141 3.141 0 0 1 0.1916-0.02135l-0.1648-1.1246a3.141 3.141 0 0 0-0.1916 0.02135zm-89.742 21.264a3.141 3.141 0 0 0-0.29615 0.05854l0.1648 1.1246a3.141 3.141 0 0 1 0.29615-0.05854 3.141 3.141 0 0 1 3.4273 2.0955 3.141 3.141 0 0 0-0.02875-0.56764 3.141 3.141 0 0 0-3.5633-2.6525zm90.906-13.322a3.141 3.141 0 0 0-2.6525 3.5633 3.141 3.141 0 0 0 0.13614 0.55751 3.141 3.141 0 0 1 2.6811-2.9963 3.141 3.141 0 0 1 0.1916-0.02135l-0.1648-1.1246a3.141 3.141 0 0 0-0.1916 0.02135zm-89.742 21.264a3.141 3.141 0 0 0-0.29615 0.05854l0.1648 1.1246a3.141 3.141 0 0 1 0.29615-0.05854 3.141 3.141 0 0 1 3.4273 2.0955 3.141 3.141 0 0 0-0.02875-0.56764 3.141 3.141 0 0 0-3.5633-2.6525zm90.906-13.322a3.141 3.141 0 0 0-2.6525 3.5633 3.141 3.141 0 0 0 0.13614 0.55751 3.141 3.141 0 0 1 2.6811-2.9963 3.141 3.141 0 0 1 0.1916-0.02135l-0.1648-1.1246a3.141 3.141 0 0 0-0.1916 0.02135zm-89.742 21.265a3.141 3.141 0 0 0-0.29615 0.05854l0.1648 1.1246a3.141 3.141 0 0 1 0.29615-0.05854 3.141 3.141 0 0 1 3.4272 2.0949 3.141 3.141 0 0 0-0.02867-0.56709 3.141 3.141 0 0 0-3.5633-2.6525zm90.906-13.322a3.141 3.141 0 0 0-2.6525 3.5633 3.141 3.141 0 0 0 0.13606 0.55696 3.141 3.141 0 0 1 2.6812-2.9957 3.141 3.141 0 0 1 0.19152-0.02189l-0.1648-1.1246a3.141 3.141 0 0 0-0.19152 0.02189zm-89.742 21.264a3.141 3.141 0 0 0-0.29615 0.05854l0.1648 1.1246a3.141 3.141 0 0 1 0.29615-0.05854 3.141 3.141 0 0 1 3.4272 2.0949 3.141 3.141 0 0 0-0.02867-0.56709 3.141 3.141 0 0 0-3.5633-2.6525zm90.906-13.322a3.141 3.141 0 0 0-2.6524 3.5633 3.141 3.141 0 0 0 0.13606 0.55696 3.141 3.141 0 0 1 2.6812-2.9957 3.141 3.141 0 0 1 0.1916-0.02135l-0.1648-1.1246a3.141 3.141 0 0 0-0.19161 0.02135zm-89.742 21.264a3.141 3.141 0 0 0-0.29615 0.05854l0.1648 1.1246a3.141 3.141 0 0 1 0.29615-0.05854 3.141 3.141 0 0 1 3.4272 2.0949 3.141 3.141 0 0 0-0.02875-0.56764 3.141 3.141 0 0 0-3.5633-2.6519zm90.906-13.322a3.141 3.141 0 0 0-2.6525 3.5628 3.141 3.141 0 0 0 0.13605 0.55696 3.141 3.141 0 0 1 2.6813-2.9952 3.141 3.141 0 0 1 0.1916-0.02135l-0.1648-1.1246a3.141 3.141 0 0 0-0.19161 0.02135zm-89.742 21.264a3.141 3.141 0 0 0-0.29615 0.05854l0.1648 1.1246a3.141 3.141 0 0 1 0.29615-0.05854 3.141 3.141 0 0 1 3.4272 2.0949 3.141 3.141 0 0 0-0.02867-0.56709 3.141 3.141 0 0 0-3.5633-2.6525zm90.906-13.322a3.141 3.141 0 0 0-2.6524 3.5633 3.141 3.141 0 0 0 0.13605 0.55696 3.141 3.141 0 0 1 2.6812-2.9957 3.141 3.141 0 0 1 0.1916-0.02135l-0.1648-1.1246a3.141 3.141 0 0 0-0.19161 0.02135zm-89.742 21.264a3.141 3.141 0 0 0-0.29615 0.05854l0.1648 1.1246a3.141 3.141 0 0 1 0.29615-0.05854 3.141 3.141 0 0 1 3.4272 2.0949 3.141 3.141 0 0 0-0.02867-0.56709 3.141 3.141 0 0 0-3.5633-2.6525zm90.906-13.322a3.141 3.141 0 0 0-2.6524 3.5633 3.141 3.141 0 0 0 0.13605 0.55696 3.141 3.141 0 0 1 2.6812-2.9957 3.141 3.141 0 0 1 0.1916-0.02135l-0.16481-1.1246a3.141 3.141 0 0 0-0.1916 0.02135zm-89.742 21.264a3.141 3.141 0 0 0-0.29615 0.0585l0.1648 1.1246a3.141 3.141 0 0 1 0.29615-0.0585 3.141 3.141 0 0 1 3.4272 2.0949 3.141 3.141 0 0 0-0.02867-0.56709 3.141 3.141 0 0 0-3.5633-2.6524zm90.906-13.322a3.141 3.141 0 0 0-2.6524 3.5633 3.141 3.141 0 0 0 0.13597 0.55641 3.141 3.141 0 0 1 2.6813-2.9952 3.141 3.141 0 0 1 0.1916-0.02135l-0.16481-1.1246a3.141 3.141 0 0 0-0.1916 0.02135zm-89.742 21.264a3.141 3.141 0 0 0-0.29615 0.0585l0.1648 1.1246a3.141 3.141 0 0 1 0.29615-0.0585 3.141 3.141 0 0 1 3.4272 2.0949 3.141 3.141 0 0 0-0.02867-0.56709 3.141 3.141 0 0 0-3.5633-2.6524zm90.906-13.322a3.141 3.141 0 0 0-2.6524 3.5633 3.141 3.141 0 0 0 0.13605 0.55697 3.141 3.141 0 0 1 2.6812-2.9957 3.141 3.141 0 0 1 0.19161-0.0213l-0.16481-1.1246a3.141 3.141 0 0 0-0.1916 0.0214zm-89.742 21.264a3.141 3.141 0 0 0-0.29615 0.0585l0.1648 1.1246a3.141 3.141 0 0 1 0.29615-0.0585 3.141 3.141 0 0 1 3.5633 2.6519 3.141 3.141 0 0 1 0.02736 0.33215l1.9773-0.28976a2.7541 2.7541 0 0 1-0.1209-0.49184 2.7541 2.7541 0 0 1 2.3256-3.1243 2.7541 2.7541 0 0 1 3.1243 2.3256 2.7541 2.7541 0 0 1 0.02531 0.50585l2.2107-0.32398a2.7541 2.7541 0 0 1-0.1209-0.49184 2.7541 2.7541 0 0 1 2.3256-3.1243 2.7541 2.7541 0 0 1 3.1243 2.3256 2.7541 2.7541 0 0 1 0.02531 0.50585l2.2102-0.32389a2.7541 2.7541 0 0 1-0.1209-0.49185 2.7541 2.7541 0 0 1 2.3256-3.1243 2.7541 2.7541 0 0 1 3.1243 2.3256 2.7541 2.7541 0 0 1 0.02531 0.50585l2.2107-0.32397a2.7541 2.7541 0 0 1-0.1209-0.49184 2.7541 2.7541 0 0 1 2.3256-3.1243 2.7541 2.7541 0 0 1 3.1243 2.3256 2.7541 2.7541 0 0 1 0.02531 0.50585l2.2102-0.32389a2.7541 2.7541 0 0 1-0.1209-0.49184 2.7541 2.7541 0 0 1 2.3256-3.1243 2.7541 2.7541 0 0 1 3.1243 2.3256 2.7541 2.7541 0 0 1 0.02531 0.50585l2.2107-0.32397a2.7541 2.7541 0 0 1-0.1209-0.49184 2.7541 2.7541 0 0 1 2.3256-3.1243 2.7541 2.7541 0 0 1 3.1243 2.3256 2.7541 2.7541 0 0 1 0.02531 0.50585l2.2107-0.32397a2.7541 2.7541 0 0 1-0.1209-0.49184 2.7541 2.7541 0 0 1 2.3256-3.1243 2.7541 2.7541 0 0 1 3.1243 2.3256 2.7541 2.7541 0 0 1 0.0253 0.50585l2.2102-0.32389a2.7541 2.7541 0 0 1-0.1209-0.49184 2.7541 2.7541 0 0 1 2.3256-3.1243 2.7541 2.7541 0 0 1 3.1243 2.3256 2.7541 2.7541 0 0 1 0.02531 0.50585l2.2107-0.32397a2.7541 2.7541 0 0 1-0.1209-0.49184 2.7541 2.7541 0 0 1 2.3256-3.1243 2.7541 2.7541 0 0 1 3.1243 2.3256 2.7541 2.7541 0 0 1 0.02531 0.50585l2.2102-0.32389a2.7541 2.7541 0 0 1-0.1209-0.49184 2.7541 2.7541 0 0 1 2.3256-3.1243 2.7541 2.7541 0 0 1 3.1243 2.3256 2.7541 2.7541 0 0 1 0.0253 0.50586l2.2107-0.32398a2.7541 2.7541 0 0 1-0.1209-0.49184 2.7541 2.7541 0 0 1 2.3256-3.1243 2.7541 2.7541 0 0 1 3.1243 2.3256 2.7541 2.7541 0 0 1 0.0253 0.50585l1.7487-0.25627a3.141 3.141 0 0 1-0.0664-0.32643 3.141 3.141 0 0 1 2.6525-3.5628 3.141 3.141 0 0 1 0.1916-0.0213l-0.1648-1.1246a3.141 3.141 0 0 0-0.1916 0.0213 3.141 3.141 0 0 0-2.6525 3.5628 3.141 3.141 0 0 0 0.0664 0.32643l-1.7487 0.25626a2.7541 2.7541 0 0 0-0.0253-0.50585 2.7541 2.7541 0 0 0-3.1243-2.3256 2.7541 2.7541 0 0 0-2.3256 3.1243 2.7541 2.7541 0 0 0 0.1209 0.49184l-2.2108 0.32397a2.7541 2.7541 0 0 0-0.0253-0.50585 2.7541 2.7541 0 0 0-3.1243-2.3256 2.7541 2.7541 0 0 0-2.3256 3.1243 2.7541 2.7541 0 0 0 0.1209 0.49184l-2.2102 0.32389a2.7541 2.7541 0 0 0-0.02531-0.50585 2.7541 2.7541 0 0 0-3.1243-2.3256 2.7541 2.7541 0 0 0-2.3256 3.1243 2.7541 2.7541 0 0 0 0.1209 0.49184l-2.2107 0.32397a2.7541 2.7541 0 0 0-0.02531-0.50585 2.7541 2.7541 0 0 0-3.1243-2.3256 2.7541 2.7541 0 0 0-2.3256 3.1243 2.7541 2.7541 0 0 0 0.1209 0.49184l-2.2102 0.32389a2.7541 2.7541 0 0 0-0.0253-0.50585 2.7541 2.7541 0 0 0-3.1243-2.3256 2.7541 2.7541 0 0 0-2.3256 3.1243 2.7541 2.7541 0 0 0 0.1209 0.49184l-2.2107 0.32397a2.7541 2.7541 0 0 0-0.02531-0.50585 2.7541 2.7541 0 0 0-3.1243-2.3256 2.7541 2.7541 0 0 0-2.3256 3.1243 2.7541 2.7541 0 0 0 0.1209 0.49184l-2.2107 0.32397a2.7541 2.7541 0 0 0-0.02531-0.50585 2.7541 2.7541 0 0 0-3.1243-2.3256 2.7541 2.7541 0 0 0-2.3256 3.1243 2.7541 2.7541 0 0 0 0.1209 0.49185l-2.2102 0.32389a2.7541 2.7541 0 0 0-0.02531-0.50585 2.7541 2.7541 0 0 0-3.1243-2.3256 2.7541 2.7541 0 0 0-2.3256 3.1243 2.7541 2.7541 0 0 0 0.1209 0.49185l-2.2107 0.32397a2.7541 2.7541 0 0 0-0.02531-0.50585 2.7541 2.7541 0 0 0-3.1243-2.3256 2.7541 2.7541 0 0 0-2.3256 3.1243 2.7541 2.7541 0 0 0 0.1209 0.49185l-2.2102 0.32389a2.7541 2.7541 0 0 0-0.02531-0.50586 2.7541 2.7541 0 0 0-3.1243-2.3256 2.7541 2.7541 0 0 0-2.3256 3.1243 2.7541 2.7541 0 0 0 0.1209 0.49184l-2.2107 0.32397a2.7541 2.7541 0 0 0-0.02531-0.50585 2.7541 2.7541 0 0 0-3.1243-2.3256 2.7541 2.7541 0 0 0-2.3256 3.1243 2.7541 2.7541 0 0 0 0.1209 0.49184l-1.9773 0.28976a3.141 3.141 0 0 0-0.02735-0.33215 3.141 3.141 0 0 0-3.5633-2.6519z" fill-opacity=".14068" stroke-width=".28429"/>
<path d="m7.0907 18.956a3.141 3.141 0 0 0-0.29615 0.05855l0.19765 1.3488a3.141 3.141 0 0 1 0.29615-0.05855 3.141 3.141 0 0 1 3.3874 1.9919 3.141 3.141 0 0 0-0.02172-0.6882 3.141 3.141 0 0 0-3.5633-2.6525zm90.906-13.322a3.141 3.141 0 0 0-2.6525 3.5633 3.141 3.141 0 0 0 0.17593 0.66055 3.141 3.141 0 0 1 2.6742-2.8751 3.141 3.141 0 0 1 0.1916-0.021344l-0.19765-1.3488a3.141 3.141 0 0 0-0.1916 0.021343zm-89.742 21.264a3.141 3.141 0 0 0-0.29615 0.05855l0.19765 1.3488a3.141 3.141 0 0 1 0.29615-0.05855 3.141 3.141 0 0 1 3.3874 1.9919 3.141 3.141 0 0 0-0.02172-0.6882 3.141 3.141 0 0 0-3.5633-2.6525zm90.906-13.322a3.141 3.141 0 0 0-2.6525 3.5633 3.141 3.141 0 0 0 0.17593 0.66055 3.141 3.141 0 0 1 2.6742-2.8751 3.141 3.141 0 0 1 0.1916-0.02134l-0.19765-1.3488a3.141 3.141 0 0 0-0.1916 0.02134zm-89.742 21.264a3.141 3.141 0 0 0-0.29615 0.05855l0.19765 1.3488a3.141 3.141 0 0 1 0.29615-0.05854 3.141 3.141 0 0 1 3.3874 1.9919 3.141 3.141 0 0 0-0.02172-0.6882 3.141 3.141 0 0 0-3.5633-2.6525zm90.906-13.322a3.141 3.141 0 0 0-2.6525 3.5633 3.141 3.141 0 0 0 0.17593 0.66055 3.141 3.141 0 0 1 2.6742-2.8751 3.141 3.141 0 0 1 0.1916-0.02135l-0.19765-1.3488a3.141 3.141 0 0 0-0.1916 0.02134zm-89.742 21.264a3.141 3.141 0 0 0-0.29615 0.05854l0.19765 1.3488a3.141 3.141 0 0 1 0.29615-0.05854 3.141 3.141 0 0 1 3.3874 1.9919 3.141 3.141 0 0 0-0.02181-0.68875 3.141 3.141 0 0 0-3.5633-2.6519zm90.906-13.322a3.141 3.141 0 0 0-2.6525 3.5628 3.141 3.141 0 0 0 0.17593 0.66055 3.141 3.141 0 0 1 2.6743-2.8746 3.141 3.141 0 0 1 0.1916-0.02135l-0.19765-1.3488a3.141 3.141 0 0 0-0.1916 0.02135zm-89.742 21.264a3.141 3.141 0 0 0-0.29615 0.05854l0.19765 1.3488a3.141 3.141 0 0 1 0.29615-0.05854 3.141 3.141 0 0 1 3.3874 1.9919 3.141 3.141 0 0 0-0.02172-0.6882 3.141 3.141 0 0 0-3.5633-2.6525zm90.906-13.322a3.141 3.141 0 0 0-2.6525 3.5633 3.141 3.141 0 0 0 0.17593 0.66055 3.141 3.141 0 0 1 2.6742-2.8751 3.141 3.141 0 0 1 0.1916-0.02135l-0.19765-1.3488a3.141 3.141 0 0 0-0.1916 0.02135zm-89.742 21.264a3.141 3.141 0 0 0-0.29615 0.05854l0.19765 1.3488a3.141 3.141 0 0 1 0.29615-0.05854 3.141 3.141 0 0 1 3.3874 1.9919 3.141 3.141 0 0 0-0.02172-0.6882 3.141 3.141 0 0 0-3.5633-2.6525zm90.906-13.322a3.141 3.141 0 0 0-2.6525 3.5633 3.141 3.141 0 0 0 0.17593 0.66055 3.141 3.141 0 0 1 2.6742-2.8751 3.141 3.141 0 0 1 0.1916-0.02135l-0.19765-1.3488a3.141 3.141 0 0 0-0.1916 0.02135zm-89.742 21.265a3.141 3.141 0 0 0-0.29615 0.05854l0.19757 1.3482a3.141 3.141 0 0 1 0.29615-0.05854 3.141 3.141 0 0 1 3.3874 1.9919 3.141 3.141 0 0 0-0.02164-0.68765 3.141 3.141 0 0 0-3.5633-2.6525zm90.906-13.322a3.141 3.141 0 0 0-2.6525 3.5633 3.141 3.141 0 0 0 0.17585 0.66 3.141 3.141 0 0 1 2.6742-2.8751 3.141 3.141 0 0 1 0.1916-0.02135l-0.19765-1.3488a3.141 3.141 0 0 0-0.19153 0.021884zm-89.742 21.264a3.141 3.141 0 0 0-0.29615 0.05854l0.19757 1.3482a3.141 3.141 0 0 1 0.29615-0.05854 3.141 3.141 0 0 1 3.3874 1.9919 3.141 3.141 0 0 0-0.02164-0.68765 3.141 3.141 0 0 0-3.5633-2.6525zm90.906-13.322a3.141 3.141 0 0 0-2.6524 3.5633 3.141 3.141 0 0 0 0.17585 0.66 3.141 3.141 0 0 1 2.6742-2.8751 3.141 3.141 0 0 1 0.1916-0.02135l-0.19757-1.3482a3.141 3.141 0 0 0-0.19161 0.02135zm-89.742 21.264a3.141 3.141 0 0 0-0.29615 0.05854l0.19757 1.3482a3.141 3.141 0 0 1 0.29615-0.05854 3.141 3.141 0 0 1 3.3874 1.9919 3.141 3.141 0 0 0-0.02172-0.6882 3.141 3.141 0 0 0-3.5633-2.6519zm90.906-13.322a3.141 3.141 0 0 0-2.6525 3.5628 3.141 3.141 0 0 0 0.17585 0.66 3.141 3.141 0 0 1 2.6743-2.8746 3.141 3.141 0 0 1 0.1916-0.02135l-0.19757-1.3482a3.141 3.141 0 0 0-0.19161 0.02135zm-89.742 21.264a3.141 3.141 0 0 0-0.29615 0.05854l0.19757 1.3482a3.141 3.141 0 0 1 0.29615-0.05854 3.141 3.141 0 0 1 3.3874 1.9919 3.141 3.141 0 0 0-0.02164-0.68765 3.141 3.141 0 0 0-3.5633-2.6525zm90.906-13.322a3.141 3.141 0 0 0-2.6524 3.5633 3.141 3.141 0 0 0 0.17585 0.66 3.141 3.141 0 0 1 2.6742-2.8751 3.141 3.141 0 0 1 0.19161-0.02135l-0.19757-1.3482a3.141 3.141 0 0 0-0.19161 0.02135zm-89.742 21.264a3.141 3.141 0 0 0-0.29615 0.05854l0.19757 1.3482a3.141 3.141 0 0 1 0.29615-0.05854 3.141 3.141 0 0 1 3.3874 1.9919 3.141 3.141 0 0 0-0.02164-0.68765 3.141 3.141 0 0 0-3.5633-2.6525zm90.906-13.322a3.141 3.141 0 0 0-2.6524 3.5633 3.141 3.141 0 0 0 0.17585 0.66 3.141 3.141 0 0 1 2.6742-2.8751 3.141 3.141 0 0 1 0.19161-0.02135l-0.19758-1.3482a3.141 3.141 0 0 0-0.1916 0.02135zm-89.742 21.264a3.141 3.141 0 0 0-0.29615 0.0585l0.19757 1.3482a3.141 3.141 0 0 1 0.29615-0.0585 3.141 3.141 0 0 1 3.3874 1.9919 3.141 3.141 0 0 0-0.02164-0.68765 3.141 3.141 0 0 0-3.5633-2.6524zm90.906-13.322a3.141 3.141 0 0 0-2.6524 3.5633 3.141 3.141 0 0 0 0.17576 0.65945 3.141 3.141 0 0 1 2.6743-2.8746 3.141 3.141 0 0 1 0.19161-0.02135l-0.19758-1.3482a3.141 3.141 0 0 0-0.1916 0.02135zm-89.742 21.264a3.141 3.141 0 0 0-0.29615 0.0585l0.19757 1.3482a3.141 3.141 0 0 1 0.29615-0.0585 3.141 3.141 0 0 1 3.3875 1.9924 3.141 3.141 0 0 0-0.02172-0.6882 3.141 3.141 0 0 0-3.5633-2.6524zm90.906-13.322a3.141 3.141 0 0 0-2.6524 3.5633 3.141 3.141 0 0 0 0.17584 0.66 3.141 3.141 0 0 1 2.6742-2.8751 3.141 3.141 0 0 1 0.1916-0.0213l-0.19757-1.3482a3.141 3.141 0 0 0-0.1916 0.0214zm-89.742 21.264a3.141 3.141 0 0 0-0.29615 0.0585l0.19757 1.3482a3.141 3.141 0 0 1 0.29615-0.0585 3.141 3.141 0 0 1 3.5633 2.6519 3.141 3.141 0 0 1 0.02735 0.33214l1.9773-0.28975a2.7541 2.7541 0 0 1-0.1209-0.49184 2.7541 2.7541 0 0 1 2.3256-3.1243 2.7541 2.7541 0 0 1 3.1243 2.3256 2.7541 2.7541 0 0 1 0.02531 0.50585l2.2107-0.32397a2.7541 2.7541 0 0 1-0.1209-0.49184 2.7541 2.7541 0 0 1 2.3256-3.1243 2.7541 2.7541 0 0 1 3.1243 2.3256 2.7541 2.7541 0 0 1 0.02531 0.50585l2.2102-0.32389a2.7541 2.7541 0 0 1-0.1209-0.49184 2.7541 2.7541 0 0 1 2.3256-3.1243 2.7541 2.7541 0 0 1 3.1243 2.3256 2.7541 2.7541 0 0 1 0.02531 0.50585l2.2107-0.32397a2.7541 2.7541 0 0 1-0.1209-0.49184 2.7541 2.7541 0 0 1 2.3256-3.1243 2.7541 2.7541 0 0 1 3.1243 2.3256 2.7541 2.7541 0 0 1 0.02531 0.50585l2.2102-0.32389a2.7541 2.7541 0 0 1-0.1209-0.49184 2.7541 2.7541 0 0 1 2.3256-3.1243 2.7541 2.7541 0 0 1 3.1243 2.3256 2.7541 2.7541 0 0 1 0.02531 0.50585l2.2107-0.32397a2.7541 2.7541 0 0 1-0.1209-0.49184 2.7541 2.7541 0 0 1 2.3256-3.1243 2.7541 2.7541 0 0 1 3.1243 2.3256 2.7541 2.7541 0 0 1 0.02531 0.50586l2.2107-0.32398a2.7541 2.7541 0 0 1-0.1209-0.49184 2.7541 2.7541 0 0 1 2.3256-3.1243 2.7541 2.7541 0 0 1 3.1243 2.3256 2.7541 2.7541 0 0 1 0.0253 0.50586l2.2102-0.32389a2.7541 2.7541 0 0 1-0.1209-0.49185 2.7541 2.7541 0 0 1 2.3256-3.1243 2.7541 2.7541 0 0 1 3.1243 2.3256 2.7541 2.7541 0 0 1 0.02531 0.50585l2.2107-0.32397a2.7541 2.7541 0 0 1-0.1209-0.49185 2.7541 2.7541 0 0 1 2.3256-3.1243 2.7541 2.7541 0 0 1 3.1243 2.3256 2.7541 2.7541 0 0 1 0.02531 0.50585l2.2102-0.32389a2.7541 2.7541 0 0 1-0.1209-0.49184 2.7541 2.7541 0 0 1 2.3256-3.1243 2.7541 2.7541 0 0 1 3.1243 2.3256 2.7541 2.7541 0 0 1 0.0253 0.50585l2.2108-0.32397a2.7541 2.7541 0 0 1-0.1209-0.49184 2.7541 2.7541 0 0 1 2.3256-3.1243 2.7541 2.7541 0 0 1 3.1243 2.3256 2.7541 2.7541 0 0 1 0.0253 0.50585l1.7487-0.25626a3.141 3.141 0 0 1-0.0664-0.32643 3.141 3.141 0 0 1 2.6525-3.5628 3.141 3.141 0 0 1 0.1916-0.0214l-0.19757-1.3482a3.141 3.141 0 0 0-0.1916 0.0213 3.141 3.141 0 0 0-2.6525 3.5628 3.141 3.141 0 0 0 0.0664 0.32643l-1.7487 0.25626a2.7541 2.7541 0 0 0-0.0253-0.50585 2.7541 2.7541 0 0 0-3.1243-2.3256 2.7541 2.7541 0 0 0-2.3256 3.1243 2.7541 2.7541 0 0 0 0.1209 0.49185l-2.2108 0.32397a2.7541 2.7541 0 0 0-0.0253-0.50585 2.7541 2.7541 0 0 0-3.1243-2.3256 2.7541 2.7541 0 0 0-2.3256 3.1243 2.7541 2.7541 0 0 0 0.1209 0.49184l-2.2102 0.3239a2.7541 2.7541 0 0 0-0.02531-0.50586 2.7541 2.7541 0 0 0-3.1243-2.3256 2.7541 2.7541 0 0 0-2.3256 3.1243 2.7541 2.7541 0 0 0 0.1209 0.49184l-2.2107 0.32397a2.7541 2.7541 0 0 0-0.02531-0.50585 2.7541 2.7541 0 0 0-3.1243-2.3256 2.7541 2.7541 0 0 0-2.3256 3.1243 2.7541 2.7541 0 0 0 0.1209 0.49184l-2.2102 0.32389a2.7541 2.7541 0 0 0-0.0253-0.50585 2.7541 2.7541 0 0 0-3.1243-2.3256 2.7541 2.7541 0 0 0-2.3256 3.1243 2.7541 2.7541 0 0 0 0.1209 0.49184l-2.2107 0.32397a2.7541 2.7541 0 0 0-0.02531-0.50585 2.7541 2.7541 0 0 0-3.1243-2.3256 2.7541 2.7541 0 0 0-2.3256 3.1243 2.7541 2.7541 0 0 0 0.1209 0.49184l-2.2107 0.32397a2.7541 2.7541 0 0 0-0.02531-0.50585 2.7541 2.7541 0 0 0-3.1243-2.3256 2.7541 2.7541 0 0 0-2.3256 3.1243 2.7541 2.7541 0 0 0 0.1209 0.49184l-2.2102 0.32389a2.7541 2.7541 0 0 0-0.02531-0.50585 2.7541 2.7541 0 0 0-3.1243-2.3256 2.7541 2.7541 0 0 0-2.3256 3.1243 2.7541 2.7541 0 0 0 0.1209 0.49184l-2.2107 0.32397a2.7541 2.7541 0 0 0-0.02531-0.50585 2.7541 2.7541 0 0 0-3.1243-2.3256 2.7541 2.7541 0 0 0-2.3256 3.1243 2.7541 2.7541 0 0 0 0.1209 0.49184l-2.2102 0.32389a2.7541 2.7541 0 0 0-0.02531-0.50585 2.7541 2.7541 0 0 0-3.1243-2.3256 2.7541 2.7541 0 0 0-2.3256 3.1243 2.7541 2.7541 0 0 0 0.1209 0.49185l-2.2107 0.32397a2.7541 2.7541 0 0 0-0.02531-0.50585 2.7541 2.7541 0 0 0-3.1243-2.3256 2.7541 2.7541 0 0 0-2.3256 3.1243 2.7541 2.7541 0 0 0 0.1209 0.49185l-1.9773 0.28975a3.141 3.141 0 0 0-0.02735-0.33214 3.141 3.141 0 0 0-3.5633-2.6519z" fill-opacity=".12928" stroke-width=".28429"/>
<path d="m7.0907 18.956a3.141 3.141 0 0 0-0.29615 0.05855l0.25771 1.7586a3.141 3.141 0 0 1 0.29615-0.05855 3.141 3.141 0 0 1 3.3054 1.7924 3.141 3.141 0 0 0 2.12e-4 -0.89849 3.141 3.141 0 0 0-3.5633-2.6525zm90.906-13.322a3.141 3.141 0 0 0-2.6525 3.5633 3.141 3.141 0 0 0 0.25737 0.86018 3.141 3.141 0 0 1 2.6528-2.6649 3.141 3.141 0 0 1 0.1916-0.021343l-0.25771-1.7586a3.141 3.141 0 0 0-0.1916 0.021343zm-90.038 21.323 0.25771 1.7586a3.141 3.141 0 0 1 0.29615-0.05855 3.141 3.141 0 0 1 3.3054 1.7924 3.141 3.141 0 0 0 2.12e-4 -0.89849 3.141 3.141 0 0 0-3.2666-2.6802 3.141 3.141 0 0 1-0.29206 0.05963 3.141 3.141 0 0 1-0.30082 0.02669zm90.91-13.32a3.141 3.141 0 0 0-2.3605 3.5032 3.141 3.141 0 0 0 0.25729 0.85964 3.141 3.141 0 0 1 2.6529-2.6644 3.141 3.141 0 0 1 0.1916-0.02134l-0.25538-1.7427a3.141 3.141 0 0 1-0.18927 0.03728 3.141 3.141 0 0 1-0.29665 0.02832zm-89.746 21.263 0.25763 1.758a3.141 3.141 0 0 1 0.29615-0.05854 3.141 3.141 0 0 1 3.3054 1.7924 3.141 3.141 0 0 0 2.12e-4 -0.89849 3.141 3.141 0 0 0-3.2633-2.6807 3.141 3.141 0 0 1-0.29527 0.06067 3.141 3.141 0 0 1-0.30082 0.02668zm90.907-13.32a3.141 3.141 0 0 0-2.3573 3.5021 3.141 3.141 0 0 0 0.25737 0.86018 3.141 3.141 0 0 1 2.6528-2.6649 3.141 3.141 0 0 1 0.1916-0.02135l-0.25529-1.7421a3.141 3.141 0 0 1-0.18927 0.03728 3.141 3.141 0 0 1-0.29995 0.0288zm-89.743 21.262 0.25771 1.7586a3.141 3.141 0 0 1 0.29622-0.05801 3.141 3.141 0 0 1 3.3053 1.7918 3.141 3.141 0 0 0 1.31e-4 -0.89904 3.141 3.141 0 0 0-3.2665-2.6797 3.141 3.141 0 0 1-0.29206 0.05964 3.141 3.141 0 0 1-0.30081 0.0267zm90.91-13.32a3.141 3.141 0 0 0-2.3606 3.5026 3.141 3.141 0 0 0 0.258 0.86066 3.141 3.141 0 0 1 2.6522-2.6648 3.141 3.141 0 0 1 0.1916-0.02135l-0.25538-1.7427a3.141 3.141 0 0 1-0.18927 0.03728 3.141 3.141 0 0 1-0.29664 0.02833zm-89.746 21.262 0.25771 1.7586a3.141 3.141 0 0 1 0.29615-0.05854 3.141 3.141 0 0 1 3.3054 1.7923 3.141 3.141 0 0 0 2.12e-4 -0.89849 3.141 3.141 0 0 0-3.2666-2.6802 3.141 3.141 0 0 1-0.29197 0.0602 3.141 3.141 0 0 1-0.3009 0.02614zm90.91-13.32a3.141 3.141 0 0 0-2.3605 3.5032 3.141 3.141 0 0 0 0.25737 0.86018 3.141 3.141 0 0 1 2.6528-2.6649 3.141 3.141 0 0 1 0.1916-0.02135l-0.25538-1.7427a3.141 3.141 0 0 1-0.18927 0.03728 3.141 3.141 0 0 1-0.29664 0.02833zm-89.746 21.263 0.25763 1.758a3.141 3.141 0 0 1 0.29615-0.05854 3.141 3.141 0 0 1 3.3054 1.7924 3.141 3.141 0 0 0 2.13e-4 -0.89849 3.141 3.141 0 0 0-3.2633-2.6807 3.141 3.141 0 0 1-0.29519 0.06122 3.141 3.141 0 0 1-0.3009 0.02614zm90.907-13.32a3.141 3.141 0 0 0-2.3573 3.5021 3.141 3.141 0 0 0 0.25737 0.86018 3.141 3.141 0 0 1 2.6529-2.6644 3.141 3.141 0 0 1 0.19153-0.02189l-0.2553-1.7421a3.141 3.141 0 0 1-0.18927 0.03728 3.141 3.141 0 0 1-0.29994 0.02881zm-89.743 21.262 0.25771 1.7586a3.141 3.141 0 0 1 0.29615-0.05854 3.141 3.141 0 0 1 3.3053 1.7918 3.141 3.141 0 0 0 2.92e-4 -0.89794 3.141 3.141 0 0 0-3.2667-2.6808 3.141 3.141 0 0 1-0.29206 0.05964 3.141 3.141 0 0 1-0.30074 0.02723zm90.91-13.321a3.141 3.141 0 0 0-2.3604 3.5037 3.141 3.141 0 0 0 0.2573 0.85963 3.141 3.141 0 0 1 2.6529-2.6644 3.141 3.141 0 0 1 0.19152-0.02189l-0.25537-1.7427a3.141 3.141 0 0 1-0.18927 0.03728 3.141 3.141 0 0 1-0.29665 0.02833zm-89.15 21.175a3.141 3.141 0 0 1-0.29519 0.06122 3.141 3.141 0 0 1-0.30082 0.02667l0.25763 1.758a3.141 3.141 0 0 1 0.29615-0.05854 3.141 3.141 0 0 1 3.3053 1.7918 3.141 3.141 0 0 0 2.92e-4 -0.89794 3.141 3.141 0 0 0-3.2634-2.6813zm90.31-13.232a3.141 3.141 0 0 0-2.3566 3.5026 3.141 3.141 0 0 0 0.25729 0.85964 3.141 3.141 0 0 1 2.6529-2.6644 3.141 3.141 0 0 1 0.19161-0.02135l-0.2553-1.7421a3.141 3.141 0 0 1-0.18927 0.03728 3.141 3.141 0 0 1-0.30057 0.02833zm-89.742 21.262 0.25771 1.7586a3.141 3.141 0 0 1 0.29615-0.05854 3.141 3.141 0 0 1 3.3053 1.7918 3.141 3.141 0 0 0 2.12e-4 -0.89849 3.141 3.141 0 0 0-3.2666-2.6802 3.141 3.141 0 0 1-0.29198 0.06017 3.141 3.141 0 0 1-0.30081 0.0267zm90.91-13.321a3.141 3.141 0 0 0-2.3605 3.5032 3.141 3.141 0 0 0 0.25793 0.8601 3.141 3.141 0 0 1 2.6523-2.6643 3.141 3.141 0 0 1 0.1916-0.02135l-0.25537-1.7427a3.141 3.141 0 0 1-0.18927 0.03727 3.141 3.141 0 0 1-0.29673 0.02777zm-89.746 21.263 0.25771 1.7586a3.141 3.141 0 0 1 0.29615-0.05854 3.141 3.141 0 0 1 3.3053 1.7918 3.141 3.141 0 0 0 2.92e-4 -0.89794 3.141 3.141 0 0 0-3.2667-2.6808 3.141 3.141 0 0 1-0.29197 0.0602 3.141 3.141 0 0 1-0.30082 0.02667zm90.909-13.321a3.141 3.141 0 0 0-2.3598 3.5036 3.141 3.141 0 0 0 0.25729 0.85964 3.141 3.141 0 0 1 2.6529-2.6644 3.141 3.141 0 0 1 0.19161-0.02135l-0.25538-1.7427a3.141 3.141 0 0 1-0.18927 0.03728 3.141 3.141 0 0 1-0.29728 0.02785zm-89.149 21.175a3.141 3.141 0 0 1-0.29519 0.06122 3.141 3.141 0 0 1-0.30082 0.02667l0.25763 1.758a3.141 3.141 0 0 1 0.29615-0.0585 3.141 3.141 0 0 1 3.3053 1.7918 3.141 3.141 0 0 0 2.93e-4 -0.89795 3.141 3.141 0 0 0-3.2634-2.6812zm90.31-13.232a3.141 3.141 0 0 0-2.3566 3.5026 3.141 3.141 0 0 0 0.25729 0.85964 3.141 3.141 0 0 1 2.6529-2.6644 3.141 3.141 0 0 1 0.1916-0.02135l-0.25529-1.7421a3.141 3.141 0 0 1-0.18927 0.03727 3.141 3.141 0 0 1-0.30058 0.02833zm-89.742 21.262 0.25771 1.7586a3.141 3.141 0 0 1 0.29615-0.0585 3.141 3.141 0 0 1 3.3053 1.7918 3.141 3.141 0 0 0 2.92e-4 -0.89794 3.141 3.141 0 0 0-3.2667-2.6808 3.141 3.141 0 0 1-0.29198 0.0602 3.141 3.141 0 0 1-0.30081 0.0267zm90.909-13.32a3.141 3.141 0 0 0-2.3598 3.5036 3.141 3.141 0 0 0 0.25776 0.859 3.141 3.141 0 0 1 2.6524-2.6638 3.141 3.141 0 0 1 0.1916-0.02135l-0.25538-1.7427a3.141 3.141 0 0 1-0.18927 0.03728 3.141 3.141 0 0 1-0.29727 0.02785zm-89.746 21.263 0.25771 1.7586a3.141 3.141 0 0 1 0.29615-0.0585 3.141 3.141 0 0 1 3.3053 1.7918 3.141 3.141 0 0 0 2.92e-4 -0.89794 3.141 3.141 0 0 0-3.2639-2.6812 3.141 3.141 0 0 1-0.29472 0.0606 3.141 3.141 0 0 1-0.30082 0.0267zm90.909-13.32a3.141 3.141 0 0 0-2.3598 3.5036 3.141 3.141 0 0 0 0.25729 0.85964 3.141 3.141 0 0 1 2.6529-2.6644 3.141 3.141 0 0 1 0.1916-0.0214l-0.25537-1.7427a3.141 3.141 0 0 1-0.18927 0.0373 3.141 3.141 0 0 1-0.29728 0.0278zm-89.745 21.263 0.25771 1.7586a3.141 3.141 0 0 1 0.29615-0.0585 3.141 3.141 0 0 1 3.5633 2.6519 3.141 3.141 0 0 1 0.02735 0.33215l1.9773-0.28976a2.7541 2.7541 0 0 1-0.1209-0.49184 2.7541 2.7541 0 0 1 2.3256-3.1243 2.7541 2.7541 0 0 1 3.1243 2.3256 2.7541 2.7541 0 0 1 0.02531 0.50584l2.2107-0.32397a2.7541 2.7541 0 0 1-0.1209-0.49184 2.7541 2.7541 0 0 1 2.3256-3.1243 2.7541 2.7541 0 0 1 3.1243 2.3256 2.7541 2.7541 0 0 1 0.02531 0.50584l2.2102-0.32389a2.7541 2.7541 0 0 1-0.1209-0.49184 2.7541 2.7541 0 0 1 2.3256-3.1243 2.7541 2.7541 0 0 1 3.1243 2.3256 2.7541 2.7541 0 0 1 0.02531 0.50585l2.2107-0.32398a2.7541 2.7541 0 0 1-0.1209-0.49183 2.7541 2.7541 0 0 1 2.3256-3.1243 2.7541 2.7541 0 0 1 3.1243 2.3256 2.7541 2.7541 0 0 1 0.02531 0.50585l2.2102-0.32389a2.7541 2.7541 0 0 1-0.1209-0.49184 2.7541 2.7541 0 0 1 2.3256-3.1243 2.7541 2.7541 0 0 1 3.1243 2.3256 2.7541 2.7541 0 0 1 0.02531 0.50585l2.2107-0.32397a2.7541 2.7541 0 0 1-0.1209-0.49184 2.7541 2.7541 0 0 1 2.3256-3.1243 2.7541 2.7541 0 0 1 3.1243 2.3256 2.7541 2.7541 0 0 1 0.02531 0.50585l2.2107-0.32397a2.7541 2.7541 0 0 1-0.1209-0.49184 2.7541 2.7541 0 0 1 2.3256-3.1243 2.7541 2.7541 0 0 1 3.1243 2.3256 2.7541 2.7541 0 0 1 0.0253 0.50585l2.2102-0.32389a2.7541 2.7541 0 0 1-0.1209-0.49184 2.7541 2.7541 0 0 1 2.3256-3.1243 2.7541 2.7541 0 0 1 3.1243 2.3256 2.7541 2.7541 0 0 1 0.02531 0.50585l2.2107-0.32397a2.7541 2.7541 0 0 1-0.1209-0.49184 2.7541 2.7541 0 0 1 2.3256-3.1243 2.7541 2.7541 0 0 1 3.1243 2.3256 2.7541 2.7541 0 0 1 0.02531 0.50585l2.2102-0.32389a2.7541 2.7541 0 0 1-0.1209-0.49184 2.7541 2.7541 0 0 1 2.3256-3.1243 2.7541 2.7541 0 0 1 3.1243 2.3256 2.7541 2.7541 0 0 1 0.0253 0.50585l2.2108-0.32397a2.7541 2.7541 0 0 1-0.1209-0.49184 2.7541 2.7541 0 0 1 2.3256-3.1243 2.7541 2.7541 0 0 1 3.1243 2.3256 2.7541 2.7541 0 0 1 0.0253 0.50584l1.7487-0.25626a3.141 3.141 0 0 1-0.0664-0.32643 3.141 3.141 0 0 1 2.6525-3.5628 3.141 3.141 0 0 1 0.1916-0.0214l-0.25538-1.7427a3.141 3.141 0 0 1-0.18927 0.0373 3.141 3.141 0 0 1-0.29672 0.0278 3.141 3.141 0 0 0-2.3605 3.5032 3.141 3.141 0 0 0 0.0663 0.32643l-1.7487 0.25626a2.7541 2.7541 0 0 0-0.0253-0.50585 2.7541 2.7541 0 0 0-3.1243-2.3256 2.7541 2.7541 0 0 0-2.3256 3.1243 2.7541 2.7541 0 0 0 0.12091 0.49184l-2.2108 0.32397a2.7541 2.7541 0 0 0-0.0253-0.50585 2.7541 2.7541 0 0 0-3.1243-2.3256 2.7541 2.7541 0 0 0-2.3256 3.1243 2.7541 2.7541 0 0 0 0.1209 0.49184l-2.2102 0.32389a2.7541 2.7541 0 0 0-0.02531-0.50585 2.7541 2.7541 0 0 0-3.1243-2.3256 2.7541 2.7541 0 0 0-2.3256 3.1243 2.7541 2.7541 0 0 0 0.1209 0.49184l-2.2107 0.32397a2.7541 2.7541 0 0 0-0.02531-0.50585 2.7541 2.7541 0 0 0-3.1243-2.3256 2.7541 2.7541 0 0 0-2.3256 3.1243 2.7541 2.7541 0 0 0 0.1209 0.49184l-2.2102 0.32389a2.7541 2.7541 0 0 0-0.0253-0.50585 2.7541 2.7541 0 0 0-3.1243-2.3256 2.7541 2.7541 0 0 0-2.3256 3.1243 2.7541 2.7541 0 0 0 0.1209 0.49184l-2.2107 0.32397a2.7541 2.7541 0 0 0-0.02531-0.50585 2.7541 2.7541 0 0 0-3.1243-2.3256 2.7541 2.7541 0 0 0-2.3256 3.1243 2.7541 2.7541 0 0 0 0.1209 0.49184l-2.2107 0.32397a2.7541 2.7541 0 0 0-0.02531-0.50585 2.7541 2.7541 0 0 0-3.1243-2.3256 2.7541 2.7541 0 0 0-2.3256 3.1243 2.7541 2.7541 0 0 0 0.1209 0.49185l-2.2102 0.32389a2.7541 2.7541 0 0 0-0.02531-0.50585 2.7541 2.7541 0 0 0-3.1243-2.3256 2.7541 2.7541 0 0 0-2.3256 3.1243 2.7541 2.7541 0 0 0 0.1209 0.49184l-2.2107 0.32398a2.7541 2.7541 0 0 0-0.02531-0.50585 2.7541 2.7541 0 0 0-3.1243-2.3256 2.7541 2.7541 0 0 0-2.3256 3.1243 2.7541 2.7541 0 0 0 0.1209 0.49184l-2.2102 0.3239a2.7541 2.7541 0 0 0-0.02531-0.50586 2.7541 2.7541 0 0 0-3.1243-2.3256 2.7541 2.7541 0 0 0-2.3256 3.1243 2.7541 2.7541 0 0 0 0.1209 0.49184l-2.2107 0.32397a2.7541 2.7541 0 0 0-0.02531-0.50585 2.7541 2.7541 0 0 0-3.1243-2.3256 2.7541 2.7541 0 0 0-2.3256 3.1243 2.7541 2.7541 0 0 0 0.1209 0.49184l-1.9773 0.28976a3.141 3.141 0 0 0-0.02735-0.33215 3.141 3.141 0 0 0-3.2666-2.6802 3.141 3.141 0 0 1-0.29198 0.0602 3.141 3.141 0 0 1-0.30081 0.0267z" fill-opacity=".11027" stroke-width=".28429"/>
<path d="m7.1858 14.148c-0.59916 0.0878-1.0805 0.16296-1.0797 0.16833l0.74761 5.1016a3.141 3.141 0 0 1 0.29615-0.05855 3.141 3.141 0 0 1 3.5633 2.6525 3.141 3.141 0 0 1-2.6525 3.5633 3.141 3.141 0 0 1-0.30082 0.02669l0.25771 1.7586a3.141 3.141 0 0 1 0.29615-0.05855 3.141 3.141 0 0 1 3.5633 2.6525 3.141 3.141 0 0 1-2.6525 3.5633 3.141 3.141 0 0 1-0.30082 0.02667l0.25763 1.758a3.141 3.141 0 0 1 0.29615-0.05854 3.141 3.141 0 0 1 3.5633 2.6525 3.141 3.141 0 0 1-2.6525 3.5633 3.141 3.141 0 0 1-0.30081 0.0267l0.25771 1.7586a3.141 3.141 0 0 1 0.29615-0.05854 3.141 3.141 0 0 1 3.5633 2.6519 3.141 3.141 0 0 1-2.6525 3.5633 3.141 3.141 0 0 1-0.30082 0.02667l0.25771 1.7586a3.141 3.141 0 0 1 0.29615-0.05854 3.141 3.141 0 0 1 3.5633 2.6525 3.141 3.141 0 0 1-2.6525 3.5633 3.141 3.141 0 0 1-0.30082 0.02667l0.25763 1.758a3.141 3.141 0 0 1 0.29615-0.05854 3.141 3.141 0 0 1 3.5633 2.6525 3.141 3.141 0 0 1-2.6525 3.5633 3.141 3.141 0 0 1-0.30081 0.0267l0.25771 1.7586a3.141 3.141 0 0 1 0.29615-0.05854 3.141 3.141 0 0 1 3.5633 2.6525 3.141 3.141 0 0 1-2.6525 3.5633 3.141 3.141 0 0 1-0.30081 0.0267l0.25763 1.758a3.141 3.141 0 0 1 0.29615-0.05854 3.141 3.141 0 0 1 3.5633 2.6525 3.141 3.141 0 0 1-2.6525 3.5633 3.141 3.141 0 0 1-0.30081 0.0267l0.25771 1.7586a3.141 3.141 0 0 1 0.29615-0.05854 3.141 3.141 0 0 1 3.5633 2.6519 3.141 3.141 0 0 1-2.6525 3.5633 3.141 3.141 0 0 1-0.30081 0.0267l0.25771 1.7586a3.141 3.141 0 0 1 0.29615-0.05854 3.141 3.141 0 0 1 3.5633 2.6525 3.141 3.141 0 0 1-2.6525 3.5633 3.141 3.141 0 0 1-0.30082 0.02667l0.25763 1.758a3.141 3.141 0 0 1 0.29615-0.05854 3.141 3.141 0 0 1 3.5633 2.6524 3.141 3.141 0 0 1-2.6525 3.5633 3.141 3.141 0 0 1-0.30081 0.0267l0.25771 1.7586a3.141 3.141 0 0 1 0.29615-0.0585 3.141 3.141 0 0 1 3.5633 2.6524 3.141 3.141 0 0 1-2.6525 3.5628 3.141 3.141 0 0 1-0.30082 0.0267l0.25771 1.7586a3.141 3.141 0 0 1 0.29615-0.0585 3.141 3.141 0 0 1 3.5633 2.6525 3.141 3.141 0 0 1-2.6525 3.5633 3.141 3.141 0 0 1-0.30082 0.0267l0.25771 1.7586a3.141 3.141 0 0 1 0.29615-0.0585 3.141 3.141 0 0 1 3.5633 2.6519 3.141 3.141 0 0 1 0.02735 0.33214l1.9773-0.28975a2.7541 2.7541 0 0 1-0.1209-0.49184 2.7541 2.7541 0 0 1 2.3256-3.1243 2.7541 2.7541 0 0 1 3.1243 2.3256 2.7541 2.7541 0 0 1 0.02531 0.50585l2.2107-0.32397a2.7541 2.7541 0 0 1-0.1209-0.49184 2.7541 2.7541 0 0 1 2.3256-3.1243 2.7541 2.7541 0 0 1 3.1243 2.3256 2.7541 2.7541 0 0 1 0.02531 0.50585l2.2102-0.32389a2.7541 2.7541 0 0 1-0.1209-0.49184 2.7541 2.7541 0 0 1 2.3256-3.1243 2.7541 2.7541 0 0 1 3.1243 2.3256 2.7541 2.7541 0 0 1 0.02531 0.50585l2.2107-0.32397a2.7541 2.7541 0 0 1-0.1209-0.49184 2.7541 2.7541 0 0 1 2.3256-3.1243 2.7541 2.7541 0 0 1 3.1243 2.3256 2.7541 2.7541 0 0 1 0.02531 0.50585l2.2102-0.32389a2.7541 2.7541 0 0 1-0.1209-0.49184 2.7541 2.7541 0 0 1 2.3256-3.1243 2.7541 2.7541 0 0 1 3.1243 2.3256 2.7541 2.7541 0 0 1 0.02531 0.50586l2.2107-0.32398a2.7541 2.7541 0 0 1-0.1209-0.49184 2.7541 2.7541 0 0 1 2.3256-3.1243 2.7541 2.7541 0 0 1 3.1243 2.3256 2.7541 2.7541 0 0 1 0.02531 0.50585l2.2107-0.32397a2.7541 2.7541 0 0 1-0.1209-0.49185 2.7541 2.7541 0 0 1 2.3256-3.1243 2.7541 2.7541 0 0 1 3.1243 2.3256 2.7541 2.7541 0 0 1 0.02531 0.50585l2.2102-0.32389a2.7541 2.7541 0 0 1-0.1209-0.49185 2.7541 2.7541 0 0 1 2.3256-3.1243 2.7541 2.7541 0 0 1 3.1243 2.3256 2.7541 2.7541 0 0 1 0.02531 0.50585l2.2107-0.32397a2.7541 2.7541 0 0 1-0.1209-0.49184 2.7541 2.7541 0 0 1 2.3256-3.1243 2.7541 2.7541 0 0 1 3.1243 2.3256 2.7541 2.7541 0 0 1 0.02531 0.50585l2.2102-0.32389a2.7541 2.7541 0 0 1-0.1209-0.49184 2.7541 2.7541 0 0 1 2.3256-3.1243 2.7541 2.7541 0 0 1 3.1243 2.3256 2.7541 2.7541 0 0 1 0.0253 0.50585l2.2108-0.32397a2.7541 2.7541 0 0 1-0.1209-0.49184 2.7541 2.7541 0 0 1 2.3256-3.1243 2.7541 2.7541 0 0 1 3.1243 2.3256 2.7541 2.7541 0 0 1 0.0253 0.50585l1.7487-0.25626a3.141 3.141 0 0 1-0.0664-0.32643 3.141 3.141 0 0 1 2.6525-3.5628 3.141 3.141 0 0 1 0.1916-0.0213l-0.25537-1.7427a3.141 3.141 0 0 1-0.18927 0.0373 3.141 3.141 0 0 1-3.5633-2.6525 3.141 3.141 0 0 1 2.6524-3.5633 3.141 3.141 0 0 1 0.1916-0.0214l-0.25537-1.7427a3.141 3.141 0 0 1-0.18927 0.03728 3.141 3.141 0 0 1-3.5633-2.6519 3.141 3.141 0 0 1 2.6524-3.5633 3.141 3.141 0 0 1 0.1916-0.02135l-0.25537-1.7427a3.141 3.141 0 0 1-0.18927 0.03728 3.141 3.141 0 0 1-3.5633-2.6525 3.141 3.141 0 0 1 2.6524-3.5633 3.141 3.141 0 0 1 0.1916-0.02135l-0.25529-1.7421a3.141 3.141 0 0 1-0.18927 0.03728 3.141 3.141 0 0 1-3.5633-2.6525 3.141 3.141 0 0 1 2.6524-3.5633 3.141 3.141 0 0 1 0.1916-0.02135l-0.25538-1.7427a3.141 3.141 0 0 1-0.18926 0.03727 3.141 3.141 0 0 1-3.5634-2.6525 3.141 3.141 0 0 1 2.6525-3.5628 3.141 3.141 0 0 1 0.1916-0.02135l-0.25538-1.7427a3.141 3.141 0 0 1-0.18927 0.03728 3.141 3.141 0 0 1-3.5633-2.6525 3.141 3.141 0 0 1 2.6525-3.5633 3.141 3.141 0 0 1 0.1916-0.02135l-0.2553-1.7421a3.141 3.141 0 0 1-0.18927 0.03728 3.141 3.141 0 0 1-3.5633-2.6525 3.141 3.141 0 0 1 2.6525-3.5633 3.141 3.141 0 0 1 0.1916-0.02135l-0.25538-1.7427a3.141 3.141 0 0 1-0.18927 0.03728 3.141 3.141 0 0 1-3.5633-2.6525 3.141 3.141 0 0 1 2.6525-3.5633 3.141 3.141 0 0 1 0.1916-0.02135l-0.2553-1.7421a3.141 3.141 0 0 1-0.18927 0.03728 3.141 3.141 0 0 1-3.5633-2.6525 3.141 3.141 0 0 1 2.6525-3.5633 3.141 3.141 0 0 1 0.1916-0.02135l-0.25538-1.7427a3.141 3.141 0 0 1-0.18927 0.03728 3.141 3.141 0 0 1-3.5633-2.6525 3.141 3.141 0 0 1 2.6525-3.5628 3.141 3.141 0 0 1 0.1916-0.02135l-0.25538-1.7427a3.141 3.141 0 0 1-0.18927 0.03728 3.141 3.141 0 0 1-3.5633-2.6525 3.141 3.141 0 0 1 2.6525-3.5633 3.141 3.141 0 0 1 0.19161-0.02135l-0.2553-1.7421a3.141 3.141 0 0 1-0.18927 0.03728 3.141 3.141 0 0 1-3.5633-2.6525 3.141 3.141 0 0 1 2.6525-3.5633 3.141 3.141 0 0 1 0.1916-0.02134l-0.25537-1.7426a3.141 3.141 0 0 1-0.18927 0.03728 3.141 3.141 0 0 1-3.5633-2.6525 3.141 3.141 0 0 1 2.6525-3.5633 3.141 3.141 0 0 1 0.1916-0.021343l-0.74639-5.0937c-7.87e-4 -0.005373-0.48403 0.06083-1.0832 0.14863z" fill-opacity=".15589" stroke-width=".28429"/>
<path d="m7.0907 18.956a3.141 3.141 0 0 0-0.29615 0.05855l0.095646 0.65268a3.141 3.141 0 0 1 0.29615-0.058551 3.141 3.141 0 0 1 3.4977 2.3388 3.141 3.141 0 0 0-0.030032-0.33905 3.141 3.141 0 0 0-3.5633-2.6525zm90.906-13.322a3.141 3.141 0 0 0-2.6525 3.5633 3.141 3.141 0 0 0 0.0656 0.31363 3.141 3.141 0 0 1 2.6825-3.2243 3.141 3.141 0 0 1 0.1916-0.021344l-0.09565-0.65267a3.141 3.141 0 0 0-0.1916 0.021343zm-89.742 21.264a3.141 3.141 0 0 0-0.29615 0.05855l0.095646 0.65267a3.141 3.141 0 0 1 0.29615-0.058549 3.141 3.141 0 0 1 3.4977 2.3388 3.141 3.141 0 0 0-0.030031-0.33905 3.141 3.141 0 0 0-3.5633-2.6525zm90.906-13.322a3.141 3.141 0 0 0-2.6525 3.5633 3.141 3.141 0 0 0 0.0656 0.31363 3.141 3.141 0 0 1 2.6825-3.2243 3.141 3.141 0 0 1 0.1916-0.02134l-0.09565-0.65268a3.141 3.141 0 0 0-0.1916 0.02134zm-89.742 21.264a3.141 3.141 0 0 0-0.29615 0.05855l0.095646 0.65268a3.141 3.141 0 0 1 0.29615-0.05854 3.141 3.141 0 0 1 3.4977 2.3388 3.141 3.141 0 0 0-0.03003-0.33904 3.141 3.141 0 0 0-3.5633-2.6525zm90.906-13.322a3.141 3.141 0 0 0-2.6525 3.5633 3.141 3.141 0 0 0 0.0656 0.31363 3.141 3.141 0 0 1 2.6825-3.2243 3.141 3.141 0 0 1 0.19161-0.02135l-0.0957-0.65268a3.141 3.141 0 0 0-0.1916 0.02134zm-89.742 21.264a3.141 3.141 0 0 0-0.29615 0.05854l0.09564 0.65267a3.141 3.141 0 0 1 0.29615-0.05854 3.141 3.141 0 0 1 3.4977 2.3388 3.141 3.141 0 0 0-0.03011-0.3396 3.141 3.141 0 0 0-3.5633-2.6519zm90.906-13.322a3.141 3.141 0 0 0-2.6525 3.5628 3.141 3.141 0 0 0 0.0656 0.31363 3.141 3.141 0 0 1 2.6826-3.2237 3.141 3.141 0 0 1 0.19161-0.02135l-0.0956-0.65268a3.141 3.141 0 0 0-0.1916 0.02135zm-89.742 21.264a3.141 3.141 0 0 0-0.29615 0.05854l0.09565 0.65267a3.141 3.141 0 0 1 0.29615-0.05854 3.141 3.141 0 0 1 3.4977 2.3388 3.141 3.141 0 0 0-0.03003-0.33904 3.141 3.141 0 0 0-3.5633-2.6525zm90.906-13.322a3.141 3.141 0 0 0-2.6525 3.5633 3.141 3.141 0 0 0 0.06561 0.31363 3.141 3.141 0 0 1 2.6825-3.2243 3.141 3.141 0 0 1 0.19161-0.02135l-0.0957-0.65267a3.141 3.141 0 0 0-0.1916 0.02135zm-89.742 21.264a3.141 3.141 0 0 0-0.29615 0.05854l0.09564 0.65267a3.141 3.141 0 0 1 0.29615-0.05854 3.141 3.141 0 0 1 3.4977 2.3388 3.141 3.141 0 0 0-0.03003-0.33905 3.141 3.141 0 0 0-3.5633-2.6525zm90.906-13.322a3.141 3.141 0 0 0-2.6525 3.5633 3.141 3.141 0 0 0 0.0656 0.31363 3.141 3.141 0 0 1 2.6825-3.2243 3.141 3.141 0 0 1 0.1916-0.02135l-0.0956-0.65267a3.141 3.141 0 0 0-0.1916 0.02135zm-89.742 21.265a3.141 3.141 0 0 0-0.29615 0.05854l0.09557 0.65213a3.141 3.141 0 0 1 0.29615-0.05854 3.141 3.141 0 0 1 3.4977 2.3388 3.141 3.141 0 0 0-0.02995-0.3385 3.141 3.141 0 0 0-3.5633-2.6525zm90.906-13.322a3.141 3.141 0 0 0-2.6525 3.5633 3.141 3.141 0 0 0 0.0655 0.31308 3.141 3.141 0 0 1 2.6825-3.2243 3.141 3.141 0 0 1 0.1916-0.02135l-0.0956-0.65268a3.141 3.141 0 0 0-0.19155 0.021885zm-89.742 21.264a3.141 3.141 0 0 0-0.29615 0.05854l0.09557 0.65213a3.141 3.141 0 0 1 0.29615-0.05854 3.141 3.141 0 0 1 3.4977 2.3388 3.141 3.141 0 0 0-0.02995-0.3385 3.141 3.141 0 0 0-3.5633-2.6525zm90.906-13.322a3.141 3.141 0 0 0-2.6524 3.5633 3.141 3.141 0 0 0 0.0655 0.31308 3.141 3.141 0 0 1 2.6825-3.2243 3.141 3.141 0 0 1 0.1916-0.02135l-0.0956-0.65212a3.141 3.141 0 0 0-0.19161 0.02135zm-89.742 21.264a3.141 3.141 0 0 0-0.29615 0.05854l0.09557 0.65212a3.141 3.141 0 0 1 0.29615-0.05854 3.141 3.141 0 0 1 3.4977 2.3388 3.141 3.141 0 0 0-0.03003-0.33904 3.141 3.141 0 0 0-3.5633-2.6519zm90.906-13.322a3.141 3.141 0 0 0-2.6525 3.5628 3.141 3.141 0 0 0 0.0655 0.31308 3.141 3.141 0 0 1 2.6826-3.2237 3.141 3.141 0 0 1 0.1916-0.02135l-0.0956-0.65213a3.141 3.141 0 0 0-0.19161 0.02135zm-89.742 21.264a3.141 3.141 0 0 0-0.29615 0.05854l0.09557 0.65213a3.141 3.141 0 0 1 0.29615-0.05854 3.141 3.141 0 0 1 3.4977 2.3388 3.141 3.141 0 0 0-0.02995-0.3385 3.141 3.141 0 0 0-3.5633-2.6525zm90.906-13.322a3.141 3.141 0 0 0-2.6524 3.5633 3.141 3.141 0 0 0 0.0655 0.31308 3.141 3.141 0 0 1 2.6825-3.2243 3.141 3.141 0 0 1 0.1916-0.02135l-0.0956-0.65212a3.141 3.141 0 0 0-0.19161 0.02135zm-89.742 21.264a3.141 3.141 0 0 0-0.29615 0.05854l0.09557 0.65213a3.141 3.141 0 0 1 0.29615-0.05854 3.141 3.141 0 0 1 3.4977 2.3388 3.141 3.141 0 0 0-0.02995-0.3385 3.141 3.141 0 0 0-3.5633-2.6524zm90.906-13.322a3.141 3.141 0 0 0-2.6524 3.5633 3.141 3.141 0 0 0 0.0655 0.31308 3.141 3.141 0 0 1 2.6825-3.2243 3.141 3.141 0 0 1 0.1916-0.02135l-0.0956-0.65213a3.141 3.141 0 0 0-0.1916 0.02135zm-89.742 21.264a3.141 3.141 0 0 0-0.29615 0.0585l0.09556 0.65213a3.141 3.141 0 0 1 0.29615-0.0586 3.141 3.141 0 0 1 3.4977 2.3388 3.141 3.141 0 0 0-0.02995-0.3385 3.141 3.141 0 0 0-3.5633-2.6524zm90.906-13.322a3.141 3.141 0 0 0-2.6524 3.5633 3.141 3.141 0 0 0 0.0654 0.31253 3.141 3.141 0 0 1 2.6826-3.2237 3.141 3.141 0 0 1 0.1916-0.02135l-0.0956-0.65212a3.141 3.141 0 0 0-0.1916 0.02135zm-89.742 21.264a3.141 3.141 0 0 0-0.29615 0.0585l0.09557 0.65212a3.141 3.141 0 0 1 0.29615-0.0585 3.141 3.141 0 0 1 3.4977 2.3388 3.141 3.141 0 0 0-0.02995-0.3385 3.141 3.141 0 0 0-3.5633-2.6524zm90.906-13.322a3.141 3.141 0 0 0-2.6524 3.5633 3.141 3.141 0 0 0 0.0655 0.31308 3.141 3.141 0 0 1 2.6825-3.2243 3.141 3.141 0 0 1 0.1916-0.0213l-0.0956-0.65213a3.141 3.141 0 0 0-0.1916 0.0214zm-89.742 21.264a3.141 3.141 0 0 0-0.29615 0.0585l0.09557 0.65213a3.141 3.141 0 0 1 0.29615-0.0585 3.141 3.141 0 0 1 3.4952 2.3291 3.141 3.141 0 0 0-0.02749-0.32931 3.141 3.141 0 0 0-3.5633-2.6519zm90.906-13.322a3.141 3.141 0 0 0-2.6525 3.5628 3.141 3.141 0 0 0 0.0658 0.32258 3.141 3.141 0 0 1 2.6823-3.2332 3.141 3.141 0 0 1 0.19161-0.0213l-0.0956-0.65213a3.141 3.141 0 0 0-0.1916 0.0214zm-83.133 12.4a2.7541 2.7541 0 0 0-2.3256 3.1243 2.7541 2.7541 0 0 0 0.06984 0.31582 2.7541 2.7541 0 0 1 2.3514-2.788 2.7541 2.7541 0 0 1 3.0536 2.0043 2.7541 2.7541 0 0 0-0.02492-0.33082 2.7541 2.7541 0 0 0-3.1243-2.3256zm7.5651-1.1086a2.7541 2.7541 0 0 0-2.3256 3.1243 2.7541 2.7541 0 0 0 0.06984 0.31581 2.7541 2.7541 0 0 1 2.3514-2.788 2.7541 2.7541 0 0 1 3.0536 2.0043 2.7541 2.7541 0 0 0-0.02492-0.33082 2.7541 2.7541 0 0 0-3.1243-2.3256zm7.5645-1.1085a2.7541 2.7541 0 0 0-2.3256 3.1243 2.7541 2.7541 0 0 0 0.06984 0.31581 2.7541 2.7541 0 0 1 2.3514-2.788 2.7541 2.7541 0 0 1 3.0536 2.0043 2.7541 2.7541 0 0 0-0.02492-0.33082 2.7541 2.7541 0 0 0-3.1243-2.3256zm7.5651-1.1086a2.7541 2.7541 0 0 0-2.3256 3.1243 2.7541 2.7541 0 0 0 0.06984 0.31581 2.7541 2.7541 0 0 1 2.3514-2.788 2.7541 2.7541 0 0 1 3.0536 2.0043 2.7541 2.7541 0 0 0-0.02492-0.33082 2.7541 2.7541 0 0 0-3.1243-2.3256zm7.5645-1.1085a2.7541 2.7541 0 0 0-2.3256 3.1243 2.7541 2.7541 0 0 0 0.06984 0.31581 2.7541 2.7541 0 0 1 2.3514-2.788 2.7541 2.7541 0 0 1 3.0536 2.0043 2.7541 2.7541 0 0 0-0.02492-0.33082 2.7541 2.7541 0 0 0-3.1243-2.3256zm7.5651-1.1086a2.7541 2.7541 0 0 0-2.3256 3.1243 2.7541 2.7541 0 0 0 0.06984 0.31582 2.7541 2.7541 0 0 1 2.3514-2.788 2.7541 2.7541 0 0 1 3.0536 2.0043 2.7541 2.7541 0 0 0-0.02492-0.33081 2.7541 2.7541 0 0 0-3.1243-2.3256zm7.5651-1.1086a2.7541 2.7541 0 0 0-2.3256 3.1243 2.7541 2.7541 0 0 0 0.06984 0.31582 2.7541 2.7541 0 0 1 2.3514-2.788 2.7541 2.7541 0 0 1 3.0536 2.0043 2.7541 2.7541 0 0 0-0.02492-0.33081 2.7541 2.7541 0 0 0-3.1243-2.3256zm7.5645-1.1085a2.7541 2.7541 0 0 0-2.3256 3.1243 2.7541 2.7541 0 0 0 0.06984 0.31582 2.7541 2.7541 0 0 1 2.3514-2.788 2.7541 2.7541 0 0 1 3.0536 2.0043 2.7541 2.7541 0 0 0-0.02492-0.33081 2.7541 2.7541 0 0 0-3.1243-2.3256zm7.5651-1.1086a2.7541 2.7541 0 0 0-2.3256 3.1243 2.7541 2.7541 0 0 0 0.06984 0.31582 2.7541 2.7541 0 0 1 2.3514-2.788 2.7541 2.7541 0 0 1 3.0536 2.0043 2.7541 2.7541 0 0 0-0.02492-0.33081 2.7541 2.7541 0 0 0-3.1243-2.3256zm7.5645-1.1085a2.7541 2.7541 0 0 0-2.3256 3.1243 2.7541 2.7541 0 0 0 0.06984 0.31582 2.7541 2.7541 0 0 1 2.3514-2.788 2.7541 2.7541 0 0 1 3.0536 2.0043 2.7541 2.7541 0 0 0-0.0249-0.33081 2.7541 2.7541 0 0 0-3.1243-2.3256zm7.5651-1.1086a2.7541 2.7541 0 0 0-2.3256 3.1243 2.7541 2.7541 0 0 0 0.0698 0.31582 2.7541 2.7541 0 0 1 2.3514-2.788 2.7541 2.7541 0 0 1 3.0536 2.0043 2.7541 2.7541 0 0 0-0.0249-0.33082 2.7541 2.7541 0 0 0-3.1243-2.3256zm-79.83 14.992a3.141 3.141 0 0 1 0.06768 0.32006 3.141 3.141 0 0 1 0.02735 0.33214l1.9773-0.28975a2.7541 2.7541 0 0 1-0.1209-0.49184 2.7541 2.7541 0 0 1-0.01476-0.15441zm7.3734-1.0805a2.7541 2.7541 0 0 1 0.02795 0.15247 2.7541 2.7541 0 0 1 0.02531 0.50586l2.2107-0.32398a2.7541 2.7541 0 0 1-0.1209-0.49184 2.7541 2.7541 0 0 1-0.01476-0.15441zm7.5651-1.1086a2.7541 2.7541 0 0 1 0.02795 0.15248 2.7541 2.7541 0 0 1 0.02531 0.50585l2.2102-0.32389a2.7541 2.7541 0 0 1-0.1209-0.49185 2.7541 2.7541 0 0 1-0.01478-0.1544zm7.5645-1.1085a2.7541 2.7541 0 0 1 0.02795 0.15248 2.7541 2.7541 0 0 1 0.02531 0.50585l2.2107-0.32397a2.7541 2.7541 0 0 1-0.1209-0.49185 2.7541 2.7541 0 0 1-0.01475-0.1544zm7.5651-1.1086a2.7541 2.7541 0 0 1 0.02795 0.15248 2.7541 2.7541 0 0 1 0.02531 0.50585l2.2102-0.32389a2.7541 2.7541 0 0 1-0.1209-0.49184 2.7541 2.7541 0 0 1-0.01476-0.15441zm7.5645-1.1085a2.7541 2.7541 0 0 1 0.02795 0.15248 2.7541 2.7541 0 0 1 0.02531 0.50585l2.2107-0.32397a2.7541 2.7541 0 0 1-0.1209-0.49184 2.7541 2.7541 0 0 1-0.01478-0.15441zm7.5651-1.1086a2.7541 2.7541 0 0 1 0.02795 0.15248 2.7541 2.7541 0 0 1 0.02531 0.50585l2.2107-0.32397a2.7541 2.7541 0 0 1-0.1209-0.49184 2.7541 2.7541 0 0 1-0.01478-0.15441zm7.5651-1.1086a2.7541 2.7541 0 0 1 0.02795 0.15247 2.7541 2.7541 0 0 1 0.0253 0.50585l2.2102-0.32389a2.7541 2.7541 0 0 1-0.1209-0.49184 2.7541 2.7541 0 0 1-0.01475-0.15441zm7.5645-1.1085a2.7541 2.7541 0 0 1 0.02795 0.15247 2.7541 2.7541 0 0 1 0.02531 0.50585l2.2107-0.32397a2.7541 2.7541 0 0 1-0.1209-0.49184 2.7541 2.7541 0 0 1-0.01476-0.15441zm7.5651-1.1086a2.7541 2.7541 0 0 1 0.02795 0.15247 2.7541 2.7541 0 0 1 0.02531 0.50585l2.2102-0.32389a2.7541 2.7541 0 0 1-0.1209-0.49184 2.7541 2.7541 0 0 1-0.01478-0.1544zm7.5645-1.1085a2.7541 2.7541 0 0 1 0.028 0.15247 2.7541 2.7541 0 0 1 0.0253 0.50585l2.2108-0.32397a2.7541 2.7541 0 0 1-0.1209-0.49184 2.7541 2.7541 0 0 1-0.0148-0.1544zm7.5651-1.1086a2.7541 2.7541 0 0 1 0.028 0.15247 2.7541 2.7541 0 0 1 0.0253 0.50585l1.7487-0.25626a3.141 3.141 0 0 1-0.0664-0.32643 3.141 3.141 0 0 1-0.0303-0.32553z" fill-opacity=".13308" stroke-width=".28429"/>
<path d="m7.1267 13.744c-0.59916 0.0878-1.0805 0.16296-1.0797 0.16833l0.74761 5.1016a3.141 3.141 0 0 1 0.29615-0.05855 3.141 3.141 0 0 1 3.5633 2.6525 3.141 3.141 0 0 1-2.6525 3.5633 3.141 3.141 0 0 1-0.30082 0.02668l0.25771 1.7586a3.141 3.141 0 0 1 0.29615-0.05855 3.141 3.141 0 0 1 3.5633 2.6525 3.141 3.141 0 0 1-2.6525 3.5633 3.141 3.141 0 0 1-0.30082 0.02667l0.25763 1.758a3.141 3.141 0 0 1 0.29615-0.05854 3.141 3.141 0 0 1 3.5633 2.6525 3.141 3.141 0 0 1-2.6525 3.5633 3.141 3.141 0 0 1-0.30081 0.0267l0.25771 1.7586a3.141 3.141 0 0 1 0.29615-0.05854 3.141 3.141 0 0 1 3.5633 2.6519 3.141 3.141 0 0 1-2.6525 3.5633 3.141 3.141 0 0 1-0.30082 0.02667l0.25771 1.7586a3.141 3.141 0 0 1 0.29615-0.05854 3.141 3.141 0 0 1 3.5633 2.6525 3.141 3.141 0 0 1-2.6525 3.5633 3.141 3.141 0 0 1-0.30082 0.02667l0.25763 1.758a3.141 3.141 0 0 1 0.29615-0.05854 3.141 3.141 0 0 1 3.5633 2.6525 3.141 3.141 0 0 1-2.6525 3.5633 3.141 3.141 0 0 1-0.30081 0.0267l0.25771 1.7586a3.141 3.141 0 0 1 0.29615-0.05854 3.141 3.141 0 0 1 3.5633 2.6525 3.141 3.141 0 0 1-2.6525 3.5633 3.141 3.141 0 0 1-0.30081 0.0267l0.25763 1.758a3.141 3.141 0 0 1 0.29615-0.05854 3.141 3.141 0 0 1 3.5633 2.6525 3.141 3.141 0 0 1-2.6525 3.5633 3.141 3.141 0 0 1-0.30081 0.0267l0.25771 1.7586a3.141 3.141 0 0 1 0.29615-0.05854 3.141 3.141 0 0 1 3.5633 2.6519 3.141 3.141 0 0 1-2.6525 3.5633 3.141 3.141 0 0 1-0.30081 0.0267l0.25771 1.7586a3.141 3.141 0 0 1 0.29615-0.05854 3.141 3.141 0 0 1 3.5633 2.6525 3.141 3.141 0 0 1-2.6525 3.5633 3.141 3.141 0 0 1-0.30082 0.02667l0.25763 1.758a3.141 3.141 0 0 1 0.29615-0.05854 3.141 3.141 0 0 1 3.5633 2.6524 3.141 3.141 0 0 1-2.6525 3.5634 3.141 3.141 0 0 1-0.30081 0.0267l0.25771 1.7586a3.141 3.141 0 0 1 0.29615-0.0585 3.141 3.141 0 0 1 3.5633 2.6524 3.141 3.141 0 0 1-2.6525 3.5628 3.141 3.141 0 0 1-0.30082 0.0267l0.25771 1.7586a3.141 3.141 0 0 1 0.29615-0.0585 3.141 3.141 0 0 1 3.5633 2.6525 3.141 3.141 0 0 1-2.6525 3.5633 3.141 3.141 0 0 1-0.30082 0.0267l0.25771 1.7586a3.141 3.141 0 0 1 0.29615-0.0585 3.141 3.141 0 0 1 3.5633 2.6519 3.141 3.141 0 0 1 0.02735 0.33215l1.9773-0.28976a2.7541 2.7541 0 0 1-0.1209-0.49184 2.7541 2.7541 0 0 1 2.3256-3.1243 2.7541 2.7541 0 0 1 3.1243 2.3256 2.7541 2.7541 0 0 1 0.02531 0.50585l2.2107-0.32397a2.7541 2.7541 0 0 1-0.1209-0.49184 2.7541 2.7541 0 0 1 2.3256-3.1243 2.7541 2.7541 0 0 1 3.1243 2.3256 2.7541 2.7541 0 0 1 0.02531 0.50585l2.2102-0.32389a2.7541 2.7541 0 0 1-0.1209-0.49184 2.7541 2.7541 0 0 1 2.3256-3.1243 2.7541 2.7541 0 0 1 3.1243 2.3256 2.7541 2.7541 0 0 1 0.02531 0.50586l2.2107-0.32398a2.7541 2.7541 0 0 1-0.1209-0.49184 2.7541 2.7541 0 0 1 2.3256-3.1243 2.7541 2.7541 0 0 1 3.1243 2.3256 2.7541 2.7541 0 0 1 0.02531 0.50585l2.2102-0.32389a2.7541 2.7541 0 0 1-0.1209-0.49185 2.7541 2.7541 0 0 1 2.3256-3.1243 2.7541 2.7541 0 0 1 3.1243 2.3256 2.7541 2.7541 0 0 1 0.02531 0.50585l2.2107-0.32397a2.7541 2.7541 0 0 1-0.1209-0.49185 2.7541 2.7541 0 0 1 2.3256-3.1243 2.7541 2.7541 0 0 1 3.1243 2.3256 2.7541 2.7541 0 0 1 0.02531 0.50585l2.2107-0.32397a2.7541 2.7541 0 0 1-0.1209-0.49185 2.7541 2.7541 0 0 1 2.3256-3.1243 2.7541 2.7541 0 0 1 3.1243 2.3256 2.7541 2.7541 0 0 1 0.02531 0.50585l2.2102-0.32389a2.7541 2.7541 0 0 1-0.1209-0.49184 2.7541 2.7541 0 0 1 2.3256-3.1243 2.7541 2.7541 0 0 1 3.1243 2.3256 2.7541 2.7541 0 0 1 0.02531 0.50585l2.2107-0.32397a2.7541 2.7541 0 0 1-0.1209-0.49184 2.7541 2.7541 0 0 1 2.3256-3.1243 2.7541 2.7541 0 0 1 3.1243 2.3256 2.7541 2.7541 0 0 1 0.02531 0.50585l2.2102-0.32389a2.7541 2.7541 0 0 1-0.1209-0.49184 2.7541 2.7541 0 0 1 2.3256-3.1243 2.7541 2.7541 0 0 1 3.1243 2.3256 2.7541 2.7541 0 0 1 0.0253 0.50585l2.2107-0.32397a2.7541 2.7541 0 0 1-0.1209-0.49184 2.7541 2.7541 0 0 1 2.3256-3.1243 2.7541 2.7541 0 0 1 3.1243 2.3256 2.7541 2.7541 0 0 1 0.0253 0.50585l1.7487-0.25626a3.141 3.141 0 0 1-0.0664-0.32642 3.141 3.141 0 0 1 2.6525-3.5628 3.141 3.141 0 0 1 0.1916-0.0214l-0.25538-1.7427a3.141 3.141 0 0 1-0.18926 0.0373 3.141 3.141 0 0 1-3.5634-2.6524 3.141 3.141 0 0 1 2.6525-3.5634 3.141 3.141 0 0 1 0.1916-0.0213l-0.25538-1.7427a3.141 3.141 0 0 1-0.18927 0.03728 3.141 3.141 0 0 1-3.5633-2.6519 3.141 3.141 0 0 1 2.6525-3.5633 3.141 3.141 0 0 1 0.1916-0.02135l-0.25538-1.7427a3.141 3.141 0 0 1-0.18927 0.03727 3.141 3.141 0 0 1-3.5633-2.6525 3.141 3.141 0 0 1 2.6525-3.5633 3.141 3.141 0 0 1 0.1916-0.02135l-0.2553-1.7421a3.141 3.141 0 0 1-0.18927 0.03727 3.141 3.141 0 0 1-3.5633-2.6525 3.141 3.141 0 0 1 2.6525-3.5633 3.141 3.141 0 0 1 0.1916-0.02135l-0.25538-1.7427a3.141 3.141 0 0 1-0.18927 0.03728 3.141 3.141 0 0 1-3.5633-2.6525 3.141 3.141 0 0 1 2.6525-3.5628 3.141 3.141 0 0 1 0.1916-0.02135l-0.25538-1.7427a3.141 3.141 0 0 1-0.18927 0.03728 3.141 3.141 0 0 1-3.5633-2.6525 3.141 3.141 0 0 1 2.6524-3.5633 3.141 3.141 0 0 1 0.19161-0.02135l-0.2553-1.7421a3.141 3.141 0 0 1-0.18927 0.03728 3.141 3.141 0 0 1-3.5633-2.6525 3.141 3.141 0 0 1 2.6524-3.5633 3.141 3.141 0 0 1 0.19161-0.02135l-0.25538-1.7427a3.141 3.141 0 0 1-0.18927 0.03728 3.141 3.141 0 0 1-3.5633-2.6525 3.141 3.141 0 0 1 2.6524-3.5633 3.141 3.141 0 0 1 0.1916-0.02135l-0.25529-1.7421a3.141 3.141 0 0 1-0.18927 0.03728 3.141 3.141 0 0 1-3.5633-2.6525 3.141 3.141 0 0 1 2.6525-3.5633 3.141 3.141 0 0 1 0.1916-0.02135l-0.25537-1.7427a3.141 3.141 0 0 1-0.18927 0.03728 3.141 3.141 0 0 1-3.5633-2.6525 3.141 3.141 0 0 1 2.6525-3.5628 3.141 3.141 0 0 1 0.1916-0.02135l-0.25537-1.7427a3.141 3.141 0 0 1-0.18927 0.03728 3.141 3.141 0 0 1-3.5633-2.6525 3.141 3.141 0 0 1 2.6525-3.5633 3.141 3.141 0 0 1 0.1916-0.02135l-0.25529-1.7421a3.141 3.141 0 0 1-0.18927 0.03727 3.141 3.141 0 0 1-3.5633-2.6525 3.141 3.141 0 0 1 2.6525-3.5633 3.141 3.141 0 0 1 0.1916-0.02134l-0.25534-1.7429a3.141 3.141 0 0 1-0.18927 0.037276 3.141 3.141 0 0 1-3.5633-2.6525 3.141 3.141 0 0 1 2.6525-3.5633 3.141 3.141 0 0 1 0.1916-0.021343l-0.74641-5.0934c-7.87e-4 -0.005373-0.48403 0.06083-1.0832 0.14863z" fill="#fff" stroke-width=".28429"/>
<rect transform="matrix(.98943 -.145 .145 .98943 0 0)" x="12.861" y="23.779" width="74.58" height="94.683" rx="1.0931" ry=".009803" fill="url(#a)" stroke-width=".28429"/>
<path d="m64.363 81.734c-1.0274-4.7692-0.32506-4.3071-14.021-9.2239-7.2287-2.595-10.499-3.4456-10.894-2.8336-0.37584 0.58224-0.08181 2.1444 0.88022 4.675l1.4445 3.8006 10.861 3.9247c5.9734 2.1586 11.25 3.8636 11.726 3.7889 0.59892-0.09389 0.60014-1.3651 0.0041-4.1318zm24.966-2.8265c0.9845-1.1687 0.15785-4.4783-1.3097-5.2432-2.1045-1.097-21.689-8.2032-22.266-8.079-0.30329 0.06533-0.12466 2.0999 0.39694 4.5211l0.9484 4.4023 6.8925 2.4519c12.345 4.3915 13.188 4.4986 15.337 1.9469zm-1.8441-13.802c-0.1869-1.9766-0.73106-4.0548-1.209-4.6183-1.2052-1.4205-23.348-9.5145-24.086-8.8045-0.65326 0.6281 0.30511 5.4086 1.5485 7.7235 0.52726 0.98172 4.3863 2.7324 12.012 5.4492 6.1794 2.2015 11.424 3.967 11.655 3.9233 0.23081-0.04351 0.26682-1.6967 0.07985-3.6732zm-26.151 2.5643-0.94506-4.3868-11.725-4.3342c-6.4489-2.3838-11.969-4.0997-12.267-3.8129-0.97981 0.94207 1.0344 8.4054 2.4704 9.154 2.5217 1.3145 21.693 8.0322 22.547 7.9003 0.60772-0.0939 0.58402-1.4399-0.07963-4.5204zm23.045-17.554-0.93505-4.3403-11.276-4.1923c-6.2019-2.3058-11.819-4.0953-12.482-3.9768-1.0143 0.18151-1.0696 0.83824-0.34811 4.1442 0.47172 2.1607 1.1853 4.2616 1.5861 4.6685 1.0371 1.0528 22.976 8.7948 23.748 8.3807 0.35268-0.18921 0.22058-2.2968-0.29372-4.684zm-25.01 7.1289c0.31697-2.0389-1.0205-6.9161-2.1454-7.8234-1.8394-1.4835-18.923-7.252-20.483-6.9161-1.8814 0.40531-3.1202 3.5826-2.3145 5.9362 0.53028 1.5488 2.3462 2.4397 12.225 5.997 6.3814 2.2979 11.812 4.1327 12.069 4.0775 0.25657-0.05528 0.54836-0.62734 0.64847-1.2713z" fill="#fff" fill-opacity=".99451" stroke-width="3.0412"/>
<path d="m88.703 68.305c-16.113 2.3613-27.267 17.346-24.906 33.459 2.3613 16.113 17.345 27.267 33.459 24.905 16.113-2.3613 27.267-17.345 24.905-33.458-2.3613-16.113-17.345-27.267-33.458-24.906zm0.08244 0.56258c15.809-2.3168 30.497 8.6165 32.813 24.426 2.3168 15.809-8.6159 30.497-24.425 32.813-15.809 2.3168-30.497-8.6158-32.814-24.425-2.3168-15.809 8.6164-30.497 24.426-32.814zm0.14025 0.95704c-15.274 2.2384-25.847 16.442-23.609 31.717 2.2384 15.274 16.442 25.847 31.717 23.608 15.274-2.2384 25.847-16.442 23.609-31.716-2.2384-15.274-16.442-25.847-31.716-23.609zm0.08244 0.56258c14.97-2.1938 28.877 8.1586 31.071 23.129 2.1938 14.97-8.1581 28.877-23.128 31.071-14.97 2.1938-28.878-8.158-31.072-23.128-2.1938-14.97 8.1586-28.878 23.129-31.072zm-2.8393 3.8202c-0.07473 0.01268-0.14975 0.02979-0.22471 0.05201-1.3738 0.40715-1.7531 1.8481-1.2985 3.3818 0.43731 1.4755 1.5388 2.5248 2.898 2.122 1.3592-0.40284 1.7112-1.883 1.2739-3.3585-0.45441-1.5332-1.528-2.3891-2.6487-2.1972zm8.9516-0.80337-0.72345 5.3952 0.60101 0.08028 0.32735-2.442 2.1644 0.29058 0.08771-0.65373-2.1644-0.29058 0.22076-1.6452 2.4575 0.32957 0.08716-0.65365zm-8.8329 1.4527c0.81347-0.13358 1.5825 0.53865 1.9319 1.7175 0.37699 1.272 0.03069 2.2915-0.86335 2.5565-0.89404 0.26497-1.7398-0.40132-2.1146-1.6661-0.38345-1.2938-0.0405-2.2969 0.88262-2.5705 0.05451-0.01615 0.1092-0.0285 0.16343-0.03743zm-5.4815 1.7169-0.53593 0.28337 2.5415 4.8129 2.5341-1.3377-0.30773-0.58344-1.9981 1.0549zm20.588-1.8705-2.1284 5.0102 0.55831 0.23694 0.91296-2.149 1.3465 0.57207c0.50238 0.21343 0.62595 0.56224 0.35323 1.2042-0.22528 0.5303-0.40556 1.0719-0.44268 1.295l0.68344 0.29043 0.0476-0.11192c-0.11707-0.18976-0.11914-0.28102 4e-3 -0.591l0.35742-0.91941c0.20819-0.58698 0.18939-0.83353-0.0953-1.1522 0.56198-0.14015 0.83902-0.38479 1.0791-0.94997 0.3735-0.87917 0.10064-1.5552-0.77156-1.9257zm0.31211 0.81625 1.3813 0.58718c0.4954 0.21046 0.62424 0.58601 0.3871 1.1442-0.25196 0.59309-0.63559 0.75958-1.2078 0.51651l-1.2842-0.54528zm-25.63 4.4938-0.45597 0.40017 3.5876 4.0934 2.1548-1.8888-0.43463-0.49581-1.6989 1.4886zm-2.713 2.8556-1.8365 2.6749 4.487 3.0811 1.8624-2.7124-0.54349-0.37323-1.5193 2.2126-1.4876-1.0217 1.3778-2.0061-0.54404-0.37315-1.3772 2.006-1.369-0.93972 1.4934-2.1746zm34.39-4.231c-0.69628 0.10347-1.3939 0.55938-1.9694 1.251-0.98434 1.183-1.2457 2.6819-0.15595 3.5886 1.0898 0.90676 2.5162 0.37764 3.5005-0.80536 1.091-1.3112 1.1507-2.7805 0.18912-3.5806-0.48187-0.40095-1.0228-0.53415-1.5643-0.45373zm0.0387 0.64699c0.39543-0.05996 0.7737 0.03946 1.0975 0.30888 0.69931 0.58188 0.60518 1.667-0.23369 2.6752-0.84857 1.0198-1.8892 1.2982-2.606 0.70177-0.71679-0.59642-0.63205-1.6698 0.21167-2.6838 0.4855-0.58349 1.0222-0.92483 1.5305-1.0021zm-17.109 2.5369c-8.6487 1.2674-14.638 9.3124-13.37 17.961 1.2674 8.6487 9.3129 14.638 17.962 13.37s14.637-9.3128 13.37-17.962c-1.2674-8.6487-9.3123-14.637-17.961-13.37zm0.08244 0.56258c8.3446-1.2229 16.093 4.5449 17.316 12.89 1.2228 8.3446-4.5448 16.094-12.889 17.316-8.3446 1.2229-16.094-4.5454-17.317-12.89-1.2229-8.3446 4.5454-16.093 12.89-17.316zm0.18396 1.2554c-7.6446 1.1203-12.939 8.2321-11.819 15.877 1.1203 7.6446 8.2326 12.939 15.877 11.819 7.6446-1.1203 12.938-8.2325 11.818-15.877-1.1203-7.6446-8.232-12.938-15.877-11.818zm0.08244 0.56258c7.3406-1.0757 14.156 3.9974 15.232 11.338 1.0757 7.3406-3.9973 14.156-11.338 15.232-7.3406 1.0757-14.157-3.9978-15.232-11.338-1.0757-7.3406 3.9979-14.156 11.339-15.232zm-21.172 4.5982-0.19361 0.57441 2.1336 0.71992-0.74424 2.2051-2.1336-0.71937-0.19361 0.57441 5.1575 1.7398 0.19416-0.57449-2.3993-0.80949 0.7436-2.2056 2.3993 0.8095 0.19416-0.57449zm43.36-5.5505-4.5978 2.914 0.31298 0.49288 3.0096-1.9074 0.8832-0.55986-3.2196 3.5303 0.31677 0.49962 4.5813-1.3959-1.1847 0.75051-2.7148 1.7211 0.30437 0.48011 4.5978-2.914-0.459-0.72345-4.5874 1.3996 3.2201-3.5573zm-18.412 4.5641c-2.4865 0.79376-2.6795 2.3781-2.5525 4.0577 2.0257-0.60093 2.8459-1.9812 2.5525-4.0577zm0.39381 3.8936c-0.66133 0.12481-1.3956 0.45808-2.2372 1.0972-0.32639 0.19144-0.68041 0.27573-1.0856 0.15909-7.5908-1.923-6.4774 7.4949-2.0259 11.312 0.78583 0.64412 2.1946 0.90152 3.5372-0.26807 0.39854-0.37271 1.372-0.43536 1.9813-0.14724 0.63865 0.30683 1.7933 0.37368 2.6005-0.21442 0.65371-0.48555 1.0474-1.4882 1.3716-2.255 0.27435-0.65815 0.51614-1.4316 0.5352-2.161-3.4841-1.8343-3.1072-4.0889-1.2396-6.506-0.96307-0.60869-1.9372-1.1856-3.1584-1.0574-0.09159 0.0096-0.18462 0.02306-0.27909 0.0409zm-25.612 9.138c-0.59916 0.0878-1.0811 0.16305-1.0803 0.16842l0.07729 0.52741c7.88e-4 5e-3 0.48403-0.0608 1.0832-0.14865l0.19888-0.0291c0.59916-0.0878 1.0811-0.16305 1.0803-0.1684l-0.07729-0.52741c-7.87e-4 -5e-3 -0.48404 0.0608-1.0832 0.14862zm3.7045-0.54288c-0.59916 0.0878-1.0811 0.16305-1.0803 0.16842l0.07729 0.52742c7.88e-4 5e-3 0.48403-0.0609 1.0832-0.14865l0.19888-0.0292c0.59916-0.0878 1.0811-0.16305 1.0803-0.16839l-0.07729-0.52742c-7.88e-4 -5e-3 -0.48404 0.0608-1.0832 0.14862zm39.258-5.753c-0.59916 0.0878-1.0811 0.16305-1.0803 0.16842l0.0773 0.52741c7.8e-4 0.0054 0.48403-0.06085 1.0832-0.14865l0.19888-0.02914c0.59916-0.0878 1.0811-0.16305 1.0803-0.1684l-0.0773-0.52741c-7.8e-4 -0.0054-0.48403 0.06082-1.0832 0.14862zm3.7045-0.54288c-0.59916 0.0878-1.0811 0.16305-1.0803 0.16842l0.0773 0.52741c7.9e-4 0.0054 0.48403-0.06085 1.0832-0.14865l0.19888-0.02914c0.59916-0.0878 1.0811-0.16305 1.0803-0.1684l-0.0773-0.52741c-7.9e-4 -0.0054-0.48404 0.06082-1.0832 0.14862zm-40.227 13.777c-0.60373 0.11864-1.2504 0.4595-1.8862 1.0183-1.4469 1.2718-1.7945 2.721-0.90267 3.7357 0.35785 0.40714 0.84484 0.64516 1.387 0.66827 0.53036 0.0224 0.97664-0.11453 1.8008-0.61688l-0.42421-0.48219c-1.0436 0.60638-1.7063 0.53429-2.1797-4e-3 -0.66064-0.75164-0.38821-1.7682 0.75178-2.7702 1.1525-1.013 2.2492-1.167 2.9209-0.40278 0.45144 0.51362 0.49688 1.0956-0.03493 1.8295l0.42366 0.48227c0.83494-0.94482 0.85556-1.9951 0.14536-2.8031-0.52026-0.59192-1.2255-0.80704-2.0017-0.65451zm34.704-3.9252-0.2413 0.72001 5.0921 3.649 0.21699-0.64854-1.488-1.0435 0.625-1.8661 1.8063 0.0945 0.23034-0.68754zm0.69264 0.6634 2.7471 0.14626-0.48438 1.447zm-2.2071 2.6271-0.36088 0.55122 5.0123 3.2763 0.36025-0.55169zm-27.879 4.6568-5.1042 3.6325 0.54302 0.41596 1.4702-1.069 1.5626 1.1964-0.67617 1.6777 0.57593 0.44143 2.2311-5.8339zm-0.24952 0.90136-1.0301 2.5517-1.2112-0.92804zm26.831-3.6131-0.46082 0.44746 3.3876 3.4869-5.164-1.7613-0.56247 0.54653 4.1721 4.2945 0.46083-0.44746-3.3877-3.4874 5.194 1.7322 0.53258-0.5169zm-23.565 4.7795-2.4979 5.4414 2.865 1.3148 0.30246-0.65882-2.2587-1.0372 2.1955-4.7821zm18.991-0.75325c-0.20824 0.0371-0.42686 0.11922-0.65409 0.24681l-1.9854 1.1148 2.9318 5.221 0.58116-0.32704-1.2575-2.2395 1.4037-0.78765c0.52354-0.29397 0.91064-0.1672 1.2863 0.50177 0.3103 0.55261 0.66007 1.0733 0.82937 1.2556l0.71243-0.40015-0.0653-0.11614c-0.24392-0.0256-0.32526-0.085-0.51218-0.40083l-0.55987-0.92921c-0.37115-0.57584-0.59832-0.72529-1.0672-0.69157 0.25574-0.58354 0.22851-0.98926-0.1022-1.5782-0.38584-0.68714-0.91636-0.98099-1.5411-0.8696zm-14.724 2.4108-1.3977 5.8223 0.64093 0.15356 1.3972-5.8222zm14.813-1.7174c0.34948-0.0555 0.64317 0.13281 0.88814 0.56909 0.34705 0.61806 0.23388 1.064-0.36237 1.3988l-1.3378 0.75106-0.99622-1.7738 1.4399-0.80868c0.12907-0.0725 0.25186-0.11798 0.36834-0.13647zm-12.378 2.2241-0.17226 5.9856 0.66668 0.019 0.07832-2.7091 2.4008 0.0691 0.02054-0.72526-2.4008-0.0691 0.05238-1.8254 2.7259 0.0781 0.0211-0.72534zm6.5504-0.69952c-0.08277 0.0101-0.16566 0.0254-0.24915 0.0461-1.5302 0.37747-2.0208 1.9414-1.5993 3.6498 0.40543 1.6436 1.5627 2.8531 3.0767 2.4796 1.5141-0.37347 1.9763-1.9824 1.5708-3.626-0.42128-1.7079-1.5579-2.7033-2.7991-2.5495zm0.09763 0.71972c0.90066-0.10537 1.7118 0.67256 2.0357 1.9857 0.3495 1.4169-0.08321 2.5198-1.0791 2.7654-0.99587 0.24565-1.8912-0.52977-2.2387-1.9386-0.3555-1.4412 0.07229-2.5261 1.1006-2.7798 0.06072-0.015 0.12146-0.0258 0.18151-0.0328z" fill="#435871" fill-opacity=".79848" stroke-width=".28429"/>
</svg>
