<svg width="128" height="128" version="1.1" viewBox="0 0 128 128" xmlns="http://www.w3.org/2000/svg" xmlns:xlink="http://www.w3.org/1999/xlink">
<defs>
<linearGradient id="linearGradient4546" x1="68.619" x2="68.619" y1="7.4113" y2="123.62" gradientUnits="userSpaceOnUse">
<stop stop-color="#cfe6ec" offset="0"/>
<stop stop-color="#747472" offset="1"/>
</linearGradient>
<linearGradient id="linearGradient4159" x1="68.619" x2="68.619" y1="123.62" y2="7.4113" gradientTransform="matrix(.95244 0 0 .95244 3.0728 3.051)" gradientUnits="userSpaceOnUse">
<stop stop-color="#181818" offset="0"/>
<stop stop-color="#181818" offset="1"/>
</linearGradient>
</defs>
<path d="m64.613 1.4883c-34.585 1e-7 -62.682 28.098-62.682 62.684s28.096 62.682 62.682 62.682c34.585 0 62.684-28.096 62.684-62.682-1e-5 -34.585-28.098-62.684-62.684-62.684z" color="#000000" color-rendering="auto" fill="url(#linearGradient4546)" image-rendering="auto" shape-rendering="auto" solid-color="#000000" style="block-progression:tb;isolation:auto;mix-blend-mode:normal;text-decoration-color:#000000;text-decoration-line:none;text-decoration-style:solid;text-indent:0;text-transform:none;white-space:normal"/>
<circle cx="64.614" cy="64.171" r="57.029" fill="url(#linearGradient4159)"/>
<path d="m62.049 27.074c-6.3402 0.17225-12.551 3.0462-16.769 7.7904-7.4306 7.9785-8.0241 21.187-1.3881 29.822 5.8717 0.89001 11.021 5.2057 12.986 10.801 2.9261 7.5762-0.75255 16.884-8.0574 20.428-7.1344 3.8806-16.848 1.4372-21.296-5.3564-0.10451-0.15159-0.20657-0.30463-0.30885-0.4577 3.3204 5.4065 8.9163 9.3489 15.133 10.629 10.625 2.4463 22.36-3.6444 26.521-13.709-2.165-5.5299-1.0019-12.147 2.8614-16.646 5.0972-6.3219 14.998-7.7912 21.719-3.2362 6.9277 4.2376 9.6684 13.871 6.0086 21.121-0.0793 0.16647-0.16008 0.33188-0.2418 0.49722 3.0225-5.5784 3.6384-12.396 1.6382-18.421-3.193-10.425-14.335-17.543-25.131-16.113-1.563 1.9564-3.5904 3.4949-5.8482 4.5403-0.07868 0.03677-0.15706 0.07382-0.23634 0.10937-0.01832 9e-3 -0.03555 0.01524-0.05318 0.02431-1.1486 0.51132-2.3662 0.89584-3.6345 1.1368-0.01214 0.0022-0.02431 0.0061-0.03798 0.0061-0.12182 0.02431-0.24424 0.04436-0.36718 0.06441-1.8717 0.31496-3.7957 0.31556-5.6699-0.03677-3.0735-0.48045-5.8804-1.9293-8.1438-3.9863-0.10116-0.09085-0.20019-0.18409-0.29922-0.27735-0.05165-0.04922-0.10389-0.09813-0.15492-0.14825-1.3652-1.3185-2.5056-2.8669-3.3575-4.5852-0.08506-0.1689-0.16678-0.33944-0.24636-0.51104-0.0031-9e-3 -9e-3 -0.01832-0.01214-0.02734-1.0951-2.3762-1.6387-5.0014-1.4472-7.6561 0.07776-3.0501 1.1105-5.969 2.7993-8.4492 0.96994-1.4433 2.1622-2.723 3.5244-3.7975 0.01833-0.01524 0.03677-0.03039 0.05529-0.04343 0.14461-0.11301 0.29011-0.2248 0.43853-0.33303 0.14308-0.10602 0.28859-0.2084 0.43507-0.30961 0.02734-0.01832 0.0556-0.03919 0.08415-0.05831 2.3395-1.5985 5.0715-2.6115 7.9488-2.7732 1.83e-4 -3e-5 5.79e-4 2.9e-5 7.6e-4 0 0.05467-0.0031 0.10937-9e-3 0.16435-0.01214 0.12789-9e-3 0.25578-0.0181 0.38367-0.02734z" fill="#fff" stroke-width=".2084"/>
</svg>
