<?xml version="1.0" encoding="UTF-8" standalone="no"?>
<svg
   width="128"
   height="128"
   version="1.1"
   viewBox="0 0 128 128"
   id="svg5"
   sodipodi:docname="obsidian.svg"
   inkscape:version="1.4.3 (0d15f75042, 2025-12-25)"
   inkscape:export-filename="obsidian.svg"
   inkscape:export-xdpi="96"
   inkscape:export-ydpi="96"
   xmlns:inkscape="http://www.inkscape.org/namespaces/inkscape"
   xmlns:sodipodi="http://sodipodi.sourceforge.net/DTD/sodipodi-0.dtd"
   xmlns="http://www.w3.org/2000/svg"
   xmlns:svg="http://www.w3.org/2000/svg">
  <sodipodi:namedview
     id="namedview5"
     pagecolor="#ffffff"
     bordercolor="#000000"
     borderopacity="0.25"
     inkscape:showpageshadow="2"
     inkscape:pageopacity="0.0"
     inkscape:pagecheckerboard="0"
     inkscape:deskcolor="#d1d1d1"
     inkscape:zoom="7.328125"
     inkscape:cx="64"
     inkscape:cy="64"
     inkscape:window-width="1920"
     inkscape:window-height="1168"
     inkscape:window-x="0"
     inkscape:window-y="0"
     inkscape:window-maximized="1"
     inkscape:current-layer="svg5" />
  <defs
     id="defs4">
    <linearGradient
       id="linearGradient4546"
       x1="68.619"
       x2="68.619"
       y1="7.4113"
       y2="123.62"
       gradientUnits="userSpaceOnUse">
      <stop
         stop-color="#cfe6ec"
         offset="0"
         id="stop1"
         style="stop-color:#5d0f7e;stop-opacity:1;" />
      <stop
         stop-color="#747472"
         offset="1"
         id="stop2"
         style="stop-color:#150a51;stop-opacity:1;" />
    </linearGradient>
    <linearGradient
       id="linearGradient4159"
       x1="68.619"
       x2="68.619"
       y1="123.62"
       y2="7.4113"
       gradientTransform="matrix(.95244 0 0 .95244 3.0728 3.051)"
       gradientUnits="userSpaceOnUse">
      <stop
         stop-color="#181818"
         offset="0"
         id="stop3"
         style="stop-color:#160a31;stop-opacity:1;" />
      <stop
         stop-color="#181818"
         offset="1"
         id="stop4"
         style="stop-color:#2e0f7e;stop-opacity:1;" />
    </linearGradient>
    <radialGradient
       id="g"
       cx="0"
       cy="0"
       r="1"
       gradientTransform="matrix(-4.7269,-18.541,12.113,-3.207,24.372,49.54)"
       gradientUnits="userSpaceOnUse">
      <stop
         offset="0"
         stop-color="#fff"
         stop-opacity=".4"
         id="stop7" />
      <stop
         offset="1"
         stop-opacity=".1"
         id="stop8" />
    </radialGradient>
    <radialGradient
       id="h"
       cx="0"
       cy="0"
       r="1"
       gradientTransform="matrix(4.0376,-31.068,22.551,3.0066,40.384,41.683)"
       gradientUnits="userSpaceOnUse">
      <stop
         offset="0"
         stop-color="#fff"
         stop-opacity=".6"
         id="stop9" />
      <stop
         offset="1"
         stop-color="#fff"
         stop-opacity=".1"
         id="stop10" />
    </radialGradient>
    <radialGradient
       id="i"
       cx="0"
       cy="0"
       r="1"
       gradientTransform="matrix(5.6132,-26.157,17.529,3.9086,25.504,36.17)"
       gradientUnits="userSpaceOnUse">
      <stop
         offset="0"
         stop-color="#fff"
         stop-opacity=".8"
         id="stop11" />
      <stop
         offset="1"
         stop-color="#fff"
         stop-opacity=".4"
         id="stop12" />
    </radialGradient>
    <radialGradient
       id="j"
       cx="0"
       cy="0"
       r="1"
       gradientTransform="matrix(-7.7798,-13.329,15.067,-9.0198,38.395,52.997)"
       gradientUnits="userSpaceOnUse">
      <stop
         offset="0"
         stop-color="#fff"
         stop-opacity=".3"
         id="stop13" />
      <stop
         offset="1"
         stop-opacity=".3"
         id="stop14" />
    </radialGradient>
    <radialGradient
       id="k"
       cx="0"
       cy="0"
       r="1"
       gradientTransform="matrix(-2.8559,13.63,-9.06,-2.0044,36.357,21.498)"
       gradientUnits="userSpaceOnUse">
      <stop
         offset="0"
         stop-color="#fff"
         stop-opacity="0"
         id="stop15" />
      <stop
         offset="1"
         stop-color="#fff"
         stop-opacity=".2"
         id="stop16" />
    </radialGradient>
    <radialGradient
       id="l"
       cx="0"
       cy="0"
       r="1"
       gradientTransform="matrix(7.0904,7.3161,-15.264,15.334,20.314,29.045)"
       gradientUnits="userSpaceOnUse">
      <stop
         offset="0"
         stop-color="#fff"
         stop-opacity=".2"
         id="stop17" />
      <stop
         offset="1"
         stop-color="#fff"
         stop-opacity=".4"
         id="stop18" />
    </radialGradient>
    <radialGradient
       id="m"
       cx="0"
       cy="0"
       r="1"
       gradientTransform="matrix(1.9696,11.826,-24.718,4.3095,27.927,33.906)"
       gradientUnits="userSpaceOnUse">
      <stop
         offset="0"
         stop-color="#fff"
         stop-opacity=".1"
         id="stop19" />
      <stop
         offset="1"
         stop-color="#fff"
         stop-opacity=".3"
         id="stop20" />
    </radialGradient>
    <radialGradient
       id="n"
       cx="0"
       cy="0"
       r="1"
       gradientTransform="matrix(-15.953,-8.5187,26.392,-51.112,43.614,43.727)"
       gradientUnits="userSpaceOnUse">
      <stop
         offset="0"
         stop-color="#fff"
         stop-opacity=".2"
         id="stop21" />
      <stop
         offset=".5"
         stop-color="#fff"
         stop-opacity=".2"
         id="stop22" />
      <stop
         offset="1"
         stop-color="#fff"
         stop-opacity=".3"
         id="stop23" />
    </radialGradient>
    <radialGradient
       id="radialGradient2"
       cx="0"
       cy="0"
       r="1"
       gradientTransform="matrix(-4.7269,-18.541,12.113,-3.207,24.372,49.54)"
       gradientUnits="userSpaceOnUse">
      <stop
         offset="0"
         stop-color="#fff"
         stop-opacity=".4"
         id="stop1-3" />
      <stop
         offset="1"
         stop-opacity=".1"
         id="stop2-6" />
    </radialGradient>
    <radialGradient
       id="radialGradient4"
       cx="0"
       cy="0"
       r="1"
       gradientTransform="matrix(4.0376,-31.068,22.551,3.0066,40.384,41.683)"
       gradientUnits="userSpaceOnUse">
      <stop
         offset="0"
         stop-color="#fff"
         stop-opacity=".6"
         id="stop3-7" />
      <stop
         offset="1"
         stop-color="#fff"
         stop-opacity=".1"
         id="stop4-5" />
    </radialGradient>
    <radialGradient
       id="radialGradient6"
       cx="0"
       cy="0"
       r="1"
       gradientTransform="matrix(5.6132,-26.157,17.529,3.9086,25.504,36.17)"
       gradientUnits="userSpaceOnUse">
      <stop
         offset="0"
         stop-color="#fff"
         stop-opacity=".8"
         id="stop5" />
      <stop
         offset="1"
         stop-color="#fff"
         stop-opacity=".4"
         id="stop6" />
    </radialGradient>
    <radialGradient
       id="radialGradient25"
       cx="0"
       cy="0"
       r="1"
       gradientTransform="matrix(-7.7798,-13.329,15.067,-9.0198,38.395,52.997)"
       gradientUnits="userSpaceOnUse">
      <stop
         offset="0"
         stop-color="#fff"
         stop-opacity=".3"
         id="stop24" />
      <stop
         offset="1"
         stop-opacity=".3"
         id="stop25" />
    </radialGradient>
    <radialGradient
       id="radialGradient27"
       cx="0"
       cy="0"
       r="1"
       gradientTransform="matrix(-2.8559,13.63,-9.06,-2.0044,36.357,21.498)"
       gradientUnits="userSpaceOnUse">
      <stop
         offset="0"
         stop-color="#fff"
         stop-opacity="0"
         id="stop26" />
      <stop
         offset="1"
         stop-color="#fff"
         stop-opacity=".2"
         id="stop27" />
    </radialGradient>
    <radialGradient
       id="radialGradient29"
       cx="0"
       cy="0"
       r="1"
       gradientTransform="matrix(7.0904,7.3161,-15.264,15.334,20.314,29.045)"
       gradientUnits="userSpaceOnUse">
      <stop
         offset="0"
         stop-color="#fff"
         stop-opacity=".2"
         id="stop28" />
      <stop
         offset="1"
         stop-color="#fff"
         stop-opacity=".4"
         id="stop29" />
    </radialGradient>
    <radialGradient
       id="radialGradient31"
       cx="0"
       cy="0"
       r="1"
       gradientTransform="matrix(1.9696,11.826,-24.718,4.3095,27.927,33.906)"
       gradientUnits="userSpaceOnUse">
      <stop
         offset="0"
         stop-color="#fff"
         stop-opacity=".1"
         id="stop30" />
      <stop
         offset="1"
         stop-color="#fff"
         stop-opacity=".3"
         id="stop31" />
    </radialGradient>
    <radialGradient
       id="radialGradient34"
       cx="0"
       cy="0"
       r="1"
       gradientTransform="matrix(-15.953,-8.5187,26.392,-51.112,43.614,43.727)"
       gradientUnits="userSpaceOnUse">
      <stop
         offset="0"
         stop-color="#fff"
         stop-opacity=".2"
         id="stop32" />
      <stop
         offset=".5"
         stop-color="#fff"
         stop-opacity=".2"
         id="stop33" />
      <stop
         offset="1"
         stop-color="#fff"
         stop-opacity=".3"
         id="stop34" />
    </radialGradient>
  </defs>
  <path
     d="m64.613 1.4883c-34.585 1e-7 -62.682 28.098-62.682 62.684s28.096 62.682 62.682 62.682c34.585 0 62.684-28.096 62.684-62.682-1e-5 -34.585-28.098-62.684-62.684-62.684z"
     color="#000000"
     color-rendering="auto"
     fill="url(#linearGradient4546)"
     image-rendering="auto"
     shape-rendering="auto"
     solid-color="#000000"
     style="block-progression:tb;isolation:auto;mix-blend-mode:normal;text-decoration-color:#000000;text-decoration-line:none;text-decoration-style:solid;text-indent:0;text-transform:none;white-space:normal"
     id="path4" />
  <circle
     cx="64.614"
     cy="64.171"
     r="57.029"
     fill="url(#linearGradient4159)"
     id="circle4" />
  <g
     fill="#000000"
     id="g23"
     style="-webkit-print-color-adjust:exact"
     transform="matrix(1.7561953,0,0,1.7561953,7.8002804,7.8014858)">
    <path
       fill="#6c31e3"
       d="m 42.187,50.002 c -0.256,1.914 -2.098,3.408 -3.94,2.897 -2.599,-0.732 -5.613,-1.874 -8.341,-2.085 l -4.165,-0.321 a 2.72,2.72 0 0 1 -1.773,-0.842 l -7.189,-7.516 a 2.83,2.83 0 0 1 -0.532,-3.107 c 0,0 4.442,-9.922 4.609,-10.443 0.168,-0.512 0.768,-5.012 1.123,-7.437 0.097,-0.642 0.41,-1.23 0.886,-1.664 l 8.489,-7.767 a 2.73,2.73 0 0 1 2.073,-0.703 2.75,2.75 0 0 1 1.925,1.054 l 7.14,9.22 c 0.399,0.525 0.614,1.171 0.61,1.834 0,1.744 0.148,5.332 1.094,7.647 a 30.5,30.5 0 0 0 3.505,5.863 c 0.35,0.453 0.393,1.076 0.109,1.574 a 125,125 0 0 1 -3.614,5.803 14.5,14.5 0 0 0 -2.009,5.993"
       class="fills"
       id="path7" />
    <defs
       id="defs8">
      <radialGradient
         id="radialGradient36"
         cx="0"
         cy="0"
         r="1"
         gradientTransform="matrix(-4.7269,-18.541,12.113,-3.207,24.372,49.54)"
         gradientUnits="userSpaceOnUse">
        <stop
           offset="0"
           stop-color="#fff"
           stop-opacity=".4"
           id="stop35" />
        <stop
           offset="1"
           stop-opacity=".1"
           id="stop36" />
      </radialGradient>
    </defs>
    <path
       fill="url(#g)"
       d="m 24.736,50.213 c 3.339,-6.886 3.25,-11.827 1.822,-15.334 -1.3,-3.248 -3.732,-5.292 -5.643,-6.565 a 2.5,2.5 0 0 1 -0.177,0.541 l -4.491,10.173 a 2.835,2.835 0 0 0 0.542,3.107 l 7.179,7.516 c 0.227,0.231 0.492,0.421 0.768,0.562"
       class="fills"
       id="path8"
       style="fill:url(#g)" />
    <defs
       id="defs10">
      <radialGradient
         id="radialGradient38"
         cx="0"
         cy="0"
         r="1"
         gradientTransform="matrix(4.0376,-31.068,22.551,3.0066,40.384,41.683)"
         gradientUnits="userSpaceOnUse">
        <stop
           offset="0"
           stop-color="#fff"
           stop-opacity=".6"
           id="stop37" />
        <stop
           offset="1"
           stop-color="#fff"
           stop-opacity=".1"
           id="stop38" />
      </radialGradient>
    </defs>
    <path
       fill="url(#h)"
       d="m 33.816,36.242 c 0.896,0.09 1.773,0.29 2.639,0.611 2.738,1.042 5.229,3.387 7.288,7.908 0.147,-0.261 0.295,-0.512 0.453,-0.752 q 1.886,-2.85 3.614,-5.803 a 1.42,1.42 0 0 0 -0.099,-1.574 30.4,30.4 0 0 1 -3.515,-5.863 c -0.946,-2.305 -1.084,-5.903 -1.094,-7.647 0,-0.661 -0.206,-1.313 -0.61,-1.834 l -7.14,-9.22 -0.118,-0.151 c 0.522,1.754 0.492,3.157 0.167,4.43 -0.295,1.183 -0.846,2.255 -1.427,3.388 a 35,35 0 0 0 -0.582,1.172 14.2,14.2 0 0 0 -1.555,5.813 c -0.099,2.426 0.384,5.463 1.979,9.522"
       class="fills"
       id="path10"
       style="fill:url(#h)" />
    <defs
       id="defs12">
      <radialGradient
         id="radialGradient40"
         cx="0"
         cy="0"
         r="1"
         gradientTransform="matrix(5.6132,-26.157,17.529,3.9086,25.504,36.17)"
         gradientUnits="userSpaceOnUse">
        <stop
           offset="0"
           stop-color="#fff"
           stop-opacity=".8"
           id="stop39" />
        <stop
           offset="1"
           stop-color="#fff"
           stop-opacity=".4"
           id="stop40" />
      </radialGradient>
    </defs>
    <path
       fill="url(#i)"
       d="m 33.806,36.242 c -1.585,-4.059 -2.068,-7.096 -1.969,-9.522 0.098,-2.405 0.787,-4.209 1.555,-5.813 l 0.591,-1.172 c 0.572,-1.133 1.113,-2.205 1.418,-3.388 0.363,-1.462 0.305,-3 -0.167,-4.43 a 2.724,2.724 0 0 0 -3.88,-0.2 l -8.489,7.767 a 2.82,2.82 0 0 0 -0.886,1.664 l -1.034,6.975 c 0,0.071 -0.02,0.131 -0.03,0.201 1.911,1.263 4.333,3.307 5.643,6.545 0.256,0.641 0.473,1.312 0.63,2.044 a 19.1,19.1 0 0 1 6.618,-0.671"
       class="fills"
       id="path12"
       style="fill:url(#i)" />
    <defs
       id="defs14">
      <radialGradient
         id="radialGradient42"
         cx="0"
         cy="0"
         r="1"
         gradientTransform="matrix(-7.7798,-13.329,15.067,-9.0198,38.395,52.997)"
         gradientUnits="userSpaceOnUse">
        <stop
           offset="0"
           stop-color="#fff"
           stop-opacity=".3"
           id="stop41" />
        <stop
           offset="1"
           stop-opacity=".3"
           id="stop42" />
      </radialGradient>
    </defs>
    <path
       fill="url(#j)"
       d="m 38.257,52.899 c 1.832,0.511 3.674,-0.983 3.93,-2.907 a 15.5,15.5 0 0 1 1.565,-5.231 c -2.068,-4.521 -4.559,-6.866 -7.287,-7.908 -2.905,-1.103 -6.066,-0.732 -9.277,0.06 0.719,3.317 0.296,7.657 -2.442,13.3 0.305,0.16 0.65,0.25 0.995,0.28 l 4.323,0.331 c 2.344,0.17 5.84,1.403 8.193,2.075"
       class="fills"
       id="path14"
       style="fill:url(#j)" />
    <defs
       id="defs16">
      <radialGradient
         id="radialGradient44"
         cx="0"
         cy="0"
         r="1"
         gradientTransform="matrix(-2.8559,13.63,-9.06,-2.0044,36.357,21.498)"
         gradientUnits="userSpaceOnUse">
        <stop
           offset="0"
           stop-color="#fff"
           stop-opacity="0"
           id="stop43" />
        <stop
           offset="1"
           stop-color="#fff"
           stop-opacity=".2"
           id="stop44" />
      </radialGradient>
    </defs>
    <path
       fill="url(#k)"
       fill-rule="evenodd"
       d="m 31.856,26.57 c -0.108,2.405 0.187,5.152 1.773,9.201 L 33.136,35.72 c -1.427,-4.219 -1.743,-6.384 -1.634,-8.819 0.098,-2.436 0.876,-4.31 1.644,-5.913 0.197,-0.401 0.65,-1.153 0.847,-1.534 0.571,-1.132 0.955,-1.724 1.28,-2.756 0.473,-1.443 0.375,-2.125 0.316,-2.806 0.364,2.455 -1.025,4.59 -2.068,6.765 a 14.55,14.55 0 0 0 -1.665,5.913"
       class="fills"
       clip-rule="evenodd"
       id="path16"
       style="fill:url(#k)" />
    <defs
       id="defs18">
      <radialGradient
         id="radialGradient46"
         cx="0"
         cy="0"
         r="1"
         gradientTransform="matrix(7.0904,7.3161,-15.264,15.334,20.314,29.045)"
         gradientUnits="userSpaceOnUse">
        <stop
           offset="0"
           stop-color="#fff"
           stop-opacity=".2"
           id="stop45" />
        <stop
           offset="1"
           stop-color="#fff"
           stop-opacity=".4"
           id="stop46" />
      </radialGradient>
    </defs>
    <path
       fill="url(#l)"
       fill-rule="evenodd"
       d="m 27.031,35.049 c 0.197,0.441 0.364,0.802 0.482,1.353 l -0.423,0.1 C 26.922,35.861 26.794,35.4 26.548,34.848 25.11,31.411 22.806,29.637 20.935,28.334 c 2.265,1.243 4.599,3.197 6.096,6.715"
       class="fills"
       clip-rule="evenodd"
       id="path18"
       style="fill:url(#l)" />
    <defs
       id="defs20">
      <radialGradient
         id="radialGradient48"
         cx="0"
         cy="0"
         r="1"
         gradientTransform="matrix(1.9696,11.826,-24.718,4.3095,27.927,33.906)"
         gradientUnits="userSpaceOnUse">
        <stop
           offset="0"
           stop-color="#fff"
           stop-opacity=".1"
           id="stop47" />
        <stop
           offset="1"
           stop-color="#fff"
           stop-opacity=".3"
           id="stop48" />
      </radialGradient>
    </defs>
    <path
       fill="url(#m)"
       fill-rule="evenodd"
       d="m 27.533,36.843 c 0.788,3.758 -0.098,8.539 -2.708,13.189 2.186,-4.61 3.25,-9.03 2.363,-13.129 z"
       class="fills"
       clip-rule="evenodd"
       id="path20"
       style="fill:url(#m)" />
    <defs
       id="defs23">
      <radialGradient
         id="radialGradient51"
         cx="0"
         cy="0"
         r="1"
         gradientTransform="matrix(-15.953,-8.5187,26.392,-51.112,43.614,43.727)"
         gradientUnits="userSpaceOnUse">
        <stop
           offset="0"
           stop-color="#fff"
           stop-opacity=".2"
           id="stop49" />
        <stop
           offset=".5"
           stop-color="#fff"
           stop-opacity=".2"
           id="stop50" />
        <stop
           offset="1"
           stop-color="#fff"
           stop-opacity=".3"
           id="stop51" />
      </radialGradient>
    </defs>
    <path
       fill="url(#n)"
       fill-rule="evenodd"
       d="m 36.554,36.492 c 4.283,1.634 5.938,5.212 7.169,8.208 -1.527,-3.127 -3.644,-6.584 -7.327,-7.867 -2.797,-0.982 -5.16,-0.862 -9.208,0.07 L 27.1,36.502 c 4.293,-1.002 6.539,-1.122 9.454,-0.01"
       class="fills"
       clip-rule="evenodd"
       id="path23"
       style="fill:url(#n)" />
  </g>
</svg>
