<svg width="128" height="128" version="1.1" viewBox="0 0 33.867 33.867" xmlns="http://www.w3.org/2000/svg" xmlns:xlink="http://www.w3.org/1999/xlink">
<defs>
<radialGradient id="radialGradient1161" cx="16.974" cy="2.3754" r="14.544" gradientTransform="matrix(7.3382 0 0 1.9256 -107.59 -2.1987)" gradientUnits="userSpaceOnUse">
<stop stop-color="#cd6b00" offset="0"/>
<stop stop-color="#6e2e17" offset="1"/>
</radialGradient>
<linearGradient id="linearGradient1142" x1="6.3271" x2="6.3271" y1="13.033" y2="60.054" gradientUnits="userSpaceOnUse">
<stop stop-color="#fff" offset="0"/>
<stop stop-color="#3f1608" offset="1"/>
</linearGradient>
</defs>
<g transform="matrix(.97573 0 0 .97573 -65.714 -37.237)" fill="none" opacity=".295" stroke="#000" stroke-linecap="round" stroke-linejoin="round" stroke-opacity=".02">
<rect x="69.84" y="40.71" width="29.811" height="29.811" rx="6.6099" ry="6.6099" stroke-width=".1"/>
<rect x="69.84" y="40.71" width="29.811" height="29.811" rx="6.6099" ry="6.6099" stroke-width=".2"/>
<rect x="69.84" y="40.71" width="29.811" height="29.811" rx="6.6099" ry="6.6099" stroke-width=".3"/>
<rect x="69.84" y="40.71" width="29.811" height="29.811" rx="6.6099" ry="6.6099" stroke-width=".4"/>
<rect x="69.84" y="40.71" width="29.811" height="29.811" rx="6.6099" ry="6.6099" stroke-width=".5"/>
<rect x="69.84" y="40.71" width="29.811" height="29.811" rx="6.6099" ry="6.6099" stroke-width=".6"/>
<rect x="69.84" y="40.71" width="29.811" height="29.811" rx="6.6099" ry="6.6099" stroke-width=".7"/>
<rect x="69.84" y="40.71" width="29.811" height="29.811" rx="6.6099" ry="6.6099" stroke-width=".8"/>
<rect x="69.84" y="40.71" width="29.811" height="29.811" rx="6.6099" ry="6.6099"/>
<rect x="69.84" y="40.71" width="29.811" height="29.811" rx="6.6099" ry="6.6099" stroke-width="1.2"/>
<rect x="69.84" y="40.71" width="29.811" height="29.811" rx="6.6099" ry="6.6099" stroke-width="1.4"/>
<rect x="69.84" y="40.71" width="29.811" height="29.811" rx="6.6099" ry="6.6099" stroke-width="1.6"/>
<rect x="69.84" y="40.71" width="29.811" height="29.811" rx="6.6099" ry="6.6099" stroke-width="1.8"/>
<rect x="69.84" y="40.71" width="29.811" height="29.811" rx="6.6099" ry="6.6099" stroke-width="2"/>
<rect x="69.84" y="40.71" width="29.811" height="29.811" rx="6.6099" ry="6.6099" stroke-width="2.2"/>
<rect x="69.84" y="40.71" width="29.811" height="29.811" rx="6.6099" ry="6.6099" stroke-width="2.6"/>
<rect x="69.84" y="40.71" width="29.811" height="29.811" rx="6.6099" ry="6.6099" stroke-width="3"/>
<rect x="69.84" y="40.71" width="29.811" height="29.811" rx="6.6099" ry="6.6099" stroke-width="3.4"/>
<rect x="69.84" y="40.71" width="29.811" height="29.811" rx="6.6099" ry="6.6099" stroke-width="3.8"/>
<rect x="69.84" y="40.71" width="29.811" height="29.811" rx="6.6099" ry="6.6099" stroke-width="4.2"/>
<rect x="69.84" y="40.71" width="29.811" height="29.811" rx="6.6099" ry="6.6099" stroke-width="4.6"/>
<rect x="69.84" y="40.71" width="29.811" height="29.811" rx="6.6099" ry="6.6099" stroke-width="5"/>
</g>
<rect x="2.4305" y="2.4846" width="29.087" height="29.087" rx="6.4495" ry="6.4495" fill="url(#radialGradient1161)" stroke-linecap="round" stroke-linejoin="round" stroke-width="2.6877"/>
<g fill="#1b0700" fill-opacity=".075299" opacity=".8141" stroke-width=".52141">
<path d="m16.657 9.4594c-0.21302-0.018919-0.3972 0.4336-0.85137 1.4787-0.32754 0.75371-0.74554 1.7913-0.92877 2.3077l-0.33403 0.93895-0.68232 0.86359c-0.37574 0.4747-1.0259 1.356-1.4441 1.9573-0.41822 0.60132-0.76464 1.1003-0.77194 1.11-0.0073 0.0099-0.08913-0.05747-0.18126-0.15072-0.13328-0.13493-0.19644-0.16905-0.30755-0.16905-0.17959 0-0.2089 0.03384-0.50919 0.63547l-0.24848 0.50104-0.21182-0.24849c-0.20196-0.23389-0.22082-0.24585-0.37477-0.23423l-0.16091 0.01419-1.5826 1.9431c-0.90424 1.1111-1.6151 2.0196-1.66 2.1223-0.10953 0.25092-0.08941 0.3241 0.12017 0.41143 0.16913 0.07049 0.61248 0.07321 10.41 0.07536 7.1496 0.0015 10.241-0.01084 10.259-0.04073 0.01419-0.02353-0.03914-0.19732-0.11812-0.38699-0.13243-0.31802-0.22915-0.45063-1.2608-1.7007-0.84454-1.0234-1.2121-1.5019-1.495-1.9512-0.20608-0.32738-0.41889-0.64552-0.47457-0.70676-0.15527-0.1708-0.30885-0.15259-0.54586 0.06722l-0.19553 0.18126-0.554-0.57641-0.554-0.57233-0.79027-1.3769c-0.4335-0.75722-0.82031-1.4136-0.86156-1.4563-0.1155-0.11952-0.28122-0.09605-0.4766 0.06517-0.09438 0.0779-0.22653 0.18079-0.29329 0.22812l-0.1222 0.08555-0.33403-0.47253-0.33403-0.4766-0.40124-1.3565c-0.22086-0.7461-0.43217-1.3894-0.47049-1.4339-0.03835-0.04456-0.29387-0.42243-0.56622-0.83711-0.34429-0.5242-0.52682-0.82437-0.6925-0.83915zm0.13239 6.257c0.22704 5.6e-5 0.45569 0.0089 0.53465 0.02749 0.01123 0.0028 0.01971 0.0049 0.02444 0.0081 0.04221 0.02668 0.06314 0.13087 0.07333 0.3544l0.01537 0.31468 0.26886 0.1049c0.14865 0.05808 0.28856 0.10388 0.30857 0.10388 0.02004 1.8e-5 0.11499-0.07851 0.21182-0.1772 0.23154-0.23593 0.35473-0.2408 0.6202-0.02138 0.20884 0.17261 0.43798 0.44268 0.47559 0.56113 0.03112 0.09804-0.03535 0.22022-0.22608 0.41856l-0.1558 0.16294 0.09777 0.21692c0.05274 0.11915 0.10504 0.24511 0.11712 0.28107 0.01734 0.05171 0.08945 0.06986 0.34523 0.08147 0.231 0.01044 0.33371 0.0309 0.36051 0.07333 0.02071 0.03269 0.03869 0.28496 0.03871 0.5591 1.2e-5 0.27413-0.01813 0.52335-0.03871 0.55604-0.02674 0.04229-0.1305 0.06403-0.35745 0.07433l-0.31876 0.01537-0.06111 0.18534c-0.03466 0.1019-0.08783 0.22735-0.11812 0.28209-0.05244 0.09479-0.0468 0.11328 0.15886 0.32894 0.28782 0.30178 0.28643 0.37851-0.03157 0.75666-0.19264 0.22908-0.42144 0.39107-0.54993 0.39106-0.06356-2e-6 -0.1723-0.07609-0.32079-0.22303l-0.22608-0.22303-0.15275 0.07841c-0.08511 0.0428-0.22136 0.09936-0.30144 0.12526l-0.14664 0.04684-0.0132 0.35949c-0.01025 0.26393-0.02932 0.36733-0.07333 0.39513-0.03289 0.02075-0.285 0.03872-0.55909 0.0387-0.2741-1.9e-5 -0.52315-0.01793-0.55604-0.0387-0.04414-0.02787-0.06497-0.13231-0.07536-0.40022-0.01143-0.29363-0.02631-0.3671-0.07944-0.38495-0.03614-0.01222-0.16272-0.06677-0.28108-0.11915l-0.21488-0.09268-0.22506 0.21386c-0.12356 0.11789-0.26208 0.22627-0.30959 0.24136-0.14617 0.04639-0.42623-0.14688-0.70676-0.48882-0.21382-0.26064-0.19677-0.37144 0.09574-0.66093l0.23626-0.23525-0.07128-0.14258c-0.03955-0.07877-0.09528-0.21014-0.1212-0.29024l-0.04481-0.14461-0.35949-0.01419c-0.2639-0.01025-0.36936-0.0293-0.39717-0.07333-0.02075-0.03289-0.03665-0.28292-0.03665-0.55706-1.2e-5 -0.27414 0.01793-0.52824 0.03871-0.56113 0.02787-0.04412 0.13235-0.06093 0.40022-0.07128 0.29358-0.01123 0.36507-0.02631 0.38291-0.07944 0.01202-0.03614 0.06838-0.16485 0.1212-0.28413l0.09471-0.21692-0.21997-0.22303c-0.14518-0.14674-0.21997-0.25632-0.21997-0.31977-6e-6 -0.12851 0.15998-0.35523 0.38902-0.54789 0.37892-0.31872 0.45739-0.32189 0.76277-0.03055 0.12636 0.12055 0.24108 0.20905 0.25358 0.19656 0.01242-0.01261 0.12547-0.06515 0.25358-0.11712l0.23219-0.09471 0.02241-0.32385c0.01478-0.22167 0.03955-0.33428 0.07944-0.35949 0.03825-0.02432 0.2966-0.03683 0.55604-0.03665zm-0.01833 2.0857a1.0428 1.0428 0 0 0-1.0428 1.0428 1.0428 1.0428 0 0 0 1.0428 1.0428 1.0428 1.0428 0 0 0 1.0428-1.0428 1.0428 1.0428 0 0 0-1.0428-1.0428z"/>
<path d="m16.702 9.755c-0.21302-0.018919-0.3972 0.4336-0.85137 1.4787-0.32754 0.75371-0.74554 1.7913-0.92877 2.3077l-0.33403 0.93895-0.68232 0.86359c-0.37574 0.4747-1.0259 1.356-1.4441 1.9573-0.41822 0.60132-0.76464 1.1003-0.77194 1.11-0.0073 0.0099-0.08913-0.05747-0.18126-0.15072-0.13328-0.13493-0.19644-0.16905-0.30755-0.16905-0.17959 0-0.2089 0.03384-0.50919 0.63547l-0.24848 0.50104-0.21182-0.24849c-0.20196-0.23389-0.22082-0.24585-0.37477-0.23423l-0.16091 0.01419-1.5826 1.9431c-0.90424 1.1111-1.6151 2.0196-1.66 2.1223-0.10953 0.25092-0.08941 0.3241 0.12017 0.41143 0.16913 0.07049 0.61248 0.07321 10.41 0.07536 7.1496 0.0015 10.241-0.01084 10.259-0.04073 0.01419-0.02353-0.03914-0.19732-0.11812-0.38699-0.13243-0.31802-0.22915-0.45063-1.2608-1.7007-0.84454-1.0234-1.2121-1.5019-1.495-1.9512-0.20608-0.32738-0.41889-0.64552-0.47457-0.70676-0.15527-0.1708-0.30885-0.15259-0.54586 0.06722l-0.19553 0.18126-0.554-0.57641-0.554-0.57233-0.79027-1.3769c-0.4335-0.75722-0.82031-1.4136-0.86156-1.4563-0.1155-0.11952-0.28122-0.09605-0.4766 0.06517-0.09438 0.0779-0.22653 0.18079-0.29329 0.22812l-0.1222 0.08555-0.33403-0.47253-0.33403-0.4766-0.40124-1.3565c-0.22086-0.7461-0.43217-1.3894-0.47049-1.4339-0.03835-0.04456-0.29387-0.42243-0.56622-0.83711-0.34429-0.5242-0.52682-0.82437-0.6925-0.83915zm0.13239 6.257c0.22704 5.6e-5 0.45569 0.0089 0.53465 0.02749 0.01123 0.0028 0.01971 0.0049 0.02444 0.0081 0.04221 0.02668 0.06314 0.13087 0.07333 0.3544l0.01537 0.31468 0.26886 0.1049c0.14865 0.05808 0.28856 0.10388 0.30857 0.10388 0.02004 1.8e-5 0.11499-0.07851 0.21182-0.1772 0.23154-0.23593 0.35473-0.2408 0.6202-0.02138 0.20884 0.17261 0.43798 0.44268 0.47559 0.56113 0.03112 0.09804-0.03535 0.22022-0.22608 0.41856l-0.1558 0.16294 0.09777 0.21692c0.05274 0.11915 0.10504 0.24511 0.11712 0.28107 0.01734 0.05171 0.08945 0.06986 0.34523 0.08147 0.231 0.01044 0.33371 0.0309 0.36051 0.07333 0.02071 0.03269 0.03869 0.28496 0.03871 0.5591 1.2e-5 0.27413-0.01813 0.52335-0.03871 0.55604-0.02674 0.04229-0.1305 0.06403-0.35745 0.07433l-0.31876 0.01537-0.06111 0.18534c-0.03466 0.1019-0.08783 0.22735-0.11812 0.28209-0.05244 0.09479-0.0468 0.11328 0.15886 0.32894 0.28782 0.30178 0.28643 0.37851-0.03157 0.75666-0.19264 0.22908-0.42144 0.39107-0.54993 0.39106-0.06356-2e-6 -0.1723-0.07609-0.32079-0.22303l-0.22608-0.22303-0.15275 0.07841c-0.08511 0.0428-0.22136 0.09936-0.30144 0.12526l-0.14664 0.04684-0.0132 0.35949c-0.01025 0.26393-0.02932 0.36733-0.07333 0.39513-0.03289 0.02075-0.285 0.03872-0.55909 0.0387-0.2741-1.9e-5 -0.52315-0.01793-0.55604-0.0387-0.04414-0.02787-0.06497-0.13231-0.07536-0.40022-0.01143-0.29363-0.02631-0.3671-0.07944-0.38495-0.03614-0.01222-0.16272-0.06677-0.28108-0.11915l-0.21488-0.09268-0.22506 0.21386c-0.12356 0.11789-0.26208 0.22627-0.30959 0.24136-0.14617 0.04639-0.42623-0.14688-0.70676-0.48882-0.21382-0.26064-0.19677-0.37144 0.09574-0.66093l0.23626-0.23525-0.07128-0.14258c-0.03955-0.07877-0.09528-0.21014-0.1212-0.29024l-0.04481-0.14461-0.35949-0.01419c-0.2639-0.01025-0.36936-0.0293-0.39717-0.07333-0.02075-0.03289-0.03665-0.28292-0.03665-0.55706-1.2e-5 -0.27414 0.01793-0.52824 0.03871-0.56113 0.02787-0.04412 0.13235-0.06093 0.40022-0.07128 0.29358-0.01123 0.36507-0.02631 0.38291-0.07944 0.01202-0.03614 0.06838-0.16485 0.1212-0.28413l0.09471-0.21692-0.21997-0.22303c-0.14518-0.14674-0.21997-0.25632-0.21997-0.31977-6e-6 -0.12851 0.15998-0.35523 0.38902-0.54789 0.37892-0.31872 0.45739-0.32189 0.76277-0.03055 0.12636 0.12055 0.24108 0.20905 0.25358 0.19656 0.01242-0.01261 0.12547-0.06515 0.25358-0.11712l0.23219-0.09471 0.02241-0.32385c0.01478-0.22167 0.03955-0.33428 0.07944-0.35949 0.03825-0.02432 0.2966-0.03683 0.55604-0.03665zm-0.01833 2.0857a1.0428 1.0428 0 0 0-1.0428 1.0428 1.0428 1.0428 0 0 0 1.0428 1.0428 1.0428 1.0428 0 0 0 1.0428-1.0428 1.0428 1.0428 0 0 0-1.0428-1.0428z"/>
<path d="m16.69 10.12c-0.21302-0.01892-0.3972 0.4336-0.85137 1.4787-0.32754 0.75371-0.74554 1.7913-0.92877 2.3077l-0.33403 0.93895-0.68232 0.86359c-0.37574 0.4747-1.0259 1.356-1.4441 1.9573-0.41822 0.60132-0.76464 1.1003-0.77194 1.11-0.0073 0.0099-0.08913-0.05747-0.18126-0.15072-0.13328-0.13493-0.19644-0.16905-0.30755-0.16905-0.17959 0-0.2089 0.03384-0.50919 0.63547l-0.24848 0.50104-0.21182-0.24849c-0.20196-0.23389-0.22082-0.24585-0.37477-0.23423l-0.16091 0.01419-1.5826 1.9431c-0.90424 1.1111-1.6151 2.0196-1.66 2.1223-0.10953 0.25092-0.08941 0.3241 0.12017 0.41143 0.16913 0.07049 0.61248 0.07321 10.41 0.07536 7.1496 0.0015 10.241-0.01084 10.259-0.04073 0.01419-0.02353-0.03914-0.19732-0.11812-0.38699-0.13243-0.31802-0.22915-0.45063-1.2608-1.7007-0.84454-1.0234-1.2121-1.5019-1.495-1.9512-0.20608-0.32738-0.41889-0.64552-0.47457-0.70676-0.15527-0.1708-0.30885-0.15259-0.54586 0.06722l-0.19553 0.18126-0.554-0.57641-0.554-0.57233-0.79027-1.3769c-0.4335-0.75722-0.82031-1.4136-0.86156-1.4563-0.1155-0.11952-0.28122-0.09605-0.4766 0.06517-0.09438 0.0779-0.22653 0.18079-0.29329 0.22812l-0.1222 0.08555-0.33403-0.47253-0.33403-0.4766-0.40124-1.3565c-0.22086-0.7461-0.43217-1.3894-0.47049-1.4339-0.03835-0.04456-0.29387-0.42243-0.56622-0.83711-0.34429-0.5242-0.52682-0.82437-0.6925-0.83915zm0.13239 6.257c0.22704 5.6e-5 0.45569 0.0089 0.53465 0.02749 0.01123 0.0028 0.01971 0.0049 0.02444 0.0081 0.04221 0.02668 0.06314 0.13087 0.07333 0.3544l0.01537 0.31468 0.26886 0.1049c0.14865 0.05808 0.28856 0.10388 0.30857 0.10388 0.02004 1.8e-5 0.11499-0.07851 0.21182-0.1772 0.23154-0.23593 0.35473-0.2408 0.6202-0.02138 0.20884 0.17261 0.43798 0.44268 0.47559 0.56113 0.03112 0.09804-0.03535 0.22022-0.22608 0.41856l-0.1558 0.16294 0.09777 0.21692c0.05274 0.11915 0.10504 0.24511 0.11712 0.28107 0.01734 0.05171 0.08945 0.06986 0.34523 0.08147 0.231 0.01044 0.33371 0.0309 0.36051 0.07333 0.02071 0.03269 0.03869 0.28496 0.03871 0.5591 1.2e-5 0.27413-0.01813 0.52335-0.03871 0.55604-0.02674 0.04229-0.1305 0.06403-0.35745 0.07433l-0.31876 0.01537-0.06111 0.18534c-0.03466 0.1019-0.08783 0.22735-0.11812 0.28209-0.05244 0.09479-0.0468 0.11328 0.15886 0.32894 0.28782 0.30178 0.28643 0.37851-0.03157 0.75666-0.19264 0.22908-0.42144 0.39107-0.54993 0.39106-0.06356-2e-6 -0.1723-0.07609-0.32079-0.22303l-0.22608-0.22303-0.15275 0.07841c-0.08511 0.0428-0.22136 0.09936-0.30144 0.12526l-0.14664 0.04684-0.0132 0.35949c-0.01025 0.26393-0.02932 0.36733-0.07333 0.39513-0.03289 0.02075-0.285 0.03872-0.55909 0.0387-0.2741-1.9e-5 -0.52315-0.01793-0.55604-0.0387-0.04414-0.02787-0.06497-0.13231-0.07536-0.40022-0.01143-0.29363-0.02631-0.3671-0.07944-0.38495-0.03614-0.01222-0.16272-0.06677-0.28108-0.11915l-0.21488-0.09268-0.22506 0.21386c-0.12356 0.11789-0.26208 0.22627-0.30959 0.24136-0.14617 0.04639-0.42623-0.14688-0.70676-0.48882-0.21382-0.26064-0.19677-0.37144 0.09574-0.66093l0.23626-0.23525-0.07128-0.14258c-0.03955-0.07877-0.09528-0.21014-0.1212-0.29024l-0.04481-0.14461-0.35949-0.01419c-0.2639-0.01025-0.36936-0.0293-0.39717-0.07333-0.02075-0.03289-0.03665-0.28292-0.03665-0.55706-1.2e-5 -0.27414 0.01793-0.52824 0.03871-0.56113 0.02787-0.04412 0.13235-0.06093 0.40022-0.07128 0.29358-0.01123 0.36507-0.02631 0.38291-0.07944 0.01202-0.03614 0.06838-0.16485 0.1212-0.28413l0.09471-0.21692-0.21997-0.22303c-0.14518-0.14674-0.21997-0.25632-0.21997-0.31977-6e-6 -0.12851 0.15998-0.35523 0.38902-0.54789 0.37892-0.31872 0.45739-0.32189 0.76277-0.03055 0.12636 0.12055 0.24108 0.20905 0.25358 0.19656 0.01242-0.01261 0.12547-0.06515 0.25358-0.11712l0.23219-0.09471 0.02241-0.32385c0.01478-0.22167 0.03955-0.33428 0.07944-0.35949 0.03825-0.02432 0.2966-0.03683 0.55604-0.03665zm-0.01833 2.0857a1.0428 1.0428 0 0 0-1.0428 1.0428 1.0428 1.0428 0 0 0 1.0428 1.0428 1.0428 1.0428 0 0 0 1.0428-1.0428 1.0428 1.0428 0 0 0-1.0428-1.0428z"/>
<path d="m16.812 10.598c-0.21302-0.01892-0.3972 0.4336-0.85137 1.4787-0.32754 0.75371-0.74554 1.7913-0.92877 2.3077l-0.33403 0.93895-0.68232 0.86359c-0.37574 0.4747-1.0259 1.356-1.4441 1.9573-0.41822 0.60132-0.76464 1.1003-0.77194 1.11-0.0073 0.0099-0.08913-0.05747-0.18126-0.15072-0.13328-0.13493-0.19644-0.16905-0.30755-0.16905-0.17959 0-0.2089 0.03384-0.50919 0.63547l-0.24848 0.50104-0.21182-0.24849c-0.20196-0.23389-0.22082-0.24585-0.37477-0.23423l-0.16091 0.01419-1.5826 1.9431c-0.90424 1.1111-1.6151 2.0196-1.66 2.1223-0.10953 0.25092-0.08941 0.3241 0.12017 0.41143 0.16913 0.07049 0.61248 0.07321 10.41 0.07536 7.1496 0.0015 10.241-0.01084 10.259-0.04073 0.01419-0.02353-0.03914-0.19732-0.11812-0.38699-0.13243-0.31802-0.22915-0.45063-1.2608-1.7007-0.84454-1.0234-1.2121-1.5019-1.495-1.9512-0.20608-0.32738-0.41889-0.64552-0.47457-0.70676-0.15527-0.1708-0.30885-0.15259-0.54586 0.06722l-0.19553 0.18126-0.554-0.57641-0.554-0.57233-0.79027-1.3769c-0.4335-0.75722-0.82031-1.4136-0.86156-1.4563-0.1155-0.11952-0.28122-0.09605-0.4766 0.06517-0.09438 0.0779-0.22653 0.18079-0.29329 0.22812l-0.1222 0.08555-0.33403-0.47253-0.33403-0.4766-0.40124-1.3565c-0.22086-0.7461-0.43217-1.3894-0.47049-1.4339-0.03835-0.04456-0.29387-0.42243-0.56622-0.83711-0.34429-0.5242-0.52682-0.82437-0.6925-0.83915zm0.13239 6.257c0.22704 5.6e-5 0.45569 0.0089 0.53465 0.02749 0.01123 0.0028 0.01971 0.0049 0.02444 0.0081 0.04221 0.02668 0.06314 0.13087 0.07333 0.3544l0.01537 0.31468 0.26886 0.1049c0.14865 0.05808 0.28856 0.10388 0.30857 0.10388 0.02004 1.8e-5 0.11499-0.07851 0.21182-0.1772 0.23154-0.23593 0.35473-0.2408 0.6202-0.02138 0.20884 0.17261 0.43798 0.44268 0.47559 0.56113 0.03112 0.09804-0.03535 0.22022-0.22608 0.41856l-0.1558 0.16294 0.09777 0.21692c0.05274 0.11915 0.10504 0.24511 0.11712 0.28107 0.01734 0.05171 0.08945 0.06986 0.34523 0.08147 0.231 0.01044 0.33371 0.0309 0.36051 0.07333 0.02071 0.03269 0.03869 0.28496 0.03871 0.5591 1.2e-5 0.27413-0.01813 0.52335-0.03871 0.55604-0.02674 0.04229-0.1305 0.06403-0.35745 0.07433l-0.31876 0.01537-0.06111 0.18534c-0.03466 0.1019-0.08783 0.22735-0.11812 0.28209-0.05244 0.09479-0.0468 0.11328 0.15886 0.32894 0.28782 0.30178 0.28643 0.37851-0.03157 0.75666-0.19264 0.22908-0.42144 0.39107-0.54993 0.39106-0.06356-2e-6 -0.1723-0.07609-0.32079-0.22303l-0.22608-0.22303-0.15275 0.07841c-0.08511 0.0428-0.22136 0.09936-0.30144 0.12526l-0.14664 0.04684-0.0132 0.35949c-0.01025 0.26393-0.02932 0.36733-0.07333 0.39513-0.03289 0.02075-0.285 0.03872-0.55909 0.0387-0.2741-1.9e-5 -0.52315-0.01793-0.55604-0.0387-0.04414-0.02787-0.06497-0.13231-0.07536-0.40022-0.01143-0.29363-0.02631-0.3671-0.07944-0.38495-0.03614-0.01222-0.16272-0.06677-0.28108-0.11915l-0.21488-0.09268-0.22506 0.21386c-0.12356 0.11789-0.26208 0.22627-0.30959 0.24136-0.14617 0.04639-0.42623-0.14688-0.70676-0.48882-0.21382-0.26064-0.19677-0.37144 0.09574-0.66093l0.23626-0.23525-0.07128-0.14258c-0.03955-0.07877-0.09528-0.21014-0.1212-0.29024l-0.04481-0.14461-0.35949-0.01419c-0.2639-0.01025-0.36936-0.0293-0.39717-0.07333-0.02075-0.03289-0.03665-0.28292-0.03665-0.55706-1.2e-5 -0.27414 0.01793-0.52824 0.03871-0.56113 0.02787-0.04412 0.13235-0.06093 0.40022-0.07128 0.29358-0.01123 0.36507-0.02631 0.38291-0.07944 0.01202-0.03614 0.06838-0.16485 0.1212-0.28413l0.09471-0.21692-0.21997-0.22303c-0.14518-0.14674-0.21997-0.25632-0.21997-0.31977-6e-6 -0.12851 0.15998-0.35523 0.38902-0.54789 0.37892-0.31872 0.45739-0.32189 0.76277-0.03055 0.12636 0.12055 0.24108 0.20905 0.25358 0.19656 0.01242-0.01261 0.12547-0.06515 0.25358-0.11712l0.23219-0.09471 0.02241-0.32385c0.01478-0.22167 0.03955-0.33428 0.07944-0.35949 0.03825-0.02432 0.2966-0.03683 0.55604-0.03665zm-0.01833 2.0857a1.0428 1.0428 0 0 0-1.0428 1.0428 1.0428 1.0428 0 0 0 1.0428 1.0428 1.0428 1.0428 0 0 0 1.0428-1.0428 1.0428 1.0428 0 0 0-1.0428-1.0428z"/>
<path d="m16.812 10.598c-0.21302-0.01892-0.3972 0.4336-0.85137 1.4787-0.32754 0.75371-0.74554 1.7913-0.92877 2.3077l-0.33403 0.93895-0.68232 0.86359c-0.37574 0.4747-1.0259 1.356-1.4441 1.9573-0.41822 0.60132-0.76464 1.1003-0.77194 1.11-0.0073 0.0099-0.08913-0.05747-0.18126-0.15072-0.13328-0.13493-0.19644-0.16905-0.30755-0.16905-0.17959 0-0.2089 0.03384-0.50919 0.63547l-0.24848 0.50104-0.21182-0.24849c-0.20196-0.23389-0.22082-0.24585-0.37477-0.23423l-0.16091 0.01419-1.5826 1.9431c-0.90424 1.1111-1.6151 2.0196-1.66 2.1223-0.10953 0.25092-0.08941 0.3241 0.12017 0.41143 0.16913 0.07049 0.61248 0.07321 10.41 0.07536 7.1496 0.0015 10.241-0.01084 10.259-0.04073 0.01419-0.02353-0.03914-0.19732-0.11812-0.38699-0.13243-0.31802-0.22915-0.45063-1.2608-1.7007-0.84454-1.0234-1.2121-1.5019-1.495-1.9512-0.20608-0.32738-0.41889-0.64552-0.47457-0.70676-0.15527-0.1708-0.30885-0.15259-0.54586 0.06722l-0.19553 0.18126-0.554-0.57641-0.554-0.57233-0.79027-1.3769c-0.4335-0.75722-0.82031-1.4136-0.86156-1.4563-0.1155-0.11952-0.28122-0.09605-0.4766 0.06517-0.09438 0.0779-0.22653 0.18079-0.29329 0.22812l-0.1222 0.08555-0.33403-0.47253-0.33403-0.4766-0.40124-1.3565c-0.22086-0.7461-0.43217-1.3894-0.47049-1.4339-0.03835-0.04456-0.29387-0.42243-0.56622-0.83711-0.34429-0.5242-0.52682-0.82437-0.6925-0.83915zm0.13239 6.257c0.22704 5.6e-5 0.45569 0.0089 0.53465 0.02749 0.01123 0.0028 0.01971 0.0049 0.02444 0.0081 0.04221 0.02668 0.06314 0.13087 0.07333 0.3544l0.01537 0.31468 0.26886 0.1049c0.14865 0.05808 0.28856 0.10388 0.30857 0.10388 0.02004 1.8e-5 0.11499-0.07851 0.21182-0.1772 0.23154-0.23593 0.35473-0.2408 0.6202-0.02138 0.20884 0.17261 0.43798 0.44268 0.47559 0.56113 0.03112 0.09804-0.03535 0.22022-0.22608 0.41856l-0.1558 0.16294 0.09777 0.21692c0.05274 0.11915 0.10504 0.24511 0.11712 0.28107 0.01734 0.05171 0.08945 0.06986 0.34523 0.08147 0.231 0.01044 0.33371 0.0309 0.36051 0.07333 0.02071 0.03269 0.03869 0.28496 0.03871 0.5591 1.2e-5 0.27413-0.01813 0.52335-0.03871 0.55604-0.02674 0.04229-0.1305 0.06403-0.35745 0.07433l-0.31876 0.01537-0.06111 0.18534c-0.03466 0.1019-0.08783 0.22735-0.11812 0.28209-0.05244 0.09479-0.0468 0.11328 0.15886 0.32894 0.28782 0.30178 0.28643 0.37851-0.03157 0.75666-0.19264 0.22908-0.42144 0.39107-0.54993 0.39106-0.06356-2e-6 -0.1723-0.07609-0.32079-0.22303l-0.22608-0.22303-0.15275 0.07841c-0.08511 0.0428-0.22136 0.09936-0.30144 0.12526l-0.14664 0.04684-0.0132 0.35949c-0.01025 0.26393-0.02932 0.36733-0.07333 0.39513-0.03289 0.02075-0.285 0.03872-0.55909 0.0387-0.2741-1.9e-5 -0.52315-0.01793-0.55604-0.0387-0.04414-0.02787-0.06497-0.13231-0.07536-0.40022-0.01143-0.29363-0.02631-0.3671-0.07944-0.38495-0.03614-0.01222-0.16272-0.06677-0.28108-0.11915l-0.21488-0.09268-0.22506 0.21386c-0.12356 0.11789-0.26208 0.22627-0.30959 0.24136-0.14617 0.04639-0.42623-0.14688-0.70676-0.48882-0.21382-0.26064-0.19677-0.37144 0.09574-0.66093l0.23626-0.23525-0.07128-0.14258c-0.03955-0.07877-0.09528-0.21014-0.1212-0.29024l-0.04481-0.14461-0.35949-0.01419c-0.2639-0.01025-0.36936-0.0293-0.39717-0.07333-0.02075-0.03289-0.03665-0.28292-0.03665-0.55706-1.2e-5 -0.27414 0.01793-0.52824 0.03871-0.56113 0.02787-0.04412 0.13235-0.06093 0.40022-0.07128 0.29358-0.01123 0.36507-0.02631 0.38291-0.07944 0.01202-0.03614 0.06838-0.16485 0.1212-0.28413l0.09471-0.21692-0.21997-0.22303c-0.14518-0.14674-0.21997-0.25632-0.21997-0.31977-6e-6 -0.12851 0.15998-0.35523 0.38902-0.54789 0.37892-0.31872 0.45739-0.32189 0.76277-0.03055 0.12636 0.12055 0.24108 0.20905 0.25358 0.19656 0.01242-0.01261 0.12547-0.06515 0.25358-0.11712l0.23219-0.09471 0.02241-0.32385c0.01478-0.22167 0.03955-0.33428 0.07944-0.35949 0.03825-0.02432 0.2966-0.03683 0.55604-0.03665zm-0.01833 2.0857a1.0428 1.0428 0 0 0-1.0428 1.0428 1.0428 1.0428 0 0 0 1.0428 1.0428 1.0428 1.0428 0 0 0 1.0428-1.0428 1.0428 1.0428 0 0 0-1.0428-1.0428z"/>
</g>
<path d="m16.642 9.1874c-0.21302-0.018919-0.3972 0.4336-0.85137 1.4787-0.32754 0.75371-0.74554 1.7913-0.92877 2.3077l-0.33403 0.93895-0.68232 0.86359c-0.37574 0.4747-1.0259 1.356-1.4441 1.9573-0.41822 0.60132-0.76464 1.1003-0.77194 1.11-0.0073 0.0099-0.08913-0.05747-0.18126-0.15072-0.13328-0.13493-0.19644-0.16905-0.30755-0.16905-0.17959 0-0.2089 0.03384-0.50919 0.63547l-0.24848 0.50104-0.21182-0.24849c-0.20196-0.23389-0.22082-0.24585-0.37477-0.23423l-0.16091 0.01419-1.5826 1.9431c-0.90424 1.1111-1.6151 2.0196-1.66 2.1223-0.10953 0.25092-0.08941 0.3241 0.12017 0.41143 0.16913 0.07049 0.61248 0.07321 10.41 0.07536 7.1496 0.0015 10.241-0.01084 10.259-0.04073 0.01419-0.02353-0.03914-0.19732-0.11812-0.38699-0.13243-0.31802-0.22915-0.45063-1.2608-1.7007-0.84454-1.0234-1.2121-1.5019-1.495-1.9512-0.20608-0.32738-0.41889-0.64552-0.47457-0.70676-0.15527-0.1708-0.30885-0.15259-0.54586 0.06722l-0.19553 0.18126-0.554-0.57641-0.554-0.57233-0.79027-1.3769c-0.4335-0.75722-0.82031-1.4136-0.86156-1.4563-0.1155-0.11952-0.28122-0.09605-0.4766 0.06517-0.09438 0.0779-0.22653 0.18079-0.29329 0.22812l-0.1222 0.08555-0.33403-0.47253-0.33403-0.4766-0.40124-1.3565c-0.22086-0.7461-0.43217-1.3894-0.47049-1.4339-0.03835-0.044557-0.29387-0.42243-0.56622-0.83711-0.34429-0.5242-0.52682-0.82437-0.6925-0.83915zm0.13239 6.257c0.22704 5.6e-5 0.45569 0.0089 0.53465 0.02749 0.01123 0.0028 0.01971 0.0049 0.02444 0.0081 0.04221 0.02668 0.06314 0.13087 0.07333 0.3544l0.01537 0.31468 0.26886 0.1049c0.14865 0.05808 0.28856 0.10388 0.30857 0.10388 0.02004 1.8e-5 0.11499-0.07851 0.21182-0.1772 0.23154-0.23593 0.35473-0.2408 0.6202-0.02138 0.20884 0.17261 0.43798 0.44268 0.47559 0.56113 0.03112 0.09804-0.03535 0.22022-0.22608 0.41856l-0.1558 0.16294 0.09777 0.21692c0.05274 0.11915 0.10504 0.24511 0.11712 0.28107 0.01734 0.05171 0.08945 0.06986 0.34523 0.08147 0.231 0.01044 0.33371 0.0309 0.36051 0.07333 0.02071 0.03269 0.03869 0.28496 0.03871 0.5591 1.2e-5 0.27413-0.01813 0.52335-0.03871 0.55604-0.02674 0.04229-0.1305 0.06403-0.35745 0.07433l-0.31876 0.01537-0.06111 0.18534c-0.03466 0.1019-0.08783 0.22735-0.11812 0.28209-0.05244 0.09479-0.0468 0.11328 0.15886 0.32894 0.28782 0.30178 0.28643 0.37851-0.03157 0.75666-0.19264 0.22908-0.42144 0.39107-0.54993 0.39106-0.06356-2e-6 -0.1723-0.07609-0.32079-0.22303l-0.22608-0.22303-0.15275 0.07841c-0.08511 0.0428-0.22136 0.09936-0.30144 0.12526l-0.14664 0.04684-0.0132 0.35949c-0.01025 0.26393-0.02932 0.36733-0.07333 0.39513-0.03289 0.02075-0.285 0.03872-0.55909 0.0387-0.2741-1.9e-5 -0.52315-0.01793-0.55604-0.0387-0.04414-0.02787-0.06497-0.13231-0.07536-0.40022-0.01143-0.29363-0.02631-0.3671-0.07944-0.38495-0.03614-0.01222-0.16272-0.06677-0.28108-0.11915l-0.21488-0.09268-0.22506 0.21386c-0.12356 0.11789-0.26208 0.22627-0.30959 0.24136-0.14617 0.04639-0.42623-0.14688-0.70676-0.48882-0.21382-0.26064-0.19677-0.37144 0.09574-0.66093l0.23626-0.23525-0.07128-0.14258c-0.03955-0.07877-0.09528-0.21014-0.1212-0.29024l-0.04481-0.14461-0.35949-0.01419c-0.2639-0.01025-0.36936-0.0293-0.39717-0.07333-0.02075-0.03289-0.03665-0.28292-0.03665-0.55706-1.2e-5 -0.27414 0.01793-0.52824 0.03871-0.56113 0.02787-0.04412 0.13235-0.06093 0.40022-0.07128 0.29358-0.01123 0.36507-0.02631 0.38291-0.07944 0.01202-0.03614 0.06838-0.16485 0.1212-0.28413l0.09471-0.21692-0.21997-0.22303c-0.14518-0.14674-0.21997-0.25632-0.21997-0.31977-6e-6 -0.12851 0.15998-0.35523 0.38902-0.54789 0.37892-0.31872 0.45739-0.32189 0.76277-0.03055 0.12636 0.12055 0.24108 0.20905 0.25358 0.19656 0.01242-0.01261 0.12547-0.06515 0.25358-0.11712l0.23219-0.09471 0.02241-0.32385c0.01478-0.22167 0.03955-0.33428 0.07944-0.35949 0.03825-0.02432 0.2966-0.03683 0.55604-0.03665zm-0.01833 2.0857a1.0428 1.0428 0 0 0-1.0428 1.0428 1.0428 1.0428 0 0 0 1.0428 1.0428 1.0428 1.0428 0 0 0 1.0428-1.0428 1.0428 1.0428 0 0 0-1.0428-1.0428z" fill="url(#linearGradient1142)" stroke-width=".52141"/>
</svg>
