<svg width="128" height="128" version="1.1" viewBox="0 0 33.867 33.867" xmlns="http://www.w3.org/2000/svg" xmlns:xlink="http://www.w3.org/1999/xlink">
<defs>
<linearGradient id="linearGradient1632" x1="132.16" x2="132.21" y1="40.946" y2="70.68" gradientTransform="matrix(.97573 0 0 .97573 -111.7 -37.238)" gradientUnits="userSpaceOnUse">
<stop stop-color="#b2194f" stop-opacity=".89412" offset="0"/>
<stop stop-color="#fc6465" offset="1"/>
</linearGradient>
<filter id="b" x="-.12901" y="-.17074" width="1.258" height="1.3415" color-interpolation-filters="sRGB">
<feGaussianBlur stdDeviation="2.419"/>
</filter>
</defs>
<g transform="matrix(.97573 0 0 .97573 -65.683 -37.238)" fill="none" opacity=".29676" stroke="#000" stroke-linecap="round" stroke-linejoin="round" stroke-opacity=".02">
<rect x="69.84" y="40.71" width="29.811" height="29.811" rx="6.6099" ry="6.6099" stroke-width=".1"/>
<rect x="69.84" y="40.71" width="29.811" height="29.811" rx="6.6099" ry="6.6099" stroke-width=".2"/>
<rect x="69.84" y="40.71" width="29.811" height="29.811" rx="6.6099" ry="6.6099" stroke-width=".3"/>
<rect x="69.84" y="40.71" width="29.811" height="29.811" rx="6.6099" ry="6.6099" stroke-width=".4"/>
<rect x="69.84" y="40.71" width="29.811" height="29.811" rx="6.6099" ry="6.6099" stroke-width=".5"/>
<rect x="69.84" y="40.71" width="29.811" height="29.811" rx="6.6099" ry="6.6099" stroke-width=".6"/>
<rect x="69.84" y="40.71" width="29.811" height="29.811" rx="6.6099" ry="6.6099" stroke-width=".7"/>
<rect x="69.84" y="40.71" width="29.811" height="29.811" rx="6.6099" ry="6.6099" stroke-width=".8"/>
<rect x="69.84" y="40.71" width="29.811" height="29.811" rx="6.6099" ry="6.6099"/>
<rect x="69.84" y="40.71" width="29.811" height="29.811" rx="6.6099" ry="6.6099" stroke-width="1.2"/>
<rect x="69.84" y="40.71" width="29.811" height="29.811" rx="6.6099" ry="6.6099" stroke-width="1.4"/>
<rect x="69.84" y="40.71" width="29.811" height="29.811" rx="6.6099" ry="6.6099" stroke-width="1.6"/>
<rect x="69.84" y="40.71" width="29.811" height="29.811" rx="6.6099" ry="6.6099" stroke-width="1.8"/>
<rect x="69.84" y="40.71" width="29.811" height="29.811" rx="6.6099" ry="6.6099" stroke-width="2"/>
<rect x="69.84" y="40.71" width="29.811" height="29.811" rx="6.6099" ry="6.6099" stroke-width="2.2"/>
<rect x="69.84" y="40.71" width="29.811" height="29.811" rx="6.6099" ry="6.6099" stroke-width="2.6"/>
<rect x="69.84" y="40.71" width="29.811" height="29.811" rx="6.6099" ry="6.6099" stroke-width="3"/>
<rect x="69.84" y="40.71" width="29.811" height="29.811" rx="6.6099" ry="6.6099" stroke-width="3.4"/>
<rect x="69.84" y="40.71" width="29.811" height="29.811" rx="6.6099" ry="6.6099" stroke-width="3.8"/>
<rect x="69.84" y="40.71" width="29.811" height="29.811" rx="6.6099" ry="6.6099" stroke-width="4.2"/>
<rect x="69.84" y="40.71" width="29.811" height="29.811" rx="6.6099" ry="6.6099" stroke-width="4.6"/>
<rect x="69.84" y="40.71" width="29.811" height="29.811" rx="6.6099" ry="6.6099" stroke-width="5"/>
</g>
<path d="m8.9214 2.4839h16.189c3.573 0 6.4495 2.8765 6.4495 6.4495v16.189c0 3.573-2.8765 6.4495-6.4495 6.4495h-16.189c-3.573 0-6.4495-2.8765-6.4495-6.4495v-16.189c0-3.573 2.8765-6.4495 6.4495-6.4495z" fill="url(#linearGradient1632)" stroke-linecap="round" stroke-linejoin="round" stroke-width="2.6877"/>
<path transform="matrix(.40723 0 0 .40723 3.6946 3.6101)" d="m37.486 17.014c-2.172 0.105-4.008 0.715-5.814 1.932-0.769 0.517-1.925 1.473-2.436 2.125-0.257 0.328-0.258 0.327-0.652 0.226-0.223-0.056-1.045-0.1-1.889-0.098-1.324 3e-3 -1.595 0.03-2.348 0.233a10.025 10.025 0 0 0-7.44 9.17l-0.05 0.986-0.338 0.102c-1.21 0.365-2.722 1.318-3.785 2.388-1.268 1.277-2.123 2.789-2.606 4.602-0.204 0.767-0.228 1.018-0.228 2.406 0 1.389 0.024 1.64 0.228 2.406 1.05 3.945 4.228 6.848 8.127 7.42v-4e-3c0.287 0.043 6.3 0.08 13.367 0.088 13.768 0.011 13.568 0.017 15.182-0.431 1.525-0.424 3.611-1.67 4.805-2.871 1.25-1.258 2.454-3.342 2.889-4.993 1.065-4.046-0.013-8.101-2.928-11.012-0.515-0.514-1.258-1.148-1.65-1.408l-0.715-0.473 0.045-0.996a10.956 10.956 0 0 0-1.12-5.404c-1.165-2.4-2.856-4.1-5.24-5.273a10.704 10.704 0 0 0-5.404-1.121zm0.143 2.996h2e-3c1.47-0.07 2.617 0.168 3.935 0.817 1.857 0.913 2.957 2.017 3.867 3.892 0.637 1.311 0.883 2.502 0.819 3.961l-0.043 0.996a3 3 0 0 0 1.34 2.633l0.712 0.473c-0.024-0.017 0.824 0.665 1.19 1.03 2.19 2.188 2.959 5.038 2.146 8.126-0.244 0.93-1.355 2.874-2.117 3.64-0.693 0.699-2.737 1.89-3.478 2.096-0.835 0.232-0.551 0.231-2.317 0.281-1.765 0.05-5.176 0.047-12.06 0.041a1755.4 1755.4 0 0 1-9.21-0.03 457.07 457.07 0 0 1-2.904-0.026c-0.351-5e-3 -0.63-0.01-0.814-0.014-0.027 0-0.06-7e-3 -0.096-0.01-2.647-0.427-4.827-2.384-5.574-5.193-0.177-0.666-0.127-0.283-0.127-1.637s-0.05-0.97 0.127-1.637c0.362-1.36 0.927-2.342 1.836-3.257 0.688-0.694 2.031-1.481 2.521-1.63a3 3 0 0 0 4e-3 -1e-3l0.338-0.102a3 3 0 0 0 2.127-2.713l0.05-0.982v-2e-3c0.167-3.061 2.2-5.62 5.221-6.432a3 3 0 0 0 2e-3 0c0.643-0.173 0.29-0.128 1.574-0.13a3 3 0 0 0 2e-3 0c0.37-2e-3 0.743 9e-3 1.016 0.023 0.103 5e-3 0.195 0.021 0.27 0.033 0.279 0.106 0.855 0.306 1.96-0.08 1.314-0.458 1.519-1.09 1.647-1.256l2e-3 -2e-3c0.035-0.044 1.245-1.144 1.75-1.484 1.41-0.95 2.589-1.342 4.281-1.424zm-2.553 7.99v3h-11.076v3h11.076v3l6.924-4.283zm-4.152 9-6.924 4.717 6.924 4.283v-3h11.076v-3h-11.076z" filter="url(#b)" opacity=".15"/>
<path d="m18.96 9.317c-0.8845 0.042757-1.6322 0.29117-2.3676 0.78677-0.31316 0.21054-0.78392 0.59985-0.99201 0.86536-0.10466 0.13357-0.10506 0.13317-0.26552 0.09204-0.09081-0.02281-0.42556-0.04073-0.76926-0.0395-0.53917 8.14e-4 -0.64953 0.01216-0.95618 0.09447a4.0825 4.0825 0 0 0-3.0298 3.7343l-0.02036 0.40153-0.13764 0.04154c-0.49275 0.14864-1.1085 0.53673-1.5414 0.97247-0.51637 0.52003-0.86455 1.1358-1.0612 1.8741-0.08307 0.31235-0.09286 0.41456-0.09286 0.9798 0 0.56564 0.0099 0.66786 0.09286 0.9798 0.42759 1.6065 1.7218 2.7887 3.3096 3.0216v-0.0017c0.11688 0.01751 2.5656 0.03258 5.4434 0.03583 5.6067 0.0045 5.5253 0.0069 6.1826-0.17552 0.62102-0.17266 1.4705-0.68007 1.9567-1.1692 0.50904-0.51229 0.99934-1.361 1.1765-2.0333 0.4337-1.6477-0.0052-3.299-1.1924-4.4844-0.20972-0.20932-0.5123-0.4675-0.67193-0.57338l-0.29117-0.19262 0.01833-0.4056a4.4616 4.4616 0 0 0-0.4561-2.2007c-0.47442-0.97735-1.163-1.6696-2.1339-2.1473a4.359 4.359 0 0 0-2.2007-0.4565zm0.05824 1.2201h8.14e-4c0.59863-0.02851 1.0657 0.06841 1.6024 0.33271 0.75623 0.3718 1.2042 0.82138 1.5748 1.5849 0.2594 0.53388 0.35958 1.0189 0.33352 1.613l-0.01751 0.4056a1.2217 1.2217 0 0 0 0.54569 1.0722l0.28995 0.19262c-0.0099-0.0069 0.33515 0.27081 0.4846 0.41945 0.89183 0.89102 1.205 2.0516 0.87391 3.3092-0.09977 0.37872-0.5518 1.1704-0.8621 1.4823-0.28262 0.28465-1.1146 0.76967-1.4163 0.85356-0.34004 0.09447-0.22438 0.09407-0.94355 0.11444-0.71876 0.02036-2.1078 0.01913-4.9112 0.0167a714.84 714.84 0 0 1-3.7506-0.01216 186.13 186.13 0 0 1-1.1826-0.01062c-0.14294-2e-3 -0.25656-4e-3 -0.33189-0.0057-0.01093 0-0.02443-0.0029-0.03868-4e-3 -1.0779-0.17389-1.9657-0.97084-2.2699-2.1147-0.07249-0.27122-0.05172-0.11525-0.05172-0.66664 0-0.55139-0.02036-0.39501 0.05172-0.66664 0.14742-0.55383 0.3771-0.95373 0.74727-1.3263 0.28099-0.28262 0.82749-0.60311 1.027-0.66378a1.2217 1.2217 0 0 0 0.0017-4.08e-4l0.13764-0.04154a1.2217 1.2217 0 0 0 0.86618-1.1048l0.02036-0.3999v-8.16e-4c0.06802-1.2465 0.89591-2.2886 2.1261-2.6193a1.2217 1.2217 0 0 0 8.14e-4 0c0.26185-0.07045 0.1181-0.05213 0.64098-0.05293a1.2217 1.2217 0 0 0 8.14e-4 0c0.15068-4.08e-4 0.30257 0.0037 0.41375 0.0094 0.04194 2e-3 0.0794 0.0086 0.10996 0.01339 0.11362 0.04317 0.34818 0.12461 0.79817-0.03258 0.5351-0.18651 0.61858-0.44388 0.67071-0.51148l8.15e-4 -8.14e-4c0.01431-0.01792 0.507-0.46587 0.71265-0.60433 0.57419-0.38687 1.0543-0.5465 1.7434-0.5799zm-1.0397 3.2538v1.2217h-4.5105v1.2217h4.5105v1.2217l2.8197-1.7442zm-1.6908 3.6651-2.8197 1.9209 2.8197 1.7442v-1.2217h4.5105v-1.2217h-4.5105z" fill="#fff" stroke-width=".40723"/>
</svg>
