<svg width="128" height="128" version="1.1" viewBox="0 0 128 128" xml:space="preserve" xmlns="http://www.w3.org/2000/svg" xmlns:xlink="http://www.w3.org/1999/xlink"><defs><filter id="filter4835" x="-.019756" y="-.021088" width="1.0395" height="1.0422" color-interpolation-filters="sRGB"><feGaussianBlur stdDeviation="7.3886294"/></filter><clipPath id="clipPath4863"><rect transform="scale(1,-1)" x="101.97" y="-894.92" width="832" height="756.07" fill="#00001f" opacity=".225"/></clipPath><filter id="filter4915" x="-.067113" y="-.050449" width="1.1342" height="1.1009" color-interpolation-filters="sRGB"><feGaussianBlur stdDeviation="7.1385765"/></filter><linearGradient id="linearGradient856" x1="512" x2="512" y1="100.16" y2="922.77" gradientTransform="matrix(.12937 0 0 .12937 -1.529 900.71)" gradientUnits="userSpaceOnUse" xlink:href="#SVGID_3_"/><linearGradient id="linearGradient858" x1="512" x2="512" y1="100.16" y2="922.77" gradientUnits="userSpaceOnUse" xlink:href="#SVGID_3_"/></defs>
<style type="text/css">
	.st0{fill:url(#SVGID_1_);}
	.st1{fill:#C8D8DC;}
	.st2{fill:url(#SVGID_2_);}
	.st3{fill:url(#SVGID_3_);}
	.st4{fill:url(#Blue_2_);}
</style>
<g transform="translate(0,-896)">
	<g transform="matrix(.12937 0 0 .12937 -1.529 900.71)">
		<linearGradient id="SVGID_1_" x1="512" x2="512" y1="92.05" y2="932.95" gradientUnits="userSpaceOnUse">
			<stop stop-color="#99B1B6" offset="0"/>
			<stop stop-color="#8B9EA2" offset=".5"/>
			<stop stop-color="#78888C" offset="1"/>
		</linearGradient>
		<path class="st0" d="m909.3 933-797.6-2.9c-26.9-0.1-48.6-22-48.5-48.9l2.6-740.6c0.1-26.9 22-48.6 48.9-48.5l797.6 2.9c26.9 0.1 48.6 22 48.5 48.9l-2.7 740.6c0 26.8-21.9 48.5-48.8 48.5z" fill="url(#SVGID_1_)"/>
	</g>
	
	<g transform="matrix(.12937 0 0 .12937 -1.529 900.71)" fill="#00001f" filter="url(#filter4915)" opacity=".297"><g fill="#00001f">
		<circle class="st1" cx="512" cy="503.5" r="28.3"/>
	
		<linearGradient id="SVGID_2_" x1="512" x2="512" y1="536.72" y2="814.78" gradientUnits="userSpaceOnUse">
			<stop stop-color="#C8D8DC" offset="0"/>
			<stop stop-color="#ACB6BA" offset="1"/>
		</linearGradient>
		<path class="st2" d="m639.5 550c-0.9-8.2-8.4-14.2-16.6-13.2l-82.2 9.3h-57.5l-82.2-9.3c-8.2-0.9-15.7 5-16.6 13.2s5 15.7 13.2 16.6l75.8 8.6v87.4l-35.3 131.1c-2.5 8.8 2.6 17.9 11.4 20.4 1.5 0.4 3 0.6 4.5 0.6 7.2 0 13.8-4.8 15.9-12l36.8-123.1h10.4l36.9 123.2c2.1 7.3 8.7 12 15.9 12 1.5 0 3-0.2 4.5-0.6 8.8-2.5 13.9-11.6 11.4-20.4l-35.3-131.1v-87.4l75.8-8.6c8.2-1 14.1-8.4 13.2-16.7z"/>
	</g></g><path class="st3" d="m116.49 913-103.18-0.37516c-3.4799-0.013-6.313 2.7943-6.326 6.2742l-0.33635 95.808c-0.012941 3.4799 2.7943 6.313 6.2742 6.3259l103.18 0.3752c3.4799 0 6.313-2.8072 6.313-6.2742l0.34929-95.808c0.0129-3.4799-2.7943-6.313-6.2742-6.326zm-32.458 20.608c0-0.89261 0.72445-1.6171 1.6171-1.6171 0.89262 0 1.6171 0.72446 1.6171 1.6171v6.9211c0 0.89262-0.72445 1.6171-1.6171 1.6171-0.89262 0-1.6171-0.72444-1.6171-1.6171zm-4.6572-1.423c0-0.89263 0.72445-1.6171 1.6171-1.6171s1.6171 0.72445 1.6171 1.6171v10.285c0 0.89262-0.72445 1.6171-1.6171 1.6171s-1.6171-0.72445-1.6171-1.6171zm-4.6572-3.6869c0-0.89262 0.72445-1.6171 1.6171-1.6171 0.89262 0 1.6171 0.72445 1.6171 1.6171v17.102c0 0.89262-0.72445 1.6171-1.6171 1.6171-0.89262 0-1.6171-0.72445-1.6171-1.6171zm-4.6442 4.2691c0-0.89262 0.72445-1.6171 1.6171-1.6171 0.89262 0 1.6171 0.72446 1.6171 1.6171v8.9521c0 0.89262-0.72445 1.6171-1.6171 1.6171-0.89262 0-1.6171-0.72445-1.6171-1.6171zm-4.6572 2.3674c0-0.89262 0.72445-1.6171 1.6171-1.6171s1.6171 0.72445 1.6171 1.6171v4.2432c0 0.89262-0.72445 1.6171-1.6171 1.6171s-1.6171-0.72444-1.6171-1.6171zm-4.6572-1.4618c0-0.89262 0.72445-1.6171 1.6171-1.6171 0.89262 0 1.6171 0.72446 1.6171 1.6171v6.8693c0 0.89263-0.72445 1.6171-1.6171 1.6171-0.89262 0-1.6171-0.72444-1.6171-1.6171zm-4.6572-4.696c0-0.89263 0.72445-1.6171 1.6171-1.6171s1.6171 0.72445 1.6171 1.6171v16.235c0 0.89262-0.72446 1.6171-1.6171 1.6171s-1.6171-0.72446-1.6171-1.6171zm-4.6442-5.8215c0-0.89262 0.72445-1.6171 1.6171-1.6171 0.89262 0 1.6171 0.72446 1.6171 1.6171v27.852c0 0.89262-0.72445 1.6171-1.6171 1.6171-0.89262 0-1.6171-0.72445-1.6171-1.6171zm-4.6572 6.9081c0-0.89262 0.72445-1.6171 1.6171-1.6171 0.89262 0 1.6171 0.72445 1.6171 1.6171v14.282c0 0.89262-0.72445 1.6171-1.6171 1.6171-0.89262 0-1.6171-0.72445-1.6171-1.6171zm-4.6572 2.4321c0-0.89262 0.72446-1.6171 1.6171-1.6171s1.6171 0.72445 1.6171 1.6171v9.5342c0 0.89263-0.72445 1.6171-1.6171 1.6171s-1.6171-0.72445-1.6171-1.6171zm22.561 80.026c-15.395 0-27.865-12.471-27.865-27.865s12.471-27.865 27.865-27.865 27.865 12.471 27.865 27.865-12.471 27.865-27.865 27.865z" fill="url(#linearGradient856)" stroke-width=".12937"/>
	<g transform="matrix(.12937 0 0 .12937 -1.529 900.71)">
		<linearGradient id="SVGID_3_" x1="512" x2="512" y1="100.16" y2="922.77" gradientUnits="userSpaceOnUse">
			<stop stop-color="#C8D8DC" offset=".3175"/>
			<stop stop-color="#ACB6BA" offset="1"/>
		</linearGradient>
		<path class="st3" d="m912.3 95-797.6-2.9c-26.9-0.1-48.8 21.6-48.9 48.5l-2.6 740.6c-0.1 26.9 21.6 48.8 48.5 48.9l797.6 2.9c26.9 0 48.8-21.7 48.8-48.5l2.7-740.6c0.1-26.9-21.6-48.8-48.5-48.9zm-250.9 159.3c0-6.9 5.6-12.5 12.5-12.5s12.5 5.6 12.5 12.5v53.5c0 6.9-5.6 12.5-12.5 12.5s-12.5-5.6-12.5-12.5zm-36-11c0-6.9 5.6-12.5 12.5-12.5s12.5 5.6 12.5 12.5v79.5c0 6.9-5.6 12.5-12.5 12.5s-12.5-5.6-12.5-12.5zm-36-28.5c0-6.9 5.6-12.5 12.5-12.5s12.5 5.6 12.5 12.5v132.2c0 6.9-5.6 12.5-12.5 12.5s-12.5-5.6-12.5-12.5zm-35.9 33c0-6.9 5.6-12.5 12.5-12.5s12.5 5.6 12.5 12.5v69.2c0 6.9-5.6 12.5-12.5 12.5s-12.5-5.6-12.5-12.5zm-36 18.3c0-6.9 5.6-12.5 12.5-12.5s12.5 5.6 12.5 12.5v32.8c0 6.9-5.6 12.5-12.5 12.5s-12.5-5.6-12.5-12.5zm-36-11.3c0-6.9 5.6-12.5 12.5-12.5s12.5 5.6 12.5 12.5v53.1c0 6.9-5.6 12.5-12.5 12.5s-12.5-5.6-12.5-12.5zm-36-36.3c0-6.9 5.6-12.5 12.5-12.5s12.5 5.6 12.5 12.5v125.5c0 6.9-5.6 12.5-12.5 12.5s-12.5-5.6-12.5-12.5zm-35.9-45c0-6.9 5.6-12.5 12.5-12.5s12.5 5.6 12.5 12.5v215.3c0 6.9-5.6 12.5-12.5 12.5s-12.5-5.6-12.5-12.5zm-36 53.4c0-6.9 5.6-12.5 12.5-12.5s12.5 5.6 12.5 12.5v110.4c0 6.9-5.6 12.5-12.5 12.5s-12.5-5.6-12.5-12.5zm-36 18.8c0-6.9 5.6-12.5 12.5-12.5s12.5 5.6 12.5 12.5v73.7c0 6.9-5.6 12.5-12.5 12.5s-12.5-5.6-12.5-12.5zm174.4 618.6c-119 0-215.4-96.4-215.4-215.4s96.4-215.4 215.4-215.4 215.4 96.4 215.4 215.4-96.4 215.4-215.4 215.4z" clip-path="url(#clipPath4863)" fill="#00001f" filter="url(#filter4835)" opacity=".225"/>
	<path class="st3" d="m912.3 95-797.6-2.9c-26.9-0.1-48.8 21.6-48.9 48.5l-2.6 740.6c-0.1 26.9 21.6 48.8 48.5 48.9l797.6 2.9c26.9 0 48.8-21.7 48.8-48.5l2.7-740.6c0.1-26.9-21.6-48.8-48.5-48.9zm-250.9 159.3c0-6.9 5.6-12.5 12.5-12.5s12.5 5.6 12.5 12.5v53.5c0 6.9-5.6 12.5-12.5 12.5s-12.5-5.6-12.5-12.5zm-36-11c0-6.9 5.6-12.5 12.5-12.5s12.5 5.6 12.5 12.5v79.5c0 6.9-5.6 12.5-12.5 12.5s-12.5-5.6-12.5-12.5zm-36-28.5c0-6.9 5.6-12.5 12.5-12.5s12.5 5.6 12.5 12.5v132.2c0 6.9-5.6 12.5-12.5 12.5s-12.5-5.6-12.5-12.5zm-35.9 33c0-6.9 5.6-12.5 12.5-12.5s12.5 5.6 12.5 12.5v69.2c0 6.9-5.6 12.5-12.5 12.5s-12.5-5.6-12.5-12.5zm-36 18.3c0-6.9 5.6-12.5 12.5-12.5s12.5 5.6 12.5 12.5v32.8c0 6.9-5.6 12.5-12.5 12.5s-12.5-5.6-12.5-12.5zm-36-11.3c0-6.9 5.6-12.5 12.5-12.5s12.5 5.6 12.5 12.5v53.1c0 6.9-5.6 12.5-12.5 12.5s-12.5-5.6-12.5-12.5zm-36-36.3c0-6.9 5.6-12.5 12.5-12.5s12.5 5.6 12.5 12.5v125.5c0 6.9-5.6 12.5-12.5 12.5s-12.5-5.6-12.5-12.5zm-35.9-45c0-6.9 5.6-12.5 12.5-12.5s12.5 5.6 12.5 12.5v215.3c0 6.9-5.6 12.5-12.5 12.5s-12.5-5.6-12.5-12.5zm-36 53.4c0-6.9 5.6-12.5 12.5-12.5s12.5 5.6 12.5 12.5v110.4c0 6.9-5.6 12.5-12.5 12.5s-12.5-5.6-12.5-12.5zm-36 18.8c0-6.9 5.6-12.5 12.5-12.5s12.5 5.6 12.5 12.5v73.7c0 6.9-5.6 12.5-12.5 12.5s-12.5-5.6-12.5-12.5zm174.4 618.6c-119 0-215.4-96.4-215.4-215.4s96.4-215.4 215.4-215.4 215.4 96.4 215.4 215.4-96.4 215.4-215.4 215.4z" fill="url(#linearGradient858)"/></g>
	<linearGradient id="Blue_2_" x1="512" x2="512" y1="92.05" y2="932.95" gradientTransform="matrix(.12937 0 0 .12937 -1.529 900.71)" gradientUnits="userSpaceOnUse">
		<stop stop-color="#C7D3D8" offset=".3175"/>
		<stop stop-color="#B0BABE" offset=".6037"/>
		<stop stop-color="#8C9293" offset="1"/>
	</linearGradient>
	<path class="st4" d="m13.283 914.29h0.01293l103.18 0.37517c2.5485 0.0128 4.6054 2.0957 4.5925 4.6442l-0.34928 95.808c0 2.5356-2.0828 4.5925-4.6313 4.5925l-103.18-0.3751c-2.5485-0.013-4.6054-2.0958-4.5925-4.6443l0.33635-95.808c0.025873-2.5226 2.0957-4.5796 4.6313-4.5925m0-1.6818c-3.467 0-6.2872 2.8072-6.3001 6.2742l-0.33635 95.808c-0.012941 3.48 2.7943 6.3131 6.2742 6.326l103.18 0.3752c3.4799 0 6.313-2.8073 6.313-6.2743l0.34929-95.808c0.0129-3.4799-2.7943-6.313-6.2742-6.326l-103.18-0.37516h-0.02588z" fill="url(#Blue_2_)" stroke-width=".12937"/>
<g transform="matrix(.12937 0 0 .12937 -1.529 900.71)"><g>
		<circle class="st1" cx="512" cy="503.5" r="28.3" fill="#c8d8dc"/>
	
		
		<path class="st2" d="m639.5 550c-0.9-8.2-8.4-14.2-16.6-13.2l-82.2 9.3h-57.5l-82.2-9.3c-8.2-0.9-15.7 5-16.6 13.2s5 15.7 13.2 16.6l75.8 8.6v87.4l-35.3 131.1c-2.5 8.8 2.6 17.9 11.4 20.4 1.5 0.4 3 0.6 4.5 0.6 7.2 0 13.8-4.8 15.9-12l36.8-123.1h10.4l36.9 123.2c2.1 7.3 8.7 12 15.9 12 1.5 0 3-0.2 4.5-0.6 8.8-2.5 13.9-11.6 11.4-20.4l-35.3-131.1v-87.4l75.8-8.6c8.2-1 14.1-8.4 13.2-16.7z" fill="url(#SVGID_2_)"/>
	</g></g></g>
</svg>
