<svg width="128" height="128" version="1.1" viewBox="0 0 33.867 33.867" xmlns="http://www.w3.org/2000/svg" xmlns:xlink="http://www.w3.org/1999/xlink">
<defs>
<radialGradient id="radialGradient1124" cx="16.744" cy="4.1208" r="14.544" gradientTransform="matrix(3.7095 0 0 1.8362 -45.368 -3.4458)" gradientUnits="userSpaceOnUse">
<stop stop-color="#fcfdfd" offset="0"/>
<stop stop-color="#ebeff5" offset="1"/>
</radialGradient>
<clipPath id="clipPath873">
<path d="m12.475 247.48c0.06099-3e-3 0.72624-0.18913 1.4785-0.41387 1.3448-0.40173 4.3297-1.0407 4.3325-0.92742 0.0016 0.0611-1.4006 0.62428-2.9422 1.1822-0.6521 0.23598-0.94438 0.38097-1.0131 0.50255-0.09251 0.16356-0.0869 0.17238 0.13407 0.21297 0.41393 0.0755 0.3223 0.19254-0.27718 0.35397-0.66213 0.17863-1.0064 0.43415-0.76464 0.56764 0.17087 0.0943 0.13988 0.1408-0.12378 0.18458-0.10582 0.0172-0.26211 0.10471-0.34752 0.19482-0.14722 0.15478-0.14083 0.1769 0.10878 0.4143l0.26401 0.25133-0.42161 0.0889c-0.42734 0.0897-0.54948 0.17011-0.71028 0.46558-0.06587 0.12122-0.04635 0.20475 0.07548 0.3207 0.14568 0.13863 0.14462 0.18574-0.0079 0.407-0.39044 0.56527-0.42514 0.67219-0.27724 0.84976 0.20315 0.24393 0.64546 0.30956 1.5788 0.23457 0.44909-0.036 0.80093-0.032 0.78195 8e-3 -0.01902 0.0405-0.22036 0.19453-0.44581 0.34375-0.37889 0.24905-0.4187 0.29507-0.50515 0.58863-0.05149 0.17549-0.06127 0.3495-0.02159 0.38728 0.0397 0.0378 0.35918-6e-3 0.70971-0.0988 0.35047-0.0923 0.65811-0.14825 0.68346-0.12386 0.02557 0.0255 0.0103 0.10943-0.03385 0.18885-0.24981 0.45205 0.72716 0.33786 2.2074-0.25813 0.61704-0.24877 1.1576-0.44428 1.201-0.43517 0.043 8e-3 -0.08276 0.18599-0.28017 0.39376-0.19748 0.20757-0.34878 0.41603-0.33644 0.46322 0.01227 0.0471-0.07284 0.22151-0.1891 0.38742-0.11932 0.16982-0.21977 0.43491-0.23016 0.60695-0.01414 0.23627-0.06401 0.33586-0.21985 0.44115-0.11043 0.0747-0.29606 0.27007-0.41115 0.43463-0.18524 0.26381-0.19427 0.32779-0.07772 0.54549 0.11186 0.20871 0.10455 0.2872-0.04799 0.51345-0.26861 0.3985-1.9512 2.012-1.3462 2.243 2.5074-0.0209 2-1 3 0-0.86011 3.4972 4.9722 3.3923 7.1529 2.3486 1.9887-0.85549-0.74194-1.6857-1.1529-0.34865 1.0213 0.78075 0 1 4 2l4.5312-3c1.9782-2.0322 2.4962-2.4937 4.4524-4.3526 2.8792-2.7358 3.0163-3.6474 6.4291-5.6478 1.0428-0.407 4.5751-0.60113 4.5873-0.63277 0.01134-0.0324-6.5814-4.0906-13.305-6.2652l-12.226-3.9547-4.8269 3.997c-2.6545 2.1987-4.9282 4.0749-5.0524 4.1696-0.14448 0.1102-0.18578 0.17038-0.11495 0.16696z" stroke-width=".0080127"/>
</clipPath>
</defs>
<g transform="matrix(.97573 0 0 .97573 -65.861 -37.234)" fill="none" opacity=".13962" stroke="#000" stroke-linecap="round" stroke-linejoin="round" stroke-opacity=".02">
<rect x="69.84" y="40.71" width="29.811" height="29.811" rx="6.6099" ry="6.6099" stroke-width=".1"/>
<rect x="69.84" y="40.71" width="29.811" height="29.811" rx="6.6099" ry="6.6099" stroke-width=".2"/>
<rect x="69.84" y="40.71" width="29.811" height="29.811" rx="6.6099" ry="6.6099" stroke-width=".3"/>
<rect x="69.84" y="40.71" width="29.811" height="29.811" rx="6.6099" ry="6.6099" stroke-width=".4"/>
<rect x="69.84" y="40.71" width="29.811" height="29.811" rx="6.6099" ry="6.6099" stroke-width=".5"/>
<rect x="69.84" y="40.71" width="29.811" height="29.811" rx="6.6099" ry="6.6099" stroke-width=".6"/>
<rect x="69.84" y="40.71" width="29.811" height="29.811" rx="6.6099" ry="6.6099" stroke-width=".7"/>
<rect x="69.84" y="40.71" width="29.811" height="29.811" rx="6.6099" ry="6.6099" stroke-width=".8"/>
<rect x="69.84" y="40.71" width="29.811" height="29.811" rx="6.6099" ry="6.6099"/>
<rect x="69.84" y="40.71" width="29.811" height="29.811" rx="6.6099" ry="6.6099" stroke-width="1.2"/>
<rect x="69.84" y="40.71" width="29.811" height="29.811" rx="6.6099" ry="6.6099" stroke-width="1.4"/>
<rect x="69.84" y="40.71" width="29.811" height="29.811" rx="6.6099" ry="6.6099" stroke-width="1.6"/>
<rect x="69.84" y="40.71" width="29.811" height="29.811" rx="6.6099" ry="6.6099" stroke-width="1.8"/>
<rect x="69.84" y="40.71" width="29.811" height="29.811" rx="6.6099" ry="6.6099" stroke-width="2"/>
<rect x="69.84" y="40.71" width="29.811" height="29.811" rx="6.6099" ry="6.6099" stroke-width="2.2"/>
<rect x="69.84" y="40.71" width="29.811" height="29.811" rx="6.6099" ry="6.6099" stroke-width="2.6"/>
<rect x="69.84" y="40.71" width="29.811" height="29.811" rx="6.6099" ry="6.6099" stroke-width="3"/>
<rect x="69.84" y="40.71" width="29.811" height="29.811" rx="6.6099" ry="6.6099" stroke-width="3.4"/>
<rect x="69.84" y="40.71" width="29.811" height="29.811" rx="6.6099" ry="6.6099" stroke-width="3.8"/>
<rect x="69.84" y="40.71" width="29.811" height="29.811" rx="6.6099" ry="6.6099" stroke-width="4.2"/>
<rect x="69.84" y="40.71" width="29.811" height="29.811" rx="6.6099" ry="6.6099" stroke-width="4.6"/>
<rect x="69.84" y="40.71" width="29.811" height="29.811" rx="6.6099" ry="6.6099" stroke-width="5"/>
</g>
<rect x="2.2835" y="2.4875" width="29.087" height="29.087" rx="6.4495" ry="6.4495" fill="url(#radialGradient1124)" stroke-linecap="round" stroke-linejoin="round" stroke-width="2.6877"/>
<rect x="4.8697" y="6.0925" width="17.179" height="2.3726" rx="1.1863" ry="1.1863" fill="#b0b0b0" stroke-linecap="round" stroke-linejoin="round" stroke-width="4"/>
<rect x="8.475" y="11.114" width="17.179" height="2.3726" rx="1.1863" ry="1.1863" fill="#b0b0b0" stroke-linecap="round" stroke-linejoin="round" stroke-width="4"/>
<rect x="3.8566" y="16.136" width="25.244" height="5.7281" rx="2.864" ry="2.864" fill="#b0b0b0" stroke-linecap="round" stroke-linejoin="round" stroke-width="4"/>
<rect x="10.922" y="24.514" width="17.179" height="2.3726" rx="1.1863" ry="1.1863" fill="#b0b0b0" stroke-linecap="round" stroke-linejoin="round" stroke-width="4"/>
<g transform="translate(35.599 .45229)">
<rect transform="matrix(.26458 0 0 .26458 -37.549 -46.648)" x="16" y="236" width="36" height="40" clip-path="url(#clipPath873)" enable-background="new" stroke-width=".1"/>
<path transform="matrix(.26458 0 0 .26458 -35.599 -.45229)" d="m33.006 9.4023c-13.022 0-23.591 10.109-24.33 22.939 0.0027122 0.009139 0.011382 0.022454 0.013672 0.03125 0.063374 0.24346 0.36714 0.65922 0.67383 0.92188 0.48102 0.41195 0.55545 0.57225 0.54492 1.1699-0.006701 0.38107 0.11669 1.0187 0.27344 1.418 0.15674 0.3993 0.34773 1.0548 0.42578 1.4551 0.16977 0.87061 0.64251 2.0804 0.94922 2.4316 0.12164 0.13927 0.22291 0.37012 0.22461 0.51172 0.005576 0.45212 0.63569 1.6359 1.1621 2.1855 0.31482 0.32874 0.72209 0.56529 1.0684 0.61719 0.30826 0.04613 0.5615 0.14937 0.5625 0.23047 1e-3 0.08109 0.16496 0.36162 0.36328 0.62305 0.2465 0.32496 0.50003 0.47275 0.80273 0.46875 0.41709-0.00514 0.45965 0.064119 0.72461 1.168 0.15472 0.64454 0.41703 1.3159 0.58203 1.4922 0.165 0.1763 0.35642 0.57256 0.42578 0.88086 0.069349 0.30829 0.18566 0.67087 0.25977 0.80664 0.074113 0.13574 0.1794 0.44779 0.23438 0.69336 0.11396 0.5092 1.3115 1.3296 2.166 1.4844 0.48079 0.08706 0.52055 0.14192 0.49609 0.68359-0.024269 0.53801 0.021159 0.60165 0.54297 0.76953 0.60345 0.19417 0.6187 0.2515 0.41406 1.3945-0.090017 0.50281-0.06189 0.60847 0.15625 0.60547 0.15326-0.00189 0.26538 0.12886 0.26758 0.31055 0.002127 0.17239 0.23519 0.67517 0.51758 1.1172 0.48592 0.76061 0.49983 0.82297 0.25781 1.1777-0.42201 0.61859-0.3154 1.3072 0.28906 1.8633 0.29311 0.26963 0.67986 0.57002 0.85938 0.66602v0.001953c0.17951 0.09592 0.42711 0.17612 0.54883 0.17578 0.32586 0.00322 34.024-14.174 33.973-14.295-0.023807-0.05649-0.50461-0.53984-1.0742-1-0.56961-0.46015-1.3388-1.4566-1.75-2-1.5579-2.0591-3.6939-6.7822-5.7344-12.682-0.62953-1.8201-1.4155-3.9988-1.748-4.8418-1.3253-3.3599-2.5518-7.0477-3.1133-9.3633-0.41165-1.6976-1.1796-4.4111-1.707-6.1133h-10.322z" enable-background="new" stroke-width=".16211"/>
<path transform="matrix(.26458 0 0 .26458 -35.599 -.45229)" d="m58.455 45.402-19.824 4-13 9-1 1.2031 2-0.20312 0.53125 0.32812-0.046875 0.48438-1.9688 0.6875-5.9219-0.125-10.594-0.58398v23.441l49.824-38.232z" enable-background="new" stroke="#000" stroke-width=".1"/>
<rect x="-28.817" y="16.323" width="10.583" height="2.9104" enable-background="new" stroke-width=".026458"/>
<rect x="-27.759" y="11.825" width="7.1437" height="5.8208" enable-background="new" stroke-width=".026458"/>
<path d="m-16.937 15.79c5.55e-4 -0.03101 0.01209-0.79754 0.0256-1.7034l0.02458-1.647 0.37482-0.08576 0.48475-0.26206 0.13321-0.03619 0.13321-0.03616 0.67065 0.07048 0.28049 0.10686c0.23421 0.08923 0.30259 0.11887 0.41444 0.17963l0.13396 0.07277 0.48473 0.04402 0.14931 0.08736c0.08212 0.04804 0.17075 0.09981 0.19696 0.11503 0.04565 0.02656 0.05308 0.03468 0.17694 0.19438l0.12929 0.1667 0.1388 0.42092 0.02614 0.23362 0.02614 0.23362-0.02963 0.1539c-0.02719 0.14123-0.03234 0.15967-0.06252 0.22395l-0.03289 0.07005-0.0335-0.07273c-0.01843-0.04-0.03559-0.07503-0.03813-0.07783-0.0025-0.0029-0.04003-0.0034-0.0833-0.0011-0.11982 0.0058-0.35234-0.02003-0.5313-0.05916l-0.15556-0.034-0.19067 0.04279c-0.18667 0.04197-0.19875 0.04586-0.57822 0.18113l-0.38758 0.13814-0.23095 0.13416c-0.12702 0.0738-0.33368 0.1942-0.45923 0.26759l-0.22829 0.13342-0.47324 0.39517c-0.26028 0.21735-0.47702 0.39763-0.48165 0.40063-0.0078 0.0049-0.0083 7.93e-4 -0.0074-0.05092z" enable-background="new" stroke-width=".00066406"/>
<path d="m-20.132 11.56 1.1047 0.79375 0.60314 0.26458h0.71978l0.81833-0.17948-0.05018 3.3504-1.447 0.61389-2.4961 0.01169v-5.028z" enable-background="new" stroke="#000" stroke-width=".026458"/>
<path d="m-16.987 16.022 0.51197 0.4007 1.3275 0.75031 2.0068 1.6211 0.62334 0.41404 0.41882 0.08613 0.8891 0.48441 1.5339 0.70045 1.4825 0.38829 1.3164-0.04045 1.1672-0.81175 0.87933-1.1445 0.25794-0.17741-0.05928 0.31948 0.69564-1.2513 0.21625-0.17984-0.03256 0.28668-0.20387 0.57218-0.70932 1.2574-1.0057 1.5357-1.9052 1.6003-0.37257 0.06084 0.6748-0.15324 0.22862 0.21251-1.7951 0.69288 0.31656 0.36189-1.2122 0.26636-0.30874-0.11409-0.55691 0.37307-0.52955-0.07881-0.22862 0.2272-0.52434 0.0864-0.25968-0.02379-0.33622 0.22341-0.52875 0.02764-0.24319-0.2473-0.25148 0.11173-0.514-0.12698-0.39656 0.17619-0.31135-0.23184-0.31964 0.1272-0.4357-0.13216-0.01796-0.25854-0.30859 0.16672-0.45228-0.34689-0.56467 0.13243-0.06771-0.28085-0.55039-0.03677-0.1764-0.30658-0.37214 0.01728-0.22707-0.3581-0.29293 0.04131-0.11699-0.28856-0.46426-0.10466 0.01243-0.22762-0.403-0.02823-0.02856-0.28343-0.45275-0.05055-0.04836-0.28944-0.37583-0.09953 0.01934-0.31952-0.49512-0.15018 0.09488-0.41231-0.31872-0.15454-0.03501-0.17692z" enable-background="new" stroke="#000" stroke-width=".0041604"/>
<path d="m-17.176 15.529 0.60395 0.4927-0.07479 0.83022-3.6677 5.2187-0.83021-0.1916-0.79375-0.52917-1.0583-0.52917-0.52917-0.79375-2.1167-1.0583z" enable-background="new" stroke-width="0"/>
</g>
</svg>
