<svg width="64" height="64" version="1.1" xmlns="http://www.w3.org/2000/svg">
<path d="m3.4052 55a1.3856 1.5 0 1 0 0 2.9997h58.19a1.3856 1.5 0 1 0 0-2.9997z" opacity=".2"/>
<path d="m34 53.423h-3v-8.55h3z" fill="#bcc5ca"/>
<path d="m3.4052 54a1.3856 1.5 0 1 0 0 2.9997h58.19a1.3856 1.5 0 1 0 0-2.9997z" fill="#bcc5ca"/>
<rect x="23" y="52" width="19" height="9" ry="1.8" opacity=".2"/>
<rect x="23" y="51" width="19" height="9" ry="1.8" fill="#a0aab0"/>
<path d="m7 37.25v9.1807c0 1.9779 1.7501 3.5693 3.9235 3.5693h43.153c2.1734 0 3.9235-1.5914 3.9235-3.5693v-9.1807z" opacity=".2"/>
<path d="m7 36.25v9.1807c0 1.9779 1.7501 3.5693 3.9235 3.5693h43.153c2.1734 0 3.9235-1.5914 3.9235-3.5693v-9.1807z" fill="#dadfe1"/>
<path d="m7 37v0.78646c0 1.78 1.7501 3.2135 3.9235 3.2135h43.153c2.1734 0 3.9235-1.4335 3.9235-3.2135v-0.78646z" opacity=".2"/>
<path d="m7 36v0.78646c0 1.78 1.7501 3.2135 3.9235 3.2135h43.153c2.1734 0 3.9235-1.4335 3.9235-3.2135v-0.78646z" fill="#fff"/>
<path d="m10.923 4c-2.1734 0-3.9231 1.5333-3.9231 3.438v28.562h51v-28.562c0-1.9046-1.7497-3.438-3.9231-3.438z" fill="#00aade"/>
<path d="m25.5 43a2.5 2.5 0 0 0-2.5 2.5 2.5 2.5 0 0 0 2.5 2.5 2.5 2.5 0 0 0 2.5-2.5 2.5 2.5 0 0 0-2.5-2.5zm7 0a2.5 2.5 0 0 0-2.5 2.5 2.5 2.5 0 0 0 2.5 2.5 2.5 2.5 0 0 0 2.5-2.5 2.5 2.5 0 0 0-2.5-2.5zm7 0a2.5 2.5 0 0 0-2.5 2.5 2.5 2.5 0 0 0 2.5 2.5 2.5 2.5 0 0 0 2.5-2.5 2.5 2.5 0 0 0-2.5-2.5z" opacity=".1"/>
<circle cx="25.5" cy="44.5" r="2.5" fill="#5eb904"/>
<path d="m35.25 11a5.5 5.4286 0 0 0-5.406 4.4611 6.1875 6.1071 0 0 0-2.1565-0.38965 6.1875 6.1071 0 0 0-6.1875 6.1071 6.1875 6.1071 0 0 0 0.08057 0.94629 4.125 4.0714 0 0 0-1.4556-0.26772 4.125 4.0714 0 0 0-4.125 4.0714 4.125 4.0714 0 0 0 4.125 4.0714h26.125v-0.07421a3.4375 3.3929 0 0 0 2.75-3.3186 3.4375 3.3929 0 0 0-3.4375-3.3929 3.4375 3.3929 0 0 0-0.69018 0.07422 5.5 5.4286 0 0 0 0.0027-0.07422 5.5 5.4286 0 0 0-4.3372-5.304 5.5 5.4286 0 0 0 0.21216-1.4817 5.5 5.4286 0 0 0-5.5-5.4286z" opacity=".2"/>
<path d="m35.25 10a5.5 5.4286 0 0 0-5.406 4.4611 6.1875 6.1071 0 0 0-2.1565-0.38965 6.1875 6.1071 0 0 0-6.1875 6.1071 6.1875 6.1071 0 0 0 0.08057 0.94629 4.125 4.0714 0 0 0-1.4556-0.26772 4.125 4.0714 0 0 0-4.125 4.0714 4.125 4.0714 0 0 0 4.125 4.0714h26.125v-0.07421a3.4375 3.3929 0 0 0 2.75-3.3186 3.4375 3.3929 0 0 0-3.4375-3.3929 3.4375 3.3929 0 0 0-0.69018 0.07422 5.5 5.4286 0 0 0 0.0027-0.07422 5.5 5.4286 0 0 0-4.3372-5.304 5.5 5.4286 0 0 0 0.21216-1.4817 5.5 5.4286 0 0 0-5.5-5.4286z" fill="#fff"/>
<circle cx="32.5" cy="44.5" r="2.5" fill="#5eb904"/>
<circle cx="39.5" cy="44.5" r="2.5" fill="#e6461d"/>
<path d="m10.924 4c-2.1734 0-3.9238 1.5329-3.9238 3.4375v1c0-1.9046 1.7504-3.4375 3.9238-3.4375h43.152c2.1734 0 3.9238 1.5329 3.9238 3.4375v-1c0-1.9046-1.7504-3.4375-3.9238-3.4375h-43.152z" fill="#fff" opacity=".2"/>
</svg>
