<svg width="128" height="128" version="1.1" viewBox="0 0 128 128" xmlns="http://www.w3.org/2000/svg" xmlns:xlink="http://www.w3.org/1999/xlink">
<defs>
<linearGradient id="linearGradient825" x1="-741.83" x2="-741.83" y1="959.05" y2="93.836" gradientTransform="matrix(.13668 0 0 .13668 162.31 -5.9893)" gradientUnits="userSpaceOnUse">
<stop stop-color="#c3c5c8" offset="0"/>
<stop stop-color="#f9f9fa" offset="1"/>
</linearGradient>
<linearGradient id="linearGradient835" x1="-738.76" x2="-738.76" y1="931.43" y2="152.13" gradientTransform="matrix(.13668 0 0 .13668 162.31 -5.9893)" gradientUnits="userSpaceOnUse">
<stop stop-color="#e0e2e6" offset="0"/>
<stop stop-color="#f1f1f3" offset="1"/>
</linearGradient>
<linearGradient id="linearGradient945" x1="9.9671" x2="17.168" y1="8.7645" y2="30.462" gradientUnits="userSpaceOnUse">
<stop stop-color="#009bfd" offset="0"/>
<stop stop-color="#0035d5" offset="1"/>
</linearGradient>
</defs>
<circle cx="63.592" cy="64.286" r="61.38" fill="url(#linearGradient825)"/>
<circle cx="63.592" cy="64.286" r="55.09" fill="url(#linearGradient835)"/>
<g transform="matrix(3.0801 0 0 3.0801 13.968 13.003)">
<path d="m24.462 7.8877-9.1442 14.337" fill="none" stroke="#e6c001" stroke-linecap="round" stroke-width="2.9085"/>
<path d="m26.677 22.219-11.359 0.0062" fill="none" stroke="#e6c001" stroke-linecap="round" stroke-width="2.9085"/>
<path d="m24.462 7.8877-0.04564 18.668" fill="none" stroke="#e6c001" stroke-linecap="round" stroke-width="2.9085"/>
<path d="m7.686 6.7377c-0.95339 0-1.7223 0.75993-1.7376 1.7095h-6.598e-4v3.2495h4.4096c0.89133 0 1.6089 0.71758 1.6089 1.6089 0 0.89133-0.71758 1.6089-1.6089 1.6089h-4.4096v1.6178h9.4108l4.3103-7.035c0.20806-0.28656 0.33207-0.63845 0.33207-1.0212 0-0.94992-0.75454-1.7167-1.6993-1.7375v-9.76e-4h-10.608c-7.489e-4 -7e-7 -0.0015 0-0.00225 0zm-1.7383 11.324v1.2871h7.6855l0.78847-1.2871zm0 2.8158v1.2885h6.7398v-1.2738l0.0091-0.01477zm0 2.8173v4.2142h4.8897c0.04611 0.0046 0.09289 7e-3 0.14023 7e-3h9.0026c0.77494 0 1.3989-0.62395 1.3989-1.3989 0-0.77494-0.62395-1.3987-1.3989-1.3987h-7.2928v-1.4236z" fill="url(#linearGradient945)"/>
</g>
</svg>
