<svg width="128" height="128" version="1.1" viewBox="0 0 128 128" xmlns="http://www.w3.org/2000/svg" xmlns:xlink="http://www.w3.org/1999/xlink">
<defs>
<linearGradient id="linearGradient825" x1="-741.83" x2="-741.83" y1="959.05" y2="93.836" gradientTransform="matrix(.13668 0 0 .13668 162.31 -5.9893)" gradientUnits="userSpaceOnUse">
<stop stop-color="#cdd4da" offset="0"/>
<stop stop-color="#fff" offset="1"/>
</linearGradient>
<linearGradient id="linearGradient835" x1="-738.76" x2="-738.76" y1="931.43" y2="152.13" gradientTransform="matrix(.13668 0 0 .13668 162.31 -5.9893)" gradientUnits="userSpaceOnUse">
<stop stop-color="#dfe3e8" offset="0"/>
<stop stop-color="#fefeff" offset="1"/>
</linearGradient>
</defs>
<circle cx="63.592" cy="64.286" r="61.38" fill="url(#linearGradient825)"/>
<circle cx="63.592" cy="64.286" r="55.09" fill="url(#linearGradient835)"/>
<g transform="translate(-166.59 30.972)">
<g transform="translate(78.237 36.05)" fill="none" opacity=".459" stroke="#141517" stroke-linecap="round" stroke-linejoin="round" stroke-opacity=".019608">
<path d="m157-35.578c-1.1294 0.01843-1.6715 0.3423-0.79688 0.99609 5.2554 3.2586 11.118 6.4713 15.615 11.168 3.736 3.9015 7.2104 8.2386 11.004 14.906 0.50626 1.1279 1.4514 1.5563 1.3848-0.16602l-0.0215-21.617c-0.13356-2.7749-1.8114-5.0652-4.3379-5.2207zm-34.133 0.28711c-1.9526-0.02277-3.5234 1.5707-3.5234 3.5234v11.381c0.0119 1.5154 0.54975 2.029 1.8555 3.3809 11.216 11.209 32.86 32.731 45.264 45.256 1.3518 1.3057 1.8654 1.8435 3.3809 1.8555h11.383c1.9527 0 3.5462-1.5728 3.5234-3.5254l-0.13867-12.031c-0.10815-1.7318-0.94731-2.1286-2.1973-3.4688-10.857-10.864-32.045-31.944-44.045-44.037-1.3402-1.25-1.737-2.0872-3.4688-2.1953zm-3.2441 37.299c-0.29105-0.03295-0.50988 0.29119-0.47657 1.1523l0.0195 21.617c0.13356 2.7749 1.8133 5.0652 4.3398 5.2207l22.848 0.06641c1.1294-0.0184 1.6715-0.34229 0.79687-0.99609-5.2554-3.2586-11.118-6.4713-15.615-11.168-3.736-3.9015-7.2104-8.2386-11.004-14.906-0.25313-0.56397-0.61715-0.95338-0.9082-0.98633z" stroke-width=".2"/>
<path d="m157-35.578c-1.1294 0.01843-1.6715 0.3423-0.79688 0.99609 5.2554 3.2586 11.118 6.4713 15.615 11.168 3.736 3.9015 7.2104 8.2386 11.004 14.906 0.50626 1.1279 1.4514 1.5563 1.3848-0.16602l-0.0215-21.617c-0.13356-2.7749-1.8114-5.0652-4.3379-5.2207zm-34.133 0.28711c-1.9526-0.02277-3.5234 1.5707-3.5234 3.5234v11.381c0.0119 1.5154 0.54975 2.029 1.8555 3.3809 11.216 11.209 32.86 32.731 45.264 45.256 1.3518 1.3057 1.8654 1.8435 3.3809 1.8555h11.383c1.9527 0 3.5462-1.5728 3.5234-3.5254l-0.13867-12.031c-0.10815-1.7318-0.94731-2.1286-2.1973-3.4688-10.857-10.864-32.045-31.944-44.045-44.037-1.3402-1.25-1.737-2.0872-3.4688-2.1953zm-3.2441 37.299c-0.29105-0.03295-0.50988 0.29119-0.47657 1.1523l0.0195 21.617c0.13356 2.7749 1.8133 5.0652 4.3398 5.2207l22.848 0.06641c1.1294-0.0184 1.6715-0.34229 0.79687-0.99609-5.2554-3.2586-11.118-6.4713-15.615-11.168-3.736-3.9015-7.2104-8.2386-11.004-14.906-0.25313-0.56397-0.61715-0.95338-0.9082-0.98633z" stroke-width=".4"/>
<path d="m157-35.578c-1.1294 0.01843-1.6715 0.3423-0.79688 0.99609 5.2554 3.2586 11.118 6.4713 15.615 11.168 3.736 3.9015 7.2104 8.2386 11.004 14.906 0.50626 1.1279 1.4514 1.5563 1.3848-0.16602l-0.0215-21.617c-0.13356-2.7749-1.8114-5.0652-4.3379-5.2207zm-34.133 0.28711c-1.9526-0.02277-3.5234 1.5707-3.5234 3.5234v11.381c0.0119 1.5154 0.54975 2.029 1.8555 3.3809 11.216 11.209 32.86 32.731 45.264 45.256 1.3518 1.3057 1.8654 1.8435 3.3809 1.8555h11.383c1.9527 0 3.5462-1.5728 3.5234-3.5254l-0.13867-12.031c-0.10815-1.7318-0.94731-2.1286-2.1973-3.4688-10.857-10.864-32.045-31.944-44.045-44.037-1.3402-1.25-1.737-2.0872-3.4688-2.1953zm-3.2441 37.299c-0.29105-0.03295-0.50988 0.29119-0.47657 1.1523l0.0195 21.617c0.13356 2.7749 1.8133 5.0652 4.3398 5.2207l22.848 0.06641c1.1294-0.0184 1.6715-0.34229 0.79687-0.99609-5.2554-3.2586-11.118-6.4713-15.615-11.168-3.736-3.9015-7.2104-8.2386-11.004-14.906-0.25313-0.56397-0.61715-0.95338-0.9082-0.98633z" stroke-width=".6"/>
<path d="m157-35.578c-1.1294 0.01843-1.6715 0.3423-0.79688 0.99609 5.2554 3.2586 11.118 6.4713 15.615 11.168 3.736 3.9015 7.2104 8.2386 11.004 14.906 0.50626 1.1279 1.4514 1.5563 1.3848-0.16602l-0.0215-21.617c-0.13356-2.7749-1.8114-5.0652-4.3379-5.2207zm-34.133 0.28711c-1.9526-0.02277-3.5234 1.5707-3.5234 3.5234v11.381c0.0119 1.5154 0.54975 2.029 1.8555 3.3809 11.216 11.209 32.86 32.731 45.264 45.256 1.3518 1.3057 1.8654 1.8435 3.3809 1.8555h11.383c1.9527 0 3.5462-1.5728 3.5234-3.5254l-0.13867-12.031c-0.10815-1.7318-0.94731-2.1286-2.1973-3.4688-10.857-10.864-32.045-31.944-44.045-44.037-1.3402-1.25-1.737-2.0872-3.4688-2.1953zm-3.2441 37.299c-0.29105-0.03295-0.50988 0.29119-0.47657 1.1523l0.0195 21.617c0.13356 2.7749 1.8133 5.0652 4.3398 5.2207l22.848 0.06641c1.1294-0.0184 1.6715-0.34229 0.79687-0.99609-5.2554-3.2586-11.118-6.4713-15.615-11.168-3.736-3.9015-7.2104-8.2386-11.004-14.906-0.25313-0.56397-0.61715-0.95338-0.9082-0.98633z" stroke-width=".8"/>
<path d="m157-35.578c-1.1294 0.01843-1.6715 0.3423-0.79688 0.99609 5.2554 3.2586 11.118 6.4713 15.615 11.168 3.736 3.9015 7.2104 8.2386 11.004 14.906 0.50626 1.1279 1.4514 1.5563 1.3848-0.16602l-0.0215-21.617c-0.13356-2.7749-1.8114-5.0652-4.3379-5.2207zm-34.133 0.28711c-1.9526-0.02277-3.5234 1.5707-3.5234 3.5234v11.381c0.0119 1.5154 0.54975 2.029 1.8555 3.3809 11.216 11.209 32.86 32.731 45.264 45.256 1.3518 1.3057 1.8654 1.8435 3.3809 1.8555h11.383c1.9527 0 3.5462-1.5728 3.5234-3.5254l-0.13867-12.031c-0.10815-1.7318-0.94731-2.1286-2.1973-3.4688-10.857-10.864-32.045-31.944-44.045-44.037-1.3402-1.25-1.737-2.0872-3.4688-2.1953zm-3.2441 37.299c-0.29105-0.03295-0.50988 0.29119-0.47657 1.1523l0.0195 21.617c0.13356 2.7749 1.8133 5.0652 4.3398 5.2207l22.848 0.06641c1.1294-0.0184 1.6715-0.34229 0.79687-0.99609-5.2554-3.2586-11.118-6.4713-15.615-11.168-3.736-3.9015-7.2104-8.2386-11.004-14.906-0.25313-0.56397-0.61715-0.95338-0.9082-0.98633z"/>
<path d="m157-35.578c-1.1294 0.01843-1.6715 0.3423-0.79688 0.99609 5.2554 3.2586 11.118 6.4713 15.615 11.168 3.736 3.9015 7.2104 8.2386 11.004 14.906 0.50626 1.1279 1.4514 1.5563 1.3848-0.16602l-0.0215-21.617c-0.13356-2.7749-1.8114-5.0652-4.3379-5.2207zm-34.133 0.28711c-1.9526-0.02277-3.5234 1.5707-3.5234 3.5234v11.381c0.0119 1.5154 0.54975 2.029 1.8555 3.3809 11.216 11.209 32.86 32.731 45.264 45.256 1.3518 1.3057 1.8654 1.8435 3.3809 1.8555h11.383c1.9527 0 3.5462-1.5728 3.5234-3.5254l-0.13867-12.031c-0.10815-1.7318-0.94731-2.1286-2.1973-3.4688-10.857-10.864-32.045-31.944-44.045-44.037-1.3402-1.25-1.737-2.0872-3.4688-2.1953zm-3.2441 37.299c-0.29105-0.03295-0.50988 0.29119-0.47657 1.1523l0.0195 21.617c0.13356 2.7749 1.8133 5.0652 4.3398 5.2207l22.848 0.06641c1.1294-0.0184 1.6715-0.34229 0.79687-0.99609-5.2554-3.2586-11.118-6.4713-15.615-11.168-3.736-3.9015-7.2104-8.2386-11.004-14.906-0.25313-0.56397-0.61715-0.95338-0.9082-0.98633z" stroke-width="1.2"/>
<path d="m157-35.578c-1.1294 0.01843-1.6715 0.3423-0.79688 0.99609 5.2554 3.2586 11.118 6.4713 15.615 11.168 3.736 3.9015 7.2104 8.2386 11.004 14.906 0.50626 1.1279 1.4514 1.5563 1.3848-0.16602l-0.0215-21.617c-0.13356-2.7749-1.8114-5.0652-4.3379-5.2207zm-34.133 0.28711c-1.9526-0.02277-3.5234 1.5707-3.5234 3.5234v11.381c0.0119 1.5154 0.54975 2.029 1.8555 3.3809 11.216 11.209 32.86 32.731 45.264 45.256 1.3518 1.3057 1.8654 1.8435 3.3809 1.8555h11.383c1.9527 0 3.5462-1.5728 3.5234-3.5254l-0.13867-12.031c-0.10815-1.7318-0.94731-2.1286-2.1973-3.4688-10.857-10.864-32.045-31.944-44.045-44.037-1.3402-1.25-1.737-2.0872-3.4688-2.1953zm-3.2441 37.299c-0.29105-0.03295-0.50988 0.29119-0.47657 1.1523l0.0195 21.617c0.13356 2.7749 1.8133 5.0652 4.3398 5.2207l22.848 0.06641c1.1294-0.0184 1.6715-0.34229 0.79687-0.99609-5.2554-3.2586-11.118-6.4713-15.615-11.168-3.736-3.9015-7.2104-8.2386-11.004-14.906-0.25313-0.56397-0.61715-0.95338-0.9082-0.98633z" stroke-width="1.7"/>
<path d="m157-35.578c-1.1294 0.01843-1.6715 0.3423-0.79688 0.99609 5.2554 3.2586 11.118 6.4713 15.615 11.168 3.736 3.9015 7.2104 8.2386 11.004 14.906 0.50626 1.1279 1.4514 1.5563 1.3848-0.16602l-0.0215-21.617c-0.13356-2.7749-1.8114-5.0652-4.3379-5.2207zm-34.133 0.28711c-1.9526-0.02277-3.5234 1.5707-3.5234 3.5234v11.381c0.0119 1.5154 0.54975 2.029 1.8555 3.3809 11.216 11.209 32.86 32.731 45.264 45.256 1.3518 1.3057 1.8654 1.8435 3.3809 1.8555h11.383c1.9527 0 3.5462-1.5728 3.5234-3.5254l-0.13867-12.031c-0.10815-1.7318-0.94731-2.1286-2.1973-3.4688-10.857-10.864-32.045-31.944-44.045-44.037-1.3402-1.25-1.737-2.0872-3.4688-2.1953zm-3.2441 37.299c-0.29105-0.03295-0.50988 0.29119-0.47657 1.1523l0.0195 21.617c0.13356 2.7749 1.8133 5.0652 4.3398 5.2207l22.848 0.06641c1.1294-0.0184 1.6715-0.34229 0.79687-0.99609-5.2554-3.2586-11.118-6.4713-15.615-11.168-3.736-3.9015-7.2104-8.2386-11.004-14.906-0.25313-0.56397-0.61715-0.95338-0.9082-0.98633z" stroke-width="2.3"/>
<path d="m157-35.578c-1.1294 0.01843-1.6715 0.3423-0.79688 0.99609 5.2554 3.2586 11.118 6.4713 15.615 11.168 3.736 3.9015 7.2104 8.2386 11.004 14.906 0.50626 1.1279 1.4514 1.5563 1.3848-0.16602l-0.0215-21.617c-0.13356-2.7749-1.8114-5.0652-4.3379-5.2207zm-34.133 0.28711c-1.9526-0.02277-3.5234 1.5707-3.5234 3.5234v11.381c0.0119 1.5154 0.54975 2.029 1.8555 3.3809 11.216 11.209 32.86 32.731 45.264 45.256 1.3518 1.3057 1.8654 1.8435 3.3809 1.8555h11.383c1.9527 0 3.5462-1.5728 3.5234-3.5254l-0.13867-12.031c-0.10815-1.7318-0.94731-2.1286-2.1973-3.4688-10.857-10.864-32.045-31.944-44.045-44.037-1.3402-1.25-1.737-2.0872-3.4688-2.1953zm-3.2441 37.299c-0.29105-0.03295-0.50988 0.29119-0.47657 1.1523l0.0195 21.617c0.13356 2.7749 1.8133 5.0652 4.3398 5.2207l22.848 0.06641c1.1294-0.0184 1.6715-0.34229 0.79687-0.99609-5.2554-3.2586-11.118-6.4713-15.615-11.168-3.736-3.9015-7.2104-8.2386-11.004-14.906-0.25313-0.56397-0.61715-0.95338-0.9082-0.98633z" stroke-width="2.8"/>
<path d="m157-35.578c-1.1294 0.01843-1.6715 0.3423-0.79688 0.99609 5.2554 3.2586 11.118 6.4713 15.615 11.168 3.736 3.9015 7.2104 8.2386 11.004 14.906 0.50626 1.1279 1.4514 1.5563 1.3848-0.16602l-0.0215-21.617c-0.13356-2.7749-1.8114-5.0652-4.3379-5.2207zm-34.133 0.28711c-1.9526-0.02277-3.5234 1.5707-3.5234 3.5234v11.381c0.0119 1.5154 0.54975 2.029 1.8555 3.3809 11.216 11.209 32.86 32.731 45.264 45.256 1.3518 1.3057 1.8654 1.8435 3.3809 1.8555h11.383c1.9527 0 3.5462-1.5728 3.5234-3.5254l-0.13867-12.031c-0.10815-1.7318-0.94731-2.1286-2.1973-3.4688-10.857-10.864-32.045-31.944-44.045-44.037-1.3402-1.25-1.737-2.0872-3.4688-2.1953zm-3.2441 37.299c-0.29105-0.03295-0.50988 0.29119-0.47657 1.1523l0.0195 21.617c0.13356 2.7749 1.8133 5.0652 4.3398 5.2207l22.848 0.06641c1.1294-0.0184 1.6715-0.34229 0.79687-0.99609-5.2554-3.2586-11.118-6.4713-15.615-11.168-3.736-3.9015-7.2104-8.2386-11.004-14.906-0.25313-0.56397-0.61715-0.95338-0.9082-0.98633z" stroke-width="3.3"/>
<path d="m157-35.578c-1.1294 0.01843-1.6715 0.3423-0.79688 0.99609 5.2554 3.2586 11.118 6.4713 15.615 11.168 3.736 3.9015 7.2104 8.2386 11.004 14.906 0.50626 1.1279 1.4514 1.5563 1.3848-0.16602l-0.0215-21.617c-0.13356-2.7749-1.8114-5.0652-4.3379-5.2207zm-34.133 0.28711c-1.9526-0.02277-3.5234 1.5707-3.5234 3.5234v11.381c0.0119 1.5154 0.54975 2.029 1.8555 3.3809 11.216 11.209 32.86 32.731 45.264 45.256 1.3518 1.3057 1.8654 1.8435 3.3809 1.8555h11.383c1.9527 0 3.5462-1.5728 3.5234-3.5254l-0.13867-12.031c-0.10815-1.7318-0.94731-2.1286-2.1973-3.4688-10.857-10.864-32.045-31.944-44.045-44.037-1.3402-1.25-1.737-2.0872-3.4688-2.1953zm-3.2441 37.299c-0.29105-0.03295-0.50988 0.29119-0.47657 1.1523l0.0195 21.617c0.13356 2.7749 1.8133 5.0652 4.3398 5.2207l22.848 0.06641c1.1294-0.0184 1.6715-0.34229 0.79687-0.99609-5.2554-3.2586-11.118-6.4713-15.615-11.168-3.736-3.9015-7.2104-8.2386-11.004-14.906-0.25313-0.56397-0.61715-0.95338-0.9082-0.98633z" stroke-width="4.3"/>
<path d="m157-35.578c-1.1294 0.01843-1.6715 0.3423-0.79688 0.99609 5.2554 3.2586 11.118 6.4713 15.615 11.168 3.736 3.9015 7.2104 8.2386 11.004 14.906 0.50626 1.1279 1.4514 1.5563 1.3848-0.16602l-0.0215-21.617c-0.13356-2.7749-1.8114-5.0652-4.3379-5.2207zm-34.133 0.28711c-1.9526-0.02277-3.5234 1.5707-3.5234 3.5234v11.381c0.0119 1.5154 0.54975 2.029 1.8555 3.3809 11.216 11.209 32.86 32.731 45.264 45.256 1.3518 1.3057 1.8654 1.8435 3.3809 1.8555h11.383c1.9527 0 3.5462-1.5728 3.5234-3.5254l-0.13867-12.031c-0.10815-1.7318-0.94731-2.1286-2.1973-3.4688-10.857-10.864-32.045-31.944-44.045-44.037-1.3402-1.25-1.737-2.0872-3.4688-2.1953zm-3.2441 37.299c-0.29105-0.03295-0.50988 0.29119-0.47657 1.1523l0.0195 21.617c0.13356 2.7749 1.8133 5.0652 4.3398 5.2207l22.848 0.06641c1.1294-0.0184 1.6715-0.34229 0.79687-0.99609-5.2554-3.2586-11.118-6.4713-15.615-11.168-3.736-3.9015-7.2104-8.2386-11.004-14.906-0.25313-0.56397-0.61715-0.95338-0.9082-0.98633z" stroke-width="5.3"/>
<path d="m157-35.578c-1.1294 0.01843-1.6715 0.3423-0.79688 0.99609 5.2554 3.2586 11.118 6.4713 15.615 11.168 3.736 3.9015 7.2104 8.2386 11.004 14.906 0.50626 1.1279 1.4514 1.5563 1.3848-0.16602l-0.0215-21.617c-0.13356-2.7749-1.8114-5.0652-4.3379-5.2207zm-34.133 0.28711c-1.9526-0.02277-3.5234 1.5707-3.5234 3.5234v11.381c0.0119 1.5154 0.54975 2.029 1.8555 3.3809 11.216 11.209 32.86 32.731 45.264 45.256 1.3518 1.3057 1.8654 1.8435 3.3809 1.8555h11.383c1.9527 0 3.5462-1.5728 3.5234-3.5254l-0.13867-12.031c-0.10815-1.7318-0.94731-2.1286-2.1973-3.4688-10.857-10.864-32.045-31.944-44.045-44.037-1.3402-1.25-1.737-2.0872-3.4688-2.1953zm-3.2441 37.299c-0.29105-0.03295-0.50988 0.29119-0.47657 1.1523l0.0195 21.617c0.13356 2.7749 1.8133 5.0652 4.3398 5.2207l22.848 0.06641c1.1294-0.0184 1.6715-0.34229 0.79687-0.99609-5.2554-3.2586-11.118-6.4713-15.615-11.168-3.736-3.9015-7.2104-8.2386-11.004-14.906-0.25313-0.56397-0.61715-0.95338-0.9082-0.98633z" stroke-width="6.3"/>
<path d="m157-35.578c-1.1294 0.01843-1.6715 0.3423-0.79688 0.99609 5.2554 3.2586 11.118 6.4713 15.615 11.168 3.736 3.9015 7.2104 8.2386 11.004 14.906 0.50626 1.1279 1.4514 1.5563 1.3848-0.16602l-0.0215-21.617c-0.13356-2.7749-1.8114-5.0652-4.3379-5.2207zm-34.133 0.28711c-1.9526-0.02277-3.5234 1.5707-3.5234 3.5234v11.381c0.0119 1.5154 0.54975 2.029 1.8555 3.3809 11.216 11.209 32.86 32.731 45.264 45.256 1.3518 1.3057 1.8654 1.8435 3.3809 1.8555h11.383c1.9527 0 3.5462-1.5728 3.5234-3.5254l-0.13867-12.031c-0.10815-1.7318-0.94731-2.1286-2.1973-3.4688-10.857-10.864-32.045-31.944-44.045-44.037-1.3402-1.25-1.737-2.0872-3.4688-2.1953zm-3.2441 37.299c-0.29105-0.03295-0.50988 0.29119-0.47657 1.1523l0.0195 21.617c0.13356 2.7749 1.8133 5.0652 4.3398 5.2207l22.848 0.06641c1.1294-0.0184 1.6715-0.34229 0.79687-0.99609-5.2554-3.2586-11.118-6.4713-15.615-11.168-3.736-3.9015-7.2104-8.2386-11.004-14.906-0.25313-0.56397-0.61715-0.95338-0.9082-0.98633z" stroke-width="7.3"/>
<path d="m157-35.578c-1.1294 0.01843-1.6715 0.3423-0.79688 0.99609 5.2554 3.2586 11.118 6.4713 15.615 11.168 3.736 3.9015 7.2104 8.2386 11.004 14.906 0.50626 1.1279 1.4514 1.5563 1.3848-0.16602l-0.0215-21.617c-0.13356-2.7749-1.8114-5.0652-4.3379-5.2207zm-34.133 0.28711c-1.9526-0.02277-3.5234 1.5707-3.5234 3.5234v11.381c0.0119 1.5154 0.54975 2.029 1.8555 3.3809 11.216 11.209 32.86 32.731 45.264 45.256 1.3518 1.3057 1.8654 1.8435 3.3809 1.8555h11.383c1.9527 0 3.5462-1.5728 3.5234-3.5254l-0.13867-12.031c-0.10815-1.7318-0.94731-2.1286-2.1973-3.4688-10.857-10.864-32.045-31.944-44.045-44.037-1.3402-1.25-1.737-2.0872-3.4688-2.1953zm-3.2441 37.299c-0.29105-0.03295-0.50988 0.29119-0.47657 1.1523l0.0195 21.617c0.13356 2.7749 1.8133 5.0652 4.3398 5.2207l22.848 0.06641c1.1294-0.0184 1.6715-0.34229 0.79687-0.99609-5.2554-3.2586-11.118-6.4713-15.615-11.168-3.736-3.9015-7.2104-8.2386-11.004-14.906-0.25313-0.56397-0.61715-0.95338-0.9082-0.98633z" stroke-width="8.8"/>
<path d="m157-35.578c-1.1294 0.01843-1.6715 0.3423-0.79688 0.99609 5.2554 3.2586 11.118 6.4713 15.615 11.168 3.736 3.9015 7.2104 8.2386 11.004 14.906 0.50626 1.1279 1.4514 1.5563 1.3848-0.16602l-0.0215-21.617c-0.13356-2.7749-1.8114-5.0652-4.3379-5.2207zm-34.133 0.28711c-1.9526-0.02277-3.5234 1.5707-3.5234 3.5234v11.381c0.0119 1.5154 0.54975 2.029 1.8555 3.3809 11.216 11.209 32.86 32.731 45.264 45.256 1.3518 1.3057 1.8654 1.8435 3.3809 1.8555h11.383c1.9527 0 3.5462-1.5728 3.5234-3.5254l-0.13867-12.031c-0.10815-1.7318-0.94731-2.1286-2.1973-3.4688-10.857-10.864-32.045-31.944-44.045-44.037-1.3402-1.25-1.737-2.0872-3.4688-2.1953zm-3.2441 37.299c-0.29105-0.03295-0.50988 0.29119-0.47657 1.1523l0.0195 21.617c0.13356 2.7749 1.8133 5.0652 4.3398 5.2207l22.848 0.06641c1.1294-0.0184 1.6715-0.34229 0.79687-0.99609-5.2554-3.2586-11.118-6.4713-15.615-11.168-3.736-3.9015-7.2104-8.2386-11.004-14.906-0.25313-0.56397-0.61715-0.95338-0.9082-0.98633z" stroke-width="10.3"/>
<path d="m157-35.578c-1.1294 0.01843-1.6715 0.3423-0.79688 0.99609 5.2554 3.2586 11.118 6.4713 15.615 11.168 3.736 3.9015 7.2104 8.2386 11.004 14.906 0.50626 1.1279 1.4514 1.5563 1.3848-0.16602l-0.0215-21.617c-0.13356-2.7749-1.8114-5.0652-4.3379-5.2207zm-34.133 0.28711c-1.9526-0.02277-3.5234 1.5707-3.5234 3.5234v11.381c0.0119 1.5154 0.54975 2.029 1.8555 3.3809 11.216 11.209 32.86 32.731 45.264 45.256 1.3518 1.3057 1.8654 1.8435 3.3809 1.8555h11.383c1.9527 0 3.5462-1.5728 3.5234-3.5254l-0.13867-12.031c-0.10815-1.7318-0.94731-2.1286-2.1973-3.4688-10.857-10.864-32.045-31.944-44.045-44.037-1.3402-1.25-1.737-2.0872-3.4688-2.1953zm-3.2441 37.299c-0.29105-0.03295-0.50988 0.29119-0.47657 1.1523l0.0195 21.617c0.13356 2.7749 1.8133 5.0652 4.3398 5.2207l22.848 0.06641c1.1294-0.0184 1.6715-0.34229 0.79687-0.99609-5.2554-3.2586-11.118-6.4713-15.615-11.168-3.736-3.9015-7.2104-8.2386-11.004-14.906-0.25313-0.56397-0.61715-0.95338-0.9082-0.98633z" stroke-width="11.8"/>
</g>
<path d="m235.24 0.47258c-1.1294 0.01843-1.6715 0.3423-0.79688 0.99609 5.2554 3.2586 11.118 6.4713 15.615 11.168 3.736 3.9015 7.2104 8.2386 11.004 14.906 0.50626 1.1279 1.4514 1.5563 1.3848-0.16602l-0.0215-21.617c-0.13356-2.7749-1.8114-5.0652-4.3379-5.2207zm-34.133 0.28711c-1.9526-0.022771-3.5234 1.5707-3.5234 3.5234v11.381c0.0119 1.5154 0.54975 2.029 1.8555 3.3809 11.216 11.209 32.86 32.731 45.264 45.256 1.3518 1.3057 1.8654 1.8435 3.3809 1.8555h11.383c1.9527 0 3.5462-1.5728 3.5234-3.5254l-0.13867-12.031c-0.10815-1.7318-0.94731-2.1286-2.1973-3.4688-10.857-10.864-32.045-31.944-44.045-44.037-1.3402-1.25-1.737-2.0872-3.4688-2.1953zm-3.2441 37.299c-0.29105-0.03295-0.50988 0.29119-0.47657 1.1523l0.0195 21.617c0.13356 2.7749 1.8133 5.0652 4.3398 5.2207l22.848 0.06641c1.1294-0.0184 1.6715-0.34229 0.79687-0.99609-5.2554-3.2586-11.118-6.4713-15.615-11.168-3.736-3.9015-7.2104-8.2386-11.004-14.906-0.25313-0.56397-0.61715-0.95338-0.9082-0.98633z" fill="#ff3f54"/>
</g>
</svg>
