<svg width="128" height="128" version="1.1" viewBox="0 0 33.867 33.867" xmlns="http://www.w3.org/2000/svg" xmlns:xlink="http://www.w3.org/1999/xlink">
<defs>
<linearGradient id="linearGradient1632" x1="132.21" x2="132.21" y1="42.152" y2="64.966" gradientTransform="matrix(.97573 0 0 .97573 -111.77 -37.183)" gradientUnits="userSpaceOnUse">
<stop stop-color="#ff875f" offset="0"/>
<stop stop-color="#f052c9" offset="1"/>
</linearGradient>
</defs>
<g transform="matrix(.97573 0 0 .97573 -65.737 -37.183)" fill="none" opacity=".295" stroke="#000" stroke-linecap="round" stroke-linejoin="round" stroke-opacity=".02">
<rect x="69.84" y="40.71" width="29.811" height="29.811" rx="6.6099" ry="6.6099" stroke-width=".1"/>
<rect x="69.84" y="40.71" width="29.811" height="29.811" rx="6.6099" ry="6.6099" stroke-width=".2"/>
<rect x="69.84" y="40.71" width="29.811" height="29.811" rx="6.6099" ry="6.6099" stroke-width=".3"/>
<rect x="69.84" y="40.71" width="29.811" height="29.811" rx="6.6099" ry="6.6099" stroke-width=".4"/>
<rect x="69.84" y="40.71" width="29.811" height="29.811" rx="6.6099" ry="6.6099" stroke-width=".5"/>
<rect x="69.84" y="40.71" width="29.811" height="29.811" rx="6.6099" ry="6.6099" stroke-width=".6"/>
<rect x="69.84" y="40.71" width="29.811" height="29.811" rx="6.6099" ry="6.6099" stroke-width=".7"/>
<rect x="69.84" y="40.71" width="29.811" height="29.811" rx="6.6099" ry="6.6099" stroke-width=".8"/>
<rect x="69.84" y="40.71" width="29.811" height="29.811" rx="6.6099" ry="6.6099"/>
<rect x="69.84" y="40.71" width="29.811" height="29.811" rx="6.6099" ry="6.6099" stroke-width="1.2"/>
<rect x="69.84" y="40.71" width="29.811" height="29.811" rx="6.6099" ry="6.6099" stroke-width="1.4"/>
<rect x="69.84" y="40.71" width="29.811" height="29.811" rx="6.6099" ry="6.6099" stroke-width="1.6"/>
<rect x="69.84" y="40.71" width="29.811" height="29.811" rx="6.6099" ry="6.6099" stroke-width="1.8"/>
<rect x="69.84" y="40.71" width="29.811" height="29.811" rx="6.6099" ry="6.6099" stroke-width="2"/>
<rect x="69.84" y="40.71" width="29.811" height="29.811" rx="6.6099" ry="6.6099" stroke-width="2.2"/>
<rect x="69.84" y="40.71" width="29.811" height="29.811" rx="6.6099" ry="6.6099" stroke-width="2.6"/>
<rect x="69.84" y="40.71" width="29.811" height="29.811" rx="6.6099" ry="6.6099" stroke-width="3"/>
<rect x="69.84" y="40.71" width="29.811" height="29.811" rx="6.6099" ry="6.6099" stroke-width="3.4"/>
<rect x="69.84" y="40.71" width="29.811" height="29.811" rx="6.6099" ry="6.6099" stroke-width="3.8"/>
<rect x="69.84" y="40.71" width="29.811" height="29.811" rx="6.6099" ry="6.6099" stroke-width="4.2"/>
<rect x="69.84" y="40.71" width="29.811" height="29.811" rx="6.6099" ry="6.6099" stroke-width="4.6"/>
<rect x="69.84" y="40.71" width="29.811" height="29.811" rx="6.6099" ry="6.6099" stroke-width="5"/>
</g>
<rect x="2.4074" y="2.5392" width="29.087" height="29.087" rx="6.4495" ry="6.4495" fill="url(#linearGradient1632)" stroke-linecap="round" stroke-linejoin="round" stroke-width="2.6877"/>
<path d="m24.74 11.618v7.2607h1.4521v-7.2607zm-15.973 2.9043c-0.80448 0-1.4521 0.64765-1.4521 1.4521v4.3564c0 0.80448 0.64765 1.4521 1.4521 1.4521h1.4521c0.80448 0 1.4521-0.64765 1.4521-1.4521v-4.3564c0-0.80448-0.64765-1.4521-1.4521-1.4521zm5.8085 0s-1.4521 0-1.4521 1.4521v1.4521s0 1.4521 1.4521 1.4521h1.4521v1.4521h-2.9043s0 1.4521 1.4521 1.4521h1.4521s1.4521 0 1.4521-1.4521v-1.4521s0-1.4521-1.4521-1.4521h-1.4521v-1.4521h2.9043s0-1.4521-1.4521-1.4521zm4.3564 0v5.8085c0 1.4521 1.4521 1.4521 1.4521 1.4521h1.4521c1.4521 0 1.4521-1.4521 1.4521-1.4521v-5.8085h-1.4521v5.8085h-1.4521v-5.8085zm-9.4389 1.4521c0.40224 0 0.72607 0.64765 0.72607 1.4521v1.4521c0 0.80448-0.32383 1.4521-0.72607 1.4521-0.40224 0-0.72607-0.64765-0.72607-1.4521v-1.4521c0-0.80448 0.32383-1.4521 0.72607-1.4521zm15.247 4.3564v1.4521h1.4521v-1.4521z" opacity=".2" stroke-width=".48404"/>
<path d="m24.74 11.133v7.2607h1.4521v-7.2607zm-15.973 2.9043c-0.80448 0-1.4521 0.64765-1.4521 1.4521v4.3564c0 0.80448 0.64765 1.4521 1.4521 1.4521h1.4521c0.80448 0 1.4521-0.64765 1.4521-1.4521v-4.3564c0-0.80448-0.64765-1.4521-1.4521-1.4521zm5.8085 0s-1.4521 0-1.4521 1.4521v1.4521s0 1.4521 1.4521 1.4521h1.4521v1.4521h-2.9043s0 1.4521 1.4521 1.4521h1.4521s1.4521 0 1.4521-1.4521v-1.4521s0-1.4521-1.4521-1.4521h-1.4521v-1.4521h2.9043s0-1.4521-1.4521-1.4521zm4.3564 0v5.8085c0 1.4521 1.4521 1.4521 1.4521 1.4521h1.4521c1.4521 0 1.4521-1.4521 1.4521-1.4521v-5.8085h-1.4521v5.8085h-1.4521v-5.8085zm-9.4389 1.4521c0.40224 0 0.72607 0.64765 0.72607 1.4521v1.4521c0 0.80448-0.32383 1.4521-0.72607 1.4521-0.40224 0-0.72607-0.64765-0.72607-1.4521v-1.4521c0-0.80448 0.32383-1.4521 0.72607-1.4521zm15.247 4.3564v1.4521h1.4521v-1.4521z" fill="#fff" stroke-width=".48404"/>
</svg>
