<svg width="128" height="128" version="1.1" viewBox="0 0 128 128" xmlns="http://www.w3.org/2000/svg" xmlns:xlink="http://www.w3.org/1999/xlink">
<defs>
<linearGradient id="linearGradient5190">
<stop stop-color="#fff" stop-opacity="0" offset="0"/>
<stop stop-color="#fff" stop-opacity=".2" offset=".26995"/>
<stop stop-color="#d5e1ee" stop-opacity=".85" offset=".37416"/>
<stop stop-color="#e8edf6" offset=".48819"/>
<stop stop-color="#ebf0f9" stop-opacity=".85" offset=".5959"/>
<stop stop-color="#fff" stop-opacity=".2" offset=".71501"/>
<stop stop-color="#e8e8e8" stop-opacity="0" offset="1"/>
</linearGradient>
<linearGradient id="linearGradient3631" x1="-62.747" x2="-33.313" y1="76.556" y2="35.309" gradientTransform="matrix(.96123 0 0 .96123 52.064 -10.159)" gradientUnits="userSpaceOnUse" xlink:href="#linearGradient5190"/>
<linearGradient id="linearGradient5208" x1="-62.747" x2="-33.313" y1="76.556" y2="35.309" gradientTransform="matrix(.96123 0 0 .96123 87.746 -70.643)" gradientUnits="userSpaceOnUse" xlink:href="#linearGradient5190"/>
<linearGradient id="linearGradient5212" x1="-62.747" x2="-33.313" y1="76.556" y2="35.309" gradientTransform="matrix(.80528 0 0 .80528 44.665 -1.4051)" gradientUnits="userSpaceOnUse" xlink:href="#linearGradient5190"/>
<linearGradient id="linearGradient5220" x1="-62.747" x2="-33.313" y1="76.556" y2="35.309" gradientTransform="matrix(.80528 0 0 .80528 -3.1387 -32.172)" gradientUnits="userSpaceOnUse" xlink:href="#linearGradient5190"/>
<linearGradient id="linearGradient5270" x1="-62.747" x2="-33.313" y1="76.556" y2="35.309" gradientTransform="matrix(.62794 0 0 .62794 36.049 8.5743)" gradientUnits="userSpaceOnUse" xlink:href="#linearGradient5190"/>
<linearGradient id="linearGradient5274" x1="-62.747" x2="-33.313" y1="76.556" y2="35.309" gradientTransform="matrix(.64884 0 0 .64884 -10.251 -21.893)" gradientUnits="userSpaceOnUse" xlink:href="#linearGradient5190"/>
<linearGradient id="linearGradient5278" x1="-62.747" x2="-33.313" y1="76.556" y2="35.309" gradientTransform="matrix(.51648 0 0 .51648 30.634 14.847)" gradientUnits="userSpaceOnUse" xlink:href="#linearGradient5190"/>
<linearGradient id="linearGradient5282" x1="-62.747" x2="-33.313" y1="76.556" y2="35.309" gradientTransform="matrix(.34847 0 0 .34847 22.471 24.301)" gradientUnits="userSpaceOnUse" xlink:href="#linearGradient5190"/>
<linearGradient id="linearGradient5288" x1="-62.747" x2="-33.313" y1="76.556" y2="35.309" gradientTransform="matrix(.34847 0 0 .34847 -25.419 -6.7507)" gradientUnits="userSpaceOnUse" xlink:href="#linearGradient5190"/>
<linearGradient id="linearGradient5298" x1="48.952" x2="48.952" y1="1032.5" y2="1028" gradientTransform="matrix(1.3212 0 0 1.3212 -4.4711 -1247.8)" gradientUnits="userSpaceOnUse">
<stop stop-color="#b8c5d3" offset="0"/>
<stop stop-color="#dfe4e9" offset="1"/>
</linearGradient>
<linearGradient id="linearGradient5302" x1="-62.747" x2="-33.313" y1="76.556" y2="35.309" gradientTransform="matrix(.26139 0 0 .26139 18.241 29.201)" gradientUnits="userSpaceOnUse" xlink:href="#linearGradient5190"/>
<linearGradient id="linearGradient5306" x1="-62.747" x2="-33.313" y1="76.556" y2="35.309" gradientTransform="matrix(.26139 0 0 .26139 55.009 -27.699)" gradientUnits="userSpaceOnUse" xlink:href="#linearGradient5190"/>
<linearGradient id="linearGradient5327" x1="48.095" x2="48.095" y1="994.35" y2="996.96" gradientTransform="translate(-91.932 -990.28)" gradientUnits="userSpaceOnUse">
<stop stop-color="#dde2ec" offset="0"/>
<stop stop-color="#fff" offset="1"/>
</linearGradient>
<linearGradient id="linearGradient1321" x1="25.623" x2="32.963" y1="7.3841" y2="27.761" gradientTransform="matrix(5.0145 0 0 5.0145 -89.415 -15.584)" gradientUnits="userSpaceOnUse">
<stop stop-color="#fff" offset="0"/>
<stop stop-color="#f5f5f3" offset="1"/>
</linearGradient>
<linearGradient id="linearGradient1346" x1="39.107" x2="38.341" y1="23.638" y2="4.3235" gradientTransform="matrix(5.0145 0 0 5.0145 -123.89 5.8158)" gradientUnits="userSpaceOnUse">
<stop stop-color="#343231" offset="0"/>
<stop stop-color="#3e3c3a" offset="1"/>
</linearGradient>
</defs>
<g transform="matrix(5.0145 0 0 5.0145 -120.57 25.114)" fill-opacity=".13736" opacity=".25" shape-rendering="auto">
<path d="m27.537-2.239c-0.70123 0.10892-1.1797 0.76565-1.0707 1.4669l3.0767 19.807c0.10892 0.70123 0.76402 1.1819 1.4653 1.073l16.017-2.4879c0.70123-0.10892 1.1816-0.76595 1.0727-1.4672l-3.0767-19.807c-0.10892-0.70123-0.76595-1.1816-1.4672-1.0727zm0.03088 0.19879c-18.404 18.376-9.2019 9.1878 0 0z" color="#000000" color-rendering="auto" dominant-baseline="auto" image-rendering="auto" opacity="1" solid-color="#000000" style="font-feature-settings:normal;font-variant-alternates:normal;font-variant-caps:normal;font-variant-ligatures:normal;font-variant-numeric:normal;font-variant-position:normal;isolation:auto;mix-blend-mode:normal;paint-order:fill markers stroke;shape-padding:0;text-decoration-color:#000000;text-decoration-line:none;text-decoration-style:solid;text-indent:0;text-orientation:mixed;text-transform:none;white-space:normal"/>
<path d="m27.416-2.2217c-0.70339 0.10968-1.1833 0.77097-1.074 1.4771l3.0861 19.945c0.10926 0.7061 0.76637 1.1901 1.4698 1.0804l16.066-2.5051c0.70339-0.10968 1.1852-0.77127 1.076-1.4774l-3.0861-19.945c-0.10926-0.7061-0.76831-1.1898-1.4717-1.0801zm0.03098 0.20017c-18.46 18.503-9.2302 9.2516 0 0z" color="#000000" color-rendering="auto" dominant-baseline="auto" image-rendering="auto" opacity="1" solid-color="#000000" style="font-feature-settings:normal;font-variant-alternates:normal;font-variant-caps:normal;font-variant-ligatures:normal;font-variant-numeric:normal;font-variant-position:normal;isolation:auto;mix-blend-mode:normal;paint-order:fill markers stroke;shape-padding:0;text-decoration-color:#000000;text-decoration-line:none;text-decoration-style:solid;text-indent:0;text-orientation:mixed;text-transform:none;white-space:normal"/>
<path d="m27.32-2.199c-0.70209 0.11066-1.1811 0.77791-1.0721 1.4904l3.0804 20.125c0.10906 0.71246 0.76496 1.2008 1.4671 1.0902l16.037-2.5277c0.7021-0.11066 1.183-0.77822 1.074-1.4907l-3.0804-20.125c-0.10906-0.71246-0.7669-1.2005-1.469-1.0898zm0.03092 0.20197c-18.427 18.67-9.2133 9.335 0 0z" color="#000000" color-rendering="auto" dominant-baseline="auto" image-rendering="auto" opacity="1" solid-color="#000000" style="font-feature-settings:normal;font-variant-alternates:normal;font-variant-caps:normal;font-variant-ligatures:normal;font-variant-numeric:normal;font-variant-position:normal;isolation:auto;mix-blend-mode:normal;paint-order:fill markers stroke;shape-padding:0;text-decoration-color:#000000;text-decoration-line:none;text-decoration-style:solid;text-indent:0;text-orientation:mixed;text-transform:none;white-space:normal"/>
</g>
<rect transform="rotate(-8.8291)" x="9.7268" y="16.349" width="93.156" height="112.39" rx="5.9374" ry="5.9374" fill="url(#linearGradient1321)" style="paint-order:fill markers stroke"/>
<rect transform="rotate(-8.9012)" x="12.589" y="19.372" width="87.249" height="106.49" rx="4.9279" ry="4.9279" fill="url(#linearGradient1346)" style="paint-order:fill markers stroke"/>
<g transform="matrix(1.368 0 0 1.368 125.83 44.465)">
<path transform="scale(-1,1)" d="m37.462 29.513a25 25 0 0 1-17.684-30.595 25 25 0 0 1 30.577-17.714 25 25 0 0 1 17.745 30.56 25 25 0 0 1-30.542 17.775" fill="#060606"/>
<path transform="scale(-1,1)" d="m37.591 29.03a24.5 24.5 0 0 1-17.33-29.983 24.5 24.5 0 0 1 29.966-17.36 24.5 24.5 0 0 1 17.39 29.948 24.5 24.5 0 0 1-29.931 17.419" fill="#d8e4f4"/>
<path transform="scale(-1,1)" d="m37.723 28.539a23.992 23.992 0 0 1-16.971-29.361 23.992 23.992 0 0 1 29.345-17 23.992 23.992 0 0 1 17.029 29.328 23.992 23.992 0 0 1-29.311 17.058" fill="#8193ab"/>
<circle transform="rotate(195)" cx="41.047" cy="-16.552" r="24" fill="url(#linearGradient5208)"/>
<circle transform="rotate(90)" cx="5.3644" cy="43.932" r="24" fill="url(#linearGradient3631)"/>
<path transform="scale(-1,1)" d="m38.589 25.304a20.643 20.643 0 0 1-14.602-25.263 20.643 20.643 0 0 1 25.249-14.627 20.643 20.643 0 0 1 14.652 25.234 20.643 20.643 0 0 1-25.22 14.677" fill="#ced8e7"/>
<path transform="scale(-1,1)" d="m38.719 24.822a20.143 20.143 0 0 1-14.249-24.651 20.143 20.143 0 0 1 24.637-14.273 20.143 20.143 0 0 1 14.298 24.623 20.143 20.143 0 0 1-24.609 14.322" fill="#8c98ac"/>
<path transform="scale(-1,1)" d="m38.848 24.339a19.644 19.644 0 0 1-13.895-24.04 19.644 19.644 0 0 1 24.026-13.919 19.644 19.644 0 0 1 13.943 24.012 19.644 19.644 0 0 1-23.998 13.967" fill="#8f9eb2"/>
<circle transform="rotate(10.313)" cx="-42.262" cy="13.143" r="20.106" fill="url(#linearGradient5220)" opacity=".7"/>
<path transform="scale(-1,1)" d="m39.66 21.309a16.507 16.507 0 0 1-11.677-20.201 16.507 16.507 0 0 1 20.19-11.697 16.507 16.507 0 0 1 11.717 20.178 16.507 16.507 0 0 1-20.167 11.737" fill="#7f8fa5"/>
<circle transform="rotate(90.231)" cx="5.5414" cy="43.91" r="20.106" fill="url(#linearGradient5212)" opacity=".8"/>
<path transform="scale(-1,1)" d="m39.771 20.893a16.077 16.077 0 0 1-11.372-19.675 16.077 16.077 0 0 1 19.663-11.392 16.077 16.077 0 0 1 11.411 19.652 16.077 16.077 0 0 1-19.641 11.431" fill="#93a0b3"/>
<circle transform="rotate(12.326)" cx="-41.774" cy="14.619" r="16.2" fill="url(#linearGradient5274)" opacity=".9"/>
<circle transform="rotate(90.231)" cx="5.5414" cy="43.91" r="15.679" fill="url(#linearGradient5270)" opacity=".9"/>
<path transform="scale(-1,1)" d="m40.597 17.812a12.887 12.887 0 0 1-9.1158-15.771 12.887 12.887 0 0 1 15.762-9.1314 12.887 12.887 0 0 1 9.147 15.753 12.887 12.887 0 0 1-15.744 9.1626" fill="#b9c4d2"/>
<path transform="scale(-1,1)" d="m40.726 17.329a12.387 12.387 0 0 1-8.762-15.159 12.387 12.387 0 0 1 15.15-8.7771 12.387 12.387 0 0 1 8.7921 15.142 12.387 12.387 0 0 1-15.133 8.8071" fill="#8696a9"/>
<path transform="scale(-1,1)" d="m41.438 14.674a9.6375 9.6375 0 0 1-6.8172-11.794 9.6375 9.6375 0 0 1 11.787-6.8289 9.6375 9.6375 0 0 1 6.8406 11.781 9.6375 9.6375 0 0 1-11.774 6.8522" fill="#0ff"/>
<path transform="scale(-1,1)" d="m40.869 16.795a11.833 11.833 0 0 1-8.3705-14.482 11.833 11.833 0 0 1 14.473-8.3849 11.833 11.833 0 0 1 8.3992 14.465 11.833 11.833 0 0 1-14.457 8.4135" fill="#a1aec1"/>
<circle transform="rotate(90.231)" cx="5.5414" cy="43.91" r="12.895" fill="url(#linearGradient5278)" opacity=".7"/>
<path transform="scale(-1,1)" d="m41.567 14.19a9.1374 9.1374 0 0 1-6.4634-11.182 9.1374 9.1374 0 0 1 11.176-6.4745 9.1374 9.1374 0 0 1 6.4856 11.169 9.1374 9.1374 0 0 1-11.163 6.4966" fill="#c0c8d1"/>
<path transform="scale(-1,1)" d="m42.153 12.006a6.8761 6.8761 0 0 1-4.8639-8.4149 6.8761 6.8761 0 0 1 8.4101-4.8722 6.8761 6.8761 0 0 1 4.8806 8.4053 6.8761 6.8761 0 0 1-8.4004 4.8889" fill="#0ff"/>
<path transform="scale(-1,1)" d="m41.68 13.77a8.7025 8.7025 0 0 1-6.1558-10.65 8.7025 8.7025 0 0 1 10.644-6.1664 8.7025 8.7025 0 0 1 6.1769 10.638 8.7025 8.7025 0 0 1-10.632 6.1874" fill="#8695a6"/>
<circle transform="rotate(9.9283)" cx="-42.349" cy="12.859" r="8.7007" fill="url(#linearGradient5288)" opacity=".7"/>
<circle transform="rotate(90.231)" cx="5.5414" cy="43.91" r="8.7007" fill="url(#linearGradient5282)" opacity=".7"/>
<path transform="scale(-1,1)" d="m42.243 11.67a6.5282 6.5282 0 0 1-4.6178-7.9892 6.5282 6.5282 0 0 1 7.9846-4.6257 6.5282 6.5282 0 0 1 4.6336 7.98 6.5282 6.5282 0 0 1-7.9754 4.6415" fill="#5a6878"/>
<path transform="scale(-1,1)" d="m42.355 11.25a6.0934 6.0934 0 0 1-4.3102-7.457 6.0934 6.0934 0 0 1 7.4527-4.3176 6.0934 6.0934 0 0 1 4.325 7.4484 6.0934 6.0934 0 0 1-7.4442 4.3324" fill="#99a6b5"/>
<circle transform="rotate(90.231)" cx="5.5414" cy="43.91" r="6.5264" fill="url(#linearGradient5302)" opacity=".7"/>
<circle transform="rotate(190.11)" cx="42.309" cy="-12.99" r="6.5264" fill="url(#linearGradient5306)" opacity=".5"/>
<path d="m-44.318 6.8055a1.492 1.492 0 0 1-1.0554-1.8259 1.492 1.492 0 0 1 1.8248-1.0572 1.492 1.492 0 0 1 1.059 1.8238 1.492 1.492 0 0 1-1.8227 1.0608" fill="url(#linearGradient5327)" opacity=".75"/>
<path d="m-44.191 6.3303a1 1 0 0 1-0.70736-1.2238 1 1 0 0 1 1.2231-0.70857 1 1 0 0 1 0.70978 1.2224 1 1 0 0 1-1.2217 0.711"/>
</g>
<rect transform="rotate(-8.3022)" x="32.579" y="106.52" width="51.349" height="12.675" rx="1.239" ry="1.239" fill="#020303" opacity=".3"/>
<rect transform="rotate(-8.3022)" x="32.579" y="105.2" width="51.349" height="12.675" rx="1.239" ry="1.239" fill="url(#linearGradient5298)"/>
<path d="m48.984 110.06 0.09501 0.65111c0.09911 0.67923 0.72562 1.1484 1.4048 1.0493l48.361-7.057c0.67922-0.0991 1.1455-0.7278 1.0464-1.407l-0.09501-0.65111c0.09911 0.67922-0.36755 1.3054-1.0468 1.4045l-48.361 7.057c-0.67922 0.0991-1.3054-0.36755-1.4045-1.0468z" fill="#c4d3e1"/>
<path d="m48.653 99.219c-0.67922 0.09911-1.1459 0.72524-1.0468 1.4045l0.09539 0.65367c-0.09911-0.67923 0.36755-1.3054 1.0468-1.4045l48.361-7.057c0.67922-0.09911 1.3054 0.36755 1.4045 1.0468l-0.09539-0.65366c-0.09911-0.67922-0.72524-1.1459-1.4045-1.0468z" fill="#fff"/>
<path d="m61.896 98.748c-0.1852 0.03158-0.3729 0.07357-0.56321 0.12537-0.38061 0.10362-0.77567 0.27366-1.1852 0.51015-0.52368 0.3142-0.9498 0.66891-1.2783 1.0641-0.32855 0.3952-0.56703 0.80143-0.71543 1.2187-0.14526 0.41681-0.20976 0.81381-0.1935 1.191 0.01943 0.37676 0.11496 0.70223 0.28676 0.97642 0.17131 0.27104 0.4113 0.46131 0.71996 0.57083 0.30866 0.10952 0.67938 0.10385 1.1122-0.017 0.28163-0.0763 0.5224-0.20144 0.72229-0.37526 0.20259-0.17744 0.36234-0.38404 0.47924-0.61978 0.12005-0.23621 0.19507-0.48356 0.22503-0.74204 0.03262-0.2621 0.01962-0.51755-0.0391-0.76636-0.02264-0.0674-0.06143-0.10204-0.11641-0.1037-0.05498-2e-3 -0.10325 0.0201-0.14503 0.0645-0.0418 0.0447-0.06074 0.1021-0.05699 0.17234 0.09216 0.27933 0.11142 0.54513 0.05806 0.79738-0.05064 0.24862-0.15007 0.47218-0.29813 0.67064-0.14538 0.19485-0.31583 0.34991-0.51138 0.46522-0.1924 0.11479-0.38628 0.1752-0.58164 0.1811-0.19537 6e-3 -0.36682-0.056-0.51437-0.18577-0.148-0.13288-0.24802-0.34512-0.30008-0.63672-0.05296-0.29467-0.03501-0.6833 0.05243-1.1657 0.11955-0.61572 0.34242-1.1403 0.66862-1.5738 0.32573-0.43661 0.73048-0.78339 1.2142-1.0403 0.48331-0.26009 1.0204-0.43792 1.6113-0.5335 0.24256-0.0353 0.4719-0.0509 0.688-0.047 0.21925 3e-3 0.4347 0.014 0.64634 0.0315 0.163 0.0149 0.3287 0.0262 0.4971 0.0339 0.16793 5e-3 0.33945 5.2e-4 0.51454-0.0121-0.20117 0.20941-0.38113 0.43181-0.5399 0.66721-0.15562 0.23494-0.2946 0.46265-0.41695 0.6831-0.19091 0.34623-0.44674 0.83219-0.7675 1.4579-0.24012 0.47241-0.4975 0.96985-0.77214 1.4923-0.27511 0.51932-0.54982 1.0193-0.82412 1.4999-0.27161 0.477-0.52741 0.88575-0.76741 1.2262-0.11978 0.17182-0.25555 0.33311-0.40733 0.48387-0.15179 0.15073-0.31984 0.27812-0.50416 0.38213-0.18385 0.10717-0.38446 0.17655-0.60183 0.20816-0.04175 0.0221-0.06852 0.0486-0.08014 0.0792-0.0085 0.0301 0.0016 0.0528 0.02921 0.0681 0.05811 0.0237 0.15112 0.0327 0.27895 0.0269 0.13099-6e-3 0.26241-0.0205 0.39426-0.0429 0.13546-0.0197 0.23869-0.0398 0.30981-0.0595 0.06466-0.0195 0.12933-0.0397 0.19364-0.062 0.39452-0.11851 0.7694-0.17303 1.1246-0.16356 0.35838 9e-3 0.70446 0.0552 1.0383 0.13852 0.33742 0.086 0.66676 0.18289 0.98802 0.29057 0.3109 0.10277 0.62019 0.1945 0.92787 0.27521 0.31085 0.0802 0.62791 0.12582 0.95117 0.1367 0.32326 0.0109 0.65787-0.0329 1.0038-0.13155 0.30769-0.0962 0.58482-0.25876 0.8314-0.48763 0.24704-0.22573 0.46265-0.50157 0.64686-0.82751 0.18466-0.32281 0.33775-0.67481 0.45923-1.056 0.01607-0.0667 0.0051-0.1085-0.0327-0.12552-0.03785-0.017-0.07948-5e-3 -0.12484 0.0375-0.07842 0.32343-0.19346 0.58303-0.34514 0.7788-0.14806 0.19846-0.36824 0.36559-0.66052 0.50139-0.31027 0.14486-0.64273 0.23663-0.99739 0.27533-0.3515 0.0383-0.71593 0.043-1.0933 0.0143-0.34491-0.0271-0.64866-0.0585-0.91121-0.0943-0.25941-0.0363-0.49292-0.0715-0.70054-0.10561-0.34412-0.0658-0.67512-0.10769-0.99299-0.12579-0.31474-0.0186-0.6944 0.0141-1.139 0.098 0.07099-0.065 0.13787-0.13585 0.2007-0.21254 0.22889-0.28421 0.46705-0.63731 0.71449-1.0593 0.25014-0.42563 0.50019-0.88501 0.75014-1.3782 0.24996-0.49314 0.49408-0.98222 0.73237-1.4672 0.34487-0.70318 0.65397-1.3095 0.92731-1.8189 0.05879-0.10506 0.12389-0.23195 0.19554-0.3807 0.09005-0.17715 0.18951-0.36693 0.2984-0.56934 0.11159-0.20602 0.23241-0.40374 0.36249-0.59314 0.13277-0.19302 0.27439-0.35838 0.42486-0.49607 0.15316-0.1413 0.31611-0.23737 0.48886-0.28823 0.01845-0.0058 0.02624-0.01828 0.02349-0.03722 2.16e-4 -0.01936-0.0072-0.03591-0.02171-0.0499-0.01532-0.0171-0.0375-0.02509-0.06627-0.02416-0.16021 0.02643-0.31204 0.06626-0.45552 0.1193-0.05215 0.01729-0.10232 0.03739-0.15044 0.06047-0.3913 0.14055-0.77916 0.22751-1.1635 0.26091-0.38123 0.03294-0.76521 0.04694-1.1519 0.04208-0.34441-0.0014-0.69666 0.0096-1.0568 0.03306-0.18004 0.01172-0.36267 0.03341-0.54783 0.06521zm24.671-1.5807c-0.126 0.01833-0.2267 0.07794-0.30208 0.17904-0.07218 0.10054-0.09941 0.2123-0.08154 0.33516 0.01787 0.12286 0.07567 0.22221 0.17363 0.29803 0.101 0.07535 0.21456 0.10391 0.34056 0.08559 0.12286-0.01787 0.22041-0.07702 0.29262-0.17768 0.07535-0.101 0.10414-0.21298 0.08627-0.33583-0.01787-0.12286-0.07725-0.22198-0.17836-0.29736-0.09783-0.07581-0.20825-0.10482-0.33111-0.08695zm-20.563 4.2982c-0.17641 0.0257-0.33225 0.0933-0.46747 0.2031-0.13209 0.10925-0.24564 0.24643-0.34066 0.41144-0.09548 0.16186-0.17404 0.34055-0.23568 0.5361-0.05889 0.19192-0.10279 0.38811-0.13154 0.58852-0.03238 0.19771-0.04967 0.38842-0.0519 0.5721-0.0026 0.18053 0.0058 0.33854 0.02548 0.47399 0.03115 0.21422 0.08828 0.38606 0.17148 0.51549 0.08003 0.1299 0.1768 0.22038 0.29038 0.27141 0.11674 0.0506 0.24126 0.0662 0.37356 0.047 0.08194-0.0119 0.168-0.0614 0.25827-0.14855 0.09341-0.0876 0.18205-0.19697 0.2659-0.32818 0.0834-0.13437 0.15709-0.2802 0.22107-0.43747 0.01972 0.17726 0.06744 0.31991 0.14427 0.42777 0.07999 0.10738 0.17918 0.18142 0.29768 0.22208 0.17979 0.0639 0.34277 0.0676 0.48895 0.0109 0.14887-0.0602 0.28232-0.16008 0.40036-0.29949 0.1818-0.20981 0.34527-0.45715 0.49042-0.74204 0.04067-0.081 0.07522-0.16024 0.11223-0.24021-0.0238 0.25046-0.0046 0.4572 0.0629 0.61524 0.07923 0.19114 0.20518 0.31597 0.37775 0.3745 0.17979 0.0639 0.34277 0.0676 0.48896 0.011 0.14571-0.0598 0.27916-0.15962 0.40036-0.29949 0.15711-0.18048 0.29836-0.40368 0.42374-0.66961l-0.21824 1.0209c-0.19148 0.12112-0.37505 0.25238-0.55072 0.39374-0.17206 0.14404-0.3121 0.30916-0.42014 0.49537-0.11071 0.18981-0.17003 0.41236-0.17793 0.66764-0.0016 0.25436 0.06849 0.47096 0.21031 0.64978 0.13911 0.18243 0.33926 0.28682 0.60044 0.31316 0.17876 0.0126 0.34452-0.0531 0.49719-0.19777 0.15316-0.14129 0.2721-0.37411 0.35682-0.69847l0.35304-1.6533c0.14383-0.095 0.28402-0.20376 0.42057-0.32655 0.13924-0.12641 0.24499-0.22865 0.31728-0.30672 0.1818-0.2098 0.34573-0.454 0.4918-0.73258 0.04788-0.0926 0.08903-0.1833 0.13186-0.27443l-0.26445 1.2539 0.88363-0.12851c0.04113-0.11536 0.09356-0.2967 0.15731-0.54402 0.06691-0.24776 0.14567-0.52461 0.23629-0.83053 0.09016-0.30906 0.19003-0.60666 0.29959-0.89281 0.11272-0.28661 0.23122-0.52259 0.35544-0.70794 0.12693-0.18894 0.25993-0.29193 0.39899-0.30894 0.01933 2.2e-4 0.03766 5e-3 0.0547 0.0114 0.0166 4e-3 0.03105 0.0148 0.0433 0.0323 0.05109 0.0858 0.06466 0.21256 0.04083 0.38008-0.02123 0.16393-0.09523 0.35162-0.2221 0.56308l1.0194-0.38952c0.01814-0.11844 0.02688-0.23552 0.02612-0.35121 0.0024-0.11615-0.0084-0.22395-0.03258-0.32338-0.02501-0.10252-0.06621-0.18981-0.12486-0.26171-0.05876-0.0719-0.13852-0.123-0.23944-0.15336-0.10138-0.0336-0.23082-0.0388-0.38834-0.0159-0.05987 9e-3 -0.13385 0.0308-0.22199 0.0661-0.08496 0.0349-0.17782 0.0934-0.27846 0.17561-0.09749 0.0817-0.19534 0.19408-0.29357 0.33704-0.09509 0.1425-0.18309 0.32257-0.26403 0.54022l0.21222-0.99591-0.88836 0.1292-0.29788 1.4122c-0.11434 0.26523-0.24198 0.54672-0.38655 0.84901-0.10528 0.20511-0.25935 0.42857-0.46223 0.67039s-0.40968 0.4456-0.6204 0.61135l0.72139-3.4006-0.88835 0.12919c-4.31e-4 -3e-3 -2e-3 2.9e-4 -0.0035 0.0106-0.0058 0.0297-0.01042 0.061-0.01525 0.0939l-0.11549 0.53309c-0.10202 0.4266-0.22256 0.82533-0.36164 1.1962-0.13592 0.37041-0.27694 0.68365-0.42306 0.93973-0.14612 0.25608-0.28413 0.42412-0.41403 0.50414-0.08089 0.0407-0.1369 0.01-0.1677-0.0914-0.02769-0.10213-0.02454-0.257 0.0096-0.46463l0.54722-2.5742-0.88834 0.12919-0.31379 1.4821c-0.09536 0.21629-0.19638 0.44015-0.31214 0.68378-0.12985 0.27945-0.26586 0.52762-0.40803 0.74452-0.13902 0.21644-0.27373 0.35184-0.40414 0.40621-0.08588 0.0285-0.14138-0.01-0.16643-0.11574-0.02593-0.10882-0.01958-0.26736 0.01776-0.47545l0.5425-2.5736-0.88835 0.1292-0.07742 0.36349c-0.08904-0.10289-0.19921-0.17534-0.33077-0.21732-0.12888-0.0456-0.28939-0.0544-0.48155-0.0265zm10.567-1.5268c-0.16066 0.0234-0.30771 0.085-0.44118 0.18479-0.1303 0.0994-0.24704 0.22572-0.35019 0.37905-0.10046 0.14972-0.18512 0.31966-0.25397 0.50981-0.06614 0.18655-0.11519 0.38026-0.1471 0.58112-0.03509 0.20134-0.04963 0.39968-0.04374 0.59504 0.0059 0.19538 0.03245 0.37809 0.07972 0.54814 0.04727 0.17006 0.11534 0.31778 0.20438 0.44316 0.08897 0.12539 0.20066 0.21851 0.33497 0.2794 0.13747 0.0604 0.29755 0.0774 0.48027 0.0508 0.14176-0.0206 0.26838-0.0679 0.37984-0.14204 0.11461-0.0746 0.21679-0.16825 0.30655-0.28103 0.0893-0.11593 0.1655-0.24442 0.22862-0.38548 0.06576-0.14468 0.12103-0.29587 0.16566-0.45355 0.21541-0.0892 0.41362-0.21939 0.59462-0.39046 0.07576-0.0732 0.14243-0.1519 0.20381-0.23424l-0.35213 1.6696 0.88363-0.12852c0.03796-0.11489 0.09042-0.29623 0.15732-0.544 0.0669-0.24778 0.14566-0.52463 0.23628-0.83054 0.09016-0.30907 0.19003-0.60667 0.29959-0.89282 0.11272-0.2866 0.23122-0.52258 0.35544-0.70792 0.12693-0.18896 0.25993-0.29194 0.399-0.30895 0.01617 6.8e-4 0.03291 5e-3 0.04995 0.012 0.01976 3e-3 0.0359 0.0141 0.04805 0.0316 0.03352 0.0756 0.04231 0.18041 0.02646 0.31461s-0.03491 0.24634-0.05721 0.33644c-0.0021 6e-3 -0.0033 0.0118-0.0029 0.0149l-0.23027 1.0709c-0.05453 0.33283-0.04036 0.59617 0.04254 0.78998 0.0824 0.19068 0.20834 0.31551 0.37776 0.37451 0.17979 0.0639 0.34276 0.0676 0.48894 0.011 0.14887-0.0603 0.28233-0.16009 0.40036-0.29949 0.18181-0.20981 0.34527-0.45715 0.49042-0.74204 0.14468-0.28804 0.2662-0.5695 0.36455-0.84436 0.09789-0.27802 0.16777-0.50531 0.20964-0.6819 2.35e-4 -8.1e-4 -1.6e-4 -2e-3 1.87e-4 -2e-3 0.06101-0.21765 0.11395-0.42225 0.14893-0.59828 0.0107-0.0369 0.01958-0.0752 0.02675-0.11487l0.50086 1.2541-1.0156 1.8752 0.8411-0.12233 0.50211-0.92709c0.05346 0.14663 0.11867 0.28512 0.19553 0.41548 0.08003 0.1299 0.18019 0.22149 0.30052 0.27476 0.1744 0.0711 0.33604 0.0766 0.48489 0.0163 0.14841-0.0634 0.28322-0.16504 0.40441-0.3049 0.1818-0.2098 0.34527-0.45715 0.49041-0.74204 0.05353-0.10439 0.10003-0.20685 0.14704-0.30945-0.03661 0.28047-0.02158 0.50964 0.05176 0.68105 0.0824 0.19067 0.20833 0.3155 0.37775 0.3745 0.18293 0.0634 0.3475 0.0669 0.49368 0.0102 0.1457-0.0598 0.27759-0.15939 0.39564-0.2988 0.18494-0.21027 0.34999-0.45783 0.49513-0.74272 0.07934-0.15793 0.14938-0.31347 0.21383-0.4673 0.01133 0.14736 0.03198 0.28935 0.06936 0.42128 0.04727 0.17006 0.11534 0.31778 0.20439 0.44316 0.08897 0.12539 0.20067 0.21851 0.33498 0.2794 0.13746 0.0604 0.29754 0.0774 0.48026 0.0508 0.14176-0.0206 0.26838-0.0679 0.37984-0.14205 0.11461-0.0746 0.21679-0.16824 0.30655-0.28102 0.0893-0.11593 0.1655-0.24443 0.22863-0.38549 0.06576-0.14468 0.12103-0.29587 0.16565-0.45355 0.21542-0.0892 0.41362-0.21939 0.59462-0.39047 0.18053-0.17424 0.32027-0.3747 0.41919-0.60139 0.06485-0.15098 0.11472-0.29494 0.14949-0.43189 0.02268-0.10946 0.02302-0.17385 8.13e-4 -0.19313-0.0194-0.023-0.04303-8e-3 -0.07078 0.0442-0.03136 0.0721-0.06778 0.153-0.10946 0.2427-0.05549 0.12709-0.13775 0.26934-0.24675 0.42674-0.09015 0.13213-0.1905 0.2384-0.30105 0.31882-0.111 0.0773-0.22656 0.13427-0.34667 0.17105 0.03192-0.20087 0.05033-0.39495 0.05526-0.58224 0.0044-0.19044-4e-3 -0.35971-0.02555-0.50777-0.01787-0.12285-0.05237-0.23848-0.1035-0.34685-0.05113-0.10836-0.12091-0.20115-0.20937-0.27835-0.08536-0.07762-0.18987-0.13323-0.31376-0.16669-0.12389-0.03342-0.26932-0.03803-0.43628-0.01375-0.16065 0.02336-0.30771 0.08497-0.44117 0.1848-0.13031 0.09939-0.24704 0.22571-0.35019 0.37905-0.10047 0.14972-0.18512 0.31966-0.25398 0.50981-0.06614 0.18655-0.11519 0.38027-0.14709 0.58113-6e-3 0.0341-0.0079 0.0678-0.0127 0.10169-0.07596 0.17185-0.14874 0.33988-0.23827 0.52827-0.133 0.27992-0.27057 0.52831-0.41274 0.74521-0.13902 0.21645-0.27215 0.35162-0.39942 0.40552-0.08905 0.029-0.1461-9e-3 -0.17114-0.11505-0.02197-0.10938-0.01642-0.26782 0.01776-0.47545l0.5425-2.5736-0.88363 0.12851-0.29856 1.4109c-0.09078 0.21192-0.19173 0.43561-0.30528 0.67458-0.11823 0.2488-0.24078 0.47894-0.36764 0.6904-0.13002 0.21193-0.23748 0.35784-0.32236 0.43774-0.08217 0.0763-0.15439 0.0997-0.2166 0.0701-0.05904-0.03-0.11641-0.1037-0.17209-0.22106l-0.34467-0.91011 1.0869-2.0158-0.8411 0.12233-0.56664 1.0475-0.35008-0.91414-0.84587 0.12302c-0.01539 0.33679-0.05643 0.65158-0.12322 0.94438-0.06724 0.28964-0.13264 0.51467-0.19616 0.67511-0.07838 0.17458-0.15414 0.346-0.24513 0.53747-0.12985 0.27946-0.26586 0.52763-0.40801 0.74453-0.13902 0.21644-0.27373 0.35184-0.40416 0.4062-0.08588 0.0286-0.14138-0.01-0.16641-0.11573-0.02593-0.10882-0.01958-0.26737 0.01776-0.47546l0.12209-0.58713c0.0098-0.0433 0.02046-0.0914 0.03202-0.1446 0.02314-0.1063 0.04785-0.22409 0.07407-0.35336 0.02617-0.12926 0.04574-0.26079 0.05843-0.39452 0.01223-0.13689 0.01109-0.267-0.0037-0.3903-0.0149-0.12329-0.04964-0.23083-0.10481-0.32253-0.05201-0.0922-0.13254-0.15926-0.24159-0.2013-0.10952-0.0452-0.25247-0.0549-0.42889-0.0293-0.05987 9e-3 -0.1334 0.0339-0.22063 0.0755-0.08722 0.0416-0.18204 0.10853-0.28446 0.20061-0.09971 0.0886-0.19981 0.20759-0.30028 0.3573-0.09731 0.14926-0.18644 0.33272-0.26737 0.55037l0.22691-1.0608-0.88835 0.1292-0.29881 1.4158c-0.05002 0.0952-0.10828 0.19483-0.1844 0.30476-0.09016 0.13213-0.19051 0.2384-0.30106 0.31882-0.11099 0.0773-0.22655 0.13427-0.34666 0.17105 0.03192-0.20088 0.05032-0.39495 0.05526-0.58224 0.0044-0.19045-4e-3 -0.35971-0.02555-0.50777-0.01787-0.12285-0.05237-0.23848-0.10349-0.34684-0.05113-0.10837-0.12091-0.20116-0.20937-0.27836-0.08526-0.0776-0.18987-0.13323-0.31376-0.16669-0.12388-0.0334-0.26932-0.038-0.43627-0.0138zm0.27913 0.3599c0.05354-8e-3 0.09482 0.0329 0.12388 0.12191 0.02856 0.0859 0.04393 0.20271 0.04591 0.35039 0.0053 0.14721-9.49e-4 0.31379-0.01897 0.49977-0.01531 0.18237-0.03957 0.36925-0.07287 0.56067-0.18203-0.0572-0.32676-0.14549-0.4342-0.26497-0.10471-0.12309-0.14788-0.26479-0.12933-0.42511 0.04549-0.15137 0.09472-0.28882 0.14753-0.4123 0.05278-0.12348 0.10749-0.22312 0.16401-0.29889 0.05603-0.0789 0.11404-0.12274 0.17389-0.13145zm12.21-1.7758c0.05354-0.0078 0.09482 0.0329 0.12388 0.12191 0.02856 0.08588 0.04393 0.20271 0.04591 0.35039 0.0053 0.14721-9.49e-4 0.31379-0.01897 0.49977-0.01531 0.18237-0.03957 0.36925-0.07287 0.56067-0.18204-0.0572-0.32677-0.14549-0.4342-0.26497-0.10471-0.12309-0.14788-0.26479-0.12933-0.42511 0.04549-0.15137 0.09471-0.28882 0.14753-0.4123 0.05278-0.12348 0.10748-0.22312 0.16401-0.29889 0.05603-0.07888 0.11404-0.12274 0.17389-0.13144zm-22.671 3.3023c0.04097-6e-3 0.08538 0.0117 0.13316 0.053 0.04737 0.0381 0.08464 0.10671 0.11197 0.20568 0.02994 0.0954 0.03949 0.1937 0.02846 0.29502-0.01149 0.0982-0.04368 0.27496-0.09657 0.53035-0.04063 0.14102-0.08976 0.28971-0.14745 0.44607-0.05815 0.15321-0.12011 0.30216-0.18592 0.44684-0.06632 0.14154-0.13303 0.26865-0.20028 0.38136-0.06773 0.10959-0.13119 0.19279-0.19047 0.24967-0.0597 0.0537-0.11169 0.0725-0.15584 0.0565-0.04464-0.0193-0.07566-0.0887-0.09307-0.20841-0.02566-0.17642-0.02105-0.39905 0.01384-0.66791 0.03804-0.26931 0.09566-0.53664 0.17287-0.80201 0.07991-0.26897 0.17253-0.49474 0.27787-0.67734 0.10488-0.18575 0.21537-0.28867 0.33146-0.30877zm9.8028 0.11839c0.17073 0.22287 0.37793 0.35358 0.62159 0.39212-0.03792 0.13741-0.08105 0.26109-0.12939 0.37107-0.04838 0.10997-0.09989 0.19788-0.15465 0.26376-0.05479 0.0659-0.11208 0.1031-0.17193 0.11181-0.05987 9e-3 -0.10673-0.015-0.14063-0.0712-0.03123-0.0598-0.053-0.14349-0.06541-0.25106-0.01261-0.10754-0.0159-0.23091-0.01037-0.37004 0.0086-0.13957 0.02556-0.2884 0.05086-0.44649zm12.21-1.7758c0.17073 0.22287 0.37793 0.35358 0.62159 0.39212-0.03792 0.13741-0.08105 0.26109-0.1294 0.37107-0.04838 0.10997-0.09989 0.19788-0.15464 0.26376-0.05479 0.0659-0.11208 0.1031-0.17193 0.11181-0.05987 9e-3 -0.10673-0.015-0.14063-0.0712-0.03124-0.0598-0.053-0.14349-0.06541-0.25106-0.01261-0.10754-0.0159-0.23091-0.01037-0.37004 0.0086-0.13957 0.02556-0.2884 0.05087-0.44649zm-18.675 5.0322-0.1715 0.81145c-0.08873 0.34103-0.1874 0.49209-0.29599 0.45319-0.01343-4e-3 -0.03468-0.0175-0.06358-0.0391-0.02574-0.022-0.05058-0.0602-0.07457-0.11461-0.02352-0.0512-0.03541-0.1219-0.03587-0.21192 0.0055-0.13913 0.04166-0.26662 0.10844-0.38248 0.07034-0.11318 0.15386-0.2138 0.25044-0.30182 0.10019-0.0853 0.19431-0.15694 0.28241-0.21478z" fill="#666"/>
</svg>
