<svg width="128" height="128" version="1.1" viewBox="0 0 33.867 33.867" xmlns="http://www.w3.org/2000/svg" xmlns:osb="http://www.openswatchbook.org/uri/2009/osb" xmlns:xlink="http://www.w3.org/1999/xlink">
<defs>
<linearGradient id="linearGradient948" x1="122.34" x2="84.091" y1="117.04" y2="71.02" gradientTransform="matrix(.26458 0 0 .26458 -.75005 260.85)" gradientUnits="userSpaceOnUse">
<stop stop-color="#d5dada" offset="0"/>
<stop stop-color="#f1f1f1" offset="1"/>
</linearGradient>
<linearGradient id="linearGradient872" x1="36.952" x2="67.633" y1="28.276" y2="108.05" gradientTransform="matrix(.25321 0 0 .25321 -.094183 263.44)" gradientUnits="userSpaceOnUse">
<stop stop-color="#f3634b" offset="0"/>
<stop stop-color="#e70f58" offset="1"/>
</linearGradient>
<filter id="a" x="-.015688" y="-.015513" width="1.0314" height="1.031" color-interpolation-filters="sRGB">
<feGaussianBlur stdDeviation=".7986332"/>
</filter>
<linearGradient id="linearGradient1615" x1="25.613" x2="26.995" y1="280.71" y2="294.54" gradientTransform="matrix(.95701 0 0 .95701 .62362 13.803)" gradientUnits="userSpaceOnUse">
<stop stop-color="#f3f9f9" offset="0"/>
<stop stop-color="#d5dada" offset="1"/>
</linearGradient>
<clipPath>
<rect width="384" height="384"/>
</clipPath>
<clipPath>
<rect width="384" height="384"/>
</clipPath>
</defs>
<g transform="translate(0 -263.13)">
<rect transform="matrix(.24271 -.039392 .039392 .24271 -37.675 277.01)" x="159.55" y="-8.1697" width="107.46" height="109.13" rx="4.827" fill="#5d5d5d" filter="url(#a)"/>
<rect transform="rotate(-9.2188)" x="-42.336" y="265.39" width="26.423" height="26.833" rx="1.1869" fill="#fff" stroke-width=".24588"/>
<path d="m2.3222 270.33 23.167-4.0814 4.024 22.994-23.109 4.2539z" fill="url(#linearGradient872)" stroke-width=".24588"/>
<path d="m24.647 281.04c-0.30959-0.30495-0.99619-0.46648-2.041-0.48021-0.70725-0.0113-1.5585 0.054-2.4539 0.17977-0.40092-0.23133-0.81408-0.48303-1.1385-0.78617-0.87254-0.81476-1.6009-1.9457-2.0547-3.1894 0.02958-0.11616 0.05475-0.21826 0.07818-0.32239 0 0 0.49148-2.7917 0.36138-3.7354-0.0179-0.12945-0.02892-0.16705-0.06373-0.26768l-0.04269-0.10919c-0.13367-0.30832-0.39579-0.63499-0.80673-0.61721l-0.24099-0.0113-0.0067-1.2e-4c-0.45824 0-0.83173 0.23437-0.92977 0.58468-0.298 1.0987 0.0095 2.7424 0.56674 4.8712l-0.14264 0.34682c-0.39901 0.97258-0.89902 1.9522-1.3402 2.8164l-0.05736 0.11257c-0.46412 0.9083-0.88526 1.6794-1.267 2.3325l-0.39417 0.20847c-0.0287 0.0146-0.70424 0.37238-0.8627 0.46828-1.3442 0.80261-2.2349 1.7137-2.3827 2.4367-0.047039 0.23065-0.012021 0.52592 0.22714 0.66269l0.38124 0.19181c0.16538 0.0833 0.33977 0.12484 0.51844 0.12484 0.95739 0 2.0689-1.1926 3.6-3.8648 1.7678-0.57555 3.7805-1.0539 5.5445-1.3177 1.3443 0.75691 2.9976 1.2826 4.0412 1.2826 0.18528 0 0.345-0.018 0.4748-0.0518 0.20014-0.0529 0.36882-0.16716 0.47166-0.32194 0.20244-0.30472 0.24351-0.72437 0.18854-1.1542-0.01637-0.12743-0.11825-0.28513-0.22844-0.39275zm-14.3 5.0943c0.17457-0.4774 0.86566-1.421 1.8875-2.2584 0.06424-0.0518 0.22248-0.20036 0.36739-0.33803-1.0685 1.7043-1.7841 2.3835-2.2548 2.5965zm6.0521-13.937c0.30776 0 0.48281 0.77582 0.49736 1.503 0.01451 0.72729-0.15558 1.2377-0.36656 1.6153-0.17474-0.55912-0.2592-1.4404-0.2592-2.0168 0 0-0.01285-1.1016 0.1284-1.1016zm-1.8054 9.9317c0.21438-0.38374 0.43742-0.78842 0.66535-1.2176 0.55559-1.0507 0.90647-1.8728 1.1678-2.5486 0.51974 0.94567 1.167 1.7495 1.9279 2.3936 0.09491 0.0799 0.19547 0.16108 0.30109 0.24157-1.5473 0.30618-2.8847 0.67855-4.0622 1.1311zm9.7558-0.0867c-0.09425 0.0585-0.3642 0.0934-0.53786 0.0934-0.56042 0-1.2538-0.25621-2.2259-0.67293 0.37348-0.0282 0.71596-0.0417 1.0231-0.0417 0.56212 0 0.72863 0 1.2783 0.13767 0.54967 0.14026 0.55659 0.42506 0.46238 0.48394z" fill="#fff" stroke-width="1.1257"/>
<g fill-opacity=".041825">
<ellipse cx="25.453" cy="287.84" rx="7.3773" ry="7.2515" style="paint-order:fill markers stroke"/>
<ellipse cx="25.352" cy="287.79" rx="7.3773" ry="7.2515" style="paint-order:fill markers stroke"/>
<ellipse cx="25.226" cy="287.66" rx="7.3773" ry="7.2515" style="paint-order:fill markers stroke"/>
<ellipse cx="25.075" cy="287.56" rx="7.3773" ry="7.2515" style="paint-order:fill markers stroke"/>
<ellipse cx="24.975" cy="287.51" rx="7.3773" ry="7.2515" style="paint-order:fill markers stroke"/>
<ellipse cx="24.723" cy="287.39" rx="7.3773" ry="7.2515" style="paint-order:fill markers stroke"/>
</g>
<circle cx="25.578" cy="287.99" r="7.2515" fill="url(#linearGradient1615)" style="paint-order:fill markers stroke"/>
<path d="m25.334 283.28c-0.10256 0-0.18513 0.0826-0.18513 0.18513v0.93046a3.6268 3.6268 0 0 0-0.998 0.26673l-0.46489-0.80533c-0.05128-0.0888-0.16419-0.11881-0.25301-0.0675l-0.42272 0.24375c-0.08882 0.0513-0.11882 0.1642-0.06754 0.25302l0.46489 0.80498a3.6268 3.6268 0 0 0-0.73024 0.73126l-0.80566-0.46523c-0.08882-0.0513-0.20139-0.0213-0.25267 0.0675l-0.2441 0.42272c-0.05128 0.0888-0.02128 0.20172 0.06754 0.25301l0.80258 0.46351a3.6268 3.6268 0 0 0-0.2657 0.99903h-0.92874c-0.10256 0-0.18513 0.0826-0.18513 0.18513v0.4882c0 0.10255 0.08257 0.18512 0.18513 0.18512h0.93046a3.6268 3.6268 0 0 0 0.26707 0.99766l-0.80566 0.46523c-0.08882 0.0513-0.11882 0.16385-0.06754 0.25267l0.2441 0.42272c0.05128 0.0888 0.16385 0.11916 0.25267 0.0679l0.80532-0.46489a3.6268 3.6268 0 0 0 0.73093 0.7299l-0.46523 0.80567c-0.05128 0.0888-0.02128 0.20173 0.06754 0.25301l0.42272 0.24409c0.08882 0.0513 0.20173 0.021 0.25301-0.0679l0.46317-0.80258a3.6268 3.6268 0 0 0 0.99971 0.26604v0.9284c0 0.10256 0.08257 0.18513 0.18513 0.18513h0.48786c0.10256 0 0.18513-0.0826 0.18513-0.18513v-0.93046a3.6268 3.6268 0 0 0 0.998-0.26672l0.46488 0.80532c0.05128 0.0888 0.16419 0.11916 0.25301 0.0679l0.42237-0.24409c0.08882-0.0513 0.11916-0.16419 0.06788-0.25301l-0.46489-0.80498a3.6268 3.6268 0 0 0 0.73024-0.73093l0.80566 0.46523c0.08882 0.0513 0.20139 0.021 0.25267-0.0679l0.2441-0.42272c0.05128-0.0888 0.02094-0.20139-0.06788-0.25267l-0.80258-0.46317a3.6268 3.6268 0 0 0 0.26604-0.99972h0.92874c0.10256 0 0.18513-0.0826 0.18513-0.18512v-0.4882c0-0.10256-0.08257-0.18513-0.18513-0.18513h-0.93046a3.6268 3.6268 0 0 0-0.26707-0.99766l0.80532-0.46488c0.08882-0.0513 0.11916-0.1642 0.06788-0.25301l-0.2441-0.42272c-0.05128-0.0888-0.16385-0.11882-0.25267-0.0675l-0.80498 0.4649a3.6268 3.6268 0 0 0-0.73127-0.73025l0.46523-0.80566c0.05128-0.0888 0.02094-0.20173-0.06788-0.25302l-0.42237-0.24375c-0.08882-0.0513-0.20173-0.0213-0.25301 0.0675l-0.46317 0.80259a3.6268 3.6268 0 0 0-0.99971-0.26605v-0.9284c0-0.10256-0.08257-0.18513-0.18513-0.18513zm0.24376 2.6926a2.0196 2.0196 0 0 1 2.0196 2.0196 2.0196 2.0196 0 0 1-2.0196 2.0196 2.0196 2.0196 0 0 1-2.0193-2.0196 2.0196 2.0196 0 0 1 2.0193-2.0196z" fill="#d23978" fill-opacity=".9962" style="paint-order:fill markers stroke"/>
</g>
</svg>
