<svg width="128" height="128" version="1.1" viewBox="0 0 33.867 33.867" xmlns="http://www.w3.org/2000/svg" xmlns:osb="http://www.openswatchbook.org/uri/2009/osb" xmlns:xlink="http://www.w3.org/1999/xlink">
<defs>
<clipPath>
<rect width="384" height="384"/>
</clipPath>
<clipPath>
<rect width="384" height="384"/>
</clipPath>
<linearGradient id="linearGradient948" x1="122.34" x2="84.091" y1="117.04" y2="71.02" gradientTransform="matrix(.26458 0 0 .26458 -73.214 269.23)" gradientUnits="userSpaceOnUse" xlink:href="#linearGradient944"/>
<linearGradient id="linearGradient944">
<stop stop-color="#d5dada" offset="0"/>
<stop stop-color="#f1f1f1" offset="1"/>
</linearGradient>
<radialGradient id="radialGradient1057" cx="-18.078" cy="290.32" r="7.296" gradientTransform="matrix(-.61155 -.87112 .9409 -.6497 -258.59 462.13)" gradientUnits="userSpaceOnUse">
<stop stop-color="#19191b" offset="0"/>
<stop stop-color="#19191b" stop-opacity="0" offset="1"/>
</radialGradient>
<linearGradient id="linearGradient1060" x1="-16.155" x2="-20.538" y1="296.84" y2="284.16" gradientTransform="translate(.1202 .48664)" gradientUnits="userSpaceOnUse" xlink:href="#linearGradient944"/>
<linearGradient id="linearGradient993" x1="-39.014" x2="-21.756" y1="265.76" y2="285.73" gradientUnits="userSpaceOnUse">
<stop stop-color="#fff" offset="0"/>
<stop stop-color="#f0f0f0" offset="1"/>
</linearGradient>
<linearGradient id="linearGradient1001" x1="-27.415" x2="-28.241" y1="293.27" y2="266.7" gradientUnits="userSpaceOnUse">
<stop stop-color="#b10000" offset="0"/>
<stop stop-color="#f94600" offset="1"/>
</linearGradient>
<clipPath>
<rect width="384" height="384"/>
</clipPath>
<clipPath>
<rect width="384" height="384"/>
</clipPath>
<linearGradient id="linearGradient1194" x1="122.34" x2="84.091" y1="117.04" y2="71.02" gradientTransform="matrix(.26458 0 0 .26458 -114.23 271.81)" gradientUnits="userSpaceOnUse" xlink:href="#linearGradient944"/>
</defs>
<g transform="translate(0 -263.13)">
<g transform="matrix(.97507 -.15 .15 .97507 22.55 10.715)" fill="none" opacity=".389" stroke="#000" stroke-linecap="round" stroke-linejoin="round" stroke-opacity=".039216">
<rect transform="rotate(-.018651)" x="-61.945" y="253.77" width="25.83" height="29.567" rx="1.4423" ry="1.4423" opacity="1" stroke-width=".15" style="paint-order:fill markers stroke"/>
<rect transform="rotate(-.018651)" x="-61.945" y="253.77" width="25.83" height="29.567" rx="1.4423" ry="1.4423" opacity="1" stroke-width=".3" style="paint-order:fill markers stroke"/>
<rect transform="rotate(-.018651)" x="-61.945" y="253.77" width="25.83" height="29.567" rx="1.4423" ry="1.4423" opacity="1" stroke-width=".45" style="paint-order:fill markers stroke"/>
<rect transform="rotate(-.018651)" x="-61.945" y="253.77" width="25.83" height="29.567" rx="1.4423" ry="1.4423" opacity="1" stroke-width=".6" style="paint-order:fill markers stroke"/>
<rect transform="rotate(-.018651)" x="-61.945" y="253.77" width="25.83" height="29.567" rx="1.4423" ry="1.4423" opacity="1" stroke-width=".85" style="paint-order:fill markers stroke"/>
<rect transform="rotate(-.018651)" x="-61.945" y="253.77" width="25.83" height="29.567" rx="1.4423" ry="1.4423" opacity="1" style="paint-order:fill markers stroke"/>
</g>
<rect transform="rotate(-8.764)" x="-40.457" y="264.37" width="25.483" height="29.169" rx="1.4229" ry="1.4229" fill="url(#linearGradient993)" style="paint-order:fill markers stroke"/>
<rect transform="rotate(-8.764)" x="-39.014" y="265.76" width="22.702" height="26.092" rx="1.4229" ry="1.4229" fill="url(#linearGradient1001)" style="paint-order:fill markers stroke"/>
<path transform="matrix(.26458 0 0 .26458 0 263.13)" d="m98.523 72.387a26.842 27.399 7.696e-6 0 0-5.3516 0.28711 26.842 27.399 7.696e-6 0 0-22.449 31.246 26.842 27.399 7.696e-6 0 0 5.1992 12.422l31.871-4.9141c2.9446-0.45394 4.95-3.1902 4.4961-6.1348l-4.75-30.809a26.842 27.399 7.696e-6 0 0-9.0156-2.0977z" fill="#343434" fill-opacity=".20455" opacity=".097" style="paint-order:fill markers stroke"/>
<g transform="matrix(.61945 -.10297 .10297 .61945 -.12243 266.33)" fill="#fff">
<path d="m20 28c-3 4-3.255 7.7474-4 12-1.0009-4.5096-1-8-4-12l4 1z"/>
<path d="m30 28c-3 4-3.255 7.7474-4 12-1.0009-4.5096-1-8-4-12l4 1z"/>
<path d="m12 19c4 3 13.747 3.255 18 4-4.5096 1.0009-14 1-18 4l1-4z"/>
<path d="m12 9c4 3 13.747 3.255 18 4-4.5096 1.0009-14 1-18 4l1-4z"/>
<path d="m15 14c4 3 7.7474 3.255 12 4-4.5096 1.0009-8 1-12 4l1-4z"/>
</g>
<path d="m25.226 279.51a8.97 9.2719 1.3224e-5 0 0-1.7886 0.0973 8.97 9.2719 1.3224e-5 0 0-7.5015 10.574 8.97 9.2719 1.3224e-5 0 0 1.6913 4.1437l10.615-1.636c0.95859-0.14778 1.6115-1.0386 1.4637-1.9972l-1.6252-10.541a8.97 9.2719 1.3224e-5 0 0-2.8543-0.64092z" fill="url(#radialGradient1057)" style="paint-order:fill markers stroke"/>
<circle transform="rotate(-8.7453)" cx="-17.886" cy="290.5" r="7.1539" fill="url(#linearGradient1060)" style="paint-order:fill markers stroke"/>
<path d="m24.678 287.12v3.2825h-1.4898l3.3042 3.6075 3.3042-3.6075h-1.4898v-3.2825z" fill="#333" style="paint-order:fill markers stroke"/>
</g>
</svg>
