<svg width="128" height="128" version="1.1" viewBox="0 0 128 128" xmlns="http://www.w3.org/2000/svg" xmlns:xlink="http://www.w3.org/1999/xlink">
<defs>
<linearGradient id="linearGradient1080" x1="701.81" x2="699.28" y1="398.37" y2="220.53" gradientTransform="matrix(.66355 0 0 .66355 -399.67 -144.99)" gradientUnits="userSpaceOnUse">
<stop stop-color="#cccdd1" offset="0"/>
<stop stop-color="#f7f9f9" offset="1"/>
</linearGradient>
<linearGradient id="linearGradient4543" x1="58.562" x2="59.299" y1="89.077" y2="-22.547" gradientUnits="userSpaceOnUse">
<stop stop-color="#0072e1" offset="0"/>
<stop stop-color="#82ccff" offset="1"/>
</linearGradient>
</defs>
<path d="m76.271 27.452c-3.5788 0-7.2534 4.9493-7.2534 14.507 0 8.7041 2.9014 14.507 2.9014 14.507s23.211-2.9014 23.211-14.507c0-8.7041-8.1727-15.773-11.605-8.7041-1.2959-3.8878-3.7882-5.8027-7.2534-5.8027zm-33.366 2.9014c-8.7041 0-15.773 8.1727-8.7041 11.605-3.8878 1.2959-5.8027 3.7882-5.8027 7.2534 0 3.5788 4.9493 7.2534 14.507 7.2534 8.7041 0 14.507-2.9014 14.507-2.9014s-2.9014-23.211-14.507-23.211zm11.605 37.718s-23.211 2.9014-23.211 14.507c0 8.7041 8.1727 15.773 11.605 8.7041 1.2959 3.8878 3.7882 5.8027 7.2534 5.8027 3.5788 0 7.2534-4.9493 7.2534-14.507 0-8.7041-2.9014-14.507-2.9014-14.507zm29.014 0c-8.7041 0-14.507 2.9014-14.507 2.9014s2.9014 23.211 14.507 23.211c8.7041 0 15.773-8.1727 8.7041-11.605 3.8878-1.2959 5.8027-3.7882 5.8027-7.2534 0-3.5788-4.9493-7.2534-14.507-7.2534z" fill="#f9f9f9" stroke-width=".48356" style="isolation:isolate"/>
<circle cx="64.333" cy="64.226" r="60.566" fill="url(#linearGradient4543)" stroke="#cccdd1" stroke-width="4.6449"/>
<path d="m64.334 1.3385c-34.705 0-62.888 28.182-62.888 62.887 0 34.705 28.184 62.888 62.888 62.888 34.705 0 62.887-28.184 62.887-62.888 0-34.705-28.182-62.887-62.887-62.887zm0 4.6449c32.194 0 58.242 26.048 58.242 58.242 0 32.194-26.048 58.243-58.242 58.243-32.194 0-58.243-26.049-58.243-58.243 0-32.194 26.049-58.242 58.243-58.242z" color="#000000" color-rendering="auto" dominant-baseline="auto" fill="url(#linearGradient1080)" image-rendering="auto" shape-rendering="auto" solid-color="#000000" style="font-feature-settings:normal;font-variant-alternates:normal;font-variant-caps:normal;font-variant-ligatures:normal;font-variant-numeric:normal;font-variant-position:normal;isolation:auto;mix-blend-mode:normal;shape-padding:0;text-decoration-color:#000000;text-decoration-line:none;text-decoration-style:solid;text-indent:0;text-orientation:mixed;text-transform:none;white-space:normal"/>
<g transform="translate(-147.55)" fill="none" opacity=".366" stroke="#000" stroke-opacity=".027451">
<path d="m208.12 40.704c-2.4418 0.02784-2.5003 1.9362-1.2948 5.2805l3.2219 14.37c0.19109 2.4053 1.1266 2.7919 3.0423 4.011l7.6754 4.886-9.6936-3.0601c-2.8103-0.51364-2.8479-1.3493-3.6316-3.9047l-3.495-11.391c-0.58801-2.3984-0.64795-2.5018-2.486-1.8639-3.985 1.3847-13.704 4.915-16.995 7.5009-1.3309 1.046-2.622 3.1989-3.5987 5.1389-3.2184 8.2356 3.3258 17.159 5.2173 26.076h10.867l1.6186-7.5161h6.7043l2.5442 7.5161h10.404l6.0114-17.341c4.6508 2.9094 0.52453 7.5953 3.007 10.867 1.6073 1.9996 7.1671 4.1627 7.1671 4.1627l2.5441-3.2371s-4.0091-1.8299-3.2371-3.6999c0.0134-2.0923 0.56469-4.1743 1.353-6.239 4.1071 1.4008 8.6888 1.3467 8.7047 1.267-2.2962-0.18004-5.1527-2.132-7.4807-4.1323 2.821-6.1156 6.5213-12.06 3.1385-17.683-1.9839-3.2975-4.5852-5.9714-12.506-5.0883l-15.859-5.4044c-1.226-0.35674-2.1962-0.52443-2.9437-0.51591zm24.091 18.373c0.95775 0 1.7323 0.77459 1.7323 1.7323 0 0.95774-0.77458 1.7349-1.7323 1.7349-0.95776 0-1.7349-0.77713-1.7349-1.7349 0-0.95775 0.77712-1.7323 1.7349-1.7323z" stroke-width=".25"/>
<path d="m208.12 40.704c-2.4418 0.02784-2.5003 1.9362-1.2948 5.2805l3.2219 14.37c0.19109 2.4053 1.1266 2.7919 3.0423 4.011l7.6754 4.886-9.6936-3.0601c-2.8103-0.51364-2.8479-1.3493-3.6316-3.9047l-3.495-11.391c-0.58801-2.3984-0.64795-2.5018-2.486-1.8639-3.985 1.3847-13.704 4.915-16.995 7.5009-1.3309 1.046-2.622 3.1989-3.5987 5.1389-3.2184 8.2356 3.3258 17.159 5.2173 26.076h10.867l1.6186-7.5161h6.7043l2.5442 7.5161h10.404l6.0114-17.341c4.6508 2.9094 0.52453 7.5953 3.007 10.867 1.6073 1.9996 7.1671 4.1627 7.1671 4.1627l2.5441-3.2371s-4.0091-1.8299-3.2371-3.6999c0.0134-2.0923 0.56469-4.1743 1.353-6.239 4.1071 1.4008 8.6888 1.3467 8.7047 1.267-2.2962-0.18004-5.1527-2.132-7.4807-4.1323 2.821-6.1156 6.5213-12.06 3.1385-17.683-1.9839-3.2975-4.5852-5.9714-12.506-5.0883l-15.859-5.4044c-1.226-0.35674-2.1962-0.52443-2.9437-0.51591zm24.091 18.373c0.95775 0 1.7323 0.77459 1.7323 1.7323 0 0.95774-0.77458 1.7349-1.7323 1.7349-0.95776 0-1.7349-0.77713-1.7349-1.7349 0-0.95775 0.77712-1.7323 1.7349-1.7323z" stroke-width=".5"/>
<path d="m208.12 40.704c-2.4418 0.02784-2.5003 1.9362-1.2948 5.2805l3.2219 14.37c0.19109 2.4053 1.1266 2.7919 3.0423 4.011l7.6754 4.886-9.6936-3.0601c-2.8103-0.51364-2.8479-1.3493-3.6316-3.9047l-3.495-11.391c-0.58801-2.3984-0.64795-2.5018-2.486-1.8639-3.985 1.3847-13.704 4.915-16.995 7.5009-1.3309 1.046-2.622 3.1989-3.5987 5.1389-3.2184 8.2356 3.3258 17.159 5.2173 26.076h10.867l1.6186-7.5161h6.7043l2.5442 7.5161h10.404l6.0114-17.341c4.6508 2.9094 0.52453 7.5953 3.007 10.867 1.6073 1.9996 7.1671 4.1627 7.1671 4.1627l2.5441-3.2371s-4.0091-1.8299-3.2371-3.6999c0.0134-2.0923 0.56469-4.1743 1.353-6.239 4.1071 1.4008 8.6888 1.3467 8.7047 1.267-2.2962-0.18004-5.1527-2.132-7.4807-4.1323 2.821-6.1156 6.5213-12.06 3.1385-17.683-1.9839-3.2975-4.5852-5.9714-12.506-5.0883l-15.859-5.4044c-1.226-0.35674-2.1962-0.52443-2.9437-0.51591zm24.091 18.373c0.95775 0 1.7323 0.77459 1.7323 1.7323 0 0.95774-0.77458 1.7349-1.7323 1.7349-0.95776 0-1.7349-0.77713-1.7349-1.7349 0-0.95775 0.77712-1.7323 1.7349-1.7323z" stroke-width=".75"/>
<path d="m208.12 40.704c-2.4418 0.02784-2.5003 1.9362-1.2948 5.2805l3.2219 14.37c0.19109 2.4053 1.1266 2.7919 3.0423 4.011l7.6754 4.886-9.6936-3.0601c-2.8103-0.51364-2.8479-1.3493-3.6316-3.9047l-3.495-11.391c-0.58801-2.3984-0.64795-2.5018-2.486-1.8639-3.985 1.3847-13.704 4.915-16.995 7.5009-1.3309 1.046-2.622 3.1989-3.5987 5.1389-3.2184 8.2356 3.3258 17.159 5.2173 26.076h10.867l1.6186-7.5161h6.7043l2.5442 7.5161h10.404l6.0114-17.341c4.6508 2.9094 0.52453 7.5953 3.007 10.867 1.6073 1.9996 7.1671 4.1627 7.1671 4.1627l2.5441-3.2371s-4.0091-1.8299-3.2371-3.6999c0.0134-2.0923 0.56469-4.1743 1.353-6.239 4.1071 1.4008 8.6888 1.3467 8.7047 1.267-2.2962-0.18004-5.1527-2.132-7.4807-4.1323 2.821-6.1156 6.5213-12.06 3.1385-17.683-1.9839-3.2975-4.5852-5.9714-12.506-5.0883l-15.859-5.4044c-1.226-0.35674-2.1962-0.52443-2.9437-0.51591zm24.091 18.373c0.95775 0 1.7323 0.77459 1.7323 1.7323 0 0.95774-0.77458 1.7349-1.7323 1.7349-0.95776 0-1.7349-0.77713-1.7349-1.7349 0-0.95775 0.77712-1.7323 1.7349-1.7323z"/>
<path d="m208.12 40.704c-2.4418 0.02784-2.5003 1.9362-1.2948 5.2805l3.2219 14.37c0.19109 2.4053 1.1266 2.7919 3.0423 4.011l7.6754 4.886-9.6936-3.0601c-2.8103-0.51364-2.8479-1.3493-3.6316-3.9047l-3.495-11.391c-0.58801-2.3984-0.64795-2.5018-2.486-1.8639-3.985 1.3847-13.704 4.915-16.995 7.5009-1.3309 1.046-2.622 3.1989-3.5987 5.1389-3.2184 8.2356 3.3258 17.159 5.2173 26.076h10.867l1.6186-7.5161h6.7043l2.5442 7.5161h10.404l6.0114-17.341c4.6508 2.9094 0.52453 7.5953 3.007 10.867 1.6073 1.9996 7.1671 4.1627 7.1671 4.1627l2.5441-3.2371s-4.0091-1.8299-3.2371-3.6999c0.0134-2.0923 0.56469-4.1743 1.353-6.239 4.1071 1.4008 8.6888 1.3467 8.7047 1.267-2.2962-0.18004-5.1527-2.132-7.4807-4.1323 2.821-6.1156 6.5213-12.06 3.1385-17.683-1.9839-3.2975-4.5852-5.9714-12.506-5.0883l-15.859-5.4044c-1.226-0.35674-2.1962-0.52443-2.9437-0.51591zm24.091 18.373c0.95775 0 1.7323 0.77459 1.7323 1.7323 0 0.95774-0.77458 1.7349-1.7323 1.7349-0.95776 0-1.7349-0.77713-1.7349-1.7349 0-0.95775 0.77712-1.7323 1.7349-1.7323z" stroke-width="1.4"/>
<path d="m208.12 40.704c-2.4418 0.02784-2.5003 1.9362-1.2948 5.2805l3.2219 14.37c0.19109 2.4053 1.1266 2.7919 3.0423 4.011l7.6754 4.886-9.6936-3.0601c-2.8103-0.51364-2.8479-1.3493-3.6316-3.9047l-3.495-11.391c-0.58801-2.3984-0.64795-2.5018-2.486-1.8639-3.985 1.3847-13.704 4.915-16.995 7.5009-1.3309 1.046-2.622 3.1989-3.5987 5.1389-3.2184 8.2356 3.3258 17.159 5.2173 26.076h10.867l1.6186-7.5161h6.7043l2.5442 7.5161h10.404l6.0114-17.341c4.6508 2.9094 0.52453 7.5953 3.007 10.867 1.6073 1.9996 7.1671 4.1627 7.1671 4.1627l2.5441-3.2371s-4.0091-1.8299-3.2371-3.6999c0.0134-2.0923 0.56469-4.1743 1.353-6.239 4.1071 1.4008 8.6888 1.3467 8.7047 1.267-2.2962-0.18004-5.1527-2.132-7.4807-4.1323 2.821-6.1156 6.5213-12.06 3.1385-17.683-1.9839-3.2975-4.5852-5.9714-12.506-5.0883l-15.859-5.4044c-1.226-0.35674-2.1962-0.52443-2.9437-0.51591zm24.091 18.373c0.95775 0 1.7323 0.77459 1.7323 1.7323 0 0.95774-0.77458 1.7349-1.7323 1.7349-0.95776 0-1.7349-0.77713-1.7349-1.7349 0-0.95775 0.77712-1.7323 1.7349-1.7323z" stroke-width="1.8"/>
<path d="m208.12 40.704c-2.4418 0.02784-2.5003 1.9362-1.2948 5.2805l3.2219 14.37c0.19109 2.4053 1.1266 2.7919 3.0423 4.011l7.6754 4.886-9.6936-3.0601c-2.8103-0.51364-2.8479-1.3493-3.6316-3.9047l-3.495-11.391c-0.58801-2.3984-0.64795-2.5018-2.486-1.8639-3.985 1.3847-13.704 4.915-16.995 7.5009-1.3309 1.046-2.622 3.1989-3.5987 5.1389-3.2184 8.2356 3.3258 17.159 5.2173 26.076h10.867l1.6186-7.5161h6.7043l2.5442 7.5161h10.404l6.0114-17.341c4.6508 2.9094 0.52453 7.5953 3.007 10.867 1.6073 1.9996 7.1671 4.1627 7.1671 4.1627l2.5441-3.2371s-4.0091-1.8299-3.2371-3.6999c0.0134-2.0923 0.56469-4.1743 1.353-6.239 4.1071 1.4008 8.6888 1.3467 8.7047 1.267-2.2962-0.18004-5.1527-2.132-7.4807-4.1323 2.821-6.1156 6.5213-12.06 3.1385-17.683-1.9839-3.2975-4.5852-5.9714-12.506-5.0883l-15.859-5.4044c-1.226-0.35674-2.1962-0.52443-2.9437-0.51591zm24.091 18.373c0.95775 0 1.7323 0.77459 1.7323 1.7323 0 0.95774-0.77458 1.7349-1.7323 1.7349-0.95776 0-1.7349-0.77713-1.7349-1.7349 0-0.95775 0.77712-1.7323 1.7349-1.7323z" stroke-width="2.4"/>
<path d="m208.12 40.704c-2.4418 0.02784-2.5003 1.9362-1.2948 5.2805l3.2219 14.37c0.19109 2.4053 1.1266 2.7919 3.0423 4.011l7.6754 4.886-9.6936-3.0601c-2.8103-0.51364-2.8479-1.3493-3.6316-3.9047l-3.495-11.391c-0.58801-2.3984-0.64795-2.5018-2.486-1.8639-3.985 1.3847-13.704 4.915-16.995 7.5009-1.3309 1.046-2.622 3.1989-3.5987 5.1389-3.2184 8.2356 3.3258 17.159 5.2173 26.076h10.867l1.6186-7.5161h6.7043l2.5442 7.5161h10.404l6.0114-17.341c4.6508 2.9094 0.52453 7.5953 3.007 10.867 1.6073 1.9996 7.1671 4.1627 7.1671 4.1627l2.5441-3.2371s-4.0091-1.8299-3.2371-3.6999c0.0134-2.0923 0.56469-4.1743 1.353-6.239 4.1071 1.4008 8.6888 1.3467 8.7047 1.267-2.2962-0.18004-5.1527-2.132-7.4807-4.1323 2.821-6.1156 6.5213-12.06 3.1385-17.683-1.9839-3.2975-4.5852-5.9714-12.506-5.0883l-15.859-5.4044c-1.226-0.35674-2.1962-0.52443-2.9437-0.51591zm24.091 18.373c0.95775 0 1.7323 0.77459 1.7323 1.7323 0 0.95774-0.77458 1.7349-1.7323 1.7349-0.95776 0-1.7349-0.77713-1.7349-1.7349 0-0.95775 0.77712-1.7323 1.7349-1.7323z" stroke-width="3"/>
<path d="m208.12 40.704c-2.4418 0.02784-2.5003 1.9362-1.2948 5.2805l3.2219 14.37c0.19109 2.4053 1.1266 2.7919 3.0423 4.011l7.6754 4.886-9.6936-3.0601c-2.8103-0.51364-2.8479-1.3493-3.6316-3.9047l-3.495-11.391c-0.58801-2.3984-0.64795-2.5018-2.486-1.8639-3.985 1.3847-13.704 4.915-16.995 7.5009-1.3309 1.046-2.622 3.1989-3.5987 5.1389-3.2184 8.2356 3.3258 17.159 5.2173 26.076h10.867l1.6186-7.5161h6.7043l2.5442 7.5161h10.404l6.0114-17.341c4.6508 2.9094 0.52453 7.5953 3.007 10.867 1.6073 1.9996 7.1671 4.1627 7.1671 4.1627l2.5441-3.2371s-4.0091-1.8299-3.2371-3.6999c0.0134-2.0923 0.56469-4.1743 1.353-6.239 4.1071 1.4008 8.6888 1.3467 8.7047 1.267-2.2962-0.18004-5.1527-2.132-7.4807-4.1323 2.821-6.1156 6.5213-12.06 3.1385-17.683-1.9839-3.2975-4.5852-5.9714-12.506-5.0883l-15.859-5.4044c-1.226-0.35674-2.1962-0.52443-2.9437-0.51591zm24.091 18.373c0.95775 0 1.7323 0.77459 1.7323 1.7323 0 0.95774-0.77458 1.7349-1.7323 1.7349-0.95776 0-1.7349-0.77713-1.7349-1.7349 0-0.95775 0.77712-1.7323 1.7349-1.7323z" stroke-width="4"/>
<path d="m208.12 40.704c-2.4418 0.02784-2.5003 1.9362-1.2948 5.2805l3.2219 14.37c0.19109 2.4053 1.1266 2.7919 3.0423 4.011l7.6754 4.886-9.6936-3.0601c-2.8103-0.51364-2.8479-1.3493-3.6316-3.9047l-3.495-11.391c-0.58801-2.3984-0.64795-2.5018-2.486-1.8639-3.985 1.3847-13.704 4.915-16.995 7.5009-1.3309 1.046-2.622 3.1989-3.5987 5.1389-3.2184 8.2356 3.3258 17.159 5.2173 26.076h10.867l1.6186-7.5161h6.7043l2.5442 7.5161h10.404l6.0114-17.341c4.6508 2.9094 0.52453 7.5953 3.007 10.867 1.6073 1.9996 7.1671 4.1627 7.1671 4.1627l2.5441-3.2371s-4.0091-1.8299-3.2371-3.6999c0.0134-2.0923 0.56469-4.1743 1.353-6.239 4.1071 1.4008 8.6888 1.3467 8.7047 1.267-2.2962-0.18004-5.1527-2.132-7.4807-4.1323 2.821-6.1156 6.5213-12.06 3.1385-17.683-1.9839-3.2975-4.5852-5.9714-12.506-5.0883l-15.859-5.4044c-1.226-0.35674-2.1962-0.52443-2.9437-0.51591zm24.091 18.373c0.95775 0 1.7323 0.77459 1.7323 1.7323 0 0.95774-0.77458 1.7349-1.7323 1.7349-0.95776 0-1.7349-0.77713-1.7349-1.7349 0-0.95775 0.77712-1.7323 1.7349-1.7323z" stroke-width="5"/>
<path d="m208.12 40.704c-2.4418 0.02784-2.5003 1.9362-1.2948 5.2805l3.2219 14.37c0.19109 2.4053 1.1266 2.7919 3.0423 4.011l7.6754 4.886-9.6936-3.0601c-2.8103-0.51364-2.8479-1.3493-3.6316-3.9047l-3.495-11.391c-0.58801-2.3984-0.64795-2.5018-2.486-1.8639-3.985 1.3847-13.704 4.915-16.995 7.5009-1.3309 1.046-2.622 3.1989-3.5987 5.1389-3.2184 8.2356 3.3258 17.159 5.2173 26.076h10.867l1.6186-7.5161h6.7043l2.5442 7.5161h10.404l6.0114-17.341c4.6508 2.9094 0.52453 7.5953 3.007 10.867 1.6073 1.9996 7.1671 4.1627 7.1671 4.1627l2.5441-3.2371s-4.0091-1.8299-3.2371-3.6999c0.0134-2.0923 0.56469-4.1743 1.353-6.239 4.1071 1.4008 8.6888 1.3467 8.7047 1.267-2.2962-0.18004-5.1527-2.132-7.4807-4.1323 2.821-6.1156 6.5213-12.06 3.1385-17.683-1.9839-3.2975-4.5852-5.9714-12.506-5.0883l-15.859-5.4044c-1.226-0.35674-2.1962-0.52443-2.9437-0.51591zm24.091 18.373c0.95775 0 1.7323 0.77459 1.7323 1.7323 0 0.95774-0.77458 1.7349-1.7323 1.7349-0.95776 0-1.7349-0.77713-1.7349-1.7349 0-0.95775 0.77712-1.7323 1.7349-1.7323z" stroke-width="6.5"/>
<path d="m208.12 40.704c-2.4418 0.02784-2.5003 1.9362-1.2948 5.2805l3.2219 14.37c0.19109 2.4053 1.1266 2.7919 3.0423 4.011l7.6754 4.886-9.6936-3.0601c-2.8103-0.51364-2.8479-1.3493-3.6316-3.9047l-3.495-11.391c-0.58801-2.3984-0.64795-2.5018-2.486-1.8639-3.985 1.3847-13.704 4.915-16.995 7.5009-1.3309 1.046-2.622 3.1989-3.5987 5.1389-3.2184 8.2356 3.3258 17.159 5.2173 26.076h10.867l1.6186-7.5161h6.7043l2.5442 7.5161h10.404l6.0114-17.341c4.6508 2.9094 0.52453 7.5953 3.007 10.867 1.6073 1.9996 7.1671 4.1627 7.1671 4.1627l2.5441-3.2371s-4.0091-1.8299-3.2371-3.6999c0.0134-2.0923 0.56469-4.1743 1.353-6.239 4.1071 1.4008 8.6888 1.3467 8.7047 1.267-2.2962-0.18004-5.1527-2.132-7.4807-4.1323 2.821-6.1156 6.5213-12.06 3.1385-17.683-1.9839-3.2975-4.5852-5.9714-12.506-5.0883l-15.859-5.4044c-1.226-0.35674-2.1962-0.52443-2.9437-0.51591zm24.091 18.373c0.95775 0 1.7323 0.77459 1.7323 1.7323 0 0.95774-0.77458 1.7349-1.7323 1.7349-0.95776 0-1.7349-0.77713-1.7349-1.7349 0-0.95775 0.77712-1.7323 1.7349-1.7323z" stroke-width="8"/>
</g>
<path d="m60.573 40.704c-2.4418 0.02784-2.5003 1.9362-1.2948 5.2805l3.2219 14.37c0.19109 2.4053 1.1266 2.7919 3.0423 4.011l7.6754 4.886-9.6936-3.0601c-2.8103-0.51364-2.8479-1.3493-3.6316-3.9047l-3.495-11.391c-0.58801-2.3984-0.64795-2.5018-2.486-1.8639-3.985 1.3847-13.704 4.915-16.995 7.5009-1.3309 1.046-2.622 3.1989-3.5987 5.1389-3.2184 8.2356 3.3258 17.159 5.2173 26.076h10.867l1.6186-7.5161h6.7043l2.5442 7.5161h10.404l6.0114-17.341c4.6508 2.9094 0.52453 7.5953 3.007 10.867 1.6073 1.9996 7.1671 4.1627 7.1671 4.1627l2.5441-3.2371s-4.0091-1.8299-3.2371-3.6999c0.01338-2.0923 0.56469-4.1743 1.353-6.239 4.1071 1.4008 8.6888 1.3467 8.7047 1.267-2.2962-0.18004-5.1527-2.132-7.4807-4.1323 2.821-6.1156 6.5213-12.06 3.1385-17.683-1.9839-3.2975-4.5852-5.9714-12.506-5.0883l-15.859-5.4044c-1.226-0.35674-2.1962-0.52443-2.9437-0.51591zm24.091 18.373c0.95774 0 1.7323 0.77459 1.7323 1.7323 0 0.95774-0.77458 1.7349-1.7323 1.7349-0.95776 0-1.7349-0.77713-1.7349-1.7349 0-0.95775 0.77712-1.7323 1.7349-1.7323z" fill="#fff"/>
</svg>
