<svg width="128" height="128" version="1.1" viewBox="0 0 33.867 33.867" xmlns="http://www.w3.org/2000/svg" xmlns:xlink="http://www.w3.org/1999/xlink">
<defs>
<linearGradient id="linearGradient897" x1="2686" x2="2686" y1="1088.8" y2="1770.4" gradientTransform="matrix(.042779 0 0 .042779 -95.919 -44.867)" gradientUnits="userSpaceOnUse">
<stop stop-color="#27efe6" offset="0"/>
<stop stop-color="#057ee3" offset="1"/>
</linearGradient>
<radialGradient id="radialGradient898" cx="60.636" cy="20.456" r="17.304" gradientTransform="translate(-43.433 -3.9449)" gradientUnits="userSpaceOnUse">
<stop stop-color="#0b0b0b" offset="0"/>
<stop stop-color="#0b0b0b" stop-opacity=".85882" offset=".68076"/>
<stop stop-color="#0b0b0b" stop-opacity=".83137" offset=".69925"/>
<stop stop-color="#0b0b0b" stop-opacity=".80392" offset=".71879"/>
<stop stop-color="#0b0b0b" stop-opacity=".78039" offset=".73593"/>
<stop stop-color="#0b0b0b" stop-opacity=".75686" offset=".75022"/>
<stop stop-color="#0b0b0b" stop-opacity=".73333" offset=".76799"/>
<stop stop-color="#0b0b0b" stop-opacity=".082353" offset=".91501"/>
<stop stop-color="#0b0b0b" stop-opacity=".070588" offset=".92247"/>
<stop stop-color="#0b0b0b" stop-opacity=".058824" offset=".92919"/>
<stop stop-color="#0b0b0b" stop-opacity=".047059" offset=".93841"/>
<stop stop-color="#0b0b0b" stop-opacity=".031373" offset=".94761"/>
<stop stop-color="#0b0b0b" stop-opacity=".023529" offset=".95381"/>
<stop stop-color="#0b0b0b" stop-opacity=".015686" offset=".95886"/>
<stop stop-color="#0b0b0b" stop-opacity=".011765" offset=".96356"/>
<stop stop-color="#0b0b0b" stop-opacity=".0078431" offset=".96845"/>
<stop stop-color="#0b0b0b" stop-opacity=".0039216" offset=".97348"/>
<stop stop-color="#0b0b0b" stop-opacity="0" offset=".97812"/>
<stop stop-color="#0b0b0b" stop-opacity="0" offset=".98456"/>
<stop stop-color="#0b0b0b" stop-opacity="0" offset=".98701"/>
<stop stop-color="#0b0b0b" stop-opacity="0" offset=".98925"/>
<stop stop-color="#0b0b0b" stop-opacity="0" offset="1"/>
</radialGradient>
<radialGradient id="radialGradient993" cx="16.787" cy="3.5457" r="13.696" gradientTransform="matrix(4.8886 0 0 1.5421 -65.724 -.93385)" gradientUnits="userSpaceOnUse">
<stop stop-color="#0bdfd4" offset="0"/>
<stop stop-color="#0a95ef" offset="1"/>
</radialGradient>
<linearGradient id="linearGradient1189" x1="6.8241" x2="6.8241" y1="12.499" y2="98.79" gradientTransform="matrix(3.7795 0 0 3.7795 4.4295 2.8939)" gradientUnits="userSpaceOnUse">
<stop stop-color="#fff" offset="0"/>
<stop stop-color="#45a5ac" offset="1"/>
</linearGradient>
</defs>
<circle cx="17.203" cy="16.512" r="17.304" fill="url(#radialGradient898)" opacity=".30973" stroke-linecap="square" stroke-linejoin="round" stroke-width="3"/>
<circle cx="17.203" cy="16.512" r="15.118" fill="url(#linearGradient897)" stroke="#b1aaaa" stroke-linecap="square" stroke-opacity=".99216" stroke-width=".057556"/>
<circle cx="17.203" cy="16.512" r="13.102" fill="url(#radialGradient993)"/>
<g transform="matrix(.26458 0 0 .26458 -.94837 -1.9343)" clip-rule="evenodd" stroke-linejoin="round" stroke-miterlimit="1.4142" stroke-width="2.1834">
<path d="m104.67 80.375-4.43 5.3361c-0.69433 0.84933-2.3427 1.1856-3.3209 0.68335l-13.292-6.8339c-0.03288-0.02116-0.06108-0.03742-0.08954-0.05012 0.02797-0.02116 0.05692-0.03477 0.08954-0.04785l11.284-6.0566c1.1746-0.62658 3.5436-0.62658 4.7226-0.0068l1.2314 0.65496c1.5436 0.81877 3.5829 2.4541 4.3711 3.5043 0.33403 0.4476 0.28165 1.7947-0.56552 2.8165m-18.628 22.471c-0.68773 0.8384-2.2772 1.1375-3.2292 0.62005l-0.5764-0.31653-2.1659-1.203c-0.16158-0.0808-0.26423-0.16592-0.32753-0.2205 0.0635-0.0677 0.16377-0.14631 0.31004-0.24238l14.609-9.0129zm-25.633 2.1681c-1.4607 0-3.6528-1.0349-4.5916-2.1681l-3.9846-4.8012c-0.25327-0.31876-0.36457-0.65497-0.3035-0.95849 0.05692-0.3035 0.286-0.57641 0.64408-0.76199l2.6506-1.4257c0.5764-0.3035 1.4126-0.48684 2.31-0.48684 0.90391 0 1.7947 0.19646 2.3755 0.51528l18.314 10.087zm-19.438-20.08 12.074 6.4802c0.06108 0.03477 0.11134 0.0635 0.15284 0.08511-0.04112 0.02797-0.09165 0.05855-0.15284 0.08512l-2.6462 1.4214c-0.32527 0.17034-0.72272 0.26415-1.155 0.26415-0.8275 0-1.6594-0.3493-2.1157-0.89736zm-3.858-8.0216 7.9714-10.629c0.63533-0.8515 2.1724-1.2118 3.1244-0.71397l6.6527 3.4213c0.03942 0.01965 0.07181 0.03477 0.09827 0.05182-0.02646 0.01965-0.05854 0.04112-0.09827 0.05461l-15.325 8.2662c-0.88426 0.47598-2.0043 0.77949-2.8624 0.77949-0.06768 0-0.1223 0-0.17906-0.01058 0.06768-0.28165 0.24235-0.72486 0.61792-1.2205m12.388-16.526 6.0872-8.1068c0.4257-0.56328 1.2183-0.93011 2.024-0.93011 0.38646 0 0.75324 0.08084 1.0589 0.2445l5.4868 2.9235h0.0022l8.8208 4.6964c0.01058 0 0.01739 0.0068 0.02646 0.01323 0.04785 0.01965 0.08954 0.05182 0.12008 0.07181-0.03477 0.02116-0.08084 0.05295-0.13315 0.07672l-11.626 6.2313c-0.60256 0.31657-1.5153 0.50875-2.4454 0.50875-0.91046 0-1.7598-0.17034-2.3406-0.46506l-6.6527-3.4279c-0.3733-0.18561-0.61792-0.47598-0.69647-0.80788-0.07427-0.32969 0.02117-0.68996 0.26854-1.0284m10.554-13.91c4.0982-5.1767 9.1614-11.087 10.987-12.587 1.1004 0.77512 3.441 3.1659 5.4497 5.6178 0.25973 0.31438 0.3668 0.65505 0.3013 0.96287-0.05692 0.3035-0.29038 0.56552-0.64407 0.76638l-12.838 6.823c-1.1637 0.34496-2.7052 0.30792-3.3864-0.05012-0.15496-0.08735-0.23804-0.18996-0.27073-0.35369-0.05692-0.25111 0.02381-0.6987 0.40172-1.179m25.299 4.5851c0.25327 0.33842 0.34927 0.71175 0.27515 1.0524-0.07672 0.34927-0.31877 0.6463-0.6921 0.84933l-5.4584 2.9235c-1.1681 0.63319-3.5327 0.63319-4.7117 0.01323l-0.0042-0.0068-8.8404-4.7029c-0.05182-0.02117-0.09827-0.04785-0.13969-0.07672 0.04112-0.02117 0.09165-0.05182 0.13969-0.08084l12.004-6.4671c0.92793-0.50216 2.4323-0.16373 3.0654 0.67898zm13.085 17.439-3.5218-1.8777c-0.01058 0-0.01058 0-0.01323-0.0091l-13.635-7.2509c-0.0022-0.0042-0.0091-0.0042-0.01965-0.0042-0.04785-0.03061-0.09165-0.05012-0.12442-0.07839 0.03288-0.02117 0.08084-0.05182 0.13531-0.08084l5.4518-2.9257c0.93012-0.49349 2.4388-0.15507 3.072 0.67683zm-19.032 8.1592c-0.90173 0-1.7532-0.17034-2.3362-0.47598l-13.928-7.1614c-0.03288-0.01739-0.0635-0.03061-0.09392-0.05295 0.03061-0.0091 0.06104-0.03061 0.09392-0.05012l11.624-6.2291c1.1747-0.62444 3.5414-0.63318 4.7226-0.01323h0.0091l13.668 7.2815c0.04392 0.01323 0.07427 0.03288 0.10915 0.05461-0.04392 0.02797-0.09165 0.05182-0.13969 0.08084l-11.286 6.0523c-0.60042 0.32092-1.5153 0.51314-2.4432 0.51314m13.679 11.989c0.10919 0.0652 0.20311 0.1223 0.26642 0.16808-0.06104 0.05461-0.14192 0.12231-0.25761 0.19211l-15.013 9.2749c-1.0873 0.67469-3.3515 0.72709-4.4737 0.10481l-12.286-6.7597c-0.07015-0.03742-0.13104-0.07015-0.17681-0.10692 0.05012-0.03061 0.10692-0.0635 0.17681-0.10704l15.805-8.4692c1.1812-0.63318 3.5894-0.64845 4.7794-0.04112l4.9388 2.5393zm-51.778-7.8076c-0.05181-0.01739-0.10693-0.04785-0.1441-0.07672 0.04618-0.02797 0.09607-0.05862 0.15282-0.09396l15.329-8.2575c1.1747-0.63532 3.5894-0.6572 4.7728-0.04392l13.93 7.1636c0.03477 0.01323 0.0635 0.02797 0.09396 0.05012-0.03061 0.0068-0.05854 0.02646-0.09396 0.05012l-15.799 8.4671c-1.179 0.63755-3.548 0.63755-4.7248 0zm66.94-5.5414c-0.63533-0.84277-1.7183-1.8515-2.8951-2.7707 0-1.0808-0.72709-2.0524-1.048-2.4869l-11.513-15.345c-0.83622-1.107-2.0611-1.8864-3.441-2.2227 0.15719-1.2751-0.17907-2.5917-0.98689-3.6724l-4.3668-5.8192c-0.84059-1.1266-2.0807-1.9017-3.4781-2.2423 0.12008-1.2642-0.25111-2.5611-1.1222-3.62-5.8929-7.1854-7.8317-7.1854-8.4627-7.1854-0.90827 0-2.5895 0-13.825 14.207-0.87335 1.1091-1.2751 2.4214-1.1878 3.6724-1.3362 0.36026-2.5261 1.1223-3.3427 2.2117l-6.0807 8.1046c-0.80788 1.0829-1.1375 2.3842-0.9847 3.6528-1.3821 0.35153-2.6026 1.1288-3.4388 2.2467l-7.9714 10.626c-1.1353 1.5131-1.6091 3.1921-1.3013 4.5872 0.07016 0.31219 0.18559 0.58953 0.32316 0.84933-0.07428 1.1528 0.76851 2.1921 1.1746 2.679l9.9365 11.995c0.88208 1.0589 2.1528 1.7991 3.5589 2.1091-0.09827 1.2532 0.286 2.5262 1.1528 3.5654l3.9803 4.8034c1.6637 2.0109 4.8798 3.5196 7.4824 3.5196h21.037c1.9301 0 2.8209-0.64193 3.2314-1.3449 1.6768-0.17246 3.2314-0.93666 4.2619-2.1659l9.5216-11.474c0.71174-0.85806 1.7794-2.3755 1.9279-3.8143 1.0742-0.3843 2.048-1.0022 2.751-1.8515l4.4191-5.3427c1.8558-2.2336 2.1528-5.5152 0.68772-7.4736" fill="#003373" fill-opacity=".11457"/>
<path d="m102.18 78.407-4.43 5.3361c-0.69433 0.84933-2.3427 1.1856-3.3209 0.68335l-13.292-6.8339c-0.03288-0.02117-0.06108-0.03742-0.08954-0.05012 0.02797-0.02116 0.05692-0.03477 0.08954-0.04785l11.284-6.0566c1.1746-0.62658 3.5436-0.62658 4.7226-0.0068l1.2314 0.65497c1.5436 0.81877 3.5829 2.4541 4.3711 3.5043 0.33403 0.4476 0.28165 1.7947-0.56552 2.8165m-18.628 22.471c-0.68773 0.83841-2.2772 1.1375-3.2292 0.62006l-0.5764-0.31653-2.1659-1.203c-0.16158-0.0808-0.26423-0.16593-0.32753-0.2205 0.0635-0.0677 0.16377-0.14631 0.31004-0.24238l14.609-9.0129zm-25.633 2.1681c-1.4607 0-3.6528-1.0349-4.5916-2.1681l-3.9846-4.8012c-0.25327-0.31877-0.36457-0.65497-0.3035-0.9585 0.05692-0.3035 0.286-0.5764 0.64408-0.76199l2.6506-1.4257c0.5764-0.3035 1.4126-0.48684 2.31-0.48684 0.90391 0 1.7947 0.19646 2.3755 0.51528l18.314 10.087zm-19.438-20.08 12.074 6.4802c0.06108 0.03477 0.11134 0.0635 0.15284 0.08512-0.04112 0.02797-0.09165 0.05854-0.15284 0.08512l-2.6462 1.4214c-0.32527 0.17034-0.72272 0.26415-1.155 0.26415-0.8275 0-1.6594-0.3493-2.1157-0.89736zm-3.858-8.0216 7.9714-10.629c0.63533-0.8515 2.1724-1.2118 3.1244-0.71397l6.6527 3.4213c0.03942 0.01965 0.07181 0.03477 0.09827 0.05182-0.02646 0.01965-0.05854 0.04112-0.09827 0.05461l-15.325 8.2662c-0.88426 0.47598-2.0043 0.77949-2.8624 0.77949-0.06768 0-0.1223 0-0.17906-0.01058 0.06768-0.28165 0.24236-0.72486 0.61792-1.2205m12.388-16.526 6.0872-8.1068c0.4257-0.56328 1.2183-0.93011 2.024-0.93011 0.38646 0 0.75324 0.08084 1.0589 0.2445l5.4868 2.9235h0.0022l8.8208 4.6964c0.01058 0 0.01739 0.0068 0.02646 0.01323 0.04785 0.01965 0.08954 0.05182 0.12008 0.07181-0.03477 0.02117-0.08084 0.05295-0.13315 0.07672l-11.626 6.2313c-0.60256 0.31657-1.5153 0.50876-2.4454 0.50876-0.91046 0-1.7598-0.17034-2.3406-0.46506l-6.6527-3.4279c-0.3733-0.18561-0.61792-0.47598-0.69647-0.80788-0.07427-0.32969 0.02117-0.68996 0.26854-1.0284m10.554-13.91c4.0982-5.1767 9.1614-11.087 10.987-12.587 1.1004 0.77512 3.441 3.1659 5.4497 5.6178 0.25973 0.31438 0.3668 0.65505 0.3013 0.96287-0.05692 0.3035-0.29038 0.56552-0.64407 0.76638l-12.838 6.823c-1.1637 0.34496-2.7052 0.30792-3.3864-0.05012-0.15496-0.08734-0.23804-0.18996-0.27073-0.35369-0.05692-0.25111 0.02381-0.6987 0.40172-1.179m25.299 4.5851c0.25327 0.33842 0.34927 0.71174 0.27515 1.0524-0.07672 0.34927-0.31877 0.6463-0.6921 0.84933l-5.4584 2.9235c-1.1681 0.63319-3.5327 0.63319-4.7117 0.01323l-0.0042-0.0068-8.8404-4.7029c-0.05182-0.02117-0.09827-0.04785-0.13969-0.07672 0.04112-0.02117 0.09165-0.05182 0.13969-0.08084l12.004-6.4671c0.92793-0.50216 2.4323-0.16373 3.0654 0.67898zm13.085 17.439-3.5218-1.8777c-0.01058 0-0.01058 0-0.01323-0.0091l-13.635-7.2509c-0.0022-0.0042-0.0091-0.0042-0.01965-0.0042-0.04785-0.03061-0.09165-0.05012-0.12442-0.07839 0.03288-0.02117 0.08084-0.05182 0.13531-0.08084l5.4518-2.9257c0.93012-0.49349 2.4388-0.15507 3.072 0.67683zm-19.032 8.1592c-0.90173 0-1.7532-0.17034-2.3362-0.47598l-13.928-7.1614c-0.03288-0.01739-0.0635-0.03061-0.09392-0.05295 0.03061-0.0091 0.06104-0.03061 0.09392-0.05012l11.624-6.2291c1.1747-0.62443 3.5414-0.63318 4.7226-0.01323h0.0091l13.668 7.2815c0.04392 0.01323 0.07427 0.03288 0.10915 0.05461-0.04392 0.02797-0.09165 0.05182-0.13969 0.08084l-11.286 6.0523c-0.60042 0.32092-1.5153 0.51314-2.4432 0.51314m13.679 11.989c0.10919 0.0652 0.20311 0.12231 0.26642 0.16808-0.06104 0.05461-0.14192 0.1223-0.25761 0.19211l-15.013 9.2749c-1.0873 0.67469-3.3515 0.72709-4.4737 0.10481l-12.286-6.7597c-0.07015-0.03742-0.13104-0.07015-0.17681-0.10692 0.05012-0.03061 0.10692-0.0635 0.17681-0.10704l15.805-8.4692c1.1812-0.63318 3.5894-0.64845 4.7794-0.04112l4.9388 2.5393zm-51.778-7.8076c-0.05181-0.01739-0.10693-0.04785-0.1441-0.07672 0.04618-0.02797 0.09606-0.05862 0.15282-0.09396l15.329-8.2575c1.1747-0.63532 3.5894-0.6572 4.7728-0.04392l13.93 7.1636c0.03477 0.01323 0.0635 0.02797 0.09396 0.05012-0.03061 0.0068-0.05854 0.02646-0.09396 0.05012l-15.799 8.4671c-1.179 0.63755-3.548 0.63755-4.7248 0zm66.94-5.5414c-0.63533-0.84277-1.7183-1.8515-2.8951-2.7707 0-1.0808-0.72709-2.0524-1.048-2.4869l-11.513-15.345c-0.83622-1.107-2.0611-1.8864-3.441-2.2227 0.15719-1.2751-0.17907-2.5917-0.98689-3.6724l-4.3668-5.8192c-0.84059-1.1266-2.0807-1.9017-3.4781-2.2423 0.12008-1.2642-0.25111-2.5611-1.1222-3.62-5.8929-7.1854-7.8317-7.1854-8.4627-7.1854-0.90827 0-2.5895 0-13.825 14.207-0.87335 1.1091-1.2751 2.4214-1.1878 3.6724-1.3362 0.36026-2.5261 1.1223-3.3427 2.2117l-6.0807 8.1046c-0.80788 1.0829-1.1375 2.3842-0.9847 3.6528-1.3821 0.35153-2.6026 1.1288-3.4388 2.2467l-7.9714 10.626c-1.1353 1.5131-1.6091 3.1921-1.3013 4.5872 0.07016 0.31219 0.18559 0.58953 0.32316 0.84933-0.07428 1.1528 0.76851 2.1921 1.1746 2.679l9.9365 11.995c0.88208 1.0589 2.1528 1.7991 3.5589 2.1091-0.09827 1.2532 0.286 2.5261 1.1528 3.5654l3.9803 4.8034c1.6637 2.0109 4.8798 3.5196 7.4824 3.5196h21.037c1.9301 0 2.8209-0.64193 3.2314-1.3449 1.6768-0.17246 3.2314-0.93666 4.2619-2.1659l9.5216-11.474c0.71174-0.85806 1.7794-2.3755 1.9279-3.8143 1.0742-0.3843 2.048-1.0022 2.751-1.8515l4.4191-5.3427c1.8558-2.2336 2.1528-5.5152 0.68772-7.4736" fill="url(#linearGradient1189)"/>
</g>
</svg>
