<svg width="128" height="128" version="1.1" xmlns="http://www.w3.org/2000/svg" xmlns:xlink="http://www.w3.org/1999/xlink">
<defs>
<linearGradient id="linearGradient4835" x1="102.3" x2="102.3" y1="-.42687" y2="199.17" gradientTransform="matrix(5.1 0 0 5.1 2 30.362)" gradientUnits="userSpaceOnUse">
<stop stop-color="#fff" offset="0"/>
<stop stop-color="#d7d7d7" offset="1"/>
</linearGradient>
<linearGradient id="linearGradient6197" x1="99.036" x2="99.036" y1="-.50472" y2="199.84" gradientTransform="matrix(4.6171 0 0 4.6171 45.796 78.158)" gradientUnits="userSpaceOnUse">
<stop stop-color="#369" offset="0"/>
<stop stop-color="#25507b" offset="1"/>
</linearGradient>
<linearGradient id="grd3" x1="403.12" x2="403.12" y1="211.25" y2="396.25" gradientUnits="userSpaceOnUse">
<stop stop-color="#5a1aa9" offset="0"/>
<stop stop-color="#c063d5" offset="1"/>
</linearGradient>
<filter id="filter904" x="-.042002" y="-.031499" width="1.084" height="1.063" color-interpolation-filters="sRGB">
<feGaussianBlur stdDeviation="2.42805"/>
</filter>
<linearGradient id="linearGradient912" x1="403.7" x2="402.71" y1="139.02" y2="463.07" gradientUnits="userSpaceOnUse">
<stop stop-color="#fff" offset="0"/>
<stop stop-color="#d7d7d7" offset="1"/>
</linearGradient>
<linearGradient id="linearGradient922" x1="402.71" x2="402.71" y1="316.42" y2="341.92" gradientUnits="userSpaceOnUse" xlink:href="#grd3"/>
<linearGradient id="linearGradient1021" x1="390.34" x2="390.34" y1="441.36" y2="151.62" gradientUnits="userSpaceOnUse" xlink:href="#grd3"/>
</defs>
<g transform="translate(0 -924.36)">
<g transform="matrix(3.1367 0 0 3.1367 -743.17 -400.14)">
<g transform="matrix(.12103 0 0 .12103 208.81 406.46)">
<circle transform="matrix(.31881 0 0 .31881 236.93 127.57)" cx="512" cy="540.36" r="510" color="#000000" fill="url(#linearGradient4835)"/>
<circle transform="matrix(.31881 0 0 .31881 236.93 127.57)" cx="507.51" cy="539.87" r="461.71" color="#000000" fill="url(#linearGradient6197)"/>
<path class="shp1" d="m400 450c82.84 0 150-67.16 150-150s-67.16-150-150-150-150 67.16-150 150 67.16 150 150 150z" fill="url(#linearGradient1021)"/>
<path class="shp2" d="m377.4 377.56c0 12.08-9.77 21.88-21.82 21.88-5.27 0-10.11-1.87-13.88-4.99 4.18-2.02 7.06-6.3 7.06-11.26 0-6.9-5.6-12.5-12.5-12.5-0.86 0-1.69 0.09-2.5 0.25v-86.82c0-38.48 31.13-69.68 69.52-69.68h0.63c38.16 0 68.68 30.8 68.58 68.88v0.61c-0.01 0.21-0.01 0.41-0.02 0.61-1.39 37.4-32.25 68.01-68.88 68.01-12.05 0-21.82-9.79-21.82-21.87s9.77-21.87 21.82-21.87c12.85 0 24.64-11.67 25.25-25.75-0.05-13.86-11.02-24.88-24.93-24.88h-0.63c-14.29 0-25.87 11.61-25.87 25.93zm51.44-93.88 0.02-1.23c0 0.2-0.01 0.41-0.02 0.61 0 0.2 0 0.41-0.01 0.61zm43.66-0.36-0.02 1.23c0-0.21 0.01-0.41 0.01-0.61 0.01-0.2 0.01-0.41 0.01-0.61z" fill="#0b030d" filter="url(#filter904)" opacity=".3"/>
<path class="shp2" d="m377.4 374.37c0 12.08-9.77 21.88-21.82 21.88-5.27 0-10.11-1.87-13.88-4.99 4.18-2.02 7.06-6.3 7.06-11.26 0-6.9-5.6-12.5-12.5-12.5-0.86 0-1.69 0.09-2.5 0.25v-86.82c0-38.48 31.13-69.68 69.52-69.68h0.63c38.16 0 68.68 30.8 68.58 68.88v0.61c-0.01 0.21-0.01 0.41-0.02 0.61-1.39 37.4-32.25 68.01-68.88 68.01-12.05 0-21.82-9.79-21.82-21.87s9.77-21.87 21.82-21.87c12.85 0 24.64-11.67 25.25-25.75-0.05-13.86-11.02-24.88-24.93-24.88h-0.63c-14.29 0-25.87 11.61-25.87 25.93zm51.44-93.88 0.02-1.23c0 0.2-0.01 0.41-0.02 0.61 0 0.2 0 0.41-0.01 0.61zm43.66-0.36-0.02 1.23c0-0.21 0.01-0.41 0.01-0.61 0.01-0.2 0.01-0.41 0.01-0.61z" fill="url(#linearGradient912)"/>
<path class="shp3" d="m403.75 341.25c7.59 0 13.75-6.16 13.75-13.75s-6.16-13.75-13.75-13.75-13.75 6.16-13.75 13.75 6.16 13.75 13.75 13.75z" fill="url(#linearGradient922)"/>
</g>
</g>
</g>
</svg>
