<svg width="128" height="128" version="1.1" viewBox="0 0 33.867 33.867" xmlns="http://www.w3.org/2000/svg" xmlns:xlink="http://www.w3.org/1999/xlink">
<defs>
<linearGradient id="linearGradient897" x1="2686" x2="2686" y1="1088.8" y2="1770.4" gradientTransform="matrix(.042779 0 0 .042779 -95.919 -44.867)" gradientUnits="userSpaceOnUse">
<stop stop-color="#f7f9fa" offset="0"/>
<stop stop-color="#d2d4d8" offset="1"/>
</linearGradient>
<radialGradient id="radialGradient898" cx="60.636" cy="20.456" r="17.304" gradientTransform="translate(-43.433 -3.9449)" gradientUnits="userSpaceOnUse">
<stop stop-color="#0b0b0b" offset="0"/>
<stop stop-color="#0b0b0b" stop-opacity=".85882" offset=".68076"/>
<stop stop-color="#0b0b0b" stop-opacity=".83137" offset=".69925"/>
<stop stop-color="#0b0b0b" stop-opacity=".80392" offset=".71879"/>
<stop stop-color="#0b0b0b" stop-opacity=".78039" offset=".73593"/>
<stop stop-color="#0b0b0b" stop-opacity=".75686" offset=".75022"/>
<stop stop-color="#0b0b0b" stop-opacity=".73333" offset=".76799"/>
<stop stop-color="#0b0b0b" stop-opacity=".082353" offset=".91501"/>
<stop stop-color="#0b0b0b" stop-opacity=".070588" offset=".92247"/>
<stop stop-color="#0b0b0b" stop-opacity=".058824" offset=".92919"/>
<stop stop-color="#0b0b0b" stop-opacity=".047059" offset=".93841"/>
<stop stop-color="#0b0b0b" stop-opacity=".031373" offset=".94761"/>
<stop stop-color="#0b0b0b" stop-opacity=".023529" offset=".95381"/>
<stop stop-color="#0b0b0b" stop-opacity=".015686" offset=".95886"/>
<stop stop-color="#0b0b0b" stop-opacity=".011765" offset=".96356"/>
<stop stop-color="#0b0b0b" stop-opacity=".0078431" offset=".96845"/>
<stop stop-color="#0b0b0b" stop-opacity=".0039216" offset=".97348"/>
<stop stop-color="#0b0b0b" stop-opacity="0" offset=".97812"/>
<stop stop-color="#0b0b0b" stop-opacity="0" offset=".98456"/>
<stop stop-color="#0b0b0b" stop-opacity="0" offset=".98701"/>
<stop stop-color="#0b0b0b" stop-opacity="0" offset=".98925"/>
<stop stop-color="#0b0b0b" stop-opacity="0" offset="1"/>
</radialGradient>
<radialGradient id="radialGradient993" cx="16.787" cy="3.5457" r="13.696" gradientTransform="matrix(2.0752 0 0 1.5421 -18.496 -.93385)" gradientUnits="userSpaceOnUse">
<stop stop-color="#f3f5f6" stop-opacity=".97647" offset="0"/>
<stop stop-color="#e8e9eb" offset="1"/>
</radialGradient>
</defs>
<circle cx="17.203" cy="16.512" r="17.304" fill="url(#radialGradient898)" opacity=".30973" stroke-linecap="square" stroke-linejoin="round" stroke-width="3"/>
<circle cx="17.203" cy="16.512" r="15.118" fill="url(#linearGradient897)" stroke="#b1aaaa" stroke-linecap="square" stroke-opacity=".99216" stroke-width=".057556"/>
<circle cx="17.203" cy="16.512" r="13.102" fill="url(#radialGradient993)"/>
<path d="m15.426 6.0003c-1.4422-0.023466-3.0326 0.63861-4.9123 2.0944-0.22524 0.17539-0.49591 0.39683-0.6369 0.56816-0.70312 0.88139-0.16794 1.8619-0.16794 1.8619l0.87239 1.7617c0.2371 0.47881 0.47511 0.9571 0.71816 1.4329 1.0953 2.1584 3.6902 7.1826 4.6736 8.3062 1.0287 1.1754 1.7069 0.51783 1.9754 0.01749 0.13174-0.22816 0.10796-0.6447 0.05672-0.88814-0.15434-0.69706-0.50383-1.6872-0.50383-1.6872l-1.1932-3.0906c1.6588-0.86241 3.513-2.2223 3.7574-4.708 0.13244-1.318-0.03311-3.4311-2.1731-4.9098-0.78904-0.48435-1.601-0.74508-2.4663-0.75913zm-1.1466 2.6377a2.6228 1.2719 67.009 0 1 1.8971 1.8826 2.6228 1.2719 67.009 0 1-0.06821 2.9778 2.6228 1.2719 67.009 0 1-2.1992-1.8128 2.6228 1.2719 67.009 0 1 0.06821-2.9778 2.6228 1.2719 67.009 0 1 0.30203-0.069752zm9.4786 2.3146c-0.1321-0.0015-0.26164 0.0071-0.38702 0.02624-0.58589 0.09881-1.2145 0.49269-1.3583 1.6825-0.28413 2.3514-0.40344 3.8344-0.40344 3.8344s-0.70678 5.9071 2.2513 0.66162c2.2302-3.9547 2.3845-5.0446 1.6254-5.6125-0.53528-0.38703-1.1556-0.58563-1.728-0.5922zm-2.318 9.6764a1.1234 1.1234 0 0 0-1.1169 1.1233 1.1234 1.1234 0 0 0 1.1235 1.1235 1.1234 1.1234 0 0 0 1.1233-1.1235 1.1234 1.1234 0 0 0-1.1233-1.1233 1.1234 1.1234 0 0 0-0.0067 0zm-9.7619 3.2732c-0.60602 0-1.0938 0.4498-1.0938 1.0087v0.13119c0 0.55887 0.48781 1.0088 1.0938 1.0088h12.688c0.60602 0 1.0938-0.44997 1.0938-1.0088v-0.13119c0-0.55887-0.4878-1.0087-1.0938-1.0087z" fill-opacity=".18247"/>
<path d="m14.927 5.7421c-1.4422-0.023466-3.0326 0.63861-4.9123 2.0944-0.22524 0.17539-0.49591 0.39683-0.6369 0.56816-0.70312 0.88139-0.16794 1.8619-0.16794 1.8619l0.87239 1.7617c0.2371 0.47881 0.47511 0.9571 0.71816 1.4329 1.0953 2.1584 3.6902 7.1826 4.6736 8.3062 1.0287 1.1754 1.7069 0.51783 1.9754 0.01749 0.13174-0.22816 0.10796-0.6447 0.05672-0.88814-0.15434-0.69706-0.50383-1.6872-0.50383-1.6872l-1.1932-3.0906c1.6588-0.86241 3.513-2.2223 3.7574-4.708 0.13244-1.318-0.03311-3.4311-2.1731-4.9098-0.78904-0.48435-1.601-0.74508-2.4663-0.75913zm-1.1466 2.6377a2.6228 1.2719 67.009 0 1 1.8971 1.8826 2.6228 1.2719 67.009 0 1-0.06821 2.9778 2.6228 1.2719 67.009 0 1-2.1992-1.8128 2.6228 1.2719 67.009 0 1 0.06821-2.9778 2.6228 1.2719 67.009 0 1 0.30203-0.069752zm9.4786 2.3146c-0.1321-0.0015-0.26164 0.0071-0.38702 0.02624-0.58589 0.09881-1.2145 0.49269-1.3583 1.6825-0.28413 2.3514-0.40344 3.8344-0.40344 3.8344s-0.70678 5.9071 2.2513 0.66162c2.2302-3.9547 2.3845-5.0446 1.6254-5.6125-0.53528-0.38703-1.1556-0.58563-1.728-0.5922zm-2.318 9.6764a1.1234 1.1234 0 0 0-1.1169 1.1233 1.1234 1.1234 0 0 0 1.1235 1.1235 1.1234 1.1234 0 0 0 1.1233-1.1235 1.1234 1.1234 0 0 0-1.1233-1.1233 1.1234 1.1234 0 0 0-0.0067 0zm-9.7619 3.2732c-0.60602 0-1.0938 0.4498-1.0938 1.0087v0.13119c0 0.55887 0.48781 1.0088 1.0938 1.0088h12.688c0.60602 0 1.0938-0.44997 1.0938-1.0088v-0.13119c0-0.55887-0.4878-1.0087-1.0938-1.0087z" fill="#363636"/>
</svg>
