<svg width="64" height="64" version="1.1" xmlns="http://www.w3.org/2000/svg">
<path d="m57 53.022v-43.244c0-1.5389-1.2389-2.7778-2.7778-2.7778h-44.444c-1.5389 0-2.7778 1.2389-2.7778 2.7778v43.244c0 1.5389 1.2389 2.7778 2.7778 2.7778h44.444c1.5389 0 2.7778-1.2389 2.7778-2.7778z" fill="#ff766a"/>
<path d="m7 51v4.2c0 1.5512 1.2389 2.8 2.7778 2.8h44.444c1.5389 0 2.7778-1.2488 2.7778-2.8v-4.2z" opacity=".2"/>
<path d="m7 50v4.2c0 1.5512 1.2389 2.8 2.7778 2.8h44.444c1.5389 0 2.7778-1.2488 2.7778-2.8v-4.2z" fill="#d22f7a"/>
<path d="m6.8 22c-1.5512 0-2.8 1.2255-2.8 2.7478v16.487c0 1.5223 1.2488 2.7478 2.8 2.7478h19.368c0.54816 0.08591 1.0963-0.15409 1.3973-0.61182l4.4352-6.3709 4.4352 6.3709c0.29969 0.45477 0.84364 0.69436 1.3891 0.61182h19.376c1.5512 0 2.8-1.2255 2.8-2.7478v-16.487c0-1.5223-1.2488-2.7478-2.8-2.7478z" opacity=".2"/>
<path d="m7 50v-1.9462s3.8383-3.0431 4.9737-3.3259c1.1354-0.28295 1.275-0.05232 2.6529 0.26397 1.378 0.31525 3.4352 1.4413 4.0772 1.4679 0.64207 0.02723 1.8039-0.06811 3.1539-0.16736 1.35-0.09722 3.5853-0.18682 4.2825-0.17707 0.6972 0 2.4377 0.1168 4.2931 0.25451 1.8553 0.1381 4.4037 0.36895 4.9818 0.43355 0.57819 0.06419 1.2578 0.18292 2.0292 0.31232 0.77126 0.12839 2.1064 0.32243 2.5789 0.37576 0.47235 0.05243 1.5674 0.23565 2.8381 0.37789 1.2706 0.142 1.7052 0.19039 2.2924 0.13779 0.58722-0.05263 1.818-0.58045 3.1898-1.0679 1.3716-0.48725 1.4841-0.93315 2.6345-0.82281 1.1504 0.11082 6.0222 1.9375 6.0222 1.9375v1.946z" fill="#3f3f3f"/>
<path d="m6.8 21c-1.5512 0-2.8 1.2255-2.8 2.7478v16.487c0 1.5223 1.2488 2.7478 2.8 2.7478h19.368c0.54816 0.08591 1.0963-0.15409 1.3973-0.61182l4.4352-6.3709 4.4352 6.3709c0.29969 0.45477 0.84364 0.69436 1.3891 0.61182h19.376c1.5512 0 2.8-1.2255 2.8-2.7478v-16.487c0-1.5223-1.2488-2.7478-2.8-2.7478z" fill="#fff"/>
<rect x="8" y="26" width="18" height="13" ry="2.8" fill="#e31c1c"/>
<rect x="38" y="26" width="18" height="13" ry="2.8" fill="#24dbdb"/>
<path d="m12.674 33.605c-0.19428 0.013226-0.41538 0.052309-0.69922 0.12305-0.85722 0.21352-2.8413 1.6997-3.9648 2.5625 0.049253 1.5074 1.2713 2.709 2.791 2.709h12.398c1.5512 0 2.8008-1.2496 2.8008-2.8008v-1.0801c-0.77797-0.002411-2.8426 0.080212-4.1426 0.17383-1.35 0.099254-2.5122 0.19324-3.1543 0.16602-0.64204-0.026646-2.6982-1.1515-4.0762-1.4668-1.0334-0.23722-1.3703-0.4264-1.9531-0.38672zm38.305 1.5117c-1.1504-0.11033-1.2631 0.33501-2.6348 0.82226-1.3717 0.48746-2.6022 1.0157-3.1895 1.0684-0.58716 0.052603-1.0224 0.003325-2.293-0.13867-1.2706-0.14224-2.3655-0.32452-2.8379-0.37695-0.37054-0.041823-1.2798-0.17955-2.0234-0.29492v0.001953c0 1.5512 1.2496 2.8008 2.8008 2.8008h12.398c1.3874 0 2.5253-1.0014 2.752-2.3223-1.295-0.47501-4.056-1.4722-4.9727-1.5605z" opacity=".2"/>
<path d="m9.7773 7c-1.5389 0-2.7773 1.2385-2.7773 2.7773v1c0-1.5389 1.2385-2.7773 2.7773-2.7773h44.445c1.5389 0 2.7773 1.2385 2.7773 2.7773v-1c0-1.5389-1.2385-2.7773-2.7773-2.7773h-44.445z" fill="#fff" opacity=".2"/>
<path d="m7 50v1h50v-1h-50z" fill="#fff" opacity=".1"/>
<path d="m10.801 26c-1.5512 0-2.8008 1.2496-2.8008 2.8008v1c0-1.5512 1.2496-2.8008 2.8008-2.8008h12.398c1.5512 0 2.8008 1.2496 2.8008 2.8008v-1c0-1.5512-1.2496-2.8008-2.8008-2.8008h-12.398zm30 0c-1.5512 0-2.8008 1.2496-2.8008 2.8008v1c0-1.5512 1.2496-2.8008 2.8008-2.8008h12.398c1.5512 0 2.8008 1.2496 2.8008 2.8008v-1c0-1.5512-1.2496-2.8008-2.8008-2.8008h-12.398z" opacity=".2"/>
</svg>
