<svg width="128" height="128" version="1.1" viewBox="0 0 33.867 33.867" xmlns="http://www.w3.org/2000/svg" xmlns:osb="http://www.openswatchbook.org/uri/2009/osb" xmlns:xlink="http://www.w3.org/1999/xlink">
<defs>
<clipPath>
<rect width="384" height="384"/>
</clipPath>
<clipPath>
<rect width="384" height="384"/>
</clipPath>
<linearGradient id="linearGradient948" x1="122.34" x2="84.091" y1="117.04" y2="71.02" gradientTransform="matrix(.26458 0 0 .26458 -73.214 269.23)" gradientUnits="userSpaceOnUse" xlink:href="#linearGradient944"/>
<linearGradient id="linearGradient944">
<stop stop-color="#d5dada" offset="0"/>
<stop stop-color="#f1f1f1" offset="1"/>
</linearGradient>
<linearGradient id="linearGradient993" x1="-33.316" x2="-21.756" y1="267.26" y2="285.73" gradientUnits="userSpaceOnUse">
<stop stop-color="#fa8652" offset="0"/>
<stop stop-color="#ff1e47" offset="1"/>
</linearGradient>
<clipPath>
<rect width="384" height="384"/>
</clipPath>
<clipPath>
<rect width="384" height="384"/>
</clipPath>
<linearGradient id="linearGradient1194" x1="122.34" x2="84.091" y1="117.04" y2="71.02" gradientTransform="matrix(.26458 0 0 .26458 -114.23 271.81)" gradientUnits="userSpaceOnUse" xlink:href="#linearGradient944"/>
</defs>
<g transform="translate(0 -263.13)">
<g transform="matrix(.97507 -.15 .15 .97507 22.55 10.715)" fill="none" opacity=".389" stroke="#000" stroke-linecap="round" stroke-linejoin="round" stroke-opacity=".039216">
<rect transform="rotate(-.018651)" x="-61.945" y="253.77" width="25.83" height="29.567" rx="1.4423" ry="1.4423" opacity="1" stroke-width=".15" style="paint-order:fill markers stroke"/>
<rect transform="rotate(-.018651)" x="-61.945" y="253.77" width="25.83" height="29.567" rx="1.4423" ry="1.4423" opacity="1" stroke-width=".3" style="paint-order:fill markers stroke"/>
<rect transform="rotate(-.018651)" x="-61.945" y="253.77" width="25.83" height="29.567" rx="1.4423" ry="1.4423" opacity="1" stroke-width=".45" style="paint-order:fill markers stroke"/>
<rect transform="rotate(-.018651)" x="-61.945" y="253.77" width="25.83" height="29.567" rx="1.4423" ry="1.4423" opacity="1" stroke-width=".6" style="paint-order:fill markers stroke"/>
<rect transform="rotate(-.018651)" x="-61.945" y="253.77" width="25.83" height="29.567" rx="1.4423" ry="1.4423" opacity="1" stroke-width=".85" style="paint-order:fill markers stroke"/>
<rect transform="rotate(-.018651)" x="-61.945" y="253.77" width="25.83" height="29.567" rx="1.4423" ry="1.4423" opacity="1" style="paint-order:fill markers stroke"/>
</g>
<rect transform="rotate(-8.764)" x="-40.457" y="264.37" width="25.483" height="29.169" rx="1.4229" ry="1.4229" fill="url(#linearGradient993)" style="paint-order:fill markers stroke"/>
<g transform="translate(-41.203 2.3135)" fill="none" opacity=".133" stroke="#212121" stroke-linecap="round" stroke-linejoin="round" stroke-opacity=".1">
<path d="m66.98 265.72c-1.6727 0.15282-3.0631 1.455-3.2555 3.1824-0.10335 0.92883 0.16779 1.8083 0.68005 2.5082-1.4348-0.60431-3.4441 0.17688-3.4441 0.17688s-3.0891 1.1038-7.8681 7.0228l0.0015 2e-3 -2.8738 3.3637 5.1596-1.113-0.01019 0.0113h-0.0015l-2.1045 2.182-6.3545 6.5826c0.46825 0.4757 1.0645 0.99336 1.5298 1.366 0.81673 0.65677 1.5163 1.0867 2.0445 1.3864l-1.366-2.3414c3.8335-1.9799 6.6545-4.8179 8.8582-6.625 5.6559-4.6463 6.644-8.2294 6.644-8.2294s0.28817-0.75359 0.39487-1.6102c0.0014-8e-3 0.0062-0.017 0.0073-0.0226 0.09192-0.57461 0.06385-1.0281-0.10092-1.4361-0.01047-0.0291-0.01896-0.0594-0.03071-0.0878-0.015-0.0322-0.03136-0.0648-0.04825-0.0965-0.01273-0.0255-0.02518-0.0523-0.03947-0.0775 0.55572 0.54046 1.2797 0.91675 2.1118 1.0091 1.9806 0.21905 3.7657-1.202 3.9867-3.175 0.22032-1.973-1.2084-3.7527-3.1897-3.9721-0.2478-0.0283-0.49228-0.0283-0.73124-6e-3z" stroke-width=".25"/>
<path d="m66.98 265.72c-1.6727 0.15282-3.0631 1.455-3.2555 3.1824-0.10335 0.92883 0.16779 1.8083 0.68005 2.5082-1.4348-0.60431-3.4441 0.17688-3.4441 0.17688s-3.0891 1.1038-7.8681 7.0228l0.0015 2e-3 -2.8738 3.3637 5.1596-1.113-0.01019 0.0113h-0.0015l-2.1045 2.182-6.3545 6.5826c0.46825 0.4757 1.0645 0.99336 1.5298 1.366 0.81673 0.65677 1.5163 1.0867 2.0445 1.3864l-1.366-2.3414c3.8335-1.9799 6.6545-4.8179 8.8582-6.625 5.6559-4.6463 6.644-8.2294 6.644-8.2294s0.28817-0.75359 0.39487-1.6102c0.0014-8e-3 0.0062-0.017 0.0073-0.0226 0.09192-0.57461 0.06385-1.0281-0.10092-1.4361-0.01047-0.0291-0.01896-0.0594-0.03071-0.0878-0.015-0.0322-0.03136-0.0648-0.04825-0.0965-0.01273-0.0255-0.02518-0.0523-0.03947-0.0775 0.55572 0.54046 1.2797 0.91675 2.1118 1.0091 1.9806 0.21905 3.7657-1.202 3.9867-3.175 0.22032-1.973-1.2084-3.7527-3.1897-3.9721-0.2478-0.0283-0.49228-0.0283-0.73124-6e-3z" stroke-width=".5"/>
<path d="m66.98 265.72c-1.6727 0.15282-3.0631 1.455-3.2555 3.1824-0.10335 0.92883 0.16779 1.8083 0.68005 2.5082-1.4348-0.60431-3.4441 0.17688-3.4441 0.17688s-3.0891 1.1038-7.8681 7.0228l0.0015 2e-3 -2.8738 3.3637 5.1596-1.113-0.01019 0.0113h-0.0015l-2.1045 2.182-6.3545 6.5826c0.46825 0.4757 1.0645 0.99336 1.5298 1.366 0.81673 0.65677 1.5163 1.0867 2.0445 1.3864l-1.366-2.3414c3.8335-1.9799 6.6545-4.8179 8.8582-6.625 5.6559-4.6463 6.644-8.2294 6.644-8.2294s0.28817-0.75359 0.39487-1.6102c0.0014-8e-3 0.0062-0.017 0.0073-0.0226 0.09192-0.57461 0.06385-1.0281-0.10092-1.4361-0.01047-0.0291-0.01896-0.0594-0.03071-0.0878-0.015-0.0322-0.03136-0.0648-0.04825-0.0965-0.01273-0.0255-0.02518-0.0523-0.03947-0.0775 0.55572 0.54046 1.2797 0.91675 2.1118 1.0091 1.9806 0.21905 3.7657-1.202 3.9867-3.175 0.22032-1.973-1.2084-3.7527-3.1897-3.9721-0.2478-0.0283-0.49228-0.0283-0.73124-6e-3z" stroke-width=".75"/>
<path d="m66.98 265.72c-1.6727 0.15282-3.0631 1.455-3.2555 3.1824-0.10335 0.92883 0.16779 1.8083 0.68005 2.5082-1.4348-0.60431-3.4441 0.17688-3.4441 0.17688s-3.0891 1.1038-7.8681 7.0228l0.0015 2e-3 -2.8738 3.3637 5.1596-1.113-0.01019 0.0113h-0.0015l-2.1045 2.182-6.3545 6.5826c0.46825 0.4757 1.0645 0.99336 1.5298 1.366 0.81673 0.65677 1.5163 1.0867 2.0445 1.3864l-1.366-2.3414c3.8335-1.9799 6.6545-4.8179 8.8582-6.625 5.6559-4.6463 6.644-8.2294 6.644-8.2294s0.28817-0.75359 0.39487-1.6102c0.0014-8e-3 0.0062-0.017 0.0073-0.0226 0.09192-0.57461 0.06385-1.0281-0.10092-1.4361-0.01047-0.0291-0.01896-0.0594-0.03071-0.0878-0.015-0.0322-0.03136-0.0648-0.04825-0.0965-0.01273-0.0255-0.02518-0.0523-0.03947-0.0775 0.55572 0.54046 1.2797 0.91675 2.1118 1.0091 1.9806 0.21905 3.7657-1.202 3.9867-3.175 0.22032-1.973-1.2084-3.7527-3.1897-3.9721-0.2478-0.0283-0.49228-0.0283-0.73124-6e-3z"/>
<path d="m66.98 265.72c-1.6727 0.15282-3.0631 1.455-3.2555 3.1824-0.10335 0.92883 0.16779 1.8083 0.68005 2.5082-1.4348-0.60431-3.4441 0.17688-3.4441 0.17688s-3.0891 1.1038-7.8681 7.0228l0.0015 2e-3 -2.8738 3.3637 5.1596-1.113-0.01019 0.0113h-0.0015l-2.1045 2.182-6.3545 6.5826c0.46825 0.4757 1.0645 0.99336 1.5298 1.366 0.81673 0.65677 1.5163 1.0867 2.0445 1.3864l-1.366-2.3414c3.8335-1.9799 6.6545-4.8179 8.8582-6.625 5.6559-4.6463 6.644-8.2294 6.644-8.2294s0.28817-0.75359 0.39487-1.6102c0.0014-8e-3 0.0062-0.017 0.0073-0.0226 0.09192-0.57461 0.06385-1.0281-0.10092-1.4361-0.01047-0.0291-0.01896-0.0594-0.03071-0.0878-0.015-0.0322-0.03136-0.0648-0.04825-0.0965-0.01273-0.0255-0.02518-0.0523-0.03947-0.0775 0.55572 0.54046 1.2797 0.91675 2.1118 1.0091 1.9806 0.21905 3.7657-1.202 3.9867-3.175 0.22032-1.973-1.2084-3.7527-3.1897-3.9721-0.2478-0.0283-0.49228-0.0283-0.73124-6e-3z" stroke-width="1.4"/>
<path d="m66.98 265.72c-1.6727 0.15282-3.0631 1.455-3.2555 3.1824-0.10335 0.92883 0.16779 1.8083 0.68005 2.5082-1.4348-0.60431-3.4441 0.17688-3.4441 0.17688s-3.0891 1.1038-7.8681 7.0228l0.0015 2e-3 -2.8738 3.3637 5.1596-1.113-0.01019 0.0113h-0.0015l-2.1045 2.182-6.3545 6.5826c0.46825 0.4757 1.0645 0.99336 1.5298 1.366 0.81673 0.65677 1.5163 1.0867 2.0445 1.3864l-1.366-2.3414c3.8335-1.9799 6.6545-4.8179 8.8582-6.625 5.6559-4.6463 6.644-8.2294 6.644-8.2294s0.28817-0.75359 0.39487-1.6102c0.0014-8e-3 0.0062-0.017 0.0073-0.0226 0.09192-0.57461 0.06385-1.0281-0.10092-1.4361-0.01047-0.0291-0.01896-0.0594-0.03071-0.0878-0.015-0.0322-0.03136-0.0648-0.04825-0.0965-0.01273-0.0255-0.02518-0.0523-0.03947-0.0775 0.55572 0.54046 1.2797 0.91675 2.1118 1.0091 1.9806 0.21905 3.7657-1.202 3.9867-3.175 0.22032-1.973-1.2084-3.7527-3.1897-3.9721-0.2478-0.0283-0.49228-0.0283-0.73124-6e-3z" stroke-width="1.8"/>
<path d="m66.98 265.72c-1.6727 0.15282-3.0631 1.455-3.2555 3.1824-0.10335 0.92883 0.16779 1.8083 0.68005 2.5082-1.4348-0.60431-3.4441 0.17688-3.4441 0.17688s-3.0891 1.1038-7.8681 7.0228l0.0015 2e-3 -2.8738 3.3637 5.1596-1.113-0.01019 0.0113h-0.0015l-2.1045 2.182-6.3545 6.5826c0.46825 0.4757 1.0645 0.99336 1.5298 1.366 0.81673 0.65677 1.5163 1.0867 2.0445 1.3864l-1.366-2.3414c3.8335-1.9799 6.6545-4.8179 8.8582-6.625 5.6559-4.6463 6.644-8.2294 6.644-8.2294s0.28817-0.75359 0.39487-1.6102c0.0014-8e-3 0.0062-0.017 0.0073-0.0226 0.09192-0.57461 0.06385-1.0281-0.10092-1.4361-0.01047-0.0291-0.01896-0.0594-0.03071-0.0878-0.015-0.0322-0.03136-0.0648-0.04825-0.0965-0.01273-0.0255-0.02518-0.0523-0.03947-0.0775 0.55572 0.54046 1.2797 0.91675 2.1118 1.0091 1.9806 0.21905 3.7657-1.202 3.9867-3.175 0.22032-1.973-1.2084-3.7527-3.1897-3.9721-0.2478-0.0283-0.49228-0.0283-0.73124-6e-3z" stroke-width="2.4"/>
<path d="m66.98 265.72c-1.6727 0.15282-3.0631 1.455-3.2555 3.1824-0.10335 0.92883 0.16779 1.8083 0.68005 2.5082-1.4348-0.60431-3.4441 0.17688-3.4441 0.17688s-3.0891 1.1038-7.8681 7.0228l0.0015 2e-3 -2.8738 3.3637 5.1596-1.113-0.01019 0.0113h-0.0015l-2.1045 2.182-6.3545 6.5826c0.46825 0.4757 1.0645 0.99336 1.5298 1.366 0.81673 0.65677 1.5163 1.0867 2.0445 1.3864l-1.366-2.3414c3.8335-1.9799 6.6545-4.8179 8.8582-6.625 5.6559-4.6463 6.644-8.2294 6.644-8.2294s0.28817-0.75359 0.39487-1.6102c0.0014-8e-3 0.0062-0.017 0.0073-0.0226 0.09192-0.57461 0.06385-1.0281-0.10092-1.4361-0.01047-0.0291-0.01896-0.0594-0.03071-0.0878-0.015-0.0322-0.03136-0.0648-0.04825-0.0965-0.01273-0.0255-0.02518-0.0523-0.03947-0.0775 0.55572 0.54046 1.2797 0.91675 2.1118 1.0091 1.9806 0.21905 3.7657-1.202 3.9867-3.175 0.22032-1.973-1.2084-3.7527-3.1897-3.9721-0.2478-0.0283-0.49228-0.0283-0.73124-6e-3z" stroke-width="3"/>
<path d="m66.98 265.72c-1.6727 0.15282-3.0631 1.455-3.2555 3.1824-0.10335 0.92883 0.16779 1.8083 0.68005 2.5082-1.4348-0.60431-3.4441 0.17688-3.4441 0.17688s-3.0891 1.1038-7.8681 7.0228l0.0015 2e-3 -2.8738 3.3637 5.1596-1.113-0.01019 0.0113h-0.0015l-2.1045 2.182-6.3545 6.5826c0.46825 0.4757 1.0645 0.99336 1.5298 1.366 0.81673 0.65677 1.5163 1.0867 2.0445 1.3864l-1.366-2.3414c3.8335-1.9799 6.6545-4.8179 8.8582-6.625 5.6559-4.6463 6.644-8.2294 6.644-8.2294s0.28817-0.75359 0.39487-1.6102c0.0014-8e-3 0.0062-0.017 0.0073-0.0226 0.09192-0.57461 0.06385-1.0281-0.10092-1.4361-0.01047-0.0291-0.01896-0.0594-0.03071-0.0878-0.015-0.0322-0.03136-0.0648-0.04825-0.0965-0.01273-0.0255-0.02518-0.0523-0.03947-0.0775 0.55572 0.54046 1.2797 0.91675 2.1118 1.0091 1.9806 0.21905 3.7657-1.202 3.9867-3.175 0.22032-1.973-1.2084-3.7527-3.1897-3.9721-0.2478-0.0283-0.49228-0.0283-0.73124-6e-3z" stroke-width="4"/>
<path d="m66.98 265.72c-1.6727 0.15282-3.0631 1.455-3.2555 3.1824-0.10335 0.92883 0.16779 1.8083 0.68005 2.5082-1.4348-0.60431-3.4441 0.17688-3.4441 0.17688s-3.0891 1.1038-7.8681 7.0228l0.0015 2e-3 -2.8738 3.3637 5.1596-1.113-0.01019 0.0113h-0.0015l-2.1045 2.182-6.3545 6.5826c0.46825 0.4757 1.0645 0.99336 1.5298 1.366 0.81673 0.65677 1.5163 1.0867 2.0445 1.3864l-1.366-2.3414c3.8335-1.9799 6.6545-4.8179 8.8582-6.625 5.6559-4.6463 6.644-8.2294 6.644-8.2294s0.28817-0.75359 0.39487-1.6102c0.0014-8e-3 0.0062-0.017 0.0073-0.0226 0.09192-0.57461 0.06385-1.0281-0.10092-1.4361-0.01047-0.0291-0.01896-0.0594-0.03071-0.0878-0.015-0.0322-0.03136-0.0648-0.04825-0.0965-0.01273-0.0255-0.02518-0.0523-0.03947-0.0775 0.55572 0.54046 1.2797 0.91675 2.1118 1.0091 1.9806 0.21905 3.7657-1.202 3.9867-3.175 0.22032-1.973-1.2084-3.7527-3.1897-3.9721-0.2478-0.0283-0.49228-0.0283-0.73124-6e-3z" stroke-width="5"/>
<path d="m66.98 265.72c-1.6727 0.15282-3.0631 1.455-3.2555 3.1824-0.10335 0.92883 0.16779 1.8083 0.68005 2.5082-1.4348-0.60431-3.4441 0.17688-3.4441 0.17688s-3.0891 1.1038-7.8681 7.0228l0.0015 2e-3 -2.8738 3.3637 5.1596-1.113-0.01019 0.0113h-0.0015l-2.1045 2.182-6.3545 6.5826c0.46825 0.4757 1.0645 0.99336 1.5298 1.366 0.81673 0.65677 1.5163 1.0867 2.0445 1.3864l-1.366-2.3414c3.8335-1.9799 6.6545-4.8179 8.8582-6.625 5.6559-4.6463 6.644-8.2294 6.644-8.2294s0.28817-0.75359 0.39487-1.6102c0.0014-8e-3 0.0062-0.017 0.0073-0.0226 0.09192-0.57461 0.06385-1.0281-0.10092-1.4361-0.01047-0.0291-0.01896-0.0594-0.03071-0.0878-0.015-0.0322-0.03136-0.0648-0.04825-0.0965-0.01273-0.0255-0.02518-0.0523-0.03947-0.0775 0.55572 0.54046 1.2797 0.91675 2.1118 1.0091 1.9806 0.21905 3.7657-1.202 3.9867-3.175 0.22032-1.973-1.2084-3.7527-3.1897-3.9721-0.2478-0.0283-0.49228-0.0283-0.73124-6e-3z" stroke-width="6.5"/>
</g>
<path d="m25.777 268.03c-1.6727 0.15282-3.0631 1.455-3.2555 3.1824-0.10335 0.92883 0.16779 1.8083 0.68005 2.5082-1.4348-0.60431-3.4441 0.17688-3.4441 0.17688s-3.0891 1.1038-7.8681 7.0228l0.0015 2e-3 -2.8738 3.3637 5.1596-1.113-0.01019 0.0113h-0.0015l-2.1045 2.182-6.3545 6.5826c0.46825 0.4757 1.0645 0.99336 1.5298 1.366 0.81673 0.65677 1.5163 1.0867 2.0445 1.3864l-1.366-2.3414c3.8335-1.9799 6.6545-4.8179 8.8582-6.625 5.6559-4.6463 6.644-8.2294 6.644-8.2294s0.28817-0.75359 0.39487-1.6102c0.0014-8e-3 0.0062-0.017 0.0073-0.0226 0.09192-0.57461 0.06385-1.0281-0.10092-1.4361-0.01047-0.0291-0.01896-0.0594-0.03071-0.0878-0.015-0.0322-0.03136-0.0648-0.04825-0.0965-0.01273-0.0255-0.02518-0.0523-0.03947-0.0775 0.55572 0.54046 1.2797 0.91675 2.1118 1.0091 1.9806 0.21905 3.7657-1.202 3.9867-3.175 0.22032-1.973-1.2084-3.7527-3.1897-3.9721-0.2478-0.0283-0.49228-0.0283-0.73124-6e-3z" fill="#fff"/>
</g>
</svg>
