<svg width="128" height="128" enable-background="new" version="1.1" viewBox="0 0 33.867 33.867" xmlns="http://www.w3.org/2000/svg" xmlns:osb="http://www.openswatchbook.org/uri/2009/osb" xmlns:xlink="http://www.w3.org/1999/xlink">
<defs>
<linearGradient id="linearGradient1134" x1="-468.81" x2="-466.79" y1="180.32" y2="321.2" gradientTransform="matrix(.21602 0 0 .21585 117.38 226.32)" gradientUnits="userSpaceOnUse">
<stop stop-color="#c7dfe6" offset="0"/>
<stop stop-color="#767a7b" offset=".80061"/>
<stop stop-color="#636262" offset="1"/>
</linearGradient>
<linearGradient id="linearGradient2405" x1="-488.19" x2="-488.09" y1="122.45" y2="264.24" gradientTransform="matrix(.21602 0 0 .21585 125.12 238.49)" gradientUnits="userSpaceOnUse">
<stop stop-color="#50657e" offset="0"/>
<stop stop-color="#444646" offset="1"/>
</linearGradient>
<linearGradient id="linearGradient4538">
<stop stop-color="#7d766f" offset="0"/>
<stop stop-color="#6f6963" offset=".55046"/>
<stop stop-color="#797573" offset="1"/>
</linearGradient>
<linearGradient id="linearGradient4183">
<stop stop-color="#3c3e40" offset="0"/>
<stop stop-color="#414649" offset=".26737"/>
<stop stop-color="#9fc8df" offset=".67472"/>
<stop stop-color="#6187a8" offset="1"/>
</linearGradient>
<linearGradient id="linearGradient3335">
<stop stop-opacity="0" offset="0"/>
<stop stop-opacity="0" offset=".92204"/>
<stop stop-opacity=".16863" offset=".93293"/>
<stop stop-opacity=".75" offset="1"/>
</linearGradient>
<linearGradient id="linearGradient3325">
<stop stop-color="#fff" offset="0"/>
<stop stop-color="#fff" stop-opacity="0" offset="1"/>
</linearGradient>
<linearGradient id="linearGradient3278" x1="-33.254" x2="-33.254" y1="71.087" y2="24.093" gradientTransform="matrix(.57843 0 0 .57843 36.316 251.81)" gradientUnits="userSpaceOnUse">
<stop stop-color="#b5b8b7" offset="0"/>
<stop stop-color="#d7e9ed" offset="1"/>
</linearGradient>
<radialGradient id="radialGradient3280" cx="-33.509" cy="49.33" r="23.728" gradientTransform="matrix(.56341 0 0 .56341 35.813 252.53)" gradientUnits="userSpaceOnUse">
<stop stop-color="#393039" offset="0"/>
<stop stop-color="#504f4f" offset=".88647"/>
<stop stop-color="#101410" offset="1"/>
</radialGradient>
<linearGradient id="linearGradient3331" x1="-20.2" x2="-20.2" y1="94.897" y2="23.103" gradientTransform="matrix(1.4348 0 0 1.4348 69.939 56.8)" gradientUnits="userSpaceOnUse" xlink:href="#linearGradient3325"/>
<filter id="filter4169">
<feGaussianBlur stdDeviation="1.5096852"/>
</filter>
<filter id="filter4134" x="-.10518" y="-.10518" width="1.2104" height="1.2104">
<feGaussianBlur stdDeviation="1.9789596"/>
</filter>
<radialGradient id="radialGradient4703" cx="-41.396" cy="47.578" r="23.547" gradientTransform="matrix(0 -1.4427 1.4409 0 48.802 64.325)" gradientUnits="userSpaceOnUse" xlink:href="#linearGradient3335"/>
<linearGradient id="linearGradient4710" x1="-44.828" x2="-44.828" y1="71.921" y2="16.078" gradientTransform="matrix(1.475 0 0 1.475 182.82 56.739)" gradientUnits="userSpaceOnUse" xlink:href="#linearGradient4538"/>
<radialGradient id="radialGradient4717" cx="-41.396" cy="47.578" r="23.547" gradientTransform="matrix(0 -1.4427 1.4409 0 -58.331 64.325)" gradientUnits="userSpaceOnUse" xlink:href="#linearGradient3335"/>
<linearGradient id="linearGradient4724" x1="-44.828" x2="-44.828" y1="71.921" y2="16.078" gradientTransform="matrix(1.475 0 0 1.475 75.688 56.739)" gradientUnits="userSpaceOnUse" xlink:href="#linearGradient4538"/>
<radialGradient id="radialGradient4683" cx="-41.66" cy="48.942" r="23.547" gradientUnits="userSpaceOnUse">
<stop stop-color="#393039" offset="0"/>
<stop stop-color="#504f4f" offset=".82274"/>
<stop stop-color="#101410" offset="1"/>
</radialGradient>
<radialGradient id="radialGradient4687" cx="-41.396" cy="47.578" r="23.547" gradientTransform="matrix(1.6778e-8 -1.0196 1.0184 1.6757e-8 -90.071 4.6681)" gradientUnits="userSpaceOnUse" xlink:href="#linearGradient3335"/>
<linearGradient id="linearGradient2848" x1="-44.828" x2="-44.828" y1="71.921" y2="16.078" gradientTransform="translate(92.474 956.36)" gradientUnits="userSpaceOnUse">
<stop stop-color="#7d766f" offset="0"/>
<stop stop-color="#e6e6e6" offset=".55046"/>
<stop stop-color="#adb3ae" offset="1"/>
</linearGradient>
<linearGradient id="linearGradient2850" x1="-20.2" x2="-20.2" y1="94.897" y2="23.103" gradientUnits="userSpaceOnUse" xlink:href="#linearGradient3325"/>
<linearGradient id="linearGradient2852" x1="-42.061" x2="-42.061" y1="70.318" y2="23.66" gradientTransform="matrix(.95919 0 0 .95919 88.011 957.03)" gradientUnits="userSpaceOnUse">
<stop stop-color="#7d766f" offset="0"/>
<stop stop-color="#c0bfb9" offset=".55046"/>
<stop stop-color="#adb3ae" offset="1"/>
</linearGradient>
<linearGradient id="linearGradient2854" x1="-40.48" x2="-40.48" y1="69.188" y2="23.095" gradientUnits="userSpaceOnUse" xlink:href="#linearGradient4183"/>
<linearGradient id="linearGradient2856" x1="-41.207" x2="-41.207" y1="68.681" y2="22.302" gradientUnits="userSpaceOnUse">
<stop stop-color="#d2cdc5" offset="0"/>
<stop stop-color="#cbc1b6" offset="1"/>
</linearGradient>
<linearGradient id="linearGradient2858" x1="-43.945" x2="-43.945" y1="69.065" y2="23.632" gradientUnits="userSpaceOnUse" xlink:href="#linearGradient4183"/>
<linearGradient id="linearGradient2860" x1="-41.575" x2="-41.575" y1="69.832" y2="23.858" gradientUnits="userSpaceOnUse">
<stop stop-color="#e2dad2" offset="0"/>
<stop stop-color="#e0d5c5" offset="1"/>
</linearGradient>
</defs>
<g transform="translate(0 -263.13)">
<rect x=".51523" y="264.71" width="32.836" height="30.722" ry="1.4207" fill="url(#linearGradient1134)" stroke="url(#linearGradient2405)" stroke-linecap="round" stroke-linejoin="round" stroke-width=".50129"/>
<circle cx="16.933" cy="279.47" r="13.725" fill="url(#linearGradient3278)"/>
<circle cx="16.933" cy="279.47" r="13.369" fill="url(#radialGradient3280)"/>
<path transform="matrix(.39025 0 0 .39025 -1.7988 -131.71)" d="m47.692 1027.6c-0.47602 0-0.72646 0.2359-1.0625 1.875-0.33604 1.6391-0.71875 2.5938-0.71875 2.5938-0.7539 0.064-1.4856 0.1508-2.2188 0.2812 0 0-0.6262-0.785-1.375-2.2812-0.56159-1.1223-0.87636-1.522-1.1875-1.5938-0.10371-0.024-0.19737 1e-3 -0.3125 0.031l-0.71875 0.1875c-0.36042 0.096-0.58894 0.5304-0.40625 2 0.18001 1.4435-0.11429 2.7339-0.125 2.7813-0.70234 0.2562-1.3915 0.5274-2.0625 0.8437 0 0-0.79571-0.6235-1.9062-1.875-0.83292-0.9387-1.2373-1.2288-1.5625-1.2187-0.10841 0-0.2091 0.035-0.3125 0.094l-0.625 0.375c-0.32327 0.1861-0.43183 0.6902 0.125 2.0625 0.53789 1.3241 0.6199 2.5953 0.625 2.6875-0.61611 0.4316-1.208 0.8904-1.7812 1.375v-0.031s-0.9159-0.3599-2.3125-1.2813c-1.0475-0.6911-1.5258-0.8773-1.8438-0.7812-0.10597 0.032-0.19664 0.1037-0.28125 0.1875l-0.53125 0.5312c-0.26408 0.2634-0.20552 0.7561 0.6875 1.9375 0.89382 1.1815 1.2812 2.5 1.2812 2.5-0.46653 0.5573-0.92694 1.1214-1.3438 1.7188h-0.03125s-0.97501-0.159-2.5625-0.6875c-0.79377-0.2643-1.2754-0.3819-1.5938-0.375-0.3184 0.01-0.47362 0.1382-0.59375 0.3437l-0.375 0.6563c-0.1869 0.3228-0.04335 0.8087 1.125 1.7187 1.1692 0.9099 1.9062 2.0625 1.9062 2.0625-0.30874 0.6637-0.59367 1.3372-0.84375 2.0312l-0.03125-0.031s-1.0173 0.1309-2.6875 0.031c-0.41757-0.025-0.73524-0.043-1-0.031-0.79429 0.037-0.99948 0.2494-1.0938 0.5938l-0.21875 0.7187c-0.09699 0.3602 0.19843 0.7672 1.5625 1.3438 1.3648 0.5763 2.375 1.5 2.375 1.5-0.12477 0.717-0.21956 1.4507-0.28125 2.1875h-0.0625s-0.92345 0.3827-2.5625 0.7187c-1.6392 0.336-1.9037 0.5864-1.9062 1.0625v0.75c-4.63e-4 0.373 0.37693 0.7024 1.8438 0.9063 1.4675 0.2034 2.6875 0.8437 2.6875 0.8437 0.06441 0.7331 0.15436 1.4429 0.28125 2.1563l-0.0625 0.031s-0.78502 0.595-2.2812 1.3438c-1.4963 0.7488-1.6832 1.0707-1.5625 1.5312l0.1875 0.7188c0.09609 0.3604 0.53039 0.5889 2 0.4062 1.4701-0.1833 2.8438 0.125 2.8438 0.125 0.25362 0.6927 0.53161 1.3692 0.84375 2.0313h-0.0625s-0.62354 0.7957-1.875 1.9062c-1.2515 1.1106-1.3296 1.4614-1.0938 1.875l0.375 0.6563c0.18611 0.3233 0.65902 0.4319 2.0312-0.125 1.3726-0.5575 2.75-0.625 2.75-0.625 0.42063 0.5988 0.9043 1.1605 1.375 1.7187l-0.0625 0.062s-0.39112 0.9159-1.3125 2.3125c-0.92144 1.3967-0.92857 1.7866-0.59375 2.125l0.53125 0.5c0.26346 0.2642 0.75616 0.2369 1.9375-0.6562 1.1815-0.8938 2.5-1.2813 2.5-1.2813l0.03125-0.031c0.55608 0.4657 1.1228 0.9276 1.7188 1.3437l-0.03125 0.062s-0.12773 0.975-0.65625 2.5625c-0.52855 1.5876-0.44224 1.9473-0.03125 2.1875l0.625 0.375c0.32287 0.187 0.80884 0.043 1.7188-1.125 0.90993-1.1691 2.0625-1.9062 2.0625-1.9062l0.03125-0.031c0.65442 0.3054 1.316 0.5955 2 0.8438v0.062s0.13088 0.986 0.03125 2.6562c-0.09964 1.6703 0.0721 1.9994 0.53125 2.125l0.71875 0.1875c0.36025 0.097 0.76741-0.1665 1.3438-1.5312 0.57634-1.3648 1.5-2.375 1.5-2.375v-0.031c0.72331 0.1278 1.444 0.2178 2.1875 0.2813v0.093s0.38271 0.9234 0.71875 2.5625c0.33604 1.6391 0.58648 1.9038 1.0625 1.9063h0.75c0.37295 0 0.70277-0.3764 0.90625-1.8438s0.84375-2.6875 0.84375-2.6875v-0.031c0.73312-0.063 1.4427-0.1562 2.1562-0.2813v0.062s0.92352 0.9792 1.5 2.3438c0.57631 1.3647 0.98366 1.63 1.3438 1.5312l0.71875-0.1875c0.45925-0.1257 0.66201-0.4235 0.5625-2.0937-0.09971-1.6701 0-2.6875 0-2.6875v-0.062c0.69353-0.2508 1.3681-0.5344 2.0312-0.8438v0.031s1.1525 0.7373 2.0625 1.9062c0.9099 1.1691 1.3965 1.3136 1.7188 1.125l0.625-0.375c0.41106-0.2403 0.52842-0.5686 0-2.1562-0.52857-1.5874-0.6875-2.5938-0.6875-2.5938l-0.03125-0.062c0.59764-0.4164 1.1924-0.8463 1.75-1.3125h0.03125s1.2872 0.3878 2.4688 1.2813c1.1815 0.8938 1.675 0.953 1.9375 0.6875l0.53125-0.5313c0.33486-0.3385 0.35881-0.697-0.5625-2.0937-0.9214-1.3965-1.3438-2.3438-1.3438-2.3438l-0.03125-0.031c0.47238-0.5592 0.92165-1.1501 1.3438-1.75l0.03125 0.031s1.3462 0.036 2.7188 0.5938c1.3725 0.5575 1.8464 0.4494 2.0312 0.125l0.375-0.6563c0.23585-0.4136 0.15764-0.7331-1.0938-1.8437-1.2515-1.1105-1.875-1.9063-1.875-1.9063l-0.03125-0.031c0.31214-0.6621 0.59013-1.3386 0.84375-2.0313 0 0 1.3112-0.3082 2.7812-0.125 1.4701 0.1832 1.9367-0.045 2.0312-0.4062l0.1875-0.7188c0.12078-0.4605-0.03507-0.7512-1.5312-1.5-1.4963-0.7488-2.3125-1.375-2.3125-1.375l-0.03125-0.031c0.12688-0.7134 0.21684-1.4232 0.28125-2.1563 0 0 1.1889-0.6402 2.6562-0.8437 1.4674-0.2035 1.8457-0.5334 1.8438-0.9063v-0.75c-0.0025-0.476-0.23598-0.7264-1.875-1.0625-1.6391-0.336-2.5938-0.7187-2.5938-0.7187h-0.03125c-0.06169-0.7368-0.15648-1.4705-0.28125-2.1875 0 0 0.97903-0.9237 2.3438-1.5 1.3647-0.5764 1.6297-0.984 1.5312-1.3438l-0.1875-0.7187c-0.12561-0.4592-0.42359-0.6621-2.0938-0.5625-1.6702 0.1-2.6875-0.031-2.6875-0.031-0.24764-0.6848-0.53897-1.3448-0.84375-2 0 0 0.70595-1.1526 1.875-2.0625 1.169-0.9099 1.3132-1.3968 1.125-1.7187l-0.375-0.6563c-0.12008-0.2055-0.25189-0.3369-0.5625-0.3437-0.31061-0.01-0.80001 0.1107-1.5938 0.375-1.5875 0.5285-2.5938 0.6875-2.5938 0.6875-0.42519-0.6094-0.89811-1.1824-1.375-1.75 0 0-2.31e-4 -0.03 0-0.031 0.01317-0.043 0.40294-1.2764 1.2812-2.4375 0.89371-1.1815 0.95263-1.6752 0.6875-1.9375l-0.53125-0.5313c-0.12688-0.1256-0.25122-0.2141-0.4375-0.2187-0.31047-0.01-0.78337 0.2054-1.6562 0.7812-1.3966 0.9214-2.3438 1.3125-2.3438 1.3125-0.55805-0.4699-1.1515-0.8926-1.75-1.3125 0 0-2.7e-5 -0.03 0-0.031 0.0015-0.048 0.04647-1.3401 0.59375-2.6875 0.55747-1.3725 0.44898-1.8777 0.125-2.0625l-0.625-0.375c-0.15506-0.088-0.28792-0.1389-0.46875-0.094-0.30138 0.075-0.71215 0.4054-1.4062 1.1875-1.1106 1.2515-1.9062 1.9063-1.9062 1.9063-0.67458-0.3171-1.3563-0.6187-2.0625-0.875-0.02052-0.09-0.3016-1.302-0.125-2.7188 0.18324-1.47-0.04549-1.9366-0.40625-2.0312l-0.71875-0.1875c-0.11511-0.03-0.20879-0.052-0.3125-0.031-0.31112 0.063-0.62588 0.4403-1.1875 1.5625-0.74882 1.4962-1.375 2.3125-1.375 2.3125-0.72331-0.1278-1.444-0.2178-2.1875-0.2813-0.0208-0.039-0.64368-1.1822-0.84375-2.625-0.20348-1.4674-0.5333-1.8457-0.90625-1.8437h-0.75z" filter="url(#filter4169)" opacity=".8"/>
<g transform="matrix(.39025 0 0 .39025 -1.8119 -111.38)" stroke-width=".33899">
<path d="m47.692 972.36c-0.47602 2e-3 -0.72646 0.23591-1.0625 1.875-0.33604 1.6391-0.71875 2.5938-0.71875 2.5938-0.7539 0.0644-1.4856 0.15086-2.2188 0.28125 0 0-0.6262-0.78501-1.375-2.2812-0.56159-1.1222-0.87636-1.522-1.1875-1.5938-0.10371-0.0239-0.19737 1e-3 -0.3125 0.0312l-0.71875 0.1875c-0.36042 0.0961-0.58894 0.53039-0.40625 2 0.18001 1.4435-0.11429 2.7339-0.125 2.7812-0.70234 0.2562-1.3915 0.52743-2.0625 0.84375 0 0-0.79571-0.62354-1.9062-1.875-0.83292-0.93866-1.2373-1.2288-1.5625-1.2188-0.10841 3e-3 -0.2091 0.0348-0.3125 0.0937l-0.625 0.375c-0.32327 0.1861-0.43183 0.69025 0.125 2.0625 0.53789 1.3241 0.6199 2.5953 0.625 2.6875-0.61611 0.4316-1.208 0.89049-1.7812 1.375v-0.0312s-0.9159-0.35986-2.3125-1.2812c-1.0475-0.6911-1.5258-0.87732-1.8438-0.78125-0.10597 0.032-0.19664 0.10379-0.28125 0.1875l-0.53125 0.53125c-0.26408 0.26343-0.20552 0.75613 0.6875 1.9375 0.89382 1.1815 1.2812 2.5 1.2812 2.5-0.46653 0.55726-0.92694 1.1214-1.3438 1.7188h-0.03125s-0.97501-0.15898-2.5625-0.6875c-0.79377-0.2643-1.2754-0.38188-1.5938-0.375-0.3184 7e-3 -0.47362 0.13823-0.59375 0.34375l-0.375 0.65625c-0.1869 0.3228-0.04335 0.80876 1.125 1.7188 1.1692 0.90988 1.9062 2.0625 1.9062 2.0625-0.30874 0.66373-0.59367 1.3372-0.84375 2.0312l-0.03125-0.0312s-1.0173 0.13089-2.6875 0.0312c-0.41757-0.0249-0.73524-0.0434-1-0.0312-0.79429 0.0366-0.99948 0.24935-1.0938 0.59375l-0.21875 0.71875c-0.09699 0.36017 0.19843 0.76716 1.5625 1.3438 1.3648 0.57628 2.375 1.5 2.375 1.5-0.12477 0.71702-0.21956 1.4507-0.28125 2.1875h-0.0625s-0.92345 0.38268-2.5625 0.71872c-1.6392 0.336-1.9037 0.5864-1.9062 1.0625v0.75c-4.63e-4 0.373 0.37693 0.7024 1.8438 0.9063 1.4675 0.2034 2.6875 0.8437 2.6875 0.8437 0.06441 0.7331 0.15436 1.4429 0.28125 2.1563l-0.0625 0.031s-0.78502 0.595-2.2812 1.3438c-1.4963 0.7488-1.6832 1.0707-1.5625 1.5312l0.1875 0.7188c0.09609 0.3604 0.53039 0.5889 2 0.4062 1.4701-0.1833 2.8438 0.125 2.8438 0.125 0.25362 0.6927 0.53161 1.3692 0.84375 2.0313h-0.0625s-0.62354 0.7957-1.875 1.9062c-1.2515 1.1106-1.3296 1.4614-1.0938 1.875l0.375 0.6563c0.18611 0.3233 0.65902 0.4319 2.0312-0.125 1.3726-0.5575 2.75-0.625 2.75-0.625 0.42063 0.5988 0.9043 1.1605 1.375 1.7187l-0.0625 0.062s-0.39112 0.9159-1.3125 2.3125c-0.92144 1.3967-0.92857 1.7866-0.59375 2.125l0.53125 0.5c0.26346 0.2642 0.75616 0.2369 1.9375-0.6562 1.1815-0.8938 2.5-1.2813 2.5-1.2813l0.03125-0.031c0.55608 0.4657 1.1228 0.9276 1.7188 1.3437l-0.03125 0.062s-0.12773 0.975-0.65625 2.5625c-0.52855 1.5876-0.44224 1.9473-0.03125 2.1875l0.625 0.375c0.32287 0.187 0.80884 0.043 1.7188-1.125 0.90993-1.1691 2.0625-1.9062 2.0625-1.9062l0.03125-0.031c0.65442 0.3054 1.316 0.5955 2 0.8438v0.062s0.13088 0.986 0.03125 2.6562c-0.09964 1.6703 0.0721 1.9994 0.53125 2.125l0.71875 0.1875c0.36025 0.097 0.76741-0.1665 1.3438-1.5312 0.57634-1.3648 1.5-2.375 1.5-2.375v-0.031c0.72331 0.1278 1.444 0.2178 2.1875 0.2813v0.093s0.38271 0.9234 0.71875 2.5625c0.33604 1.6391 0.58648 1.9038 1.0625 1.9063h0.75c0.37295 0 0.70277-0.3764 0.90625-1.8438s0.84375-2.6875 0.84375-2.6875v-0.031c0.73312-0.063 1.4427-0.1562 2.1562-0.2813v0.062s0.92352 0.9792 1.5 2.3438c0.57631 1.3647 0.98366 1.63 1.3438 1.5312l0.71875-0.1875c0.45925-0.1257 0.66201-0.4235 0.5625-2.0937-0.09971-1.6701 0-2.6875 0-2.6875v-0.062c0.69353-0.2508 1.3681-0.5344 2.0312-0.8438v0.031s1.1525 0.7373 2.0625 1.9062c0.9099 1.1691 1.3965 1.3136 1.7188 1.125l0.625-0.375c0.41106-0.2403 0.52842-0.5686 0-2.1562-0.52857-1.5874-0.6875-2.5938-0.6875-2.5938l-0.03125-0.062c0.59764-0.4164 1.1924-0.8463 1.75-1.3125h0.03125s1.2872 0.3878 2.4688 1.2813c1.1815 0.8938 1.675 0.953 1.9375 0.6875l0.53125-0.5313c0.33486-0.3385 0.35881-0.697-0.5625-2.0937-0.9214-1.3965-1.3438-2.3438-1.3438-2.3438l-0.03125-0.031c0.47238-0.5592 0.92165-1.1501 1.3438-1.75l0.03125 0.031s1.3462 0.036 2.7188 0.5938c1.3725 0.5575 1.8464 0.4494 2.0312 0.125l0.375-0.6563c0.23585-0.4136 0.15764-0.7331-1.0938-1.8437-1.2515-1.1105-1.875-1.9063-1.875-1.9063l-0.03125-0.031c0.31214-0.6621 0.59013-1.3386 0.84375-2.0313 0 0 1.3112-0.3082 2.7812-0.125 1.4701 0.1832 1.9367-0.045 2.0312-0.4062l0.1875-0.7188c0.12078-0.4605-0.03507-0.7512-1.5312-1.5-1.4963-0.7488-2.3125-1.375-2.3125-1.375l-0.03125-0.031c0.12688-0.7134 0.21684-1.4232 0.28125-2.1563 0 0 1.1889-0.6402 2.6562-0.8437 1.4674-0.2035 1.8457-0.5334 1.8438-0.9063v-0.75c-0.0025-0.476-0.23598-0.7264-1.875-1.0625-1.6391-0.336-2.5938-0.71872-2.5938-0.71872h-0.03125c-0.06169-0.73677-0.15648-1.4705-0.28125-2.1875 0 0 0.97903-0.92367 2.3438-1.5 1.3647-0.57634 1.6297-0.98402 1.5312-1.3438l-0.1875-0.71875c-0.12561-0.45914-0.42359-0.66207-2.0938-0.5625-1.6702 0.0996-2.6875-0.0312-2.6875-0.0312-0.24764-0.68481-0.53897-1.3448-0.84375-2 0 0 0.70595-1.1526 1.875-2.0625 1.169-0.90991 1.3132-1.3968 1.125-1.7188l-0.375-0.65625c-0.12008-0.20549-0.25189-0.33688-0.5625-0.34375-0.31061-7e-3 -0.80001 0.11078-1.5938 0.375-1.5875 0.52852-2.5938 0.6875-2.5938 0.6875-0.42519-0.60932-0.89811-1.1824-1.375-1.75 0 0-2.31e-4 -0.0305 0-0.0312 0.01317-0.0432 0.40294-1.2764 1.2812-2.4375 0.89371-1.1815 0.95263-1.6752 0.6875-1.9375l-0.53125-0.53125c-0.12688-0.12556-0.25122-0.21407-0.4375-0.21875-0.31047-8e-3 -0.78337 0.20541-1.6562 0.78125-1.3966 0.92139-2.3438 1.3125-2.3438 1.3125-0.55805-0.46994-1.1515-0.89256-1.75-1.3125 0 0-2.7e-5 -0.0304 0-0.0312 0.0015-0.0479 0.04647-1.3401 0.59375-2.6875 0.55747-1.3725 0.44898-1.8778 0.125-2.0625l-0.625-0.375c-0.15506-0.0884-0.28792-0.13894-0.46875-0.0937-0.30138 0.0753-0.71215 0.40536-1.4062 1.1875-1.1106 1.2515-1.9062 1.9062-1.9062 1.9062-0.67458-0.31706-1.3563-0.61867-2.0625-0.875-0.02052-0.0901-0.3016-1.302-0.125-2.7188 0.18324-1.47-0.04549-1.9366-0.40625-2.0312l-0.71875-0.1875c-0.11511-0.0302-0.20879-0.0522-0.3125-0.0312-0.31112 0.063-0.62588 0.44034-1.1875 1.5625-0.74882 1.4963-1.375 2.3125-1.375 2.3125-0.72331-0.12772-1.444-0.21776-2.1875-0.28125-0.0208-0.0389-0.64368-1.1822-0.84375-2.625-0.20348-1.4674-0.5333-1.8458-0.90625-1.8438h-0.75z" fill="url(#linearGradient2848)"/>
<circle transform="matrix(.97275 0 0 .97275 88.576 956.4)" cx="-41.66" cy="46.37" r="23.547" fill="url(#linearGradient2850)"/>
<circle transform="matrix(.8776 0 0 .8776 84.612 960.82)" cx="-41.66" cy="46.37" r="23.547" fill="#fff" opacity=".75"/>
<circle transform="matrix(.8651 0 0 .8651 84.091 961.39)" cx="-41.66" cy="46.37" r="23.547" opacity=".2"/>
<circle transform="matrix(.8526 0 0 .8526 83.571 961.97)" cx="-41.66" cy="46.37" r="23.547" fill="url(#radialGradient4683)"/>
<path transform="translate(0 956.36)" d="m48.031 25.375c-8.7951 0-16.402 5.0352-20.125 12.375v5.7188c0.73657-3.2823 2.2243-6.2891 4.3125-8.7812 1.1247-0.61387 2.0541-0.99071 2.875-0.96875 0.93301 0.025 1.7248 0.54694 2.4375 1.7812l5.4375 9.4062c1.0937 1.8944 0.7443 4.5842-0.34375 6.4688l-5.25 9.0938c-0.5464 0.94645-1.0843 1.5648-1.8438 1.75v1.5h6.4688v1.0312h0.03125c0.07942-0.4347 0.25629-0.90712 0.5625-1.4375l5.5938-9.7188c1.0314-1.7863 2.3934-2.6562 4.7812-2.6562h11.094c1.4389 0 2.3688 0.31592 2.875 1.4062v-9.0625c-0.42539 1.137-1.2914 1.7188-3 1.7188h-11.031c-1.9484 0-3.6452-1.0383-4.5625-2.625l-5.75-9.9688c-1.097-1.8999-0.96969-3.1193 1.6875-4.7812 1.217-0.22386 2.4682-0.34375 3.75-0.34375 8.4382 0 15.69 5.0879 18.906 12.344v-4.0312c-4.038-6.1505-11.002-10.219-18.906-10.219zm-20.125 27.156v2.3438h0.6875c-0.26756-0.76071-0.50718-1.5459-0.6875-2.3438z" filter="url(#filter4134)" opacity=".82186"/>
<path d="m48.036 978.92c-12.474 0-22.562 10.12-22.562 22.594 0 12.474 10.088 22.562 22.562 22.562s22.594-10.088 22.594-22.562c0-12.474-10.12-22.594-22.594-22.594zm0 1.9062c8.7669 0 16.272 5.4769 19.281 13.188-0.02278 2.9594-0.58547 4.5312-3.375 4.5312h-11.031c-1.9484 0-3.6452-1.0384-4.5625-2.625l-5.75-9.9688c-1.097-1.8999-0.96969-3.1193 1.6875-4.7812 1.217-0.22386 2.4682-0.34375 3.75-0.34375zm-12.938 6.4375c0.93301 0.025 1.7248 0.54694 2.4375 1.7812l5.4375 9.4062c1.0937 1.8944 0.7443 4.5842-0.34375 6.4688l-5.25 9.0937c-1.1067 1.917-2.2401 2.4253-5.0625 0.9063-3.0749-3.6062-4.9375-8.2927-4.9375-13.406 0-5.0564 1.8302-9.6848 4.8438-13.281 1.1247-0.61387 2.0541-0.99071 2.875-0.96875zm17.875 17.219h11.094c2.3023 0 3.3188 0.7675 3.3438 4.3125-2.9534 7.8131-10.528 13.375-19.375 13.375-1.2039 0-2.3839-0.1151-3.5312-0.3125-2.3211-1.4201-3.2425-2.6856-1.9062-5l5.5938-9.7188c1.0314-1.7863 2.3934-2.6562 4.7812-2.6562z" fill="url(#linearGradient2852)"/>
<circle transform="matrix(.95929 0 0 .95929 88.015 957.03)" cx="-41.66" cy="46.37" r="23.547" fill="url(#radialGradient4687)"/>
<circle transform="matrix(.13636 0 0 .13636 53.681 995.46)" cx="-41.66" cy="46.37" r="23.547" opacity=".05"/>
<circle transform="matrix(.12616 0 0 .12616 53.256 995.93)" cx="-41.66" cy="46.37" r="23.547" opacity=".1"/>
<circle transform="matrix(.1151 0 0 .1151 52.795 996.44)" cx="-41.66" cy="46.37" r="23.547" opacity=".3"/>
<circle transform="matrix(.11221 0 0 .11221 52.675 996.31)" cx="-41.66" cy="46.37" r="23.547" fill="url(#linearGradient2854)"/>
<circle transform="matrix(.10356 0 0 .10356 52.297 996.71)" cx="-41.66" cy="46.37" r="23.547" fill="url(#linearGradient2856)"/>
<circle transform="matrix(.093644 0 0 .093644 51.884 997.17)" cx="-41.66" cy="46.37" r="23.547" fill="#b3aca4"/>
<circle transform="matrix(.07183 0 0 .07183 51.043 998.61)" cx="-41.66" cy="46.37" r="23.547" opacity=".2"/>
<circle transform="matrix(.07183 0 0 .07183 51.043 998.18)" cx="-41.66" cy="46.37" r="23.547" fill="url(#linearGradient2858)"/>
<circle transform="matrix(.061253 0 0 .061253 50.603 998.67)" cx="-41.66" cy="46.37" r="23.547" fill="url(#linearGradient2860)"/>
<circle transform="matrix(.053774 0 0 .053774 50.291 999.02)" cx="-41.66" cy="46.37" r="23.547" fill="#c5c1bb"/>
<path transform="translate(0 956.36)" d="m47.688 16c-0.47602 2e-3 -0.72646 0.23591-1.0625 1.875-0.33604 1.6391-0.71875 2.5938-0.71875 2.5938-0.7539 0.0644-1.4856 0.15086-2.2188 0.28125 0 0-0.6262-0.78501-1.375-2.2812-0.56159-1.1222-0.87636-1.522-1.1875-1.5938-0.10371-0.0239-0.19737 1e-3 -0.3125 0.03125l-0.71875 0.1875c-0.36042 0.0961-0.58894 0.53039-0.40625 2 0.18001 1.4435-0.11429 2.7339-0.125 2.7812-0.70234 0.2562-1.3915 0.52743-2.0625 0.84375 0 0-0.79571-0.62354-1.9062-1.875-0.83292-0.93866-1.2373-1.2288-1.5625-1.2188-0.10841 3e-3 -0.2091 0.03485-0.3125 0.09375l-0.625 0.375c-0.32327 0.1861-0.43183 0.69025 0.125 2.0625 0.53789 1.3241 0.6199 2.5953 0.625 2.6875-0.61611 0.4316-1.208 0.89049-1.7812 1.375v-0.03125s-0.9159-0.35986-2.3125-1.2812c-1.0475-0.6911-1.5258-0.87732-1.8438-0.78125-0.10597 0.032-0.19664 0.10379-0.28125 0.1875l-0.53125 0.53125c-0.26408 0.26343-0.20552 0.75613 0.6875 1.9375 0.89382 1.1815 1.2812 2.5 1.2812 2.5-0.46653 0.55726-0.92694 1.1214-1.3438 1.7188h-0.03125s-0.97501-0.15898-2.5625-0.6875c-0.79377-0.2643-1.2754-0.38188-1.5938-0.375-0.3184 7e-3 -0.47362 0.13823-0.59375 0.34375l-0.375 0.65625c-0.1869 0.3228-0.04335 0.80876 1.125 1.7188 1.1692 0.90988 1.9062 2.0625 1.9062 2.0625-0.30874 0.66373-0.59367 1.3372-0.84375 2.0312l-0.03125-0.03125s-1.0173 0.13094-2.6875 0.03125c-0.41757-0.0249-0.73524-0.04345-1-0.03125-0.79429 0.0366-0.99948 0.24935-1.0938 0.59375l-0.21875 0.71875c-0.09699 0.36017 0.19843 0.76716 1.5625 1.3438 1.3648 0.57628 2.375 1.5 2.375 1.5-0.12477 0.71702-0.21956 1.4507-0.28125 2.1875h-0.0625s-0.92345 0.38271-2.5625 0.71875c-1.6392 0.336-1.9037 0.5864-1.9062 1.0625v0.75c-4.63e-4 0.373 0.37693 0.70235 1.8438 0.90625 1.4675 0.2034 2.6875 0.84375 2.6875 0.84375 0.06441 0.7331 0.15436 1.4428 0.28125 2.1562l-0.0625 0.03125s-0.78502 0.59495-2.2812 1.3438c-1.4963 0.7488-1.6832 1.0708-1.5625 1.5312l0.1875 0.71875c0.09609 0.3604 0.53039 0.58895 2 0.40625 1.4701-0.1833 2.8438 0.125 2.8438 0.125 0.25362 0.6927 0.53161 1.3692 0.84375 2.0312h-0.0625s-0.62354 0.79575-1.875 1.9062c-1.2515 1.1106-1.3296 1.4614-1.0938 1.875l0.375 0.65625c0.18611 0.3233 0.65902 0.4319 2.0312-0.125 1.3726-0.5575 2.75-0.625 2.75-0.625 0.42063 0.5988 0.9043 1.1606 1.375 1.7188l-0.0625 0.0625s-0.39112 0.9159-1.3125 2.3125c-0.92144 1.3967-0.92857 1.7866-0.59375 2.125l0.53125 0.5c0.26346 0.2642 0.75616 0.23685 1.9375-0.65625 1.1815-0.8938 2.5-1.2812 2.5-1.2812l0.03125-0.03125c0.55608 0.4657 1.1228 0.92765 1.7188 1.3438l-0.03125 0.0625s-0.12773 0.975-0.65625 2.5625c-0.52855 1.5876-0.44224 1.9473-0.03125 2.1875l0.625 0.375c0.32287 0.187 0.80884 0.043 1.7188-1.125 0.90993-1.1691 2.0625-1.9062 2.0625-1.9062l0.03125-0.03125c0.65442 0.3054 1.316 0.59545 2 0.84375v0.0625s0.13088 0.98605 0.03125 2.6562c-0.09964 1.6703 0.0721 1.9994 0.53125 2.125l0.71875 0.1875c0.36025 0.097 0.76741-0.16655 1.3438-1.5312 0.57634-1.3648 1.5-2.375 1.5-2.375v-0.03125c0.72331 0.1278 1.444 0.21775 2.1875 0.28125v0.09375s0.38271 0.9234 0.71875 2.5625c0.33604 1.6391 0.58648 1.9038 1.0625 1.9062h0.75c0.37295 0 0.70277-0.37635 0.90625-1.8438s0.84375-2.6875 0.84375-2.6875v-0.03125c0.73312-0.063 1.4427-0.15615 2.1562-0.28125v0.0625s0.92352 0.97915 1.5 2.3438c0.57631 1.3647 0.98366 1.63 1.3438 1.5312l0.71875-0.1875c0.45925-0.1257 0.66201-0.42355 0.5625-2.0938-0.09971-1.6701 0-2.6875 0-2.6875v-0.0625c0.69353-0.2508 1.3681-0.53435 2.0312-0.84375v0.03125s1.1525 0.73735 2.0625 1.9062c0.9099 1.1691 1.3965 1.3136 1.7188 1.125l0.625-0.375c0.41106-0.2403 0.52842-0.56865 0-2.1562-0.52857-1.5874-0.6875-2.5938-0.6875-2.5938l-0.03125-0.0625c0.59764-0.4164 1.1924-0.8463 1.75-1.3125h0.03125s1.2872 0.38775 2.4688 1.2812c1.1815 0.8938 1.675 0.953 1.9375 0.6875l0.53125-0.53125c0.33486-0.3385 0.35881-0.69705-0.5625-2.0938-0.9214-1.3965-1.3438-2.3438-1.3438-2.3438l-0.03125-0.03125c0.47238-0.5592 0.92165-1.1501 1.3438-1.75l0.03125 0.03125s1.3462 0.03595 2.7188 0.59375c1.3725 0.5575 1.8464 0.4494 2.0312 0.125l0.375-0.65625c0.23585-0.4136 0.15764-0.73315-1.0938-1.8438-1.2515-1.1105-1.875-1.9062-1.875-1.9062l-0.03125-0.03125c0.31214-0.6621 0.59013-1.3386 0.84375-2.0312 0 0 1.3112-0.3082 2.7812-0.125 1.4701 0.1832 1.9367-0.04505 2.0312-0.40625l0.1875-0.71875c0.12078-0.4605-0.03507-0.7512-1.5312-1.5-1.4963-0.7488-2.3125-1.375-2.3125-1.375l-0.03125-0.03125c0.12688-0.7134 0.21684-1.4232 0.28125-2.1562 0 0 1.1889-0.64025 2.6562-0.84375 1.4674-0.2035 1.8457-0.53335 1.8438-0.90625v-0.75c-0.0025-0.476-0.23598-0.7264-1.875-1.0625-1.6391-0.336-2.5938-0.71875-2.5938-0.71875h-0.03125c-0.06169-0.73677-0.15648-1.4705-0.28125-2.1875 0 0 0.97903-0.92367 2.3438-1.5 1.3647-0.57634 1.6297-0.98402 1.5312-1.3438l-0.1875-0.71875c-0.12561-0.45914-0.42359-0.66207-2.0938-0.5625-1.6702 0.0996-2.6875-0.03125-2.6875-0.03125-0.24764-0.68481-0.53897-1.3448-0.84375-2 0 0 0.70595-1.1526 1.875-2.0625 1.169-0.90991 1.3132-1.3968 1.125-1.7188l-0.375-0.65625c-0.12008-0.20549-0.25189-0.33688-0.5625-0.34375-0.31061-7e-3 -0.80001 0.11078-1.5938 0.375-1.5875 0.52852-2.5938 0.6875-2.5938 0.6875-0.42519-0.60932-0.89811-1.1824-1.375-1.75 0 0-2.31e-4 -0.03055 0-0.03125 0.01317-0.0432 0.40294-1.2764 1.2812-2.4375 0.89371-1.1815 0.95263-1.6752 0.6875-1.9375l-0.53125-0.53125c-0.12688-0.12556-0.25122-0.21407-0.4375-0.21875-0.31047-8e-3 -0.78337 0.20541-1.6562 0.78125-1.3966 0.92139-2.3438 1.3125-2.3438 1.3125-0.55805-0.46994-1.1515-0.89256-1.75-1.3125 0 0-2.7e-5 -0.03045 0-0.03125 0.0015-0.0479 0.04647-1.3401 0.59375-2.6875 0.55747-1.3725 0.44898-1.8778 0.125-2.0625l-0.625-0.375c-0.15506-0.0884-0.28792-0.13899-0.46875-0.09375-0.30138 0.0753-0.71215 0.40536-1.4062 1.1875-1.1106 1.2515-1.9062 1.9062-1.9062 1.9062-0.67458-0.31706-1.3563-0.61867-2.0625-0.875-0.02052-0.0901-0.3016-1.302-0.125-2.7188 0.18324-1.47-0.04549-1.9366-0.40625-2.0312l-0.71875-0.1875c-0.11511-0.0302-0.20879-0.05225-0.3125-0.03125-0.31112 0.063-0.62588 0.44034-1.1875 1.5625-0.74882 1.4963-1.375 2.3125-1.375 2.3125-0.72331-0.12772-1.444-0.21776-2.1875-0.28125-0.0208-0.0389-0.64368-1.1822-0.84375-2.625-0.20348-1.4674-0.5333-1.8458-0.90625-1.8438zm0 0.5h0.75c0.36641-2e-3 0.67509 0.37087 0.875 1.8125 0.19656 1.4175 0.82332 2.5556 0.84375 2.5938 0.73046 0.06237 1.4456 0.15577 2.1562 0.28125 0 0 0.60808-0.81125 1.3438-2.2812 0.55176-1.1025 0.85059-1.4694 1.1562-1.5312 0.10188-0.0207 0.19941 0.0016 0.3125 0.03125l0.71875 0.1875c0.35443 0.09294 0.55502 0.55576 0.375 2-0.1735 1.3919 0.10484 2.5678 0.125 2.6562 0.69378 0.25183 1.3685 0.5635 2.0312 0.875 0 0 0.78393-0.6455 1.875-1.875 0.68191-0.76842 1.0789-1.1135 1.375-1.1875 0.17765-0.04441 0.31642 0.0069 0.46875 0.09375l0.625 0.375c0.3183 0.18151 0.42269 0.68281-0.125 2.0312-0.53768 1.3238-0.59225 2.5779-0.59375 2.625-2.7e-5 8e-4 0 0.03125 0 0.03125 0.58802 0.41257 1.1705 0.85081 1.7188 1.3125 0 0 0.94039-0.40728 2.3125-1.3125 0.85756-0.56573 1.32-0.758 1.625-0.75 0.18301 0.0046 0.31284 0.0954 0.4375 0.21875l0.5 0.5c0.26048 0.2577 0.22178 0.74551-0.65625 1.9062-0.86289 1.1407-1.2683 2.3638-1.2812 2.4062-2.27e-4 7e-4 0 0.03125 0 0.03125 0.46852 0.55764 0.95728 1.1201 1.375 1.7188 0 0 0.97161-0.16826 2.5312-0.6875 0.77981-0.25959 1.2573-0.35075 1.5625-0.34375 0.30516 0.0068 0.44452 0.11062 0.5625 0.3125l0.375 0.65625c0.1849 0.31634 0.02353 0.79356-1.125 1.6875-1.1485 0.89393-1.8125 2.0312-1.8125 2.0312 0.29943 0.64372 0.56921 1.296 0.8125 1.9688 0 0 1.0154 0.12905 2.6562 0.03125 1.6408-0.09782 1.9078 0.08016 2.0312 0.53125l0.1875 0.71875c0.09673 0.35341-0.15924 0.74628-1.5 1.3125-1.3408 0.56622-2.3125 1.4688-2.3125 1.4688 0.12258 0.70444 0.22064 1.4324 0.28125 2.1562h0.03125s0.9522 0.38863 2.5625 0.71875c1.6102 0.3302 1.8412 0.56365 1.8438 1.0312v0.75c2e-3 0.3663-0.37087 0.675-1.8125 0.875-1.4416 0.1999-2.625 0.84375-2.625 0.84375-0.06328 0.7203-0.15659 1.4241-0.28125 2.125l0.03125 0.03125s0.81126 0.60815 2.2812 1.3438c1.4699 0.7357 1.6187 1.0164 1.5 1.4688l-0.1875 0.71875c-0.09293 0.355-0.5245 0.555-1.9688 0.375-1.4442-0.1799-2.75 0.125-2.75 0.125-0.24917 0.6806-0.50584 1.3495-0.8125 2l0.03125 0.03125s0.583 0.784 1.8125 1.875c1.2294 1.0911 1.3255 1.4062 1.0938 1.8125l-0.375 0.65625c-0.18158 0.3187-0.65154 0.4227-2-0.125-1.3485-0.5484-2.6562-0.59375-2.6562-0.59375l-0.03125-0.03125c-0.41469 0.5893-0.84841 1.1694-1.3125 1.7188v0.03125s0.43852 0.9405 1.3438 2.3125c0.90513 1.3721 0.86024 1.6988 0.53125 2.0312l-0.5 0.53125c-0.25788 0.2608-0.7455 0.22185-1.9062-0.65625-1.1608-0.8779-2.4375-1.2812-2.4375-1.2812h-0.03125c-0.54782 0.4581-1.1316 0.9034-1.7188 1.3125l0.03125 0.0625s0.16821 0.97175 0.6875 2.5312c0.51914 1.5597 0.40385 1.889 0 2.125l-0.625 0.375c-0.3166 0.1852-0.79357 0.0236-1.6875-1.125-0.89405-1.1484-2.0312-1.875-2.0312-1.875v-0.03125c-0.65152 0.304-1.3186 0.59735-2 0.84375v0.0625s-0.09796 0.9843 0 2.625c0.09777 1.6409-0.08006 1.939-0.53125 2.0625l-0.71875 0.1875c-0.35377 0.0971-0.74631-0.1593-1.3125-1.5-0.56636-1.3407-1.4688-2.3125-1.4688-2.3125v-0.0625c-0.70098 0.1229-1.4047 0.21925-2.125 0.28125v0.03125s-0.64384 1.2146-0.84375 2.6562c-0.19991 1.4417-0.50859 1.8125-0.875 1.8125h-0.75c-0.46766-0.0025-0.70111-0.2646-1.0312-1.875-0.33014-1.6103-0.71875-2.5312-0.71875-2.5312v-0.09375c-0.73046-0.0624-1.4144-0.15575-2.125-0.28125v0.03125s-0.93378 1.0028-1.5 2.3438c-0.56622 1.3407-0.95858 1.595-1.3125 1.5l-0.6875-0.1875c-0.4511-0.1234-0.62914-0.45275-0.53125-2.0938 0.097887-1.6409-0.03125-2.5938-0.03125-2.5938v-0.0625c-0.672-0.244-1.3258-0.54375-1.9688-0.84375l-0.03125 0.03125s-1.1373 0.7264-2.0312 1.875c-0.89394 1.1472-1.3703 1.3088-1.6875 1.125l-0.59375-0.375c-0.40378-0.236-0.51927-0.59645 0-2.1562 0.51924-1.5596 0.65625-2.5 0.65625-2.5l0.03125-0.0625c-0.58552-0.4088-1.1412-0.88625-1.6875-1.3438l-0.03125 0.03125s-1.308 0.40315-2.4688 1.2812c-1.1606 0.8775-1.6162 0.8846-1.875 0.625l-0.53125-0.5c-0.32895-0.3325-0.31152-0.6903 0.59375-2.0625 0.90521-1.3721 1.2812-2.2812 1.2812-2.2812l0.0625-0.0625c-0.46243-0.5484-0.93051-1.0993-1.3438-1.6875 0 0-1.3703 0.0773-2.7188 0.625-1.3481 0.5471-1.8172 0.4426-2 0.125l-0.375-0.65625c-0.23169-0.4063-0.13582-0.75265 1.0938-1.8438 1.2295-1.091 1.8438-1.875 1.8438-1.875h0.0625c-0.30666-0.6505-0.59458-1.3194-0.84375-2 0 0-1.3369-0.3051-2.7812-0.125-1.4438 0.1795-1.8744-0.021-1.9688-0.375l-0.1875-0.71875c-0.11863-0.4524 0.06118-0.7644 1.5312-1.5 1.47-0.7357 2.25-1.3125 2.25-1.3125l0.0625-0.03125c-0.12466-0.7009-0.21797-1.4047-0.28125-2.125 0 0-1.1833-0.64385-2.625-0.84375-1.4411-0.2003-1.813-0.5086-1.8125-0.875v-0.75c0.0025-0.4677 0.23337-0.70115 1.8438-1.0312 1.6103-0.33018 2.5312-0.71875 2.5312-0.71875h0.0625c0.0606-0.72384 0.15867-1.4518 0.28125-2.1562 0 0-1.0029-0.90259-2.3438-1.4688-1.3401-0.56647-1.6265-0.95865-1.5312-1.3125l0.21875-0.71875c0.09261-0.33835 0.28215-0.5265 1.0625-0.5625 0.26012-0.0119 0.58976 0.0067 1 0.03125 1.6409 0.0979 2.625-0.03125 2.625-0.03125l0.03125 0.03125c0.24569-0.68189 0.54043-1.3479 0.84375-2 0 0-0.72637-1.1373-1.875-2.0312-1.1478-0.89401-1.3086-1.3704-1.125-1.6875l0.375-0.65625c0.11802-0.20191 0.28094-0.3055 0.59375-0.3125 0.31281-0.0068 0.78266 0.08409 1.5625 0.34375 1.5596 0.51925 2.5312 0.6875 2.5312 0.6875h0.03125c0.4095-0.58684 0.85416-1.14 1.3125-1.6875 0 0-0.37187-1.308-1.25-2.4688-0.87734-1.1606-0.94695-1.6474-0.6875-1.9062l0.53125-0.5c0.08313-0.08224 0.14589-0.1561 0.25-0.1875 0.31233-0.09438 0.7834 0.07103 1.8125 0.75 1.3721 0.90522 2.2812 1.2812 2.2812 1.2812v0.03125c0.56319-0.476 1.1447-0.95098 1.75-1.375-5e-3 -0.09056-0.09655-1.3241-0.625-2.625-0.54705-1.3482-0.41134-1.8484-0.09375-2.0312l0.59375-0.375c0.10158-0.0579 0.206-0.09075 0.3125-0.09375 0.31951-0.0099 0.71295 0.29656 1.5312 1.2188 1.091 1.2295 1.875 1.8438 1.875 1.8438 0.65921-0.31077 1.3412-0.59205 2.0312-0.84375 0.01053-0.04655 0.30185-1.3006 0.125-2.7188-0.17948-1.4438 0.05216-1.8744 0.40625-1.9688l0.6875-0.1875c0.11311-0.02962 0.21061-0.05475 0.3125-0.03125 0.30568 0.07051 0.60452 0.45994 1.1562 1.5625 0.73566 1.47 1.375 2.25 1.375 2.25 0.72024-0.1281 1.4156-0.21795 2.1562-0.28125 0 0 0.38861-0.95219 0.71875-2.5625 0.33014-1.6103 0.56359-1.8418 1.0312-1.8438z" fill="#fff" opacity=".5"/>
</g>
<path transform="matrix(.26458 0 0 .26458 0 263.13)" d="m106.92 86.322c-0.07489 0.01014-0.15142 0.029872-0.23633 0.052734l-1.0606 0.27734c-0.5316 0.1416-0.86907 0.78146-0.59961 2.9492 0.06376 0.51128 0.08544 1.0077 0.08399 1.4707a50.527 50.527 0 0 0 2.7051-4.2227c-0.24514-0.30392-0.45894-0.47136-0.66797-0.51953-0.07648-0.0177-0.14972-0.017953-0.2246-0.007812zm-10.238 4.0645c-0.1599 0-0.30843 0.051648-0.46094 0.13867l-0.92188 0.55273c-0.47681 0.27449-0.63771 1.0171 0.18359 3.041 0.79337 1.953 0.91435 3.8289 0.92188 3.9648-0.90875 0.6366-1.7814 1.3127-2.627 2.0273v-0.04492s-1.3502-0.53174-3.4102-1.8906c-1.545-1.0194-2.2518-1.2941-2.7207-1.1523-0.1563 0.047199-0.28926 0.15389-0.41406 0.27734l-0.7832 0.7832c-0.38951 0.38851-0.3035 1.1149 1.0137 2.8574 1.3184 1.7425 1.8887 3.6875 1.8887 3.6875-0.39208 0.46829-0.77634 0.94366-1.1523 1.4258a50.527 50.527 0 0 0 14.025-11.291c-0.14167 0.063739-0.28712 0.11924-0.42773 0.18555 0 0-1.1725-0.91985-2.8105-2.7656-1.2285-1.3846-1.825-1.8118-2.3047-1.7969zm-15.488 15.211c-0.46963 0.01475-0.69781 0.2026-0.875 0.50586l-0.55273 0.96875c-0.24992 0.43163-0.038901 1.0873 1.2754 2.2012a50.527 50.527 0 0 0 5.4395-2.2891c-0.64504-0.14552-1.5705-0.37956-2.9355-0.83399-1.1708-0.38983-1.8819-0.56291-2.3516-0.55273z" filter="url(#filter4169)" opacity=".8"/>
<path transform="matrix(.26458 0 0 .26458 0 263.13)" d="m106.87 81.623c-0.07488 0.010153-0.15337 0.028652-0.23828 0.050781l-1.0586 0.27734c-0.5316 0.14173-0.86907 0.78354-0.59961 2.9512 0.26551 2.1291-0.16975 4.0316-0.18554 4.1016-1.0359 0.37795-2.0513 0.77763-3.041 1.2441 0 0-1.1745-0.9197-2.8125-2.7656-1.2285-1.3844-1.825-1.8118-2.3047-1.7969-0.15991 0-0.30842 0.051743-0.46094 0.13867l-0.92188 0.55273c-0.47681 0.27439-0.63575 1.0189 0.18555 3.043 0.79337 1.953 0.91435 3.8269 0.92187 3.9629-0.90875 0.63659-1.7814 1.3127-2.627 2.0273v-0.044922s-1.3522-0.53162-3.4121-1.8906c-1.545-1.0194-2.2498-1.2941-2.7188-1.1523-0.15628 0.047244-0.29122 0.15375-0.41602 0.27734l-0.7832 0.7832c-0.38951 0.38865-0.30349 1.115 1.0137 2.8574 1.3184 1.7427 1.8906 3.6875 1.8906 3.6875-0.68811 0.82201-1.3676 1.6541-1.9824 2.5352h-0.044922s-1.4378-0.23395-3.7793-1.0137c-1.1708-0.38986-1.8819-0.5629-2.3516-0.55274-0.46963 0.01512-0.69781 0.20459-0.875 0.50782l-0.55469 0.96679c-0.27568 0.47611-0.063135 1.1929 1.6602 2.5352 1.7245 1.3421 2.8125 3.043 2.8125 3.043-0.011683 0.02512-0.021567 0.05103-0.033203 0.07617a50.527 50.527 0 0 0 24.937-23.588c-0.08406-0.16016-0.15945-0.28391-0.24609-0.45703-0.82834-1.6554-1.293-2.2457-1.752-2.3516-0.07649-0.017008-0.14777-0.016012-0.22265-0.005859z" fill="url(#linearGradient4710)"/>
<path transform="matrix(.26458 0 0 .26458 0 263.13)" d="m103.7 92.914c-5.9894 2.682-11.036 7.0821-14.523 12.576a50.527 50.527 0 0 0 14.523-12.576z" fill="#77716d"/>
<path transform="matrix(.26458 0 0 .26458 0 263.13)" d="m103.65 92.982a33.317 33.317 0 0 0-14.434 12.486 50.527 50.527 0 0 0 14.434-12.486z" fill="url(#radialGradient4703)"/>
<path transform="matrix(.26458 0 0 .26458 0 263.13)" d="m106.86 81.623c-0.07489 0.010153-0.15142 0.028652-0.23633 0.050781l-1.0606 0.27734c-0.53161 0.14173-0.86907 0.78339-0.59961 2.9512 0.26551 2.129-0.16779 4.0316-0.18359 4.1016-1.0359 0.37795-2.0533 0.77748-3.043 1.2441 0 0-1.1725-0.91986-2.8105-2.7656-1.2285-1.3846-1.825-1.8118-2.3047-1.7969-0.15987 0-0.30842 0.051743-0.46094 0.13867l-0.92188 0.55273c-0.47681 0.27439-0.6377 1.0169 0.18359 3.041 0.79337 1.953 0.91435 3.8289 0.92188 3.9648-0.90875 0.63659-1.7814 1.3126-2.627 2.0273v-0.044922s-1.3502-0.53173-3.4102-1.8906c-1.545-1.0194-2.2518-1.2941-2.7207-1.1523-0.15632 0.047244-0.28927 0.15375-0.41406 0.27734l-0.7832 0.7832c-0.38952 0.3885-0.30349 1.1149 1.0137 2.8574 1.3184 1.7425 1.8887 3.6875 1.8887 3.6875-0.68811 0.82186-1.3657 1.6541-1.9805 2.5352h-0.046875s-1.4378-0.23395-3.7793-1.0137c-1.1708-0.38982-1.8819-0.5629-2.3516-0.55274-0.46963 0.01512-0.69782 0.20443-0.875 0.50782l-0.55273 0.96679c-0.27568 0.47611-0.065087 1.1929 1.6582 2.5352 1.7245 1.3419 2.8125 3.043 2.8125 3.043-0.012553 0.02699-0.022656 0.05502-0.035156 0.08203a50.527 50.527 0 0 0 0.37695-0.16992c-0.40502-0.55978-1.2845-1.6808-2.5078-2.6328-1.693-1.3186-1.931-2.0225-1.6602-2.4902l0.55274-0.9668c0.17408-0.29782 0.41557-0.45062 0.87695-0.46093 0.46139-0.01512 1.1544 0.12288 2.3047 0.50586 2.3004 0.76596 3.7324 1.0156 3.7324 1.0156h0.046875c0.604-0.86551 1.2595-1.6827 1.9355-2.4902 0 0-0.54853-1.9286-1.8438-3.6406-1.2941-1.712-1.3963-2.4308-1.0137-2.8125l0.7832-0.73633c0.12261-0.12094 0.21558-0.23086 0.36914-0.27734 0.46068-0.13871 1.1559 0.10393 2.6738 1.1055 2.0238 1.3352 3.3633 1.8906 3.3633 1.8906v0.044922c0.83069-0.70208 1.6892-1.4019 2.582-2.0273-0.007559-0.13417-0.14243-1.9523-0.92188-3.8711-0.80689-1.9886-0.6071-2.7265-0.13867-2.9961l0.875-0.55273c0.14982-0.085417 0.30384-0.13414 0.46094-0.13867 0.47127-0.015118 1.0528 0.43666 2.2598 1.7969 1.6093 1.8133 2.7656 2.7188 2.7656 2.7188 0.97231-0.45842 1.9784-0.87288 2.9961-1.2441 0.01549-0.069165 0.44444-1.9181 0.18359-4.0098-0.26472-2.1295 0.07735-2.7652 0.59961-2.9043l1.0137-0.27539c0.16683-0.04422 0.31065-0.082402 0.46094-0.046875 0.45087 0.10469 0.89128 0.6784 1.7051 2.3047 4.4e-4 8.8e-4 0.00151 0.001073 0.00195 0.001953a50.527 50.527 0 0 0 0.10937-0.22852c-0.08505-0.16196-0.16033-0.28764-0.24804-0.46289-0.82834-1.6554-1.293-2.2457-1.752-2.3516-0.07647-0.017008-0.14972-0.016012-0.2246-0.005859z" fill="#fff" opacity=".75"/>
<path transform="matrix(.26458 0 0 .26458 0 263.13)" d="m20.605 86.326c-0.074889-0.009772-0.14813-0.011581-0.22461 0.003906-0.1173 0.023752-0.23539 0.082801-0.35938 0.17773a50.527 50.527 0 0 0 2.4141 3.8828c0.01363-0.24136 0.032969-0.48962 0.064453-0.74219 0.27028-2.1684-0.065546-2.8566-0.59766-2.9961l-1.0605-0.27539c-0.084892-0.022124-0.16144-0.041009-0.23633-0.050781zm10.367 4.0566c-0.11092-0.026733-0.22602-0.02928-0.35938 0.003907-0.44452 0.11062-1.0504 0.59823-2.0742 1.752-1.4872 1.6758-2.4752 2.5188-2.666 2.6797a50.527 50.527 0 0 0 13.186 10.842c-0.292-0.36239-0.58764-0.72216-0.88672-1.0781 0 0-3.39e-4 -0.04345 0-0.04492 0.01947-0.06342 0.59514-1.8831 1.8906-3.5957 1.3182-1.7427 1.4047-2.4705 1.0137-2.8574l-0.7832-0.7832c-0.18714-0.18526-0.37173-0.31533-0.64648-0.32226-0.45793-0.01475-1.1539 0.30291-2.4414 1.1523-2.06 1.3589-3.457 1.9356-3.457 1.9356-0.82311-0.69324-1.6992-1.3162-2.582-1.9356 0 0-4e-5 -0.0454 0-0.046875 0.002212-0.070798 0.069731-1.9755 0.87695-3.9629 0.82225-2.0245 0.66146-2.7705 0.18359-3.043l-0.92187-0.55273c-0.11435-0.064899-0.22111-0.11584-0.33203-0.14258zm15.404 15.215c-0.45814-0.01475-1.1808 0.16304-2.3516 0.55273-1.076 0.35822-1.9426 0.58988-2.5957 0.74805a50.527 50.527 0 0 0 5.207 2.2402c1.1706-1.0306 1.3644-1.6535 1.123-2.0664l-0.55274-0.96875c-0.17711-0.30311-0.37194-0.49569-0.83008-0.50586z" filter="url(#filter4169)" opacity=".8"/>
<path transform="matrix(.26458 0 0 .26458 0 263.13)" d="m20.555 81.625c-0.074889-0.00978-0.14813-0.009637-0.22461 0.005859-0.4523 0.091642-0.9125 0.64366-1.7188 2.2441a50.527 50.527 0 0 0 24.752 23.957c0.18798-0.29305 1.1397-1.7211 2.6875-2.9258 1.7243-1.3421 1.9378-2.0602 1.6602-2.5352l-0.55469-0.96875c-0.17711-0.30311-0.36998-0.49569-0.82812-0.50586-0.45812-0.01511-1.1808 0.16292-2.3516 0.55274-2.3415 0.77953-3.8262 1.0137-3.8262 1.0137-0.62714-0.8987-1.3239-1.7429-2.0273-2.5801 0 0-3.4e-4 -0.046874 0-0.046874 0.019653-0.063497 0.59319-1.8831 1.8887-3.5957 1.3182-1.7427 1.4067-2.4705 1.0156-2.8574l-0.78516-0.7832c-0.18712-0.1852-0.36978-0.31546-0.64453-0.32226-0.45793-0.015118-1.1559 0.30324-2.4434 1.1523-2.06 1.359-3.457 1.9355-3.457 1.9355-0.8231-0.69309-1.6973-1.316-2.5801-1.9355 0 0-4e-5 -0.043411 0-0.044922 0.002212-0.070678 0.067778-1.9775 0.875-3.9648 0.82225-2.0244 0.66341-2.7704 0.18555-3.043l-0.92188-0.55273c-0.2287-0.12964-0.42469-0.20481-0.69141-0.13867-0.44452 0.11074-1.0504 0.59837-2.0742 1.752-1.638 1.8459-2.8125 2.8125-2.8125 2.8125-0.99499-0.46772-2.0014-0.91299-3.043-1.291-0.030274-0.13266-0.44407-1.92-0.18359-4.0098 0.27027-2.1682-0.067501-2.8566-0.59961-2.9961l-1.0605-0.27734c-0.084892-0.02211-0.16144-0.041001-0.23633-0.050781z" fill="url(#linearGradient4724)"/>
<path transform="matrix(.26458 0 0 .26458 0 263.13)" d="m23.957 92.518a50.527 50.527 0 0 0 14.904 13.021 33.785 33.785 0 0 0-14.904-13.021z" fill="url(#linearGradient3331)"/>
<path transform="matrix(.26458 0 0 .26458 0 263.13)" d="m24.51 93.27a50.527 50.527 0 0 0 13.438 11.709c-3.3235-5.02-7.9663-9.0896-13.438-11.709z" fill="#77716d"/>
<path transform="matrix(.26458 0 0 .26458 0 263.13)" d="m24.564 93.332a50.527 50.527 0 0 0 13.389 11.65 33.317 33.317 0 0 0-13.389-11.65z" fill="url(#radialGradient4717)"/>
<path transform="matrix(.26458 0 0 .26458 0 263.13)" d="m20.549 81.625c-0.074888-0.00978-0.14813-0.01159-0.22461 0.003906-0.45162 0.091503-0.91284 0.64344-1.7168 2.2383a50.527 50.527 0 0 0 0.10547 0.23437c0.63233-1.186 1.0325-1.6547 1.4258-1.7344 0.15028-0.030237 0.29414-8.11e-4 0.46094 0.044921l1.0605 0.27734c0.52277 0.1372 0.81827 0.81893 0.55274 2.9492-0.2559 2.0529 0.15581 3.7875 0.18555 3.918 1.0233 0.37153 2.0186 0.83158 2.9961 1.291 0 0 1.1563-0.95213 2.7656-2.7656 1.0058-1.1334 1.5906-1.6428 2.0273-1.752 0.26203-0.065008 0.46672 0.015081 0.69141 0.13867l0.92188 0.55273c0.46948 0.26759 0.62423 1.0072-0.18359 2.9961-0.79306 1.9525-0.87474 3.8036-0.87695 3.873-3.9e-5 0.001172 0 0.044922 0 0.044922 0.86731 0.60843 1.7265 1.2546 2.5352 1.9355 0 0 1.3883-0.60043 3.4121-1.9355 1.2649-0.83456 1.9466-1.1173 2.3965-1.1055 0.26993 0 0.46068 0.14009 0.64453 0.32227l0.73828 0.73633c0.3842 0.38011 0.32632 1.1003-0.96875 2.8125-1.2727 1.6825-1.8696 3.4863-1.8887 3.5488-3.25e-4 0.00102 0 0.04492 0 0.04492 0.69105 0.82246 1.4112 1.6522 2.0273 2.5352 0 0 1.434-0.24794 3.7344-1.0137 1.1502-0.38291 1.8526-0.51618 2.3027-0.50586 0.4501 0.01511 0.65608 0.16326 0.83008 0.46093l0.55274 0.9668c0.27273 0.46655 0.035913 1.1718-1.6582 2.4902-1.126 0.87638-1.8996 1.8712-2.3164 2.4668a50.527 50.527 0 0 0 0.27539 0.13281c0.19298-0.30039 1.1432-1.7214 2.6855-2.9219 1.7243-1.3422 1.9378-2.0602 1.6602-2.5352l-0.55273-0.96875c-0.17711-0.30311-0.37194-0.49569-0.83008-0.50586-0.45812-0.01511-1.1808 0.16292-2.3516 0.55274-2.3415 0.77953-3.8242 1.0137-3.8242 1.0137-0.62713-0.8987-1.3259-1.7429-2.0293-2.5801 0 0-3.4e-4 -0.046874 0-0.046874 0.019654-0.063497 0.59514-1.8831 1.8906-3.5957 1.3182-1.7427 1.4047-2.4705 1.0137-2.8574l-0.7832-0.7832c-0.18712-0.1852-0.37173-0.31546-0.64648-0.32226-0.45792-0.015118-1.1539 0.30324-2.4414 1.1523-2.06 1.359-3.457 1.9355-3.457 1.9355-0.8231-0.69309-1.6992-1.3162-2.582-1.9355 0 0-4e-5 -0.045364 0-0.046876 0.002213-0.070677 0.067778-1.9755 0.875-3.9629 0.82226-2.0245 0.66341-2.7706 0.18555-3.043l-0.92188-0.55273c-0.2287-0.12964-0.42469-0.20481-0.69141-0.13867-0.44452 0.11074-1.0504 0.5984-2.0742 1.752-1.638 1.8459-2.8125 2.8105-2.8125 2.8105-0.99499-0.46772-1.9994-0.91103-3.041-1.2891-0.030274-0.13266-0.44602-1.922-0.18555-4.0117 0.27027-2.1682-0.065547-2.8566-0.59766-2.9961l-1.0605-0.27539c-0.084892-0.02211-0.16144-0.041001-0.23633-0.050781z" fill="#fff" opacity=".75"/>
</g>
</svg>
