<svg width="96" height="96" version="1.1" xmlns="http://www.w3.org/2000/svg">
<radialGradient id="c" cx="43.274" cy="59.16" r="35.838" gradientTransform="matrix(1.579 -.41882 .48523 1.8293 -45.594 -27.427)" gradientUnits="userSpaceOnUse">
<stop offset="0"/>
<stop offset=".73454"/>
<stop stop-color="#fff" offset="1"/>
</radialGradient>
<radialGradient id="d" cx="81.853" cy="73.703" r="29.688" gradientTransform="matrix(.28344 -1.0578 .99911 .26771 -47.486 118.85)" gradientUnits="userSpaceOnUse">
<stop stop-color="#fff" offset="0"/>
<stop stop-color="#4a4a4a" offset=".73454"/>
<stop offset="1"/>
</radialGradient>
<path d="m79.466 80.466a44.5 44.5 0 1 1-1e-6 -62.933l-31.466 31.466z" opacity=".05" stroke-width="1.4976"/>
<path d="m79.113 80.113a44 44 0 1 1-1e-6 -62.225l-31.113 31.113z" opacity=".05" stroke-width="1.4808"/>
<path d="m78.406 79.406a43 43 0 1 1-1e-6 -60.811l-30.406 30.406z" opacity=".1" stroke-width="1.4471"/>
<path d="m78.052 79.052a42.5 42.5 0 1 1-1e-6 -60.104l-30.052 30.052z" opacity=".1" stroke-width="1.4303"/>
<path d="m77.698 78.698a42 42 0 1 1-1e-6 -59.397l-29.698 29.698z" opacity=".3" stroke-width="1.4135"/>
<path d="m58.704 73.873a28 28 0 1 0-21.408-51.747 28 28 0 1 0 21.408 51.747z" fill="#fff" opacity=".1" stroke-width="2.9728"/>
<path d="m48 48 28.024-0.028c0.0044 7.414-2.9631 14.581-8.1992 19.828l-19.825-19.8z" fill="#11bebb"/>
<path d="m48 48 19.8-19.825c2.5364 2.5313 4.6178 5.6034 6.0731 9.1212 1.4459 3.4951 2.1488 7.115 2.1509 10.676l-28.024 0.028z" fill="#2bd6d2"/>
<path d="m48 48-0.02773-28.024c7.414-4e-3 14.581 2.9631 19.828 8.1992l-19.8 19.825z" fill="#da0083"/>
<path d="m28.175 28.2c2.5313-2.5364 5.6034-4.6178 9.1211-6.0731 3.4951-1.446 7.115-2.1488 10.676-2.1509l0.02773 28.024-19.825-19.8z" fill="#d61842"/>
<path d="m19.976 48.028c-0.0044-7.4141 2.9631-14.581 8.1992-19.828l19.825 19.8-28.024 0.028z" fill="#f0870b"/>
<path d="m22.127 58.704c-1.4459-3.4951-2.1488-7.115-2.1509-10.676l28.024-0.028-19.8 19.825c-2.5364-2.5312-4.6178-5.6034-6.0731-9.1211z" fill="#ecf02b"/>
<path d="m28.2 67.825 19.8-19.825 0.02773 28.024c-7.414 0-14.581-2.9631-19.828-8.1992z" fill="#cced20"/>
<path d="m48.028 76.024-0.02773-28.024 19.825 19.8c-2.5313 2.5364-5.6034 4.6178-9.1211 6.0731-3.4951 1.446-7.115 2.1488-10.676 2.1509z" fill="#71ea3e"/>
<path d="m48 6c-10.749 3e-7 -21.486 4.1115-29.688 12.312-16.402 16.402-16.402 42.973 0 59.375s42.973 16.402 59.375 0l-9.875-9.875c-5.067 5.067-12.081 8.1875-19.812 8.1875-15.464 0-28-12.536-28-28s12.536-28 28-28c7.732 0 14.745 3.1205 19.812 8.1875l9.875-9.875c-8.201-8.201-18.939-12.313-29.688-12.312z" fill="url(#c)"/>
<path d="m18.312 77.688c16.402 16.402 42.973 16.402 59.375 0l-9.875-9.875c-5.067 5.067-12.081 8.1875-19.812 8.1875-15.464 0-28-12.536-28-28z" fill="url(#d)"/>
<path d="m78.759 79.759a43.5 43.5 0 1 1-1e-6 -61.518l-30.759 30.759z" opacity=".05" stroke-width="1.4639"/>
</svg>
