<svg width="136.53" height="136.53" version="1.1" viewBox="0 0 136.53 136.53" xmlns="http://www.w3.org/2000/svg" xmlns:xlink="http://www.w3.org/1999/xlink">
<defs>
<linearGradient id="linearGradient905" x1="68.953" x2="68.865" y1="1.3438" y2="133.74" gradientUnits="userSpaceOnUse">
<stop stop-color="#01bde9" offset="0"/>
<stop stop-color="#427fe9" offset="1"/>
</linearGradient>
<filter id="filter931" x="-.14706" y="-.14339" width="1.2941" height="1.2868" color-interpolation-filters="sRGB">
<feGaussianBlur stdDeviation="4.3750957"/>
</filter>
</defs>
<filter x="-.015862" y="-.049289" width="1.0317" height="1.0986" color-interpolation-filters="sRGB">
<feGaussianBlur stdDeviation=".76648924"/>
</filter>
<path d="m68.953 1.3438c-36.979 0-67.021 30.042-67.021 67.021 0 36.979 30.042 67.021 67.021 67.021 36.979 0 67.021-30.042 67.021-67.021 0-36.979-30.042-67.021-67.021-67.021z" color="#000000" color-rendering="auto" dominant-baseline="auto" fill="url(#linearGradient905)" image-rendering="auto" shape-rendering="auto" solid-color="#000000" style="font-feature-settings:normal;font-variant-alternates:normal;font-variant-caps:normal;font-variant-ligatures:normal;font-variant-numeric:normal;font-variant-position:normal;isolation:auto;mix-blend-mode:normal;shape-padding:0;text-decoration-color:#000000;text-decoration-line:none;text-decoration-style:solid;text-indent:0;text-orientation:mixed;text-transform:none;white-space:normal"/>
<g fill="#314a7a" filter="url(#filter931)" opacity=".159" aria-label="@">
<path d="m71.897 76.626q-1.0862 0.62883-1.372 0.8575-1.6578 0.80033-3.5443 0.80033-2.5153 0-4.0588-1.5435-1.6578-1.6007-1.6578-4.9163 0-2.6868 1.2005-6.2883 0.74316-1.8293 2.9727-4.0588 2.9155-3.0298 6.0025-3.0298 2.3438 0 4.4018 1.7722 0.40016 0.22867 0.8575 0.62883 0.62883 0.45733 0.686 1.715-0.05717 4.5733-1.3148 8.3463-1.2577 3.8302-2.9155 4.8592-0.45733 0.22867-1.2577 0.8575zm20.866 14.577q-2.5153 1.715-5.4308 2.9727-6.2883 2.4582-15.035 2.4582-9.2038 0-16.178-2.9155-6.7456-2.9155-10.747-9.1466-3.9445-6.2883-3.9445-13.891 0-8.0605 3.5443-15.321 3.3157-7.3173 10.176-11.262 6.9171-4.0017 16.921-4.0017 11.605 0 17.95 6.0596 6.4598 5.9453 6.4598 14.692 0 5.0307-2.2867 9.604-4.2875 8.6893-8.232 8.6893-0.28583 0-0.5145-0.22867t-0.22867-0.62883q0.22867-2.058 2.9155-21.495 0.343-2.058-1.1433-3.773-0.91466-1.2005-2.5725-1.4292-1.4863-0.343-2.9155 0.40016-0.8575 0.45733-1.4863 1.1433-3.3157-4.0588-9.3753-4.0588-9.3753 0-15.263 8.3463-4.802 6.9171-4.802 15.149 0 6.86 4.116 10.919 4.0588 4.1732 10.29 4.1732 5.2593 0 9.4896-3.43 0.74316 1.4863 2.0008 2.2867 2.6297 1.6007 5.6595 1.6007 8.1176 0 16.464-9.2038 6.0597-6.6885 6.0597-17.607 0-8.2891-4.0017-15.149-3.9445-6.86-11.49-10.633-7.4888-3.773-17.093-3.773-11.262 0-19.894 4.5733-8.8036 4.6305-13.891 14.006-5.0307 9.2038-5.0307 19.837 0 9.604 4.4018 17.95 4.5162 8.3463 13.663 12.577 9.0895 4.2875 21.609 4.2875 12.92 0 21.895-4.9735 1.4863-0.8575 2.744-1.7722 1.4292-0.97183 1.6578-2.8583 0.22867-1.6578-0.8575-3.2013-1.029-1.372-2.6868-1.6007-1.6578-0.1715-2.9155 0.62883z" fill="#314a7a" stroke-width="2.9269"/>
</g>
<g fill="#fff" aria-label="@">
<path d="m71.897 76.626q-1.0862 0.62883-1.372 0.8575-1.6578 0.80033-3.5443 0.80033-2.5153 0-4.0588-1.5435-1.6578-1.6007-1.6578-4.9163 0-2.6868 1.2005-6.2883 0.74316-1.8293 2.9727-4.0588 2.9155-3.0298 6.0025-3.0298 2.3438 0 4.4018 1.7722 0.40016 0.22867 0.8575 0.62883 0.62883 0.45733 0.686 1.715-0.05717 4.5733-1.3148 8.3463-1.2577 3.8302-2.9155 4.8592-0.45733 0.22867-1.2577 0.8575zm20.866 14.577q-2.5153 1.715-5.4308 2.9727-6.2883 2.4582-15.035 2.4582-9.2038 0-16.178-2.9155-6.7456-2.9155-10.747-9.1466-3.9445-6.2883-3.9445-13.891 0-8.0605 3.5443-15.321 3.3157-7.3173 10.176-11.262 6.9171-4.0017 16.921-4.0017 11.605 0 17.95 6.0596 6.4598 5.9453 6.4598 14.692 0 5.0307-2.2867 9.604-4.2875 8.6893-8.232 8.6893-0.28583 0-0.5145-0.22867t-0.22867-0.62883q0.22867-2.058 2.9155-21.495 0.343-2.058-1.1433-3.773-0.91466-1.2005-2.5725-1.4292-1.4863-0.343-2.9155 0.40016-0.8575 0.45733-1.4863 1.1433-3.3157-4.0588-9.3753-4.0588-9.3753 0-15.263 8.3463-4.802 6.9171-4.802 15.149 0 6.86 4.116 10.919 4.0588 4.1732 10.29 4.1732 5.2593 0 9.4896-3.43 0.74316 1.4863 2.0008 2.2867 2.6297 1.6007 5.6595 1.6007 8.1176 0 16.464-9.2038 6.0597-6.6885 6.0597-17.607 0-8.2891-4.0017-15.149-3.9445-6.86-11.49-10.633-7.4888-3.773-17.093-3.773-11.262 0-19.894 4.5733-8.8036 4.6305-13.891 14.006-5.0307 9.2038-5.0307 19.837 0 9.604 4.4018 17.95 4.5162 8.3463 13.663 12.577 9.0895 4.2875 21.609 4.2875 12.92 0 21.895-4.9735 1.4863-0.8575 2.744-1.7722 1.4292-0.97183 1.6578-2.8583 0.22867-1.6578-0.8575-3.2013-1.029-1.372-2.6868-1.6007-1.6578-0.1715-2.9155 0.62883z" fill="#fff" stroke-width="2.9269"/>
</g>
</svg>
