<svg width="128" height="128" version="1.1" viewBox="0 0 128 128" xmlns="http://www.w3.org/2000/svg" xmlns:osb="http://www.openswatchbook.org/uri/2009/osb" xmlns:xlink="http://www.w3.org/1999/xlink">
<defs>
<linearGradient id="linearGradient825" x1="-741.83" x2="-741.83" y1="959.05" y2="93.836" gradientTransform="matrix(.13668 0 0 .13668 162.31 -5.9893)" gradientUnits="userSpaceOnUse">
<stop stop-color="#278af7" offset="0"/>
<stop stop-color="#46c0f2" offset="1"/>
</linearGradient>
<linearGradient id="linearGradient835" x1="-738.76" x2="-738.76" y1="931.43" y2="152.13" gradientTransform="matrix(.13668 0 0 .13668 162.31 -5.9893)" gradientUnits="userSpaceOnUse">
<stop stop-color="#4bc9f1" offset="0"/>
<stop stop-color="#278af7" offset="1"/>
</linearGradient>
<clipPath>
<rect width="384" height="384"/>
</clipPath>
<clipPath>
<rect width="384" height="384"/>
</clipPath>
<clipPath>
<rect width="384" height="384"/>
</clipPath>
<clipPath>
<rect width="384" height="384"/>
</clipPath>
<clipPath>
<rect width="384" height="384"/>
</clipPath>
<clipPath>
<rect width="384" height="384"/>
</clipPath>
<clipPath>
<rect width="384" height="384"/>
</clipPath>
<clipPath>
<rect width="384" height="384"/>
</clipPath>
<clipPath>
<rect width="384" height="384"/>
</clipPath>
<clipPath>
<rect width="384" height="384"/>
</clipPath>
<clipPath>
<rect width="384" height="384"/>
</clipPath>
<clipPath>
<rect width="384" height="384"/>
</clipPath>
<clipPath>
<rect width="384" height="384"/>
</clipPath>
<clipPath>
<rect width="384" height="384"/>
</clipPath>
<linearGradient id="linearGradient948" x1="122.34" x2="84.091" y1="117.04" y2="71.02" gradientTransform="translate(-833.29 -293.54)" gradientUnits="userSpaceOnUse" xlink:href="#linearGradient944"/>
<linearGradient id="linearGradient944">
<stop stop-color="#d5dada" offset="0"/>
<stop stop-color="#f1f1f1" offset="1"/>
</linearGradient>
<clipPath>
<rect width="384" height="384"/>
</clipPath>
<clipPath>
<rect width="384" height="384"/>
</clipPath>
<linearGradient id="linearGradient1194" x1="122.34" x2="84.091" y1="117.04" y2="71.02" gradientTransform="translate(-988.32 -283.8)" gradientUnits="userSpaceOnUse" xlink:href="#linearGradient944"/>
<clipPath>
<rect width="384" height="384"/>
</clipPath>
<clipPath>
<rect width="384" height="384"/>
</clipPath>
<clipPath>
<rect width="384" height="384"/>
</clipPath>
<clipPath>
<rect width="384" height="384"/>
</clipPath>
<clipPath>
<rect width="384" height="384"/>
</clipPath>
<clipPath>
<rect width="384" height="384"/>
</clipPath>
<clipPath>
<rect width="384" height="384"/>
</clipPath>
<clipPath>
<rect width="384" height="384"/>
</clipPath>
</defs>
<circle cx="63.592" cy="64.286" r="61.38" fill="url(#linearGradient825)"/>
<circle cx="63.592" cy="64.286" r="55.09" fill="url(#linearGradient835)"/>
<style><![CDATA[.B{clip-path:url(#C)}.C{fill:#3e2723}.D{fill-opacity:.15}.E{fill-opacity:.2}]]></style>
<style><![CDATA[.B{clip-path:url(#C)}.C{fill:#3e2723}.D{fill-opacity:.15}.E{fill-opacity:.2}]]></style>
<style><![CDATA[.B{clip-path:url(#C)}.C{fill:#3e2723}.D{fill-opacity:.15}.E{fill-opacity:.2}]]></style>
<style><![CDATA[.B{clip-path:url(#C)}.C{fill:#3e2723}.D{fill-opacity:.15}.E{fill-opacity:.2}]]></style>
<style><![CDATA[.B{clip-path:url(#C)}.C{fill:#3e2723}.D{fill-opacity:.15}.E{fill-opacity:.2}]]></style>
<style><![CDATA[.B{clip-path:url(#C)}.C{fill:#3e2723}.D{fill-opacity:.15}.E{fill-opacity:.2}]]></style>
<style><![CDATA[.B{clip-path:url(#C)}.C{fill:#3e2723}.D{fill-opacity:.15}.E{fill-opacity:.2}]]></style>
<style><![CDATA[.B{clip-path:url(#C)}.C{fill:#3e2723}.D{fill-opacity:.15}.E{fill-opacity:.2}]]></style>
<style><![CDATA[.B{clip-path:url(#C)}.C{fill:#3e2723}.D{fill-opacity:.15}.E{fill-opacity:.2}]]></style>
<style><![CDATA[.B{clip-path:url(#C)}.C{fill:#3e2723}.D{fill-opacity:.15}.E{fill-opacity:.2}]]></style>
<style><![CDATA[.B{clip-path:url(#C)}.C{fill:#3e2723}.D{fill-opacity:.15}.E{fill-opacity:.2}]]></style>
<style><![CDATA[.B{clip-path:url(#C)}.C{fill:#3e2723}.D{fill-opacity:.15}.E{fill-opacity:.2}]]></style>
<style><![CDATA[.B{clip-path:url(#C)}.C{fill:#3e2723}.D{fill-opacity:.15}.E{fill-opacity:.2}]]></style>
<path d="m58.619 97.581c-0.20437-0.0444-1.3639 0.048-2.5344-0.0385l-2.1888-0.0792-0.96131-2.6736c-0.89173-2.4801-2.3975-4.7495-2.7102-4.7495-0.36347 0-0.9688-1.4405-1.2492-2.9726-0.16205-0.88558-0.60367-3.2547-0.98138-5.2648-0.57393-3.0543-0.62234-3.5981-0.29469-3.3104 1.5619 1.3713 5.0472 2.296 7.1505 1.8972 4.0736-0.77255 7.2108-4.2444 8.5079-9.4156 1.1011-4.3899 0.20186-10.277-2.1934-14.358-2.0711-3.5291-5.5176-6.1363-8.8956-6.7292-1.7791-0.31229-3.9547 0.12411-5.6907 1.1414-1.2459 0.73012-3.0472 2.6873-3.9381 4.2788-0.93803 1.6757-1.8266 4.9569-1.9444 7.1802-0.12331 2.3277-3e-3 3.2415 1.441 10.956 0.62484 3.3379 1.4713 7.964 1.881 10.28 0.40972 2.3161 0.80201 4.3975 0.87176 4.6252 0.08668 0.28298-0.24077 0.69479-1.034 1.3005-0.63848 0.48751-1.2292 0.88639-1.3127 0.88639-0.08347 0-1.124-1.1572-2.3123-2.5715l-2.1605-2.5715 0.27001-2.197c0.67709-5.5092-0.69681-8.6177-4.4618-10.095l-1.7241-0.67641-0.29278-1.7819c-0.16102-0.98005-0.44086-2.5622-0.62186-3.5159l-0.3291-1.734 1.4338-1.3861c1.9054-1.8421 2.3457-2.9964 2.2002-5.7682-0.10157-1.935-0.20511-2.2728-1.4122-4.6063l-1.3026-2.5181 1.1273-3.1143c0.62003-1.7129 1.1718-3.1589 1.2262-3.2133 0.05442-0.05443 0.93808 0.14796 1.9637 0.44974 1.7018 0.50067 1.9464 0.5176 2.7978 0.19353 1.4905-0.5673 1.3939-1.007-0.18205-0.82848-0.7275 0.0824-1.5877 0.04901-1.9116-0.07426-0.48515-0.18466-0.15802-0.30831 1.8578-0.70243 2.4392-0.47686 2.4481-0.48127 2.9195-1.4469 0.34508-0.70688 0.5383-1.9116 0.71508-4.4588l0.24224-3.4902 2.7156-1.2386c1.4936-0.68121 2.8111-1.2741 2.9279-1.3175 0.11675-0.04344 0.76793 1.0282 1.447 2.3815 1.74 3.4674 3.2047 4.7599 5.3888 4.7553 1.7488-0.0038 3.0354-1.0178 6.7977-5.3582l0.64226-0.74094 16.135-0.89332 2.8088 1.8965c3.6118 2.4387 3.7969 2.5823 3.5919 2.7873-0.09437 0.09436-3.6133 0.44061-7.8198 0.76944l-7.6483 0.59787-2.8258-2.0909c-3.1755-2.3496-4.1642-3.0248-4.1642-2.8437 0 0.06828 0.67162 0.61058 1.4925 1.2051 1.3032 0.94387 4.975 3.6553 5.1266 3.7856 0.03011 0.02576-0.22073 1.5352-0.55736 3.3541-0.69666 3.7645-0.74135 4.8287-0.27613 6.5747 0.44664 1.6761 0.92777 2.5468 2.0381 3.6883 1.2806 1.3166 2.9681 2.0151 6.0748 2.5146l2.6276 0.42249 0.44337 3.004c0.24384 1.6522 0.58956 3.84 0.76825 4.8619l0.32487 1.8579-0.12719-1.5596c-0.06999-0.85779-0.3437-2.8643-0.60831-4.4588-0.63456-3.8238-0.64535-3.7132 0.38079-3.9057 3.53-0.66223 14.293-2.2166 14.379-2.0766 0.14254 0.2307 1.6019 8.7837 1.6019 9.3887 0 0.49693 0.30346 0.41026-7.4314 2.1222-6.044 1.3377-7.3228 1.608-7.6 1.6064-0.16081-0.0011-0.34072-0.25251-0.39976-0.55907-0.09457-0.49103-0.11137-0.47851-0.14111 0.10521-0.02877 0.56234-0.36758 0.85365-2.2403 1.9253-3.3415 1.9122-4.4452 3.2398-5.0363 6.0581-0.48036 2.2901 0.04711 4.3177 1.9506 7.4977 0.88313 1.4754 1.7587 2.9055 1.9457 3.178 0.30938 0.45073 0.12625 0.8383-2.0294 4.2959-1.3032 2.0903-2.4382 3.6943-2.5221 3.5646-0.08394-0.12976-1.4164-0.89244-2.9611-1.6949-2.3764-1.2345-3.0053-1.4583-4.0873-1.4545-1.6339 0.0057-2.9134 0.6376-3.7573 1.8553-0.80565 1.1626-1.0505 2.1552-1.2675 5.1381l-0.16666 2.2914-0.76851-0.0288c-0.42268-0.0157-0.93572-0.065-1.1401-0.10942zm2.9726-1.4635c0-1.2983 0.02074-1.3359 1.067-1.9492 1.3344-0.78201 3.0476-2.6202 3.6074-3.8704l0.42582-0.95112 0.9798 0.60353c0.53889 0.33193 1.8802 1.0995 2.9806 1.7058l2.0008 1.1022 4.1929-1.3573-0.09979 0.67984c-0.08236 0.56128-0.27854 0.72491-1.1247 0.93832-0.56373 0.14215-1.4709 0.41661-2.0158 0.60988-0.54498 0.19326-2.9973 0.97433-5.4497 1.7357-2.4524 0.76138-4.9326 1.5401-5.5116 1.7304l-1.0528 0.34608zm12.159-5.1079c0.20868-0.32892 1.2073-1.9607 2.2192-3.6262l1.8398-3.0281 1.6136-0.4783c4.2384-1.2563 13.482-3.7266 13.579-3.629 0.17633 0.17633-0.07219 0.58502-2.2639 3.723l-2.0762 2.9726-7.033 2.1648c-9.2389 2.8438-8.3387 2.6266-7.8786 1.9013zm-28.954-1.1127c0.0842-0.13626 0.31928-0.16101 0.37936-0.16101 0.06008 0 0.12224 0.23719 0.12224 0.37341 0 0.13626-0.90257 0.44275-1.0468 0.44275-0.14429 0 0.46104-0.5189 0.54525-0.65514zm31.356-10.802-1.8624-3.4646 1.7766-1.7766c1.4392-1.4392 1.9269-2.1376 2.5679-3.6774 0.43521-1.0454 0.79141-2.0479 0.79156-2.2276 1.77e-4 -0.21651 0.94099-0.52472 2.7868-0.91295 2.3411-0.49241 6.194-1.347 8.5716-1.9013 0.54863-0.12789 0.53262-0.07303-0.27057 0.92802-1.1767 1.4665-1.675 2.8873-1.675 4.776 0 2.0153 0.44392 3.3193 1.9847 5.8298 0.80048 1.3043 1.1197 2.0318 0.92076 2.0987-0.16744 0.05634-2.8126 0.78292-5.878 1.6147-3.0655 0.83174-6.0861 1.662-6.7126 1.845l-1.139 0.3328zm-25.125-5.3927c-1.9958-0.47592-4.0869-2.6078-5.0527-5.151-0.75807-1.9964-0.92717-5.2068-0.37585-7.136 0.8877-3.1062 2.6426-4.6786 5.2159-4.6735 1.8773 4e-3 3.1275 0.6299 4.6592 2.3335 3.2759 3.6436 3.4113 10.255 0.27235 13.3-1.4281 1.3854-2.8252 1.7782-4.719 1.3266zm25.673-20.774c0-0.11133-0.74067-0.94668-1.6459-1.8564-1.5855-1.5933-4.0842-3.1432-5.0673-3.1432-0.24271 0-0.51511-0.11953-0.60539-0.26562-0.27225-0.44054 0.68628-7.6818 1.0673-8.0628 0.20594-0.20592 0.90014-0.34715 1.7482-0.35563 0.77366-0.0076 3.859-0.21578 6.8564-0.46234 2.9973-0.24656 5.4902-0.41334 5.5398-0.37064 0.04954 0.04267-0.09002 1.0589-0.31015 2.2583-0.53115 2.894-0.50398 4.4831 0.10448 6.1093 0.62202 1.6625 2.2474 3.5517 3.5621 4.1403 1.1727 0.52503 1.2521 0.49524-2.9511 1.1067-1.4987 0.21805-3.7838 0.55218-5.0781 0.74257-2.7727 0.40784-3.2203 0.43001-3.2203 0.15947zm-19.837-16.295c-1.1656-1.2477-2.8557-2.0361-5.2259-2.4377-0.76663-0.12991-0.99182-0.32208-1.4243-1.2156-0.28257-0.5837-0.51376-1.1263-0.51376-1.2058 0-0.07952 1.4213-0.21618 3.1584-0.30371 1.7371-0.08754 3.7714-0.20661 4.5208-0.26462 0.74933-0.05801 2.8843-0.17768 4.7445-0.26594 3.2403-0.15375 3.3934-0.13918 3.6538 0.34727 0.14944 0.27925 0.27171 0.55452 0.27171 0.61171 0 0.05717-0.8574 0.12667-1.9053 0.15441-1.0479 0.02753-2.0417 0.12763-2.2085 0.22196-0.1667 0.09433-1.2172 1.2305-2.3344 2.5248-1.1172 1.2943-2.0551 2.3807-2.0843 2.4142-0.02944 0.03352-0.32279-0.22789-0.6526-0.58093z" fill="#fffeff" stroke-width=".23304"/>
</svg>
