<svg width="128" height="128" version="1.1" viewBox="0 0 128 128" xmlns="http://www.w3.org/2000/svg" xmlns:xlink="http://www.w3.org/1999/xlink">
<defs>
<linearGradient id="linearGradient4546" x1="68.619" x2="68.619" y1="7.4113" y2="123.62" gradientUnits="userSpaceOnUse">
<stop stop-color="#ebf5f8" offset="0"/>
<stop stop-color="#d8dbdc" offset="1"/>
</linearGradient>
<linearGradient id="linearGradient4646" x1="179.01" x2="178.91" y1="86.676" y2="106.81" gradientTransform="translate(31.394 -1.7627)" gradientUnits="userSpaceOnUse">
<stop stop-color="#fff" offset="0"/>
<stop stop-color="#eae9e9" offset="1"/>
</linearGradient>
<linearGradient id="linearGradient4159" x1="11.239" x2="121.37" y1="63.217" y2="62.174" gradientTransform="matrix(.95244 0 0 .95244 3.0728 3.051)" gradientUnits="userSpaceOnUse">
<stop stop-color="#ff8b73" offset="0"/>
<stop stop-color="#aa78fc" offset="1"/>
</linearGradient>
</defs>
<path d="m64.613 1.4883c-34.585 1e-7 -62.682 28.098-62.682 62.684s28.096 62.682 62.682 62.682c34.585 0 62.684-28.096 62.684-62.682-1e-5 -34.585-28.098-62.684-62.684-62.684z" color="#000000" color-rendering="auto" fill="url(#linearGradient4546)" image-rendering="auto" shape-rendering="auto" solid-color="#000000" style="block-progression:tb;isolation:auto;mix-blend-mode:normal;text-decoration-color:#000000;text-decoration-line:none;text-decoration-style:solid;text-indent:0;text-transform:none;white-space:normal"/>
<circle cx="64.614" cy="64.171" r="57.029" fill="url(#linearGradient4159)"/>
<g transform="translate(-143.05 -4.9857)">
<g transform="translate(-24.407 -3.7966)">
<path d="m224.95 94.78-3.3898-42.034 18.983 40.407z" fill="#646464"/>
<path d="m221.56 52.746 18.983 40.407-8.4244 1.1868z" fill="#d4d4d4"/>
</g>
<circle cx="209.44" cy="95.077" r="11.122" fill="url(#linearGradient4646)" style="paint-order:fill markers stroke"/>
</g>
<g transform="matrix(.029631 0 0 .029631 78.199 47.097)" fill="#a40">
<path d="m1062.9 569.5h-53.826l46.454-46.772c14.426-14.553 14.362-38.065-0.127-52.554-7.054-6.927-16.332-10.804-26.182-10.804h-0.191c-9.913 0.064-19.255 3.94-26.182 10.994l-98.501 99.135h-216.95l155.76-155.69 129 0.318c20.399 0 37.049-16.65 37.112-37.049 0.064-20.526-16.586-37.176-37.049-37.239l-54.97-0.127 37.939-37.938c6.99-7.053 10.866-16.396 10.866-26.309 0-9.914-3.876-19.255-10.866-26.246-13.981-14.044-38.51-14.044-52.492 0l-38.065 38.066-0.255-65.963c-0.063-20.399-16.713-37.049-37.239-37.049-9.914 0.063-19.255 3.94-26.245 10.994-6.991 7.053-10.803 16.396-10.803 26.309l0.508 139.74-150.67 150.61v-216.26l91.383-90.938c14.489-14.489 14.552-38.066 0.127-52.554-14.425-14.489-38.002-14.553-52.554-0.127l-38.956 38.764v-53.635c0-20.526-16.649-37.176-37.112-37.176-20.526 0-37.175 16.65-37.175 37.176v53.762l-46.772-46.454c-7.054-6.99-16.332-10.804-26.182-10.804h-0.127c-9.977 0.064-19.255 3.94-26.246 10.994-14.426 14.489-14.362 38.066 0.19 52.491l99.136 98.5v216.96l-155.69-155.69 0.318-128.94c0-20.463-16.586-37.176-37.176-37.239-20.399 0-37.112 16.65-37.112 37.049l-0.127 54.969-37.939-37.938c-14.044-14.044-38.574-14.044-52.554 0-7.054 6.991-10.867 16.332-10.867 26.246 0 9.913 3.813 19.255 10.867 26.309l38.065 38.002-66.027 0.255c-20.462 0.064-37.049 16.776-36.985 37.303 0.063 20.399 16.713 36.985 37.239 36.985l139.81-0.445 160.08 160.02h-221.91l-98.691-99.135c-6.99-7.054-16.332-10.93-26.245-10.994h-0.064c-9.914 0-19.255 3.876-26.246 10.867-6.99 6.99-10.93 16.332-10.93 26.246s3.813 19.255 10.804 26.245l46.581 46.772h-53.635c-20.463 0-37.176 16.714-37.176 37.176 0 20.463 16.713 37.112 37.176 37.112h38.192l-38.701 39.019c-14.425 14.553-14.362 38.066 0.191 52.554 14.108 13.981 38.51 13.853 52.555-0.19l90.684-91.383h227.95l-147.94 147.94-140-0.318c-20.399 0-37.112 16.65-37.176 37.049 0 20.462 16.586 37.176 37.113 37.239l65.963 0.127-37.938 37.938c-6.99 7.054-10.866 16.332-10.866 26.246 0 9.977 3.876 19.255 10.866 26.245 14.044 14.108 38.51 14.108 52.554 0.063l27.009-27.072 0.19 54.969c0.064 20.399 16.713 37.049 37.303 37.049 20.463-0.063 37.049-16.84 36.985-37.303l-0.445-128.75 163.96-163.96v213.14l-99.2 98.691c-14.489 14.49-14.553 38.066-0.063 52.555 6.99 7.054 16.268 10.93 26.246 10.93h0.063c9.914 0 19.192-3.813 26.182-10.803l46.772-46.581v53.635c0 20.526 16.649 37.176 37.175 37.176 20.463 0 37.112-16.65 37.112-37.176v-38.193l39.019 38.702c14.044 13.98 38.574 13.917 52.554-0.191 14.426-14.489 14.299-38.065-0.19-52.491l-91.383-90.747v-227.95l147.94 147.94-0.318 139.93c-0.063 20.463 16.586 37.176 37.112 37.24 20.463 0 37.112-16.65 37.176-37.049l0.127-66.026 37.938 37.938c14.044 14.045 38.574 13.981 52.555 0 6.99-7.053 10.866-16.332 10.866-26.245 0-9.977-3.876-19.255-10.866-26.309l-27.072-27.008 54.969-0.191c9.914 0 19.255-3.94 26.245-10.93 6.991-7.054 10.803-16.395 10.803-26.309-0.127-20.463-16.776-37.049-37.303-37.049l-128.75 0.445-154.49-154.55h207.49l90.938 91.383c14.045 14.107 38.51 14.171 52.555 0.127 14.552-14.425 14.616-38.002 0.127-52.491l-38.764-39.019h53.698c20.463 0 37.112-16.65 37.112-37.112 0-20.464-16.646-37.178-37.109-37.178z" fill="#fff"/>
</g>
<path d="m27.727 80.36c-8.1557-5.5597-9.0153-10.544-6.8024-14.413 3.4582-6.0463 13.82-10.448 10.961-18.353 7.7868 4.8076 7.7866 14.799 7.3183 17.63 0 0 3.9637-2.5678 4.3245-3.4097 1.7114 9.8318-0.64294 15.854-7.3183 18.462 1.0744-2.3888 2.0132-4.6518 0.6653-7.4015l-1.8296 0.74846c0.27534-2.3209-0.54255-4.2319-1.9959-5.9046-3.059 5.8972-7.3184 5.5059-5.3224 12.641z" fill="#fff"/>
</svg>
