<svg width="128" height="128" version="1.1" viewBox="0 0 128 128" xmlns="http://www.w3.org/2000/svg" xmlns:xlink="http://www.w3.org/1999/xlink">
<defs>
<linearGradient id="linearGradient825" x1="-741.83" x2="-741.83" y1="959.05" y2="93.836" gradientTransform="matrix(.13668 0 0 .13668 162.31 -5.9893)" gradientUnits="userSpaceOnUse">
<stop stop-color="#e05c1b" offset="0"/>
<stop stop-color="#fab63c" offset="1"/>
</linearGradient>
<linearGradient id="linearGradient835" x1="-738.76" x2="-738.76" y1="931.43" y2="152.13" gradientTransform="matrix(.13668 0 0 .13668 161.84 -5.9893)" gradientUnits="userSpaceOnUse">
<stop stop-color="#f16f37" offset="0"/>
<stop stop-color="#fab63c" offset="1"/>
</linearGradient>
</defs>
<circle cx="63.592" cy="64.286" r="61.38" fill="url(#linearGradient825)"/>
<circle cx="63.12" cy="64.286" r="55.09" fill="url(#linearGradient835)"/>
<path d="m63.12 27.006a37.499 37.499 0 0 0-37.499 37.499 37.499 37.499 0 0 0 25.67 35.55c-3.4699-9.6248-6.1325-24.493-7.745-31.634-0.8025-3.165-0.325-6.315 0.21999-9.4874 1.1-3.2949 1.4625-6.7274 2.9675-9.8999 2.2975-1.9774 2.3525-5.5774 4.58-7.3049 0.3325 0.19749 0.55498 0.27749 0.71 0.35249l0.23249 0.025h0.025c0.32-0.33499-3.1199-3.83 0.06751-2.45 0.125-1.835 3.0049-0.43249 3.0475-2.0399v-0.0049c1.4 1.16 1.1375 0.67498 3.025 0.45999 2.1374-1.36 3.1351 3.2249 4.025 0.66749 2.63 0.3325 5.4224 1.1625 7.9075 1.9975 2.5026 0.53499 4.8625 1.94 6.5375 3.8699h-0.05l1.2275 1.6c0.15251 0.275 0.3025 0.5625 0.42749 0.84999 0.49499 4.1225 5.1999 4.065 8.3499 5.555 2.695 0.92999 5.9424 2.345 6.2749 5.5125-0.67998-0.145-3.31-3.1425-5.38-3.4425-1.245-0.07502-2.59-0.4175-3.845-0.8725l-7.2698-1.3025v-0.025c-0.355-0.05-0.72999-0.09999-1.0825-0.17499v0.025l-10.287-1.2325c0.1675 0.11251 0.35249 0.265 0.515 0.41499l10.55 1.9975v-0.02001l0.72999 0.17999 2.9499 0.64499c0.585 0.0525 1.17 0.14499 1.655 0.24 3.0074 0.79499 6.5649 0.64999 9.0399 2.7-0.6525 1.2025-4.25 0.51999-6.0474 0.36501-0.21999-0.04-0.45999-0.065-0.6775-0.115-0.05 0-0.075-0.025-0.125-0.025-2.45-0.37499-4.9499-0.4-7.3124 0.30749-5e-3 0-0.01744-0.0025-0.025 0-0.81248 0.245-1.6 0.595-2.3575 1.03-3.4049 1.9249-7.5999 2.6275-10.43 5.4-2.75 2.8874-2.5999 6.8825-2.1175 10.587h0.115v0.94498c0.045 0.32499 0.0975 0.64499 0.1425 0.96248 1.435 7.4948 5.27 14.372 6.4599 21.938 0.075 0.90498 0.2 1.9224 0.29999 2.915a37.499 37.499 0 0 0 32-37.06 37.499 37.499 0 0 0-37.499-37.499zm5.79 18.075c-1.135 0.03-2.015 0.4425-2.2649 1.1475-0.4 1.1275 0.96248 2.585 3.0475 3.2775 2.0849 0.71249 4.1024 0.37499 4.5074-0.75249 0.4-1.1275-0.95499-2.6024-3.0549-3.3049-0.775-0.2625-1.5525-0.3825-2.235-0.3675z" fill="#fff" stroke-width="1.9166"/>
</svg>
