<svg width="128" height="128" version="1.1" viewBox="0 0 128 128" xmlns="http://www.w3.org/2000/svg" xmlns:xlink="http://www.w3.org/1999/xlink">
<defs>
<radialGradient id="radialGradient829" cx="-466.44" cy="527.19" r="496.81" gradientTransform="matrix(.12131 0 0 .12162 121.06 .34911)" gradientUnits="userSpaceOnUse">
<stop offset="0"/>
<stop stop-color="#202020" offset=".95644"/>
<stop stop-color="#212121" stop-opacity=".57647" offset=".97679"/>
<stop stop-color="#242424" stop-opacity="0" offset="1"/>
</radialGradient>
<linearGradient id="linearGradient845" x1="-513.95" x2="-519.39" y1="92.874" y2="915.13" gradientTransform="matrix(.12681 0 0 .12681 134.09 3.662)" gradientUnits="userSpaceOnUse">
<stop stop-color="#00cd89" offset="0"/>
<stop stop-color="#00a0a0" offset="1"/>
</linearGradient>
</defs>
<path d="m137.94 64.464a73.458 69.056 0 0 1-73.42 69.056 73.458 69.056 0 0 1-73.495-68.984 73.458 69.056 0 0 1 73.344-69.127 73.458 69.056 0 0 1 73.571 68.913l-73.457 0.14236z" fill="url(#radialGradient829)" opacity=".275" style="paint-order:fill markers stroke"/>
<circle cx="64.482" cy="64.464" r="58.601" fill="url(#linearGradient845)" style="paint-order:fill markers stroke"/>
<path d="m54.34 35.297c-0.63429-0.04722-1.2852-0.05988-1.9581-0.04059-5.5854 0.16012-9.7003 2.3998-12.321 6.7089-2.6214 4.2854-3.8117 10.403-3.5836 18.362 0.2329 8.1263 1.7771 14.288 4.6409 18.464 2.0031 2.9208 4.6238 4.7756 7.8594 5.5755 0 0 0.65011-0.05621 0.72313 0.6387 1.3622 8.95 6.973 8.8092 13.371 8.6258 0 0 0.82969-0.0233 0.80602-0.84913l-0.14264-4.9539c-0.02367-0.82578-0.84941-0.80187-0.84941-0.80187-3.1965 0.09161-4.0223 0.32505-4.9702-2.854 1.075-0.29915 2.0717-0.69416 2.9915-1.1974 2.0757-1.1598 3.7695-2.8056 5.0804-4.9484 1.31-2.1665 2.2518-4.8085 2.823-7.9345 0.59639-3.1268 0.84138-6.6978 0.72622-10.713-0.23085-8.0549-1.7972-14.123-4.7092-18.202-2.5486-3.5898-6.0472-5.5497-10.487-5.8798zm-1.066 4.0393c0.78558 0.1335 1.4404 0.51063 2.0195 1.1338 0.45479 0.47213 0.86269 1.0959 1.2438 1.8474 0.21912 0.55532 0.43797 1.1451 0.62013 1.8164 0.4915 1.8117 0.86467 4.0159 1.1187 6.6324 0.2535 2.612 0.42126 5.593 0.51671 8.9226 0.09608 3.3535 0.10186 6.3668-2.21e-4 9.0367-0.10301 2.6503-0.3508 4.9076-0.73645 6.7909-0.1451 0.69926-0.32114 1.3363-0.51393 1.925-0.03245 0.07636-0.06231 0.16144-0.09566 0.23531-0.30925 0.68558-0.65159 1.2651-1.0346 1.7344-0.72439 0.92058-1.6144 1.3623-2.78 1.3957-1.1656 0.03344-2.075-0.36009-2.8508-1.2377-0.75978-0.89205-1.4009-2.2043-1.8968-3.9706-0.4982-1.7957-0.86504-4.0002-1.1204-6.6075-0.2566-2.6361-0.44664-5.6357-0.54231-8.9744-0.09504-3.3148-0.07694-6.2613 0.02959-8.8595 0.10629-2.5932 0.35047-4.7803 0.74486-6.5525 0.39418-1.7668 0.96711-3.0931 1.6708-3.9763 0.72317-0.87371 1.6057-1.3123 2.7765-1.3459 0.29272-0.0083 0.5688 0.0092 0.83069 0.05366zm31.257 2.5721-6.3961 0.18392c-2.1951 9.9807-0.5451 9.7958-5.5035 9.9379l0.18332 5.8662 3.3737-0.09847s0.3593 13.131 0.47764 17.26c0 0-0.75129 4.9785 3.4518 7.3375 4.325 2.4274 12.233-0.2308 12.395-0.35383l-0.16421-5.7814s-2.002 0.70588-3.3305 0.61467c-1.0416 0.02986-1.8946-0.3338-2.5561-1.0961-0.66158-0.76228-1.0127-1.9155-1.0567-3.4531l-0.40854-14.781 6.8225-0.1959-0.17946-5.8618-6.8267 0.19562z" enable-background="new" fill="#fff" stroke-width=".3666"/>
</svg>
