<svg width="128" height="128" viewBox="0 0 33.867 33.867" xmlns="http://www.w3.org/2000/svg">
<linearGradient id="a" x1="16.536" x2="18.653" y1="281.61" y2="291.07" gradientUnits="userSpaceOnUse">
<stop stop-color="#39393a" offset="0"/>
<stop stop-color="#1c1c1d" offset="1"/>
</linearGradient>
<linearGradient id="b" x1="16.413" x2="32.282" y1="288.91" y2="288.91" gradientUnits="userSpaceOnUse">
<stop stop-color="#e7e7e7" offset="0"/>
<stop stop-color="#e0e0e0" offset="1"/>
</linearGradient>
<filter id="c" x="-.047627" y="-.081057" width="1.0953" height="1.1621" color-interpolation-filters="sRGB">
<feGaussianBlur stdDeviation=".31490495"/>
</filter>
<filter id="d" x="-.018997" y="-.019407" width="1.038" height="1.0388" color-interpolation-filters="sRGB">
<feGaussianBlur stdDeviation=".22559376"/>
</filter>
<g transform="translate(0 -263.13)">
<path d="m26.182 266.19-24.477 3.6816 0.035156 0.2461 3.5117 23.971 24.953-3.8184z" fill="#0f0f0f" filter="url(#d)"/>
<path d="m1.9879 270.08 23.987-3.6081 3.9422 23.587-24.455 3.7418z" fill="#1a1a1b" stroke="#505050" stroke-width=".5"/>
<path d="m4.0349 283.11 1.1245-0.0661 1.2568 0.52916 1.3891 0.33073 1.3891-0.85989 1.1906-1.5875 1.5214 1.1906 0.79375-3.7703 2.0505 3.638 1.3891 0.7276 1.043-2.8209 1.2691-0.60959 0.21048-3.0636c0.76477 0.16876 1.0469-0.0654 1.3798-0.25725l1.0524 2.1983 1.2161-1.0758 1.8943 3.2273 0.53788-3.3676 1.333-1.9644 1.0114-0.87114 2.4803 14.69-23.812 4.2995z" fill="url(#a)"/>
<g fill="none" stroke="#505050" stroke-width=".25">
<path d="m5.6224 269.31 3.7798 23.718"/>
<path d="m9.7985 269.01 3.7798 23.718"/>
<path d="m13.808 268.48 3.7798 23.718"/>
<path d="m22.026 267.11 3.7798 23.718"/>
</g>
<circle cx="19.135" cy="275.36" r="1.0394" fill="#00afff"/>
<path d="m17.954 267.85 0.94494 6.0476" fill="none" stroke="#00afff" stroke-width=".47"/>
<path d="m19.419 276.78 1.2757 8.0792" fill="none" stroke="#00afff" stroke-width=".47"/>
<path d="m4.0349 283.11 1.1245-0.0661 1.2568 0.52916 1.3891 0.33073 1.3891-0.85989 1.1906-1.5875 1.5214 1.1906 0.79375-3.7703 2.0505 3.638 1.3891 0.7276 1.043-2.8209 1.2691-0.60959 0.21048-3.0636" fill="none" stroke="#f6f6f6" stroke-linejoin="round" stroke-width=".5"/>
<path d="m20.042 276.49 1.0524 2.1983 1.2161-1.0758 1.8943 3.2273 0.53788-3.3676 1.333-1.9644 0.81851-0.74836 0.38295-0.22802" fill="none" stroke="#e6e6e6" stroke-linejoin="round" stroke-width=".5"/>
<rect transform="matrix(.99837 0 0 1.0362 .039725 -10.289)" x="16.413" y="284.25" width="15.868" height="9.324" rx="1.292" ry="1.2447" filter="url(#c)" opacity=".34"/>
<path d="m1.9879 270.08 23.987-3.6081 3.9422 23.587-24.455 3.7418z" fill="none" stroke="#505050" stroke-width=".5"/>
<rect x="16.413" y="284.25" width="15.868" height="9.324" rx="1.2898" fill="url(#b)"/>
<g transform="translate(-.032334 .049042)">
<path d="m21.312243 285.86328c-.253108.0134-.482326.15373-.609374.37305l-2.597657 4.49805c-.288754.50034.07271 1.12557.650391 1.125h5.191406c.57768.00057.939145-.62466.650391-1.125l-2.595703-4.49805c-.141384-.2441-.407771-.38824-.689454-.37305z" fill="#32d74b"/>
<path d="m27.447365 291.85829c.253108-.0134.482326-.15373.609374-.37305l2.597657-4.49805c.288754-.50034-.07271-1.12557-.650391-1.125h-5.191406c-.57768-.00057-.939145.62466-.650391 1.125l2.595703 4.49805c.141384.2441.407771.38824.689454.37305z" fill="#ff453a"/>
</g>
</g>
</svg>
