<svg width="128" height="128" version="1.1" viewBox="0 0 33.867 33.867" xmlns="http://www.w3.org/2000/svg" xmlns:xlink="http://www.w3.org/1999/xlink">
<defs>
<linearGradient id="linearGradient14855" x1="9.2417" x2="21.169" y1="8.8554" y2="27.927" gradientUnits="userSpaceOnUse">
<stop stop-color="#70c2bd" offset="0"/>
<stop stop-color="#67c381" offset="1"/>
</linearGradient>
</defs>
<g transform="matrix(.97573 0 0 .97573 -65.748 -37.203)" fill="none" opacity=".29677" stroke="#000" stroke-linecap="round" stroke-linejoin="round" stroke-opacity=".02">
<path d="m76.449 40.71h16.591c3.6619 0 6.6099 2.948 6.6099 6.6099v16.591c0 3.6619-2.948 6.6099-6.6099 6.6099h-16.591c-3.6619 0-6.6099-2.948-6.6099-6.6099v-16.591c0-3.6619 2.948-6.6099 6.6099-6.6099z" stroke-width=".1"/>
<path d="m76.449 40.71h16.591c3.6619 0 6.6099 2.948 6.6099 6.6099v16.591c0 3.6619-2.948 6.6099-6.6099 6.6099h-16.591c-3.6619 0-6.6099-2.948-6.6099-6.6099v-16.591c0-3.6619 2.948-6.6099 6.6099-6.6099z" stroke-width=".2"/>
<path d="m76.449 40.71h16.591c3.6619 0 6.6099 2.948 6.6099 6.6099v16.591c0 3.6619-2.948 6.6099-6.6099 6.6099h-16.591c-3.6619 0-6.6099-2.948-6.6099-6.6099v-16.591c0-3.6619 2.948-6.6099 6.6099-6.6099z" stroke-width=".3"/>
<path d="m76.449 40.71h16.591c3.6619 0 6.6099 2.948 6.6099 6.6099v16.591c0 3.6619-2.948 6.6099-6.6099 6.6099h-16.591c-3.6619 0-6.6099-2.948-6.6099-6.6099v-16.591c0-3.6619 2.948-6.6099 6.6099-6.6099z" stroke-width=".4"/>
<path d="m76.449 40.71h16.591c3.6619 0 6.6099 2.948 6.6099 6.6099v16.591c0 3.6619-2.948 6.6099-6.6099 6.6099h-16.591c-3.6619 0-6.6099-2.948-6.6099-6.6099v-16.591c0-3.6619 2.948-6.6099 6.6099-6.6099z" stroke-width=".5"/>
<path d="m76.449 40.71h16.591c3.6619 0 6.6099 2.948 6.6099 6.6099v16.591c0 3.6619-2.948 6.6099-6.6099 6.6099h-16.591c-3.6619 0-6.6099-2.948-6.6099-6.6099v-16.591c0-3.6619 2.948-6.6099 6.6099-6.6099z" stroke-width=".6"/>
<path d="m76.449 40.71h16.591c3.6619 0 6.6099 2.948 6.6099 6.6099v16.591c0 3.6619-2.948 6.6099-6.6099 6.6099h-16.591c-3.6619 0-6.6099-2.948-6.6099-6.6099v-16.591c0-3.6619 2.948-6.6099 6.6099-6.6099z" stroke-width=".7"/>
<path d="m76.449 40.71h16.591c3.6619 0 6.6099 2.948 6.6099 6.6099v16.591c0 3.6619-2.948 6.6099-6.6099 6.6099h-16.591c-3.6619 0-6.6099-2.948-6.6099-6.6099v-16.591c0-3.6619 2.948-6.6099 6.6099-6.6099z" stroke-width=".8"/>
<path d="m76.449 40.71h16.591c3.6619 0 6.6099 2.948 6.6099 6.6099v16.591c0 3.6619-2.948 6.6099-6.6099 6.6099h-16.591c-3.6619 0-6.6099-2.948-6.6099-6.6099v-16.591c0-3.6619 2.948-6.6099 6.6099-6.6099z"/>
<path d="m76.449 40.71h16.591c3.6619 0 6.6099 2.948 6.6099 6.6099v16.591c0 3.6619-2.948 6.6099-6.6099 6.6099h-16.591c-3.6619 0-6.6099-2.948-6.6099-6.6099v-16.591c0-3.6619 2.948-6.6099 6.6099-6.6099z" stroke-width="1.2"/>
<path d="m76.449 40.71h16.591c3.6619 0 6.6099 2.948 6.6099 6.6099v16.591c0 3.6619-2.948 6.6099-6.6099 6.6099h-16.591c-3.6619 0-6.6099-2.948-6.6099-6.6099v-16.591c0-3.6619 2.948-6.6099 6.6099-6.6099z" stroke-width="1.4"/>
<path d="m76.449 40.71h16.591c3.6619 0 6.6099 2.948 6.6099 6.6099v16.591c0 3.6619-2.948 6.6099-6.6099 6.6099h-16.591c-3.6619 0-6.6099-2.948-6.6099-6.6099v-16.591c0-3.6619 2.948-6.6099 6.6099-6.6099z" stroke-width="1.6"/>
<path d="m76.449 40.71h16.591c3.6619 0 6.6099 2.948 6.6099 6.6099v16.591c0 3.6619-2.948 6.6099-6.6099 6.6099h-16.591c-3.6619 0-6.6099-2.948-6.6099-6.6099v-16.591c0-3.6619 2.948-6.6099 6.6099-6.6099z" stroke-width="1.8"/>
<path d="m76.449 40.71h16.591c3.6619 0 6.6099 2.948 6.6099 6.6099v16.591c0 3.6619-2.948 6.6099-6.6099 6.6099h-16.591c-3.6619 0-6.6099-2.948-6.6099-6.6099v-16.591c0-3.6619 2.948-6.6099 6.6099-6.6099z" stroke-width="2"/>
<path d="m76.449 40.71h16.591c3.6619 0 6.6099 2.948 6.6099 6.6099v16.591c0 3.6619-2.948 6.6099-6.6099 6.6099h-16.591c-3.6619 0-6.6099-2.948-6.6099-6.6099v-16.591c0-3.6619 2.948-6.6099 6.6099-6.6099z" stroke-width="2.2"/>
<path d="m76.449 40.71h16.591c3.6619 0 6.6099 2.948 6.6099 6.6099v16.591c0 3.6619-2.948 6.6099-6.6099 6.6099h-16.591c-3.6619 0-6.6099-2.948-6.6099-6.6099v-16.591c0-3.6619 2.948-6.6099 6.6099-6.6099z" stroke-width="2.6"/>
<path d="m76.449 40.71h16.591c3.6619 0 6.6099 2.948 6.6099 6.6099v16.591c0 3.6619-2.948 6.6099-6.6099 6.6099h-16.591c-3.6619 0-6.6099-2.948-6.6099-6.6099v-16.591c0-3.6619 2.948-6.6099 6.6099-6.6099z" stroke-width="3"/>
<path d="m76.449 40.71h16.591c3.6619 0 6.6099 2.948 6.6099 6.6099v16.591c0 3.6619-2.948 6.6099-6.6099 6.6099h-16.591c-3.6619 0-6.6099-2.948-6.6099-6.6099v-16.591c0-3.6619 2.948-6.6099 6.6099-6.6099z" stroke-width="3.4"/>
<path d="m76.449 40.71h16.591c3.6619 0 6.6099 2.948 6.6099 6.6099v16.591c0 3.6619-2.948 6.6099-6.6099 6.6099h-16.591c-3.6619 0-6.6099-2.948-6.6099-6.6099v-16.591c0-3.6619 2.948-6.6099 6.6099-6.6099z" stroke-width="3.8"/>
<path d="m76.449 40.71h16.591c3.6619 0 6.6099 2.948 6.6099 6.6099v16.591c0 3.6619-2.948 6.6099-6.6099 6.6099h-16.591c-3.6619 0-6.6099-2.948-6.6099-6.6099v-16.591c0-3.6619 2.948-6.6099 6.6099-6.6099z" stroke-width="4.2"/>
<path d="m76.449 40.71h16.591c3.6619 0 6.6099 2.948 6.6099 6.6099v16.591c0 3.6619-2.948 6.6099-6.6099 6.6099h-16.591c-3.6619 0-6.6099-2.948-6.6099-6.6099v-16.591c0-3.6619 2.948-6.6099 6.6099-6.6099z" stroke-width="4.6"/>
<path d="m76.449 40.71h16.591c3.6619 0 6.6099 2.948 6.6099 6.6099v16.591c0 3.6619-2.948 6.6099-6.6099 6.6099h-16.591c-3.6619 0-6.6099-2.948-6.6099-6.6099v-16.591c0-3.6619 2.948-6.6099 6.6099-6.6099z" stroke-width="5"/>
</g>
<rect x="2.4065" y="2.5186" width="29.087" height="29.087" rx="6.4495" ry="6.4495" fill="url(#linearGradient14855)" stroke-linecap="round" stroke-linejoin="round" stroke-width="2.6877"/>
<path d="m63.366-13.641-7.5223-7.6006" color="#000000" fill="none" stroke-width=".6"/>
<path d="m41.242-29.284 8.8556 8.8325c1.7498 1.5783 2.9157 1.6977 4.709 0.10074l11.969-11.168" color="#000000" fill="none" stroke-width=".7"/>
<path transform="scale(.26458)" d="m61.5 23.594a39.018 39.018 0 0 0-39.02 39.02 39.018 39.018 0 0 0 39.02 39.018h35.115c2.1616 0 3.9023-1.7407 3.9023-3.9023v-35.115a39.018 39.018 0 0 0-39.018-39.02zm0.050781 10.859c0.55279-0.005381 1.1069 0.007153 1.6602 0.035156v-0.007812c2.9508 0.14949 5.8941 0.77264 8.7188 1.8906l-3.2793 2.502c-9.4073-2.778-19.914 0.38424-26.123 8.7383-1.5933 2.1441-2.7303 4.4696-3.5156 6.8691l11.455-1.6895-5.627 4.3125-6.752 0.99023-3.5566 0.52539c0.56438-4.5772 2.269-9.081 5.2266-13.062 5.352-7.1978 13.501-11.023 21.793-11.104zm15.73 5.3125c3.8656 2.5201 7.1641 6.0363 9.4414 10.445 5.3431 10.345 3.4927 22.404-3.6934 30.658l6.7168 7.7793-2.6719 2.3125-8.707-10.082c0.058355-0.054538 0.116-0.11542 0.17383-0.16992l-0.015625-0.11133c7.8488-7.1644 10.248-18.89 5.127-28.803-1.2258-2.3735-2.8108-4.4168-4.6211-6.1758l-3.5977 11.289-1.0469-8.0469 1.8008-5.6602 1.0938-3.4238v-0.011719zm-43.25 26.953 3.7695 1.5723c2.2138 9.858 10.488 17.606 21.119 18.656 2.6582 0.26293 5.2416 0.039601 7.7031-0.52148l-7.6699-9.3359 6.7637 2.8066 4.4824 5.4629h0.011719l2.2793 2.7773c-4.2173 1.872-8.9722 2.7227-13.91 2.2344-12.979-1.2836-22.881-11.29-24.549-23.652z" fill="#f4ffff" stroke-width="1.3454"/>
</svg>
