<svg width="128" height="128" version="1.1" viewBox="0 0 33.867 33.867" xmlns="http://www.w3.org/2000/svg" xmlns:xlink="http://www.w3.org/1999/xlink">
<defs>
<radialGradient id="radialGradient1161" cx="16.974" cy="2.3754" r="14.544" gradientTransform="matrix(7.3382 0 0 1.9256 -107.59 -2.1987)" gradientUnits="userSpaceOnUse">
<stop stop-color="#00cdb4" offset="0"/>
<stop stop-color="#138198" offset="1"/>
</radialGradient>
<linearGradient id="linearGradient1249" x1="16.382" x2="16.382" y1="11.426" y2="46.743" gradientUnits="userSpaceOnUse">
<stop stop-color="#fff" offset="0"/>
<stop stop-color="#12869a" offset="1"/>
</linearGradient>
</defs>
<g transform="matrix(.97573 0 0 .97573 -65.714 -37.237)" fill="none" opacity=".295" stroke="#000" stroke-linecap="round" stroke-linejoin="round" stroke-opacity=".02">
<rect x="69.84" y="40.71" width="29.811" height="29.811" rx="6.6099" ry="6.6099" stroke-width=".1"/>
<rect x="69.84" y="40.71" width="29.811" height="29.811" rx="6.6099" ry="6.6099" stroke-width=".2"/>
<rect x="69.84" y="40.71" width="29.811" height="29.811" rx="6.6099" ry="6.6099" stroke-width=".3"/>
<rect x="69.84" y="40.71" width="29.811" height="29.811" rx="6.6099" ry="6.6099" stroke-width=".4"/>
<rect x="69.84" y="40.71" width="29.811" height="29.811" rx="6.6099" ry="6.6099" stroke-width=".5"/>
<rect x="69.84" y="40.71" width="29.811" height="29.811" rx="6.6099" ry="6.6099" stroke-width=".6"/>
<rect x="69.84" y="40.71" width="29.811" height="29.811" rx="6.6099" ry="6.6099" stroke-width=".7"/>
<rect x="69.84" y="40.71" width="29.811" height="29.811" rx="6.6099" ry="6.6099" stroke-width=".8"/>
<rect x="69.84" y="40.71" width="29.811" height="29.811" rx="6.6099" ry="6.6099"/>
<rect x="69.84" y="40.71" width="29.811" height="29.811" rx="6.6099" ry="6.6099" stroke-width="1.2"/>
<rect x="69.84" y="40.71" width="29.811" height="29.811" rx="6.6099" ry="6.6099" stroke-width="1.4"/>
<rect x="69.84" y="40.71" width="29.811" height="29.811" rx="6.6099" ry="6.6099" stroke-width="1.6"/>
<rect x="69.84" y="40.71" width="29.811" height="29.811" rx="6.6099" ry="6.6099" stroke-width="1.8"/>
<rect x="69.84" y="40.71" width="29.811" height="29.811" rx="6.6099" ry="6.6099" stroke-width="2"/>
<rect x="69.84" y="40.71" width="29.811" height="29.811" rx="6.6099" ry="6.6099" stroke-width="2.2"/>
<rect x="69.84" y="40.71" width="29.811" height="29.811" rx="6.6099" ry="6.6099" stroke-width="2.6"/>
<rect x="69.84" y="40.71" width="29.811" height="29.811" rx="6.6099" ry="6.6099" stroke-width="3"/>
<rect x="69.84" y="40.71" width="29.811" height="29.811" rx="6.6099" ry="6.6099" stroke-width="3.4"/>
<rect x="69.84" y="40.71" width="29.811" height="29.811" rx="6.6099" ry="6.6099" stroke-width="3.8"/>
<rect x="69.84" y="40.71" width="29.811" height="29.811" rx="6.6099" ry="6.6099" stroke-width="4.2"/>
<rect x="69.84" y="40.71" width="29.811" height="29.811" rx="6.6099" ry="6.6099" stroke-width="4.6"/>
<rect x="69.84" y="40.71" width="29.811" height="29.811" rx="6.6099" ry="6.6099" stroke-width="5"/>
</g>
<rect x="2.4305" y="2.4846" width="29.087" height="29.087" rx="6.4495" ry="6.4495" fill="url(#radialGradient1161)" stroke-linecap="round" stroke-linejoin="round" stroke-width="2.6877"/>
<g fill="#061037" fill-opacity=".069695" opacity=".37002" stroke-width=".47246">
<path d="m15.175 8.7837c-2.6294 0-4.6545 1.9622-4.6545 4.5917v1.0593c0 1.9421 1.1653 3.6129 2.8348 4.3555v-1.9212c-0.68698-0.57037-0.94492-1.4489-0.94492-2.4343v-1.0593c0-1.7159 1.0487-2.7019 2.7646-2.7019h3.9181c1.7159 0 2.7665 0.98597 2.7665 2.7019v1.0593c0 1.7159-1.0506 2.8583-2.7665 2.8532h-2.9031c0-0.52187-0.42306-0.94492-0.94492-0.94492-0.52187 0-0.94492 0.42306-0.94492 0.94492v5.7249c0 0.41192-0.30641 0.88956-0.94492 0.88956-0.63851 0-0.94492-0.30881-0.94492-0.86372v-3.0064c0-0.48602-0.46628-0.85449-0.9523-0.85449-0.48589 0-0.93754 0.36847-0.93754 0.85449v3.1098c0 1.4579 1.3768 2.6502 2.8348 2.6502 1.4579 0 2.8348-1.0981 2.8348-2.6502v-3.9642h1.8898v3.9642c0 1.4579 1.3768 2.6502 2.8348 2.6502s2.8714-1.1927 2.8348-2.6502v-3.1098c0-0.48602-0.4589-0.85449-0.94492-0.85449-0.48589 0-0.94492 0.36847-0.94492 0.85449v3.0064c0 0.55491-0.471 0.86372-0.94492 0.86372-0.47392 0-0.97116-0.38435-0.94492-0.79543v-4.0251c2.1181-0.48537 3.7797-2.3838 3.7797-4.6471v-1.0593c0-2.6295-2.027-4.5917-4.6563-4.5917zm-6.5443 6.6145c-0.51974 0-0.94492 0.43156-0.94492 0.95046v3.3183c0 1.2261 0.79173 2.2761 1.8898 2.6668v-5.9851c0-0.5189-0.42532-0.95046-0.94492-0.95046zm17.009 0c-0.51974 0-0.94492 0.43156-0.94492 0.95046v5.9851c1.0981-0.39071 1.8898-1.4408 1.8898-2.6668v-3.3183c0-0.5189-0.42532-0.95046-0.94492-0.95046z" opacity="1"/>
<path d="m15.476 8.9396c-2.6294 0-4.6545 1.9622-4.6545 4.5917v1.0593c0 1.9421 1.1653 3.6129 2.8348 4.3555v-1.9212c-0.68698-0.57037-0.94492-1.4489-0.94492-2.4343v-1.0593c0-1.7159 1.0487-2.7019 2.7646-2.7019h3.9181c1.7159 0 2.7665 0.98597 2.7665 2.7019v1.0593c0 1.7159-1.0506 2.8583-2.7665 2.8532h-2.9031c0-0.52187-0.42306-0.94492-0.94492-0.94492-0.52187 0-0.94492 0.42306-0.94492 0.94492v5.7249c0 0.41192-0.30641 0.88956-0.94492 0.88956-0.63851 0-0.94492-0.30881-0.94492-0.86372v-3.0064c0-0.48602-0.46628-0.85449-0.9523-0.85449-0.48589 0-0.93754 0.36847-0.93754 0.85449v3.1098c0 1.4579 1.3768 2.6502 2.8348 2.6502 1.4579 0 2.8348-1.0981 2.8348-2.6502v-3.9642h1.8898v3.9642c0 1.4579 1.3768 2.6502 2.8348 2.6502s2.8714-1.1927 2.8348-2.6502v-3.1098c0-0.48602-0.4589-0.85449-0.94492-0.85449-0.48589 0-0.94492 0.36847-0.94492 0.85449v3.0064c0 0.55491-0.471 0.86372-0.94492 0.86372-0.47392 0-0.97116-0.38435-0.94492-0.79543v-4.0251c2.1181-0.48537 3.7797-2.3838 3.7797-4.6471v-1.0593c0-2.6295-2.027-4.5917-4.6563-4.5917zm-6.5443 6.6145c-0.51974 0-0.94492 0.43156-0.94492 0.95046v3.3183c0 1.2261 0.79173 2.2761 1.8898 2.6668v-5.9851c0-0.5189-0.42532-0.95046-0.94492-0.95046zm17.009 0c-0.51974 0-0.94492 0.43156-0.94492 0.95046v5.9851c1.0981-0.39071 1.8898-1.4408 1.8898-2.6668v-3.3183c0-0.5189-0.42532-0.95046-0.94492-0.95046z" opacity="1"/>
<path d="m15.74 9.2977c-2.6294 0-4.6545 1.9622-4.6545 4.5917v1.0593c0 1.9421 1.1653 3.6129 2.8348 4.3555v-1.9212c-0.68698-0.57037-0.94492-1.4489-0.94492-2.4343v-1.0593c0-1.7159 1.0487-2.7019 2.7646-2.7019h3.9181c1.7159 0 2.7665 0.98597 2.7665 2.7019v1.0593c0 1.7159-1.0506 2.8583-2.7665 2.8532h-2.9031c0-0.52187-0.42306-0.94492-0.94492-0.94492-0.52187 0-0.94492 0.42306-0.94492 0.94492v5.7249c0 0.41192-0.30641 0.88956-0.94492 0.88956-0.63851 0-0.94492-0.30881-0.94492-0.86372v-3.0064c0-0.48602-0.46628-0.85449-0.9523-0.85449-0.48589 0-0.93754 0.36847-0.93754 0.85449v3.1098c0 1.4579 1.3768 2.6502 2.8348 2.6502 1.4579 0 2.8348-1.0981 2.8348-2.6502v-3.9642h1.8898v3.9642c0 1.4579 1.3768 2.6502 2.8348 2.6502s2.8714-1.1927 2.8348-2.6502v-3.1098c0-0.48602-0.4589-0.85449-0.94492-0.85449-0.48589 0-0.94492 0.36847-0.94492 0.85449v3.0064c0 0.55491-0.471 0.86372-0.94492 0.86372-0.47392 0-0.97116-0.38435-0.94492-0.79543v-4.0251c2.1181-0.48537 3.7797-2.3838 3.7797-4.6471v-1.0593c0-2.6295-2.027-4.5917-4.6563-4.5917zm-6.5443 6.6145c-0.51974 0-0.94492 0.43156-0.94492 0.95046v3.3183c0 1.2261 0.79173 2.2761 1.8898 2.6668v-5.9851c0-0.5189-0.42532-0.95046-0.94492-0.95046zm17.009 0c-0.51974 0-0.94492 0.43156-0.94492 0.95046v5.9851c1.0981-0.39071 1.8898-1.4408 1.8898-2.6668v-3.3183c0-0.5189-0.42532-0.95046-0.94492-0.95046z" opacity="1"/>
<path d="m16.001 9.6045c-2.6294 0-4.6545 1.9622-4.6545 4.5917v1.0593c0 1.9421 1.1653 3.6129 2.8348 4.3555v-1.9212c-0.68698-0.57037-0.94492-1.4489-0.94492-2.4343v-1.0593c0-1.7159 1.0487-2.7019 2.7646-2.7019h3.9181c1.7159 0 2.7665 0.98597 2.7665 2.7019v1.0593c0 1.7159-1.0506 2.8583-2.7665 2.8532h-2.9031c0-0.52187-0.42306-0.94492-0.94492-0.94492-0.52187 0-0.94492 0.42306-0.94492 0.94492v5.7249c0 0.41192-0.30641 0.88956-0.94492 0.88956-0.63851 0-0.94492-0.30881-0.94492-0.86372v-3.0064c0-0.48602-0.46628-0.85449-0.9523-0.85449-0.48589 0-0.93754 0.36847-0.93754 0.85449v3.1098c0 1.4579 1.3768 2.6502 2.8348 2.6502 1.4579 0 2.8348-1.0981 2.8348-2.6502v-3.9642h1.8898v3.9642c0 1.4579 1.3768 2.6502 2.8348 2.6502s2.8714-1.1927 2.8348-2.6502v-3.1098c0-0.48602-0.4589-0.85449-0.94492-0.85449-0.48589 0-0.94492 0.36847-0.94492 0.85449v3.0064c0 0.55491-0.471 0.86372-0.94492 0.86372-0.47392 0-0.97116-0.38435-0.94492-0.79543v-4.0251c2.1181-0.48537 3.7797-2.3838 3.7797-4.6471v-1.0593c0-2.6295-2.027-4.5917-4.6563-4.5917zm-6.5443 6.6145c-0.51974 0-0.94492 0.43156-0.94492 0.95046v3.3183c0 1.2261 0.79173 2.2761 1.8898 2.6668v-5.9851c0-0.5189-0.42532-0.95046-0.94492-0.95046zm17.009 0c-0.51974 0-0.94492 0.43156-0.94492 0.95046v5.9851c1.0981-0.39071 1.8898-1.4408 1.8898-2.6668v-3.3183c0-0.5189-0.42532-0.95046-0.94492-0.95046z" opacity="1"/>
<path d="m16.256 9.939c-2.6294 0-4.6545 1.9622-4.6545 4.5917v1.0593c0 1.9421 1.1653 3.6129 2.8348 4.3555v-1.9212c-0.68698-0.57037-0.94492-1.4489-0.94492-2.4343v-1.0593c0-1.7159 1.0487-2.7019 2.7646-2.7019h3.9181c1.7159 0 2.7665 0.98597 2.7665 2.7019v1.0593c0 1.7159-1.0506 2.8583-2.7665 2.8532h-2.9031c0-0.52187-0.42306-0.94492-0.94492-0.94492-0.52187 0-0.94492 0.42306-0.94492 0.94492v5.7249c0 0.41192-0.30641 0.88956-0.94492 0.88956-0.63851 0-0.94492-0.30881-0.94492-0.86372v-3.0064c0-0.48602-0.46628-0.85449-0.9523-0.85449-0.48589 0-0.93754 0.36847-0.93754 0.85449v3.1098c0 1.4579 1.3768 2.6502 2.8348 2.6502 1.4579 0 2.8348-1.0981 2.8348-2.6502v-3.9642h1.8898v3.9642c0 1.4579 1.3768 2.6502 2.8348 2.6502s2.8714-1.1927 2.8348-2.6502v-3.1098c0-0.48602-0.4589-0.85449-0.94492-0.85449-0.48589 0-0.94492 0.36847-0.94492 0.85449v3.0064c0 0.55491-0.471 0.86372-0.94492 0.86372-0.47392 0-0.97116-0.38435-0.94492-0.79543v-4.0251c2.1181-0.48537 3.7797-2.3838 3.7797-4.6471v-1.0593c0-2.6295-2.027-4.5917-4.6563-4.5917zm-6.5443 6.6145c-0.51974 0-0.94492 0.43156-0.94492 0.95046v3.3183c0 1.2261 0.79173 2.2761 1.8898 2.6668v-5.9851c0-0.5189-0.42532-0.95046-0.94492-0.95046zm17.009 0c-0.51974 0-0.94492 0.43156-0.94492 0.95046v5.9851c1.0981-0.39071 1.8898-1.4408 1.8898-2.6668v-3.3183c0-0.5189-0.42532-0.95046-0.94492-0.95046z" opacity="1"/>
</g>
<path d="m15.014 8.524c-2.6294 0-4.6545 1.9622-4.6545 4.5917v1.0593c0 1.9421 1.1653 3.6129 2.8348 4.3555v-1.9212c-0.68698-0.57037-0.94492-1.4489-0.94492-2.4343v-1.0593c0-1.7159 1.0487-2.7019 2.7646-2.7019h3.9181c1.7159 0 2.7665 0.98597 2.7665 2.7019v1.0593c0 1.7159-1.0506 2.8583-2.7665 2.8532h-2.9031c0-0.52187-0.42306-0.94492-0.94492-0.94492-0.52187 0-0.94492 0.42306-0.94492 0.94492v5.7249c0 0.41192-0.30641 0.88956-0.94492 0.88956-0.63851 0-0.94492-0.30881-0.94492-0.86372v-3.0064c0-0.48602-0.46628-0.85449-0.9523-0.85449-0.48589 0-0.93754 0.36847-0.93754 0.85449v3.1098c0 1.4579 1.3768 2.6502 2.8348 2.6502 1.4579 0 2.8348-1.0981 2.8348-2.6502v-3.9642h1.8898v3.9642c0 1.4579 1.3768 2.6502 2.8348 2.6502s2.8714-1.1927 2.8348-2.6502v-3.1098c0-0.48602-0.4589-0.85449-0.94492-0.85449-0.48589 0-0.94492 0.36847-0.94492 0.85449v3.0064c0 0.55491-0.471 0.86372-0.94492 0.86372-0.47392 0-0.97116-0.38435-0.94492-0.79543v-4.0251c2.1181-0.48537 3.7797-2.3838 3.7797-4.6471v-1.0593c0-2.6295-2.027-4.5917-4.6563-4.5917zm-6.5443 6.6145c-0.51974 0-0.94492 0.43156-0.94492 0.95046v3.3183c0 1.2261 0.79173 2.2761 1.8898 2.6668v-5.9851c0-0.5189-0.42532-0.95046-0.94492-0.95046zm17.009 0c-0.51974 0-0.94492 0.43156-0.94492 0.95046v5.9851c1.0981-0.39071 1.8898-1.4408 1.8898-2.6668v-3.3183c0-0.5189-0.42532-0.95046-0.94492-0.95046z" fill="url(#linearGradient1249)" stroke-width=".47246"/>
</svg>
