<svg width="128" height="128" version="1.1" viewBox="0 0 128 128" xmlns="http://www.w3.org/2000/svg" xmlns:xlink="http://www.w3.org/1999/xlink">
<defs>
<linearGradient id="linearGradient823" x1="36.23" x2="96.929" y1="25.149" y2="110.56" gradientTransform="matrix(.94602 0 0 .94602 -.89771 -.44925)" gradientUnits="userSpaceOnUse">
<stop stop-color="#d8d97f" offset="0"/>
<stop stop-color="#fda286" offset="1"/>
</linearGradient>
<linearGradient id="linearGradient1080" x1="701.81" x2="699.28" y1="398.37" y2="220.53" gradientTransform="matrix(.66355 0 0 .66355 -399.67 -144.99)" gradientUnits="userSpaceOnUse">
<stop stop-color="#cccdd1" offset="0"/>
<stop stop-color="#f7f9f9" offset="1"/>
</linearGradient>
</defs>
<circle cx="64.333" cy="64.226" r="60.566" fill="url(#linearGradient823)" stroke="#cccdd1" stroke-width="4.6449"/>
<path d="m64.334 1.3385c-34.705 0-62.888 28.182-62.888 62.887 0 34.705 28.184 62.888 62.888 62.888 34.705 0 62.887-28.184 62.887-62.888 0-34.705-28.182-62.887-62.887-62.887zm0 4.6449c32.194 0 58.242 26.048 58.242 58.242 0 32.194-26.048 58.243-58.242 58.243-32.194 0-58.243-26.049-58.243-58.243 0-32.194 26.049-58.242 58.243-58.242z" color="#000000" color-rendering="auto" dominant-baseline="auto" fill="url(#linearGradient1080)" image-rendering="auto" shape-rendering="auto" solid-color="#000000" style="font-feature-settings:normal;font-variant-alternates:normal;font-variant-caps:normal;font-variant-ligatures:normal;font-variant-numeric:normal;font-variant-position:normal;isolation:auto;mix-blend-mode:normal;shape-padding:0;text-decoration-color:#000000;text-decoration-line:none;text-decoration-style:solid;text-indent:0;text-orientation:mixed;text-transform:none;white-space:normal"/>
<g transform="translate(-.6091 -1.2213)">
<path d="m77.56 31.403c-3.3013 0.10728-5.2602 4.3331-3.2561 6.8247l17.604 17.604c2.8241 2.5662 7.1006 0.3664 7.0943-3.4124l-0.07664-17.409c0.01566-1.5072-1.8521-3.5619-3.6069-3.6069zm-42.546 0.11027c-2.2894-0.02666-4.1322 1.8427-4.1322 4.1322v13.345c0.01403 1.7768 0.64391 2.3788 2.1748 3.9637 13.15 13.142 29.627 29.155 44.169 43.84 1.585 1.5309 2.1869 2.1608 3.9637 2.1748h13.345c2.2895 0 4.1589-1.8428 4.1322-4.1322l-0.16388-14.107c-0.12681-2.0305-1.109-2.495-2.5746-4.0664-12.729-12.738-28.671-28.232-42.74-42.411-1.5713-1.4656-2.0359-2.4478-4.0663-2.5746zm0.12559 42.445c-2.181 0.06955-4.2008 1.9203-4.1965 4.5182l0.07658 17.409c-0.01566 1.5072 1.8521 3.5619 3.6069 3.6069h17.759c3.3013-0.10728 5.2602-4.3331 3.2561-6.8247l-17.602-17.602c-0.88252-0.80195-1.9079-1.139-2.8993-1.1073z" fill="none" stroke="#000" stroke-opacity=".04943" stroke-width="1.3"/>
<path d="m77.56 31.403c-3.3013 0.10728-5.2602 4.3331-3.2561 6.8247l17.604 17.604c2.8241 2.5662 7.1006 0.3664 7.0943-3.4124l-0.07664-17.409c0.01566-1.5072-1.8521-3.5619-3.6069-3.6069zm-42.546 0.11027c-2.2894-0.02666-4.1322 1.8427-4.1322 4.1322v13.345c0.01403 1.7768 0.64391 2.3788 2.1748 3.9637 13.15 13.142 29.627 29.155 44.169 43.84 1.585 1.5309 2.1869 2.1608 3.9637 2.1748h13.345c2.2895 0 4.1589-1.8428 4.1322-4.1322l-0.16388-14.107c-0.12681-2.0305-1.109-2.495-2.5746-4.0664-12.729-12.738-28.671-28.232-42.74-42.411-1.5713-1.4656-2.0359-2.4478-4.0663-2.5746zm0.12559 42.445c-2.181 0.06955-4.2008 1.9203-4.1965 4.5182l0.07658 17.409c-0.01566 1.5072 1.8521 3.5619 3.6069 3.6069h17.759c3.3013-0.10728 5.2602-4.3331 3.2561-6.8247l-17.602-17.602c-0.88252-0.80195-1.9079-1.139-2.8993-1.1073z" fill="#f2f2f2"/>
<path d="m77.561 31.402c-3.3013 0.10728-5.2599 4.3326-3.2559 6.8242l17.604 17.605c2.8241 2.5662 7.1 0.36665 7.0938-3.4121l-0.07617-17.41c0.01566-1.5072-1.8526-3.5625-3.6074-3.6074zm-42.547 0.11133c-2.2894-0.02666-4.1309 1.8414-4.1309 4.1309v13.346c0.01403 1.7768 0.6429 2.3779 2.1738 3.9629 13.15 13.142 29.627 29.155 44.17 43.84 1.585 1.5309 2.1861 2.1618 3.9629 2.1758h13.346c2.2895 0 4.1575-1.8435 4.1309-4.1328l-0.16211-14.107c-0.12681-2.0305-1.1106-2.4951-2.5762-4.0664-12.729-12.738-28.671-28.231-42.74-42.41-1.5713-1.4656-2.0359-2.4474-4.0664-2.5742zm42.559 0.28125h17.736c0.72807 0.01864 1.5638 0.48168 2.1953 1.1348 0.63151 0.65308 1.0354 1.4864 1.0293 2.0762v2e-3l0.07617 17.412c0.0029 1.7413-0.97261 3.0942-2.2656 3.7324s-2.874 0.56805-4.1719-0.61133l-17.566-17.568c-1.7785-2.227-0.0016-6.0813 2.9668-6.1777zm-42.562 0.10938 14.088 0.16406c0.95424 0.0596 1.4696 0.29402 1.9883 0.70117 0.51865 0.40715 1.0305 1.0201 1.834 1.7695l-0.0098-0.01172c14.073 14.183 30.015 29.678 42.74 42.412 0.74442 0.79679 1.3546 1.3101 1.7598 1.8262 0.40715 0.51865 0.64158 1.034 0.70117 1.9883l0.16406 14.086c0.02415 2.0735-1.6611 3.7363-3.7402 3.7363h-13.346c-0.83937-0.0072-1.3359-0.14654-1.8477-0.46094-0.51077-0.31377-1.0472-0.83575-1.8359-1.5977l-0.0078-0.0059c-14.545-14.687-31.019-30.699-44.164-43.836-0.76266-0.78955-1.2856-1.3268-1.5996-1.8379-0.3144-0.5118-0.45377-1.0083-0.46094-1.8477v-13.346c0-2.0791 1.6628-3.7644 3.7363-3.7402zm0.13086 42.053c-2.181 0.06955-4.2016 1.9216-4.1973 4.5195l0.07617 17.408c-0.01566 1.5072 1.8526 3.5625 3.6074 3.6074h17.758c3.3013-0.10728 5.2618-4.3326 3.2578-6.8242l-17.604-17.604c-0.88252-0.80195-1.9071-1.139-2.8984-1.1074zm0.01172 0.39258c0.89403-0.02852 1.8119 0.2688 2.623 1.0059l17.562 17.562c1.7853 2.2262 0.0059 6.0851-2.9648 6.1816h-17.736c-0.72807-0.018641-1.5638-0.48168-2.1953-1.1348s-1.0354-1.4864-1.0293-2.0762v-2e-3l-0.07617-17.412c-4e-3 -2.3944 1.8492-4.0623 3.8164-4.125z" color="#000000" color-rendering="auto" dominant-baseline="auto" fill="#fff" image-rendering="auto" shape-rendering="auto" solid-color="#000000" style="font-feature-settings:normal;font-variant-alternates:normal;font-variant-caps:normal;font-variant-ligatures:normal;font-variant-numeric:normal;font-variant-position:normal;isolation:auto;mix-blend-mode:normal;shape-padding:0;text-decoration-color:#000000;text-decoration-line:none;text-decoration-style:solid;text-indent:0;text-orientation:mixed;text-transform:none;white-space:normal"/>
</g>
</svg>
