<svg width="128" height="128" version="1.1" viewBox="0 0 33.867 33.867" xmlns="http://www.w3.org/2000/svg" xmlns:xlink="http://www.w3.org/1999/xlink">
<defs>
<linearGradient id="linearGradient936" x1="-27.206" x2="-27.206" y1="-1.3796" y2="25.268" gradientTransform="translate(43.842 5.6325)" gradientUnits="userSpaceOnUse">
<stop stop-color="#f5f9fb" offset="0"/>
<stop stop-color="#f5eeec" offset="1"/>
</linearGradient>
<filter id="b-36" x="-.15488" y="-.16337" width="1.3098" height="1.3267" color-interpolation-filters="sRGB">
<feGaussianBlur stdDeviation="3.077"/>
</filter>
</defs>
<g stroke-linejoin="round">
<g transform="matrix(.97573 0 0 .97573 -65.777 -37.256)" fill="none" opacity=".29676" stroke="#000" stroke-linecap="round" stroke-opacity=".02">
<rect x="69.84" y="40.71" width="29.811" height="29.811" rx="6.6099" ry="6.6099" stroke-width=".1"/>
<rect x="69.84" y="40.71" width="29.811" height="29.811" rx="6.6099" ry="6.6099" stroke-width=".2"/>
<rect x="69.84" y="40.71" width="29.811" height="29.811" rx="6.6099" ry="6.6099" stroke-width=".3"/>
<rect x="69.84" y="40.71" width="29.811" height="29.811" rx="6.6099" ry="6.6099" stroke-width=".4"/>
<rect x="69.84" y="40.71" width="29.811" height="29.811" rx="6.6099" ry="6.6099" stroke-width=".5"/>
<rect x="69.84" y="40.71" width="29.811" height="29.811" rx="6.6099" ry="6.6099" stroke-width=".6"/>
<rect x="69.84" y="40.71" width="29.811" height="29.811" rx="6.6099" ry="6.6099" stroke-width=".7"/>
<rect x="69.84" y="40.71" width="29.811" height="29.811" rx="6.6099" ry="6.6099" stroke-width=".8"/>
<rect x="69.84" y="40.71" width="29.811" height="29.811" rx="6.6099" ry="6.6099"/>
<rect x="69.84" y="40.71" width="29.811" height="29.811" rx="6.6099" ry="6.6099" stroke-width="1.2"/>
<rect x="69.84" y="40.71" width="29.811" height="29.811" rx="6.6099" ry="6.6099" stroke-width="1.4"/>
<rect x="69.84" y="40.71" width="29.811" height="29.811" rx="6.6099" ry="6.6099" stroke-width="1.6"/>
<rect x="69.84" y="40.71" width="29.811" height="29.811" rx="6.6099" ry="6.6099" stroke-width="1.8"/>
<rect x="69.84" y="40.71" width="29.811" height="29.811" rx="6.6099" ry="6.6099" stroke-width="2"/>
<rect x="69.84" y="40.71" width="29.811" height="29.811" rx="6.6099" ry="6.6099" stroke-width="2.2"/>
<rect x="69.84" y="40.71" width="29.811" height="29.811" rx="6.6099" ry="6.6099" stroke-width="2.6"/>
<rect x="69.84" y="40.71" width="29.811" height="29.811" rx="6.6099" ry="6.6099" stroke-width="3"/>
<rect x="69.84" y="40.71" width="29.811" height="29.811" rx="6.6099" ry="6.6099" stroke-width="3.4"/>
<rect x="69.84" y="40.71" width="29.811" height="29.811" rx="6.6099" ry="6.6099" stroke-width="3.8"/>
<rect x="69.84" y="40.71" width="29.811" height="29.811" rx="6.6099" ry="6.6099" stroke-width="4.2"/>
<rect x="69.84" y="40.71" width="29.811" height="29.811" rx="6.6099" ry="6.6099" stroke-width="4.6"/>
<rect x="69.84" y="40.71" width="29.811" height="29.811" rx="6.6099" ry="6.6099" stroke-width="5"/>
</g>
<rect x="2.3673" y="2.4659" width="29.087" height="29.087" rx="6.4495" ry="6.4495" fill="url(#linearGradient936)" stroke-linecap="round" stroke-width="2.6877"/>
<g transform="matrix(.42194 0 0 .42194 6.7854 9.7487)" clip-rule="evenodd" fill-opacity=".443" filter="url(#b-36)" opacity=".133" stroke-miterlimit="1.414" stroke-width=".683">
<path d="m45.727 21.836a14.504 14.504 0 0 0-6.223-5.809 15.87 15.87 0 0 1-1.857 5.022l-1.46 2.532a6.313 6.313 0 0 1 2.415 2.368 6.35 6.35 0 0 1-10.997 6.349l-2.944-5.092h-4.751l-2.376 4.115 2.947 5.09c4.025 6.972 12.94 9.36 19.911 5.335 6.971-4.024 9.36-12.938 5.335-19.91"/>
<path d="m31.128 0.455c-6.972-4.025-15.886-1.637-19.91 5.335a14.502 14.502 0 0 0-1.92 8.293 15.868 15.868 0 0 1 5.278-0.902l2.922-3e-3a6.314 6.314 0 0 1 0.843-3.274 6.349 6.349 0 0 1 10.997 6.348l-2.938 5.096 2.375 4.115h4.751l2.936-5.098c4.026-6.97 1.638-15.885-5.334-19.91"/>
<path d="m19.298 37.096-1.464-2.53a6.308 6.308 0 0 1-3.258 0.907 6.349 6.349 0 1 1 0-12.698l5.881-4e-3 2.377-4.114-2.377-4.114-5.881 5e-3c-8.05 0-14.576 6.526-14.576 14.576s6.525 14.576 14.576 14.576a14.51 14.51 0 0 0 8.139-2.483 15.88 15.88 0 0 1-3.417-4.122"/>
</g>
<g transform="matrix(.49919 0 0 .49919 1.2694 1.0723)" clip-rule="evenodd" stroke-miterlimit="1.414" stroke-width=".683">
<path d="m49.201 33.165a11.666 11.666 0 0 0-5.005-4.672 12.764 12.764 0 0 1-1.494 4.039l-1.174 2.036a5.078 5.078 0 0 1 1.943 1.905 5.107 5.107 0 0 1-8.845 5.106l-2.368-4.095h-3.821l-1.911 3.31 2.37 4.093c3.237 5.608 10.408 7.529 16.014 4.291 5.607-3.236 7.529-10.406 4.291-16.013" fill="#70caf2"/>
<path d="m37.46 15.968c-5.608-3.237-12.778-1.317-16.014 4.29a11.664 11.664 0 0 0-1.546 6.672 12.763 12.763 0 0 1 4.245-0.726l2.35-2e-3a5.078 5.078 0 0 1 0.679-2.633 5.107 5.107 0 0 1 8.845 5.105l-2.363 4.1 1.91 3.309h3.821l2.361-4.1c3.238-5.606 1.318-12.777-4.29-16.014" fill="#b4e3f9"/>
<path d="m27.944 45.438-1.177-2.035a5.074 5.074 0 0 1-2.62 0.73 5.107 5.107 0 1 1 0-10.213l4.73-3e-3 1.911-3.31-1.911-3.308-4.73 4e-3c-6.475 0-11.724 5.249-11.724 11.723s5.248 11.724 11.723 11.724a11.67 11.67 0 0 0 6.547-1.997 12.772 12.772 0 0 1-2.749-3.315" fill="#3f79ad"/>
</g>
</g>
</svg>
