<svg width="128" height="128" version="1.1" viewBox="0 0 128 128" xmlns="http://www.w3.org/2000/svg" xmlns:xlink="http://www.w3.org/1999/xlink">
<defs>
<linearGradient id="linearGradient825" x1="-741.83" x2="-741.83" y1="959.05" y2="93.836" gradientTransform="matrix(.13668 0 0 .13668 162.31 -5.9893)" gradientUnits="userSpaceOnUse">
<stop stop-color="#ccd4da" offset="0"/>
<stop stop-color="#fff" offset="1"/>
</linearGradient>
<linearGradient id="linearGradient835" x1="-738.76" x2="-738.76" y1="931.43" y2="152.13" gradientTransform="matrix(.13668 0 0 .13668 162.31 -5.9893)" gradientUnits="userSpaceOnUse">
<stop stop-color="#dfe3e8" offset="0"/>
<stop stop-color="#fefeff" offset="1"/>
</linearGradient>
<linearGradient id="linearGradient901" x1="338.66" x2="361.42" y1="39.82" y2="35.21" gradientUnits="userSpaceOnUse">
<stop stop-color="#f05c7c" offset="0"/>
<stop stop-color="#e4618a" offset="1"/>
</linearGradient>
<linearGradient id="linearGradient909" x1="318.56" x2="338.95" y1="43.832" y2="38.408" gradientUnits="userSpaceOnUse">
<stop stop-color="#f4587a" offset="0"/>
<stop stop-color="#f15c7c" offset="1"/>
</linearGradient>
<linearGradient id="linearGradient921" x1="353.24" x2="349.17" y1="92.659" y2="47.788" gradientUnits="userSpaceOnUse">
<stop stop-color="#49abf5" offset="0"/>
<stop stop-color="#4daaf6" offset=".30243"/>
<stop stop-color="#7f85e1" offset=".56559"/>
<stop stop-color="#ba6ab8" offset=".797"/>
<stop stop-color="#d4629f" stop-opacity="0" offset="1"/>
</linearGradient>
<linearGradient id="linearGradient937" x1="337.89" x2="346.87" y1="97.453" y2="90.166" gradientUnits="userSpaceOnUse">
<stop stop-color="#5793fa" offset="0"/>
<stop stop-color="#5793fa" stop-opacity="0" offset="1"/>
</linearGradient>
<linearGradient id="linearGradient949" x1="311.51" x2="324.03" y1="107.02" y2="54.408" gradientUnits="userSpaceOnUse">
<stop stop-color="#8763fe" offset="0"/>
<stop stop-color="#7e68fe" offset=".18737"/>
<stop stop-color="#7d69fd" offset=".3063"/>
<stop stop-color="#8b61f4" offset=".55285"/>
<stop stop-color="#a359df" offset=".7102"/>
<stop stop-color="#c754c0" offset=".87118"/>
<stop stop-color="#de549e" stop-opacity="0" offset="1"/>
</linearGradient>
</defs>
<circle cx="63.592" cy="64.286" r="61.38" fill="url(#linearGradient825)"/>
<circle cx="63.592" cy="64.286" r="55.09" fill="url(#linearGradient835)"/>
<g transform="translate(-287.46 103.05)" fill="none" opacity=".538" stroke="#111214" stroke-linecap="round" stroke-linejoin="round" stroke-opacity=".011765">
<path d="m377.51-79.329c-0.7-0.01403-1.5775 0.10917-2.6758 0.35742l-18.199 3.6934-17.342 3.4258c-3.0722 0.65674-3.6682 2.3716-3.5957 5.082l0.0469 42.307c-0.13962 2.9735-0.46207 4.6051-3.8828 5.1523-12.106 1.8019-14.454 5.5523-14.381 10.883 0.0733 5.3088 4.3757 9.5625 10.307 8.9648 5.2013-0.57853 9.0759-2.0936 11.457-6.9043 0.92183-1.8119 1.2358-5.5812 1.0078-9.3965l-0.0488-33.652c0.01-2.3558-0.38947-3.667 2.7324-4.3145l16.35-3.2949 2.4434-0.49219v-0.0039l11.158-2.25c1.8145-0.36598 2.6677 0.2539 2.6953 2.3008l0.0488 25.145c-0.13962 2.9735-0.42887 4.3355-3.8496 4.8828-12.106 1.8019-14.49 5.8218-14.416 11.152 0.0733 5.3088 4.4441 9.293 10.375 8.6953 5.2013-0.57853 8.9412-1.9237 11.322-6.7344 0.92183-1.8119 0.9971-5.4118 1.0742-9.2949l-0.0312-51.482c-2e-3 -2.8955-0.4957-4.1786-2.5957-4.2207z" stroke-width=".1"/>
<path d="m377.51-79.329c-0.7-0.01403-1.5775 0.10917-2.6758 0.35742l-18.199 3.6934-17.342 3.4258c-3.0722 0.65674-3.6682 2.3716-3.5957 5.082l0.0469 42.307c-0.13962 2.9735-0.46207 4.6051-3.8828 5.1523-12.106 1.8019-14.454 5.5523-14.381 10.883 0.0733 5.3088 4.3757 9.5625 10.307 8.9648 5.2013-0.57853 9.0759-2.0936 11.457-6.9043 0.92183-1.8119 1.2358-5.5812 1.0078-9.3965l-0.0488-33.652c0.01-2.3558-0.38947-3.667 2.7324-4.3145l16.35-3.2949 2.4434-0.49219v-0.0039l11.158-2.25c1.8145-0.36598 2.6677 0.2539 2.6953 2.3008l0.0488 25.145c-0.13962 2.9735-0.42887 4.3355-3.8496 4.8828-12.106 1.8019-14.49 5.8218-14.416 11.152 0.0733 5.3088 4.4441 9.293 10.375 8.6953 5.2013-0.57853 8.9412-1.9237 11.322-6.7344 0.92183-1.8119 0.9971-5.4118 1.0742-9.2949l-0.0312-51.482c-2e-3 -2.8955-0.4957-4.1786-2.5957-4.2207z" stroke-width=".2"/>
<path d="m377.51-79.329c-0.7-0.01403-1.5775 0.10917-2.6758 0.35742l-18.199 3.6934-17.342 3.4258c-3.0722 0.65674-3.6682 2.3716-3.5957 5.082l0.0469 42.307c-0.13962 2.9735-0.46207 4.6051-3.8828 5.1523-12.106 1.8019-14.454 5.5523-14.381 10.883 0.0733 5.3088 4.3757 9.5625 10.307 8.9648 5.2013-0.57853 9.0759-2.0936 11.457-6.9043 0.92183-1.8119 1.2358-5.5812 1.0078-9.3965l-0.0488-33.652c0.01-2.3558-0.38947-3.667 2.7324-4.3145l16.35-3.2949 2.4434-0.49219v-0.0039l11.158-2.25c1.8145-0.36598 2.6677 0.2539 2.6953 2.3008l0.0488 25.145c-0.13962 2.9735-0.42887 4.3355-3.8496 4.8828-12.106 1.8019-14.49 5.8218-14.416 11.152 0.0733 5.3088 4.4441 9.293 10.375 8.6953 5.2013-0.57853 8.9412-1.9237 11.322-6.7344 0.92183-1.8119 0.9971-5.4118 1.0742-9.2949l-0.0312-51.482c-2e-3 -2.8955-0.4957-4.1786-2.5957-4.2207z" stroke-width=".3"/>
<path d="m377.51-79.329c-0.7-0.01403-1.5775 0.10917-2.6758 0.35742l-18.199 3.6934-17.342 3.4258c-3.0722 0.65674-3.6682 2.3716-3.5957 5.082l0.0469 42.307c-0.13962 2.9735-0.46207 4.6051-3.8828 5.1523-12.106 1.8019-14.454 5.5523-14.381 10.883 0.0733 5.3088 4.3757 9.5625 10.307 8.9648 5.2013-0.57853 9.0759-2.0936 11.457-6.9043 0.92183-1.8119 1.2358-5.5812 1.0078-9.3965l-0.0488-33.652c0.01-2.3558-0.38947-3.667 2.7324-4.3145l16.35-3.2949 2.4434-0.49219v-0.0039l11.158-2.25c1.8145-0.36598 2.6677 0.2539 2.6953 2.3008l0.0488 25.145c-0.13962 2.9735-0.42887 4.3355-3.8496 4.8828-12.106 1.8019-14.49 5.8218-14.416 11.152 0.0733 5.3088 4.4441 9.293 10.375 8.6953 5.2013-0.57853 8.9412-1.9237 11.322-6.7344 0.92183-1.8119 0.9971-5.4118 1.0742-9.2949l-0.0312-51.482c-2e-3 -2.8955-0.4957-4.1786-2.5957-4.2207z" stroke-width=".5"/>
<path d="m377.51-79.329c-0.7-0.01403-1.5775 0.10917-2.6758 0.35742l-18.199 3.6934-17.342 3.4258c-3.0722 0.65674-3.6682 2.3716-3.5957 5.082l0.0469 42.307c-0.13962 2.9735-0.46207 4.6051-3.8828 5.1523-12.106 1.8019-14.454 5.5523-14.381 10.883 0.0733 5.3088 4.3757 9.5625 10.307 8.9648 5.2013-0.57853 9.0759-2.0936 11.457-6.9043 0.92183-1.8119 1.2358-5.5812 1.0078-9.3965l-0.0488-33.652c0.01-2.3558-0.38947-3.667 2.7324-4.3145l16.35-3.2949 2.4434-0.49219v-0.0039l11.158-2.25c1.8145-0.36598 2.6677 0.2539 2.6953 2.3008l0.0488 25.145c-0.13962 2.9735-0.42887 4.3355-3.8496 4.8828-12.106 1.8019-14.49 5.8218-14.416 11.152 0.0733 5.3088 4.4441 9.293 10.375 8.6953 5.2013-0.57853 8.9412-1.9237 11.322-6.7344 0.92183-1.8119 0.9971-5.4118 1.0742-9.2949l-0.0312-51.482c-2e-3 -2.8955-0.4957-4.1786-2.5957-4.2207z" stroke-width=".7"/>
<path d="m377.51-79.329c-0.7-0.01403-1.5775 0.10917-2.6758 0.35742l-18.199 3.6934-17.342 3.4258c-3.0722 0.65674-3.6682 2.3716-3.5957 5.082l0.0469 42.307c-0.13962 2.9735-0.46207 4.6051-3.8828 5.1523-12.106 1.8019-14.454 5.5523-14.381 10.883 0.0733 5.3088 4.3757 9.5625 10.307 8.9648 5.2013-0.57853 9.0759-2.0936 11.457-6.9043 0.92183-1.8119 1.2358-5.5812 1.0078-9.3965l-0.0488-33.652c0.01-2.3558-0.38947-3.667 2.7324-4.3145l16.35-3.2949 2.4434-0.49219v-0.0039l11.158-2.25c1.8145-0.36598 2.6677 0.2539 2.6953 2.3008l0.0488 25.145c-0.13962 2.9735-0.42887 4.3355-3.8496 4.8828-12.106 1.8019-14.49 5.8218-14.416 11.152 0.0733 5.3088 4.4441 9.293 10.375 8.6953 5.2013-0.57853 8.9412-1.9237 11.322-6.7344 0.92183-1.8119 0.9971-5.4118 1.0742-9.2949l-0.0312-51.482c-2e-3 -2.8955-0.4957-4.1786-2.5957-4.2207z" stroke-width=".9"/>
<path d="m377.51-79.329c-0.7-0.01403-1.5775 0.10917-2.6758 0.35742l-18.199 3.6934-17.342 3.4258c-3.0722 0.65674-3.6682 2.3716-3.5957 5.082l0.0469 42.307c-0.13962 2.9735-0.46207 4.6051-3.8828 5.1523-12.106 1.8019-14.454 5.5523-14.381 10.883 0.0733 5.3088 4.3757 9.5625 10.307 8.9648 5.2013-0.57853 9.0759-2.0936 11.457-6.9043 0.92183-1.8119 1.2358-5.5812 1.0078-9.3965l-0.0488-33.652c0.01-2.3558-0.38947-3.667 2.7324-4.3145l16.35-3.2949 2.4434-0.49219v-0.0039l11.158-2.25c1.8145-0.36598 2.6677 0.2539 2.6953 2.3008l0.0488 25.145c-0.13962 2.9735-0.42887 4.3355-3.8496 4.8828-12.106 1.8019-14.49 5.8218-14.416 11.152 0.0733 5.3088 4.4441 9.293 10.375 8.6953 5.2013-0.57853 8.9412-1.9237 11.322-6.7344 0.92183-1.8119 0.9971-5.4118 1.0742-9.2949l-0.0312-51.482c-2e-3 -2.8955-0.4957-4.1786-2.5957-4.2207z" stroke-width="1.1"/>
<path d="m377.51-79.329c-0.7-0.01403-1.5775 0.10917-2.6758 0.35742l-18.199 3.6934-17.342 3.4258c-3.0722 0.65674-3.6682 2.3716-3.5957 5.082l0.0469 42.307c-0.13962 2.9735-0.46207 4.6051-3.8828 5.1523-12.106 1.8019-14.454 5.5523-14.381 10.883 0.0733 5.3088 4.3757 9.5625 10.307 8.9648 5.2013-0.57853 9.0759-2.0936 11.457-6.9043 0.92183-1.8119 1.2358-5.5812 1.0078-9.3965l-0.0488-33.652c0.01-2.3558-0.38947-3.667 2.7324-4.3145l16.35-3.2949 2.4434-0.49219v-0.0039l11.158-2.25c1.8145-0.36598 2.6677 0.2539 2.6953 2.3008l0.0488 25.145c-0.13962 2.9735-0.42887 4.3355-3.8496 4.8828-12.106 1.8019-14.49 5.8218-14.416 11.152 0.0733 5.3088 4.4441 9.293 10.375 8.6953 5.2013-0.57853 8.9412-1.9237 11.322-6.7344 0.92183-1.8119 0.9971-5.4118 1.0742-9.2949l-0.0312-51.482c-2e-3 -2.8955-0.4957-4.1786-2.5957-4.2207z" stroke-width="1.6"/>
<path d="m377.51-79.329c-0.7-0.01403-1.5775 0.10917-2.6758 0.35742l-18.199 3.6934-17.342 3.4258c-3.0722 0.65674-3.6682 2.3716-3.5957 5.082l0.0469 42.307c-0.13962 2.9735-0.46207 4.6051-3.8828 5.1523-12.106 1.8019-14.454 5.5523-14.381 10.883 0.0733 5.3088 4.3757 9.5625 10.307 8.9648 5.2013-0.57853 9.0759-2.0936 11.457-6.9043 0.92183-1.8119 1.2358-5.5812 1.0078-9.3965l-0.0488-33.652c0.01-2.3558-0.38947-3.667 2.7324-4.3145l16.35-3.2949 2.4434-0.49219v-0.0039l11.158-2.25c1.8145-0.36598 2.6677 0.2539 2.6953 2.3008l0.0488 25.145c-0.13962 2.9735-0.42887 4.3355-3.8496 4.8828-12.106 1.8019-14.49 5.8218-14.416 11.152 0.0733 5.3088 4.4441 9.293 10.375 8.6953 5.2013-0.57853 8.9412-1.9237 11.322-6.7344 0.92183-1.8119 0.9971-5.4118 1.0742-9.2949l-0.0312-51.482c-2e-3 -2.8955-0.4957-4.1786-2.5957-4.2207z" stroke-width="2.1"/>
<path d="m377.51-79.329c-0.7-0.01403-1.5775 0.10917-2.6758 0.35742l-18.199 3.6934-17.342 3.4258c-3.0722 0.65674-3.6682 2.3716-3.5957 5.082l0.0469 42.307c-0.13962 2.9735-0.46207 4.6051-3.8828 5.1523-12.106 1.8019-14.454 5.5523-14.381 10.883 0.0733 5.3088 4.3757 9.5625 10.307 8.9648 5.2013-0.57853 9.0759-2.0936 11.457-6.9043 0.92183-1.8119 1.2358-5.5812 1.0078-9.3965l-0.0488-33.652c0.01-2.3558-0.38947-3.667 2.7324-4.3145l16.35-3.2949 2.4434-0.49219v-0.0039l11.158-2.25c1.8145-0.36598 2.6677 0.2539 2.6953 2.3008l0.0488 25.145c-0.13962 2.9735-0.42887 4.3355-3.8496 4.8828-12.106 1.8019-14.49 5.8218-14.416 11.152 0.0733 5.3088 4.4441 9.293 10.375 8.6953 5.2013-0.57853 8.9412-1.9237 11.322-6.7344 0.92183-1.8119 0.9971-5.4118 1.0742-9.2949l-0.0312-51.482c-2e-3 -2.8955-0.4957-4.1786-2.5957-4.2207z" stroke-width="2.6"/>
<path d="m377.51-79.329c-0.7-0.01403-1.5775 0.10917-2.6758 0.35742l-18.199 3.6934-17.342 3.4258c-3.0722 0.65674-3.6682 2.3716-3.5957 5.082l0.0469 42.307c-0.13962 2.9735-0.46207 4.6051-3.8828 5.1523-12.106 1.8019-14.454 5.5523-14.381 10.883 0.0733 5.3088 4.3757 9.5625 10.307 8.9648 5.2013-0.57853 9.0759-2.0936 11.457-6.9043 0.92183-1.8119 1.2358-5.5812 1.0078-9.3965l-0.0488-33.652c0.01-2.3558-0.38947-3.667 2.7324-4.3145l16.35-3.2949 2.4434-0.49219v-0.0039l11.158-2.25c1.8145-0.36598 2.6677 0.2539 2.6953 2.3008l0.0488 25.145c-0.13962 2.9735-0.42887 4.3355-3.8496 4.8828-12.106 1.8019-14.49 5.8218-14.416 11.152 0.0733 5.3088 4.4441 9.293 10.375 8.6953 5.2013-0.57853 8.9412-1.9237 11.322-6.7344 0.92183-1.8119 0.9971-5.4118 1.0742-9.2949l-0.0312-51.482c-2e-3 -2.8955-0.4957-4.1786-2.5957-4.2207z" stroke-width="3.1"/>
<path d="m377.51-79.329c-0.7-0.01403-1.5775 0.10917-2.6758 0.35742l-18.199 3.6934-17.342 3.4258c-3.0722 0.65674-3.6682 2.3716-3.5957 5.082l0.0469 42.307c-0.13962 2.9735-0.46207 4.6051-3.8828 5.1523-12.106 1.8019-14.454 5.5523-14.381 10.883 0.0733 5.3088 4.3757 9.5625 10.307 8.9648 5.2013-0.57853 9.0759-2.0936 11.457-6.9043 0.92183-1.8119 1.2358-5.5812 1.0078-9.3965l-0.0488-33.652c0.01-2.3558-0.38947-3.667 2.7324-4.3145l16.35-3.2949 2.4434-0.49219v-0.0039l11.158-2.25c1.8145-0.36598 2.6677 0.2539 2.6953 2.3008l0.0488 25.145c-0.13962 2.9735-0.42887 4.3355-3.8496 4.8828-12.106 1.8019-14.49 5.8218-14.416 11.152 0.0733 5.3088 4.4441 9.293 10.375 8.6953 5.2013-0.57853 8.9412-1.9237 11.322-6.7344 0.92183-1.8119 0.9971-5.4118 1.0742-9.2949l-0.0312-51.482c-2e-3 -2.8955-0.4957-4.1786-2.5957-4.2207z" stroke-width="3.9"/>
<path d="m377.51-79.329c-0.7-0.01403-1.5775 0.10917-2.6758 0.35742l-18.199 3.6934-17.342 3.4258c-3.0722 0.65674-3.6682 2.3716-3.5957 5.082l0.0469 42.307c-0.13962 2.9735-0.46207 4.6051-3.8828 5.1523-12.106 1.8019-14.454 5.5523-14.381 10.883 0.0733 5.3088 4.3757 9.5625 10.307 8.9648 5.2013-0.57853 9.0759-2.0936 11.457-6.9043 0.92183-1.8119 1.2358-5.5812 1.0078-9.3965l-0.0488-33.652c0.01-2.3558-0.38947-3.667 2.7324-4.3145l16.35-3.2949 2.4434-0.49219v-0.0039l11.158-2.25c1.8145-0.36598 2.6677 0.2539 2.6953 2.3008l0.0488 25.145c-0.13962 2.9735-0.42887 4.3355-3.8496 4.8828-12.106 1.8019-14.49 5.8218-14.416 11.152 0.0733 5.3088 4.4441 9.293 10.375 8.6953 5.2013-0.57853 8.9412-1.9237 11.322-6.7344 0.92183-1.8119 0.9971-5.4118 1.0742-9.2949l-0.0312-51.482c-2e-3 -2.8955-0.4957-4.1786-2.5957-4.2207z" stroke-width="4.7"/>
<path d="m377.51-79.329c-0.7-0.01403-1.5775 0.10917-2.6758 0.35742l-18.199 3.6934-17.342 3.4258c-3.0722 0.65674-3.6682 2.3716-3.5957 5.082l0.0469 42.307c-0.13962 2.9735-0.46207 4.6051-3.8828 5.1523-12.106 1.8019-14.454 5.5523-14.381 10.883 0.0733 5.3088 4.3757 9.5625 10.307 8.9648 5.2013-0.57853 9.0759-2.0936 11.457-6.9043 0.92183-1.8119 1.2358-5.5812 1.0078-9.3965l-0.0488-33.652c0.01-2.3558-0.38947-3.667 2.7324-4.3145l16.35-3.2949 2.4434-0.49219v-0.0039l11.158-2.25c1.8145-0.36598 2.6677 0.2539 2.6953 2.3008l0.0488 25.145c-0.13962 2.9735-0.42887 4.3355-3.8496 4.8828-12.106 1.8019-14.49 5.8218-14.416 11.152 0.0733 5.3088 4.4441 9.293 10.375 8.6953 5.2013-0.57853 8.9412-1.9237 11.322-6.7344 0.92183-1.8119 0.9971-5.4118 1.0742-9.2949l-0.0312-51.482c-2e-3 -2.8955-0.4957-4.1786-2.5957-4.2207z" stroke-width="5.5"/>
<path d="m377.51-79.329c-0.7-0.01403-1.5775 0.10917-2.6758 0.35742l-18.199 3.6934-17.342 3.4258c-3.0722 0.65674-3.6682 2.3716-3.5957 5.082l0.0469 42.307c-0.13962 2.9735-0.46207 4.6051-3.8828 5.1523-12.106 1.8019-14.454 5.5523-14.381 10.883 0.0733 5.3088 4.3757 9.5625 10.307 8.9648 5.2013-0.57853 9.0759-2.0936 11.457-6.9043 0.92183-1.8119 1.2358-5.5812 1.0078-9.3965l-0.0488-33.652c0.01-2.3558-0.38947-3.667 2.7324-4.3145l16.35-3.2949 2.4434-0.49219v-0.0039l11.158-2.25c1.8145-0.36598 2.6677 0.2539 2.6953 2.3008l0.0488 25.145c-0.13962 2.9735-0.42887 4.3355-3.8496 4.8828-12.106 1.8019-14.49 5.8218-14.416 11.152 0.0733 5.3088 4.4441 9.293 10.375 8.6953 5.2013-0.57853 8.9412-1.9237 11.322-6.7344 0.92183-1.8119 0.9971-5.4118 1.0742-9.2949l-0.0312-51.482c-2e-3 -2.8955-0.4957-4.1786-2.5957-4.2207z" stroke-width="6.5"/>
<path d="m377.51-79.329c-0.7-0.01403-1.5775 0.10917-2.6758 0.35742l-18.199 3.6934-17.342 3.4258c-3.0722 0.65674-3.6682 2.3716-3.5957 5.082l0.0469 42.307c-0.13962 2.9735-0.46207 4.6051-3.8828 5.1523-12.106 1.8019-14.454 5.5523-14.381 10.883 0.0733 5.3088 4.3757 9.5625 10.307 8.9648 5.2013-0.57853 9.0759-2.0936 11.457-6.9043 0.92183-1.8119 1.2358-5.5812 1.0078-9.3965l-0.0488-33.652c0.01-2.3558-0.38947-3.667 2.7324-4.3145l16.35-3.2949 2.4434-0.49219v-0.0039l11.158-2.25c1.8145-0.36598 2.6677 0.2539 2.6953 2.3008l0.0488 25.145c-0.13962 2.9735-0.42887 4.3355-3.8496 4.8828-12.106 1.8019-14.49 5.8218-14.416 11.152 0.0733 5.3088 4.4441 9.293 10.375 8.6953 5.2013-0.57853 8.9412-1.9237 11.322-6.7344 0.92183-1.8119 0.9971-5.4118 1.0742-9.2949l-0.0312-51.482c-2e-3 -2.8955-0.4957-4.1786-2.5957-4.2207z" stroke-width="7.5"/>
<path d="m377.51-79.329c-0.7-0.01403-1.5775 0.10917-2.6758 0.35742l-18.199 3.6934-17.342 3.4258c-3.0722 0.65674-3.6682 2.3716-3.5957 5.082l0.0469 42.307c-0.13962 2.9735-0.46207 4.6051-3.8828 5.1523-12.106 1.8019-14.454 5.5523-14.381 10.883 0.0733 5.3088 4.3757 9.5625 10.307 8.9648 5.2013-0.57853 9.0759-2.0936 11.457-6.9043 0.92183-1.8119 1.2358-5.5812 1.0078-9.3965l-0.0488-33.652c0.01-2.3558-0.38947-3.667 2.7324-4.3145l16.35-3.2949 2.4434-0.49219v-0.0039l11.158-2.25c1.8145-0.36598 2.6677 0.2539 2.6953 2.3008l0.0488 25.145c-0.13962 2.9735-0.42887 4.3355-3.8496 4.8828-12.106 1.8019-14.49 5.8218-14.416 11.152 0.0733 5.3088 4.4441 9.293 10.375 8.6953 5.2013-0.57853 8.9412-1.9237 11.322-6.7344 0.92183-1.8119 0.9971-5.4118 1.0742-9.2949l-0.0312-51.482c-2e-3 -2.8955-0.4957-4.1786-2.5957-4.2207z" stroke-width="9"/>
<path d="m377.51-79.329c-0.7-0.01403-1.5775 0.10917-2.6758 0.35742l-18.199 3.6934-17.342 3.4258c-3.0722 0.65674-3.6682 2.3716-3.5957 5.082l0.0469 42.307c-0.13962 2.9735-0.46207 4.6051-3.8828 5.1523-12.106 1.8019-14.454 5.5523-14.381 10.883 0.0733 5.3088 4.3757 9.5625 10.307 8.9648 5.2013-0.57853 9.0759-2.0936 11.457-6.9043 0.92183-1.8119 1.2358-5.5812 1.0078-9.3965l-0.0488-33.652c0.01-2.3558-0.38947-3.667 2.7324-4.3145l16.35-3.2949 2.4434-0.49219v-0.0039l11.158-2.25c1.8145-0.36598 2.6677 0.2539 2.6953 2.3008l0.0488 25.145c-0.13962 2.9735-0.42887 4.3355-3.8496 4.8828-12.106 1.8019-14.49 5.8218-14.416 11.152 0.0733 5.3088 4.4441 9.293 10.375 8.6953 5.2013-0.57853 8.9412-1.9237 11.322-6.7344 0.92183-1.8119 0.9971-5.4118 1.0742-9.2949l-0.0312-51.482c-2e-3 -2.8955-0.4957-4.1786-2.5957-4.2207z" stroke-width="10.5"/>
</g>
<g transform="translate(-266.85 -2.1695)">
<path d="m337.86 29.58-19.176 3.7872c-3.0722 0.65674-3.668 2.3712-3.5955 5.0816l0.048 42.307c-0.13962 2.9735-0.46236 4.6062-3.8831 5.1535-12.106 1.8019-14.456 5.5517-14.382 10.882 0.0733 5.3088 4.3762 9.5624 10.307 8.9647 5.2013-0.57853 9.0764-2.0926 11.458-6.9033 0.92183-1.8119 1.2347-5.5808 1.0067-9.3961l-0.0479-33.653c0.01-2.3558-0.38934-3.6671 2.7326-4.3146l18.792-3.7872z" fill="url(#linearGradient909)"/>
<path d="m354.97 47.749 0.048 25.144c-0.13962 2.9735-0.42846 4.335-3.8492 4.8823-12.106 1.8019-14.49 5.8229-14.416 11.153 0.0733 5.3088 4.444 9.2912 10.375 8.6935 5.2013-0.57853 8.9408-1.9231 11.322-6.7338 0.92183-1.8119 0.99741-5.4113 1.0745-9.2944l-0.032-51.483c-2e-3 -3.8606-0.87855-4.8563-5.2718-3.8633l-18.82 3.8194 3.3549 18.106 13.518-2.7265c1.8145-0.36598 2.6689 0.25488 2.6965 2.3018z" fill="url(#linearGradient901)"/>
<path d="m354.97 47.749 0.048 25.144c-0.13962 2.9735-0.42846 4.335-3.8492 4.8823-12.106 1.8019-14.49 5.8229-14.416 11.153 0.0733 5.3088 4.444 9.2912 10.375 8.6935 5.2013-0.57853 8.9408-1.9231 11.322-6.7338 0.92183-1.8119 0.99741-5.4113 1.0745-9.2944l-0.032-51.483c-2e-3 -3.8606-0.87855-4.8563-5.2718-3.8633l-18.82 3.8194 3.3549 18.106 13.518-2.7265c1.8145-0.36598 2.6689 0.25488 2.6965 2.3018z" fill="url(#linearGradient921)"/>
<path d="m354.97 47.749 0.048 25.144c-0.13962 2.9735-0.42846 4.335-3.8492 4.8823-12.106 1.8019-14.49 5.8229-14.416 11.153 0.0733 5.3088 4.444 9.2912 10.375 8.6935 5.2013-0.57853 8.9408-1.9231 11.322-6.7338 0.92183-1.8119 0.99741-5.4113 1.0745-9.2944l-0.032-51.483c-2e-3 -3.8606-0.87855-4.8563-5.2718-3.8633l-18.82 3.8194 3.3549 18.106 13.518-2.7265c1.8145-0.36598 2.6689 0.25488 2.6965 2.3018z" fill="url(#linearGradient937)"/>
<path d="m337.86 29.58-19.176 3.7872c-3.0722 0.65674-3.668 2.3712-3.5955 5.0816l0.048 42.307c-0.13962 2.9735-0.46236 4.6062-3.8831 5.1535-12.106 1.8019-14.456 5.5517-14.382 10.882 0.0733 5.3088 4.3762 9.5624 10.307 8.9647 5.2013-0.57853 9.0764-2.0926 11.458-6.9033 0.92183-1.8119 1.2347-5.5808 1.0067-9.3961l-0.0479-33.653c0.01-2.3558-0.38934-3.6671 2.7326-4.3146l18.792-3.7872z" fill="url(#linearGradient949)"/>
</g>
</svg>
