<svg width="136.53" height="136.53" version="1.1" viewBox="0 0 136.53 136.53" xmlns="http://www.w3.org/2000/svg" xmlns:xlink="http://www.w3.org/1999/xlink">
<defs>
<linearGradient id="linearGradient4319" x1="79.708" x2="28.813" y1="126.9" y2="27.769" gradientTransform="matrix(.96111 0 0 .96111 2.2111 2.033)" gradientUnits="userSpaceOnUse">
<stop stop-color="#5018b9" offset="0"/>
<stop stop-color="#09a0ee" offset="1"/>
</linearGradient>
<clipPath>
<rect width="384" height="384"/>
</clipPath>
<clipPath>
<rect width="384" height="384"/>
</clipPath>
<clipPath>
<rect width="384" height="384"/>
</clipPath>
<clipPath>
<rect width="384" height="384"/>
</clipPath>
<clipPath>
<rect width="384" height="384"/>
</clipPath>
<radialGradient id="radialGradient935-3" cx="190.85" cy="148.93" r="53.835" gradientTransform="matrix(1.3408 0 0 1.3408 -187.38 -130.79)" gradientUnits="userSpaceOnUse" xlink:href="#linearGradient929"/>
<linearGradient id="linearGradient929">
<stop offset="0"/>
<stop stop-opacity=".74118" offset=".27788"/>
<stop stop-opacity=".26275" offset=".5838"/>
<stop stop-opacity=".21569" offset=".62282"/>
<stop stop-opacity=".17255" offset=".66894"/>
<stop stop-opacity=".13333" offset=".70968"/>
<stop stop-opacity=".090196" offset=".76299"/>
<stop stop-opacity=".066667" offset=".79677"/>
<stop stop-opacity=".031373" offset=".86607"/>
<stop stop-opacity=".027451" offset=".88823"/>
<stop stop-opacity=".023529" offset=".90482"/>
<stop stop-opacity=".019608" offset=".91823"/>
<stop stop-opacity=".011765" offset=".9452"/>
<stop stop-opacity="0" offset="1"/>
</linearGradient>
<radialGradient id="radialGradient1005" cx="190.85" cy="148.93" r="53.835" gradientTransform="matrix(1.4638 0 0 1.4638 -209.34 -147.66)" gradientUnits="userSpaceOnUse" xlink:href="#linearGradient929"/>
<linearGradient id="linearGradient881" x1="12.828" x2="31.639" y1="13.257" y2="42.965" gradientTransform="matrix(3.7795 0 0 3.7795 11.135 10.336)" gradientUnits="userSpaceOnUse">
<stop stop-color="#f2faff" offset="0"/>
<stop stop-color="#5631bb" offset=".56796"/>
<stop stop-color="#d7b7fc" stop-opacity="0" offset="1"/>
</linearGradient>
<linearGradient id="linearGradient912" x1="24.345" x2="29.94" y1="21.704" y2="30.039" gradientTransform="matrix(3.7795 0 0 3.7795 10.309 6.3484)" gradientUnits="userSpaceOnUse">
<stop stop-color="#e7654b" offset="0"/>
<stop stop-color="#e9791e" offset="1"/>
</linearGradient>
<linearGradient id="linearGradient944" x1="78.983" x2="78.983" y1="5.885" y2="131.1" gradientUnits="userSpaceOnUse">
<stop stop-color="#3caeec" offset="0"/>
<stop stop-color="#380e9e" offset="1"/>
</linearGradient>
<linearGradient id="linearGradient954" x1="4.6755" x2="48.264" y1="89.408" y2="77.728" gradientUnits="userSpaceOnUse">
<stop stop-color="#0a8bf1" stop-opacity=".64819" offset="0"/>
<stop stop-color="#3caeec" stop-opacity="0" offset="1"/>
</linearGradient>
</defs>
<circle cx="70.016" cy="70.334" r="78.802" fill="url(#radialGradient1005)" opacity=".42924"/>
<circle cx="68.52" cy="68.896" r="72.184" fill="url(#radialGradient935-3)" opacity=".42924"/>
<circle cx="68.52" cy="68.896" r="72.184" fill="url(#radialGradient935-3)" opacity=".42924"/>
<circle cx="68.483" cy="67.74" r="61.532" fill="url(#linearGradient4319)" stroke="url(#linearGradient944)" stroke-width="5.7667"/>
<path d="m72.698 53.902s-1.0243-1.9845-1.0926-2.2582c-0.06788-0.27383-0.61463-3.0793-0.61463-3.0793l0.68291-1.2317 1.5024-2.2582 2.1853-1.7107 0.54634-0.20542 5.2584-1.9845 0.47806-0.47904-0.54634-0.82114-0.75119-0.41057-1.3785-0.35392-3.4535-0.35392-2.6799 0.02268-1.8438 0.41057-1.639-0.61581-2.0487-0.27383-3.0048-0.06886-1.5024-0.06886-2.5267 0.958-3.8242 4.448-0.47806 1.7107-0.27311 1.5055-1.2975 2.8056-0.81946 2.6688-0.40978 2.8741v0.6159l-1.9804 3.0109-1.0926 2.2582v3.2162l0.3414 6.6377 0.61462 2.3951 1.2292 2.1897 1.5707 1.4371 0.6829 2.8055 2.595 5.7478 3.0731 3.6951 0.20474 0.20542 1.0926 5.5428-3.7559 6.8431-1.1791 0.91392-0.88391 0.71557-1.5158-0.0423-0.84554 0.43645-1.0257 0.0433-0.61974 0.61797-1.3269-0.19994-1.3121-0.0639-1.0122 0.79832-0.1457 1.1861 0.67277-0.76151 1.1319-0.32962 0.11856 1.0886 1.7886-0.60754 1.0257-0.0433 1.8095 0.21645s1.5688-0.1025 1.8403-0.13202c0.27156-0.0295 1.9379 0.13331 1.9379 0.13331l1.222-0.133 0.64798 0.27382 0.86777-0.23229 0.94176 0.44835 1.3578-0.14759 0.17522-0.91391-0.05216-0.4762 0.927 0.31208 0.75286 0.60646 0.48879 0.70405-0.02835-0.89198-0.59357-1.0365s-0.40604-0.57547-0.67769-0.54585c-0.27156 0.0295-1.3269-0.19994-1.3269-0.19994l-0.72462 0.2855-0.79123-0.32723-0.77765 0.42917-0.71596-0.26672-0.34552-0.65054-0.49745-0.1528 0.53454-1.3939 1.2292-1.715 1.639-2.7372 1.4341-1.7108 0.54635-0.68418s0.6829-1.0263 0.6829-1.3001c0-0.27383 0.13667-3.1477 0.13667-3.1477l-0.88775-1.8477-0.40978-1.5055 7.9217 1.9162h0.47806l6.7607 4.8585 0.95603 1.2316 0.3414 4.858-0.13667 1.0949-0.47806 0.88961-0.34178 0.54752-0.29526 0.76811-0.20168 0.51358-1.2547 0.38893-1.2754-0.23002-0.77283-0.0954-1.4192 0.20541-0.59741 0.63962-0.22983 0.79408 0.18535 0.80284 0.29764-0.80363 0.40437-0.5426 0.39581-0.12593 0.03061 0.68694 0.53198 0.33766 1.0999-0.50493 0.54074-0.0787 0.17552 0.73515 1.6515-0.0325 1.1195-0.36964 0.91786 0.14374 1.3332 0.1525 0.4634-0.13527 0.3662-0.3295 0.5919 1.2278 0.0079-1.3839-0.5734-1.5762-0.83176-0.50167 0.1403-0.41244-0.61462-1.1631 0.06788-4.4476 3.4145 4.0375 4.5071 3.5584s3.073 1.095 3.3462 1.095c0.27311 0 2.3902-0.27383 2.3902-0.27383l1.3658-2.2582-1.0243-3.0793 0.40968-1.0266-2.1853-2.8738-4.6293-4.7136-1.1071-3.7033 0.06788-2.5319-1.0243-2.6689-1.1609-2.1211 0.68291-2.1212-0.54635-3.0792-2.3289-5.2421 0.8603-0.14532-1.4438-2.4994 0.93803-0.29783-1.6489-2.688 0.69353-0.37387-1.236-2.0292 0.40299-0.22579-1.4957-1.2114 0.54635-0.28396-3.8925-2.7271z" fill="url(#linearGradient881)"/>
<g transform="matrix(3.7795 0 0 3.7795 10.309 6.3484)" fill="#081633" fill-opacity=".13749" opacity=".12684" shape-rendering="auto">
<path d="m25.684 17.729c-0.22438 0-0.45108 0.07084-0.64062 0.20898v-2e-3c-0.68326 0.4974-2.8405 1.8934-5.3789 2.1309-0.65428 0.06098-1.1663 0.61593-1.1777 1.2715a0.65154 0.65154 0 0 0 0 2e-3c-0.01724 1.1246 0.05555 3.5574 0.94141 5.9844 0.88585 2.427 2.6545 4.8863 5.9219 5.7637a0.65154 0.65154 0 0 0 2e-3 0c0.21811 0.05814 0.44595 0.05814 0.66406 0a0.65154 0.65154 0 0 0 2e-3 0c3.2675-0.87665 5.0359-3.3346 5.9219-5.7617 0.88595-2.4271 0.95984-4.8622 0.94336-5.9863-0.0084-0.65936-0.52365-1.2125-1.1777-1.2734h-2e-3c-2.5361-0.23785-4.6902-1.6301-5.377-2.1289-0.19089-0.13918-0.41825-0.20898-0.64258-0.20898zm0 1.3359c0.84628 0.60549 3.0509 2.0293 5.8965 2.2969 0.01505 1.0335-0.06935 3.3372-0.86523 5.5176-0.79544 2.1792-2.2316 4.1959-5.0273 4.9492v2e-3c-0.0015-4.07e-4 -0.0024-0.0015-0.0039-2e-3 -6.35e-4 7.5e-5 -0.0011-2.28e-4 -2e-3 0-2.7971-0.7536-4.2338-2.7698-5.0293-4.9492-0.79577-2.1802-0.87902-4.4846-0.86328-5.5176 2.8457-0.26755 5.0486-1.6907 5.8945-2.2969z" color="#000000" color-rendering="auto" dominant-baseline="auto" image-rendering="auto" solid-color="#000000" stop-color="#000000" style="font-feature-settings:normal;font-variant-alternates:normal;font-variant-caps:normal;font-variant-east-asian:normal;font-variant-ligatures:normal;font-variant-numeric:normal;font-variant-position:normal;font-variation-settings:normal;inline-size:0;isolation:auto;mix-blend-mode:normal;shape-margin:0;shape-padding:0;text-decoration-color:#000000;text-decoration-line:none;text-decoration-style:solid;text-indent:0;text-orientation:mixed;text-transform:none;white-space:normal"/>
<path d="m25.511 18.004c-0.22438 0-0.45108 0.07084-0.64062 0.20898v-2e-3c-0.68326 0.4974-2.8405 1.8934-5.3789 2.1309-0.65428 0.06098-1.1663 0.61593-1.1777 1.2715a0.65154 0.65154 0 0 0 0 2e-3c-0.01724 1.1246 0.05555 3.5574 0.94141 5.9844 0.88585 2.427 2.6545 4.8863 5.9219 5.7637a0.65154 0.65154 0 0 0 2e-3 0c0.21811 0.05814 0.44595 0.05814 0.66406 0a0.65154 0.65154 0 0 0 2e-3 0c3.2675-0.87665 5.0359-3.3346 5.9219-5.7617 0.88595-2.4271 0.95984-4.8622 0.94336-5.9863-0.0084-0.65936-0.52365-1.2125-1.1777-1.2734h-2e-3c-2.5361-0.23785-4.6902-1.6301-5.377-2.1289-0.19089-0.13918-0.41825-0.20898-0.64258-0.20898zm0 1.3359c0.84628 0.60549 3.0509 2.0293 5.8965 2.2969 0.01505 1.0335-0.06935 3.3372-0.86523 5.5176-0.79544 2.1792-2.2316 4.1959-5.0273 4.9492v2e-3c-0.0015-4.07e-4 -0.0024-0.0015-0.0039-2e-3 -6.35e-4 7.5e-5 -0.0011-2.28e-4 -2e-3 0-2.7971-0.7536-4.2338-2.7698-5.0293-4.9492-0.79577-2.1802-0.87902-4.4846-0.86328-5.5176 2.8457-0.26755 5.0486-1.6907 5.8945-2.2969z" color="#000000" color-rendering="auto" dominant-baseline="auto" image-rendering="auto" solid-color="#000000" stop-color="#000000" style="font-feature-settings:normal;font-variant-alternates:normal;font-variant-caps:normal;font-variant-east-asian:normal;font-variant-ligatures:normal;font-variant-numeric:normal;font-variant-position:normal;font-variation-settings:normal;inline-size:0;isolation:auto;mix-blend-mode:normal;shape-margin:0;shape-padding:0;text-decoration-color:#000000;text-decoration-line:none;text-decoration-style:solid;text-indent:0;text-orientation:mixed;text-transform:none;white-space:normal"/>
<path d="m25.355 18.451c-0.22438 0-0.45108 0.07084-0.64062 0.20898v-2e-3c-0.68326 0.4974-2.8405 1.8934-5.3789 2.1309-0.65428 0.06098-1.1663 0.61593-1.1777 1.2715a0.65154 0.65154 0 0 0 0 2e-3c-0.01724 1.1246 0.05555 3.5574 0.94141 5.9844 0.88585 2.427 2.6545 4.8863 5.9219 5.7637a0.65154 0.65154 0 0 0 2e-3 0c0.21811 0.05814 0.44595 0.05814 0.66406 0a0.65154 0.65154 0 0 0 2e-3 0c3.2675-0.87665 5.0359-3.3346 5.9219-5.7617 0.88595-2.4271 0.95984-4.8622 0.94336-5.9863-0.0084-0.65936-0.52365-1.2125-1.1777-1.2734h-2e-3c-2.5361-0.23785-4.6902-1.6301-5.377-2.1289-0.19089-0.13918-0.41825-0.20898-0.64258-0.20898zm0 1.3359c0.84628 0.60549 3.0509 2.0293 5.8965 2.2969 0.01505 1.0335-0.06935 3.3372-0.86523 5.5176-0.79544 2.1792-2.2316 4.1959-5.0273 4.9492v2e-3c-0.0015-4.07e-4 -0.0024-0.0015-0.0039-2e-3 -6.35e-4 7.5e-5 -0.0011-2.28e-4 -2e-3 0-2.7971-0.7536-4.2338-2.7698-5.0293-4.9492-0.79577-2.1802-0.87902-4.4846-0.86328-5.5176 2.8457-0.26755 5.0486-1.6907 5.8945-2.2969z" color="#000000" color-rendering="auto" dominant-baseline="auto" image-rendering="auto" solid-color="#000000" stop-color="#000000" style="font-feature-settings:normal;font-variant-alternates:normal;font-variant-caps:normal;font-variant-east-asian:normal;font-variant-ligatures:normal;font-variant-numeric:normal;font-variant-position:normal;font-variation-settings:normal;inline-size:0;isolation:auto;mix-blend-mode:normal;shape-margin:0;shape-padding:0;text-decoration-color:#000000;text-decoration-line:none;text-decoration-style:solid;text-indent:0;text-orientation:mixed;text-transform:none;white-space:normal"/>
<path d="m25.159 18.773c-0.22438 0-0.45108 0.07084-0.64062 0.20898v-2e-3c-0.68326 0.4974-2.8405 1.8934-5.3789 2.1309-0.65428 0.06098-1.1663 0.61593-1.1777 1.2715a0.65154 0.65154 0 0 0 0 2e-3c-0.01724 1.1246 0.05555 3.5574 0.94141 5.9844 0.88585 2.427 2.6545 4.8863 5.9219 5.7637a0.65154 0.65154 0 0 0 2e-3 0c0.21811 0.05814 0.44595 0.05814 0.66406 0a0.65154 0.65154 0 0 0 2e-3 0c3.2675-0.87665 5.0359-3.3346 5.9219-5.7617 0.88595-2.4271 0.95984-4.8622 0.94336-5.9863-0.0084-0.65936-0.52365-1.2125-1.1777-1.2734h-2e-3c-2.5361-0.23785-4.6902-1.6301-5.377-2.1289-0.19089-0.13918-0.41825-0.20898-0.64258-0.20898zm0 1.3359c0.84628 0.60549 3.0509 2.0293 5.8965 2.2969 0.01505 1.0335-0.06935 3.3372-0.86523 5.5176-0.79544 2.1792-2.2316 4.1959-5.0273 4.9492v2e-3c-0.0015-4.07e-4 -0.0024-0.0015-0.0039-2e-3 -6.35e-4 7.5e-5 -0.0011-2.28e-4 -2e-3 0-2.7971-0.7536-4.2338-2.7698-5.0293-4.9492-0.79577-2.1802-0.87902-4.4846-0.86328-5.5176 2.8457-0.26755 5.0486-1.6907 5.8945-2.2969z" color="#000000" color-rendering="auto" dominant-baseline="auto" image-rendering="auto" solid-color="#000000" stop-color="#000000" style="font-feature-settings:normal;font-variant-alternates:normal;font-variant-caps:normal;font-variant-east-asian:normal;font-variant-ligatures:normal;font-variant-numeric:normal;font-variant-position:normal;font-variation-settings:normal;inline-size:0;isolation:auto;mix-blend-mode:normal;shape-margin:0;shape-padding:0;text-decoration-color:#000000;text-decoration-line:none;text-decoration-style:solid;text-indent:0;text-orientation:mixed;text-transform:none;white-space:normal"/>
</g>
<path d="m108.38 75.606c-0.34216 0-0.68279 0.10545-0.9734 0.31725-2.7754 2.0205-11.211 7.544-21.547 8.5108-1.2438 0.1141-2.1988 1.1474-2.2206 2.3966-0.12499 8.1526 1.1831 35.83 24.12 41.989 0.40733 0.10858 0.83764 0.10858 1.245 0 22.937-6.1538 24.244-33.836 24.124-41.989-0.0159-1.2492-0.97684-2.2825-2.2206-2.3966-10.336-0.96679-18.771-6.4903-21.552-8.5108-0.29053-0.21184-0.63338-0.31725-0.97558-0.31725z" color="#000000" color-rendering="auto" dominant-baseline="auto" fill="url(#linearGradient912)" image-rendering="auto" shape-rendering="auto" solid-color="#000000" stop-color="#000000" style="font-feature-settings:normal;font-variant-alternates:normal;font-variant-caps:normal;font-variant-east-asian:normal;font-variant-ligatures:normal;font-variant-numeric:normal;font-variant-position:normal;font-variation-settings:normal;inline-size:0;isolation:auto;mix-blend-mode:normal;shape-margin:0;shape-padding:0;text-decoration-color:#000000;text-decoration-line:none;text-decoration-style:solid;text-indent:0;text-orientation:mixed;text-transform:none;white-space:normal"/>
<g transform="matrix(2.0887 0 0 2.9026 18.004 12.352)" fill="#fff" stroke-width=".19435" aria-label="VPN">
<path d="m34.286 28.306h1.469l1.5032 4.1832 1.4994-4.1832h1.469l-2.0992 5.6674h-1.7424z"/>
<path d="m40.978 28.306h2.4256q1.0819 0 1.6588 0.48209 0.58079 0.4783 0.58079 1.3666 0 0.89206-0.58079 1.3741-0.57699 0.47829-1.6588 0.47829h-0.96418v1.9663h-1.4615zm1.4615 1.0591v1.5829h0.80855q0.42515 0 0.65671-0.20498 0.23156-0.20878 0.23156-0.58838t-0.23156-0.58458q-0.23156-0.20498-0.65671-0.20498z"/>
<path d="m46.676 28.306h1.6323l2.0612 3.8871v-3.8871h1.3855v5.6674h-1.6323l-2.0612-3.8871v3.8871h-1.3855z"/>
</g>
<path d="m108.39 76.209c-0.75885 0-1.5256 0.23958-2.1666 0.70679v-0.0064c-2.3108 1.6822-9.6067 6.4036-18.192 7.2066-2.2128 0.20625-3.9446 2.0831-3.9831 4.3002a2.2035 2.2035 0 0 0 0 0.0064c-0.05832 3.8036 0.18788 12.031 3.1839 20.239 2.996 8.2081 8.9774 16.525 20.028 19.493a2.2035 2.2035 0 0 0 6e-3 0c0.73766 0.19665 1.5082 0.19665 2.2459 0a2.2035 2.2035 0 0 0 6e-3 0c11.051-2.9648 17.032-11.278 20.028-19.486s3.2462-16.444 3.1905-20.246c-0.0284-2.23-1.771-4.1006-3.9831-4.3068h-6e-3c-8.5772-0.8044-15.862-5.5129-18.185-7.2-0.64558-0.47073-1.4145-0.70679-2.1732-0.70679zm0 4.5182c2.8622 2.0478 10.318 6.8632 19.942 7.7681 0.0509 3.4954-0.23452 11.286-2.9262 18.661-2.6902 7.37-7.5472 14.191-17.003 16.738v6e-3c-5e-3 -1e-3 -8e-3 -5e-3 -0.0132-6e-3 -2e-3 2.5e-4 -4e-3 -7.7e-4 -6e-3 0-9.4598-2.5487-14.319-9.3674-17.009-16.738-2.6913-7.3735-2.9729-15.167-2.9196-18.661 9.624-0.90486 17.075-5.7179 19.935-7.7681z" color="#000000" color-rendering="auto" dominant-baseline="auto" fill="#111" fill-opacity=".038387" image-rendering="auto" shape-rendering="auto" solid-color="#000000" stop-color="#000000" style="font-feature-settings:normal;font-variant-alternates:normal;font-variant-caps:normal;font-variant-east-asian:normal;font-variant-ligatures:normal;font-variant-numeric:normal;font-variant-position:normal;font-variation-settings:normal;inline-size:0;isolation:auto;mix-blend-mode:normal;shape-margin:0;shape-padding:0;text-decoration-color:#000000;text-decoration-line:none;text-decoration-style:solid;text-indent:0;text-orientation:mixed;text-transform:none;white-space:normal"/>
<path d="m108.38 73.147c-0.84805 0-1.7049 0.26774-2.4213 0.78986v-0.0076c-2.5824 1.8799-10.736 7.1563-20.33 8.0536-2.4729 0.23048-4.4082 2.3279-4.4513 4.8056a2.4625 2.4625 0 0 0 0 0.0076c-0.06516 4.2506 0.20995 13.445 3.5581 22.618 3.3481 9.1729 10.033 18.468 22.382 21.784a2.4625 2.4625 0 0 0 8e-3 0c0.82436 0.21975 1.6855 0.21975 2.5098 0a2.4625 2.4625 0 0 0 8e-3 0c12.35-3.3133 19.033-12.603 22.382-21.777 3.3485-9.1735 3.6277-18.377 3.5654-22.625-0.0318-2.4921-1.9791-4.5826-4.4513-4.813h-8e-3c-9.5848-0.89895-17.726-6.1609-20.322-8.0463-0.72146-0.52605-1.5808-0.78986-2.4286-0.78986zm0 5.0492c3.1986 2.2885 11.531 7.6699 22.286 8.6811 0.0569 3.9063-0.26211 12.613-3.2702 20.854-3.0064 8.2362-8.4343 15.859-19.001 18.706v8e-3c-6e-3 -2e-3 -9e-3 -6e-3 -0.0147-8e-3 -2e-3 2.8e-4 -4e-3 -8.6e-4 -8e-3 0-10.571-2.8482-16.001-10.468-19.008-18.706-3.0076-8.2401-3.3223-16.95-3.2628-20.854 10.755-1.0112 19.081-6.3899 22.279-8.6811z" color="#000000" color-rendering="auto" dominant-baseline="auto" fill="#fff" image-rendering="auto" shape-rendering="auto" solid-color="#000000" stop-color="#000000" style="font-feature-settings:normal;font-variant-alternates:normal;font-variant-caps:normal;font-variant-east-asian:normal;font-variant-ligatures:normal;font-variant-numeric:normal;font-variant-position:normal;font-variation-settings:normal;inline-size:0;isolation:auto;mix-blend-mode:normal;shape-margin:0;shape-padding:0;text-decoration-color:#000000;text-decoration-line:none;text-decoration-style:solid;text-indent:0;text-orientation:mixed;text-transform:none;white-space:normal"/>
<circle cx="68.483" cy="67.74" r="61.532" fill="none" stroke="url(#linearGradient954)" stroke-width="5.7667"/>
</svg>
