<svg width="128" height="128" version="1.1" viewBox="0 0 33.867 33.867" xmlns="http://www.w3.org/2000/svg" xmlns:xlink="http://www.w3.org/1999/xlink">
<defs>
<linearGradient id="linearGradient1632" x1="132.21" x2="132.21" y1="42.152" y2="70.68" gradientTransform="matrix(.97573 0 0 .97573 -111.78 -37.203)" gradientUnits="userSpaceOnUse">
<stop stop-color="#292929" offset="0"/>
<stop stop-color="#080808" offset="1"/>
</linearGradient>
</defs>
<g transform="matrix(.97573 0 0 .97573 -65.748 -37.203)" fill="none" opacity=".29677" stroke="#000" stroke-linecap="round" stroke-linejoin="round" stroke-opacity=".02">
<rect x="69.84" y="40.71" width="29.811" height="29.811" rx="6.6099" ry="6.6099" stroke-width=".1"/>
<rect x="69.84" y="40.71" width="29.811" height="29.811" rx="6.6099" ry="6.6099" stroke-width=".2"/>
<rect x="69.84" y="40.71" width="29.811" height="29.811" rx="6.6099" ry="6.6099" stroke-width=".3"/>
<rect x="69.84" y="40.71" width="29.811" height="29.811" rx="6.6099" ry="6.6099" stroke-width=".4"/>
<rect x="69.84" y="40.71" width="29.811" height="29.811" rx="6.6099" ry="6.6099" stroke-width=".5"/>
<rect x="69.84" y="40.71" width="29.811" height="29.811" rx="6.6099" ry="6.6099" stroke-width=".6"/>
<rect x="69.84" y="40.71" width="29.811" height="29.811" rx="6.6099" ry="6.6099" stroke-width=".7"/>
<rect x="69.84" y="40.71" width="29.811" height="29.811" rx="6.6099" ry="6.6099" stroke-width=".8"/>
<rect x="69.84" y="40.71" width="29.811" height="29.811" rx="6.6099" ry="6.6099"/>
<rect x="69.84" y="40.71" width="29.811" height="29.811" rx="6.6099" ry="6.6099" stroke-width="1.2"/>
<rect x="69.84" y="40.71" width="29.811" height="29.811" rx="6.6099" ry="6.6099" stroke-width="1.4"/>
<rect x="69.84" y="40.71" width="29.811" height="29.811" rx="6.6099" ry="6.6099" stroke-width="1.6"/>
<rect x="69.84" y="40.71" width="29.811" height="29.811" rx="6.6099" ry="6.6099" stroke-width="1.8"/>
<rect x="69.84" y="40.71" width="29.811" height="29.811" rx="6.6099" ry="6.6099" stroke-width="2"/>
<rect x="69.84" y="40.71" width="29.811" height="29.811" rx="6.6099" ry="6.6099" stroke-width="2.2"/>
<rect x="69.84" y="40.71" width="29.811" height="29.811" rx="6.6099" ry="6.6099" stroke-width="2.6"/>
<rect x="69.84" y="40.71" width="29.811" height="29.811" rx="6.6099" ry="6.6099" stroke-width="3"/>
<rect x="69.84" y="40.71" width="29.811" height="29.811" rx="6.6099" ry="6.6099" stroke-width="3.4"/>
<rect x="69.84" y="40.71" width="29.811" height="29.811" rx="6.6099" ry="6.6099" stroke-width="3.8"/>
<rect x="69.84" y="40.71" width="29.811" height="29.811" rx="6.6099" ry="6.6099" stroke-width="4.2"/>
<rect x="69.84" y="40.71" width="29.811" height="29.811" rx="6.6099" ry="6.6099" stroke-width="4.6"/>
<rect x="69.84" y="40.71" width="29.811" height="29.811" rx="6.6099" ry="6.6099" stroke-width="5"/>
</g>
<rect x="2.3963" y="2.5186" width="29.087" height="29.087" rx="6.4495" ry="6.4495" fill="url(#linearGradient1632)" stroke-linecap="round" stroke-linejoin="round" stroke-width="2.6877"/>
<path d="m19.879 7.2961s-2.79 1.3754-3.86 3.5154c-1.07 2.14 0.80288 3.7453 0.80288 3.7453s1.605-0.99356 2.675-4.2035c0 2.675-1.5286 4.5857-1.5286 4.5857s2.1778 0.15315 3.2478-1.9868c0.535-1.07-0.19069-5.656-0.19069-5.656s-0.61142 1.1464-1.1464 1.1464zm-10.318 1.5286s0.5968 0.69735 0.30601 1.1464l-1.0554-0.76428s-0.13991 3.5962 1.0748 5.6575c1.2147 2.0613 3.7251 0.95317 3.7251 0.95317s0.15301-1.6428-2.522-4.3178c2.2453 1.4539 3.5923 3.4393 3.5923 3.4393s1.1766-1.1809-0.03806-3.2422c-0.60735-1.0306-5.0827-2.872-5.0827-2.872zm12.611 5.3499c-2.14 0-3.0571 2.522-3.0571 2.522s1.3757 0.91728 4.5857 0.91728c-2.14 1.07-4.5857 0.153-4.5857 0.153s0.38199 2.1398 2.522 2.1398c2.0873 0 5.8851-2.2928 5.8851-2.2928l-0.38214-0.38214 0.38214-0.38214s-3.3561-2.675-5.3499-2.675zm-5.9232 1.5286c-0.94972 0-1.7196 0.59881-1.7196 1.3375s0.7699 1.3375 1.7196 1.3375c0.94972 0 1.7196-0.59881 1.7196-1.3375s-0.7699-1.3375-1.7196-1.3375zm-4.57 1.536c-0.36999-8.03e-4 -0.75161 0.05418-1.1285 0.19182-1.9607 0.71604-4.4282 4.0804-4.4282 4.0804s0.9338-0.32951 1.0703 0c0.09651 0.233-0.53514 0.53514-0.53514 0.53514s4.2854 1.4132 6.1583 0.72927c2.0101-0.7341 1.7137-3.2512 1.7137-3.2512s-1.5705-0.71901-4.5857 0.38214c1.6431-1.7392 4.5857-1.5286 4.5857-1.5286s-1.2471-1.1355-2.8504-1.139zm6.1127 2.2987c-0.2675-0.0084-0.51096 0.02463-0.51096 0.02463s-0.535 1.3378 1.07 4.5478c-2.14-2.14-1.9107-4.2035-1.9107-4.2035s-2.1404 1.0703-0.53538 3.7453c0.97532 1.6255 3.9746 3.5154 3.9746 3.5154s-0.38199-0.84041 0.15301-0.84041c0.28413 0 0.61127 0.45827 0.61127 0.45827s0.6621-2.8211 0.26712-4.2035c-0.56922-1.4659-1.4135-2.9043-3.119-3.0438z" opacity=".2" stroke-width=".38214"/>
<path d="m19.879 6.914s-2.79 1.3754-3.86 3.5154c-1.07 2.14 0.80288 3.7453 0.80288 3.7453s1.605-0.99356 2.675-4.2035c0 2.675-1.5286 4.5857-1.5286 4.5857s2.1778 0.15315 3.2478-1.9868c0.535-1.07-0.19069-5.656-0.19069-5.656s-0.61142 1.1464-1.1464 1.1464zm-10.318 1.5286s0.5968 0.69735 0.30601 1.1464l-1.0554-0.76428s-0.13991 3.5962 1.0748 5.6575c1.2147 2.0613 3.7251 0.95317 3.7251 0.95317s0.15301-1.6428-2.522-4.3178c2.2453 1.4539 3.5923 3.4393 3.5923 3.4393s1.1766-1.1809-0.03806-3.2422c-0.60734-1.0306-5.0827-2.872-5.0827-2.872zm12.611 5.3499c-2.14 0-3.0571 2.522-3.0571 2.522s1.3757 0.91728 4.5857 0.91728c-2.14 1.07-4.5857 0.153-4.5857 0.153s0.38199 2.1398 2.522 2.1398c2.0873 0 5.8851-2.2928 5.8851-2.2928l-0.38214-0.38214 0.38214-0.38214s-3.3561-2.675-5.3499-2.675zm-5.9232 1.5286c-0.94972 0-1.7196 0.59881-1.7196 1.3375 0 0.73867 0.7699 1.3375 1.7196 1.3375 0.94972 0 1.7196-0.59881 1.7196-1.3375 0-0.73867-0.7699-1.3375-1.7196-1.3375zm-4.57 1.536c-0.36999-8.03e-4 -0.75161 0.05418-1.1285 0.19182-1.9607 0.71604-4.4282 4.0804-4.4282 4.0804s0.9338-0.32951 1.0703 0c0.09651 0.233-0.53514 0.53514-0.53514 0.53514s4.2854 1.4132 6.1583 0.72927c2.0101-0.7341 1.7137-3.2512 1.7137-3.2512s-1.5705-0.71901-4.5857 0.38214c1.6431-1.7392 4.5857-1.5286 4.5857-1.5286s-1.2471-1.1355-2.8504-1.139zm6.1127 2.2987c-0.2675-0.0084-0.51096 0.02463-0.51096 0.02463s-0.535 1.3378 1.07 4.5478c-2.14-2.14-1.9107-4.2035-1.9107-4.2035s-2.1404 1.0703-0.53538 3.7453c0.97532 1.6255 3.9746 3.5154 3.9746 3.5154s-0.38199-0.84041 0.15301-0.84041c0.28413 0 0.61127 0.45827 0.61127 0.45827s0.6621-2.8211 0.26712-4.2035c-0.56922-1.4659-1.4135-2.9043-3.119-3.0438z" fill="#ee545f" stroke-width=".38214"/>
<path d="m19.879 6.914s-2.7902 1.3754-3.8602 3.5154c-0.27312 0.54623-0.3527 1.0571-0.32243 1.5159 0.02617-0.35473 0.12303-0.73494 0.32243-1.1337 1.07-2.14 3.8602-3.5154 3.8602-3.5154zm1.1464 0s-0.61142 1.1464-1.1464 1.1464v0.38214c0.535 0 1.1464-1.1464 1.1464-1.1464s0.36874 2.3567 0.38139 4.0864c0.04922-1.7386-0.38139-4.4685-0.38139-4.4685zm-11.464 1.5286s0.1943 0.23227 0.30676 0.5135c0.7763 0.32755 4.2343 1.8215 4.776 2.7407 0.36193 0.61419 0.50866 1.1481 0.54037 1.598 0.03982-0.51686-0.06972-1.1814-0.54037-1.9801-0.60735-1.0306-5.0827-2.872-5.0827-2.872zm-0.74935 0.38214s-0.0087 0.2485-0.0014 0.64262c0.0014-0.079654 0.0014-0.26048 0.0014-0.26048l1.0554 0.76428c0.09428-0.14559 0.09024-0.31659 0.04851-0.48215-0.01228 0.034375-0.02767 0.067839-0.04851 0.10002zm10.685 1.5286c-0.0048 0.0143-0.01011 0.02682-0.01493 0.04105-0.147 2.4505-1.5136 4.1625-1.5136 4.1625s0.10949 0.0026 0.2672-0.0059c0.4375-0.68466 1.2614-2.2306 1.2614-4.1976zm-8.4071 1.1464c1.9407 1.9407 2.3871 3.3273 2.4891 3.9483 0.0066-0.0029 0.03284-0.01271 0.03284-0.01271s0.10429-1.1929-1.5121-3.1967c-0.31485-0.2529-0.64585-0.50321-1.0098-0.7389zm11.082 2.2928c-2.14 0-3.0571 2.522-3.0571 2.522s0.09037 0.04756 0.13808 0.07464c0.2974-0.63752 1.1965-2.2145 2.919-2.2145 1.7981 0 4.5788 2.0837 5.132 2.5108l0.21794-0.21794s-3.3561-2.675-5.35-2.675zm-5.9232 1.5286c-0.94972 0-1.7196 0.59881-1.7196 1.3375 0 0.06547 0.013 0.12812 0.02463 0.19107 0.12015-0.64733 0.82945-1.1464 1.695-1.1464 0.86555 0 1.5748 0.49909 1.695 1.1464 0.0117-0.06296 0.02463-0.1256 0.02463-0.19107 0-0.73867-0.7699-1.3375-1.7196-1.3375zm-4.57 1.536c-0.36999-8.03e-4 -0.75161 0.05418-1.1285 0.19182-1.9607 0.71604-4.4282 4.0804-4.4282 4.0804s0.17343-0.05558 0.37318-0.09852c0.74194-0.93541 2.5334-3.044 4.055-3.5997 0.3769-0.13764 0.75852-0.19262 1.1285-0.19182 0.9769 0.0022 1.817 0.42336 2.3279 0.75308 0.32054-0.0092 0.52246 0.0038 0.52246 0.0038s-1.2471-1.1355-2.8504-1.139zm15.652 0.18361-0.19107 0.19107 0.13883 0.13883c0.06654-0.03901 0.24332-0.13883 0.24332-0.13883zm-8.216 0.34407s0.03761 0.17752 0.12912 0.4217c0.33511 0.11523 2.4828 0.79432 4.4565-0.19256-0.34448 0-0.66374-0.01242-0.96654-0.03134-1.847 0.462-3.6191-0.19779-3.6191-0.19779zm-6.3956 1.5353c-0.54327 0.02643-1.2105 0.12718-1.9913 0.35154-0.2796 0.17665-0.54646 0.38327-0.78443 0.63516 3.0152-1.1012 4.5857-0.38214 4.5857-0.38214s0.0026 0.11686 0.0059 0.1642c0.01401-0.32064-0.0059-0.54634-0.0059-0.54634s-0.6137-0.2806-1.8099-0.22242zm5.0723 0.23585c-0.2675-0.0084-0.51126 0.02463-0.51126 0.02463s-0.09694 0.28045-0.07464 0.85086c0.02062-0.30782 0.07464-0.46872 0.07464-0.46872s0.24376-0.03299 0.51126-0.02463c1.7054 0.13956 2.5498 1.5778 3.1191 3.0437 0.08176 0.28619 0.11001 0.64037 0.11644 1.0121 0.01652-0.51452-0.0068-1.0103-0.11644-1.3942-0.56922-1.4659-1.4136-2.9041-3.1191-3.0437zm-1.3517 0.3687s-1.2262 0.61686-1.1225 2.0794c0.10803-1.1895 1.1225-1.6972 1.1225-1.6972s-0.22928 2.0636 1.9107 4.2035c-0.13403-0.26807-0.24803-0.51828-0.35378-0.76054-1.7584-1.9984-1.5569-3.8251-1.5569-3.8251zm-9.3766 1.8779c-0.16152 0.1446-0.40602 0.26198-0.40602 0.26198s0.24528 0.07308 0.40453 0.12165c0.09878-0.08805 0.16724-0.18625 0.13061-0.27466-0.02246-0.0542-0.07122-0.08604-0.12912-0.10897zm12.717 5.0641c-0.03055 0.06606-0.03497 0.14923-0.02762 0.2351 0.02409 0.01545 0.12613 0.0836 0.12613 0.0836s-0.05969-0.15085-0.09852-0.3187z" fill="#fff" opacity=".2" stroke-width=".38214"/>
</svg>
