<svg width="128" height="128" version="1.1" viewBox="0 0 33.867 33.867" xmlns="http://www.w3.org/2000/svg" xmlns:xlink="http://www.w3.org/1999/xlink">
<defs>
<radialGradient id="radialGradient948" cx="16.951" cy="6.0443" r="14.544" gradientTransform="matrix(3.1335 0 0 1.9874 -36.165 -5.9684)" gradientUnits="userSpaceOnUse">
<stop stop-color="#ff53f9" offset="0"/>
<stop stop-color="#8400ea" offset="1"/>
</radialGradient>
<linearGradient id="linearGradient1017" x1="8.5446" x2="8.5446" y1="12.298" y2="64.361" gradientUnits="userSpaceOnUse">
<stop stop-color="#fff" offset="0"/>
<stop stop-color="#980eec" offset="1"/>
</linearGradient>
</defs>
<g transform="matrix(.97573 0 0 .96361 -65.737 -36.328)" fill="none" opacity=".18754" stroke="#000" stroke-linecap="round" stroke-linejoin="round" stroke-opacity=".02">
<rect x="69.84" y="40.71" width="29.811" height="29.811" rx="6.6099" ry="6.6099" stroke-width=".1"/>
<rect x="69.84" y="40.71" width="29.811" height="29.811" rx="6.6099" ry="6.6099" stroke-width=".2"/>
<rect x="69.84" y="40.71" width="29.811" height="29.811" rx="6.6099" ry="6.6099" stroke-width=".3"/>
<rect x="69.84" y="40.71" width="29.811" height="29.811" rx="6.6099" ry="6.6099" stroke-width=".4"/>
<rect x="69.84" y="40.71" width="29.811" height="29.811" rx="6.6099" ry="6.6099" stroke-width=".5"/>
<rect x="69.84" y="40.71" width="29.811" height="29.811" rx="6.6099" ry="6.6099" stroke-width=".6"/>
<rect x="69.84" y="40.71" width="29.811" height="29.811" rx="6.6099" ry="6.6099" stroke-width=".7"/>
<rect x="69.84" y="40.71" width="29.811" height="29.811" rx="6.6099" ry="6.6099" stroke-width=".8"/>
<rect x="69.84" y="40.71" width="29.811" height="29.811" rx="6.6099" ry="6.6099"/>
<rect x="69.84" y="40.71" width="29.811" height="29.811" rx="6.6099" ry="6.6099" stroke-width="1.2"/>
<rect x="69.84" y="40.71" width="29.811" height="29.811" rx="6.6099" ry="6.6099" stroke-width="1.4"/>
<rect x="69.84" y="40.71" width="29.811" height="29.811" rx="6.6099" ry="6.6099" stroke-width="1.6"/>
<rect x="69.84" y="40.71" width="29.811" height="29.811" rx="6.6099" ry="6.6099" stroke-width="1.8"/>
<rect x="69.84" y="40.71" width="29.811" height="29.811" rx="6.6099" ry="6.6099" stroke-width="2"/>
<rect x="69.84" y="40.71" width="29.811" height="29.811" rx="6.6099" ry="6.6099" stroke-width="2.2"/>
<rect x="69.84" y="40.71" width="29.811" height="29.811" rx="6.6099" ry="6.6099" stroke-width="2.6"/>
<rect x="69.84" y="40.71" width="29.811" height="29.811" rx="6.6099" ry="6.6099" stroke-width="3"/>
<rect x="69.84" y="40.71" width="29.811" height="29.811" rx="6.6099" ry="6.6099" stroke-width="3.4"/>
<rect x="69.84" y="40.71" width="29.811" height="29.811" rx="6.6099" ry="6.6099" stroke-width="3.8"/>
<rect x="69.84" y="40.71" width="29.811" height="29.811" rx="6.6099" ry="6.6099" stroke-width="4.2"/>
<rect x="69.84" y="40.71" width="29.811" height="29.811" rx="6.6099" ry="6.6099" stroke-width="4.6"/>
<rect x="69.84" y="40.71" width="29.811" height="29.811" rx="6.6099" ry="6.6099" stroke-width="5"/>
</g>
<rect x="2.4074" y="2.5392" width="29.087" height="29.087" rx="6.4495" ry="6.4495" fill="url(#radialGradient948)" stroke-linecap="round" stroke-linejoin="round" stroke-width="2.6877"/>
<path d="m8.545 26.957c-0.01277-0.02023 0.23853-0.3263 0.55789-0.68028 2.1772-2.4135 2.4922-2.8196 2.7397-3.5317 0.07814-0.22476 0.16201-0.41533 0.18641-0.42346 0.02421-0.0082 0.16124 0.14057 0.30412 0.33043 0.14296 0.18985 0.50965 0.64375 0.81505 1.0086 0.30845 0.36863 0.53782 0.67999 0.51621 0.70069-0.02168 0.02047-0.19062 0.08775-0.37594 0.14946-0.18525 0.06169-0.52214 0.21792-0.74845 0.34714-0.45472 0.25961-1.0702 0.79115-1.0166 0.8779 0.02548 0.04097 1.1079 0.05347 4.6374 0.05347 4.0951 0 4.6153-0.0077 4.7035-0.06944 0.0548-0.03818 0.09909-0.10389 0.09909-0.14599 0-0.04213-0.15722-0.29691-0.3495-0.56622-0.19221-0.26932-0.99884-1.403-1.7925-2.5193-1.548-2.1772-5.6283-7.8927-6.2475-8.7513-0.20674-0.28663-0.93792-1.308-1.6249-2.2698-1.0812-1.5137-1.2895-1.781-1.5501-1.99-0.16557-0.13272-0.30106-0.26055-0.30106-0.28404 0-0.02428 0.18884-0.042706 0.43827-0.042706 0.398 0 0.44662 0.00915 0.5287 0.10037 0.04972 0.055183 2.5056 3.5028 5.4576 7.6614 2.952 4.1586 5.7552 8.1071 6.2294 8.7745 0.47422 0.66736 0.8622 1.2344 0.8622 1.2602 0 0.05692-14.034 0.06694-14.069 0.01012zm14.29-0.33133c-1.6676-2.2977-12.428-17.417-12.413-17.442 0.01084-0.018306 3.0593-0.033457 6.7748-0.033457 5.809 0 6.7555 0.00891 6.7555 0.063421 0 0.034854-0.31616 0.36018-0.70256 0.72292-1.7967 1.6865-2.5744 2.56-2.9572 3.3214-0.09763 0.19421-0.2024 0.35231-0.23275 0.35134-0.08259-0.0026-1.3918-1.7801-1.3445-1.8253 0.0224-0.0212 0.18068-0.11386 0.35237-0.20621 0.44815-0.24095 0.95786-0.60579 1.174-0.84028 0.20399-0.22134 0.2223-0.27035 0.11598-0.31114-0.03888-0.01493-1.6115-0.02707-3.4948-0.02707-3.3235 0-3.4265 0.0027-3.502 0.08589-0.04271 0.04724-0.07094 0.11338-0.06246 0.14698 0.0082 0.03358 0.34625 0.53679 0.75106 1.1182 0.78446 1.1267 0.85647 1.2294 1.6505 2.3544 0.28213 0.39975 0.60518 0.8587 0.71792 1.0199 0.11268 0.16119 0.40188 0.57408 0.64266 0.91756 0.47339 0.67543 0.82849 1.1934 1.6101 2.3486 0.27646 0.40849 0.60066 0.88022 0.72053 1.0483 0.24715 0.34648 1.9535 2.8326 3.177 4.6289 0.44987 0.66043 0.95239 1.3977 1.1168 1.6384 0.33439 0.48949 0.54222 0.72776 0.88311 1.0125 0.12759 0.10658 0.22076 0.21197 0.20705 0.2342-0.01397 0.02216-0.3957 0.04039-0.84869 0.04039h-0.82371z" opacity=".2" stroke-width=".6373"/>
<path d="m8.545 26.319c-0.01277-0.02023 0.23853-0.3263 0.55789-0.68028 2.1772-2.4135 2.4922-2.8196 2.7397-3.5317 0.07814-0.22476 0.16201-0.41532 0.18641-0.42346 0.02421-0.0082 0.16124 0.14057 0.30412 0.33043 0.14296 0.18985 0.50965 0.64374 0.81505 1.0086 0.30845 0.36864 0.53782 0.67999 0.51621 0.70069-0.02168 0.02047-0.19062 0.08775-0.37594 0.14946-0.18525 0.06169-0.52214 0.21792-0.74845 0.34714-0.45472 0.25961-1.0702 0.79114-1.0166 0.8779 0.02548 0.04097 1.1079 0.05347 4.6374 0.05347 4.0951 0 4.6153-0.0077 4.7035-0.06944 0.0548-0.03818 0.09909-0.10389 0.09909-0.14599 0-0.04213-0.15722-0.29691-0.3495-0.56622-0.19221-0.26932-0.99884-1.403-1.7925-2.5193-1.548-2.1772-5.6283-7.8927-6.2475-8.7513-0.20674-0.28663-0.93792-1.308-1.6249-2.2698-1.0812-1.5137-1.2895-1.7811-1.5501-1.99-0.16557-0.13272-0.30106-0.26055-0.30106-0.28404 0-0.02428 0.18884-0.042706 0.43827-0.042706 0.398 0 0.44662 0.00915 0.5287 0.10037 0.04972 0.055183 2.5056 3.5028 5.4576 7.6614 2.952 4.1586 5.7552 8.1071 6.2294 8.7745 0.47422 0.66736 0.8622 1.2344 0.8622 1.2602 0 0.05692-14.034 0.06694-14.069 0.01012zm14.29-0.33133c-1.6676-2.2977-12.428-17.417-12.413-17.442 0.01084-0.018306 3.0593-0.033457 6.7748-0.033457 5.809 0 6.7555 0.00891 6.7555 0.063421 0 0.034854-0.31616 0.36018-0.70256 0.72292-1.7967 1.6865-2.5744 2.56-2.9572 3.3214-0.09763 0.19421-0.2024 0.35231-0.23275 0.35134-0.08259-0.0026-1.3918-1.7801-1.3445-1.8253 0.0224-0.0212 0.18068-0.11386 0.35237-0.20621 0.44815-0.24095 0.95786-0.60579 1.174-0.84028 0.20399-0.22134 0.2223-0.27035 0.11598-0.31114-0.03888-0.014934-1.6115-0.027074-3.4948-0.027074-3.3235 0-3.4265 0.00265-3.502 0.085894-0.04271 0.047235-0.07094 0.11338-0.06246 0.14698 0.0082 0.033577 0.34625 0.53679 0.75106 1.1182 0.78446 1.1267 0.85647 1.2294 1.6505 2.3544 0.28213 0.39975 0.60518 0.8587 0.71792 1.0199 0.11268 0.16117 0.40188 0.57408 0.64266 0.91756 0.47339 0.67543 0.82849 1.1934 1.6101 2.3486 0.27646 0.40849 0.60066 0.88022 0.72053 1.0483 0.24715 0.34648 1.9535 2.8326 3.177 4.6289 0.44987 0.66043 0.95239 1.3977 1.1168 1.6384 0.33439 0.48949 0.54222 0.72776 0.88311 1.0125 0.12759 0.10658 0.22076 0.21196 0.20705 0.2342-0.01397 0.02216-0.3957 0.04039-0.84869 0.04039h-0.82371z" fill="url(#linearGradient1017)" stroke-width=".6373"/>
</svg>
