<svg width="128" height="128" enable-background="new 0 0 1024 1024" image-rendering="optimizeSpeed" version="1.1" viewBox="0 0 128 128" xmlns="http://www.w3.org/2000/svg" xmlns:xlink="http://www.w3.org/1999/xlink">
<defs>
<linearGradient id="linearGradient4580" x1="558.43" x2="549.06" y1="75.093" y2="986.84" gradientUnits="userSpaceOnUse">
<stop stop-color="#79e2f1" offset="0"/>
<stop stop-color="#0a58e0" offset="1"/>
</linearGradient>
</defs>
<linearGradient id="b" x1="520" x2="520" y1="4" y2="1024" gradientUnits="userSpaceOnUse">
<stop stop-color="#fff" offset="0"/>
<stop stop-color="#d7d7d7" offset="1"/>
</linearGradient>
<filter x="-.034135" y="-.03808" width="1.0683" height="1.0762" color-interpolation-filters="sRGB">
<feGaussianBlur stdDeviation="4.2100112"/>
</filter>
<path transform="matrix(.11959 0 0 .11959 2 3.5441)" d="m986.74 315.99q-9.3288-22.617-21.044-44.312c-4.3932-8.1898-9.0576-16.325-13.993-24.298-21.207-34.386-47.078-66.875-77.614-97.41-99.959-99.959-220.69-149.97-362.09-149.97s-262.07 50.007-362.03 149.97-149.97 220.64-149.97 362.03 50.007 262.13 149.97 362.09c99.959 99.959 220.64 149.91 362.03 149.91s262.13-49.953 362.09-149.91c55.051-55.105 94.969-116.5 119.7-184.14 20.122-55.159 30.21-114.44 30.21-177.95 0-48.705-5.9119-94.969-17.79-138.79-1.356-4.9356-2.7661-9.8712-4.2305-14.753-4.4475-14.427-9.5458-28.583-15.241-42.468z" fill="url(#b)" stroke-width="1.0847"/>
<path transform="matrix(.11959 0 0 .11959 2 3.5441)" d="m969.7 392c-1.1-4.35-2.35-9-3.65-13.6-2.5-8.75-5.35-17.6-8.45-26.35-6.45-18.25-14.15-36.05-23.15-53.65-3.8-7.4-7.95-14.95-12.3-22.4h-.025q-30.601-52.01-76.325-97.75c-92.15-92.15-203.45-138.25-333.8-138.25s-241.6 46.1-333.75 138.25-138.25 203.4-138.25 333.75 46.1 241.65 138.25 333.8c68.05 68.05 146.5 110.95 234.9 128.65 31.95 6.4 64.75 9.55 98.85 9.55 130.35 0 241.65-46.05 333.8-138.2 48.6-48.6 84.4-102.5 107.35-161.8 17-43.95 27-90.8 29.95-140.75.6-10.2.9-20.65.9-31.25 0-41.75-4.7-81.6-14.3-120z" fill="url(#linearGradient4580)"/>
<g fill="none" opacity=".189" stroke="#000" stroke-opacity=".08365">
<path d="m80.745 36.185c-0.59755 0.0047-1.2214 0.02112-1.8682 0.04966-9.0187 0.39789-17.623 2.4952-21.961 5.3536-1.9459 1.282-2.6333 2.1511-3.3742 4.2653-1.2515 3.5711-2.0287 9.4805-2.0517 15.601-8e-3 2.1012 0.028 3.9243 0.0801 4.0511 0.0521 0.1268 0.14988 0.23051 0.21737 0.23051 0.0675 0 0.65219-0.63727 1.2991-1.4162 6.4343-7.7473 19.751-17.748 31.587-23.722 3.1331-1.5813 3.8072-2.157 3.4932-2.9828-0.35159-0.92476-3.2386-1.4627-7.4214-1.4298zm-32.031 10.628c-0.73519-0.0026-2.6774 1.1701-4.2072 2.5987-3.6733 3.4304-5.4844 8.4111-4.8133 13.236 0.17883 1.2857 0.54046 2.0931 1.5306 3.417 1.9671 2.6302 6.74 6.4635 10.484 8.4202 1.179 0.61612 1.4686 0.70201 1.6078 0.47685 0.0432-0.06997-0.18811-1.0334-0.51409-2.1408-2.6803-9.1058-3.6362-14.924-3.6792-22.394-0.0136-2.3696-0.0654-3.4315-0.17233-3.5385-0.051-0.05103-0.13158-0.07533-0.2366-0.0757zm24.171 4.322c-0.36217 0.0042-0.69919 0.08163-1.3393 0.23611-2.4604 0.59379-5.4057 2.2556-8.887 5.0141-1.1545 0.91481-3.2771 2.8994-3.9228 3.6678-0.77347 0.9203-0.71252 1.1947 0.26532 1.1937 8.6171-0.0088 12.539 0.24299 17.672 1.1345 2.6168 0.45449 4.7518 0.9674 7.7267 1.8558 1.0784 0.32204 2.0568 0.55821 2.1742 0.52504 0.11797-0.03332 0.24526-0.26817 0.28431-0.52504 0.1169-0.76893-0.89243-3.8107-1.7443-5.2568-2.3916-4.0598-6.2449-6.8018-10.739-7.642-0.74052-0.13843-1.1278-0.20746-1.4899-0.20325zm-5.6177 11.011c-0.67345 9e-3 -0.71636 0.26746-0.26824 0.92351 4.8603 7.1156 6.8608 10.498 9.0151 15.242 1.0982 2.4183 1.8769 4.4714 2.8182 7.43 0.34122 1.0725 0.69683 2.014 0.79036 2.0924 0.094 0.07871 0.35992 0.05154 0.59417-0.06086 0.70123-0.33645 2.6461-2.8836 3.3613-4.4019 2.0078-4.2627 2.1037-8.991 0.26678-13.178-0.60532-1.3797-0.64438-1.4357-1.6206-2.3195-1.8763-1.6987-4.9082-3.1965-9.1482-4.5197-1.4062-0.43881-4.2417-1.075-5.2402-1.1759-0.22427-0.02266-0.4132-0.03397-0.56861-0.03189zm-32.521 1.4821c-0.84409 0-1.3752 4.327-0.87313 7.1138 0.69663 3.8667 2.837 7.3229 5.9943 9.6793 1.235 0.92171 1.824 1.2039 2.9935 1.434 3.0433 0.59858 8.6623-0.13003 13.62-1.766 1.645-0.54286 2.4884-0.95951 2.4112-1.191-0.0248-0.07449-1.3127-0.7234-2.8621-1.442-8.3395-3.8679-14.226-7.6329-19.805-12.668-0.70664-0.6378-1.3722-1.1596-1.479-1.1596zm34.848 5.7966c-0.18773-0.01063-0.32421 0.22065-0.45665 0.6913-2.3341 8.295-3.6425 12.001-5.896 16.698-1.1488 2.3947-2.2227 4.3099-3.8863 6.9312-0.60307 0.95022-1.0966 1.8275-1.0966 1.9495 0 0.12258 0.19158 0.30882 0.42816 0.41624 0.70819 0.32154 3.9098 0.17717 5.533-0.2495 4.5571-1.1979 8.2432-4.1605 10.274-8.2571 0.66906-1.35 0.68685-1.4157 0.73754-2.7316 0.0974-2.5291-0.70113-5.8154-2.4093-9.9154-0.5665-1.3597-1.8993-3.9418-2.4631-4.7721-0.33769-0.49726-0.57659-0.75004-0.76432-0.76067zm-3.4068 7.2454c-0.15119 0-1.0633 0.36284-2.0269 0.80618-9.3967 4.3233-14.866 5.984-24.345 7.393l-1.1199 0.16625 0.0192 0.425c0.0398 0.88759 1.7911 2.8646 3.7841 4.2717 2.1506 1.5183 4.5059 2.4485 7.131 2.8163 1.9717 0.27627 4.6216 0.05411 6.5449-0.54865 2.1232-0.66541 4.2794-2.8943 6.6581-6.8825 1.7162-2.8775 3.3658-6.5221 3.5456-7.8333 0.077-0.56141 0.0606-0.61389-0.19083-0.61389z"/>
<path d="m80.745 36.185c-0.59755 0.0047-1.2214 0.02112-1.8682 0.04966-9.0187 0.39789-17.623 2.4952-21.961 5.3536-1.9459 1.282-2.6333 2.1511-3.3742 4.2653-1.2515 3.5711-2.0287 9.4805-2.0517 15.601-8e-3 2.1012 0.028 3.9243 0.0801 4.0511 0.0521 0.1268 0.14988 0.23051 0.21737 0.23051 0.0675 0 0.65219-0.63727 1.2991-1.4162 6.4343-7.7473 19.751-17.748 31.587-23.722 3.1331-1.5813 3.8072-2.157 3.4932-2.9828-0.35159-0.92476-3.2386-1.4627-7.4214-1.4298zm-32.031 10.628c-0.73519-0.0026-2.6774 1.1701-4.2072 2.5987-3.6733 3.4304-5.4844 8.4111-4.8133 13.236 0.17883 1.2857 0.54046 2.0931 1.5306 3.417 1.9671 2.6302 6.74 6.4635 10.484 8.4202 1.179 0.61612 1.4686 0.70201 1.6078 0.47685 0.0432-0.06997-0.18811-1.0334-0.51409-2.1408-2.6803-9.1058-3.6362-14.924-3.6792-22.394-0.0136-2.3696-0.0654-3.4315-0.17233-3.5385-0.051-0.05103-0.13158-0.07533-0.2366-0.0757zm24.171 4.322c-0.36217 0.0042-0.69919 0.08163-1.3393 0.23611-2.4604 0.59379-5.4057 2.2556-8.887 5.0141-1.1545 0.91481-3.2771 2.8994-3.9228 3.6678-0.77347 0.9203-0.71252 1.1947 0.26532 1.1937 8.6171-0.0088 12.539 0.24299 17.672 1.1345 2.6168 0.45449 4.7518 0.9674 7.7267 1.8558 1.0784 0.32204 2.0568 0.55821 2.1742 0.52504 0.11797-0.03332 0.24526-0.26817 0.28431-0.52504 0.1169-0.76893-0.89243-3.8107-1.7443-5.2568-2.3916-4.0598-6.2449-6.8018-10.739-7.642-0.74052-0.13843-1.1278-0.20746-1.4899-0.20325zm-5.6177 11.011c-0.67345 9e-3 -0.71636 0.26746-0.26824 0.92351 4.8603 7.1156 6.8608 10.498 9.0151 15.242 1.0982 2.4183 1.8769 4.4714 2.8182 7.43 0.34122 1.0725 0.69683 2.014 0.79036 2.0924 0.094 0.07871 0.35992 0.05154 0.59417-0.06086 0.70123-0.33645 2.6461-2.8836 3.3613-4.4019 2.0078-4.2627 2.1037-8.991 0.26678-13.178-0.60532-1.3797-0.64438-1.4357-1.6206-2.3195-1.8763-1.6987-4.9082-3.1965-9.1482-4.5197-1.4062-0.43881-4.2417-1.075-5.2402-1.1759-0.22427-0.02266-0.4132-0.03397-0.56861-0.03189zm-32.521 1.4821c-0.84409 0-1.3752 4.327-0.87313 7.1138 0.69663 3.8667 2.837 7.3229 5.9943 9.6793 1.235 0.92171 1.824 1.2039 2.9935 1.434 3.0433 0.59858 8.6623-0.13003 13.62-1.766 1.645-0.54286 2.4884-0.95951 2.4112-1.191-0.0248-0.07449-1.3127-0.7234-2.8621-1.442-8.3395-3.8679-14.226-7.6329-19.805-12.668-0.70664-0.6378-1.3722-1.1596-1.479-1.1596zm34.848 5.7966c-0.18773-0.01063-0.32421 0.22065-0.45665 0.6913-2.3341 8.295-3.6425 12.001-5.896 16.698-1.1488 2.3947-2.2227 4.3099-3.8863 6.9312-0.60307 0.95022-1.0966 1.8275-1.0966 1.9495 0 0.12258 0.19158 0.30882 0.42816 0.41624 0.70819 0.32154 3.9098 0.17717 5.533-0.2495 4.5571-1.1979 8.2432-4.1605 10.274-8.2571 0.66906-1.35 0.68685-1.4157 0.73754-2.7316 0.0974-2.5291-0.70113-5.8154-2.4093-9.9154-0.5665-1.3597-1.8993-3.9418-2.4631-4.7721-0.33769-0.49726-0.57659-0.75004-0.76432-0.76067zm-3.4068 7.2454c-0.15119 0-1.0633 0.36284-2.0269 0.80618-9.3967 4.3233-14.866 5.984-24.345 7.393l-1.1199 0.16625 0.0192 0.425c0.0398 0.88759 1.7911 2.8646 3.7841 4.2717 2.1506 1.5183 4.5059 2.4485 7.131 2.8163 1.9717 0.27627 4.6216 0.05411 6.5449-0.54865 2.1232-0.66541 4.2794-2.8943 6.6581-6.8825 1.7162-2.8775 3.3658-6.5221 3.5456-7.8333 0.077-0.56141 0.0606-0.61389-0.19083-0.61389z" stroke-width="1.7"/>
<path d="m80.745 36.185c-0.59755 0.0047-1.2214 0.02112-1.8682 0.04966-9.0187 0.39789-17.623 2.4952-21.961 5.3536-1.9459 1.282-2.6333 2.1511-3.3742 4.2653-1.2515 3.5711-2.0287 9.4805-2.0517 15.601-8e-3 2.1012 0.028 3.9243 0.0801 4.0511 0.0521 0.1268 0.14988 0.23051 0.21737 0.23051 0.0675 0 0.65219-0.63727 1.2991-1.4162 6.4343-7.7473 19.751-17.748 31.587-23.722 3.1331-1.5813 3.8072-2.157 3.4932-2.9828-0.35159-0.92476-3.2386-1.4627-7.4214-1.4298zm-32.031 10.628c-0.73519-0.0026-2.6774 1.1701-4.2072 2.5987-3.6733 3.4304-5.4844 8.4111-4.8133 13.236 0.17883 1.2857 0.54046 2.0931 1.5306 3.417 1.9671 2.6302 6.74 6.4635 10.484 8.4202 1.179 0.61612 1.4686 0.70201 1.6078 0.47685 0.0432-0.06997-0.18811-1.0334-0.51409-2.1408-2.6803-9.1058-3.6362-14.924-3.6792-22.394-0.0136-2.3696-0.0654-3.4315-0.17233-3.5385-0.051-0.05103-0.13158-0.07533-0.2366-0.0757zm24.171 4.322c-0.36217 0.0042-0.69919 0.08163-1.3393 0.23611-2.4604 0.59379-5.4057 2.2556-8.887 5.0141-1.1545 0.91481-3.2771 2.8994-3.9228 3.6678-0.77347 0.9203-0.71252 1.1947 0.26532 1.1937 8.6171-0.0088 12.539 0.24299 17.672 1.1345 2.6168 0.45449 4.7518 0.9674 7.7267 1.8558 1.0784 0.32204 2.0568 0.55821 2.1742 0.52504 0.11797-0.03332 0.24526-0.26817 0.28431-0.52504 0.1169-0.76893-0.89243-3.8107-1.7443-5.2568-2.3916-4.0598-6.2449-6.8018-10.739-7.642-0.74052-0.13843-1.1278-0.20746-1.4899-0.20325zm-5.6177 11.011c-0.67345 9e-3 -0.71636 0.26746-0.26824 0.92351 4.8603 7.1156 6.8608 10.498 9.0151 15.242 1.0982 2.4183 1.8769 4.4714 2.8182 7.43 0.34122 1.0725 0.69683 2.014 0.79036 2.0924 0.094 0.07871 0.35992 0.05154 0.59417-0.06086 0.70123-0.33645 2.6461-2.8836 3.3613-4.4019 2.0078-4.2627 2.1037-8.991 0.26678-13.178-0.60532-1.3797-0.64438-1.4357-1.6206-2.3195-1.8763-1.6987-4.9082-3.1965-9.1482-4.5197-1.4062-0.43881-4.2417-1.075-5.2402-1.1759-0.22427-0.02266-0.4132-0.03397-0.56861-0.03189zm-32.521 1.4821c-0.84409 0-1.3752 4.327-0.87313 7.1138 0.69663 3.8667 2.837 7.3229 5.9943 9.6793 1.235 0.92171 1.824 1.2039 2.9935 1.434 3.0433 0.59858 8.6623-0.13003 13.62-1.766 1.645-0.54286 2.4884-0.95951 2.4112-1.191-0.0248-0.07449-1.3127-0.7234-2.8621-1.442-8.3395-3.8679-14.226-7.6329-19.805-12.668-0.70664-0.6378-1.3722-1.1596-1.479-1.1596zm34.848 5.7966c-0.18773-0.01063-0.32421 0.22065-0.45665 0.6913-2.3341 8.295-3.6425 12.001-5.896 16.698-1.1488 2.3947-2.2227 4.3099-3.8863 6.9312-0.60307 0.95022-1.0966 1.8275-1.0966 1.9495 0 0.12258 0.19158 0.30882 0.42816 0.41624 0.70819 0.32154 3.9098 0.17717 5.533-0.2495 4.5571-1.1979 8.2432-4.1605 10.274-8.2571 0.66906-1.35 0.68685-1.4157 0.73754-2.7316 0.0974-2.5291-0.70113-5.8154-2.4093-9.9154-0.5665-1.3597-1.8993-3.9418-2.4631-4.7721-0.33769-0.49726-0.57659-0.75004-0.76432-0.76067zm-3.4068 7.2454c-0.15119 0-1.0633 0.36284-2.0269 0.80618-9.3967 4.3233-14.866 5.984-24.345 7.393l-1.1199 0.16625 0.0192 0.425c0.0398 0.88759 1.7911 2.8646 3.7841 4.2717 2.1506 1.5183 4.5059 2.4485 7.131 2.8163 1.9717 0.27627 4.6216 0.05411 6.5449-0.54865 2.1232-0.66541 4.2794-2.8943 6.6581-6.8825 1.7162-2.8775 3.3658-6.5221 3.5456-7.8333 0.077-0.56141 0.0606-0.61389-0.19083-0.61389z" stroke-width="2.4"/>
</g>
<path d="m80.745 36.185c-0.59755 0.0047-1.2214 0.02112-1.8682 0.04966-9.0187 0.39789-17.623 2.4952-21.961 5.3536-1.9459 1.282-2.6333 2.1511-3.3742 4.2653-1.2515 3.5711-2.0287 9.4805-2.0517 15.601-8e-3 2.1012 0.028 3.9243 0.0801 4.0511 0.0521 0.1268 0.14988 0.23051 0.21737 0.23051 0.0675 0 0.65219-0.63727 1.2991-1.4162 6.4343-7.7473 19.751-17.748 31.587-23.722 3.1331-1.5813 3.8072-2.157 3.4932-2.9828-0.35159-0.92476-3.2386-1.4627-7.4214-1.4298zm-32.031 10.628c-0.73519-0.0026-2.6774 1.1701-4.2072 2.5987-3.6733 3.4304-5.4844 8.4111-4.8133 13.236 0.17883 1.2857 0.54046 2.0931 1.5306 3.417 1.9671 2.6302 6.74 6.4635 10.484 8.4202 1.179 0.61612 1.4686 0.70201 1.6078 0.47685 0.0432-0.06997-0.18811-1.0334-0.51409-2.1408-2.6803-9.1058-3.6362-14.924-3.6792-22.394-0.0136-2.3696-0.0654-3.4315-0.17233-3.5385-0.051-0.05103-0.13158-0.07533-0.2366-0.0757zm24.171 4.322c-0.36217 0.0042-0.69919 0.08163-1.3393 0.23611-2.4604 0.59379-5.4057 2.2556-8.887 5.0141-1.1545 0.91481-3.2771 2.8994-3.9228 3.6678-0.77347 0.9203-0.71252 1.1947 0.26532 1.1937 8.6171-0.0088 12.539 0.24299 17.672 1.1345 2.6168 0.45449 4.7518 0.9674 7.7267 1.8558 1.0784 0.32204 2.0568 0.55821 2.1742 0.52504 0.11797-0.03332 0.24526-0.26817 0.28431-0.52504 0.1169-0.76893-0.89243-3.8107-1.7443-5.2568-2.3916-4.0598-6.2449-6.8018-10.739-7.642-0.74052-0.13843-1.1278-0.20746-1.4899-0.20325zm-5.6177 11.011c-0.67345 9e-3 -0.71636 0.26746-0.26824 0.92351 4.8603 7.1156 6.8608 10.498 9.0151 15.242 1.0982 2.4183 1.8769 4.4714 2.8182 7.43 0.34122 1.0725 0.69683 2.014 0.79036 2.0924 0.094 0.07871 0.35992 0.05154 0.59417-0.06086 0.70123-0.33645 2.6461-2.8836 3.3613-4.4019 2.0078-4.2627 2.1037-8.991 0.26678-13.178-0.60532-1.3797-0.64438-1.4357-1.6206-2.3195-1.8763-1.6987-4.9082-3.1965-9.1482-4.5197-1.4062-0.43881-4.2417-1.075-5.2402-1.1759-0.22427-0.02266-0.4132-0.03397-0.56861-0.03189zm-32.521 1.4821c-0.84409 0-1.3752 4.327-0.87313 7.1138 0.69663 3.8667 2.837 7.3229 5.9943 9.6793 1.235 0.92171 1.824 1.2039 2.9935 1.434 3.0433 0.59858 8.6623-0.13003 13.62-1.766 1.645-0.54286 2.4884-0.95951 2.4112-1.191-0.0248-0.07449-1.3127-0.7234-2.8621-1.442-8.3395-3.8679-14.226-7.6329-19.805-12.668-0.70664-0.6378-1.3722-1.1596-1.479-1.1596zm34.848 5.7966c-0.18773-0.01063-0.32421 0.22065-0.45665 0.6913-2.3341 8.295-3.6425 12.001-5.896 16.698-1.1488 2.3947-2.2227 4.3099-3.8863 6.9312-0.60307 0.95022-1.0966 1.8275-1.0966 1.9495 0 0.12258 0.19158 0.30882 0.42816 0.41624 0.70819 0.32154 3.9098 0.17717 5.533-0.2495 4.5571-1.1979 8.2432-4.1605 10.274-8.2571 0.66906-1.35 0.68685-1.4157 0.73754-2.7316 0.0974-2.5291-0.70113-5.8154-2.4093-9.9154-0.5665-1.3597-1.8993-3.9418-2.4631-4.7721-0.33769-0.49726-0.57659-0.75004-0.76432-0.76067zm-3.4068 7.2454c-0.15119 0-1.0633 0.36284-2.0269 0.80618-9.3967 4.3233-14.866 5.984-24.345 7.393l-1.1199 0.16625 0.0192 0.425c0.0398 0.88759 1.7911 2.8646 3.7841 4.2717 2.1506 1.5183 4.5059 2.4485 7.131 2.8163 1.9717 0.27627 4.6216 0.05411 6.5449-0.54865 2.1232-0.66541 4.2794-2.8943 6.6581-6.8825 1.7162-2.8775 3.3658-6.5221 3.5456-7.8333 0.077-0.56141 0.0606-0.61389-0.19083-0.61389z" fill="#fff" stroke-width=".22755"/>
</svg>
