<svg width="128" height="128" version="1.1" viewBox="0 0 128 128" xmlns="http://www.w3.org/2000/svg" xmlns:xlink="http://www.w3.org/1999/xlink">
<defs>
<linearGradient id="linearGradient945" x1="69.325" x2="67.338" y1="24.413" y2="125.94" gradientTransform="matrix(.93526 0 0 .93526 .9115 -.585)" gradientUnits="userSpaceOnUse">
<stop stop-color="#0cd1ff" offset="0"/>
<stop stop-color="#2472e6" offset="1"/>
</linearGradient>
</defs>
<circle cx="64.614" cy="64.172" r="59.877" fill="url(#linearGradient945)" stroke="#eee" stroke-width="5.6116"/>
<path d="m64.613 31.752a32.42 32.42 0 0 0-32.418 32.42 32.42 32.42 0 0 0 3.8574 15.283l-2.7129 17.863 16.543-4.3027a32.42 32.42 0 0 0 14.73 3.5762 32.42 32.42 0 0 0 32.42-32.42 32.42 32.42 0 0 0-32.42-32.42zm-0.49414 9.1328 0.85352 0.20312 0.86328 1.1602-0.33594 1.4062-1.2949 0.64648-1.0879 0.025391-1.0293 0.080078-1.0273 0.12891-0.056641 0.007813-0.001953-0.011719-0.81641-0.068359-1.0273-1.0176 0.11914-1.4414 1.1816-0.83203 0.029297-0.005859 0.085938-0.011719 1.1074-0.14062 0.085937-0.009766 1.125-0.085937 0.085938-0.003907 1.1406-0.029296zm-9.7637 2.332 1.2812 0.66992 0.30664 1.4141-0.88672 1.1406-0.59961 0.30664-0.015625 0.009765-0.88086 0.50586-0.85352 0.54688-0.005859 0.003906-0.35938 0.25586-0.82031 0.30859-1.3652-0.48047-0.50586-1.3535 0.71289-1.2578 0.42578-0.30273 0.06836-0.046875 0.89844-0.57617 0.070313-0.042969 0.92773-0.5332 0.072266-0.039062 0.67188-0.34375 0.85742-0.18555zm21.635 1.5117 1.4336 0.19336 0.3457 0.22266 0.10938 0.076172 1.3887 1.0547 0.10352 0.085937 0.94141 0.83984 0.48242 0.73047-0.16406 1.4375-1.207 0.79688-1.3848-0.41602-0.88672-0.79102-1.2871-0.97852-0.28906-0.18359-0.58984-0.64844-0.0625-1.4453 1.0664-0.97461zm-30.162 5.1074 1.4434 0.074218 0.86914 1.1562-0.32812 1.4082-0.03125 0.039063-0.54688 0.76758-0.015625 0.023438-0.53516 0.83594-0.50977 0.88477-0.005859 0.011718-0.017578 0.035157-0.58594 0.65234-1.4316 0.20312-1.0742-0.96875 0.052734-1.4434 0.054688-0.10938 0.039062-0.072266 0.5332-0.92773 0.042969-0.070312 0.57617-0.89844 0.046875-0.068359 0.61719-0.86914 0.048828-0.064453 0.056641-0.072266 0.70117-0.52734zm37.865 2.2812 1.1895 0.82226 0.31836 0.54297 0.0625 0.12109 0.76562 1.5859 0.054687 0.125 0.36914 0.95703 0.095703 0.87109-0.80078 1.2031-1.4375 0.1582-1.043-1-0.34375-0.88867-0.71094-1.4746-0.2793-0.47656-0.23438-0.8457 0.59961-1.3164 1.3945-0.38476zm-41.309 6.8906 1.3105 0.61133 0.37109 1.3965-0.10742 0.5957-0.13281 1.0547-0.078125 1.0332-0.011719 0.45312-0.24609 0.8418-1.2012 0.80273-1.3887-0.40625-0.57812-1.3242 0.011718-0.50586 0.00586-0.085938 0.083984-1.125 0.009766-0.085937 0.14062-1.1094 0.013672-0.083985 0.11523-0.6543 0.37109-0.79492 1.3105-0.61328zm43.508 2.8672 1.4121 0.3125 0.66602 1.2832 0.048828 1.2012v0.11523l-0.027343 1.1387-0.00586 0.085938-0.080078 1.0703-0.28906 0.82812-1.2422 0.74219-1.3652-0.47656-0.50977-1.3516 0.078125-1.0352 0.025391-1.0195-0.046875-1.1562 0.18945-0.85742 1.1465-0.88086zm-42.303 7.4219 0.94726 1.0918 0.14844 0.51562 0.41406 1.1797 0.48633 1.1523 0.029296 0.056641 0.17578 0.85938-0.68555 1.2734-1.416 0.29102-1.1328-0.90039-0.044922-0.091797-0.042969-0.09375-0.53125-1.2539-0.037109-0.097656-0.45312-1.2793-0.03125-0.099609-0.16406-0.57422-0.015625-0.87695 0.9082-1.125 1.4453-0.027344zm41.322 2.5859 1.1191 0.91406 0.017578 1.4473-0.36328 0.80664-0.037109 0.074219-0.48828 0.95508-0.039062 0.072266-0.53516 0.92773-0.041016 0.070313-0.21094 0.32617-0.64648 0.5918-1.4434 0.064453-0.97656-1.0664 0.19141-1.4336 0.18359-0.28711 0.50586-0.88086 0.009765-0.015625 0.41406-0.80664 0.007812-0.015625 0.35742-0.79102 0.55469-0.67969 1.4199-0.27344zm-41.145 7.1016 1.3262 0.57617 0.4082 1.3867-0.51367 3.377-0.34961 0.80469-1.293 0.64648-1.3262-0.57617-0.4082-1.3867 0.51172-3.377 0.35156-0.80469 1.293-0.64648zm34.328 1.0254 1.4043 0.3457 0.63477 1.3008-0.58984 1.3203-0.17383 0.15039-0.064453 0.050781-0.83594 0.6582-0.064453 0.048828-0.86914 0.61719-0.068359 0.046875-0.88867 0.57031-0.83594 0.26758-1.3379-0.54492-0.44336-1.377 0.77344-1.2227 0.86523-0.55469 0.023438-0.015625 0.73438-0.52148 0.021484-0.017579 0.79883-0.62695 0.017578-0.013671 0.11133-0.097657 0.78711-0.38476zm-21.494 3.6953 0.48438 0.19727 1.1426 0.38867 1.1602 0.31641 0.17773 0.037109 0.78125 0.39648 0.57227 1.3281-0.6543 1.291-1.4082 0.32812-0.22656-0.048828-0.097656-0.023437-1.2559-0.3457-0.097656-0.029296-1.2344-0.41797-0.095703-0.035156-0.5332-0.2168-0.70117-0.52734-0.32812-1.4082 0.86914-1.1543 1.4453-0.076172zm-7.5703 0.29883 0.87695 0.003906 1.1055 0.93359-0.007813 1.4453-1.1133 0.92188-3.3066 0.86133-0.87695-0.00586-1.1035-0.93359 0.005859-1.4453 1.1152-0.92188 3.3047-0.85938zm19.951 0.60547 0.87695 0.027344 1.0781 0.96484-0.046875 1.4453-1.1406 0.89062-0.74023 0.16992-0.082032 0.017578-1.0918 0.19531-0.083985 0.011719-1.1094 0.14258-0.085937 0.007813-0.42969 0.033203-0.86133-0.16016-0.92188-1.1152 0.26367-1.4219 1.2617-0.70898 0.36914-0.029297 1.0547-0.13281 1-0.17969 0.68945-0.1582z" fill="#fff"/>
</svg>
