<svg width="64" height="64" version="1.1" viewBox="0 0 16.933 16.933" xmlns="http://www.w3.org/2000/svg">
<path transform="scale(.26458)" d="m32.1 2.2148c-16.642-4.536e-4 -30.134 13.49-30.135 30.133-4.697e-4 16.643 13.492 30.135 30.135 30.135 16.642-6.05e-4 30.133-13.492 30.133-30.135-6.16e-4 -16.642-13.491-30.132-30.133-30.133zm-0.076171 14.076c4.4512 0.004384 8.9395 3.5734 8.9395 9.6875v3.5391h1.5391c1.1634 0 2.1016 0.93623 2.1016 2.0996v14.689c0 1.1634-0.9382 2.0996-2.1016 2.0996h-20.807c-1.1634 0-2.1016-0.93623-2.1016-2.0996v-14.689c0-1.1634 0.9382-2.0996 2.1016-2.0996h1.3887v-3.5703c0-6.1016 4.4883-9.6595 8.9395-9.6562zm0 3.1973c-2.888-0.002834-5.7402 1.8133-5.7402 6.459v3.5703h11.48v-3.5391c1e-6 -4.6619-2.8523-6.4874-5.7402-6.4902zm-0.095704 14.941a2.5877 2.5877 0 0 0-2.5859 2.5879 2.5877 2.5877 0 0 0 1.8008 2.4629l-0.12891 0.50195-0.91797 3.5137h3.6679l-0.91797-3.5137-0.13281-0.50391a2.5877 2.5877 0 0 0 1.8027-2.4609 2.5877 2.5877 0 0 0-2.5879-2.5879z" fill="#25282d" fill-opacity=".61176" stroke-width="1.0766"/>
</svg>
