<svg width="128" height="128" version="1.1" viewBox="0 0 128 128" xmlns="http://www.w3.org/2000/svg" xmlns:xlink="http://www.w3.org/1999/xlink">
<defs>
<linearGradient id="linearGradient825" x1="-741.83" x2="-741.83" y1="959.05" y2="93.836" gradientTransform="matrix(.13668 0 0 .13668 162.31 -5.9893)" gradientUnits="userSpaceOnUse">
<stop stop-color="#012fcc" offset="0"/>
<stop stop-color="#01c2fe" offset="1"/>
</linearGradient>
<linearGradient id="linearGradient835" x1="-738.76" x2="-738.76" y1="931.43" y2="152.13" gradientTransform="matrix(.13668 0 0 .13668 162.31 -5.9893)" gradientUnits="userSpaceOnUse">
<stop stop-color="#1174f7" offset="0"/>
<stop stop-color="#02bffd" offset="1"/>
</linearGradient>
</defs>
<circle cx="63.592" cy="64.286" r="61.38" fill="url(#linearGradient825)"/>
<circle cx="63.592" cy="64.286" r="55.09" fill="url(#linearGradient835)"/>
<g transform="translate(-184.81 23.066)" opacity=".401">
<g transform="translate(23.864 17.356)" fill="none" stroke="#000" stroke-linecap="round" stroke-linejoin="round" stroke-opacity=".011765">
<path d="m217.88-12.488c-1.0688 0-1.3094 0.04677-2.0138 0.39262-1.0206 0.50113-1.883 1.3647-2.3363 2.3392-0.48141 1.035-0.56864 2.6184-0.19789 3.5922 0.14088 0.37002 1.4297 2.6989 2.864 5.1754 1.4343 2.4765 2.6112 4.5957 2.6154 4.7094 4e-3 0.11369-3.5311 6.335-7.8562 13.825l-7.8638 13.618-14.278 0.07828-0.80733 0.37659c-1.0516 0.49067-1.9704 1.4053-2.4451 2.4341-0.32158 0.697-0.37947 0.99646-0.38001 1.966 0 0.97164 0.0562 1.2652 0.37633 1.951 0.63763 1.366 1.8987 2.4191 3.2892 2.7468 0.28127 0.06632 10.618 0.12493 23.325 0.13246l22.82 0.01367 0.2565-0.28382c0.21604-0.23908 0.25512-0.4876 0.24887-1.581-0.0189-3.3162-1.9316-6.482-4.5494-7.5306-0.48919-0.19595-1.5335-0.23127-8.6373-0.29145l-8.0809-0.06833 2.3066-3.9694c14.352-24.696 18.987-32.734 19.207-33.302 0.20263-0.52495 0.24771-0.9093 0.20446-1.7492-0.0981-1.9046-1.045-3.351-2.7379-4.1822-0.70401-0.34567-0.94527-0.39262-2.011-0.39262-1.0528 0-1.3215 0.05094-2.0575 0.39078-1.1671 0.53892-1.8728 1.3683-3.3145 3.8958-0.66033 1.1577-1.2425 2.1048-1.2938 2.1048-0.0512 0-0.631-0.94527-1.2885-2.1006-1.4486-2.5454-2.0502-3.2571-3.2535-3.8495-0.81245-0.39997-1.0105-0.44125-2.1103-0.44125zm13.833 18.91c-0.28506-0.0088-1.0232 0.71657-1.5356 1.5093-1.7756 2.7472-2.4833 8.3982-1.4953 11.942 0.1876 0.67289 2.5173 4.8058 10.125 17.963 5.4345 9.3987 10.088 17.319 10.342 17.6 1.36 1.5105 3.6089 1.9538 5.5328 1.0904 1.8174-0.81558 2.9518-2.7503 2.7833-4.7473-0.0414-0.49044-0.19729-1.1642-0.34638-1.4972s-1.4133-2.5734-2.8094-4.9785l-2.5381-4.373 8.4912-0.1345 0.80732-0.37686c1.0516-0.49066 1.9705-1.4053 2.4451-2.4341 0.32159-0.697 0.37921-0.99619 0.37974-1.9658 0-0.97143-0.0559-1.2653-0.37581-1.951-0.49034-1.0509-1.4055-1.9702-2.4343-2.4456l-0.82205-0.38007-14.134-0.07828-7.1285-12.369c-3.9207-6.8028-7.1996-12.371-7.2864-12.374zm-33.671 36.659c-0.76339 0.0016-1.4091 0.06779-1.6788 0.20603-0.28856 0.14796-0.80331 0.91041-1.9968 2.9578-2.3989 4.1154-2.5802 4.5266-2.577 5.8447 5e-3 2.087 1.1405 3.7345 3.126 4.5357 0.90626 0.36571 2.7889 0.28478 3.7202-0.15978 1.2426-0.59309 1.8226-1.3646 4.4466-5.9149l2.4443-4.2385-0.21629-0.38501c-0.57539-1.0247-2.2962-2.042-4.291-2.5371-0.82015-0.20353-1.9958-0.31054-2.9773-0.30906z" opacity="1" stroke-width=".1"/>
<path d="m217.88-12.488c-1.0688 0-1.3094 0.04677-2.0138 0.39262-1.0206 0.50113-1.883 1.3647-2.3363 2.3392-0.48141 1.035-0.56864 2.6184-0.19789 3.5922 0.14088 0.37002 1.4297 2.6989 2.864 5.1754 1.4343 2.4765 2.6112 4.5957 2.6154 4.7094 4e-3 0.11369-3.5311 6.335-7.8562 13.825l-7.8638 13.618-14.278 0.07828-0.80733 0.37659c-1.0516 0.49067-1.9704 1.4053-2.4451 2.4341-0.32158 0.697-0.37947 0.99646-0.38001 1.966 0 0.97164 0.0562 1.2652 0.37633 1.951 0.63763 1.366 1.8987 2.4191 3.2892 2.7468 0.28127 0.06632 10.618 0.12493 23.325 0.13246l22.82 0.01367 0.2565-0.28382c0.21604-0.23908 0.25512-0.4876 0.24887-1.581-0.0189-3.3162-1.9316-6.482-4.5494-7.5306-0.48919-0.19595-1.5335-0.23127-8.6373-0.29145l-8.0809-0.06833 2.3066-3.9694c14.352-24.696 18.987-32.734 19.207-33.302 0.20263-0.52495 0.24771-0.9093 0.20446-1.7492-0.0981-1.9046-1.045-3.351-2.7379-4.1822-0.70401-0.34567-0.94527-0.39262-2.011-0.39262-1.0528 0-1.3215 0.05094-2.0575 0.39078-1.1671 0.53892-1.8728 1.3683-3.3145 3.8958-0.66033 1.1577-1.2425 2.1048-1.2938 2.1048-0.0512 0-0.631-0.94527-1.2885-2.1006-1.4486-2.5454-2.0502-3.2571-3.2535-3.8495-0.81245-0.39997-1.0105-0.44125-2.1103-0.44125zm13.833 18.91c-0.28506-0.0088-1.0232 0.71657-1.5356 1.5093-1.7756 2.7472-2.4833 8.3982-1.4953 11.942 0.1876 0.67289 2.5173 4.8058 10.125 17.963 5.4345 9.3987 10.088 17.319 10.342 17.6 1.36 1.5105 3.6089 1.9538 5.5328 1.0904 1.8174-0.81558 2.9518-2.7503 2.7833-4.7473-0.0414-0.49044-0.19729-1.1642-0.34638-1.4972s-1.4133-2.5734-2.8094-4.9785l-2.5381-4.373 8.4912-0.1345 0.80732-0.37686c1.0516-0.49066 1.9705-1.4053 2.4451-2.4341 0.32159-0.697 0.37921-0.99619 0.37974-1.9658 0-0.97143-0.0559-1.2653-0.37581-1.951-0.49034-1.0509-1.4055-1.9702-2.4343-2.4456l-0.82205-0.38007-14.134-0.07828-7.1285-12.369c-3.9207-6.8028-7.1996-12.371-7.2864-12.374zm-33.671 36.659c-0.76339 0.0016-1.4091 0.06779-1.6788 0.20603-0.28856 0.14796-0.80331 0.91041-1.9968 2.9578-2.3989 4.1154-2.5802 4.5266-2.577 5.8447 5e-3 2.087 1.1405 3.7345 3.126 4.5357 0.90626 0.36571 2.7889 0.28478 3.7202-0.15978 1.2426-0.59309 1.8226-1.3646 4.4466-5.9149l2.4443-4.2385-0.21629-0.38501c-0.57539-1.0247-2.2962-2.042-4.291-2.5371-0.82015-0.20353-1.9958-0.31054-2.9773-0.30906z" opacity="1" stroke-width=".2"/>
<path d="m217.88-12.488c-1.0688 0-1.3094 0.04677-2.0138 0.39262-1.0206 0.50113-1.883 1.3647-2.3363 2.3392-0.48141 1.035-0.56864 2.6184-0.19789 3.5922 0.14088 0.37002 1.4297 2.6989 2.864 5.1754 1.4343 2.4765 2.6112 4.5957 2.6154 4.7094 4e-3 0.11369-3.5311 6.335-7.8562 13.825l-7.8638 13.618-14.278 0.07828-0.80733 0.37659c-1.0516 0.49067-1.9704 1.4053-2.4451 2.4341-0.32158 0.697-0.37947 0.99646-0.38001 1.966 0 0.97164 0.0562 1.2652 0.37633 1.951 0.63763 1.366 1.8987 2.4191 3.2892 2.7468 0.28127 0.06632 10.618 0.12493 23.325 0.13246l22.82 0.01367 0.2565-0.28382c0.21604-0.23908 0.25512-0.4876 0.24887-1.581-0.0189-3.3162-1.9316-6.482-4.5494-7.5306-0.48919-0.19595-1.5335-0.23127-8.6373-0.29145l-8.0809-0.06833 2.3066-3.9694c14.352-24.696 18.987-32.734 19.207-33.302 0.20263-0.52495 0.24771-0.9093 0.20446-1.7492-0.0981-1.9046-1.045-3.351-2.7379-4.1822-0.70401-0.34567-0.94527-0.39262-2.011-0.39262-1.0528 0-1.3215 0.05094-2.0575 0.39078-1.1671 0.53892-1.8728 1.3683-3.3145 3.8958-0.66033 1.1577-1.2425 2.1048-1.2938 2.1048-0.0512 0-0.631-0.94527-1.2885-2.1006-1.4486-2.5454-2.0502-3.2571-3.2535-3.8495-0.81245-0.39997-1.0105-0.44125-2.1103-0.44125zm13.833 18.91c-0.28506-0.0088-1.0232 0.71657-1.5356 1.5093-1.7756 2.7472-2.4833 8.3982-1.4953 11.942 0.1876 0.67289 2.5173 4.8058 10.125 17.963 5.4345 9.3987 10.088 17.319 10.342 17.6 1.36 1.5105 3.6089 1.9538 5.5328 1.0904 1.8174-0.81558 2.9518-2.7503 2.7833-4.7473-0.0414-0.49044-0.19729-1.1642-0.34638-1.4972s-1.4133-2.5734-2.8094-4.9785l-2.5381-4.373 8.4912-0.1345 0.80732-0.37686c1.0516-0.49066 1.9705-1.4053 2.4451-2.4341 0.32159-0.697 0.37921-0.99619 0.37974-1.9658 0-0.97143-0.0559-1.2653-0.37581-1.951-0.49034-1.0509-1.4055-1.9702-2.4343-2.4456l-0.82205-0.38007-14.134-0.07828-7.1285-12.369c-3.9207-6.8028-7.1996-12.371-7.2864-12.374zm-33.671 36.659c-0.76339 0.0016-1.4091 0.06779-1.6788 0.20603-0.28856 0.14796-0.80331 0.91041-1.9968 2.9578-2.3989 4.1154-2.5802 4.5266-2.577 5.8447 5e-3 2.087 1.1405 3.7345 3.126 4.5357 0.90626 0.36571 2.7889 0.28478 3.7202-0.15978 1.2426-0.59309 1.8226-1.3646 4.4466-5.9149l2.4443-4.2385-0.21629-0.38501c-0.57539-1.0247-2.2962-2.042-4.291-2.5371-0.82015-0.20353-1.9958-0.31054-2.9773-0.30906z" opacity="1" stroke-width=".3"/>
<path d="m217.88-12.488c-1.0688 0-1.3094 0.04677-2.0138 0.39262-1.0206 0.50113-1.883 1.3647-2.3363 2.3392-0.48141 1.035-0.56864 2.6184-0.19789 3.5922 0.14088 0.37002 1.4297 2.6989 2.864 5.1754 1.4343 2.4765 2.6112 4.5957 2.6154 4.7094 4e-3 0.11369-3.5311 6.335-7.8562 13.825l-7.8638 13.618-14.278 0.07828-0.80733 0.37659c-1.0516 0.49067-1.9704 1.4053-2.4451 2.4341-0.32158 0.697-0.37947 0.99646-0.38001 1.966 0 0.97164 0.0562 1.2652 0.37633 1.951 0.63763 1.366 1.8987 2.4191 3.2892 2.7468 0.28127 0.06632 10.618 0.12493 23.325 0.13246l22.82 0.01367 0.2565-0.28382c0.21604-0.23908 0.25512-0.4876 0.24887-1.581-0.0189-3.3162-1.9316-6.482-4.5494-7.5306-0.48919-0.19595-1.5335-0.23127-8.6373-0.29145l-8.0809-0.06833 2.3066-3.9694c14.352-24.696 18.987-32.734 19.207-33.302 0.20263-0.52495 0.24771-0.9093 0.20446-1.7492-0.0981-1.9046-1.045-3.351-2.7379-4.1822-0.70401-0.34567-0.94527-0.39262-2.011-0.39262-1.0528 0-1.3215 0.05094-2.0575 0.39078-1.1671 0.53892-1.8728 1.3683-3.3145 3.8958-0.66033 1.1577-1.2425 2.1048-1.2938 2.1048-0.0512 0-0.631-0.94527-1.2885-2.1006-1.4486-2.5454-2.0502-3.2571-3.2535-3.8495-0.81245-0.39997-1.0105-0.44125-2.1103-0.44125zm13.833 18.91c-0.28506-0.0088-1.0232 0.71657-1.5356 1.5093-1.7756 2.7472-2.4833 8.3982-1.4953 11.942 0.1876 0.67289 2.5173 4.8058 10.125 17.963 5.4345 9.3987 10.088 17.319 10.342 17.6 1.36 1.5105 3.6089 1.9538 5.5328 1.0904 1.8174-0.81558 2.9518-2.7503 2.7833-4.7473-0.0414-0.49044-0.19729-1.1642-0.34638-1.4972s-1.4133-2.5734-2.8094-4.9785l-2.5381-4.373 8.4912-0.1345 0.80732-0.37686c1.0516-0.49066 1.9705-1.4053 2.4451-2.4341 0.32159-0.697 0.37921-0.99619 0.37974-1.9658 0-0.97143-0.0559-1.2653-0.37581-1.951-0.49034-1.0509-1.4055-1.9702-2.4343-2.4456l-0.82205-0.38007-14.134-0.07828-7.1285-12.369c-3.9207-6.8028-7.1996-12.371-7.2864-12.374zm-33.671 36.659c-0.76339 0.0016-1.4091 0.06779-1.6788 0.20603-0.28856 0.14796-0.80331 0.91041-1.9968 2.9578-2.3989 4.1154-2.5802 4.5266-2.577 5.8447 5e-3 2.087 1.1405 3.7345 3.126 4.5357 0.90626 0.36571 2.7889 0.28478 3.7202-0.15978 1.2426-0.59309 1.8226-1.3646 4.4466-5.9149l2.4443-4.2385-0.21629-0.38501c-0.57539-1.0247-2.2962-2.042-4.291-2.5371-0.82015-0.20353-1.9958-0.31054-2.9773-0.30906z" opacity="1" stroke-width=".4"/>
<path d="m217.88-12.488c-1.0688 0-1.3094 0.04677-2.0138 0.39262-1.0206 0.50113-1.883 1.3647-2.3363 2.3392-0.48141 1.035-0.56864 2.6184-0.19789 3.5922 0.14088 0.37002 1.4297 2.6989 2.864 5.1754 1.4343 2.4765 2.6112 4.5957 2.6154 4.7094 4e-3 0.11369-3.5311 6.335-7.8562 13.825l-7.8638 13.618-14.278 0.07828-0.80733 0.37659c-1.0516 0.49067-1.9704 1.4053-2.4451 2.4341-0.32158 0.697-0.37947 0.99646-0.38001 1.966 0 0.97164 0.0562 1.2652 0.37633 1.951 0.63763 1.366 1.8987 2.4191 3.2892 2.7468 0.28127 0.06632 10.618 0.12493 23.325 0.13246l22.82 0.01367 0.2565-0.28382c0.21604-0.23908 0.25512-0.4876 0.24887-1.581-0.0189-3.3162-1.9316-6.482-4.5494-7.5306-0.48919-0.19595-1.5335-0.23127-8.6373-0.29145l-8.0809-0.06833 2.3066-3.9694c14.352-24.696 18.987-32.734 19.207-33.302 0.20263-0.52495 0.24771-0.9093 0.20446-1.7492-0.0981-1.9046-1.045-3.351-2.7379-4.1822-0.70401-0.34567-0.94527-0.39262-2.011-0.39262-1.0528 0-1.3215 0.05094-2.0575 0.39078-1.1671 0.53892-1.8728 1.3683-3.3145 3.8958-0.66033 1.1577-1.2425 2.1048-1.2938 2.1048-0.0512 0-0.631-0.94527-1.2885-2.1006-1.4486-2.5454-2.0502-3.2571-3.2535-3.8495-0.81245-0.39997-1.0105-0.44125-2.1103-0.44125zm13.833 18.91c-0.28506-0.0088-1.0232 0.71657-1.5356 1.5093-1.7756 2.7472-2.4833 8.3982-1.4953 11.942 0.1876 0.67289 2.5173 4.8058 10.125 17.963 5.4345 9.3987 10.088 17.319 10.342 17.6 1.36 1.5105 3.6089 1.9538 5.5328 1.0904 1.8174-0.81558 2.9518-2.7503 2.7833-4.7473-0.0414-0.49044-0.19729-1.1642-0.34638-1.4972s-1.4133-2.5734-2.8094-4.9785l-2.5381-4.373 8.4912-0.1345 0.80732-0.37686c1.0516-0.49066 1.9705-1.4053 2.4451-2.4341 0.32159-0.697 0.37921-0.99619 0.37974-1.9658 0-0.97143-0.0559-1.2653-0.37581-1.951-0.49034-1.0509-1.4055-1.9702-2.4343-2.4456l-0.82205-0.38007-14.134-0.07828-7.1285-12.369c-3.9207-6.8028-7.1996-12.371-7.2864-12.374zm-33.671 36.659c-0.76339 0.0016-1.4091 0.06779-1.6788 0.20603-0.28856 0.14796-0.80331 0.91041-1.9968 2.9578-2.3989 4.1154-2.5802 4.5266-2.577 5.8447 5e-3 2.087 1.1405 3.7345 3.126 4.5357 0.90626 0.36571 2.7889 0.28478 3.7202-0.15978 1.2426-0.59309 1.8226-1.3646 4.4466-5.9149l2.4443-4.2385-0.21629-0.38501c-0.57539-1.0247-2.2962-2.042-4.291-2.5371-0.82015-0.20353-1.9958-0.31054-2.9773-0.30906z" opacity="1" stroke-width=".6"/>
<path d="m217.88-12.488c-1.0688 0-1.3094 0.04677-2.0138 0.39262-1.0206 0.50113-1.883 1.3647-2.3363 2.3392-0.48141 1.035-0.56864 2.6184-0.19789 3.5922 0.14088 0.37002 1.4297 2.6989 2.864 5.1754 1.4343 2.4765 2.6112 4.5957 2.6154 4.7094 4e-3 0.11369-3.5311 6.335-7.8562 13.825l-7.8638 13.618-14.278 0.07828-0.80733 0.37659c-1.0516 0.49067-1.9704 1.4053-2.4451 2.4341-0.32158 0.697-0.37947 0.99646-0.38001 1.966 0 0.97164 0.0562 1.2652 0.37633 1.951 0.63763 1.366 1.8987 2.4191 3.2892 2.7468 0.28127 0.06632 10.618 0.12493 23.325 0.13246l22.82 0.01367 0.2565-0.28382c0.21604-0.23908 0.25512-0.4876 0.24887-1.581-0.0189-3.3162-1.9316-6.482-4.5494-7.5306-0.48919-0.19595-1.5335-0.23127-8.6373-0.29145l-8.0809-0.06833 2.3066-3.9694c14.352-24.696 18.987-32.734 19.207-33.302 0.20263-0.52495 0.24771-0.9093 0.20446-1.7492-0.0981-1.9046-1.045-3.351-2.7379-4.1822-0.70401-0.34567-0.94527-0.39262-2.011-0.39262-1.0528 0-1.3215 0.05094-2.0575 0.39078-1.1671 0.53892-1.8728 1.3683-3.3145 3.8958-0.66033 1.1577-1.2425 2.1048-1.2938 2.1048-0.0512 0-0.631-0.94527-1.2885-2.1006-1.4486-2.5454-2.0502-3.2571-3.2535-3.8495-0.81245-0.39997-1.0105-0.44125-2.1103-0.44125zm13.833 18.91c-0.28506-0.0088-1.0232 0.71657-1.5356 1.5093-1.7756 2.7472-2.4833 8.3982-1.4953 11.942 0.1876 0.67289 2.5173 4.8058 10.125 17.963 5.4345 9.3987 10.088 17.319 10.342 17.6 1.36 1.5105 3.6089 1.9538 5.5328 1.0904 1.8174-0.81558 2.9518-2.7503 2.7833-4.7473-0.0414-0.49044-0.19729-1.1642-0.34638-1.4972s-1.4133-2.5734-2.8094-4.9785l-2.5381-4.373 8.4912-0.1345 0.80732-0.37686c1.0516-0.49066 1.9705-1.4053 2.4451-2.4341 0.32159-0.697 0.37921-0.99619 0.37974-1.9658 0-0.97143-0.0559-1.2653-0.37581-1.951-0.49034-1.0509-1.4055-1.9702-2.4343-2.4456l-0.82205-0.38007-14.134-0.07828-7.1285-12.369c-3.9207-6.8028-7.1996-12.371-7.2864-12.374zm-33.671 36.659c-0.76339 0.0016-1.4091 0.06779-1.6788 0.20603-0.28856 0.14796-0.80331 0.91041-1.9968 2.9578-2.3989 4.1154-2.5802 4.5266-2.577 5.8447 5e-3 2.087 1.1405 3.7345 3.126 4.5357 0.90626 0.36571 2.7889 0.28478 3.7202-0.15978 1.2426-0.59309 1.8226-1.3646 4.4466-5.9149l2.4443-4.2385-0.21629-0.38501c-0.57539-1.0247-2.2962-2.042-4.291-2.5371-0.82015-0.20353-1.9958-0.31054-2.9773-0.30906z" opacity="1" stroke-width=".8"/>
<path d="m217.88-12.488c-1.0688 0-1.3094 0.04677-2.0138 0.39262-1.0206 0.50113-1.883 1.3647-2.3363 2.3392-0.48141 1.035-0.56864 2.6184-0.19789 3.5922 0.14088 0.37002 1.4297 2.6989 2.864 5.1754 1.4343 2.4765 2.6112 4.5957 2.6154 4.7094 4e-3 0.11369-3.5311 6.335-7.8562 13.825l-7.8638 13.618-14.278 0.07828-0.80733 0.37659c-1.0516 0.49067-1.9704 1.4053-2.4451 2.4341-0.32158 0.697-0.37947 0.99646-0.38001 1.966 0 0.97164 0.0562 1.2652 0.37633 1.951 0.63763 1.366 1.8987 2.4191 3.2892 2.7468 0.28127 0.06632 10.618 0.12493 23.325 0.13246l22.82 0.01367 0.2565-0.28382c0.21604-0.23908 0.25512-0.4876 0.24887-1.581-0.0189-3.3162-1.9316-6.482-4.5494-7.5306-0.48919-0.19595-1.5335-0.23127-8.6373-0.29145l-8.0809-0.06833 2.3066-3.9694c14.352-24.696 18.987-32.734 19.207-33.302 0.20263-0.52495 0.24771-0.9093 0.20446-1.7492-0.0981-1.9046-1.045-3.351-2.7379-4.1822-0.70401-0.34567-0.94527-0.39262-2.011-0.39262-1.0528 0-1.3215 0.05094-2.0575 0.39078-1.1671 0.53892-1.8728 1.3683-3.3145 3.8958-0.66033 1.1577-1.2425 2.1048-1.2938 2.1048-0.0512 0-0.631-0.94527-1.2885-2.1006-1.4486-2.5454-2.0502-3.2571-3.2535-3.8495-0.81245-0.39997-1.0105-0.44125-2.1103-0.44125zm13.833 18.91c-0.28506-0.0088-1.0232 0.71657-1.5356 1.5093-1.7756 2.7472-2.4833 8.3982-1.4953 11.942 0.1876 0.67289 2.5173 4.8058 10.125 17.963 5.4345 9.3987 10.088 17.319 10.342 17.6 1.36 1.5105 3.6089 1.9538 5.5328 1.0904 1.8174-0.81558 2.9518-2.7503 2.7833-4.7473-0.0414-0.49044-0.19729-1.1642-0.34638-1.4972s-1.4133-2.5734-2.8094-4.9785l-2.5381-4.373 8.4912-0.1345 0.80732-0.37686c1.0516-0.49066 1.9705-1.4053 2.4451-2.4341 0.32159-0.697 0.37921-0.99619 0.37974-1.9658 0-0.97143-0.0559-1.2653-0.37581-1.951-0.49034-1.0509-1.4055-1.9702-2.4343-2.4456l-0.82205-0.38007-14.134-0.07828-7.1285-12.369c-3.9207-6.8028-7.1996-12.371-7.2864-12.374zm-33.671 36.659c-0.76339 0.0016-1.4091 0.06779-1.6788 0.20603-0.28856 0.14796-0.80331 0.91041-1.9968 2.9578-2.3989 4.1154-2.5802 4.5266-2.577 5.8447 5e-3 2.087 1.1405 3.7345 3.126 4.5357 0.90626 0.36571 2.7889 0.28478 3.7202-0.15978 1.2426-0.59309 1.8226-1.3646 4.4466-5.9149l2.4443-4.2385-0.21629-0.38501c-0.57539-1.0247-2.2962-2.042-4.291-2.5371-0.82015-0.20353-1.9958-0.31054-2.9773-0.30906z" opacity="1"/>
<path d="m217.88-12.488c-1.0688 0-1.3094 0.04677-2.0138 0.39262-1.0206 0.50113-1.883 1.3647-2.3363 2.3392-0.48141 1.035-0.56864 2.6184-0.19789 3.5922 0.14088 0.37002 1.4297 2.6989 2.864 5.1754 1.4343 2.4765 2.6112 4.5957 2.6154 4.7094 4e-3 0.11369-3.5311 6.335-7.8562 13.825l-7.8638 13.618-14.278 0.07828-0.80733 0.37659c-1.0516 0.49067-1.9704 1.4053-2.4451 2.4341-0.32158 0.697-0.37947 0.99646-0.38001 1.966 0 0.97164 0.0562 1.2652 0.37633 1.951 0.63763 1.366 1.8987 2.4191 3.2892 2.7468 0.28127 0.06632 10.618 0.12493 23.325 0.13246l22.82 0.01367 0.2565-0.28382c0.21604-0.23908 0.25512-0.4876 0.24887-1.581-0.0189-3.3162-1.9316-6.482-4.5494-7.5306-0.48919-0.19595-1.5335-0.23127-8.6373-0.29145l-8.0809-0.06833 2.3066-3.9694c14.352-24.696 18.987-32.734 19.207-33.302 0.20263-0.52495 0.24771-0.9093 0.20446-1.7492-0.0981-1.9046-1.045-3.351-2.7379-4.1822-0.70401-0.34567-0.94527-0.39262-2.011-0.39262-1.0528 0-1.3215 0.05094-2.0575 0.39078-1.1671 0.53892-1.8728 1.3683-3.3145 3.8958-0.66033 1.1577-1.2425 2.1048-1.2938 2.1048-0.0512 0-0.631-0.94527-1.2885-2.1006-1.4486-2.5454-2.0502-3.2571-3.2535-3.8495-0.81245-0.39997-1.0105-0.44125-2.1103-0.44125zm13.833 18.91c-0.28506-0.0088-1.0232 0.71657-1.5356 1.5093-1.7756 2.7472-2.4833 8.3982-1.4953 11.942 0.1876 0.67289 2.5173 4.8058 10.125 17.963 5.4345 9.3987 10.088 17.319 10.342 17.6 1.36 1.5105 3.6089 1.9538 5.5328 1.0904 1.8174-0.81558 2.9518-2.7503 2.7833-4.7473-0.0414-0.49044-0.19729-1.1642-0.34638-1.4972s-1.4133-2.5734-2.8094-4.9785l-2.5381-4.373 8.4912-0.1345 0.80732-0.37686c1.0516-0.49066 1.9705-1.4053 2.4451-2.4341 0.32159-0.697 0.37921-0.99619 0.37974-1.9658 0-0.97143-0.0559-1.2653-0.37581-1.951-0.49034-1.0509-1.4055-1.9702-2.4343-2.4456l-0.82205-0.38007-14.134-0.07828-7.1285-12.369c-3.9207-6.8028-7.1996-12.371-7.2864-12.374zm-33.671 36.659c-0.76339 0.0016-1.4091 0.06779-1.6788 0.20603-0.28856 0.14796-0.80331 0.91041-1.9968 2.9578-2.3989 4.1154-2.5802 4.5266-2.577 5.8447 5e-3 2.087 1.1405 3.7345 3.126 4.5357 0.90626 0.36571 2.7889 0.28478 3.7202-0.15978 1.2426-0.59309 1.8226-1.3646 4.4466-5.9149l2.4443-4.2385-0.21629-0.38501c-0.57539-1.0247-2.2962-2.042-4.291-2.5371-0.82015-0.20353-1.9958-0.31054-2.9773-0.30906z" opacity="1" stroke-width="1.2"/>
<path d="m217.88-12.488c-1.0688 0-1.3094 0.04677-2.0138 0.39262-1.0206 0.50113-1.883 1.3647-2.3363 2.3392-0.48141 1.035-0.56864 2.6184-0.19789 3.5922 0.14088 0.37002 1.4297 2.6989 2.864 5.1754 1.4343 2.4765 2.6112 4.5957 2.6154 4.7094 4e-3 0.11369-3.5311 6.335-7.8562 13.825l-7.8638 13.618-14.278 0.07828-0.80733 0.37659c-1.0516 0.49067-1.9704 1.4053-2.4451 2.4341-0.32158 0.697-0.37947 0.99646-0.38001 1.966 0 0.97164 0.0562 1.2652 0.37633 1.951 0.63763 1.366 1.8987 2.4191 3.2892 2.7468 0.28127 0.06632 10.618 0.12493 23.325 0.13246l22.82 0.01367 0.2565-0.28382c0.21604-0.23908 0.25512-0.4876 0.24887-1.581-0.0189-3.3162-1.9316-6.482-4.5494-7.5306-0.48919-0.19595-1.5335-0.23127-8.6373-0.29145l-8.0809-0.06833 2.3066-3.9694c14.352-24.696 18.987-32.734 19.207-33.302 0.20263-0.52495 0.24771-0.9093 0.20446-1.7492-0.0981-1.9046-1.045-3.351-2.7379-4.1822-0.70401-0.34567-0.94527-0.39262-2.011-0.39262-1.0528 0-1.3215 0.05094-2.0575 0.39078-1.1671 0.53892-1.8728 1.3683-3.3145 3.8958-0.66033 1.1577-1.2425 2.1048-1.2938 2.1048-0.0512 0-0.631-0.94527-1.2885-2.1006-1.4486-2.5454-2.0502-3.2571-3.2535-3.8495-0.81245-0.39997-1.0105-0.44125-2.1103-0.44125zm13.833 18.91c-0.28506-0.0088-1.0232 0.71657-1.5356 1.5093-1.7756 2.7472-2.4833 8.3982-1.4953 11.942 0.1876 0.67289 2.5173 4.8058 10.125 17.963 5.4345 9.3987 10.088 17.319 10.342 17.6 1.36 1.5105 3.6089 1.9538 5.5328 1.0904 1.8174-0.81558 2.9518-2.7503 2.7833-4.7473-0.0414-0.49044-0.19729-1.1642-0.34638-1.4972s-1.4133-2.5734-2.8094-4.9785l-2.5381-4.373 8.4912-0.1345 0.80732-0.37686c1.0516-0.49066 1.9705-1.4053 2.4451-2.4341 0.32159-0.697 0.37921-0.99619 0.37974-1.9658 0-0.97143-0.0559-1.2653-0.37581-1.951-0.49034-1.0509-1.4055-1.9702-2.4343-2.4456l-0.82205-0.38007-14.134-0.07828-7.1285-12.369c-3.9207-6.8028-7.1996-12.371-7.2864-12.374zm-33.671 36.659c-0.76339 0.0016-1.4091 0.06779-1.6788 0.20603-0.28856 0.14796-0.80331 0.91041-1.9968 2.9578-2.3989 4.1154-2.5802 4.5266-2.577 5.8447 5e-3 2.087 1.1405 3.7345 3.126 4.5357 0.90626 0.36571 2.7889 0.28478 3.7202-0.15978 1.2426-0.59309 1.8226-1.3646 4.4466-5.9149l2.4443-4.2385-0.21629-0.38501c-0.57539-1.0247-2.2962-2.042-4.291-2.5371-0.82015-0.20353-1.9958-0.31054-2.9773-0.30906z" opacity="1" stroke-width="1.6"/>
<path d="m217.88-12.488c-1.0688 0-1.3094 0.04677-2.0138 0.39262-1.0206 0.50113-1.883 1.3647-2.3363 2.3392-0.48141 1.035-0.56864 2.6184-0.19789 3.5922 0.14088 0.37002 1.4297 2.6989 2.864 5.1754 1.4343 2.4765 2.6112 4.5957 2.6154 4.7094 4e-3 0.11369-3.5311 6.335-7.8562 13.825l-7.8638 13.618-14.278 0.07828-0.80733 0.37659c-1.0516 0.49067-1.9704 1.4053-2.4451 2.4341-0.32158 0.697-0.37947 0.99646-0.38001 1.966 0 0.97164 0.0562 1.2652 0.37633 1.951 0.63763 1.366 1.8987 2.4191 3.2892 2.7468 0.28127 0.06632 10.618 0.12493 23.325 0.13246l22.82 0.01367 0.2565-0.28382c0.21604-0.23908 0.25512-0.4876 0.24887-1.581-0.0189-3.3162-1.9316-6.482-4.5494-7.5306-0.48919-0.19595-1.5335-0.23127-8.6373-0.29145l-8.0809-0.06833 2.3066-3.9694c14.352-24.696 18.987-32.734 19.207-33.302 0.20263-0.52495 0.24771-0.9093 0.20446-1.7492-0.0981-1.9046-1.045-3.351-2.7379-4.1822-0.70401-0.34567-0.94527-0.39262-2.011-0.39262-1.0528 0-1.3215 0.05094-2.0575 0.39078-1.1671 0.53892-1.8728 1.3683-3.3145 3.8958-0.66033 1.1577-1.2425 2.1048-1.2938 2.1048-0.0512 0-0.631-0.94527-1.2885-2.1006-1.4486-2.5454-2.0502-3.2571-3.2535-3.8495-0.81245-0.39997-1.0105-0.44125-2.1103-0.44125zm13.833 18.91c-0.28506-0.0088-1.0232 0.71657-1.5356 1.5093-1.7756 2.7472-2.4833 8.3982-1.4953 11.942 0.1876 0.67289 2.5173 4.8058 10.125 17.963 5.4345 9.3987 10.088 17.319 10.342 17.6 1.36 1.5105 3.6089 1.9538 5.5328 1.0904 1.8174-0.81558 2.9518-2.7503 2.7833-4.7473-0.0414-0.49044-0.19729-1.1642-0.34638-1.4972s-1.4133-2.5734-2.8094-4.9785l-2.5381-4.373 8.4912-0.1345 0.80732-0.37686c1.0516-0.49066 1.9705-1.4053 2.4451-2.4341 0.32159-0.697 0.37921-0.99619 0.37974-1.9658 0-0.97143-0.0559-1.2653-0.37581-1.951-0.49034-1.0509-1.4055-1.9702-2.4343-2.4456l-0.82205-0.38007-14.134-0.07828-7.1285-12.369c-3.9207-6.8028-7.1996-12.371-7.2864-12.374zm-33.671 36.659c-0.76339 0.0016-1.4091 0.06779-1.6788 0.20603-0.28856 0.14796-0.80331 0.91041-1.9968 2.9578-2.3989 4.1154-2.5802 4.5266-2.577 5.8447 5e-3 2.087 1.1405 3.7345 3.126 4.5357 0.90626 0.36571 2.7889 0.28478 3.7202-0.15978 1.2426-0.59309 1.8226-1.3646 4.4466-5.9149l2.4443-4.2385-0.21629-0.38501c-0.57539-1.0247-2.2962-2.042-4.291-2.5371-0.82015-0.20353-1.9958-0.31054-2.9773-0.30906z" opacity="1" stroke-width="2"/>
<path d="m217.88-12.488c-1.0688 0-1.3094 0.04677-2.0138 0.39262-1.0206 0.50113-1.883 1.3647-2.3363 2.3392-0.48141 1.035-0.56864 2.6184-0.19789 3.5922 0.14088 0.37002 1.4297 2.6989 2.864 5.1754 1.4343 2.4765 2.6112 4.5957 2.6154 4.7094 4e-3 0.11369-3.5311 6.335-7.8562 13.825l-7.8638 13.618-14.278 0.07828-0.80733 0.37659c-1.0516 0.49067-1.9704 1.4053-2.4451 2.4341-0.32158 0.697-0.37947 0.99646-0.38001 1.966 0 0.97164 0.0562 1.2652 0.37633 1.951 0.63763 1.366 1.8987 2.4191 3.2892 2.7468 0.28127 0.06632 10.618 0.12493 23.325 0.13246l22.82 0.01367 0.2565-0.28382c0.21604-0.23908 0.25512-0.4876 0.24887-1.581-0.0189-3.3162-1.9316-6.482-4.5494-7.5306-0.48919-0.19595-1.5335-0.23127-8.6373-0.29145l-8.0809-0.06833 2.3066-3.9694c14.352-24.696 18.987-32.734 19.207-33.302 0.20263-0.52495 0.24771-0.9093 0.20446-1.7492-0.0981-1.9046-1.045-3.351-2.7379-4.1822-0.70401-0.34567-0.94527-0.39262-2.011-0.39262-1.0528 0-1.3215 0.05094-2.0575 0.39078-1.1671 0.53892-1.8728 1.3683-3.3145 3.8958-0.66033 1.1577-1.2425 2.1048-1.2938 2.1048-0.0512 0-0.631-0.94527-1.2885-2.1006-1.4486-2.5454-2.0502-3.2571-3.2535-3.8495-0.81245-0.39997-1.0105-0.44125-2.1103-0.44125zm13.833 18.91c-0.28506-0.0088-1.0232 0.71657-1.5356 1.5093-1.7756 2.7472-2.4833 8.3982-1.4953 11.942 0.1876 0.67289 2.5173 4.8058 10.125 17.963 5.4345 9.3987 10.088 17.319 10.342 17.6 1.36 1.5105 3.6089 1.9538 5.5328 1.0904 1.8174-0.81558 2.9518-2.7503 2.7833-4.7473-0.0414-0.49044-0.19729-1.1642-0.34638-1.4972s-1.4133-2.5734-2.8094-4.9785l-2.5381-4.373 8.4912-0.1345 0.80732-0.37686c1.0516-0.49066 1.9705-1.4053 2.4451-2.4341 0.32159-0.697 0.37921-0.99619 0.37974-1.9658 0-0.97143-0.0559-1.2653-0.37581-1.951-0.49034-1.0509-1.4055-1.9702-2.4343-2.4456l-0.82205-0.38007-14.134-0.07828-7.1285-12.369c-3.9207-6.8028-7.1996-12.371-7.2864-12.374zm-33.671 36.659c-0.76339 0.0016-1.4091 0.06779-1.6788 0.20603-0.28856 0.14796-0.80331 0.91041-1.9968 2.9578-2.3989 4.1154-2.5802 4.5266-2.577 5.8447 5e-3 2.087 1.1405 3.7345 3.126 4.5357 0.90626 0.36571 2.7889 0.28478 3.7202-0.15978 1.2426-0.59309 1.8226-1.3646 4.4466-5.9149l2.4443-4.2385-0.21629-0.38501c-0.57539-1.0247-2.2962-2.042-4.291-2.5371-0.82015-0.20353-1.9958-0.31054-2.9773-0.30906z" opacity="1" stroke-width="2.4"/>
<path d="m217.88-12.488c-1.0688 0-1.3094 0.04677-2.0138 0.39262-1.0206 0.50113-1.883 1.3647-2.3363 2.3392-0.48141 1.035-0.56864 2.6184-0.19789 3.5922 0.14088 0.37002 1.4297 2.6989 2.864 5.1754 1.4343 2.4765 2.6112 4.5957 2.6154 4.7094 4e-3 0.11369-3.5311 6.335-7.8562 13.825l-7.8638 13.618-14.278 0.07828-0.80733 0.37659c-1.0516 0.49067-1.9704 1.4053-2.4451 2.4341-0.32158 0.697-0.37947 0.99646-0.38001 1.966 0 0.97164 0.0562 1.2652 0.37633 1.951 0.63763 1.366 1.8987 2.4191 3.2892 2.7468 0.28127 0.06632 10.618 0.12493 23.325 0.13246l22.82 0.01367 0.2565-0.28382c0.21604-0.23908 0.25512-0.4876 0.24887-1.581-0.0189-3.3162-1.9316-6.482-4.5494-7.5306-0.48919-0.19595-1.5335-0.23127-8.6373-0.29145l-8.0809-0.06833 2.3066-3.9694c14.352-24.696 18.987-32.734 19.207-33.302 0.20263-0.52495 0.24771-0.9093 0.20446-1.7492-0.0981-1.9046-1.045-3.351-2.7379-4.1822-0.70401-0.34567-0.94527-0.39262-2.011-0.39262-1.0528 0-1.3215 0.05094-2.0575 0.39078-1.1671 0.53892-1.8728 1.3683-3.3145 3.8958-0.66033 1.1577-1.2425 2.1048-1.2938 2.1048-0.0512 0-0.631-0.94527-1.2885-2.1006-1.4486-2.5454-2.0502-3.2571-3.2535-3.8495-0.81245-0.39997-1.0105-0.44125-2.1103-0.44125zm13.833 18.91c-0.28506-0.0088-1.0232 0.71657-1.5356 1.5093-1.7756 2.7472-2.4833 8.3982-1.4953 11.942 0.1876 0.67289 2.5173 4.8058 10.125 17.963 5.4345 9.3987 10.088 17.319 10.342 17.6 1.36 1.5105 3.6089 1.9538 5.5328 1.0904 1.8174-0.81558 2.9518-2.7503 2.7833-4.7473-0.0414-0.49044-0.19729-1.1642-0.34638-1.4972s-1.4133-2.5734-2.8094-4.9785l-2.5381-4.373 8.4912-0.1345 0.80732-0.37686c1.0516-0.49066 1.9705-1.4053 2.4451-2.4341 0.32159-0.697 0.37921-0.99619 0.37974-1.9658 0-0.97143-0.0559-1.2653-0.37581-1.951-0.49034-1.0509-1.4055-1.9702-2.4343-2.4456l-0.82205-0.38007-14.134-0.07828-7.1285-12.369c-3.9207-6.8028-7.1996-12.371-7.2864-12.374zm-33.671 36.659c-0.76339 0.0016-1.4091 0.06779-1.6788 0.20603-0.28856 0.14796-0.80331 0.91041-1.9968 2.9578-2.3989 4.1154-2.5802 4.5266-2.577 5.8447 5e-3 2.087 1.1405 3.7345 3.126 4.5357 0.90626 0.36571 2.7889 0.28478 3.7202-0.15978 1.2426-0.59309 1.8226-1.3646 4.4466-5.9149l2.4443-4.2385-0.21629-0.38501c-0.57539-1.0247-2.2962-2.042-4.291-2.5371-0.82015-0.20353-1.9958-0.31054-2.9773-0.30906z" opacity="1" stroke-width="2.8"/>
<path d="m217.88-12.488c-1.0688 0-1.3094 0.04677-2.0138 0.39262-1.0206 0.50113-1.883 1.3647-2.3363 2.3392-0.48141 1.035-0.56864 2.6184-0.19789 3.5922 0.14088 0.37002 1.4297 2.6989 2.864 5.1754 1.4343 2.4765 2.6112 4.5957 2.6154 4.7094 4e-3 0.11369-3.5311 6.335-7.8562 13.825l-7.8638 13.618-14.278 0.07828-0.80733 0.37659c-1.0516 0.49067-1.9704 1.4053-2.4451 2.4341-0.32158 0.697-0.37947 0.99646-0.38001 1.966 0 0.97164 0.0562 1.2652 0.37633 1.951 0.63763 1.366 1.8987 2.4191 3.2892 2.7468 0.28127 0.06632 10.618 0.12493 23.325 0.13246l22.82 0.01367 0.2565-0.28382c0.21604-0.23908 0.25512-0.4876 0.24887-1.581-0.0189-3.3162-1.9316-6.482-4.5494-7.5306-0.48919-0.19595-1.5335-0.23127-8.6373-0.29145l-8.0809-0.06833 2.3066-3.9694c14.352-24.696 18.987-32.734 19.207-33.302 0.20263-0.52495 0.24771-0.9093 0.20446-1.7492-0.0981-1.9046-1.045-3.351-2.7379-4.1822-0.70401-0.34567-0.94527-0.39262-2.011-0.39262-1.0528 0-1.3215 0.05094-2.0575 0.39078-1.1671 0.53892-1.8728 1.3683-3.3145 3.8958-0.66033 1.1577-1.2425 2.1048-1.2938 2.1048-0.0512 0-0.631-0.94527-1.2885-2.1006-1.4486-2.5454-2.0502-3.2571-3.2535-3.8495-0.81245-0.39997-1.0105-0.44125-2.1103-0.44125zm13.833 18.91c-0.28506-0.0088-1.0232 0.71657-1.5356 1.5093-1.7756 2.7472-2.4833 8.3982-1.4953 11.942 0.1876 0.67289 2.5173 4.8058 10.125 17.963 5.4345 9.3987 10.088 17.319 10.342 17.6 1.36 1.5105 3.6089 1.9538 5.5328 1.0904 1.8174-0.81558 2.9518-2.7503 2.7833-4.7473-0.0414-0.49044-0.19729-1.1642-0.34638-1.4972s-1.4133-2.5734-2.8094-4.9785l-2.5381-4.373 8.4912-0.1345 0.80732-0.37686c1.0516-0.49066 1.9705-1.4053 2.4451-2.4341 0.32159-0.697 0.37921-0.99619 0.37974-1.9658 0-0.97143-0.0559-1.2653-0.37581-1.951-0.49034-1.0509-1.4055-1.9702-2.4343-2.4456l-0.82205-0.38007-14.134-0.07828-7.1285-12.369c-3.9207-6.8028-7.1996-12.371-7.2864-12.374zm-33.671 36.659c-0.76339 0.0016-1.4091 0.06779-1.6788 0.20603-0.28856 0.14796-0.80331 0.91041-1.9968 2.9578-2.3989 4.1154-2.5802 4.5266-2.577 5.8447 5e-3 2.087 1.1405 3.7345 3.126 4.5357 0.90626 0.36571 2.7889 0.28478 3.7202-0.15978 1.2426-0.59309 1.8226-1.3646 4.4466-5.9149l2.4443-4.2385-0.21629-0.38501c-0.57539-1.0247-2.2962-2.042-4.291-2.5371-0.82015-0.20353-1.9958-0.31054-2.9773-0.30906z" opacity="1" stroke-width="3.2"/>
<path d="m217.88-12.488c-1.0688 0-1.3094 0.04677-2.0138 0.39262-1.0206 0.50113-1.883 1.3647-2.3363 2.3392-0.48141 1.035-0.56864 2.6184-0.19789 3.5922 0.14088 0.37002 1.4297 2.6989 2.864 5.1754 1.4343 2.4765 2.6112 4.5957 2.6154 4.7094 4e-3 0.11369-3.5311 6.335-7.8562 13.825l-7.8638 13.618-14.278 0.07828-0.80733 0.37659c-1.0516 0.49067-1.9704 1.4053-2.4451 2.4341-0.32158 0.697-0.37947 0.99646-0.38001 1.966 0 0.97164 0.0562 1.2652 0.37633 1.951 0.63763 1.366 1.8987 2.4191 3.2892 2.7468 0.28127 0.06632 10.618 0.12493 23.325 0.13246l22.82 0.01367 0.2565-0.28382c0.21604-0.23908 0.25512-0.4876 0.24887-1.581-0.0189-3.3162-1.9316-6.482-4.5494-7.5306-0.48919-0.19595-1.5335-0.23127-8.6373-0.29145l-8.0809-0.06833 2.3066-3.9694c14.352-24.696 18.987-32.734 19.207-33.302 0.20263-0.52495 0.24771-0.9093 0.20446-1.7492-0.0981-1.9046-1.045-3.351-2.7379-4.1822-0.70401-0.34567-0.94527-0.39262-2.011-0.39262-1.0528 0-1.3215 0.05094-2.0575 0.39078-1.1671 0.53892-1.8728 1.3683-3.3145 3.8958-0.66033 1.1577-1.2425 2.1048-1.2938 2.1048-0.0512 0-0.631-0.94527-1.2885-2.1006-1.4486-2.5454-2.0502-3.2571-3.2535-3.8495-0.81245-0.39997-1.0105-0.44125-2.1103-0.44125zm13.833 18.91c-0.28506-0.0088-1.0232 0.71657-1.5356 1.5093-1.7756 2.7472-2.4833 8.3982-1.4953 11.942 0.1876 0.67289 2.5173 4.8058 10.125 17.963 5.4345 9.3987 10.088 17.319 10.342 17.6 1.36 1.5105 3.6089 1.9538 5.5328 1.0904 1.8174-0.81558 2.9518-2.7503 2.7833-4.7473-0.0414-0.49044-0.19729-1.1642-0.34638-1.4972s-1.4133-2.5734-2.8094-4.9785l-2.5381-4.373 8.4912-0.1345 0.80732-0.37686c1.0516-0.49066 1.9705-1.4053 2.4451-2.4341 0.32159-0.697 0.37921-0.99619 0.37974-1.9658 0-0.97143-0.0559-1.2653-0.37581-1.951-0.49034-1.0509-1.4055-1.9702-2.4343-2.4456l-0.82205-0.38007-14.134-0.07828-7.1285-12.369c-3.9207-6.8028-7.1996-12.371-7.2864-12.374zm-33.671 36.659c-0.76339 0.0016-1.4091 0.06779-1.6788 0.20603-0.28856 0.14796-0.80331 0.91041-1.9968 2.9578-2.3989 4.1154-2.5802 4.5266-2.577 5.8447 5e-3 2.087 1.1405 3.7345 3.126 4.5357 0.90626 0.36571 2.7889 0.28478 3.7202-0.15978 1.2426-0.59309 1.8226-1.3646 4.4466-5.9149l2.4443-4.2385-0.21629-0.38501c-0.57539-1.0247-2.2962-2.042-4.291-2.5371-0.82015-0.20353-1.9958-0.31054-2.9773-0.30906z" opacity="1" stroke-width="3.8"/>
<path d="m217.88-12.488c-1.0688 0-1.3094 0.04677-2.0138 0.39262-1.0206 0.50113-1.883 1.3647-2.3363 2.3392-0.48141 1.035-0.56864 2.6184-0.19789 3.5922 0.14088 0.37002 1.4297 2.6989 2.864 5.1754 1.4343 2.4765 2.6112 4.5957 2.6154 4.7094 4e-3 0.11369-3.5311 6.335-7.8562 13.825l-7.8638 13.618-14.278 0.07828-0.80733 0.37659c-1.0516 0.49067-1.9704 1.4053-2.4451 2.4341-0.32158 0.697-0.37947 0.99646-0.38001 1.966 0 0.97164 0.0562 1.2652 0.37633 1.951 0.63763 1.366 1.8987 2.4191 3.2892 2.7468 0.28127 0.06632 10.618 0.12493 23.325 0.13246l22.82 0.01367 0.2565-0.28382c0.21604-0.23908 0.25512-0.4876 0.24887-1.581-0.0189-3.3162-1.9316-6.482-4.5494-7.5306-0.48919-0.19595-1.5335-0.23127-8.6373-0.29145l-8.0809-0.06833 2.3066-3.9694c14.352-24.696 18.987-32.734 19.207-33.302 0.20263-0.52495 0.24771-0.9093 0.20446-1.7492-0.0981-1.9046-1.045-3.351-2.7379-4.1822-0.70401-0.34567-0.94527-0.39262-2.011-0.39262-1.0528 0-1.3215 0.05094-2.0575 0.39078-1.1671 0.53892-1.8728 1.3683-3.3145 3.8958-0.66033 1.1577-1.2425 2.1048-1.2938 2.1048-0.0512 0-0.631-0.94527-1.2885-2.1006-1.4486-2.5454-2.0502-3.2571-3.2535-3.8495-0.81245-0.39997-1.0105-0.44125-2.1103-0.44125zm13.833 18.91c-0.28506-0.0088-1.0232 0.71657-1.5356 1.5093-1.7756 2.7472-2.4833 8.3982-1.4953 11.942 0.1876 0.67289 2.5173 4.8058 10.125 17.963 5.4345 9.3987 10.088 17.319 10.342 17.6 1.36 1.5105 3.6089 1.9538 5.5328 1.0904 1.8174-0.81558 2.9518-2.7503 2.7833-4.7473-0.0414-0.49044-0.19729-1.1642-0.34638-1.4972s-1.4133-2.5734-2.8094-4.9785l-2.5381-4.373 8.4912-0.1345 0.80732-0.37686c1.0516-0.49066 1.9705-1.4053 2.4451-2.4341 0.32159-0.697 0.37921-0.99619 0.37974-1.9658 0-0.97143-0.0559-1.2653-0.37581-1.951-0.49034-1.0509-1.4055-1.9702-2.4343-2.4456l-0.82205-0.38007-14.134-0.07828-7.1285-12.369c-3.9207-6.8028-7.1996-12.371-7.2864-12.374zm-33.671 36.659c-0.76339 0.0016-1.4091 0.06779-1.6788 0.20603-0.28856 0.14796-0.80331 0.91041-1.9968 2.9578-2.3989 4.1154-2.5802 4.5266-2.577 5.8447 5e-3 2.087 1.1405 3.7345 3.126 4.5357 0.90626 0.36571 2.7889 0.28478 3.7202-0.15978 1.2426-0.59309 1.8226-1.3646 4.4466-5.9149l2.4443-4.2385-0.21629-0.38501c-0.57539-1.0247-2.2962-2.042-4.291-2.5371-0.82015-0.20353-1.9958-0.31054-2.9773-0.30906z" opacity="1" stroke-width="4.4"/>
<path d="m217.88-12.488c-1.0688 0-1.3094 0.04677-2.0138 0.39262-1.0206 0.50113-1.883 1.3647-2.3363 2.3392-0.48141 1.035-0.56864 2.6184-0.19789 3.5922 0.14088 0.37002 1.4297 2.6989 2.864 5.1754 1.4343 2.4765 2.6112 4.5957 2.6154 4.7094 4e-3 0.11369-3.5311 6.335-7.8562 13.825l-7.8638 13.618-14.278 0.07828-0.80733 0.37659c-1.0516 0.49067-1.9704 1.4053-2.4451 2.4341-0.32158 0.697-0.37947 0.99646-0.38001 1.966 0 0.97164 0.0562 1.2652 0.37633 1.951 0.63763 1.366 1.8987 2.4191 3.2892 2.7468 0.28127 0.06632 10.618 0.12493 23.325 0.13246l22.82 0.01367 0.2565-0.28382c0.21604-0.23908 0.25512-0.4876 0.24887-1.581-0.0189-3.3162-1.9316-6.482-4.5494-7.5306-0.48919-0.19595-1.5335-0.23127-8.6373-0.29145l-8.0809-0.06833 2.3066-3.9694c14.352-24.696 18.987-32.734 19.207-33.302 0.20263-0.52495 0.24771-0.9093 0.20446-1.7492-0.0981-1.9046-1.045-3.351-2.7379-4.1822-0.70401-0.34567-0.94527-0.39262-2.011-0.39262-1.0528 0-1.3215 0.05094-2.0575 0.39078-1.1671 0.53892-1.8728 1.3683-3.3145 3.8958-0.66033 1.1577-1.2425 2.1048-1.2938 2.1048-0.0512 0-0.631-0.94527-1.2885-2.1006-1.4486-2.5454-2.0502-3.2571-3.2535-3.8495-0.81245-0.39997-1.0105-0.44125-2.1103-0.44125zm13.833 18.91c-0.28506-0.0088-1.0232 0.71657-1.5356 1.5093-1.7756 2.7472-2.4833 8.3982-1.4953 11.942 0.1876 0.67289 2.5173 4.8058 10.125 17.963 5.4345 9.3987 10.088 17.319 10.342 17.6 1.36 1.5105 3.6089 1.9538 5.5328 1.0904 1.8174-0.81558 2.9518-2.7503 2.7833-4.7473-0.0414-0.49044-0.19729-1.1642-0.34638-1.4972s-1.4133-2.5734-2.8094-4.9785l-2.5381-4.373 8.4912-0.1345 0.80732-0.37686c1.0516-0.49066 1.9705-1.4053 2.4451-2.4341 0.32159-0.697 0.37921-0.99619 0.37974-1.9658 0-0.97143-0.0559-1.2653-0.37581-1.951-0.49034-1.0509-1.4055-1.9702-2.4343-2.4456l-0.82205-0.38007-14.134-0.07828-7.1285-12.369c-3.9207-6.8028-7.1996-12.371-7.2864-12.374zm-33.671 36.659c-0.76339 0.0016-1.4091 0.06779-1.6788 0.20603-0.28856 0.14796-0.80331 0.91041-1.9968 2.9578-2.3989 4.1154-2.5802 4.5266-2.577 5.8447 5e-3 2.087 1.1405 3.7345 3.126 4.5357 0.90626 0.36571 2.7889 0.28478 3.7202-0.15978 1.2426-0.59309 1.8226-1.3646 4.4466-5.9149l2.4443-4.2385-0.21629-0.38501c-0.57539-1.0247-2.2962-2.042-4.291-2.5371-0.82015-0.20353-1.9958-0.31054-2.9773-0.30906z" opacity="1" stroke-width="5"/>
<path d="m217.88-12.488c-1.0688 0-1.3094 0.04677-2.0138 0.39262-1.0206 0.50113-1.883 1.3647-2.3363 2.3392-0.48141 1.035-0.56864 2.6184-0.19789 3.5922 0.14088 0.37002 1.4297 2.6989 2.864 5.1754 1.4343 2.4765 2.6112 4.5957 2.6154 4.7094 4e-3 0.11369-3.5311 6.335-7.8562 13.825l-7.8638 13.618-14.278 0.07828-0.80733 0.37659c-1.0516 0.49067-1.9704 1.4053-2.4451 2.4341-0.32158 0.697-0.37947 0.99646-0.38001 1.966 0 0.97164 0.0562 1.2652 0.37633 1.951 0.63763 1.366 1.8987 2.4191 3.2892 2.7468 0.28127 0.06632 10.618 0.12493 23.325 0.13246l22.82 0.01367 0.2565-0.28382c0.21604-0.23908 0.25512-0.4876 0.24887-1.581-0.0189-3.3162-1.9316-6.482-4.5494-7.5306-0.48919-0.19595-1.5335-0.23127-8.6373-0.29145l-8.0809-0.06833 2.3066-3.9694c14.352-24.696 18.987-32.734 19.207-33.302 0.20263-0.52495 0.24771-0.9093 0.20446-1.7492-0.0981-1.9046-1.045-3.351-2.7379-4.1822-0.70401-0.34567-0.94527-0.39262-2.011-0.39262-1.0528 0-1.3215 0.05094-2.0575 0.39078-1.1671 0.53892-1.8728 1.3683-3.3145 3.8958-0.66033 1.1577-1.2425 2.1048-1.2938 2.1048-0.0512 0-0.631-0.94527-1.2885-2.1006-1.4486-2.5454-2.0502-3.2571-3.2535-3.8495-0.81245-0.39997-1.0105-0.44125-2.1103-0.44125zm13.833 18.91c-0.28506-0.0088-1.0232 0.71657-1.5356 1.5093-1.7756 2.7472-2.4833 8.3982-1.4953 11.942 0.1876 0.67289 2.5173 4.8058 10.125 17.963 5.4345 9.3987 10.088 17.319 10.342 17.6 1.36 1.5105 3.6089 1.9538 5.5328 1.0904 1.8174-0.81558 2.9518-2.7503 2.7833-4.7473-0.0414-0.49044-0.19729-1.1642-0.34638-1.4972s-1.4133-2.5734-2.8094-4.9785l-2.5381-4.373 8.4912-0.1345 0.80732-0.37686c1.0516-0.49066 1.9705-1.4053 2.4451-2.4341 0.32159-0.697 0.37921-0.99619 0.37974-1.9658 0-0.97143-0.0559-1.2653-0.37581-1.951-0.49034-1.0509-1.4055-1.9702-2.4343-2.4456l-0.82205-0.38007-14.134-0.07828-7.1285-12.369c-3.9207-6.8028-7.1996-12.371-7.2864-12.374zm-33.671 36.659c-0.76339 0.0016-1.4091 0.06779-1.6788 0.20603-0.28856 0.14796-0.80331 0.91041-1.9968 2.9578-2.3989 4.1154-2.5802 4.5266-2.577 5.8447 5e-3 2.087 1.1405 3.7345 3.126 4.5357 0.90626 0.36571 2.7889 0.28478 3.7202-0.15978 1.2426-0.59309 1.8226-1.3646 4.4466-5.9149l2.4443-4.2385-0.21629-0.38501c-0.57539-1.0247-2.2962-2.042-4.291-2.5371-0.82015-0.20353-1.9958-0.31054-2.9773-0.30906z" opacity="1" stroke-width="5.6"/>
<path d="m217.88-12.488c-1.0688 0-1.3094 0.04677-2.0138 0.39262-1.0206 0.50113-1.883 1.3647-2.3363 2.3392-0.48141 1.035-0.56864 2.6184-0.19789 3.5922 0.14088 0.37002 1.4297 2.6989 2.864 5.1754 1.4343 2.4765 2.6112 4.5957 2.6154 4.7094 4e-3 0.11369-3.5311 6.335-7.8562 13.825l-7.8638 13.618-14.278 0.07828-0.80733 0.37659c-1.0516 0.49067-1.9704 1.4053-2.4451 2.4341-0.32158 0.697-0.37947 0.99646-0.38001 1.966 0 0.97164 0.0562 1.2652 0.37633 1.951 0.63763 1.366 1.8987 2.4191 3.2892 2.7468 0.28127 0.06632 10.618 0.12493 23.325 0.13246l22.82 0.01367 0.2565-0.28382c0.21604-0.23908 0.25512-0.4876 0.24887-1.581-0.0189-3.3162-1.9316-6.482-4.5494-7.5306-0.48919-0.19595-1.5335-0.23127-8.6373-0.29145l-8.0809-0.06833 2.3066-3.9694c14.352-24.696 18.987-32.734 19.207-33.302 0.20263-0.52495 0.24771-0.9093 0.20446-1.7492-0.0981-1.9046-1.045-3.351-2.7379-4.1822-0.70401-0.34567-0.94527-0.39262-2.011-0.39262-1.0528 0-1.3215 0.05094-2.0575 0.39078-1.1671 0.53892-1.8728 1.3683-3.3145 3.8958-0.66033 1.1577-1.2425 2.1048-1.2938 2.1048-0.0512 0-0.631-0.94527-1.2885-2.1006-1.4486-2.5454-2.0502-3.2571-3.2535-3.8495-0.81245-0.39997-1.0105-0.44125-2.1103-0.44125zm13.833 18.91c-0.28506-0.0088-1.0232 0.71657-1.5356 1.5093-1.7756 2.7472-2.4833 8.3982-1.4953 11.942 0.1876 0.67289 2.5173 4.8058 10.125 17.963 5.4345 9.3987 10.088 17.319 10.342 17.6 1.36 1.5105 3.6089 1.9538 5.5328 1.0904 1.8174-0.81558 2.9518-2.7503 2.7833-4.7473-0.0414-0.49044-0.19729-1.1642-0.34638-1.4972s-1.4133-2.5734-2.8094-4.9785l-2.5381-4.373 8.4912-0.1345 0.80732-0.37686c1.0516-0.49066 1.9705-1.4053 2.4451-2.4341 0.32159-0.697 0.37921-0.99619 0.37974-1.9658 0-0.97143-0.0559-1.2653-0.37581-1.951-0.49034-1.0509-1.4055-1.9702-2.4343-2.4456l-0.82205-0.38007-14.134-0.07828-7.1285-12.369c-3.9207-6.8028-7.1996-12.371-7.2864-12.374zm-33.671 36.659c-0.76339 0.0016-1.4091 0.06779-1.6788 0.20603-0.28856 0.14796-0.80331 0.91041-1.9968 2.9578-2.3989 4.1154-2.5802 4.5266-2.577 5.8447 5e-3 2.087 1.1405 3.7345 3.126 4.5357 0.90626 0.36571 2.7889 0.28478 3.7202-0.15978 1.2426-0.59309 1.8226-1.3646 4.4466-5.9149l2.4443-4.2385-0.21629-0.38501c-0.57539-1.0247-2.2962-2.042-4.291-2.5371-0.82015-0.20353-1.9958-0.31054-2.9773-0.30906z" opacity="1" stroke-width="6"/>
<path d="m217.88-12.488c-1.0688 0-1.3094 0.04677-2.0138 0.39262-1.0206 0.50113-1.883 1.3647-2.3363 2.3392-0.48141 1.035-0.56864 2.6184-0.19789 3.5922 0.14088 0.37002 1.4297 2.6989 2.864 5.1754 1.4343 2.4765 2.6112 4.5957 2.6154 4.7094 4e-3 0.11369-3.5311 6.335-7.8562 13.825l-7.8638 13.618-14.278 0.07828-0.80733 0.37659c-1.0516 0.49067-1.9704 1.4053-2.4451 2.4341-0.32158 0.697-0.37947 0.99646-0.38001 1.966 0 0.97164 0.0562 1.2652 0.37633 1.951 0.63763 1.366 1.8987 2.4191 3.2892 2.7468 0.28127 0.06632 10.618 0.12493 23.325 0.13246l22.82 0.01367 0.2565-0.28382c0.21604-0.23908 0.25512-0.4876 0.24887-1.581-0.0189-3.3162-1.9316-6.482-4.5494-7.5306-0.48919-0.19595-1.5335-0.23127-8.6373-0.29145l-8.0809-0.06833 2.3066-3.9694c14.352-24.696 18.987-32.734 19.207-33.302 0.20263-0.52495 0.24771-0.9093 0.20446-1.7492-0.0981-1.9046-1.045-3.351-2.7379-4.1822-0.70401-0.34567-0.94527-0.39262-2.011-0.39262-1.0528 0-1.3215 0.05094-2.0575 0.39078-1.1671 0.53892-1.8728 1.3683-3.3145 3.8958-0.66033 1.1577-1.2425 2.1048-1.2938 2.1048-0.0512 0-0.631-0.94527-1.2885-2.1006-1.4486-2.5454-2.0502-3.2571-3.2535-3.8495-0.81245-0.39997-1.0105-0.44125-2.1103-0.44125zm13.833 18.91c-0.28506-0.0088-1.0232 0.71657-1.5356 1.5093-1.7756 2.7472-2.4833 8.3982-1.4953 11.942 0.1876 0.67289 2.5173 4.8058 10.125 17.963 5.4345 9.3987 10.088 17.319 10.342 17.6 1.36 1.5105 3.6089 1.9538 5.5328 1.0904 1.8174-0.81558 2.9518-2.7503 2.7833-4.7473-0.0414-0.49044-0.19729-1.1642-0.34638-1.4972s-1.4133-2.5734-2.8094-4.9785l-2.5381-4.373 8.4912-0.1345 0.80732-0.37686c1.0516-0.49066 1.9705-1.4053 2.4451-2.4341 0.32159-0.697 0.37921-0.99619 0.37974-1.9658 0-0.97143-0.0559-1.2653-0.37581-1.951-0.49034-1.0509-1.4055-1.9702-2.4343-2.4456l-0.82205-0.38007-14.134-0.07828-7.1285-12.369c-3.9207-6.8028-7.1996-12.371-7.2864-12.374zm-33.671 36.659c-0.76339 0.0016-1.4091 0.06779-1.6788 0.20603-0.28856 0.14796-0.80331 0.91041-1.9968 2.9578-2.3989 4.1154-2.5802 4.5266-2.577 5.8447 5e-3 2.087 1.1405 3.7345 3.126 4.5357 0.90626 0.36571 2.7889 0.28478 3.7202-0.15978 1.2426-0.59309 1.8226-1.3646 4.4466-5.9149l2.4443-4.2385-0.21629-0.38501c-0.57539-1.0247-2.2962-2.042-4.291-2.5371-0.82015-0.20353-1.9958-0.31054-2.9773-0.30906z" opacity="1" stroke-width="6.8"/>
<path d="m217.88-12.488c-1.0688 0-1.3094 0.04677-2.0138 0.39262-1.0206 0.50113-1.883 1.3647-2.3363 2.3392-0.48141 1.035-0.56864 2.6184-0.19789 3.5922 0.14088 0.37002 1.4297 2.6989 2.864 5.1754 1.4343 2.4765 2.6112 4.5957 2.6154 4.7094 4e-3 0.11369-3.5311 6.335-7.8562 13.825l-7.8638 13.618-14.278 0.07828-0.80733 0.37659c-1.0516 0.49067-1.9704 1.4053-2.4451 2.4341-0.32158 0.697-0.37947 0.99646-0.38001 1.966 0 0.97164 0.0562 1.2652 0.37633 1.951 0.63763 1.366 1.8987 2.4191 3.2892 2.7468 0.28127 0.06632 10.618 0.12493 23.325 0.13246l22.82 0.01367 0.2565-0.28382c0.21604-0.23908 0.25512-0.4876 0.24887-1.581-0.0189-3.3162-1.9316-6.482-4.5494-7.5306-0.48919-0.19595-1.5335-0.23127-8.6373-0.29145l-8.0809-0.06833 2.3066-3.9694c14.352-24.696 18.987-32.734 19.207-33.302 0.20263-0.52495 0.24771-0.9093 0.20446-1.7492-0.0981-1.9046-1.045-3.351-2.7379-4.1822-0.70401-0.34567-0.94527-0.39262-2.011-0.39262-1.0528 0-1.3215 0.05094-2.0575 0.39078-1.1671 0.53892-1.8728 1.3683-3.3145 3.8958-0.66033 1.1577-1.2425 2.1048-1.2938 2.1048-0.0512 0-0.631-0.94527-1.2885-2.1006-1.4486-2.5454-2.0502-3.2571-3.2535-3.8495-0.81245-0.39997-1.0105-0.44125-2.1103-0.44125zm13.833 18.91c-0.28506-0.0088-1.0232 0.71657-1.5356 1.5093-1.7756 2.7472-2.4833 8.3982-1.4953 11.942 0.1876 0.67289 2.5173 4.8058 10.125 17.963 5.4345 9.3987 10.088 17.319 10.342 17.6 1.36 1.5105 3.6089 1.9538 5.5328 1.0904 1.8174-0.81558 2.9518-2.7503 2.7833-4.7473-0.0414-0.49044-0.19729-1.1642-0.34638-1.4972s-1.4133-2.5734-2.8094-4.9785l-2.5381-4.373 8.4912-0.1345 0.80732-0.37686c1.0516-0.49066 1.9705-1.4053 2.4451-2.4341 0.32159-0.697 0.37921-0.99619 0.37974-1.9658 0-0.97143-0.0559-1.2653-0.37581-1.951-0.49034-1.0509-1.4055-1.9702-2.4343-2.4456l-0.82205-0.38007-14.134-0.07828-7.1285-12.369c-3.9207-6.8028-7.1996-12.371-7.2864-12.374zm-33.671 36.659c-0.76339 0.0016-1.4091 0.06779-1.6788 0.20603-0.28856 0.14796-0.80331 0.91041-1.9968 2.9578-2.3989 4.1154-2.5802 4.5266-2.577 5.8447 5e-3 2.087 1.1405 3.7345 3.126 4.5357 0.90626 0.36571 2.7889 0.28478 3.7202-0.15978 1.2426-0.59309 1.8226-1.3646 4.4466-5.9149l2.4443-4.2385-0.21629-0.38501c-0.57539-1.0247-2.2962-2.042-4.291-2.5371-0.82015-0.20353-1.9958-0.31054-2.9773-0.30906z" opacity="1" stroke-width="7.6"/>
<path d="m217.88-12.488c-1.0688 0-1.3094 0.04677-2.0138 0.39262-1.0206 0.50113-1.883 1.3647-2.3363 2.3392-0.48141 1.035-0.56864 2.6184-0.19789 3.5922 0.14088 0.37002 1.4297 2.6989 2.864 5.1754 1.4343 2.4765 2.6112 4.5957 2.6154 4.7094 4e-3 0.11369-3.5311 6.335-7.8562 13.825l-7.8638 13.618-14.278 0.07828-0.80733 0.37659c-1.0516 0.49067-1.9704 1.4053-2.4451 2.4341-0.32158 0.697-0.37947 0.99646-0.38001 1.966 0 0.97164 0.0562 1.2652 0.37633 1.951 0.63763 1.366 1.8987 2.4191 3.2892 2.7468 0.28127 0.06632 10.618 0.12493 23.325 0.13246l22.82 0.01367 0.2565-0.28382c0.21604-0.23908 0.25512-0.4876 0.24887-1.581-0.0189-3.3162-1.9316-6.482-4.5494-7.5306-0.48919-0.19595-1.5335-0.23127-8.6373-0.29145l-8.0809-0.06833 2.3066-3.9694c14.352-24.696 18.987-32.734 19.207-33.302 0.20263-0.52495 0.24771-0.9093 0.20446-1.7492-0.0981-1.9046-1.045-3.351-2.7379-4.1822-0.70401-0.34567-0.94527-0.39262-2.011-0.39262-1.0528 0-1.3215 0.05094-2.0575 0.39078-1.1671 0.53892-1.8728 1.3683-3.3145 3.8958-0.66033 1.1577-1.2425 2.1048-1.2938 2.1048-0.0512 0-0.631-0.94527-1.2885-2.1006-1.4486-2.5454-2.0502-3.2571-3.2535-3.8495-0.81245-0.39997-1.0105-0.44125-2.1103-0.44125zm13.833 18.91c-0.28506-0.0088-1.0232 0.71657-1.5356 1.5093-1.7756 2.7472-2.4833 8.3982-1.4953 11.942 0.1876 0.67289 2.5173 4.8058 10.125 17.963 5.4345 9.3987 10.088 17.319 10.342 17.6 1.36 1.5105 3.6089 1.9538 5.5328 1.0904 1.8174-0.81558 2.9518-2.7503 2.7833-4.7473-0.0414-0.49044-0.19729-1.1642-0.34638-1.4972s-1.4133-2.5734-2.8094-4.9785l-2.5381-4.373 8.4912-0.1345 0.80732-0.37686c1.0516-0.49066 1.9705-1.4053 2.4451-2.4341 0.32159-0.697 0.37921-0.99619 0.37974-1.9658 0-0.97143-0.0559-1.2653-0.37581-1.951-0.49034-1.0509-1.4055-1.9702-2.4343-2.4456l-0.82205-0.38007-14.134-0.07828-7.1285-12.369c-3.9207-6.8028-7.1996-12.371-7.2864-12.374zm-33.671 36.659c-0.76339 0.0016-1.4091 0.06779-1.6788 0.20603-0.28856 0.14796-0.80331 0.91041-1.9968 2.9578-2.3989 4.1154-2.5802 4.5266-2.577 5.8447 5e-3 2.087 1.1405 3.7345 3.126 4.5357 0.90626 0.36571 2.7889 0.28478 3.7202-0.15978 1.2426-0.59309 1.8226-1.3646 4.4466-5.9149l2.4443-4.2385-0.21629-0.38501c-0.57539-1.0247-2.2962-2.042-4.291-2.5371-0.82015-0.20353-1.9958-0.31054-2.9773-0.30906z" opacity="1" stroke-width="8.4"/>
<path d="m217.88-12.488c-1.0688 0-1.3094 0.04677-2.0138 0.39262-1.0206 0.50113-1.883 1.3647-2.3363 2.3392-0.48141 1.035-0.56864 2.6184-0.19789 3.5922 0.14088 0.37002 1.4297 2.6989 2.864 5.1754 1.4343 2.4765 2.6112 4.5957 2.6154 4.7094 4e-3 0.11369-3.5311 6.335-7.8562 13.825l-7.8638 13.618-14.278 0.07828-0.80733 0.37659c-1.0516 0.49067-1.9704 1.4053-2.4451 2.4341-0.32158 0.697-0.37947 0.99646-0.38001 1.966 0 0.97164 0.0562 1.2652 0.37633 1.951 0.63763 1.366 1.8987 2.4191 3.2892 2.7468 0.28127 0.06632 10.618 0.12493 23.325 0.13246l22.82 0.01367 0.2565-0.28382c0.21604-0.23908 0.25512-0.4876 0.24887-1.581-0.0189-3.3162-1.9316-6.482-4.5494-7.5306-0.48919-0.19595-1.5335-0.23127-8.6373-0.29145l-8.0809-0.06833 2.3066-3.9694c14.352-24.696 18.987-32.734 19.207-33.302 0.20263-0.52495 0.24771-0.9093 0.20446-1.7492-0.0981-1.9046-1.045-3.351-2.7379-4.1822-0.70401-0.34567-0.94527-0.39262-2.011-0.39262-1.0528 0-1.3215 0.05094-2.0575 0.39078-1.1671 0.53892-1.8728 1.3683-3.3145 3.8958-0.66033 1.1577-1.2425 2.1048-1.2938 2.1048-0.0512 0-0.631-0.94527-1.2885-2.1006-1.4486-2.5454-2.0502-3.2571-3.2535-3.8495-0.81245-0.39997-1.0105-0.44125-2.1103-0.44125zm13.833 18.91c-0.28506-0.0088-1.0232 0.71657-1.5356 1.5093-1.7756 2.7472-2.4833 8.3982-1.4953 11.942 0.1876 0.67289 2.5173 4.8058 10.125 17.963 5.4345 9.3987 10.088 17.319 10.342 17.6 1.36 1.5105 3.6089 1.9538 5.5328 1.0904 1.8174-0.81558 2.9518-2.7503 2.7833-4.7473-0.0414-0.49044-0.19729-1.1642-0.34638-1.4972s-1.4133-2.5734-2.8094-4.9785l-2.5381-4.373 8.4912-0.1345 0.80732-0.37686c1.0516-0.49066 1.9705-1.4053 2.4451-2.4341 0.32159-0.697 0.37921-0.99619 0.37974-1.9658 0-0.97143-0.0559-1.2653-0.37581-1.951-0.49034-1.0509-1.4055-1.9702-2.4343-2.4456l-0.82205-0.38007-14.134-0.07828-7.1285-12.369c-3.9207-6.8028-7.1996-12.371-7.2864-12.374zm-33.671 36.659c-0.76339 0.0016-1.4091 0.06779-1.6788 0.20603-0.28856 0.14796-0.80331 0.91041-1.9968 2.9578-2.3989 4.1154-2.5802 4.5266-2.577 5.8447 5e-3 2.087 1.1405 3.7345 3.126 4.5357 0.90626 0.36571 2.7889 0.28478 3.7202-0.15978 1.2426-0.59309 1.8226-1.3646 4.4466-5.9149l2.4443-4.2385-0.21629-0.38501c-0.57539-1.0247-2.2962-2.042-4.291-2.5371-0.82015-0.20353-1.9958-0.31054-2.9773-0.30906z" opacity="1" stroke-width="9.2"/>
<path d="m217.88-12.488c-1.0688 0-1.3094 0.04677-2.0138 0.39262-1.0206 0.50113-1.883 1.3647-2.3363 2.3392-0.48141 1.035-0.56864 2.6184-0.19789 3.5922 0.14088 0.37002 1.4297 2.6989 2.864 5.1754 1.4343 2.4765 2.6112 4.5957 2.6154 4.7094 4e-3 0.11369-3.5311 6.335-7.8562 13.825l-7.8638 13.618-14.278 0.07828-0.80733 0.37659c-1.0516 0.49067-1.9704 1.4053-2.4451 2.4341-0.32158 0.697-0.37947 0.99646-0.38001 1.966 0 0.97164 0.0562 1.2652 0.37633 1.951 0.63763 1.366 1.8987 2.4191 3.2892 2.7468 0.28127 0.06632 10.618 0.12493 23.325 0.13246l22.82 0.01367 0.2565-0.28382c0.21604-0.23908 0.25512-0.4876 0.24887-1.581-0.0189-3.3162-1.9316-6.482-4.5494-7.5306-0.48919-0.19595-1.5335-0.23127-8.6373-0.29145l-8.0809-0.06833 2.3066-3.9694c14.352-24.696 18.987-32.734 19.207-33.302 0.20263-0.52495 0.24771-0.9093 0.20446-1.7492-0.0981-1.9046-1.045-3.351-2.7379-4.1822-0.70401-0.34567-0.94527-0.39262-2.011-0.39262-1.0528 0-1.3215 0.05094-2.0575 0.39078-1.1671 0.53892-1.8728 1.3683-3.3145 3.8958-0.66033 1.1577-1.2425 2.1048-1.2938 2.1048-0.0512 0-0.631-0.94527-1.2885-2.1006-1.4486-2.5454-2.0502-3.2571-3.2535-3.8495-0.81245-0.39997-1.0105-0.44125-2.1103-0.44125zm13.833 18.91c-0.28506-0.0088-1.0232 0.71657-1.5356 1.5093-1.7756 2.7472-2.4833 8.3982-1.4953 11.942 0.1876 0.67289 2.5173 4.8058 10.125 17.963 5.4345 9.3987 10.088 17.319 10.342 17.6 1.36 1.5105 3.6089 1.9538 5.5328 1.0904 1.8174-0.81558 2.9518-2.7503 2.7833-4.7473-0.0414-0.49044-0.19729-1.1642-0.34638-1.4972s-1.4133-2.5734-2.8094-4.9785l-2.5381-4.373 8.4912-0.1345 0.80732-0.37686c1.0516-0.49066 1.9705-1.4053 2.4451-2.4341 0.32159-0.697 0.37921-0.99619 0.37974-1.9658 0-0.97143-0.0559-1.2653-0.37581-1.951-0.49034-1.0509-1.4055-1.9702-2.4343-2.4456l-0.82205-0.38007-14.134-0.07828-7.1285-12.369c-3.9207-6.8028-7.1996-12.371-7.2864-12.374zm-33.671 36.659c-0.76339 0.0016-1.4091 0.06779-1.6788 0.20603-0.28856 0.14796-0.80331 0.91041-1.9968 2.9578-2.3989 4.1154-2.5802 4.5266-2.577 5.8447 5e-3 2.087 1.1405 3.7345 3.126 4.5357 0.90626 0.36571 2.7889 0.28478 3.7202-0.15978 1.2426-0.59309 1.8226-1.3646 4.4466-5.9149l2.4443-4.2385-0.21629-0.38501c-0.57539-1.0247-2.2962-2.042-4.291-2.5371-0.82015-0.20353-1.9958-0.31054-2.9773-0.30906z" opacity="1" stroke-width="10.4"/>
<path d="m217.88-12.488c-1.0688 0-1.3094 0.04677-2.0138 0.39262-1.0206 0.50113-1.883 1.3647-2.3363 2.3392-0.48141 1.035-0.56864 2.6184-0.19789 3.5922 0.14088 0.37002 1.4297 2.6989 2.864 5.1754 1.4343 2.4765 2.6112 4.5957 2.6154 4.7094 4e-3 0.11369-3.5311 6.335-7.8562 13.825l-7.8638 13.618-14.278 0.07828-0.80733 0.37659c-1.0516 0.49067-1.9704 1.4053-2.4451 2.4341-0.32158 0.697-0.37947 0.99646-0.38001 1.966 0 0.97164 0.0562 1.2652 0.37633 1.951 0.63763 1.366 1.8987 2.4191 3.2892 2.7468 0.28127 0.06632 10.618 0.12493 23.325 0.13246l22.82 0.01367 0.2565-0.28382c0.21604-0.23908 0.25512-0.4876 0.24887-1.581-0.0189-3.3162-1.9316-6.482-4.5494-7.5306-0.48919-0.19595-1.5335-0.23127-8.6373-0.29145l-8.0809-0.06833 2.3066-3.9694c14.352-24.696 18.987-32.734 19.207-33.302 0.20263-0.52495 0.24771-0.9093 0.20446-1.7492-0.0981-1.9046-1.045-3.351-2.7379-4.1822-0.70401-0.34567-0.94527-0.39262-2.011-0.39262-1.0528 0-1.3215 0.05094-2.0575 0.39078-1.1671 0.53892-1.8728 1.3683-3.3145 3.8958-0.66033 1.1577-1.2425 2.1048-1.2938 2.1048-0.0512 0-0.631-0.94527-1.2885-2.1006-1.4486-2.5454-2.0502-3.2571-3.2535-3.8495-0.81245-0.39997-1.0105-0.44125-2.1103-0.44125zm13.833 18.91c-0.28506-0.0088-1.0232 0.71657-1.5356 1.5093-1.7756 2.7472-2.4833 8.3982-1.4953 11.942 0.1876 0.67289 2.5173 4.8058 10.125 17.963 5.4345 9.3987 10.088 17.319 10.342 17.6 1.36 1.5105 3.6089 1.9538 5.5328 1.0904 1.8174-0.81558 2.9518-2.7503 2.7833-4.7473-0.0414-0.49044-0.19729-1.1642-0.34638-1.4972s-1.4133-2.5734-2.8094-4.9785l-2.5381-4.373 8.4912-0.1345 0.80732-0.37686c1.0516-0.49066 1.9705-1.4053 2.4451-2.4341 0.32159-0.697 0.37921-0.99619 0.37974-1.9658 0-0.97143-0.0559-1.2653-0.37581-1.951-0.49034-1.0509-1.4055-1.9702-2.4343-2.4456l-0.82205-0.38007-14.134-0.07828-7.1285-12.369c-3.9207-6.8028-7.1996-12.371-7.2864-12.374zm-33.671 36.659c-0.76339 0.0016-1.4091 0.06779-1.6788 0.20603-0.28856 0.14796-0.80331 0.91041-1.9968 2.9578-2.3989 4.1154-2.5802 4.5266-2.577 5.8447 5e-3 2.087 1.1405 3.7345 3.126 4.5357 0.90626 0.36571 2.7889 0.28478 3.7202-0.15978 1.2426-0.59309 1.8226-1.3646 4.4466-5.9149l2.4443-4.2385-0.21629-0.38501c-0.57539-1.0247-2.2962-2.042-4.291-2.5371-0.82015-0.20353-1.9958-0.31054-2.9773-0.30906z" opacity="1" stroke-width="11.6"/>
</g>
</g>
<path d="m56.934 27.934c-1.0688 0-1.3094 0.04677-2.0139 0.39262-1.0206 0.50113-1.883 1.3647-2.3363 2.3392-0.48141 1.035-0.56864 2.6184-0.19789 3.5922 0.14088 0.37002 1.4297 2.6989 2.864 5.1754 1.4343 2.4765 2.6112 4.5957 2.6154 4.7094 0.0043 0.11369-3.5311 6.335-7.8562 13.825l-7.8638 13.618-14.278 0.07828-0.80733 0.37659c-1.0516 0.49067-1.9704 1.4053-2.4451 2.4341-0.32159 0.697-0.37947 0.99646-0.38001 1.966 0 0.97164 0.05618 1.2652 0.37633 1.951 0.63763 1.366 1.8987 2.4191 3.2892 2.7468 0.28127 0.06632 10.618 0.12493 23.325 0.13246l22.82 0.01367 0.2565-0.28382c0.21603-0.23908 0.25511-0.4876 0.24887-1.581-0.01894-3.3162-1.9316-6.482-4.5494-7.5306-0.48919-0.19595-1.5335-0.23127-8.6373-0.29145l-8.0809-0.06833 2.3066-3.9694c14.352-24.696 18.987-32.734 19.207-33.302 0.20263-0.52495 0.24772-0.9093 0.20446-1.7492-0.09809-1.9046-1.045-3.351-2.7379-4.1822-0.70401-0.34567-0.94527-0.39262-2.011-0.39262-1.0528 0-1.3215 0.05094-2.0575 0.39078-1.1671 0.53892-1.8728 1.3683-3.3145 3.8958-0.66033 1.1577-1.2425 2.1048-1.2938 2.1048-0.05124 0-0.631-0.94527-1.2885-2.1006-1.4486-2.5454-2.0502-3.2571-3.2535-3.8495-0.81245-0.39997-1.0105-0.44125-2.1103-0.44125zm13.833 18.91c-0.28506-0.0088-1.0232 0.71657-1.5356 1.5093-1.7756 2.7472-2.4833 8.3982-1.4953 11.942 0.1876 0.67289 2.5173 4.8058 10.125 17.963 5.4345 9.3987 10.088 17.319 10.342 17.6 1.36 1.5105 3.6089 1.9538 5.5328 1.0904 1.8174-0.81558 2.9518-2.7503 2.7833-4.7473-0.04136-0.49044-0.19729-1.1642-0.34638-1.4972-0.14909-0.33302-1.4133-2.5734-2.8094-4.9785l-2.5381-4.373 8.4912-0.1345 0.80732-0.37686c1.0516-0.49066 1.9705-1.4053 2.4451-2.4341 0.32159-0.697 0.37921-0.99619 0.37974-1.9658 0-0.97143-0.0559-1.2653-0.37581-1.951-0.49034-1.0509-1.4055-1.9702-2.4343-2.4456l-0.82205-0.38007-14.134-0.07828-7.1285-12.369c-3.9207-6.8028-7.1996-12.371-7.2864-12.374zm-33.671 36.659c-0.76339 0.0016-1.4091 0.06779-1.6788 0.20603-0.28857 0.14796-0.80331 0.91041-1.9968 2.9578-2.3989 4.1154-2.5802 4.5266-2.577 5.8447 0.0049 2.087 1.1405 3.7345 3.126 4.5357 0.90627 0.36571 2.7889 0.28478 3.7202-0.15978 1.2426-0.59309 1.8226-1.3646 4.4466-5.9149l2.4443-4.2385-0.21629-0.38501c-0.57539-1.0247-2.2961-2.042-4.291-2.5371-0.82015-0.20353-1.9958-0.31054-2.9773-0.30906z" fill="#fff"/>
</svg>
