<svg width="128" height="128" version="1.1" viewBox="0 0 33.867 33.867" xmlns="http://www.w3.org/2000/svg" xmlns:xlink="http://www.w3.org/1999/xlink">
<defs>
<linearGradient id="linearGradient897" x1="2686" x2="2686" y1="1088.8" y2="1770.4" gradientTransform="matrix(.042779 0 0 .042779 -95.919 -44.867)" gradientUnits="userSpaceOnUse">
<stop stop-color="#63e569" stop-opacity=".72582" offset="0"/>
<stop stop-color="#489838" offset="1"/>
</linearGradient>
<radialGradient id="radialGradient898" cx="60.636" cy="20.456" r="17.304" gradientTransform="translate(-43.433 -3.9449)" gradientUnits="userSpaceOnUse">
<stop stop-color="#0b0b0b" offset="0"/>
<stop stop-color="#0b0b0b" stop-opacity=".85882" offset=".68076"/>
<stop stop-color="#0b0b0b" stop-opacity=".83137" offset=".69925"/>
<stop stop-color="#0b0b0b" stop-opacity=".80392" offset=".71879"/>
<stop stop-color="#0b0b0b" stop-opacity=".78039" offset=".73593"/>
<stop stop-color="#0b0b0b" stop-opacity=".75686" offset=".75022"/>
<stop stop-color="#0b0b0b" stop-opacity=".73333" offset=".76799"/>
<stop stop-color="#0b0b0b" stop-opacity=".082353" offset=".91501"/>
<stop stop-color="#0b0b0b" stop-opacity=".070588" offset=".92247"/>
<stop stop-color="#0b0b0b" stop-opacity=".058824" offset=".92919"/>
<stop stop-color="#0b0b0b" stop-opacity=".047059" offset=".93841"/>
<stop stop-color="#0b0b0b" stop-opacity=".031373" offset=".94761"/>
<stop stop-color="#0b0b0b" stop-opacity=".023529" offset=".95381"/>
<stop stop-color="#0b0b0b" stop-opacity=".015686" offset=".95886"/>
<stop stop-color="#0b0b0b" stop-opacity=".011765" offset=".96356"/>
<stop stop-color="#0b0b0b" stop-opacity=".0078431" offset=".96845"/>
<stop stop-color="#0b0b0b" stop-opacity=".0039216" offset=".97348"/>
<stop stop-color="#0b0b0b" stop-opacity="0" offset=".97812"/>
<stop stop-color="#0b0b0b" stop-opacity="0" offset=".98456"/>
<stop stop-color="#0b0b0b" stop-opacity="0" offset=".98701"/>
<stop stop-color="#0b0b0b" stop-opacity="0" offset=".98925"/>
<stop stop-color="#0b0b0b" stop-opacity="0" offset="1"/>
</radialGradient>
<radialGradient id="radialGradient993" cx="16.787" cy="3.5457" r="13.696" gradientTransform="matrix(4.8886 0 0 1.5421 -65.724 -.93385)" gradientUnits="userSpaceOnUse">
<stop stop-color="#54e480" offset="0"/>
<stop stop-color="#5fcf48" offset="1"/>
</radialGradient>
<linearGradient id="linearGradient1042" x1="21.493" x2="21.493" y1="26.41" y2="9.8336" gradientUnits="userSpaceOnUse">
<stop stop-color="#272727" offset="0"/>
<stop stop-color="#3b3e3f" offset="1"/>
</linearGradient>
</defs>
<g>
<circle cx="17.203" cy="16.512" r="17.304" fill="url(#radialGradient898)" opacity=".30973" stroke-linecap="square" stroke-linejoin="round" stroke-width="3"/>
<circle cx="17.203" cy="16.512" r="15.118" fill="url(#linearGradient897)" stroke="#b1aaaa" stroke-linecap="square" stroke-opacity=".99216" stroke-width=".057556"/>
<circle cx="17.203" cy="16.512" r="13.102" fill="url(#radialGradient993)"/>
<path d="m22.055 24.454c-3.1197-1.5188-6.4965-1.8966-10.763-1.204-2.3044 0.37412-2.3612 0.37157-2.7633-0.12392-0.55655-0.68595-0.3134-1.4134 0.57609-1.7235 1.3644-0.47563 5.0216-0.83057 7.1404-0.69301 2.6918 0.17476 4.9985 0.7591 6.9769 1.7674 1.3101 0.6677 1.5812 0.91576 1.6507 1.5105 0.05473 0.46824-0.06736 0.82164-0.35692 1.0334-0.55106 0.40295-0.39565 0.43874-2.4613-0.56689zm1.4215-4.3605c-3.3142-1.5941-7.5557-2.2194-11.329-1.6701-4.1487 0.60398-4.9777 0.38358-4.4331-1.1786 0.3766-1.0803 2.7428-1.615 7.1689-1.6202 2.9379-0.0035 3.8347 0.09282 5.8738 0.63041 1.3236 0.34895 3.2182 1.0597 4.2103 1.5795 1.5155 0.79403 1.8165 1.0563 1.8836 1.6411 0.18021 1.5716-0.95822 1.78-3.3747 0.61778zm2.3253-4.6938c-4.3248-2.231-12.219-2.8148-17.644-1.3047-1.2893 0.35891-2.1686-1.9908-1.0135-2.7085 1.4932-0.92782 6.619-1.4744 10.704-1.1414 5.0502 0.41163 10.81 2.3772 11.17 3.812 0.21631 0.86185-0.05746 1.509-0.77725 1.8369-0.81093 0.36948-0.7349 0.38489-2.4392-0.49428z" fill="url(#linearGradient1042)" stroke-width=".24766"/>
</g>
</svg>
