<svg width="128" height="128" version="1.1" viewBox="0 0 128 128" xmlns="http://www.w3.org/2000/svg" xmlns:xlink="http://www.w3.org/1999/xlink">
<defs>
<linearGradient id="linearGradient825" x1="1003.4" x2="1157.6" y1="317.37" y2="515.68" gradientTransform="translate(-916.73 -377)" gradientUnits="userSpaceOnUse">
<stop stop-color="#c4c7ca" offset="0"/>
<stop stop-color="#919395" offset="1"/>
</linearGradient>
<radialGradient id="radialGradient835" cx="1083.5" cy="419.92" r="168.22" gradientTransform="matrix(.93613 0 0 .89824 -865.75 -350.37)" gradientUnits="userSpaceOnUse">
<stop offset="0"/>
<stop stop-color="#272727" stop-opacity=".32967" offset=".88176"/>
<stop stop-color="#080808" stop-opacity=".043956" offset=".9754"/>
<stop stop-opacity="0" offset="1"/>
</radialGradient>
<radialGradient id="radialGradient849" cx="1086" cy="416.53" r="91.102" gradientTransform="translate(-939.61 -393.95)" gradientUnits="userSpaceOnUse">
<stop stop-color="#5b5b5b" offset="0"/>
<stop stop-color="#5b5b5b" offset=".89302"/>
<stop stop-color="#545454" offset=".91442"/>
<stop stop-color="#3d3d3d" offset=".95088"/>
<stop stop-color="#1f1f1f" offset="1"/>
</radialGradient>
<linearGradient id="linearGradient868" x1="1111.7" x2="981.68" y1="368.19" y2="539.57" gradientTransform="translate(-939.61 -393.95)" gradientUnits="userSpaceOnUse">
<stop stop-color="#f0f4f7" offset="0"/>
<stop stop-color="#d7e2ea" offset="1"/>
</linearGradient>
<radialGradient id="radialGradient885" cx="1089.9" cy="416.66" r="41.647" gradientTransform="matrix(1 0 0 1 -939.61 -393.95)" gradientUnits="userSpaceOnUse">
<stop stop-color="#292929" offset="0"/>
<stop stop-color="#999b9d" offset=".59815"/>
<stop stop-color="#9a9c9e" offset=".86268"/>
<stop stop-color="#929495" offset=".91355"/>
<stop stop-color="#7d7f80" offset=".96188"/>
<stop stop-color="#676868" stop-opacity=".46275" offset=".98223"/>
<stop stop-color="#545454" stop-opacity="0" offset="1"/>
</radialGradient>
<radialGradient id="radialGradient905" cx="736.23" cy="491.84" r="20.551" gradientTransform="matrix(1.0722 -1.0973e-6 1.1184e-6 1.0928 -727.88 -421.61)" gradientUnits="userSpaceOnUse">
<stop stop-color="#babdbf" offset="0"/>
<stop stop-color="#babdbf" offset=".80189"/>
<stop stop-color="#b0b4b6" offset=".89151"/>
<stop stop-color="#9fa3a6" offset="1"/>
</radialGradient>
<radialGradient id="radialGradient927" cx="55.297" cy="121.86" r="45.551" gradientTransform="matrix(.94778 0 0 .9576 1.1928 5.5906)" gradientUnits="userSpaceOnUse">
<stop offset="0"/>
<stop stop-opacity="0" offset="1"/>
</radialGradient>
</defs>
<g transform="matrix(.39751 0 0 .39751 5.4819 54.871)">
<path d="m101.69 122.28a48.093 48.093 0 0 1-48.054 48.093 48.093 48.093 0 0 1-48.132-48.016 48.093 48.093 0 0 1 47.977-48.171 48.093 48.093 0 0 1 48.209 47.938" fill="url(#radialGradient927)" style="paint-order:fill markers stroke"/>
<path d="m313.78 26.811a165.25 165.25 0 0 1-165.12 165.25 165.25 165.25 0 0 1-165.39-164.99 165.25 165.25 0 0 1 164.85-165.52 165.25 165.25 0 0 1 165.65 164.72" fill="url(#radialGradient835)" style="paint-order:fill markers stroke"/>
<path d="m294.29 22.574a147.88 147.88 0 0 1-147.76 147.88 147.88 147.88 0 0 1-148-147.64 147.88 147.88 0 0 1 147.52-148.12 147.88 147.88 0 0 1 148.24 147.4" fill="url(#linearGradient825)" style="paint-order:fill markers stroke"/>
<path d="m237.51 22.574a91.102 91.102 0 0 1-91.028 91.102 91.102 91.102 0 0 1-91.175-90.955 91.102 91.102 0 0 1 90.881-91.249 91.102 91.102 0 0 1 91.322 90.807" fill="url(#radialGradient849)" opacity=".344" style="paint-order:fill markers stroke"/>
<path d="m148.29-37.447c-17.448 0.0424-33.229 7.1494-44.641 18.607-13.336 13.647-30.981 42.688-47.342 65.301-20.011 27.658-37.574 51.93-38.896 57.385-1.4178 5.848-2.5685 11.246-2.2988 16.373 0.0369 22.491 18.29 40.7 40.781 40.682 7.8758-7e-3 15.227-2.2462 21.457-6.1211 24.536-16.621 55.535-38.506 81.564-57.527 25.024-18.287 42.43-30.225 50.072-56.723 1.6172-5.6071 2.0863-7.1825 2.6738-14.758v-0.20313c-0.1128-34.895-28.476-63.1-63.371-63.016zm1.92 18.504a41.647 41.647 0 0 1 41.748 41.512v0.13477a41.647 41.647 0 0 1-41.613 41.648 41.647 41.647 0 0 1-41.682-41.58 41.647 41.647 0 0 1 41.547-41.715zm0.6464 20.373a21.872 21.872 0 0 0-21.818 21.908 21.872 21.872 0 0 0 21.889 21.838 21.872 21.872 0 0 0 21.855-21.873v-0.0703a21.872 21.872 0 0 0-21.926-21.803z" fill="url(#linearGradient868)" style="paint-order:fill markers stroke"/>
<path d="m150.21-18.943a41.647 41.647 0 0 0-41.547 41.715 41.647 41.647 0 0 0 41.682 41.58 41.647 41.647 0 0 0 41.613-41.648v-0.13477a41.647 41.647 0 0 0-41.748-41.512zm0.6464 20.373a21.872 21.872 0 0 1 21.926 21.803v0.0703a21.872 21.872 0 0 1-21.855 21.873 21.872 21.872 0 0 1-21.889-21.838 21.872 21.872 0 0 1 21.818-21.908z" fill="url(#radialGradient885)" opacity=".489" style="paint-order:fill markers stroke"/>
<path d="m82.032 114.07a20.551 20.551 0 0 1-20.534 20.551 20.551 20.551 0 0 1-20.567-20.518 20.551 20.551 0 0 1 20.501-20.584 20.551 20.551 0 0 1 20.601 20.484" fill="url(#radialGradient905)" style="paint-order:fill markers stroke"/>
</g>
</svg>
