<svg width="128" height="128" version="1.1" viewBox="0 0 128 128" xmlns="http://www.w3.org/2000/svg" xmlns:xlink="http://www.w3.org/1999/xlink">
<defs>
<linearGradient id="linearGradient4958" x1="91.22" x2="39.111" y1="110.13" y2="3.1635" gradientTransform="rotate(-45 281.3 911.07)" gradientUnits="userSpaceOnUse">
<stop stop-color="#d38a0e" offset="0"/>
<stop stop-color="#f4aa75" offset="1"/>
</linearGradient>
<filter id="filter4978" x="-.3084" y="-.3084" width="1.6168" height="1.6168" color-interpolation-filters="sRGB">
<feGaussianBlur stdDeviation="8.6745029"/>
</filter>
</defs>
<g transform="translate(535.09 -402.09)">
<g transform="matrix(.91708 0 0 .91708 -38.801 40.181)">
<path d="m-535.98 449.55 16.643 16.643-16.643 16.643 47.734 47.734 16.643-16.643 16.643 16.643 47.734-47.734-16.643-16.643 16.643-16.643-47.734-47.734-16.643 16.643-16.643-16.643z" fill="url(#linearGradient4958)"/>
<path transform="rotate(-45 281.3 911.07)" d="m29.736 30.357v21.002h20.914v-21.002zm23.914 0v21.002h19.414v-21.002zm22.414 0v21.002h21.178v-21.002zm-46.328 24.002v19.502h20.914v-19.502zm23.914 0v19.502h19.414v-19.502zm22.414 0v19.502h21.178v-19.502zm-46.328 22.502v21.002h20.914v-21.002zm23.914 0v21.002h19.414v-21.002zm22.414 0v21.002h21.178v-21.002z" fill="#c96110" filter="url(#filter4978)"/>
<path d="m-519.34 466.2 14.851 14.851 14.788-14.788-14.851-14.851zm16.91-16.91 14.851 14.851 13.728-13.728-14.851-14.851zm15.849-15.849 14.851 14.851 14.975-14.975-14.851-14.851zm-15.787 49.731 13.79 13.79 14.788-14.788-13.79-13.79zm16.91-16.91 13.79 13.79 13.728-13.728-13.79-13.79zm15.849-15.849 13.79 13.79 14.975-14.975-13.79-13.79zm-16.848 48.67 14.851 14.851 14.788-14.788-14.851-14.851zm16.91-16.91 14.851 14.851 13.728-13.728-14.851-14.851zm15.849-15.849 14.851 14.851 14.975-14.975-14.851-14.851z" fill="#fff"/>
</g>
</g>
</svg>
