<svg width="128" height="128" version="1.1" viewBox="0 0 128 128" xmlns="http://www.w3.org/2000/svg" xmlns:xlink="http://www.w3.org/1999/xlink">
<defs>
<linearGradient id="linearGradient825" x1="-741.83" x2="-741.83" y1="959.05" y2="93.836" gradientTransform="matrix(.1342 0 0 .1342 160.37 -5.4564)" gradientUnits="userSpaceOnUse">
<stop stop-color="#dadfe1" offset="0"/>
<stop stop-color="#fefefe" offset="1"/>
</linearGradient>
<linearGradient id="linearGradient835" x1="-738.76" x2="-738.76" y1="931.43" y2="152.13" gradientTransform="matrix(.1342 0 0 .1342 160.37 -5.4564)" gradientUnits="userSpaceOnUse">
<stop stop-color="#e9eced" offset="0"/>
<stop stop-color="#fefefe" offset="1"/>
</linearGradient>
<linearGradient id="d-9" x1="408.65" x2="416.65" y1="525.28" y2="533.28" gradientTransform="translate(-.081 -.48)" gradientUnits="userSpaceOnUse">
<stop stop-opacity=".065" offset="0"/>
<stop stop-opacity="0" offset="1"/>
</linearGradient>
<linearGradient id="c-70-2" x2="0" y1="537.8" y2="508.8" gradientTransform="matrix(2.533 0 0 2.533 -970.2 -1263.7)" gradientUnits="userSpaceOnUse">
<stop stop-color="#027bf9" offset="0"/>
<stop stop-color="#37b7ff" offset="1"/>
</linearGradient>
<linearGradient id="b-2-5" x1="399.57" x2="416.57" y1="517.8" y2="534.8" gradientUnits="userSpaceOnUse">
<stop offset="0"/>
<stop stop-opacity="0" offset="1"/>
</linearGradient>
<filter id="i-2" x="-.063734" y="-.056679" width="1.1275" height="1.1134" color-interpolation-filters="sRGB">
<feGaussianBlur stdDeviation="0.80440236"/>
</filter>
<filter id="h-9" x="-.071286" y="-.051799" width="1.1426" height="1.1036" color-interpolation-filters="sRGB">
<feGaussianBlur stdDeviation="0.62691525"/>
</filter>
<linearGradient id="linearGradient4985" x1="408.65" x2="416.65" y1="525.28" y2="533.28" gradientTransform="translate(-.081 -.48)" gradientUnits="userSpaceOnUse" xlink:href="#d-9"/>
<linearGradient id="linearGradient4987" x1="417.79" x2="426.22" y1="517.96" y2="525.91" gradientTransform="matrix(-1 0 0 1 817.2 -.48)" gradientUnits="userSpaceOnUse" xlink:href="#d-9"/>
</defs>
<g transform="translate(-138.41 -15.501)" fill="none" opacity=".445" stroke="#000" stroke-linecap="round" stroke-linejoin="round" stroke-opacity=".031373">
<circle cx="202.16" cy="79.683" r="60.269" opacity="1" stroke-width=".5"/>
<circle cx="202.16" cy="79.683" r="60.269" opacity="1"/>
<circle cx="202.16" cy="79.683" r="60.269" opacity="1" stroke-width="1.5"/>
<circle cx="202.16" cy="79.683" r="60.269" opacity="1" stroke-width="2"/>
<circle cx="202.16" cy="79.683" r="60.269" opacity="1" stroke-width="2.5"/>
<circle cx="202.16" cy="79.683" r="60.269" opacity="1" stroke-width="3"/>
<circle cx="202.16" cy="79.683" r="60.269" opacity="1" stroke-width="3.5"/>
<circle cx="202.16" cy="79.683" r="60.269" opacity="1" stroke-width="4"/>
<circle cx="202.16" cy="79.683" r="60.269" opacity="1" stroke-width="4.5"/>
<circle cx="202.16" cy="79.683" r="60.269" opacity="1" stroke-width="5.5"/>
<circle cx="202.16" cy="79.683" r="60.269" opacity="1" stroke-width="6.5"/>
</g>
<circle cx="63.433" cy="63.547" r="60.269" fill="url(#linearGradient825)"/>
<circle cx="63.433" cy="63.547" r="54.093" fill="url(#linearGradient835)"/>
<path transform="matrix(2.533 0 0 2.533 -970.2 -1263.7)" d="m408.57 508.8c-0.093-3e-3 -0.183 0.034-0.248 0.101-0.931 0.971-1.877 2.061-2.732 3.099-1e-3 1e-3 0 3e-3 0 4e-3 -2.107 2.628-3.709 5.328-4.869 8.218-1.081 2.693-1.713 5.02-2.288 8.416-0.126 0.743-0.253 1.644-0.341 2.368-0.044 0.362-0.078 0.68-0.097 0.915-0.01 0.118-0.015 0.214-0.017 0.292-1e-3 0.039 0 0.072 0 0.112 0 0.02 0 0.042 0.014 0.079 0.01 0.037 0 0.111 0.149 0.202 0.08 0.049 0.09 0.039 0.11 0.044s0.035 8e-3 0.051 0.011c0.032 5e-3 0.066 9e-3 0.105 0.013 0.078 8e-3 0.174 0.016 0.276 0.022 0.808 0.044 1.999 0.25 2.789 0.481 0.533 0.156 0.884 0.285 1.405 0.516 0.12 0.053 0.231 0.102 0.313 0.138 0.041 0.018 0.075 0.032 0.1 0.042 0.012 5e-3 0.023 9e-3 0.032 0.013 1e-3 1e-3 2e-3 2e-3 1e-3 2e-3 0 2e-3 0.01 4e-3 0.014 7e-3v-3e-3 2e-3c0.01 2e-3 0.01 4e-3 0.019 7e-3 0 1e-3 0.01 4e-3 0.012 5e-3 0-1e-3 -0.011 0-0.013-1e-3 0.023 0.012 0.05 0.028 0.087 0.048 0.088 0.048 0.209 0.116 0.341 0.19 1.275 0.716 2.228 1.455 3.75 2.914 0.201 0.192 0.387 0.366 0.529 0.495 0.071 0.064 0.13 0.118 0.176 0.157 0.023 0.02 0.043 0.036 0.064 0.052 0.01 8e-3 0.021 0.016 0.038 0.028 0.01 5e-3 0.02 0.012 0.039 0.022 0.02 9e-3 0.039 0.028 0.13 0.033 0.109 5e-3 0.131-0.019 0.153-0.029s0.034-0.017 0.043-0.023c0.019-0.012 0.03-0.02 0.041-0.029 0.022-0.017 0.043-0.034 0.068-0.055 0.05-0.042 0.115-0.1 0.192-0.169 0.154-0.139 0.358-0.327 0.578-0.536 1.259-1.194 1.869-1.699 2.746-2.281 1.915-1.271 3.621-1.834 6.24-2.056l0.212-0.018c0.171-0.014 0.302-0.157 0.302-0.328v-0.125c0-0.26-0.062-0.798-0.146-1.464s-0.19-1.424-0.287-2c-0.575-3.424-1.228-5.836-2.323-8.562-0.986-2.457-2.399-4.938-4.087-7.184 0-5e-3 -0.01-0.01-0.012-0.015-1.136-1.345-2.235-2.756-3.434-4.065-0.06-0.066-0.144-0.104-0.233-0.107z" filter="url(#h-9)" opacity=".15" stroke-width=".66667"/>
<path transform="matrix(2.533 0 0 2.533 -970.2 -1263.7)" d="m398.28 532.51 10.291 10.291c6 1 17.781-10.52 20-16l-20-18z" fill="url(#b-2-5)" fill-rule="evenodd" filter="url(#i-2)" opacity=".2" stroke-width=".66667"/>
<path d="m64.703 25.082c-0.23557-0.0077-0.46354 0.08611-0.62818 0.25583-2.3582 2.4595-4.7544 5.2205-6.9201 7.8497-0.0016 0.0025 0 0.0077 0 0.01017-5.337 6.6567-9.3948 13.496-12.333 20.816-2.7382 6.8213-4.339 12.716-5.7955 21.318-0.31916 1.882-0.64084 4.1642-0.86374 5.9981-0.11146 0.91694-0.19757 1.7224-0.2457 2.3177-0.02533 0.29889-0.038 0.54206-0.04306 0.73963-0.0016 0.09879 0 0.18238 0 0.28369 0 0.05066 0 0.10638 0.03545 0.20011 0.02533 0.09371 0 0.28116 0.37742 0.51166 0.20264 0.12412 0.22797 0.09879 0.27863 0.11146 0.05066 0.0127 0.08866 0.02026 0.12918 0.02786 0.08105 0.01271 0.16718 0.02279 0.26596 0.03293 0.19757 0.02027 0.44074 0.04053 0.6991 0.05573 2.0466 0.11146 5.0634 0.63325 7.0645 1.2184 1.3501 0.39514 2.2392 0.7219 3.5588 1.307 0.30396 0.13425 0.58512 0.25836 0.79282 0.34955 0.10386 0.0456 0.18997 0.08105 0.2533 0.10638 0.0304 0.01271 0.05826 0.02279 0.08105 0.03293 0.0016 0.0025 5e-3 5e-3 0.0016 5e-3 0 5e-3 0.02533 0.01017 0.03545 0.01773v-0.0077 5e-3c0.02533 5e-3 0.02533 0.01017 0.04812 0.01773 0 0.0025 0.02533 0.01017 0.0304 0.0127 0-0.0025-0.02786 0-0.03293-0.0025 0.05826 0.0304 0.12664 0.07093 0.22037 0.12159 0.2229 0.12159 0.52939 0.29382 0.86375 0.48127 3.2296 1.8136 5.6435 3.6855 9.4987 7.3811 0.50913 0.48633 0.98026 0.92707 1.3399 1.2538 0.17984 0.16211 0.32929 0.29889 0.4458 0.39768 0.05826 0.0507 0.10892 0.0912 0.16211 0.13171 0.02533 0.0203 0.05319 0.0405 0.09626 0.0709 0.02533 0.0135 0.05066 0.0304 0.09878 0.0557 0.05066 0.0228 0.09879 0.0709 0.32929 0.0836 0.2761 0.0135 0.33182-0.0481 0.38755-0.0735 0.05572-0.0253 0.08612-0.0431 0.10892-0.0583 0.04812-0.0304 0.07599-0.0507 0.10386-0.0735 0.05573-0.0431 0.10892-0.0861 0.17224-0.13932 0.12664-0.10638 0.29129-0.2533 0.48633-0.42807 0.39008-0.35209 0.90681-0.82829 1.4641-1.3577 3.189-3.0244 4.7341-4.3035 6.9556-5.7777 4.8507-3.2194 9.1719-4.6455 15.806-5.2078l0.53699-0.04559c0.43314-0.03547 0.76496-0.39768 0.76496-0.83082v-0.31662c0-0.65858-0.15704-2.0213-0.36982-3.7083-0.21271-1.6866-0.4812-3.6066-0.7269-5.0656-1.4565-8.6729-3.1105-14.782-5.8841-21.687-2.4975-6.2235-6.0766-12.508-10.352-18.197 0-0.01271-0.02533-0.02533-0.0304-0.038-2.8775-3.4069-5.6612-6.9809-8.6983-10.297-0.15198-0.16718-0.36475-0.26343-0.59019-0.27103z" fill="url(#c-70-2)" stroke-width="1.6887"/>
<g transform="matrix(2.533 0 0 2.533 -970.2 -1263.7)" fill-rule="evenodd" stroke-width=".66667">
<path d="m415.83 519.04-17.797 13.467c0.02 0.03 0.042 0.063 0.102 0.1 0.08 0.049 0.092 0.038 0.111 0.043 0.02 5e-3 0.035 9e-3 0.051 0.012 0.032 5e-3 0.067 8e-3 0.105 0.012 0.078 8e-3 0.174 0.018 0.275 0.023 0.808 0.044 1.999 0.249 2.789 0.48 0.533 0.156 0.886 0.285 1.406 0.516 0.12 0.053 0.23 0.101 0.313 0.137 0.041 0.018 0.074 0.032 0.1 0.043 0.012 5e-3 0.022 0.01 0.031 0.014h4e-3l2e-3 2e-3c4e-3 2e-3 7e-3 3e-3 0.014 6e-3h2e-3c5e-3 2e-3 8e-3 3e-3 0.018 6e-3 4e-3 1e-3 7e-3 5e-3 0.012 6e-3 -3e-3 -1e-3 -0.01-1e-3 -0.012-2e-3 0.023 0.012 0.049 0.028 0.086 0.049 0.088 0.048 0.21 0.115 0.342 0.189 1.275 0.716 2.228 1.455 3.75 2.914 0.201 0.192 0.388 0.367 0.529 0.496 0.071 0.064 0.129 0.116 0.176 0.156 0.023 0.02 0.043 0.037 0.065 0.053 0.01 8e-3 0.021 0.016 0.039 0.027 9e-3 5e-3 0.019 0.012 0.039 0.021s0.038 0.029 0.129 0.033c0.109 5e-3 0.132-0.019 0.154-0.029s0.033-0.018 0.043-0.023c0.019-0.012 0.03-0.019 0.041-0.027 0.022-0.017 0.043-0.034 0.068-0.055 0.05-0.042 0.114-0.101 0.191-0.17 0.154-0.139 0.358-0.327 0.578-0.535 1.259-1.194 1.869-1.699 2.746-2.281 1.915-1.271 3.621-1.834 6.24-2.055l0.211-0.018c0.171-0.014 0.303-0.159 0.303-0.33v-0.123c0-0.26-0.063-0.799-0.146-1.465-0.084-0.666-0.19-1.424-0.287-2-0.575-3.424-1.227-5.836-2.322-8.563-0.151-0.376-0.329-0.752-0.5-1.129" fill="url(#linearGradient4985)"/>
<path d="m401.29 519.04 17.797 13.467c-0.02 0.03-0.042 0.063-0.102 0.1-0.08 0.049-0.092 0.038-0.111 0.043-0.02 5e-3 -0.035 9e-3 -0.051 0.012-0.032 5e-3 -0.067 8e-3 -0.105 0.012-0.078 8e-3 -0.174 0.018-0.275 0.023-0.808 0.044-1.999 0.249-2.789 0.48-0.533 0.156-0.886 0.285-1.406 0.516-0.12 0.053-0.23 0.101-0.313 0.137-0.041 0.018-0.074 0.032-0.1 0.043-0.012 5e-3 -0.022 0.01-0.031 0.014h-4e-3l-2e-3 2e-3c-4e-3 2e-3 -7e-3 3e-3 -0.014 6e-3h-2e-3c-5e-3 2e-3 -8e-3 3e-3 -0.018 6e-3 -4e-3 1e-3 -7e-3 5e-3 -0.012 6e-3 3e-3 -1e-3 0.01-1e-3 0.012-2e-3 -0.023 0.012-0.049 0.028-0.086 0.049-0.088 0.048-0.21 0.115-0.342 0.189-1.275 0.716-2.228 1.455-3.75 2.914-0.201 0.192-0.388 0.367-0.529 0.496-0.071 0.064-0.129 0.116-0.176 0.156-0.023 0.02-0.043 0.037-0.065 0.053-0.01 8e-3 -0.021 0.016-0.039 0.027-9e-3 5e-3 -0.019 0.012-0.039 0.021s-0.038 0.029-0.129 0.033c-0.109 5e-3 -0.132-0.019-0.154-0.029s-0.033-0.018-0.043-0.023c-0.019-0.012-0.03-0.019-0.041-0.027-0.022-0.017-0.043-0.034-0.068-0.055-0.05-0.042-0.114-0.101-0.191-0.17-0.154-0.139-0.358-0.327-0.578-0.535-1.259-1.194-1.869-1.699-2.746-2.281-1.915-1.271-3.621-1.834-6.24-2.055l-0.211-0.018c-0.171-0.014-0.303-0.159-0.303-0.33v-0.123c0-0.26 0.063-0.799 0.146-1.465 0.084-0.666 0.19-1.424 0.287-2 0.575-3.424 1.227-5.836 2.322-8.563 0.151-0.376 0.329-0.752 0.5-1.129" fill="url(#linearGradient4987)"/>
</g>
</svg>
