<svg width="128" height="128" version="1.1" viewBox="0 0 128 128" xmlns="http://www.w3.org/2000/svg" xmlns:xlink="http://www.w3.org/1999/xlink">
<defs>
<linearGradient id="linearGradient826" x1="66.53" x2="64.334" y1="122.26" y2="5.9834" gradientUnits="userSpaceOnUse">
<stop stop-color="#0068e0" offset="0"/>
<stop stop-color="#00acf4" offset="1"/>
</linearGradient>
<linearGradient id="linearGradient4322" x1="135" x2="160" y1="120" y2="160" gradientTransform="matrix(.43333 0 0 .43333 -83.755 -6.7415)" gradientUnits="userSpaceOnUse">
<stop stop-color="#effffc" offset="0"/>
<stop stop-color="#fff" offset="1"/>
</linearGradient>
</defs>
<linearGradient id="b" x1="66.016" x2="64.334" y1="119.35" y2="1.3385" gradientUnits="userSpaceOnUse">
<stop stop-color="#dcdde0" offset="0"/>
<stop stop-color="#f7f9f9" offset="1"/>
</linearGradient>
<path d="m124.9 64.226a60.566 60.566 0 0 1-60.566 60.566 60.566 60.566 0 0 1-60.566-60.566 60.566 60.566 0 0 1 60.566-60.566 60.566 60.566 0 0 1 60.566 60.566z" fill="url(#linearGradient826)" stroke="#cccdd1" stroke-width="4.6449"/>
<path d="m96.275 32.045c-0.56133 0.01993-1.1548 0.15888-1.7513 0.42301l-69.688 26.221c-4.7566 1.8612-4.7276 4.4485-0.86578 5.6019l17.877 5.4438 6.1514 19.737c0.8083 2.1768 0.41186 3.0401 2.7555 3.0401 1.8086 0 2.6085-0.80311 3.6154-1.7632 0.62262-0.59368 4.5941-4.3572 8.6934-8.2447l18.077 13.028c3.3269 1.7906 5.7279 0.86419 6.5566-3.0125l11.866-54.554c0.9868-3.8605-0.85486-6.0065-3.2872-5.9202z" fill-opacity=".095057" stroke-width="1.3741"/>
<path d="m96.568 31.782c-0.56591 0.02009-1.1642 0.16018-1.7657 0.42648l-70.259 26.435c-4.7955 1.8764-4.7664 4.4849-0.87288 5.6478l18.024 5.4884 6.2018 19.899c0.81492 2.1947 0.41523 3.065 2.7781 3.065 1.8234 0 2.6299-0.80969 3.645-1.7776 0.62772-0.59854 4.6317-4.3929 8.7647-8.3123l18.225 13.135c3.3542 1.8053 5.7748 0.87127 6.6104-3.0371l11.963-55.001c0.99488-3.8921-0.86187-6.0557-3.3141-5.9687z" fill-opacity=".095057" stroke-width="1.3853"/>
<path d="m96.914 31.47c-0.57135 0.02028-1.1754 0.16172-1.7826 0.43057l-70.934 26.689c-4.8416 1.8944-4.8122 4.528-0.88126 5.702l18.197 5.5411 6.2614 20.09c0.82275 2.2158 0.41922 3.0945 2.8048 3.0945 1.8409 0 2.6552-0.81747 3.68-1.7947 0.63375-0.60429 4.6762-4.4351 8.8488-8.3921l18.4 13.261c3.3864 1.8226 5.8303 0.87964 6.6738-3.0663l12.078-55.53c1.0044-3.9295-0.87014-6.1139-3.346-6.026z" fill-opacity=".095057" stroke-width="1.3986"/>
<path d="m97.18 31.231c-0.57553 0.02043-1.184 0.1629-1.7957 0.43372l-71.453 26.885c-4.877 1.9083-4.8474 4.5611-0.88771 5.7438l18.33 5.5816 6.3072 20.237c0.82877 2.232 0.42229 3.1171 2.8253 3.1171 1.8544 0 2.6746-0.82345 3.7069-1.8078 0.63838-0.60871 4.7104-4.4675 8.9136-8.4535l18.534 13.358c3.4112 1.836 5.8729 0.88608 6.7227-3.0888l12.167-55.936c1.0118-3.9582-0.87652-6.1586-3.3705-6.0701z" fill-opacity=".095057" stroke-width="1.4089"/>
<path d="m64.334 1.3385c-34.705 0-62.888 28.182-62.888 62.887 0 34.705 28.184 62.888 62.888 62.888 34.705 0 62.887-28.184 62.887-62.888 0-34.705-28.182-62.887-62.887-62.887zm0 4.6449c32.194 0 58.242 26.048 58.242 58.242 0 32.194-26.048 58.243-58.242 58.243-32.194 0-58.243-26.049-58.243-58.243 0-32.194 26.049-58.242 58.243-58.242z" fill="url(#b)"/>
<g transform="matrix(1.3746 0 0 1.341 -24.004 -25.605)">
<path d="m54.467 87.833c-1.6846 0-1.3984-0.6361-1.9794-2.2401l-4.9576-16.305 30.682-19.169 3.5805 0.93644-2.9746 8.1525z" fill="#c8daea"/>
<path d="m54.467 87.833c1.3 0 1.8763-0.59257 2.6-1.3 1.1173-1.0921 15.6-15.167 15.6-15.167l-8.8712-2.1472-8.2333 5.2-1.096 12.981z" fill="#a9c9dd"/>
<path d="m55.352 74.576 20.956 15.482c2.3914 1.3194 4.1173 0.63629 4.713-2.2202l8.53-40.197c0.873-3.501-1.335-5.089-3.622-4.051l-50.091 19.32c-3.419 1.3714-3.3991 3.2789-0.62321 4.1288l12.854 4.0119 29.758-18.774c1.4048-0.85188 2.6942-0.3939 1.6359 0.54531z" fill="url(#linearGradient4322)"/>
</g>
</svg>
