<svg width="128" height="128" version="1.1" viewBox="0 0 33.867 33.867" xmlns="http://www.w3.org/2000/svg" xmlns:xlink="http://www.w3.org/1999/xlink">
<defs>
<linearGradient id="linearGradient1632" x1="132.21" x2="132.21" y1="42.152" y2="70.68" gradientTransform="matrix(.97573 0 0 .97573 -111.77 -37.183)" gradientUnits="userSpaceOnUse">
<stop stop-color="#fafafc" offset="0"/>
<stop stop-color="#e2e6ea" offset="1"/>
</linearGradient>
<linearGradient id="linearGradient989" x1="18.316" x2="10.831" y1="30.629" y2="7.5818" gradientTransform="scale(3.7795)" gradientUnits="userSpaceOnUse">
<stop stop-color="#4f4f4f" offset="0"/>
<stop stop-color="#080911" offset="1"/>
</linearGradient>
</defs>
<g transform="matrix(.97573 0 0 .97573 -65.737 -37.183)" fill="none" opacity=".295" stroke="#000" stroke-linecap="round" stroke-linejoin="round" stroke-opacity=".02">
<rect x="69.84" y="40.71" width="29.811" height="29.811" rx="6.6099" ry="6.6099" stroke-width=".1"/>
<rect x="69.84" y="40.71" width="29.811" height="29.811" rx="6.6099" ry="6.6099" stroke-width=".2"/>
<rect x="69.84" y="40.71" width="29.811" height="29.811" rx="6.6099" ry="6.6099" stroke-width=".3"/>
<rect x="69.84" y="40.71" width="29.811" height="29.811" rx="6.6099" ry="6.6099" stroke-width=".4"/>
<rect x="69.84" y="40.71" width="29.811" height="29.811" rx="6.6099" ry="6.6099" stroke-width=".5"/>
<rect x="69.84" y="40.71" width="29.811" height="29.811" rx="6.6099" ry="6.6099" stroke-width=".6"/>
<rect x="69.84" y="40.71" width="29.811" height="29.811" rx="6.6099" ry="6.6099" stroke-width=".7"/>
<rect x="69.84" y="40.71" width="29.811" height="29.811" rx="6.6099" ry="6.6099" stroke-width=".8"/>
<rect x="69.84" y="40.71" width="29.811" height="29.811" rx="6.6099" ry="6.6099"/>
<rect x="69.84" y="40.71" width="29.811" height="29.811" rx="6.6099" ry="6.6099" stroke-width="1.2"/>
<rect x="69.84" y="40.71" width="29.811" height="29.811" rx="6.6099" ry="6.6099" stroke-width="1.4"/>
<rect x="69.84" y="40.71" width="29.811" height="29.811" rx="6.6099" ry="6.6099" stroke-width="1.6"/>
<rect x="69.84" y="40.71" width="29.811" height="29.811" rx="6.6099" ry="6.6099" stroke-width="1.8"/>
<rect x="69.84" y="40.71" width="29.811" height="29.811" rx="6.6099" ry="6.6099" stroke-width="2"/>
<rect x="69.84" y="40.71" width="29.811" height="29.811" rx="6.6099" ry="6.6099" stroke-width="2.2"/>
<rect x="69.84" y="40.71" width="29.811" height="29.811" rx="6.6099" ry="6.6099" stroke-width="2.6"/>
<rect x="69.84" y="40.71" width="29.811" height="29.811" rx="6.6099" ry="6.6099" stroke-width="3"/>
<rect x="69.84" y="40.71" width="29.811" height="29.811" rx="6.6099" ry="6.6099" stroke-width="3.4"/>
<rect x="69.84" y="40.71" width="29.811" height="29.811" rx="6.6099" ry="6.6099" stroke-width="3.8"/>
<rect x="69.84" y="40.71" width="29.811" height="29.811" rx="6.6099" ry="6.6099" stroke-width="4.2"/>
<rect x="69.84" y="40.71" width="29.811" height="29.811" rx="6.6099" ry="6.6099" stroke-width="4.6"/>
<rect x="69.84" y="40.71" width="29.811" height="29.811" rx="6.6099" ry="6.6099" stroke-width="5"/>
</g>
<rect x="2.4074" y="2.5392" width="29.087" height="29.087" rx="6.4495" ry="6.4495" fill="url(#linearGradient1632)" stroke-linecap="round" stroke-linejoin="round" stroke-width="2.6877"/>
<path transform="scale(.26458)" d="m28.496 44.957a2.9873 2.9122 0 1 0 0 5.8242h9.9531a2.9873 2.9122 0 1 0 0-5.8242h-9.9531zm18.363 0c-3.9379-0.05571-3.9379 5.88 0 5.8242h2.7246 2.1328c3.9378-0.055635 3.9378 5.8798 0 5.8242h-1.3535-9.3262-5.3418c-3.9379-0.05571-3.9379 5.88 0 5.8242h11.164 3.2598 6.4043c3.9378-0.055635 3.9378 5.8798 0 5.8242h-6.2109-0.14844c-3.9379-0.05571-3.9379 5.88 0 5.8242h2.7695 1.5527c3.9378-0.055635 3.9378 5.8779 0 5.8223h-4.7539-6.7559c-3.9379-0.055711-3.9379 5.88 0 5.8242h27.914 15.725 0.97266v-0.033203c10.864-0.51787 19.406-9.4737 19.412-20.35-0.01361-10.87-8.5544-19.816-19.412-20.334v-0.050781h-0.97266-30.092-8.7363-0.92773zm42.143 5.2305a15.352 15.197 0 0 1 15.352 15.197 15.352 15.197 0 0 1-15.352 15.197 15.352 15.197 0 0 1-15.352-15.197 15.352 15.197 0 0 1 15.352-15.197zm-54.875 18.066a2.7997 2.9122 0 1 0 0 5.8242h7.4277a2.7997 2.9122 0 1 0 0-5.8242h-7.4277zm-11.449 11.646a2.9953 2.9122 0 1 0 0 5.8242h9.9414a2.9953 2.9122 0 1 0 0-5.8242h-9.9414z" opacity=".2" stroke-width="1.4559"/>
<path transform="scale(.26458)" d="m28.496 43.502a2.9873 2.9122 0 1 0 0 5.8242h9.9531a2.9873 2.9122 0 1 0 0-5.8242h-9.9531zm18.363 0c-3.9379-0.055748-3.9379 5.88 0 5.8242h2.7246 2.1328c3.9378-0.055635 3.9378 5.8798 0 5.8242h-1.3535-9.3262-5.3418c-3.9379-0.055786-3.9379 5.88 0 5.8242h11.164 3.2598 6.4043c3.9378-0.055634 3.9378 5.8779 0 5.8223h-6.2109-0.14844c-3.9379-0.055786-3.9379 5.88 0 5.8242h2.7695 1.5527c3.9378-0.055635 3.9378 5.8798 0 5.8242h-4.7539-6.7559c-3.9379-0.055709-3.9379 5.88 0 5.8242h27.914 15.725 0.97266v-0.035156c10.864-0.51787 19.406-9.4737 19.412-20.35-0.01361-10.87-8.5544-19.814-19.412-20.332v-0.050781h-0.97266-30.092-8.7363-0.92773zm41.213 8.7363c5.6271 0 10.191 4.3462 10.191 9.7051v3.8848c0 5.3654-4.5643 9.7051-10.191 9.7051-5.634 0-10.193-4.3397-10.193-9.7051v-3.8848c0-5.3589 4.5594-9.7051 10.193-9.7051zm-4.3691 8.7363a2.912 2.912 0 0 0-2.9082 2.9082 2.912 2.912 0 0 0 2.9082 2.916h8.7324a2.912 2.912 0 0 0 2.916-2.916 2.912 2.912 0 0 0-2.916-2.9082h-8.7324zm-49.576 5.8223a2.7997 2.9122 0 1 0 0 5.8242h7.4277a2.7997 2.9122 0 1 0 0-5.8242h-7.4277zm-11.449 11.648a2.9953 2.9122 0 1 0 0 5.8242h9.9414a2.9953 2.9122 0 1 0 0-5.8242h-9.9414z" fill="url(#linearGradient989)" stroke-width="1.4559"/>
<path d="m7.5393 11.51a0.79039 0.77052 0 0 0-0.77495 0.96304 0.79039 0.77052 0 0 1 0.77495-0.57858h2.6333a0.79039 0.77052 0 0 1 0.77495 0.57933 0.79039 0.77052 0 0 0-0.77495-0.9638zm4.8589 0c-0.60838-0.0086-0.85824 0.52189-0.75614 0.96304 0.07253-0.31467 0.32228-0.58472 0.75614-0.57858h10.776v0.01354c2.8087 0.1339 5.0248 2.4011 5.1259 5.1899 0.0024-0.06524 0.0097-0.12907 0.0097-0.19486-0.0036-2.876-2.263-5.2425-5.1357-5.3795v-0.01354h-10.531zm2.042 2.5039c-0.07275 0.31435-0.32338 0.58395-0.75689 0.57783h-4.2389c-0.60816-0.0086-0.85795 0.52199-0.75614 0.96304 0.07253-0.31466 0.32229-0.58397 0.75614-0.57782h4.2389c0.60803 0.0086 0.85855-0.52204 0.75689-0.96304zm1.2715 3.0817c-0.07261 0.31456-0.32316 0.58395-0.75689 0.57782h-1.6823c-0.60816-0.0086-0.85795 0.52199-0.75614 0.96304 0.07253-0.31467 0.32229-0.58397 0.75614-0.57783h1.6823c0.60803 0.0086 0.85855-0.52204 0.75689-0.96304zm-6.6826 0.57782a0.74076 0.77052 0 0 0-0.72604 0.96154 0.74076 0.77052 0 0 1 0.72604-0.57632h1.9652a0.74076 0.77052 0 0 1 0.72604 0.57707 0.74076 0.77052 0 0 0-0.72604-0.96229zm6.1439 2.5039c-0.07261 0.31456-0.32316 0.58395-0.75689 0.57783h-3.0456c-0.60816-0.0086-0.85795 0.52199-0.75614 0.96304 0.07253-0.31467 0.32228-0.58396 0.75614-0.57782h3.0456c0.60803 0.0086 0.85855-0.52204 0.75689-0.96304zm-9.173 0.57783a0.7925 0.77052 0 0 0-0.77721 0.9638 0.7925 0.77052 0 0 1 0.77721-0.57858h2.6303a0.7925 0.77052 0 0 1 0.77721 0.57782 0.7925 0.77052 0 0 0-0.77721-0.96304z" fill="#fff" opacity=".1" stroke-width=".38522"/>
</svg>
