<svg width="128" height="128" version="1.1" viewBox="0 0 128 128" xmlns="http://www.w3.org/2000/svg" xmlns:xlink="http://www.w3.org/1999/xlink">
<defs>
<linearGradient id="linearGradient825" x1="-741.83" x2="-741.83" y1="959.05" y2="93.836" gradientTransform="matrix(.13668 0 0 .13668 162.31 -5.9893)" gradientUnits="userSpaceOnUse">
<stop stop-color="#136fcd" offset="0"/>
<stop stop-color="#3dc1fd" offset="1"/>
</linearGradient>
<linearGradient id="linearGradient835" x1="-722.89" x2="-738.76" y1="875.88" y2="152.13" gradientTransform="matrix(.13668 0 0 .13668 162.31 -5.9893)" gradientUnits="userSpaceOnUse">
<stop stop-color="#007fff" offset="0"/>
<stop stop-color="#38c2ff" offset="1"/>
</linearGradient>
</defs>
<circle cx="63.592" cy="64.286" r="61.38" fill="url(#linearGradient825)"/>
<circle cx="63.592" cy="64.286" r="55.09" fill="url(#linearGradient835)"/>
<g transform="translate(110.26 -12.464)" fill="none" opacity=".602" stroke="#000" stroke-opacity=".010949">
<path d="m-12.372 70.929-9.1142-17.141c-0.01278-0.0205-0.02557-0.03834-0.04262-0.05642-0.06393-0.07871-0.13543-0.14932-0.2155-0.2057-0.32494-0.2318-0.76649-0.28014-1.1485-0.08484-0.22401 0.1152-0.38883 0.29675-0.4849 0.50624-0.01278 0.01795-0.02131 0.04046-0.02983 0.06256l-4.9268 11.6-9.7759 5.0098c-0.06346 0.03237-0.12947 0.06637-0.19079 0.1005l-3.3242 1.7045-2.8971 1.4841-0.75793-1.4239c-0.42946-0.80676-1.4405-1.1191-2.2625-0.69774-0.81956 0.41949-1.14 1.414-0.711 2.2207l0.7584 1.4234-2.7985 1.4339-2.416-4.5434 4.3371-2.2226c1.1135-0.5726 1.5453-1.9221 0.96368-3.0152-0.09242-0.17729-0.20953-0.33653-0.34326-0.4759l-0.19718-0.18723c-0.68639-0.57497-1.6846-0.71623-2.5312-0.28252l-12.809 6.5626c-1.1153 0.5726-1.5472 1.9216-0.96555 3.0171 0.0924 0.17111 0.20143 0.32661 0.3309 0.46358 0.06602 0.07486 0.13969 0.14315 0.21549 0.20382 0.68634 0.57071 1.6827 0.71196 2.5274 0.27823l4.3348-2.2202 2.4165 4.5434-3.0881 1.5832-0.75798-1.4234c-0.42941-0.80487-1.4447-1.1177-2.2624-0.69821-0.21549 0.11091-0.39649 0.26021-0.54035 0.43798-0.39649 0.49391-0.48682 1.1879-0.17077 1.7827l0.7584 1.4239-4.7031 2.4099c-0.06346 0.02981-0.12947 0.06448-0.19293 0.09671l-11.204 5.7379-3.8214-0.81482c-0.0085-0.0043-0.02136-0.0043-0.0298-6e-3 -0.10689-0.0205-0.21933-0.0043-0.32239 0.04647-0.22784 0.11661-0.32665 0.38112-0.23636 0.611l4.1917 7.8794c0.0085 0.01409 0.02136 0.0298 0.03408 0.04216l0.0043 6e-3 0.06175 0.05689c0.14778 0.12086 0.36157 0.14693 0.54653 0.0545 0.10307-0.0545 0.17887-0.13556 0.22401-0.23415 0.0039-0.0085 0.0085-0.01624 0.01282-0.02599l1.5349-3.61 4.4832-2.2989c0.01709 1.2504 0.32452 2.5151 0.95324 3.6987 2.1515 4.0438 7.2366 5.6108 11.358 3.4991 0.06346-0.03237 0.12947-0.06637 0.19122-0.10096l4.7031-2.4099 0.87926 1.6538c0.42711 0.80439 1.4443 1.1172 2.262 0.69774 0.82003-0.41949 1.1405-1.4159 0.71104-2.2207l-0.87931-1.6514 3.0877-1.5832 2.5644 4.8221c0.59772 1.1234 2.0051 1.5566 3.1498 0.96982 0.32026-0.16306 0.58541-0.38917 0.78493-0.65318 0.52378-0.68352 0.63281-1.6277 0.20314-2.4364l-2.5644-4.8221 2.7985-1.4339 0.87931 1.6519c0.42754 0.80439 1.4424 1.1191 2.262 0.69774 0.82194-0.4214 1.1386-1.4178 0.711-2.2207l-0.87927-1.6533 6.4882-3.3256c0.44794-0.23607 0.86508-0.50435 1.2514-0.80487 3.1128-2.4122 4.14-6.7281 2.2397-10.302-0.62902-1.1817-1.5102-2.152-2.5436-2.8839l3.0592-1.5671 12.584 2.6762c0.02557 6e-3 0.04517 0.01197 0.06776 0.01411 0.23211 0.04216 0.47877 0.01367 0.7006-0.10096 0.49296-0.25029 0.70483-0.82478 0.50952-1.3272zm-47.285 24.235c-0.0298 0.01795-0.05536 0.0298-0.08644 0.04647-1.8534 0.94991-4.1357 0.24603-5.1013-1.5732-0.96602-1.8169-0.25084-4.0575 1.5984-5.0055l4.9003-2.5108 3.4986 6.5788zm7.7808-3.9869-3.4987-6.5787 0.20528-0.10285 2.8848-1.4784 3.4986 6.5788-0.65743 0.33704zm7.2282-3.7029-3.4991-6.5787 2.7985-1.4339 3.4991 6.5788zm11.607-5.9554c-0.04259 0.02599-0.08177 0.05025-0.1252 0.07062l-5.7118 2.9284-3.4991-6.5788 4.2589-2.1842 1.3642-0.69774c0.07198-0.03662 0.14608-0.07062 0.21975-0.10475 1.8084-0.79064 3.9532-0.07062 4.8818 1.6761 0.82003 1.5367 0.43133 3.3778-0.82812 4.4832-0.16823 0.15122-0.35561 0.28819-0.56075 0.40718z" stroke-width=".1" style="isolation:isolate"/>
<path d="m-12.372 70.929-9.1142-17.141c-0.01278-0.0205-0.02557-0.03834-0.04262-0.05642-0.06393-0.07871-0.13543-0.14932-0.2155-0.2057-0.32494-0.2318-0.76649-0.28014-1.1485-0.08484-0.22401 0.1152-0.38883 0.29675-0.4849 0.50624-0.01278 0.01795-0.02131 0.04046-0.02983 0.06256l-4.9268 11.6-9.7759 5.0098c-0.06346 0.03237-0.12947 0.06637-0.19079 0.1005l-3.3242 1.7045-2.8971 1.4841-0.75793-1.4239c-0.42946-0.80676-1.4405-1.1191-2.2625-0.69774-0.81956 0.41949-1.14 1.414-0.711 2.2207l0.7584 1.4234-2.7985 1.4339-2.416-4.5434 4.3371-2.2226c1.1135-0.5726 1.5453-1.9221 0.96368-3.0152-0.09242-0.17729-0.20953-0.33653-0.34326-0.4759l-0.19718-0.18723c-0.68639-0.57497-1.6846-0.71623-2.5312-0.28252l-12.809 6.5626c-1.1153 0.5726-1.5472 1.9216-0.96555 3.0171 0.0924 0.17111 0.20143 0.32661 0.3309 0.46358 0.06602 0.07486 0.13969 0.14315 0.21549 0.20382 0.68634 0.57071 1.6827 0.71196 2.5274 0.27823l4.3348-2.2202 2.4165 4.5434-3.0881 1.5832-0.75798-1.4234c-0.42941-0.80487-1.4447-1.1177-2.2624-0.69821-0.21549 0.11091-0.39649 0.26021-0.54035 0.43798-0.39649 0.49391-0.48682 1.1879-0.17077 1.7827l0.7584 1.4239-4.7031 2.4099c-0.06346 0.02981-0.12947 0.06448-0.19293 0.09671l-11.204 5.7379-3.8214-0.81482c-0.0085-0.0043-0.02136-0.0043-0.0298-6e-3 -0.10689-0.0205-0.21933-0.0043-0.32239 0.04647-0.22784 0.11661-0.32665 0.38112-0.23636 0.611l4.1917 7.8794c0.0085 0.01409 0.02136 0.0298 0.03408 0.04216l0.0043 6e-3 0.06175 0.05689c0.14778 0.12086 0.36157 0.14693 0.54653 0.0545 0.10307-0.0545 0.17887-0.13556 0.22401-0.23415 0.0039-0.0085 0.0085-0.01624 0.01282-0.02599l1.5349-3.61 4.4832-2.2989c0.01709 1.2504 0.32452 2.5151 0.95324 3.6987 2.1515 4.0438 7.2366 5.6108 11.358 3.4991 0.06346-0.03237 0.12947-0.06637 0.19122-0.10096l4.7031-2.4099 0.87926 1.6538c0.42711 0.80439 1.4443 1.1172 2.262 0.69774 0.82003-0.41949 1.1405-1.4159 0.71104-2.2207l-0.87931-1.6514 3.0877-1.5832 2.5644 4.8221c0.59772 1.1234 2.0051 1.5566 3.1498 0.96982 0.32026-0.16306 0.58541-0.38917 0.78493-0.65318 0.52378-0.68352 0.63281-1.6277 0.20314-2.4364l-2.5644-4.8221 2.7985-1.4339 0.87931 1.6519c0.42754 0.80439 1.4424 1.1191 2.262 0.69774 0.82194-0.4214 1.1386-1.4178 0.711-2.2207l-0.87927-1.6533 6.4882-3.3256c0.44794-0.23607 0.86508-0.50435 1.2514-0.80487 3.1128-2.4122 4.14-6.7281 2.2397-10.302-0.62902-1.1817-1.5102-2.152-2.5436-2.8839l3.0592-1.5671 12.584 2.6762c0.02557 6e-3 0.04517 0.01197 0.06776 0.01411 0.23211 0.04216 0.47877 0.01367 0.7006-0.10096 0.49296-0.25029 0.70483-0.82478 0.50952-1.3272zm-47.285 24.235c-0.0298 0.01795-0.05536 0.0298-0.08644 0.04647-1.8534 0.94991-4.1357 0.24603-5.1013-1.5732-0.96602-1.8169-0.25084-4.0575 1.5984-5.0055l4.9003-2.5108 3.4986 6.5788zm7.7808-3.9869-3.4987-6.5787 0.20528-0.10285 2.8848-1.4784 3.4986 6.5788-0.65743 0.33704zm7.2282-3.7029-3.4991-6.5787 2.7985-1.4339 3.4991 6.5788zm11.607-5.9554c-0.04259 0.02599-0.08177 0.05025-0.1252 0.07062l-5.7118 2.9284-3.4991-6.5788 4.2589-2.1842 1.3642-0.69774c0.07198-0.03662 0.14608-0.07062 0.21975-0.10475 1.8084-0.79064 3.9532-0.07062 4.8818 1.6761 0.82003 1.5367 0.43133 3.3778-0.82812 4.4832-0.16823 0.15122-0.35561 0.28819-0.56075 0.40718z" stroke-width=".2" style="isolation:isolate"/>
<path d="m-12.372 70.929-9.1142-17.141c-0.01278-0.0205-0.02557-0.03834-0.04262-0.05642-0.06393-0.07871-0.13543-0.14932-0.2155-0.2057-0.32494-0.2318-0.76649-0.28014-1.1485-0.08484-0.22401 0.1152-0.38883 0.29675-0.4849 0.50624-0.01278 0.01795-0.02131 0.04046-0.02983 0.06256l-4.9268 11.6-9.7759 5.0098c-0.06346 0.03237-0.12947 0.06637-0.19079 0.1005l-3.3242 1.7045-2.8971 1.4841-0.75793-1.4239c-0.42946-0.80676-1.4405-1.1191-2.2625-0.69774-0.81956 0.41949-1.14 1.414-0.711 2.2207l0.7584 1.4234-2.7985 1.4339-2.416-4.5434 4.3371-2.2226c1.1135-0.5726 1.5453-1.9221 0.96368-3.0152-0.09242-0.17729-0.20953-0.33653-0.34326-0.4759l-0.19718-0.18723c-0.68639-0.57497-1.6846-0.71623-2.5312-0.28252l-12.809 6.5626c-1.1153 0.5726-1.5472 1.9216-0.96555 3.0171 0.0924 0.17111 0.20143 0.32661 0.3309 0.46358 0.06602 0.07486 0.13969 0.14315 0.21549 0.20382 0.68634 0.57071 1.6827 0.71196 2.5274 0.27823l4.3348-2.2202 2.4165 4.5434-3.0881 1.5832-0.75798-1.4234c-0.42941-0.80487-1.4447-1.1177-2.2624-0.69821-0.21549 0.11091-0.39649 0.26021-0.54035 0.43798-0.39649 0.49391-0.48682 1.1879-0.17077 1.7827l0.7584 1.4239-4.7031 2.4099c-0.06346 0.02981-0.12947 0.06448-0.19293 0.09671l-11.204 5.7379-3.8214-0.81482c-0.0085-0.0043-0.02136-0.0043-0.0298-6e-3 -0.10689-0.0205-0.21933-0.0043-0.32239 0.04647-0.22784 0.11661-0.32665 0.38112-0.23636 0.611l4.1917 7.8794c0.0085 0.01409 0.02136 0.0298 0.03408 0.04216l0.0043 6e-3 0.06175 0.05689c0.14778 0.12086 0.36157 0.14693 0.54653 0.0545 0.10307-0.0545 0.17887-0.13556 0.22401-0.23415 0.0039-0.0085 0.0085-0.01624 0.01282-0.02599l1.5349-3.61 4.4832-2.2989c0.01709 1.2504 0.32452 2.5151 0.95324 3.6987 2.1515 4.0438 7.2366 5.6108 11.358 3.4991 0.06346-0.03237 0.12947-0.06637 0.19122-0.10096l4.7031-2.4099 0.87926 1.6538c0.42711 0.80439 1.4443 1.1172 2.262 0.69774 0.82003-0.41949 1.1405-1.4159 0.71104-2.2207l-0.87931-1.6514 3.0877-1.5832 2.5644 4.8221c0.59772 1.1234 2.0051 1.5566 3.1498 0.96982 0.32026-0.16306 0.58541-0.38917 0.78493-0.65318 0.52378-0.68352 0.63281-1.6277 0.20314-2.4364l-2.5644-4.8221 2.7985-1.4339 0.87931 1.6519c0.42754 0.80439 1.4424 1.1191 2.262 0.69774 0.82194-0.4214 1.1386-1.4178 0.711-2.2207l-0.87927-1.6533 6.4882-3.3256c0.44794-0.23607 0.86508-0.50435 1.2514-0.80487 3.1128-2.4122 4.14-6.7281 2.2397-10.302-0.62902-1.1817-1.5102-2.152-2.5436-2.8839l3.0592-1.5671 12.584 2.6762c0.02557 6e-3 0.04517 0.01197 0.06776 0.01411 0.23211 0.04216 0.47877 0.01367 0.7006-0.10096 0.49296-0.25029 0.70483-0.82478 0.50952-1.3272zm-47.285 24.235c-0.0298 0.01795-0.05536 0.0298-0.08644 0.04647-1.8534 0.94991-4.1357 0.24603-5.1013-1.5732-0.96602-1.8169-0.25084-4.0575 1.5984-5.0055l4.9003-2.5108 3.4986 6.5788zm7.7808-3.9869-3.4987-6.5787 0.20528-0.10285 2.8848-1.4784 3.4986 6.5788-0.65743 0.33704zm7.2282-3.7029-3.4991-6.5787 2.7985-1.4339 3.4991 6.5788zm11.607-5.9554c-0.04259 0.02599-0.08177 0.05025-0.1252 0.07062l-5.7118 2.9284-3.4991-6.5788 4.2589-2.1842 1.3642-0.69774c0.07198-0.03662 0.14608-0.07062 0.21975-0.10475 1.8084-0.79064 3.9532-0.07062 4.8818 1.6761 0.82003 1.5367 0.43133 3.3778-0.82812 4.4832-0.16823 0.15122-0.35561 0.28819-0.56075 0.40718z" stroke-width=".3" style="isolation:isolate"/>
<path d="m-12.372 70.929-9.1142-17.141c-0.01278-0.0205-0.02557-0.03834-0.04262-0.05642-0.06393-0.07871-0.13543-0.14932-0.2155-0.2057-0.32494-0.2318-0.76649-0.28014-1.1485-0.08484-0.22401 0.1152-0.38883 0.29675-0.4849 0.50624-0.01278 0.01795-0.02131 0.04046-0.02983 0.06256l-4.9268 11.6-9.7759 5.0098c-0.06346 0.03237-0.12947 0.06637-0.19079 0.1005l-3.3242 1.7045-2.8971 1.4841-0.75793-1.4239c-0.42946-0.80676-1.4405-1.1191-2.2625-0.69774-0.81956 0.41949-1.14 1.414-0.711 2.2207l0.7584 1.4234-2.7985 1.4339-2.416-4.5434 4.3371-2.2226c1.1135-0.5726 1.5453-1.9221 0.96368-3.0152-0.09242-0.17729-0.20953-0.33653-0.34326-0.4759l-0.19718-0.18723c-0.68639-0.57497-1.6846-0.71623-2.5312-0.28252l-12.809 6.5626c-1.1153 0.5726-1.5472 1.9216-0.96555 3.0171 0.0924 0.17111 0.20143 0.32661 0.3309 0.46358 0.06602 0.07486 0.13969 0.14315 0.21549 0.20382 0.68634 0.57071 1.6827 0.71196 2.5274 0.27823l4.3348-2.2202 2.4165 4.5434-3.0881 1.5832-0.75798-1.4234c-0.42941-0.80487-1.4447-1.1177-2.2624-0.69821-0.21549 0.11091-0.39649 0.26021-0.54035 0.43798-0.39649 0.49391-0.48682 1.1879-0.17077 1.7827l0.7584 1.4239-4.7031 2.4099c-0.06346 0.02981-0.12947 0.06448-0.19293 0.09671l-11.204 5.7379-3.8214-0.81482c-0.0085-0.0043-0.02136-0.0043-0.0298-6e-3 -0.10689-0.0205-0.21933-0.0043-0.32239 0.04647-0.22784 0.11661-0.32665 0.38112-0.23636 0.611l4.1917 7.8794c0.0085 0.01409 0.02136 0.0298 0.03408 0.04216l0.0043 6e-3 0.06175 0.05689c0.14778 0.12086 0.36157 0.14693 0.54653 0.0545 0.10307-0.0545 0.17887-0.13556 0.22401-0.23415 0.0039-0.0085 0.0085-0.01624 0.01282-0.02599l1.5349-3.61 4.4832-2.2989c0.01709 1.2504 0.32452 2.5151 0.95324 3.6987 2.1515 4.0438 7.2366 5.6108 11.358 3.4991 0.06346-0.03237 0.12947-0.06637 0.19122-0.10096l4.7031-2.4099 0.87926 1.6538c0.42711 0.80439 1.4443 1.1172 2.262 0.69774 0.82003-0.41949 1.1405-1.4159 0.71104-2.2207l-0.87931-1.6514 3.0877-1.5832 2.5644 4.8221c0.59772 1.1234 2.0051 1.5566 3.1498 0.96982 0.32026-0.16306 0.58541-0.38917 0.78493-0.65318 0.52378-0.68352 0.63281-1.6277 0.20314-2.4364l-2.5644-4.8221 2.7985-1.4339 0.87931 1.6519c0.42754 0.80439 1.4424 1.1191 2.262 0.69774 0.82194-0.4214 1.1386-1.4178 0.711-2.2207l-0.87927-1.6533 6.4882-3.3256c0.44794-0.23607 0.86508-0.50435 1.2514-0.80487 3.1128-2.4122 4.14-6.7281 2.2397-10.302-0.62902-1.1817-1.5102-2.152-2.5436-2.8839l3.0592-1.5671 12.584 2.6762c0.02557 6e-3 0.04517 0.01197 0.06776 0.01411 0.23211 0.04216 0.47877 0.01367 0.7006-0.10096 0.49296-0.25029 0.70483-0.82478 0.50952-1.3272zm-47.285 24.235c-0.0298 0.01795-0.05536 0.0298-0.08644 0.04647-1.8534 0.94991-4.1357 0.24603-5.1013-1.5732-0.96602-1.8169-0.25084-4.0575 1.5984-5.0055l4.9003-2.5108 3.4986 6.5788zm7.7808-3.9869-3.4987-6.5787 0.20528-0.10285 2.8848-1.4784 3.4986 6.5788-0.65743 0.33704zm7.2282-3.7029-3.4991-6.5787 2.7985-1.4339 3.4991 6.5788zm11.607-5.9554c-0.04259 0.02599-0.08177 0.05025-0.1252 0.07062l-5.7118 2.9284-3.4991-6.5788 4.2589-2.1842 1.3642-0.69774c0.07198-0.03662 0.14608-0.07062 0.21975-0.10475 1.8084-0.79064 3.9532-0.07062 4.8818 1.6761 0.82003 1.5367 0.43133 3.3778-0.82812 4.4832-0.16823 0.15122-0.35561 0.28819-0.56075 0.40718z" stroke-width=".4" style="isolation:isolate"/>
<path d="m-12.372 70.929-9.1142-17.141c-0.01278-0.0205-0.02557-0.03834-0.04262-0.05642-0.06393-0.07871-0.13543-0.14932-0.2155-0.2057-0.32494-0.2318-0.76649-0.28014-1.1485-0.08484-0.22401 0.1152-0.38883 0.29675-0.4849 0.50624-0.01278 0.01795-0.02131 0.04046-0.02983 0.06256l-4.9268 11.6-9.7759 5.0098c-0.06346 0.03237-0.12947 0.06637-0.19079 0.1005l-3.3242 1.7045-2.8971 1.4841-0.75793-1.4239c-0.42946-0.80676-1.4405-1.1191-2.2625-0.69774-0.81956 0.41949-1.14 1.414-0.711 2.2207l0.7584 1.4234-2.7985 1.4339-2.416-4.5434 4.3371-2.2226c1.1135-0.5726 1.5453-1.9221 0.96368-3.0152-0.09242-0.17729-0.20953-0.33653-0.34326-0.4759l-0.19718-0.18723c-0.68639-0.57497-1.6846-0.71623-2.5312-0.28252l-12.809 6.5626c-1.1153 0.5726-1.5472 1.9216-0.96555 3.0171 0.0924 0.17111 0.20143 0.32661 0.3309 0.46358 0.06602 0.07486 0.13969 0.14315 0.21549 0.20382 0.68634 0.57071 1.6827 0.71196 2.5274 0.27823l4.3348-2.2202 2.4165 4.5434-3.0881 1.5832-0.75798-1.4234c-0.42941-0.80487-1.4447-1.1177-2.2624-0.69821-0.21549 0.11091-0.39649 0.26021-0.54035 0.43798-0.39649 0.49391-0.48682 1.1879-0.17077 1.7827l0.7584 1.4239-4.7031 2.4099c-0.06346 0.02981-0.12947 0.06448-0.19293 0.09671l-11.204 5.7379-3.8214-0.81482c-0.0085-0.0043-0.02136-0.0043-0.0298-6e-3 -0.10689-0.0205-0.21933-0.0043-0.32239 0.04647-0.22784 0.11661-0.32665 0.38112-0.23636 0.611l4.1917 7.8794c0.0085 0.01409 0.02136 0.0298 0.03408 0.04216l0.0043 6e-3 0.06175 0.05689c0.14778 0.12086 0.36157 0.14693 0.54653 0.0545 0.10307-0.0545 0.17887-0.13556 0.22401-0.23415 0.0039-0.0085 0.0085-0.01624 0.01282-0.02599l1.5349-3.61 4.4832-2.2989c0.01709 1.2504 0.32452 2.5151 0.95324 3.6987 2.1515 4.0438 7.2366 5.6108 11.358 3.4991 0.06346-0.03237 0.12947-0.06637 0.19122-0.10096l4.7031-2.4099 0.87926 1.6538c0.42711 0.80439 1.4443 1.1172 2.262 0.69774 0.82003-0.41949 1.1405-1.4159 0.71104-2.2207l-0.87931-1.6514 3.0877-1.5832 2.5644 4.8221c0.59772 1.1234 2.0051 1.5566 3.1498 0.96982 0.32026-0.16306 0.58541-0.38917 0.78493-0.65318 0.52378-0.68352 0.63281-1.6277 0.20314-2.4364l-2.5644-4.8221 2.7985-1.4339 0.87931 1.6519c0.42754 0.80439 1.4424 1.1191 2.262 0.69774 0.82194-0.4214 1.1386-1.4178 0.711-2.2207l-0.87927-1.6533 6.4882-3.3256c0.44794-0.23607 0.86508-0.50435 1.2514-0.80487 3.1128-2.4122 4.14-6.7281 2.2397-10.302-0.62902-1.1817-1.5102-2.152-2.5436-2.8839l3.0592-1.5671 12.584 2.6762c0.02557 6e-3 0.04517 0.01197 0.06776 0.01411 0.23211 0.04216 0.47877 0.01367 0.7006-0.10096 0.49296-0.25029 0.70483-0.82478 0.50952-1.3272zm-47.285 24.235c-0.0298 0.01795-0.05536 0.0298-0.08644 0.04647-1.8534 0.94991-4.1357 0.24603-5.1013-1.5732-0.96602-1.8169-0.25084-4.0575 1.5984-5.0055l4.9003-2.5108 3.4986 6.5788zm7.7808-3.9869-3.4987-6.5787 0.20528-0.10285 2.8848-1.4784 3.4986 6.5788-0.65743 0.33704zm7.2282-3.7029-3.4991-6.5787 2.7985-1.4339 3.4991 6.5788zm11.607-5.9554c-0.04259 0.02599-0.08177 0.05025-0.1252 0.07062l-5.7118 2.9284-3.4991-6.5788 4.2589-2.1842 1.3642-0.69774c0.07198-0.03662 0.14608-0.07062 0.21975-0.10475 1.8084-0.79064 3.9532-0.07062 4.8818 1.6761 0.82003 1.5367 0.43133 3.3778-0.82812 4.4832-0.16823 0.15122-0.35561 0.28819-0.56075 0.40718z" stroke-width=".5" style="isolation:isolate"/>
<path d="m-12.372 70.929-9.1142-17.141c-0.01278-0.0205-0.02557-0.03834-0.04262-0.05642-0.06393-0.07871-0.13543-0.14932-0.2155-0.2057-0.32494-0.2318-0.76649-0.28014-1.1485-0.08484-0.22401 0.1152-0.38883 0.29675-0.4849 0.50624-0.01278 0.01795-0.02131 0.04046-0.02983 0.06256l-4.9268 11.6-9.7759 5.0098c-0.06346 0.03237-0.12947 0.06637-0.19079 0.1005l-3.3242 1.7045-2.8971 1.4841-0.75793-1.4239c-0.42946-0.80676-1.4405-1.1191-2.2625-0.69774-0.81956 0.41949-1.14 1.414-0.711 2.2207l0.7584 1.4234-2.7985 1.4339-2.416-4.5434 4.3371-2.2226c1.1135-0.5726 1.5453-1.9221 0.96368-3.0152-0.09242-0.17729-0.20953-0.33653-0.34326-0.4759l-0.19718-0.18723c-0.68639-0.57497-1.6846-0.71623-2.5312-0.28252l-12.809 6.5626c-1.1153 0.5726-1.5472 1.9216-0.96555 3.0171 0.0924 0.17111 0.20143 0.32661 0.3309 0.46358 0.06602 0.07486 0.13969 0.14315 0.21549 0.20382 0.68634 0.57071 1.6827 0.71196 2.5274 0.27823l4.3348-2.2202 2.4165 4.5434-3.0881 1.5832-0.75798-1.4234c-0.42941-0.80487-1.4447-1.1177-2.2624-0.69821-0.21549 0.11091-0.39649 0.26021-0.54035 0.43798-0.39649 0.49391-0.48682 1.1879-0.17077 1.7827l0.7584 1.4239-4.7031 2.4099c-0.06346 0.02981-0.12947 0.06448-0.19293 0.09671l-11.204 5.7379-3.8214-0.81482c-0.0085-0.0043-0.02136-0.0043-0.0298-6e-3 -0.10689-0.0205-0.21933-0.0043-0.32239 0.04647-0.22784 0.11661-0.32665 0.38112-0.23636 0.611l4.1917 7.8794c0.0085 0.01409 0.02136 0.0298 0.03408 0.04216l0.0043 6e-3 0.06175 0.05689c0.14778 0.12086 0.36157 0.14693 0.54653 0.0545 0.10307-0.0545 0.17887-0.13556 0.22401-0.23415 0.0039-0.0085 0.0085-0.01624 0.01282-0.02599l1.5349-3.61 4.4832-2.2989c0.01709 1.2504 0.32452 2.5151 0.95324 3.6987 2.1515 4.0438 7.2366 5.6108 11.358 3.4991 0.06346-0.03237 0.12947-0.06637 0.19122-0.10096l4.7031-2.4099 0.87926 1.6538c0.42711 0.80439 1.4443 1.1172 2.262 0.69774 0.82003-0.41949 1.1405-1.4159 0.71104-2.2207l-0.87931-1.6514 3.0877-1.5832 2.5644 4.8221c0.59772 1.1234 2.0051 1.5566 3.1498 0.96982 0.32026-0.16306 0.58541-0.38917 0.78493-0.65318 0.52378-0.68352 0.63281-1.6277 0.20314-2.4364l-2.5644-4.8221 2.7985-1.4339 0.87931 1.6519c0.42754 0.80439 1.4424 1.1191 2.262 0.69774 0.82194-0.4214 1.1386-1.4178 0.711-2.2207l-0.87927-1.6533 6.4882-3.3256c0.44794-0.23607 0.86508-0.50435 1.2514-0.80487 3.1128-2.4122 4.14-6.7281 2.2397-10.302-0.62902-1.1817-1.5102-2.152-2.5436-2.8839l3.0592-1.5671 12.584 2.6762c0.02557 6e-3 0.04517 0.01197 0.06776 0.01411 0.23211 0.04216 0.47877 0.01367 0.7006-0.10096 0.49296-0.25029 0.70483-0.82478 0.50952-1.3272zm-47.285 24.235c-0.0298 0.01795-0.05536 0.0298-0.08644 0.04647-1.8534 0.94991-4.1357 0.24603-5.1013-1.5732-0.96602-1.8169-0.25084-4.0575 1.5984-5.0055l4.9003-2.5108 3.4986 6.5788zm7.7808-3.9869-3.4987-6.5787 0.20528-0.10285 2.8848-1.4784 3.4986 6.5788-0.65743 0.33704zm7.2282-3.7029-3.4991-6.5787 2.7985-1.4339 3.4991 6.5788zm11.607-5.9554c-0.04259 0.02599-0.08177 0.05025-0.1252 0.07062l-5.7118 2.9284-3.4991-6.5788 4.2589-2.1842 1.3642-0.69774c0.07198-0.03662 0.14608-0.07062 0.21975-0.10475 1.8084-0.79064 3.9532-0.07062 4.8818 1.6761 0.82003 1.5367 0.43133 3.3778-0.82812 4.4832-0.16823 0.15122-0.35561 0.28819-0.56075 0.40718z" stroke-width=".6" style="isolation:isolate"/>
<path d="m-12.372 70.929-9.1142-17.141c-0.01278-0.0205-0.02557-0.03834-0.04262-0.05642-0.06393-0.07871-0.13543-0.14932-0.2155-0.2057-0.32494-0.2318-0.76649-0.28014-1.1485-0.08484-0.22401 0.1152-0.38883 0.29675-0.4849 0.50624-0.01278 0.01795-0.02131 0.04046-0.02983 0.06256l-4.9268 11.6-9.7759 5.0098c-0.06346 0.03237-0.12947 0.06637-0.19079 0.1005l-3.3242 1.7045-2.8971 1.4841-0.75793-1.4239c-0.42946-0.80676-1.4405-1.1191-2.2625-0.69774-0.81956 0.41949-1.14 1.414-0.711 2.2207l0.7584 1.4234-2.7985 1.4339-2.416-4.5434 4.3371-2.2226c1.1135-0.5726 1.5453-1.9221 0.96368-3.0152-0.09242-0.17729-0.20953-0.33653-0.34326-0.4759l-0.19718-0.18723c-0.68639-0.57497-1.6846-0.71623-2.5312-0.28252l-12.809 6.5626c-1.1153 0.5726-1.5472 1.9216-0.96555 3.0171 0.0924 0.17111 0.20143 0.32661 0.3309 0.46358 0.06602 0.07486 0.13969 0.14315 0.21549 0.20382 0.68634 0.57071 1.6827 0.71196 2.5274 0.27823l4.3348-2.2202 2.4165 4.5434-3.0881 1.5832-0.75798-1.4234c-0.42941-0.80487-1.4447-1.1177-2.2624-0.69821-0.21549 0.11091-0.39649 0.26021-0.54035 0.43798-0.39649 0.49391-0.48682 1.1879-0.17077 1.7827l0.7584 1.4239-4.7031 2.4099c-0.06346 0.02981-0.12947 0.06448-0.19293 0.09671l-11.204 5.7379-3.8214-0.81482c-0.0085-0.0043-0.02136-0.0043-0.0298-6e-3 -0.10689-0.0205-0.21933-0.0043-0.32239 0.04647-0.22784 0.11661-0.32665 0.38112-0.23636 0.611l4.1917 7.8794c0.0085 0.01409 0.02136 0.0298 0.03408 0.04216l0.0043 6e-3 0.06175 0.05689c0.14778 0.12086 0.36157 0.14693 0.54653 0.0545 0.10307-0.0545 0.17887-0.13556 0.22401-0.23415 0.0039-0.0085 0.0085-0.01624 0.01282-0.02599l1.5349-3.61 4.4832-2.2989c0.01709 1.2504 0.32452 2.5151 0.95324 3.6987 2.1515 4.0438 7.2366 5.6108 11.358 3.4991 0.06346-0.03237 0.12947-0.06637 0.19122-0.10096l4.7031-2.4099 0.87926 1.6538c0.42711 0.80439 1.4443 1.1172 2.262 0.69774 0.82003-0.41949 1.1405-1.4159 0.71104-2.2207l-0.87931-1.6514 3.0877-1.5832 2.5644 4.8221c0.59772 1.1234 2.0051 1.5566 3.1498 0.96982 0.32026-0.16306 0.58541-0.38917 0.78493-0.65318 0.52378-0.68352 0.63281-1.6277 0.20314-2.4364l-2.5644-4.8221 2.7985-1.4339 0.87931 1.6519c0.42754 0.80439 1.4424 1.1191 2.262 0.69774 0.82194-0.4214 1.1386-1.4178 0.711-2.2207l-0.87927-1.6533 6.4882-3.3256c0.44794-0.23607 0.86508-0.50435 1.2514-0.80487 3.1128-2.4122 4.14-6.7281 2.2397-10.302-0.62902-1.1817-1.5102-2.152-2.5436-2.8839l3.0592-1.5671 12.584 2.6762c0.02557 6e-3 0.04517 0.01197 0.06776 0.01411 0.23211 0.04216 0.47877 0.01367 0.7006-0.10096 0.49296-0.25029 0.70483-0.82478 0.50952-1.3272zm-47.285 24.235c-0.0298 0.01795-0.05536 0.0298-0.08644 0.04647-1.8534 0.94991-4.1357 0.24603-5.1013-1.5732-0.96602-1.8169-0.25084-4.0575 1.5984-5.0055l4.9003-2.5108 3.4986 6.5788zm7.7808-3.9869-3.4987-6.5787 0.20528-0.10285 2.8848-1.4784 3.4986 6.5788-0.65743 0.33704zm7.2282-3.7029-3.4991-6.5787 2.7985-1.4339 3.4991 6.5788zm11.607-5.9554c-0.04259 0.02599-0.08177 0.05025-0.1252 0.07062l-5.7118 2.9284-3.4991-6.5788 4.2589-2.1842 1.3642-0.69774c0.07198-0.03662 0.14608-0.07062 0.21975-0.10475 1.8084-0.79064 3.9532-0.07062 4.8818 1.6761 0.82003 1.5367 0.43133 3.3778-0.82812 4.4832-0.16823 0.15122-0.35561 0.28819-0.56075 0.40718z" stroke-width=".7" style="isolation:isolate"/>
<path d="m-12.372 70.929-9.1142-17.141c-0.01278-0.0205-0.02557-0.03834-0.04262-0.05642-0.06393-0.07871-0.13543-0.14932-0.2155-0.2057-0.32494-0.2318-0.76649-0.28014-1.1485-0.08484-0.22401 0.1152-0.38883 0.29675-0.4849 0.50624-0.01278 0.01795-0.02131 0.04046-0.02983 0.06256l-4.9268 11.6-9.7759 5.0098c-0.06346 0.03237-0.12947 0.06637-0.19079 0.1005l-3.3242 1.7045-2.8971 1.4841-0.75793-1.4239c-0.42946-0.80676-1.4405-1.1191-2.2625-0.69774-0.81956 0.41949-1.14 1.414-0.711 2.2207l0.7584 1.4234-2.7985 1.4339-2.416-4.5434 4.3371-2.2226c1.1135-0.5726 1.5453-1.9221 0.96368-3.0152-0.09242-0.17729-0.20953-0.33653-0.34326-0.4759l-0.19718-0.18723c-0.68639-0.57497-1.6846-0.71623-2.5312-0.28252l-12.809 6.5626c-1.1153 0.5726-1.5472 1.9216-0.96555 3.0171 0.0924 0.17111 0.20143 0.32661 0.3309 0.46358 0.06602 0.07486 0.13969 0.14315 0.21549 0.20382 0.68634 0.57071 1.6827 0.71196 2.5274 0.27823l4.3348-2.2202 2.4165 4.5434-3.0881 1.5832-0.75798-1.4234c-0.42941-0.80487-1.4447-1.1177-2.2624-0.69821-0.21549 0.11091-0.39649 0.26021-0.54035 0.43798-0.39649 0.49391-0.48682 1.1879-0.17077 1.7827l0.7584 1.4239-4.7031 2.4099c-0.06346 0.02981-0.12947 0.06448-0.19293 0.09671l-11.204 5.7379-3.8214-0.81482c-0.0085-0.0043-0.02136-0.0043-0.0298-6e-3 -0.10689-0.0205-0.21933-0.0043-0.32239 0.04647-0.22784 0.11661-0.32665 0.38112-0.23636 0.611l4.1917 7.8794c0.0085 0.01409 0.02136 0.0298 0.03408 0.04216l0.0043 6e-3 0.06175 0.05689c0.14778 0.12086 0.36157 0.14693 0.54653 0.0545 0.10307-0.0545 0.17887-0.13556 0.22401-0.23415 0.0039-0.0085 0.0085-0.01624 0.01282-0.02599l1.5349-3.61 4.4832-2.2989c0.01709 1.2504 0.32452 2.5151 0.95324 3.6987 2.1515 4.0438 7.2366 5.6108 11.358 3.4991 0.06346-0.03237 0.12947-0.06637 0.19122-0.10096l4.7031-2.4099 0.87926 1.6538c0.42711 0.80439 1.4443 1.1172 2.262 0.69774 0.82003-0.41949 1.1405-1.4159 0.71104-2.2207l-0.87931-1.6514 3.0877-1.5832 2.5644 4.8221c0.59772 1.1234 2.0051 1.5566 3.1498 0.96982 0.32026-0.16306 0.58541-0.38917 0.78493-0.65318 0.52378-0.68352 0.63281-1.6277 0.20314-2.4364l-2.5644-4.8221 2.7985-1.4339 0.87931 1.6519c0.42754 0.80439 1.4424 1.1191 2.262 0.69774 0.82194-0.4214 1.1386-1.4178 0.711-2.2207l-0.87927-1.6533 6.4882-3.3256c0.44794-0.23607 0.86508-0.50435 1.2514-0.80487 3.1128-2.4122 4.14-6.7281 2.2397-10.302-0.62902-1.1817-1.5102-2.152-2.5436-2.8839l3.0592-1.5671 12.584 2.6762c0.02557 6e-3 0.04517 0.01197 0.06776 0.01411 0.23211 0.04216 0.47877 0.01367 0.7006-0.10096 0.49296-0.25029 0.70483-0.82478 0.50952-1.3272zm-47.285 24.235c-0.0298 0.01795-0.05536 0.0298-0.08644 0.04647-1.8534 0.94991-4.1357 0.24603-5.1013-1.5732-0.96602-1.8169-0.25084-4.0575 1.5984-5.0055l4.9003-2.5108 3.4986 6.5788zm7.7808-3.9869-3.4987-6.5787 0.20528-0.10285 2.8848-1.4784 3.4986 6.5788-0.65743 0.33704zm7.2282-3.7029-3.4991-6.5787 2.7985-1.4339 3.4991 6.5788zm11.607-5.9554c-0.04259 0.02599-0.08177 0.05025-0.1252 0.07062l-5.7118 2.9284-3.4991-6.5788 4.2589-2.1842 1.3642-0.69774c0.07198-0.03662 0.14608-0.07062 0.21975-0.10475 1.8084-0.79064 3.9532-0.07062 4.8818 1.6761 0.82003 1.5367 0.43133 3.3778-0.82812 4.4832-0.16823 0.15122-0.35561 0.28819-0.56075 0.40718z" stroke-width=".8" style="isolation:isolate"/>
<path d="m-12.372 70.929-9.1142-17.141c-0.01278-0.0205-0.02557-0.03834-0.04262-0.05642-0.06393-0.07871-0.13543-0.14932-0.2155-0.2057-0.32494-0.2318-0.76649-0.28014-1.1485-0.08484-0.22401 0.1152-0.38883 0.29675-0.4849 0.50624-0.01278 0.01795-0.02131 0.04046-0.02983 0.06256l-4.9268 11.6-9.7759 5.0098c-0.06346 0.03237-0.12947 0.06637-0.19079 0.1005l-3.3242 1.7045-2.8971 1.4841-0.75793-1.4239c-0.42946-0.80676-1.4405-1.1191-2.2625-0.69774-0.81956 0.41949-1.14 1.414-0.711 2.2207l0.7584 1.4234-2.7985 1.4339-2.416-4.5434 4.3371-2.2226c1.1135-0.5726 1.5453-1.9221 0.96368-3.0152-0.09242-0.17729-0.20953-0.33653-0.34326-0.4759l-0.19718-0.18723c-0.68639-0.57497-1.6846-0.71623-2.5312-0.28252l-12.809 6.5626c-1.1153 0.5726-1.5472 1.9216-0.96555 3.0171 0.0924 0.17111 0.20143 0.32661 0.3309 0.46358 0.06602 0.07486 0.13969 0.14315 0.21549 0.20382 0.68634 0.57071 1.6827 0.71196 2.5274 0.27823l4.3348-2.2202 2.4165 4.5434-3.0881 1.5832-0.75798-1.4234c-0.42941-0.80487-1.4447-1.1177-2.2624-0.69821-0.21549 0.11091-0.39649 0.26021-0.54035 0.43798-0.39649 0.49391-0.48682 1.1879-0.17077 1.7827l0.7584 1.4239-4.7031 2.4099c-0.06346 0.02981-0.12947 0.06448-0.19293 0.09671l-11.204 5.7379-3.8214-0.81482c-0.0085-0.0043-0.02136-0.0043-0.0298-6e-3 -0.10689-0.0205-0.21933-0.0043-0.32239 0.04647-0.22784 0.11661-0.32665 0.38112-0.23636 0.611l4.1917 7.8794c0.0085 0.01409 0.02136 0.0298 0.03408 0.04216l0.0043 6e-3 0.06175 0.05689c0.14778 0.12086 0.36157 0.14693 0.54653 0.0545 0.10307-0.0545 0.17887-0.13556 0.22401-0.23415 0.0039-0.0085 0.0085-0.01624 0.01282-0.02599l1.5349-3.61 4.4832-2.2989c0.01709 1.2504 0.32452 2.5151 0.95324 3.6987 2.1515 4.0438 7.2366 5.6108 11.358 3.4991 0.06346-0.03237 0.12947-0.06637 0.19122-0.10096l4.7031-2.4099 0.87926 1.6538c0.42711 0.80439 1.4443 1.1172 2.262 0.69774 0.82003-0.41949 1.1405-1.4159 0.71104-2.2207l-0.87931-1.6514 3.0877-1.5832 2.5644 4.8221c0.59772 1.1234 2.0051 1.5566 3.1498 0.96982 0.32026-0.16306 0.58541-0.38917 0.78493-0.65318 0.52378-0.68352 0.63281-1.6277 0.20314-2.4364l-2.5644-4.8221 2.7985-1.4339 0.87931 1.6519c0.42754 0.80439 1.4424 1.1191 2.262 0.69774 0.82194-0.4214 1.1386-1.4178 0.711-2.2207l-0.87927-1.6533 6.4882-3.3256c0.44794-0.23607 0.86508-0.50435 1.2514-0.80487 3.1128-2.4122 4.14-6.7281 2.2397-10.302-0.62902-1.1817-1.5102-2.152-2.5436-2.8839l3.0592-1.5671 12.584 2.6762c0.02557 6e-3 0.04517 0.01197 0.06776 0.01411 0.23211 0.04216 0.47877 0.01367 0.7006-0.10096 0.49296-0.25029 0.70483-0.82478 0.50952-1.3272zm-47.285 24.235c-0.0298 0.01795-0.05536 0.0298-0.08644 0.04647-1.8534 0.94991-4.1357 0.24603-5.1013-1.5732-0.96602-1.8169-0.25084-4.0575 1.5984-5.0055l4.9003-2.5108 3.4986 6.5788zm7.7808-3.9869-3.4987-6.5787 0.20528-0.10285 2.8848-1.4784 3.4986 6.5788-0.65743 0.33704zm7.2282-3.7029-3.4991-6.5787 2.7985-1.4339 3.4991 6.5788zm11.607-5.9554c-0.04259 0.02599-0.08177 0.05025-0.1252 0.07062l-5.7118 2.9284-3.4991-6.5788 4.2589-2.1842 1.3642-0.69774c0.07198-0.03662 0.14608-0.07062 0.21975-0.10475 1.8084-0.79064 3.9532-0.07062 4.8818 1.6761 0.82003 1.5367 0.43133 3.3778-0.82812 4.4832-0.16823 0.15122-0.35561 0.28819-0.56075 0.40718z" stroke-width=".9" style="isolation:isolate"/>
<path d="m-12.372 70.929-9.1142-17.141c-0.01278-0.0205-0.02557-0.03834-0.04262-0.05642-0.06393-0.07871-0.13543-0.14932-0.2155-0.2057-0.32494-0.2318-0.76649-0.28014-1.1485-0.08484-0.22401 0.1152-0.38883 0.29675-0.4849 0.50624-0.01278 0.01795-0.02131 0.04046-0.02983 0.06256l-4.9268 11.6-9.7759 5.0098c-0.06346 0.03237-0.12947 0.06637-0.19079 0.1005l-3.3242 1.7045-2.8971 1.4841-0.75793-1.4239c-0.42946-0.80676-1.4405-1.1191-2.2625-0.69774-0.81956 0.41949-1.14 1.414-0.711 2.2207l0.7584 1.4234-2.7985 1.4339-2.416-4.5434 4.3371-2.2226c1.1135-0.5726 1.5453-1.9221 0.96368-3.0152-0.09242-0.17729-0.20953-0.33653-0.34326-0.4759l-0.19718-0.18723c-0.68639-0.57497-1.6846-0.71623-2.5312-0.28252l-12.809 6.5626c-1.1153 0.5726-1.5472 1.9216-0.96555 3.0171 0.0924 0.17111 0.20143 0.32661 0.3309 0.46358 0.06602 0.07486 0.13969 0.14315 0.21549 0.20382 0.68634 0.57071 1.6827 0.71196 2.5274 0.27823l4.3348-2.2202 2.4165 4.5434-3.0881 1.5832-0.75798-1.4234c-0.42941-0.80487-1.4447-1.1177-2.2624-0.69821-0.21549 0.11091-0.39649 0.26021-0.54035 0.43798-0.39649 0.49391-0.48682 1.1879-0.17077 1.7827l0.7584 1.4239-4.7031 2.4099c-0.06346 0.02981-0.12947 0.06448-0.19293 0.09671l-11.204 5.7379-3.8214-0.81482c-0.0085-0.0043-0.02136-0.0043-0.0298-6e-3 -0.10689-0.0205-0.21933-0.0043-0.32239 0.04647-0.22784 0.11661-0.32665 0.38112-0.23636 0.611l4.1917 7.8794c0.0085 0.01409 0.02136 0.0298 0.03408 0.04216l0.0043 6e-3 0.06175 0.05689c0.14778 0.12086 0.36157 0.14693 0.54653 0.0545 0.10307-0.0545 0.17887-0.13556 0.22401-0.23415 0.0039-0.0085 0.0085-0.01624 0.01282-0.02599l1.5349-3.61 4.4832-2.2989c0.01709 1.2504 0.32452 2.5151 0.95324 3.6987 2.1515 4.0438 7.2366 5.6108 11.358 3.4991 0.06346-0.03237 0.12947-0.06637 0.19122-0.10096l4.7031-2.4099 0.87926 1.6538c0.42711 0.80439 1.4443 1.1172 2.262 0.69774 0.82003-0.41949 1.1405-1.4159 0.71104-2.2207l-0.87931-1.6514 3.0877-1.5832 2.5644 4.8221c0.59772 1.1234 2.0051 1.5566 3.1498 0.96982 0.32026-0.16306 0.58541-0.38917 0.78493-0.65318 0.52378-0.68352 0.63281-1.6277 0.20314-2.4364l-2.5644-4.8221 2.7985-1.4339 0.87931 1.6519c0.42754 0.80439 1.4424 1.1191 2.262 0.69774 0.82194-0.4214 1.1386-1.4178 0.711-2.2207l-0.87927-1.6533 6.4882-3.3256c0.44794-0.23607 0.86508-0.50435 1.2514-0.80487 3.1128-2.4122 4.14-6.7281 2.2397-10.302-0.62902-1.1817-1.5102-2.152-2.5436-2.8839l3.0592-1.5671 12.584 2.6762c0.02557 6e-3 0.04517 0.01197 0.06776 0.01411 0.23211 0.04216 0.47877 0.01367 0.7006-0.10096 0.49296-0.25029 0.70483-0.82478 0.50952-1.3272zm-47.285 24.235c-0.0298 0.01795-0.05536 0.0298-0.08644 0.04647-1.8534 0.94991-4.1357 0.24603-5.1013-1.5732-0.96602-1.8169-0.25084-4.0575 1.5984-5.0055l4.9003-2.5108 3.4986 6.5788zm7.7808-3.9869-3.4987-6.5787 0.20528-0.10285 2.8848-1.4784 3.4986 6.5788-0.65743 0.33704zm7.2282-3.7029-3.4991-6.5787 2.7985-1.4339 3.4991 6.5788zm11.607-5.9554c-0.04259 0.02599-0.08177 0.05025-0.1252 0.07062l-5.7118 2.9284-3.4991-6.5788 4.2589-2.1842 1.3642-0.69774c0.07198-0.03662 0.14608-0.07062 0.21975-0.10475 1.8084-0.79064 3.9532-0.07062 4.8818 1.6761 0.82003 1.5367 0.43133 3.3778-0.82812 4.4832-0.16823 0.15122-0.35561 0.28819-0.56075 0.40718z" style="isolation:isolate"/>
<path d="m-12.372 70.929-9.1142-17.141c-0.01278-0.0205-0.02557-0.03834-0.04262-0.05642-0.06393-0.07871-0.13543-0.14932-0.2155-0.2057-0.32494-0.2318-0.76649-0.28014-1.1485-0.08484-0.22401 0.1152-0.38883 0.29675-0.4849 0.50624-0.01278 0.01795-0.02131 0.04046-0.02983 0.06256l-4.9268 11.6-9.7759 5.0098c-0.06346 0.03237-0.12947 0.06637-0.19079 0.1005l-3.3242 1.7045-2.8971 1.4841-0.75793-1.4239c-0.42946-0.80676-1.4405-1.1191-2.2625-0.69774-0.81956 0.41949-1.14 1.414-0.711 2.2207l0.7584 1.4234-2.7985 1.4339-2.416-4.5434 4.3371-2.2226c1.1135-0.5726 1.5453-1.9221 0.96368-3.0152-0.09242-0.17729-0.20953-0.33653-0.34326-0.4759l-0.19718-0.18723c-0.68639-0.57497-1.6846-0.71623-2.5312-0.28252l-12.809 6.5626c-1.1153 0.5726-1.5472 1.9216-0.96555 3.0171 0.0924 0.17111 0.20143 0.32661 0.3309 0.46358 0.06602 0.07486 0.13969 0.14315 0.21549 0.20382 0.68634 0.57071 1.6827 0.71196 2.5274 0.27823l4.3348-2.2202 2.4165 4.5434-3.0881 1.5832-0.75798-1.4234c-0.42941-0.80487-1.4447-1.1177-2.2624-0.69821-0.21549 0.11091-0.39649 0.26021-0.54035 0.43798-0.39649 0.49391-0.48682 1.1879-0.17077 1.7827l0.7584 1.4239-4.7031 2.4099c-0.06346 0.02981-0.12947 0.06448-0.19293 0.09671l-11.204 5.7379-3.8214-0.81482c-0.0085-0.0043-0.02136-0.0043-0.0298-6e-3 -0.10689-0.0205-0.21933-0.0043-0.32239 0.04647-0.22784 0.11661-0.32665 0.38112-0.23636 0.611l4.1917 7.8794c0.0085 0.01409 0.02136 0.0298 0.03408 0.04216l0.0043 6e-3 0.06175 0.05689c0.14778 0.12086 0.36157 0.14693 0.54653 0.0545 0.10307-0.0545 0.17887-0.13556 0.22401-0.23415 0.0039-0.0085 0.0085-0.01624 0.01282-0.02599l1.5349-3.61 4.4832-2.2989c0.01709 1.2504 0.32452 2.5151 0.95324 3.6987 2.1515 4.0438 7.2366 5.6108 11.358 3.4991 0.06346-0.03237 0.12947-0.06637 0.19122-0.10096l4.7031-2.4099 0.87926 1.6538c0.42711 0.80439 1.4443 1.1172 2.262 0.69774 0.82003-0.41949 1.1405-1.4159 0.71104-2.2207l-0.87931-1.6514 3.0877-1.5832 2.5644 4.8221c0.59772 1.1234 2.0051 1.5566 3.1498 0.96982 0.32026-0.16306 0.58541-0.38917 0.78493-0.65318 0.52378-0.68352 0.63281-1.6277 0.20314-2.4364l-2.5644-4.8221 2.7985-1.4339 0.87931 1.6519c0.42754 0.80439 1.4424 1.1191 2.262 0.69774 0.82194-0.4214 1.1386-1.4178 0.711-2.2207l-0.87927-1.6533 6.4882-3.3256c0.44794-0.23607 0.86508-0.50435 1.2514-0.80487 3.1128-2.4122 4.14-6.7281 2.2397-10.302-0.62902-1.1817-1.5102-2.152-2.5436-2.8839l3.0592-1.5671 12.584 2.6762c0.02557 6e-3 0.04517 0.01197 0.06776 0.01411 0.23211 0.04216 0.47877 0.01367 0.7006-0.10096 0.49296-0.25029 0.70483-0.82478 0.50952-1.3272zm-47.285 24.235c-0.0298 0.01795-0.05536 0.0298-0.08644 0.04647-1.8534 0.94991-4.1357 0.24603-5.1013-1.5732-0.96602-1.8169-0.25084-4.0575 1.5984-5.0055l4.9003-2.5108 3.4986 6.5788zm7.7808-3.9869-3.4987-6.5787 0.20528-0.10285 2.8848-1.4784 3.4986 6.5788-0.65743 0.33704zm7.2282-3.7029-3.4991-6.5787 2.7985-1.4339 3.4991 6.5788zm11.607-5.9554c-0.04259 0.02599-0.08177 0.05025-0.1252 0.07062l-5.7118 2.9284-3.4991-6.5788 4.2589-2.1842 1.3642-0.69774c0.07198-0.03662 0.14608-0.07062 0.21975-0.10475 1.8084-0.79064 3.9532-0.07062 4.8818 1.6761 0.82003 1.5367 0.43133 3.3778-0.82812 4.4832-0.16823 0.15122-0.35561 0.28819-0.56075 0.40718z" stroke-width="1.2" style="isolation:isolate"/>
<path d="m-12.372 70.929-9.1142-17.141c-0.01278-0.0205-0.02557-0.03834-0.04262-0.05642-0.06393-0.07871-0.13543-0.14932-0.2155-0.2057-0.32494-0.2318-0.76649-0.28014-1.1485-0.08484-0.22401 0.1152-0.38883 0.29675-0.4849 0.50624-0.01278 0.01795-0.02131 0.04046-0.02983 0.06256l-4.9268 11.6-9.7759 5.0098c-0.06346 0.03237-0.12947 0.06637-0.19079 0.1005l-3.3242 1.7045-2.8971 1.4841-0.75793-1.4239c-0.42946-0.80676-1.4405-1.1191-2.2625-0.69774-0.81956 0.41949-1.14 1.414-0.711 2.2207l0.7584 1.4234-2.7985 1.4339-2.416-4.5434 4.3371-2.2226c1.1135-0.5726 1.5453-1.9221 0.96368-3.0152-0.09242-0.17729-0.20953-0.33653-0.34326-0.4759l-0.19718-0.18723c-0.68639-0.57497-1.6846-0.71623-2.5312-0.28252l-12.809 6.5626c-1.1153 0.5726-1.5472 1.9216-0.96555 3.0171 0.0924 0.17111 0.20143 0.32661 0.3309 0.46358 0.06602 0.07486 0.13969 0.14315 0.21549 0.20382 0.68634 0.57071 1.6827 0.71196 2.5274 0.27823l4.3348-2.2202 2.4165 4.5434-3.0881 1.5832-0.75798-1.4234c-0.42941-0.80487-1.4447-1.1177-2.2624-0.69821-0.21549 0.11091-0.39649 0.26021-0.54035 0.43798-0.39649 0.49391-0.48682 1.1879-0.17077 1.7827l0.7584 1.4239-4.7031 2.4099c-0.06346 0.02981-0.12947 0.06448-0.19293 0.09671l-11.204 5.7379-3.8214-0.81482c-0.0085-0.0043-0.02136-0.0043-0.0298-6e-3 -0.10689-0.0205-0.21933-0.0043-0.32239 0.04647-0.22784 0.11661-0.32665 0.38112-0.23636 0.611l4.1917 7.8794c0.0085 0.01409 0.02136 0.0298 0.03408 0.04216l0.0043 6e-3 0.06175 0.05689c0.14778 0.12086 0.36157 0.14693 0.54653 0.0545 0.10307-0.0545 0.17887-0.13556 0.22401-0.23415 0.0039-0.0085 0.0085-0.01624 0.01282-0.02599l1.5349-3.61 4.4832-2.2989c0.01709 1.2504 0.32452 2.5151 0.95324 3.6987 2.1515 4.0438 7.2366 5.6108 11.358 3.4991 0.06346-0.03237 0.12947-0.06637 0.19122-0.10096l4.7031-2.4099 0.87926 1.6538c0.42711 0.80439 1.4443 1.1172 2.262 0.69774 0.82003-0.41949 1.1405-1.4159 0.71104-2.2207l-0.87931-1.6514 3.0877-1.5832 2.5644 4.8221c0.59772 1.1234 2.0051 1.5566 3.1498 0.96982 0.32026-0.16306 0.58541-0.38917 0.78493-0.65318 0.52378-0.68352 0.63281-1.6277 0.20314-2.4364l-2.5644-4.8221 2.7985-1.4339 0.87931 1.6519c0.42754 0.80439 1.4424 1.1191 2.262 0.69774 0.82194-0.4214 1.1386-1.4178 0.711-2.2207l-0.87927-1.6533 6.4882-3.3256c0.44794-0.23607 0.86508-0.50435 1.2514-0.80487 3.1128-2.4122 4.14-6.7281 2.2397-10.302-0.62902-1.1817-1.5102-2.152-2.5436-2.8839l3.0592-1.5671 12.584 2.6762c0.02557 6e-3 0.04517 0.01197 0.06776 0.01411 0.23211 0.04216 0.47877 0.01367 0.7006-0.10096 0.49296-0.25029 0.70483-0.82478 0.50952-1.3272zm-47.285 24.235c-0.0298 0.01795-0.05536 0.0298-0.08644 0.04647-1.8534 0.94991-4.1357 0.24603-5.1013-1.5732-0.96602-1.8169-0.25084-4.0575 1.5984-5.0055l4.9003-2.5108 3.4986 6.5788zm7.7808-3.9869-3.4987-6.5787 0.20528-0.10285 2.8848-1.4784 3.4986 6.5788-0.65743 0.33704zm7.2282-3.7029-3.4991-6.5787 2.7985-1.4339 3.4991 6.5788zm11.607-5.9554c-0.04259 0.02599-0.08177 0.05025-0.1252 0.07062l-5.7118 2.9284-3.4991-6.5788 4.2589-2.1842 1.3642-0.69774c0.07198-0.03662 0.14608-0.07062 0.21975-0.10475 1.8084-0.79064 3.9532-0.07062 4.8818 1.6761 0.82003 1.5367 0.43133 3.3778-0.82812 4.4832-0.16823 0.15122-0.35561 0.28819-0.56075 0.40718z" stroke-width="1.4" style="isolation:isolate"/>
<path d="m-12.372 70.929-9.1142-17.141c-0.01278-0.0205-0.02557-0.03834-0.04262-0.05642-0.06393-0.07871-0.13543-0.14932-0.2155-0.2057-0.32494-0.2318-0.76649-0.28014-1.1485-0.08484-0.22401 0.1152-0.38883 0.29675-0.4849 0.50624-0.01278 0.01795-0.02131 0.04046-0.02983 0.06256l-4.9268 11.6-9.7759 5.0098c-0.06346 0.03237-0.12947 0.06637-0.19079 0.1005l-3.3242 1.7045-2.8971 1.4841-0.75793-1.4239c-0.42946-0.80676-1.4405-1.1191-2.2625-0.69774-0.81956 0.41949-1.14 1.414-0.711 2.2207l0.7584 1.4234-2.7985 1.4339-2.416-4.5434 4.3371-2.2226c1.1135-0.5726 1.5453-1.9221 0.96368-3.0152-0.09242-0.17729-0.20953-0.33653-0.34326-0.4759l-0.19718-0.18723c-0.68639-0.57497-1.6846-0.71623-2.5312-0.28252l-12.809 6.5626c-1.1153 0.5726-1.5472 1.9216-0.96555 3.0171 0.0924 0.17111 0.20143 0.32661 0.3309 0.46358 0.06602 0.07486 0.13969 0.14315 0.21549 0.20382 0.68634 0.57071 1.6827 0.71196 2.5274 0.27823l4.3348-2.2202 2.4165 4.5434-3.0881 1.5832-0.75798-1.4234c-0.42941-0.80487-1.4447-1.1177-2.2624-0.69821-0.21549 0.11091-0.39649 0.26021-0.54035 0.43798-0.39649 0.49391-0.48682 1.1879-0.17077 1.7827l0.7584 1.4239-4.7031 2.4099c-0.06346 0.02981-0.12947 0.06448-0.19293 0.09671l-11.204 5.7379-3.8214-0.81482c-0.0085-0.0043-0.02136-0.0043-0.0298-6e-3 -0.10689-0.0205-0.21933-0.0043-0.32239 0.04647-0.22784 0.11661-0.32665 0.38112-0.23636 0.611l4.1917 7.8794c0.0085 0.01409 0.02136 0.0298 0.03408 0.04216l0.0043 6e-3 0.06175 0.05689c0.14778 0.12086 0.36157 0.14693 0.54653 0.0545 0.10307-0.0545 0.17887-0.13556 0.22401-0.23415 0.0039-0.0085 0.0085-0.01624 0.01282-0.02599l1.5349-3.61 4.4832-2.2989c0.01709 1.2504 0.32452 2.5151 0.95324 3.6987 2.1515 4.0438 7.2366 5.6108 11.358 3.4991 0.06346-0.03237 0.12947-0.06637 0.19122-0.10096l4.7031-2.4099 0.87926 1.6538c0.42711 0.80439 1.4443 1.1172 2.262 0.69774 0.82003-0.41949 1.1405-1.4159 0.71104-2.2207l-0.87931-1.6514 3.0877-1.5832 2.5644 4.8221c0.59772 1.1234 2.0051 1.5566 3.1498 0.96982 0.32026-0.16306 0.58541-0.38917 0.78493-0.65318 0.52378-0.68352 0.63281-1.6277 0.20314-2.4364l-2.5644-4.8221 2.7985-1.4339 0.87931 1.6519c0.42754 0.80439 1.4424 1.1191 2.262 0.69774 0.82194-0.4214 1.1386-1.4178 0.711-2.2207l-0.87927-1.6533 6.4882-3.3256c0.44794-0.23607 0.86508-0.50435 1.2514-0.80487 3.1128-2.4122 4.14-6.7281 2.2397-10.302-0.62902-1.1817-1.5102-2.152-2.5436-2.8839l3.0592-1.5671 12.584 2.6762c0.02557 6e-3 0.04517 0.01197 0.06776 0.01411 0.23211 0.04216 0.47877 0.01367 0.7006-0.10096 0.49296-0.25029 0.70483-0.82478 0.50952-1.3272zm-47.285 24.235c-0.0298 0.01795-0.05536 0.0298-0.08644 0.04647-1.8534 0.94991-4.1357 0.24603-5.1013-1.5732-0.96602-1.8169-0.25084-4.0575 1.5984-5.0055l4.9003-2.5108 3.4986 6.5788zm7.7808-3.9869-3.4987-6.5787 0.20528-0.10285 2.8848-1.4784 3.4986 6.5788-0.65743 0.33704zm7.2282-3.7029-3.4991-6.5787 2.7985-1.4339 3.4991 6.5788zm11.607-5.9554c-0.04259 0.02599-0.08177 0.05025-0.1252 0.07062l-5.7118 2.9284-3.4991-6.5788 4.2589-2.1842 1.3642-0.69774c0.07198-0.03662 0.14608-0.07062 0.21975-0.10475 1.8084-0.79064 3.9532-0.07062 4.8818 1.6761 0.82003 1.5367 0.43133 3.3778-0.82812 4.4832-0.16823 0.15122-0.35561 0.28819-0.56075 0.40718z" stroke-width="1.6" style="isolation:isolate"/>
<path d="m-12.372 70.929-9.1142-17.141c-0.01278-0.0205-0.02557-0.03834-0.04262-0.05642-0.06393-0.07871-0.13543-0.14932-0.2155-0.2057-0.32494-0.2318-0.76649-0.28014-1.1485-0.08484-0.22401 0.1152-0.38883 0.29675-0.4849 0.50624-0.01278 0.01795-0.02131 0.04046-0.02983 0.06256l-4.9268 11.6-9.7759 5.0098c-0.06346 0.03237-0.12947 0.06637-0.19079 0.1005l-3.3242 1.7045-2.8971 1.4841-0.75793-1.4239c-0.42946-0.80676-1.4405-1.1191-2.2625-0.69774-0.81956 0.41949-1.14 1.414-0.711 2.2207l0.7584 1.4234-2.7985 1.4339-2.416-4.5434 4.3371-2.2226c1.1135-0.5726 1.5453-1.9221 0.96368-3.0152-0.09242-0.17729-0.20953-0.33653-0.34326-0.4759l-0.19718-0.18723c-0.68639-0.57497-1.6846-0.71623-2.5312-0.28252l-12.809 6.5626c-1.1153 0.5726-1.5472 1.9216-0.96555 3.0171 0.0924 0.17111 0.20143 0.32661 0.3309 0.46358 0.06602 0.07486 0.13969 0.14315 0.21549 0.20382 0.68634 0.57071 1.6827 0.71196 2.5274 0.27823l4.3348-2.2202 2.4165 4.5434-3.0881 1.5832-0.75798-1.4234c-0.42941-0.80487-1.4447-1.1177-2.2624-0.69821-0.21549 0.11091-0.39649 0.26021-0.54035 0.43798-0.39649 0.49391-0.48682 1.1879-0.17077 1.7827l0.7584 1.4239-4.7031 2.4099c-0.06346 0.02981-0.12947 0.06448-0.19293 0.09671l-11.204 5.7379-3.8214-0.81482c-0.0085-0.0043-0.02136-0.0043-0.0298-6e-3 -0.10689-0.0205-0.21933-0.0043-0.32239 0.04647-0.22784 0.11661-0.32665 0.38112-0.23636 0.611l4.1917 7.8794c0.0085 0.01409 0.02136 0.0298 0.03408 0.04216l0.0043 6e-3 0.06175 0.05689c0.14778 0.12086 0.36157 0.14693 0.54653 0.0545 0.10307-0.0545 0.17887-0.13556 0.22401-0.23415 0.0039-0.0085 0.0085-0.01624 0.01282-0.02599l1.5349-3.61 4.4832-2.2989c0.01709 1.2504 0.32452 2.5151 0.95324 3.6987 2.1515 4.0438 7.2366 5.6108 11.358 3.4991 0.06346-0.03237 0.12947-0.06637 0.19122-0.10096l4.7031-2.4099 0.87926 1.6538c0.42711 0.80439 1.4443 1.1172 2.262 0.69774 0.82003-0.41949 1.1405-1.4159 0.71104-2.2207l-0.87931-1.6514 3.0877-1.5832 2.5644 4.8221c0.59772 1.1234 2.0051 1.5566 3.1498 0.96982 0.32026-0.16306 0.58541-0.38917 0.78493-0.65318 0.52378-0.68352 0.63281-1.6277 0.20314-2.4364l-2.5644-4.8221 2.7985-1.4339 0.87931 1.6519c0.42754 0.80439 1.4424 1.1191 2.262 0.69774 0.82194-0.4214 1.1386-1.4178 0.711-2.2207l-0.87927-1.6533 6.4882-3.3256c0.44794-0.23607 0.86508-0.50435 1.2514-0.80487 3.1128-2.4122 4.14-6.7281 2.2397-10.302-0.62902-1.1817-1.5102-2.152-2.5436-2.8839l3.0592-1.5671 12.584 2.6762c0.02557 6e-3 0.04517 0.01197 0.06776 0.01411 0.23211 0.04216 0.47877 0.01367 0.7006-0.10096 0.49296-0.25029 0.70483-0.82478 0.50952-1.3272zm-47.285 24.235c-0.0298 0.01795-0.05536 0.0298-0.08644 0.04647-1.8534 0.94991-4.1357 0.24603-5.1013-1.5732-0.96602-1.8169-0.25084-4.0575 1.5984-5.0055l4.9003-2.5108 3.4986 6.5788zm7.7808-3.9869-3.4987-6.5787 0.20528-0.10285 2.8848-1.4784 3.4986 6.5788-0.65743 0.33704zm7.2282-3.7029-3.4991-6.5787 2.7985-1.4339 3.4991 6.5788zm11.607-5.9554c-0.04259 0.02599-0.08177 0.05025-0.1252 0.07062l-5.7118 2.9284-3.4991-6.5788 4.2589-2.1842 1.3642-0.69774c0.07198-0.03662 0.14608-0.07062 0.21975-0.10475 1.8084-0.79064 3.9532-0.07062 4.8818 1.6761 0.82003 1.5367 0.43133 3.3778-0.82812 4.4832-0.16823 0.15122-0.35561 0.28819-0.56075 0.40718z" stroke-width="1.8" style="isolation:isolate"/>
<path d="m-12.372 70.929-9.1142-17.141c-0.01278-0.0205-0.02557-0.03834-0.04262-0.05642-0.06393-0.07871-0.13543-0.14932-0.2155-0.2057-0.32494-0.2318-0.76649-0.28014-1.1485-0.08484-0.22401 0.1152-0.38883 0.29675-0.4849 0.50624-0.01278 0.01795-0.02131 0.04046-0.02983 0.06256l-4.9268 11.6-9.7759 5.0098c-0.06346 0.03237-0.12947 0.06637-0.19079 0.1005l-3.3242 1.7045-2.8971 1.4841-0.75793-1.4239c-0.42946-0.80676-1.4405-1.1191-2.2625-0.69774-0.81956 0.41949-1.14 1.414-0.711 2.2207l0.7584 1.4234-2.7985 1.4339-2.416-4.5434 4.3371-2.2226c1.1135-0.5726 1.5453-1.9221 0.96368-3.0152-0.09242-0.17729-0.20953-0.33653-0.34326-0.4759l-0.19718-0.18723c-0.68639-0.57497-1.6846-0.71623-2.5312-0.28252l-12.809 6.5626c-1.1153 0.5726-1.5472 1.9216-0.96555 3.0171 0.0924 0.17111 0.20143 0.32661 0.3309 0.46358 0.06602 0.07486 0.13969 0.14315 0.21549 0.20382 0.68634 0.57071 1.6827 0.71196 2.5274 0.27823l4.3348-2.2202 2.4165 4.5434-3.0881 1.5832-0.75798-1.4234c-0.42941-0.80487-1.4447-1.1177-2.2624-0.69821-0.21549 0.11091-0.39649 0.26021-0.54035 0.43798-0.39649 0.49391-0.48682 1.1879-0.17077 1.7827l0.7584 1.4239-4.7031 2.4099c-0.06346 0.02981-0.12947 0.06448-0.19293 0.09671l-11.204 5.7379-3.8214-0.81482c-0.0085-0.0043-0.02136-0.0043-0.0298-6e-3 -0.10689-0.0205-0.21933-0.0043-0.32239 0.04647-0.22784 0.11661-0.32665 0.38112-0.23636 0.611l4.1917 7.8794c0.0085 0.01409 0.02136 0.0298 0.03408 0.04216l0.0043 6e-3 0.06175 0.05689c0.14778 0.12086 0.36157 0.14693 0.54653 0.0545 0.10307-0.0545 0.17887-0.13556 0.22401-0.23415 0.0039-0.0085 0.0085-0.01624 0.01282-0.02599l1.5349-3.61 4.4832-2.2989c0.01709 1.2504 0.32452 2.5151 0.95324 3.6987 2.1515 4.0438 7.2366 5.6108 11.358 3.4991 0.06346-0.03237 0.12947-0.06637 0.19122-0.10096l4.7031-2.4099 0.87926 1.6538c0.42711 0.80439 1.4443 1.1172 2.262 0.69774 0.82003-0.41949 1.1405-1.4159 0.71104-2.2207l-0.87931-1.6514 3.0877-1.5832 2.5644 4.8221c0.59772 1.1234 2.0051 1.5566 3.1498 0.96982 0.32026-0.16306 0.58541-0.38917 0.78493-0.65318 0.52378-0.68352 0.63281-1.6277 0.20314-2.4364l-2.5644-4.8221 2.7985-1.4339 0.87931 1.6519c0.42754 0.80439 1.4424 1.1191 2.262 0.69774 0.82194-0.4214 1.1386-1.4178 0.711-2.2207l-0.87927-1.6533 6.4882-3.3256c0.44794-0.23607 0.86508-0.50435 1.2514-0.80487 3.1128-2.4122 4.14-6.7281 2.2397-10.302-0.62902-1.1817-1.5102-2.152-2.5436-2.8839l3.0592-1.5671 12.584 2.6762c0.02557 6e-3 0.04517 0.01197 0.06776 0.01411 0.23211 0.04216 0.47877 0.01367 0.7006-0.10096 0.49296-0.25029 0.70483-0.82478 0.50952-1.3272zm-47.285 24.235c-0.0298 0.01795-0.05536 0.0298-0.08644 0.04647-1.8534 0.94991-4.1357 0.24603-5.1013-1.5732-0.96602-1.8169-0.25084-4.0575 1.5984-5.0055l4.9003-2.5108 3.4986 6.5788zm7.7808-3.9869-3.4987-6.5787 0.20528-0.10285 2.8848-1.4784 3.4986 6.5788-0.65743 0.33704zm7.2282-3.7029-3.4991-6.5787 2.7985-1.4339 3.4991 6.5788zm11.607-5.9554c-0.04259 0.02599-0.08177 0.05025-0.1252 0.07062l-5.7118 2.9284-3.4991-6.5788 4.2589-2.1842 1.3642-0.69774c0.07198-0.03662 0.14608-0.07062 0.21975-0.10475 1.8084-0.79064 3.9532-0.07062 4.8818 1.6761 0.82003 1.5367 0.43133 3.3778-0.82812 4.4832-0.16823 0.15122-0.35561 0.28819-0.56075 0.40718z" stroke-width="2" style="isolation:isolate"/>
<path d="m-12.372 70.929-9.1142-17.141c-0.01278-0.0205-0.02557-0.03834-0.04262-0.05642-0.06393-0.07871-0.13543-0.14932-0.2155-0.2057-0.32494-0.2318-0.76649-0.28014-1.1485-0.08484-0.22401 0.1152-0.38883 0.29675-0.4849 0.50624-0.01278 0.01795-0.02131 0.04046-0.02983 0.06256l-4.9268 11.6-9.7759 5.0098c-0.06346 0.03237-0.12947 0.06637-0.19079 0.1005l-3.3242 1.7045-2.8971 1.4841-0.75793-1.4239c-0.42946-0.80676-1.4405-1.1191-2.2625-0.69774-0.81956 0.41949-1.14 1.414-0.711 2.2207l0.7584 1.4234-2.7985 1.4339-2.416-4.5434 4.3371-2.2226c1.1135-0.5726 1.5453-1.9221 0.96368-3.0152-0.09242-0.17729-0.20953-0.33653-0.34326-0.4759l-0.19718-0.18723c-0.68639-0.57497-1.6846-0.71623-2.5312-0.28252l-12.809 6.5626c-1.1153 0.5726-1.5472 1.9216-0.96555 3.0171 0.0924 0.17111 0.20143 0.32661 0.3309 0.46358 0.06602 0.07486 0.13969 0.14315 0.21549 0.20382 0.68634 0.57071 1.6827 0.71196 2.5274 0.27823l4.3348-2.2202 2.4165 4.5434-3.0881 1.5832-0.75798-1.4234c-0.42941-0.80487-1.4447-1.1177-2.2624-0.69821-0.21549 0.11091-0.39649 0.26021-0.54035 0.43798-0.39649 0.49391-0.48682 1.1879-0.17077 1.7827l0.7584 1.4239-4.7031 2.4099c-0.06346 0.02981-0.12947 0.06448-0.19293 0.09671l-11.204 5.7379-3.8214-0.81482c-0.0085-0.0043-0.02136-0.0043-0.0298-6e-3 -0.10689-0.0205-0.21933-0.0043-0.32239 0.04647-0.22784 0.11661-0.32665 0.38112-0.23636 0.611l4.1917 7.8794c0.0085 0.01409 0.02136 0.0298 0.03408 0.04216l0.0043 6e-3 0.06175 0.05689c0.14778 0.12086 0.36157 0.14693 0.54653 0.0545 0.10307-0.0545 0.17887-0.13556 0.22401-0.23415 0.0039-0.0085 0.0085-0.01624 0.01282-0.02599l1.5349-3.61 4.4832-2.2989c0.01709 1.2504 0.32452 2.5151 0.95324 3.6987 2.1515 4.0438 7.2366 5.6108 11.358 3.4991 0.06346-0.03237 0.12947-0.06637 0.19122-0.10096l4.7031-2.4099 0.87926 1.6538c0.42711 0.80439 1.4443 1.1172 2.262 0.69774 0.82003-0.41949 1.1405-1.4159 0.71104-2.2207l-0.87931-1.6514 3.0877-1.5832 2.5644 4.8221c0.59772 1.1234 2.0051 1.5566 3.1498 0.96982 0.32026-0.16306 0.58541-0.38917 0.78493-0.65318 0.52378-0.68352 0.63281-1.6277 0.20314-2.4364l-2.5644-4.8221 2.7985-1.4339 0.87931 1.6519c0.42754 0.80439 1.4424 1.1191 2.262 0.69774 0.82194-0.4214 1.1386-1.4178 0.711-2.2207l-0.87927-1.6533 6.4882-3.3256c0.44794-0.23607 0.86508-0.50435 1.2514-0.80487 3.1128-2.4122 4.14-6.7281 2.2397-10.302-0.62902-1.1817-1.5102-2.152-2.5436-2.8839l3.0592-1.5671 12.584 2.6762c0.02557 6e-3 0.04517 0.01197 0.06776 0.01411 0.23211 0.04216 0.47877 0.01367 0.7006-0.10096 0.49296-0.25029 0.70483-0.82478 0.50952-1.3272zm-47.285 24.235c-0.0298 0.01795-0.05536 0.0298-0.08644 0.04647-1.8534 0.94991-4.1357 0.24603-5.1013-1.5732-0.96602-1.8169-0.25084-4.0575 1.5984-5.0055l4.9003-2.5108 3.4986 6.5788zm7.7808-3.9869-3.4987-6.5787 0.20528-0.10285 2.8848-1.4784 3.4986 6.5788-0.65743 0.33704zm7.2282-3.7029-3.4991-6.5787 2.7985-1.4339 3.4991 6.5788zm11.607-5.9554c-0.04259 0.02599-0.08177 0.05025-0.1252 0.07062l-5.7118 2.9284-3.4991-6.5788 4.2589-2.1842 1.3642-0.69774c0.07198-0.03662 0.14608-0.07062 0.21975-0.10475 1.8084-0.79064 3.9532-0.07062 4.8818 1.6761 0.82003 1.5367 0.43133 3.3778-0.82812 4.4832-0.16823 0.15122-0.35561 0.28819-0.56075 0.40718z" stroke-width="2.5" style="isolation:isolate"/>
<path d="m-12.372 70.929-9.1142-17.141c-0.01278-0.0205-0.02557-0.03834-0.04262-0.05642-0.06393-0.07871-0.13543-0.14932-0.2155-0.2057-0.32494-0.2318-0.76649-0.28014-1.1485-0.08484-0.22401 0.1152-0.38883 0.29675-0.4849 0.50624-0.01278 0.01795-0.02131 0.04046-0.02983 0.06256l-4.9268 11.6-9.7759 5.0098c-0.06346 0.03237-0.12947 0.06637-0.19079 0.1005l-3.3242 1.7045-2.8971 1.4841-0.75793-1.4239c-0.42946-0.80676-1.4405-1.1191-2.2625-0.69774-0.81956 0.41949-1.14 1.414-0.711 2.2207l0.7584 1.4234-2.7985 1.4339-2.416-4.5434 4.3371-2.2226c1.1135-0.5726 1.5453-1.9221 0.96368-3.0152-0.09242-0.17729-0.20953-0.33653-0.34326-0.4759l-0.19718-0.18723c-0.68639-0.57497-1.6846-0.71623-2.5312-0.28252l-12.809 6.5626c-1.1153 0.5726-1.5472 1.9216-0.96555 3.0171 0.0924 0.17111 0.20143 0.32661 0.3309 0.46358 0.06602 0.07486 0.13969 0.14315 0.21549 0.20382 0.68634 0.57071 1.6827 0.71196 2.5274 0.27823l4.3348-2.2202 2.4165 4.5434-3.0881 1.5832-0.75798-1.4234c-0.42941-0.80487-1.4447-1.1177-2.2624-0.69821-0.21549 0.11091-0.39649 0.26021-0.54035 0.43798-0.39649 0.49391-0.48682 1.1879-0.17077 1.7827l0.7584 1.4239-4.7031 2.4099c-0.06346 0.02981-0.12947 0.06448-0.19293 0.09671l-11.204 5.7379-3.8214-0.81482c-0.0085-0.0043-0.02136-0.0043-0.0298-6e-3 -0.10689-0.0205-0.21933-0.0043-0.32239 0.04647-0.22784 0.11661-0.32665 0.38112-0.23636 0.611l4.1917 7.8794c0.0085 0.01409 0.02136 0.0298 0.03408 0.04216l0.0043 6e-3 0.06175 0.05689c0.14778 0.12086 0.36157 0.14693 0.54653 0.0545 0.10307-0.0545 0.17887-0.13556 0.22401-0.23415 0.0039-0.0085 0.0085-0.01624 0.01282-0.02599l1.5349-3.61 4.4832-2.2989c0.01709 1.2504 0.32452 2.5151 0.95324 3.6987 2.1515 4.0438 7.2366 5.6108 11.358 3.4991 0.06346-0.03237 0.12947-0.06637 0.19122-0.10096l4.7031-2.4099 0.87926 1.6538c0.42711 0.80439 1.4443 1.1172 2.262 0.69774 0.82003-0.41949 1.1405-1.4159 0.71104-2.2207l-0.87931-1.6514 3.0877-1.5832 2.5644 4.8221c0.59772 1.1234 2.0051 1.5566 3.1498 0.96982 0.32026-0.16306 0.58541-0.38917 0.78493-0.65318 0.52378-0.68352 0.63281-1.6277 0.20314-2.4364l-2.5644-4.8221 2.7985-1.4339 0.87931 1.6519c0.42754 0.80439 1.4424 1.1191 2.262 0.69774 0.82194-0.4214 1.1386-1.4178 0.711-2.2207l-0.87927-1.6533 6.4882-3.3256c0.44794-0.23607 0.86508-0.50435 1.2514-0.80487 3.1128-2.4122 4.14-6.7281 2.2397-10.302-0.62902-1.1817-1.5102-2.152-2.5436-2.8839l3.0592-1.5671 12.584 2.6762c0.02557 6e-3 0.04517 0.01197 0.06776 0.01411 0.23211 0.04216 0.47877 0.01367 0.7006-0.10096 0.49296-0.25029 0.70483-0.82478 0.50952-1.3272zm-47.285 24.235c-0.0298 0.01795-0.05536 0.0298-0.08644 0.04647-1.8534 0.94991-4.1357 0.24603-5.1013-1.5732-0.96602-1.8169-0.25084-4.0575 1.5984-5.0055l4.9003-2.5108 3.4986 6.5788zm7.7808-3.9869-3.4987-6.5787 0.20528-0.10285 2.8848-1.4784 3.4986 6.5788-0.65743 0.33704zm7.2282-3.7029-3.4991-6.5787 2.7985-1.4339 3.4991 6.5788zm11.607-5.9554c-0.04259 0.02599-0.08177 0.05025-0.1252 0.07062l-5.7118 2.9284-3.4991-6.5788 4.2589-2.1842 1.3642-0.69774c0.07198-0.03662 0.14608-0.07062 0.21975-0.10475 1.8084-0.79064 3.9532-0.07062 4.8818 1.6761 0.82003 1.5367 0.43133 3.3778-0.82812 4.4832-0.16823 0.15122-0.35561 0.28819-0.56075 0.40718z" stroke-width="3" style="isolation:isolate"/>
<path d="m-12.372 70.929-9.1142-17.141c-0.01278-0.0205-0.02557-0.03834-0.04262-0.05642-0.06393-0.07871-0.13543-0.14932-0.2155-0.2057-0.32494-0.2318-0.76649-0.28014-1.1485-0.08484-0.22401 0.1152-0.38883 0.29675-0.4849 0.50624-0.01278 0.01795-0.02131 0.04046-0.02983 0.06256l-4.9268 11.6-9.7759 5.0098c-0.06346 0.03237-0.12947 0.06637-0.19079 0.1005l-3.3242 1.7045-2.8971 1.4841-0.75793-1.4239c-0.42946-0.80676-1.4405-1.1191-2.2625-0.69774-0.81956 0.41949-1.14 1.414-0.711 2.2207l0.7584 1.4234-2.7985 1.4339-2.416-4.5434 4.3371-2.2226c1.1135-0.5726 1.5453-1.9221 0.96368-3.0152-0.09242-0.17729-0.20953-0.33653-0.34326-0.4759l-0.19718-0.18723c-0.68639-0.57497-1.6846-0.71623-2.5312-0.28252l-12.809 6.5626c-1.1153 0.5726-1.5472 1.9216-0.96555 3.0171 0.0924 0.17111 0.20143 0.32661 0.3309 0.46358 0.06602 0.07486 0.13969 0.14315 0.21549 0.20382 0.68634 0.57071 1.6827 0.71196 2.5274 0.27823l4.3348-2.2202 2.4165 4.5434-3.0881 1.5832-0.75798-1.4234c-0.42941-0.80487-1.4447-1.1177-2.2624-0.69821-0.21549 0.11091-0.39649 0.26021-0.54035 0.43798-0.39649 0.49391-0.48682 1.1879-0.17077 1.7827l0.7584 1.4239-4.7031 2.4099c-0.06346 0.02981-0.12947 0.06448-0.19293 0.09671l-11.204 5.7379-3.8214-0.81482c-0.0085-0.0043-0.02136-0.0043-0.0298-6e-3 -0.10689-0.0205-0.21933-0.0043-0.32239 0.04647-0.22784 0.11661-0.32665 0.38112-0.23636 0.611l4.1917 7.8794c0.0085 0.01409 0.02136 0.0298 0.03408 0.04216l0.0043 6e-3 0.06175 0.05689c0.14778 0.12086 0.36157 0.14693 0.54653 0.0545 0.10307-0.0545 0.17887-0.13556 0.22401-0.23415 0.0039-0.0085 0.0085-0.01624 0.01282-0.02599l1.5349-3.61 4.4832-2.2989c0.01709 1.2504 0.32452 2.5151 0.95324 3.6987 2.1515 4.0438 7.2366 5.6108 11.358 3.4991 0.06346-0.03237 0.12947-0.06637 0.19122-0.10096l4.7031-2.4099 0.87926 1.6538c0.42711 0.80439 1.4443 1.1172 2.262 0.69774 0.82003-0.41949 1.1405-1.4159 0.71104-2.2207l-0.87931-1.6514 3.0877-1.5832 2.5644 4.8221c0.59772 1.1234 2.0051 1.5566 3.1498 0.96982 0.32026-0.16306 0.58541-0.38917 0.78493-0.65318 0.52378-0.68352 0.63281-1.6277 0.20314-2.4364l-2.5644-4.8221 2.7985-1.4339 0.87931 1.6519c0.42754 0.80439 1.4424 1.1191 2.262 0.69774 0.82194-0.4214 1.1386-1.4178 0.711-2.2207l-0.87927-1.6533 6.4882-3.3256c0.44794-0.23607 0.86508-0.50435 1.2514-0.80487 3.1128-2.4122 4.14-6.7281 2.2397-10.302-0.62902-1.1817-1.5102-2.152-2.5436-2.8839l3.0592-1.5671 12.584 2.6762c0.02557 6e-3 0.04517 0.01197 0.06776 0.01411 0.23211 0.04216 0.47877 0.01367 0.7006-0.10096 0.49296-0.25029 0.70483-0.82478 0.50952-1.3272zm-47.285 24.235c-0.0298 0.01795-0.05536 0.0298-0.08644 0.04647-1.8534 0.94991-4.1357 0.24603-5.1013-1.5732-0.96602-1.8169-0.25084-4.0575 1.5984-5.0055l4.9003-2.5108 3.4986 6.5788zm7.7808-3.9869-3.4987-6.5787 0.20528-0.10285 2.8848-1.4784 3.4986 6.5788-0.65743 0.33704zm7.2282-3.7029-3.4991-6.5787 2.7985-1.4339 3.4991 6.5788zm11.607-5.9554c-0.04259 0.02599-0.08177 0.05025-0.1252 0.07062l-5.7118 2.9284-3.4991-6.5788 4.2589-2.1842 1.3642-0.69774c0.07198-0.03662 0.14608-0.07062 0.21975-0.10475 1.8084-0.79064 3.9532-0.07062 4.8818 1.6761 0.82003 1.5367 0.43133 3.3778-0.82812 4.4832-0.16823 0.15122-0.35561 0.28819-0.56075 0.40718z" stroke-width="3.5" style="isolation:isolate"/>
<path d="m-12.372 70.929-9.1142-17.141c-0.01278-0.0205-0.02557-0.03834-0.04262-0.05642-0.06393-0.07871-0.13543-0.14932-0.2155-0.2057-0.32494-0.2318-0.76649-0.28014-1.1485-0.08484-0.22401 0.1152-0.38883 0.29675-0.4849 0.50624-0.01278 0.01795-0.02131 0.04046-0.02983 0.06256l-4.9268 11.6-9.7759 5.0098c-0.06346 0.03237-0.12947 0.06637-0.19079 0.1005l-3.3242 1.7045-2.8971 1.4841-0.75793-1.4239c-0.42946-0.80676-1.4405-1.1191-2.2625-0.69774-0.81956 0.41949-1.14 1.414-0.711 2.2207l0.7584 1.4234-2.7985 1.4339-2.416-4.5434 4.3371-2.2226c1.1135-0.5726 1.5453-1.9221 0.96368-3.0152-0.09242-0.17729-0.20953-0.33653-0.34326-0.4759l-0.19718-0.18723c-0.68639-0.57497-1.6846-0.71623-2.5312-0.28252l-12.809 6.5626c-1.1153 0.5726-1.5472 1.9216-0.96555 3.0171 0.0924 0.17111 0.20143 0.32661 0.3309 0.46358 0.06602 0.07486 0.13969 0.14315 0.21549 0.20382 0.68634 0.57071 1.6827 0.71196 2.5274 0.27823l4.3348-2.2202 2.4165 4.5434-3.0881 1.5832-0.75798-1.4234c-0.42941-0.80487-1.4447-1.1177-2.2624-0.69821-0.21549 0.11091-0.39649 0.26021-0.54035 0.43798-0.39649 0.49391-0.48682 1.1879-0.17077 1.7827l0.7584 1.4239-4.7031 2.4099c-0.06346 0.02981-0.12947 0.06448-0.19293 0.09671l-11.204 5.7379-3.8214-0.81482c-0.0085-0.0043-0.02136-0.0043-0.0298-6e-3 -0.10689-0.0205-0.21933-0.0043-0.32239 0.04647-0.22784 0.11661-0.32665 0.38112-0.23636 0.611l4.1917 7.8794c0.0085 0.01409 0.02136 0.0298 0.03408 0.04216l0.0043 6e-3 0.06175 0.05689c0.14778 0.12086 0.36157 0.14693 0.54653 0.0545 0.10307-0.0545 0.17887-0.13556 0.22401-0.23415 0.0039-0.0085 0.0085-0.01624 0.01282-0.02599l1.5349-3.61 4.4832-2.2989c0.01709 1.2504 0.32452 2.5151 0.95324 3.6987 2.1515 4.0438 7.2366 5.6108 11.358 3.4991 0.06346-0.03237 0.12947-0.06637 0.19122-0.10096l4.7031-2.4099 0.87926 1.6538c0.42711 0.80439 1.4443 1.1172 2.262 0.69774 0.82003-0.41949 1.1405-1.4159 0.71104-2.2207l-0.87931-1.6514 3.0877-1.5832 2.5644 4.8221c0.59772 1.1234 2.0051 1.5566 3.1498 0.96982 0.32026-0.16306 0.58541-0.38917 0.78493-0.65318 0.52378-0.68352 0.63281-1.6277 0.20314-2.4364l-2.5644-4.8221 2.7985-1.4339 0.87931 1.6519c0.42754 0.80439 1.4424 1.1191 2.262 0.69774 0.82194-0.4214 1.1386-1.4178 0.711-2.2207l-0.87927-1.6533 6.4882-3.3256c0.44794-0.23607 0.86508-0.50435 1.2514-0.80487 3.1128-2.4122 4.14-6.7281 2.2397-10.302-0.62902-1.1817-1.5102-2.152-2.5436-2.8839l3.0592-1.5671 12.584 2.6762c0.02557 6e-3 0.04517 0.01197 0.06776 0.01411 0.23211 0.04216 0.47877 0.01367 0.7006-0.10096 0.49296-0.25029 0.70483-0.82478 0.50952-1.3272zm-47.285 24.235c-0.0298 0.01795-0.05536 0.0298-0.08644 0.04647-1.8534 0.94991-4.1357 0.24603-5.1013-1.5732-0.96602-1.8169-0.25084-4.0575 1.5984-5.0055l4.9003-2.5108 3.4986 6.5788zm7.7808-3.9869-3.4987-6.5787 0.20528-0.10285 2.8848-1.4784 3.4986 6.5788-0.65743 0.33704zm7.2282-3.7029-3.4991-6.5787 2.7985-1.4339 3.4991 6.5788zm11.607-5.9554c-0.04259 0.02599-0.08177 0.05025-0.1252 0.07062l-5.7118 2.9284-3.4991-6.5788 4.2589-2.1842 1.3642-0.69774c0.07198-0.03662 0.14608-0.07062 0.21975-0.10475 1.8084-0.79064 3.9532-0.07062 4.8818 1.6761 0.82003 1.5367 0.43133 3.3778-0.82812 4.4832-0.16823 0.15122-0.35561 0.28819-0.56075 0.40718z" stroke-width="4" style="isolation:isolate"/>
<path d="m-12.372 70.929-9.1142-17.141c-0.01278-0.0205-0.02557-0.03834-0.04262-0.05642-0.06393-0.07871-0.13543-0.14932-0.2155-0.2057-0.32494-0.2318-0.76649-0.28014-1.1485-0.08484-0.22401 0.1152-0.38883 0.29675-0.4849 0.50624-0.01278 0.01795-0.02131 0.04046-0.02983 0.06256l-4.9268 11.6-9.7759 5.0098c-0.06346 0.03237-0.12947 0.06637-0.19079 0.1005l-3.3242 1.7045-2.8971 1.4841-0.75793-1.4239c-0.42946-0.80676-1.4405-1.1191-2.2625-0.69774-0.81956 0.41949-1.14 1.414-0.711 2.2207l0.7584 1.4234-2.7985 1.4339-2.416-4.5434 4.3371-2.2226c1.1135-0.5726 1.5453-1.9221 0.96368-3.0152-0.09242-0.17729-0.20953-0.33653-0.34326-0.4759l-0.19718-0.18723c-0.68639-0.57497-1.6846-0.71623-2.5312-0.28252l-12.809 6.5626c-1.1153 0.5726-1.5472 1.9216-0.96555 3.0171 0.0924 0.17111 0.20143 0.32661 0.3309 0.46358 0.06602 0.07486 0.13969 0.14315 0.21549 0.20382 0.68634 0.57071 1.6827 0.71196 2.5274 0.27823l4.3348-2.2202 2.4165 4.5434-3.0881 1.5832-0.75798-1.4234c-0.42941-0.80487-1.4447-1.1177-2.2624-0.69821-0.21549 0.11091-0.39649 0.26021-0.54035 0.43798-0.39649 0.49391-0.48682 1.1879-0.17077 1.7827l0.7584 1.4239-4.7031 2.4099c-0.06346 0.02981-0.12947 0.06448-0.19293 0.09671l-11.204 5.7379-3.8214-0.81482c-0.0085-0.0043-0.02136-0.0043-0.0298-6e-3 -0.10689-0.0205-0.21933-0.0043-0.32239 0.04647-0.22784 0.11661-0.32665 0.38112-0.23636 0.611l4.1917 7.8794c0.0085 0.01409 0.02136 0.0298 0.03408 0.04216l0.0043 6e-3 0.06175 0.05689c0.14778 0.12086 0.36157 0.14693 0.54653 0.0545 0.10307-0.0545 0.17887-0.13556 0.22401-0.23415 0.0039-0.0085 0.0085-0.01624 0.01282-0.02599l1.5349-3.61 4.4832-2.2989c0.01709 1.2504 0.32452 2.5151 0.95324 3.6987 2.1515 4.0438 7.2366 5.6108 11.358 3.4991 0.06346-0.03237 0.12947-0.06637 0.19122-0.10096l4.7031-2.4099 0.87926 1.6538c0.42711 0.80439 1.4443 1.1172 2.262 0.69774 0.82003-0.41949 1.1405-1.4159 0.71104-2.2207l-0.87931-1.6514 3.0877-1.5832 2.5644 4.8221c0.59772 1.1234 2.0051 1.5566 3.1498 0.96982 0.32026-0.16306 0.58541-0.38917 0.78493-0.65318 0.52378-0.68352 0.63281-1.6277 0.20314-2.4364l-2.5644-4.8221 2.7985-1.4339 0.87931 1.6519c0.42754 0.80439 1.4424 1.1191 2.262 0.69774 0.82194-0.4214 1.1386-1.4178 0.711-2.2207l-0.87927-1.6533 6.4882-3.3256c0.44794-0.23607 0.86508-0.50435 1.2514-0.80487 3.1128-2.4122 4.14-6.7281 2.2397-10.302-0.62902-1.1817-1.5102-2.152-2.5436-2.8839l3.0592-1.5671 12.584 2.6762c0.02557 6e-3 0.04517 0.01197 0.06776 0.01411 0.23211 0.04216 0.47877 0.01367 0.7006-0.10096 0.49296-0.25029 0.70483-0.82478 0.50952-1.3272zm-47.285 24.235c-0.0298 0.01795-0.05536 0.0298-0.08644 0.04647-1.8534 0.94991-4.1357 0.24603-5.1013-1.5732-0.96602-1.8169-0.25084-4.0575 1.5984-5.0055l4.9003-2.5108 3.4986 6.5788zm7.7808-3.9869-3.4987-6.5787 0.20528-0.10285 2.8848-1.4784 3.4986 6.5788-0.65743 0.33704zm7.2282-3.7029-3.4991-6.5787 2.7985-1.4339 3.4991 6.5788zm11.607-5.9554c-0.04259 0.02599-0.08177 0.05025-0.1252 0.07062l-5.7118 2.9284-3.4991-6.5788 4.2589-2.1842 1.3642-0.69774c0.07198-0.03662 0.14608-0.07062 0.21975-0.10475 1.8084-0.79064 3.9532-0.07062 4.8818 1.6761 0.82003 1.5367 0.43133 3.3778-0.82812 4.4832-0.16823 0.15122-0.35561 0.28819-0.56075 0.40718z" stroke-width="4.5" style="isolation:isolate"/>
<path d="m-12.372 70.929-9.1142-17.141c-0.01278-0.0205-0.02557-0.03834-0.04262-0.05642-0.06393-0.07871-0.13543-0.14932-0.2155-0.2057-0.32494-0.2318-0.76649-0.28014-1.1485-0.08484-0.22401 0.1152-0.38883 0.29675-0.4849 0.50624-0.01278 0.01795-0.02131 0.04046-0.02983 0.06256l-4.9268 11.6-9.7759 5.0098c-0.06346 0.03237-0.12947 0.06637-0.19079 0.1005l-3.3242 1.7045-2.8971 1.4841-0.75793-1.4239c-0.42946-0.80676-1.4405-1.1191-2.2625-0.69774-0.81956 0.41949-1.14 1.414-0.711 2.2207l0.7584 1.4234-2.7985 1.4339-2.416-4.5434 4.3371-2.2226c1.1135-0.5726 1.5453-1.9221 0.96368-3.0152-0.09242-0.17729-0.20953-0.33653-0.34326-0.4759l-0.19718-0.18723c-0.68639-0.57497-1.6846-0.71623-2.5312-0.28252l-12.809 6.5626c-1.1153 0.5726-1.5472 1.9216-0.96555 3.0171 0.0924 0.17111 0.20143 0.32661 0.3309 0.46358 0.06602 0.07486 0.13969 0.14315 0.21549 0.20382 0.68634 0.57071 1.6827 0.71196 2.5274 0.27823l4.3348-2.2202 2.4165 4.5434-3.0881 1.5832-0.75798-1.4234c-0.42941-0.80487-1.4447-1.1177-2.2624-0.69821-0.21549 0.11091-0.39649 0.26021-0.54035 0.43798-0.39649 0.49391-0.48682 1.1879-0.17077 1.7827l0.7584 1.4239-4.7031 2.4099c-0.06346 0.02981-0.12947 0.06448-0.19293 0.09671l-11.204 5.7379-3.8214-0.81482c-0.0085-0.0043-0.02136-0.0043-0.0298-6e-3 -0.10689-0.0205-0.21933-0.0043-0.32239 0.04647-0.22784 0.11661-0.32665 0.38112-0.23636 0.611l4.1917 7.8794c0.0085 0.01409 0.02136 0.0298 0.03408 0.04216l0.0043 6e-3 0.06175 0.05689c0.14778 0.12086 0.36157 0.14693 0.54653 0.0545 0.10307-0.0545 0.17887-0.13556 0.22401-0.23415 0.0039-0.0085 0.0085-0.01624 0.01282-0.02599l1.5349-3.61 4.4832-2.2989c0.01709 1.2504 0.32452 2.5151 0.95324 3.6987 2.1515 4.0438 7.2366 5.6108 11.358 3.4991 0.06346-0.03237 0.12947-0.06637 0.19122-0.10096l4.7031-2.4099 0.87926 1.6538c0.42711 0.80439 1.4443 1.1172 2.262 0.69774 0.82003-0.41949 1.1405-1.4159 0.71104-2.2207l-0.87931-1.6514 3.0877-1.5832 2.5644 4.8221c0.59772 1.1234 2.0051 1.5566 3.1498 0.96982 0.32026-0.16306 0.58541-0.38917 0.78493-0.65318 0.52378-0.68352 0.63281-1.6277 0.20314-2.4364l-2.5644-4.8221 2.7985-1.4339 0.87931 1.6519c0.42754 0.80439 1.4424 1.1191 2.262 0.69774 0.82194-0.4214 1.1386-1.4178 0.711-2.2207l-0.87927-1.6533 6.4882-3.3256c0.44794-0.23607 0.86508-0.50435 1.2514-0.80487 3.1128-2.4122 4.14-6.7281 2.2397-10.302-0.62902-1.1817-1.5102-2.152-2.5436-2.8839l3.0592-1.5671 12.584 2.6762c0.02557 6e-3 0.04517 0.01197 0.06776 0.01411 0.23211 0.04216 0.47877 0.01367 0.7006-0.10096 0.49296-0.25029 0.70483-0.82478 0.50952-1.3272zm-47.285 24.235c-0.0298 0.01795-0.05536 0.0298-0.08644 0.04647-1.8534 0.94991-4.1357 0.24603-5.1013-1.5732-0.96602-1.8169-0.25084-4.0575 1.5984-5.0055l4.9003-2.5108 3.4986 6.5788zm7.7808-3.9869-3.4987-6.5787 0.20528-0.10285 2.8848-1.4784 3.4986 6.5788-0.65743 0.33704zm7.2282-3.7029-3.4991-6.5787 2.7985-1.4339 3.4991 6.5788zm11.607-5.9554c-0.04259 0.02599-0.08177 0.05025-0.1252 0.07062l-5.7118 2.9284-3.4991-6.5788 4.2589-2.1842 1.3642-0.69774c0.07198-0.03662 0.14608-0.07062 0.21975-0.10475 1.8084-0.79064 3.9532-0.07062 4.8818 1.6761 0.82003 1.5367 0.43133 3.3778-0.82812 4.4832-0.16823 0.15122-0.35561 0.28819-0.56075 0.40718z" stroke-width="5" style="isolation:isolate"/>
<path d="m-12.372 70.929-9.1142-17.141c-0.01278-0.0205-0.02557-0.03834-0.04262-0.05642-0.06393-0.07871-0.13543-0.14932-0.2155-0.2057-0.32494-0.2318-0.76649-0.28014-1.1485-0.08484-0.22401 0.1152-0.38883 0.29675-0.4849 0.50624-0.01278 0.01795-0.02131 0.04046-0.02983 0.06256l-4.9268 11.6-9.7759 5.0098c-0.06346 0.03237-0.12947 0.06637-0.19079 0.1005l-3.3242 1.7045-2.8971 1.4841-0.75793-1.4239c-0.42946-0.80676-1.4405-1.1191-2.2625-0.69774-0.81956 0.41949-1.14 1.414-0.711 2.2207l0.7584 1.4234-2.7985 1.4339-2.416-4.5434 4.3371-2.2226c1.1135-0.5726 1.5453-1.9221 0.96368-3.0152-0.09242-0.17729-0.20953-0.33653-0.34326-0.4759l-0.19718-0.18723c-0.68639-0.57497-1.6846-0.71623-2.5312-0.28252l-12.809 6.5626c-1.1153 0.5726-1.5472 1.9216-0.96555 3.0171 0.0924 0.17111 0.20143 0.32661 0.3309 0.46358 0.06602 0.07486 0.13969 0.14315 0.21549 0.20382 0.68634 0.57071 1.6827 0.71196 2.5274 0.27823l4.3348-2.2202 2.4165 4.5434-3.0881 1.5832-0.75798-1.4234c-0.42941-0.80487-1.4447-1.1177-2.2624-0.69821-0.21549 0.11091-0.39649 0.26021-0.54035 0.43798-0.39649 0.49391-0.48682 1.1879-0.17077 1.7827l0.7584 1.4239-4.7031 2.4099c-0.06346 0.02981-0.12947 0.06448-0.19293 0.09671l-11.204 5.7379-3.8214-0.81482c-0.0085-0.0043-0.02136-0.0043-0.0298-6e-3 -0.10689-0.0205-0.21933-0.0043-0.32239 0.04647-0.22784 0.11661-0.32665 0.38112-0.23636 0.611l4.1917 7.8794c0.0085 0.01409 0.02136 0.0298 0.03408 0.04216l0.0043 6e-3 0.06175 0.05689c0.14778 0.12086 0.36157 0.14693 0.54653 0.0545 0.10307-0.0545 0.17887-0.13556 0.22401-0.23415 0.0039-0.0085 0.0085-0.01624 0.01282-0.02599l1.5349-3.61 4.4832-2.2989c0.01709 1.2504 0.32452 2.5151 0.95324 3.6987 2.1515 4.0438 7.2366 5.6108 11.358 3.4991 0.06346-0.03237 0.12947-0.06637 0.19122-0.10096l4.7031-2.4099 0.87926 1.6538c0.42711 0.80439 1.4443 1.1172 2.262 0.69774 0.82003-0.41949 1.1405-1.4159 0.71104-2.2207l-0.87931-1.6514 3.0877-1.5832 2.5644 4.8221c0.59772 1.1234 2.0051 1.5566 3.1498 0.96982 0.32026-0.16306 0.58541-0.38917 0.78493-0.65318 0.52378-0.68352 0.63281-1.6277 0.20314-2.4364l-2.5644-4.8221 2.7985-1.4339 0.87931 1.6519c0.42754 0.80439 1.4424 1.1191 2.262 0.69774 0.82194-0.4214 1.1386-1.4178 0.711-2.2207l-0.87927-1.6533 6.4882-3.3256c0.44794-0.23607 0.86508-0.50435 1.2514-0.80487 3.1128-2.4122 4.14-6.7281 2.2397-10.302-0.62902-1.1817-1.5102-2.152-2.5436-2.8839l3.0592-1.5671 12.584 2.6762c0.02557 6e-3 0.04517 0.01197 0.06776 0.01411 0.23211 0.04216 0.47877 0.01367 0.7006-0.10096 0.49296-0.25029 0.70483-0.82478 0.50952-1.3272zm-47.285 24.235c-0.0298 0.01795-0.05536 0.0298-0.08644 0.04647-1.8534 0.94991-4.1357 0.24603-5.1013-1.5732-0.96602-1.8169-0.25084-4.0575 1.5984-5.0055l4.9003-2.5108 3.4986 6.5788zm7.7808-3.9869-3.4987-6.5787 0.20528-0.10285 2.8848-1.4784 3.4986 6.5788-0.65743 0.33704zm7.2282-3.7029-3.4991-6.5787 2.7985-1.4339 3.4991 6.5788zm11.607-5.9554c-0.04259 0.02599-0.08177 0.05025-0.1252 0.07062l-5.7118 2.9284-3.4991-6.5788 4.2589-2.1842 1.3642-0.69774c0.07198-0.03662 0.14608-0.07062 0.21975-0.10475 1.8084-0.79064 3.9532-0.07062 4.8818 1.6761 0.82003 1.5367 0.43133 3.3778-0.82812 4.4832-0.16823 0.15122-0.35561 0.28819-0.56075 0.40718z" stroke-width="5.5" style="isolation:isolate"/>
<path d="m-12.372 70.929-9.1142-17.141c-0.01278-0.0205-0.02557-0.03834-0.04262-0.05642-0.06393-0.07871-0.13543-0.14932-0.2155-0.2057-0.32494-0.2318-0.76649-0.28014-1.1485-0.08484-0.22401 0.1152-0.38883 0.29675-0.4849 0.50624-0.01278 0.01795-0.02131 0.04046-0.02983 0.06256l-4.9268 11.6-9.7759 5.0098c-0.06346 0.03237-0.12947 0.06637-0.19079 0.1005l-3.3242 1.7045-2.8971 1.4841-0.75793-1.4239c-0.42946-0.80676-1.4405-1.1191-2.2625-0.69774-0.81956 0.41949-1.14 1.414-0.711 2.2207l0.7584 1.4234-2.7985 1.4339-2.416-4.5434 4.3371-2.2226c1.1135-0.5726 1.5453-1.9221 0.96368-3.0152-0.09242-0.17729-0.20953-0.33653-0.34326-0.4759l-0.19718-0.18723c-0.68639-0.57497-1.6846-0.71623-2.5312-0.28252l-12.809 6.5626c-1.1153 0.5726-1.5472 1.9216-0.96555 3.0171 0.0924 0.17111 0.20143 0.32661 0.3309 0.46358 0.06602 0.07486 0.13969 0.14315 0.21549 0.20382 0.68634 0.57071 1.6827 0.71196 2.5274 0.27823l4.3348-2.2202 2.4165 4.5434-3.0881 1.5832-0.75798-1.4234c-0.42941-0.80487-1.4447-1.1177-2.2624-0.69821-0.21549 0.11091-0.39649 0.26021-0.54035 0.43798-0.39649 0.49391-0.48682 1.1879-0.17077 1.7827l0.7584 1.4239-4.7031 2.4099c-0.06346 0.02981-0.12947 0.06448-0.19293 0.09671l-11.204 5.7379-3.8214-0.81482c-0.0085-0.0043-0.02136-0.0043-0.0298-6e-3 -0.10689-0.0205-0.21933-0.0043-0.32239 0.04647-0.22784 0.11661-0.32665 0.38112-0.23636 0.611l4.1917 7.8794c0.0085 0.01409 0.02136 0.0298 0.03408 0.04216l0.0043 6e-3 0.06175 0.05689c0.14778 0.12086 0.36157 0.14693 0.54653 0.0545 0.10307-0.0545 0.17887-0.13556 0.22401-0.23415 0.0039-0.0085 0.0085-0.01624 0.01282-0.02599l1.5349-3.61 4.4832-2.2989c0.01709 1.2504 0.32452 2.5151 0.95324 3.6987 2.1515 4.0438 7.2366 5.6108 11.358 3.4991 0.06346-0.03237 0.12947-0.06637 0.19122-0.10096l4.7031-2.4099 0.87926 1.6538c0.42711 0.80439 1.4443 1.1172 2.262 0.69774 0.82003-0.41949 1.1405-1.4159 0.71104-2.2207l-0.87931-1.6514 3.0877-1.5832 2.5644 4.8221c0.59772 1.1234 2.0051 1.5566 3.1498 0.96982 0.32026-0.16306 0.58541-0.38917 0.78493-0.65318 0.52378-0.68352 0.63281-1.6277 0.20314-2.4364l-2.5644-4.8221 2.7985-1.4339 0.87931 1.6519c0.42754 0.80439 1.4424 1.1191 2.262 0.69774 0.82194-0.4214 1.1386-1.4178 0.711-2.2207l-0.87927-1.6533 6.4882-3.3256c0.44794-0.23607 0.86508-0.50435 1.2514-0.80487 3.1128-2.4122 4.14-6.7281 2.2397-10.302-0.62902-1.1817-1.5102-2.152-2.5436-2.8839l3.0592-1.5671 12.584 2.6762c0.02557 6e-3 0.04517 0.01197 0.06776 0.01411 0.23211 0.04216 0.47877 0.01367 0.7006-0.10096 0.49296-0.25029 0.70483-0.82478 0.50952-1.3272zm-47.285 24.235c-0.0298 0.01795-0.05536 0.0298-0.08644 0.04647-1.8534 0.94991-4.1357 0.24603-5.1013-1.5732-0.96602-1.8169-0.25084-4.0575 1.5984-5.0055l4.9003-2.5108 3.4986 6.5788zm7.7808-3.9869-3.4987-6.5787 0.20528-0.10285 2.8848-1.4784 3.4986 6.5788-0.65743 0.33704zm7.2282-3.7029-3.4991-6.5787 2.7985-1.4339 3.4991 6.5788zm11.607-5.9554c-0.04259 0.02599-0.08177 0.05025-0.1252 0.07062l-5.7118 2.9284-3.4991-6.5788 4.2589-2.1842 1.3642-0.69774c0.07198-0.03662 0.14608-0.07062 0.21975-0.10475 1.8084-0.79064 3.9532-0.07062 4.8818 1.6761 0.82003 1.5367 0.43133 3.3778-0.82812 4.4832-0.16823 0.15122-0.35561 0.28819-0.56075 0.40718z" stroke-width="6.5" style="isolation:isolate"/>
<path d="m-12.372 70.929-9.1142-17.141c-0.01278-0.0205-0.02557-0.03834-0.04262-0.05642-0.06393-0.07871-0.13543-0.14932-0.2155-0.2057-0.32494-0.2318-0.76649-0.28014-1.1485-0.08484-0.22401 0.1152-0.38883 0.29675-0.4849 0.50624-0.01278 0.01795-0.02131 0.04046-0.02983 0.06256l-4.9268 11.6-9.7759 5.0098c-0.06346 0.03237-0.12947 0.06637-0.19079 0.1005l-3.3242 1.7045-2.8971 1.4841-0.75793-1.4239c-0.42946-0.80676-1.4405-1.1191-2.2625-0.69774-0.81956 0.41949-1.14 1.414-0.711 2.2207l0.7584 1.4234-2.7985 1.4339-2.416-4.5434 4.3371-2.2226c1.1135-0.5726 1.5453-1.9221 0.96368-3.0152-0.09242-0.17729-0.20953-0.33653-0.34326-0.4759l-0.19718-0.18723c-0.68639-0.57497-1.6846-0.71623-2.5312-0.28252l-12.809 6.5626c-1.1153 0.5726-1.5472 1.9216-0.96555 3.0171 0.0924 0.17111 0.20143 0.32661 0.3309 0.46358 0.06602 0.07486 0.13969 0.14315 0.21549 0.20382 0.68634 0.57071 1.6827 0.71196 2.5274 0.27823l4.3348-2.2202 2.4165 4.5434-3.0881 1.5832-0.75798-1.4234c-0.42941-0.80487-1.4447-1.1177-2.2624-0.69821-0.21549 0.11091-0.39649 0.26021-0.54035 0.43798-0.39649 0.49391-0.48682 1.1879-0.17077 1.7827l0.7584 1.4239-4.7031 2.4099c-0.06346 0.02981-0.12947 0.06448-0.19293 0.09671l-11.204 5.7379-3.8214-0.81482c-0.0085-0.0043-0.02136-0.0043-0.0298-6e-3 -0.10689-0.0205-0.21933-0.0043-0.32239 0.04647-0.22784 0.11661-0.32665 0.38112-0.23636 0.611l4.1917 7.8794c0.0085 0.01409 0.02136 0.0298 0.03408 0.04216l0.0043 6e-3 0.06175 0.05689c0.14778 0.12086 0.36157 0.14693 0.54653 0.0545 0.10307-0.0545 0.17887-0.13556 0.22401-0.23415 0.0039-0.0085 0.0085-0.01624 0.01282-0.02599l1.5349-3.61 4.4832-2.2989c0.01709 1.2504 0.32452 2.5151 0.95324 3.6987 2.1515 4.0438 7.2366 5.6108 11.358 3.4991 0.06346-0.03237 0.12947-0.06637 0.19122-0.10096l4.7031-2.4099 0.87926 1.6538c0.42711 0.80439 1.4443 1.1172 2.262 0.69774 0.82003-0.41949 1.1405-1.4159 0.71104-2.2207l-0.87931-1.6514 3.0877-1.5832 2.5644 4.8221c0.59772 1.1234 2.0051 1.5566 3.1498 0.96982 0.32026-0.16306 0.58541-0.38917 0.78493-0.65318 0.52378-0.68352 0.63281-1.6277 0.20314-2.4364l-2.5644-4.8221 2.7985-1.4339 0.87931 1.6519c0.42754 0.80439 1.4424 1.1191 2.262 0.69774 0.82194-0.4214 1.1386-1.4178 0.711-2.2207l-0.87927-1.6533 6.4882-3.3256c0.44794-0.23607 0.86508-0.50435 1.2514-0.80487 3.1128-2.4122 4.14-6.7281 2.2397-10.302-0.62902-1.1817-1.5102-2.152-2.5436-2.8839l3.0592-1.5671 12.584 2.6762c0.02557 6e-3 0.04517 0.01197 0.06776 0.01411 0.23211 0.04216 0.47877 0.01367 0.7006-0.10096 0.49296-0.25029 0.70483-0.82478 0.50952-1.3272zm-47.285 24.235c-0.0298 0.01795-0.05536 0.0298-0.08644 0.04647-1.8534 0.94991-4.1357 0.24603-5.1013-1.5732-0.96602-1.8169-0.25084-4.0575 1.5984-5.0055l4.9003-2.5108 3.4986 6.5788zm7.7808-3.9869-3.4987-6.5787 0.20528-0.10285 2.8848-1.4784 3.4986 6.5788-0.65743 0.33704zm7.2282-3.7029-3.4991-6.5787 2.7985-1.4339 3.4991 6.5788zm11.607-5.9554c-0.04259 0.02599-0.08177 0.05025-0.1252 0.07062l-5.7118 2.9284-3.4991-6.5788 4.2589-2.1842 1.3642-0.69774c0.07198-0.03662 0.14608-0.07062 0.21975-0.10475 1.8084-0.79064 3.9532-0.07062 4.8818 1.6761 0.82003 1.5367 0.43133 3.3778-0.82812 4.4832-0.16823 0.15122-0.35561 0.28819-0.56075 0.40718z" stroke-width="6.5" style="isolation:isolate"/>
<path d="m-12.372 70.929-9.1142-17.141c-0.01278-0.0205-0.02557-0.03834-0.04262-0.05642-0.06393-0.07871-0.13543-0.14932-0.2155-0.2057-0.32494-0.2318-0.76649-0.28014-1.1485-0.08484-0.22401 0.1152-0.38883 0.29675-0.4849 0.50624-0.01278 0.01795-0.02131 0.04046-0.02983 0.06256l-4.9268 11.6-9.7759 5.0098c-0.06346 0.03237-0.12947 0.06637-0.19079 0.1005l-3.3242 1.7045-2.8971 1.4841-0.75793-1.4239c-0.42946-0.80676-1.4405-1.1191-2.2625-0.69774-0.81956 0.41949-1.14 1.414-0.711 2.2207l0.7584 1.4234-2.7985 1.4339-2.416-4.5434 4.3371-2.2226c1.1135-0.5726 1.5453-1.9221 0.96368-3.0152-0.09242-0.17729-0.20953-0.33653-0.34326-0.4759l-0.19718-0.18723c-0.68639-0.57497-1.6846-0.71623-2.5312-0.28252l-12.809 6.5626c-1.1153 0.5726-1.5472 1.9216-0.96555 3.0171 0.0924 0.17111 0.20143 0.32661 0.3309 0.46358 0.06602 0.07486 0.13969 0.14315 0.21549 0.20382 0.68634 0.57071 1.6827 0.71196 2.5274 0.27823l4.3348-2.2202 2.4165 4.5434-3.0881 1.5832-0.75798-1.4234c-0.42941-0.80487-1.4447-1.1177-2.2624-0.69821-0.21549 0.11091-0.39649 0.26021-0.54035 0.43798-0.39649 0.49391-0.48682 1.1879-0.17077 1.7827l0.7584 1.4239-4.7031 2.4099c-0.06346 0.02981-0.12947 0.06448-0.19293 0.09671l-11.204 5.7379-3.8214-0.81482c-0.0085-0.0043-0.02136-0.0043-0.0298-6e-3 -0.10689-0.0205-0.21933-0.0043-0.32239 0.04647-0.22784 0.11661-0.32665 0.38112-0.23636 0.611l4.1917 7.8794c0.0085 0.01409 0.02136 0.0298 0.03408 0.04216l0.0043 6e-3 0.06175 0.05689c0.14778 0.12086 0.36157 0.14693 0.54653 0.0545 0.10307-0.0545 0.17887-0.13556 0.22401-0.23415 0.0039-0.0085 0.0085-0.01624 0.01282-0.02599l1.5349-3.61 4.4832-2.2989c0.01709 1.2504 0.32452 2.5151 0.95324 3.6987 2.1515 4.0438 7.2366 5.6108 11.358 3.4991 0.06346-0.03237 0.12947-0.06637 0.19122-0.10096l4.7031-2.4099 0.87926 1.6538c0.42711 0.80439 1.4443 1.1172 2.262 0.69774 0.82003-0.41949 1.1405-1.4159 0.71104-2.2207l-0.87931-1.6514 3.0877-1.5832 2.5644 4.8221c0.59772 1.1234 2.0051 1.5566 3.1498 0.96982 0.32026-0.16306 0.58541-0.38917 0.78493-0.65318 0.52378-0.68352 0.63281-1.6277 0.20314-2.4364l-2.5644-4.8221 2.7985-1.4339 0.87931 1.6519c0.42754 0.80439 1.4424 1.1191 2.262 0.69774 0.82194-0.4214 1.1386-1.4178 0.711-2.2207l-0.87927-1.6533 6.4882-3.3256c0.44794-0.23607 0.86508-0.50435 1.2514-0.80487 3.1128-2.4122 4.14-6.7281 2.2397-10.302-0.62902-1.1817-1.5102-2.152-2.5436-2.8839l3.0592-1.5671 12.584 2.6762c0.02557 6e-3 0.04517 0.01197 0.06776 0.01411 0.23211 0.04216 0.47877 0.01367 0.7006-0.10096 0.49296-0.25029 0.70483-0.82478 0.50952-1.3272zm-47.285 24.235c-0.0298 0.01795-0.05536 0.0298-0.08644 0.04647-1.8534 0.94991-4.1357 0.24603-5.1013-1.5732-0.96602-1.8169-0.25084-4.0575 1.5984-5.0055l4.9003-2.5108 3.4986 6.5788zm7.7808-3.9869-3.4987-6.5787 0.20528-0.10285 2.8848-1.4784 3.4986 6.5788-0.65743 0.33704zm7.2282-3.7029-3.4991-6.5787 2.7985-1.4339 3.4991 6.5788zm11.607-5.9554c-0.04259 0.02599-0.08177 0.05025-0.1252 0.07062l-5.7118 2.9284-3.4991-6.5788 4.2589-2.1842 1.3642-0.69774c0.07198-0.03662 0.14608-0.07062 0.21975-0.10475 1.8084-0.79064 3.9532-0.07062 4.8818 1.6761 0.82003 1.5367 0.43133 3.3778-0.82812 4.4832-0.16823 0.15122-0.35561 0.28819-0.56075 0.40718z" stroke-width="7.5" style="isolation:isolate"/>
<path d="m-12.372 70.929-9.1142-17.141c-0.01278-0.0205-0.02557-0.03834-0.04262-0.05642-0.06393-0.07871-0.13543-0.14932-0.2155-0.2057-0.32494-0.2318-0.76649-0.28014-1.1485-0.08484-0.22401 0.1152-0.38883 0.29675-0.4849 0.50624-0.01278 0.01795-0.02131 0.04046-0.02983 0.06256l-4.9268 11.6-9.7759 5.0098c-0.06346 0.03237-0.12947 0.06637-0.19079 0.1005l-3.3242 1.7045-2.8971 1.4841-0.75793-1.4239c-0.42946-0.80676-1.4405-1.1191-2.2625-0.69774-0.81956 0.41949-1.14 1.414-0.711 2.2207l0.7584 1.4234-2.7985 1.4339-2.416-4.5434 4.3371-2.2226c1.1135-0.5726 1.5453-1.9221 0.96368-3.0152-0.09242-0.17729-0.20953-0.33653-0.34326-0.4759l-0.19718-0.18723c-0.68639-0.57497-1.6846-0.71623-2.5312-0.28252l-12.809 6.5626c-1.1153 0.5726-1.5472 1.9216-0.96555 3.0171 0.0924 0.17111 0.20143 0.32661 0.3309 0.46358 0.06602 0.07486 0.13969 0.14315 0.21549 0.20382 0.68634 0.57071 1.6827 0.71196 2.5274 0.27823l4.3348-2.2202 2.4165 4.5434-3.0881 1.5832-0.75798-1.4234c-0.42941-0.80487-1.4447-1.1177-2.2624-0.69821-0.21549 0.11091-0.39649 0.26021-0.54035 0.43798-0.39649 0.49391-0.48682 1.1879-0.17077 1.7827l0.7584 1.4239-4.7031 2.4099c-0.06346 0.02981-0.12947 0.06448-0.19293 0.09671l-11.204 5.7379-3.8214-0.81482c-0.0085-0.0043-0.02136-0.0043-0.0298-6e-3 -0.10689-0.0205-0.21933-0.0043-0.32239 0.04647-0.22784 0.11661-0.32665 0.38112-0.23636 0.611l4.1917 7.8794c0.0085 0.01409 0.02136 0.0298 0.03408 0.04216l0.0043 6e-3 0.06175 0.05689c0.14778 0.12086 0.36157 0.14693 0.54653 0.0545 0.10307-0.0545 0.17887-0.13556 0.22401-0.23415 0.0039-0.0085 0.0085-0.01624 0.01282-0.02599l1.5349-3.61 4.4832-2.2989c0.01709 1.2504 0.32452 2.5151 0.95324 3.6987 2.1515 4.0438 7.2366 5.6108 11.358 3.4991 0.06346-0.03237 0.12947-0.06637 0.19122-0.10096l4.7031-2.4099 0.87926 1.6538c0.42711 0.80439 1.4443 1.1172 2.262 0.69774 0.82003-0.41949 1.1405-1.4159 0.71104-2.2207l-0.87931-1.6514 3.0877-1.5832 2.5644 4.8221c0.59772 1.1234 2.0051 1.5566 3.1498 0.96982 0.32026-0.16306 0.58541-0.38917 0.78493-0.65318 0.52378-0.68352 0.63281-1.6277 0.20314-2.4364l-2.5644-4.8221 2.7985-1.4339 0.87931 1.6519c0.42754 0.80439 1.4424 1.1191 2.262 0.69774 0.82194-0.4214 1.1386-1.4178 0.711-2.2207l-0.87927-1.6533 6.4882-3.3256c0.44794-0.23607 0.86508-0.50435 1.2514-0.80487 3.1128-2.4122 4.14-6.7281 2.2397-10.302-0.62902-1.1817-1.5102-2.152-2.5436-2.8839l3.0592-1.5671 12.584 2.6762c0.02557 6e-3 0.04517 0.01197 0.06776 0.01411 0.23211 0.04216 0.47877 0.01367 0.7006-0.10096 0.49296-0.25029 0.70483-0.82478 0.50952-1.3272zm-47.285 24.235c-0.0298 0.01795-0.05536 0.0298-0.08644 0.04647-1.8534 0.94991-4.1357 0.24603-5.1013-1.5732-0.96602-1.8169-0.25084-4.0575 1.5984-5.0055l4.9003-2.5108 3.4986 6.5788zm7.7808-3.9869-3.4987-6.5787 0.20528-0.10285 2.8848-1.4784 3.4986 6.5788-0.65743 0.33704zm7.2282-3.7029-3.4991-6.5787 2.7985-1.4339 3.4991 6.5788zm11.607-5.9554c-0.04259 0.02599-0.08177 0.05025-0.1252 0.07062l-5.7118 2.9284-3.4991-6.5788 4.2589-2.1842 1.3642-0.69774c0.07198-0.03662 0.14608-0.07062 0.21975-0.10475 1.8084-0.79064 3.9532-0.07062 4.8818 1.6761 0.82003 1.5367 0.43133 3.3778-0.82812 4.4832-0.16823 0.15122-0.35561 0.28819-0.56075 0.40718z" stroke-width="9" style="isolation:isolate"/>
<path d="m-12.372 70.929-9.1142-17.141c-0.01278-0.0205-0.02557-0.03834-0.04262-0.05642-0.06393-0.07871-0.13543-0.14932-0.2155-0.2057-0.32494-0.2318-0.76649-0.28014-1.1485-0.08484-0.22401 0.1152-0.38883 0.29675-0.4849 0.50624-0.01278 0.01795-0.02131 0.04046-0.02983 0.06256l-4.9268 11.6-9.7759 5.0098c-0.06346 0.03237-0.12947 0.06637-0.19079 0.1005l-3.3242 1.7045-2.8971 1.4841-0.75793-1.4239c-0.42946-0.80676-1.4405-1.1191-2.2625-0.69774-0.81956 0.41949-1.14 1.414-0.711 2.2207l0.7584 1.4234-2.7985 1.4339-2.416-4.5434 4.3371-2.2226c1.1135-0.5726 1.5453-1.9221 0.96368-3.0152-0.09242-0.17729-0.20953-0.33653-0.34326-0.4759l-0.19718-0.18723c-0.68639-0.57497-1.6846-0.71623-2.5312-0.28252l-12.809 6.5626c-1.1153 0.5726-1.5472 1.9216-0.96555 3.0171 0.0924 0.17111 0.20143 0.32661 0.3309 0.46358 0.06602 0.07486 0.13969 0.14315 0.21549 0.20382 0.68634 0.57071 1.6827 0.71196 2.5274 0.27823l4.3348-2.2202 2.4165 4.5434-3.0881 1.5832-0.75798-1.4234c-0.42941-0.80487-1.4447-1.1177-2.2624-0.69821-0.21549 0.11091-0.39649 0.26021-0.54035 0.43798-0.39649 0.49391-0.48682 1.1879-0.17077 1.7827l0.7584 1.4239-4.7031 2.4099c-0.06346 0.02981-0.12947 0.06448-0.19293 0.09671l-11.204 5.7379-3.8214-0.81482c-0.0085-0.0043-0.02136-0.0043-0.0298-6e-3 -0.10689-0.0205-0.21933-0.0043-0.32239 0.04647-0.22784 0.11661-0.32665 0.38112-0.23636 0.611l4.1917 7.8794c0.0085 0.01409 0.02136 0.0298 0.03408 0.04216l0.0043 6e-3 0.06175 0.05689c0.14778 0.12086 0.36157 0.14693 0.54653 0.0545 0.10307-0.0545 0.17887-0.13556 0.22401-0.23415 0.0039-0.0085 0.0085-0.01624 0.01282-0.02599l1.5349-3.61 4.4832-2.2989c0.01709 1.2504 0.32452 2.5151 0.95324 3.6987 2.1515 4.0438 7.2366 5.6108 11.358 3.4991 0.06346-0.03237 0.12947-0.06637 0.19122-0.10096l4.7031-2.4099 0.87926 1.6538c0.42711 0.80439 1.4443 1.1172 2.262 0.69774 0.82003-0.41949 1.1405-1.4159 0.71104-2.2207l-0.87931-1.6514 3.0877-1.5832 2.5644 4.8221c0.59772 1.1234 2.0051 1.5566 3.1498 0.96982 0.32026-0.16306 0.58541-0.38917 0.78493-0.65318 0.52378-0.68352 0.63281-1.6277 0.20314-2.4364l-2.5644-4.8221 2.7985-1.4339 0.87931 1.6519c0.42754 0.80439 1.4424 1.1191 2.262 0.69774 0.82194-0.4214 1.1386-1.4178 0.711-2.2207l-0.87927-1.6533 6.4882-3.3256c0.44794-0.23607 0.86508-0.50435 1.2514-0.80487 3.1128-2.4122 4.14-6.7281 2.2397-10.302-0.62902-1.1817-1.5102-2.152-2.5436-2.8839l3.0592-1.5671 12.584 2.6762c0.02557 6e-3 0.04517 0.01197 0.06776 0.01411 0.23211 0.04216 0.47877 0.01367 0.7006-0.10096 0.49296-0.25029 0.70483-0.82478 0.50952-1.3272zm-47.285 24.235c-0.0298 0.01795-0.05536 0.0298-0.08644 0.04647-1.8534 0.94991-4.1357 0.24603-5.1013-1.5732-0.96602-1.8169-0.25084-4.0575 1.5984-5.0055l4.9003-2.5108 3.4986 6.5788zm7.7808-3.9869-3.4987-6.5787 0.20528-0.10285 2.8848-1.4784 3.4986 6.5788-0.65743 0.33704zm7.2282-3.7029-3.4991-6.5787 2.7985-1.4339 3.4991 6.5788zm11.607-5.9554c-0.04259 0.02599-0.08177 0.05025-0.1252 0.07062l-5.7118 2.9284-3.4991-6.5788 4.2589-2.1842 1.3642-0.69774c0.07198-0.03662 0.14608-0.07062 0.21975-0.10475 1.8084-0.79064 3.9532-0.07062 4.8818 1.6761 0.82003 1.5367 0.43133 3.3778-0.82812 4.4832-0.16823 0.15122-0.35561 0.28819-0.56075 0.40718z" stroke-width="10.5" style="isolation:isolate"/>
</g>
<path d="m97.889 58.464-9.1142-17.141c-0.01278-0.0205-0.02557-0.03834-0.04262-0.05642-0.06393-0.07871-0.13543-0.14932-0.2155-0.2057-0.32494-0.2318-0.76649-0.28014-1.1485-0.08484-0.22401 0.1152-0.38883 0.29675-0.4849 0.50624-0.01278 0.01795-0.02131 0.04046-0.02983 0.06256l-4.9268 11.6-9.7759 5.0098c-0.06346 0.03237-0.12947 0.06637-0.19079 0.1005l-3.3242 1.7045-2.8971 1.4841-0.75793-1.4239c-0.42946-0.80676-1.4405-1.1191-2.2625-0.69774-0.81956 0.41949-1.14 1.414-0.711 2.2207l0.7584 1.4234-2.7985 1.4339-2.416-4.5434 4.3371-2.2226c1.1135-0.5726 1.5453-1.9221 0.96368-3.0152-0.09242-0.17729-0.20953-0.33653-0.34326-0.4759l-0.19718-0.18723c-0.68639-0.57497-1.6846-0.71623-2.5312-0.28252l-12.809 6.5626c-1.1153 0.5726-1.5472 1.9216-0.96555 3.0171 0.0924 0.17111 0.20143 0.32661 0.3309 0.46358 0.06602 0.07486 0.13969 0.14315 0.21549 0.20382 0.68634 0.57071 1.6827 0.71196 2.5274 0.27823l4.3348-2.2202 2.4165 4.5434-3.0881 1.5832-0.75798-1.4234c-0.42941-0.80487-1.4447-1.1177-2.2624-0.69821-0.21549 0.11091-0.39649 0.26021-0.54035 0.43798-0.39649 0.49391-0.48682 1.1879-0.17077 1.7827l0.7584 1.4239-4.7031 2.4099c-0.06346 0.02981-0.12947 0.06448-0.19293 0.09671l-11.204 5.7379-3.8214-0.81482c-0.0085-0.0043-0.02136-0.0043-0.0298-6e-3 -0.10689-0.0205-0.21933-0.0043-0.32239 0.04647-0.22784 0.11661-0.32665 0.38112-0.23636 0.611l4.1917 7.8794c0.0085 0.01409 0.02136 0.0298 0.03408 0.04216l0.0043 6e-3 0.06175 0.05689c0.14778 0.12086 0.36157 0.14693 0.54653 0.0545 0.10307-0.0545 0.17887-0.13556 0.22401-0.23415 0.0039-0.0085 0.0085-0.01624 0.01282-0.02599l1.5349-3.61 4.4832-2.2989c0.01709 1.2504 0.32452 2.5151 0.95324 3.6987 2.1515 4.0438 7.2366 5.6108 11.358 3.4991 0.06346-0.03237 0.12947-0.06637 0.19122-0.10096l4.7031-2.4099 0.87926 1.6538c0.42711 0.80439 1.4443 1.1172 2.262 0.69774 0.82003-0.41949 1.1405-1.4159 0.71104-2.2207l-0.87931-1.6514 3.0877-1.5832 2.5644 4.8221c0.59772 1.1234 2.0051 1.5566 3.1498 0.96982 0.32026-0.16306 0.58541-0.38917 0.78493-0.65318 0.52378-0.68352 0.63281-1.6277 0.20314-2.4364l-2.5644-4.8221 2.7985-1.4339 0.87931 1.6519c0.42754 0.80439 1.4424 1.1191 2.262 0.69774 0.82194-0.4214 1.1386-1.4178 0.711-2.2207l-0.87927-1.6533 6.4882-3.3256c0.44794-0.23607 0.86508-0.50435 1.2514-0.80487 3.1128-2.4122 4.14-6.7281 2.2397-10.302-0.62902-1.1817-1.5102-2.152-2.5436-2.8839l3.0592-1.5671 12.584 2.6762c0.02557 6e-3 0.04517 0.01197 0.06776 0.01411 0.23211 0.04216 0.47877 0.01367 0.7006-0.10096 0.49296-0.25029 0.70483-0.82478 0.50952-1.3272zm-47.285 24.235c-0.0298 0.01795-0.05536 0.0298-0.08644 0.04647-1.8534 0.94991-4.1357 0.24603-5.1013-1.5732-0.96602-1.8169-0.25084-4.0575 1.5984-5.0055l4.9003-2.5108 3.4986 6.5788zm7.7808-3.9869-3.4987-6.5787 0.20528-0.10285 2.8848-1.4784 3.4986 6.5788-0.65743 0.33704zm7.2282-3.7029-3.4991-6.5787 2.7985-1.4339 3.4991 6.5788zm11.607-5.9554c-0.04259 0.02599-0.08177 0.05025-0.1252 0.07062l-5.7118 2.9284-3.4991-6.5788 4.2589-2.1842 1.3642-0.69774c0.07198-0.03662 0.14608-0.07062 0.21975-0.10475 1.8084-0.79064 3.9532-0.07062 4.8818 1.6761 0.82003 1.5367 0.43133 3.3778-0.82812 4.4832-0.16823 0.15122-0.35561 0.28819-0.56075 0.40718z" fill="#fff" stroke-width=".47401" style="isolation:isolate"/>
</svg>
