<svg width="128" height="128" version="1.1" viewBox="0 0 128 128" xmlns="http://www.w3.org/2000/svg" xmlns:xlink="http://www.w3.org/1999/xlink">
<defs>
<linearGradient id="linearGradient848" x1="27.271" x2="108.14" y1="14.217" y2="126.51" gradientTransform="matrix(.92981 0 0 .92981 1.3037 -.1962)" gradientUnits="userSpaceOnUse">
<stop stop-color="#a6b1fd" offset="0"/>
<stop stop-color="#d95df5" stop-opacity=".96078" offset="1"/>
</linearGradient>
</defs>
<filter x="-.069933" y="-.054406" width="1.1399" height="1.1088" color-interpolation-filters="sRGB">
<feGaussianBlur stdDeviation="1.9764485"/>
</filter>
<path d="m64.636 1.865c-34.384 1e-7 -62.319 27.933-62.319 62.317-6e-7 34.384 27.935 62.317 62.319 62.317 34.384 0 62.317-27.933 62.317-62.317 0-34.384-27.933-62.317-62.317-62.317z" color="#000000" color-rendering="auto" dominant-baseline="auto" fill="url(#linearGradient848)" image-rendering="auto" shape-rendering="auto" solid-color="#000000" style="font-feature-settings:normal;font-variant-alternates:normal;font-variant-caps:normal;font-variant-ligatures:normal;font-variant-numeric:normal;font-variant-position:normal;isolation:auto;mix-blend-mode:normal;shape-padding:0;text-decoration-color:#000000;text-decoration-line:none;text-decoration-style:solid;text-indent:0;text-orientation:mixed;text-transform:none;white-space:normal"/>
<path d="m32.793 32.34 27.295 36.393 36.391 27.293-27.293-36.391-36.393-27.295zm31.842 6.8242a25.019 25.019 0 0 0-12.916 3.6211l6.6309 4.9727a17.591 17.591 0 0 1 6.2852-1.166 17.591 17.591 0 0 1 17.592 17.59 17.591 17.591 0 0 1-1.1777 6.2715l4.9805 6.6406a25.019 25.019 0 0 0 3.625-12.912 25.019 25.019 0 0 0-25.02-25.018zm-21.393 12.105a25.019 25.019 0 0 0-3.625 12.912 25.019 25.019 0 0 0 25.018 25.02 25.019 25.019 0 0 0 12.916-3.6211l-6.6289-4.9727a17.591 17.591 0 0 1-6.2871 1.166 17.591 17.591 0 0 1-17.59-17.592 17.591 17.591 0 0 1 1.1777-6.2715l-4.9805-6.6406z" fill="none" stroke="#000" stroke-opacity=".060836" stroke-width="2" style="paint-order:stroke markers fill"/>
<path d="m32.793 32.34 27.295 36.393 36.391 27.293-27.293-36.391-36.393-27.295zm31.842 6.8242a25.019 25.019 0 0 0-12.916 3.6211l6.6309 4.9727a17.591 17.591 0 0 1 6.2852-1.166 17.591 17.591 0 0 1 17.592 17.59 17.591 17.591 0 0 1-1.1777 6.2715l4.9805 6.6406a25.019 25.019 0 0 0 3.625-12.912 25.019 25.019 0 0 0-25.02-25.018zm-21.393 12.105a25.019 25.019 0 0 0-3.625 12.912 25.019 25.019 0 0 0 25.018 25.02 25.019 25.019 0 0 0 12.916-3.6211l-6.6289-4.9727a17.591 17.591 0 0 1-6.2871 1.166 17.591 17.591 0 0 1-17.59-17.592 17.591 17.591 0 0 1 1.1777-6.2715l-4.9805-6.6406z" fill="none" stroke="#000" stroke-opacity=".060836" stroke-width="3" style="paint-order:stroke markers fill"/>
<path d="m32.793 32.34 27.295 36.393 36.391 27.293-27.293-36.391-36.393-27.295zm31.842 6.8242a25.019 25.019 0 0 0-12.916 3.6211l6.6309 4.9727a17.591 17.591 0 0 1 6.2852-1.166 17.591 17.591 0 0 1 17.592 17.59 17.591 17.591 0 0 1-1.1777 6.2715l4.9805 6.6406a25.019 25.019 0 0 0 3.625-12.912 25.019 25.019 0 0 0-25.02-25.018zm-21.393 12.105a25.019 25.019 0 0 0-3.625 12.912 25.019 25.019 0 0 0 25.018 25.02 25.019 25.019 0 0 0 12.916-3.6211l-6.6289-4.9727a17.591 17.591 0 0 1-6.2871 1.166 17.591 17.591 0 0 1-17.59-17.592 17.591 17.591 0 0 1 1.1777-6.2715l-4.9805-6.6406z" fill="none" stroke="#000" stroke-opacity=".060836" style="paint-order:stroke markers fill"/>
<path d="m64.635 8.8379c-30.565 6.46e-5 -55.344 24.778-55.344 55.344 6.21e-5 30.566 24.78 55.345 55.346 55.344 30.565-7e-5 55.344-24.778 55.344-55.344-6e-5 -30.566-24.78-55.345-55.346-55.344zm-31.842 23.502 36.393 27.295 27.293 36.391-36.391-27.293-27.295-36.393zm31.842 6.8242a25.019 25.019 0 0 1 25.02 25.018 25.019 25.019 0 0 1-3.625 12.912l-4.9805-6.6406a17.591 17.591 0 0 0 1.1777-6.2715 17.591 17.591 0 0 0-17.592-17.59 17.591 17.591 0 0 0-6.2852 1.166l-6.6309-4.9727a25.019 25.019 0 0 1 12.916-3.6211zm-21.393 12.105 4.9805 6.6406a17.591 17.591 0 0 0-1.1777 6.2715 17.591 17.591 0 0 0 17.59 17.592 17.591 17.591 0 0 0 6.2871-1.166l6.6289 4.9727a25.019 25.019 0 0 1-12.916 3.6211 25.019 25.019 0 0 1-25.018-25.02 25.019 25.019 0 0 1 3.625-12.912z" fill="#fff" style="paint-order:fill markers stroke"/>
</svg>
