<svg width="128" height="128" version="1.1" viewBox="0 0 33.867 33.867" xmlns="http://www.w3.org/2000/svg" xmlns:xlink="http://www.w3.org/1999/xlink">
<defs>
<radialGradient id="radialGradient1003" cx="16.933" cy="14.76" r="14.543" gradientTransform="matrix(-1.6731 0 0 -1.7356 45.264 32.022)" gradientUnits="userSpaceOnUse">
<stop stop-color="#08bcfe" offset="0"/>
<stop stop-color="#0d6be6" offset="1"/>
</radialGradient>
</defs>
<g transform="matrix(.97573 0 0 .97573 -65.748 -37.203)" fill="none" opacity=".29677" stroke="#000" stroke-linecap="round" stroke-linejoin="round" stroke-opacity=".02">
<rect x="69.84" y="40.71" width="29.811" height="29.811" rx="6.6099" ry="6.6099" stroke-width=".1"/>
<rect x="69.84" y="40.71" width="29.811" height="29.811" rx="6.6099" ry="6.6099" stroke-width=".2"/>
<rect x="69.84" y="40.71" width="29.811" height="29.811" rx="6.6099" ry="6.6099" stroke-width=".3"/>
<rect x="69.84" y="40.71" width="29.811" height="29.811" rx="6.6099" ry="6.6099" stroke-width=".4"/>
<rect x="69.84" y="40.71" width="29.811" height="29.811" rx="6.6099" ry="6.6099" stroke-width=".5"/>
<rect x="69.84" y="40.71" width="29.811" height="29.811" rx="6.6099" ry="6.6099" stroke-width=".6"/>
<rect x="69.84" y="40.71" width="29.811" height="29.811" rx="6.6099" ry="6.6099" stroke-width=".7"/>
<rect x="69.84" y="40.71" width="29.811" height="29.811" rx="6.6099" ry="6.6099" stroke-width=".8"/>
<rect x="69.84" y="40.71" width="29.811" height="29.811" rx="6.6099" ry="6.6099"/>
<rect x="69.84" y="40.71" width="29.811" height="29.811" rx="6.6099" ry="6.6099" stroke-width="1.2"/>
<rect x="69.84" y="40.71" width="29.811" height="29.811" rx="6.6099" ry="6.6099" stroke-width="1.4"/>
<rect x="69.84" y="40.71" width="29.811" height="29.811" rx="6.6099" ry="6.6099" stroke-width="1.6"/>
<rect x="69.84" y="40.71" width="29.811" height="29.811" rx="6.6099" ry="6.6099" stroke-width="1.8"/>
<rect x="69.84" y="40.71" width="29.811" height="29.811" rx="6.6099" ry="6.6099" stroke-width="2"/>
<rect x="69.84" y="40.71" width="29.811" height="29.811" rx="6.6099" ry="6.6099" stroke-width="2.2"/>
<rect x="69.84" y="40.71" width="29.811" height="29.811" rx="6.6099" ry="6.6099" stroke-width="2.6"/>
<rect x="69.84" y="40.71" width="29.811" height="29.811" rx="6.6099" ry="6.6099" stroke-width="3"/>
<rect x="69.84" y="40.71" width="29.811" height="29.811" rx="6.6099" ry="6.6099" stroke-width="3.4"/>
<rect x="69.84" y="40.71" width="29.811" height="29.811" rx="6.6099" ry="6.6099" stroke-width="3.8"/>
<rect x="69.84" y="40.71" width="29.811" height="29.811" rx="6.6099" ry="6.6099" stroke-width="4.2"/>
<rect x="69.84" y="40.71" width="29.811" height="29.811" rx="6.6099" ry="6.6099" stroke-width="4.6"/>
<rect x="69.84" y="40.71" width="29.811" height="29.811" rx="6.6099" ry="6.6099" stroke-width="5"/>
</g>
<rect x="2.39" y="2.39" width="29.087" height="29.087" rx="6.4489" fill="url(#radialGradient1003)" stroke-width=".99999"/>
<g fill="#0e0082" fill-opacity=".064222" opacity=".43017" stroke-linecap="round" stroke-linejoin="round" stroke-width=".5">
<path d="m26.337 7.9691c-9.3816 0-17.906 8.5243-17.906 17.906a0.25002 0.25002 0 0 0 0.48472 0.08837s1.19-3.1473 3.9238-5.0999c1.3265-0.9475 3.4293-1.2604 5.424-1.7653 1.9946-0.50483 3.9213-1.2342 4.7713-3.1466a0.25002 0.25002 0 0 0-0.22841-0.35192c-1.4946 0-2.5771-0.172-3.3321-0.34158 1.4051-0.19987 2.9056-0.65371 4.2013-1.5901 1.6535-1.1949 2.912-3.0222 2.912-5.4488a0.25002 0.25002 0 0 0-0.25011-0.25012z" color="#000000" style="-inkscape-stroke:none"/>
<path d="m26.498 8.2416c-9.3816 0-17.906 8.5243-17.906 17.906a0.25002 0.25002 0 0 0 0.48472 0.08837s1.19-3.1473 3.9238-5.0999c1.3265-0.9475 3.4293-1.2604 5.424-1.7653 1.9946-0.50483 3.9213-1.2342 4.7713-3.1466a0.25002 0.25002 0 0 0-0.22841-0.35192c-1.4946 0-2.5771-0.172-3.3321-0.34158 1.4051-0.19987 2.9056-0.65371 4.2013-1.5901 1.6535-1.1949 2.912-3.0222 2.912-5.4488a0.25002 0.25002 0 0 0-0.25011-0.25012z" color="#000000" style="-inkscape-stroke:none"/>
<path d="m26.557 8.7434c-9.3816 0-17.906 8.5243-17.906 17.906a0.25002 0.25002 0 0 0 0.48472 0.08837s1.19-3.1473 3.9238-5.0999c1.3265-0.9475 3.4293-1.2604 5.424-1.7653 1.9946-0.50483 3.9213-1.2342 4.7713-3.1466a0.25002 0.25002 0 0 0-0.22841-0.35192c-1.4946 0-2.5771-0.172-3.3321-0.34158 1.4051-0.19987 2.9056-0.65371 4.2013-1.5901 1.6535-1.1949 2.912-3.0222 2.912-5.4488a0.25002 0.25002 0 0 0-0.25011-0.25012z" color="#000000" style="-inkscape-stroke:none"/>
<path d="m26.501 9.7994c-9.3816 0-17.906 8.5243-17.906 17.906a0.25002 0.25002 0 0 0 0.48472 0.08837s1.19-3.1473 3.9238-5.0999c1.3265-0.9475 3.4293-1.2604 5.424-1.7653 1.9946-0.50483 3.9213-1.2342 4.7713-3.1466a0.25002 0.25002 0 0 0-0.22841-0.35192c-1.4946 0-2.5771-0.172-3.3321-0.34158 1.4051-0.19987 2.9056-0.65371 4.2013-1.5901 1.6535-1.1949 2.912-3.0222 2.912-5.4488a0.25002 0.25002 0 0 0-0.25011-0.25012z" color="#000000" style="-inkscape-stroke:none"/>
</g>
<path d="m26.404 8.179c-9.2295 0-17.656 8.4269-17.656 17.656 0 0 1.2038-3.2103 4.0128-5.2167 2.809-2.0064 8.5071-1.1982 10.112-4.8097-2.809 0-4.4943-0.64935-4.4943-0.64935 3.2102 0 8.0256-2.299 8.0256-6.9807z" fill="#fff" stroke-width=".1675"/>
<path d="m26.404 8.1788c-9.2295 0-17.656 8.4268-17.656 17.656 0 0 1.2037-3.2098 4.0127-5.2162 2.809-2.0064 8.5074-1.1985 10.113-4.81-2.809 0-4.4943-0.64906-4.4943-0.64906 3.2102 0 8.0254-2.2994 8.0254-6.981zm-1.5973 0.65319c-0.26433 1.5996-1.0493 2.8916-2.2774 3.7791-1.46 1.0551-3.3514 1.5922-4.7775 1.5922a0.75008 0.75008 0 0 0-0.26923 1.449s1.3507 0.35752 3.2262 0.54519c-0.79704 0.78037-1.8471 1.3301-3.2499 1.6852-1.9213 0.48626-4.1214 0.74999-5.7599 1.9203-1.0149 0.72491-1.7634 1.5674-2.3983 2.3942 1.6804-7.0314 8.2731-12.868 15.506-13.365z" color="#000000" fill="#0206d5" fill-opacity=".060503" stroke-linecap="round" stroke-linejoin="round" style="-inkscape-stroke:none"/>
</svg>
