<svg width="128" height="128" version="1.1" viewBox="0 0 33.867 33.867" xmlns="http://www.w3.org/2000/svg" xmlns:xlink="http://www.w3.org/1999/xlink">
<defs>
<linearGradient id="linearGradient897" x1="2686" x2="2686" y1="1088.8" y2="1770.4" gradientTransform="matrix(.042779 0 0 .042779 -95.919 -44.867)" gradientUnits="userSpaceOnUse">
<stop stop-color="#ffe95f" offset="0"/>
<stop stop-color="#ffa115" offset="1"/>
</linearGradient>
<radialGradient id="radialGradient898" cx="60.636" cy="20.456" r="17.304" gradientTransform="translate(-43.433 -3.9449)" gradientUnits="userSpaceOnUse">
<stop stop-color="#0b0b0b" offset="0"/>
<stop stop-color="#0b0b0b" stop-opacity=".85882" offset=".68076"/>
<stop stop-color="#0b0b0b" stop-opacity=".83137" offset=".69925"/>
<stop stop-color="#0b0b0b" stop-opacity=".80392" offset=".71879"/>
<stop stop-color="#0b0b0b" stop-opacity=".78039" offset=".73593"/>
<stop stop-color="#0b0b0b" stop-opacity=".75686" offset=".75022"/>
<stop stop-color="#0b0b0b" stop-opacity=".73333" offset=".76799"/>
<stop stop-color="#0b0b0b" stop-opacity=".082353" offset=".91501"/>
<stop stop-color="#0b0b0b" stop-opacity=".070588" offset=".92247"/>
<stop stop-color="#0b0b0b" stop-opacity=".058824" offset=".92919"/>
<stop stop-color="#0b0b0b" stop-opacity=".047059" offset=".93841"/>
<stop stop-color="#0b0b0b" stop-opacity=".031373" offset=".94761"/>
<stop stop-color="#0b0b0b" stop-opacity=".023529" offset=".95381"/>
<stop stop-color="#0b0b0b" stop-opacity=".015686" offset=".95886"/>
<stop stop-color="#0b0b0b" stop-opacity=".011765" offset=".96356"/>
<stop stop-color="#0b0b0b" stop-opacity=".0078431" offset=".96845"/>
<stop stop-color="#0b0b0b" stop-opacity=".0039216" offset=".97348"/>
<stop stop-color="#0b0b0b" stop-opacity="0" offset=".97812"/>
<stop stop-color="#0b0b0b" stop-opacity="0" offset=".98456"/>
<stop stop-color="#0b0b0b" stop-opacity="0" offset=".98701"/>
<stop stop-color="#0b0b0b" stop-opacity="0" offset=".98925"/>
<stop stop-color="#0b0b0b" stop-opacity="0" offset="1"/>
</radialGradient>
<radialGradient id="radialGradient993" cx="16.968" cy="4.6709" r="13.696" gradientTransform="matrix(4.8886 0 0 1.8641 -65.724 -2.4383)" gradientUnits="userSpaceOnUse">
<stop stop-color="#fcd840" offset="0"/>
<stop stop-color="#ffb937" offset="1"/>
</radialGradient>
</defs>
<circle cx="17.203" cy="16.512" r="17.304" fill="url(#radialGradient898)" opacity=".30973" stroke-linecap="square" stroke-linejoin="round" stroke-width="3"/>
<circle cx="17.203" cy="16.512" r="15.118" fill="url(#linearGradient897)" stroke="#b1aaaa" stroke-linecap="square" stroke-opacity=".99216" stroke-width=".057556"/>
<circle cx="17.203" cy="16.512" r="13.102" fill="url(#radialGradient993)"/>
<path d="m11.993 6.9612a0.54764 0.35317 0 0 0-0.44591 0.17586l-3.1138 3.4781a0.54764 0.35317 0 0 0 0.4748 0.53006h1.0212v10.462c0 3.4772 2.7994 6.2766 6.2766 6.2766h2.0914c3.4773 0 6.2766-2.7994 6.2766-6.2766v-10.462h1.0212a0.54764 0.35317 0 0 0 0.4748-0.53006l-3.1138-3.4781a0.54764 0.35317 0 0 0-0.44842-0.17586 0.54764 0.35317 0 0 0-0.05401 0 0.54764 0.35317 0 0 0-0.44591 0.17586l-3.1138 3.4781a0.54764 0.35317 0 0 0 0.4748 0.53006h1.0212v11.508c0 1.7332-1.4057 3.1377-3.1389 3.1377-1.7332 0-3.1377-1.4045-3.1377-3.1377v-11.508h1.0212a0.54764 0.35317 0 0 0 0.47479-0.53006l-3.1138-3.4781a0.54764 0.35317 0 0 0-0.44842-0.17586 0.54764 0.35317 0 0 0-0.054 0z" fill="#190006" fill-opacity=".035989" stroke-width=".52305"/>
<path d="m12.097 7.134a0.54764 0.35317 0 0 0-0.44591 0.17586l-3.1138 3.4781a0.54764 0.35317 0 0 0 0.4748 0.53006h1.0212v10.462c0 3.4772 2.7994 6.2766 6.2766 6.2766h2.0914c3.4773 0 6.2766-2.7994 6.2766-6.2766v-10.462h1.0212a0.54764 0.35317 0 0 0 0.4748-0.53006l-3.1138-3.4781a0.54764 0.35317 0 0 0-0.44842-0.17586 0.54764 0.35317 0 0 0-0.05401 0 0.54764 0.35317 0 0 0-0.44591 0.17586l-3.1138 3.4781a0.54764 0.35317 0 0 0 0.4748 0.53006h1.0212v11.508c0 1.7332-1.4057 3.1377-3.1389 3.1377-1.7332 0-3.1377-1.4045-3.1377-3.1377v-11.508h1.0212a0.54764 0.35317 0 0 0 0.47479-0.53006l-3.1138-3.4781a0.54764 0.35317 0 0 0-0.44842-0.17586 0.54764 0.35317 0 0 0-0.054 0z" fill="#190006" fill-opacity=".035989" stroke-width=".52305"/>
<path d="m12.244 7.4491a0.54764 0.35317 0 0 0-0.44591 0.17586l-3.1138 3.4781a0.54764 0.35317 0 0 0 0.4748 0.53006h1.0212v10.462c0 3.4772 2.7994 6.2766 6.2766 6.2766h2.0914c3.4773 0 6.2766-2.7994 6.2766-6.2766v-10.462h1.0212a0.54764 0.35317 0 0 0 0.4748-0.53006l-3.1138-3.4781a0.54764 0.35317 0 0 0-0.44842-0.17586 0.54764 0.35317 0 0 0-0.05401 0 0.54764 0.35317 0 0 0-0.44591 0.17586l-3.1138 3.4781a0.54764 0.35317 0 0 0 0.4748 0.53006h1.0212v11.508c0 1.7332-1.4057 3.1377-3.1389 3.1377-1.7332 0-3.1377-1.4045-3.1377-3.1377v-11.508h1.0212a0.54764 0.35317 0 0 0 0.47479-0.53006l-3.1138-3.4781a0.54764 0.35317 0 0 0-0.44842-0.17586 0.54764 0.35317 0 0 0-0.054 0z" fill="#190006" fill-opacity=".035989" stroke-width=".52305"/>
<path d="m12.498 7.9684a0.54764 0.35317 0 0 0-0.44591 0.17586l-3.1138 3.4781a0.54764 0.35317 0 0 0 0.4748 0.53006h1.0212v10.462c0 3.4772 2.7994 6.2766 6.2766 6.2766h2.0914c3.4773 0 6.2766-2.7994 6.2766-6.2766v-10.462h1.0212a0.54764 0.35317 0 0 0 0.4748-0.53006l-3.1138-3.4781a0.54764 0.35317 0 0 0-0.44842-0.17586 0.54764 0.35317 0 0 0-0.05401 0 0.54764 0.35317 0 0 0-0.44591 0.17586l-3.1138 3.4781a0.54764 0.35317 0 0 0 0.4748 0.53006h1.0212v11.508c0 1.7332-1.4057 3.1377-3.1389 3.1377-1.7332 0-3.1377-1.4045-3.1377-3.1377v-11.508h1.0212a0.54764 0.35317 0 0 0 0.47479-0.53006l-3.1138-3.4781a0.54764 0.35317 0 0 0-0.44842-0.17586 0.54764 0.35317 0 0 0-0.054 0z" fill="#190006" fill-opacity=".035989" stroke-width=".52305"/>
<path d="m12.931 8.3625a0.54764 0.35317 0 0 0-0.44591 0.17586l-3.1138 3.4781a0.54764 0.35317 0 0 0 0.4748 0.53006h1.0212v10.462c0 3.4772 2.7994 6.2766 6.2766 6.2766h2.0914c3.4773 0 6.2766-2.7994 6.2766-6.2766v-10.462h1.0212a0.54764 0.35317 0 0 0 0.4748-0.53006l-3.1138-3.4781a0.54764 0.35317 0 0 0-0.44842-0.17586 0.54764 0.35317 0 0 0-0.05401 0 0.54764 0.35317 0 0 0-0.44591 0.17586l-3.1138 3.4781a0.54764 0.35317 0 0 0 0.4748 0.53006h1.0212v11.508c0 1.7332-1.4057 3.1377-3.1389 3.1377-1.7332 0-3.1377-1.4045-3.1377-3.1377v-11.508h1.0212a0.54764 0.35317 0 0 0 0.47479-0.53006l-3.1138-3.4781a0.54764 0.35317 0 0 0-0.44842-0.17586 0.54764 0.35317 0 0 0-0.054 0z" fill="#190006" fill-opacity=".035989" stroke-width=".52305"/>
<path d="m11.908 6.8336a0.54764 0.35317 0 0 0-0.44591 0.17586l-3.1138 3.4781a0.54764 0.35317 0 0 0 0.4748 0.53006h1.0212v10.462c0 3.4772 2.7994 6.2766 6.2766 6.2766h2.0914c3.4773 0 6.2766-2.7994 6.2766-6.2766v-10.462h1.0212a0.54764 0.35317 0 0 0 0.4748-0.53006l-3.1138-3.4781a0.54764 0.35317 0 0 0-0.44842-0.17586 0.54764 0.35317 0 0 0-0.05401 0 0.54764 0.35317 0 0 0-0.44591 0.17586l-3.1138 3.4781a0.54764 0.35317 0 0 0 0.4748 0.53006h1.0212v11.508c0 1.7332-1.4057 3.1377-3.1389 3.1377-1.7332 0-3.1377-1.4045-3.1377-3.1377v-11.508h1.0212a0.54764 0.35317 0 0 0 0.47479-0.53006l-3.1138-3.4781a0.54764 0.35317 0 0 0-0.44842-0.17586 0.54764 0.35317 0 0 0-0.054 0z" fill="#fff" stroke-width=".52305"/>
</svg>
