<svg width="128" height="128" version="1.1" viewBox="0 0 33.867 33.867" xmlns="http://www.w3.org/2000/svg" xmlns:xlink="http://www.w3.org/1999/xlink">
<defs>
<linearGradient id="linearGradient1632" x1="132.21" x2="132.21" y1="42.152" y2="70.68" gradientTransform="matrix(.97573 0 0 .97573 -111.68 -37.28)" gradientUnits="userSpaceOnUse">
<stop stop-color="#fff" offset="0"/>
<stop stop-color="#f7f9f8" offset="1"/>
</linearGradient>
</defs>
<g transform="matrix(.97573 0 0 .97573 -65.651 -37.28)" fill="none" opacity=".29676" stroke="#000" stroke-linecap="round" stroke-linejoin="round" stroke-opacity=".02">
<rect x="69.84" y="40.71" width="29.811" height="29.811" rx="6.6099" ry="6.6099" stroke-width=".1"/>
<rect x="69.84" y="40.71" width="29.811" height="29.811" rx="6.6099" ry="6.6099" stroke-width=".2"/>
<rect x="69.84" y="40.71" width="29.811" height="29.811" rx="6.6099" ry="6.6099" stroke-width=".3"/>
<rect x="69.84" y="40.71" width="29.811" height="29.811" rx="6.6099" ry="6.6099" stroke-width=".4"/>
<rect x="69.84" y="40.71" width="29.811" height="29.811" rx="6.6099" ry="6.6099" stroke-width=".5"/>
<rect x="69.84" y="40.71" width="29.811" height="29.811" rx="6.6099" ry="6.6099" stroke-width=".6"/>
<rect x="69.84" y="40.71" width="29.811" height="29.811" rx="6.6099" ry="6.6099" stroke-width=".7"/>
<rect x="69.84" y="40.71" width="29.811" height="29.811" rx="6.6099" ry="6.6099" stroke-width=".8"/>
<rect x="69.84" y="40.71" width="29.811" height="29.811" rx="6.6099" ry="6.6099"/>
<rect x="69.84" y="40.71" width="29.811" height="29.811" rx="6.6099" ry="6.6099" stroke-width="1.2"/>
<rect x="69.84" y="40.71" width="29.811" height="29.811" rx="6.6099" ry="6.6099" stroke-width="1.4"/>
<rect x="69.84" y="40.71" width="29.811" height="29.811" rx="6.6099" ry="6.6099" stroke-width="1.6"/>
<rect x="69.84" y="40.71" width="29.811" height="29.811" rx="6.6099" ry="6.6099" stroke-width="1.8"/>
<rect x="69.84" y="40.71" width="29.811" height="29.811" rx="6.6099" ry="6.6099" stroke-width="2"/>
<rect x="69.84" y="40.71" width="29.811" height="29.811" rx="6.6099" ry="6.6099" stroke-width="2.2"/>
<rect x="69.84" y="40.71" width="29.811" height="29.811" rx="6.6099" ry="6.6099" stroke-width="2.6"/>
<rect x="69.84" y="40.71" width="29.811" height="29.811" rx="6.6099" ry="6.6099" stroke-width="3"/>
<rect x="69.84" y="40.71" width="29.811" height="29.811" rx="6.6099" ry="6.6099" stroke-width="3.4"/>
<rect x="69.84" y="40.71" width="29.811" height="29.811" rx="6.6099" ry="6.6099" stroke-width="3.8"/>
<rect x="69.84" y="40.71" width="29.811" height="29.811" rx="6.6099" ry="6.6099" stroke-width="4.2"/>
<rect x="69.84" y="40.71" width="29.811" height="29.811" rx="6.6099" ry="6.6099" stroke-width="4.6"/>
<rect x="69.84" y="40.71" width="29.811" height="29.811" rx="6.6099" ry="6.6099" stroke-width="5"/>
</g>
<rect x="2.4937" y="2.4418" width="29.087" height="29.087" rx="6.4495" ry="6.4495" fill="url(#linearGradient1632)" stroke-linecap="round" stroke-linejoin="round" stroke-width="2.6877"/>
<path d="m21.295 21.844h-15.295s3.3457 4.7796 13.383 4.7796c6.6914 0 8.9219-3.3457 8.9219-5.0186 0-1.4472 0-2.1508-1.1152-2.1508h-4.7796c-1.1152 0-1.1152 1.0525-1.1152 2.3898z" opacity=".2" stroke-width=".3983"/>
<path d="m19.542 9.8951v-3.1864l3.983 1.5932z" opacity=".2" stroke-width=".3983"/>
<path d="m21.295 21.446h-15.295s3.3457 4.7796 13.383 4.7796c6.6914 0 8.9219-3.3457 8.9219-5.0186 0-1.4472 0-2.1508-1.1152-2.1508h-4.7796c-1.1152 0-1.1152 1.0525-1.1152 2.3898z" fill="#784421" stroke-width=".3983"/>
<path d="m19.542 9.8951v11.949s-4.7796-2.7303-4.7796-5.9745c0-3.2442 4.7796-5.9745 4.7796-5.9745z" opacity=".2" stroke-width=".3983"/>
<path d="m19.542 9.4968v11.949s-4.7796-2.7303-4.7796-5.9745c0-3.2442 4.7796-5.9745 4.7796-5.9745z" fill="#e4e4e4" stroke-width=".3983"/>
<path d="m19.542 9.4968v-3.1864l3.983 1.5932z" fill="#c83737" stroke-width=".3983"/>
<path d="m12.373 13.878v7.966s-3.1864-1.8202-3.1864-3.983c0-2.1628 3.1864-3.983 3.1864-3.983z" opacity=".2" stroke-width=".3983"/>
<path d="m12.373 13.48v7.966s-3.1864-1.8202-3.1864-3.983 3.1864-3.983 3.1864-3.983z" fill="#e4e4e4" stroke-width=".3983"/>
<path d="m22.33 20.384s0-0.53107 0.59745-0.53107 0.59745 0.53107 0.59745 0.53107v1.0621h-1.1949z" opacity=".4" stroke-width=".3983"/>
<path d="m24.322 20.384s0-0.53107 0.59745-0.53107 0.59745 0.53107 0.59745 0.53107v1.0621h-1.1949z" opacity=".4" stroke-width=".3983"/>
<path d="m26.313 20.384s0-0.53107 0.59745-0.53107 0.59745 0.53107 0.59745 0.53107v1.0621h-1.1949z" opacity=".4" stroke-width=".3983"/>
<path d="m22.41 19.056c-1.1152 0-1.1148 1.0525-1.1148 2.3898h-15.295s0.11081 0.15383 0.33684 0.3983h14.958c0-1.3373-4.77e-4 -2.3898 1.1148-2.3898h4.7796c1.0197 0 1.1018 0.61957 1.1093 1.8266 8.7e-4 -0.02391 0.0062-0.05064 0.0062-0.0739 0-1.4472-3.1e-4 -2.151-1.1156-2.151z" fill="#fff" opacity=".1" stroke-width=".3983"/>
<path d="m19.542 9.4968s-4.7796 2.7303-4.7796 5.9745c0 0.06672 0.0054 0.13288 0.0093 0.19915 0.18859-3.1558 4.7703-5.7754 4.7703-5.7754z" fill="#fff" opacity=".1" stroke-width=".3983"/>
<path d="m19.542 6.3104v0.3983l3.4851 1.394 0.49788-0.19915z" fill="#fff" opacity=".1" stroke-width=".3983"/>
<path d="m12.373 13.48s-3.1864 1.8202-3.1864 3.983c0 0.06706 0.011953 0.13279 0.017892 0.19915 0.18555-2.0737 3.1685-3.7838 3.1685-3.7838z" fill="#fff" opacity=".1" stroke-width=".3983"/>
</svg>
