<svg width="128" height="128" version="1.1" viewBox="0 0 33.867 33.867" xmlns="http://www.w3.org/2000/svg" xmlns:xlink="http://www.w3.org/1999/xlink">
<defs>
<linearGradient id="linearGradient1632" x1="132.21" x2="132.21" y1="42.152" y2="70.68" gradientTransform="matrix(.97573 0 0 .97573 -111.78 -37.203)" gradientUnits="userSpaceOnUse">
<stop stop-color="#d2d4da" offset="0"/>
<stop stop-color="#e2e8ec" offset="1"/>
</linearGradient>
<radialGradient id="radialGradient1384" cx="17.413" cy="5.5117" r="12.048" gradientTransform="matrix(3.4939 0 0 1.9347 -43.428 -5.1194)" gradientUnits="userSpaceOnUse">
<stop stop-color="#64bff8" offset="0"/>
<stop stop-color="#0079ee" offset="1"/>
</radialGradient>
<linearGradient id="linearGradient3" x1="8.8226" x2="8.8226" y1="10.542" y2="63.837" gradientUnits="userSpaceOnUse">
<stop stop-color="#fff" offset="0"/>
<stop stop-color="#0a80ef" offset="1"/>
</linearGradient>
</defs>
<g transform="matrix(.97573 0 0 .97573 -65.748 -37.203)" fill="none" opacity=".295" stroke="#000" stroke-linecap="round" stroke-linejoin="round" stroke-opacity=".02">
<rect x="69.84" y="40.71" width="29.811" height="29.811" rx="6.6099" ry="6.6099" stroke-width=".1"/>
<rect x="69.84" y="40.71" width="29.811" height="29.811" rx="6.6099" ry="6.6099" stroke-width=".2"/>
<rect x="69.84" y="40.71" width="29.811" height="29.811" rx="6.6099" ry="6.6099" stroke-width=".3"/>
<rect x="69.84" y="40.71" width="29.811" height="29.811" rx="6.6099" ry="6.6099" stroke-width=".4"/>
<rect x="69.84" y="40.71" width="29.811" height="29.811" rx="6.6099" ry="6.6099" stroke-width=".5"/>
<rect x="69.84" y="40.71" width="29.811" height="29.811" rx="6.6099" ry="6.6099" stroke-width=".6"/>
<rect x="69.84" y="40.71" width="29.811" height="29.811" rx="6.6099" ry="6.6099" stroke-width=".7"/>
<rect x="69.84" y="40.71" width="29.811" height="29.811" rx="6.6099" ry="6.6099" stroke-width=".8"/>
<rect x="69.84" y="40.71" width="29.811" height="29.811" rx="6.6099" ry="6.6099"/>
<rect x="69.84" y="40.71" width="29.811" height="29.811" rx="6.6099" ry="6.6099" stroke-width="1.2"/>
<rect x="69.84" y="40.71" width="29.811" height="29.811" rx="6.6099" ry="6.6099" stroke-width="1.4"/>
<rect x="69.84" y="40.71" width="29.811" height="29.811" rx="6.6099" ry="6.6099" stroke-width="1.6"/>
<rect x="69.84" y="40.71" width="29.811" height="29.811" rx="6.6099" ry="6.6099" stroke-width="1.8"/>
<rect x="69.84" y="40.71" width="29.811" height="29.811" rx="6.6099" ry="6.6099" stroke-width="2"/>
<rect x="69.84" y="40.71" width="29.811" height="29.811" rx="6.6099" ry="6.6099" stroke-width="2.2"/>
<rect x="69.84" y="40.71" width="29.811" height="29.811" rx="6.6099" ry="6.6099" stroke-width="2.6"/>
<rect x="69.84" y="40.71" width="29.811" height="29.811" rx="6.6099" ry="6.6099" stroke-width="3"/>
<rect x="69.84" y="40.71" width="29.811" height="29.811" rx="6.6099" ry="6.6099" stroke-width="3.4"/>
<rect x="69.84" y="40.71" width="29.811" height="29.811" rx="6.6099" ry="6.6099" stroke-width="3.8"/>
<rect x="69.84" y="40.71" width="29.811" height="29.811" rx="6.6099" ry="6.6099" stroke-width="4.2"/>
<rect x="69.84" y="40.71" width="29.811" height="29.811" rx="6.6099" ry="6.6099" stroke-width="4.6"/>
<rect x="69.84" y="40.71" width="29.811" height="29.811" rx="6.6099" ry="6.6099" stroke-width="5"/>
</g>
<rect x="2.3963" y="2.5186" width="29.087" height="29.087" rx="6.4495" ry="6.4495" fill="url(#linearGradient1632)" stroke-linecap="round" stroke-linejoin="round" stroke-width="2.688"/>
<g stroke-linecap="round" stroke-linejoin="round" stroke-width="2.688">
<rect x="3.3611" y="3.4835" width="27.158" height="27.158" rx="5.9382" ry="5.9382" fill="#181818"/>
<rect x="4.8921" y="5.0481" width="24.096" height="24.028" rx="4.8865" ry="4.8865" fill="url(#radialGradient1384)"/>
</g>
<path d="m12.826 9.0394c-0.30998 0.00994-0.55966 0.23247-0.55966 0.52193v4.6245h-2.5192c0.13641 2.72 0.71118 5.5694 1.8996 7.7132 1.2879 2.3233 3.1016 4.1386 6.2177 5.2555 3.1161-1.1169 4.9298-2.9322 6.2177-5.2555 1.1884-2.1438 2.0639-6.9643 0.96418-8.6821l-1.4877 0.96885h-0.09612l-0.18375-4.6078c-0.023503-0.58938-0.76752-0.84926-1.0775-0.83931zm1.987 1.4144h1.6242c0.16996-1.69e-4 0.30764 0.13753 0.30748 0.30748v1.6242c1.7e-4 0.16996-0.13753 0.30764-0.30748 0.30748h-1.6242c-0.16996 1.7e-4 -0.30765-0.13753-0.30748-0.30748v-1.6242c-1.71e-4 -0.16996 0.13753-0.30764 0.30748-0.30748zm4.4788 0h1.6242c0.16995-1.69e-4 0.30764 0.13753 0.30747 0.30748v1.6242c1.71e-4 0.16996-0.13753 0.30764-0.30747 0.30748h-1.6242c-0.16996 1.7e-4 -0.30764-0.13753-0.30747-0.30748v-1.6242c-1.69e-4 -0.16996 0.13752-0.30764 0.30747-0.30748zm-1.4872 4.4783h0.0015c1.9806-2e-6 3.8472 1.4733 4.4468 3.1828 0.03549 0.10167-0.03685 0.20967-0.14159 0.20981h-1.9198c-0.04844-3.5e-5 -0.09402-0.02517-0.12247-0.06563-0.52149-0.74478-1.3141-1.1793-2.3006-1.1793-1.6641 0-2.5921 1.0793-2.5921 2.7099 0 1.6488 1.0356 2.7993 2.6898 2.7523 1.759-0.04998 2.3048-0.89917 2.3048-0.89917h-2.5177c-0.08317-2.91e-4 -0.14958-0.0687-0.14986-0.15451v-1.9172c3e-6 -0.08601 0.06647-0.15577 0.14986-0.15606h4.9129c0.08338 2.82e-4 0.15038 0.07003 0.15038 0.15606v0.20722c2.56e-4 0.0052 2.56e-4 0.01084 0 0.01602 1.08e-4 0.01269-0.0019 0.02538-0.0047 0.03772-0.02081 2.5376-2.0856 4.8038-4.7522 4.8038-2.7826 0-4.9465-2.1349-4.9465-4.871 0-2.6878 2.136-4.8328 4.7914-4.8328z" fill="#000111" fill-opacity=".089396" stroke-width=".37321"/>
<path d="m12.259 9.0225c-0.31014 0-0.55966 0.23247-0.55966 0.52193v3.9563h-2.5192c0.13641 2.72 0.71118 5.5694 1.8996 7.7132 1.2879 2.3233 3.1016 4.1386 6.2177 5.2555 3.1161-1.1169 4.9298-2.9322 6.2177-5.2555 1.1884-2.1438 1.9971-5.6029 1.5739-8.0891l-2.0974 0.37585h-0.09612v-3.9563c0-0.28946-0.24952-0.52193-0.55966-0.52193zm1.987 0.74621h1.6242c0.16996-1.69e-4 0.30764 0.13753 0.30748 0.30747v1.6242c1.7e-4 0.16996-0.13753 0.30764-0.30748 0.30748h-1.6242c-0.16996 1.7e-4 -0.30765-0.13753-0.30748-0.30748v-1.6242c-1.71e-4 -0.16995 0.13753-0.30764 0.30748-0.30747zm4.4788 0h1.6242c0.16995-1.69e-4 0.30764 0.13753 0.30747 0.30747v1.6242c1.71e-4 0.16996-0.13753 0.30764-0.30747 0.30748h-1.6242c-0.16996 1.7e-4 -0.30764-0.13753-0.30747-0.30748v-1.6242c-1.69e-4 -0.16995 0.13752-0.30764 0.30747-0.30747zm-1.4872 4.4783h0.0015c1.9806-2e-6 3.8472 1.4733 4.4468 3.1828 0.03549 0.10167-0.03685 0.20967-0.14159 0.20981h-1.9198c-0.04844-3.5e-5 -0.09402-0.02517-0.12247-0.06563-0.52149-0.74478-1.3141-1.1793-2.3006-1.1793-1.6641 0-2.5921 1.0793-2.5921 2.7099 0 1.6488 1.0356 2.7993 2.6898 2.7523 1.759-0.04998 2.3048-0.89917 2.3048-0.89917h-2.5177c-0.08317-2.91e-4 -0.14958-0.0687-0.14986-0.15451v-1.9172c3e-6 -0.08601 0.06647-0.15577 0.14986-0.15606h4.9129c0.08338 2.82e-4 0.15038 0.07003 0.15038 0.15606v0.20722c2.56e-4 0.0052 2.56e-4 0.01084 0 0.01602 1.08e-4 0.01269-0.0019 0.02538-0.0047 0.03772-0.02081 2.5376-2.0856 4.8038-4.7522 4.8038-2.7826 0-4.9465-2.1349-4.9465-4.871 0-2.6878 2.136-4.8328 4.7914-4.8328z" fill="#000111" fill-opacity=".089396" stroke-width=".37321"/>
<path d="m11.902 8.6223c-0.31014 0-0.55966 0.23247-0.55966 0.52193v3.9563h-2.5192c0.13641 2.72 0.71118 5.5694 1.8996 7.7132 1.2879 2.3233 3.1016 4.1386 6.2177 5.2555 3.1161-1.1169 4.9298-2.9322 6.2177-5.2555 1.1884-2.1438 1.7632-4.9932 1.8996-7.7132h-2.5192v-3.9563c0-0.28946-0.24952-0.52193-0.55966-0.52193zm1.987 0.74621h1.6242c0.16996-1.69e-4 0.30764 0.13753 0.30748 0.30748v1.6242c1.7e-4 0.16996-0.13753 0.30764-0.30748 0.30748h-1.6242c-0.16996 1.7e-4 -0.30765-0.13753-0.30748-0.30748v-1.6242c-1.71e-4 -0.16996 0.13753-0.30764 0.30748-0.30748zm4.4788 0h1.6242c0.16995-1.69e-4 0.30764 0.13753 0.30747 0.30748v1.6242c1.71e-4 0.16996-0.13753 0.30764-0.30747 0.30748h-1.6242c-0.16996 1.7e-4 -0.30764-0.13753-0.30747-0.30748v-1.6242c-1.69e-4 -0.16996 0.13752-0.30764 0.30747-0.30748zm-1.4872 4.4783h0.0015c1.9806-2e-6 3.8472 1.4733 4.4468 3.1828 0.03549 0.10167-0.03685 0.20967-0.14159 0.20981h-1.9198c-0.04844-3.5e-5 -0.09402-0.02517-0.12247-0.06563-0.52149-0.74478-1.3141-1.1793-2.3006-1.1793-1.6641 0-2.5921 1.0793-2.5921 2.7099 0 1.6488 1.0356 2.7993 2.6898 2.7523 1.759-0.04998 2.3048-0.89917 2.3048-0.89917h-2.5177c-0.08317-2.91e-4 -0.14958-0.0687-0.14986-0.15451v-1.9172c3e-6 -0.08601 0.06647-0.15577 0.14986-0.15606h4.9129c0.08338 2.82e-4 0.15038 0.07003 0.15038 0.15606v0.20722c2.56e-4 0.0052 2.56e-4 0.01084 0 0.01602 1.08e-4 0.01269-0.0019 0.02538-0.0047 0.03772-0.02081 2.5376-2.0856 4.8038-4.7522 4.8038-2.7826 0-4.9465-2.1349-4.9465-4.871 0-2.6878 2.136-4.8328 4.7914-4.8328z" fill="url(#linearGradient3)" stroke-width=".37321"/>
<style><![CDATA[.B{clip-path:url(#C)}.C{fill:#3e2723}.D{fill-opacity:.15}.E{fill-opacity:.2}]]></style>
<style><![CDATA[.B{clip-path:url(#C)}.C{fill:#3e2723}.D{fill-opacity:.15}.E{fill-opacity:.2}]]></style>
</svg>
