<svg width="128" height="128" version="1.1" viewBox="0 0 128 128" xmlns="http://www.w3.org/2000/svg" xmlns:osb="http://www.openswatchbook.org/uri/2009/osb" xmlns:xlink="http://www.w3.org/1999/xlink">
<defs>
<linearGradient id="linearGradient825" x1="-741.83" x2="-741.83" y1="959.05" y2="93.836" gradientTransform="matrix(.13668 0 0 .13668 162.31 -5.9893)" gradientUnits="userSpaceOnUse">
<stop stop-color="#d9dee1" offset="0"/>
<stop stop-color="#fbfcfc" offset="1"/>
</linearGradient>
<linearGradient id="linearGradient835" x1="-738.76" x2="-738.76" y1="931.43" y2="152.13" gradientTransform="matrix(.13668 0 0 .13668 162.31 -5.9893)" gradientUnits="userSpaceOnUse">
<stop stop-color="#fefefe" offset="0"/>
<stop stop-color="#dadfe2" offset="1"/>
</linearGradient>
<clipPath>
<rect width="384" height="384"/>
</clipPath>
<clipPath>
<rect width="384" height="384"/>
</clipPath>
<clipPath>
<rect width="384" height="384"/>
</clipPath>
<clipPath>
<rect width="384" height="384"/>
</clipPath>
<clipPath>
<rect width="384" height="384"/>
</clipPath>
<clipPath>
<rect width="384" height="384"/>
</clipPath>
<clipPath>
<rect width="384" height="384"/>
</clipPath>
<clipPath>
<rect width="384" height="384"/>
</clipPath>
<clipPath>
<rect width="384" height="384"/>
</clipPath>
<clipPath>
<rect width="384" height="384"/>
</clipPath>
<clipPath>
<rect width="384" height="384"/>
</clipPath>
<clipPath>
<rect width="384" height="384"/>
</clipPath>
<clipPath>
<rect width="384" height="384"/>
</clipPath>
<clipPath>
<rect width="384" height="384"/>
</clipPath>
<linearGradient id="linearGradient948" x1="122.34" x2="84.091" y1="117.04" y2="71.02" gradientTransform="translate(-833.29 -293.54)" gradientUnits="userSpaceOnUse" xlink:href="#linearGradient944"/>
<linearGradient id="linearGradient944">
<stop stop-color="#d5dada" offset="0"/>
<stop stop-color="#f1f1f1" offset="1"/>
</linearGradient>
<clipPath>
<rect width="384" height="384"/>
</clipPath>
<clipPath>
<rect width="384" height="384"/>
</clipPath>
<linearGradient id="linearGradient1194" x1="122.34" x2="84.091" y1="117.04" y2="71.02" gradientTransform="translate(-988.32 -283.8)" gradientUnits="userSpaceOnUse" xlink:href="#linearGradient944"/>
</defs>
<circle cx="63.592" cy="64.286" r="61.38" fill="url(#linearGradient825)"/>
<circle cx="63.592" cy="64.286" r="55.09" fill="url(#linearGradient835)"/>
<style><![CDATA[.B{clip-path:url(#C)}.C{fill:#3e2723}.D{fill-opacity:.15}.E{fill-opacity:.2}]]></style>
<g transform="matrix(.22622 0 0 -.22622 26.354 225.28)" stroke-width="1.0279">
<g transform="translate(41.913 789.95)">
<path d="m0 0-24.56 42.513 49.098 0.013z" fill="#20acd9"/>
</g>
<g transform="translate(41.901 789.95)">
<path d="M 0,0 24.549,42.52 49.098,0 Z" fill="#27a7d4"/>
</g>
<g transform="translate(66.462 747.43)">
<path d="m0 0-24.56 42.513 49.098 0.013z" fill="#259ed2"/>
</g>
<g transform="translate(66.451 747.43)">
<path d="M 0,0 24.549,42.52 49.098,0 Z" fill="#2a8ece"/>
</g>
<g transform="translate(91.011 704.9)">
<path d="m0 0-24.56 42.513 49.098 0.013z" fill="#3088c8"/>
</g>
<g transform="translate(91 704.9)">
<path d="M 0,0 24.549,42.52 49.098,0 Z" fill="#357abe"/>
</g>
<g transform="translate(115.56 662.37)">
<path d="m0 0-24.56 42.513 49.098 0.013z" fill="#3a6db3"/>
</g>
<g transform="translate(115.55 662.38)">
<path d="M 0,0 24.549,42.52 49.098,0 Z" fill="#22697d"/>
</g>
<g transform="translate(164.66 662.37)">
<path d="m0 0-24.56 42.513 49.098 0.013z" fill="#3a9ab1"/>
</g>
<g transform="translate(140.1 704.9)">
<path d="M 0,0 24.549,42.52 49.098,0 Z" fill="#3aa6ae"/>
</g>
<g transform="translate(189.21 704.9)">
<path d="m0 0-24.56 42.513 49.098 0.013z" fill="#3bacac"/>
</g>
<g transform="translate(164.65 747.43)">
<path d="M 0,0 24.549,42.52 49.099,0 Z" fill="#3daaa0"/>
</g>
<g transform="translate(213.76 747.42)">
<path d="m0 0-24.56 42.513 49.099 0.013z" fill="#3faa8d"/>
</g>
<g transform="translate(189.2 789.95)">
<path d="M 0,0 24.549,42.52 49.098,0 Z" fill="#40ab86"/>
</g>
<g transform="translate(189.31 704.95)">
<path d="m0 0-24.561 42.513 49.099 0.013z" fill="#2f6b54"/>
</g>
<g transform="translate(164.74 747.48)">
<path d="M 0,0 24.549,42.52 49.098,0 Z" fill="#44b496"/>
</g>
<g transform="translate(213.85 747.47)">
<path d="m0 0-24.559 42.513 49.098 0.013z" fill="#52b89b"/>
</g>
<g transform="translate(189.29 790)">
<path d="M 0,0 24.549,42.52 49.098,0 Z" fill="#5cba9d"/>
</g>
<g transform="translate(238.41 790)">
<path d="m0 0-24.561 42.513 49.098 0.013z" fill="#6fc0a6"/>
</g>
<g transform="translate(238.21 789.95)">
<path d="M 0,0 24.549,42.52 49.1,0 Z" fill="#88c9b2"/>
</g>
<g transform="translate(287.31 790)">
<path d="m0 0-24.543 42.522 49.098-6e-3z" fill="#99d0bb"/>
</g>
<g transform="translate(189.18 705.09)">
<path d="m0 0 24.786 42.383 24.312-42.656z" fill="#37a084"/>
</g>
<g transform="translate(213.67 662.43)">
<path d="M 0,0 24.549,42.52 49.1,0 Z" fill="#35896c"/>
</g>
<g transform="translate(262.78 662.43)">
<path d="m0 0-24.559 42.513 49.098 0.013z" fill="#379b7f"/>
</g>
<g transform="translate(262.76 662.44)">
<path d="M 0,0 24.549,42.52 49.098,0 Z" fill="#3bad91"/>
</g>
<g transform="translate(213.68 662.43)">
<path d="m0 0-24.56 42.513 49.097 0.013z" fill="#368f74"/>
</g>
<g transform="matrix(1 0 0 -1 35.039 604.05)" fill="#2b2b2a">
<path d="m21.96 0 13.98-40.44h-7.86l-5.88 18.48c-1.62 4.92-3.06 9.84-4.14 14.64h-0.12c-1.08-4.92-2.4-9.66-3.96-14.76l-5.52-18.36h-8.04l13.08 40.44z"/>
<path d="m64.38-12.54c0.12-0.66 0.24-1.74 0.24-3.12 0-6.42-3.12-14.22-12.6-14.22-9.36 0-14.28 7.62-14.28 15.72 0 8.94 5.58 14.76 15.06 14.76 4.2 0 7.68-0.78 10.2-1.8l-1.08-5.1c-2.22 0.84-4.68 1.32-8.1 1.32-4.68 0-8.82-2.28-9-7.56zm-19.56-5.16c0.3-3 2.22-7.14 6.78-7.14 4.92 0 6.12 4.44 6.06 7.14z"/>
<path d="m71.28 0h7.38v-15.12c0-0.84 0.12-1.62 0.24-2.28 0.66-3.3 3.06-5.58 6.6-5.58 0.9 0 1.56 0.12 2.16 0.24v-6.96c-0.6-0.12-1.02-0.18-1.74-0.18-3.12 0-6.54 2.1-7.98 6.24h-0.24l-0.24-5.58h-6.42c0.18 2.64 0.24 5.46 0.24 9.42z"/>
<path d="m116.52 0c-0.3-1.8-0.42-4.38-0.42-7.02v-10.56c0-6.36-2.7-12.3-12.06-12.3-4.62 0-8.4 1.26-10.56 2.58l1.44 4.8c1.98-1.26 4.98-2.16 7.86-2.16 5.16 0 5.94 3.18 5.94 5.1v0.48c-10.8-0.06-17.34 3.66-17.34 11.04 0 4.44 3.3 8.7 9.18 8.7 3.78 0 6.84-1.62 8.64-3.9h0.18l0.48 3.24zm-7.62-10.26c0 0.48-0.06 1.08-0.24 1.62-0.66 2.1-2.82 4.02-5.76 4.02-2.34 0-4.2-1.32-4.2-4.2 0-4.44 4.98-5.58 10.2-5.46z"/>
</g>
<g transform="matrix(1 0 0 -1 156.18 604.05)" fill="#2b2b2a">
<path d="m31.74-5.46c-2.1 1.02-5.34 1.68-8.52 1.68-9.84 0-15.54-6.36-15.54-16.26 0-10.62 6.3-16.68 15.78-16.68 3.36 0 6.18 0.72 8.16 1.68l1.26-4.26c-1.38-0.72-4.56-1.8-9.6-1.8-12.54 0-21.12 8.58-21.12 21.24 0 13.26 8.58 20.46 19.98 20.46 4.92 0 8.76-0.96 10.68-1.92z"/>
<path d="m39 0h5.22v-15.48c0-0.9 0.12-1.74 0.24-2.46 0.72-3.96 3.36-6.78 7.08-6.78 0.72 0 1.26 0.06 1.8 0.18v-4.98c-0.48-0.12-0.9-0.18-1.5-0.18-3.54 0-6.72 2.46-8.04 6.36h-0.24l-0.18-5.7h-4.62c0.18 2.7 0.24 5.64 0.24 9.06z"/>
<path d="m56.28-29.04 10.74 26.76c0.24 0.66 0.36 1.08 0.36 1.38s-0.18 0.72-0.42 1.26c-1.2 2.7-3 4.74-4.44 5.88-1.56 1.32-3.3 2.16-4.62 2.58l1.32 4.44c1.32-0.24 3.9-1.14 6.48-3.42 3.6-3.12 6.18-8.22 9.96-18.18l7.92-20.7h-5.58l-5.76 17.04c-0.72 2.1-1.32 4.32-1.86 6.06h-0.12c-0.48-1.74-1.2-4.02-1.86-5.94l-6.36-17.16z"/>
<path d="m88.38 11.88h5.22v-15.78h0.12c1.74 2.88 5.1 4.56 8.94 4.56 6.84 0 13.2-5.16 13.2-15.6 0-8.82-5.28-14.76-12.3-14.76-4.74 0-8.16 2.1-10.32 5.64h-0.12l-0.24-4.98h-4.74c0.12 2.76 0.24 5.76 0.24 9.48zm5.22-28.68c0-0.72 0.18-1.5 0.36-2.16 1.02-3.96 4.38-6.54 7.98-6.54 5.58 0 8.64 4.98 8.64 10.8 0 6.66-3.24 11.22-8.82 11.22-3.78 0-6.96-2.52-7.92-6.18-0.12-0.66-0.24-1.38-0.24-2.16z"/>
<path d="m123.72-36v6.96h-4.5v4.02h4.5v15.84c0 3.42 0.54 6 2.04 7.56 1.26 1.44 3.24 2.22 5.7 2.22 2.04 0 3.66-0.3 4.68-0.72l-0.24-3.96c-0.66 0.18-1.68 0.36-3.06 0.36-2.94 0-3.96-2.04-3.96-5.64v-15.66h7.56v-4.02h-7.56v-8.34z"/>
</g>
</g>
<style><![CDATA[.B{clip-path:url(#C)}.C{fill:#3e2723}.D{fill-opacity:.15}.E{fill-opacity:.2}]]></style>
<style><![CDATA[.B{clip-path:url(#C)}.C{fill:#3e2723}.D{fill-opacity:.15}.E{fill-opacity:.2}]]></style>
<style><![CDATA[.B{clip-path:url(#C)}.C{fill:#3e2723}.D{fill-opacity:.15}.E{fill-opacity:.2}]]></style>
<style><![CDATA[.B{clip-path:url(#C)}.C{fill:#3e2723}.D{fill-opacity:.15}.E{fill-opacity:.2}]]></style>
<style><![CDATA[.B{clip-path:url(#C)}.C{fill:#3e2723}.D{fill-opacity:.15}.E{fill-opacity:.2}]]></style>
<style><![CDATA[.B{clip-path:url(#C)}.C{fill:#3e2723}.D{fill-opacity:.15}.E{fill-opacity:.2}]]></style>
<style><![CDATA[.B{clip-path:url(#C)}.C{fill:#3e2723}.D{fill-opacity:.15}.E{fill-opacity:.2}]]></style>
<style><![CDATA[.B{clip-path:url(#C)}.C{fill:#3e2723}.D{fill-opacity:.15}.E{fill-opacity:.2}]]></style>
</svg>
