<svg width="128" height="128" version="1.1" viewBox="0 0 128 128" xmlns="http://www.w3.org/2000/svg" xmlns:xlink="http://www.w3.org/1999/xlink">
<defs>
<linearGradient id="linearGradient825" x1="-741.83" x2="-741.83" y1="959.05" y2="93.836" gradientTransform="matrix(.13668 0 0 .13668 162.31 -5.9893)" gradientUnits="userSpaceOnUse">
<stop stop-color="#ccd4da" offset="0"/>
<stop stop-color="#fff" offset="1"/>
</linearGradient>
<linearGradient id="linearGradient835" x1="-738.76" x2="-738.76" y1="931.43" y2="152.13" gradientTransform="matrix(.13668 0 0 .13668 161.84 -5.9893)" gradientUnits="userSpaceOnUse">
<stop stop-color="#dfe3e8" offset="0"/>
<stop stop-color="#fefeff" offset="1"/>
</linearGradient>
<linearGradient id="linearGradient875" x1="196.37" x2="258.19" y1="93.364" y2="40.792" gradientTransform="translate(-400.62 -33.709)" gradientUnits="userSpaceOnUse">
<stop stop-color="#229b55" offset="0"/>
<stop stop-color="#2fae62" offset="1"/>
</linearGradient>
<linearGradient id="linearGradient887" x1="295.79" x2="295.79" y1="101.41" y2="40.834" gradientTransform="translate(-433.06 -27.06)" gradientUnits="userSpaceOnUse">
<stop stop-color="#2dac60" offset="0"/>
<stop stop-color="#198c4c" offset=".82909"/>
<stop stop-color="#137740" offset="1"/>
</linearGradient>
<linearGradient id="linearGradient899" x1="255.21" x2="310.3" y1="45.922" y2="97.739" gradientTransform="translate(-459.29 -27.06)" gradientUnits="userSpaceOnUse">
<stop stop-color="#2dac60" offset="0"/>
<stop stop-color="#259f58" offset=".24247"/>
<stop stop-color="#18894a" offset=".33408"/>
<stop stop-color="#217fe6" offset=".41865"/>
<stop stop-color="#127840" offset=".47944"/>
<stop stop-color="#1e9451" offset=".59785"/>
<stop stop-color="#1e9351" offset=".70013"/>
<stop stop-color="#1a8e4d" offset=".87553"/>
<stop stop-color="#12753f" offset="1"/>
</linearGradient>
</defs>
<circle cx="63.592" cy="64.286" r="61.38" fill="url(#linearGradient825)"/>
<circle cx="63.12" cy="64.286" r="55.09" fill="url(#linearGradient835)"/>
<g transform="translate(117.05 25.019)" fill="none" opacity=".38685" stroke="#229b55" stroke-linecap="round" stroke-linejoin="round" stroke-opacity=".03">
<path d="m-32.823-1.329-62.053 60.926 8.4609 2.6211 20.047-15.072 33.514 32.719 19.939-8.459-0.0371-64.422zm-53.91 17.715-8.2129 2.7774 20.699 20.29 7.957-7.8125zm53.764 5.6484 0.0684 34.404-23.035-17.137z" stroke-width="1px"/>
<path d="m-32.823-1.329-62.053 60.926 8.4609 2.6211 20.047-15.072 33.514 32.719 19.939-8.459-0.0371-64.422zm-53.91 17.715-8.2129 2.7774 20.699 20.29 7.957-7.8125zm53.764 5.6484 0.0684 34.404-23.035-17.137z" stroke-width="1.2"/>
<path d="m-32.823-1.329-62.053 60.926 8.4609 2.6211 20.047-15.072 33.514 32.719 19.939-8.459-0.0371-64.422zm-53.91 17.715-8.2129 2.7774 20.699 20.29 7.957-7.8125zm53.764 5.6484 0.0684 34.404-23.035-17.137z" stroke-width="1.4"/>
<path d="m-32.823-1.329-62.053 60.926 8.4609 2.6211 20.047-15.072 33.514 32.719 19.939-8.459-0.0371-64.422zm-53.91 17.715-8.2129 2.7774 20.699 20.29 7.957-7.8125zm53.764 5.6484 0.0684 34.404-23.035-17.137z" stroke-width="1.6"/>
<path d="m-32.823-1.329-62.053 60.926 8.4609 2.6211 20.047-15.072 33.514 32.719 19.939-8.459-0.0371-64.422zm-53.91 17.715-8.2129 2.7774 20.699 20.29 7.957-7.8125zm53.764 5.6484 0.0684 34.404-23.035-17.137z" stroke-width="1.8"/>
<path d="m-32.823-1.329-62.053 60.926 8.4609 2.6211 20.047-15.072 33.514 32.719 19.939-8.459-0.0371-64.422zm-53.91 17.715-8.2129 2.7774 20.699 20.29 7.957-7.8125zm53.764 5.6484 0.0684 34.404-23.035-17.137z" stroke-width="2"/>
<path d="m-32.823-1.329-62.053 60.926 8.4609 2.6211 20.047-15.072 33.514 32.719 19.939-8.459-0.0371-64.422zm-53.91 17.715-8.2129 2.7774 20.699 20.29 7.957-7.8125zm53.764 5.6484 0.0684 34.404-23.035-17.137z" stroke-width="2.5"/>
<path d="m-32.823-1.329-62.053 60.926 8.4609 2.6211 20.047-15.072 33.514 32.719 19.939-8.459-0.0371-64.422zm-53.91 17.715-8.2129 2.7774 20.699 20.29 7.957-7.8125zm53.764 5.6484 0.0684 34.404-23.035-17.137z" stroke-width="3"/>
<path d="m-32.823-1.329-62.053 60.926 8.4609 2.6211 20.047-15.072 33.514 32.719 19.939-8.459-0.0371-64.422zm-53.91 17.715-8.2129 2.7774 20.699 20.29 7.957-7.8125zm53.764 5.6484 0.0684 34.404-23.035-17.137z" stroke-width="3.5"/>
<path d="m-32.823-1.329-62.053 60.926 8.4609 2.6211 20.047-15.072 33.514 32.719 19.939-8.459-0.0371-64.422zm-53.91 17.715-8.2129 2.7774 20.699 20.29 7.957-7.8125zm53.764 5.6484 0.0684 34.404-23.035-17.137z" stroke-width="4"/>
<path d="m-32.823-1.329-62.053 60.926 8.4609 2.6211 20.047-15.072 33.514 32.719 19.939-8.459-0.0371-64.422zm-53.91 17.715-8.2129 2.7774 20.699 20.29 7.957-7.8125zm53.764 5.6484 0.0684 34.404-23.035-17.137z" stroke-width="4.5"/>
<path d="m-32.823-1.329-62.053 60.926 8.4609 2.6211 20.047-15.072 33.514 32.719 19.939-8.459-0.0371-64.422zm-53.91 17.715-8.2129 2.7774 20.699 20.29 7.957-7.8125zm53.764 5.6484 0.0684 34.404-23.035-17.137z" stroke-width="5"/>
<path d="m-32.823-1.329-62.053 60.926 8.4609 2.6211 20.047-15.072 33.514 32.719 19.939-8.459-0.0371-64.422zm-53.91 17.715-8.2129 2.7774 20.699 20.29 7.957-7.8125zm53.764 5.6484 0.0684 34.404-23.035-17.137z" stroke-width="5.5"/>
<path d="m-32.823-1.329-62.053 60.926 8.4609 2.6211 20.047-15.072 33.514 32.719 19.939-8.459-0.0371-64.422zm-53.91 17.715-8.2129 2.7774 20.699 20.29 7.957-7.8125zm53.764 5.6484 0.0684 34.404-23.035-17.137z" stroke-width="5.5"/>
<path d="m-32.823-1.329-62.053 60.926 8.4609 2.6211 20.047-15.072 33.514 32.719 19.939-8.459-0.0371-64.422zm-53.91 17.715-8.2129 2.7774 20.699 20.29 7.957-7.8125zm53.764 5.6484 0.0684 34.404-23.035-17.137z" stroke-width="6"/>
<path d="m-32.823-1.329-62.053 60.926 8.4609 2.6211 20.047-15.072 33.514 32.719 19.939-8.459-0.0371-64.422zm-53.91 17.715-8.2129 2.7774 20.699 20.29 7.957-7.8125zm53.764 5.6484 0.0684 34.404-23.035-17.137z" stroke-width="6.5"/>
<path d="m-32.823-1.329-62.053 60.926 8.4609 2.6211 20.047-15.072 33.514 32.719 19.939-8.459-0.0371-64.422zm-53.91 17.715-8.2129 2.7774 20.699 20.29 7.957-7.8125zm53.764 5.6484 0.0684 34.404-23.035-17.137z" stroke-width="7"/>
<path d="m-32.823-1.329-62.053 60.926 8.4609 2.6211 20.047-15.072 33.514 32.719 19.939-8.459-0.0371-64.422zm-53.91 17.715-8.2129 2.7774 20.699 20.29 7.957-7.8125zm53.764 5.6484 0.0684 34.404-23.035-17.137z" stroke-width="8"/>
<path d="m-32.823-1.329-62.053 60.926 8.4609 2.6211 20.047-15.072 33.514 32.719 19.939-8.459-0.0371-64.422zm-53.91 17.715-8.2129 2.7774 20.699 20.29 7.957-7.8125zm53.764 5.6484 0.0684 34.404-23.035-17.137z" stroke-width="9"/>
<path d="m-32.823-1.329-62.053 60.926 8.4609 2.6211 20.047-15.072 33.514 32.719 19.939-8.459-0.0371-64.422zm-53.91 17.715-8.2129 2.7774 20.699 20.29 7.957-7.8125zm53.764 5.6484 0.0684 34.404-23.035-17.137z" stroke-width="10"/>
<path d="m-32.823-1.329-62.053 60.926 8.4609 2.6211 20.047-15.072 33.514 32.719 19.939-8.459-0.0371-64.422zm-53.91 17.715-8.2129 2.7774 20.699 20.29 7.957-7.8125zm53.764 5.6484 0.0684 34.404-23.035-17.137z" stroke-width="11"/>
<path d="m-32.823-1.329-62.053 60.926 8.4609 2.6211 20.047-15.072 33.514 32.719 19.939-8.459-0.0371-64.422zm-53.91 17.715-8.2129 2.7774 20.699 20.29 7.957-7.8125zm53.764 5.6484 0.0684 34.404-23.035-17.137z" stroke-width="12"/>
<path d="m-32.823-1.329-62.053 60.926 8.4609 2.6211 20.047-15.072 33.514 32.719 19.939-8.459-0.0371-64.422zm-53.91 17.715-8.2129 2.7774 20.699 20.29 7.957-7.8125zm53.764 5.6484 0.0684 34.404-23.035-17.137z" stroke-width="13"/>
<path d="m-32.823-1.329-62.053 60.926 8.4609 2.6211 20.047-15.072 33.514 32.719 19.939-8.459-0.0371-64.422zm-53.91 17.715-8.2129 2.7774 20.699 20.29 7.957-7.8125zm53.764 5.6484 0.0684 34.404-23.035-17.137z" stroke-width="15"/>
<path d="m-32.823-1.329-62.053 60.926 8.4609 2.6211 20.047-15.072 33.514 32.719 19.939-8.459-0.0371-64.422zm-53.91 17.715-8.2129 2.7774 20.699 20.29 7.957-7.8125zm53.764 5.6484 0.0684 34.404-23.035-17.137z" stroke-width="17"/>
<path d="m-32.823-1.329-62.053 60.926 8.4609 2.6211 20.047-15.072 33.514 32.719 19.939-8.459-0.0371-64.422zm-53.91 17.715-8.2129 2.7774 20.699 20.29 7.957-7.8125zm53.764 5.6484 0.0684 34.404-23.035-17.137z" stroke-width="19"/>
<path d="m-32.823-1.329-62.053 60.926 8.4609 2.6211 20.047-15.072 33.514 32.719 19.939-8.459-0.0371-64.422zm-53.91 17.715-8.2129 2.7774 20.699 20.29 7.957-7.8125zm53.764 5.6484 0.0684 34.404-23.035-17.137z" stroke-width="21"/>
</g>
<path d="m84.227 23.69-62.053 60.926 8.4609 2.6211 20.047-15.072 33.514 32.719 19.939-8.459-0.0371-64.422zm-53.91 17.715-8.2129 2.7774 20.699 20.29 7.957-7.8125zm53.764 5.6484 0.0684 34.404-23.035-17.137z" fill="#259e58"/>
<path d="m84.601 23.868-62.053 60.926 8.4609 2.6211 20.047-15.072 33.514 32.719 19.939-8.459-0.0371-64.422zm-53.91 17.715-8.2129 2.7774 20.699 20.29 7.957-7.8125zm53.764 5.6484 0.0684 34.404-23.035-17.137z" fill="#32a168" opacity=".20055"/>
<g transform="translate(232.2 25.019)">
<path d="m-210.02 59.594 8.4609 2.6222 73.462-55.236-19.87-8.3113z" fill="url(#linearGradient875)"/>
<path d="m-128.1 6.9807-20.018 15.022 0.116 57.86 19.94-8.4592z" fill="url(#linearGradient887)"/>
<path d="m-201.88 16.383-8.2129 2.7773 20.604 20.176 7.957-7.8125zm30.748 22.879-10.426 7.8398 33.557 32.761-0.0427-23.424z" fill="url(#linearGradient899)"/>
</g>
</svg>
