<svg width="128" height="128" version="1.1" viewBox="0 0 128 128" xmlns="http://www.w3.org/2000/svg" xmlns:xlink="http://www.w3.org/1999/xlink">
<defs>
<radialGradient id="radialGradient829" cx="-466.44" cy="527.19" r="496.81" gradientTransform="matrix(.12131 0 0 .12162 121.06 .34911)" gradientUnits="userSpaceOnUse">
<stop offset="0"/>
<stop stop-color="#202020" offset=".95644"/>
<stop stop-color="#212121" stop-opacity=".57647" offset=".97679"/>
<stop stop-color="#242424" stop-opacity="0" offset="1"/>
</radialGradient>
<linearGradient id="linearGradient845" x1="-513.95" x2="-519.39" y1="92.874" y2="915.13" gradientTransform="matrix(.12681 0 0 .12681 134.09 3.662)" gradientUnits="userSpaceOnUse">
<stop stop-color="#da5c44" offset="0"/>
<stop stop-color="#bd261c" offset="1"/>
</linearGradient>
</defs>
<path d="m137.94 64.464a73.458 69.056 0 0 1-73.42 69.056 73.458 69.056 0 0 1-73.495-68.984 73.458 69.056 0 0 1 73.344-69.127 73.458 69.056 0 0 1 73.571 68.913l-73.457 0.14236z" fill="url(#radialGradient829)" opacity=".275" style="paint-order:fill markers stroke"/>
<circle cx="64.482" cy="64.464" r="58.601" fill="url(#linearGradient845)" style="paint-order:fill markers stroke"/>
<g transform="translate(71.314 .005331)" fill="none" opacity=".35" stroke="#000" stroke-opacity=".038168">
<path d="m-40.217 46.864 27.885 49.267s1.5093 2.6373 5.3094 2.6373c3.7974 0 5.3094-2.6373 5.3094-2.6373s19.381-29.686 27.288-45.52c0.79468-1.5893 1.6507-3.1973 2.0107-4.9414 0.24535-1.184 0.36267-2.4533 0.0801-3.6294-0.34401-1.4347-1.008-2.9013-2.0907-3.9014-1.2507-1.1547-2.9867-1.864-4.6774-2.04-1.8187-0.19201-3.7573 0.24535-5.3867 1.096-1.144 0.60267-2.16 1.5653-2.8 2.6934-0.63467 1.1173-0.79734 2.472-0.86934 3.7547-0.048 0.88268 0.12532 1.7707 0.30666 2.6347 0.06133 0.296 0.16266 0.584 0.264 0.86667 0.25867 0.72267 0.61067 1.408 0.87467 2.128 0.21868 0.59201 0.52267 1.1733 0.592 1.8027 0.112 1.0133 0.08533 2.096-0.288 3.0427-1.8213 4.608-4.952 9.0401-9.0907 11.747-1.7147 1.12-3.9094 1.4-5.9547 1.488-2.3334 0.09868-5.0214-0.08533-6.9147-1.1147-1.8934-1.0293-2.784-2.816-3.9707-4.392-5.4454-7.2267-14.347-23.056-14.347-23.056s-3.8694-6.84-10.832-2.6934c-6.96 4.1494-2.7067 10.773-2.7067 10.773z" stroke-width="2.572"/>
<path d="m-40.217 46.864 27.885 49.267s1.5093 2.6373 5.3094 2.6373c3.7974 0 5.3094-2.6373 5.3094-2.6373s19.381-29.686 27.288-45.52c0.79468-1.5893 1.6507-3.1973 2.0107-4.9414 0.24535-1.184 0.36267-2.4533 0.0801-3.6294-0.34401-1.4347-1.008-2.9013-2.0907-3.9014-1.2507-1.1547-2.9867-1.864-4.6774-2.04-1.8187-0.19201-3.7573 0.24535-5.3867 1.096-1.144 0.60267-2.16 1.5653-2.8 2.6934-0.63467 1.1173-0.79734 2.472-0.86934 3.7547-0.048 0.88268 0.12532 1.7707 0.30666 2.6347 0.06133 0.296 0.16266 0.584 0.264 0.86667 0.25867 0.72267 0.61067 1.408 0.87467 2.128 0.21868 0.59201 0.52267 1.1733 0.592 1.8027 0.112 1.0133 0.08533 2.096-0.288 3.0427-1.8213 4.608-4.952 9.0401-9.0907 11.747-1.7147 1.12-3.9094 1.4-5.9547 1.488-2.3334 0.09868-5.0214-0.08533-6.9147-1.1147-1.8934-1.0293-2.784-2.816-3.9707-4.392-5.4454-7.2267-14.347-23.056-14.347-23.056s-3.8694-6.84-10.832-2.6934c-6.96 4.1494-2.7067 10.773-2.7067 10.773z" stroke-width="2"/>
<path d="m-40.217 46.864 27.885 49.267s1.5093 2.6373 5.3094 2.6373c3.7974 0 5.3094-2.6373 5.3094-2.6373s19.381-29.686 27.288-45.52c0.79468-1.5893 1.6507-3.1973 2.0107-4.9414 0.24535-1.184 0.36267-2.4533 0.0801-3.6294-0.34401-1.4347-1.008-2.9013-2.0907-3.9014-1.2507-1.1547-2.9867-1.864-4.6774-2.04-1.8187-0.19201-3.7573 0.24535-5.3867 1.096-1.144 0.60267-2.16 1.5653-2.8 2.6934-0.63467 1.1173-0.79734 2.472-0.86934 3.7547-0.048 0.88268 0.12532 1.7707 0.30666 2.6347 0.06133 0.296 0.16266 0.584 0.264 0.86667 0.25867 0.72267 0.61067 1.408 0.87467 2.128 0.21868 0.59201 0.52267 1.1733 0.592 1.8027 0.112 1.0133 0.08533 2.096-0.288 3.0427-1.8213 4.608-4.952 9.0401-9.0907 11.747-1.7147 1.12-3.9094 1.4-5.9547 1.488-2.3334 0.09868-5.0214-0.08533-6.9147-1.1147-1.8934-1.0293-2.784-2.816-3.9707-4.392-5.4454-7.2267-14.347-23.056-14.347-23.056s-3.8694-6.84-10.832-2.6934c-6.96 4.1494-2.7067 10.773-2.7067 10.773z" stroke-width="3"/>
<path d="m-40.217 46.864 27.885 49.267s1.5093 2.6373 5.3094 2.6373c3.7974 0 5.3094-2.6373 5.3094-2.6373s19.381-29.686 27.288-45.52c0.79468-1.5893 1.6507-3.1973 2.0107-4.9414 0.24535-1.184 0.36267-2.4533 0.0801-3.6294-0.34401-1.4347-1.008-2.9013-2.0907-3.9014-1.2507-1.1547-2.9867-1.864-4.6774-2.04-1.8187-0.19201-3.7573 0.24535-5.3867 1.096-1.144 0.60267-2.16 1.5653-2.8 2.6934-0.63467 1.1173-0.79734 2.472-0.86934 3.7547-0.048 0.88268 0.12532 1.7707 0.30666 2.6347 0.06133 0.296 0.16266 0.584 0.264 0.86667 0.25867 0.72267 0.61067 1.408 0.87467 2.128 0.21868 0.59201 0.52267 1.1733 0.592 1.8027 0.112 1.0133 0.08533 2.096-0.288 3.0427-1.8213 4.608-4.952 9.0401-9.0907 11.747-1.7147 1.12-3.9094 1.4-5.9547 1.488-2.3334 0.09868-5.0214-0.08533-6.9147-1.1147-1.8934-1.0293-2.784-2.816-3.9707-4.392-5.4454-7.2267-14.347-23.056-14.347-23.056s-3.8694-6.84-10.832-2.6934c-6.96 4.1494-2.7067 10.773-2.7067 10.773z" stroke-width="4"/>
<path d="m-40.217 46.864 27.885 49.267s1.5093 2.6373 5.3094 2.6373c3.7974 0 5.3094-2.6373 5.3094-2.6373s19.381-29.686 27.288-45.52c0.79468-1.5893 1.6507-3.1973 2.0107-4.9414 0.24535-1.184 0.36267-2.4533 0.0801-3.6294-0.34401-1.4347-1.008-2.9013-2.0907-3.9014-1.2507-1.1547-2.9867-1.864-4.6774-2.04-1.8187-0.19201-3.7573 0.24535-5.3867 1.096-1.144 0.60267-2.16 1.5653-2.8 2.6934-0.63467 1.1173-0.79734 2.472-0.86934 3.7547-0.048 0.88268 0.12532 1.7707 0.30666 2.6347 0.06133 0.296 0.16266 0.584 0.264 0.86667 0.25867 0.72267 0.61067 1.408 0.87467 2.128 0.21868 0.59201 0.52267 1.1733 0.592 1.8027 0.112 1.0133 0.08533 2.096-0.288 3.0427-1.8213 4.608-4.952 9.0401-9.0907 11.747-1.7147 1.12-3.9094 1.4-5.9547 1.488-2.3334 0.09868-5.0214-0.08533-6.9147-1.1147-1.8934-1.0293-2.784-2.816-3.9707-4.392-5.4454-7.2267-14.347-23.056-14.347-23.056s-3.8694-6.84-10.832-2.6934c-6.96 4.1494-2.7067 10.773-2.7067 10.773z" stroke-width="5"/>
</g>
<path d="m31.105 46.864 27.885 49.267s1.5093 2.6373 5.3094 2.6373c3.7974 0 5.3094-2.6373 5.3094-2.6373s19.381-29.686 27.288-45.52c0.79468-1.5893 1.6507-3.1973 2.0107-4.9414 0.24535-1.184 0.36267-2.4533 0.0801-3.6294-0.34401-1.4347-1.008-2.9013-2.0907-3.9014-1.2507-1.1547-2.9867-1.864-4.6774-2.04-1.8187-0.19201-3.7573 0.24535-5.3867 1.096-1.144 0.60267-2.16 1.5653-2.8 2.6934-0.63467 1.1173-0.79734 2.472-0.86934 3.7547-0.048 0.88268 0.12532 1.7707 0.30666 2.6347 0.06133 0.296 0.16266 0.584 0.264 0.86667 0.25867 0.72267 0.61067 1.408 0.87467 2.128 0.21868 0.59201 0.52267 1.1733 0.592 1.8027 0.112 1.0133 0.08533 2.096-0.288 3.0427-1.8213 4.608-4.952 9.0401-9.0907 11.747-1.7147 1.12-3.9094 1.4-5.9547 1.488-2.3334 0.09868-5.0214-0.08533-6.9147-1.1147-1.8934-1.0293-2.784-2.816-3.9707-4.392-5.4454-7.2267-14.347-23.056-14.347-23.056s-3.8694-6.84-10.832-2.6934c-6.96 4.1494-2.7067 10.773-2.7067 10.773z" fill="#f9f9f9" fill-rule="evenodd" stroke-width="2.5718"/>
</svg>
