<svg width="128" height="128" version="1.1" viewBox="0 0 33.867 33.867" xmlns="http://www.w3.org/2000/svg" xmlns:xlink="http://www.w3.org/1999/xlink">
<defs>
<linearGradient id="linearGradient1632" x1="132.21" x2="132.21" y1="42.152" y2="70.68" gradientTransform="matrix(.97573 0 0 .97573 -111.78 -37.203)" gradientUnits="userSpaceOnUse">
<stop stop-color="#292929" offset="0"/>
<stop stop-color="#080808" offset="1"/>
</linearGradient>
</defs>
<g transform="matrix(.97573 0 0 .97573 -65.748 -37.203)" fill="none" opacity=".29677" stroke="#000" stroke-linecap="round" stroke-linejoin="round" stroke-opacity=".02">
<rect x="69.84" y="40.71" width="29.811" height="29.811" rx="6.6099" ry="6.6099" stroke-width=".1"/>
<rect x="69.84" y="40.71" width="29.811" height="29.811" rx="6.6099" ry="6.6099" stroke-width=".2"/>
<rect x="69.84" y="40.71" width="29.811" height="29.811" rx="6.6099" ry="6.6099" stroke-width=".3"/>
<rect x="69.84" y="40.71" width="29.811" height="29.811" rx="6.6099" ry="6.6099" stroke-width=".4"/>
<rect x="69.84" y="40.71" width="29.811" height="29.811" rx="6.6099" ry="6.6099" stroke-width=".5"/>
<rect x="69.84" y="40.71" width="29.811" height="29.811" rx="6.6099" ry="6.6099" stroke-width=".6"/>
<rect x="69.84" y="40.71" width="29.811" height="29.811" rx="6.6099" ry="6.6099" stroke-width=".7"/>
<rect x="69.84" y="40.71" width="29.811" height="29.811" rx="6.6099" ry="6.6099" stroke-width=".8"/>
<rect x="69.84" y="40.71" width="29.811" height="29.811" rx="6.6099" ry="6.6099"/>
<rect x="69.84" y="40.71" width="29.811" height="29.811" rx="6.6099" ry="6.6099" stroke-width="1.2"/>
<rect x="69.84" y="40.71" width="29.811" height="29.811" rx="6.6099" ry="6.6099" stroke-width="1.4"/>
<rect x="69.84" y="40.71" width="29.811" height="29.811" rx="6.6099" ry="6.6099" stroke-width="1.6"/>
<rect x="69.84" y="40.71" width="29.811" height="29.811" rx="6.6099" ry="6.6099" stroke-width="1.8"/>
<rect x="69.84" y="40.71" width="29.811" height="29.811" rx="6.6099" ry="6.6099" stroke-width="2"/>
<rect x="69.84" y="40.71" width="29.811" height="29.811" rx="6.6099" ry="6.6099" stroke-width="2.2"/>
<rect x="69.84" y="40.71" width="29.811" height="29.811" rx="6.6099" ry="6.6099" stroke-width="2.6"/>
<rect x="69.84" y="40.71" width="29.811" height="29.811" rx="6.6099" ry="6.6099" stroke-width="3"/>
<rect x="69.84" y="40.71" width="29.811" height="29.811" rx="6.6099" ry="6.6099" stroke-width="3.4"/>
<rect x="69.84" y="40.71" width="29.811" height="29.811" rx="6.6099" ry="6.6099" stroke-width="3.8"/>
<rect x="69.84" y="40.71" width="29.811" height="29.811" rx="6.6099" ry="6.6099" stroke-width="4.2"/>
<rect x="69.84" y="40.71" width="29.811" height="29.811" rx="6.6099" ry="6.6099" stroke-width="4.6"/>
<rect x="69.84" y="40.71" width="29.811" height="29.811" rx="6.6099" ry="6.6099" stroke-width="5"/>
</g>
<rect x="2.3963" y="2.5186" width="29.087" height="29.087" rx="6.4495" ry="6.4495" fill="url(#linearGradient1632)" stroke-linecap="round" stroke-linejoin="round" stroke-width="2.6877"/>
<path d="m16.987 6.5747a2.028 2.0172 0 0 0-1.0617 0.26913l-7.3754 4.2355a2.028 2.0172 0 0 0-1.0137 1.7469v8.4717a2.028 2.0172 0 0 0 1.0137 1.7462l7.3754 4.2362a2.028 2.0172 0 0 0 2.028 0l7.3761-4.2362a2.028 2.0172 0 0 0 1.0137-1.7462v-8.4717a2.028 2.0172 0 0 0-1.0137-1.7469l-7.3761-4.2355a2.028 2.0172 0 0 0-0.96634-0.26913zm-0.04733 4.3393a6.1482 6.1482 0 0 1 6.1484 6.1477 6.1482 6.1482 0 0 1-1.1429 3.5567l-1.4778-1.4778a4.0988 4.0988 0 0 0 0.57147-2.0789 4.0988 4.0988 0 0 0-4.0992-4.0985 4.0988 4.0988 0 0 0-2.0782 0.57147l-1.4806-1.4799a6.1482 6.1482 0 0 1 3.5588-1.1408zm-5.0055 2.5917 1.4778 1.4778a4.0988 4.0988 0 0 0-0.57147 2.0782 4.0988 4.0988 0 0 0 4.0992 4.0992 4.0988 4.0988 0 0 0 2.0782-0.57147l1.4806 1.4799a6.1482 6.1482 0 0 1-3.5588 1.1408 6.1482 6.1482 0 0 1-6.1484-6.1484 6.1482 6.1482 0 0 1 1.1429-3.556zm5.0055 1.3859a2.17 2.17 0 0 1 2.17 2.17 2.17 2.17 0 0 1-2.17 2.17 2.17 2.17 0 0 1-2.17-2.17 2.17 2.17 0 0 1 2.17-2.17z" fill="#fff" stroke-width=".36167"/>
</svg>
