<svg width="128" height="128" version="1.1" viewBox="0 0 33.867 33.867" xmlns="http://www.w3.org/2000/svg" xmlns:xlink="http://www.w3.org/1999/xlink">
<defs>
<radialGradient id="radialGradient908" cx="16.937" cy="3.2428" r="14.544" gradientTransform="matrix(4.4792 0 0 2.0392 -58.927 -3.3698)" gradientUnits="userSpaceOnUse">
<stop stop-color="#ffe447" offset="0"/>
<stop stop-color="#ffb702" offset="1"/>
</radialGradient>
</defs>
<g transform="matrix(.97573 0 0 .97573 -65.587 -37.192)" fill="none" opacity=".29676" stroke="#000" stroke-linecap="round" stroke-linejoin="round" stroke-opacity=".02">
<rect x="69.84" y="40.71" width="29.811" height="29.811" rx="6.6099" ry="6.6099" stroke-width=".1"/>
<rect x="69.84" y="40.71" width="29.811" height="29.811" rx="6.6099" ry="6.6099" stroke-width=".2"/>
<rect x="69.84" y="40.71" width="29.811" height="29.811" rx="6.6099" ry="6.6099" stroke-width=".3"/>
<rect x="69.84" y="40.71" width="29.811" height="29.811" rx="6.6099" ry="6.6099" stroke-width=".4"/>
<rect x="69.84" y="40.71" width="29.811" height="29.811" rx="6.6099" ry="6.6099" stroke-width=".5"/>
<rect x="69.84" y="40.71" width="29.811" height="29.811" rx="6.6099" ry="6.6099" stroke-width=".6"/>
<rect x="69.84" y="40.71" width="29.811" height="29.811" rx="6.6099" ry="6.6099" stroke-width=".7"/>
<rect x="69.84" y="40.71" width="29.811" height="29.811" rx="6.6099" ry="6.6099" stroke-width=".8"/>
<rect x="69.84" y="40.71" width="29.811" height="29.811" rx="6.6099" ry="6.6099"/>
<rect x="69.84" y="40.71" width="29.811" height="29.811" rx="6.6099" ry="6.6099" stroke-width="1.2"/>
<rect x="69.84" y="40.71" width="29.811" height="29.811" rx="6.6099" ry="6.6099" stroke-width="1.4"/>
<rect x="69.84" y="40.71" width="29.811" height="29.811" rx="6.6099" ry="6.6099" stroke-width="1.6"/>
<rect x="69.84" y="40.71" width="29.811" height="29.811" rx="6.6099" ry="6.6099" stroke-width="1.8"/>
<rect x="69.84" y="40.71" width="29.811" height="29.811" rx="6.6099" ry="6.6099" stroke-width="2"/>
<rect x="69.84" y="40.71" width="29.811" height="29.811" rx="6.6099" ry="6.6099" stroke-width="2.2"/>
<rect x="69.84" y="40.71" width="29.811" height="29.811" rx="6.6099" ry="6.6099" stroke-width="2.6"/>
<rect x="69.84" y="40.71" width="29.811" height="29.811" rx="6.6099" ry="6.6099" stroke-width="3"/>
<rect x="69.84" y="40.71" width="29.811" height="29.811" rx="6.6099" ry="6.6099" stroke-width="3.4"/>
<rect x="69.84" y="40.71" width="29.811" height="29.811" rx="6.6099" ry="6.6099" stroke-width="3.8"/>
<rect x="69.84" y="40.71" width="29.811" height="29.811" rx="6.6099" ry="6.6099" stroke-width="4.2"/>
<rect x="69.84" y="40.71" width="29.811" height="29.811" rx="6.6099" ry="6.6099" stroke-width="4.6"/>
<rect x="69.84" y="40.71" width="29.811" height="29.811" rx="6.6099" ry="6.6099" stroke-width="5"/>
</g>
<rect x="2.5579" y="2.5293" width="29.087" height="29.087" rx="6.4495" ry="6.4495" fill="url(#radialGradient908)" stroke-linecap="round" stroke-linejoin="round" stroke-width="2.6877"/>
<path d="m4.2457 17.683c-0.080561 0.21378-0.068262 0.50036 0.039791 0.68833 1.0122 1.7572 4.9067 8.5444 5.9185 10.302 0.12534 0.21814 0.43446 0.39394 0.68936 0.39274 2.0947-0.00783 10.298-0.047411 12.393-0.055811 0.25491-6.05e-4 0.56513-0.17691 0.6935-0.39326 1.0311-1.7392 4.9985-8.4209 6.0296-10.161 0.1116-0.18886 0.12632-0.48029 0.044442-0.69608-0.012544 0.033104-0.027353 0.064613-0.044442 0.093534-1.0311 1.7398-4.9985 8.4215-6.0296 10.161-0.12837 0.21635-0.43859 0.39266-0.6935 0.39326-2.0947 0.0084-10.298 0.047971-12.393 0.055811-0.2549 0.0012-0.56402-0.1746-0.68936-0.39274-1.0118-1.7578-4.9063-8.545-5.9185-10.302-0.015302-0.026618-0.028281-0.055687-0.039791-0.085783z" opacity=".2" stroke-width=".60262"/>
<path d="m4.291 16.984c1.0515-1.7675 5.157-8.6585 6.208-10.426 0.12837-0.21603 0.4387-0.39104 0.69421-0.3905 2.0591 0.00433 10.003 0.024054 12.063 0.02783 0.25491 4.826e-4 0.56465 0.17651 0.6912 0.39381 1.0305 1.7751 5.0343 8.7056 6.0647 10.48 0.12595 0.21753 0.12533 0.56887-0.0025 0.78521-1.0311 1.7398-4.9987 8.4216-6.0298 10.161-0.12837 0.21635-0.4387 0.3923-0.69361 0.39291-2.0947 0.0084-10.298 0.04822-12.392 0.05606-0.2549 0.0012-0.56405-0.17476-0.68939-0.39291-1.0118-1.7578-4.9063-8.5451-5.9184-10.302-0.12541-0.21815-0.12342-0.56947 0.00512-0.78521z" fill="#fff" fill-opacity=".50435" stroke-width=".60262"/>
<path d="m15.651 24.161 6.7318-10.452c0.13679-0.21332 0.40616-0.35494 0.67071-0.29649l2.7732 0.61045c0.04942 0.0065 0.07593 0.05664 0.05001 0.09582l-5.8882 9.7582c-0.13378 0.22236-0.39953 0.35132-0.67794 0.35253l-3.6061 0.01685c-0.04761 0-0.07772-0.047-0.05363-0.08497z" fill="#feb924" stroke-width=".60262"/>
<path d="m9.0394 14.448 1.6307-2.4557c0.21995-0.33204 0.30854-0.40195 0.42364-0.40195h2.819c0.2525-0.0036 0.42243 0.19644 0.57128 0.40195l2.9667 4.0863-1.9332 2.6316c-0.11508 0.15608-0.35133 0.14643-0.45317-0.01867l-2.4912-4.0393c-0.0076-0.01273-0.02163-0.02119-0.03735-0.02119l-3.4837-0.06086c-0.06206-0.047-0.03435-0.05301-0.01273-0.12233z" fill="#feb924" stroke-width=".60262"/>
<path d="m11.094 11.591c-0.11508 0-0.20369 0.0699-0.42364 0.40134l-1.6301 2.4563c-0.02232 0.06931-0.05062 0.07532 0.01203 0.12233l0.30312 0.0048 1.3149-1.9808c0.21995-0.33144 0.30854-0.40134 0.42364-0.40134h2.819c0.2531-0.0036 0.42304 0.19585 0.57188 0.40134l2.7461 3.7826 0.21995-0.2989-2.9661-4.0863c-0.1488-0.20545-0.31874-0.40493-0.57184-0.40131z" opacity=".2" stroke-width=".60262"/>
<path d="m22.789 14.306c-0.26334-0.0025-0.50861 0.12413-0.64842 0.33325l-6.3214 9.49c-0.03615 0.05062-0.0904 0.08677-0.15306 0.10244 0.01091 0.0076 0.02351 0.01385 0.03917 0.01385l0.43871-0.0025 5.9966-9.0013c0.13979-0.20911 0.38507-0.33566 0.64841-0.33325l2.5991 0.01866s0.49897-0.81112 0.49897-0.83703c0.0025 0.06148-0.03193-0.0904-0.03193-0.0904h-0.0025z" opacity=".2" stroke-width=".60262"/>
<path d="m9.2497 14.271 3.262-0.02232a0.73923 0.69253 0 0 1 0.64118 0.33807l2.3165 3.6488a0.25994 0.24352 0 0 0 0.44292 0.0059l4.2617-6.3214a0.75508 0.70741 0 0 1 0.65082-0.32963l2.9594 0.04399a0.79817 0.74773 0 0 1 0.65625 0.33928l1.4101 2.0242a0.22739 0.21302 0 0 1-0.19223 0.32903l-2.8697-0.02163a0.75713 0.70928 0 0 0-0.64842 0.33385l-6.3202 9.49a0.26421 0.24752 0 0 1-0.44835-6.03e-4l-6.3214-9.5171a0.23762 0.22261 0 0 1 0.19947-0.34048z" fill="#feffff" stroke-width=".60262"/>
<path d="m25.598 14.575-5.6098 9.3008c-0.13378 0.22177-0.40074 0.35132-0.67855 0.35313l-3.6488 0.01503-0.0091 0.51886c-0.02471 0.03797 0.0059 0.08497 0.05363 0.08497l3.6042-0.01617c0.27781-0.0019 0.54476-0.13138 0.67854-0.35313l5.8851-9.7588c0.0253-0.03917 0.0084-0.58333 0.01026-0.71892-0.08497 0.19585-0.14825 0.40194-0.28564 0.5743z" fill="#fff" opacity=".2" stroke-width=".60262"/>
<path d="m11.193 6.1672c-0.25491-5.454e-4 -0.56586 0.17469-0.69421 0.39073-1.051 1.7674-5.156 8.6588-6.2075 10.426-0.11341 0.19102-0.12185 0.48149-0.037663 0.69783 0.012474-0.03193 0.020908-0.0669 0.037663-0.09521 1.0515-1.7675 5.1577-8.6583 6.2087-10.426 0.12837-0.21603 0.4375-0.39128 0.69301-0.39074 2.0591 0.00433 10.004 0.02446 12.063 0.028263 0.25491 4.839e-4 0.56405 0.17579 0.6906 0.39309 1.0305 1.7751 5.0349 8.7065 6.0653 10.481 0.01503 0.02651 0.02232 0.05965 0.03376 0.08919 0.08377-0.21514 0.07652-0.50198-0.03376-0.6918-1.0305-1.7753-5.0343-8.7061-6.0653-10.481-0.12595-0.21738-0.43569-0.39261-0.6906-0.39309-2.0591-0.0039184-10.004-0.023914-12.063-0.028264z" fill="#fff" opacity=".2" stroke-width=".60262"/>
</svg>
