<?xml version="1.0" encoding="UTF-8" standalone="no"?>
<svg
   width="128"
   height="128"
   version="1.1"
   viewBox="0 0 128 128"
   id="svg18"
   sodipodi:docname="google-music.svg"
   inkscape:version="1.4.3 (0d15f75042, 2025-12-25)"
   inkscape:export-filename="google-music.svg"
   inkscape:export-xdpi="96"
   inkscape:export-ydpi="96"
   xmlns:inkscape="http://www.inkscape.org/namespaces/inkscape"
   xmlns:sodipodi="http://sodipodi.sourceforge.net/DTD/sodipodi-0.dtd"
   xmlns="http://www.w3.org/2000/svg"
   xmlns:svg="http://www.w3.org/2000/svg">
  <sodipodi:namedview
     id="namedview18"
     pagecolor="#ffffff"
     bordercolor="#000000"
     borderopacity="0.25"
     inkscape:showpageshadow="2"
     inkscape:pageopacity="0.0"
     inkscape:pagecheckerboard="0"
     inkscape:deskcolor="#d1d1d1"
     inkscape:zoom="7.328125"
     inkscape:cx="64.06823"
     inkscape:cy="64"
     inkscape:window-width="1920"
     inkscape:window-height="1168"
     inkscape:window-x="0"
     inkscape:window-y="0"
     inkscape:window-maximized="1"
     inkscape:current-layer="svg18" />
  <defs
     id="defs6">
    <linearGradient
       id="linearGradient825"
       x1="-741.83"
       x2="-741.83"
       y1="959.05"
       y2="93.836"
       gradientTransform="matrix(.1342 0 0 .1342 160.37 -5.4564)"
       gradientUnits="userSpaceOnUse">
      <stop
         stop-color="#dfe6ed"
         offset="0"
         id="stop1" />
      <stop
         stop-color="#f9fafb"
         offset="1"
         id="stop2" />
    </linearGradient>
    <linearGradient
       id="linearGradient835"
       x1="-738.76"
       x2="-738.76"
       y1="931.43"
       y2="152.13"
       gradientTransform="matrix(.1342 0 0 .1342 160.37 -5.4564)"
       gradientUnits="userSpaceOnUse">
      <stop
         stop-color="#e9f1f7"
         offset="0"
         id="stop3" />
      <stop
         stop-color="#f9fafb"
         offset="1"
         id="stop4" />
    </linearGradient>
    <linearGradient
       id="linearGradient5093"
       x1="59.76"
       x2="81.131"
       y1="50.451"
       y2="73.796"
       gradientTransform="matrix(1.9556 0 0 1.9556 -74.481 -57.065)"
       gradientUnits="userSpaceOnUse">
      <stop
         stop-color="#fda94d"
         offset="0"
         id="stop5" />
      <stop
         stop-color="#fd4dfc"
         stop-opacity=".83471"
         offset="1"
         id="stop6" />
    </linearGradient>
    <linearGradient
       id="b"
       x1="29.532"
       x2="29.532"
       y1="15.029"
       y2="49.049999"
       gradientTransform="matrix(0.99727,0,0,0.99727,0.126,0.666)"
       gradientUnits="userSpaceOnUse">
      <stop
         offset="0"
         stop-color="#45ca7e"
         id="stop1-3" />
      <stop
         offset="1"
         stop-color="#309c3a"
         id="stop2-6" />
    </linearGradient>
    <filter
       id="c"
       width="1.2083591"
       height="1.2243857"
       x="-0.10417953"
       y="-0.11219285"
       color-interpolation-filters="sRGB">
      <feGaussianBlur
         stdDeviation=".827"
         id="feGaussianBlur4" />
    </filter>
  </defs>
  <g
     transform="translate(-138.41 -15.501)"
     fill="none"
     opacity=".445"
     stroke="#000"
     stroke-linecap="round"
     stroke-linejoin="round"
     stroke-opacity=".031373"
     id="g16">
    <circle
       cx="202.16"
       cy="79.683"
       r="60.269"
       opacity="1"
       stroke-width=".5"
       id="circle6" />
    <circle
       cx="202.16"
       cy="79.683"
       r="60.269"
       opacity="1"
       id="circle7" />
    <circle
       cx="202.16"
       cy="79.683"
       r="60.269"
       opacity="1"
       stroke-width="1.5"
       id="circle8" />
    <circle
       cx="202.16"
       cy="79.683"
       r="60.269"
       opacity="1"
       stroke-width="2"
       id="circle9" />
    <circle
       cx="202.16"
       cy="79.683"
       r="60.269"
       opacity="1"
       stroke-width="2.5"
       id="circle10" />
    <circle
       cx="202.16"
       cy="79.683"
       r="60.269"
       opacity="1"
       stroke-width="3"
       id="circle11" />
    <circle
       cx="202.16"
       cy="79.683"
       r="60.269"
       opacity="1"
       stroke-width="3.5"
       id="circle12" />
    <circle
       cx="202.16"
       cy="79.683"
       r="60.269"
       opacity="1"
       stroke-width="4"
       id="circle13" />
    <circle
       cx="202.16"
       cy="79.683"
       r="60.269"
       opacity="1"
       stroke-width="4.5"
       id="circle14" />
    <circle
       cx="202.16"
       cy="79.683"
       r="60.269"
       opacity="1"
       stroke-width="5.5"
       id="circle15" />
    <circle
       cx="202.16"
       cy="79.683"
       r="60.269"
       opacity="1"
       stroke-width="6.5"
       id="circle16" />
  </g>
  <circle
     cx="63.433"
     cy="63.547"
     r="60.269"
     fill="url(#linearGradient825)"
     id="circle17" />
  <circle
     cx="63.433"
     cy="63.547"
     r="54.093"
     fill="url(#linearGradient835)"
     id="circle18" />
  <g
     id="g7"
     transform="matrix(1.7631579,0,0,1.7631579,7.5789472,7.5789472)">
    <path
       fill="url(#b)"
       d="m 32,13 a 19,19 0 0 0 -19,19 19,19 0 0 0 2.284,8.995 l -0.035,-0.028 c 0.958,2.25 0.888,2.863 0.737,4.742 -0.105,1.31 -0.46,2.647 -0.904,3.4 -0.402,0.681 -0.725,1.386 -0.725,1.565 0,0.555 3.202,0.36 6.037,-0.366 3.152,-0.807 3.597,-0.89 5.959,-0.169 l 0.073,0.024 0.301,0.09 -0.026,-0.02 A 19,19 0 0 0 32,51 19,19 0 0 0 51,32 19,19 0 0 0 32,13"
       id="path5"
       style="fill:url(#b)" />
    <path
       d="m 39.107,40.32 c 1.428,-0.682 2.092,-1.538 2.321,-2.992 0.175,-1.108 0.094,-1.39 -2.078,-2.437 -2.763,-1.33 -2.593,-1.336 -3.783,0.141 -0.74,0.92 -1.059,1.218 -1.299,1.218 -2.815,-0.761 -5.68,-2.96 -6.591,-5.847 0,-0.124 0.3,-0.576 0.666,-1.005 1.077,-1.263 1.078,-1.293 0.138,-3.61 -1.083,-2.667 -1.449,-2.649 -2.628,-2.697 -1.207,-0.05 -1.588,0.141 -2.352,1.182 -0.79,1.077 -1.072,1.944 -1.065,3.273 0.008,1.688 0.561,3.043 2.163,5.298 2.75,3.871 5.433,5.972 9.298,7.281 2.364,0.801 3.826,0.856 5.21,0.195"
       filter="url(#c)"
       opacity="0.15"
       transform="matrix(0.99727,0,0,0.99727,0.126,0.666)"
       id="path6" />
    <path
       fill="#ffffff"
       d="m 39.126,40.368 c 1.424,-0.68 2.087,-1.534 2.315,-2.983 0.174,-1.105 0.094,-1.388 -2.073,-2.431 -2.755,-1.327 -2.585,-1.333 -3.772,0.14 -0.739,0.918 -1.056,1.215 -1.296,1.215 -2.807,-0.759 -5.664,-2.952 -6.573,-5.831 0,-0.123 0.299,-0.574 0.664,-1.003 1.074,-1.258 1.075,-1.29 0.138,-3.6 -1.08,-2.659 -1.445,-2.64 -2.62,-2.69 -1.204,-0.049 -1.585,0.142 -2.346,1.18 -0.788,1.075 -1.07,1.939 -1.063,3.265 0.009,1.683 0.56,3.034 2.158,5.283 2.742,3.86 5.418,5.956 9.272,7.261 2.357,0.799 3.816,0.853 5.196,0.194"
       id="path7" />
  </g>
</svg>
