<svg width="128" height="128" version="1.1" viewBox="0 0 33.867 33.867" xmlns="http://www.w3.org/2000/svg">
<defs>
<clipPath id="clipPath2458">
<g aria-label="Menu">
<path d="m6.4265 142.06h-0.95407l-0.12721-2.5623q-0.090863-1.7355-0.081777-2.5805h-0.027259q-0.29076 1.0813-0.71782 2.317l-0.95407 2.7713h-0.74508l-0.87229-2.7259q-0.39071-1.2357-0.63604-2.3624h-0.018173q-0.045432 1.3811-0.10904 2.626l-0.14538 2.5169h-0.91772l0.40889-6.1242h1.263l0.88137 2.6532q0.32711 0.98133 0.57244 2.108h0.027259q0.29076-1.1721 0.61787-2.108l0.91772-2.6532h1.263z" fill="#fff" stroke-width=".088194"/>
<path d="m11.238 139.64q0 0.2635-0.03635 0.44523h-2.944q0.018173 0.65421 0.42706 0.9995 0.37254 0.30893 0.96315 0.30893 0.65422 0 1.1903-0.20899l0.15447 0.68148q-0.62696 0.27259-1.4811 0.27259-1.0268 0-1.6174-0.5997-0.58153-0.60878-0.58153-1.6264 0-0.9995 0.54518-1.6628 0.57244-0.70874 1.5447-0.70874 0.95407 0 1.4447 0.70874 0.39071 0.56335 0.39071 1.3902zm-0.93589-0.25442q0.0091-0.43614-0.19081-0.75417-0.25442-0.40888-0.78143-0.40888-0.48158 0-0.78143 0.3998-0.24533 0.31802-0.29076 0.76325z" fill="#fff" stroke-width=".088194"/>
<path d="m15.999 142.06h-0.98132v-2.5351q0-1.1721-0.89046-1.1721-0.43614 0-0.70873 0.32711-0.27259 0.31802-0.27259 0.75416v2.626h-0.98132v-3.153q0-0.58152-0.03635-1.263h0.8632l0.04543 0.68148h0.02726q0.17264-0.31802 0.50884-0.52701 0.3998-0.24533 0.89046-0.24533 0.61787 0 1.0268 0.3998 0.50884 0.49066 0.50884 1.4629z" fill="#fff" stroke-width=".088194"/>
<path d="m21.039 142.06h-0.8632l-0.05452-0.67239h-0.01817q-0.4634 0.77234-1.3993 0.77234-0.65422 0-1.0449-0.40888-0.4634-0.49975-0.4634-1.5083v-2.5987h0.98132v2.4351q0 1.2721 0.87229 1.2721 0.65422 0 0.90863-0.63604 0.0636-0.16356 0.0636-0.37254v-2.6986h0.98132v3.1439q0 0.62695 0.03635 1.2721z" fill="#fff" stroke-width=".088194"/>
</g>
</clipPath>
</defs>
<g transform="translate(0 -263.13)">
<g transform="matrix(.99699 0 0 .997 18.066 131.23)" stroke-width="1.003">
<rect x="-17.535" y="133.23" width="32.799" height="32.773" ry="3.4806" opacity=".25"/>
<rect x="-17.535" y="132.66" width="32.799" height="32.773" ry="3.4806" fill="#f9f9f9" stroke="#999" stroke-width=".2006"/>
<path d="m-14.054 133.23c-1.9283 0-3.4809 1.552-3.4809 3.4803v8.8746h32.799v-8.8746c0-1.9283-1.5521-3.4803-3.4803-3.4803z" opacity=".25"/>
<path d="m-14.054 132.67c-1.9283 0-3.4809 1.552-3.4809 3.4803v8.8746h32.799v-8.8746c0-1.9283-1.552-3.4803-3.4803-3.4803z" fill="#e5e5e5" stroke="#999" stroke-width=".2006"/>
<path d="m-3.3531 132.67v12.355h18.616v-8.8746c0-1.9283-1.552-3.4803-3.4803-3.4803z" fill="#2092ec" stroke="#999" stroke-width=".2006"/>
<g transform="translate(5.7113)" fill="#808080" stroke-width="1.003">
<rect x="-13.911" y="148.93" width="23.464" height=".40454" rx="0" ry="0"/>
<rect x="-13.911" y="155.2" width="23.464" height=".40454" rx="0" ry="0"/>
<rect x="-13.911" y="161.47" width="23.464" height=".40454" rx="0" ry="0"/>
</g>
<path d="m-9.1939 134.8c-0.85357 0.0446-1.159 0.80993-1.2489 1.6532 1.8202-0.63019 1.2489-1.6532 1.2489-1.6532zm0.17841 1.6657c-0.48221 0.0418-0.99921 0.2825-1.5038 0.75144 0 0-1.9986-1.7082-3.2241 0.27554-1.189 1.9246 0.72639 4.5588 0.72639 4.5588 0.43799 0.52922 1.2314 1.0363 1.8223 0.67627 0.38505-0.28839 0.86354-0.30567 1.3891-0.0251 0.47081 0.36717 1.3686 0.21239 1.9115-0.60115 0.36777-0.40563 0.64627-0.8332 0.84108-1.2524-0.78121-0.27205-1.3381-1.0051-1.3381-1.8661 0-0.75642 0.43584-1.4078 1.0705-1.7409-0.38292-0.4668-0.90963-0.7611-1.491-0.77648-0.06735 0-0.13501-6e-3 -0.2039 0z" fill="#4d4d4d"/>
<path d="m-3.3531 132.67v12.355h18.616v-8.8746c0-1.9283-1.552-3.4803-3.4803-3.4803z" clip-path="url(#clipPath2458)" fill="#fff"/>
</g>
</g>
</svg>
