<svg width="128" height="128" version="1.1" viewBox="0 0 33.867 33.867" xmlns="http://www.w3.org/2000/svg" xmlns:xlink="http://www.w3.org/1999/xlink">
<defs>
<linearGradient id="linearGradient1632" x1="132.21" x2="132.21" y1="42.152" y2="70.68" gradientTransform="matrix(.97573 0 0 .97573 -111.77 -37.183)" gradientUnits="userSpaceOnUse">
<stop stop-color="#cdd9dc" offset="0"/>
<stop stop-color="#c2c8bf" offset="1"/>
</linearGradient>
</defs>
<g transform="matrix(.97573 0 0 .96361 -65.737 -36.328)" fill="none" opacity=".18754" stroke="#000" stroke-linecap="round" stroke-linejoin="round" stroke-opacity=".02">
<rect x="69.84" y="40.71" width="29.811" height="29.811" rx="6.6099" ry="6.6099" stroke-width=".1"/>
<rect x="69.84" y="40.71" width="29.811" height="29.811" rx="6.6099" ry="6.6099" stroke-width=".2"/>
<rect x="69.84" y="40.71" width="29.811" height="29.811" rx="6.6099" ry="6.6099" stroke-width=".3"/>
<rect x="69.84" y="40.71" width="29.811" height="29.811" rx="6.6099" ry="6.6099" stroke-width=".4"/>
<rect x="69.84" y="40.71" width="29.811" height="29.811" rx="6.6099" ry="6.6099" stroke-width=".5"/>
<rect x="69.84" y="40.71" width="29.811" height="29.811" rx="6.6099" ry="6.6099" stroke-width=".6"/>
<rect x="69.84" y="40.71" width="29.811" height="29.811" rx="6.6099" ry="6.6099" stroke-width=".7"/>
<rect x="69.84" y="40.71" width="29.811" height="29.811" rx="6.6099" ry="6.6099" stroke-width=".8"/>
<rect x="69.84" y="40.71" width="29.811" height="29.811" rx="6.6099" ry="6.6099"/>
<rect x="69.84" y="40.71" width="29.811" height="29.811" rx="6.6099" ry="6.6099" stroke-width="1.2"/>
<rect x="69.84" y="40.71" width="29.811" height="29.811" rx="6.6099" ry="6.6099" stroke-width="1.4"/>
<rect x="69.84" y="40.71" width="29.811" height="29.811" rx="6.6099" ry="6.6099" stroke-width="1.6"/>
<rect x="69.84" y="40.71" width="29.811" height="29.811" rx="6.6099" ry="6.6099" stroke-width="1.8"/>
<rect x="69.84" y="40.71" width="29.811" height="29.811" rx="6.6099" ry="6.6099" stroke-width="2"/>
<rect x="69.84" y="40.71" width="29.811" height="29.811" rx="6.6099" ry="6.6099" stroke-width="2.2"/>
<rect x="69.84" y="40.71" width="29.811" height="29.811" rx="6.6099" ry="6.6099" stroke-width="2.6"/>
<rect x="69.84" y="40.71" width="29.811" height="29.811" rx="6.6099" ry="6.6099" stroke-width="3"/>
<rect x="69.84" y="40.71" width="29.811" height="29.811" rx="6.6099" ry="6.6099" stroke-width="3.4"/>
<rect x="69.84" y="40.71" width="29.811" height="29.811" rx="6.6099" ry="6.6099" stroke-width="3.8"/>
<rect x="69.84" y="40.71" width="29.811" height="29.811" rx="6.6099" ry="6.6099" stroke-width="4.2"/>
<rect x="69.84" y="40.71" width="29.811" height="29.811" rx="6.6099" ry="6.6099" stroke-width="4.6"/>
<rect x="69.84" y="40.71" width="29.811" height="29.811" rx="6.6099" ry="6.6099" stroke-width="5"/>
</g>
<rect x="2.4074" y="2.5392" width="29.087" height="29.087" rx="6.4495" ry="6.4495" fill="url(#linearGradient1632)" stroke-linecap="round" stroke-linejoin="round" stroke-width="2.6877"/>
<path d="m11.326 6.4482c-0.024 0-0.04769 0.00593-0.07169 0.00656-0.0371 0.00105-0.07374 0.00391-0.11078 0.00656-0.07661 0.00517-0.15205 0.014375-0.22808 0.026065-0.04664 0.00719-0.09315 0.011223-0.13945 0.020857-0.02164 0.00454-0.04232 0.013152-0.06386 0.018247-0.0945 0.022105-0.18673 0.050932-0.2789 0.083415-0.02967 0.010466-0.06055 0.0158-0.08992 0.027364-0.03092 0.012106-0.06068 0.027061-0.09123 0.040402-0.07709 0.033618-0.15111 0.07479-0.22547 0.11599-0.0282 0.015649-0.05826 0.026279-0.08601 0.043013-0.01279 0.00769-0.02509 0.016847-0.03779 0.024766-0.03005 0.018789-0.06047 0.035951-0.08992 0.056039-0.02937 0.020012-0.05728 0.042559-0.08601 0.063857-0.10749 0.078409-0.21177 0.16347-0.30888 0.26065l-1.8598 1.8611c-0.098762 0.098837-0.18519 0.20583-0.26457 0.31539-0.019558 0.026557-0.040188 0.05242-0.058649 0.079506-0.02179 0.031954-0.039684 0.065106-0.059948 0.097753-0.010971 0.017805-0.024602 0.034161-0.035195 0.05213-0.016103 0.027339-0.026645 0.056947-0.041701 0.084714-0.036229 0.066808-0.072785 0.13303-0.10296 0.20201-0.016166 0.036947-0.032483 0.073289-0.046922 0.11078-0.011349 0.02947-0.017049 0.06015-0.027364 0.08992-0.031084 0.09007-0.058271 0.18013-0.079506 0.27238-0.00504 0.02166-0.015056 0.0421-0.019545 0.06386-0.00933 0.0453-0.011349 0.09122-0.018247 0.13684-0.010971 0.07209-0.01971 0.14373-0.024766 0.21634-0.00315 0.04315-0.00807 0.0858-0.00908 0.12903-0.00107 0.04755 0.00117 0.09451 0.00265 0.14206 0.00177 0.05499 0.00542 0.10938 0.010466 0.16421 0.0053 0.05943 0.012862 0.11822 0.022156 0.17725 0.00769 0.04811 0.014501 0.09563 0.024766 0.14336 0.00782 0.03643 0.017994 0.07202 0.027364 0.10817 0.019722 0.07668 0.045081 0.15171 0.071675 0.22677 0.015712 0.04421 0.026216 0.08942 0.044312 0.13293 0.0087 0.02088 0.020731 0.04054 0.029974 0.06126 0.039394 0.08857 0.087375 0.17321 0.13684 0.25805 0.018159 0.0311 0.030012 0.06461 0.04952 0.09514l0.00126-0.0014c0.014375 0.0225 0.029205 0.0443 0.044312 0.06647 0.094197 0.13835 0.19902 0.27191 0.32191 0.3949l10.587 10.594s0.03444 0.02429 0.09253 0.05213c0.10045 0.04818 0.27302 0.10181 0.46397 0.07038l4.1627 0.92014 2.5857 0.57214-0.57475-2.5779-1.0531-4.7179-10.587-10.594c-0.12154-0.12162-0.25312-0.22704-0.38968-0.32061-0.02369-0.016242-0.0476-0.031525-0.07167-0.046922l0.0014-0.00126c-0.02834-0.018146-0.05978-0.028637-0.08862-0.04561-0.0052-0.00303-0.01047-0.00605-0.01564-0.00908-0.08367-0.04841-0.16693-0.095609-0.25417-0.13424-0.01894-0.00845-0.03696-0.019407-0.05604-0.027364-0.04354-0.018159-0.0887-0.028549-0.13294-0.044312-0.07771-0.027578-0.15516-0.054097-0.23459-0.074286-0.0327-0.00845-0.06483-0.017629-0.09775-0.024766-0.05025-0.010845-0.1005-0.016809-0.15118-0.024766-0.05871-0.00908-0.11686-0.018247-0.17594-0.023455-0.05309-0.00479-0.10576-0.00744-0.159-0.00908-0.02749-8.411e-4 -0.05461-0.00782-0.0821-0.00782z" opacity=".2" stroke-width=".33364"/>
<path d="m18.143 23.183 5.6769-5.6812 1.053 4.7183-0.53886 1.5253-1.4714 0.48074z" fill="#ffbe69" stroke-width=".33364"/>
<path d="m7.5575 8.7697c-1.0572 1.058-1.0578 2.7616-6.242e-4 3.8196l10.586 10.594s0.54634 0.38256 0.98656-0.13046c0.44022-0.51301 0.47116-1.2671 0.47116-1.2671s1.2696-0.24435 1.7854-0.72945c0.51586-0.4851 1.0081-2.0897 1.0081-2.0897s0.59248 0.15225 1.0867-0.3461c0.49426-0.49835 0.33895-1.1184 0.33895-1.1184l-10.586-10.594c-1.0572-1.058-2.7588-1.058-3.816 0z" fill="#f0f" opacity=".372" stroke-width=".33364"/>
<path d="m9.9403 6.5029 12.454 12.464s0.59182 0.15219 1.0861-0.34616c0.49427-0.49833 0.33936-1.1183 0.33936-1.1183l-10.586-10.594c-0.89693-0.89761-2.256-1.0305-3.2936-0.40506z" fill="#99a5eb" stroke-width=".33364"/>
<path d="m22.794 24.211 2.6541 0.58697-0.59176-2.6509s-0.72722 0.32504-1.2341 0.83266c-0.50688 0.50762-0.82821 1.2312-0.82821 1.2312z" fill="#2c3b9c" stroke-width=".33364"/>
<path d="m7.1397 9.3148c-0.60997 1.0356-0.47338 2.3832 0.41717 3.2745l10.586 10.594s0.54648 0.38279 0.9867-0.13022c0.44022-0.51302 0.47144-1.2675 0.47144-1.2675z" fill="#24307f" stroke-width=".33364"/>
<path d="m7.5575 8.7697c-0.16663 0.16675-0.3037 0.35132-0.41783 0.54509l12.462 12.471s1.2692-0.24386 1.7851-0.72897c0.51586-0.4851 1.0083-2.0901 1.0083-2.0901l-12.454-12.464c-0.18538 0.11175-0.36219 0.24468-0.52244 0.40506z" fill="#2841d5" stroke-width=".33364"/>
<path d="m7.5575 9.1035c-0.91489 0.91558-1.0373 2.3138-0.36879 3.3595l5.5854-5.5896c-1.0448-0.66912-2.4414-0.54717-3.3563 0.36841z" opacity=".2" stroke-width=".33364"/>
<path d="m7.5575 8.7697c-0.91489 0.91558-1.0373 2.3138-0.36879 3.3595l5.5854-5.5896c-1.0448-0.66912-2.4414-0.54717-3.3563 0.36841z" fill="#646989" stroke-width=".33364"/>
<path d="m11.326 6.1145c-0.024 0-0.04769 0.00588-0.07169 0.00652-0.0371 0.00105-0.07374 0.00392-0.11078 0.00652-0.07661 0.00513-0.15205 0.014375-0.22808 0.026065-0.04664 0.0072-0.09315 0.011185-0.13945 0.020853-0.02164 0.00455-0.04232 0.013157-0.06386 0.018246-0.0945 0.022103-0.18673 0.050936-0.2789 0.08341-0.02967 0.010504-0.06055 0.015795-0.08992 0.027369-0.03092 0.012156-0.06068 0.027057-0.09123 0.040401-0.07708 0.033615-0.15111 0.074793-0.22547 0.11599-0.0282 0.015649-0.05826 0.026279-0.08601 0.043013-0.01279 0.00769-0.02509 0.016847-0.03779 0.024766-0.03005 0.018789-0.06046 0.035951-0.08992 0.056039-0.02937 0.020012-0.05727 0.042559-0.08601 0.063857-0.10749 0.078409-0.21177 0.16348-0.30888 0.26066l-1.8598 1.8611c-0.098762 0.098837-0.18519 0.20583-0.26457 0.31539-0.019558 0.026557-0.040188 0.05242-0.058649 0.079506-0.02179 0.031954-0.039684 0.065106-0.059948 0.097753-0.010971 0.017805-0.024602 0.034161-0.035195 0.05213-0.016103 0.027339-0.026645 0.056947-0.041701 0.084714-0.036229 0.066808-0.072785 0.13303-0.10296 0.20201-0.016166 0.036947-0.032483 0.073289-0.046922 0.11078-0.011349 0.02947-0.017049 0.06015-0.027364 0.089922-0.031084 0.090073-0.058271 0.18013-0.079494 0.27239-0.00504 0.02166-0.015056 0.0421-0.019546 0.06386-0.00933 0.0453-0.011349 0.09122-0.018247 0.13684-0.010971 0.07209-0.01971 0.14373-0.024766 0.21634-0.00315 0.04315-0.00807 0.0858-0.00908 0.12902-0.00107 0.04755 0.00117 0.09451 0.00265 0.14206 8.474e-4 0.02727 0.00353 0.05435 0.00517 0.08145 5.17e-4 -0.0063 8.474e-4 -0.01261 0.00126-0.0189 0.00504-0.07261 0.013833-0.14425 0.024766-0.21634 0.00694-0.04562 0.00895-0.09155 0.018247-0.13684 0.00454-0.02175 0.014514-0.04219 0.019546-0.06386 0.021235-0.09225 0.048422-0.18231 0.079494-0.27238 0.01034-0.02977 0.015977-0.06045 0.027364-0.08992 0.014426-0.03749 0.030756-0.073832 0.046922-0.11078 0.030176-0.068977 0.066732-0.1352 0.10296-0.20201 0.015056-0.027755 0.025598-0.057376 0.041701-0.084714 0.010592-0.017969 0.024199-0.034324 0.035195-0.05213 0.020264-0.032647 0.038158-0.065786 0.059948-0.097753 0.018461-0.027086 0.039091-0.052937 0.058649-0.079506 0.07938-0.10957 0.1658-0.21655 0.26457-0.31539l1.8598-1.8611c0.09711-0.097186 0.20139-0.18224 0.30888-0.26066 0.02875-0.021298 0.05664-0.043845 0.08601-0.063857 0.02946-0.020088 0.05987-0.03725 0.08992-0.056039 0.0127-0.00794 0.02501-0.017049 0.03779-0.024766 0.02775-0.016733 0.05782-0.027364 0.08601-0.043013 0.07436-0.041197 0.14839-0.082381 0.22547-0.11599 0.03055-0.013341 0.0603-0.028246 0.09123-0.040402 0.02937-0.011601 0.06026-0.016872 0.08992-0.027364 0.09218-0.032471 0.1844-0.06131 0.2789-0.083415 0.02154-0.00504 0.04223-0.013695 0.06386-0.018247 0.04629-0.00971 0.0928-0.013657 0.13945-0.020857 0.07603-0.011727 0.15147-0.020933 0.22808-0.026065 0.03703-0.00265 0.07368-0.00542 0.11078-0.00656 0.024-6.406e-4 0.04769-0.00656 0.07169-0.00656 0.0275 0 0.05461 0.00694 0.0821 0.00782 0.05324 0.00164 0.10591 0.00429 0.159 0.00908 0.05909 0.00517 0.11724 0.014338 0.17594 0.023455 0.05067 0.00794 0.10093 0.013909 0.15118 0.024766 0.03293 0.00719 0.06506 0.016368 0.09775 0.024766 0.07943 0.020189 0.15688 0.046708 0.23459 0.074286 0.04424 0.015763 0.08939 0.026166 0.13294 0.044312 0.01909 0.00794 0.0371 0.01894 0.05604 0.027364 0.08724 0.038637 0.17047 0.085836 0.25414 0.13424 0.0052 0.00303 0.01047 0.00605 0.01564 0.00908 0.02884 0.016986 0.06029 0.027465 0.08862 0.045611l-0.0013 0.00126c0.02407 0.015397 0.04798 0.03068 0.07168 0.046922 0.13656 0.093566 0.26814 0.19898 0.38968 0.32061l10.587 10.594 1.0531 4.7179 0.49655 2.2267 0.0782 0.01759-0.5747-2.5779-1.0531-4.7179-10.587-10.594c-0.12154-0.12162-0.25312-0.22704-0.38968-0.32061-0.02369-0.016242-0.0476-0.031525-0.07167-0.046922l0.0013-0.00126c-0.02834-0.018146-0.05978-0.028637-0.08862-0.045611-0.0052-0.00303-0.01047-0.00605-0.01564-0.00908-0.08367-0.04841-0.1669-0.095607-0.25414-0.13424-0.01894-0.00842-0.03696-0.019404-0.05604-0.027369-0.04354-0.018151-0.0887-0.028552-0.13293-0.044312-0.07772-0.027581-0.15516-0.054101-0.23459-0.074287-0.0327-0.00839-0.06483-0.017621-0.09775-0.024762-0.05025-0.010857-0.1005-0.016814-0.15118-0.024762-0.05871-0.00912-0.11686-0.018251-0.17594-0.023458-0.05309-0.00482-0.10576-0.00745-0.159-0.00912-0.02749-8.409e-4 -0.05461-0.00782-0.0821-0.00782z" fill="#fff" opacity=".2" stroke-width=".33364"/>
</svg>
