<svg width="128" height="128" version="1.1" viewBox="0 0 33.867 33.867" xmlns="http://www.w3.org/2000/svg" xmlns:xlink="http://www.w3.org/1999/xlink">
<defs>
<radialGradient id="radialGradient963" cx="16.951" cy="2.5104" r="14.544" gradientTransform="matrix(7.1386 0 0 2.2345 -104.06 -3.0991)" gradientUnits="userSpaceOnUse">
<stop stop-color="#e3b500" offset="0"/>
<stop stop-color="#eaa51c" stop-opacity=".96863" offset="1"/>
</radialGradient>
<linearGradient id="linearGradient1814" x1="97.174" x2="97.174" y1="222.07" y2="35.637" gradientUnits="userSpaceOnUse">
<stop stop-color="#e9a818" stop-opacity=".97255" offset="0"/>
<stop stop-color="#fff" stop-opacity=".87638" offset="1"/>
</linearGradient>
</defs>
<g stroke-linecap="round" stroke-linejoin="round">
<g transform="matrix(.97573 0 0 .97573 -65.737 -37.183)" fill="none" opacity=".295" stroke="#000" stroke-opacity=".02">
<rect x="69.84" y="40.71" width="29.811" height="29.811" rx="6.6099" ry="6.6099" stroke-width=".1"/>
<rect x="69.84" y="40.71" width="29.811" height="29.811" rx="6.6099" ry="6.6099" stroke-width=".2"/>
<rect x="69.84" y="40.71" width="29.811" height="29.811" rx="6.6099" ry="6.6099" stroke-width=".3"/>
<rect x="69.84" y="40.71" width="29.811" height="29.811" rx="6.6099" ry="6.6099" stroke-width=".4"/>
<rect x="69.84" y="40.71" width="29.811" height="29.811" rx="6.6099" ry="6.6099" stroke-width=".5"/>
<rect x="69.84" y="40.71" width="29.811" height="29.811" rx="6.6099" ry="6.6099" stroke-width=".6"/>
<rect x="69.84" y="40.71" width="29.811" height="29.811" rx="6.6099" ry="6.6099" stroke-width=".7"/>
<rect x="69.84" y="40.71" width="29.811" height="29.811" rx="6.6099" ry="6.6099" stroke-width=".8"/>
<rect x="69.84" y="40.71" width="29.811" height="29.811" rx="6.6099" ry="6.6099"/>
<rect x="69.84" y="40.71" width="29.811" height="29.811" rx="6.6099" ry="6.6099" stroke-width="1.2"/>
<rect x="69.84" y="40.71" width="29.811" height="29.811" rx="6.6099" ry="6.6099" stroke-width="1.4"/>
<rect x="69.84" y="40.71" width="29.811" height="29.811" rx="6.6099" ry="6.6099" stroke-width="1.6"/>
<rect x="69.84" y="40.71" width="29.811" height="29.811" rx="6.6099" ry="6.6099" stroke-width="1.8"/>
<rect x="69.84" y="40.71" width="29.811" height="29.811" rx="6.6099" ry="6.6099" stroke-width="2"/>
<rect x="69.84" y="40.71" width="29.811" height="29.811" rx="6.6099" ry="6.6099" stroke-width="2.2"/>
<rect x="69.84" y="40.71" width="29.811" height="29.811" rx="6.6099" ry="6.6099" stroke-width="2.6"/>
<rect x="69.84" y="40.71" width="29.811" height="29.811" rx="6.6099" ry="6.6099" stroke-width="3"/>
<rect x="69.84" y="40.71" width="29.811" height="29.811" rx="6.6099" ry="6.6099" stroke-width="3.4"/>
<rect x="69.84" y="40.71" width="29.811" height="29.811" rx="6.6099" ry="6.6099" stroke-width="3.8"/>
<rect x="69.84" y="40.71" width="29.811" height="29.811" rx="6.6099" ry="6.6099" stroke-width="4.2"/>
<rect x="69.84" y="40.71" width="29.811" height="29.811" rx="6.6099" ry="6.6099" stroke-width="4.6"/>
<rect x="69.84" y="40.71" width="29.811" height="29.811" rx="6.6099" ry="6.6099" stroke-width="5"/>
</g>
<rect x="2.4074" y="2.5392" width="29.087" height="29.087" rx="6.4495" ry="6.4495" fill="url(#radialGradient963)" stroke-width="2.6877"/>
<g fill="#480000" fill-opacity=".027675" opacity=".21207" stroke-width="1.1462">
<path d="m23.185 7.7466a3.7251 3.7251 0 0 0-2.5745 1.2268l-1.9766 2.1921-0.82682-1.4883a3.7251 3.7251 0 0 0-2.234-1.773 3.7251 3.7251 0 0 0-2.8319 0.32453 3.7251 3.7251 0 0 0-1.4485 5.0658l2.0665 3.7197-3.6866 4.0881a3.7251 3.7251 0 0 0 0.27078 5.2607 3.7251 3.7251 0 0 0 5.2607-0.27078l1.9797-2.1952 0.82682 1.4888a3.7251 3.7251 0 0 0 5.0664 1.4485 3.7251 3.7251 0 0 0 1.4459-5.0664l-2.0655-3.7186 3.6871-4.0886a3.7251 3.7251 0 0 0-0.27337-5.2607 3.7251 3.7251 0 0 0-2.6861-0.95343z" color="#000000" style="-inkscape-stroke:none"/>
<path d="m23.858 8.1364a3.7251 3.7251 0 0 0-2.5745 1.2268l-1.9766 2.1921-0.82682-1.4883a3.7251 3.7251 0 0 0-2.234-1.773 3.7251 3.7251 0 0 0-2.8319 0.32453 3.7251 3.7251 0 0 0-1.4485 5.0658l2.0665 3.7197-3.6866 4.0881a3.7251 3.7251 0 0 0 0.27078 5.2607 3.7251 3.7251 0 0 0 5.2607-0.27078l1.9797-2.1952 0.82682 1.4888a3.7251 3.7251 0 0 0 5.0664 1.4485 3.7251 3.7251 0 0 0 1.4459-5.0664l-2.0655-3.7186 3.6871-4.0886a3.7251 3.7251 0 0 0-0.27337-5.2607 3.7251 3.7251 0 0 0-2.6861-0.95343z" color="#000000" style="-inkscape-stroke:none"/>
<path d="m24.342 8.4317a3.7251 3.7251 0 0 0-2.5745 1.2268l-1.9766 2.1921-0.82682-1.4883a3.7251 3.7251 0 0 0-2.234-1.773 3.7251 3.7251 0 0 0-2.8319 0.32453 3.7251 3.7251 0 0 0-1.4485 5.0658l2.0665 3.7197-3.6866 4.0881a3.7251 3.7251 0 0 0 0.27078 5.2607 3.7251 3.7251 0 0 0 5.2607-0.27078l1.9797-2.1952 0.82682 1.4888a3.7251 3.7251 0 0 0 5.0664 1.4485 3.7251 3.7251 0 0 0 1.4459-5.0664l-2.0655-3.7186 3.6871-4.0886a3.7251 3.7251 0 0 0-0.27337-5.2607 3.7251 3.7251 0 0 0-2.6861-0.95343z" color="#000000" style="-inkscape-stroke:none"/>
<path d="m24.673 8.6207a3.7251 3.7251 0 0 0-2.5745 1.2268l-1.9766 2.1921-0.82682-1.4883a3.7251 3.7251 0 0 0-2.234-1.773 3.7251 3.7251 0 0 0-2.8319 0.32453 3.7251 3.7251 0 0 0-1.4485 5.0658l2.0665 3.7197-3.6866 4.0881a3.7251 3.7251 0 0 0 0.27078 5.2607 3.7251 3.7251 0 0 0 5.2607-0.27078l1.9797-2.1952 0.82682 1.4888a3.7251 3.7251 0 0 0 5.0664 1.4485 3.7251 3.7251 0 0 0 1.4459-5.0664l-2.0655-3.7186 3.6871-4.0886a3.7251 3.7251 0 0 0-0.27337-5.2607 3.7251 3.7251 0 0 0-2.6861-0.95343z" color="#000000" style="-inkscape-stroke:none"/>
<path d="m24.921 8.7388a3.7251 3.7251 0 0 0-2.5745 1.2268l-1.9766 2.1921-0.82682-1.4883a3.7251 3.7251 0 0 0-2.234-1.773 3.7251 3.7251 0 0 0-2.8319 0.32453 3.7251 3.7251 0 0 0-1.4485 5.0658l2.0665 3.7197-3.6866 4.0881a3.7251 3.7251 0 0 0 0.27078 5.2607 3.7251 3.7251 0 0 0 5.2607-0.27078l1.9797-2.1952 0.82682 1.4888a3.7251 3.7251 0 0 0 5.0664 1.4485 3.7251 3.7251 0 0 0 1.4459-5.0664l-2.0655-3.7186 3.6871-4.0886a3.7251 3.7251 0 0 0-0.27337-5.2607 3.7251 3.7251 0 0 0-2.6861-0.95343z" color="#000000" style="-inkscape-stroke:none"/>
<path d="m25.087 8.8037a3.7251 3.7251 0 0 0-2.5745 1.2268l-1.9766 2.1921-0.82682-1.4883a3.7251 3.7251 0 0 0-2.234-1.773 3.7251 3.7251 0 0 0-2.8319 0.32453 3.7251 3.7251 0 0 0-1.4485 5.0658l2.0665 3.7197-3.6866 4.0881a3.7251 3.7251 0 0 0 0.27078 5.2607 3.7251 3.7251 0 0 0 5.2607-0.27078l1.9797-2.1952 0.82682 1.4888a3.7251 3.7251 0 0 0 5.0664 1.4485 3.7251 3.7251 0 0 0 1.4459-5.0664l-2.0655-3.7186 3.6871-4.0886a3.7251 3.7251 0 0 0-0.27337-5.2607 3.7251 3.7251 0 0 0-2.6861-0.95343z" color="#000000" style="-inkscape-stroke:none"/>
<path d="m25.211 8.8156a3.7251 3.7251 0 0 0-2.5745 1.2268l-1.9766 2.1921-0.82682-1.4883a3.7251 3.7251 0 0 0-2.234-1.773 3.7251 3.7251 0 0 0-2.8319 0.32453 3.7251 3.7251 0 0 0-1.4485 5.0658l2.0665 3.7197-3.6866 4.0881a3.7251 3.7251 0 0 0 0.27078 5.2607 3.7251 3.7251 0 0 0 5.2607-0.27078l1.9797-2.1952 0.82682 1.4888a3.7251 3.7251 0 0 0 5.0664 1.4485 3.7251 3.7251 0 0 0 1.4459-5.0664l-2.0655-3.7186 3.6871-4.0886a3.7251 3.7251 0 0 0-0.27337-5.2607 3.7251 3.7251 0 0 0-2.6861-0.95343z" color="#000000" style="-inkscape-stroke:none"/>
</g>
<path transform="scale(.26458)" d="m84.012 27.582a14.079 14.079 0 0 0-9.7305 4.6367l-7.4707 8.2852-3.125-5.625a14.079 14.079 0 0 0-8.4434-6.7012 14.079 14.079 0 0 0-10.703 1.2266 14.079 14.079 0 0 0-5.4746 19.146l7.8105 14.059-13.934 15.451a14.079 14.079 0 0 0 1.0234 19.883 14.079 14.079 0 0 0 19.883-1.0234l7.4824-8.2969 3.125 5.627a14.079 14.079 0 0 0 19.148 5.4746 14.079 14.079 0 0 0 5.4648-19.148l-7.8066-14.055 13.936-15.453a14.079 14.079 0 0 0-1.0332-19.883 14.079 14.079 0 0 0-10.152-3.6035z" color="#000000" fill="url(#linearGradient1814)" stroke-width="4.332" style="-inkscape-stroke:none"/>
</g>
</svg>
