<svg width="128" height="128" version="1.1" viewBox="0 0 33.867 33.867" xmlns="http://www.w3.org/2000/svg" xmlns:xlink="http://www.w3.org/1999/xlink">
<defs>
<linearGradient id="linearGradient897" x1="2686" x2="2686" y1="1088.8" y2="1770.4" gradientTransform="matrix(.042779 0 0 .042779 -95.919 -44.867)" gradientUnits="userSpaceOnUse">
<stop stop-color="#ffcc60" offset="0"/>
<stop stop-color="#ff0202" offset="1"/>
</linearGradient>
<radialGradient id="radialGradient898" cx="60.636" cy="20.456" r="17.304" gradientTransform="translate(-43.433 -3.9449)" gradientUnits="userSpaceOnUse">
<stop stop-color="#0b0b0b" offset="0"/>
<stop stop-color="#0b0b0b" stop-opacity=".85882" offset=".68076"/>
<stop stop-color="#0b0b0b" stop-opacity=".83137" offset=".69925"/>
<stop stop-color="#0b0b0b" stop-opacity=".80392" offset=".71879"/>
<stop stop-color="#0b0b0b" stop-opacity=".78039" offset=".73593"/>
<stop stop-color="#0b0b0b" stop-opacity=".75686" offset=".75022"/>
<stop stop-color="#0b0b0b" stop-opacity=".73333" offset=".76799"/>
<stop stop-color="#0b0b0b" stop-opacity=".082353" offset=".91501"/>
<stop stop-color="#0b0b0b" stop-opacity=".070588" offset=".92247"/>
<stop stop-color="#0b0b0b" stop-opacity=".058824" offset=".92919"/>
<stop stop-color="#0b0b0b" stop-opacity=".047059" offset=".93841"/>
<stop stop-color="#0b0b0b" stop-opacity=".031373" offset=".94761"/>
<stop stop-color="#0b0b0b" stop-opacity=".023529" offset=".95381"/>
<stop stop-color="#0b0b0b" stop-opacity=".015686" offset=".95886"/>
<stop stop-color="#0b0b0b" stop-opacity=".011765" offset=".96356"/>
<stop stop-color="#0b0b0b" stop-opacity=".0078431" offset=".96845"/>
<stop stop-color="#0b0b0b" stop-opacity=".0039216" offset=".97348"/>
<stop stop-color="#0b0b0b" stop-opacity="0" offset=".97812"/>
<stop stop-color="#0b0b0b" stop-opacity="0" offset=".98456"/>
<stop stop-color="#0b0b0b" stop-opacity="0" offset=".98701"/>
<stop stop-color="#0b0b0b" stop-opacity="0" offset=".98925"/>
<stop stop-color="#0b0b0b" stop-opacity="0" offset="1"/>
</radialGradient>
<radialGradient id="radialGradient993" cx="16.968" cy="3.7659" r="13.696" gradientTransform="matrix(4.8886 0 0 1.8641 -65.724 -2.4383)" gradientUnits="userSpaceOnUse">
<stop stop-color="#ffb648" offset="0"/>
<stop stop-color="#ff332b" offset="1"/>
</radialGradient>
<linearGradient id="linearGradient1156" x1="14.998" x2="14.998" y1="12.265" y2="45.91" gradientTransform="translate(.064867 -.44756)" gradientUnits="userSpaceOnUse">
<stop stop-color="#fff" offset="0"/>
<stop stop-color="#f88021" offset="1"/>
</linearGradient>
</defs>
<circle cx="17.203" cy="16.512" r="17.304" fill="url(#radialGradient898)" opacity=".30973" stroke-linecap="square" stroke-linejoin="round" stroke-width="3"/>
<circle cx="17.203" cy="16.512" r="15.118" fill="url(#linearGradient897)" stroke="#b1aaaa" stroke-linecap="square" stroke-opacity=".99216" stroke-width=".057556"/>
<circle cx="17.203" cy="16.512" r="13.102" fill="url(#radialGradient993)"/>
<g transform="translate(.064867 -.44756)" fill="#311500" fill-opacity=".019334" stroke-width=".4611">
<path d="m12.337 7.9021a4.611 4.611 0 0 0-4.611 4.611 4.611 4.611 0 0 0 4.611 4.611 4.611 4.611 0 0 0-4.611 4.611 4.611 4.611 0 0 0 4.611 4.611 4.611 4.611 0 0 0 4.611-4.611 4.611 4.611 0 0 0-0.0162-0.31521 4.611 4.611 0 0 0 0.0162 2e-3 4.611 4.611 0 0 0 0.01076 0 4.611 4.611 0 0 0-0.01098 0.31355 4.611 4.611 0 0 0 4.611 4.611 4.611 4.611 0 0 0 4.611-4.611 4.611 4.611 0 0 0-4.611-4.611 4.611 4.611 0 0 0-0.0162 2e-3 4.611 4.611 0 0 0 0-2e-3 4.611 4.611 0 0 0 0.0162 0 4.611 4.611 0 0 0 4.611-4.611 4.611 4.611 0 0 0-4.611-4.611 4.611 4.611 0 0 0-4.6003 4.2976 4.611 4.611 0 0 0-0.01075 0 4.611 4.611 0 0 0-0.0162 0 4.611 4.611 0 0 0-4.5944-4.2974zm9.2132 2.7432a1.8446 1.8446 0 0 1 1.704 2.5937c-0.54041 1.2606-1.008 2.5416-1.9404 3.6999-0.93142 1.1574-2.5287 2.0298-4.3657 2.0298-1.1024 0-1.0911 0.04956-1.3887 0.39986-0.29761 0.35029-0.79014 1.4074-1.5328 3.1052a1.8446 1.8446 0 1 1-3.379-1.4774c0.72134-1.6489 1.15-2.8975 2.0999-4.0162 0.95079-1.1186 2.5361-1.7005 4.2007-1.7005 0.92967 0 1.0865-0.14857 1.4931-0.65384 0.40667-0.50527 0.86175-1.5293 1.423-2.8386a1.8446 1.8446 0 0 1 1.6858-1.1421zm-9.2128 0.02342a1.8444 1.8444 0 0 1 1.8444 1.8444 1.8444 1.8444 0 0 1-1.8444 1.8444 1.8444 1.8444 0 0 1-1.8444-1.8444 1.8444 1.8444 0 0 1 1.8444-1.8444zm9.222 9.222a1.8444 1.8444 0 0 1 1.8444 1.8444 1.8444 1.8444 0 0 1-1.8444 1.8444 1.8444 1.8444 0 0 1-1.8444-1.8444 1.8444 1.8444 0 0 1 1.8444-1.8444z"/>
<path d="m12.387 8.1082a4.611 4.611 0 0 0-4.611 4.611 4.611 4.611 0 0 0 4.611 4.611 4.611 4.611 0 0 0-4.611 4.611 4.611 4.611 0 0 0 4.611 4.611 4.611 4.611 0 0 0 4.611-4.611 4.611 4.611 0 0 0-0.0162-0.31521 4.611 4.611 0 0 0 0.0162 2e-3 4.611 4.611 0 0 0 0.01076 0 4.611 4.611 0 0 0-0.01098 0.31355 4.611 4.611 0 0 0 4.611 4.611 4.611 4.611 0 0 0 4.611-4.611 4.611 4.611 0 0 0-4.611-4.611 4.611 4.611 0 0 0-0.0162 2e-3 4.611 4.611 0 0 0 0-2e-3 4.611 4.611 0 0 0 0.0162 0 4.611 4.611 0 0 0 4.611-4.611 4.611 4.611 0 0 0-4.611-4.611 4.611 4.611 0 0 0-4.6003 4.2976 4.611 4.611 0 0 0-0.01075 0 4.611 4.611 0 0 0-0.0162 0 4.611 4.611 0 0 0-4.5944-4.2974zm9.2132 2.7432a1.8446 1.8446 0 0 1 1.704 2.5937c-0.54041 1.2606-1.008 2.5416-1.9404 3.6999-0.93142 1.1574-2.5287 2.0298-4.3657 2.0298-1.1024 0-1.0911 0.04956-1.3887 0.39986-0.29761 0.35029-0.79014 1.4074-1.5328 3.1052a1.8446 1.8446 0 1 1-3.379-1.4774c0.72134-1.6489 1.15-2.8975 2.0999-4.0162 0.95079-1.1186 2.5361-1.7005 4.2007-1.7005 0.92967 0 1.0865-0.14857 1.4931-0.65384 0.40667-0.50527 0.86175-1.5293 1.423-2.8386a1.8446 1.8446 0 0 1 1.6858-1.1421zm-9.2128 0.02342a1.8444 1.8444 0 0 1 1.8444 1.8444 1.8444 1.8444 0 0 1-1.8444 1.8444 1.8444 1.8444 0 0 1-1.8444-1.8444 1.8444 1.8444 0 0 1 1.8444-1.8444zm9.222 9.222a1.8444 1.8444 0 0 1 1.8444 1.8444 1.8444 1.8444 0 0 1-1.8444 1.8444 1.8444 1.8444 0 0 1-1.8444-1.8444 1.8444 1.8444 0 0 1 1.8444-1.8444z"/>
<path d="m12.483 8.2874a4.611 4.611 0 0 0-4.611 4.611 4.611 4.611 0 0 0 4.611 4.611 4.611 4.611 0 0 0-4.611 4.611 4.611 4.611 0 0 0 4.611 4.611 4.611 4.611 0 0 0 4.611-4.611 4.611 4.611 0 0 0-0.0162-0.31521 4.611 4.611 0 0 0 0.0162 2e-3 4.611 4.611 0 0 0 0.01076 0 4.611 4.611 0 0 0-0.01098 0.31355 4.611 4.611 0 0 0 4.611 4.611 4.611 4.611 0 0 0 4.611-4.611 4.611 4.611 0 0 0-4.611-4.611 4.611 4.611 0 0 0-0.0162 2e-3 4.611 4.611 0 0 0 0-2e-3 4.611 4.611 0 0 0 0.0162 0 4.611 4.611 0 0 0 4.611-4.611 4.611 4.611 0 0 0-4.611-4.611 4.611 4.611 0 0 0-4.6003 4.2976 4.611 4.611 0 0 0-0.01075 0 4.611 4.611 0 0 0-0.0162 0 4.611 4.611 0 0 0-4.5944-4.2974zm9.2132 2.7432a1.8446 1.8446 0 0 1 1.704 2.5937c-0.54041 1.2606-1.008 2.5416-1.9404 3.6999-0.93142 1.1574-2.5287 2.0298-4.3657 2.0298-1.1024 0-1.0911 0.04956-1.3887 0.39986-0.29761 0.35029-0.79014 1.4074-1.5328 3.1052a1.8446 1.8446 0 1 1-3.379-1.4774c0.72134-1.6489 1.15-2.8975 2.0999-4.0162 0.95079-1.1186 2.5361-1.7005 4.2007-1.7005 0.92967 0 1.0865-0.14857 1.4931-0.65384 0.40667-0.50527 0.86175-1.5293 1.423-2.8386a1.8446 1.8446 0 0 1 1.6858-1.1421zm-9.2128 0.02342a1.8444 1.8444 0 0 1 1.8444 1.8444 1.8444 1.8444 0 0 1-1.8444 1.8444 1.8444 1.8444 0 0 1-1.8444-1.8444 1.8444 1.8444 0 0 1 1.8444-1.8444zm9.222 9.222a1.8444 1.8444 0 0 1 1.8444 1.8444 1.8444 1.8444 0 0 1-1.8444 1.8444 1.8444 1.8444 0 0 1-1.8444-1.8444 1.8444 1.8444 0 0 1 1.8444-1.8444z"/>
<path d="m12.609 8.5105a4.611 4.611 0 0 0-4.611 4.611 4.611 4.611 0 0 0 4.611 4.611 4.611 4.611 0 0 0-4.611 4.611 4.611 4.611 0 0 0 4.611 4.611 4.611 4.611 0 0 0 4.611-4.611 4.611 4.611 0 0 0-0.0162-0.31521 4.611 4.611 0 0 0 0.0162 2e-3 4.611 4.611 0 0 0 0.01076 0 4.611 4.611 0 0 0-0.01098 0.31355 4.611 4.611 0 0 0 4.611 4.611 4.611 4.611 0 0 0 4.611-4.611 4.611 4.611 0 0 0-4.611-4.611 4.611 4.611 0 0 0-0.0162 2e-3 4.611 4.611 0 0 0 0-2e-3 4.611 4.611 0 0 0 0.0162 0 4.611 4.611 0 0 0 4.611-4.611 4.611 4.611 0 0 0-4.611-4.611 4.611 4.611 0 0 0-4.6003 4.2976 4.611 4.611 0 0 0-0.01075 0 4.611 4.611 0 0 0-0.0162 0 4.611 4.611 0 0 0-4.5944-4.2974zm9.2132 2.7432a1.8446 1.8446 0 0 1 1.704 2.5937c-0.54041 1.2606-1.008 2.5416-1.9404 3.6999-0.93142 1.1574-2.5287 2.0298-4.3657 2.0298-1.1024 0-1.0911 0.04956-1.3887 0.39986-0.29761 0.35029-0.79014 1.4074-1.5328 3.1052a1.8446 1.8446 0 1 1-3.379-1.4774c0.72134-1.6489 1.15-2.8975 2.0999-4.0162 0.95079-1.1186 2.5361-1.7005 4.2007-1.7005 0.92967 0 1.0865-0.14857 1.4931-0.65384 0.40667-0.50527 0.86175-1.5293 1.423-2.8386a1.8446 1.8446 0 0 1 1.6858-1.1421zm-9.2128 0.02342a1.8444 1.8444 0 0 1 1.8444 1.8444 1.8444 1.8444 0 0 1-1.8444 1.8444 1.8444 1.8444 0 0 1-1.8444-1.8444 1.8444 1.8444 0 0 1 1.8444-1.8444zm9.222 9.222a1.8444 1.8444 0 0 1 1.8444 1.8444 1.8444 1.8444 0 0 1-1.8444 1.8444 1.8444 1.8444 0 0 1-1.8444-1.8444 1.8444 1.8444 0 0 1 1.8444-1.8444z"/>
<path d="m12.749 8.7269a4.611 4.611 0 0 0-4.611 4.611 4.611 4.611 0 0 0 4.611 4.611 4.611 4.611 0 0 0-4.611 4.611 4.611 4.611 0 0 0 4.611 4.611 4.611 4.611 0 0 0 4.611-4.611 4.611 4.611 0 0 0-0.0162-0.31521 4.611 4.611 0 0 0 0.0162 2e-3 4.611 4.611 0 0 0 0.01076 0 4.611 4.611 0 0 0-0.01098 0.31355 4.611 4.611 0 0 0 4.611 4.611 4.611 4.611 0 0 0 4.611-4.611 4.611 4.611 0 0 0-4.611-4.611 4.611 4.611 0 0 0-0.0162 2e-3 4.611 4.611 0 0 0 0-2e-3 4.611 4.611 0 0 0 0.0162 0 4.611 4.611 0 0 0 4.611-4.611 4.611 4.611 0 0 0-4.611-4.611 4.611 4.611 0 0 0-4.6003 4.2976 4.611 4.611 0 0 0-0.01075 0 4.611 4.611 0 0 0-0.0162 0 4.611 4.611 0 0 0-4.5944-4.2974zm9.2132 2.7432a1.8446 1.8446 0 0 1 1.704 2.5937c-0.54041 1.2606-1.008 2.5416-1.9404 3.6999-0.93142 1.1574-2.5287 2.0298-4.3657 2.0298-1.1024 0-1.0911 0.04956-1.3887 0.39986-0.29761 0.35029-0.79014 1.4074-1.5328 3.1052a1.8446 1.8446 0 1 1-3.379-1.4774c0.72134-1.6489 1.15-2.8975 2.0999-4.0162 0.95079-1.1186 2.5361-1.7005 4.2007-1.7005 0.92967 0 1.0865-0.14857 1.4931-0.65384 0.40667-0.50527 0.86175-1.5293 1.423-2.8386a1.8446 1.8446 0 0 1 1.6858-1.1421zm-9.2128 0.02342a1.8444 1.8444 0 0 1 1.8444 1.8444 1.8444 1.8444 0 0 1-1.8444 1.8444 1.8444 1.8444 0 0 1-1.8444-1.8444 1.8444 1.8444 0 0 1 1.8444-1.8444zm9.222 9.222a1.8444 1.8444 0 0 1 1.8444 1.8444 1.8444 1.8444 0 0 1-1.8444 1.8444 1.8444 1.8444 0 0 1-1.8444-1.8444 1.8444 1.8444 0 0 1 1.8444-1.8444z"/>
<path d="m12.868 8.9591a4.611 4.611 0 0 0-4.611 4.611 4.611 4.611 0 0 0 4.611 4.611 4.611 4.611 0 0 0-4.611 4.611 4.611 4.611 0 0 0 4.611 4.611 4.611 4.611 0 0 0 4.611-4.611 4.611 4.611 0 0 0-0.0162-0.31521 4.611 4.611 0 0 0 0.0162 2e-3 4.611 4.611 0 0 0 0.01076 0 4.611 4.611 0 0 0-0.01098 0.31355 4.611 4.611 0 0 0 4.611 4.611 4.611 4.611 0 0 0 4.611-4.611 4.611 4.611 0 0 0-4.611-4.611 4.611 4.611 0 0 0-0.0162 2e-3 4.611 4.611 0 0 0 0-2e-3 4.611 4.611 0 0 0 0.0162 0 4.611 4.611 0 0 0 4.611-4.611 4.611 4.611 0 0 0-4.611-4.611 4.611 4.611 0 0 0-4.6003 4.2976 4.611 4.611 0 0 0-0.01075 0 4.611 4.611 0 0 0-0.0162 0 4.611 4.611 0 0 0-4.5944-4.2974zm9.2132 2.7432a1.8446 1.8446 0 0 1 1.704 2.5937c-0.54041 1.2606-1.008 2.5416-1.9404 3.6999-0.93142 1.1574-2.5287 2.0298-4.3657 2.0298-1.1024 0-1.0911 0.04956-1.3887 0.39986-0.29761 0.35029-0.79014 1.4074-1.5328 3.1052a1.8446 1.8446 0 1 1-3.379-1.4774c0.72134-1.6489 1.15-2.8975 2.0999-4.0162 0.95079-1.1186 2.5361-1.7005 4.2007-1.7005 0.92967 0 1.0865-0.14857 1.4931-0.65384 0.40667-0.50527 0.86175-1.5293 1.423-2.8386a1.8446 1.8446 0 0 1 1.6858-1.1421zm-9.2128 0.02342a1.8444 1.8444 0 0 1 1.8444 1.8444 1.8444 1.8444 0 0 1-1.8444 1.8444 1.8444 1.8444 0 0 1-1.8444-1.8444 1.8444 1.8444 0 0 1 1.8444-1.8444zm9.222 9.222a1.8444 1.8444 0 0 1 1.8444 1.8444 1.8444 1.8444 0 0 1-1.8444 1.8444 1.8444 1.8444 0 0 1-1.8444-1.8444 1.8444 1.8444 0 0 1 1.8444-1.8444z"/>
<path d="m12.992 9.2137a4.611 4.611 0 0 0-4.611 4.611 4.611 4.611 0 0 0 4.611 4.611 4.611 4.611 0 0 0-4.611 4.611 4.611 4.611 0 0 0 4.611 4.611 4.611 4.611 0 0 0 4.611-4.611 4.611 4.611 0 0 0-0.0162-0.31521 4.611 4.611 0 0 0 0.0162 2e-3 4.611 4.611 0 0 0 0.01076 0 4.611 4.611 0 0 0-0.01098 0.31355 4.611 4.611 0 0 0 4.611 4.611 4.611 4.611 0 0 0 4.611-4.611 4.611 4.611 0 0 0-4.611-4.611 4.611 4.611 0 0 0-0.0162 2e-3 4.611 4.611 0 0 0 0-2e-3 4.611 4.611 0 0 0 0.0162 0 4.611 4.611 0 0 0 4.611-4.611 4.611 4.611 0 0 0-4.611-4.611 4.611 4.611 0 0 0-4.6003 4.2976 4.611 4.611 0 0 0-0.01075 0 4.611 4.611 0 0 0-0.0162 0 4.611 4.611 0 0 0-4.5944-4.2974zm9.2132 2.7432a1.8446 1.8446 0 0 1 1.704 2.5937c-0.54041 1.2606-1.008 2.5416-1.9404 3.6999-0.93142 1.1574-2.5287 2.0298-4.3657 2.0298-1.1024 0-1.0911 0.04956-1.3887 0.39986-0.29761 0.35029-0.79014 1.4074-1.5328 3.1052a1.8446 1.8446 0 1 1-3.379-1.4774c0.72134-1.6489 1.15-2.8975 2.0999-4.0162 0.95079-1.1186 2.5361-1.7005 4.2007-1.7005 0.92967 0 1.0865-0.14857 1.4931-0.65384 0.40667-0.50527 0.86175-1.5293 1.423-2.8386a1.8446 1.8446 0 0 1 1.6858-1.1421zm-9.2128 0.02342a1.8444 1.8444 0 0 1 1.8444 1.8444 1.8444 1.8444 0 0 1-1.8444 1.8444 1.8444 1.8444 0 0 1-1.8444-1.8444 1.8444 1.8444 0 0 1 1.8444-1.8444zm9.222 9.222a1.8444 1.8444 0 0 1 1.8444 1.8444 1.8444 1.8444 0 0 1-1.8444 1.8444 1.8444 1.8444 0 0 1-1.8444-1.8444 1.8444 1.8444 0 0 1 1.8444-1.8444z"/>
<path d="m13.149 9.4925a4.611 4.611 0 0 0-4.611 4.611 4.611 4.611 0 0 0 4.611 4.611 4.611 4.611 0 0 0-4.611 4.611 4.611 4.611 0 0 0 4.611 4.611 4.611 4.611 0 0 0 4.611-4.611 4.611 4.611 0 0 0-0.0162-0.31521 4.611 4.611 0 0 0 0.0162 2e-3 4.611 4.611 0 0 0 0.01076 0 4.611 4.611 0 0 0-0.01098 0.31355 4.611 4.611 0 0 0 4.611 4.611 4.611 4.611 0 0 0 4.611-4.611 4.611 4.611 0 0 0-4.611-4.611 4.611 4.611 0 0 0-0.0162 2e-3 4.611 4.611 0 0 0 0-2e-3 4.611 4.611 0 0 0 0.0162 0 4.611 4.611 0 0 0 4.611-4.611 4.611 4.611 0 0 0-4.611-4.611 4.611 4.611 0 0 0-4.6003 4.2976 4.611 4.611 0 0 0-0.01075 0 4.611 4.611 0 0 0-0.0162 0 4.611 4.611 0 0 0-4.5944-4.2974zm9.2132 2.7432a1.8446 1.8446 0 0 1 1.704 2.5937c-0.54041 1.2606-1.008 2.5416-1.9404 3.6999-0.93142 1.1574-2.5287 2.0298-4.3657 2.0298-1.1024 0-1.0911 0.04956-1.3887 0.39986-0.29761 0.35029-0.79014 1.4074-1.5328 3.1052a1.8446 1.8446 0 1 1-3.379-1.4774c0.72134-1.6489 1.15-2.8975 2.0999-4.0162 0.95079-1.1186 2.5361-1.7005 4.2007-1.7005 0.92967 0 1.0865-0.14857 1.4931-0.65384 0.40667-0.50527 0.86175-1.5293 1.423-2.8386a1.8446 1.8446 0 0 1 1.6858-1.1421zm-9.2128 0.02342a1.8444 1.8444 0 0 1 1.8444 1.8444 1.8444 1.8444 0 0 1-1.8444 1.8444 1.8444 1.8444 0 0 1-1.8444-1.8444 1.8444 1.8444 0 0 1 1.8444-1.8444zm9.222 9.222a1.8444 1.8444 0 0 1 1.8444 1.8444 1.8444 1.8444 0 0 1-1.8444 1.8444 1.8444 1.8444 0 0 1-1.8444-1.8444 1.8444 1.8444 0 0 1 1.8444-1.8444z"/>
<path d="m13.309 9.7561a4.611 4.611 0 0 0-4.611 4.611 4.611 4.611 0 0 0 4.611 4.611 4.611 4.611 0 0 0-4.611 4.611 4.611 4.611 0 0 0 4.611 4.611 4.611 4.611 0 0 0 4.611-4.611 4.611 4.611 0 0 0-0.0162-0.31521 4.611 4.611 0 0 0 0.0162 2e-3 4.611 4.611 0 0 0 0.01076 0 4.611 4.611 0 0 0-0.01098 0.31355 4.611 4.611 0 0 0 4.611 4.611 4.611 4.611 0 0 0 4.611-4.611 4.611 4.611 0 0 0-4.611-4.611 4.611 4.611 0 0 0-0.0162 2e-3 4.611 4.611 0 0 0 0-2e-3 4.611 4.611 0 0 0 0.0162 0 4.611 4.611 0 0 0 4.611-4.611 4.611 4.611 0 0 0-4.611-4.611 4.611 4.611 0 0 0-4.6003 4.2976 4.611 4.611 0 0 0-0.01075 0 4.611 4.611 0 0 0-0.0162 0 4.611 4.611 0 0 0-4.5944-4.2974zm9.2132 2.7432a1.8446 1.8446 0 0 1 1.704 2.5937c-0.54041 1.2606-1.008 2.5416-1.9404 3.6999-0.93142 1.1574-2.5287 2.0298-4.3657 2.0298-1.1024 0-1.0911 0.04956-1.3887 0.39986-0.29761 0.35029-0.79014 1.4074-1.5328 3.1052a1.8446 1.8446 0 1 1-3.379-1.4774c0.72134-1.6489 1.15-2.8975 2.0999-4.0162 0.95079-1.1186 2.5361-1.7005 4.2007-1.7005 0.92967 0 1.0865-0.14857 1.4931-0.65384 0.40667-0.50527 0.86175-1.5293 1.423-2.8386a1.8446 1.8446 0 0 1 1.6858-1.1421zm-9.2128 0.02342a1.8444 1.8444 0 0 1 1.8444 1.8444 1.8444 1.8444 0 0 1-1.8444 1.8444 1.8444 1.8444 0 0 1-1.8444-1.8444 1.8444 1.8444 0 0 1 1.8444-1.8444zm9.222 9.222a1.8444 1.8444 0 0 1 1.8444 1.8444 1.8444 1.8444 0 0 1-1.8444 1.8444 1.8444 1.8444 0 0 1-1.8444-1.8444 1.8444 1.8444 0 0 1 1.8444-1.8444z"/>
</g>
<path d="m12.292 7.359a4.611 4.611 0 0 0-4.611 4.611 4.611 4.611 0 0 0 4.611 4.611 4.611 4.611 0 0 0-4.611 4.611 4.611 4.611 0 0 0 4.611 4.611 4.611 4.611 0 0 0 4.611-4.611 4.611 4.611 0 0 0-0.0162-0.31521 4.611 4.611 0 0 0 0.0162 2e-3 4.611 4.611 0 0 0 0.01076 0 4.611 4.611 0 0 0-0.01098 0.31355 4.611 4.611 0 0 0 4.611 4.611 4.611 4.611 0 0 0 4.611-4.611 4.611 4.611 0 0 0-4.611-4.611 4.611 4.611 0 0 0-0.0162 2e-3 4.611 4.611 0 0 0 0-2e-3 4.611 4.611 0 0 0 0.0162 0 4.611 4.611 0 0 0 4.611-4.611 4.611 4.611 0 0 0-4.611-4.611 4.611 4.611 0 0 0-4.6003 4.2976 4.611 4.611 0 0 0-0.01075 0 4.611 4.611 0 0 0-0.0162 0 4.611 4.611 0 0 0-4.5944-4.2974zm9.2132 2.7432a1.8446 1.8446 0 0 1 1.704 2.5937c-0.54041 1.2606-1.008 2.5416-1.9404 3.6999-0.93142 1.1574-2.5287 2.0298-4.3657 2.0298-1.1024 0-1.0911 0.04956-1.3887 0.39986-0.29761 0.35029-0.79014 1.4074-1.5328 3.1052a1.8446 1.8446 0 1 1-3.379-1.4774c0.72134-1.6489 1.15-2.8975 2.0999-4.0162 0.95079-1.1186 2.5361-1.7005 4.2007-1.7005 0.92967 0 1.0865-0.14857 1.4931-0.65384 0.40667-0.50527 0.86175-1.5293 1.423-2.8386a1.8446 1.8446 0 0 1 1.6858-1.1421zm-9.2128 0.02342a1.8444 1.8444 0 0 1 1.8444 1.8444 1.8444 1.8444 0 0 1-1.8444 1.8444 1.8444 1.8444 0 0 1-1.8444-1.8444 1.8444 1.8444 0 0 1 1.8444-1.8444zm9.222 9.222a1.8444 1.8444 0 0 1 1.8444 1.8444 1.8444 1.8444 0 0 1-1.8444 1.8444 1.8444 1.8444 0 0 1-1.8444-1.8444 1.8444 1.8444 0 0 1 1.8444-1.8444z" fill="url(#linearGradient1156)" stroke-width=".4611"/>
</svg>
