<svg width="128" height="128" version="1.1" viewBox="0 0 33.867 33.867" xmlns="http://www.w3.org/2000/svg" xmlns:osb="http://www.openswatchbook.org/uri/2009/osb" xmlns:xlink="http://www.w3.org/1999/xlink">
<defs>
<linearGradient id="linearGradient5054">
<stop stop-color="#d1dee5" offset="0"/>
<stop stop-color="#f6fbff" offset="1"/>
</linearGradient>
<linearGradient id="linearGradient5042" x1="-517.26" x2="-158.21" y1="-264.23" y2="168.43" gradientUnits="userSpaceOnUse">
<stop stop-color="#1585f3" offset="0"/>
<stop stop-color="#4cbcfb" offset="1"/>
</linearGradient>
<linearGradient id="linearGradient5056" x1="-94.844" x2="-276.97" y1="28.729" y2="285.19" gradientUnits="userSpaceOnUse" xlink:href="#linearGradient5054"/>
<linearGradient id="linearGradient1306" x1="-612.4" x2="-158.21" y1="-379.95" y2="168.43" gradientUnits="userSpaceOnUse">
<stop stop-color="#0e7bed" offset="0"/>
<stop stop-color="#58c5fa" offset="1"/>
</linearGradient>
</defs>
<g transform="translate(0 -263.13)">
<g transform="matrix(.053307 0 0 -.053307 32.54 277.41)" opacity=".25" stroke-width="3.8995">
<path d="m0 0c0-134.36-135.54-243.28-302.74-243.28-27.31 0-53.77 2.91-78.94 8.36-0.02 0.01-0.03 0.01-0.05 0.01-0.06 0.01-0.12 0.02-0.19 0.03-7.33 1.52-10.83-1.49-18.83-8.4-42.5-36.08-90.67-52.09-133.5-52.09s-45.83 9-45.83 13.83c0 4.84 3 6.67 8 8.67 57.5 20.83 60.833 60.323 60.833 79.493-0.167 9.333-2.334 16.997-10.833 25.697-51.67 43.64-83.39 102.69-83.39 167.68 0 134.37 135.54 243.29 302.73 243.29 167.2 0 302.74-108.92 302.74-243.29"/>
</g>
<g transform="matrix(.053307 0 0 -.053307 32.729 295.7)" opacity=".25" stroke-width="3.8995">
<path d="m0 0c0-2.75-2.04-5.17-6.12-6.5-53.17-16.17-106.25 28.12-111.5 32.75-2.25 2.13-6.8 3.25-9.6 2.62-16.15-3.5-33.131-5.37-50.65-5.37-107.28 0-194.25 70.07-194.25 156.5s86.97 156.5 194.25 156.5 194.25-70.07 194.25-156.5c0-41.37-19.92-78.98-52.45-106.95-0.05-0.05-0.1-0.1-0.16-0.15-7.44-6.76-7.73-13.23-7.89-20.07 0-36.5 38.75-47.58 40.25-47.95 1.5-0.38 3.87-2.13 3.87-4.88"/>
</g>
<g transform="matrix(.053307 0 0 -.053307 32.54 276.86)" fill="url(#linearGradient5042)" stroke="#10549f" stroke-width="1.8759">
<path d="m0 0c0-134.36-135.54-243.28-302.74-243.28-27.31 0-53.77 2.91-78.94 8.36-0.02 0.01-0.03 0.01-0.05 0.01-0.06 0.01-0.12 0.02-0.19 0.03-7.33 1.52-10.83-1.49-18.83-8.4-42.5-36.08-90.67-52.09-133.5-52.09s-45.83 9-45.83 13.83c0 4.84 3 6.67 8 8.67 57.5 20.83 60.833 60.323 60.833 79.493-0.167 9.333-2.334 16.997-10.833 25.697-51.67 43.64-83.39 102.69-83.39 167.68 0 134.37 135.54 243.29 302.73 243.29 167.2 0 302.74-108.92 302.74-243.29" fill="url(#linearGradient1306)" stroke="#10549f" stroke-width="1.8759"/>
</g>
<path d="m12.562 271.1v3.8405h-3.8405v1.9202h3.8405v3.8405h-3.8405v1.9203h3.8405v3.8405h1.9203v-3.8405h3.8405v3.8405h1.9203v-3.8405h3.8405v-1.9203h-3.8405v-3.8405h3.8405v-1.9202h-3.8405v-3.8405h-1.9203v3.8405h-3.8405v-3.8405zm1.9203 5.7608h3.8405v3.8405h-3.8405z" opacity=".25" stroke-width=".25786"/>
<path d="m12.562 270.57v3.8405h-3.8405v1.9202h3.8405v3.8405h-3.8405v1.9203h3.8405v3.8405h1.9203v-3.8405h3.8405v3.8405h1.9203v-3.8405h3.8405v-1.9203h-3.8405v-3.8405h3.8405v-1.9202h-3.8405v-3.8405h-1.9203v3.8405h-3.8405v-3.8405zm1.9203 5.7608h3.8405v3.8405h-3.8405z" fill="#fff" stroke-width=".25786"/>
<g transform="matrix(.053307 0 0 -.053307 32.729 295.16)" fill="url(#linearGradient5056)" stroke="#10549f" stroke-width="1.8759">
<path d="m0 0c0-2.75-2.04-5.17-6.12-6.5-53.17-16.17-106.25 28.12-111.5 32.75-2.25 2.13-6.8 3.25-9.6 2.62-16.15-3.5-33.131-5.37-50.65-5.37-107.28 0-194.25 70.07-194.25 156.5s86.97 156.5 194.25 156.5 194.25-70.07 194.25-156.5c0-41.37-19.92-78.98-52.45-106.95-0.05-0.05-0.1-0.1-0.16-0.15-7.44-6.76-7.73-13.23-7.89-20.07 0-36.5 38.75-47.58 40.25-47.95 1.5-0.38 3.87-2.13 3.87-4.88" fill="url(#linearGradient5056)" stroke="#10549f" stroke-width="1.8759"/>
</g>
<circle cx="19.821" cy="283.5" r="1.5219" fill="#10549f"/>
<circle cx="27.571" cy="283.5" r="1.5219" fill="#10549f"/>
</g>
</svg>
