<svg width="128" height="128" version="1.1" viewBox="0 0 33.867 33.867" xmlns="http://www.w3.org/2000/svg" xmlns:xlink="http://www.w3.org/1999/xlink">
<defs>
<radialGradient id="radialGradient1506" cx="17.081" cy="3.8306" r="14.544" gradientTransform="matrix(2.7895 0 0 1.8353 -30.612 -3.2437)" gradientUnits="userSpaceOnUse">
<stop stop-color="#f57168" offset="0"/>
<stop stop-color="#ff0040" offset="1"/>
</radialGradient>
<linearGradient id="linearGradient12424" x1="11.56" x2="11.56" y1="12.069" y2="7.4481" gradientTransform="matrix(3.121 0 0 3.121 -10.274 -12.636)" gradientUnits="userSpaceOnUse">
<stop stop-color="#fd1547" offset="0"/>
<stop stop-color="#f8555e" offset="1"/>
</linearGradient>
<linearGradient id="linearGradient1738" x1="28.564" x2="28.564" y1="34.86" y2="4.8901" gradientUnits="userSpaceOnUse">
<stop stop-color="#3c1c00" offset="0"/>
<stop stop-color="#1e1616" offset="1"/>
</linearGradient>
</defs>
<g transform="matrix(.97573 0 0 .97573 -65.794 -37.247)" fill="none" opacity=".295" stroke="#000" stroke-linecap="round" stroke-linejoin="round" stroke-opacity=".02">
<rect x="69.84" y="40.71" width="29.811" height="29.811" rx="6.6099" ry="6.6099" stroke-width=".1"/>
<rect x="69.84" y="40.71" width="29.811" height="29.811" rx="6.6099" ry="6.6099" stroke-width=".2"/>
<rect x="69.84" y="40.71" width="29.811" height="29.811" rx="6.6099" ry="6.6099" stroke-width=".3"/>
<rect x="69.84" y="40.71" width="29.811" height="29.811" rx="6.6099" ry="6.6099" stroke-width=".4"/>
<rect x="69.84" y="40.71" width="29.811" height="29.811" rx="6.6099" ry="6.6099" stroke-width=".5"/>
<rect x="69.84" y="40.71" width="29.811" height="29.811" rx="6.6099" ry="6.6099" stroke-width=".6"/>
<rect x="69.84" y="40.71" width="29.811" height="29.811" rx="6.6099" ry="6.6099" stroke-width=".7"/>
<rect x="69.84" y="40.71" width="29.811" height="29.811" rx="6.6099" ry="6.6099" stroke-width=".8"/>
<rect x="69.84" y="40.71" width="29.811" height="29.811" rx="6.6099" ry="6.6099"/>
<rect x="69.84" y="40.71" width="29.811" height="29.811" rx="6.6099" ry="6.6099" stroke-width="1.2"/>
<rect x="69.84" y="40.71" width="29.811" height="29.811" rx="6.6099" ry="6.6099" stroke-width="1.4"/>
<rect x="69.84" y="40.71" width="29.811" height="29.811" rx="6.6099" ry="6.6099" stroke-width="1.6"/>
<rect x="69.84" y="40.71" width="29.811" height="29.811" rx="6.6099" ry="6.6099" stroke-width="1.8"/>
<rect x="69.84" y="40.71" width="29.811" height="29.811" rx="6.6099" ry="6.6099" stroke-width="2"/>
<rect x="69.84" y="40.71" width="29.811" height="29.811" rx="6.6099" ry="6.6099" stroke-width="2.2"/>
<rect x="69.84" y="40.71" width="29.811" height="29.811" rx="6.6099" ry="6.6099" stroke-width="2.6"/>
<rect x="69.84" y="40.71" width="29.811" height="29.811" rx="6.6099" ry="6.6099" stroke-width="3"/>
<rect x="69.84" y="40.71" width="29.811" height="29.811" rx="6.6099" ry="6.6099" stroke-width="3.4"/>
<rect x="69.84" y="40.71" width="29.811" height="29.811" rx="6.6099" ry="6.6099" stroke-width="3.8"/>
<rect x="69.84" y="40.71" width="29.811" height="29.811" rx="6.6099" ry="6.6099" stroke-width="4.2"/>
<rect x="69.84" y="40.71" width="29.811" height="29.811" rx="6.6099" ry="6.6099" stroke-width="4.6"/>
<rect x="69.84" y="40.71" width="29.811" height="29.811" rx="6.6099" ry="6.6099" stroke-width="5"/>
</g>
<path d="m8.8001 2.4746h16.189c3.573 0 6.4495 2.8765 6.4495 6.4495v16.189c0 3.573-2.8765 6.4495-6.4495 6.4495h-16.189c-3.573 0-6.4495-2.8765-6.4495-6.4495v-16.189c0-3.573 2.8765-6.4495 6.4495-6.4495z" fill="url(#radialGradient1506)" stroke-linecap="round" stroke-linejoin="round" stroke-width="2.688"/>
<path d="m18.918 2.4746h6.0707c3.573 0 6.4495 2.8765 6.4495 6.4495v16.189c0 3.573-2.8765 6.4495-6.4495 6.4495h-6.0707z" fill="url(#linearGradient1738)" stroke-linecap="round" stroke-linejoin="round" stroke-width="2.688"/>
<path d="m25.202 10.549a3.0172 3.0172 0 0 0-3.0172 3.0172 3.0172 3.0172 0 0 0 3.0172 3.0172 3.0172 3.0172 0 0 0 3.0172-3.0172 3.0172 3.0172 0 0 0-3.0172-3.0172zm-1.2069 1.2069a0.60345 0.60345 0 0 1 0.60345 0.60345 0.60345 0.60345 0 0 1-0.60345 0.60345 0.60345 0.60345 0 0 1-0.60344-0.60345 0.60345 0.60345 0 0 1 0.60344-0.60345zm-1.2069 7.2411c-0.33432 0-0.60345 0.26912-0.60345 0.60345v1.2069c0 0.33429 0.26912 0.60344 0.60345 0.60344h1.2069c0.33432 0 0.60345-0.26912 0.60345-0.60344v-1.2069c0-0.33432-0.26915-0.60345-0.60345-0.60345zm3.6207 0c-0.33433 0-0.60345 0.26912-0.60345 0.60345v1.2069c0 0.33429 0.26912 0.60344 0.60345 0.60344h1.2069c0.33432 0 0.60345-0.26912 0.60345-0.60344v-1.2069c0-0.33432-0.26912-0.60345-0.60345-0.60345zm-3.6207 3.6207c-0.33432 0-0.60345 0.26915-0.60345 0.60345v1.2069c0 0.33433 0.26912 0.60345 0.60345 0.60345h1.2069c0.33432 0 0.60345-0.26912 0.60345-0.60345v-1.2069c0-0.33432-0.26915-0.60345-0.60345-0.60345zm3.6207 0c-0.33433 0-0.60345 0.26915-0.60345 0.60345v1.2069c0 0.33433 0.26912 0.60345 0.60345 0.60345h1.2069c0.33432 0 0.60345-0.26912 0.60345-0.60345v-1.2069c0-0.33432-0.26912-0.60345-0.60345-0.60345z" fill="url(#linearGradient12424)" stroke-width="1.2069"/>
<path d="m11.502 8.4478a5.9589 5.9589 0 0 0-3.7272 1.3242h7.4719a5.9589 5.9589 0 0 0-3.745-1.3242zm-4.9477 2.6484a5.9589 5.9589 0 0 0-0.65692 1.3242h11.222a5.9589 5.9589 0 0 0-0.66212-1.3242zm-0.96471 2.6484a5.9589 5.9589 0 0 0-0.046545 0.66212 5.9589 5.9589 0 0 0 0.046545 0.66212h11.825a5.9589 5.9589 0 0 0 0.04654-0.66212 5.9589 5.9589 0 0 0-0.0388-0.66212zm0.30777 2.6484a5.9589 5.9589 0 0 0 0.65692 1.3242h9.8954a5.9589 5.9589 0 0 0 0.65692-1.3242zm1.8777 2.6484a5.9589 5.9589 0 0 0 3.7272 1.3242 5.9589 5.9589 0 0 0 3.7272-1.3242zm-1.5699 3.9727c-0.3668 0-0.66212 0.29529-0.66212 0.66212v1.3242c0 0.36683 0.2953 0.66212 0.66212 0.66212h1.9863v-0.66212c0-0.3668 0.2953-0.66212 0.66212-0.66212 0.3668 0 0.66212 0.29529 0.66212 0.66212v0.66212h7.2832c0.3668 0 0.66212-0.29532 0.66212-0.66212v-1.3242c0-0.36683-0.29529-0.66212-0.66212-0.66212z" fill="#100e12" fill-opacity=".77517" stroke-width="1.3242"/>
</svg>
