<svg width="170.67" height="170.67" version="1.1" viewBox="0 0 170.67 170.67" xmlns="http://www.w3.org/2000/svg" xmlns:xlink="http://www.w3.org/1999/xlink">
<defs>
<linearGradient id="linearGradient1248">
<stop stop-color="#a6a7a7" offset="0"/>
<stop stop-color="#686760" stop-opacity="0" offset="1"/>
</linearGradient>
<linearGradient id="linearGradient1250" x1="97.103" x2="98.018" y1="147.88" y2="154.38" gradientUnits="userSpaceOnUse">
<stop stop-color="#acafac" offset="0"/>
<stop stop-color="#686760" offset="1"/>
</linearGradient>
<linearGradient id="linearGradient1273" x1="45.036" x2="96.934" y1="158.36" y2="153.66" gradientUnits="userSpaceOnUse" xlink:href="#linearGradient1248"/>
<linearGradient id="linearGradient1281" x1="137.24" x2="96.934" y1="132.69" y2="153.66" gradientUnits="userSpaceOnUse" xlink:href="#linearGradient1248"/>
<filter id="filter1342" x="-.022498" y="-.020771" width="1.045" height="1.0415" color-interpolation-filters="sRGB">
<feGaussianBlur stdDeviation="1.2103751"/>
</filter>
<linearGradient id="linearGradient1401" x1="140.71" x2="157.68" y1="213.09" y2="213.45" gradientTransform="matrix(1.0732 0 0 1.0732 -149.64 13.608)" gradientUnits="userSpaceOnUse">
<stop stop-color="#69777e" offset="0"/>
<stop stop-color="#7c8a8e" offset="1"/>
</linearGradient>
<filter id="filter1409" x="-.0094774" y="-.0097258" width="1.019" height="1.0195" color-interpolation-filters="sRGB">
<feGaussianBlur stdDeviation="0.57345633"/>
</filter>
</defs>
<path transform="matrix(1.0732 0 0 1.0732 -6.9033 -8.9291)" d="m16.184 38.654 119.69-18.377c2.8062-0.43926 2.8319-0.53471 3.6158 3.6158l19.45 118.24-125.86 19.449-19.065-117.87c-0.55115-3.7877-0.59393-4.4876 2.1695-5.0621z" fill-opacity=".475" filter="url(#filter1409)"/>
<path d="m11.014 32.623 127.28-19.791c3.0117-0.47141 3.0392-0.57385 3.8805 3.8805l20.179 123.79-134.27 20.179-19.403-122.62c-0.5915-4.065-0.63741-4.8161 2.3283-5.4327z" fill="url(#linearGradient1401)"/>
<path transform="matrix(1.0732 0 0 1.0732 -6.9033 -8.9291)" d="m19.384 38.004 112.24-17.897 17.392 112.53-110.99 19.909z" fill-opacity=".7125" filter="url(#filter1342)"/>
<path transform="matrix(1.0732 0 0 1.0732 -6.9033 -8.9291)" d="m27.884 38.754 97.742-17.897 22.142 117.78-107.99 17.409z" fill-opacity=".22083" filter="url(#filter1342)"/>
<path d="m14.723 23.9 117.17-19.208 19.756 120.73-119.64 19.756z" fill="#fafafa"/>
<path d="m131.89 4.6932-117.17 19.207 5.2382 36.753 118.08-18.379z" fill="#e8574f"/>
<g transform="matrix(1.0732 0 0 1.0732 -12.442 -22.887)">
<path d="m41.42 156.6 1.7897 6.3919 109.3-19.431 0.3835-5.3692c-36.65 4.9824-74.489 12.797-111.48 18.409z" fill="url(#linearGradient1250)"/>
<path d="m41.42 156.6 1.7897 6.3919 109.3-19.431 0.3835-5.3692c-36.65 7.2213-74.489 13.878-111.48 18.409z" fill="url(#linearGradient1273)"/>
<path d="m41.42 156.6 1.7897 6.3919 109.3-19.431 0.3835-5.3692c-36.65 7.2213-74.489 13.878-111.48 18.409z" fill="url(#linearGradient1281)"/>
</g>
<path d="m140.05 12.613c-0.35854 0.0051-0.83155 0.07812-1.3918 0.16559l21.743 128.02 1.9494-0.29345-20.177-123.79c-0.63098-3.3408-0.80562-4.1189-2.1234-4.1z" fill="#fff" fill-opacity=".25"/>
<path d="m28.088 160.68 1.3144 1.7896 132.71-20.502 0.24192-1.4673z" fill="#1f2427"/>
<path d="m56.201 82.013 0.13415 2.4147 13.281-1.2074 6.8417 38.904 3.7562-0.67075-7.9149-52.185-3.7562 0.67075c0.89169 10.667-6.0678 10.578-12.342 12.074z" fill="#525252"/>
<path d="m85.848 67.659v3.6221l28.172-3.7562c-15.988 25.458-13.289 41.338-12.878 50.441l4.6953-0.5366c-2.9924-21.96 4.5346-36.272 12.744-50.038l-0.5366-5.366z" fill="#525252"/>
<path d="m65.267 23.694 0.5237 2.7895-1.8597 0.34913 0.31416 1.6734 1.8597-0.34913 1.9027 10.135-2.1386 0.40149 0.31416 1.6734 11.53-2.1645-0.31416-1.6734-1.7665 0.33164-1.9027-10.135 1.8591-0.34903-0.31416-1.6734-1.8591 0.34903-0.5237-2.7895-1.8597 0.34913 0.5237 2.7895-3.9051 0.73314-0.5237-2.7895zm-23.233 4.9392 1.606 8.5543 7.3455-1.379 0.41898 2.2317-5.207 0.97755 0.29588-1.4998-1.8887-0.3193c-0.39472 1.9992-1.2581 3.8937-2.5905 5.684l1.9178 0.98773c0.66617-0.89513 1.2162-1.8966 1.6498-3.0047l6.1368-1.1521 0.40149 2.1386-7.2524 1.3616 0.31416 1.6734 7.2524-1.3616 0.41898 2.2317-9.4841 1.7805 0.33164 1.7665 20.456-3.8404-0.33165-1.7665-9.0195 1.6933-0.41898-2.2317 7.4387-1.3965-0.31416-1.6734-7.4387 1.3965-0.40149-2.1386 8.1822-1.5361-0.31426-1.6739-8.1822 1.5361-0.41888-2.2312 6.9735-1.3092-1.606-8.5543zm41.783-7.6514-7.9032 1.4843 2.0248 10.785c0.5935 3.1613 0.39053 6.1832-0.60837 9.0658l1.9009 0.89447c0.80915-2.5262 1.1009-5.2438 0.87553-8.1534l4.2771-0.80298 0.83786 4.4629c0.16293 0.86783-0.0038 1.3485-0.49968 1.4416-0.55787 0.10474-1.3501 0.15687-2.3768 0.1569l0.83172 1.8649c0.95306-0.05063 1.7083-0.12784 2.2661-0.23257 0.74383-0.13965 1.2613-0.46136 1.5517-0.96521 0.29045-0.50374 0.35408-1.1898 0.19117-2.0575zm4.5676-0.28007 0.33164 1.7665 7.4381-1.3964-0.25402 5.8228-5.3001 0.99504 0.33164 1.7665 4.9281-0.9252-0.2304 8.5139-4.9281 0.92519 0.33164 1.7665 20.827-3.9101-0.33163-1.7665-2.9753 0.55857-1.8678-9.9488-8.9258 1.6757 0.25402-5.8228 9.6699-1.8154-0.33166-1.7665zm-44.176 9.2563 12.552-2.3565 0.34903 1.8591-12.552 2.3565zm33.99-6.0925 4.0908-0.76801 0.73314 3.9051-4.0908 0.76801zm-10.233 3.9422 3.9051-0.73314 0.43636 2.3243-3.9051 0.73314zm-23.129 5.497 12.552-2.3565 0.34913 1.8597-12.552 2.3565zm34.409-3.8608 4.0908-0.76801 0.73314 3.9051-4.0908 0.76801zm-10.547 2.2689 3.9051-0.73314 0.43636 2.3243-3.9051 0.73314zm29.022-3.331 7.4381-1.3964 1.5361 8.1822-9.2046 1.7281zm-28.288 7.2361 3.9051-0.73314 0.43647 2.3249-3.9051 0.73314zm0.55907 4.5158c-0.6467 1.3406-1.5959 2.6094-2.847 3.8069l1.6912 1.319c1.1891-1.1858 2.1651-2.6527 2.9279-4.4001zm4.4629-0.83786-1.3132 1.2086c0.98038 0.77852 1.8114 1.6175 2.4934 2.5162l1.3306-1.116c-0.69373-0.96069-1.5305-1.8303-2.5108-2.6087z" fill="#fff"/>
</svg>
