<svg width="128" height="128" version="1.1" viewBox="0 0 128 128" xmlns="http://www.w3.org/2000/svg" xmlns:xlink="http://www.w3.org/1999/xlink">
<defs>
<linearGradient id="linearGradient825" x1="-741.83" x2="-741.83" y1="959.05" y2="93.836" gradientTransform="matrix(.13668 0 0 .13668 162.12 -6.0373)" gradientUnits="userSpaceOnUse">
<stop stop-color="#e04800" offset="0"/>
<stop stop-color="#ff6900" offset="1"/>
</linearGradient>
<linearGradient id="linearGradient835" x1="-738.76" x2="-738.76" y1="931.43" y2="152.13" gradientTransform="matrix(.13668 0 0 .13668 162.31 -5.9893)" gradientUnits="userSpaceOnUse">
<stop stop-color="#ff5000" offset="0"/>
<stop stop-color="#ff6900" offset="1"/>
</linearGradient>
</defs>
<circle cx="63.4" cy="64.238" r="61.38" fill="url(#linearGradient825)"/>
<circle cx="63.592" cy="64.286" r="55.09" fill="url(#linearGradient835)"/>
<path d="m45.879 37.956c-0.19259 0.0029-0.40974 0.01838-0.65917 0.03475-0.94534 0.06034-18.785 3.4005-19.92 3.73-1.2003 0.34814-2.2254 1.0836-2.4755 1.7814-0.42647 1.1858 0.80951 5.0396 2.4411 7.6272 6.5089 7.7294 13.736 9.6934 20.818 13.858 0.81284 0.95285 1.1338 1.4128-5.1013 4.1735-9.745 4.3151-12.899 7.9852-14.766 13.415-0.55118 1.6044-0.80729 5.847-0.41867 6.9146 0.50438 1.3839 0.8084 1.6626 10.224-0.12352 9.4584-1.7943 8.6763-1.8993 9.4651-2.6466 0.64248-0.6087 0.67922-0.75551 0.95982-3.6355 0.16166-1.6503 0.4955-4.8728 0.74044-5.7265 0.5679-1.9825 1.9963-4.0529 3.5519-5.1478 5.8997-4.1522 17.004-2.0816 23.013 4.2899 2.2642 2.4007 3.6859 5.8275 4.8206 9.5509 0.65471 2.1483 1.3196 3.0811 2.3521 3.2865 0.94984 0.18868 0.97321-0.10834 13.008-2.3935 6.6945-1.2711 9.4805-1.8893 9.8744-2.1958 0.84621-0.65909 0.84954-2.2719 6e-3 -4.937-1.4467-4.5791-3.9566-7.6231-8.6055-11.145-2.2999-1.7423-5.204-3.3895-10.121-5.7441-4.6769-2.2395-6.9044-2.8454-6.9044-3.5409 0-0.57508 1.8369-0.83132 5.5467-1.9413 8.129-2.4327 12.046-5.8454 12.046-12.164 0-2.773-0.52331-5.0107-1.3371-5.7368-1.0823-0.96568-2.9829-0.99626-7.5274-0.17435-14.568 2.6342-13.564 2.5315-14.242 3.6282-0.35853 0.57996-0.34292 0.71606 0.31622 3.3519 0.37747 1.5111 0.68147 3.4016 0.67922 3.8401-0.0058 0.93273-1.2176 2.4909-1.8103 3.0465-1.4503 1.3587-4.7377 2.2831-8.1051 2.2831-4.0729 0-7.1416-1.4001-10.19-4.6461-2.2025-2.3455-3.3269-4.6152-4.8275-8.7916-1.3177-3.668-1.4984-4.1462-2.8526-4.1226z" fill="#fff" stroke-width="2.918"/>
</svg>
