<svg width="128" height="128" version="1.1" viewBox="0 0 33.867 33.867" xmlns="http://www.w3.org/2000/svg" xmlns:xlink="http://www.w3.org/1999/xlink">
<defs>
<linearGradient id="linearGradient897" x1="2686" x2="2686" y1="1088.8" y2="1770.4" gradientTransform="matrix(.042779 0 0 .042779 -95.919 -44.867)" gradientUnits="userSpaceOnUse">
<stop stop-color="#52f365" offset="0"/>
<stop stop-color="#008e98" offset="1"/>
</linearGradient>
<radialGradient id="radialGradient898" cx="60.636" cy="20.456" r="17.304" gradientTransform="translate(-43.433 -3.9449)" gradientUnits="userSpaceOnUse">
<stop stop-color="#0b0b0b" offset="0"/>
<stop stop-color="#0b0b0b" stop-opacity=".85882" offset=".68076"/>
<stop stop-color="#0b0b0b" stop-opacity=".83137" offset=".69925"/>
<stop stop-color="#0b0b0b" stop-opacity=".80392" offset=".71879"/>
<stop stop-color="#0b0b0b" stop-opacity=".78039" offset=".73593"/>
<stop stop-color="#0b0b0b" stop-opacity=".75686" offset=".75022"/>
<stop stop-color="#0b0b0b" stop-opacity=".73333" offset=".76799"/>
<stop stop-color="#0b0b0b" stop-opacity=".082353" offset=".91501"/>
<stop stop-color="#0b0b0b" stop-opacity=".070588" offset=".92247"/>
<stop stop-color="#0b0b0b" stop-opacity=".058824" offset=".92919"/>
<stop stop-color="#0b0b0b" stop-opacity=".047059" offset=".93841"/>
<stop stop-color="#0b0b0b" stop-opacity=".031373" offset=".94761"/>
<stop stop-color="#0b0b0b" stop-opacity=".023529" offset=".95381"/>
<stop stop-color="#0b0b0b" stop-opacity=".015686" offset=".95886"/>
<stop stop-color="#0b0b0b" stop-opacity=".011765" offset=".96356"/>
<stop stop-color="#0b0b0b" stop-opacity=".0078431" offset=".96845"/>
<stop stop-color="#0b0b0b" stop-opacity=".0039216" offset=".97348"/>
<stop stop-color="#0b0b0b" stop-opacity="0" offset=".97812"/>
<stop stop-color="#0b0b0b" stop-opacity="0" offset=".98456"/>
<stop stop-color="#0b0b0b" stop-opacity="0" offset=".98701"/>
<stop stop-color="#0b0b0b" stop-opacity="0" offset=".98925"/>
<stop stop-color="#0b0b0b" stop-opacity="0" offset="1"/>
</radialGradient>
<radialGradient id="radialGradient993" cx="16.968" cy="4.6709" r="13.696" gradientTransform="matrix(4.8886 0 0 1.5421 -65.724 -.93385)" gradientUnits="userSpaceOnUse">
<stop stop-color="#6ae787" offset="0"/>
<stop stop-color="#01ada2" offset="1"/>
</radialGradient>
<linearGradient id="linearGradient1634" x1="11.808" x2="11.808" y1="7.7022" y2="55.343" gradientTransform="translate(-.37716 -.65217)" gradientUnits="userSpaceOnUse">
<stop stop-color="#fff" offset="0"/>
<stop stop-color="#00aab7" offset="1"/>
</linearGradient>
</defs>
<circle cx="17.203" cy="16.512" r="17.304" fill="url(#radialGradient898)" opacity=".30973" stroke-linecap="square" stroke-linejoin="round" stroke-width="3"/>
<circle cx="17.203" cy="16.512" r="15.118" fill="url(#linearGradient897)" stroke="#b1aaaa" stroke-linecap="square" stroke-opacity=".99216" stroke-width=".057556"/>
<circle cx="17.203" cy="16.512" r="13.102" fill="url(#radialGradient993)"/>
<g transform="translate(-.37716 -.65217)" fill="#000e3c" fill-opacity=".028941">
<path d="m18.329 27.977c0.32441-0.69275 1.0699-1.2801 1.2919-2.0526 0.27273-0.71721 0.18506-1.5816-0.54183-2.001-0.25833-0.21942-0.65148-0.07461-0.96958-0.13257-1.6091-0.05603-3.391 0.0307-4.6941-1.0802-1.3204-1.1636-1.4406-3.1936-1.1769-4.8169 0.55916-2.7904 2.5351-5.0308 4.6522-6.83 0.29834-0.26744 1.2532-1.4037 0.33204-1.3224-1.3986-0.06228-4.5762-0.04478-4.5762-0.04478v-2.0642h9.9115v2.0642c-2.3908 1.5122-4.7808 3.5813-6.087 6.1439-0.62295 1.2134-0.8975 2.5171-0.33596 3.8 0.37116 0.75345 1.4478 1.0708 2.2492 1.0437 0.96152 0.10741 1.9866-0.07666 2.8982 0.29909 1.2608 0.54314 1.9171 1.9792 1.7792 3.2992-0.0544 1.2276-0.6901 2.7708-1.4724 3.6945z"/>
<path d="m18.498 28.442c0.32441-0.69275 1.0699-1.2801 1.2919-2.0526 0.27273-0.71721 0.18506-1.5816-0.54183-2.001-0.25833-0.21942-0.65148-0.07461-0.96958-0.13257-1.6091-0.05603-3.391 0.0307-4.6941-1.0802-1.3204-1.1636-1.4406-3.1936-1.1769-4.8169 0.55916-2.7904 2.5351-5.0308 4.6522-6.83 0.29834-0.26744 1.2532-1.4037 0.33204-1.3224-1.3986-0.06228-4.5762-0.04478-4.5762-0.04478v-2.0642h9.9115v2.0642c-2.3908 1.5122-4.7808 3.5813-6.087 6.1439-0.62295 1.2134-0.8975 2.5171-0.33596 3.8 0.37116 0.75345 1.4478 1.0708 2.2492 1.0437 0.96152 0.10741 1.9866-0.07666 2.8982 0.29909 1.2608 0.54314 1.9171 1.9792 1.7792 3.2992-0.0544 1.2276-0.6901 2.7708-1.4724 3.6945z"/>
<path d="m18.632 28.914c0.32441-0.69275 1.0699-1.2801 1.2919-2.0526 0.27273-0.71721 0.18506-1.5816-0.54183-2.001-0.25833-0.21942-0.65148-0.07461-0.96958-0.13257-1.6091-0.05603-3.391 0.0307-4.6941-1.0802-1.3204-1.1636-1.4406-3.1936-1.1769-4.8169 0.55916-2.7904 2.5351-5.0308 4.6522-6.83 0.29834-0.26744 1.2532-1.4037 0.33204-1.3224-1.3986-0.06228-4.5762-0.04478-4.5762-0.04478v-2.0642h9.9115v2.0642c-2.3908 1.5122-4.7808 3.5813-6.087 6.1439-0.62295 1.2134-0.8975 2.5171-0.33596 3.8 0.37116 0.75345 1.4478 1.0708 2.2492 1.0437 0.96152 0.10741 1.9866-0.07666 2.8982 0.29909 1.2608 0.54314 1.9171 1.9792 1.7792 3.2992-0.0544 1.2276-0.6901 2.7708-1.4724 3.6945z"/>
<path d="m18.767 29.722c0.32441-0.69275 1.0699-1.2801 1.2919-2.0526 0.27273-0.71721 0.18506-1.5816-0.54183-2.001-0.25833-0.21942-0.65148-0.07461-0.96958-0.13257-1.6091-0.05603-3.391 0.0307-4.6941-1.0802-1.3204-1.1636-1.4406-3.1936-1.1769-4.8169 0.55916-2.7904 2.5351-5.0308 4.6522-6.83 0.29834-0.26744 1.2532-1.4037 0.33204-1.3224-1.3986-0.06228-4.5762-0.04478-4.5762-0.04478v-2.0642h9.9115v2.0642c-2.3908 1.5122-4.7808 3.5813-6.087 6.1439-0.62295 1.2134-0.8975 2.5171-0.33596 3.8 0.37116 0.75345 1.4478 1.0708 2.2492 1.0437 0.96152 0.10741 1.9866-0.07666 2.8982 0.29909 1.2608 0.54314 1.9171 1.9792 1.7792 3.2992-0.0544 1.2276-0.6901 2.7708-1.4724 3.6945z"/>
</g>
<path d="m17.635 27.082c0.32441-0.69275 1.0699-1.2801 1.2919-2.0526 0.27273-0.71721 0.18506-1.5816-0.54183-2.001-0.25833-0.21942-0.65148-0.07461-0.96958-0.13257-1.6091-0.05603-3.391 0.0307-4.6941-1.0802-1.3204-1.1636-1.4406-3.1936-1.1769-4.8169 0.55916-2.7904 2.5351-5.0308 4.6522-6.83 0.29834-0.26744 1.2532-1.4037 0.33204-1.3224-1.3986-0.062284-4.5762-0.044776-4.5762-0.044776v-2.0642h9.9115v2.0642c-2.3908 1.5122-4.7808 3.5813-6.087 6.1439-0.62295 1.2134-0.8975 2.5171-0.33596 3.8 0.37116 0.75345 1.4478 1.0708 2.2492 1.0437 0.96152 0.10741 1.9866-0.07666 2.8982 0.29909 1.2608 0.54314 1.9171 1.9792 1.7792 3.2992-0.0544 1.2276-0.6901 2.7708-1.4724 3.6945z" fill="url(#linearGradient1634)"/>
</svg>
