<svg width="128" height="128" version="1.1" viewBox="0 0 33.867 33.867" xmlns="http://www.w3.org/2000/svg" xmlns:xlink="http://www.w3.org/1999/xlink">
<defs>
<radialGradient id="radialGradient963" cx="16.951" cy="2.5104" r="14.544" gradientTransform="matrix(7.1386 0 0 2.2345 -104.06 -3.0991)" gradientUnits="userSpaceOnUse">
<stop stop-color="#ff9c38" offset="0"/>
<stop stop-color="#ea3d1c" stop-opacity=".96863" offset="1"/>
</radialGradient>
</defs>
<g transform="matrix(.97573 0 0 .97573 -65.737 -37.183)" fill="none" opacity=".295" stroke="#000" stroke-linecap="round" stroke-linejoin="round" stroke-opacity=".02">
<rect x="69.84" y="40.71" width="29.811" height="29.811" rx="6.6099" ry="6.6099" stroke-width=".1"/>
<rect x="69.84" y="40.71" width="29.811" height="29.811" rx="6.6099" ry="6.6099" stroke-width=".2"/>
<rect x="69.84" y="40.71" width="29.811" height="29.811" rx="6.6099" ry="6.6099" stroke-width=".3"/>
<rect x="69.84" y="40.71" width="29.811" height="29.811" rx="6.6099" ry="6.6099" stroke-width=".4"/>
<rect x="69.84" y="40.71" width="29.811" height="29.811" rx="6.6099" ry="6.6099" stroke-width=".5"/>
<rect x="69.84" y="40.71" width="29.811" height="29.811" rx="6.6099" ry="6.6099" stroke-width=".6"/>
<rect x="69.84" y="40.71" width="29.811" height="29.811" rx="6.6099" ry="6.6099" stroke-width=".7"/>
<rect x="69.84" y="40.71" width="29.811" height="29.811" rx="6.6099" ry="6.6099" stroke-width=".8"/>
<rect x="69.84" y="40.71" width="29.811" height="29.811" rx="6.6099" ry="6.6099"/>
<rect x="69.84" y="40.71" width="29.811" height="29.811" rx="6.6099" ry="6.6099" stroke-width="1.2"/>
<rect x="69.84" y="40.71" width="29.811" height="29.811" rx="6.6099" ry="6.6099" stroke-width="1.4"/>
<rect x="69.84" y="40.71" width="29.811" height="29.811" rx="6.6099" ry="6.6099" stroke-width="1.6"/>
<rect x="69.84" y="40.71" width="29.811" height="29.811" rx="6.6099" ry="6.6099" stroke-width="1.8"/>
<rect x="69.84" y="40.71" width="29.811" height="29.811" rx="6.6099" ry="6.6099" stroke-width="2"/>
<rect x="69.84" y="40.71" width="29.811" height="29.811" rx="6.6099" ry="6.6099" stroke-width="2.2"/>
<rect x="69.84" y="40.71" width="29.811" height="29.811" rx="6.6099" ry="6.6099" stroke-width="2.6"/>
<rect x="69.84" y="40.71" width="29.811" height="29.811" rx="6.6099" ry="6.6099" stroke-width="3"/>
<rect x="69.84" y="40.71" width="29.811" height="29.811" rx="6.6099" ry="6.6099" stroke-width="3.4"/>
<rect x="69.84" y="40.71" width="29.811" height="29.811" rx="6.6099" ry="6.6099" stroke-width="3.8"/>
<rect x="69.84" y="40.71" width="29.811" height="29.811" rx="6.6099" ry="6.6099" stroke-width="4.2"/>
<rect x="69.84" y="40.71" width="29.811" height="29.811" rx="6.6099" ry="6.6099" stroke-width="4.6"/>
<rect x="69.84" y="40.71" width="29.811" height="29.811" rx="6.6099" ry="6.6099" stroke-width="5"/>
</g>
<rect x="2.4074" y="2.5392" width="29.087" height="29.087" rx="6.4495" ry="6.4495" fill="url(#radialGradient963)" stroke-linecap="round" stroke-linejoin="round" stroke-width="2.6877"/>
<g transform="matrix(1.1383 0 0 1.1383 -1.972 -2.5624)" stroke-width=".44979">
<path d="m16.624 13.69a4.4979 4.4979 0 0 0-4.4979 4.4979 4.4979 4.4979 0 0 0 4.4979 4.4979 4.4979 4.4979 0 0 0 4.4979-4.4979 4.4979 4.4979 0 0 0-4.4979-4.4979zm0 1.2851a3.2128 3.2128 0 0 1 3.2128 3.2128 3.2128 3.2128 0 0 1-3.2128 3.2128 3.2128 3.2128 0 0 1-3.2128-3.2128 3.2128 3.2128 0 0 1 3.2128-3.2128z" opacity=".2"/>
<path d="m16.624 13.24a4.4979 4.4979 0 0 0-4.4979 4.4979 4.4979 4.4979 0 0 0 4.4979 4.4979 4.4979 4.4979 0 0 0 4.4979-4.4979 4.4979 4.4979 0 0 0-4.4979-4.4979zm0 1.2851a3.2128 3.2128 0 0 1 3.2128 3.2128 3.2128 3.2128 0 0 1-3.2128 3.2128 3.2128 3.2128 0 0 1-3.2128-3.2128 3.2128 3.2128 0 0 1 3.2128-3.2128z" fill="#fff"/>
<path d="m16.354 9.1324c-3.0744 0.14494-5.494 2.6715-5.5111 5.7458-0.54919 0.27218-1.0679 0.62598-1.5253 1.0834-2.1478 2.153-2.262 5.6011-0.26112 7.8913-1.251-1.5335-1.1381-3.7651 0.26112-5.1646 1.5061-1.5061 3.9473-1.5061 5.4533 0 1.5061 1.5061 1.5061 3.9473 0 5.4533-1.4314 1.431-3.725 1.5123-5.2537 0.1858 1.9988 1.8189 4.9393 1.9841 7.1067 0.53353 2.1673 1.4505 5.1078 1.2853 7.1067-0.53353-1.5287 1.3265-3.8224 1.2453-5.2537-0.1858-1.5061-1.5061-1.5061-3.9473 0-5.4533 1.5061-1.5061 3.9473-1.5061 5.4533 0 1.3992 1.3995 1.5122 3.6311 0.26112 5.1646 2.0008-2.2902 1.8867-5.7383-0.26112-7.8913-0.45596-0.45596-0.97302-0.80897-1.5203-1.0809-0.01737-3.0291-2.369-5.5343-5.3943-5.7383 1.9689 0.19971 3.4671 1.8574 3.4673 3.8364 0 2.1299-1.7266 3.8565-3.8565 3.8565-2.1299 0-3.8565-1.7266-3.8565-3.8565 2.14e-4 -2.024 1.5651-3.7035 3.5841-3.8465zm0.27241 8.3457 0.96413 0.96413-0.96413 0.96413-0.96413-0.96413z" opacity=".2"/>
<path d="m16.354 8.6826c-3.0744 0.14494-5.494 2.6715-5.5111 5.7458-0.54919 0.27218-1.0679 0.62598-1.5253 1.0834-2.1478 2.153-2.262 5.6011-0.26112 7.8913-1.251-1.5335-1.1381-3.7651 0.26112-5.1646 1.5061-1.5061 3.9473-1.5061 5.4533 0 1.5061 1.5061 1.5061 3.9473 0 5.4533-1.4314 1.431-3.725 1.5123-5.2537 0.1858 1.9988 1.8189 4.9393 1.9841 7.1067 0.53353 2.1673 1.4505 5.1078 1.2853 7.1067-0.53353-1.5287 1.3265-3.8224 1.2453-5.2537-0.1858-1.5061-1.5061-1.5061-3.9473 0-5.4533 1.5061-1.5061 3.9473-1.5061 5.4533 0 1.3992 1.3995 1.5122 3.6311 0.26112 5.1646 2.0008-2.2902 1.8867-5.7383-0.26112-7.8913-0.45596-0.45596-0.97302-0.80897-1.5203-1.0809-0.01737-3.0291-2.369-5.5343-5.3943-5.7383 1.9689 0.19971 3.4671 1.8574 3.4673 3.8364 0 2.1299-1.7266 3.8565-3.8565 3.8565-2.1299 0-3.8565-1.7266-3.8565-3.8565 2.14e-4 -2.024 1.5651-3.7035 3.5841-3.8465zm0.27241 8.3457 0.96413 0.96413-0.96413 0.96413-0.96413-0.96413z" fill="#fff"/>
</g>
</svg>
