<svg xmlns="http://www.w3.org/2000/svg" viewBox="0 0 16 16"><circle cx="8" cy="8" r="7.5" style="fill:none"/><path d="M16 8c0 2.17-.92 4.24-2.34 5.66A8.1 8.1 0 0 1 8 16c-2.17 0-4.24-.92-5.66-2.34A8.1 8.1 0 0 1 0 8c0-2.17.92-4.24 2.34-5.66A8.1 8.1 0 0 1 8 0c2.17 0 4.24.92 5.66 2.34A8.1 8.1 0 0 1 16 8m-3.05-4.95A6.86 6.86 0 0 0 8 1c-1.97 0-3.66.76-4.95 2.05A6.86 6.86 0 0 0 1 8c0 1.97.76 3.66 2.05 4.95A6.86 6.86 0 0 0 8 15c1.97 0 3.66-.76 4.95-2.05A6.86 6.86 0 0 0 15 8c0-1.97-.76-3.66-2.05-4.95" style="fill:#888"/><path fill="#888" d="M8 11c-1.333 0-1.333 2 0 2s1.333-2 0-2m0-8c-.554 0-1 .446-1 1v5c0 .554.446 1 1 1s1-.446 1-1V4c0-.554-.446-1-1-1"/></svg>