<svg xmlns="http://www.w3.org/2000/svg" fill="currentColor" viewBox="0 0 16 16"><path d="M13.86 7.97c.22-.4-.08-.89-.53-.88a.59.59 0 0 0-.52.34 5.9 5.9 0 0 1-2.45 2.48L9.13 7.15c1.85-1.33 1.58-4.16-.5-5.11-.2-.09-.41-.16-.63-.2V.59c0-.45-.49-.74-.89-.51-.18.11-.29.3-.29.51v1.25C4.58 2.29 3.68 5 5.19 6.7c.15.17.32.32.5.45l-3.56 8.01c-.19.42.14.88.6.84.21-.02.39-.16.48-.35l1.86-4.19a7.23 7.23 0 0 0 4.68 0l1.86 4.19c.18.41.75.47 1.02.1.12-.17.14-.39.06-.59L10.84 11a7.1 7.1 0 0 0 3.02-3.03M7.41 2.96c1.37 0 2.22 1.48 1.54 2.67-.69 1.18-2.4 1.18-3.08 0-.16-.27-.24-.58-.24-.89 0-.98.8-1.78 1.78-1.78m0 7.7a5.5 5.5 0 0 1-1.85-.29l1.21-2.74c.42.1.86.1 1.28 0l1.22 2.75c-.6.19-1.23.28-1.86.28" style="fill:#888"/></svg>