<svg xmlns="http://www.w3.org/2000/svg" viewBox="0 0 16 16"><path fill="#888" d="M12 5.5c0 1.15-1.25 1.88-2.25 1.3C9.29 6.53 9 6.04 9 5.5c0-1.15 1.25-1.88 2.25-1.3.46.27.75.76.75 1.3m-1 0c0-.38-.42-.63-.75-.43-.15.09-.25.25-.25.43 0 .39.42.63.75.43.16-.09.25-.25.25-.43M1 4c0-1.66 1.34-3 3-3h8c1.66 0 3 1.34 3 3v8c0 1.66-1.34 3-3 3H4c-1.66 0-3-1.34-3-3zm3-2c-1.1 0-2 .9-2 2v8c0 .37.1.72.28 1.02l4.67-4.59c.58-.57 1.52-.57 2.1 0l4.67 4.59c.18-.31.28-.66.28-1.02V4c0-1.1-.9-2-2-2zm0 12h8c.37 0 .72-.1 1.01-.27L8.35 9.15a.5.5 0 0 0-.7 0l-4.66 4.58c.31.18.65.27 1.01.27" style="stroke-width:1.14286"/></svg>