<svg xmlns="http://www.w3.org/2000/svg" viewBox="0 0 16 16"><path fill="#888" d="M4.81 1.5C2.44 1.5.5 3.42.5 5.77c0 1.12.46 2.15 1.23 2.95.03.06.07.13.12.17h.01l5.7 5.46c.2.2.54.2.74.01l5.88-5.47c.83-.75 1.26-1.8 1.32-2.9v-.43c-.13-2.27-2-4.06-4.25-4.06-1.33 0-2.45.67-3.24 1.63-.8-.98-1.93-1.63-3.2-1.63m0 1.08c1.11 0 2.15.58 2.75 1.55.2.35.71.35.92 0 .58-.97 1.64-1.55 2.77-1.55 1.79 0 3.21 1.44 3.22 3.19 0 .88-.36 1.73-1.03 2.33l-5.49 5.12-5.34-5.1-.01-.01h-.01V8.1c-.64-.6-1.02-1.44-1.02-2.33.01-1.75 1.44-3.19 3.24-3.19"/></svg>