<svg xmlns="http://www.w3.org/2000/svg" viewBox="0 0 16 16"><path fill="#888" d="M2.018 1.008a1 1 0 0 0-1.01 1.01V5.58a1 1 0 0 0 .297.715l1.697 1.697h3.18a1.83 1.83 0 0 0 1.81-1.81v-3.18L6.295 1.305a1 1 0 0 0-.719-.297zm-.012.998q.003.002.012.002H5.58q.003-.002.004 0l.002.002 1.406 1.408v2.764c0 .424-.386.81-.81.81H3.418L2.012 5.586H2.01c-.01-.01-.002.006-.002-.006V2.018q0-.009-.002-.012M9.818 8A1.82 1.82 0 0 0 8 9.818V13l1.701 1.703c.192.192.452.297.723.297h3.558c.564 0 1.018-.454 1.018-1.018v-3.558c0-.27-.105-.53-.297-.723L13 8zm0 1h2.768l1.408 1.408c.005.005.006.006.006.016v3.558c0 .026.008.018-.018.018h-3.558c-.011 0-.012 0-.016-.004L9 12.586V9.818C9 9.354 9.354 9 9.818 9"/><path fill="#888" d="M15 2.018a1 1 0 0 0-1.01-1.01h-3.562a1 1 0 0 0-.715.297L8.016 3.002v3.18c0 .984.826 1.81 1.81 1.81h3.18l1.697-1.697c.191-.19.298-.45.297-.719zm-.998-.012Q14 2.009 14 2.018v3.566l-.002.002-1.408 1.406H9.826c-.424 0-.81-.386-.81-.81V3.418l1.406-1.406V2.01c.01-.01-.006-.002.006-.002h3.562c.007 0 .008-.001.012-.002M8.008 9.818A1.82 1.82 0 0 0 6.189 8H3.008L1.305 9.701a1.02 1.02 0 0 0-.297.723v3.558c0 .564.454 1.018 1.017 1.018h3.56c.27 0 .53-.105.722-.297L8.007 13zm-1 0v2.768L5.6 13.994C5.594 14 5.593 14 5.584 14H2.025c-.025 0-.017.008-.017-.017v-3.56c0-.01 0-.011.004-.015L3.422 9H6.19c.464 0 .818.354.818.818" opacity=".45"/><path fill="#888" d="M9.818 8A1.82 1.82 0 0 0 8 9.818V13l1.701 1.703c.192.192.452.297.723.297h3.558c.564 0 1.018-.454 1.018-1.018v-3.558c0-.27-.105-.53-.297-.723L13 8z" opacity=".75"/></svg>