<svg xmlns="http://www.w3.org/2000/svg" viewBox="0 0 16.011 16"><path fill="#888" d="M10.81 5.67a.5.5 0 0 1 .44.75c-.02.04-.05.07-.08.1L8.69 9H7.28l3.18-3.18c.09-.1.22-.15.35-.15" style="paint-order:stroke;stroke-width:1;transform-origin:9.3px 7.34px"/><circle cx="8" cy="9" r="1" fill="#888" style="paint-order:stroke;stroke-width:1"/><path fill="#888" d="M8 1c4.42 0 8 3.58 8 8a8.01 8.01 0 0 1-3.35 6.51l-.58-.82A6.98 6.98 0 0 0 15 9c0-3.83-3.08-6.95-6.91-7H8C4.13 2 1 5.13 1 9c0 2.26 1.09 4.38 2.93 5.7l-.58.81A8.01 8.01 0 0 1 0 9c0-4.42 3.58-8 8-8" style="paint-order:stroke;stroke-width:1;transform-origin:8px 8.26px"/></svg>