<svg xmlns="http://www.w3.org/2000/svg" viewBox="0 0 16 16"><path fill="#888" d="M5.965 9.57c-.02-.185-.168-.205-.271-.266-.342-.198-.691-.387-1.038-.578l-.566-.309c-.214-.118-.43-.231-.643-.354-.264-.151-.528-.3-.782-.468-.475-.314-.85-.731-1.164-1.209a4 4 0 0 1-.482-1.015C.85 4.825.747 4.262.822 3.69c.046-.351.116-.703.244-1.045.196-.523.485-.975.86-1.378a4 4 0 0 1 .84-.673 3.7 3.7 0 0 1 1.19-.478 5.2 5.2 0 0 1 1.062-.11q3.388-.013 6.776 0c.317 0 .641.025.948.103.61.156 1.148.457 1.583.93.282.306.513.648.649 1.035.183.52.309 1.059.168 1.619-.053.214-.068.44-.153.638a5.5 5.5 0 0 1-.432.785 2.5 2.5 0 0 1-.865.81 5.6 5.6 0 0 1-.804.359c-.455.168-.935.125-1.41.13-.433.005-.868 0-1.3.003-.043 0-.086.03-.128.047.032.046.053.109.098.134q.511.293 1.025.575c.277.151.56.294.835.45.382.214.759.438 1.138.656.486.28.875.664 1.202 1.114.244.334.432.701.578 1.093.153.417.231.85.261 1.29.016.228-.017.465-.047.693-.03.23-.068.463-.141.682a3.9 3.9 0 0 1-1.136 1.785q-.479.43-1.066.693c-.576.259-1.179.362-1.8.364q-3.381.01-6.764-.002c-.316 0-.64-.025-.947-.098a3.15 3.15 0 0 1-1.591-.915 3.4 3.4 0 0 1-.669-1.053 2.5 2.5 0 0 1-.136-.513 4 4 0 0 1-.078-.616 2.9 2.9 0 0 1 .207-1.141 3.14 3.14 0 0 1 1.01-1.388c.251-.198.535-.344.832-.472.417-.181.855-.204 1.292-.214.55-.012 1.103-.002 1.656-.002q.07-.006.156-.01M8.385.965q0 .004 0 0C7.173.967 5.959.95 4.745.977a3.1 3.1 0 0 0-1.008.219c-.375.14-.707.367-1.003.648a3.1 3.1 0 0 0-.935 1.732c-.09.477-.035.958.103 1.42a3.6 3.6 0 0 0 .465.965c.372.558.897.923 1.468 1.237.276.153.558.3.834.452l1.016.568q.494.275.985.546.366.2.731.405c.073.04.104.005.114-.06q.009-.076.007-.154V7.477c0-.5.003-1.003 0-1.503 0-.166.043-.322.191-.405a.65.65 0 0 1 .312-.07q1.897-.007 3.795-.003c.498 0 .963-.11 1.385-.38.58-.371.913-.912 1.02-1.58a2.05 2.05 0 0 0-.31-1.47c-.45-.693-1.099-1.083-1.925-1.098C10.79.95 9.587.964 8.386.964m-.768 14.069c1.133 0 2.267-.005 3.4.002a3.4 3.4 0 0 0 1.355-.279 3.06 3.06 0 0 0 1.164-.877c.229-.271.407-.575.523-.917.105-.312.186-.621.183-.953-.002-.259.005-.515-.085-.767-.065-.18-.086-.382-.16-.555a5 5 0 0 0-.353-.641c-.324-.523-.802-.872-1.327-1.166-.266-.149-.533-.292-.8-.44-.258-.144-.512-.294-.771-.438-.281-.153-.566-.299-.847-.452-.417-.229-.832-.463-1.252-.691-.123-.068-.153-.048-.16.098q-.004.076-.003.153v2.878c0 .372-.141.513-.513.513-1.196.002-2.395-.003-3.592.005-.264.002-.53.035-.794.07-.415.056-.767.25-1.076.528-.427.39-.679.872-.739 1.445-.028.274-.01.546.073.817.093.31.231.588.44.83.482.555 1.09.837 1.827.837q1.755.002 3.507 0"/></svg>