<svg xmlns="http://www.w3.org/2000/svg" viewBox="0 0 16 16"><defs><style id="current-color-scheme" type="text/css">.ColorScheme-Text{color:#888}</style></defs><path fill="currentColor" d="m13 10-.574 1.613-1.547-.734.734 1.547L10 13l1.613.574-.734 1.547 1.547-.734L13 16l.574-1.613 1.547.734-.734-1.547L16 13l-1.613-.574.734-1.547-1.547.734z" class="ColorScheme-Text"/><path fill="currentColor" d="M3 1c-1.108 0-2 .892-2 2v10c0 1.108.892 2 2 2h6v-1H4v-2c0-.554.446-1 1-1h4v-1H5c-1.108 0-2 .892-2 2v2c-.554 0-1-.446-1-1V3c0-.554.446-1 1-1h2v3c0 1.108.892 2 2 2h2c1.108 0 2-.892 2-2V2.414l3 3V9h1V5l-4-4zm3 1h2v4H7c-.554 0-1-.446-1-1z" class="ColorScheme-Text"/></svg>