<svg xmlns="http://www.w3.org/2000/svg" viewBox="0 0 16 16"><path d="M10.92.87c1.63-1.62 4.39-.88 4.98 1.34.27 1.02-.02 2.12-.78 2.87l-9.35 9.36c-.34.34-.77.57-1.23.68l-3.93.87a.502.502 0 0 1-.6-.6l.88-3.95c.1-.45.33-.86.66-1.2zm3.54.75c-.76-.81-2.04-.83-2.83-.04l-.67.67 2.8 2.8.66-.68c.76-.75.77-1.98.04-2.75m-1.42 4.13-2.79-2.8-8 8c-.19.2-.32.44-.38.7l-.71 3.2 3.16-.71c.28-.06.54-.2.74-.4zM.5 1h8.88l-1 1H.5c-.38 0-.62-.42-.43-.75C.16 1.09.33 1 .5 1m0 3h5.88l-1 1H.5c-.38 0-.62-.42-.43-.75C.16 4.09.33 4 .5 4m0 3h2.88l-1 1H.5c-.38 0-.62-.42-.43-.75C.16 7.09.33 7 .5 7" style="fill:#888"/></svg>