<svg xmlns="http://www.w3.org/2000/svg" viewBox="0 0 16 16"><path d="M14.73 1.38a2.764 2.764 0 0 0-3.99-.06l-8.79 8.79c-.3.31-.52.7-.61 1.13l-.83 3.69c-.07.34.23.64.56.56l3.69-.81c.43-.1.84-.32 1.15-.64l8.77-8.77c1.07-1.07 1.09-2.8.05-3.89m-3.33.61c1.01-1.02 2.74-.56 3.1.83.18.64 0 1.32-.47 1.79l-.64.62-2.63-2.62zm-1.29 1.29 2.62 2.62-7.49 7.47c-.18.19-.43.33-.69.39l-2.96.65.66-2.98c.06-.25.18-.47.37-.65l7.5-7.5z" style="fill:#888;stroke-width:1"/><path fill="#888" d="M6.39.5c1.09 0 2.15.3 3.08.87l-.79.78c-.69-.37-1.48-.58-2.29-.58C2.72 1.57.42 5.5 2.15 8.7l-.79.78C.99 8.87.72 8.17.59 7.39-.03 3.79 2.74.5 6.39.5m8.95 14.09c.3.28.16.79-.25.9-.14.03-.3.01-.43-.09l-.07-.05-4.39-4.39.76-.75z" style="stroke-width:1"/></svg>