<svg width="128" height="128" xmlns="http://www.w3.org/2000/svg"><defs><linearGradient id="prefix__b" x1="0" y1="46.5" x2="0" y2="210" gradientUnits="userSpaceOnUse" gradientTransform="matrix(.36309 0 0 .36309 9.872 26.432)"><stop offset="0" stop-color="#3A8DCD"/><stop offset=".5" stop-color="#4B9BDD"/><stop offset=".9" stop-color="#58ACEE"/><stop offset="1" stop-color="#5DB3F6"/></linearGradient><linearGradient id="prefix__c" x1="0" y1="219" x2="0" y2="232.6" gradientUnits="userSpaceOnUse" gradientTransform="matrix(.36309 0 0 .36309 9.872 26.432)"><stop offset="0" stop-color="#2C3237"/><stop offset=".25" stop-color="#3D454B"/><stop offset=".38" stop-color="#4F5862"/><stop offset=".68" stop-color="#838D99"/><stop offset=".76" stop-color="#88929E"/><stop offset=".9" stop-color="#57606B"/><stop offset="1" stop-color="#2E3339"/></linearGradient><linearGradient id="prefix__d" x1="0" y1="225" x2="0" y2="231.5" gradientUnits="userSpaceOnUse" gradientTransform="matrix(.36309 0 0 .36309 9.872 26.432)"><stop offset="0" stop-color="#AEB8C3"/><stop offset="1" stop-color="#939DA9"/></linearGradient><filter id="prefix__a" x="-.019" y="-.576" width="1.038" height="2.152"><feGaussianBlur stdDeviation="2.4"/></filter></defs><g transform="translate(-11.5 -14.31)"><ellipse cx="180.5" cy="233.5" rx="152" ry="5" fill="#3a414b" opacity=".55" filter="url(#prefix__a)" transform="matrix(.36309 0 0 .36309 9.872 26.432)"/><rect x="28.026" y="41.5" width="94.947" height="64.448" rx="3.994" fill="#060606"/><path d="M28.28 47.49v55.916" stroke="#2e343b" stroke-width=".363"/><rect x="29.842" y="43.315" width="91.135" height="59.365" rx="1.815" fill="url(#prefix__b)"/><path d="M70.69 43.315h9.802v.29a1.162 1.162 0 01-1.161 1.163h-7.48a1.162 1.162 0 01-1.162-1.162z" fill="#060606"/><path d="M25.848 105.948h99.304c5.628.908 10.348 2.36 10.348 3.63 0 .8-1.27 1.199-3.994 1.308H19.494c-2.723-.11-3.994-.509-3.994-1.307 0-1.271 4.72-2.723 10.348-3.631z" fill="url(#prefix__c)"/><rect x="31.294" y="107.182" width="89.138" height="1.089" rx=".508" fill="#17181a"/><path d="M66.15 108.09h18.518v.4a9.259 1.997 0 01-18.517 0z" fill="url(#prefix__d)"/></g></svg>