<svg width="128" height="128" version="1.1" xmlns="http://www.w3.org/2000/svg">
<linearGradient id="a" x1="-33.765" x2="-33.765" y1="1105.9" y2="1113.2" gradientTransform="translate(0 -4.9687)" gradientUnits="userSpaceOnUse">
<stop stop-color="#a5e3fe" offset="0"/>
<stop stop-color="#b6e7fe" offset="1"/>
</linearGradient>
<linearGradient id="b" x1="-24.331" x2="-24.331" y1="1110.9" y2="1147.2" gradientTransform="translate(0 -4.9687)" gradientUnits="userSpaceOnUse">
<stop stop-color="#75d3f9" offset="0"/>
<stop stop-color="#84dafd" offset=".5"/>
<stop stop-color="#81d4f6" offset="1"/>
</linearGradient>
<linearGradient id="c" x1="-34.465" x2="-34.465" y1="1109.7" y2="1111.6" gradientTransform="translate(0 -4.9687)" gradientUnits="userSpaceOnUse">
<stop stop-color="#a5e3fe" stop-opacity="0" offset="0"/>
<stop stop-color="#c2ebfe" stop-opacity=".74254" offset="1"/>
</linearGradient>
<filter id="d" x="-.01615" y="-.020329" width="1.0323" height="1.0407" color-interpolation-filters="sRGB">
<feGaussianBlur stdDeviation=".81567628"/>
</filter>
<linearGradient id="e" x1="-21.401" x2="-21.939" y1="1115.6" y2="1136.9" gradientTransform="translate(0 -4.9687)" gradientUnits="userSpaceOnUse">
<stop stop-color="#1296d5" offset="0"/>
<stop stop-color="#4fb6e8" offset="1"/>
</linearGradient>
<g transform="matrix(2.2139 0 0 2.2139 109.49 -2416.9)">
<path transform="matrix(.4517 0 0 .4517 -49.457 1086.7)" d="m7.623 27.084c-2.5051 0-4.5215 2.0163-4.5215 4.5215v87.252c0 2.5052 2.0164 4.5215 4.5215 4.5215h112.09c2.5051 0 4.5234-2.0163 4.5234-4.5215v-54.102c0.0499-0.33606 0.084-0.67612 0.084-1.0215v-19.689c0-0.37702-0.0332-0.74354-0.084-1.1035v-1.5957c0-2.505-2.0183-4.5215-4.5234-4.5215h-70.963c-4.2358 0-6.1169-9.7402-10.645-9.7402z" filter="url(#d)" opacity=".19"/>
<path d="m-46.014 1099c-1.1316 0-2.0423 0.9113-2.0423 2.0429v32.524c0 1.1316 0.91072 2.0423 2.0423 2.0423h0.73917c0.17421 0.051 0.35835 0.079 0.54953 0.079h48.054c1.074 0 1.9386 2.2673 1.9386 1.1933v-1.0286c0.81085 0.5767 1.3929 1.9171 1.3929 1.0131v-20.849c0.022543-0.1518 0.03826-0.3054 0.03826-0.4614v-8.8939c0-0.1703-0.015331-0.3359-0.03826-0.4985v-0.7209c0-1.1315-0.91128-2.0422-2.0428-2.0422h-32.054c-1.9133 0-2.7631-4.3996-4.8082-4.3996z" fill="url(#a)"/>
<path d="m-46.014 1099c-1.1316 0-2.0423 0.9113-2.0423 2.0429v32.524c0 1.1316 0.91072 2.0423 2.0423 2.0423h50.631c1.1316 0 2.0428 2.3887 2.0428 1.2571v-20.849c0.022543-0.1518 0.03826-0.3054 0.03826-0.4614v-8.8939c0-0.1703-0.015331-0.3359-0.03826-0.4985v-0.7209c0-1.1315-0.91128-2.0422-2.0428-2.0422h-32.054c-1.9133 0-2.7631-4.3996-4.8082-4.3996z" fill="url(#c)"/>
<path d="m-46.014 1105.9h50.631c1.1316 0 2.0425 0.911 2.0425 2.0425v32.524c0 1.1316-0.91097 2.0425-2.0425 2.0425h-50.631c-1.1316 0-2.0425-0.9109-2.0425-2.0425v-32.524c0-1.1315 0.91097-2.0425 2.0425-2.0425z" fill="url(#b)"/>
<g fill="#6fc1ec" stroke-width=".28103">
<path d="m-48.024 1140.8c0.01157 0.067 0.02663 0.1323 0.04446 0.1965h54.563c0.017817-0.064 0.032889-0.1299 0.044461-0.1965z"/>
<path d="m-48.056 1139.4v0.197h54.716v-0.197z"/>
<path d="m-48.056 1137.8v0.1965h54.716v-0.1965z"/>
</g>
<path d="m-48.074 1138.1v0.2531h54.735v-0.2784z" fill="#abdbf4"/>
<path d="m-48.074 1139.6v0.2531h54.735v-0.2785z" fill="#abdbf4"/>
<path d="m-48.074 1141v0.2531h54.735v-0.2785z" fill="#abdbf4"/>
<path d="m-46.014 1099c-1.1316 0-2.0424 0.9108-2.0424 2.0424v39.412c0 1.1316 0.91078 2.0424 2.0424 2.0424h50.631c1.1316 0 2.0432-0.9108 2.0432-2.0424v-24.438c0.022544-0.1518 0.037934-0.3054 0.037934-0.4614v-8.8937c0-0.1703-0.015006-0.3359-0.037934-0.4985v-0.7208c0-1.1315-0.91166-2.0423-2.0432-2.0423h-32.054c-1.9133 0-2.763-4.3997-4.8081-4.3997zm0 0.4067h13.769c0.36552 0 0.69597 0.1926 1.0525 0.5629 0.35652 0.3702 0.70583 0.9016 1.0587 1.4504 0.35284 0.5487 0.70877 1.114 1.1275 1.5677 0.41871 0.4537 0.93535 0.8187 1.5695 0.8187h32.054c0.91341 0 1.6365 0.7225 1.6365 1.6356v0.749l0.00441 0.028c0.021027 0.1491 0.033525 0.2955 0.033525 0.442v8.8937c0 0.1292-0.012882 0.2624-0.033525 0.4014l-0.00441 0.03v24.468c0 0.9133-0.72309 1.6357-1.6365 1.6357h-50.631c-0.91344 0-1.6356-0.7222-1.6356-1.6357v-39.412c0-0.9135 0.72221-1.6357 1.6356-1.6357z" fill="#fff" fill-opacity=".48837" stroke-width=".4517"/>
<path d="m-21.401 1110.6a11.917 11.917 0 0 0-11.917 11.918 11.917 11.917 0 0 0 11.917 11.917 11.917 11.917 0 0 0 11.918-11.917 11.917 11.917 0 0 0-11.918-11.918zm0 1.3022a10.616 10.616 0 0 1 10.616 10.616 10.616 10.616 0 0 1-10.616 10.616 10.616 10.616 0 0 1-10.616-10.616 10.616 10.616 0 0 1 10.616-10.616zm-0.0882 1.2236-0.81253 0.042 0.04058 0.8125 0.81253-0.041zm1.6992 0.1403-0.12352 0.8072 0.2382 0.035 0.51611 0.1324 0.20115-0.787-0.52934-0.1367-0.0397-0.01zm-4.1862 0.2214-0.19938 0.05-0.03881 0.014-0.56992 0.2091 0.27878 0.764 0.55668-0.2029 0.1738-0.045zm6.6158 0.5523-0.35377 0.7367 0.38641 0.1852h6e-3l0.28937 0.1738 0.42347-0.6934-0.29643-0.1791-0.0335-0.02zm-8.9493 0.4747-0.32819 0.2011-0.03176 0.022-0.34319 0.2576 0.48611 0.6502 0.33436-0.2479 0.0097-0.01 0.29642-0.1782zm11.078 0.9281-0.54698 0.6008 0.44729 0.4067 0.0362 0.04-7.3304 4.7322-5.7221 7.8668 8.172-5.2757 5.7221-7.8668-0.24878 0.1606 0.0873-0.079-0.12881-0.1403-0.0273-0.026zm-13.047 0.6863-0.35906 0.397-0.02382 0.029-0.16762 0.2241 0.6502 0.487 0.16233-0.2152 0.0062-0.01 0.33348-0.3652zm14.727 1.2263-0.6952 0.4244 0.38995 0.6431 0.01 0.019h5e-3l0.0291-0.018 0.6996-0.3379-0.0159-0.034-0.0194-0.033zm-16.193 0.854-0.30525 0.6335-0.01324 0.034-0.04147 0.1094 0.76401 0.2796 0.02558-0.072 0.0035-0.01 0.29908-0.6211zm17.281 1.4089-0.76401 0.2806 0.0177 0.048 0.18174 0.6987 0.78694-0.2029-0.17909-0.7013-0.0141-0.039zm-18.129 0.9599-0.0079 0.026-0.0079 0.041-0.1191 0.7755 0.80458 0.1226 0.11734-0.7613 0.0018-0.014-0.13057-0.02zm9.1919 1.1239a0.81577 0.81577 0 0 1 0.81606 0.8152 0.81577 0.81577 0 0 1-0.81606 0.8161 0.81577 0.81577 0 0 1-0.81518-0.8161 0.81577 0.81577 0 0 1 0.81518-0.8152zm9.3763 0.4323-0.81077 0.042 0.0159 0.3396-0.0388 0.7932 0.81253 0.041 0.0406-0.8125-0.40582-0.022 0.40582-0.02zm-17.929 0.9502-0.81077 0.042 0.01588 0.3299 0.0035 0.041 0.07234 0.4764 0.80459-0.1226-0.07058-0.457zm16.813 1.745-0.0671 0.2532-2e-3 0.01-0.17203 0.4694 0.76224 0.2788 0.18526-0.5056 0.0132-0.039 0.0671-0.2664zm-16.354 0.5144-0.76401 0.2814 0.19586 0.5293 0.01324 0.037 0.10939 0.225 0.73225-0.3538-0.10322-0.2144-0.0035-0.011zm15.435 1.6003-0.21262 0.3556-8e-3 0.01-0.20732 0.2796 0.6502 0.4861 0.21702-0.2893 0.0221-0.031 0.23379-0.3882zm-14.388 0.4597-0.65108 0.4914 0.43758 0.584 0.02382 0.029 0.05646 0.062 0.60168-0.547-0.03176-0.033-0.0053-0.01zm12.939 1.3471-0.41729 0.3767-8e-3 0.01-0.16056 0.1191 0.48875 0.6529 0.16762-0.1271 0.0291-0.023 0.44729-0.4067zm-11.365 0.3767-0.14821 0.1968-0.38112 0.4199 0.01147 0.011 0.02911 0.023 0.64138 0.4782 0.4861-0.6502zm9.4883 0.9678-0.65638 0.3229h-0.0115l-0.0317 0.012 0.28142 0.7631 0.0432-0.016 0.0353-0.016 0.69078-0.3334zm-7.498 0.2612-0.35378 0.7322 0.16233 0.078 0.03705 0.016 0.59374 0.2171 0.27966-0.764-0.57433-0.2091zm5.2872 0.5461-0.0644 0.019-0.69784 0.1076 0.12351 0.8028 0.70843-0.1076 0.0397-0.01 0.0935-0.025zm-3.0684 0.087-0.12351 0.809 0.40847 0.063h0.04147l0.39965 0.02 0.0415-0.8126-0.38112-0.018z" fill="url(#e)" opacity=".504"/>
</g>
</svg>
