<svg xmlns="http://www.w3.org/2000/svg" width="128" height="128" version="1.1" viewBox="0 0 128 128">
<defs>
<linearGradient id="linearGradient4147" x1="235.96" x2="235.96" y1="125.25" y2="7.2881" gradientTransform="translate(18.432 -32)" gradientUnits="userSpaceOnUse">
<stop stop-color="#a1a3a4" offset="0" />
<stop stop-color="#dee4e6" offset="1" />
</linearGradient>
<linearGradient id="linearGradient4158" x1="145.76" x2="13.559" y1="183.44" y2="183.44" gradientTransform="translate(164.37 -83.775)" gradientUnits="userSpaceOnUse">
<stop stop-color="#a5abae" offset="0" />
<stop stop-color="#c5ccd0" offset=".035897" />
<stop stop-color="#d7dee2" offset=".071795" />
<stop stop-color="#dde2e5" offset=".11462" />
<stop stop-color="#bbbdbd" offset=".24577" />
<stop stop-color="#bbbcbc" offset=".30292" />
<stop stop-color="#c6cacb" offset=".51135" />
<stop stop-color="#d5dbdd" offset=".75567" />
<stop stop-color="#cbd3d6" offset=".93333" />
<stop stop-color="#a6aaac" offset="1" />
</linearGradient>
<radialGradient id="radialGradient4184" cx="128.24" cy="137.29" r="2.397" gradientTransform="translate(159.56 -32)" gradientUnits="userSpaceOnUse">
<stop stop-color="#9af590" offset="0" />
<stop stop-color="#74ce6d" offset="1" />
</radialGradient>
<linearGradient id="linearGradient4215" x1="237.44" x2="237.44" y1="5.678" y2="102.63" gradientTransform="translate(1.4011 -30.644)" gradientUnits="userSpaceOnUse">
<stop stop-color="#5d94c7" offset="0" />
<stop stop-color="#2f608d" offset="1" />
</linearGradient>
</defs>
<g transform="matrix(.81979 0 0 .81979 -135.48 26.526)">
<g fill="none" opacity=".7" stroke="#000" stroke-linecap="round" stroke-linejoin="round" stroke-opacity=".045627">
<path d="m192.31 -25.3774c-3.1589 0-5.4287 2.5541-5.7012 5.7012l-9.4609 109.24h-0.19922v22.324c0 3.1589 2.5442 5.7012 5.7031 5.7012h121.48c3.1589 0 5.7031-2.5423 5.7031-5.7012v-22.324h-0.20898l-10.811-109.24c-0.31109-3.1435-2.5442-5.7012-5.7031-5.7012h-100.8z" opacity="1" stroke-width="2" style="paint-order:fill markers stroke" />
<path d="m192.31 -25.3774c-3.1589 0-5.4287 2.5541-5.7012 5.7012l-9.4609 109.24h-0.19922v22.324c0 3.1589 2.5442 5.7012 5.7031 5.7012h121.48c3.1589 0 5.7031-2.5423 5.7031-5.7012v-22.324h-0.20898l-10.811-109.24c-0.31109-3.1435-2.5442-5.7012-5.7031-5.7012h-100.8z" opacity="1" stroke-width="4" style="paint-order:fill markers stroke" />
<path d="m192.31 -25.3774c-3.1589 0-5.4287 2.5541-5.7012 5.7012l-9.4609 109.24h-0.19922v22.324c0 3.1589 2.5442 5.7012 5.7031 5.7012h121.48c3.1589 0 5.7031-2.5423 5.7031-5.7012v-22.324h-0.20898l-10.811-109.24c-0.31109-3.1435-2.5442-5.7012-5.7031-5.7012h-100.8z" opacity="1" stroke-width="6" style="paint-order:fill markers stroke" />
</g>
<path d="m310.47 89.046v22.325c0 3.1589-2.5431 5.702-5.702 5.702h-121.48c-3.1589 0-5.702-2.5431-5.702-5.702v-22.325z" fill="url(#linearGradient4158)" style="paint-order:fill markers stroke" />
<path d="m192.95-25.898h100.8c3.1589 0 5.3909 2.5584 5.702 5.702l10.847 109.61c0.31109 3.1435-2.5431 5.702-5.702 5.702h-121.14c-3.1589 0-5.9745-2.5549-5.702-5.702l9.4915-109.61c0.27251-3.1471 2.5431-5.702 5.702-5.702z" fill="url(#linearGradient4147)" style="paint-order:fill markers stroke" />
<circle cx="287.8" cy="105.29" r="2.397" fill="url(#radialGradient4184)" stroke="#76a578" stroke-linecap="round" stroke-linejoin="round" stroke-width=".5" style="paint-order:fill markers stroke" />
<circle cx="287.8" cy="105.29" r=".59924" fill="#fff" fill-opacity=".29658" style="paint-order:fill markers stroke" />
<path d="m194.56-23.695h99.444c2.5955 0 4.4921 2.0967 4.685 4.685l6.4407 86.393c0.19296 2.5883-2.0895 4.685-4.685 4.685h-112.83c-2.5955 0-4.8931-2.0979-4.685-4.685l6.9492-86.393c0.2081-2.5871 2.0895-4.685 4.685-4.685z" fill="url(#linearGradient4215)" style="paint-order:fill markers stroke" />
<path d="m177.85 88.307-0.0957 1.1094c-0.27251 3.1471 2.5423 5.7031 5.7012 5.7031h121.14c3.1589 0 6.0142-2.5596 5.7031-5.7031l-0.10157-1.0274c-0.5512 2.4144-2.967 4.1953-5.6016 4.1953h-121.14c-2.6646 0-5.0769-1.8195-5.6055-4.2773z" fill="#e0e3e4" style="paint-order:fill markers stroke" />
</g>
<path d="m41.842 22.54c-3.1865-0.13383-6.494 3.5166-4.5217 6.5402 2.3869 3.8763 9.4365 1.6991 9.0823-2.8761-0.20023-2.2175-2.4338-3.7468-4.5606-3.6641zm22.977 0.01563c-3.3961-0.32598-6.4794 3.9247-4.017 6.7584 2.3637 3.1409 8.3619 1.92 8.7624-2.1694 0.17016-2.6195-2.2514-4.6201-4.7454-4.589zm22.707 0.0039c-2.9429-0.24319-5.6737 3.061-4.0538 5.8034 1.6329 3.5403 7.7323 3.7444 9.0324-0.15104 0.93616-3.0156-2.0784-5.776-4.9785-5.6523zm-22.777 9.2656c-3.8275-1.0138-6.1694 1.6552-7.7175 4.7892-1.5776 1.8261-3.1002 5.8377-4.8003 6.2167-2.3553-3.582-4.1434-7.5616-6.783-10.936-2.9555 0.12004-6.0093-0.29893-8.8867 0.29492-3.607 4.6259-7.206 9.2917-10.418 14.202-1.0103 3.4134 4.0438 2.1426 4.3977-0.40023 1.3274-1.3561 3.2887-5.3933 4.3253-5.1298-0.87021 9.6399-1.9048 19.274-2.582 28.926 1.2117 3.8001 5.0585-0.09051 4.0534-2.7965 0.46577-5.1109 0.88393-10.226 1.3138-15.34 1.0442 0.28882 3.84-0.8638 3.9707 0.49805-0.32223 5.8491-0.8123 11.688-1.1328 17.537 1.6681 4.2105 5.0146-0.38814 4.0566-3.1582 0.60014-8.7458 1.0541-17.509 1.654-26.25 1.759 2.3323 3.0246 5.2942 4.7661 7.7577 3.3231 2.0614 4.4462-3.3212 6.2418-5.176 0.8747-1.558 2.3447-3.9139 1.8558-0.52715-0.03094 9.1456-0.4042 18.291-0.31055 27.436 1.1084 3.6977 5.1036 0.24236 3.8577-2.5093 0.0095-5.2383 0.0155-10.478 0.197-15.713h3.8809c0.21096 6.0372 0.08137 12.084 0.29883 18.117 1.443 4.0984 5.1639-0.03927 3.7885-2.8998-0.06073-8.8778-0.39344-17.756-0.28268-26.633 1.8814 2.751 3.4788 5.7311 5.6582 8.252 3.5382 0.82433 4.0607-4.5016 5.9972-6.5366 1.988-3.5771 1.005 3.7926 1.5264 5.2262 0.58357 7.6325 0.71304 15.309 1.5849 22.914 1.2755 3.2508 4.9787 0.15991 3.5397-2.4651-0.31235-5.2937-0.721-10.581-1.0682-15.873 1.0679 0.32748 3.7821-0.79388 4.083 0.51757 0.56357 6.004 0.84627 12.045 1.6963 18.014 2.0139 3.1708 4.7736-0.53644 3.4434-3.0254-0.73857-8.9385-1.676-17.86-2.3848-26.801 2.369 2.5108 3.9505 5.7464 6.4609 8.0957 4.0349 0.79833 1.8839-3.7037 0.1861-5.1058-2.7862-3.7593-5.3744-7.6971-8.4791-11.199-2.9773-0.2947-6.8593-0.97087-9.4314 0.53044-2.28 3.4733-4.168 7.1899-6.428 10.673-2.5794-3.748-4.8236-7.7652-7.7305-11.258-1.4033-0.45019-2.9437-0.18171-4.3983-0.26355z" fill="#fff" />
</svg>
