<svg xmlns="http://www.w3.org/2000/svg" width="36" height="36" version="1.1">
<defs>
<linearGradient id="linearGradient4263" x1="-116.62" x2="-116.63" y1="-9.25" y2="22.25" gradientTransform="translate(442 151.1)" gradientUnits="userSpaceOnUse">
<stop stop-color="#7c7a7a" stop-opacity=".53232" offset="0" />
<stop stop-color="#7c7a7a" offset=".25556" />
<stop stop-color="#7c7a7a" stop-opacity=".64706" offset=".36508" />
<stop stop-color="#7c7a7a" stop-opacity=".71373" offset=".44444" />
<stop stop-color="#7c7a7a" offset="1" />
</linearGradient>
</defs>
<g>
<g transform="matrix(0.81683 0 0 0.81683 -247.24 -111.738)">
<path d="m317.06 141.75h-2.4004l-10.748 8.5879v19.393c-0.0392 1.1516-8e-3 2.293 0.46093 3.3887 0.46926 1.0957 1.6874 2.0702 3.0859 2.1387l0.0371 2e-3h34.156c1.4418-1e-3 2.7734-0.85776 3.334-1.9648 0.56056-1.1071 0.62734-2.282 0.63868-3.5l2e-3 -6e-3v-19.451l-11.016-8.5879h-2.1465zm-1.4531 2.5h18.057l7.8809 6.0879h-33.615zm-8.6953 9.0879h35.715v16.43c-0.01 1.0457-0.15679 1.8586-0.31641 2.1738-0.15961 0.31523-0.054 0.31776-0.66015 0.31836h-34.043c-0.45305-0.0222-0.33005 0.0198-0.47656-0.32226-0.14652-0.34209-0.25347-1.1439-0.22071-2.1055l2e-3 -0.0254v-16.469zm12.539 3.3926c-1.2292 0-2.25 1.0208-2.25 2.25v1.75c0 1.2292 1.0208 2.25 2.25 2.25h10.625c1.2292 0 2.25-1.0208 2.25-2.25v-1.75c0-1.2292-1.0208-2.25-2.25-2.25zm0 2h10.625c0.1558 0 0.25 0.0942 0.25 0.25v1.75c0 0.1558-0.0942 0.25-0.25 0.25h-10.625c-0.1558 0-0.25-0.0942-0.25-0.25v-1.75c0-0.1558 0.0942-0.25 0.25-0.25z" color="#000000" color-rendering="auto" fill="#656363" fill-opacity=".75686" image-rendering="auto" shape-rendering="auto" solid-color="#000000" style="isolation:auto;mix-blend-mode:normal;text-decoration-color:#000000;text-decoration-line:none;text-decoration-style:solid;text-indent:0;text-transform:none;white-space:normal" />
<path d="m315.61 144.25-7.6791 6.0899h33.616l-7.8821-6.0899h-14.103zm-8.697 9.0885v16.495c-0.0328 0.96158 0.0739 1.7633 0.2204 2.1054 0.14651 0.34207 0.0225 0.29969 0.47559 0.32189h34.043c0.60615-6e-4 0.50158-4e-3 0.66119-0.31899 0.15962-0.31524 0.3061-1.1263 0.3161-2.1721v-16.431zm12.539 5.3939h10.625c0.1558 0 0.24939 0.0936 0.24939 0.2494v1.7487c0 0.1558-0.0936 0.2523-0.24939 0.2523h-10.625c-0.1558 0-0.24939-0.0965-0.24939-0.2523v-1.7487c0-0.1558 0.0936-0.2494 0.24939-0.2494z" fill="url(#linearGradient4263)" opacity=".611" />
</g>
</g>
</svg>
