<svg width="128" height="128" version="1.1" viewBox="0 0 33.867 33.867" xmlns="http://www.w3.org/2000/svg" xmlns:osb="http://www.openswatchbook.org/uri/2009/osb" xmlns:xlink="http://www.w3.org/1999/xlink">
<defs>
<linearGradient id="linearGradient1503-8" x1="29.203" x2="4.5843" y1="263.52" y2="296.17" gradientTransform="matrix(1.001 0 0 1.001 -.017758 -.29086)" gradientUnits="userSpaceOnUse">
<stop stop-color="#d9d9d9" offset="0"/>
<stop stop-color="#fff" offset="1"/>
</linearGradient>
<radialGradient id="radialGradient2873" cx="62.625" cy="4.625" r="10.625" gradientTransform="matrix(.79274 0 0 .26011 -31.369 280.8)" gradientUnits="userSpaceOnUse">
<stop offset="0"/>
<stop stop-opacity="0" offset="1"/>
</radialGradient>
<radialGradient id="radialGradient3717" cx="8.4375" cy="32.535" r="26.406" gradientTransform="matrix(.26363 0 0 .11006 14.112 273.7)" gradientUnits="userSpaceOnUse">
<stop stop-color="#8b6a35" offset="0"/>
<stop stop-color="#885f22" offset=".37136"/>
<stop stop-color="#754d0d" offset=".68556"/>
<stop stop-color="#483816" offset="1"/>
</radialGradient>
<linearGradient id="linearGradient848" x1="-133.27" x2="-121.78" y1="126.93" y2="152.33" gradientTransform="matrix(.14363 0 0 .14363 32.985 261.27)" gradientUnits="userSpaceOnUse">
<stop stop-color="#d9d9d9" offset="0"/>
<stop stop-color="#969998" offset="1"/>
</linearGradient>
<linearGradient id="linearGradient856" x1="-126.83" x2="-75.684" y1="88.591" y2="105.45" gradientTransform="matrix(.14363 0 0 .14363 32.985 261.27)" gradientUnits="userSpaceOnUse">
<stop stop-color="#d9d9d9" offset="0"/>
<stop stop-color="#787a79" offset="1"/>
</linearGradient>
<linearGradient id="linearGradient1683" x1="-37.637" x2="-36.793" y1="280.01" y2="273.36" gradientTransform="matrix(.99481 0 0 .99481 59.006 6.3424)" gradientUnits="userSpaceOnUse">
<stop stop-color="#fefefe" offset="0"/>
<stop stop-color="#8c8c8c" offset="1"/>
</linearGradient>
<radialGradient id="radialGradient1697" cx="-42.763" cy="277.02" r="7.1998" gradientTransform="matrix(.99481 0 0 .46714 59.006 152.52)" gradientUnits="userSpaceOnUse">
<stop stop-color="#fff" offset="0"/>
<stop stop-color="#ccc" offset="1"/>
</radialGradient>
</defs>
<g transform="translate(0 -263.13)">
<path d="m4.5714 264.1v32.612h24.724v-18.3c-0.04716-0.8313-0.10165-1.5753-0.3125-2.3297-0.21448-0.76736-0.55247-1.4939-0.95641-2.1892-0.51687-0.8897-1.3904-1.4633-2.1667-2.1925-0.47098-0.42711-1.4882-1.4417-2.7195-2.653-1.2212-1.2014-2.6535-2.5969-3.8492-3.6811-0.35316-0.3187-0.86616-0.64943-1.3428-0.84044-0.37009-0.14831-0.80547-0.24063-1.2258-0.30267-0.43345-0.064-0.85093-0.0958-1.1644-0.12361z" opacity=".25"/>
<path d="m4.5714 263.57v32.612h24.724v-18.3c-0.04716-0.83129-0.10165-1.5753-0.3125-2.3297-0.21448-0.76736-0.55247-1.4939-0.95641-2.1892-0.51687-0.88969-1.3904-1.4633-2.1667-2.1925-0.47098-0.42712-1.4882-1.4417-2.7195-2.653-1.2212-1.2014-2.6535-2.5969-3.8492-3.6811-0.35316-0.3187-0.86616-0.64944-1.3428-0.84044-0.37009-0.14831-0.80547-0.24063-1.2258-0.30267-0.43345-0.064-0.85093-0.0958-1.1644-0.12361z" fill="url(#linearGradient1503-8)" stroke="#808080" stroke-width=".3"/>
<ellipse cx="16.567" cy="281.86" rx="9.3987" ry="4.7257" fill="#808080"/>
<ellipse cx="16.567" cy="281.34" rx="9.3987" ry="4.7257" fill="url(#linearGradient1683)" stroke="#999" stroke-linecap="round" stroke-width=".1"/>
<ellipse cx="16.567" cy="281.93" rx="7.1624" ry="3.3633" fill="url(#radialGradient1697)" stroke="#808080" stroke-linecap="round" stroke-width=".05"/>
<path d="m26.698 282c0 1.5264-3.771 2.7637-8.4227 2.7637s-8.4227-1.2374-8.4227-2.7637c0-1.5264 3.771-2.7637 8.4227-2.7637s8.4227 1.2374 8.4227 2.7637z" fill="url(#radialGradient2873)" fill-rule="evenodd" stroke-width=".26458"/>
<path d="m20.899 281.81c0.03329 0.0668 0.14538 0.0746 0.21716 0.0543 0.12157-0.0345 0.17104-0.18658 0.26466-0.27145 0.09659-0.0876 0.19262-0.17888 0.30538-0.24431 0.19148-0.11109 0.40842-0.1717 0.61755-0.2443 0.55778-0.1936 1.1641-0.25382 1.6966-0.50897 0.39609-0.1898 0.76722-0.44413 1.0858-0.74649 0.35575-0.33762 0.67812-0.72773 0.89579-1.1672 0.21811-0.44038 0.38064-0.93138 0.38633-1.4228 0.0056-0.48075-0.09292-0.9913-0.34562-1.4003-0.19061-0.30851-0.4964-0.55879-0.82792-0.70578-0.35448-0.15716-0.7674-0.18334-1.1537-0.14929-0.33068 0.0292-0.66984 0.12064-0.95008 0.2986-0.12974 0.0824-0.25214 0.19782-0.31217 0.33931-0.18055 0.42554-0.05249 0.92304-0.08143 1.3844-0.01704 0.27151-0.18138 0.57379-0.05429 0.81434 0.04011 0.0759 0.13634 0.12463 0.22199 0.13071 0.05866 4e-3 0.1261-0.0215 0.16315-0.0671 0.05535-0.0683 0.04888-0.17129 0.04798-0.25912-0.0015-0.1436-0.08691-0.27834-0.08703-0.42195-1.73e-4 -0.20319 0.03292-0.41465 0.12215-0.5972 0.10851-0.22196 0.27119-0.4341 0.48182-0.56325 0.23013-0.14109 0.51738-0.18209 0.78721-0.19002 0.22974-7e-3 0.4629 0.0428 0.67862 0.12215 0.37009 0.11014 0.4982 0.41448 0.53169 0.75772 0.02744 0.29374-0.02844 0.59473-0.11037 0.87814-0.06916 0.23923-0.18695 0.46407-0.31671 0.67662-0.16755 0.27443-0.35886 0.53969-0.59023 0.76297-0.25649 0.24753-0.55342 0.45723-0.86855 0.62382-0.25589 0.13527-0.53881 0.2134-0.81576 0.29751-0.29622 0.0899-0.61045 0.11699-0.90214 0.22074-0.13347 0.0474-0.28063 0.0854-0.38389 0.18234-0.22128 0.20784-0.30847 0.52369-0.44147 0.79658-0.09825 0.20157-0.3626 0.41869-0.26255 0.61938z" fill="#333"/>
<path d="m10.265 274.7c-1.2512 1.9383-0.0072 5.2926 1.2758 6.7862 0.57323 0.65977 1.2778 1.2468 2.0774 1.5998 0.92865 0.41 1.9842 0.56464 2.9987 0.53108 0.92669-0.0306 1.8596-0.27526 2.7009-0.66506 0.62322-0.28877 1.2112-0.69626 1.6694-1.208 0.64202-0.71693 1.0954-1.6068 1.4251-2.5109 0.34048-0.93368 0.67714-1.9469 0.5429-2.9317-0.08568-0.6285-0.25535-1.4029-0.83471-1.7101-2.0998-1.1137-3.2996 0.4383-5.8501 0.60887-1.7315 0.11582-4.8498-1.6603-6.0055-0.50029z" fill="url(#linearGradient848)" stroke="#808080" stroke-width=".1"/>
<path d="m16.288 274.43a6.0444 2.698 0 0 0-5.9683 2.2931 6.5069 2.6242 0 0 0 0.28792 0.2318 6.5069 2.6242 0 0 0 0.0087 6e-3 6.5069 2.6242 0 0 0 0.33416 0.2128 6.5069 2.6242 0 0 0 0.02146 0.0121 6.5069 2.6242 0 0 0 0.37231 0.19172 6.5069 2.6242 0 0 0 0.0389 0.0179 6.5069 2.6242 0 0 0 0.40274 0.1693 6.5069 2.6242 0 0 0 0.05886 0.0222 6.5069 2.6242 0 0 0 0.42516 0.1463 6.5069 2.6242 0 0 0 0.08432 0.0259 6.5069 2.6242 0 0 0 0.43629 0.12202 6.5069 2.6242 0 0 0 0.11668 0.0288 6.5069 2.6242 0 0 0 0.43674 0.0977 6.5069 2.6242 0 0 0 0.15209 0.0296 6.5069 2.6242 0 0 0 0.42828 0.0743 6.5069 2.6242 0 0 0 0.19091 0.0281 6.5069 2.6242 0 0 0 0.41135 0.0525 6.5069 2.6242 0 0 0 0.23166 0.0238 6.5069 2.6242 0 0 0 0.38664 0.0326 6.5069 2.6242 0 0 0 0.2724 0.0166 6.5069 2.6242 0 0 0 0.35724 0.0154 6.5069 2.6242 0 0 0 0.49256 0.01 6.5069 2.6242 0 0 0 0.55431-0.0112 6.5069 2.6242 0 0 0 0.32206-0.0158 6.5069 2.6242 0 0 0 0.3237-0.0198 6.5069 2.6242 0 0 0 0.31033-0.0281 6.5069 2.6242 0 0 0 0.32354-0.0333 6.5069 2.6242 0 0 0 0.29556-0.0396 6.5069 2.6242 0 0 0 0.31976-0.047 6.5069 2.6242 0 0 0 0.27775-0.0501 6.5069 2.6242 0 0 0 0.31367-0.0612 6.5069 2.6242 0 0 0 0.2586-0.0599 6.5069 2.6242 0 0 0 0.30054-0.0744 6.5069 2.6242 0 0 0 0.24086-0.0695 6.5069 2.6242 0 0 0 0.28228-0.0865 6.5069 2.6242 0 0 0 0.21993-0.0779 6.5069 2.6242 0 0 0 0.26238-0.0986 6.5069 2.6242 0 0 0 0.19684-0.0853 6.5069 2.6242 0 0 0 0.23952-0.11008 6.5069 2.6242 0 0 0 0.17101-0.0907 6.5069 2.6242 0 0 0 0.21451-0.12098 6.5069 2.6242 0 0 0 0.14652-0.0964 6.5069 2.6242 0 0 0 0.18371-0.12916 6.5069 2.6242 0 0 0 0.22586-0.18853 6.5069 2.6242 0 0 0 0.0013-7.4e-4 6.0444 2.698 0 0 0-5.9635-2.2656z" fill="#f1f1f1"/>
<ellipse cx="16.267" cy="275.66" rx="6.5069" ry="2.6242" fill="#fff" stroke="#808080" stroke-width=".1"/>
<ellipse cx="16.324" cy="275.55" rx="6.2382" ry="2.3281" fill="url(#linearGradient856)"/>
<path d="m16.271 274.1c-2.8981 0-5.4029 0.8188-6.1128 1.8098 0.39353 1.1124 3.2185 1.6291 6.1128 1.6291 2.8939 0 5.8606-0.54532 6.2224-1.6342-0.71023-0.99078-3.3248-1.8047-6.2224-1.8047z" fill="#36290f" stroke-width=".26458"/>
<path d="m16.336 274.43c-2.8981 0-5.3344 0.73202-6.0443 1.723 0.71326 0.9891 3.1454 1.7524 6.0397 1.7524 2.8939 0 5.3304-0.78194 6.0443-1.7707-0.71023-0.99078-3.142-1.7047-6.0397-1.7047z" fill="url(#radialGradient3717)" stroke-width=".26458"/>
<path d="m19.751 265.48c0.01633 0.0263 0.56114 0.90462 0.72779 1.3989 0.45158 1.0123 0.25858 3.9724 0.25037 5.6588 0.02772-0.19401 4.6905-1.3958 7.111 0.80464-0.01547-0.0273-0.04888-0.0804-0.12512-0.18628-0.07235-0.10046-0.18275-0.24915-0.37164-0.44224-0.52811-0.60452-0.23093-0.0845-0.80541-0.682-0.49669-0.45047-1.5695-1.5205-2.868-2.798-1.2412-1.2212-2.6869-2.6295-3.919-3.7538z" opacity=".248"/>
<path d="m19.424 264.96c0.01548 0.0249 0.53209 0.85773 0.69011 1.3264 0.42821 0.95987 0.29224 3.218 0.28445 4.8171 0.42899-0.0223 5.1595-0.73701 7.3284 1.8241-0.02928-0.0506-0.10278-0.0927-0.14377-0.17312-0.50077-0.57318-1.1396-1.0337-1.7235-1.5822-0.47098-0.42712-1.4882-1.4417-2.7195-2.653-1.1769-1.1579-2.5478-2.4932-3.7162-3.5592z" fill="#fff" stroke="#808080" stroke-width=".3"/>
<g transform="matrix(.53602 0 0 .53727 -234.93 -13.785)" stroke-width="4.0845"></g>
<g transform="matrix(.53602 0 0 .53727 -234.93 -13.76)" stroke-width="4.0845"></g>
<g transform="translate(2.1177)" fill="#575757" aria-label="JAR">
<g transform="translate(.33354)" fill="#575757" stroke-width=".070004" aria-label="CLASS">
<path d="m6.3044 292.48q0-0.93087 0.49919-1.4349 0.43408-0.4389 1.1045-0.4389 0.8971 0 1.3119 0.58842 0.2291 0.33039 0.24598 0.66318h-0.74276q-0.072347-0.25562-0.18569-0.38585-0.20257-0.23151-0.60048-0.23151-0.40514 0-0.63907 0.32797-0.23392 0.32557-0.23392 0.92363 0 0.59807 0.24598 0.89711 0.24839 0.29662 0.62942 0.29662 0.39067 0 0.59566-0.25563 0.11334-0.13746 0.1881-0.41237h0.73553q-0.096463 0.58118-0.49437 0.94533-0.3955 0.36415-1.0153 0.36415-0.76688 0-1.2058-0.49196-0.43891-0.49437-0.43891-1.3553z"/>
<path d="m10.028 290.68h0.74276v2.9156h1.7604v0.63906h-2.5032z"/>
<path d="m14.019 292.89h0.90193l-0.44373-1.3987zm0.04582-2.2114h0.83923l1.2588 3.5546h-0.80546l-0.2291-0.7307h-1.3095l-0.24598 0.7307h-0.77652z"/>
<path d="m17.154 293.13q0.03376 0.24357 0.13264 0.36415 0.18087 0.21945 0.61977 0.21945 0.26286 0 0.42685-0.0579 0.31109-0.11093 0.31109-0.41238 0-0.17604-0.15434-0.2725-0.15434-0.094-0.48472-0.1664l-0.3762-0.0844q-0.55466-0.1254-0.76688-0.2725-0.35932-0.24598-0.35932-0.76929 0-0.47749 0.34727-0.79341 0.34726-0.31591 1.0201-0.31591 0.5619 0 0.95739 0.29903 0.39791 0.29662 0.4172 0.86334h-0.71382q-0.01929-0.32074-0.27974-0.45579-0.17363-0.0892-0.43167-0.0892-0.28698 0-0.4582 0.11575-0.17122 0.11576-0.17122 0.32315 0 0.19052 0.16881 0.28457 0.10852 0.0627 0.46302 0.1471l0.61254 0.14711q0.40273 0.0965 0.60772 0.25804 0.31833 0.2508 0.31833 0.72588 0 0.48713-0.37379 0.81028-0.37138 0.32074-1.0514 0.32074-0.69453 0-1.0924-0.31591-0.39791-0.31833-0.39791-0.87299z"/>
<path d="m20.453 293.13q0.03376 0.24357 0.13264 0.36415 0.18087 0.21945 0.61977 0.21945 0.26286 0 0.42685-0.0579 0.31109-0.11093 0.31109-0.41238 0-0.17604-0.15434-0.2725-0.15434-0.094-0.48472-0.1664l-0.3762-0.0844q-0.55466-0.1254-0.76688-0.2725-0.35932-0.24598-0.35932-0.76929 0-0.47749 0.34726-0.79341 0.34727-0.31591 1.0201-0.31591 0.5619 0 0.95739 0.29903 0.39791 0.29662 0.4172 0.86334h-0.71382q-0.01929-0.32074-0.27974-0.45579-0.17363-0.0892-0.43167-0.0892-0.28698 0-0.4582 0.11575-0.17122 0.11576-0.17122 0.32315 0 0.19052 0.16881 0.28457 0.10852 0.0627 0.46302 0.1471l0.61254 0.14711q0.40273 0.0965 0.60771 0.25804 0.31833 0.2508 0.31833 0.72588 0 0.48713-0.37379 0.81028-0.37138 0.32074-1.0514 0.32074-0.69453 0-1.0924-0.31591-0.39791-0.31833-0.39791-0.87299z"/>
</g>
</g>
</g>
</svg>
