<svg width="128" height="128" version="1.1" viewBox="0 0 33.867 33.867" xmlns="http://www.w3.org/2000/svg" xmlns:osb="http://www.openswatchbook.org/uri/2009/osb" xmlns:xlink="http://www.w3.org/1999/xlink">
<defs>
<linearGradient id="linearGradient1503" x1="29.203" x2="4.5843" y1="263.52" y2="296.17" gradientTransform="matrix(1.001 0 0 1.001 -.017758 -.26587)" gradientUnits="userSpaceOnUse">
<stop stop-color="#d9d9d9" offset="0"/>
<stop stop-color="#fff" offset="1"/>
</linearGradient>
</defs>
<g transform="translate(0 -263.13)">
<path d="m4.5714 264.12v32.612h24.724v-18.3c-0.04716-0.8313-0.10165-1.5753-0.3125-2.3297-0.21448-0.76736-0.55247-1.4939-0.95641-2.1892-0.51687-0.8897-1.3904-1.4633-2.1667-2.1925-0.47098-0.42711-1.4882-1.4417-2.7195-2.653-1.2212-1.2014-2.6535-2.5969-3.8492-3.6811-0.35316-0.3187-0.86616-0.64943-1.3428-0.84044-0.37009-0.14831-0.80547-0.24063-1.2258-0.30267-0.43345-0.064-0.85093-0.0958-1.1644-0.12361z" opacity=".25"/>
<path d="m4.5714 263.6v32.612h24.724v-18.3c-0.04716-0.83129-0.10165-1.5753-0.3125-2.3297-0.21448-0.76736-0.55247-1.4939-0.95641-2.1892-0.51687-0.88969-1.3904-1.4633-2.1667-2.1925-0.47098-0.42712-1.4882-1.4417-2.7195-2.653-1.2212-1.2014-2.6535-2.5969-3.8492-3.6811-0.35316-0.3187-0.86616-0.64944-1.3428-0.84044-0.37009-0.14831-0.80547-0.24063-1.2258-0.30267-0.43345-0.064-0.85093-0.0958-1.1644-0.12361z" fill="url(#linearGradient1503)" stroke="#808080" stroke-width=".3"/>
<path d="m19.751 265.51c0.01633 0.0263 0.56114 0.90462 0.72779 1.3989 0.45158 1.0123 0.25858 3.9724 0.25037 5.6588 0.02772-0.19401 4.6905-1.3958 7.111 0.80464-0.01547-0.0273-0.04888-0.0804-0.12512-0.18628-0.07235-0.10046-0.18275-0.24915-0.37164-0.44224-0.52811-0.60452-0.23093-0.0845-0.80541-0.682-0.49669-0.45047-1.5695-1.5205-2.868-2.798-1.2412-1.2212-2.6869-2.6295-3.919-3.7538z" opacity=".248"/>
<path d="m19.424 264.99c0.01548 0.0249 0.53209 0.85773 0.69011 1.3264 0.42821 0.95987 0.29224 3.218 0.28445 4.8171 0.42899-0.0223 5.1595-0.73701 7.3284 1.8241-0.02928-0.0506-0.10278-0.0927-0.14377-0.17312-0.50077-0.57318-1.1396-1.0337-1.7235-1.5822-0.47098-0.42712-1.4882-1.4417-2.7195-2.653-1.1769-1.1579-2.5478-2.4932-3.7162-3.5592z" fill="#fff" stroke="#808080" stroke-width=".3"/>
<g transform="matrix(.53602 0 0 .53727 -234.93 -13.76)" stroke-width="4.0845"></g>
<g transform="matrix(.14741 0 0 .14775 11.037 273.64)" fill="#5e5e5e" stroke-width="4.0845">
<path d="m64 48h-8v-16h8c8.836 0 16-7.164 16-16s-7.164-16-16-16c-8.837 0-16 7.164-16 16v8h-16v-8c0-8.836-7.164-16-16-16s-16 7.164-16 16 7.164 16 16 16h8v16h-8c-8.836 0-16 7.164-16 16s7.164 16 16 16c8.837 0 16-7.164 16-16v-8h16v7.98c0 8e-3 -1e-3 0.014-1e-3 0.02 0 8.836 7.164 16 16 16s16-7.164 16-16-7.163-15.998-15.999-16zm0-40c4.418 0 8 3.582 8 8s-3.582 8-8 8h-8v-8c0-4.418 3.582-8 8-8zm-56 8c0-4.418 3.582-8 8-8s8 3.582 8 8v8h-8c-4.418 0-8-3.583-8-8zm8 56c-4.418 0-8-3.582-8-8s3.582-8 8-8h8v8c0 4.418-3.582 8-8 8zm16-24v-16h16v16zm32 24c-4.418 0-8-3.582-8-8v-8h7.999c4.418 0 8 3.582 8 8s-3.581 8-7.999 8z" fill="#5e5e5e" stroke-width="4.0845"/>
</g>
<g transform="translate(.90466)" fill="#575757" stroke-width=".26458" aria-label="ASCII">
<path d="m10.882 292.36h0.90193l-0.44373-1.3987zm0.04582-2.2114h0.83923l1.2588 3.5546h-0.80546l-0.2291-0.7307h-1.3095l-0.24598 0.7307h-0.77653z"/>
<path d="m14.017 292.61q0.03376 0.24357 0.13264 0.36415 0.18087 0.21945 0.61977 0.21945 0.26286 0 0.42685-0.0579 0.31109-0.11093 0.31109-0.41237 0-0.17605-0.15434-0.27251-0.15434-0.0941-0.48472-0.1664l-0.3762-0.0844q-0.55466-0.12541-0.76688-0.27251-0.35932-0.24598-0.35932-0.76929 0-0.47749 0.34726-0.79341 0.34727-0.31591 1.0201-0.31591 0.5619 0 0.95739 0.29903 0.39791 0.29662 0.4172 0.86334h-0.71382q-0.01929-0.32074-0.27974-0.45578-0.17363-0.0892-0.43167-0.0892-0.28698 0-0.4582 0.11575-0.17122 0.11576-0.17122 0.32315 0 0.19052 0.16881 0.28457 0.10852 0.0627 0.46302 0.1471l0.61254 0.14711q0.40273 0.0965 0.60771 0.25804 0.31833 0.2508 0.31833 0.72588 0 0.48714-0.37379 0.81029-0.37138 0.32073-1.0514 0.32073-0.69453 0-1.0924-0.31591-0.39791-0.31833-0.39791-0.87299z"/>
<path d="m16.624 291.96q0-0.93087 0.4992-1.4349 0.43408-0.43891 1.1045-0.43891 0.8971 0 1.3119 0.58842 0.2291 0.33039 0.24598 0.66318h-0.74276q-0.07235-0.25562-0.18569-0.38585-0.20257-0.23151-0.60048-0.23151-0.40514 0-0.63906 0.32798-0.23392 0.32556-0.23392 0.92363t0.24598 0.8971q0.24839 0.29662 0.62942 0.29662 0.39067 0 0.59566-0.25562 0.11334-0.13746 0.1881-0.41238h0.73553q-0.09646 0.58119-0.49437 0.94533-0.3955 0.36415-1.0153 0.36415-0.76688 0-1.2058-0.49196-0.43891-0.49437-0.43891-1.3553z"/>
<path d="m21.028 293.71h-0.73794v-3.5546h0.73794z"/>
<path d="m22.398 293.71h-0.73794v-3.5546h0.73794z"/>
</g>
</g>
</svg>
