<svg width="128" height="128" version="1.1" viewBox="0 0 33.867 33.867" xmlns="http://www.w3.org/2000/svg">
<g transform="translate(0 -263.13)">
<g transform="matrix(.23477 0 0 .23477 -.028618 227.3)" stroke-width="3.9933">
<g transform="matrix(.77701 0 0 .77701 414.04 216.92)" stroke-width="3.9933">
<path d="m-440.37-64.327c-45.122 0-81.625 35.584-83.098 80.335v74.986c0 5.7967 4.6667 10.463 10.463 10.463h146.25c5.7967 0 10.463-4.6667 10.463-10.463v-73.583c-0.74715-45.408-37.541-81.738-83.133-81.738z" opacity=".2"/>
<g fill="#93c757" stroke-width="3.9933">
<rect transform="rotate(-58.442)" x="-178.3" y="-370.71" width="47.975" height="8.9535" ry="4.4768"/>
<rect transform="matrix(-.52337 -.85211 -.85211 .52337 0 0)" x="282" y="378.71" width="47.975" height="8.9535" ry="4.4768"/>
</g>
<path d="m-440.37-66.443c-45.122 0-81.625 35.584-83.098 80.335v74.986c0 5.7967 4.6667 10.463 10.463 10.463h146.25c5.7967 0 10.463-4.6667 10.463-10.463v-73.583c-0.74715-45.408-37.541-81.738-83.133-81.738z" fill="#93c757"/>
<path transform="scale(.26458)" d="m-1347.9 33.627-630.54 24.781 301.62 317.05h290.69c21.909 0 39.547-17.638 39.547-39.547v-278.11c-0.1339-8.1407-0.5784-16.202-1.3144-24.178z" fill="#87ba4c"/>
<path d="m-440.37-63.762c-45.122 0-81.625 35.584-83.098 80.335v1.5627h167.18v-0.15968c-0.74715-45.408-37.541-81.738-83.133-81.738z" opacity=".15"/>
<path d="m-440.37-66.443c-45.122 0-81.625 35.584-83.098 80.335v1.5627h167.18v-0.15968c-0.74715-45.408-37.541-81.738-83.133-81.738z" fill="#93c756"/>
<g fill="#fcfcfc" stroke-width="3.9933">
<circle cx="-475.02" cy="-19.417" r="11.245"/>
<circle cx="-404.61" cy="-19.417" r="11.245"/>
</g>
</g>
</g>
</g>
</svg>
