<svg width="128" height="128" version="1.1" viewBox="0 0 33.867 33.867" xmlns="http://www.w3.org/2000/svg" xmlns:xlink="http://www.w3.org/1999/xlink">
<defs>
<linearGradient id="linearGradient1503-8" x1="10.733" x2="10.733" y1="261.04" y2="285" gradientTransform="matrix(.96678 0 0 .96677 .87285 9.4386)" gradientUnits="userSpaceOnUse">
<stop stop-color="#e5e5e5" offset="0"/>
<stop stop-color="#fff" offset="1"/>
</linearGradient>
<linearGradient id="linearGradient1029" x1="-27.673" x2="-26" y1="60.189" y2="111.51" gradientTransform="matrix(.10818 0 0 .10818 -23.816 270.54)" gradientUnits="userSpaceOnUse" xlink:href="#linearGradient1025"/>
<linearGradient id="linearGradient1025">
<stop stop-color="#97c0fd" offset="0"/>
<stop stop-color="#b3cbef" offset="1"/>
</linearGradient>
<linearGradient id="linearGradient4526" x1="49.5" x2="49.5" y1="1023" y2="1003.1" gradientTransform="matrix(.40263 -.060619 .070888 .47084 -76.244 -194.45)" gradientUnits="userSpaceOnUse">
<stop stop-color="#313d7a" offset="0"/>
<stop stop-color="#3b4685" offset=".64596"/>
<stop stop-color="#364280" offset=".7343"/>
<stop stop-color="#405094" offset=".85488"/>
<stop stop-color="#354087" offset="1"/>
</linearGradient>
<linearGradient id="linearGradient4524" x1="49.5" x2="48.601" y1="1034.1" y2="1014.7" gradientTransform="matrix(1.1803 0 0 1.3082 -8.6557 -313.42)" gradientUnits="userSpaceOnUse">
<stop stop-color="#9adbe4" offset="0"/>
<stop stop-color="#d3e2ea" offset=".34468"/>
<stop stop-color="#e5f8fd" offset=".50077"/>
<stop stop-color="#baddea" offset=".87284"/>
<stop stop-color="#fff" stop-opacity="0" offset="1"/>
</linearGradient>
<linearGradient id="linearGradient4522" x1="24.749" x2="28.991" y1="81.151" y2="77.262" gradientTransform="matrix(.34112 -.051358 .060058 .39891 -4.9766 258.86)" gradientUnits="userSpaceOnUse">
<stop stop-color="#62534e" offset="0"/>
<stop stop-color="#977b60" offset="1"/>
</linearGradient>
<linearGradient id="linearGradient4520" x1="70.228" x2="70.228" y1="83.583" y2="70.79" gradientTransform="translate(0 956.36)" gradientUnits="userSpaceOnUse" xlink:href="#linearGradient3590"/>
<linearGradient id="linearGradient3590">
<stop stop-color="#2d2c30" offset="0"/>
<stop stop-color="#665749" offset=".39231"/>
<stop stop-color="#544332" offset=".66881"/>
<stop stop-color="#9c7d62" offset="1"/>
</linearGradient>
<linearGradient id="linearGradient4518" x1="23.75" x2="17.25" y1="60.75" y2="56.25" gradientTransform="matrix(.34112 -.051358 .060058 .39891 -4.9687 258.91)" gradientUnits="userSpaceOnUse">
<stop stop-color="#251f30" offset="0"/>
<stop stop-color="#423b3f" offset="1"/>
</linearGradient>
<linearGradient id="linearGradient4516" x1="20.153" x2="20.153" y1="1020.7" y2="1024.2" gradientTransform="matrix(.34112 -.051358 .060058 .39891 -62.414 -122.64)" gradientUnits="userSpaceOnUse">
<stop stop-color="#7e95bf" offset="0"/>
<stop stop-color="#a0d4ee" stop-opacity="0" offset="1"/>
</linearGradient>
<linearGradient id="linearGradient4514" x1="27.75" x2="32.125" y1="83.875" y2="79.625" gradientTransform="matrix(.34112 -.051358 .060058 .39891 -4.9766 258.86)" gradientUnits="userSpaceOnUse">
<stop stop-color="#393231" offset="0"/>
<stop stop-color="#725944" offset="1"/>
</linearGradient>
<linearGradient id="linearGradient4512" x1="28.625" x2="29" y1="1031.1" y2="1029.9" gradientTransform="matrix(.27199 -.040951 .060058 .39891 -60.235 -122.97)" gradientUnits="userSpaceOnUse" xlink:href="#linearGradient4417"/>
<linearGradient id="linearGradient4417">
<stop stop-color="#321e1b" offset="0"/>
<stop stop-color="#847b71" offset="1"/>
</linearGradient>
<linearGradient id="linearGradient4502" x1="43.929" x2="43.929" y1="1015.9" y2="1017.4" gradientTransform="matrix(.34112 -.051358 .060058 .39891 -62.414 -122.64)" gradientUnits="userSpaceOnUse">
<stop stop-color="#616782" offset="0"/>
<stop stop-color="#616782" stop-opacity="0" offset="1"/>
</linearGradient>
<linearGradient id="linearGradient4500" x1="28.625" x2="29" y1="1031.1" y2="1029.9" gradientTransform="matrix(.39 -.058717 .068664 .45607 -62.965 -182.45)" gradientUnits="userSpaceOnUse">
<stop stop-color="#322b36" offset="0"/>
<stop stop-color="#322b36" offset="1"/>
</linearGradient>
<linearGradient id="linearGradient4510" x1="76" x2="71.75" y1="75.25" y2="80.75" gradientTransform="matrix(.34003 -.051194 .059866 .39763 -4.9031 258.95)" gradientUnits="userSpaceOnUse">
<stop stop-color="#9c7d62" offset="0"/>
<stop stop-color="#9c7d62" stop-opacity="0" offset="1"/>
</linearGradient>
<radialGradient id="radialGradient4508" cx="73.375" cy="1026.9" r="8.1759" gradientTransform="matrix(.45172 -.064441 .037067 .25843 -45.879 23.693)" gradientUnits="userSpaceOnUse">
<stop stop-color="#decab3" offset="0"/>
<stop stop-color="#fff" stop-opacity="0" offset="1"/>
</radialGradient>
<linearGradient id="linearGradient4506" x1="76.5" x2="76.688" y1="1031.1" y2="1035" gradientTransform="matrix(.34003 -.051194 .059866 .39763 -62.157 -121.33)" gradientUnits="userSpaceOnUse">
<stop stop-color="#4e3b2a" offset="0"/>
<stop stop-opacity="0" offset="1"/>
</linearGradient>
<linearGradient id="linearGradient4504" x1="65.231" x2="74.953" y1="1038.9" y2="1031.7" gradientTransform="matrix(.34003 -.051194 .059866 .39763 -62.157 -121.33)" gradientUnits="userSpaceOnUse">
<stop stop-color="#74655b" offset="0"/>
<stop stop-color="#8d755b" offset="1"/>
</linearGradient>
<radialGradient id="radialGradient953" cx="1410.5" cy="568.86" r="127.14" gradientTransform="matrix(.046512 -.051561 .050599 .045645 -67.368 340.09)" gradientUnits="userSpaceOnUse">
<stop stop-color="#675a4a" offset="0"/>
<stop stop-color="#8f949a" offset="1"/>
</radialGradient>
<linearGradient id="linearGradient3594" x1="49.5" x2="48.647" y1="1034.1" y2="1012.4" gradientTransform="matrix(1.5169 -.22838 .29599 1.966 -299.35 -1920.1)" gradientUnits="userSpaceOnUse">
<stop stop-color="#9adbe4" offset="0"/>
<stop stop-color="#d3e2ea" offset=".34468"/>
<stop stop-color="#e5f8fd" offset=".50077"/>
<stop stop-color="#baddea" offset=".88147"/>
<stop stop-color="#fff" stop-opacity="0" offset="1"/>
</linearGradient>
<linearGradient id="linearGradient3598" x1="70.228" x2="70.228" y1="83.583" y2="70.79" gradientTransform="matrix(1.2851 -.19349 .22627 1.5029 -.91876 -13.426)" gradientUnits="userSpaceOnUse" xlink:href="#linearGradient3590"/>
<linearGradient id="linearGradient3606" x1="28.625" x2="29" y1="1031.1" y2="1029.9" gradientTransform="matrix(.27199 -.040951 .060058 .39891 22.178 -96.491)" gradientUnits="userSpaceOnUse" xlink:href="#linearGradient4417"/>
<linearGradient id="linearGradient3691" x1="70.278" x2="71.602" y1="-21.994" y2="9.0626" gradientTransform="matrix(.19886 0 0 .19886 12.496 282.84)" gradientUnits="userSpaceOnUse" xlink:href="#linearGradient1025"/>
</defs>
<g transform="translate(0 -263.13)">
<g transform="translate(-26.313 6.0567)" fill="none">
<path d="m31.618 258.21v31.496h23.878v-17.674c-0.04555-0.80283-0.09817-1.5214-0.3018-2.2499-0.20714-0.74109-0.53356-1.4428-0.92367-2.1143-0.49918-0.85923-1.3428-1.4132-2.0925-2.1174-0.45486-0.4125-1.4373-1.3923-2.6264-2.5622-1.1794-1.1603-2.5626-2.508-3.7174-3.5551-0.34107-0.30778-0.83651-0.6272-1.2968-0.81166-0.35742-0.14324-0.7779-0.2324-1.1839-0.29231-0.41861-0.0618-0.8218-0.0925-1.1245-0.11938z" stroke="#000" stroke-linecap="round" stroke-linejoin="round" stroke-opacity=".011765" stroke-width=".1"/>
<path d="m31.618 258.21v31.496h23.878v-17.674c-0.04555-0.80283-0.09817-1.5214-0.3018-2.2499-0.20714-0.74109-0.53356-1.4428-0.92367-2.1143-0.49918-0.85923-1.3428-1.4132-2.0925-2.1174-0.45486-0.4125-1.4373-1.3923-2.6264-2.5622-1.1794-1.1603-2.5626-2.508-3.7174-3.5551-0.34107-0.30778-0.83651-0.6272-1.2968-0.81166-0.35742-0.14324-0.7779-0.2324-1.1839-0.29231-0.41861-0.0618-0.8218-0.0925-1.1245-0.11938z" stroke="#000" stroke-linecap="round" stroke-linejoin="round" stroke-opacity=".011765" stroke-width=".2"/>
<path d="m31.618 258.21v31.496h23.878v-17.674c-0.04555-0.80283-0.09817-1.5214-0.3018-2.2499-0.20714-0.74109-0.53356-1.4428-0.92367-2.1143-0.49918-0.85923-1.3428-1.4132-2.0925-2.1174-0.45486-0.4125-1.4373-1.3923-2.6264-2.5622-1.1794-1.1603-2.5626-2.508-3.7174-3.5551-0.34107-0.30778-0.83651-0.6272-1.2968-0.81166-0.35742-0.14324-0.7779-0.2324-1.1839-0.29231-0.41861-0.0618-0.8218-0.0925-1.1245-0.11938z" stroke="#000" stroke-linecap="round" stroke-linejoin="round" stroke-opacity=".011765" stroke-width=".3"/>
<path d="m31.618 258.21v31.496h23.878v-17.674c-0.04555-0.80283-0.09817-1.5214-0.3018-2.2499-0.20714-0.74109-0.53356-1.4428-0.92367-2.1143-0.49918-0.85923-1.3428-1.4132-2.0925-2.1174-0.45486-0.4125-1.4373-1.3923-2.6264-2.5622-1.1794-1.1603-2.5626-2.508-3.7174-3.5551-0.34107-0.30778-0.83651-0.6272-1.2968-0.81166-0.35742-0.14324-0.7779-0.2324-1.1839-0.29231-0.41861-0.0618-0.8218-0.0925-1.1245-0.11938z" stroke="#000" stroke-linecap="round" stroke-linejoin="round" stroke-opacity=".011765" stroke-width=".4"/>
<path d="m31.618 258.21v31.496h23.878v-17.674c-0.04555-0.80283-0.09817-1.5214-0.3018-2.2499-0.20714-0.74109-0.53356-1.4428-0.92367-2.1143-0.49918-0.85923-1.3428-1.4132-2.0925-2.1174-0.45486-0.4125-1.4373-1.3923-2.6264-2.5622-1.1794-1.1603-2.5626-2.508-3.7174-3.5551-0.34107-0.30778-0.83651-0.6272-1.2968-0.81166-0.35742-0.14324-0.7779-0.2324-1.1839-0.29231-0.41861-0.0618-0.8218-0.0925-1.1245-0.11938z" stroke="#000" stroke-linecap="round" stroke-linejoin="round" stroke-opacity=".011765" stroke-width=".6"/>
<path d="m31.618 258.21v31.496h23.878v-17.674c-0.04555-0.80283-0.09817-1.5214-0.3018-2.2499-0.20714-0.74109-0.53356-1.4428-0.92367-2.1143-0.49918-0.85923-1.3428-1.4132-2.0925-2.1174-0.45486-0.4125-1.4373-1.3923-2.6264-2.5622-1.1794-1.1603-2.5626-2.508-3.7174-3.5551-0.34107-0.30778-0.83651-0.6272-1.2968-0.81166-0.35742-0.14324-0.7779-0.2324-1.1839-0.29231-0.41861-0.0618-0.8218-0.0925-1.1245-0.11938z" stroke="#000" stroke-linecap="round" stroke-linejoin="round" stroke-opacity=".011765" stroke-width=".8"/>
<path d="m31.618 258.21v31.496h23.878v-17.674c-0.04555-0.80283-0.09817-1.5214-0.3018-2.2499-0.20714-0.74109-0.53356-1.4428-0.92367-2.1143-0.49918-0.85923-1.3428-1.4132-2.0925-2.1174-0.45486-0.4125-1.4373-1.3923-2.6264-2.5622-1.1794-1.1603-2.5626-2.508-3.7174-3.5551-0.34107-0.30778-0.83651-0.6272-1.2968-0.81166-0.35742-0.14324-0.7779-0.2324-1.1839-0.29231-0.41861-0.0618-0.8218-0.0925-1.1245-0.11938z" stroke="#000" stroke-linecap="round" stroke-linejoin="round" stroke-opacity=".011765"/>
<path d="m31.618 258.21v31.496h23.878v-17.674c-0.04555-0.80283-0.09817-1.5214-0.3018-2.2499-0.20714-0.74109-0.53356-1.4428-0.92367-2.1143-0.49918-0.85923-1.3428-1.4132-2.0925-2.1174-0.45486-0.4125-1.4373-1.3923-2.6264-2.5622-1.1794-1.1603-2.5626-2.508-3.7174-3.5551-0.34107-0.30778-0.83651-0.6272-1.2968-0.81166-0.35742-0.14324-0.7779-0.2324-1.1839-0.29231-0.41861-0.0618-0.8218-0.0925-1.1245-0.11938z" stroke="#000" stroke-linecap="round" stroke-linejoin="round" stroke-opacity=".011765" stroke-width="1.3"/>
<path d="m31.618 258.21v31.496h23.878v-17.674c-0.04555-0.80283-0.09817-1.5214-0.3018-2.2499-0.20714-0.74109-0.53356-1.4428-0.92367-2.1143-0.49918-0.85923-1.3428-1.4132-2.0925-2.1174-0.45486-0.4125-1.4373-1.3923-2.6264-2.5622-1.1794-1.1603-2.5626-2.508-3.7174-3.5551-0.34107-0.30778-0.83651-0.6272-1.2968-0.81166-0.35742-0.14324-0.7779-0.2324-1.1839-0.29231-0.41861-0.0618-0.8218-0.0925-1.1245-0.11938z" stroke="#000" stroke-linecap="round" stroke-linejoin="round" stroke-opacity=".011765" stroke-width="1.6"/>
<path d="m31.618 258.21v31.496h23.878v-17.674c-0.04555-0.80283-0.09817-1.5214-0.3018-2.2499-0.20714-0.74109-0.53356-1.4428-0.92367-2.1143-0.49918-0.85923-1.3428-1.4132-2.0925-2.1174-0.45486-0.4125-1.4373-1.3923-2.6264-2.5622-1.1794-1.1603-2.5626-2.508-3.7174-3.5551-0.34107-0.30778-0.83651-0.6272-1.2968-0.81166-0.35742-0.14324-0.7779-0.2324-1.1839-0.29231-0.41861-0.0618-0.8218-0.0925-1.1245-0.11938z" stroke="#000" stroke-linecap="round" stroke-linejoin="round" stroke-opacity=".011765" stroke-width="2.1"/>
<path d="m31.618 258.21v31.496h23.878v-17.674c-0.04555-0.80283-0.09817-1.5214-0.3018-2.2499-0.20714-0.74109-0.53356-1.4428-0.92367-2.1143-0.49918-0.85923-1.3428-1.4132-2.0925-2.1174-0.45486-0.4125-1.4373-1.3923-2.6264-2.5622-1.1794-1.1603-2.5626-2.508-3.7174-3.5551-0.34107-0.30778-0.83651-0.6272-1.2968-0.81166-0.35742-0.14324-0.7779-0.2324-1.1839-0.29231-0.41861-0.0618-0.8218-0.0925-1.1245-0.11938z" stroke-width="0"/>
</g>
<g transform="matrix(.53602 0 0 .53727 -234.93 -13.785)" stroke-width="4.0845"></g>
<g transform="matrix(.53602 0 0 .53727 -234.93 -13.76)" stroke-width="4.0845"></g>
<path d="m5.3049 264.27v31.496h23.878v-17.674c-0.04555-0.80283-0.09817-1.5214-0.3018-2.2499-0.20714-0.74109-0.53356-1.4428-0.92367-2.1143-0.49918-0.85923-1.3428-1.4132-2.0925-2.1174-0.45486-0.4125-1.4373-1.3923-2.6264-2.5622-1.1794-1.1603-2.5626-2.508-3.7174-3.5551-0.34107-0.30778-0.83651-0.6272-1.2968-0.81166-0.35742-0.14324-0.7779-0.2324-1.1839-0.29231-0.41861-0.0618-0.8218-0.0925-1.1245-0.11938z" fill="url(#linearGradient1503-8)"/>
<rect transform="matrix(.98951 -.14443 .14443 .98951 0 0)" x="-32.3" y="276.68" width="14.482" height="11.627" opacity=".25"/>
<rect x="10.153" y="275.02" width="14.482" height="11.627" fill="#ececec" stroke="#999" stroke-width=".054401"/>
<rect x="10.616" y="275.46" width="13.48" height="10.781" fill="#aa8861" stroke="#856b4c" stroke-width=".054401"/>
<rect transform="matrix(.98951 -.14443 .14443 .98951 0 0)" x="-32.267" y="276.45" width="14.482" height="11.627" fill="#ececec" stroke="#999" stroke-width=".054401"/>
<rect transform="matrix(.98951 -.14443 .14443 .98951 0 0)" x="-31.805" y="276.89" width="13.48" height="10.781" fill="url(#linearGradient1029)" stroke="#312b53" stroke-width=".054401"/>
<g transform="matrix(.54227 0 0 .54227 7.8558 131.06)" stroke-width="1.0032">
<path d="m1.9169 276.84 1.7309 11.496c0.28519 1.8942 1.8132 3.218 3.433 2.9741l18.722-2.8188c1.6198-0.24388 2.6903-1.9589 2.4051-3.8531l-1.7309-11.496z" fill="url(#linearGradient4526)"/>
<g transform="matrix(.34112 -.051358 .060058 .39891 -62.414 -122.64)" stroke-width=".24353">
<path d="m12 1007.8c0.1237 11.136-0.09145 17.187-0.1194 20.896-0.04814 6.3863-0.0035 5.7455-0.05262 11.578 1.902 0.065 3.8623 0.024 5.7934 0.029 22.012 0.05 44.713 0.07 66.036-0.028 0.59357 0-1.2835 0.014-3.6417-0.099 6.4701 0.0979 3.9841-4.2213 3.9841-8.3762v-24z" fill="url(#linearGradient4524)"/>
</g>
<path d="m19.726 275.19-17.511 3.6279-0.14179-0.94174z" fill="#312b53"/>
<path d="m13.046 286.97-2.479 0.98515-2.47 0.32088-2.4144 2.8622c0.4378 0.18127 0.9152 0.24467 1.3995 0.17176l4.4559-0.67086 6.2449-0.95286-1.9991-1.3308-2.0169-0.65245-0.72083-0.73287z" fill="url(#linearGradient4522)"/>
<g transform="matrix(.34112 -.051358 .060058 .39891 -62.414 -122.64)" stroke-width=".24353">
<path d="m84 1028.2-6.0518-0.2408-3.8338-1.0048-10.68 4.2227-2.6914 3.8447-3.3037 0.318-7.4701 5.0535h25.469l5.2881 0.1768c4.2825 0.1431 3.2744 0.2556 3.2744-8.6509z" fill="url(#linearGradient4520)"/>
</g>
<path d="m5.9599 280.6-1.892 0.75653-1.4447 0.17917 0.32281 2.1441 1.0324-0.15543 0.52788-0.9221 0.84567 0.51659c0.31539 0.15021 0.68163 0.21076 1.1291 0.12757l3.0939-0.57543-1.5271-1.0194-1.5461-0.49387z" fill="url(#linearGradient4518)"/>
<path d="m11.538 290.64 6.2449-0.95286-1.9991-1.3308z" fill="#584233"/>
<path d="m6.7252 285.68-2.0309-0.16595-1.4335 0.25417-0.32281-2.1441 1.0247-0.15427 0.53603-0.94556c0.90211 0.59249 1.1691 0.76496 2.2066 0.60876l2.8648-0.49675-1.1592 1.4239-1.3321 0.92724z" fill="url(#linearGradient4516)"/>
<path d="m12.291 287.75-0.04996-0.45664-1.4647 1.9357-0.20912-1.2705-0.93226 2.9705 0.87988-0.13247c1.1012-1.4757 2.1975-2.827 3.2522-3.0903z" fill="url(#linearGradient4514)"/>
<path d="m8.4927 289.45-2.1074 1.8599c0.02979 4e-3 0.059063 9e-3 0.089003 0.0119 0.18684 0.0157 0.384 0.0157 0.57624-0.0103 0.010824-1e-3 0.021187-3e-3 0.03198-5e-3l2.6205-0.40718-1.2103-1.4496z" fill="#393231"/>
<path d="m12.964 279.54 0.43387 0.10153 0.39028-0.0726 0.54359 0.59956c-0.05403 0.0755-0.12148 0.12264-0.19863 0.13425l-0.70992 0.10689-0.99603 0.14465 0.21472-0.47732 0.26052-0.30002 0.06133-0.23867z" fill="#2a2024"/>
<path d="m9.1624 286.46 0.35093 0.11402 0.31078-0.0607 0.45377 0.61308c-0.04107 0.0736-0.09375 0.11847-0.15527 0.12773l-0.56606 0.0852c-0.32363 0.0487-0.50567 0.0822-0.71902-0.1093l0.0826-0.24518 0.19995-0.2909 0.04206-0.23576z" fill="url(#linearGradient4512)"/>
<path d="m13.241 281.37 0.38474-0.22478 0.39437-0.0455 0.34296-0.73303c-0.07387-0.0563-0.1522-0.0814-0.22936-0.0698l-0.70992 0.10689-0.99446 0.15502 0.34574 0.39294 0.33731 0.21002 0.12889 0.21003z" fill="url(#linearGradient4502)"/>
<path d="m18.579 285.31 0.49604 0.11607 0.4462-0.0831 0.62148 0.68546c-0.06177 0.0864-0.13888 0.14023-0.22709 0.15351l-0.81164 0.1222c-0.46404 0.0699-0.72533 0.11614-1.0216-0.0949l0.12839-0.28544 0.29785-0.34301 0.07012-0.27287z" fill="url(#linearGradient4500)"/>
<path d="m17.313 286.53 0.35098 0.0821 0.31569-0.059 0.43974 0.48502c-0.04371 0.0611-0.09827 0.0992-0.16068 0.1086l-0.57429 0.0865c-0.32834 0.0494-0.51322 0.0822-0.72288-0.0671l0.09084-0.20195 0.21074-0.24272 0.04961-0.19309z" fill="#4a362c"/>
<path d="m15.033 279.67 0.22938 0.0537 0.20633-0.0384 0.28739 0.31699c-0.02859 0.0398-0.06423 0.0648-0.10502 0.071l-0.37532 0.0565-0.52677 0.0752 0.11352-0.25235 0.13773-0.15863 0.03243-0.12616z" fill="#2a2024"/>
</g>
<g transform="matrix(.54401 0 0 .54401 7.8245 130.56)">
<path d="m26.047 281.38c-1.5985 3.7e-4 -3.106 0.3959-4.3041 1.2231-1.144 0.78984-2.0146 0.64693-1.9313 1.447 0.1482 1.4234-0.02726-0.29608 0.11521 0.89819 0.07634 0.63991 0.2749 3.0839 0.58632 4.5969 0.05725 0.27812 0.13189 0.56036 0.23472 0.81892 1.0309 2.5922 3.3469 4.2659 6.0387 4.2659 3.6298 0 6.1998-2.3826 6.7427-5.7688 0.04246-0.32438 0.01551-0.58408-5.96e-4 -0.87544-0.1111-2.009-0.48107-5.1823-0.66148-6-0.12714-0.73836-0.0786 1.621-1.0201 1.0556-1.8097-1.0868-3.8711-1.662-5.8003-1.6615z" opacity=".25"/>
<path d="m25.476 285.91-2.7169 3.0338 1.547-0.26261z" fill="#393231"/>
<path d="m27.958 283.2-2.0722 0.21406-1.3638-0.20327-3.3788 2.2258 5.4019 2.6086c1.5666-0.28994 2.2554 0.75061 1.9762-1.1039z" fill="url(#linearGradient4510)"/>
<path d="m23.76 284.16-1.1492 0.9609 0.74318-0.0357-0.36642 1.4276s0.70621-1.4388 1.2137-1.6949l0.50521-0.26669 2.011-0.13756c0.66425 0.3506 1.1733 0.6122 1.4996 0.72727-0.0052-0.15996-0.01695-0.32569-0.04159-0.48931l-0.05426-0.36038-0.0056-0.0374c-0.08503-0.11395-0.15765-0.21574-0.26713-0.35374l-1.7358 0.26134-2.3528-2e-3z" fill="url(#radialGradient4508)"/>
<path d="m22.987 286.51s0.70621-1.4388 1.2137-1.6949l0.50521-0.26669 2.011-0.13756c0.66425 0.3506 1.1733 0.6122 1.4996 0.72727l-1.6718 2.9122-1.0477-2.1988z" fill="url(#linearGradient4506)"/>
<path d="m25.476 285.91-2.7169 3.0338-2.2077 0.30269 3.7517-3.3632 0.90924-0.48766z" fill="url(#linearGradient4504)"/>
<path d="m26.047 280.96c-1.5985 3.6e-4 -3.106 0.39589-4.3041 1.2231-1.144 0.78985-2.0146 0.64694-1.9313 1.447 0.1482 1.4234-0.02726-0.29608 0.11521 0.89819 0.07634 0.6399 0.2749 3.0839 0.58632 4.5969 0.05725 0.27812 0.13189 0.56036 0.23472 0.81892 1.0309 2.5922 3.3469 4.2659 6.0387 4.2659 3.6298 0 6.1998-2.3826 6.7427-5.7688 0.04246-0.32438 0.01551-0.58408-5.96e-4 -0.87545-0.1111-2.009-0.48107-5.1823-0.66148-6-0.12714-0.73836-0.0786 1.621-1.0201 1.0556-1.8097-1.0868-3.8711-1.662-5.8003-1.6615z" fill="url(#radialGradient953)" stroke="#4d4d4d" stroke-width=".1"/>
<path d="m33.2 284.19a6.4814 6.5982 88.779 0 1-6.4943 6.4064 6.4814 6.5982 88.779 0 1-6.6817-6.134 6.4814 6.5982 88.779 0 0-0.0062 0.17419 6.4814 6.5982 88.779 0 0 6.6942 6.3807 6.4814 6.5982 88.779 0 0 6.5005-6.5807 6.4814 6.5982 88.779 0 0-0.01251-0.24657z"/>
<ellipse cx="26.513" cy="283.31" rx="6.7632" ry="6.4814" fill="#dcecf4" stroke="#000" stroke-linecap="square" stroke-width=".1"/>
<ellipse cx="26.471" cy="283.29" rx="5.9926" ry="5.9593" fill="#131414"/>
<g transform="matrix(.9968 0 0 .9968 -64.47 -29.966)" stroke-width="1.0032">
<g transform="matrix(.34112 -.051358 .060058 .39891 6.9958 -91.024)" stroke-width=".24353">
<path transform="matrix(.76088 .09796 -.11455 .65065 -.83895 965.19)" d="m99.924 57.643a21.965 21.611 0 0 0-21.965 21.611 21.965 21.611 0 0 0 0.18359 2.582 22.649 22.523 0 0 0 21.906 16.869 22.649 22.523 0 0 0 21.416-15.264 21.965 21.611 0 0 0 0.42188-4.1875 21.965 21.611 0 0 0-21.963-21.611z" fill="url(#linearGradient3594)"/>
<path transform="matrix(.76088 .09796 -.11455 .65065 -.83895 965.19)" d="m110.29 78.277-12.771 8.4121-2.5879 6.2988-4.1738 1.1172-1.6582 1.7734a22.649 22.523 0 0 0 10.945 2.8262 22.649 22.523 0 0 0 21.416-15.264 21.965 21.611 0 0 0 0.42188-4.1875 21.965 21.611 0 0 0-0.0449-0.86914l-6.3926 0.66016z" fill="url(#linearGradient3598)"/>
</g>
<path d="m91.575 312.93 0.35093 0.11402 0.31078-0.0607 0.45376 0.61308c-0.04107 0.0736-0.09375 0.11847-0.15527 0.12773l-0.56606 0.0852c-0.32363 0.0487-0.50568 0.0822-0.71902-0.1093l0.0826-0.24518 0.19995-0.2909 0.04206-0.23576z" fill="url(#linearGradient3606)"/>
<path d="m94.683 313.59 0.35098 0.0821 0.31569-0.059 0.43974 0.48503c-0.04371 0.0611-0.09827 0.0992-0.16068 0.1086l-0.57429 0.0865c-0.32834 0.0494-0.51322 0.0822-0.72288-0.0671l0.09084-0.20195 0.21074-0.24272 0.04961-0.19309z" fill="#4a362c"/>
</g>
<path d="m26.471 278.47a5.78 5.78 0 0 0-5.7799 5.7801 5.78 5.78 0 0 0 0.0613 0.78348 5.9926 5.9593 0 0 0 5.6921 4.1195 5.9926 5.9593 0 0 0 5.7764-4.3992 5.78 5.78 0 0 0 0.03-0.50375 5.78 5.78 0 0 0-5.7799-5.7801z" fill="url(#linearGradient3691)" opacity=".259"/>
</g>
<g transform="matrix(.96577 0 0 .96577 .89 9.7195)" opacity=".405">
<path transform="matrix(.26458 0 0 .26458 0 263.13)" d="m67.66 3.2109c2.2138 7.0642 4.0981 14.045 3.6719 27.797a4.7249 4.7249 0 0 0 4.6875 4.8633c13.553 0.11187 21.724 2.5502 27.535 5.8848 2.1126 1.2123 3.9386 2.5701 5.6172 4.0449-0.80702-2.4772-1.9236-4.8485-3.2461-7.125-1.9535-3.3626-5.2534-5.5313-8.1875-8.2871-0.38115-0.34565-0.90086-0.8383-1.459-1.373-4.6071-1.1052-9.8871-1.8244-15.883-2.1348-0.078596-5.2828-0.34738-10.115-0.88281-14.246-2.2783-2.1828-4.5373-4.3121-6.6035-6.1855-1.3348-1.2045-3.2729-2.4539-5.0742-3.1758-0.05648-0.022633-0.11852-0.040551-0.17578-0.0625z" color="#000000" color-rendering="auto" dominant-baseline="auto" fill-opacity=".019608" image-rendering="auto" opacity="1" shape-rendering="auto" solid-color="#000000" style="font-feature-settings:normal;font-variant-alternates:normal;font-variant-caps:normal;font-variant-ligatures:normal;font-variant-numeric:normal;font-variant-position:normal;isolation:auto;mix-blend-mode:normal;shape-padding:0;text-decoration-color:#000000;text-decoration-line:none;text-decoration-style:solid;text-indent:0;text-orientation:mixed;text-transform:none;white-space:normal"/>
<path transform="matrix(.26458 0 0 .26458 0 263.13)" d="m67.66 3.2109c2.2138 7.0642 4.0981 14.045 3.6719 27.797a4.7249 4.7249 0 0 0 4.6875 4.8633c13.553 0.11187 21.724 2.5502 27.535 5.8848 2.1126 1.2123 3.9386 2.5701 5.6172 4.0449-0.80702-2.4772-1.9236-4.8485-3.2461-7.125-1.9535-3.3626-5.2534-5.5313-8.1875-8.2871-0.38115-0.34565-0.90086-0.8383-1.459-1.373-4.6071-1.1052-9.8871-1.8244-15.883-2.1348-0.078596-5.2828-0.34738-10.115-0.88281-14.246-2.2783-2.1828-4.5373-4.3121-6.6035-6.1855-1.3348-1.2045-3.2729-2.4539-5.0742-3.1758-0.05648-0.022633-0.11852-0.040551-0.17578-0.0625z" color="#000000" color-rendering="auto" dominant-baseline="auto" fill-opacity=".019608" image-rendering="auto" opacity="1" shape-rendering="auto" solid-color="#000000" style="font-feature-settings:normal;font-variant-alternates:normal;font-variant-caps:normal;font-variant-ligatures:normal;font-variant-numeric:normal;font-variant-position:normal;isolation:auto;mix-blend-mode:normal;shape-padding:0;text-decoration-color:#000000;text-decoration-line:none;text-decoration-style:solid;text-indent:0;text-orientation:mixed;text-transform:none;white-space:normal"/>
<path d="m19.424 264.96c0.01548 0.0249 0.53209 0.85773 0.69011 1.3264 0.42821 0.95987 0.29224 3.218 0.28445 4.8171 0.42899-0.0223 5.1595-0.73701 7.3284 1.8241-0.02928-0.0506-0.10278-0.0927-0.14377-0.17312-0.50077-0.57318-1.1396-1.0337-1.7235-1.5822-0.47098-0.42712-1.4882-1.4417-2.7195-2.653-1.1769-1.1579-2.5478-2.4932-3.7162-3.5592z" fill="#fff" opacity="1"/>
<path transform="matrix(.26458 0 0 .26458 0 263.13)" d="m62.348 2.0254c2.5307 7.9959 4.7266 14.026 4.2676 28.834a9.4498 9.4498 0 0 0 9.3594 9.7363c12.993 0.10734 20.24 2.3911 25.232 5.2559 3.7353 2.1435 6.4818 4.8161 9.4024 8.1348-0.1694-2.4465-0.42466-4.7341-1.0684-7.0371-0.81064-2.9003-2.0885-5.6455-3.6152-8.2734-1.9535-3.3626-5.2534-5.5313-8.1875-8.2871-1.7801-1.6143-5.6257-5.449-10.279-10.027-4.6155-4.5408-10.03-9.8145-14.549-13.912-1.3348-1.2045-3.2729-2.4539-5.0742-3.1758-1.3988-0.56054-3.0441-0.91005-4.6328-1.1445-0.29556-0.04364-0.5658-0.067172-0.85547-0.10352zm22.781 17.082 4.7324 4.0742c-1.4538-0.22488-3.0715-0.34506-4.6289-0.50195-0.05669-1.1469-0.01379-2.5016-0.10352-3.5723z" color="#000000" color-rendering="auto" dominant-baseline="auto" fill-opacity=".019608" image-rendering="auto" opacity="1" shape-rendering="auto" solid-color="#000000" style="font-feature-settings:normal;font-variant-alternates:normal;font-variant-caps:normal;font-variant-ligatures:normal;font-variant-numeric:normal;font-variant-position:normal;isolation:auto;mix-blend-mode:normal;shape-padding:0;text-decoration-color:#000000;text-decoration-line:none;text-decoration-style:solid;text-indent:0;text-orientation:mixed;text-transform:none;white-space:normal"/>
<path d="m15.558 263.57c0.69737 2.2242 1.2949 3.6931 1.1715 7.6745a3.0003 3.0003 0 0 0 2.9729 3.0918c3.3785 0.0279 5.1954 0.61571 6.4296 1.324 1.081 0.62035 1.8433 1.4389 2.7678 2.5249v-0.33848c-0.04716-0.83129-0.1018-1.5752-0.31264-2.3296-0.21448-0.76736-0.55259-1.4937-0.95653-2.189-0.51687-0.88969-1.39-1.4635-2.1663-2.1926-0.47098-0.42712-1.4885-1.4417-2.7197-2.6531-1.2212-1.2014-2.6537-2.5968-3.8494-3.6809-0.35316-0.3187-0.86595-0.64926-1.3426-0.84026-0.37009-0.14831-0.8054-0.24078-1.2258-0.30282-0.27389-0.0404-0.53003-0.0665-0.76894-0.0884z" color="#000000" color-rendering="auto" dominant-baseline="auto" fill-opacity=".019608" image-rendering="auto" opacity="1" shape-rendering="auto" solid-color="#000000" style="font-feature-settings:normal;font-variant-alternates:normal;font-variant-caps:normal;font-variant-ligatures:normal;font-variant-numeric:normal;font-variant-position:normal;isolation:auto;mix-blend-mode:normal;shape-padding:0;text-decoration-color:#000000;text-decoration-line:none;text-decoration-style:solid;text-indent:0;text-orientation:mixed;text-transform:none;white-space:normal"/>
<path transform="matrix(.26458 0 0 .26458 0 263.13)" d="m66.561 2.8398c2.2919 7.2585 4.2621 14.077 3.8262 28.139a5.6699 5.6699 0 0 0 5.625 5.8379c13.441 0.11074 21.423 2.5172 27.07 5.7578 2.5348 1.4546 4.6477 3.1319 6.5996 4.9805-0.0507-0.20172-0.0842-0.4035-0.14062-0.60547-0.81064-2.9003-2.0885-5.6455-3.6152-8.2734-1.9535-3.3626-5.2534-5.5313-8.1875-8.2871-0.59933-0.54352-1.502-1.4098-2.5215-2.4004-4.1103-0.9722-8.7345-1.6414-13.957-1.957-0.10982-4.5404-0.33237-8.8138-0.79102-12.48-2.6052-2.5081-5.1999-4.963-7.5586-7.1016-1.3348-1.2045-3.2729-2.4539-5.0742-3.1758-0.40585-0.16264-0.8354-0.30421-1.2754-0.43359z" color="#000000" color-rendering="auto" dominant-baseline="auto" fill-opacity=".019608" image-rendering="auto" opacity="1" shape-rendering="auto" solid-color="#000000" style="font-feature-settings:normal;font-variant-alternates:normal;font-variant-caps:normal;font-variant-ligatures:normal;font-variant-numeric:normal;font-variant-position:normal;isolation:auto;mix-blend-mode:normal;shape-padding:0;text-decoration-color:#000000;text-decoration-line:none;text-decoration-style:solid;text-indent:0;text-orientation:mixed;text-transform:none;white-space:normal"/>
<path transform="matrix(.26458 0 0 .26458 0 263.13)" d="m65.482 2.5547c2.3608 7.4451 4.4025 14.084 3.959 28.393a6.6148 6.6148 0 0 0 6.5625 6.8145c13.329 0.10998 21.13 2.4862 26.613 5.6328 2.9039 1.6664 5.2484 3.6278 7.4434 5.8438-0.13943-0.76458-0.30624-1.526-0.51953-2.2891-0.81064-2.9003-2.0885-5.6455-3.6152-8.2734-1.9535-3.3626-5.2534-5.5313-8.1875-8.2871-0.8307-0.75335-2.1457-2.0254-3.748-3.5957-3.5721-0.76811-7.5178-1.309-11.859-1.6094-0.13081-3.9089-0.35976-7.5773-0.77734-10.771-2.9043-2.8074-5.8113-5.5764-8.4434-7.9629-1.3348-1.2045-3.2729-2.4539-5.0742-3.1758-0.73101-0.29295-1.531-0.52753-2.3535-0.71875z" color="#000000" color-rendering="auto" dominant-baseline="auto" fill-opacity=".019608" image-rendering="auto" opacity="1" shape-rendering="auto" solid-color="#000000" style="font-feature-settings:normal;font-variant-alternates:normal;font-variant-caps:normal;font-variant-ligatures:normal;font-variant-numeric:normal;font-variant-position:normal;isolation:auto;mix-blend-mode:normal;shape-padding:0;text-decoration-color:#000000;text-decoration-line:none;text-decoration-style:solid;text-indent:0;text-orientation:mixed;text-transform:none;white-space:normal"/>
<path transform="matrix(.26458 0 0 .26458 0 263.13)" d="m64.42 2.332c2.4215 7.628 4.5278 14.08 4.0781 28.586a7.5598 7.5598 0 0 0 7.4922 7.7891c13.217 0.10923 20.835 2.4532 26.154 5.5059 3.2167 1.8459 5.7335 4.0624 8.1582 6.6328-0.17087-1.3123-0.40005-2.6026-0.76171-3.8965-0.81064-2.9003-2.0885-5.6455-3.6152-8.2734-1.9535-3.3626-5.2534-5.5313-8.1875-8.2871-1.0824-0.98164-3.0793-2.9349-5.4062-5.2266-2.9279-0.39503-6.1795-0.58992-9.3438-0.83594-0.14019-3.2758-0.36586-6.3149-0.73047-9.0312-3.2016-3.1062-6.4358-6.2056-9.3477-8.8457-1.3348-1.2045-3.2729-2.4539-5.0742-3.1758-1.0433-0.41811-2.224-0.71844-3.416-0.94141z" color="#000000" color-rendering="auto" dominant-baseline="auto" fill-opacity=".019608" image-rendering="auto" opacity="1" shape-rendering="auto" solid-color="#000000" style="font-feature-settings:normal;font-variant-alternates:normal;font-variant-caps:normal;font-variant-ligatures:normal;font-variant-numeric:normal;font-variant-position:normal;isolation:auto;mix-blend-mode:normal;shape-padding:0;text-decoration-color:#000000;text-decoration-line:none;text-decoration-style:solid;text-indent:0;text-orientation:mixed;text-transform:none;white-space:normal"/>
<path transform="matrix(.26458 0 0 .26458 0 263.13)" d="m71.457 5.3047c1.8422 6.3794 3.2776 13.624 2.9004 25.791a1.701 1.701 0 0 0 1.6836 1.7578c13.912 0.1149 22.685 2.646 29.02 6.2812 0.58431 0.33531 1.1411 0.68469 1.6875 1.0391-0.26764-0.502-0.53561-1.0046-0.82227-1.498-1.1346-1.9531-2.7354-3.4998-4.4434-4.9961-6.0382-2.3568-13.766-3.8281-23.869-4.0684 0.12885-8.7276-0.66062-15.11-1.8164-20.494-0.98383-0.91941-1.9631-1.8306-2.8867-2.668-0.42684-0.38519-0.92698-0.76879-1.4531-1.1445z" color="#000000" color-rendering="auto" dominant-baseline="auto" fill-opacity=".019608" image-rendering="auto" opacity="1" shape-rendering="auto" solid-color="#000000" style="font-feature-settings:normal;font-variant-alternates:normal;font-variant-caps:normal;font-variant-ligatures:normal;font-variant-numeric:normal;font-variant-position:normal;isolation:auto;mix-blend-mode:normal;shape-padding:0;text-decoration-color:#000000;text-decoration-line:none;text-decoration-style:solid;text-indent:0;text-orientation:mixed;text-transform:none;white-space:normal"/>
<path transform="matrix(.26458 0 0 .26458 0 263.13)" d="m70.463 4.6309c1.9548 6.5588 3.5273 13.781 3.1348 26.443a2.4569 2.4569 0 0 0 2.4355 2.5312c13.822 0.11414 22.447 2.6196 28.65 6.1797 0.98267 0.56392 1.8915 1.165 2.7695 1.7832-0.4749-0.97851-0.97765-1.9464-1.5273-2.8926-1.4753-2.5394-3.7182-4.3992-5.9922-6.3438-5.7123-1.9312-12.792-3.1265-21.619-3.3984 0.058768-7.8634-0.60521-13.882-1.6094-18.971-1.3058-1.2292-2.5849-2.4165-3.7949-3.5137-0.6886-0.62141-1.5389-1.2515-2.4473-1.8184z" color="#000000" color-rendering="auto" dominant-baseline="auto" fill-opacity=".019608" image-rendering="auto" opacity="1" shape-rendering="auto" solid-color="#000000" style="font-feature-settings:normal;font-variant-alternates:normal;font-variant-caps:normal;font-variant-ligatures:normal;font-variant-numeric:normal;font-variant-position:normal;isolation:auto;mix-blend-mode:normal;shape-padding:0;text-decoration-color:#000000;text-decoration-line:none;text-decoration-style:solid;text-indent:0;text-orientation:mixed;text-transform:none;white-space:normal"/>
<path transform="matrix(.26458 0 0 .26458 0 263.13)" d="m69.988 4.3574c2.0022 6.642 3.6313 13.841 3.2324 26.709a2.8349 2.8349 0 0 0 2.8125 2.916c13.777 0.11376 22.327 2.6122 28.465 6.1348 1.1862 0.68069 2.2673 1.4141 3.3027 2.1738-0.56491-1.2297-1.1901-2.4364-1.875-3.6152-1.6247-2.7966-4.1751-4.7818-6.6777-6.9512-5.5438-1.7594-12.311-2.8547-20.586-3.1387 0.027935-7.4339-0.57299-13.257-1.502-18.189-1.4632-1.3819-2.9011-2.7242-4.25-3.9473-0.80616-0.7275-1.8384-1.4575-2.9219-2.0918z" color="#000000" color-rendering="auto" dominant-baseline="auto" fill-opacity=".019608" image-rendering="auto" opacity="1" shape-rendering="auto" solid-color="#000000" style="font-feature-settings:normal;font-variant-alternates:normal;font-variant-caps:normal;font-variant-ligatures:normal;font-variant-numeric:normal;font-variant-position:normal;isolation:auto;mix-blend-mode:normal;shape-padding:0;text-decoration-color:#000000;text-decoration-line:none;text-decoration-style:solid;text-indent:0;text-orientation:mixed;text-transform:none;white-space:normal"/>
<path transform="matrix(.26458 0 0 .26458 0 263.13)" d="m68.805 3.7207c2.1162 6.8551 3.8865 13.965 3.4727 27.316a3.7799 3.7799 0 0 0 3.75 3.8906c13.665 0.11263 22.024 2.5793 27.998 6.0078 1.6602 0.95271 3.1402 1.9989 4.5176 3.1094-0.7276-1.8461-1.6104-3.6361-2.6172-5.3691-1.9535-3.3626-5.2534-5.5313-8.1875-8.2871-0.0255-0.02312-0.07131-0.06777-0.09766-0.0918-5.0833-1.3857-11.083-2.2581-18.115-2.5605-0.035042-6.376-0.47628-11.705-1.2148-16.246-1.8623-1.7721-3.7009-3.5001-5.4004-5.041-1.098-0.99089-2.6027-1.9954-4.1055-2.7285z" color="#000000" color-rendering="auto" dominant-baseline="auto" fill-opacity=".019608" image-rendering="auto" opacity="1" shape-rendering="auto" solid-color="#000000" style="font-feature-settings:normal;font-variant-alternates:normal;font-variant-caps:normal;font-variant-ligatures:normal;font-variant-numeric:normal;font-variant-position:normal;isolation:auto;mix-blend-mode:normal;shape-padding:0;text-decoration-color:#000000;text-decoration-line:none;text-decoration-style:solid;text-indent:0;text-orientation:mixed;text-transform:none;white-space:normal"/>
<path transform="matrix(.26458 0 0 .26458 0 263.13)" d="m73.479 6.9746c1.5791 6.0198 2.7285 13.149 2.3867 24.174a0.189 0.189 0 0 0 0.19141 0.19141c13.601 0.11236 22.515 2.5224 29.051 6.0938-0.18908-0.25669-0.39395-0.49979-0.59765-0.74414-6.4949-3.3556-15.277-5.5747-28.275-5.7051 0.31061-10.602-0.7581-17.633-2.252-23.543-0.1659-0.15233-0.34004-0.31719-0.50391-0.4668z" color="#000000" color-rendering="auto" dominant-baseline="auto" fill-opacity=".019608" image-rendering="auto" opacity="1" shape-rendering="auto" solid-color="#000000" style="font-feature-settings:normal;font-variant-alternates:normal;font-variant-caps:normal;font-variant-ligatures:normal;font-variant-numeric:normal;font-variant-position:normal;isolation:auto;mix-blend-mode:normal;shape-padding:0;text-decoration-color:#000000;text-decoration-line:none;text-decoration-style:solid;text-indent:0;text-orientation:mixed;text-transform:none;white-space:normal"/>
<path transform="matrix(.26458 0 0 .26458 0 263.13)" d="m73.223 6.7383c1.6166 6.0655 2.8036 13.221 2.457 24.402a0.37799 0.37799 0 0 0 0.37695 0.39062c13.803 0.11384 22.747 2.5914 29.279 6.2422-0.35008-0.50437-0.72123-0.99012-1.125-1.4492-6.4582-3.2424-15.151-5.3671-27.809-5.5156 0.28376-10.341-0.73954-17.306-2.1855-23.152-0.32855-0.30244-0.67348-0.6261-0.99414-0.91797z" color="#000000" color-rendering="auto" dominant-baseline="auto" fill-opacity=".019608" image-rendering="auto" opacity="1" shape-rendering="auto" solid-color="#000000" style="font-feature-settings:normal;font-variant-alternates:normal;font-variant-caps:normal;font-variant-ligatures:normal;font-variant-numeric:normal;font-variant-position:normal;isolation:auto;mix-blend-mode:normal;shape-padding:0;text-decoration-color:#000000;text-decoration-line:none;text-decoration-style:solid;text-indent:0;text-orientation:mixed;text-transform:none;white-space:normal"/>
<path transform="matrix(.26458 0 0 .26458 0 263.13)" d="m72.961 6.4961c1.6517 6.1147 2.879 13.291 2.5273 24.637a0.56699 0.56699 0 0 0 0.56055 0.58398c14.001 0.11566 22.982 2.6661 29.508 6.3945-0.50933-0.78136-1.0857-1.5047-1.7168-2.1836-6.41-3.109-14.986-5.1242-27.26-5.2891 0.25868-10.084-0.7243-16.978-2.123-22.76-0.49728-0.45889-1.0167-0.9479-1.4961-1.3828z" color="#000000" color-rendering="auto" dominant-baseline="auto" fill-opacity=".019608" image-rendering="auto" opacity="1" shape-rendering="auto" solid-color="#000000" style="font-feature-settings:normal;font-variant-alternates:normal;font-variant-caps:normal;font-variant-ligatures:normal;font-variant-numeric:normal;font-variant-position:normal;isolation:auto;mix-blend-mode:normal;shape-padding:0;text-decoration-color:#000000;text-decoration-line:none;text-decoration-style:solid;text-indent:0;text-orientation:mixed;text-transform:none;white-space:normal"/>
<path transform="matrix(.26458 0 0 .26458 0 263.13)" d="m72.709 6.2852c1.686 6.1589 2.9499 13.352 2.5938 24.84a0.75598 0.75598 0 0 0 0.74609 0.7832c14.024 0.11565 22.984 2.677 29.482 6.4062 0.0887 0.05089 0.17198 0.10492 0.25977 0.15625-0.65195-1.0745-1.4392-2.03-2.3086-2.9219-6.3619-2.9831-14.824-4.8997-26.732-5.0801 0.23464-9.8364-0.70713-16.656-2.0586-22.373-0.59498-0.55036-1.2113-1.1297-1.7812-1.6465-0.060832-0.054897-0.1379-0.10903-0.20117-0.16406z" color="#000000" color-rendering="auto" dominant-baseline="auto" fill-opacity=".019608" image-rendering="auto" opacity="1" shape-rendering="auto" solid-color="#000000" style="font-feature-settings:normal;font-variant-alternates:normal;font-variant-caps:normal;font-variant-ligatures:normal;font-variant-numeric:normal;font-variant-position:normal;isolation:auto;mix-blend-mode:normal;shape-padding:0;text-decoration-color:#000000;text-decoration-line:none;text-decoration-style:solid;text-indent:0;text-orientation:mixed;text-transform:none;white-space:normal"/>
<path transform="matrix(.26458 0 0 .26458 0 263.13)" d="m72.453 6.0742c1.719 6.2032 3.0188 13.409 2.6582 25.043a0.94498 0.94498 0 0 0 0.9375 0.97461c14.001 0.11565 22.921 2.6763 29.387 6.3867 0.19372 0.11117 0.37889 0.22657 0.56836 0.33984-0.0271-0.04702-0.0509-0.09563-0.0781-0.14258-0.7612-1.3103-1.7298-2.4373-2.7988-3.4902-6.3096-2.8649-14.642-4.6989-26.199-4.8945 0.21159-9.5967-0.69555-16.335-2.0059-21.982-0.67504-0.62582-1.3681-1.2758-2.0117-1.8594-0.13854-0.12502-0.3063-0.24964-0.45703-0.375z" color="#000000" color-rendering="auto" dominant-baseline="auto" fill-opacity=".019608" image-rendering="auto" opacity="1" shape-rendering="auto" solid-color="#000000" style="font-feature-settings:normal;font-variant-alternates:normal;font-variant-caps:normal;font-variant-ligatures:normal;font-variant-numeric:normal;font-variant-position:normal;isolation:auto;mix-blend-mode:normal;shape-padding:0;text-decoration-color:#000000;text-decoration-line:none;text-decoration-style:solid;text-indent:0;text-orientation:mixed;text-transform:none;white-space:normal"/>
<path transform="matrix(.26458 0 0 .26458 0 263.13)" d="m72.197 5.8652c1.7515 6.252 3.0877 13.475 2.7227 25.252a1.134 1.134 0 0 0 1.1289 1.168c13.979 0.11528 22.858 2.6639 29.291 6.3555 0.28751 0.16499 0.56556 0.33427 0.84375 0.50391-0.088-0.15529-0.16807-0.31428-0.25781-0.46875-0.85595-1.4733-1.9778-2.7123-3.207-3.877-6.2489-2.7307-14.441-4.4615-25.621-4.6699 0.19104-9.4056-0.70342-16.044-1.9805-21.639-0.74354-0.69062-1.5007-1.4006-2.207-2.041-0.21596-0.19489-0.46844-0.38915-0.71289-0.58398z" color="#000000" color-rendering="auto" dominant-baseline="auto" fill-opacity=".019608" image-rendering="auto" opacity="1" shape-rendering="auto" solid-color="#000000" style="font-feature-settings:normal;font-variant-alternates:normal;font-variant-caps:normal;font-variant-ligatures:normal;font-variant-numeric:normal;font-variant-position:normal;isolation:auto;mix-blend-mode:normal;shape-padding:0;text-decoration-color:#000000;text-decoration-line:none;text-decoration-style:solid;text-indent:0;text-orientation:mixed;text-transform:none;white-space:normal"/>
<path transform="matrix(.26458 0 0 .26458 0 263.13)" d="m71.949 5.6621c1.7835 6.2968 3.1546 13.531 2.7852 25.449a1.323 1.323 0 0 0 1.3066 1.3652c13.957 0.11528 22.803 2.6533 29.203 6.3262 0.3813 0.21881 0.75417 0.441 1.1191 0.66797-0.14703-0.26438-0.28529-0.53293-0.4375-0.79492-0.94953-1.6344-2.2199-2.9851-3.6094-4.2598-6.1838-2.6031-14.231-4.244-25.043-4.4648 0.16897-9.1728-0.68897-15.726-1.9258-21.25-0.82427-0.76723-1.6578-1.545-2.4375-2.252-0.29109-0.26269-0.62008-0.52605-0.96094-0.78711z" color="#000000" color-rendering="auto" dominant-baseline="auto" fill-opacity=".019608" image-rendering="auto" opacity="1" shape-rendering="auto" solid-color="#000000" style="font-feature-settings:normal;font-variant-alternates:normal;font-variant-caps:normal;font-variant-ligatures:normal;font-variant-numeric:normal;font-variant-position:normal;isolation:auto;mix-blend-mode:normal;shape-padding:0;text-decoration-color:#000000;text-decoration-line:none;text-decoration-style:solid;text-indent:0;text-orientation:mixed;text-transform:none;white-space:normal"/>
<path transform="matrix(.26458 0 0 .26458 0 263.13)" d="m70.961 4.9629c1.8967 6.4692 3.3986 13.709 3.0137 26.125a2.0789 2.0789 0 0 0 2.0664 2.1406c13.867 0.11452 22.565 2.6328 28.834 6.2305 0.779 0.44704 1.5222 0.91352 2.2344 1.3945-0.37458-0.73432-0.76761-1.4617-1.1836-2.1777-1.3082-2.2518-3.2304-3.966-5.2324-5.6816-5.8835-2.1353-13.289-3.4629-22.732-3.7207 0.092579-8.2949-0.6345-14.499-1.7129-19.738-1.1456-1.0747-2.2698-2.1175-3.3379-3.0859-0.55829-0.50381-1.2338-1.0086-1.9492-1.4863z" color="#000000" color-rendering="auto" dominant-baseline="auto" fill-opacity=".019608" image-rendering="auto" opacity="1" shape-rendering="auto" solid-color="#000000" style="font-feature-settings:normal;font-variant-alternates:normal;font-variant-caps:normal;font-variant-ligatures:normal;font-variant-numeric:normal;font-variant-position:normal;isolation:auto;mix-blend-mode:normal;shape-padding:0;text-decoration-color:#000000;text-decoration-line:none;text-decoration-style:solid;text-indent:0;text-orientation:mixed;text-transform:none;white-space:normal"/>
</g>
<path d="m19.514 265.41c1.495 2.8736 1.0745 4.1999 1.1214 6.0927 2.4113-0.1542 4.598 0.17271 6.2424 0.91779-0.31846-0.27953-0.65005-0.55261-0.9682-0.85142-0.45486-0.41249-1.4375-1.3924-2.6266-2.5622-1.1794-1.1603-2.5628-2.5079-3.7176-3.5549-0.01545-0.0139-0.03484-0.0279-0.05091-0.0419-9.4e-5 -8e-5 -4.04e-4 8e-5 -4.99e-4 0z" fill="#fff"/>
</g>
</svg>
