<svg width="128" height="128" version="1.1" viewBox="0 0 33.867 33.867" xmlns="http://www.w3.org/2000/svg" xmlns:osb="http://www.openswatchbook.org/uri/2009/osb" xmlns:xlink="http://www.w3.org/1999/xlink">
<defs>
<linearGradient id="SVGID_1_" x1="-1067.4" x2="-1063.9" y1="767.72" y2="769.13" gradientTransform="matrix(2.732 0 0 -2.732 2963.2 2127.6)" gradientUnits="userSpaceOnUse">
<stop stop-color="#E7DDAF" offset="0"/>
<stop stop-color="#E7DDAF" stop-opacity="0" offset="1"/>
</linearGradient>
<linearGradient id="SVGID_2_" x1="-1062.2" x2="-1058.5" y1="772.47" y2="773.39" gradientTransform="matrix(2.731 .077161 .077161 -2.731 2897.1 2218.6)" gradientUnits="userSpaceOnUse">
<stop stop-color="#EAC7AE" offset="0"/>
<stop stop-color="#EAC7AE" stop-opacity="0" offset="1"/>
</linearGradient>
<linearGradient id="SVGID_3_" x1="-1070.5" x2="-1067.6" y1="765.57" y2="767.88" gradientTransform="matrix(2.732 0 0 -2.732 2963.2 2127.6)" gradientUnits="userSpaceOnUse">
<stop stop-color="#CAEFB9" offset="0"/>
<stop stop-color="#CAEFB9" stop-opacity="0" offset="1"/>
</linearGradient>
<linearGradient id="SVGID_4_" x1="-1072.8" x2="-1070.6" y1="763.1" y2="765.83" gradientTransform="matrix(2.732 0 0 -2.732 2963.2 2127.6)" gradientUnits="userSpaceOnUse">
<stop stop-color="#B1E3DA" offset="0"/>
<stop stop-color="#B1E3DA" stop-opacity="0" offset="1"/>
</linearGradient>
<linearGradient id="SVGID_5_" x1="-1073.9" x2="-1074.7" y1="761.09" y2="758.36" gradientTransform="matrix(2.732 0 0 -2.732 2963.2 2127.6)" gradientUnits="userSpaceOnUse">
<stop stop-color="#A5C5EE" offset="0"/>
<stop stop-color="#A5C5EE" stop-opacity="0" offset="1"/>
</linearGradient>
<linearGradient id="SVGID_6_" x1="-1050.5" x2="-1047" y1="749.27" y2="750.66" gradientTransform="matrix(-2.732 0 0 2.732 -2788.9 -1949.3)" gradientUnits="userSpaceOnUse">
<stop stop-color="#E7DDAF" offset="0"/>
<stop stop-color="#E7DDAF" stop-opacity="0" offset="1"/>
</linearGradient>
<linearGradient id="SVGID_7_" x1="-1044.8" x2="-1041.1" y1="754.5" y2="755.41" gradientTransform="matrix(-2.731 -.077161 -.077161 2.731 -2722.7 -2040.3)" gradientUnits="userSpaceOnUse">
<stop stop-color="#EAC7AE" offset="0"/>
<stop stop-color="#EAC7AE" stop-opacity="0" offset="1"/>
</linearGradient>
<linearGradient id="SVGID_8_" x1="-1053.6" x2="-1050.7" y1="747.11" y2="749.42" gradientTransform="matrix(-2.732 0 0 2.732 -2788.9 -1949.3)" gradientUnits="userSpaceOnUse">
<stop stop-color="#CAEFB9" offset="0"/>
<stop stop-color="#CAEFB9" stop-opacity="0" offset="1"/>
</linearGradient>
<linearGradient id="SVGID_9_" x1="-1055.9" x2="-1053.6" y1="744.65" y2="747.38" gradientTransform="matrix(-2.732 0 0 2.732 -2788.9 -1949.3)" gradientUnits="userSpaceOnUse">
<stop stop-color="#B1E3DA" offset="0"/>
<stop stop-color="#B1E3DA" stop-opacity="0" offset="1"/>
</linearGradient>
<linearGradient id="SVGID_10_" x1="-1056.9" x2="-1057.8" y1="742.61" y2="739.87" gradientTransform="matrix(-2.732 0 0 2.732 -2788.9 -1949.3)" gradientUnits="userSpaceOnUse">
<stop stop-color="#A5C5EE" offset="0"/>
<stop stop-color="#A5C5EE" stop-opacity="0" offset="1"/>
</linearGradient>
<filter id="filter4244-4" x="-.14734" y="-.16574" width="1.2947" height="1.3315" color-interpolation-filters="sRGB">
<feGaussianBlur stdDeviation="3.3624534"/>
</filter>
<linearGradient id="SVGID_11_" x1="1456.9" x2="1460.4" y1="-810.5" y2="-811.9" gradientTransform="matrix(-2.732 0 0 2.732 4027.2 2244.5)" gradientUnits="userSpaceOnUse">
<stop stop-color="#E7DDAF" offset="0"/>
<stop stop-color="#E7DDAF" stop-opacity="0" offset="1"/>
</linearGradient>
<linearGradient id="SVGID_12_" x1="1456.3" x2="1460" y1="-807.81" y2="-808.72" gradientTransform="matrix(-2.731 -.077161 -.077161 2.731 3970.8 2345.5)" gradientUnits="userSpaceOnUse">
<stop stop-color="#EAC7AE" offset="0"/>
<stop stop-color="#EAC7AE" stop-opacity="0" offset="1"/>
</linearGradient>
<linearGradient id="SVGID_13_" x1="1459.9" x2="1462.9" y1="-808.34" y2="-810.66" gradientTransform="matrix(-2.732 0 0 2.732 4027.2 2244.5)" gradientUnits="userSpaceOnUse">
<stop stop-color="#CAEFB9" offset="0"/>
<stop stop-color="#CAEFB9" stop-opacity="0" offset="1"/>
</linearGradient>
<linearGradient id="SVGID_14_" x1="1462.3" x2="1464.5" y1="-805.88" y2="-808.6" gradientTransform="matrix(-2.732 0 0 2.732 4027.2 2244.5)" gradientUnits="userSpaceOnUse">
<stop stop-color="#B1E3DA" offset="0"/>
<stop stop-color="#B1E3DA" stop-opacity="0" offset="1"/>
</linearGradient>
<linearGradient id="SVGID_15_" x1="1463.3" x2="1462.4" y1="-803.87" y2="-801.14" gradientTransform="matrix(-2.732 0 0 2.732 4027.2 2244.5)" gradientUnits="userSpaceOnUse">
<stop stop-color="#A5C5EE" offset="0"/>
<stop stop-color="#A5C5EE" stop-opacity="0" offset="1"/>
</linearGradient>
<filter id="filter1199" x="-.11415" y="-.12648" width="1.2283" height="1.253" color-interpolation-filters="sRGB">
<feGaussianBlur stdDeviation="2.580615"/>
</filter>
<filter id="filter1421" x="-.11334" y="-.12749" width="1.2267" height="1.255" color-interpolation-filters="sRGB">
<feGaussianBlur stdDeviation="2.586503"/>
</filter>
<linearGradient id="linearGradient2905" x1="-1129.7" x2="-1106.6" y1="944.53" y2="962.74" gradientTransform="matrix(0 13.751 13.803 0 -12910 16170)" gradientUnits="userSpaceOnUse">
<stop stop-color="#BFBFBF" offset="0"/>
<stop stop-color="#fff" offset=".5"/>
<stop stop-color="#BFBFBF" offset="1"/>
</linearGradient>
<linearGradient id="linearGradient2907" x1="-1067.4" x2="-1063.9" y1="767.72" y2="769.13" gradientTransform="matrix(2.732 0 0 -2.732 2963.2 2127.6)" gradientUnits="userSpaceOnUse" xlink:href="#SVGID_1_"/>
<linearGradient id="linearGradient2909" x1="-1062.2" x2="-1058.5" y1="772.47" y2="773.39" gradientTransform="matrix(2.731 .077161 .077161 -2.731 2897.1 2218.6)" gradientUnits="userSpaceOnUse" xlink:href="#SVGID_2_"/>
<linearGradient id="linearGradient2911" x1="-1070.5" x2="-1067.6" y1="765.57" y2="767.88" gradientTransform="matrix(2.732 0 0 -2.732 2963.2 2127.6)" gradientUnits="userSpaceOnUse" xlink:href="#SVGID_3_"/>
<linearGradient id="linearGradient2913" x1="-1072.8" x2="-1070.6" y1="763.1" y2="765.83" gradientTransform="matrix(2.732 0 0 -2.732 2963.2 2127.6)" gradientUnits="userSpaceOnUse" xlink:href="#SVGID_4_"/>
<linearGradient id="linearGradient2915" x1="-1073.9" x2="-1074.7" y1="761.09" y2="758.36" gradientTransform="matrix(2.732 0 0 -2.732 2963.2 2127.6)" gradientUnits="userSpaceOnUse" xlink:href="#SVGID_5_"/>
<linearGradient id="linearGradient2917" x1="-1050.5" x2="-1047" y1="749.27" y2="750.66" gradientTransform="matrix(-2.732 0 0 2.732 -2788.9 -1949.3)" gradientUnits="userSpaceOnUse" xlink:href="#SVGID_6_"/>
<linearGradient id="linearGradient2919" x1="-1044.8" x2="-1041.1" y1="754.5" y2="755.41" gradientTransform="matrix(-2.731 -.077161 -.077161 2.731 -2722.7 -2040.3)" gradientUnits="userSpaceOnUse" xlink:href="#SVGID_7_"/>
<linearGradient id="linearGradient2921" x1="-1053.6" x2="-1050.7" y1="747.11" y2="749.42" gradientTransform="matrix(-2.732 0 0 2.732 -2788.9 -1949.3)" gradientUnits="userSpaceOnUse" xlink:href="#SVGID_8_"/>
<linearGradient id="linearGradient2924" x1="-1055.9" x2="-1053.6" y1="744.65" y2="747.38" gradientTransform="matrix(-2.732 0 0 2.732 -2788.9 -1949.3)" gradientUnits="userSpaceOnUse" xlink:href="#SVGID_9_"/>
<linearGradient id="linearGradient2926" x1="-1056.9" x2="-1057.8" y1="742.61" y2="739.87" gradientTransform="matrix(-2.732 0 0 2.732 -2788.9 -1949.3)" gradientUnits="userSpaceOnUse" xlink:href="#SVGID_10_"/>
<linearGradient id="linearGradient2928" x1="-1196.7" x2="-1197.3" y1="860.46" y2="818.54" gradientTransform="matrix(4.3524 0 0 4.3357 -22.539 519.78)" gradientUnits="userSpaceOnUse">
<stop stop-color="#323232" offset="0"/>
<stop offset="1"/>
</linearGradient>
</defs>
<g transform="translate(0 -263.13)">
<g transform="matrix(.06552 0 0 .06552 92.981 108.81)" stroke-width="4.0382">
<g transform="matrix(.99499 0 0 1 -1415.2 1816.5)" stroke-width="16.348">
<g fill="#fff" stroke-width="4.0483px">
<g transform="matrix(-14.94 0 0 -14.865 -2280.2 1250.5)" display="none" filter="url(#filter4244-4)">
<path d="m32.027 20.525 18.936 25.572c2.4941-1.8301 5.3711-3.1885 8.5859-3.8936 0.08496-0.01953 0.16406-0.03711 0.25-0.05469l-6.6377-31.131c-7.8936 1.5332-14.533 5.0693-21.134 9.5068z" display="inline" enable-background="new    " fill="url(#SVGID_11_)" opacity=".8"/>
<g display="inline">
<path d="m43.664 13.968 12.203 29.351c2.8633-1.1729 5.9824-1.7959 9.272-1.7021 0.0874 2e-3 0.16894 0.0039 0.25635 0.0068l0.93555-31.733c-8.0303-0.41992-15.188 1.3672-22.667 4.0781z" enable-background="new    " fill="url(#SVGID_12_)" opacity=".8"/>
<path d="m21.456 30.745 25.173 19.549c1.9355-2.4121 4.3623-4.4688 7.2852-5.9824 0.07813-0.04102 0.14941-0.07813 0.22754-0.11719l-14.617-28.191c-7.2275 3.5234-12.841 8.7471-18.068 14.742z" enable-background="new    " fill="url(#SVGID_13_)" opacity=".8"/>
<path d="m14.299 42.841c19.602 6.125 21.447 19.21 34.906 4.792l-21.609-23.758c-6.0684 5.2744-9.7988 11.822-13.297 18.966z" enable-background="new    " fill="url(#SVGID_14_)" opacity=".8"/>
<path d="m18.459 34.97c-3.2324 4.7871-5.2119 9.9355-6.8984 15.42l30.977 8.1289c0.58984-2.085 1.416-4.1387 2.6465-6.0625 0.04785-0.07324 0.12305-0.18262 0.17188-0.25586z" enable-background="new    " fill="url(#SVGID_15_)" opacity=".8"/>
</g>
</g>
<path d="m497.21 797.39c0-133.38-107.66-240.63-241.56-240.63-133.89 0-241.56 107.25-241.56 240.63 0 133.38 107.66 240.63 241.56 240.63 133.9 0 241.56-107.25 241.56-240.63zm-153.18 0c0 48.455-38.755 88.036-88.374 88.036-50.59 0-88.374-40.559-88.374-88.036 0-48.447 35.837-88.036 88.374-88.036 52.535 0 88.374 40.548 88.374 88.036z" fill="url(#linearGradient2905)" stroke="#999" stroke-width="7.6504"/>
<path d="m256.01 706.22c-50.452 0-91.4 40.792-91.4 91.051 0 50.259 40.948 91.051 91.4 91.051 50.452 0 91.4-40.792 91.4-91.051 0-50.259-40.948-91.051-91.4-91.051zm0 45.525c25.226 0 45.7 20.396 45.7 45.525 0 25.13-20.474 45.525-45.7 45.525-25.226 0-45.7-20.396-45.7-45.525 0-25.13 20.474-45.525 45.7-45.525z" enable-background="new    " fill="#323232" opacity=".2" stroke-width="17.567"/>
<g transform="matrix(4.3524 0 0 4.3357 -22.539 519.78)" filter="url(#filter1421)" stroke-width="16.371px">
<path d="m32.026 20.525 18.936 25.572c2.4946-1.8301 5.3711-3.1885 8.5859-3.8936 0.08545-0.01904 0.16455-0.03711 0.25-0.05517l-6.6372-31.13c-7.8931 1.5337-14.533 5.0693-21.134 9.5068z" enable-background="new    " fill="url(#linearGradient2907)" opacity=".8"/>
<path d="m43.664 13.967 12.202 29.352c2.8633-1.1724 5.9829-1.7954 9.2725-1.7021 0.08789 2e-3 0.16894 0.0034 0.25586 0.0068l0.93555-31.733c-8.0293-0.42041-15.188 1.3672-22.666 4.0767z" enable-background="new    " fill="url(#linearGradient2909)" opacity=".8"/>
<path d="m21.456 30.745 25.172 19.55c1.936-2.4131 4.3628-4.4697 7.2856-5.9829 0.07764-0.04004 0.14941-0.07861 0.22754-0.11768l-14.617-28.191c-7.2271 3.5239-12.84 8.7471-18.068 14.742z" enable-background="new    " fill="url(#linearGradient2911)" opacity=".8"/>
<path d="m14.299 42.841c19.602 6.1255 21.447 19.21 34.907 4.792l-21.61-23.758c-6.0684 5.2744-9.7988 11.822-13.297 18.966z" enable-background="new    " fill="url(#linearGradient2913)" opacity=".8"/>
<path d="m18.458 34.97c-3.2324 4.7866-5.2119 9.9346-6.8989 15.419l30.978 8.1289c0.58887-2.085 1.4155-4.1387 2.6465-6.062 0.04736-0.07373 0.12305-0.18311 0.1709-0.25586z" enable-background="new    " fill="url(#linearGradient2915)" opacity=".8"/>
</g>
<g transform="matrix(4.3524 0 0 4.3357 -22.539 519.78)" filter="url(#filter1199)" stroke-width="16.371px">
<path d="m96.074 107.42-18.758-25.718c-2.4717 1.8408-5.3213 3.2061-8.5059 3.915-0.08398 0.01953-0.16309 0.03711-0.24805 0.05566l6.5762 31.308c7.8184-1.542 14.397-5.0976 20.936-9.5605z" enable-background="new    " fill="url(#linearGradient2917)" opacity=".8"/>
<path d="m84.546 114.02-12.088-29.518c-2.8359 1.1777-5.9287 1.8047-9.186 1.71-0.0874-2e-3 -0.16748-0.0029-0.25342-0.0059l-0.92676 31.913c7.9541 0.42285 15.045-1.375 22.454-4.0996z" enable-background="new    " fill="url(#linearGradient2919)" opacity=".8"/>
<path d="m106.55 97.145-24.937-19.661c-1.9189 2.4268-4.3223 4.4951-7.2178 6.0166-0.07715 0.04102-0.14746 0.0791-0.22363 0.11816l14.479 28.352c7.1582-3.544 12.72-8.7959 17.898-14.825z" enable-background="new    " fill="url(#linearGradient2921)" opacity=".8"/>
<path d="m113.64 84.979c-19.418-6.1592-21.247-19.318-34.58-4.8184l21.407 23.894c6.0127-5.3057 9.708-11.89 13.173-19.075z" enable-background="new    " fill="url(#linearGradient2924)" opacity=".8"/>
<path d="m109.51 92.895c3.2041-4.8145 5.1641-9.9912 6.835-15.508l-30.688-8.1748c-0.58398 2.0977-1.4033 4.1621-2.6211 6.0967-0.04687 0.07519-0.12305 0.18457-0.16992 0.25781z" enable-background="new    " fill="url(#linearGradient2926)" opacity=".8"/>
</g>
<path d="m256.22 888.05c-50.626 0-91.336-40.554-91.336-90.987 0-50.433 40.71-90.987 91.336-90.987 50.626 0 91.336 40.555 91.336 90.987 0 50.433-40.71 90.987-91.336 90.987z" enable-background="new    " fill="none" opacity=".1" stroke="url(#linearGradient2928)" stroke-width="45.902"/>
<g transform="matrix(4.3524 0 0 4.3357 -22.539 519.78)" filter="url(#filter1421)" stroke-width="16.371px">
<path d="m32.026 20.525 18.936 25.572c2.4946-1.8301 5.3711-3.1885 8.5859-3.8936 0.08545-0.01904 0.16455-0.03711 0.25-0.05517l-6.6372-31.13c-7.8931 1.5337-14.533 5.0693-21.134 9.5068z" enable-background="new    " fill="url(#linearGradient2907)" opacity=".8"/>
<path d="m43.664 13.967 12.202 29.352c2.8633-1.1724 5.9829-1.7954 9.2725-1.7021 0.08789 2e-3 0.16894 0.0034 0.25586 0.0068l0.93555-31.733c-8.0293-0.42041-15.188 1.3672-22.666 4.0767z" enable-background="new    " fill="url(#linearGradient2909)" opacity=".8"/>
<path d="m21.456 30.745 25.172 19.55c1.936-2.4131 4.3628-4.4697 7.2856-5.9829 0.07764-0.04004 0.14941-0.07861 0.22754-0.11768l-14.617-28.191c-7.2271 3.5239-12.84 8.7471-18.068 14.742z" enable-background="new    " fill="url(#linearGradient2911)" opacity=".8"/>
<path d="m14.299 42.841c19.602 6.1255 21.447 19.21 34.907 4.792l-21.61-23.758c-6.0684 5.2744-9.7988 11.822-13.297 18.966z" enable-background="new    " fill="url(#linearGradient2913)" opacity=".8"/>
<path d="m18.458 34.97c-3.2324 4.7866-5.2119 9.9346-6.8989 15.419l30.978 8.1289c0.58887-2.085 1.4155-4.1387 2.6465-6.062 0.04736-0.07373 0.12305-0.18311 0.1709-0.25586z" enable-background="new    " fill="url(#linearGradient2915)" opacity=".8"/>
</g>
<g transform="matrix(4.3524 0 0 4.3357 -22.539 519.78)" filter="url(#filter1199)" stroke-width="16.371px">
<path d="m96.074 107.42-18.758-25.718c-2.4717 1.8408-5.3213 3.2061-8.5059 3.915-0.08398 0.01953-0.16309 0.03711-0.24805 0.05566l6.5762 31.308c7.8184-1.542 14.397-5.0976 20.936-9.5605z" enable-background="new    " fill="url(#linearGradient2917)" opacity=".8"/>
<path d="m84.546 114.02-12.088-29.518c-2.8359 1.1777-5.9287 1.8047-9.186 1.71-0.0874-2e-3 -0.16748-0.0029-0.25342-0.0059l-0.92676 31.913c7.9541 0.42285 15.045-1.375 22.454-4.0996z" enable-background="new    " fill="url(#linearGradient2919)" opacity=".8"/>
<path d="m106.55 97.145-24.937-19.661c-1.9189 2.4268-4.3223 4.4951-7.2178 6.0166-0.07715 0.04102-0.14746 0.0791-0.22363 0.11816l14.479 28.352c7.1582-3.544 12.72-8.7959 17.898-14.825z" enable-background="new    " fill="url(#linearGradient2921)" opacity=".8"/>
<path d="m113.64 84.979c-19.418-6.1592-21.247-19.318-34.58-4.8184l21.407 23.894c6.0127-5.3057 9.708-11.89 13.173-19.075z" enable-background="new    " fill="url(#linearGradient2924)" opacity=".8"/>
<path d="m109.51 92.895c3.2041-4.8145 5.1641-9.9912 6.835-15.508l-30.688-8.1748c-0.58398 2.0977-1.4033 4.1621-2.6211 6.0967-0.04687 0.07519-0.12305 0.18457-0.16992 0.25781z" enable-background="new    " fill="url(#linearGradient2926)" opacity=".8"/>
</g>
</g>
</g>
</g>
</g>
</svg>
