<svg width="128" height="128" version="1.1" viewBox="0 0 33.867 33.867" xmlns="http://www.w3.org/2000/svg" xmlns:xlink="http://www.w3.org/1999/xlink">
<defs>
<linearGradient id="linearGradient852" x1="-275.91" x2="-276.78" y1="204.46" y2="174.5" gradientUnits="userSpaceOnUse">
<stop stop-color="#d3c8a8" offset="0"/>
<stop stop-color="#ece6cd" offset="1"/>
</linearGradient>
</defs>
<g transform="translate(0 -263.13)">
<g transform="matrix(1.0061 0 0 1.0061 -.10314 -1.8893)" stroke-width=".99396">
<rect x=".51458" y="264.6" width="32.838" height="31.99" ry=".079516" opacity=".25"/>
<rect x=".51458" y="264.07" width="32.838" height="31.99" ry=".079516" fill="#efeee5" stroke="#c9c9b7" stroke-linecap="round" stroke-width=".29819"/>
<rect x="2.7663" y="266.93" width="28.08" height="25.88" ry=".09757" fill="#c9c8c1" stroke="#7a7a7a" stroke-linecap="round" stroke-width=".19879"/>
<rect x="4.0914" y="268.21" width="25.736" height="23.537" ry=".088735" fill="#959592" stroke="#7a7a7a" stroke-linecap="round" stroke-width=".19879"/>
<rect x="5.3654" y="269.38" width="23.137" height="21.092" ry=".079516" fill="#f3f3ed" stroke="#767676" stroke-linecap="round" stroke-width=".19879"/>
<g transform="scale(1.0002 .99984)" fill="#828180" stroke="#828180" stroke-width=".099396" aria-label="Entitlement">
<path d="m10.193 273.03q-0.02627 0.14187 0.03153 0.20755l0.06568-3e-3q0.20229 0 0.29687 0.0447 0.09458 0.042 0.08407 0.0972-0.0079 0.0342-0.04992 0.0578-0.03941 0.0236-0.08144 0.0236-0.19704 0-0.33102-0.19441-0.80654 0.10771-1.4213 0.66993-0.61213 0.56221-0.69095 0.96155-0.036781 0.1839 0.10509 0.31788 0.14187 0.13399 0.43874 0.13399 0.55959 0 1.2006-0.34416 0.64366-0.34416 0.7251-0.75137 0.02627-0.13399-0.04992-0.22331-0.07619-0.0893-0.23907-0.0893-0.40721 0-0.96417 0.31264-0.55433 0.31-0.91426 0.7251l-0.015763-0.0105q0.36255-0.41247 0.91689-0.72773 0.55696-0.31789 0.96943-0.31789 0.18653 0 0.27323 0.10246 0.0867 0.0998 0.06043 0.23382-0.08407 0.41772-0.74612 0.76451-0.66205 0.34679-1.2085 0.34679-0.3967 0-0.54645-0.20755-0.14712-0.21017-0.094578-0.47552 0.094578-0.46764 0.60951-0.86434 0.51755-0.39933 1.5816-0.58061-0.06043-0.0762-0.07882-0.19441-0.44662 0.0893-0.72247 0.0893-0.42823 0-0.62264-0.18916-0.19441-0.18916-0.14712-0.4256 0.094578-0.47027 0.6962-0.76977 0.60425-0.2995 1.311-0.2995l-0.0026 0.0184q-0.75925 0-1.3162 0.34416-0.55433 0.34416-0.63315 0.74874-0.044662 0.2128 0.14187 0.38094 0.18916 0.16814 0.61213 0.16814 0.26797 0 0.68569-0.0867-0.0079-0.0946 0.0079-0.17339 0.05517-0.28111 0.34942-0.55696 0.29687-0.27848 0.83544-0.52018 0.5412-0.24433 0.86434-0.24433 0.15763 0 0.24433 0.0683 0.0867 0.0683 0.06043 0.19441-0.05517 0.28111-0.68307 0.65154t-1.6078 0.58586zm0.0079-0.021q1.0036-0.23119 1.6026-0.58849 0.60162-0.35729 0.65679-0.64365 0.02102-0.0998-0.0578-0.16026-0.07619-0.0631-0.22331-0.0631-0.43874 0-1.1323 0.5018-0.69095 0.50179-0.84595 0.95366zm0.03678 0.25221q0.13136 0.17602 0.30738 0.17602 0.08407 0 0.09458-0.0578 0.01314-0.0604-0.09458-0.0919-0.10771-0.0315-0.21017-0.0315-0.03153 0-0.0972 5e-3z"/>
<path d="m10.524 274.82q0.72247-0.51755 0.94578-0.51755 0.05254 0 0.08407 0.0368 0.03153 0.0342 0.01839 0.0946-0.03415 0.17339-0.30475 0.40721l0.0079 0.0105q0.7251-0.5412 0.96155-0.5412 0.17865 0 0.14975 0.15238-0.02102 0.10246-0.1156 0.21017-0.09195 0.10772-0.31789 0.2706-0.22331 0.16289-0.28111 0.21543-0.05517 0.0499-0.06305 0.0867-0.0053 0.0289 0.01576 0.0499 0.02102 0.021 0.05254 0.021 0.08144 0 0.26797-0.0841 0.18916-0.0867 0.43874-0.26797l0.19967-0.1445 0.01314 0.0184q-0.66468 0.50442-0.93265 0.50442-0.0578 0-0.09195-0.0447-0.03153-0.0473-0.01839-0.11559 0.01314-0.0657 0.0578-0.13399 0.04729-0.0683 0.09721-0.1156 0.05254-0.0473 0.23382-0.17865l0.13924-0.10245q0.2417-0.1734 0.25484-0.24171 0.01314-0.0709-0.09195-0.0709-0.19441 0-0.59637 0.27585-0.40196 0.27323-0.94841 0.71197h-0.26009l0.8696-0.71985q0.20492-0.17076 0.21543-0.22331 0.01051-0.0604-0.06305-0.0604-0.20755 0-0.92477 0.51492z"/>
<path d="m12.597 274.84-0.01314-0.0184 0.8407-0.59111 0.35467-0.2417h-0.23907l0.01576-0.0236h0.26534l0.53594-0.46501 0.22594-5e-3 -0.52281 0.47026h0.37831l-0.01314 0.0236h-0.3967l-1.1008 0.9668q-0.19704 0.17339-0.23907 0.21806-0.04203 0.0447-0.04992 0.0841-0.0079 0.0394 0.01839 0.0683 0.0289 0.0263 0.06568 0.0263 0.21543 0 0.93265-0.53069l0.01314 0.0184q-0.74086 0.54383-0.95629 0.54383-0.06831 0-0.10771-0.0552-0.03678-0.0578-0.02102-0.13399 0.03941-0.19703 0.3573-0.47552l0.64891-0.55696-0.01051-8e-3z"/>
<path d="m15.169 273.79q-0.01051 0.0578-0.06568 0.0972t-0.10771 0.0394q-0.03678 0-0.0578-0.0263-0.02102-0.0289-0.01314-0.0683 0.01051-0.0499 0.06305-0.0946 0.05517-0.0447 0.11034-0.0447 0.03941 0 0.0578 0.0289 0.02102 0.0289 0.01314 0.0683zm-1.5001 1.0509-0.01314-0.0184q0.14975-0.11034 0.75137-0.51492h0.25484l-0.99833 0.81968q-0.05517 0.0473-0.08144 0.0946l-0.0026 0.0184q-0.0079 0.0342 0.01314 0.0604 0.02102 0.0263 0.06043 0.0263 0.08407 0 0.25484-0.0841 0.17077-0.0867 0.62264-0.42035l0.01314 0.0184q-0.68832 0.5123-0.89324 0.5123-0.06568 0-0.09721-0.042t-0.01839-0.11297q0.02102-0.0998 0.11034-0.21017 0.08932-0.11297 0.60951-0.53332l-0.0026-0.0131-0.27848 0.18391z"/>
<path d="m14.541 274.84-0.01314-0.0184 0.8407-0.59111 0.35467-0.2417h-0.23907l0.01576-0.0236h0.26534l0.53594-0.46501 0.22594-5e-3 -0.52281 0.47026h0.37831l-0.01314 0.0236h-0.3967l-1.1008 0.9668q-0.19704 0.17339-0.23907 0.21806-0.04204 0.0447-0.04992 0.0841-0.0079 0.0394 0.01839 0.0683 0.0289 0.0263 0.06568 0.0263 0.21543 0 0.93265-0.53069l0.01314 0.0184q-0.74086 0.54383-0.95629 0.54383-0.06831 0-0.10771-0.0552-0.03678-0.0578-0.02102-0.13399 0.03941-0.19703 0.3573-0.47552l0.64891-0.55696-0.01051-8e-3z"/>
<path d="m15.613 274.84-0.01314-0.0184q0.67518-0.49391 0.78815-0.56484 0.11297-0.0709 0.17339-0.0972 0.06305-0.0263 0.11034-0.0657 0.5412-0.47815 1.0246-0.85121 0.48603-0.37306 0.81705-0.57798 0.33365-0.20755 0.52806-0.20755 0.07093 0 0.11034 0.0447 0.03941 0.042 0.0289 0.0946-0.03153 0.15238-0.42823 0.45451-0.39408 0.29949-0.95104 0.59899t-0.83807 0.37569q-0.07356 0.0709-0.27323 0.24695l-0.25484 0.2312-0.3284 0.31526q-0.34153 0.32839-0.37831 0.41772l-0.0053 0.0236q-0.01576 0.0867 0.08144 0.0867 0.22594 0 0.92214-0.52544l0.01314 0.0184-0.18653 0.13662q-0.55959 0.40721-0.77502 0.40721-0.06568 0-0.10509-0.0525-0.03678-0.0499-0.02365-0.12085 0.03941-0.19441 0.41509-0.56222 0.37569-0.3678 0.47289-0.4256v-0.0158q-0.10246 0.042-0.31789 0.2023zm1.395-0.85383q0.22331-0.0683 0.78553-0.36255 0.56222-0.29687 0.94053-0.59111 0.38094-0.29687 0.40984-0.43612 0.0079-0.042-0.02627-0.0736-0.03153-0.0342-0.09195-0.0342-0.15763 0-0.41247 0.15238-0.25484 0.14975-0.81442 0.63052t-0.79078 0.71459z"/>
<path d="m17.788 274.82 0.01314 0.0184q-0.37043 0.27849-0.6568 0.40459-0.28374 0.12348-0.43874 0.12348-0.21543 0-0.17077-0.22069 0.0578-0.29687 0.51493-0.55958 0.45976-0.26272 0.68832-0.26272 0.04204 0 0.06831 0.0236 0.02627 0.0237 0.01839 0.0578-0.02627 0.12873-0.31001 0.2706-0.28111 0.14187-0.599 0.17602-0.32052 0.26797-0.34153 0.36781-0.0079 0.0473 0.0289 0.0893 0.03941 0.0394 0.10246 0.0394 0.13661 0 0.41247-0.11823 0.27585-0.12085 0.66993-0.40984zm-0.82493 0q0.07881 0 0.29162-0.0683 0.2128-0.0683 0.36518-0.17602 0.155-0.10772 0.17077-0.17865 0.01051-0.0499-0.04729-0.0499-0.06831 0-0.16026 0.042-0.09195 0.042-0.28636 0.17339-0.19441 0.12873-0.33365 0.25746z"/>
<path d="m17.798 274.84-0.01314-0.0184 0.30738-0.21805q0.45976-0.32314 0.62527-0.32314 0.1445 0 0.11034 0.16288-0.0289 0.14712-0.30475 0.39408l0.01051 0.0105q0.7829-0.55697 1.0299-0.55697 0.07882 0 0.1156 0.0447 0.03678 0.0447 0.02627 0.0998-0.03153 0.15238-0.33365 0.41772l0.01051 5e-3q0.21017-0.16813 0.42035-0.29949 0.2128-0.13136 0.34941-0.18916 0.13924-0.0578 0.22856-0.0578 0.17339 0 0.1445 0.14975-0.02627 0.13136-0.14975 0.25484-0.12085 0.12085-0.50705 0.38882-0.10771 0.0762-0.1156 0.12085-0.01839 0.0946 0.10246 0.0946 0.11822 0 0.28899-0.0919 0.17339-0.0919 0.599-0.40722l0.01314 0.0184q-0.50179 0.36518-0.65942 0.43874-0.15763 0.0709-0.25221 0.0709-0.07356 0-0.1156-0.0499-0.03941-0.0525-0.02364-0.12348 0.01839-0.0972 0.11297-0.19966 0.0972-0.10246 0.36518-0.28111 0.26797-0.18128 0.28636-0.27585 0.01576-0.0736-0.0867-0.0736-0.13136 0-0.3678 0.11822-0.23382 0.11559-0.55696 0.36518l-0.37306 0.29161q-0.16551 0.12873-0.25746 0.21018l-0.24433 5e-3 0.43348-0.35729q0.34416-0.28637 0.46501-0.40196 0.12085-0.11823 0.13399-0.17865 0.0053-0.0263-0.01576-0.0525-0.02102-0.0263-0.06042-0.0263-0.11822 0-0.40459 0.16289-0.28374 0.16026-0.6095 0.40196l-0.59374 0.44662-0.23907 5e-3 0.1156-0.10509 0.40721-0.33365q0.32052-0.26272 0.42823-0.36518 0.10771-0.10508 0.11822-0.16288 0.01051-0.0578-0.0578-0.0578-0.0972 0-0.2995 0.12085-0.20229 0.11823-0.60688 0.40721z"/>
<path d="m21.813 274.82 0.01314 0.0184q-0.37043 0.27849-0.65679 0.40459-0.28374 0.12348-0.43874 0.12348-0.21543 0-0.17077-0.22069 0.0578-0.29687 0.51493-0.55958 0.45976-0.26272 0.68832-0.26272 0.04203 0 0.06831 0.0236 0.02627 0.0237 0.01839 0.0578-0.02627 0.12873-0.31001 0.2706-0.28111 0.14187-0.599 0.17602-0.32052 0.26797-0.34153 0.36781-0.0079 0.0473 0.0289 0.0893 0.03941 0.0394 0.10246 0.0394 0.13661 0 0.41247-0.11823 0.27585-0.12085 0.66993-0.40984zm-0.82493 0q0.07882 0 0.29162-0.0683 0.2128-0.0683 0.36518-0.17602 0.155-0.10772 0.17077-0.17865 0.01051-0.0499-0.04729-0.0499-0.06831 0-0.16026 0.042-0.09195 0.042-0.28636 0.17339-0.19441 0.12873-0.33365 0.25746z"/>
<path d="m21.81 274.82q0.72247-0.51755 0.94578-0.51755 0.05254 0 0.08407 0.0368 0.03153 0.0342 0.01839 0.0946-0.03415 0.17339-0.30475 0.40721l0.0079 0.0105q0.7251-0.5412 0.96155-0.5412 0.17865 0 0.14975 0.15238-0.02102 0.10246-0.1156 0.21017-0.09195 0.10772-0.31789 0.2706-0.22331 0.16289-0.28111 0.21543-0.05517 0.0499-0.06305 0.0867-0.0053 0.0289 0.01576 0.0499 0.02102 0.021 0.05254 0.021 0.08144 0 0.26797-0.0841 0.18916-0.0867 0.43874-0.26797l0.19966-0.1445 0.01314 0.0184q-0.66468 0.50442-0.93265 0.50442-0.0578 0-0.09195-0.0447-0.03153-0.0473-0.01839-0.11559 0.01314-0.0657 0.0578-0.13399 0.04729-0.0683 0.09721-0.1156 0.05254-0.0473 0.23382-0.17865l0.13924-0.10245q0.2417-0.1734 0.25484-0.24171 0.01314-0.0709-0.09195-0.0709-0.19441 0-0.59637 0.27585-0.40196 0.27323-0.94841 0.71197h-0.26009l0.8696-0.71985q0.20492-0.17076 0.21543-0.22331 0.01051-0.0604-0.06305-0.0604-0.20755 0-0.92477 0.51492z"/>
<path d="m23.883 274.84-0.01314-0.0184 0.8407-0.59111 0.35467-0.2417h-0.23907l0.01576-0.0236h0.26534l0.53594-0.46501 0.22594-5e-3 -0.52281 0.47026h0.37831l-0.01314 0.0236h-0.3967l-1.1008 0.9668q-0.19704 0.17339-0.23907 0.21806-0.04204 0.0447-0.04992 0.0841-0.0079 0.0394 0.01839 0.0683 0.0289 0.0263 0.06568 0.0263 0.21543 0 0.93265-0.53069l0.01314 0.0184q-0.74086 0.54383-0.95629 0.54383-0.06831 0-0.10772-0.0552-0.03678-0.0578-0.02102-0.13399 0.03941-0.19703 0.3573-0.47552l0.64891-0.55696-0.01051-8e-3z"/>
</g>
<rect x="8.7671" y="277.72" width="16.448" height=".9425" ry="0" fill="#d7d7d1"/>
<rect x="10.767" y="283.12" width="12.412" height=".9425" ry="0" fill="#d7d7d1"/>
<rect x="7.5692" y="280.4" width="18.871" height=".9425" ry="0" fill="#d7d7d1"/>
<path transform="matrix(.19068 0 0 .19062 70.444 253.32)" d="m-268.64 199.49 0.48393 3.8122-3.7578-0.80374-0.60969 3.7941-3.3791-1.8299-1.6539 3.4686-2.7267-2.7078-2.5642 2.8622-1.8534-3.3663-3.2666 2.0238-0.82993-3.7521-3.7045 1.0215 0.26077-3.8339-3.8422-0.0635 1.3304-3.6052-3.6687-1.1434 2.2921-3.0843-3.198-2.1307 3.0682-2.3136-2.4681-2.9454 3.5958-1.3555-1.5383-3.5214 3.832-0.28751-0.48393-3.8122 3.7578 0.80374 0.60969-3.7941 3.3791 1.8299 1.6539-3.4686 2.7267 2.7078 2.5642-2.8622 1.8534 3.3663 3.2666-2.0238 0.82993 3.7521 3.7045-1.0215-0.26077 3.8339 3.8422 0.0635-1.3304 3.6051 3.6687 1.1434-2.2921 3.0843 3.198 2.1307-3.0682 2.3136 2.4681 2.9454-3.5958 1.3554 1.5383 3.5214z" fill="url(#linearGradient852)" stroke="#807b6a" stroke-linecap="round" stroke-width=".52136"/>
</g>
</g>
</svg>
