<svg width="128" height="128" version="1.1" viewBox="0 0 33.867 33.867" xmlns="http://www.w3.org/2000/svg" xmlns:xlink="http://www.w3.org/1999/xlink">
<defs>
<pattern id="pattern1238" patternTransform="matrix(9.955 0 0 9.9547 12.905 -5.2497)" xlink:href="#Strips4_1white"/>
<pattern id="Strips4_1white" width="1.25" height="1" patternTransform="translate(0) scale(10)" patternUnits="userSpaceOnUse">
<rect y="-.5" width="1" height="2" fill="#fff"/>
</pattern>
<linearGradient id="linearGradient2149" x1="-1386.8" x2="-1386.2" y1="476.13" y2="-6.7201" gradientTransform="matrix(.81434 0 0 .81436 -26.7 2453.5)" gradientUnits="userSpaceOnUse">
<stop stop-color="#a06130" offset="0"/>
<stop stop-color="#ddc061" offset="1"/>
</linearGradient>
<linearGradient id="linearGradient2151" x1="-1414" x2="-1594.6" y1="100.07" y2="-50.441" gradientTransform="matrix(.81434 0 0 .81436 -27.384 2453.1)" gradientUnits="userSpaceOnUse">
<stop stop-color="#d6d6d6" offset="0"/>
<stop stop-color="#fbfbfb" offset="1"/>
</linearGradient>
</defs>
<g transform="translate(0 -263.13)">
<g transform="matrix(.06552 0 0 .06552 92.981 108.81)" stroke-width="4.0382">
<rect x="-1356.7" y="2369.7" width="392.04" height="498.51" ry="27.751" fill-rule="evenodd" opacity=".25"/>
<rect x="-1356.7" y="2361.7" width="392.04" height="498.51" ry="27.751" fill="url(#linearGradient2149)" fill-rule="evenodd" stroke="#80624a" stroke-linecap="round" stroke-linejoin="bevel" stroke-width="4.5787"/>
<rect transform="matrix(0,1,1,0,0,0)" x="2363.7" y="-1353.4" width="491.5" height="385.35" ry="21.452" fill="url(#pattern1238)" fill-rule="evenodd" opacity=".07"/>
<g transform="matrix(.81434 0 0 .81436 -483.53 2453.5)" opacity=".5" stroke-width="4.0686">
<g transform="matrix(.17805 0 0 .20693 -698.83 -66.748)">
<g stroke-width="4.0686">
<path d="m357 0h-306c-28.05 0-51 22.95-51 51v306c0 28.05 22.95 51 51 51h306c28.05 0 51-22.95 51-51v-306c0-28.05-22.95-51-51-51zm0 357h-306v-306h306z" stroke-width="4.0686"/>
</g>
</g>
<g transform="matrix(.11923 0 0 .14577 -721.13 -94.516)">
<g stroke-width="4.0686">
<path d="m670.13 467.34h-102v-153h-153v153h-102l178.5 178.5z" stroke-width="4.0686"/>
</g>
</g>
</g>
<path d="m-1354.4 2576.9v65.155h387.46v-65.155z" fill="#e6d28e" fill-rule="evenodd"/>
<path d="m-1354.4 2609.5h387.46" fill="none" stroke="#a28241" stroke-width="7.6312"/>
<path d="m-1316.4 2396.6c-7.2119 0-13.018 5.8065-13.018 13.019v116.72c0 7.212 5.8063 13.017 13.018 13.017h132.89c7.2119 0 13.018-5.805 13.018-13.017v-90.779l-38.312-38.957z" fill-rule="evenodd" opacity=".2"/>
<path d="m-1316.4 2393.3c-7.2119 0-13.018 5.8064-13.018 13.018v116.72c0 7.2121 5.8063 13.017 13.018 13.017h132.89c7.2119 0 13.018-5.8051 13.018-13.017v-90.779l-38.312-38.957z" fill="url(#linearGradient2151)" fill-rule="evenodd"/>
<path d="m-1208.6 2395 0.076 32.702c0.01 3.7724 2.8877 6.8304 6.4496 6.8304l31.56 0.03-0.01-2.2436z" opacity=".2" stroke-width="3.3132"/>
<rect x="-1321.4" y="2400.5" width="120.52" height="23.558" ry="6.544" fill="#808080" fill-rule="evenodd"/>
<g transform="matrix(15.148 0 0 15.149 -2746.8 175.38)" fill="#fff" stroke-width=".21872px" aria-label="Ship to:">
<path d="m95.231 147.25v0.0916q-0.05349-0.0256-0.10094-0.0381-0.04745-0.0126-0.09164-0.0126-0.07675 0-0.11862 0.0298-0.0414 0.0298-0.0414 0.0847 0 0.0461 0.02745 0.0698 0.02791 0.0233 0.10513 0.0377l0.05675 0.0116q0.10513 0.02 0.1549 0.0707 0.05024 0.0502 0.05024 0.13489 0 0.10094-0.06791 0.15304-0.06745 0.0521-0.19816 0.0521-0.04931 0-0.10513-0.0112-0.05535-0.0112-0.1149-0.033v-0.0967q0.05721 0.0321 0.1121 0.0484 0.05489 0.0163 0.10792 0.0163 0.08047 0 0.1242-0.0316 0.04373-0.0316 0.04373-0.0902 0-0.0512-0.03163-0.08-0.03117-0.0288-0.1028-0.0433l-0.05721-0.0112q-0.10513-0.0209-0.15211-0.0656-0.04698-0.0447-0.04698-0.1242 0-0.0921 0.06466-0.14513 0.06512-0.053 0.17909-0.053 0.04884 0 0.09954 9e-3t0.10373 0.0265z"/>
<path d="m95.849 147.61v0.31445h-0.08559v-0.31166q0-0.074-0.02884-0.11071-0.02884-0.0367-0.08652-0.0367-0.06931 0-0.10931 0.0442-0.04 0.0442-0.04 0.12048v0.29445h-0.08606v-0.72379h0.08606v0.28375q0.0307-0.047 0.0721-0.0702 0.04186-0.0233 0.09629-0.0233 0.08978 0 0.13583 0.0558 0.04605 0.0553 0.04605 0.16327z"/>
<path d="m96.02 147.4h0.08559v0.52098h-0.08559zm0-0.20281h0.08559v0.10838h-0.08559z"/>
<path d="m96.367 147.84v0.27631h-0.08606v-0.71914h0.08606v0.0791q0.02698-0.0465 0.06791-0.0688 0.0414-0.0228 0.09862-0.0228 0.09489 0 0.15397 0.0753 0.05954 0.0754 0.05954 0.19816 0 0.12281-0.05954 0.19816-0.05908 0.0754-0.15397 0.0754-0.05721 0-0.09862-0.0223-0.04093-0.0228-0.06791-0.0693zm0.29119-0.18188q0-0.0944-0.03907-0.14792-0.03861-0.054-0.10652-0.054-0.06791 0-0.10699 0.054-0.03861 0.0535-0.03861 0.14792 0 0.0944 0.03861 0.14839 0.03907 0.0535 0.10699 0.0535 0.06791 0 0.10652-0.0535 0.03907-0.054 0.03907-0.14839z"/>
<path d="m97.277 147.25v0.14792h0.1763v0.0665h-0.1763v0.28281q0 0.0637 0.01721 0.0819 0.01768 0.0181 0.07117 0.0181h0.08792v0.0716h-0.08792q-0.09908 0-0.13676-0.0367-0.03768-0.0372-0.03768-0.1349v-0.28281h-0.0628v-0.0665h0.0628v-0.14792z"/>
<path d="m97.768 147.46q-0.06884 0-0.10885 0.054-0.04 0.0535-0.04 0.14699 0 0.0935 0.03954 0.14746 0.04 0.0535 0.10931 0.0535 0.06838 0 0.10838-0.0539 0.04-0.054 0.04-0.147 0-0.0926-0.04-0.14652-0.04-0.0544-0.10838-0.0544zm0-0.0726q0.11164 0 0.17537 0.0726 0.06373 0.0726 0.06373 0.20095 0 0.12792-0.06373 0.20095-0.06373 0.0726-0.17537 0.0726-0.1121 0-0.17583-0.0726-0.06326-0.073-0.06326-0.20095 0-0.12838 0.06326-0.20095 0.06373-0.0726 0.17583-0.0726z"/>
<path d="m98.171 147.8h0.09815v0.11815h-0.09815zm0-0.37446h0.09815v0.11815h-0.09815z"/>
</g>
<rect x="-1319.6" y="2429.6" width="66.587" height="41.955" ry="0" fill="none" stroke="#999" stroke-linecap="round" stroke-width="3.0525"/>
<g transform="matrix(15.148 0 0 15.149 -2746.8 175.38)" fill="#808080" stroke-width=".21872px" aria-label="The Unarchiver: OS X App">
<path d="m94.756 149.19h0.36109v0.0486h-0.15153v0.37824h-0.05804v-0.37824h-0.15152z"/>
<path d="m95.437 149.43v0.19326h-0.0526v-0.19155q0-0.0455-0.01772-0.068-0.01773-0.0226-0.05318-0.0226-0.0426 0-0.06719 0.0272t-0.02459 0.074v0.18097h-0.05289v-0.44485h0.05289v0.17439q0.01887-0.0289 0.04431-0.0432 0.02573-0.0143 0.05918-0.0143 0.05518 0 0.08348 0.0343 0.0283 0.034 0.0283 0.10035z"/>
<path d="m95.817 149.45v0.0257h-0.24187q0.0034 0.0543 0.03259 0.0829 0.02945 0.0283 0.08177 0.0283 0.03031 0 0.05861-7e-3 0.02859-7e-3 0.05661-0.0223v0.0497q-0.0283 0.012-0.05804 0.0183-0.02973 6e-3 -0.06032 6e-3 -0.07662 0-0.12151-0.0446-0.0446-0.0446-0.0446-0.12065 0-0.0786 0.04231-0.12465 0.0426-0.0463 0.11464-0.0463 0.06461 0 0.10206 0.0417 0.03774 0.0415 0.03774 0.11293zm-0.0526-0.0154q-5.72e-4 -0.0432-0.0243-0.0689-0.02344-0.0257-0.06233-0.0257-0.04403 0-0.07062 0.0249-0.0263 0.0249-0.0303 0.07z"/>
<path d="m94.809 149.93h0.05804v0.2593q0 0.0686 0.02487 0.0989 0.02487 0.03 0.08062 0.03 0.05546 0 0.08034-0.03 0.02487-0.0303 0.02487-0.0989v-0.2593h0.05804v0.26645q0 0.0835-0.04145 0.12608-0.04117 0.0426-0.12179 0.0426-0.08091 0-0.12236-0.0426-0.04117-0.0426-0.04117-0.12608z"/>
<path d="m95.508 150.16v0.19327h-0.0526v-0.19155q0-0.0455-0.01773-0.068-0.01772-0.0226-0.05318-0.0226-0.0426 0-0.06719 0.0272t-0.02459 0.074v0.18097h-0.05289v-0.3202h0.05289v0.0497q0.01887-0.0289 0.04431-0.0432 0.02573-0.0143 0.05918-0.0143 0.05518 0 0.08348 0.0343 0.0283 0.034 0.0283 0.10035z"/>
<path d="m95.759 150.19q-0.06376 0-0.08834 0.0146-0.02459 0.0146-0.02459 0.0498 0 0.028 0.0183 0.0446 0.01858 0.0163 0.05032 0.0163 0.04374 0 0.07004-0.0309 0.02659-0.0312 0.02659-0.0826v-0.0117zm0.10492-0.0217v0.18269h-0.0526v-0.0486q-0.01801 0.0292-0.04489 0.0432-0.02688 0.0137-0.06576 0.0137-0.04917 0-0.07834-0.0274-0.02887-0.0277-0.02887-0.074 0-0.054 0.03602-0.0815 0.03631-0.0274 0.10807-0.0274h0.07376v-5e-3q0-0.0363-0.02402-0.056-0.02373-0.02-0.0669-0.02-0.02745 0-0.05346 7e-3 -0.02602 7e-3 -0.05003 0.0197v-0.0486q0.02888-0.0112 0.05604-0.0166 0.02716-6e-3 0.05289-6e-3 0.06947 0 0.10378 0.036 0.03431 0.036 0.03431 0.10921z"/>
<path d="m96.158 150.08q-0.0089-5e-3 -0.01944-7e-3 -0.01029-3e-3 -0.02287-3e-3 -0.0446 0-0.06862 0.0292-0.02373 0.0289-0.02373 0.0832v0.16868h-0.05289v-0.3202h0.05289v0.0497q0.01658-0.0292 0.04317-0.0432 0.02659-0.0143 0.06461-0.0143 0.0054 0 0.01201 8.5e-4 0.0066 5.8e-4 0.01458 2e-3z"/>
<path d="m96.432 150.04v0.0492q-0.0223-0.0123-0.04489-0.0183-0.0223-6e-3 -0.04517-6e-3 -0.05118 0-0.07948 0.0326-0.0283 0.0323-0.0283 0.0909t0.0283 0.0912q0.0283 0.0323 0.07948 0.0323 0.02287 0 0.04517-6e-3 0.02259-6e-3 0.04489-0.0186v0.0486q-0.02201 0.0103-0.04574 0.0154-0.02344 5e-3 -0.05003 5e-3 -0.07233 0-0.11493-0.0455-0.0426-0.0455-0.0426-0.12265 0-0.0783 0.04288-0.12322 0.04317-0.0449 0.11808-0.0449 0.0243 0 0.04746 5e-3t0.04489 0.0149z"/>
<path d="m96.791 150.16v0.19327h-0.0526v-0.19155q0-0.0455-0.01773-0.068-0.01773-0.0226-0.05318-0.0226-0.0426 0-0.06719 0.0272t-0.02459 0.074v0.18097h-0.05289v-0.44486h0.05289v0.1744q0.01887-0.0289 0.04431-0.0432 0.02573-0.0143 0.05918-0.0143 0.05518 0 0.08348 0.0343 0.0283 0.034 0.0283 0.10035z"/>
<path d="m96.897 150.03h0.05261v0.3202h-0.05261zm0-0.12466h0.05261v0.0666h-0.05261z"/>
<path d="m97.021 150.03h0.05575l0.10006 0.26874 0.10006-0.26874h0.05575l-0.12008 0.3202h-0.07147z"/>
<path d="m97.68 150.18v0.0257h-0.24187q0.0034 0.0543 0.03259 0.0829 0.02945 0.0283 0.08177 0.0283 0.03031 0 0.05861-7e-3 0.02859-7e-3 0.05661-0.0223v0.0497q-0.0283 0.012-0.05804 0.0183-0.02973 6e-3 -0.06033 6e-3 -0.07662 0-0.12151-0.0446-0.0446-0.0446-0.0446-0.12065 0-0.0786 0.04231-0.12465 0.0426-0.0463 0.11464-0.0463 0.06461 0 0.10206 0.0417 0.03774 0.0414 0.03774 0.11293zm-0.0526-0.0154q-5.72e-4 -0.0432-0.0243-0.0689-0.02344-0.0257-0.06233-0.0257-0.04403 0-0.07062 0.0249-0.0263 0.0249-0.0303 0.07z"/>
<path d="m97.951 150.08q-0.0089-5e-3 -0.01944-7e-3 -0.01029-3e-3 -0.02287-3e-3 -0.0446 0-0.06862 0.0292-0.02373 0.0289-0.02373 0.0832v0.16868h-0.05289v-0.3202h0.05289v0.0497q0.01658-0.0292 0.04317-0.0432 0.02659-0.0143 0.06461-0.0143 0.0054 0 0.01201 8.5e-4 0.0066 5.8e-4 0.01458 2e-3z"/>
<path d="m98.011 150.28h0.06032v0.0726h-0.06032zm0-0.23014h0.06032v0.0726h-0.06032z"/>
<path d="m94.989 150.7q-0.0629 0-0.10006 0.0469-0.03688 0.0469-0.03688 0.1278 0 0.0806 0.03688 0.12751 0.03717 0.0469 0.10006 0.0469 0.0629 0 0.09949-0.0469 0.03688-0.0469 0.03688-0.12751 0-0.0809-0.03688-0.1278-0.03659-0.0469-0.09949-0.0469zm0-0.0469q0.08977 0 0.14352 0.0603 0.05375 0.06 0.05375 0.16125 0 0.10092-0.05375 0.16124-0.05375 0.06-0.14352 0.06-0.09006 0-0.14409-0.06-0.05375-0.06-0.05375-0.16124 0-0.10121 0.05375-0.16125 0.05403-0.0603 0.14409-0.0603z"/>
<path d="m95.532 150.67v0.0563q-0.03288-0.0157-0.06204-0.0234-0.02916-8e-3 -0.05632-8e-3 -0.04717 0-0.0729 0.0183-0.02545 0.0183-0.02545 0.052 0 0.0283 0.01687 0.0429 0.01715 0.0143 0.06461 0.0232l0.03488 7e-3q0.06461 0.0123 0.0952 0.0435 0.03088 0.0309 0.03088 0.0829 0 0.062-0.04174 0.0941-0.04145 0.032-0.12179 0.032-0.0303 0-0.06461-7e-3 -0.03402-7e-3 -0.07062-0.0203v-0.0595q0.03516 0.0197 0.0689 0.0297t0.06633 0.01q0.04946 0 0.07633-0.0194 0.02688-0.0194 0.02688-0.0555 0-0.0315-0.01944-0.0492-0.01915-0.0177-0.06318-0.0266l-0.03516-7e-3q-0.06461-0.0129-0.09349-0.0403-0.02887-0.0274-0.02887-0.0763 0-0.0566 0.03974-0.0892 0.04003-0.0326 0.11007-0.0326 0.03002 0 0.06118 5e-3t0.06376 0.0163z"/>
<path d="m95.814 150.66h0.06204l0.10607 0.15868 0.10664-0.15868h0.06204l-0.13723 0.20499 0.14638 0.22186h-0.06204l-0.12008-0.18155-0.12093 0.18155h-0.06233l0.15238-0.22786z"/>
<path d="m96.565 150.71-0.07834 0.21242h0.15696zm-0.03259-0.0569h0.06547l0.16268 0.42685h-0.06004l-0.03888-0.1095h-0.19241l-0.03888 0.1095h-0.0609z"/>
<path d="m96.871 151.04v0.16982h-0.05289v-0.442h0.05289v0.0486q0.01658-0.0286 0.04174-0.0423 0.02545-0.014 0.06061-0.014 0.05832 0 0.09463 0.0463 0.0366 0.0463 0.0366 0.12179 0 0.0755-0.0366 0.1218-0.03631 0.0463-0.09463 0.0463-0.03516 0-0.06061-0.0137-0.02516-0.014-0.04174-0.0426zm0.17897-0.11179q0-0.058-0.02402-0.0909-0.02373-0.0332-0.06547-0.0332t-0.06576 0.0332q-0.02373 0.0329-0.02373 0.0909t0.02373 0.0912q0.02402 0.0329 0.06576 0.0329t0.06547-0.0329q0.02402-0.0332 0.02402-0.0912z"/>
<path d="m97.243 151.04v0.16982h-0.05289v-0.442h0.05289v0.0486q0.01658-0.0286 0.04174-0.0423 0.02545-0.014 0.06061-0.014 0.05832 0 0.09463 0.0463 0.03659 0.0463 0.03659 0.12179 0 0.0755-0.03659 0.1218-0.03631 0.0463-0.09463 0.0463-0.03516 0-0.06061-0.0137-0.02516-0.014-0.04174-0.0426zm0.17897-0.11179q0-0.058-0.02402-0.0909-0.02373-0.0332-0.06547-0.0332t-0.06576 0.0332q-0.02373 0.0329-0.02373 0.0909t0.02373 0.0912q0.02402 0.0329 0.06576 0.0329t0.06547-0.0329q0.02402-0.0332 0.02402-0.0912z"/>
</g>
<rect x="-1245.1" y="2429.2" width="66.434" height="29.424" ry="0" fill="none" stroke="#999" stroke-linecap="round" stroke-width="3.0525"/>
<g transform="matrix(15.148 0 0 15.149 -2746.8 175.38)" fill="#808080" stroke-width=".21872px" aria-label="Data Inside Don't Break">
<path d="m99.695 149.23v0.33141h0.06965q0.08821 0 0.12903-0.04 0.04111-0.04 0.04111-0.12617 0-0.0856-0.04111-0.12532-0.04082-0.04-0.12903-0.04zm-0.05766-0.0474h0.11846q0.12389 0 0.18184 0.0517 0.05795 0.0514 0.05795 0.161 0 0.11018-0.05823 0.16185-0.05823 0.0517-0.18155 0.0517h-0.11846z"/>
<path d="m100.23 149.45q-0.0636 0-0.0882 0.0145-0.0246 0.0146-0.0246 0.0497 0 0.028 0.0183 0.0445 0.0186 0.0163 0.0502 0.0163 0.0437 0 0.0699-0.0308 0.0265-0.0311 0.0265-0.0825v-0.0117zm0.10477-0.0217v0.18241h-0.0525v-0.0485q-0.018 0.0291-0.0448 0.0431-0.0268 0.0137-0.0657 0.0137-0.0491 0-0.0782-0.0274-0.0288-0.0277-0.0288-0.0739 0-0.0539 0.036-0.0814 0.0363-0.0274 0.10791-0.0274h0.0736v-5e-3q0-0.0362-0.024-0.0559-0.0237-0.02-0.0668-0.02-0.0274 0-0.0534 7e-3t-0.05 0.0197v-0.0485q0.0288-0.0111 0.0559-0.0165 0.0271-6e-3 0.0528-6e-3 0.0694 0 0.10362 0.036 0.0343 0.036 0.0343 0.10904z"/>
<path d="m100.5 149.2v0.0908h0.10819v0.0408h-0.10819v0.17355q0 0.0391 0.0106 0.0502 0.0108 0.0111 0.0437 0.0111h0.054v0.044h-0.054q-0.0608 0-0.0839-0.0225-0.0231-0.0228-0.0231-0.0828v-0.17355h-0.0385v-0.0408h0.0385v-0.0908z"/>
<path d="m100.82 149.45q-0.0637 0-0.0882 0.0145-0.0246 0.0146-0.0246 0.0497 0 0.028 0.0183 0.0445 0.0186 0.0163 0.0502 0.0163 0.0437 0 0.0699-0.0308 0.0265-0.0311 0.0265-0.0825v-0.0117zm0.10476-0.0217v0.18241h-0.0525v-0.0485q-0.018 0.0291-0.0448 0.0431-0.0268 0.0137-0.0657 0.0137-0.0491 0-0.0782-0.0274-0.0288-0.0277-0.0288-0.0739 0-0.0539 0.036-0.0814 0.0363-0.0274 0.10791-0.0274h0.0736v-5e-3q0-0.0362-0.024-0.0559-0.0237-0.02-0.0668-0.02-0.0274 0-0.0534 7e-3t-0.05 0.0197v-0.0485q0.0288-0.0111 0.056-0.0165 0.0271-6e-3 0.0528-6e-3 0.0694 0 0.10362 0.036 0.0343 0.036 0.0343 0.10904z"/>
<path d="m101.22 149.18h0.0577v0.42619h-0.0577z"/>
<path d="m101.66 149.41v0.19297h-0.0525v-0.19126q0-0.0454-0.0177-0.0679t-0.0531-0.0225q-0.0425 0-0.0671 0.0271t-0.0246 0.0739v0.1807h-0.0528v-0.31971h0.0528v0.0497q0.0188-0.0288 0.0442-0.0431 0.0257-0.0143 0.0591-0.0143 0.0551 0 0.0834 0.0342 0.0283 0.034 0.0283 0.1002z"/>
<path d="m101.97 149.3v0.0497q-0.0223-0.0114-0.0463-0.0171-0.024-6e-3 -0.0497-6e-3 -0.0391 0-0.0588 0.012-0.0194 0.012-0.0194 0.036 0 0.0183 0.014 0.0288 0.014 0.0103 0.0562 0.0197l0.018 4e-3q0.056 0.012 0.0794 0.034 0.0237 0.0217 0.0237 0.0608 0 0.0445-0.0354 0.0705-0.0351 0.026-0.0968 0.026-0.0257 0-0.0537-5e-3 -0.0277-5e-3 -0.0585-0.0148v-0.0542q0.0291 0.0151 0.0574 0.0228 0.0283 7e-3 0.0559 7e-3 0.0371 0 0.0571-0.0126 0.02-0.0129 0.02-0.036 0-0.0214-0.0146-0.0328-0.0143-0.0114-0.0631-0.022l-0.0183-4e-3q-0.0488-0.0103-0.0705-0.0314-0.0217-0.0214-0.0217-0.0585 0-0.0451 0.032-0.0696 0.032-0.0246 0.0908-0.0246 0.0291 0 0.0548 4e-3t0.0474 0.0128z"/>
<path d="m102.07 149.29h0.0525v0.31971h-0.0525zm0-0.12446h0.0525v0.0665h-0.0525z"/>
<path d="m102.44 149.34v-0.17298h0.0525v0.44417h-0.0525v-0.048q-0.0166 0.0285-0.042 0.0425-0.0251 0.0137-0.0605 0.0137-0.0579 0-0.0945-0.0463-0.0362-0.0462-0.0362-0.1216t0.0362-0.12161q0.0365-0.0462 0.0945-0.0462 0.0354 0 0.0605 0.014 0.0254 0.0137 0.042 0.0422zm-0.17898 0.11162q0 0.0579 0.0237 0.0911 0.024 0.0328 0.0657 0.0328t0.0657-0.0328q0.024-0.0331 0.024-0.0911t-0.024-0.0908q-0.024-0.0331-0.0657-0.0331t-0.0657 0.0331q-0.0237 0.0328-0.0237 0.0908z"/>
<path d="m102.87 149.43v0.0257h-0.2415q3e-3 0.0542 0.0325 0.0828 0.0294 0.0283 0.0816 0.0283 0.0303 0 0.0585-7e-3 0.0286-7e-3 0.0565-0.0223v0.0497q-0.0283 0.012-0.0579 0.0183-0.0297 6e-3 -0.0602 6e-3 -0.0765 0-0.12132-0.0445-0.0445-0.0445-0.0445-0.12046 0-0.0785 0.0422-0.12446 0.0425-0.0462 0.11447-0.0462 0.0645 0 0.10191 0.0417 0.0377 0.0414 0.0377 0.11275zm-0.0525-0.0154q-5.8e-4 -0.0431-0.0243-0.0688-0.0234-0.0257-0.0622-0.0257-0.044 0-0.0705 0.0248-0.0263 0.0248-0.0303 0.0699z"/>
<path d="m99.695 149.96v0.33141h0.06965q0.08821 0 0.12903-0.04 0.04111-0.04 0.04111-0.12617 0-0.0856-0.04111-0.12532-0.04082-0.04-0.12903-0.04zm-0.05766-0.0474h0.11846q0.12389 0 0.18184 0.0517 0.05795 0.0514 0.05795 0.161 0 0.11018-0.05823 0.16185-0.05823 0.0517-0.18155 0.0517h-0.11846z"/>
<path d="m100.21 150.05q-0.0422 0-0.0668 0.0331-0.0246 0.0328-0.0246 0.0902t0.0243 0.0905q0.0245 0.0328 0.0671 0.0328 0.042 0 0.0665-0.0331 0.0246-0.0331 0.0246-0.0902 0-0.0568-0.0246-0.0899-0.0245-0.0334-0.0665-0.0334zm0-0.0445q0.0685 0 0.10761 0.0445 0.0391 0.0445 0.0391 0.12332 0 0.0785-0.0391 0.12331-0.0391 0.0445-0.10761 0.0445-0.0688 0-0.10791-0.0445-0.0388-0.0448-0.0388-0.12331 0-0.0788 0.0388-0.12332 0.0391-0.0445 0.10791-0.0445z"/>
<path d="m100.71 150.14v0.19297h-0.0525v-0.19126q0-0.0454-0.0177-0.0679-0.0177-0.0226-0.0531-0.0226-0.0425 0-0.0671 0.0271-0.0245 0.0271-0.0245 0.0739v0.1807h-0.0528v-0.31971h0.0528v0.0497q0.0188-0.0288 0.0442-0.0431 0.0257-0.0143 0.0591-0.0143 0.0551 0 0.0834 0.0343 0.0283 0.034 0.0283 0.1002z"/>
<path d="m100.86 149.91v0.15843h-0.0485v-0.15843z"/>
<path d="m101.03 149.93v0.0908h0.10819v0.0408h-0.10819v0.17355q0 0.0391 0.0106 0.0502 0.0108 0.0111 0.0437 0.0111h0.054v0.044h-0.054q-0.0608 0-0.0839-0.0225-0.0231-0.0228-0.0231-0.0828v-0.17355h-0.0385v-0.0408h0.0385v-0.0908z"/>
<path d="m101.45 150.13v0.15614h0.0925q0.0465 0 0.0688-0.0191 0.0225-0.0194 0.0225-0.0591 0-0.04-0.0225-0.0588-0.0223-0.0191-0.0688-0.0191zm0-0.17527v0.12845h0.0854q0.0422 0 0.0628-0.0157 0.0208-0.016 0.0208-0.0485 0-0.0323-0.0208-0.0482-0.0206-0.016-0.0628-0.016zm-0.0577-0.0474h0.1473q0.0659 0 0.10162 0.0274 0.0357 0.0274 0.0357 0.0779 0 0.0391-0.0183 0.0622t-0.0537 0.0288q0.0425 9e-3 0.0659 0.0383 0.0237 0.0288 0.0237 0.0722 0 0.0571-0.0388 0.0882t-0.11048 0.0311h-0.153z"/>
<path d="m101.98 150.07q-9e-3 -5e-3 -0.0194-7e-3 -0.0103-3e-3 -0.0228-3e-3 -0.0445 0-0.0685 0.0291-0.0237 0.0288-0.0237 0.0831v0.16842h-0.0528v-0.31971h0.0528v0.0497q0.0166-0.0291 0.0431-0.0431 0.0266-0.0143 0.0645-0.0143 5e-3 0 0.012 8.5e-4 7e-3 5.8e-4 0.0145 2e-3z"/>
<path d="m102.29 150.16v0.0257h-0.24149q3e-3 0.0542 0.0325 0.0828 0.0294 0.0283 0.0816 0.0283 0.0303 0 0.0585-7e-3 0.0285-7e-3 0.0565-0.0223v0.0497q-0.0283 0.012-0.058 0.0183-0.0297 6e-3 -0.0602 6e-3 -0.0765 0-0.12132-0.0445-0.0445-0.0445-0.0445-0.12046 0-0.0785 0.0422-0.12446 0.0425-0.0462 0.11446-0.0462 0.0645 0 0.10191 0.0417 0.0377 0.0414 0.0377 0.11276zm-0.0525-0.0154q-5.7e-4 -0.0431-0.0243-0.0688-0.0234-0.0257-0.0622-0.0257-0.044 0-0.0705 0.0248-0.0263 0.0248-0.0303 0.0699z"/>
<path d="m102.53 150.18q-0.0637 0-0.0882 0.0146t-0.0245 0.0497q0 0.028 0.0183 0.0445 0.0186 0.0163 0.0502 0.0163 0.0437 0 0.0699-0.0308 0.0266-0.0311 0.0266-0.0825v-0.0117zm0.10476-0.0217v0.18241h-0.0525v-0.0485q-0.018 0.0291-0.0448 0.0431-0.0268 0.0137-0.0656 0.0137-0.0491 0-0.0782-0.0274-0.0288-0.0277-0.0288-0.0739 0-0.0539 0.036-0.0814 0.0363-0.0274 0.1079-0.0274h0.0737v-5e-3q0-0.0362-0.024-0.0559-0.0237-0.02-0.0668-0.02-0.0274 0-0.0534 7e-3t-0.0499 0.0197v-0.0485q0.0288-0.0111 0.0559-0.0165 0.0271-6e-3 0.0528-6e-3 0.0694 0 0.10362 0.036 0.0343 0.036 0.0343 0.10904z"/>
<path d="m102.74 149.89h0.0528v0.26233l0.15671-0.13787h0.0671l-0.16956 0.14957 0.1767 0.17014h-0.0685l-0.16242-0.15615v0.15615h-0.0528z"/>
</g>
<g transform="matrix(.083061 0 0 .083064 -1312.4 2514.1)" fill="#808080" stroke-width="4.0686">
<g transform="matrix(11.791 0 0 11.791 2942.3 3871.2)" fill="#808080" stroke-width="4.0686">
<rect x="-222" y="-363" width="1" height="38"/>
<rect x="-220" y="-363" width="1" height="38"/>
<rect x="-218" y="-363" width="1" height="30"/>
<rect x="-216" y="-363" width="4" height="30"/>
<rect x="-211" y="-363" width="2" height="30"/>
<rect x="-206" y="-363" width="1" height="30"/>
<rect x="-204" y="-363" width="2" height="30"/>
<rect x="-201" y="-363" width="3" height="30"/>
<rect x="-197" y="-363" width="4" height="30"/>
<rect x="-192" y="-363" width="1" height="30"/>
<rect x="-190" y="-363" width="1" height="38"/>
<rect x="-188" y="-363" width="1" height="38"/>
<rect x="-186" y="-363" width="1" height="30"/>
<rect x="-181" y="-363" width="1" height="30"/>
<rect x="-179" y="-363" width="2" height="30"/>
<rect x="-176" y="-363" width="2" height="30"/>
<rect x="-172" y="-363" width="1" height="30"/>
<rect x="-169" y="-363" width="3" height="30"/>
<rect x="-165" y="-363" width="1" height="30"/>
<rect x="-163" y="-363" width="3" height="30"/>
<rect x="-158" y="-363" width="1" height="38"/>
<rect x="-156" y="-363" width="1" height="38"/>
<path d="m-213.21-326.63c-0.39844 1e-5 -0.71484 0.13624-0.94922 0.40869-0.23144 0.27247-0.34717 0.646-0.34716 1.1206-1e-5 0.47168 0.11572 0.84522 0.34716 1.1206 0.23438 0.27247 0.55078 0.4087 0.94922 0.4087s0.71338-0.13623 0.94483-0.4087c0.23437-0.27538 0.35156-0.64892 0.35156-1.1206 0-0.47461-0.11719-0.84814-0.35156-1.1206-0.23145-0.27245-0.54639-0.40868-0.94483-0.40869m1.7622-2.7817v0.8086c-0.22266-0.10546-0.44825-0.18603-0.67676-0.2417-0.22559-0.0557-0.44971-0.0835-0.67236-0.0835-0.58594 1e-5 -1.0342 0.19776-1.3447 0.59326-0.30762 0.39552-0.4834 0.99317-0.52734 1.793 0.17285-0.25488 0.38964-0.4497 0.65039-0.58447 0.26074-0.13769 0.54785-0.20654 0.86133-0.20654 0.65917 0 1.1792 0.20069 1.5601 0.60205 0.38378 0.39844 0.57567 0.9419 0.57568 1.6304-1e-5 0.67383-0.19922 1.2144-0.59766 1.6216-0.39844 0.40723-0.92871 0.61084-1.5908 0.61084-0.75879 0-1.3389-0.29004-1.7402-0.87012-0.40137-0.583-0.60205-1.4268-0.60205-2.5312 0-1.0371 0.24609-1.8633 0.73828-2.4785 0.49218-0.61816 1.1528-0.92724 1.9819-0.92725 0.22266 1e-5 0.44678 0.022 0.67237 0.0659 0.22851 0.0439 0.46581 0.10987 0.71191 0.19775m1.9688-0.14502h3.4849v0.74708h-2.6719v1.6084c0.1289-0.0439 0.25781-0.0762 0.38672-0.0967 0.1289-0.0234 0.25781-0.0351 0.38672-0.0351 0.73241 0 1.3125 0.20069 1.7402 0.60205 0.42773 0.40137 0.6416 0.94483 0.6416 1.6304 0 0.70606-0.21973 1.2554-0.65918 1.648-0.43946 0.38965-1.0591 0.58447-1.8589 0.58447-0.2754 0-0.55665-0.0234-0.84375-0.0703-0.28419-0.0469-0.57862-0.11719-0.88331-0.21094v-0.89209c0.26368 0.14356 0.53614 0.25049 0.81739 0.3208 0.28125 0.0703 0.57861 0.10547 0.89209 0.10547 0.50683 0 0.9082-0.1333 1.2041-0.3999 0.29589-0.2666 0.44384-0.62842 0.44385-1.0854-1e-5 -0.45703-0.14796-0.81885-0.44385-1.0854-0.2959-0.2666-0.69727-0.3999-1.2041-0.3999-0.23731 0-0.47461 0.0264-0.71192 0.0791-0.23437 0.0527-0.47461 0.13477-0.7207 0.24609v-3.2959m7.6201 3.4453c-0.42188 0-0.7544 0.11279-0.99756 0.33838-0.24024 0.22558-0.36035 0.53613-0.36035 0.93164s0.12011 0.70605 0.36035 0.93164c0.24316 0.22558 0.57568 0.33838 0.99756 0.33838 0.42187 0 0.75439-0.1128 0.99756-0.33838 0.24316-0.22852 0.36474-0.53906 0.36474-0.93164 0-0.39551-0.12158-0.70606-0.36474-0.93164-0.24024-0.22559-0.57276-0.33838-0.99756-0.33838m-0.8877-0.37793c-0.38086-0.0937-0.67822-0.27099-0.89209-0.53174-0.21094-0.26074-0.31641-0.57861-0.3164-0.95361-1e-5 -0.52441 0.18603-0.93896 0.5581-1.2437 0.375-0.30468 0.88769-0.45702 1.5381-0.45703 0.65331 1e-5 1.166 0.15235 1.5381 0.45703 0.37207 0.3047 0.5581 0.71925 0.55811 1.2437-1e-5 0.375-0.10694 0.69287-0.3208 0.95361-0.21094 0.26075-0.50538 0.43799-0.8833 0.53174 0.42773 0.0996 0.76025 0.29443 0.99756 0.58447 0.24022 0.29004 0.36034 0.64453 0.36035 1.0635-1e-5 0.63574-0.19483 1.1235-0.58448 1.4634-0.38672 0.33984-0.94189 0.50976-1.6655 0.50976-0.72364 0-1.2803-0.16992-1.6699-0.50976-0.38672-0.33985-0.58008-0.82764-0.58008-1.4634 0-0.41895 0.12011-0.77344 0.36035-1.0635 0.24023-0.29004 0.57422-0.48486 1.002-0.58447m-0.32519-1.4019c-1e-5 0.33985 0.10546 0.60499 0.3164 0.79541 0.21387 0.19044 0.5127 0.28565 0.89649 0.28565 0.38085 0 0.67822-0.0952 0.89209-0.28565 0.21679-0.19042 0.32519-0.45556 0.32519-0.79541 0-0.33984-0.1084-0.60497-0.32519-0.79541-0.21387-0.19042-0.51124-0.28564-0.89209-0.28564-0.38379 0-0.68262 0.0952-0.89649 0.28564-0.21094 0.19044-0.31641 0.45557-0.3164 0.79541m7.7344 1.3579c0.4248 0.0908 0.75586 0.27979 0.99317 0.5669 0.24022 0.28711 0.36034 0.6416 0.36035 1.0635-1e-5 0.64747-0.22266 1.1484-0.66797 1.5029-0.44532 0.3545-1.0781 0.53174-1.8984 0.53174-0.27539 0-0.55957-0.0278-0.85254-0.0835-0.29004-0.0527-0.59033-0.13331-0.90088-0.2417v-0.85694c0.2461 0.14356 0.51563 0.25196 0.8086 0.3252 0.29296 0.0732 0.59912 0.10986 0.91845 0.10986 0.55664 0 0.97998-0.10986 1.27-0.32959 0.29297-0.21972 0.43945-0.53906 0.43946-0.95801-1e-5 -0.38671-0.13624-0.68847-0.4087-0.90527-0.26953-0.21972-0.64599-0.32959-1.1294-0.32959h-0.76465v-0.72949h0.79981c0.43652 0 0.7705-0.0864 1.002-0.25928 0.23144-0.17578 0.34716-0.42773 0.34717-0.75586-1e-5 -0.33691-0.12012-0.59472-0.36035-0.77344-0.23731-0.18163-0.57862-0.27245-1.0239-0.27246-0.24317 1e-5 -0.50391 0.0264-0.78223 0.0791s-0.58447 0.13478-0.91845 0.2461v-0.79102c0.33691-0.0937 0.65185-0.16405 0.94482-0.21094 0.2959-0.0469 0.57422-0.0703 0.83496-0.0703 0.67383 1e-5 1.207 0.15382 1.5996 0.46143 0.39257 0.30469 0.58886 0.71778 0.58887 1.2393-1e-5 0.36328-0.10401 0.6709-0.31201 0.92285-0.20802 0.24902-0.50391 0.42188-0.8877 0.51855m14.309 0c0.4248 0.0908 0.75585 0.27979 0.99316 0.5669 0.24023 0.28711 0.36035 0.6416 0.36035 1.0635 0 0.64747-0.22266 1.1484-0.66797 1.5029-0.44531 0.3545-1.0781 0.53174-1.8984 0.53174-0.27539 0-0.55957-0.0278-0.85253-0.0835-0.29004-0.0527-0.59034-0.13331-0.90088-0.2417v-0.85694c0.24609 0.14356 0.51562 0.25196 0.80859 0.3252 0.29297 0.0732 0.59912 0.10986 0.91846 0.10986 0.55663 0 0.97997-0.10986 1.27-0.32959 0.29296-0.21972 0.43945-0.53906 0.43945-0.95801 0-0.38671-0.13623-0.68847-0.40869-0.90527-0.26954-0.21972-0.646-0.32959-1.1294-0.32959h-0.76464v-0.72949h0.7998c0.43652 0 0.7705-0.0864 1.002-0.25928 0.23144-0.17578 0.34717-0.42773 0.34717-0.75586 0-0.33691-0.12012-0.59472-0.36035-0.77344-0.23731-0.18163-0.57862-0.27245-1.0239-0.27246-0.24316 1e-5 -0.5039 0.0264-0.78222 0.0791s-0.58448 0.13478-0.91846 0.2461v-0.79102c0.33691-0.0937 0.65185-0.16405 0.94482-0.21094 0.2959-0.0469 0.57422-0.0703 0.83497-0.0703 0.67382 1e-5 1.207 0.15382 1.5996 0.46143 0.39258 0.30469 0.58887 0.71778 0.58887 1.2393 0 0.36328-0.10401 0.6709-0.31201 0.92285-0.20801 0.24902-0.50391 0.42188-0.88769 0.51855m3.7881 2.7905h3.0982v0.74707h-4.166v-0.74707c0.33691-0.34863 0.79541-0.81592 1.3755-1.4019 0.583-0.58886 0.94921-0.96825 1.0986-1.1382 0.28418-0.31933 0.48193-0.58886 0.59326-0.80859 0.11426-0.22266 0.17139-0.44092 0.17139-0.65479 0-0.34863-0.12305-0.63281-0.36914-0.85254-0.24317-0.21972-0.56104-0.32958-0.95361-0.32959-0.27833 1e-5 -0.57276 0.0483-0.88331 0.14502-0.30761 0.0967-0.6372 0.24317-0.98876 0.43946v-0.89649c0.35742-0.14355 0.6914-0.25195 1.002-0.32519 0.31054-0.0732 0.59472-0.10986 0.85254-0.10987 0.67968 1e-5 1.2217 0.16993 1.626 0.50977 0.4043 0.33985 0.60644 0.79395 0.60645 1.3623-1e-5 0.26954-0.0513 0.52589-0.15381 0.76905-0.0996 0.24023-0.28272 0.52441-0.54932 0.85253-0.0732 0.085-0.30615 0.33106-0.69873 0.73829-0.39258 0.4043-0.94629 0.97119-1.6611 1.7007m4.957-5.814h3.4849v0.74708h-2.6719v1.6084c0.1289-0.0439 0.25781-0.0762 0.38672-0.0967 0.1289-0.0234 0.25781-0.0351 0.38672-0.0351 0.73242 0 1.3125 0.20069 1.7402 0.60205 0.42773 0.40137 0.6416 0.94483 0.6416 1.6304 0 0.70606-0.21973 1.2554-0.65918 1.648-0.43945 0.38965-1.0591 0.58447-1.8589 0.58447-0.2754 0-0.55664-0.0234-0.84375-0.0703-0.28418-0.0469-0.57862-0.11719-0.8833-0.21094v-0.89209c0.26367 0.14356 0.53613 0.25049 0.81738 0.3208 0.28125 0.0703 0.57861 0.10547 0.89209 0.10547 0.50683 0 0.9082-0.1333 1.2041-0.3999s0.44384-0.62842 0.44385-1.0854c-1e-5 -0.45703-0.14795-0.81885-0.44385-1.0854s-0.69727-0.3999-1.2041-0.3999c-0.23731 0-0.47461 0.0264-0.71191 0.0791-0.23438 0.0527-0.47462 0.13477-0.72071 0.24609v-3.2959m8.1606 0.77344-2.2412 3.5024h2.2412v-3.5024m-0.23291-0.77344h1.1162v4.2759h0.93603v0.73828h-0.93603v1.5469h-0.8833v-1.5469h-2.9619v-0.85693l2.729-4.1572"/>
</g>
</g>
<rect x="-1321.7" y="2524.1" width="142.8" height="4.6535" ry="1.4396" fill="#808080" fill-rule="evenodd"/>
<path d="m-1208.8 2393.3v32.445c0 3.584 2.8588 6.489 6.3851 6.489h31.925z" fill="#fafafa" stroke-width="3.3132"/>
<g transform="translate(19.608)" stroke-width="16.307">
<g transform="translate(0 3.0476)" opacity=".25" aria-label="TAR.GZ">
<path d="m-1281.8 2764.9v10.293h-17.391v47.835h-12.225v-47.835h-17.47v-10.293z"/>
<path d="m-1258.8 2801.1h14.749l-7.2561-22.872zm0.7493-36.162h13.724l20.585 58.128h-13.171l-3.7464-11.949h-21.413l-4.0225 11.949h-12.698z"/>
<path d="m-1204.2 2775v15.616h13.763q4.1013 0 6.1519-0.9464 3.6281-1.6563 3.6281-6.5463 0-5.2843-3.5098-7.0984-1.9717-1.0253-5.9153-1.0253zm16.642-10.096q6.1125 0.1183 9.3856 1.4986 3.3126 1.3802 5.5999 4.0618 1.8929 2.2084 2.9971 4.89 1.1041 2.6816 1.1041 6.1125 0 4.1407-2.09 8.1631-2.0901 3.983-6.9012 5.6393 4.0224 1.6169 5.6787 4.614 1.6957 2.9576 1.6957 9.0701v3.9041q0 3.983 0.3155 5.4027 0.4732 2.2478 2.2084 3.3125v1.4591h-13.369q-0.5521-1.9323-0.7888-3.1154-0.4732-2.445-0.5126-5.0083l-0.079-5.4026q-0.079-5.5604-2.0506-7.4139-1.9324-1.8534-7.2956-1.8534h-12.54v22.794h-11.87v-58.128z"/>
<path d="m-1159.1 2811.3h11.949v11.752h-11.949z"/>
<path d="m-1096.5 2783q-1.3803-5.9547-6.7435-8.3208-2.9971-1.3014-6.6646-1.3014-7.0195 0-11.554 5.3238-4.4957 5.2843-4.4957 15.932 0 10.726 4.89 15.183t11.121 4.4562q6.1125 0 10.017-3.5097 3.9041-3.5492 4.8111-9.2674h-13.448v-9.7011h24.213v31.193h-8.0448l-1.2225-7.2561q-3.5098 4.1407-6.3097 5.8365-4.8111 2.9576-11.831 2.9576-11.555 0-18.929-8.0054-7.6899-8.0448-7.6899-22.005 0-14.118 7.7687-22.636 7.7688-8.518 20.546-8.518 11.081 0 17.785 5.6393 6.7434 5.5998 7.7293 14z"/>
<path d="m-1076.9 2812.8 30.01-37.582h-29.261v-10.293h44.404v9.7406l-30.405 38.134h30.484v10.253h-45.232z"/>
</g>
<g fill="#fff" aria-label="TAR.GZ">
<path d="m-1281.8 2764.9v10.293h-17.391v47.835h-12.225v-47.835h-17.47v-10.293z"/>
<path d="m-1258.8 2801.1h14.749l-7.2561-22.872zm0.7493-36.162h13.724l20.585 58.128h-13.171l-3.7464-11.949h-21.413l-4.0225 11.949h-12.698z"/>
<path d="m-1204.2 2775v15.616h13.763q4.1013 0 6.1519-0.9464 3.6281-1.6563 3.6281-6.5463 0-5.2843-3.5098-7.0984-1.9717-1.0253-5.9153-1.0253zm16.642-10.096q6.1125 0.1183 9.3856 1.4986 3.3126 1.3802 5.5999 4.0618 1.8929 2.2084 2.9971 4.89 1.1041 2.6816 1.1041 6.1125 0 4.1407-2.09 8.1631-2.0901 3.983-6.9012 5.6393 4.0224 1.6169 5.6787 4.614 1.6957 2.9576 1.6957 9.0701v3.9041q0 3.983 0.3155 5.4027 0.4732 2.2478 2.2084 3.3125v1.4591h-13.369q-0.5521-1.9323-0.7888-3.1154-0.4732-2.445-0.5126-5.0083l-0.079-5.4026q-0.079-5.5604-2.0506-7.4139-1.9324-1.8534-7.2956-1.8534h-12.54v22.794h-11.87v-58.128z"/>
<path d="m-1159.1 2811.3h11.949v11.752h-11.949z"/>
<path d="m-1096.5 2783q-1.3803-5.9547-6.7435-8.3208-2.9971-1.3014-6.6646-1.3014-7.0195 0-11.554 5.3238-4.4957 5.2843-4.4957 15.932 0 10.726 4.89 15.183t11.121 4.4562q6.1125 0 10.017-3.5097 3.9041-3.5492 4.8111-9.2674h-13.448v-9.7011h24.213v31.193h-8.0448l-1.2225-7.2561q-3.5098 4.1407-6.3097 5.8365-4.8111 2.9576-11.831 2.9576-11.555 0-18.929-8.0054-7.6899-8.0448-7.6899-22.005 0-14.118 7.7687-22.636 7.7688-8.518 20.546-8.518 11.081 0 17.785 5.6393 6.7434 5.5998 7.7293 14z"/>
<path d="m-1076.9 2812.8 30.01-37.582h-29.261v-10.293h44.404v9.7406l-30.405 38.134h30.484v10.253h-45.232z"/>
</g>
</g>
</g>
</g>
</svg>
