<svg width="128" height="128" version="1.1" viewBox="0 0 33.867 33.867" xmlns="http://www.w3.org/2000/svg" xmlns:osb="http://www.openswatchbook.org/uri/2009/osb" xmlns:xlink="http://www.w3.org/1999/xlink">
<defs>
<linearGradient id="linearGradient2309" x1="-6.846" x2="46.972" y1="232.65" y2="233.71" gradientTransform="matrix(.20006 0 0 .19453 65.729 237.98)" gradientUnits="userSpaceOnUse">
<stop stop-color="#c8391d" offset="0"/>
<stop stop-color="#d85937" offset="1"/>
</linearGradient>
<linearGradient id="linearGradient1503-8" x1="29.203" x2="4.5843" y1="263.52" y2="296.17" gradientTransform="matrix(1.001 0 0 1.001 1.4828 -.26587)" gradientUnits="userSpaceOnUse">
<stop stop-color="#d9d9d9" offset="0"/>
<stop stop-color="#fff" offset="1"/>
</linearGradient>
</defs>
<g transform="translate(0 -263.13)">
<path d="m6.0719 264.12v32.612h24.724v-18.3c-0.04716-0.8313-0.10165-1.5753-0.3125-2.3297-0.21448-0.76736-0.55247-1.4939-0.95641-2.1892-0.51687-0.8897-1.3904-1.4633-2.1667-2.1925-0.47098-0.42711-1.4882-1.4417-2.7195-2.653-1.2212-1.2014-2.6535-2.5969-3.8492-3.6811-0.35316-0.3187-0.86616-0.64943-1.3428-0.84044-0.37009-0.14831-0.80547-0.24063-1.2258-0.30267-0.43345-0.064-0.85093-0.0958-1.1644-0.12361z" opacity=".25"/>
<path d="m6.0719 263.6v32.612h24.724v-18.3c-0.04716-0.83129-0.10165-1.5753-0.3125-2.3297-0.21448-0.76736-0.55247-1.4939-0.95641-2.1892-0.51687-0.88969-1.3904-1.4633-2.1667-2.1925-0.47098-0.42712-1.4882-1.4417-2.7195-2.653-1.2212-1.2014-2.6535-2.5969-3.8492-3.6811-0.35316-0.3187-0.86616-0.64944-1.3428-0.84044-0.37009-0.14831-0.80547-0.24063-1.2258-0.30267-0.43345-0.064-0.85093-0.0958-1.1644-0.12361z" fill="url(#linearGradient1503-8)" stroke="#808080" stroke-width=".3"/>
<g transform="matrix(.24832 0 0 .2479 -1.4483 223.26)" fill-rule="evenodd" stroke-width="4.0305">
<path d="m77.896 177.9a23.573 23.573 0 0 0-23.573 23.573 23.573 23.573 0 0 0 23.573 23.573 23.573 23.573 0 0 0 23.573-23.573 23.573 23.573 0 0 0-2e-3 -0.0444h-23.538v-23.527a23.573 23.573 0 0 0-0.03411-2e-3z" fill="#b2b2b2"/>
<path d="m81.259 174.79 8e-3 23.033 23.176 0.0269c0.0148-0.22598 0.0262-0.45218 0.0341-0.67851-3e-5 -12.373-10.031-22.404-22.404-22.404-0.2691 9e-3 -0.54533 4e-3 -0.81396 0.0228z" fill="#f0c19c"/>
<g transform="translate(-150.33 -.18125)" fill="#f2c39e">
<rect x="202.37" y="276.63" width="66.045" height="5.6127"/>
<rect x="192.38" y="276.62" width="5.625" height="5.625"/>
<rect x="202.37" y="263.07" width="66.045" height="5.6127"/>
<rect x="192.38" y="263.06" width="5.625" height="5.625"/>
<rect x="202.37" y="249.68" width="66.045" height="5.6127"/>
<rect x="192.38" y="249.68" width="5.625" height="5.625"/>
<rect x="202.37" y="236.4" width="66.045" height="5.6127"/>
<rect x="192.38" y="236.39" width="5.625" height="5.625"/>
</g>
</g>
<path d="m21.252 265.51c0.01633 0.0263 0.56114 0.90462 0.72779 1.3989 0.45158 1.0123 0.25858 3.9724 0.25037 5.6588 0.02772-0.19401 4.6905-1.3958 7.111 0.80464-0.01547-0.0273-0.04888-0.0804-0.12512-0.18628-0.07235-0.10046-0.18275-0.24915-0.37164-0.44224-0.52811-0.60452-0.23093-0.0845-0.80541-0.682-0.49669-0.45047-1.5695-1.5205-2.868-2.798-1.2412-1.2212-2.6869-2.6295-3.919-3.7538z" opacity=".248"/>
<path d="m20.925 264.99c0.01548 0.0249 0.53209 0.85773 0.69011 1.3264 0.42821 0.95987 0.29224 3.218 0.28445 4.8171 0.42899-0.0223 5.1595-0.73701 7.3284 1.8241-0.02928-0.0506-0.10278-0.0927-0.14377-0.17312-0.50077-0.57318-1.1396-1.0337-1.7235-1.5822-0.47098-0.42712-1.4882-1.4417-2.7195-2.653-1.1769-1.1579-2.5478-2.4932-3.7162-3.5592z" fill="#fff" stroke="#808080" stroke-width=".3"/>
<g transform="matrix(.53602 0 0 .53727 -233.43 -13.76)" stroke-width="4.0845"></g>
<g transform="matrix(.53602 0 0 .53727 -234.93 -13.76)" stroke-width="4.0845"></g>
<g transform="translate(-61.498 -.032209)">
<path d="m76.174 274.33 0.4252 0.0881-0.0039 17.636-0.4252 0.0842-11.801-1.7629 0.0089-14.582c3.9071-0.48155 7.8676-0.98489 11.796-1.4638z" fill="url(#linearGradient2309)" fill-rule="evenodd"/>
<path d="m70.336 279.89c-0.2273 2.4e-4 -0.52023 0.0124-0.92906 0.0339-0.57256 0.0302-1.0917 0.0627-1.1537 0.0721l-0.1128 0.0171v6.3005l0.07815 0.0177c0.11505 0.0261 0.44807 0.0413 0.84141 0.0383l0.34698-3e-3 0.0092-1.0826 0.0091-1.0825h0.46953c0.8741 0 1.3855-0.18052 1.855-0.65463 0.4296-0.43379 0.62403-0.93527 0.62403-1.6097 0-1.0232-0.42942-1.7103-1.2144-1.9429-0.24784-0.0734-0.44461-0.10524-0.82344-0.10467zm-0.62814 1.1911c0.24386-9.9e-4 0.59965 0.0409 0.72399 0.096 0.31938 0.1413 0.47343 0.47149 0.44092 0.94505-0.02874 0.41862-0.1602 0.65004-0.45939 0.80849-0.11402 0.0604-0.21478 0.0759-0.56398 0.087l-0.425 0.0135v-1.9111l0.0897-0.0224c0.04372-0.0109 0.11248-0.0161 0.19376-0.0164z" fill="#fff"/>
</g>
</g>
</svg>
