<svg width="128" height="128" version="1.1" viewBox="0 0 33.867 33.867" xmlns="http://www.w3.org/2000/svg" xmlns:osb="http://www.openswatchbook.org/uri/2009/osb" xmlns:xlink="http://www.w3.org/1999/xlink">
<defs>
<linearGradient id="linearGradient841" x1="-194.48" x2="-194.66" y1="-239.97" y2="-166.64" gradientTransform="matrix(.13784 0 0 .14035 34.954 315.44)" gradientUnits="userSpaceOnUse">
<stop stop-color="#f35966" offset="0"/>
<stop stop-color="#e0283f" offset="1"/>
</linearGradient>
<linearGradient id="linearGradient851" x1="-145.4" x2="-145.58" y1="-167.26" y2="-280.65" gradientTransform="matrix(.13784 0 0 .14035 34.954 315.44)" gradientUnits="userSpaceOnUse">
<stop stop-color="#f06712" offset="0"/>
<stop stop-color="#ffb436" offset="1"/>
</linearGradient>
<linearGradient id="linearGradient859" x1="-98.577" x2="-101.03" y1="-166.03" y2="-348.97" gradientTransform="matrix(.13784 0 0 .14035 34.954 315.44)" gradientUnits="userSpaceOnUse">
<stop stop-color="#01bb22" offset="0"/>
<stop stop-color="#51e784" offset="1"/>
</linearGradient>
<linearGradient id="linearGradient867" x1="-50.258" x2="-52.706" y1="-167.99" y2="-309.35" gradientTransform="matrix(.13784 0 0 .14035 34.954 315.44)" gradientUnits="userSpaceOnUse">
<stop stop-color="#017bf5" offset="0"/>
<stop stop-color="#52cdfb" offset="1"/>
</linearGradient>
<linearGradient id="linearGradient875" x1="-123.61" x2="-124.83" y1="-218.51" y2="-149.55" gradientTransform="matrix(.13784 0 0 .14035 34.954 315.44)" gradientUnits="userSpaceOnUse">
<stop stop-color="#d9d9d9" offset="0"/>
<stop stop-color="#fff" offset="1"/>
</linearGradient>
</defs>
<g transform="translate(0 -263.13)">
<g transform="matrix(.98973 0 0 .98981 -70.183 2.5853)" stroke-width="1.0103">
<rect x="75.52" y="264.18" width="25" height="33" opacity=".25"/>
<g transform="matrix(.53602 0 0 .53727 -233.36 -13.76)" stroke-width="4.1267"></g>
<g transform="matrix(.53602 0 0 .53727 -236.26 -13.76)" stroke-width="4.1267"></g>
<rect x="75.52" y="263.65" width="25" height="33" fill="#f2f2f2" stroke="#808080" stroke-linecap="round" stroke-width=".3031"/>
<g transform="matrix(.57038 0 0 .57038 78.362 119.69)" stroke-width="1.7713">
<path d="m1.2829 295.86h31.382c0.3676 0 0.5777-0.25489 0.5824-0.61008l0.0074-0.55577-2.6056-11.432c-0.0754-0.3308-0.33741-0.59166-0.70502-0.59185l-25.956-0.0133c-0.3676-1.4e-4 -0.63764 0.1879-0.69239 0.43665l-2.6858 11.562 0.009938 0.59476c0.005651 0.33794 0.29594 0.61008 0.66354 0.61008z" opacity=".25"/>
<path d="m1.2829 295.19h31.382c0.3676 0 0.60688-0.27156 0.5824-0.61008l-0.86678-11.988c-0.02448-0.33852-0.23238-0.59168-0.59998-0.59184l-29.961-0.0133c-0.3676-1.4e-4 -0.49561 0.18215-0.51004 0.43665l-0.68949 12.156c-0.019223 0.33892 0.29594 0.61008 0.66354 0.61008z" fill="url(#linearGradient875)" stroke="#999" stroke-width=".17713"/>
<rect x="5.333" y="280.99" width="5.7062" height="11.299" ry=".69736" fill="url(#linearGradient841)"/>
<path d="m5.8031 279.84h4.766c0.25928 0 0.38072 0.21295 0.39508 0.47656l0.07294 1.3389c0.01436 0.26361-0.20874 0.47656-0.46802 0.47656h-4.766c-0.25928 0-0.48238-0.21295-0.46802-0.47656l0.072941-1.3389c0.01436-0.26361 0.1358-0.47656 0.39508-0.47656z" fill="#fe8f8a"/>
<rect x="11.891" y="274.87" width="5.7062" height="17.414" ry=".69961" fill="url(#linearGradient851)"/>
<path d="m12.361 273.73h4.766c0.25928 0 0.38072 0.17549 0.39508 0.39271l0.07294 1.1034c0.01436 0.21723-0.20874 0.39271-0.46802 0.39271h-4.766c-0.25928 0-0.48238-0.17548-0.46802-0.39271l0.07294-1.1034c0.01436-0.21722 0.1358-0.39271 0.39508-0.39271z" fill="#ffc966"/>
<rect x="18.448" y="264.83" width="5.7062" height="27.447" ry=".83164" fill="url(#linearGradient859)"/>
<path d="m18.918 264.28h4.766c0.25928 0 0.38072 0.15022 0.39508 0.33617l0.07294 0.94447c0.01436 0.18595-0.20874 0.33617-0.46802 0.33617h-4.766c-0.25928 0-0.48238-0.15022-0.46802-0.33617l0.07294-0.94447c0.01436-0.18595 0.1358-0.33617 0.39508-0.33617z" fill="#87ffa3"/>
<rect x="25.004" y="270.64" width="5.7062" height="21.631" ry=".6554" fill="url(#linearGradient867)"/>
<path d="m25.474 269.69h4.766c0.25928 0 0.38072 0.17486 0.39508 0.39132l0.07294 1.0994c0.01436 0.21646-0.20874 0.39132-0.46802 0.39132h-4.766c-0.25928 0-0.48238-0.17486-0.46802-0.39132l0.07294-1.0994c0.01436-0.21646 0.1358-0.39132 0.39508-0.39132z" fill="#79d7ff"/>
<g transform="matrix(1.5259 .053155 -.023516 .67505 7.761 -4.4861)" fill="#808080" stroke-width=".4615" aria-label="1 2 3 4 5">
<path d="m3.4407 426.18v-0.21875h0.47774v1.5262h-0.25899v-1.3075z"/>
<path d="m4.2303 430.6v0.21875h-1.0259l0.38722-0.49031q0.27659-0.34196 0.32436-0.42745 0.050289-0.088 0.050289-0.14332 0.00251-0.0151 0.00251-0.0302 0-0.10058-0.06789-0.17852-0.065375-0.0779-0.1735-0.0779-0.10812 0-0.17098 0.088-0.060346 0.088-0.060346 0.21372h-0.27155q0-0.2263 0.13326-0.37213 0.13578-0.14836 0.36711-0.14836 0.2087 0 0.35202 0.14081t0.14332 0.35202q0 0.19864-0.30425 0.55318l-0.25899 0.30173z"/>
<path d="m3.2647 433.02q0.020115-0.20367 0.14332-0.32185 0.12321-0.11818 0.32185-0.11818 0.20115 0 0.32185 0.11567 0.12069 0.11566 0.12069 0.3143 0 0.22127-0.14584 0.31933 0.19613 0.0855 0.19613 0.37214 0 0.22127-0.14332 0.35453-0.14081 0.13076-0.36459 0.13076-0.2087 0-0.35705-0.1383-0.14835-0.13829-0.14835-0.34196h0.25899q0 0.11063 0.072918 0.18607 0.072919 0.0754 0.18355 0.0754 0.11315 0 0.17852-0.083 0.06789-0.083 0.06789-0.20115 0-0.0981-0.072919-0.18104-0.070404-0.0855-0.16092-0.0855-0.010058 0-0.020115 3e-3l-0.055318 5e-3v-0.17349h0.032688q0.095548 0 0.16344-0.0654 0.070404-0.0679 0.070404-0.16595 0-0.23384-0.21121-0.23384-0.2087 0-0.2087 0.23384z"/>
<path d="m4.2655 436.98v0.19864h-0.18104v0.28916h-0.23887v-0.28916h-0.69398v-0.11314l0.68141-1.1516h0.25144v1.0661zm-0.41991-0.70404-0.39225 0.70404h0.39225z"/>
<path d="m3.6696 439.49-0.060346 0.27407 0.11818-5e-3q0.21876 0 0.35453 0.1559 0.13829 0.15338 0.13829 0.37465 0 0.24641-0.15338 0.39728-0.15338 0.15086-0.40231 0.15086-0.27659 0-0.4526-0.20115l0.075433-0.22127q0.14584 0.20367 0.35705 0.20367 0.13075 0 0.22127-0.0905 0.093034-0.093 0.093034-0.24893 0-0.15841-0.095548-0.24641t-0.24139-0.088q-0.14584 0-0.23887 0.10058h-0.047774l0.15841-0.77445h0.66381v0.21876z"/>
</g>
</g>
</g>
</g>
</svg>
