<svg width="128" height="128" version="1.1" viewBox="0 0 33.867 33.867" xmlns="http://www.w3.org/2000/svg" xmlns:osb="http://www.openswatchbook.org/uri/2009/osb" xmlns:xlink="http://www.w3.org/1999/xlink">
<defs>
<linearGradient id="linearGradient2404" x1="29.203" x2="4.5843" y1="263.52" y2="296.17" gradientTransform="matrix(1.001 0 0 1.001 -.017757 -.29086)" gradientUnits="userSpaceOnUse">
<stop stop-color="#d9d9d9" offset="0"/>
<stop stop-color="#fff" offset="1"/>
</linearGradient>
</defs>
<g transform="translate(0 -263.13)">
<path d="m4.5714 264.1v32.612h24.724v-18.3c-0.04716-0.8313-0.10165-1.5753-0.3125-2.3297-0.21448-0.76736-0.55247-1.4939-0.95641-2.1892-0.51687-0.8897-1.3904-1.4633-2.1667-2.1925-0.47098-0.42711-1.4882-1.4417-2.7195-2.653-1.2212-1.2014-2.6535-2.5969-3.8492-3.6811-0.35316-0.3187-0.86616-0.64943-1.3428-0.84044-0.37009-0.14831-0.80547-0.24063-1.2258-0.30267-0.43345-0.064-0.85093-0.0958-1.1644-0.12361z" opacity=".25"/>
<path d="m4.5714 263.57v32.612h24.724v-18.3c-0.04716-0.83129-0.10165-1.5753-0.3125-2.3297-0.21448-0.76736-0.55247-1.4939-0.95641-2.1892-0.51687-0.88969-1.3904-1.4633-2.1667-2.1925-0.47098-0.42712-1.4882-1.4417-2.7195-2.653-1.2212-1.2014-2.6535-2.5969-3.8492-3.6811-0.35316-0.3187-0.86616-0.64944-1.3428-0.84044-0.37009-0.14831-0.80547-0.24063-1.2258-0.30267-0.43345-0.064-0.85093-0.0958-1.1644-0.12361z" fill="url(#linearGradient2404)" stroke="#808080" stroke-width=".3"/>
<g transform="translate(1.3948 .76676)" fill="#202b75" aria-label="@">
<path d="m17.448 277.35q0-0.55464-0.33488-0.93138-0.33488-0.37673-0.89998-0.37673-1.0884 0-1.8732 1.3604-0.78487 1.35-0.78487 2.6162 0 0.76394 0.34534 1.2349 0.35581 0.47092 0.99417 0.47092 1.1197 0 1.8314-1.6953 0.72208-1.7058 0.72208-2.679zm-3.2232 5.9127q-1.2663 0-2.1139-0.91044-0.83719-0.91045-0.83719-2.543 0-1.8942 1.2872-3.5476 1.2872-1.6535 3.1604-1.6535 1.0988 0 1.7058 0.60697 0.46046 0.47092 0.61743 1.0779l0.37674-1.3186h1.9779l-1.3395 4.5418q-0.15697 0.55464-0.23023 0.82673-0.06279 0.26162-0.06279 0.46046 0 0.31395 0.2093 0.5965 0.2093 0.27209 0.66976 0.27209 0.89998 0 1.8-1.1721 0.91045-1.1825 0.91045-3.129 0-2.8778-2.4697-4.1336-1.5488-0.79534-3.4848-0.79534-3.5581 0-5.7138 2.1767-1.9465 1.9674-1.9465 4.7197 0 3.0558 2.2814 4.8453 2.0197 1.5802 4.929 1.5802 1.9883 0 3.715-0.73254 0.94184-0.38721 1.9465-1.0988l0.25116-0.1779 0.76394 1.1721q-1.486 1.1511-3.2232 1.7581-1.7267 0.5965-3.5895 0.5965-4.3429 0-6.7289-2.7-1.9779-2.2395-1.9779-5.3057 0-3.4325 2.4697-5.8185 2.5953-2.522 6.6452-2.522 3.2964 0 5.4627 1.7267 2.2814 1.8209 2.2814 4.8348 0 2.3755-1.4442 4.0813-1.4442 1.6953-3.2965 1.6953-0.96277 0-1.486-0.54418-0.51278-0.54417-0.51278-1.1197 0-0.0733 0-0.15698 0.01046-0.0942 0.02093-0.19883-0.39767 0.75347-0.88952 1.2035-0.88952 0.80579-2.1348 0.80579z" fill="#202b75" stroke-width=".26458"/>
</g>
<path d="m19.751 265.48c0.01633 0.0263 0.56114 0.90462 0.72779 1.3989 0.45158 1.0123 0.25858 3.9724 0.25037 5.6588 0.02772-0.19401 4.6905-1.3958 7.111 0.80464-0.01547-0.0273-0.04888-0.0804-0.12512-0.18628-0.07235-0.10046-0.18275-0.24915-0.37164-0.44224-0.52811-0.60452-0.23093-0.0845-0.80541-0.682-0.49669-0.45047-1.5695-1.5205-2.868-2.798-1.2412-1.2212-2.6869-2.6295-3.919-3.7538z" opacity=".248"/>
<path d="m19.424 264.96c0.01548 0.0249 0.53209 0.85773 0.69011 1.3264 0.42821 0.95987 0.29224 3.218 0.28445 4.8171 0.42899-0.0223 5.1595-0.73701 7.3284 1.8241-0.02928-0.0506-0.10278-0.0927-0.14377-0.17312-0.50077-0.57318-1.1396-1.0337-1.7235-1.5822-0.47098-0.42712-1.4882-1.4417-2.7195-2.653-1.1769-1.1579-2.5478-2.4932-3.7162-3.5592z" fill="#fff" stroke="#808080" stroke-width=".3"/>
<g transform="matrix(.53602 0 0 .53727 -234.93 -13.785)" stroke-width="4.0845"></g>
<g transform="matrix(.53602 0 0 .53727 -234.93 -13.76)" stroke-width="4.0845"></g>
<g transform="matrix(.53602 0 0 .53727 -267.69 -57.383)" stroke-width="4.0845"></g>
<g transform="matrix(.53602 0 0 .53727 -267.69 -57.358)" stroke-width="4.0845"></g>
<g transform="matrix(.53602 0 0 .53727 -234.93 -13.785)" stroke-width="4.0845"></g>
<g transform="matrix(.53602 0 0 .53727 -234.93 -13.76)" stroke-width="4.0845"></g>
</g>
</svg>
