<svg width="128" height="128" version="1.1" viewBox="0 0 33.867 33.867" xmlns="http://www.w3.org/2000/svg" xmlns:osb="http://www.openswatchbook.org/uri/2009/osb" xmlns:xlink="http://www.w3.org/1999/xlink">
<defs>
<linearGradient id="linearGradient1503" x1="29.203" x2="4.5843" y1="263.52" y2="296.17" gradientTransform="matrix(1.001 0 0 1.001 -.017758 -.29086)" gradientUnits="userSpaceOnUse">
<stop stop-color="#d9d9d9" offset="0"/>
<stop stop-color="#fff" offset="1"/>
</linearGradient>
</defs>
<g transform="translate(0 -263.13)">
<path d="m4.5714 264.1v32.612h24.724v-18.3c-0.04716-0.8313-0.10165-1.5753-0.3125-2.3297-0.21448-0.76736-0.55247-1.4939-0.95641-2.1892-0.51687-0.8897-1.3904-1.4633-2.1667-2.1925-0.47098-0.42711-1.4882-1.4417-2.7195-2.653-1.2212-1.2014-2.6535-2.5969-3.8492-3.6811-0.35316-0.3187-0.86616-0.64943-1.3428-0.84044-0.37009-0.14831-0.80547-0.24063-1.2258-0.30267-0.43345-0.064-0.85093-0.0958-1.1644-0.12361z" opacity=".25"/>
<path d="m4.5714 263.57v32.612h24.724v-18.3c-0.04716-0.83129-0.10165-1.5753-0.3125-2.3297-0.21448-0.76736-0.55247-1.4939-0.95641-2.1892-0.51687-0.88969-1.3904-1.4633-2.1667-2.1925-0.47098-0.42712-1.4882-1.4417-2.7195-2.653-1.2212-1.2014-2.6535-2.5969-3.8492-3.6811-0.35316-0.3187-0.86616-0.64944-1.3428-0.84044-0.37009-0.14831-0.80547-0.24063-1.2258-0.30267-0.43345-0.064-0.85093-0.0958-1.1644-0.12361z" fill="url(#linearGradient1503)" stroke="#808080" stroke-width=".3"/>
<path d="m19.751 265.48c0.01633 0.0263 0.56114 0.90462 0.72779 1.3989 0.45158 1.0123 0.25858 3.9724 0.25037 5.6588 0.02772-0.19401 4.6905-1.3958 7.111 0.80464-0.01547-0.0273-0.04888-0.0804-0.12512-0.18628-0.07235-0.10046-0.18275-0.24915-0.37164-0.44224-0.52811-0.60452-0.23093-0.0845-0.80541-0.682-0.49669-0.45047-1.5695-1.5205-2.868-2.798-1.2412-1.2212-2.6869-2.6295-3.919-3.7538z" opacity=".248"/>
<path d="m19.424 264.96c0.01548 0.0249 0.53209 0.85773 0.69011 1.3264 0.42821 0.95987 0.29224 3.218 0.28445 4.8171 0.42899-0.0223 5.1595-0.73701 7.3284 1.8241-0.02928-0.0506-0.10278-0.0927-0.14377-0.17312-0.50077-0.57318-1.1396-1.0337-1.7235-1.5822-0.47098-0.42712-1.4882-1.4417-2.7195-2.653-1.1769-1.1579-2.5478-2.4932-3.7162-3.5592z" fill="#fff" stroke="#808080" stroke-width=".3"/>
<g transform="matrix(.53602 0 0 .53727 -234.93 -13.785)" stroke-width="4.0845"></g>
<g transform="matrix(.53602 0 0 .53727 -234.93 -13.76)" stroke-width="4.0845"></g>
<g transform="translate(1.1209)" stroke-width="4.0457">
<g transform="matrix(.033875 0 0 .03463 5.6337 272.04)" opacity=".25">
<path d="m141 238c18.514 0.807 38.845 12.452 54 22.344 44.528 29.067 79.993 77.323 73 132.66 6.644-10.558 7.005-25.915 7-38-0.02-38.88-21.15-78.83-48-106-8.95-9.05-18.34-19.46-30-25l132.27-154 31.73-37c2.449-2.8377 10.588-9.4499 8.824-13.671-1.64-3.935-9.22-6.395-12.82-8.017-4.07-1.8334-11.48-5.6272-15.98-3.9841-4.6 1.6755-8.51 8.0781-11.6 11.672l-24.29 28-114.41 132-33.85 39c-5.391 6.261-12.41 12.447-15.87 20z"/>
<path d="m66 283c45.491-47.531 85.688-100.6 129.16-150l55-64c12.61-14.331 27.71-28.81 37.84-45-6.59-1.948-21.71-3.132-28 0.028-6.72 3.374-12.39 12.392-17.28 17.972l-31.291 35c-4.612 5.3198-10.069 13.749-16.425 16.973-9.153 4.6431-25.879 2.7931-35.999 3.0416l-37 2.8959c-27.603 1.929-59.063 1.989-72.687 31.089-10.927 23.337-9.2531 56.661-10.363 82-2.3249 53.095-4.1748 106.99 0.8696 160 2.1611 22.708-0.3947 51.687 11.402 72 11.525 19.844 33.79 24.124 54.768 26.075 40.603 3.775 89.231 2.673 122-25.375 38.892-33.29 33.398-92.806-2-125.61-38.72-35.88-109.61-54.11-160-37.09z"/>
<path d="m203 476c7.355 3.086 19.953 2 28 2l51 1c64.687 0 128.55-4.035 193-6.961 30.612-1.389 65.241-2.494 77.934-36.039 8.056-21.288 6.617-48.539 8.155-71 3.554-51.884 5.016-105.15 0.081-157-2.312-24.294 0.591-54.495-10.06-77-16.48-34.847-66.34-32.199-99.1-33.015-8.109-0.2019-23.216-4.892-30.606-1.382-5.623 2.6707-9.033 16.969-11.652 22.397l-29.051 63c-34.22 74.54-66.29 150.89-103.45 224-14.41 28.35-40.43 64.18-74.24 70z"/>
</g>
<g transform="matrix(.033875 0 0 .03463 5.6337 271.51)" fill="#d41a1a">
<path d="m141 238c18.514 0.807 38.845 12.452 54 22.344 44.528 29.067 79.993 77.323 73 132.66 6.644-10.558 7.005-25.915 7-38-0.02-38.88-21.15-78.83-48-106-8.95-9.05-18.34-19.46-30-25l132.27-154 31.73-37c2.449-2.8377 10.588-9.4499 8.824-13.671-1.64-3.935-9.22-6.395-12.82-8.017-4.07-1.8334-11.48-5.6272-15.98-3.9841-4.6 1.6755-8.51 8.0781-11.6 11.672l-24.29 28-114.41 132-33.85 39c-5.391 6.261-12.41 12.447-15.87 20z"/>
<path d="m66 283c45.491-47.531 85.688-100.6 129.16-150l55-64c12.61-14.331 27.71-28.81 37.84-45-6.59-1.948-21.71-3.132-28 0.028-6.72 3.374-12.39 12.392-17.28 17.972l-31.291 35c-4.612 5.3198-10.069 13.749-16.425 16.973-9.153 4.6431-25.879 2.7931-35.999 3.0416l-37 2.8959c-27.603 1.929-59.063 1.989-72.687 31.089-10.927 23.337-9.2531 56.661-10.363 82-2.3249 53.095-4.1748 106.99 0.8696 160 2.1611 22.708-0.3947 51.687 11.402 72 11.525 19.844 33.79 24.124 54.768 26.075 40.603 3.775 89.231 2.673 122-25.375 38.892-33.29 33.398-92.806-2-125.61-38.72-35.88-109.61-54.11-160-37.09z"/>
<path d="m203 476c7.355 3.086 19.953 2 28 2l51 1c64.687 0 128.55-4.035 193-6.961 30.612-1.389 65.241-2.494 77.934-36.039 8.056-21.288 6.617-48.539 8.155-71 3.554-51.884 5.016-105.15 0.081-157-2.312-24.294 0.591-54.495-10.06-77-16.48-34.847-66.34-32.199-99.1-33.015-8.109-0.2019-23.216-4.892-30.606-1.382-5.623 2.6707-9.033 16.969-11.652 22.397l-29.051 63c-34.22 74.54-66.29 150.89-103.45 224-14.41 28.35-40.43 64.18-74.24 70z"/>
</g>
</g>
</g>
</svg>
