<svg width="128" height="128" version="1.1" viewBox="0 0 33.867 33.867" xmlns="http://www.w3.org/2000/svg" xmlns:osb="http://www.openswatchbook.org/uri/2009/osb" xmlns:xlink="http://www.w3.org/1999/xlink">
<defs>
<linearGradient id="linearGradient1503-8" x1="29.203" x2="4.5843" y1="263.52" y2="296.17" gradientTransform="matrix(1.001 0 0 1.001 -.017758 -.29086)" gradientUnits="userSpaceOnUse">
<stop stop-color="#d9d9d9" offset="0"/>
<stop stop-color="#fff" offset="1"/>
</linearGradient>
<linearGradient id="linearGradient4574">
<stop stop-color="#fe5d6a" offset="0"/>
<stop stop-color="#46a2fb" offset="1"/>
</linearGradient>
<linearGradient id="linearGradient4568" x1="66.164" x2="92.102" y1="213.13" y2="249.98" gradientTransform="matrix(.18187 0 0 .17907 4.2032 237.23)" gradientUnits="userSpaceOnUse" xlink:href="#linearGradient4574"/>
<linearGradient id="linearGradient3548" x1="66.086" x2="73.504" y1="62.202" y2="82.709" gradientTransform="matrix(.59056 0 0 .59056 -22.574 235.54)" gradientUnits="userSpaceOnUse" xlink:href="#linearGradient4574"/>
<linearGradient id="linearGradient3582" x1="60.893" x2="72.6" y1="64.131" y2="83.408" gradientTransform="matrix(.59056 0 0 .59056 -22.736 235.63)" gradientUnits="userSpaceOnUse">
<stop stop-color="#fbf9f9" offset="0"/>
<stop stop-color="#dee6e9" offset="1"/>
</linearGradient>
</defs>
<g transform="translate(0 -263.13)">
<path d="m4.5714 264.1v32.612h24.724v-18.3c-0.04716-0.8313-0.10165-1.5753-0.3125-2.3297-0.21448-0.76736-0.55247-1.4939-0.95641-2.1892-0.51687-0.8897-1.3904-1.4633-2.1667-2.1925-0.47098-0.42711-1.4882-1.4417-2.7195-2.653-1.2212-1.2014-2.6535-2.5969-3.8492-3.6811-0.35316-0.3187-0.86616-0.64943-1.3428-0.84044-0.37009-0.14831-0.80547-0.24063-1.2258-0.30267-0.43345-0.064-0.85093-0.0958-1.1644-0.12361z" opacity=".25"/>
<path d="m4.5714 263.57v32.612h24.724v-18.3c-0.04716-0.83129-0.10165-1.5753-0.3125-2.3297-0.21448-0.76736-0.55247-1.4939-0.95641-2.1892-0.51687-0.88969-1.3904-1.4633-2.1667-2.1925-0.47098-0.42712-1.4882-1.4417-2.7195-2.653-1.2212-1.2014-2.6535-2.5969-3.8492-3.6811-0.35316-0.3187-0.86616-0.64944-1.3428-0.84044-0.37009-0.14831-0.80547-0.24063-1.2258-0.30267-0.43345-0.064-0.85093-0.0958-1.1644-0.12361z" fill="url(#linearGradient1503-8)" stroke="#808080" stroke-width=".3"/>
<circle cx="16.933" cy="279.56" r="8.849" opacity=".25"/>
<circle cx="16.933" cy="279.03" r="8.849" fill="url(#linearGradient3548)"/>
<circle cx="16.933" cy="279.03" r="8.0608" fill="url(#linearGradient3582)"/>
<path d="m13.417 284.41s0.86201 0.0129 1.4497-0.55296c0.58773-0.56583 0.42434-1.1893 0.4419-1.8093 0.02818-0.99469-0.05922-4.8093-0.05922-4.8093s-0.0035-0.37657 0.37982-0.45303c0.45569-0.0921 4.4487-0.86276 4.4487-0.86276s0.27428-0.0643 0.27428 0.1929c0 0.25719 0.07728 3.5454-0.02612 4.0508-0.03439 0.16809-0.2473 0.27442-0.41794 0.30863-0.53407 0.1071-1.1189 0.0954-1.6979 0.51439-0.77738 0.65345-0.46541 1.8048 0.34059 2.2146 0.98582 0.36476 2.2557-0.14747 2.4022-1.2116 0.06531-0.32149 0.12046-5.6862 0.03919-8.4874-4e-3 -0.13664-0.09143-0.29577-0.31346-0.27005-0.22203 0.0257-5.6684 1.1059-5.6684 1.1059s-0.32652 0.09-0.35264 0.38579c-0.02612 0.29577-0.06843 6.4861-0.06843 6.4861s0.02925 0.3166-0.38869 0.39376c-0.41794 0.0772-1.1629 0.0915-1.6979 0.52725-1.0103 0.95904-0.3505 2.3058 0.91425 2.2762z" fill="url(#linearGradient4568)"/>
<path d="m19.751 265.48c0.01633 0.0263 0.56114 0.90462 0.72779 1.3989 0.45158 1.0123 0.25858 3.9724 0.25037 5.6588 0.02772-0.19401 4.6905-1.3958 7.111 0.80464-0.01547-0.0273-0.04888-0.0804-0.12512-0.18628-0.07235-0.10046-0.18275-0.24915-0.37164-0.44224-0.52811-0.60452-0.23093-0.0845-0.80541-0.682-0.49669-0.45047-1.5695-1.5205-2.868-2.798-1.2412-1.2212-2.6869-2.6295-3.919-3.7538z" opacity=".248"/>
<path d="m19.424 264.96c0.01548 0.0249 0.53209 0.85773 0.69011 1.3264 0.42821 0.95987 0.29224 3.218 0.28445 4.8171 0.42899-0.0223 5.1595-0.73701 7.3284 1.8241-0.02928-0.0506-0.10278-0.0927-0.14377-0.17312-0.50077-0.57318-1.1396-1.0337-1.7235-1.5822-0.47098-0.42712-1.4882-1.4417-2.7195-2.653-1.1769-1.1579-2.5478-2.4932-3.7162-3.5592z" fill="#fff" stroke="#808080" stroke-width=".3"/>
<g transform="matrix(.53602 0 0 .53727 -234.93 -13.785)" stroke-width="4.0845"></g>
<g transform="matrix(.53602 0 0 .53727 -234.93 -13.76)" stroke-width="4.0845"></g>
<g transform="translate(-.38093)" fill="#575757" stroke-width=".26458" aria-label="WMA">
<path d="m12.004 290.71 0.47026 2.0354 0.10128 0.56672 0.1037-0.55466 0.40032-2.0474h0.78376l0.42202 2.0354 0.10852 0.56672 0.10852-0.54501 0.47508-2.0571h0.75482l-1.0008 3.5546h-0.709l-0.42926-2.0788-0.1254-0.6873-0.1254 0.6873-0.42926 2.0788h-0.68971l-1.008-3.5546z"/>
<path d="m18.535 290.71h1.0683v3.5546h-0.69212v-2.4043q0-0.1037 0.0024-0.28939 0.0024-0.1881 0.0024-0.28939l-0.67283 2.9831h-0.72106l-0.668-2.9831q0 0.10129 0.0024 0.28939 0.0024 0.18569 0.0024 0.28939v2.4043h-0.69212v-3.5546h1.0804l0.6463 2.795z"/>
<path d="m21.269 292.92h0.90193l-0.44373-1.3987zm0.04582-2.2114h0.83922l1.2588 3.5546h-0.80546l-0.2291-0.7307h-1.3095l-0.24598 0.7307h-0.77652z"/>
</g>
</g>
</svg>
