<svg width="128" height="128" version="1.1" viewBox="0 0 33.867 33.867" xmlns="http://www.w3.org/2000/svg" xmlns:osb="http://www.openswatchbook.org/uri/2009/osb" xmlns:xlink="http://www.w3.org/1999/xlink">
<defs>
<linearGradient id="linearGradient1503" x1="29.203" x2="4.5843" y1="263.52" y2="296.17" gradientTransform="matrix(1.001 0 0 1.001 -.017758 -.29086)" gradientUnits="userSpaceOnUse">
<stop stop-color="#d9d9d9" offset="0"/>
<stop stop-color="#fff" offset="1"/>
</linearGradient>
</defs>
<g transform="translate(0 -263.13)">
<path d="m4.5714 264.1v32.612h24.724v-18.3c-0.04716-0.8313-0.10165-1.5753-0.3125-2.3297-0.21448-0.76736-0.55247-1.4939-0.95641-2.1892-0.51687-0.8897-1.3904-1.4633-2.1667-2.1925-0.47098-0.42711-1.4882-1.4417-2.7195-2.653-1.2212-1.2014-2.6535-2.5969-3.8492-3.6811-0.35316-0.3187-0.86616-0.64943-1.3428-0.84044-0.37009-0.14831-0.80547-0.24063-1.2258-0.30267-0.43345-0.064-0.85093-0.0958-1.1644-0.12361z" opacity=".25"/>
<path d="m4.5714 263.57v32.612h24.724v-18.3c-0.04716-0.83129-0.10165-1.5753-0.3125-2.3297-0.21448-0.76736-0.55247-1.4939-0.95641-2.1892-0.51687-0.88969-1.3904-1.4633-2.1667-2.1925-0.47098-0.42712-1.4882-1.4417-2.7195-2.653-1.2212-1.2014-2.6535-2.5969-3.8492-3.6811-0.35316-0.3187-0.86616-0.64944-1.3428-0.84044-0.37009-0.14831-0.80547-0.24063-1.2258-0.30267-0.43345-0.064-0.85093-0.0958-1.1644-0.12361z" fill="url(#linearGradient1503)" stroke="#808080" stroke-width=".3"/>
<path d="m19.751 265.48c0.01633 0.0263 0.56114 0.90462 0.72779 1.3989 0.45158 1.0123 0.25858 3.9724 0.25037 5.6588 0.02772-0.19401 4.6905-1.3958 7.111 0.80464-0.01547-0.0273-0.04888-0.0804-0.12512-0.18628-0.07235-0.10046-0.18275-0.24915-0.37164-0.44224-0.52811-0.60452-0.23093-0.0845-0.80541-0.682-0.49669-0.45047-1.5695-1.5205-2.868-2.798-1.2412-1.2212-2.6869-2.6295-3.919-3.7538z" opacity=".248"/>
<path d="m19.424 264.96c0.01548 0.0249 0.53209 0.85773 0.69011 1.3264 0.42821 0.95987 0.29224 3.218 0.28445 4.8171 0.42899-0.0223 5.1595-0.73701 7.3284 1.8241-0.02928-0.0506-0.10278-0.0927-0.14377-0.17312-0.50077-0.57318-1.1396-1.0337-1.7235-1.5822-0.47098-0.42712-1.4882-1.4417-2.7195-2.653-1.1769-1.1579-2.5478-2.4932-3.7162-3.5592z" fill="#fff" stroke="#808080" stroke-width=".3"/>
<g transform="matrix(.53602 0 0 .53727 -234.93 -13.785)" stroke-width="4.0845"></g>
<g transform="matrix(.53602 0 0 .53727 -234.93 -13.76)" stroke-width="4.0845"></g>
<g transform="translate(.18902)" stroke="#4d4d4d" stroke-width=".1">
<path d="m12.581 286.91c-0.02104-0.0154-0.02071-0.0498 0.0023-0.23224 0.0334-0.2654 0.07354-0.71044 0.09906-1.0984 0.05235-0.79582 0.05676-0.82128 0.1783-1.0293 0.08884-0.15207 0.32091-0.37624 0.54347-0.52497 0.23552-0.15739 0.72978-0.40318 1.1309-0.5624 0.16442-0.0652 0.63994-0.24183 1.0567-0.39239 1.2153-0.439 1.5503-0.57434 1.7493-0.70668 0.21241-0.14126 0.34993-0.30603 0.54097-0.64814 0.13127-0.23508 0.1759-0.27599 0.39584-0.36279 0.15991-0.0631 0.1819-0.0896 0.19077-0.22971 0.011-0.1734-0.01602-0.23315-0.12979-0.28729-0.23844-0.11346-0.35039-0.36056-0.44476-0.98168-0.06915-0.45511-0.06063-0.42795-0.13629-0.43436-0.14639-0.0124-0.24311-0.2-0.37692-0.73112-0.13026-0.51706-0.20009-0.98742-0.17043-1.1481 0.01941-0.10518 0.07868-0.17865 0.14412-0.17865 0.0193 0 0.03989-0.0126 0.04575-0.028 0.0059-0.0154-0.02248-0.25052-0.06301-0.52254-0.08974-0.6024-0.13702-1.0207-0.1528-1.3521-0.02118-0.44458 0.04044-0.88188 0.16297-1.1565 0.06634-0.14869 0.23126-0.36969 0.341-0.45695 0.14476-0.1151 0.3523-0.19901 0.49349-0.19955 0.04878-1.2e-4 0.06556-0.014 0.12432-0.10249 0.30876-0.46488 1.3671-0.74612 2.1725-0.57729 0.7243 0.15183 1.3804 0.5191 1.7719 0.99195 0.42286 0.51068 0.59388 1.0706 0.59751 1.9564 0.0013 0.33255-0.0065 0.45155-0.05874 0.88693-0.03317 0.27656-0.05569 0.51497-0.05004 0.52978 0.0056 0.0148 0.03379 0.0321 0.06253 0.0385 0.13142 0.029 0.18362 0.19063 0.14948 0.46264-0.02181 0.17367-0.17237 0.8853-0.23653 1.1179-0.04668 0.16927-0.12521 0.32596-0.18858 0.37625-0.03875 0.0307-0.06573 0.0375-0.12427 0.0309-0.0545-6e-3 -0.08176-7.4e-4 -0.10053 0.0206-0.0391 0.044-0.07593 0.19304-0.13521 0.54706-0.11159 0.66639-0.15792 0.77372-0.43326 1.0035-0.04268 0.0356-0.04655 0.05-0.04655 0.17333 0 0.17372 0.01944 0.21402 0.1244 0.25789 0.11014 0.046 0.20392 0.13291 0.37968 0.3517 0.26359 0.32813 0.53463 0.5629 0.85284 0.73872 0.19305 0.10668 0.81191 0.37979 1.1455 0.50555 0.13152 0.0496 0.48742 0.17673 0.79087 0.28256 0.75144 0.26207 0.9508 0.3396 1.2677 0.49299 0.46781 0.22645 0.75735 0.44411 0.92383 0.69447 0.14632 0.22004 0.15861 0.27655 0.2081 0.95684 0.05211 0.71619 0.09103 1.1733 0.11617 1.3646 0.01153 0.0875 0.01222 0.14718 2e-3 0.15757-0.02386 0.024-14.884 0.029-14.916 5e-3z" fill="#808080"/>
<path d="m5.999 286.91c-0.02105-0.0154-0.02071-0.0498 0.0023-0.23224 0.0334-0.2654 0.07354-0.71044 0.09906-1.0984 0.05236-0.79582 0.05676-0.82128 0.1783-1.0293 0.08884-0.15207 0.32091-0.37624 0.54347-0.52497 0.23552-0.15739 0.72978-0.40318 1.1309-0.5624 0.16442-0.0652 0.63994-0.24183 1.0567-0.39239 1.2153-0.439 1.5503-0.57434 1.7493-0.70668 0.21241-0.14126 0.34993-0.30603 0.54097-0.64814 0.13126-0.23508 0.1759-0.27599 0.39584-0.36279 0.15991-0.0631 0.1819-0.0896 0.19077-0.22971 0.011-0.1734-0.01602-0.23315-0.12979-0.28729-0.23844-0.11346-0.35039-0.36056-0.44476-0.98168-0.06915-0.45511-0.06063-0.42795-0.13629-0.43436-0.14639-0.0124-0.24311-0.2-0.37692-0.73112-0.13026-0.51706-0.20009-0.98742-0.17043-1.1481 0.01941-0.10518 0.07868-0.17865 0.14412-0.17865 0.0193 0 0.03989-0.0126 0.04575-0.028 0.0059-0.0154-0.02248-0.25052-0.06301-0.52254-0.08974-0.6024-0.13702-1.0207-0.1528-1.3521-0.02118-0.44458 0.04044-0.88188 0.16297-1.1565 0.06634-0.14869 0.23126-0.36969 0.341-0.45695 0.14476-0.1151 0.3523-0.19901 0.49349-0.19955 0.04878-1.2e-4 0.06556-0.014 0.12432-0.10249 0.30876-0.46488 1.3671-0.74612 2.1725-0.57729 0.7243 0.15183 1.3804 0.5191 1.7719 0.99195 0.42286 0.51068 0.59388 1.0706 0.59751 1.9564 0.0013 0.33255-0.0065 0.45155-0.05874 0.88693-0.03317 0.27656-0.05569 0.51497-0.05004 0.52978 0.0056 0.0148 0.03379 0.0321 0.06252 0.0385 0.13142 0.029 0.18362 0.19063 0.14948 0.46264-0.02181 0.17367-0.17237 0.8853-0.23653 1.1179-0.04668 0.16927-0.12521 0.32596-0.18858 0.37625-0.03875 0.0307-0.06573 0.0375-0.12427 0.0309-0.05449-6e-3 -0.08176-7.4e-4 -0.10053 0.0206-0.0391 0.044-0.07593 0.19304-0.13521 0.54706-0.11159 0.66639-0.15792 0.77372-0.43326 1.0035-0.04268 0.0356-0.04655 0.05-0.04655 0.17333 0 0.17372 0.01944 0.21402 0.1244 0.25789 0.11014 0.046 0.20392 0.13291 0.37968 0.3517 0.26359 0.32813 0.53463 0.5629 0.85284 0.73872 0.19305 0.10668 0.81191 0.37979 1.1455 0.50555 0.13152 0.0496 0.48742 0.17673 0.79087 0.28256 0.75144 0.26207 0.9508 0.3396 1.2677 0.49299 0.46781 0.22645 0.75735 0.44411 0.92383 0.69447 0.14632 0.22004 0.15861 0.27655 0.2081 0.95684 0.05211 0.71619 0.09103 1.1733 0.11617 1.3646 0.01152 0.0875 0.01222 0.14718 2e-3 0.15757-0.02385 0.024-14.884 0.029-14.916 5e-3z" fill="#5e5e5e"/>
</g>
</g>
</svg>
