<svg width="128" height="128" version="1.1" viewBox="0 0 33.867 33.867" xmlns="http://www.w3.org/2000/svg" xmlns:osb="http://www.openswatchbook.org/uri/2009/osb" xmlns:xlink="http://www.w3.org/1999/xlink">
<defs>
<linearGradient id="linearGradient2404" x1="29.203" x2="4.5843" y1="263.52" y2="296.17" gradientTransform="matrix(1.001 0 0 1.001 -.017757 -.29086)" gradientUnits="userSpaceOnUse">
<stop stop-color="#d9d9d9" offset="0"/>
<stop stop-color="#fff" offset="1"/>
</linearGradient>
<linearGradient id="linearGradient4523" x1="66.19" x2="76.203" y1="262.02" y2="195.26" gradientTransform="matrix(.24645 0 0 .2479 .24016 223.32)" gradientUnits="userSpaceOnUse">
<stop stop-color="#7a756e" offset="0"/>
<stop stop-color="#adb3ad" offset="1"/>
</linearGradient>
</defs>
<g transform="translate(0 -263.13)">
<path d="m4.5714 264.1v32.612h24.724v-18.3c-0.04716-0.8313-0.10165-1.5753-0.3125-2.3297-0.21448-0.76736-0.55247-1.4939-0.95641-2.1892-0.51687-0.8897-1.3904-1.4633-2.1667-2.1925-0.47098-0.42711-1.4882-1.4417-2.7195-2.653-1.2212-1.2014-2.6535-2.5969-3.8492-3.6811-0.35316-0.3187-0.86616-0.64943-1.3428-0.84044-0.37009-0.14831-0.80547-0.24063-1.2258-0.30267-0.43345-0.064-0.85093-0.0958-1.1644-0.12361z" opacity=".25"/>
<path d="m4.5714 263.57v32.612h24.724v-18.3c-0.04716-0.83129-0.10165-1.5753-0.3125-2.3297-0.21448-0.76736-0.55247-1.4939-0.95641-2.1892-0.51687-0.88969-1.3904-1.4633-2.1667-2.1925-0.47098-0.42712-1.4882-1.4417-2.7195-2.653-1.2212-1.2014-2.6535-2.5969-3.8492-3.6811-0.35316-0.3187-0.86616-0.64944-1.3428-0.84044-0.37009-0.14831-0.80547-0.24063-1.2258-0.30267-0.43345-0.064-0.85093-0.0958-1.1644-0.12361z" fill="url(#linearGradient2404)" stroke="#808080" stroke-width=".3"/>
<path d="m19.751 265.48c0.01633 0.0263 0.56114 0.90462 0.72779 1.3989 0.45158 1.0123 0.25858 3.9724 0.25037 5.6588 0.02772-0.19401 4.6905-1.3958 7.111 0.80464-0.01547-0.0273-0.04888-0.0804-0.12512-0.18628-0.07235-0.10046-0.18275-0.24915-0.37164-0.44224-0.52811-0.60452-0.23093-0.0845-0.80541-0.682-0.49669-0.45047-1.5695-1.5205-2.868-2.798-1.2412-1.2212-2.6869-2.6295-3.919-3.7538z" opacity=".248"/>
<path d="m19.424 264.96c0.01548 0.0249 0.53209 0.85773 0.69011 1.3264 0.42821 0.95987 0.29224 3.218 0.28445 4.8171 0.42899-0.0223 5.1595-0.73701 7.3284 1.8241-0.02928-0.0506-0.10278-0.0927-0.14377-0.17312-0.50077-0.57318-1.1396-1.0337-1.7235-1.5822-0.47098-0.42712-1.4882-1.4417-2.7195-2.653-1.1769-1.1579-2.5478-2.4932-3.7162-3.5592z" fill="#fff" stroke="#808080" stroke-width=".3"/>
<g transform="matrix(.53602 0 0 .53727 -234.93 -13.785)" stroke-width="4.0845"></g>
<g transform="matrix(.53602 0 0 .53727 -234.93 -13.76)" stroke-width="4.0845"></g>
<g transform="matrix(.53602 0 0 .53727 -267.69 -57.383)" stroke-width="4.0845"></g>
<g transform="matrix(.53602 0 0 .53727 -267.69 -57.358)" stroke-width="4.0845"></g>
<g transform="matrix(.53602 0 0 .53727 -234.93 -13.785)" stroke-width="4.0845"></g>
<g transform="matrix(.53602 0 0 .53727 -234.93 -13.76)" stroke-width="4.0845"></g>
<path d="m16.926 271.56c-0.38794 0-0.3785-0.0126-0.50717 0.67838-0.04756 0.25545-0.09745 0.47553-0.1108 0.48897-0.04676 0.047-0.61372 0.11949-0.70555 0.0902-0.05951-0.019-0.17686-0.20681-0.32777-0.52467-0.26509-0.55835-0.27116-0.56177-0.72848-0.40814-0.22663 0.0761-0.23677 0.0872-0.25017 0.26994-0.0077 0.1048 0.0055 0.35076 0.02936 0.54664 0.02388 0.19588 0.02651 0.38913 0.0058 0.42942-0.04664 0.0909-0.63438 0.33873-0.71702 0.30235-0.03325-0.0147-0.20652-0.20841-0.38509-0.43061-0.29272-0.36421-0.33701-0.40095-0.44905-0.37324-0.17616 0.0436-0.52675 0.25626-0.55818 0.33864-0.01459 0.0381 0.05048 0.27426 0.14461 0.52467s0.1712 0.49501 0.1712 0.54346c0 0.0988-0.45993 0.47137-0.5819 0.47137-0.04239 0-0.27144-0.12827-0.50895-0.28515-0.2375-0.15687-0.45538-0.28525-0.48414-0.28525-0.07102 0-0.5045 0.4338-0.5045 0.50488 0 0.0312 0.13804 0.26444 0.30672 0.51821 0.346 0.52061 0.34591 0.48806-4.93e-4 0.90089-0.18114 0.2158-0.16041 0.21705-0.88901-0.0521l-0.37017-0.13681-0.11436 0.14267c-0.0629 0.0784-0.15043 0.23705-0.19453 0.35247l-0.080162 0.20979 0.2564 0.21804c0.14103 0.11989 0.33847 0.2934 0.43877 0.38557l0.18237 0.16763-0.12633 0.31726c-0.069441 0.17449-0.15102 0.33688-0.18128 0.36101-0.033727 0.0269-0.26302 0.0246-0.59267-6e-3 -0.62149-0.058-0.6109-0.0635-0.71375 0.36778-0.079376 0.33282-0.06705 0.34827 0.49728 0.61892 0.27769 0.13318 0.44941 0.24475 0.46813 0.30404 0.038664 0.12253-0.051319 0.68068-0.11624 0.72104-0.027701 0.0172-0.26743 0.0692-0.53287 0.11562-0.26543 0.0464-0.50918 0.10608-0.54166 0.13264-0.079686 0.0651-0.079686 0.6737 0 0.73883 0.032485 0.0266 0.27623 0.0861 0.54166 0.13253 0.26544 0.0464 0.50517 0.0985 0.53287 0.11574 0.064921 0.0403 0.1549 0.5985 0.11624 0.72103-0.018706 0.0593-0.19043 0.17086-0.46813 0.30404-0.56224 0.26965-0.57921 0.29017-0.50025 0.60629 0.097596 0.39073 0.11785 0.41328 0.36997 0.41153 0.12255-7.5e-4 0.37168-0.0211 0.55363-0.0449 0.24376-0.0319 0.34599-0.0283 0.38846 0.0137 0.1114 0.11021 0.29007 0.62214 0.24602 0.70492-0.022994 0.0433-0.21391 0.22304-0.42424 0.39949-0.34113 0.28622-0.37917 0.33421-0.35218 0.44463 0.043051 0.17617 0.25482 0.52886 0.33646 0.56037 0.037927 0.0147 0.27265-0.0509 0.5216-0.14556 0.24895-0.0947 0.49192-0.17211 0.54008-0.17211 0.09825 0 0.46882 0.46264 0.46882 0.58532 0 0.0426-0.12763 0.27293-0.28359 0.51184-0.15596 0.23891-0.28358 0.45806-0.28358 0.48698 0 0.0722 0.43166 0.50747 0.50321 0.50747 0.03177 0 0.24851-0.12837 0.48167-0.28525 0.23316-0.15687 0.46121-0.28525 0.50678-0.28525 0.12124 0 0.58773 0.37763 0.58773 0.47575 0 0.0461-0.07688 0.28867-0.171 0.53908-0.09413 0.25041-0.15936 0.48652-0.14481 0.52467 0.03143 0.0824 0.38221 0.29517 0.55838 0.33874 0.11204 0.0277 0.15622-9e-3 0.44895-0.37324 0.17858-0.22219 0.34958-0.41514 0.38015-0.42872 0.08028-0.0357 0.67672 0.21226 0.72097 0.29977 0.0206 0.0406 0.02033 0.22363-7.4e-4 0.40664-0.02102 0.18303-0.03926 0.42475-0.04072 0.5372-0.0022 0.18984 0.0095 0.20949 0.16398 0.27441 0.09151 0.0385 0.25971 0.0828 0.37383 0.0985l0.20747 0.0285 0.23792-0.50091c0.15298-0.32221 0.27082-0.5115 0.33043-0.53053 0.09183-0.0293 0.6589 0.0432 0.70565 0.0902 0.01338 0.0135 0.06324 0.23342 0.11081 0.48887 0.04755 0.25535 0.10777 0.51253 0.13383 0.5715 0.04248 0.0959 0.08096 0.10698 0.37343 0.10698 0.21042 0 0.34418-0.0221 0.37719-0.062 0.02814-0.0341 0.08682-0.27836 0.13048-0.54276 0.04366-0.2644 0.09394-0.50447 0.11179-0.53352 0.04137-0.0673 0.59457-0.15853 0.71958-0.11861 0.059 0.0188 0.15812 0.1669 0.26372 0.39392 0.09305 0.20007 0.21101 0.42487 0.26213 0.49951 0.08368 0.12218 0.11168 0.13266 0.27993 0.10559 0.10281-0.0165 0.2593-0.0604 0.34773-0.0975 0.15162-0.0637 0.1607-0.0807 0.15924-0.29589-7.88e-4 -0.12553-0.02089-0.37794-0.04458-0.56096-0.03169-0.24477-0.0282-0.34743 0.01334-0.38825 0.08751-0.0861 0.64497-0.29938 0.70862-0.27114 0.03122 0.0139 0.20136 0.20529 0.37828 0.42544 0.17691 0.22015 0.35787 0.40012 0.4019 0.39979 0.09434-4.9e-4 0.55415-0.25809 0.60315-0.33784 0.01863-0.0303-0.04882-0.30037-0.15005-0.60014l-0.18415-0.54504 0.25719-0.23276c0.14142-0.12802 0.28069-0.23276 0.30948-0.23276 0.0288 0 0.26051 0.13907 0.51498 0.30902 0.25446 0.16995 0.4911 0.30901 0.52575 0.30901 0.0814 0 0.4958-0.416 0.4958-0.49772 0-0.0343-0.12763-0.25782-0.28358-0.49673-0.15596-0.23891-0.28368-0.46924-0.28368-0.51184 0-0.11754 0.3781-0.58542 0.47307-0.58542 0.04584 0 0.28709 0.0775 0.53603 0.17221 0.24895 0.0947 0.4842 0.15989 0.52288 0.14496 0.08386-0.0324 0.3573-0.49782 0.35811-0.60918 3.7e-4 -0.0429-0.18036-0.23113-0.40131-0.41828-0.46072-0.39025-0.47481-0.43535-0.26896-0.85844 0.10641-0.21868 0.14652-0.26038 0.24533-0.25453 0.06498 4e-3 0.32547 0.0227 0.57883 0.0419l0.46061 0.0347 0.07206-0.1734c0.03963-0.0954 0.08494-0.26769 0.10062-0.38289l0.02856-0.20948-0.49867-0.24022c-0.31514-0.15175-0.50937-0.27378-0.52763-0.33168-0.03885-0.12309 0.05314-0.67933 0.11911-0.72034 0.02888-0.0179 0.26755-0.0685 0.5304-0.11244 0.26284-0.0439 0.50559-0.10295 0.53949-0.13125 0.08393-0.0701 0.08393-0.67513 0-0.74519-0.0339-0.0283-0.27665-0.0874-0.53949-0.13134-0.26285-0.0439-0.50152-0.0945-0.5304-0.11245-0.06642-0.0413-0.15775-0.59758-0.11851-0.72193 0.01893-0.06 0.2071-0.1786 0.52743-0.33248l0.49808-0.23921-0.02847-0.2088c-0.01563-0.11479-0.05972-0.28398-0.09796-0.37603-0.066-0.15889-0.081-0.16721-0.29643-0.16573-0.12479 7.4e-4 -0.37573 0.021-0.55768 0.0448-0.38776 0.0508-0.39153 0.0484-0.55857-0.35505-0.08019-0.19366-0.1045-0.30985-0.07601-0.3634 0.02304-0.0433 0.21252-0.22191 0.42098-0.39681 0.20846-0.17489 0.37858-0.3535 0.37858-0.397-5.67e-4 -0.11214-0.27384-0.57765-0.35811-0.61018-0.03869-0.0149-0.27394 0.0503-0.52288 0.14497-0.24895 0.0947-0.49019 0.1722-0.53603 0.1722-0.09496 0-0.47307-0.46788-0.47307-0.58541 0-0.0426 0.12772-0.27304 0.28368-0.51195 0.15596-0.2389 0.28358-0.46234 0.28358-0.49663 0-0.0824-0.41485-0.49772-0.49709-0.49772-0.03527 0-0.24085 0.1194-0.45696 0.26537-0.57943 0.39136-0.51201 0.38054-0.8379 0.13412-0.16543-0.12508-0.28754-0.25381-0.28754-0.30305 0-0.0471 0.07707-0.29046 0.1712-0.54087s0.15896-0.48715 0.14412-0.52606c-0.03256-0.0853-0.49543-0.35956-0.60799-0.36022-0.04403-1.5e-4 -0.22499 0.17974-0.4019 0.39989-0.17691 0.22015-0.34653 0.41136-0.37709 0.42495-0.08027 0.0357-0.67663-0.21225-0.72097-0.29977-0.02054-0.0406-0.02084-0.20215-7.89e-4 -0.35903 0.02022-0.15687 0.03843-0.39869 0.04063-0.53729 0.0038-0.24308-0.0016-0.25437-0.15667-0.31955-0.08844-0.0372-0.24494-0.0811-0.34774-0.0976-0.16826-0.0271-0.19615-0.0165-0.27983 0.10569-0.05112 0.0747-0.16907 0.29934-0.26213 0.49941-0.1056 0.22702-0.20481 0.3752-0.26381 0.39403-0.12502 0.0399-0.67811-0.0513-0.71949-0.11862-0.01787-0.0291-0.06824-0.26922-0.11189-0.53362-0.04366-0.26439-0.10244-0.50855-0.13057-0.54266-0.03301-0.04-0.16673-0.062-0.37709-0.062zm-0.23752 2.6612c0.13031 4.9e-4 0.26385 8e-3 0.39913 0.02 0.13528 0.0125 0.27226 0.0304 0.40951 0.0529 0.27449 0.0449 0.54997 0.10781 0.81428 0.18105 0.2643 0.0732 0.5175 0.15675 0.74756 0.2429 0.23006 0.0861 0.43694 0.17489 0.60868 0.2585 0.114 0.0555 0.22641 0.11665 0.33686 0.18265 0.11046 0.066 0.21901 0.1368 0.3253 0.21187 0.10628 0.0751 0.21025 0.15431 0.31175 0.23703 0.1015 0.0827 0.20054 0.16895 0.29663 0.25791 0.19219 0.17791 0.37292 0.36691 0.53979 0.56126 0.16687 0.19435 0.31986 0.39403 0.45646 0.59347 0.1366 0.19943 0.25683 0.39859 0.35822 0.59178 0.10139 0.19318 0.1839 0.3804 0.24513 0.55598 0.03061 0.0878 0.05587 0.17267 0.07552 0.25394 0.01965 0.0813 0.03375 0.15894 0.04181 0.23225 0.0081 0.0733 0.01018 0.14226 6e-3 0.20621-0.0041 0.064-0.01458 0.12291-0.03153 0.17608-0.01919 0.0602-0.04396 0.11482-0.07324 0.16445-0.02929 0.0496-0.06309 0.0942-0.10033 0.13422-0.03724 0.04-0.07792 0.0754-0.12098 0.10669-0.04306 0.0313-0.08848 0.0584-0.13522 0.0819-0.09349 0.047-0.19225 0.0793-0.28764 0.10052-0.09538 0.0212-0.1874 0.0314-0.26757 0.0342-0.40502 0.0141-0.75853 7e-3 -1.2578-5e-3 -0.49926-0.0125-1.1443-0.0306-2.1323-0.0389v-1e-4c-0.01471 1e-3 -0.07798 6e-3 -0.17278-4e-3 -0.04739-5e-3 -0.10264-0.0127-0.16368-0.0262-0.06105-0.0135-0.12784-0.0323-0.19828-0.0586-0.07045-0.0263-0.14454-0.0599-0.22013-0.1031-0.07559-0.0432-0.15273-0.0958-0.22922-0.15988-0.07648-0.0641-0.15233-0.13969-0.22546-0.22878-0.07313-0.0891-0.14353-0.19168-0.20906-0.3098-0.32489-0.58568-0.60772-1.0724-0.87566-1.5517-0.13396-0.23965-0.26415-0.47736-0.39409-0.72471-0.12994-0.24736-0.2596-0.50435-0.39231-0.78228-0.0424-0.0888-0.08278-0.19228-0.10576-0.30305-0.01151-0.0554-0.01856-0.11265-0.01947-0.17071-7.4e-4 -0.0581 0.0045-0.117 0.01799-0.17589 0.01356-0.0589 0.03523-0.11774 0.06702-0.17559 0.03179-0.0578 0.07363-0.11469 0.1275-0.16961 0.05387-0.0549 0.11978-0.10795 0.19957-0.15809 0.07979-0.0501 0.17346-0.0974 0.28299-0.14088 0.06823-0.0271 0.13968-0.0501 0.2139-0.0695 0.07422-0.0194 0.15119-0.035 0.23051-0.0472 0.15864-0.0244 0.32661-0.0352 0.50035-0.0344zm-3.5522 1.8436c0.04964 7.4e-4 0.09781 6e-3 0.14431 0.0162 0.04651 0.01 0.09138 0.024 0.13454 0.0416 0.0863 0.035 0.16574 0.0837 0.23742 0.13989 0.07168 0.0561 0.13556 0.11968 0.19096 0.18434 0.05541 0.0646 0.10229 0.13039 0.13977 0.19099 0.2164 0.34991 0.38898 0.66504 0.63043 1.1115 0.24145 0.44643 0.55177 1.0242 1.0435 1.8993 0.0087 0.0122 0.04415 0.0658 0.08412 0.1541 0.01996 0.0441 0.04114 0.0969 0.06059 0.1575s0.03718 0.12905 0.05051 0.20442c0.01336 0.0754 0.02221 0.15765 0.02393 0.24607 0.0015 0.0884-0.0039 0.18299-0.01947 0.28277-0.01558 0.0998-0.04118 0.20485-0.07957 0.31428-0.0384 0.10944-0.08959 0.22324-0.15637 0.34063-0.33109 0.58204-0.59982 1.077-0.86973 1.5551-0.13496 0.23905-0.27016 0.47389-0.41366 0.71328-0.14352 0.23939-0.29533 0.48333-0.46328 0.74062-0.05367 0.0822-0.12081 0.17008-0.20283 0.24628-0.04101 0.0381-0.08571 0.0733-0.13433 0.1034-0.04863 0.0301-0.10116 0.0551-0.15776 0.0729-0.0566 0.0178-0.11724 0.0285-0.18217 0.0296-0.06493 9.9e-4 -0.13416-7e-3 -0.20777-0.0269-0.07361-0.0197-0.1517-0.051-0.23436-0.096-0.08266-0.045-0.16989-0.10376-0.26194-0.17837-0.05734-0.0465-0.11291-0.0978-0.16675-0.15351-0.05384-0.0557-0.106-0.11559-0.15637-0.17937-0.10075-0.12754-0.19453-0.27021-0.28161-0.42375-0.08708-0.15353-0.1674-0.31792-0.24108-0.48887-0.07367-0.17094-0.1407-0.3485-0.20124-0.52825-0.06054-0.17975-0.11463-0.36169-0.1623-0.54167-0.04768-0.17997-0.08898-0.35794-0.12405-0.52953-0.03507-0.1716-0.06395-0.33684-0.08669-0.49147-0.02275-0.15462-0.03934-0.29865-0.05001-0.42772-0.01062-0.12852-0.01565-0.25847-0.01563-0.38915 1.7e-5 -0.13069 0.0051-0.26214 0.01493-0.39373 0.0098-0.13159 0.02433-0.26328 0.043-0.39451 0.01868-0.13124 0.04161-0.26193 0.0683-0.39154 0.05338-0.25924 0.12188-0.51401 0.20194-0.75922 0.08005-0.2452 0.17159-0.48085 0.27122-0.70194 0.09964-0.22109 0.20735-0.42765 0.31947-0.61454 0.11212-0.1869 0.22874-0.35412 0.34625-0.49674 0.05876-0.0713 0.11776-0.13653 0.17654-0.19487 0.05878-0.0583 0.11734-0.10979 0.17525-0.15391 0.05791-0.0441 0.11514-0.0808 0.1713-0.10946 0.05615-0.0286 0.11117-0.0493 0.16468-0.0611 0.06055-0.0135 0.11931-0.0194 0.17604-0.0186zm3.7969 3.7431a0.65729 0.64171 0 0 1 0.65732 0.6417 0.65729 0.64171 0 0 1-0.65732 0.64169 0.65729 0.64171 0 0 1-0.65731-0.64169 0.65729 0.64171 0 0 1 0.65731-0.6417zm3.2638 1.3012c0.2702-7.5e-4 0.537 2.5e-4 0.81181 7e-3 0.27481 6e-3 0.55763 0.0181 0.85984 0.0372 0.09657 6e-3 0.20467 0.0212 0.31037 0.0554 0.05285 0.0171 0.10507 0.0389 0.15499 0.0667s0.09755 0.0616 0.14105 0.10261c0.0435 0.041 0.08292 0.0894 0.11654 0.14615 0.03361 0.0567 0.0614 0.12193 0.08164 0.19686 0.02025 0.0749 0.03297 0.15953 0.03638 0.25513 0.0034 0.0956-0.0025 0.20219-0.01947 0.32095-0.01054 0.074-0.02608 0.1489-0.04616 0.2244-0.02009 0.0755-0.04475 0.15156-0.07344 0.22808-0.05738 0.15303-0.13099 0.30762-0.21726 0.46163-0.08627 0.15401-0.18514 0.30744-0.29288 0.45835-0.10773 0.15092-0.22436 0.2993-0.34615 0.44304-0.12179 0.14375-0.24875 0.28291-0.37719 0.4154-0.12844 0.13249-0.2584 0.25827-0.38608 0.37543s-0.25304 0.22568-0.37254 0.32343c-0.11951 0.0978-0.23313 0.18475-0.33706 0.259-0.10348 0.0739-0.21096 0.14368-0.32164 0.20929-0.11067 0.0656-0.22457 0.1271-0.34092 0.18454-0.11635 0.0574-0.23513 0.11085-0.35564 0.16027-0.12051 0.0494-0.24266 0.0949-0.36582 0.13641-0.24632 0.0831-0.49645 0.15054-0.7443 0.20303-0.24784 0.0525-0.49349 0.09-0.73075 0.11305-0.23727 0.0231-0.46616 0.0318-0.68074 0.0266-0.21458-5e-3 -0.41476-0.0241-0.59455-0.0562-0.08989-0.0161-0.17471-0.0354-0.25364-0.058-0.07893-0.0226-0.152-0.0484-0.21845-0.0774-0.06644-0.029-0.12625-0.0611-0.17871-0.0963-0.05246-0.0352-0.09758-0.0735-0.13453-0.11474-0.0418-0.0467-0.07613-0.0957-0.10398-0.14615-0.02785-0.0505-0.04922-0.10249-0.06494-0.15531-0.01572-0.0528-0.02581-0.10638-0.03124-0.16007-0.0054-0.0537-0.0062-0.10746-0.0031-0.16057 0.0061-0.10623 0.02722-0.20991 0.05614-0.30513 0.02892-0.0952 0.06557-0.18202 0.1027-0.25464 0.18759-0.36684 0.36781-0.67751 0.6246-1.115 0.25678-0.43745 0.59011-1.0017 1.0841-1.8755 6e-3 -0.0138 0.03361-0.0721 0.08827-0.15172 0.02734-0.0398 0.06145-0.0849 0.103-0.13254 0.04154-0.0476 0.09047-0.0977 0.14757-0.14735 0.05711-0.0496 0.12237-0.0987 0.1964-0.14456 0.07403-0.0459 0.15687-0.0886 0.24918-0.12498 0.09232-0.0364 0.19408-0.0665 0.30602-0.0876 0.11195-0.0211 0.23407-0.0329 0.36702-0.0329 0.65914 0 1.2132-0.0114 1.7536-0.0133z" opacity=".25"/>
<path d="m16.926 271.03c-0.38794 0-0.3785-0.0126-0.50717 0.67838-0.04756 0.25545-0.09745 0.47553-0.1108 0.48897-0.04676 0.047-0.61372 0.11949-0.70555 0.0902-0.05951-0.019-0.17686-0.20681-0.32777-0.52467-0.26509-0.55835-0.27116-0.56177-0.72848-0.40814-0.22663 0.0761-0.23677 0.0872-0.25017 0.26994-0.0077 0.1048 0.0055 0.35076 0.02936 0.54664 0.02388 0.19588 0.02651 0.38913 0.0058 0.42942-0.04664 0.0909-0.63438 0.33873-0.71702 0.30235-0.03325-0.0147-0.20652-0.20841-0.38509-0.43061-0.29272-0.36421-0.33701-0.40095-0.44905-0.37324-0.17616 0.0436-0.52675 0.25626-0.55818 0.33864-0.01459 0.0381 0.05048 0.27426 0.14461 0.52467s0.1712 0.49501 0.1712 0.54346c0 0.0988-0.45993 0.47137-0.5819 0.47137-0.04239 0-0.27144-0.12827-0.50895-0.28515-0.2375-0.15687-0.45538-0.28525-0.48414-0.28525-0.07102 0-0.5045 0.4338-0.5045 0.50488 0 0.0312 0.13804 0.26444 0.30672 0.51821 0.346 0.52061 0.34591 0.48806-4.93e-4 0.90089-0.18114 0.2158-0.16041 0.21705-0.88901-0.0521l-0.37017-0.13681-0.11436 0.14267c-0.0629 0.0784-0.15043 0.23705-0.19453 0.35247l-0.080162 0.20979 0.2564 0.21804c0.14103 0.11989 0.33847 0.2934 0.43877 0.38557l0.18237 0.16763-0.12633 0.31726c-0.069441 0.17449-0.15102 0.33688-0.18128 0.36101-0.033727 0.0269-0.26302 0.0246-0.59267-6e-3 -0.62149-0.058-0.6109-0.0635-0.71375 0.36778-0.079376 0.33282-0.06705 0.34827 0.49728 0.61892 0.27769 0.13318 0.44941 0.24475 0.46813 0.30404 0.038664 0.12253-0.051319 0.68068-0.11624 0.72104-0.027701 0.0172-0.26743 0.0692-0.53287 0.11562-0.26543 0.0464-0.50918 0.10608-0.54166 0.13264-0.079686 0.0651-0.079686 0.6737 0 0.73883 0.032485 0.0266 0.27623 0.0861 0.54166 0.13253 0.26544 0.0464 0.50517 0.0985 0.53287 0.11574 0.064921 0.0403 0.1549 0.5985 0.11624 0.72103-0.018706 0.0593-0.19043 0.17086-0.46813 0.30404-0.56224 0.26965-0.57921 0.29017-0.50025 0.60629 0.097596 0.39073 0.11785 0.41328 0.36997 0.41153 0.12255-7.5e-4 0.37168-0.0211 0.55363-0.0449 0.24376-0.0319 0.34599-0.0283 0.38846 0.0137 0.1114 0.11021 0.29007 0.62214 0.24602 0.70492-0.022994 0.0433-0.21391 0.22304-0.42424 0.39949-0.34113 0.28622-0.37917 0.33421-0.35218 0.44463 0.043051 0.17617 0.25482 0.52886 0.33646 0.56037 0.037927 0.0147 0.27265-0.0509 0.5216-0.14556 0.24895-0.0947 0.49192-0.17211 0.54008-0.17211 0.09825 0 0.46882 0.46264 0.46882 0.58532 0 0.0426-0.12763 0.27293-0.28359 0.51184-0.15596 0.23891-0.28358 0.45806-0.28358 0.48698 0 0.0722 0.43166 0.50747 0.50321 0.50747 0.03177 0 0.24851-0.12837 0.48167-0.28525 0.23316-0.15687 0.46121-0.28525 0.50678-0.28525 0.12124 0 0.58773 0.37763 0.58773 0.47575 0 0.0461-0.07688 0.28867-0.171 0.53908-0.09413 0.25041-0.15936 0.48652-0.14481 0.52467 0.03143 0.0824 0.38221 0.29517 0.55838 0.33874 0.11204 0.0277 0.15622-9e-3 0.44895-0.37324 0.17858-0.22219 0.34958-0.41514 0.38015-0.42872 0.08028-0.0357 0.67672 0.21226 0.72097 0.29977 0.0206 0.0406 0.02033 0.22363-7.4e-4 0.40664-0.02102 0.18303-0.03926 0.42475-0.04072 0.5372-0.0022 0.18984 0.0095 0.20949 0.16398 0.27441 0.09151 0.0385 0.25971 0.0828 0.37383 0.0985l0.20747 0.0285 0.23792-0.50091c0.15298-0.32221 0.27082-0.5115 0.33043-0.53053 0.09183-0.0293 0.6589 0.0432 0.70565 0.0902 0.01338 0.0135 0.06324 0.23342 0.11081 0.48887 0.04755 0.25535 0.10777 0.51253 0.13383 0.5715 0.04248 0.0959 0.08096 0.10698 0.37343 0.10698 0.21042 0 0.34418-0.0221 0.37719-0.062 0.02814-0.0341 0.08682-0.27836 0.13048-0.54276 0.04366-0.2644 0.09394-0.50447 0.11179-0.53352 0.04137-0.0673 0.59457-0.15853 0.71958-0.11861 0.059 0.0188 0.15812 0.1669 0.26372 0.39392 0.09305 0.20007 0.21101 0.42487 0.26213 0.49951 0.08368 0.12218 0.11168 0.13266 0.27993 0.10559 0.10281-0.0165 0.2593-0.0604 0.34773-0.0975 0.15162-0.0637 0.1607-0.0807 0.15924-0.29589-7.88e-4 -0.12553-0.02089-0.37794-0.04458-0.56096-0.03169-0.24477-0.0282-0.34743 0.01334-0.38825 0.08751-0.0861 0.64497-0.29938 0.70862-0.27114 0.03122 0.0139 0.20136 0.20529 0.37828 0.42544 0.17691 0.22015 0.35787 0.40012 0.4019 0.39979 0.09434-4.9e-4 0.55415-0.25809 0.60315-0.33784 0.01863-0.0303-0.04882-0.30037-0.15005-0.60014l-0.18415-0.54504 0.25719-0.23276c0.14142-0.12802 0.28069-0.23276 0.30948-0.23276 0.0288 0 0.26051 0.13907 0.51498 0.30902 0.25446 0.16995 0.4911 0.30901 0.52575 0.30901 0.0814 0 0.4958-0.416 0.4958-0.49772 0-0.0343-0.12763-0.25782-0.28358-0.49673-0.15596-0.23891-0.28368-0.46924-0.28368-0.51184 0-0.11754 0.3781-0.58542 0.47307-0.58542 0.04584 0 0.28709 0.0775 0.53603 0.17221 0.24895 0.0947 0.4842 0.15989 0.52288 0.14496 0.08386-0.0324 0.3573-0.49782 0.35811-0.60918 3.7e-4 -0.0429-0.18036-0.23113-0.40131-0.41828-0.46072-0.39025-0.47481-0.43535-0.26896-0.85844 0.10641-0.21868 0.14652-0.26038 0.24533-0.25453 0.06498 4e-3 0.32547 0.0227 0.57883 0.0419l0.46061 0.0347 0.07206-0.1734c0.03963-0.0954 0.08494-0.26769 0.10062-0.38289l0.02856-0.20948-0.49867-0.24022c-0.31514-0.15175-0.50937-0.27378-0.52763-0.33168-0.03885-0.12309 0.05314-0.67933 0.11911-0.72034 0.02888-0.0179 0.26755-0.0685 0.5304-0.11244 0.26284-0.0439 0.50559-0.10295 0.53949-0.13125 0.08393-0.0701 0.08393-0.67513 0-0.74519-0.0339-0.0283-0.27665-0.0874-0.53949-0.13134-0.26285-0.0439-0.50152-0.0945-0.5304-0.11245-0.06642-0.0413-0.15775-0.59758-0.11851-0.72193 0.01893-0.06 0.2071-0.1786 0.52743-0.33248l0.49808-0.23921-0.02847-0.2088c-0.01563-0.11479-0.05972-0.28398-0.09796-0.37603-0.066-0.15889-0.081-0.16721-0.29643-0.16573-0.12479 7.4e-4 -0.37573 0.021-0.55768 0.0448-0.38776 0.0508-0.39153 0.0484-0.55857-0.35505-0.08019-0.19366-0.1045-0.30985-0.07601-0.3634 0.02304-0.0433 0.21252-0.22191 0.42098-0.39681 0.20846-0.17489 0.37858-0.3535 0.37858-0.397-5.67e-4 -0.11214-0.27384-0.57765-0.35811-0.61018-0.03869-0.0149-0.27394 0.0503-0.52288 0.14497-0.24895 0.0947-0.49019 0.1722-0.53603 0.1722-0.09496 0-0.47307-0.46788-0.47307-0.58541 0-0.0426 0.12772-0.27304 0.28368-0.51195 0.15596-0.2389 0.28358-0.46234 0.28358-0.49663 0-0.0824-0.41485-0.49772-0.49709-0.49772-0.03527 0-0.24085 0.1194-0.45696 0.26537-0.57943 0.39136-0.51201 0.38054-0.8379 0.13412-0.16543-0.12508-0.28754-0.25381-0.28754-0.30305 0-0.0471 0.07707-0.29046 0.1712-0.54087s0.15896-0.48715 0.14412-0.52606c-0.03256-0.0853-0.49543-0.35956-0.60799-0.36022-0.04403-1.5e-4 -0.22499 0.17974-0.4019 0.39989-0.17691 0.22015-0.34653 0.41136-0.37709 0.42495-0.08027 0.0357-0.67663-0.21225-0.72097-0.29977-0.02054-0.0406-0.02084-0.20215-7.89e-4 -0.35903 0.02022-0.15687 0.03843-0.39869 0.04063-0.53729 0.0038-0.24308-0.0016-0.25437-0.15667-0.31955-0.08844-0.0372-0.24494-0.0811-0.34774-0.0976-0.16826-0.0271-0.19615-0.0165-0.27983 0.10569-0.05112 0.0747-0.16907 0.29934-0.26213 0.49941-0.1056 0.22702-0.20481 0.3752-0.26381 0.39403-0.12502 0.0399-0.67811-0.0513-0.71949-0.11862-0.01787-0.0291-0.06824-0.26922-0.11189-0.53362-0.04366-0.26439-0.10244-0.50855-0.13057-0.54266-0.03301-0.04-0.16673-0.062-0.37709-0.062zm-0.23752 2.6612c0.13031 4.9e-4 0.26385 8e-3 0.39913 0.02 0.13528 0.0125 0.27226 0.0304 0.40951 0.0529 0.27449 0.0449 0.54997 0.10781 0.81428 0.18105 0.2643 0.0732 0.5175 0.15675 0.74756 0.2429 0.23006 0.0861 0.43694 0.17489 0.60868 0.2585 0.114 0.0555 0.22641 0.11665 0.33686 0.18265 0.11046 0.066 0.21901 0.1368 0.3253 0.21187 0.10628 0.0751 0.21025 0.15431 0.31175 0.23703 0.1015 0.0827 0.20054 0.16895 0.29663 0.25791 0.19219 0.17791 0.37292 0.36691 0.53979 0.56126 0.16687 0.19435 0.31986 0.39403 0.45646 0.59347 0.1366 0.19943 0.25683 0.39859 0.35822 0.59178 0.10139 0.19318 0.1839 0.3804 0.24513 0.55598 0.03061 0.0878 0.05587 0.17267 0.07552 0.25394 0.01965 0.0813 0.03375 0.15894 0.04181 0.23225 0.0081 0.0733 0.01018 0.14226 6e-3 0.20621-0.0041 0.064-0.01458 0.12291-0.03153 0.17608-0.01919 0.0602-0.04396 0.11482-0.07324 0.16445-0.02929 0.0496-0.06309 0.0942-0.10033 0.13422-0.03724 0.04-0.07792 0.0754-0.12098 0.10669-0.04306 0.0313-0.08848 0.0584-0.13522 0.0819-0.09349 0.047-0.19225 0.0793-0.28764 0.10052-0.09538 0.0212-0.1874 0.0314-0.26757 0.0342-0.40502 0.0141-0.75853 7e-3 -1.2578-5e-3 -0.49926-0.0125-1.1443-0.0306-2.1323-0.0389v-1e-4c-0.01471 1e-3 -0.07798 6e-3 -0.17278-4e-3 -0.04739-5e-3 -0.10264-0.0127-0.16368-0.0262-0.06105-0.0135-0.12784-0.0323-0.19828-0.0586-0.07045-0.0263-0.14454-0.0599-0.22013-0.1031-0.07559-0.0432-0.15273-0.0958-0.22922-0.15988-0.07648-0.0641-0.15233-0.13969-0.22546-0.22878-0.07313-0.0891-0.14353-0.19168-0.20906-0.3098-0.32489-0.58568-0.60772-1.0724-0.87566-1.5517-0.13396-0.23965-0.26415-0.47736-0.39409-0.72471-0.12994-0.24736-0.2596-0.50435-0.39231-0.78228-0.0424-0.0888-0.08278-0.19228-0.10576-0.30305-0.01151-0.0554-0.01856-0.11265-0.01947-0.17071-7.4e-4 -0.0581 0.0045-0.117 0.01799-0.17589 0.01356-0.0589 0.03523-0.11774 0.06702-0.17559 0.03179-0.0578 0.07363-0.11469 0.1275-0.16961 0.05387-0.0549 0.11978-0.10795 0.19957-0.15809 0.07979-0.0501 0.17346-0.0974 0.28299-0.14088 0.06823-0.0271 0.13968-0.0501 0.2139-0.0695 0.07422-0.0194 0.15119-0.035 0.23051-0.0472 0.15864-0.0244 0.32661-0.0352 0.50035-0.0344zm-3.5522 1.8436c0.04964 7.4e-4 0.09781 6e-3 0.14431 0.0162 0.04651 0.01 0.09138 0.024 0.13454 0.0416 0.0863 0.035 0.16574 0.0837 0.23742 0.13989 0.07168 0.0561 0.13556 0.11968 0.19096 0.18434 0.05541 0.0646 0.10229 0.13039 0.13977 0.19099 0.2164 0.34991 0.38898 0.66504 0.63043 1.1115 0.24145 0.44643 0.55177 1.0242 1.0435 1.8993 0.0087 0.0122 0.04415 0.0658 0.08412 0.1541 0.01996 0.0441 0.04114 0.0969 0.06059 0.1575s0.03718 0.12905 0.05051 0.20442c0.01336 0.0754 0.02221 0.15765 0.02393 0.24607 0.0015 0.0884-0.0039 0.18299-0.01947 0.28277-0.01558 0.0998-0.04118 0.20485-0.07957 0.31428-0.0384 0.10944-0.08959 0.22324-0.15637 0.34063-0.33109 0.58204-0.59982 1.077-0.86973 1.5551-0.13496 0.23905-0.27016 0.47389-0.41366 0.71328-0.14352 0.23939-0.29533 0.48333-0.46328 0.74062-0.05367 0.0822-0.12081 0.17008-0.20283 0.24628-0.04101 0.0381-0.08571 0.0733-0.13433 0.1034-0.04863 0.0301-0.10116 0.0551-0.15776 0.0729-0.0566 0.0178-0.11724 0.0285-0.18217 0.0296-0.06493 9.9e-4 -0.13416-7e-3 -0.20777-0.0269-0.07361-0.0197-0.1517-0.051-0.23436-0.096-0.08266-0.045-0.16989-0.10376-0.26194-0.17837-0.05734-0.0465-0.11291-0.0978-0.16675-0.15351-0.05384-0.0557-0.106-0.11559-0.15637-0.17937-0.10075-0.12754-0.19453-0.27021-0.28161-0.42375-0.08708-0.15353-0.1674-0.31792-0.24108-0.48887-0.07367-0.17094-0.1407-0.3485-0.20124-0.52825-0.06054-0.17975-0.11463-0.36169-0.1623-0.54167-0.04768-0.17997-0.08898-0.35794-0.12405-0.52953-0.03507-0.1716-0.06395-0.33684-0.08669-0.49147-0.02275-0.15462-0.03934-0.29865-0.05001-0.42772-0.01062-0.12852-0.01565-0.25847-0.01563-0.38915 1.7e-5 -0.13069 0.0051-0.26214 0.01493-0.39373 0.0098-0.13159 0.02433-0.26328 0.043-0.39451 0.01868-0.13124 0.04161-0.26193 0.0683-0.39154 0.05338-0.25924 0.12188-0.51401 0.20194-0.75922 0.08005-0.2452 0.17159-0.48085 0.27122-0.70194 0.09964-0.22109 0.20735-0.42765 0.31947-0.61454 0.11212-0.1869 0.22874-0.35412 0.34625-0.49674 0.05876-0.0713 0.11776-0.13653 0.17654-0.19487 0.05878-0.0583 0.11734-0.10979 0.17525-0.15391 0.05791-0.0441 0.11514-0.0808 0.1713-0.10946 0.05615-0.0286 0.11117-0.0493 0.16468-0.0611 0.06055-0.0135 0.11931-0.0194 0.17604-0.0186zm3.7969 3.7431a0.65729 0.64171 0 0 1 0.65732 0.6417 0.65729 0.64171 0 0 1-0.65732 0.64169 0.65729 0.64171 0 0 1-0.65731-0.64169 0.65729 0.64171 0 0 1 0.65731-0.6417zm3.2638 1.3012c0.2702-7.5e-4 0.537 2.5e-4 0.81181 7e-3 0.27481 6e-3 0.55763 0.0181 0.85984 0.0372 0.09657 6e-3 0.20467 0.0212 0.31037 0.0554 0.05285 0.0171 0.10507 0.0389 0.15499 0.0667s0.09755 0.0616 0.14105 0.10261c0.0435 0.041 0.08292 0.0894 0.11654 0.14615 0.03361 0.0567 0.0614 0.12193 0.08164 0.19686 0.02025 0.0749 0.03297 0.15953 0.03638 0.25513 0.0034 0.0956-0.0025 0.20219-0.01947 0.32095-0.01054 0.074-0.02608 0.1489-0.04616 0.2244-0.02009 0.0755-0.04475 0.15156-0.07344 0.22808-0.05738 0.15303-0.13099 0.30762-0.21726 0.46163-0.08627 0.15401-0.18514 0.30744-0.29288 0.45835-0.10773 0.15092-0.22436 0.2993-0.34615 0.44304-0.12179 0.14375-0.24875 0.28291-0.37719 0.4154-0.12844 0.13249-0.2584 0.25827-0.38608 0.37543s-0.25304 0.22568-0.37254 0.32343c-0.11951 0.0978-0.23313 0.18475-0.33706 0.259-0.10348 0.0739-0.21096 0.14368-0.32164 0.20929-0.11067 0.0656-0.22457 0.1271-0.34092 0.18454-0.11635 0.0574-0.23513 0.11085-0.35564 0.16027-0.12051 0.0494-0.24266 0.0949-0.36582 0.13641-0.24632 0.0831-0.49645 0.15054-0.7443 0.20303-0.24784 0.0525-0.49349 0.09-0.73075 0.11305-0.23727 0.0231-0.46616 0.0318-0.68074 0.0266-0.21458-5e-3 -0.41476-0.0241-0.59455-0.0562-0.08989-0.0161-0.17471-0.0354-0.25364-0.058-0.07893-0.0226-0.152-0.0484-0.21845-0.0774-0.06644-0.029-0.12625-0.0611-0.17871-0.0963-0.05246-0.0352-0.09758-0.0735-0.13453-0.11474-0.0418-0.0467-0.07613-0.0957-0.10398-0.14615-0.02785-0.0505-0.04922-0.10249-0.06494-0.15531-0.01572-0.0528-0.02581-0.10638-0.03124-0.16007-0.0054-0.0537-0.0062-0.10746-0.0031-0.16057 0.0061-0.10623 0.02722-0.20991 0.05614-0.30513 0.02892-0.0952 0.06557-0.18202 0.1027-0.25464 0.18759-0.36684 0.36781-0.67751 0.6246-1.115 0.25678-0.43745 0.59011-1.0017 1.0841-1.8755 6e-3 -0.0138 0.03361-0.0721 0.08827-0.15172 0.02734-0.0398 0.06145-0.0849 0.103-0.13254 0.04154-0.0476 0.09047-0.0977 0.14757-0.14735 0.05711-0.0496 0.12237-0.0987 0.1964-0.14456 0.07403-0.0459 0.15687-0.0886 0.24918-0.12498 0.09232-0.0364 0.19408-0.0665 0.30602-0.0876 0.11195-0.0211 0.23407-0.0329 0.36702-0.0329 0.65914 0 1.2132-0.0114 1.7536-0.0133z" fill="url(#linearGradient4523)" stroke="#808080" stroke-width=".1"/>
<g transform="translate(1.947)" fill="#4d4d4d" stroke-width=".26458" aria-label="MAKE">
<path d="m10.032 290.6h1.1446v3.8086h-0.74156v-2.5761q0-0.11111 0.0026-0.31006 0.0026-0.20154 0.0026-0.31006l-0.72089 3.1962h-0.77259l-0.71572-3.1962q0 0.10852 0.00258 0.31006 0.00258 0.19895 0.00258 0.31006v2.5761h-0.74155v-3.8086h1.1576l0.69246 2.9946z"/>
<path d="m12.962 292.97h0.96635l-0.47542-1.4986zm0.04909-2.3694h0.89917l1.3488 3.8086h-0.863l-0.24546-0.7829h-1.403l-0.26355 0.7829h-0.83199z"/>
<path d="m15.758 290.6h0.7829v1.5684l1.4702-1.5684h1.0284l-1.5606 1.5684 1.6407 2.2402h-1.0232l-1.1756-1.664-0.37982 0.39015v1.2738h-0.7829z"/>
<path d="m22.385 291.28h-2.0154v0.80874h1.85v0.66146h-1.85v0.97927h2.1084v0.68471h-2.8861v-3.8086h2.7931z"/>
</g>
</g>
</svg>
