<svg width="128" height="128" version="1.1" viewBox="0 0 33.867 33.867" xmlns="http://www.w3.org/2000/svg" xmlns:osb="http://www.openswatchbook.org/uri/2009/osb" xmlns:xlink="http://www.w3.org/1999/xlink">
<defs>
<linearGradient id="linearGradient1503-8" x1="29.203" x2="4.5843" y1="263.52" y2="296.17" gradientTransform="matrix(1.001 0 0 1.001 -37.248 -.29086)" gradientUnits="userSpaceOnUse">
<stop stop-color="#d9d9d9" offset="0"/>
<stop stop-color="#fff" offset="1"/>
</linearGradient>
</defs>
<g transform="translate(0 -263.13)">
<g transform="translate(37.231 3.3363e-6)">
<g transform="matrix(.53602 0 0 .53727 -234.93 -13.785)" stroke-width="4.0845"></g>
<g transform="matrix(.53602 0 0 .53727 -234.93 -13.76)" stroke-width="4.0845"></g>
<path d="m-32.659 264.1v32.612h24.724v-18.3c-0.04716-0.8313-0.10165-1.5753-0.3125-2.3297-0.21448-0.76736-0.55247-1.4939-0.95641-2.1892-0.51687-0.8897-1.3904-1.4633-2.1667-2.1925-0.47098-0.42711-1.4882-1.4417-2.7195-2.653-1.2212-1.2014-2.6535-2.5969-3.8492-3.6811-0.35316-0.3187-0.86616-0.64943-1.3428-0.84044-0.37009-0.14831-0.80547-0.24063-1.2258-0.30267-0.43345-0.064-0.85093-0.0958-1.1644-0.12361z" opacity=".25"/>
<path d="m-32.659 263.57v32.612h24.724v-18.3c-0.04716-0.83129-0.10165-1.5753-0.3125-2.3297-0.21448-0.76736-0.55247-1.4939-0.95641-2.1892-0.51687-0.88969-1.3904-1.4633-2.1667-2.1925-0.47098-0.42712-1.4882-1.4417-2.7195-2.653-1.2212-1.2014-2.6535-2.5969-3.8492-3.6811-0.35316-0.3187-0.86616-0.64944-1.3428-0.84044-0.37009-0.14831-0.80547-0.24063-1.2258-0.30267-0.43345-0.064-0.85093-0.0958-1.1644-0.12361z" fill="url(#linearGradient1503-8)" stroke="#808080" stroke-width=".3"/>
<path d="m-17.48 265.48c0.01633 0.0263 0.56114 0.90462 0.72779 1.3989 0.45158 1.0123 0.25858 3.9724 0.25037 5.6588 0.02772-0.19401 4.6905-1.3958 7.111 0.80464-0.01547-0.0273-0.04888-0.0804-0.12512-0.18628-0.07235-0.10046-0.18275-0.24915-0.37164-0.44224-0.52811-0.60452-0.23093-0.0845-0.80541-0.682-0.49669-0.45047-1.5695-1.5205-2.868-2.798-1.2412-1.2212-2.6869-2.6295-3.919-3.7538z" opacity=".248"/>
<path d="m-17.807 264.96c0.01548 0.0249 0.53209 0.85773 0.69011 1.3264 0.42821 0.95987 0.29224 3.218 0.28445 4.8171 0.42899-0.0223 5.1595-0.73701 7.3284 1.8241-0.02928-0.0506-0.10278-0.0927-0.14377-0.17312-0.50077-0.57318-1.1396-1.0337-1.7235-1.5822-0.47098-0.42712-1.4882-1.4417-2.7195-2.653-1.1769-1.1579-2.5478-2.4932-3.7162-3.5592z" fill="#fff" stroke="#808080" stroke-width=".3"/>
<g transform="matrix(.53602 0 0 .53727 -272.16 -13.785)" stroke-width="4.0845"></g>
<path d="m-10.702 282.06c-0.39642-0.39046-1.276-0.5976-2.6138-0.61513-0.90568-0.0103-1.9953 0.0695-3.1422 0.2303-0.51323-0.29614-1.0423-0.61878-1.4579-1.0069-1.1171-1.0433-2.0499-2.4917-2.631-4.084 0.03773-0.14889 0.07015-0.27961 0.09992-0.41296 0 0 0.62938-3.5747 0.46293-4.7832a1.3981 1.3981 0 0 0-0.08173-0.34282l-0.05461-0.1403c-0.17108-0.39509-0.50694-0.81334-1.0331-0.79052l-0.3084-0.0103h-0.0087c-0.58702 0-1.0652 0.30014-1.1906 0.74851-0.38153 1.407 0.01188 3.5118 0.72566 6.2382l-0.18266 0.44406c-0.51091 1.2455-1.1515 2.5-1.7161 3.6068l-0.07347 0.1436c-0.59463 1.1631-1.1337 2.1505-1.6227 2.987l-0.50462 0.2667c-0.03673 0.0195-0.90171 0.47715-1.1049 0.59992-1.721 1.0278-2.8616 2.1942-3.0509 3.1204-0.06022 0.29516-0.01555 0.67338 0.29086 0.84843l0.48808 0.24554c0.21178 0.10593 0.43514 0.15981 0.66379 0.15981 1.226 0 2.6495-1.5271 4.6101-4.949 2.2637-0.73692 4.8411-1.3494 7.0998-1.6876 1.7217 0.96954 3.8384 1.6426 5.1753 1.6426 0.23692 0 0.44142-0.0225 0.60786-0.0662 0.25612-0.0683 0.4722-0.21442 0.60389-0.41263 0.2591-0.39047 0.31171-0.92752 0.24156-1.4778-0.02117-0.16347-0.15155-0.3653-0.29252-0.50296zm-18.312 6.5234c0.22369-0.61118 1.1085-1.82 2.4169-2.8921 0.08239-0.0665 0.2849-0.25645 0.47054-0.43283-1.3683 2.1823-2.2845 3.0522-2.8874 3.3249zm7.7497-17.847c0.39443 0 0.61878 0.99336 0.63731 1.9248 0.01854 0.93117-0.1992 1.585-0.46955 2.0681-0.22369-0.71574-0.33189-1.8444-0.33189-2.5823 0 0-0.01655-1.4106 0.16446-1.4106zm-2.3117 12.718c0.27465-0.49139 0.56021-1.0099 0.85207-1.5595 0.71144-1.3455 1.1608-2.3981 1.4957-3.2634 0.66511 1.2108 1.4943 2.2402 2.4685 3.0651 0.12178 0.10251 0.25049 0.20616 0.38583 0.30941-1.9818 0.39177-3.6942 0.86861-5.2018 1.4484zm12.493-0.11187c-0.12078 0.0755-0.46657 0.11907-0.6886 0.11907-0.71806 0-1.6059-0.32792-2.8504-0.86166a17.904 17.904 0 0 1 1.31-0.0533c0.71971 0 0.93314-3e-3 1.637 0.17635 0.70383 0.17935 0.71276 0.544 0.59231 0.61945z" fill="#e50f0f"/>
</g>
</g>
</svg>
