<svg width="128" height="128" version="1.1" viewBox="0 0 33.867 33.867" xmlns="http://www.w3.org/2000/svg" xmlns:osb="http://www.openswatchbook.org/uri/2009/osb" xmlns:xlink="http://www.w3.org/1999/xlink">
<defs>
<linearGradient id="linearGradient1503-8" x1="29.203" x2="4.5843" y1="263.52" y2="296.17" gradientTransform="matrix(1.001 0 0 1.001 -.017758 -.29086)" gradientUnits="userSpaceOnUse">
<stop stop-color="#d9d9d9" offset="0"/>
<stop stop-color="#fff" offset="1"/>
</linearGradient>
<radialGradient id="radialGradient7057" cx="416.8" cy="399.14" r="20.131" gradientTransform="matrix(-.25699 -.044253 .019534 -.11344 86.227 347.18)" gradientUnits="userSpaceOnUse">
<stop stop-color="#8ae234" offset="0"/>
<stop stop-color="#4db07d" stop-opacity=".88235" offset="1"/>
</radialGradient>
<linearGradient id="linearGradient7067" x1="32.027" x2="27.56" y1="21.986" y2="15.299" gradientTransform="matrix(.72382 0 0 .72382 -35.455 262.46)" gradientUnits="userSpaceOnUse">
<stop stop-color="#bcae3e" offset="0"/>
<stop stop-color="#3b9a6a" offset=".5"/>
<stop stop-color="#3d8891" offset="1"/>
</linearGradient>
<radialGradient id="radialGradient7065" cx="416.65" cy="392.08" r="27.077" gradientTransform="matrix(.18962 -.20673 .2141 .19638 -177.47 291.22)" gradientUnits="userSpaceOnUse">
<stop stop-color="#fce94f" offset="0"/>
<stop stop-color="#66d09a" offset=".5"/>
<stop stop-color="#66c6d0" offset="1"/>
</radialGradient>
<linearGradient id="linearGradient7062" x1="13.113" x2="20.404" y1="7.2514" y2="21.767" gradientTransform="matrix(.72382 0 0 .72382 -35.455 262.46)" gradientUnits="userSpaceOnUse">
<stop stop-color="#304456" offset="0"/>
<stop stop-color="#6394be" offset="1"/>
</linearGradient>
<linearGradient id="linearGradient7060" x1="375.63" x2="393.43" y1="311.79" y2="374.92" gradientTransform="matrix(.16631 -.027777 .027777 .16631 -95.305 226.39)" gradientUnits="userSpaceOnUse">
<stop stop-color="#204a87" offset="0"/>
<stop stop-color="#97bcd4" offset="1"/>
</linearGradient>
</defs>
<g transform="translate(0 -263.13)">
<path d="m4.5714 264.1v32.612h24.724v-18.3c-0.04716-0.8313-0.10165-1.5753-0.3125-2.3297-0.21448-0.76736-0.55247-1.4939-0.95641-2.1892-0.51687-0.8897-1.3904-1.4633-2.1667-2.1925-0.47098-0.42711-1.4882-1.4417-2.7195-2.653-1.2212-1.2014-2.6535-2.5969-3.8492-3.6811-0.35316-0.3187-0.86616-0.64943-1.3428-0.84044-0.37009-0.14831-0.80547-0.24063-1.2258-0.30267-0.43345-0.064-0.85093-0.0958-1.1644-0.12361z" opacity=".25"/>
<path d="m4.5714 263.57v32.612h24.724v-18.3c-0.04716-0.83129-0.10165-1.5753-0.3125-2.3297-0.21448-0.76736-0.55247-1.4939-0.95641-2.1892-0.51687-0.88969-1.3904-1.4633-2.1667-2.1925-0.47098-0.42712-1.4882-1.4417-2.7195-2.653-1.2212-1.2014-2.6535-2.5969-3.8492-3.6811-0.35316-0.3187-0.86616-0.64944-1.3428-0.84044-0.37009-0.14831-0.80547-0.24063-1.2258-0.30267-0.43345-0.064-0.85093-0.0958-1.1644-0.12361z" fill="url(#linearGradient1503-8)" stroke="#808080" stroke-width=".3"/>
<g transform="translate(34.199 1.507)">
<path d="m-18.974 281.64c1.0791 1.3851 2.4658 1.5983 4.1507 1.5779-0.11558 0.2668-0.23116 0.5336-0.34674 0.8004 0.32289-0.38569 0.56359-0.80474 1.0975-0.75111-0.33029 0.47527-0.38452 0.78282-0.50951 1.1334 0.6389-0.57655 1.6405-0.77449 2.4485-1.0056-0.21494-0.32807-0.54161-0.56492-0.75654-0.89298 0.37389-0.63757 0.53338-1.5014 0.56415-2.2666-0.14464 0.39862-0.35695 0.71785-0.55752 0.99888 0.40897-1.0157 0.09861-1.6877-0.24877-2.5353 0.03791 0.40131 0.07583 0.80264 0.11374 1.2039-0.32238 1.182-0.69223 1.3224-1.4043 2.0408-1.1752 0.29207-2.976 0.55586-4.5512-0.30358z" fill="url(#radialGradient7057)" fill-rule="evenodd" stroke="#4b8748" stroke-width=".19844"/>
<path d="m-23.615 275.39c0.07813 3.1407 2.7621 5.0008 5.2497 6.447 1.4065 0.52763 2.6745 0.38324 4.1221 0.20568 0.89428-1.8292 0.52048-3.3429-0.2642-5.1507-0.48897-0.70524-0.61106-1.4385-0.71887-2.2645-0.56418 0.52622-0.26902 1.3906-0.28233 2.1336-0.33737-1.2622-1.12-2.3081-1.8033-3.4033-0.5079-1.9078-2.3941-3.075-3.8957-4.2035 2.4639 3.8499 3.0493 4.0466 1.9985 8.6504-2.2645 0.82146-3.7094-0.32302-4.406-2.415z" fill="url(#radialGradient7065)" fill-rule="evenodd" stroke="url(#linearGradient7067)" stroke-width=".19844"/>
<path d="m-25.908 272.87c0.56225 2.1408 2.0923 3.8844 4.1513 4.7143 0.92193 0.19535 1.8406 0.38343 2.5824 0.1648-0.17571-1.3614 0.11944-2.6612 0.23687-4.1502 0.06068-1.2835 0.12649-2.4219-0.62812-3.4744-1.162-1.5678-2.6669-2.158-4.4178-2.047-0.42634 0.5951-0.85353 1.0923-1.1774 1.604-0.53918 0.85194-0.95581 2.2772-0.2778 3.1952 0.66711 0.62374 1.5412 1.2829 2.058 1.3595-0.78383 0.0534-1.3143-0.34554-1.9542-0.73808-0.1911-0.20938-0.3822-0.41875-0.5733-0.62811z" fill="url(#linearGradient7060)" fill-rule="evenodd" stroke="url(#linearGradient7062)" stroke-width=".19844"/>
<path d="m-9.1964 284.83c-1.1427-0.46919-3.7831-1.7742-4.5189-2.2335-0.54993-0.34325-0.88111-0.42541-1.4267-0.35397-0.49923 0.0654-0.57794 0.0498-0.26471-0.0526 0.24517-0.0801 0.43914-0.18533 0.43104-0.23379-0.0081-0.0485-0.49441-0.48137-1.0807-0.96204-3.7977-3.1134-6.6602-7.2686-7.4619-10.831-0.15289-0.6796-0.20604-1.0169-0.11814-0.74952 1.2532 3.8116 2.6175 6.145 5.1728 8.8473 1.5077 1.5944 3.8766 3.4214 4.194 3.2346 0.1508-0.0887 0.2067-0.0463 0.17087 0.12967-0.06518 0.32004 1.6989 1.3917 3.8399 2.3327 0.82588 0.363 1.5638 0.76573 1.6399 0.89486 0.17247 0.29307 0.19226 0.29384-0.57779-0.0223z" fill="#2a6a28" stroke-width=".26458"/>
</g>
<path d="m19.751 265.48c0.01633 0.0263 0.56114 0.90462 0.72779 1.3989 0.45158 1.0123 0.25858 3.9724 0.25037 5.6588 0.02772-0.19401 4.6905-1.3958 7.111 0.80464-0.01547-0.0273-0.04888-0.0804-0.12512-0.18628-0.07235-0.10046-0.18275-0.24915-0.37164-0.44224-0.52811-0.60452-0.23093-0.0845-0.80541-0.682-0.49669-0.45047-1.5695-1.5205-2.868-2.798-1.2412-1.2212-2.6869-2.6295-3.919-3.7538z" opacity=".248"/>
<path d="m19.424 264.96c0.01548 0.0249 0.53209 0.85773 0.69011 1.3264 0.42821 0.95987 0.29224 3.218 0.28445 4.8171 0.42899-0.0223 5.1595-0.73701 7.3284 1.8241-0.02928-0.0506-0.10278-0.0927-0.14377-0.17312-0.50077-0.57318-1.1396-1.0337-1.7235-1.5822-0.47098-0.42712-1.4882-1.4417-2.7195-2.653-1.1769-1.1579-2.5478-2.4932-3.7162-3.5592z" fill="#fff" stroke="#808080" stroke-width=".3"/>
<g transform="matrix(.53602 0 0 .53727 -234.93 -13.785)" stroke-width="4.0845"></g>
<g transform="matrix(.53602 0 0 .53727 -234.93 -13.76)" stroke-width="4.0845"></g>
<g transform="translate(-.12827)" fill="#575757" stroke-width=".26458" aria-label="PSD">
<path d="m14.252 291.72q0-0.27733-0.14711-0.3955-0.14469-0.11816-0.40755-0.11816h-0.69212v1.0466h0.69212q0.26286 0 0.40755-0.12782 0.14711-0.12781 0.14711-0.40514zm0.73553-5e-3q0 0.62942-0.31833 0.88986-0.31833 0.26045-0.90916 0.26045h-0.75482v1.2781h-0.73794v-3.5546h1.5482q0.53537 0 0.8537 0.27492t0.31833 0.85129z"/>
<path d="m16.087 293.04q0.03376 0.24357 0.13264 0.36415 0.18087 0.21945 0.61977 0.21945 0.26286 0 0.42685-0.0579 0.31109-0.11093 0.31109-0.41237 0-0.17605-0.15434-0.27251-0.15434-0.094-0.48472-0.1664l-0.3762-0.0844q-0.55466-0.12541-0.76688-0.27251-0.35932-0.24598-0.35932-0.76929 0-0.47749 0.34727-0.79341 0.34727-0.31591 1.0201-0.31591 0.5619 0 0.95739 0.29903 0.39791 0.29662 0.4172 0.86334h-0.71382q-0.01929-0.32074-0.27974-0.45578-0.17363-0.0892-0.43167-0.0892-0.28698 0-0.4582 0.11575-0.17122 0.11576-0.17122 0.32315 0 0.19052 0.16881 0.28457 0.10852 0.0627 0.46302 0.1471l0.61254 0.14711q0.40273 0.0965 0.60771 0.25804 0.31833 0.2508 0.31833 0.72588 0 0.48714-0.37379 0.81029-0.37138 0.32073-1.0514 0.32073-0.69453 0-1.0924-0.31591-0.39791-0.31833-0.39791-0.87299z"/>
<path d="m19.57 291.2v2.3199h0.68488q0.52572 0 0.73312-0.51848 0.11334-0.28457 0.11334-0.67765 0-0.54261-0.17122-0.83199-0.16881-0.2918-0.67524-0.2918zm0.81029-0.61737q0.33038 5e-3 0.54984 0.0772 0.37379 0.12298 0.6053 0.45096 0.18569 0.26527 0.25322 0.57395 0.06752 0.30868 0.06752 0.58842 0 0.709-0.28456 1.201-0.38585 0.66318-1.1913 0.66318h-1.5313v-3.5546z"/>
</g>
</g>
</svg>
