<svg width="128" height="128" version="1.1" viewBox="0 0 33.867 33.867" xmlns="http://www.w3.org/2000/svg">
<g transform="translate(0 -263.13)">
<rect x=".36458" y="267.08" width="33.138" height="26.516" ry=".35154" opacity=".25"/>
<rect x=".36458" y="266.63" width="33.138" height="26.516" ry=".35154" fill="#fff" stroke="#808080" stroke-linecap="round" stroke-width=".2"/>
<rect x="2.2545" y="268.15" width="29.358" height="23.484" ry=".31135" fill="#f2f2f2" stroke="#e5e5e5" stroke-linecap="round" stroke-width=".2"/>
<g transform="matrix(.73143 0 0 .73169 -42.714 73.743)" stroke-width="1.3669">
<path d="m80.629 267.9c-2.0589 0-3.764 1.4583-4.1455 3.4022-1.6317-1.1414-3.883-1.0013-5.3636 0.44208l-0.19692 0.19236c-1.503 1.4651-1.6819 3.7566-0.52631 5.4238-1.9275 0.37425-3.3847 2.052-3.4096 4.096l-0.0035 0.2756c-0.02552 2.0918 1.4596 3.8334 3.4456 4.2021-1.1111 1.6284-0.95995 3.8557 0.4715 5.3243l0.19235 0.19744c1.4514 1.489 3.7148 1.6794 5.3778 0.55933 0.348 1.9861 2.0695 3.488 4.1582 3.488h0.27559c2.0852 0 3.8047-1.4967 4.1567-3.4778 1.6516 1.1706 3.9403 1.0194 5.422-0.46239l0.19489-0.19491c1.4684-1.4685 1.6318-3.7305 0.49535-5.3786 1.9324-0.37043 3.3943-2.051 3.4193-4.0986l0.0035-0.27562c0.02572-2.1095-1.485-3.8625-3.4964-4.2107 1.1485-1.6326 1.0116-3.8889-0.43445-5.3726l-0.19236-0.19745c-1.4647-1.5028-3.7559-1.6817-5.423-0.52684-0.37946-1.9466-2.0847-3.4078-4.1455-3.4078zm-0.28219 12.98c0.09366 6e-3 0.18692 0.0142 0.28219 0.0142h0.27559c0.08224 0 0.16256-8e-3 0.24362-0.0122 0.0072 8e-3 0.0131 0.0154 0.0203 0.0229l0.19236 0.19744c0.0805 0.0826 0.16547 0.15786 0.25072 0.23246-0.0017 0.0409-0.0071 0.0806-0.0076 0.12182l-0.0035 0.27561c-0.0014 0.11364 0.0053 0.22559 0.01269 0.33702-0.04043 0.0374-0.083 0.0713-0.12231 0.11064l-0.19489 0.19491c-0.04728 0.0472-0.08839 0.0983-0.13297 0.14719-0.08588-5e-3 -0.17111-0.0132-0.25833-0.0132h-0.27559c-0.03976 0-0.07827 5e-3 -0.11775 6e-3 -0.03841-0.0427-0.07324-0.0874-0.11369-0.12892l-0.19236-0.19744c-0.07534-0.0773-0.15496-0.14744-0.23448-0.21775 8.24e-4 -0.0268 0.0047-0.0527 0.0051-0.0797l0.0035-0.27561c0.0015-0.11844-0.0051-0.23521-0.0132-0.35124 0.0083-8e-3 0.01755-0.0147 0.02589-0.0228l0.19743-0.19238c0.05578-0.0543 0.1052-0.11244 0.15734-0.16901z" opacity=".25"/>
<ellipse cx="80.654" cy="281.16" rx="1.0427" ry="1.0377" fill="#fff"/>
<rect x="76.403" y="267.38" width="8.728" height="12.994" ry="4.2264" fill="#faaa32"/>
<rect x="76.403" y="281.99" width="8.728" height="12.994" ry="4.2264" fill="#70b4e1"/>
<rect transform="matrix(.70709 -.70713 .70709 .70713 0 0)" x="-146.03" y="256.78" width="8.7282" height="12.994" ry="4.2263" fill="#6cc199"/>
<rect transform="matrix(.012195 -.99993 .99993 .012197 0 0)" x="-284.42" y="85.024" width="8.7285" height="12.994" ry="4.2262" fill="#bad753"/>
<rect transform="matrix(-.69799 -.71611 .71607 -.69803 0 0)" x="-261.93" y="-137.58" width="8.7282" height="12.994" ry="4.2263" fill="#f3e327"/>
<path d="m85.881 276.76c-2.3-0.0281-4.1768 1.7693-4.2694 4.0524 1.6457 1.4402 4.1315 1.3975 5.7255-0.15634l3.2518-3.1697c0.19306-0.18819 0.36162-0.39155 0.51109-0.604-0.221-0.0382-0.4463-0.0641-0.67807-0.067z" fill="#77b019"/>
<rect transform="matrix(.71607 -.69803 .69799 .71611 0 0)" x="-142.88" y="243.86" width="8.7282" height="12.994" ry="4.2263" fill="#f37560"/>
<rect transform="matrix(.012195 -.99993 .99993 .012197 0 0)" x="-284.6" y="70.408" width="8.7285" height="12.994" ry="4.2262" fill="#d783a7"/>
<rect transform="matrix(.69799 .71611 -.71607 .69803 0 0)" x="253.45" y="139.16" width="8.7282" height="12.994" ry="4.2263" fill="#a28ec3"/>
<path d="m80.512 281.99c-2.2859 0.0626-4.1085 1.9187-4.1085 4.2204v4.5417c0 0.25262 0.02594 0.49832 0.06801 0.73851 0.20956-0.14114 0.41127-0.30031 0.59889-0.4832l3.2518-3.1697c1.6351-1.5939 1.7031-4.1659 0.18982-5.8476z" fill="#5f599f"/>
<path d="m81.163 282c-1.5164 1.6628-1.4753 4.2215 0.13297 5.8298l3.2107 3.2114c0.17384 0.17385 0.36096 0.32505 0.55474 0.46239 0.04323-0.24333 0.06952-0.49253 0.06952-0.74866v-4.5417c0-2.2542-1.7485-4.08-3.9679-4.2133z" fill="#3a779d"/>
<path d="m80.837 282.4c-1.0323 1.4518-1.0391 3.3957-0.01879 4.8533 1.0309-1.4484 1.0405-3.3922 0.01879-4.8533z" fill="#232260"/>
<path d="m84.479 280.42c-1.029 0-2.0553 0.38031-2.866 1.1314 0.14427 2.1844 1.9343 3.9136 4.1618 3.9407l4.5409 0.0553c0.29372 4e-3 0.58051-0.0225 0.85773-0.0756-0.14484-0.21005-0.3082-0.41125-0.49535-0.59841l-3.2107-3.2113c-0.82778-0.82783-1.9081-1.242-2.9884-1.242z" fill="#3d9753"/>
<path d="m84.479 280.42c-0.83986 0-1.6784 0.25339-2.3996 0.75373 1.4286 0.93634 3.2924 0.91721 4.7074-0.0649-0.69998-0.45867-1.5036-0.68876-2.3078-0.68876z" fill="#0b520b"/>
<path d="m81.675 282.06c0.32286 1.7034 1.6652 3.0384 3.3787 3.3535-0.32475-1.7066-1.6679-3.0405-3.3787-3.3535z" fill="#0f4325"/>
<path d="m85.071 276.83c-1.7508 0.31509-3.1203 1.7032-3.4071 3.4717 1.7543-0.31632 3.1217-1.7065 3.4071-3.4717z" fill="#faaa32"/>
<path d="m85.05 270.79c-0.19292 0.13364-0.37932 0.28069-0.55321 0.45021l-3.2518 3.1702c-1.6692 1.6271-1.7094 4.2758-0.09694 5.9537 2.2264-0.12608 3.9826-1.9551 3.9826-4.2143v-4.5412c0-0.28051-0.02905-0.55376-0.08069-0.8187z" fill="#dab408"/>
<path d="m76.484 270.78c-0.05234 0.26664-0.0807 0.54187-0.0807 0.82429v4.5412c0 2.2462 1.7359 4.0674 3.944 4.2122 1.5151-1.6441 1.4992-4.1866-0.0807-5.8075l-3.1696-3.252c-0.19097-0.19592-0.39719-0.36719-0.6131-0.51822z" fill="#f14d02"/>
<path d="m71.264 276.76c-0.2972-4e-3 -0.5871 0.0238-0.86738 0.0782 0.13346 0.19254 0.28049 0.37916 0.44968 0.55274l3.1696 3.252c1.6261 1.6683 4.2723 1.7087 5.9503 0.099-0.15103-2.1777-1.9386-3.8994-4.1613-3.9265z" fill="#d11b12"/>
<path d="m77.233 280.39c-1.0802-0.0139-2.1658 0.38626-3.0041 1.2034l-3.2518 3.1702c-0.20805 0.2028-0.39072 0.42152-0.54814 0.65222 0.23688 0.044 0.47935 0.0726 0.72882 0.0756l4.5409 0.0553c2.3142 0.0282 4.2011-1.7913 4.2719-4.0945-0.78299-0.69228-1.757-1.0498-2.7376-1.0623z" fill="#a83f64"/>
<path d="m77.233 280.39c-0.89205-0.0114-1.7852 0.2643-2.5422 0.8192 1.4639 0.98531 3.4009 0.95321 4.8398-0.10151-0.69379-0.46707-1.494-0.70741-2.2976-0.71769z" fill="#7f0906"/>
<path d="m79.908 282.05c-1.7558 0.30018-3.1329 1.6734-3.438 3.4276 1.7527-0.29867 3.1316-1.6698 3.438-3.4276z" fill="#4d1335"/>
<path d="m80.691 275.07c-0.98109 1.4464-0.96428 3.3598 0.05329 4.797 0.98138-1.4466 0.96474-3.3596-0.05329-4.797z" fill="#a54f00"/>
<path d="m76.471 276.88c0.30587 1.7556 1.6853 3.1291 3.4436 3.4271-0.30462-1.752-1.6822-3.1276-3.4436-3.4271z" fill="#ad0200"/>
<path d="m85.071 276.83c-1.7508 0.31509-3.1203 1.7032-3.4071 3.4717 1.7543-0.31632 3.1217-1.7065 3.4071-3.4717z" fill="#528100"/>
</g>
</g>
</svg>
