<svg width="128" height="128" version="1.1" viewBox="0 0 33.867 33.867" xmlns="http://www.w3.org/2000/svg" xmlns:xlink="http://www.w3.org/1999/xlink">
<defs>
<radialGradient id="radialGradient1071" cx="16.572" cy="285.91" r="15.368" gradientTransform="matrix(.99986 -.00064608 .00054626 .84538 -.096236 39.231)" gradientUnits="userSpaceOnUse">
<stop stop-color="#86d0fb" offset="0"/>
<stop stop-color="#2794f5" offset="1"/>
</radialGradient>
<clipPath id="clipPath901">
<path d="m-24.238 320.36c-0.38428-0.0312-0.0874-0.0624 1.2849-0.13505 3.8981-0.20629 4.6083-0.28074 5.9631-0.62508 1.2502-0.31778 2.8557-0.9221 2.7392-1.0311-0.03594-0.0337-0.48302-0.1301-0.99351-0.21447-0.51048-0.0843-1.1125-0.20063-1.3379-0.25843-0.36258-0.093-0.55564-0.0924-1.6776 5e-3 -0.69735 0.0607-1.7337 0.16353-2.303 0.22841-0.56928 0.0649-1.5009 0.1185-2.0702 0.11916-1.4685 2e-3 -2.2052-0.14581-3.677-0.73683-0.19892-0.08-0.247-0.0642-0.67325 0.21953-0.55063 0.36653-1.7626 0.94477-1.9805 0.94493-0.08573 5e-5 -0.2464-0.0706-0.35705-0.15726-0.33352-0.2609-0.73691-0.64734-0.73695-0.70596-1.9e-5 -0.0303 0.46565-0.25802 1.0348-0.50609 0.56917-0.24805 1.0348-0.49166 1.0348-0.54133-3.2e-5 -0.0496-0.0804-0.14279-0.17861-0.20712-0.3604-0.2358-0.23342-0.29047 1.0527-0.45319 1.1943-0.15109 1.2512-0.16593 1.8911-0.49266 0.36287-0.18529 0.67928-0.31738 0.70313-0.29356 0.02385 0.0239-0.0081 0.11682-0.07089 0.20667-0.06284 0.0897-0.11424 0.18832-0.11422 0.21885 2e-5 0.0305 0.60238 0.0552 1.3386 0.0549 1.9573-7.4e-4 2.6663 0.1366 4.818 0.93459 0.63893 0.23692 1.3063 0.47806 1.483 0.53586 0.2768 0.0905 2.3578 0.52157 2.521 0.52222 0.1733 6.8e-4 -0.14971-0.1979-1.2747-0.78369-0.68762-0.35802-1.7396-0.97529-2.3377-1.3717-0.59811-0.3964-1.5374-0.96056-2.0873-1.2537-1.0692-0.56993-1.3913-0.77303-2.0807-1.3117-0.24096-0.18829-0.46246-0.34232-0.49223-0.3423-0.02977 2e-5 -0.26291 0.13205-0.51811 0.29349-0.76839 0.48597-1.3354 0.70243-2.8987 1.1065-0.82051 0.21208-1.5084 0.4022-1.5286 0.42247-0.09878 0.0989 0.10112 0.099 0.84489 5.1e-4 0.44582-0.0591 0.96681-0.10762 1.1578-0.10775 0.34686-2.2e-4 0.80384 0.17016 0.73884 0.27547-0.08738 0.1416-1.5558 0.62833-3.6103 1.1968-1.2366 0.34212-2.3124 0.62545-2.3906 0.62965-0.10398 6e-3 -0.20442-0.10774-0.37306-0.4206-0.12692-0.23549-0.2317-0.48091-0.23285-0.54536-0.0022-0.12016 0.33209-0.28625 0.76436-0.37981 0.42444-0.0919 0.31051-0.16858-0.32033-0.21566-0.34371-0.0257-0.6634-0.0589-0.71044-0.0737-0.10737-0.0339-0.26721-0.6063-0.18784-0.6726 0.03228-0.0269 0.23536-0.101 0.45127-0.1645 0.21591-0.0635 0.63172-0.18544 0.92402-0.27097 0.65796-0.19248 0.57307-0.26059-0.36642-0.29398-0.67321-0.0239-0.69677-0.0193-0.8972 0.17289-0.11321 0.10853-0.22772 0.1756-0.25446 0.14889-0.08873-0.0886-0.05059-0.47569 0.05882-0.59674 0.09687-0.1072 0.08454-0.16879-0.1227-0.61234l-0.23042-0.49316-0.0197-3.1768-0.0197-3.1768 0.13869 0.89009c0.07629 0.48956 0.27248 1.6138 0.436 2.4983 0.19596 1.06 0.31275 1.9246 0.34258 2.5363l0.04527 0.92803 0.37188-0.35718c0.36847-0.35391 0.37261-0.36272 0.45096-0.9608 0.11505-0.87808 0.74377-3.2756 1.0853-4.1386 0.34415-0.86963 1.0471-2.0841 1.7725-3.0622 0.56331-0.75956 2.7679-3.0147 2.9473-3.0148 0.1458-1e-4 -0.33517 0.96434-1.7629 3.5349-1.2122 2.1826-3.2245 6.0938-3.1655 6.1528 0.03677 0.0367 0.28323-0.28629 1.2964-1.6992 0.53385-0.74447 1.5344-1.7597 2.2807-2.3142 0.80455-0.59778 2.1342-1.362 3.7341-2.1462 0.75734-0.37122 1.3916-0.67495 1.4095-0.67496 0.17609-1.1e-4 -0.36571 1.0695-1.1214 2.2138-0.96932 1.4678-2.057 2.3882-4.0895 3.4604-1.8951 0.99976-3.2884 1.7846-3.4789 1.9595-0.16716 0.15347-0.26409 0.36765-0.16635 0.36759 0.0565-3e-5 2.0075-0.84521 2.9321-1.2702 1.2909-0.59331 2.6527-1.2816 4.0109-2.0269 1.2721-0.69814 2.0277-1.0484 2.7332-1.2667 0.5738-0.17763 1.1421-0.26011 1.1421-0.16578 2.4e-5 0.0381-0.20964 0.18465-0.46591 0.32573-0.25627 0.14113-1.163 0.71399-2.015 1.2731-1.5827 1.0387-2.7673 1.702-3.6017 2.0167-0.695 0.26212-2.7107 0.86686-4.0581 1.2175-0.6514 0.16951-1.2456 0.34183-1.3204 0.38292-0.18513 0.10171-0.92118 0.85883-0.87738 0.90256 0.04874 0.0487 2.6589-0.83482 4.397-1.4883 1.6575-0.62318 2.4897-0.87459 4.7351-1.4305 1.828-0.45256 3.1876-0.73442 3.2486-0.67344 0.08088 0.0807-0.18528 0.47538-0.48514 0.71925-0.41833 0.3402-1.2108 0.84267-1.7673 1.1205-0.54789 0.27355-0.71362 0.40748-0.71352 0.57658 6.3e-5 0.0975 0.12041 0.15049 0.55342 0.24386 2.1105 0.45513 3.8489 1.2081 4.9958 2.1638 0.64105 0.53424 2.4202 2.6049 2.6905 3.1315 0.13474 0.26244 0.25916 0.34345 0.63553 0.41381 0.31496 0.0589 0.33872-0.0165 0.08107-0.25692-0.62335-0.58192-1.2815-1.7804-1.9567-3.5628-0.20072-0.52994-0.54483-1.3421-0.76469-1.8048-0.38745-0.81544-0.45763-1.166-0.14589-0.72879 0.08391 0.11762 0.42898 0.50289 0.76686 0.85604 0.79565 0.83165 1.682 2.1736 2.2242 3.3673 0.23513 0.51766 0.54449 1.5446 0.61795 2.0512 0.04899 0.33786 0.0644 0.35717 0.39206 0.4914 0.18759 0.0769 0.35962 0.12111 0.38229 0.0985 0.02268-0.0227-0.05629-0.21178-0.17545-0.42016-0.11916-0.20839-0.46431-0.95697-0.76699-1.6635-0.52464-1.2247-1.706-3.8175-2.5606-5.6202-0.21866-0.46121-0.36421-0.8386-0.32344-0.83862 0.09839-7e-5 0.80212 0.54745 1.2123 0.94317 0.45534 0.43931 0.83178 0.95922 1.3555 1.8721 1.0396 1.8121 1.7841 3.6465 2.1775 5.365l0.19821 0.86585 0.7522 0.36451c0.41371 0.20047 0.76719 0.34949 0.7855 0.33116 0.018289-0.0183-0.082364-0.16118-0.22367-0.31741-0.30307-0.33504-0.43658-0.58488-0.82329-1.5407-0.507-1.2532-0.69211-1.6724-1.6225-3.6742-1.3704-2.9486-1.5312-3.3105-1.4886-3.352 0.07603-0.0739 0.66289 0.6509 1.1394 1.4075 0.2655 0.42156 0.76494 1.2 1.1099 1.7298 1.2093 1.8575 2.0997 4.0574 2.2533 5.5669 0.025925 0.25519 0.082575 0.48757 0.12592 0.51639 0.043199 0.0288-0.16431 0.0531-0.46127 0.0539-0.42868 1e-3 -0.61484-0.0346-0.90371-0.17377-0.2001-0.0964-0.45514-0.19691-0.56677-0.22339-0.11163-0.0264-0.25117-0.0876-0.3101-0.13594-0.13119-0.10749-1.5254-0.67742-1.6557-0.67689-0.05157 1.9e-4 -0.23298 0.27338-0.40312 0.60707l-0.30936 0.60669-2.3788 0.0011 1.0797-0.58945c1.5942-0.8703 1.6048-0.88157 0.99264-1.0526l-0.32183-0.0898-0.44723 0.41521c-0.24598 0.22838-0.70324 0.61818-1.0161 0.86624l-0.56891 0.45104-3.964-0.0106c-2.1802-6e-3 -4.1889-0.0283-4.4637-0.0507zm12.136-0.0149c0.11776-0.0323 0.4632-0.13086 0.76762-0.21893 0.30442-0.0882 0.57746-0.13606 0.60674-0.10666 0.02928 0.0296-0.04308 0.13089-0.16082 0.22549-0.19039 0.15285-0.28114 0.17112-0.82086 0.16528-0.45162-6e-3 -0.55205-0.0216-0.39268-0.0651zm4.2942-0.44719c-0.13499-0.28458-0.50412-1.224-0.8202-2.0876-0.31609-0.86359-0.69191-1.8753-0.83516-2.2482-0.57081-1.486-1.095-3.4973-0.91147-3.4975 0.09915-7e-5 0.99877 0.96824 1.447 1.5576 0.94219 1.2386 1.8566 3.808 2.1696 6.0966l0.09515 0.69598-0.8995 5.8e-4zm1.7064 0.35584c-0.018938-0.0884-0.11779-0.62584-0.21947-1.1945-0.10166-0.56861-0.27797-1.4037-0.3917-1.8558-0.41898-1.6655-0.7088-3.7843-0.51764-3.7844 0.24109-1.6e-4 1.0408 1.5184 1.3341 2.5334 0.22815 0.78945 0.67118 3.1567 0.73138 3.9081l0.044268 0.55324-0.47325 3.1e-4c-0.43298 2.8e-4 -0.47618-0.0129-0.50779-0.1603zm3.3459-0.71348c-0.26098-0.24382-0.61122-0.62108-0.77832-0.83833-0.51733-0.67264-0.76267-1.2871-0.51398-1.2872 0.18282-1.2e-4 2.2 1.3392 2.9391 1.9515 0.26152 0.21662 0.21707 0.27626-0.35192 0.47245-0.65926 0.22729-0.75611 0.20497-1.2949-0.29837zm-25.155-7e-3c-0.30631-0.14655-0.5-0.27827-0.46222-0.31431 0.07656-0.073 1.821-0.43341 2.0989-0.43359 0.10498-7e-5 0.21062 0.0197 0.23477 0.0437 0.14977 0.14956-0.82641 0.95611-1.1575 0.95632-0.10269 7e-5 -0.42398-0.11346-0.71396-0.25215zm26.873-0.60943c-1.1716-0.99851-2.0159-2.0247-2.5371-3.0837-0.21845-0.44383-0.25678-0.48096-0.76766-0.74353-1.1697-0.60119-1.6027-0.99857-2.1495-1.9728-0.2295-0.40888-0.28197-0.66158-0.15388-0.74088 0.039354-0.0243 0.31754 0.0231 0.61825 0.10543 0.30761 0.0841 0.57375 0.12258 0.60846 0.0879 0.034668-0.0347-0.044039-0.20002-0.17992-0.37782-0.40241-0.52631-0.67748-1.0131-0.77235-1.3669-0.049449-0.18465-0.070629-0.35506-0.047085-0.37871 0.060121-0.0602 0.48387 0.17149 1.2301 0.67246 0.35077 0.23548 0.66096 0.41378 0.6893 0.39622 0.028389-0.0176-0.073144-0.39328-0.22563-0.83496-0.15244-0.44169-0.27805-0.84321-0.27912-0.89229-0.00454-0.21006 0.14808-0.0484 0.53926 0.57076 0.67491 1.0683 1.3859 2.0299 1.85 2.5022 0.47057 0.47886 0.44342 0.46222 1.5378 0.94319 0.41239 0.18123 1.4086 0.67779 2.2138 1.1034 0.80519 0.42566 1.5523 0.81316 1.6603 0.86113 0.23693 0.10523 0.24049 0.16079 0.03371 0.52638-0.13568 0.23984-0.20982 0.29334-0.48049 0.34653-0.17603 0.0346-0.33358 0.0759-0.35008 0.0917-0.01653 0.0158 0.04427 0.10784 0.13509 0.20429 0.1539 0.16362 0.15756 0.18684 0.054233 0.34472-0.17398 0.26589-1.1949 1.2646-1.2928 1.2647-0.17727 1.1e-4 -1.1068-0.86204-1.6134-1.4964-0.50236-0.62912-1.1391-1.1276-1.3074-1.0234-0.035696 0.0221 0.541 0.64875 1.2815 1.3926l1.3463 1.3524-0.17769 0.14503c-0.14785 0.12056-0.80441 0.48734-0.87251 0.48735-0.01171 1e-5 -0.27737-0.21915-0.59164-0.48699zm3.2813-3.9729c-1.2067-0.31137-1.4275-0.39503-2.2058-0.83593-1.3375-0.75771-1.5627-0.94361-3.1188-2.5746-0.75229-0.78851-1.2781-1.4026-1.3905-1.6241-0.31044-0.61161-0.59559-1.5726-0.78375-2.6412-0.27584-1.5666-0.25292-1.6321 0.30367-0.86792 0.19451 0.26707 0.59288 0.77278 0.88526 1.1238 0.29237 0.35102 1.0091 1.2644 1.5928 2.0296 2.0288 2.6601 2.9289 3.5603 4.8384 4.8393 0.54042 0.36198 0.69954 0.43135 0.69946 0.30497-2.26e-5 -0.035-0.20444-0.50866-0.45427-1.0527-0.24984-0.54403-0.4954-1.1149-0.54569-1.2687-0.050299-0.15372-0.20887-0.4106-0.35241-0.57088-0.14355-0.16026-0.44009-0.51615-0.65902-0.79085-0.21893-0.2747-0.8238-0.99713-1.3442-1.6054-1.8382-2.1486-2.3768-3.1675-2.7917-5.281-0.3441-1.7526-0.34792-2.3877-0.013025-2.0346 1.2108 1.2736 2.7818 3.1812 3.4079 4.1384 0.81541 1.2464 1.1077 1.9755 1.6805 4.1914 0.32921 1.2736 0.5137 1.8334 0.8587 2.6051 0.24166 0.54065 0.46854 1.0135 0.5042 1.0508 0.096816 0.10122 0.08099-0.15558-0.084767-1.3885-0.088545-0.65825-0.17408-1.8438-0.21111-2.9268-0.034167-1.0012-0.11429-2.2219-0.17807-2.7127-0.073697-0.56781-0.1001-1.1-0.072526-1.4634 0.023797-0.31414 0.044177-0.94862 0.045049-1.41 9.984e-4 -0.46135 0.023167-0.83883 0.049518-0.83884 0.026199-2e-5 0.28056 0.53926 0.5651 1.1984l0.51732 1.1984-0.00258 2.8169c-0.00258 2.8104-0.050852 3.9738-0.19914 4.8516-0.16082 0.95226-0.40845 1.7863-0.52906 1.782-0.045961-1e-3 -0.5012-0.11077-1.0117-0.24251z" fill="#5d1b1c"/>
</clipPath>
<linearGradient id="linearGradient1359" x1="15.695" x2="15.695" y1="291.75" y2="282.07" gradientTransform="translate(1.0563e-5)" gradientUnits="userSpaceOnUse">
<stop stop-color="#132e51" offset="0"/>
<stop stop-color="#2767b9" offset="1"/>
</linearGradient>
<linearGradient id="linearGradient1367" x1="16.419" x2="16.846" y1="285.3" y2="273.45" gradientTransform="translate(-9.8874e-6)" gradientUnits="userSpaceOnUse">
<stop stop-color="#eefefe" offset="0"/>
<stop stop-color="#d6fefe" offset="1"/>
</linearGradient>
</defs>
<g transform="translate(0 -263.13)">
<g transform="matrix(1.2364 0 0 1.2365 .29131 -65.017)" opacity=".25" stroke-width=".80877">
<rect transform="rotate(.037023)" x=".28721" y="268.64" width="26.706" height="21.441" opacity="1"/>
<rect transform="rotate(.037023)" x="1.1403" y="269.45" width="24.858" height="19.882" opacity="1"/>
<path d="m0.959 280.68-0.005595 8.658 24.858 0.0161 0.0056-8.658z" opacity="1"/>
</g>
<rect transform="rotate(.037023)" x=".60408" y="266.6" width="33.02" height="26.511" fill="#ececec" stroke="#999" stroke-width=".3"/>
<rect transform="rotate(.037023)" x="1.6589" y="267.61" width="30.736" height="24.583" fill="url(#radialGradient1071)"/>
<path d="m16.846 273.45c3.6478 0 6.605 2.9572 6.605 6.605 0 3.6478-2.9572 6.605-6.605 6.605s-6.605-2.9572-6.605-6.605c0-3.6478 2.9572-6.605 6.605-6.605z" fill="url(#linearGradient1367)" fill-rule="evenodd" stroke-width=".26458"/>
<path d="m1.4815 281.49-0.00692 10.705 30.736 0.0199 0.0069-10.705z" fill="url(#linearGradient1359)"/>
<rect transform="rotate(.037023 40294 49211)" x="-30.132" y="293.66" width="30.736" height="24.583" clip-path="url(#clipPath901)" fill="#132e51"/>
</g>
</svg>
