<svg width="128" height="128" version="1.1" viewBox="0 0 33.867 33.867" xmlns="http://www.w3.org/2000/svg" xmlns:osb="http://www.openswatchbook.org/uri/2009/osb" xmlns:xlink="http://www.w3.org/1999/xlink">
<defs>
<linearGradient id="linearGradient1503-8" x1="10.733" x2="10.733" y1="261.04" y2="285" gradientTransform="matrix(.96678 0 0 .96677 .87285 9.4386)" gradientUnits="userSpaceOnUse">
<stop stop-color="#e5e5e5" offset="0"/>
<stop stop-color="#fff" offset="1"/>
</linearGradient>
<radialGradient id="radialGradient935-3" cx="190.85" cy="148.93" r="53.835" gradientTransform="matrix(1.1739 0 0 1.1739 -131.41 -151.99)" gradientUnits="userSpaceOnUse">
<stop offset="0"/>
<stop stop-opacity=".74118" offset=".27788"/>
<stop stop-opacity=".26275" offset=".5838"/>
<stop stop-opacity=".21569" offset=".62282"/>
<stop stop-opacity=".17255" offset=".66894"/>
<stop stop-opacity=".13333" offset=".70968"/>
<stop stop-opacity=".090196" offset=".76299"/>
<stop stop-opacity=".066667" offset=".79677"/>
<stop stop-opacity=".031373" offset=".86607"/>
<stop stop-opacity=".027451" offset=".88823"/>
<stop stop-opacity=".023529" offset=".90482"/>
<stop stop-opacity=".019608" offset=".91823"/>
<stop stop-opacity=".011765" offset=".9452"/>
<stop stop-opacity="0" offset="1"/>
</radialGradient>
<radialGradient id="radialGradient4906" cx="508" cy="881" r="206" gradientTransform="matrix(1 0 0 .5 0 440.5)" gradientUnits="userSpaceOnUse" xlink:href="#linearGradient4254"/>
<linearGradient id="linearGradient4254">
<stop offset="0"/>
<stop stop-opacity="0" offset="1"/>
</linearGradient>
<radialGradient id="radialGradient4908" cx="507.5" cy="964.5" r="58" gradientTransform="matrix(1 0 0 .5 0 482.25)" gradientUnits="userSpaceOnUse" xlink:href="#linearGradient4254"/>
<linearGradient id="linearGradient3837">
<stop stop-color="#db9824" offset="0"/>
<stop stop-color="#b03510" offset="1"/>
</linearGradient>
<linearGradient id="linearGradient4914" x1="34.787" x2="508.82" y1="326.46" y2="960" gradientTransform="translate(3.1789)" gradientUnits="userSpaceOnUse" xlink:href="#linearGradient3837"/>
<linearGradient id="linearGradient4916" x1="37.966" x2="327.19" y1="326.46" y2="640.88" gradientUnits="userSpaceOnUse" xlink:href="#linearGradient3878"/>
<linearGradient id="linearGradient3878">
<stop stop-color="#d27e1c" offset="0"/>
<stop stop-color="#c04310" offset="1"/>
</linearGradient>
<linearGradient id="linearGradient4918" x1="37.877" x2="511.89" y1="326.46" y2="960" gradientTransform="matrix(-1 0 0 1 1023.9 0)" gradientUnits="userSpaceOnUse" xlink:href="#linearGradient3837"/>
<linearGradient id="linearGradient4920" x1="37.955" x2="327.19" y1="326.46" y2="640.88" gradientTransform="matrix(-1 0 0 1 1024 0)" gradientUnits="userSpaceOnUse" xlink:href="#linearGradient3878"/>
<linearGradient id="linearGradient4922" x1="512" x2="512" y1="473" y2="960" gradientUnits="userSpaceOnUse">
<stop stop-color="#e39131" offset="0"/>
<stop stop-color="#dc8929" offset=".34805"/>
<stop stop-color="#efd56d" offset="1"/>
</linearGradient>
<linearGradient id="linearGradient4924" x1="230" x2="794" y1="372.25" y2="372.25" gradientUnits="userSpaceOnUse">
<stop stop-color="#d9601f" offset="0"/>
<stop stop-color="#e0913b" offset=".5"/>
<stop stop-color="#e8c357" offset="1"/>
</linearGradient>
<linearGradient id="linearGradient4926" x1="230" x2="353" y1="473" y2="271.5" gradientUnits="userSpaceOnUse" xlink:href="#linearGradient4852"/>
<linearGradient id="linearGradient4852">
<stop stop-color="#fff" offset="0"/>
<stop stop-color="#f2de9f" offset="1"/>
</linearGradient>
<linearGradient id="linearGradient4928" x1="794" x2="671" y1="473.56" y2="271.5" gradientUnits="userSpaceOnUse" xlink:href="#linearGradient4852"/>
<linearGradient id="linearGradient4930" x1="512" x2="512" y1="102" y2="263" gradientUnits="userSpaceOnUse">
<stop stop-color="#f7eccb" offset="0"/>
<stop stop-color="#e2b62c" offset=".52172"/>
<stop stop-color="#d14717" offset="1"/>
</linearGradient>
<linearGradient id="linearGradient4932" x1="511.5" x2="511.5" y1="186" y2="135.88" gradientUnits="userSpaceOnUse">
<stop stop-color="#fff" offset="0"/>
<stop stop-color="#fff" stop-opacity="0" offset="1"/>
</linearGradient>
<linearGradient id="linearGradient4934" x1="512" x2="512" y1="186" y2="263" gradientUnits="userSpaceOnUse">
<stop stop-color="#eed379" offset="0"/>
<stop stop-color="#e08f2a" offset="1"/>
</linearGradient>
<linearGradient id="linearGradient4936" x1="353" x2="37.966" y1="271.5" y2="326.46" gradientUnits="userSpaceOnUse" xlink:href="#linearGradient3972"/>
<linearGradient id="linearGradient3972">
<stop stop-color="#e89e28" offset="0"/>
<stop stop-color="#ebab2a" offset=".5"/>
<stop stop-color="#fff" offset="1"/>
</linearGradient>
<linearGradient id="linearGradient1737" x1="37.966" x2="353" y1="249.73" y2="249.73" gradientUnits="userSpaceOnUse" xlink:href="#linearGradient4886"/>
<linearGradient id="linearGradient4886">
<stop stop-color="#f6ead8" offset="0"/>
<stop stop-color="#e6bf57" offset=".5"/>
<stop stop-color="#dfae2a" offset="1"/>
</linearGradient>
<linearGradient id="linearGradient4941" x1="353" x2="37.989" y1="271.5" y2="326.46" gradientUnits="userSpaceOnUse" xlink:href="#linearGradient3972"/>
<linearGradient id="linearGradient4945" x1="512" x2="512" y1="493.38" y2="960" gradientTransform="matrix(.99206 0 0 .99206 4.0636 7.6193)" gradientUnits="userSpaceOnUse">
<stop stop-color="#d3611f" offset="0"/>
<stop stop-color="#e8bc53" offset="1"/>
</linearGradient>
<linearGradient id="linearGradient4947" x1="512" x2="512" y1="960" y2="528.15" gradientUnits="userSpaceOnUse">
<stop stop-color="#f1db80" offset="0"/>
<stop stop-color="#fff" stop-opacity=".18431" offset=".5"/>
<stop stop-color="#fff" stop-opacity=".18321" offset="1"/>
</linearGradient>
<linearGradient id="linearGradient4949" x1="37.966" x2="241.8" y1="326.46" y2="493.55" gradientUnits="userSpaceOnUse" xlink:href="#linearGradient5025"/>
<linearGradient id="linearGradient5025">
<stop stop-color="#e1b042" offset="0"/>
<stop stop-color="#d4831f" offset="1"/>
</linearGradient>
<linearGradient id="linearGradient4951" x1="38.282" x2="242.09" y1="326.46" y2="493.38" gradientTransform="matrix(-1 0 0 1 1024.3 0)" gradientUnits="userSpaceOnUse" xlink:href="#linearGradient5025"/>
</defs>
<g transform="translate(0 -263.13)">
<g transform="translate(-26.313 6.0567)" fill="none">
<path d="m31.618 258.21v31.496h23.878v-17.674c-0.04555-0.80283-0.09817-1.5214-0.3018-2.2499-0.20714-0.74109-0.53356-1.4428-0.92367-2.1143-0.49918-0.85923-1.3428-1.4132-2.0925-2.1174-0.45486-0.4125-1.4373-1.3923-2.6264-2.5622-1.1794-1.1603-2.5626-2.508-3.7174-3.5551-0.34107-0.30778-0.83651-0.6272-1.2968-0.81166-0.35742-0.14324-0.7779-0.2324-1.1839-0.29231-0.41861-0.0618-0.8218-0.0925-1.1245-0.11938z" stroke="#000" stroke-linecap="round" stroke-linejoin="round" stroke-opacity=".011765" stroke-width=".1"/>
<path d="m31.618 258.21v31.496h23.878v-17.674c-0.04555-0.80283-0.09817-1.5214-0.3018-2.2499-0.20714-0.74109-0.53356-1.4428-0.92367-2.1143-0.49918-0.85923-1.3428-1.4132-2.0925-2.1174-0.45486-0.4125-1.4373-1.3923-2.6264-2.5622-1.1794-1.1603-2.5626-2.508-3.7174-3.5551-0.34107-0.30778-0.83651-0.6272-1.2968-0.81166-0.35742-0.14324-0.7779-0.2324-1.1839-0.29231-0.41861-0.0618-0.8218-0.0925-1.1245-0.11938z" stroke="#000" stroke-linecap="round" stroke-linejoin="round" stroke-opacity=".011765" stroke-width=".2"/>
<path d="m31.618 258.21v31.496h23.878v-17.674c-0.04555-0.80283-0.09817-1.5214-0.3018-2.2499-0.20714-0.74109-0.53356-1.4428-0.92367-2.1143-0.49918-0.85923-1.3428-1.4132-2.0925-2.1174-0.45486-0.4125-1.4373-1.3923-2.6264-2.5622-1.1794-1.1603-2.5626-2.508-3.7174-3.5551-0.34107-0.30778-0.83651-0.6272-1.2968-0.81166-0.35742-0.14324-0.7779-0.2324-1.1839-0.29231-0.41861-0.0618-0.8218-0.0925-1.1245-0.11938z" stroke="#000" stroke-linecap="round" stroke-linejoin="round" stroke-opacity=".011765" stroke-width=".3"/>
<path d="m31.618 258.21v31.496h23.878v-17.674c-0.04555-0.80283-0.09817-1.5214-0.3018-2.2499-0.20714-0.74109-0.53356-1.4428-0.92367-2.1143-0.49918-0.85923-1.3428-1.4132-2.0925-2.1174-0.45486-0.4125-1.4373-1.3923-2.6264-2.5622-1.1794-1.1603-2.5626-2.508-3.7174-3.5551-0.34107-0.30778-0.83651-0.6272-1.2968-0.81166-0.35742-0.14324-0.7779-0.2324-1.1839-0.29231-0.41861-0.0618-0.8218-0.0925-1.1245-0.11938z" stroke="#000" stroke-linecap="round" stroke-linejoin="round" stroke-opacity=".011765" stroke-width=".4"/>
<path d="m31.618 258.21v31.496h23.878v-17.674c-0.04555-0.80283-0.09817-1.5214-0.3018-2.2499-0.20714-0.74109-0.53356-1.4428-0.92367-2.1143-0.49918-0.85923-1.3428-1.4132-2.0925-2.1174-0.45486-0.4125-1.4373-1.3923-2.6264-2.5622-1.1794-1.1603-2.5626-2.508-3.7174-3.5551-0.34107-0.30778-0.83651-0.6272-1.2968-0.81166-0.35742-0.14324-0.7779-0.2324-1.1839-0.29231-0.41861-0.0618-0.8218-0.0925-1.1245-0.11938z" stroke="#000" stroke-linecap="round" stroke-linejoin="round" stroke-opacity=".011765" stroke-width=".6"/>
<path d="m31.618 258.21v31.496h23.878v-17.674c-0.04555-0.80283-0.09817-1.5214-0.3018-2.2499-0.20714-0.74109-0.53356-1.4428-0.92367-2.1143-0.49918-0.85923-1.3428-1.4132-2.0925-2.1174-0.45486-0.4125-1.4373-1.3923-2.6264-2.5622-1.1794-1.1603-2.5626-2.508-3.7174-3.5551-0.34107-0.30778-0.83651-0.6272-1.2968-0.81166-0.35742-0.14324-0.7779-0.2324-1.1839-0.29231-0.41861-0.0618-0.8218-0.0925-1.1245-0.11938z" stroke="#000" stroke-linecap="round" stroke-linejoin="round" stroke-opacity=".011765" stroke-width=".8"/>
<path d="m31.618 258.21v31.496h23.878v-17.674c-0.04555-0.80283-0.09817-1.5214-0.3018-2.2499-0.20714-0.74109-0.53356-1.4428-0.92367-2.1143-0.49918-0.85923-1.3428-1.4132-2.0925-2.1174-0.45486-0.4125-1.4373-1.3923-2.6264-2.5622-1.1794-1.1603-2.5626-2.508-3.7174-3.5551-0.34107-0.30778-0.83651-0.6272-1.2968-0.81166-0.35742-0.14324-0.7779-0.2324-1.1839-0.29231-0.41861-0.0618-0.8218-0.0925-1.1245-0.11938z" stroke="#000" stroke-linecap="round" stroke-linejoin="round" stroke-opacity=".011765"/>
<path d="m31.618 258.21v31.496h23.878v-17.674c-0.04555-0.80283-0.09817-1.5214-0.3018-2.2499-0.20714-0.74109-0.53356-1.4428-0.92367-2.1143-0.49918-0.85923-1.3428-1.4132-2.0925-2.1174-0.45486-0.4125-1.4373-1.3923-2.6264-2.5622-1.1794-1.1603-2.5626-2.508-3.7174-3.5551-0.34107-0.30778-0.83651-0.6272-1.2968-0.81166-0.35742-0.14324-0.7779-0.2324-1.1839-0.29231-0.41861-0.0618-0.8218-0.0925-1.1245-0.11938z" stroke="#000" stroke-linecap="round" stroke-linejoin="round" stroke-opacity=".011765" stroke-width="1.3"/>
<path d="m31.618 258.21v31.496h23.878v-17.674c-0.04555-0.80283-0.09817-1.5214-0.3018-2.2499-0.20714-0.74109-0.53356-1.4428-0.92367-2.1143-0.49918-0.85923-1.3428-1.4132-2.0925-2.1174-0.45486-0.4125-1.4373-1.3923-2.6264-2.5622-1.1794-1.1603-2.5626-2.508-3.7174-3.5551-0.34107-0.30778-0.83651-0.6272-1.2968-0.81166-0.35742-0.14324-0.7779-0.2324-1.1839-0.29231-0.41861-0.0618-0.8218-0.0925-1.1245-0.11938z" stroke="#000" stroke-linecap="round" stroke-linejoin="round" stroke-opacity=".011765" stroke-width="1.6"/>
<path d="m31.618 258.21v31.496h23.878v-17.674c-0.04555-0.80283-0.09817-1.5214-0.3018-2.2499-0.20714-0.74109-0.53356-1.4428-0.92367-2.1143-0.49918-0.85923-1.3428-1.4132-2.0925-2.1174-0.45486-0.4125-1.4373-1.3923-2.6264-2.5622-1.1794-1.1603-2.5626-2.508-3.7174-3.5551-0.34107-0.30778-0.83651-0.6272-1.2968-0.81166-0.35742-0.14324-0.7779-0.2324-1.1839-0.29231-0.41861-0.0618-0.8218-0.0925-1.1245-0.11938z" stroke="#000" stroke-linecap="round" stroke-linejoin="round" stroke-opacity=".011765" stroke-width="2.1"/>
<path d="m31.618 258.21v31.496h23.878v-17.674c-0.04555-0.80283-0.09817-1.5214-0.3018-2.2499-0.20714-0.74109-0.53356-1.4428-0.92367-2.1143-0.49918-0.85923-1.3428-1.4132-2.0925-2.1174-0.45486-0.4125-1.4373-1.3923-2.6264-2.5622-1.1794-1.1603-2.5626-2.508-3.7174-3.5551-0.34107-0.30778-0.83651-0.6272-1.2968-0.81166-0.35742-0.14324-0.7779-0.2324-1.1839-0.29231-0.41861-0.0618-0.8218-0.0925-1.1245-0.11938z" stroke-width="0"/>
</g>
<g transform="matrix(.53602 0 0 .53727 -234.93 -13.785)" stroke-width="4.0845"></g>
<g transform="matrix(.53602 0 0 .53727 -234.93 -13.76)" stroke-width="4.0845"></g>
<path d="m5.3049 264.27v31.496h23.878v-17.674c-0.04555-0.80283-0.09817-1.5214-0.3018-2.2499-0.20714-0.74109-0.53356-1.4428-0.92367-2.1143-0.49918-0.85923-1.3428-1.4132-2.0925-2.1174-0.45486-0.4125-1.4373-1.3923-2.6264-2.5622-1.1794-1.1603-2.5626-2.508-3.7174-3.5551-0.34107-0.30778-0.83651-0.6272-1.2968-0.81166-0.35742-0.14324-0.7779-0.2324-1.1839-0.29231-0.41861-0.0618-0.8218-0.0925-1.1245-0.11938z" fill="url(#linearGradient1503-8)"/>
<g transform="translate(-1.0846 1.4781)">
<g transform="matrix(.01806 0 0 .01806 8.2515 267.01)" stroke-width=".36125">
<path d="m337.03 102.04-163.99 70.995-135.02 153.46 473.96 633.48 281.98-486.96-281.95 486.96 473.93-633.48-134.99-153.46-164.99-70.995z" fill="#db9824"/>
<g stroke-width=".36125">
<g stroke-width=".36125">
<g transform="matrix(.99998 0 0 .99998 .011727 .012495)" stroke-width=".36125">
<ellipse transform="translate(4.0006)" cx="508" cy="881" rx="206" ry="103" fill="url(#radialGradient4906)" opacity=".26736"/>
<ellipse transform="translate(4.1562 -4.4753)" cx="507.5" cy="964.5" rx="58" ry="29" fill="url(#radialGradient4908)" opacity=".5"/>
<ellipse transform="matrix(.57436 0 0 .57436 220.22 418.83)" cx="508" cy="881" rx="206" ry="103" fill="url(#radialGradient4906)" opacity=".2"/>
<path d="m512 960-474.03-633.54 192.03 146.54z" opacity="0" stroke-width=".36125"/>
<path d="m512 960-474.03-633.54 192.03 146.54z" fill="url(#linearGradient4914)"/>
<path d="m37.966 326.46 192.03 146.54 97.215 167.89z" fill="url(#linearGradient4916)"/>
<path d="m512.01 960 474-633.54-192.01 146.54z" fill="url(#linearGradient4918)"/>
<path d="m986.01 326.46-192.04 146.54-97.215 167.89z" fill="url(#linearGradient4920)"/>
<path d="m794 473-282 487-282-487z" fill="url(#linearGradient4922)"/>
<path d="m230 473 123-201.5h318l123 201.5h-564" fill="url(#linearGradient4924)"/>
<path d="m230 473 441-210-318 8.5z" fill="url(#linearGradient4926)"/>
<path d="m794 473-441-210 318 8.5z" fill="url(#linearGradient4928)"/>
<path d="m173 173 164-71.001h349l165 71.001-180 90h-318z" fill="url(#linearGradient4930)"/>
<path d="m337 102 175 83.997 174-83.997h-349" fill="url(#linearGradient4932)"/>
<path d="m353 263 159-77.004 159 77.004z" fill="url(#linearGradient4934)"/>
<path d="m173 173 180 98.5 159 67.203 159-67.203 180-98.5-180 90h-318z" fill="#fff"/>
<g stroke-width=".36125">
<path d="m37.966 326.46 135.03-153.46 180 98.5-123 201.5z" fill="url(#linearGradient4936)"/>
<path d="m37.966 326.46 315.03-54.961-180-98.5z" fill="url(#linearGradient1737)"/>
<path d="m173 173 28.25 124.98 151.75-26.478z" fill="#fff" opacity=".5"/>
<path d="m201.25 297.98 151.75-26.478-123 201.5z" fill="#fff" opacity=".2"/>
</g>
<g transform="matrix(-1,0,0,1,1024,0)" stroke-width=".36125">
<path d="m37.989 326.46 135.01-153.46 180 98.5-123 201.5z" fill="url(#linearGradient4941)"/>
<path d="m37.989 326.46 315.01-54.956-180-98.5z" fill="url(#linearGradient1737)"/>
<path d="m173 173 28.25 124.98 151.75-26.478z" fill="#fff" opacity=".5"/>
<path d="m201.25 297.98 151.75-26.478-123 201.5z" fill="#fff" opacity=".2"/>
</g>
<path d="m243.94 497.08 268.03 462.92 268.08-462.92zm268.06 30.019c109.79-0.46333 218.89 23.524 218.89 23.524l-218.81 409.38-218.99-409.38s109.14-23.061 218.92-23.524z" fill="url(#linearGradient4945)"/>
<path d="m400 473h224l-111.93 487z" fill="url(#linearGradient4947)"/>
<path d="m230 473 282 487 282-487zm21.062 24.24h521.88l-260.94 462.76z" fill="#fff" opacity=".25"/>
<path d="m241.8 493.38-203.83-166.91 192.03 146.54z" fill="url(#linearGradient4949)"/>
<path d="m781.87 493.38 204.14-166.92-192.01 146.54z" fill="url(#linearGradient4951)"/>
</g>
</g>
</g>
</g>
<g transform="translate(.66991 -1.8995)" fill="#575757" stroke-width=".26458" aria-label="SVG">
<path d="m13.01 293.16q0.03376 0.24357 0.13264 0.36415 0.18087 0.21945 0.61977 0.21945 0.26286 0 0.42685-0.0579 0.31109-0.11093 0.31109-0.41238 0-0.17604-0.15434-0.2725-0.15434-0.094-0.48472-0.1664l-0.3762-0.0844q-0.55466-0.1254-0.76688-0.2725-0.35932-0.24598-0.35932-0.76929 0-0.47749 0.34727-0.79341 0.34726-0.31591 1.0201-0.31591 0.5619 0 0.95739 0.29903 0.39791 0.29662 0.4172 0.86334h-0.71382q-0.01929-0.32074-0.27974-0.45578-0.17363-0.0892-0.43167-0.0892-0.28698 0-0.4582 0.11575-0.17122 0.11576-0.17122 0.32315 0 0.19052 0.16881 0.28457 0.10852 0.0627 0.46302 0.1471l0.61254 0.14711q0.40273 0.0965 0.60772 0.25804 0.31833 0.2508 0.31833 0.72588 0 0.48713-0.37379 0.81028-0.37138 0.32074-1.0514 0.32074-0.69453 0-1.0924-0.31591-0.39791-0.31833-0.39791-0.87299z"/>
<path d="m17.853 290.7h0.7717l-1.213 3.5546h-0.70177l-1.201-3.5546h0.7934l0.7717 2.6986z"/>
<path d="m21.46 291.81q-0.08441-0.36414-0.41238-0.50884-0.18328-0.0796-0.40756-0.0796-0.42926 0-0.70659 0.32556-0.27492 0.32315-0.27492 0.97428 0 0.65594 0.29904 0.92845 0.29903 0.27251 0.68006 0.27251 0.37379 0 0.61254-0.21463 0.23875-0.21704 0.29421-0.56672h-0.82234v-0.59325h1.4807v1.9076h-0.49196l-0.07476-0.44372q-0.21463 0.25321-0.38585 0.35691-0.29421 0.18086-0.72347 0.18086-0.70659 0-1.1576-0.48954-0.47026-0.49196-0.47026-1.3457 0-0.86334 0.47508-1.3842 0.47508-0.5209 1.2564-0.5209 0.67765 0 1.0876 0.34486 0.41238 0.34244 0.47267 0.8561z"/>
</g>
</g>
<path transform="matrix(.26458 0 0 .26458 0 263.13)" d="m32.217 4.293a63.198 63.198 0 0 0-2.7832 18.547 63.198 63.198 0 0 0 63.199 63.197 63.198 63.198 0 0 0 17.662-2.5195v-26.982c-0.17216-3.0343-0.37101-5.7505-1.1406-8.5039-0.78288-2.801-2.0158-5.4522-3.4902-7.9902-1.8866-3.2475-5.0745-5.3425-7.9082-8.0039-1.7191-1.5591-5.4334-5.262-9.9277-9.6836-4.4575-4.3853-9.6843-9.4802-14.049-13.438-1.2891-1.1633-3.1627-2.3692-4.9023-3.0664-1.3509-0.54138-2.9402-0.87904-4.4746-1.1055-1.5821-0.23357-3.1058-0.34958-4.25-0.45117h-27.936z" fill="url(#radialGradient935-3)" opacity=".12137"/>
<g transform="matrix(.96577 0 0 .96577 .89 9.7195)" opacity=".405">
<path transform="matrix(.26458 0 0 .26458 0 263.13)" d="m67.66 3.2109c2.2138 7.0642 4.0981 14.045 3.6719 27.797a4.7249 4.7249 0 0 0 4.6875 4.8633c13.553 0.11187 21.724 2.5502 27.535 5.8848 2.1126 1.2123 3.9386 2.5701 5.6172 4.0449-0.80702-2.4772-1.9236-4.8485-3.2461-7.125-1.9535-3.3626-5.2534-5.5313-8.1875-8.2871-0.38115-0.34565-0.90086-0.8383-1.459-1.373-4.6071-1.1052-9.8871-1.8244-15.883-2.1348-0.078596-5.2828-0.34738-10.115-0.88281-14.246-2.2783-2.1828-4.5373-4.3121-6.6035-6.1855-1.3348-1.2045-3.2729-2.4539-5.0742-3.1758-0.05648-0.022633-0.11852-0.040551-0.17578-0.0625z" color="#000000" color-rendering="auto" dominant-baseline="auto" fill-opacity=".019608" image-rendering="auto" opacity="1" shape-rendering="auto" solid-color="#000000" style="font-feature-settings:normal;font-variant-alternates:normal;font-variant-caps:normal;font-variant-ligatures:normal;font-variant-numeric:normal;font-variant-position:normal;isolation:auto;mix-blend-mode:normal;shape-padding:0;text-decoration-color:#000000;text-decoration-line:none;text-decoration-style:solid;text-indent:0;text-orientation:mixed;text-transform:none;white-space:normal"/>
<path transform="matrix(.26458 0 0 .26458 0 263.13)" d="m67.66 3.2109c2.2138 7.0642 4.0981 14.045 3.6719 27.797a4.7249 4.7249 0 0 0 4.6875 4.8633c13.553 0.11187 21.724 2.5502 27.535 5.8848 2.1126 1.2123 3.9386 2.5701 5.6172 4.0449-0.80702-2.4772-1.9236-4.8485-3.2461-7.125-1.9535-3.3626-5.2534-5.5313-8.1875-8.2871-0.38115-0.34565-0.90086-0.8383-1.459-1.373-4.6071-1.1052-9.8871-1.8244-15.883-2.1348-0.078596-5.2828-0.34738-10.115-0.88281-14.246-2.2783-2.1828-4.5373-4.3121-6.6035-6.1855-1.3348-1.2045-3.2729-2.4539-5.0742-3.1758-0.05648-0.022633-0.11852-0.040551-0.17578-0.0625z" color="#000000" color-rendering="auto" dominant-baseline="auto" fill-opacity=".019608" image-rendering="auto" opacity="1" shape-rendering="auto" solid-color="#000000" style="font-feature-settings:normal;font-variant-alternates:normal;font-variant-caps:normal;font-variant-ligatures:normal;font-variant-numeric:normal;font-variant-position:normal;isolation:auto;mix-blend-mode:normal;shape-padding:0;text-decoration-color:#000000;text-decoration-line:none;text-decoration-style:solid;text-indent:0;text-orientation:mixed;text-transform:none;white-space:normal"/>
<path d="m19.424 264.96c0.01548 0.0249 0.53209 0.85773 0.69011 1.3264 0.42821 0.95987 0.29224 3.218 0.28445 4.8171 0.42899-0.0223 5.1595-0.73701 7.3284 1.8241-0.02928-0.0506-0.10278-0.0927-0.14377-0.17312-0.50077-0.57318-1.1396-1.0337-1.7235-1.5822-0.47098-0.42712-1.4882-1.4417-2.7195-2.653-1.1769-1.1579-2.5478-2.4932-3.7162-3.5592z" fill="#fff" opacity="1"/>
<path transform="matrix(.26458 0 0 .26458 0 263.13)" d="m62.348 2.0254c2.5307 7.9959 4.7266 14.026 4.2676 28.834a9.4498 9.4498 0 0 0 9.3594 9.7363c12.993 0.10734 20.24 2.3911 25.232 5.2559 3.7353 2.1435 6.4818 4.8161 9.4024 8.1348-0.1694-2.4465-0.42466-4.7341-1.0684-7.0371-0.81064-2.9003-2.0885-5.6455-3.6152-8.2734-1.9535-3.3626-5.2534-5.5313-8.1875-8.2871-1.7801-1.6143-5.6257-5.449-10.279-10.027-4.6155-4.5408-10.03-9.8145-14.549-13.912-1.3348-1.2045-3.2729-2.4539-5.0742-3.1758-1.3988-0.56054-3.0441-0.91005-4.6328-1.1445-0.29556-0.04364-0.5658-0.067172-0.85547-0.10352zm22.781 17.082 4.7324 4.0742c-1.4538-0.22488-3.0715-0.34506-4.6289-0.50195-0.05669-1.1469-0.01379-2.5016-0.10352-3.5723z" color="#000000" color-rendering="auto" dominant-baseline="auto" fill-opacity=".019608" image-rendering="auto" opacity="1" shape-rendering="auto" solid-color="#000000" style="font-feature-settings:normal;font-variant-alternates:normal;font-variant-caps:normal;font-variant-ligatures:normal;font-variant-numeric:normal;font-variant-position:normal;isolation:auto;mix-blend-mode:normal;shape-padding:0;text-decoration-color:#000000;text-decoration-line:none;text-decoration-style:solid;text-indent:0;text-orientation:mixed;text-transform:none;white-space:normal"/>
<path d="m15.558 263.57c0.69737 2.2242 1.2949 3.6931 1.1715 7.6745a3.0003 3.0003 0 0 0 2.9729 3.0918c3.3785 0.0279 5.1954 0.61571 6.4296 1.324 1.081 0.62035 1.8433 1.4389 2.7678 2.5249v-0.33848c-0.04716-0.83129-0.1018-1.5752-0.31264-2.3296-0.21448-0.76736-0.55259-1.4937-0.95653-2.189-0.51687-0.88969-1.39-1.4635-2.1663-2.1926-0.47098-0.42712-1.4885-1.4417-2.7197-2.6531-1.2212-1.2014-2.6537-2.5968-3.8494-3.6809-0.35316-0.3187-0.86595-0.64926-1.3426-0.84026-0.37009-0.14831-0.8054-0.24078-1.2258-0.30282-0.27389-0.0404-0.53003-0.0665-0.76894-0.0884z" color="#000000" color-rendering="auto" dominant-baseline="auto" fill-opacity=".019608" image-rendering="auto" opacity="1" shape-rendering="auto" solid-color="#000000" style="font-feature-settings:normal;font-variant-alternates:normal;font-variant-caps:normal;font-variant-ligatures:normal;font-variant-numeric:normal;font-variant-position:normal;isolation:auto;mix-blend-mode:normal;shape-padding:0;text-decoration-color:#000000;text-decoration-line:none;text-decoration-style:solid;text-indent:0;text-orientation:mixed;text-transform:none;white-space:normal"/>
<path transform="matrix(.26458 0 0 .26458 0 263.13)" d="m66.561 2.8398c2.2919 7.2585 4.2621 14.077 3.8262 28.139a5.6699 5.6699 0 0 0 5.625 5.8379c13.441 0.11074 21.423 2.5172 27.07 5.7578 2.5348 1.4546 4.6477 3.1319 6.5996 4.9805-0.0507-0.20172-0.0842-0.4035-0.14062-0.60547-0.81064-2.9003-2.0885-5.6455-3.6152-8.2734-1.9535-3.3626-5.2534-5.5313-8.1875-8.2871-0.59933-0.54352-1.502-1.4098-2.5215-2.4004-4.1103-0.9722-8.7345-1.6414-13.957-1.957-0.10982-4.5404-0.33237-8.8138-0.79102-12.48-2.6052-2.5081-5.1999-4.963-7.5586-7.1016-1.3348-1.2045-3.2729-2.4539-5.0742-3.1758-0.40585-0.16264-0.8354-0.30421-1.2754-0.43359z" color="#000000" color-rendering="auto" dominant-baseline="auto" fill-opacity=".019608" image-rendering="auto" opacity="1" shape-rendering="auto" solid-color="#000000" style="font-feature-settings:normal;font-variant-alternates:normal;font-variant-caps:normal;font-variant-ligatures:normal;font-variant-numeric:normal;font-variant-position:normal;isolation:auto;mix-blend-mode:normal;shape-padding:0;text-decoration-color:#000000;text-decoration-line:none;text-decoration-style:solid;text-indent:0;text-orientation:mixed;text-transform:none;white-space:normal"/>
<path transform="matrix(.26458 0 0 .26458 0 263.13)" d="m65.482 2.5547c2.3608 7.4451 4.4025 14.084 3.959 28.393a6.6148 6.6148 0 0 0 6.5625 6.8145c13.329 0.10998 21.13 2.4862 26.613 5.6328 2.9039 1.6664 5.2484 3.6278 7.4434 5.8438-0.13943-0.76458-0.30624-1.526-0.51953-2.2891-0.81064-2.9003-2.0885-5.6455-3.6152-8.2734-1.9535-3.3626-5.2534-5.5313-8.1875-8.2871-0.8307-0.75335-2.1457-2.0254-3.748-3.5957-3.5721-0.76811-7.5178-1.309-11.859-1.6094-0.13081-3.9089-0.35976-7.5773-0.77734-10.771-2.9043-2.8074-5.8113-5.5764-8.4434-7.9629-1.3348-1.2045-3.2729-2.4539-5.0742-3.1758-0.73101-0.29295-1.531-0.52753-2.3535-0.71875z" color="#000000" color-rendering="auto" dominant-baseline="auto" fill-opacity=".019608" image-rendering="auto" opacity="1" shape-rendering="auto" solid-color="#000000" style="font-feature-settings:normal;font-variant-alternates:normal;font-variant-caps:normal;font-variant-ligatures:normal;font-variant-numeric:normal;font-variant-position:normal;isolation:auto;mix-blend-mode:normal;shape-padding:0;text-decoration-color:#000000;text-decoration-line:none;text-decoration-style:solid;text-indent:0;text-orientation:mixed;text-transform:none;white-space:normal"/>
<path transform="matrix(.26458 0 0 .26458 0 263.13)" d="m64.42 2.332c2.4215 7.628 4.5278 14.08 4.0781 28.586a7.5598 7.5598 0 0 0 7.4922 7.7891c13.217 0.10923 20.835 2.4532 26.154 5.5059 3.2167 1.8459 5.7335 4.0624 8.1582 6.6328-0.17087-1.3123-0.40005-2.6026-0.76171-3.8965-0.81064-2.9003-2.0885-5.6455-3.6152-8.2734-1.9535-3.3626-5.2534-5.5313-8.1875-8.2871-1.0824-0.98164-3.0793-2.9349-5.4062-5.2266-2.9279-0.39503-6.1795-0.58992-9.3438-0.83594-0.14019-3.2758-0.36586-6.3149-0.73047-9.0312-3.2016-3.1062-6.4358-6.2056-9.3477-8.8457-1.3348-1.2045-3.2729-2.4539-5.0742-3.1758-1.0433-0.41811-2.224-0.71844-3.416-0.94141z" color="#000000" color-rendering="auto" dominant-baseline="auto" fill-opacity=".019608" image-rendering="auto" opacity="1" shape-rendering="auto" solid-color="#000000" style="font-feature-settings:normal;font-variant-alternates:normal;font-variant-caps:normal;font-variant-ligatures:normal;font-variant-numeric:normal;font-variant-position:normal;isolation:auto;mix-blend-mode:normal;shape-padding:0;text-decoration-color:#000000;text-decoration-line:none;text-decoration-style:solid;text-indent:0;text-orientation:mixed;text-transform:none;white-space:normal"/>
<path transform="matrix(.26458 0 0 .26458 0 263.13)" d="m71.457 5.3047c1.8422 6.3794 3.2776 13.624 2.9004 25.791a1.701 1.701 0 0 0 1.6836 1.7578c13.912 0.1149 22.685 2.646 29.02 6.2812 0.58431 0.33531 1.1411 0.68469 1.6875 1.0391-0.26764-0.502-0.53561-1.0046-0.82227-1.498-1.1346-1.9531-2.7354-3.4998-4.4434-4.9961-6.0382-2.3568-13.766-3.8281-23.869-4.0684 0.12885-8.7276-0.66062-15.11-1.8164-20.494-0.98383-0.91941-1.9631-1.8306-2.8867-2.668-0.42684-0.38519-0.92698-0.76879-1.4531-1.1445z" color="#000000" color-rendering="auto" dominant-baseline="auto" fill-opacity=".019608" image-rendering="auto" opacity="1" shape-rendering="auto" solid-color="#000000" style="font-feature-settings:normal;font-variant-alternates:normal;font-variant-caps:normal;font-variant-ligatures:normal;font-variant-numeric:normal;font-variant-position:normal;isolation:auto;mix-blend-mode:normal;shape-padding:0;text-decoration-color:#000000;text-decoration-line:none;text-decoration-style:solid;text-indent:0;text-orientation:mixed;text-transform:none;white-space:normal"/>
<path transform="matrix(.26458 0 0 .26458 0 263.13)" d="m70.463 4.6309c1.9548 6.5588 3.5273 13.781 3.1348 26.443a2.4569 2.4569 0 0 0 2.4355 2.5312c13.822 0.11414 22.447 2.6196 28.65 6.1797 0.98267 0.56392 1.8915 1.165 2.7695 1.7832-0.4749-0.97851-0.97765-1.9464-1.5273-2.8926-1.4753-2.5394-3.7182-4.3992-5.9922-6.3438-5.7123-1.9312-12.792-3.1265-21.619-3.3984 0.058768-7.8634-0.60521-13.882-1.6094-18.971-1.3058-1.2292-2.5849-2.4165-3.7949-3.5137-0.6886-0.62141-1.5389-1.2515-2.4473-1.8184z" color="#000000" color-rendering="auto" dominant-baseline="auto" fill-opacity=".019608" image-rendering="auto" opacity="1" shape-rendering="auto" solid-color="#000000" style="font-feature-settings:normal;font-variant-alternates:normal;font-variant-caps:normal;font-variant-ligatures:normal;font-variant-numeric:normal;font-variant-position:normal;isolation:auto;mix-blend-mode:normal;shape-padding:0;text-decoration-color:#000000;text-decoration-line:none;text-decoration-style:solid;text-indent:0;text-orientation:mixed;text-transform:none;white-space:normal"/>
<path transform="matrix(.26458 0 0 .26458 0 263.13)" d="m69.988 4.3574c2.0022 6.642 3.6313 13.841 3.2324 26.709a2.8349 2.8349 0 0 0 2.8125 2.916c13.777 0.11376 22.327 2.6122 28.465 6.1348 1.1862 0.68069 2.2673 1.4141 3.3027 2.1738-0.56491-1.2297-1.1901-2.4364-1.875-3.6152-1.6247-2.7966-4.1751-4.7818-6.6777-6.9512-5.5438-1.7594-12.311-2.8547-20.586-3.1387 0.027935-7.4339-0.57299-13.257-1.502-18.189-1.4632-1.3819-2.9011-2.7242-4.25-3.9473-0.80616-0.7275-1.8384-1.4575-2.9219-2.0918z" color="#000000" color-rendering="auto" dominant-baseline="auto" fill-opacity=".019608" image-rendering="auto" opacity="1" shape-rendering="auto" solid-color="#000000" style="font-feature-settings:normal;font-variant-alternates:normal;font-variant-caps:normal;font-variant-ligatures:normal;font-variant-numeric:normal;font-variant-position:normal;isolation:auto;mix-blend-mode:normal;shape-padding:0;text-decoration-color:#000000;text-decoration-line:none;text-decoration-style:solid;text-indent:0;text-orientation:mixed;text-transform:none;white-space:normal"/>
<path transform="matrix(.26458 0 0 .26458 0 263.13)" d="m68.805 3.7207c2.1162 6.8551 3.8865 13.965 3.4727 27.316a3.7799 3.7799 0 0 0 3.75 3.8906c13.665 0.11263 22.024 2.5793 27.998 6.0078 1.6602 0.95271 3.1402 1.9989 4.5176 3.1094-0.7276-1.8461-1.6104-3.6361-2.6172-5.3691-1.9535-3.3626-5.2534-5.5313-8.1875-8.2871-0.0255-0.02312-0.07131-0.06777-0.09766-0.0918-5.0833-1.3857-11.083-2.2581-18.115-2.5605-0.035042-6.376-0.47628-11.705-1.2148-16.246-1.8623-1.7721-3.7009-3.5001-5.4004-5.041-1.098-0.99089-2.6027-1.9954-4.1055-2.7285z" color="#000000" color-rendering="auto" dominant-baseline="auto" fill-opacity=".019608" image-rendering="auto" opacity="1" shape-rendering="auto" solid-color="#000000" style="font-feature-settings:normal;font-variant-alternates:normal;font-variant-caps:normal;font-variant-ligatures:normal;font-variant-numeric:normal;font-variant-position:normal;isolation:auto;mix-blend-mode:normal;shape-padding:0;text-decoration-color:#000000;text-decoration-line:none;text-decoration-style:solid;text-indent:0;text-orientation:mixed;text-transform:none;white-space:normal"/>
<path transform="matrix(.26458 0 0 .26458 0 263.13)" d="m73.479 6.9746c1.5791 6.0198 2.7285 13.149 2.3867 24.174a0.189 0.189 0 0 0 0.19141 0.19141c13.601 0.11236 22.515 2.5224 29.051 6.0938-0.18908-0.25669-0.39395-0.49979-0.59765-0.74414-6.4949-3.3556-15.277-5.5747-28.275-5.7051 0.31061-10.602-0.7581-17.633-2.252-23.543-0.1659-0.15233-0.34004-0.31719-0.50391-0.4668z" color="#000000" color-rendering="auto" dominant-baseline="auto" fill-opacity=".019608" image-rendering="auto" opacity="1" shape-rendering="auto" solid-color="#000000" style="font-feature-settings:normal;font-variant-alternates:normal;font-variant-caps:normal;font-variant-ligatures:normal;font-variant-numeric:normal;font-variant-position:normal;isolation:auto;mix-blend-mode:normal;shape-padding:0;text-decoration-color:#000000;text-decoration-line:none;text-decoration-style:solid;text-indent:0;text-orientation:mixed;text-transform:none;white-space:normal"/>
<path transform="matrix(.26458 0 0 .26458 0 263.13)" d="m73.223 6.7383c1.6166 6.0655 2.8036 13.221 2.457 24.402a0.37799 0.37799 0 0 0 0.37695 0.39062c13.803 0.11384 22.747 2.5914 29.279 6.2422-0.35008-0.50437-0.72123-0.99012-1.125-1.4492-6.4582-3.2424-15.151-5.3671-27.809-5.5156 0.28376-10.341-0.73954-17.306-2.1855-23.152-0.32855-0.30244-0.67348-0.6261-0.99414-0.91797z" color="#000000" color-rendering="auto" dominant-baseline="auto" fill-opacity=".019608" image-rendering="auto" opacity="1" shape-rendering="auto" solid-color="#000000" style="font-feature-settings:normal;font-variant-alternates:normal;font-variant-caps:normal;font-variant-ligatures:normal;font-variant-numeric:normal;font-variant-position:normal;isolation:auto;mix-blend-mode:normal;shape-padding:0;text-decoration-color:#000000;text-decoration-line:none;text-decoration-style:solid;text-indent:0;text-orientation:mixed;text-transform:none;white-space:normal"/>
<path transform="matrix(.26458 0 0 .26458 0 263.13)" d="m72.961 6.4961c1.6517 6.1147 2.879 13.291 2.5273 24.637a0.56699 0.56699 0 0 0 0.56055 0.58398c14.001 0.11566 22.982 2.6661 29.508 6.3945-0.50933-0.78136-1.0857-1.5047-1.7168-2.1836-6.41-3.109-14.986-5.1242-27.26-5.2891 0.25868-10.084-0.7243-16.978-2.123-22.76-0.49728-0.45889-1.0167-0.9479-1.4961-1.3828z" color="#000000" color-rendering="auto" dominant-baseline="auto" fill-opacity=".019608" image-rendering="auto" opacity="1" shape-rendering="auto" solid-color="#000000" style="font-feature-settings:normal;font-variant-alternates:normal;font-variant-caps:normal;font-variant-ligatures:normal;font-variant-numeric:normal;font-variant-position:normal;isolation:auto;mix-blend-mode:normal;shape-padding:0;text-decoration-color:#000000;text-decoration-line:none;text-decoration-style:solid;text-indent:0;text-orientation:mixed;text-transform:none;white-space:normal"/>
<path transform="matrix(.26458 0 0 .26458 0 263.13)" d="m72.709 6.2852c1.686 6.1589 2.9499 13.352 2.5938 24.84a0.75598 0.75598 0 0 0 0.74609 0.7832c14.024 0.11565 22.984 2.677 29.482 6.4062 0.0887 0.05089 0.17198 0.10492 0.25977 0.15625-0.65195-1.0745-1.4392-2.03-2.3086-2.9219-6.3619-2.9831-14.824-4.8997-26.732-5.0801 0.23464-9.8364-0.70713-16.656-2.0586-22.373-0.59498-0.55036-1.2113-1.1297-1.7812-1.6465-0.060832-0.054897-0.1379-0.10903-0.20117-0.16406z" color="#000000" color-rendering="auto" dominant-baseline="auto" fill-opacity=".019608" image-rendering="auto" opacity="1" shape-rendering="auto" solid-color="#000000" style="font-feature-settings:normal;font-variant-alternates:normal;font-variant-caps:normal;font-variant-ligatures:normal;font-variant-numeric:normal;font-variant-position:normal;isolation:auto;mix-blend-mode:normal;shape-padding:0;text-decoration-color:#000000;text-decoration-line:none;text-decoration-style:solid;text-indent:0;text-orientation:mixed;text-transform:none;white-space:normal"/>
<path transform="matrix(.26458 0 0 .26458 0 263.13)" d="m72.453 6.0742c1.719 6.2032 3.0188 13.409 2.6582 25.043a0.94498 0.94498 0 0 0 0.9375 0.97461c14.001 0.11565 22.921 2.6763 29.387 6.3867 0.19372 0.11117 0.37889 0.22657 0.56836 0.33984-0.0271-0.04702-0.0509-0.09563-0.0781-0.14258-0.7612-1.3103-1.7298-2.4373-2.7988-3.4902-6.3096-2.8649-14.642-4.6989-26.199-4.8945 0.21159-9.5967-0.69555-16.335-2.0059-21.982-0.67504-0.62582-1.3681-1.2758-2.0117-1.8594-0.13854-0.12502-0.3063-0.24964-0.45703-0.375z" color="#000000" color-rendering="auto" dominant-baseline="auto" fill-opacity=".019608" image-rendering="auto" opacity="1" shape-rendering="auto" solid-color="#000000" style="font-feature-settings:normal;font-variant-alternates:normal;font-variant-caps:normal;font-variant-ligatures:normal;font-variant-numeric:normal;font-variant-position:normal;isolation:auto;mix-blend-mode:normal;shape-padding:0;text-decoration-color:#000000;text-decoration-line:none;text-decoration-style:solid;text-indent:0;text-orientation:mixed;text-transform:none;white-space:normal"/>
<path transform="matrix(.26458 0 0 .26458 0 263.13)" d="m72.197 5.8652c1.7515 6.252 3.0877 13.475 2.7227 25.252a1.134 1.134 0 0 0 1.1289 1.168c13.979 0.11528 22.858 2.6639 29.291 6.3555 0.28751 0.16499 0.56556 0.33427 0.84375 0.50391-0.088-0.15529-0.16807-0.31428-0.25781-0.46875-0.85595-1.4733-1.9778-2.7123-3.207-3.877-6.2489-2.7307-14.441-4.4615-25.621-4.6699 0.19104-9.4056-0.70342-16.044-1.9805-21.639-0.74354-0.69062-1.5007-1.4006-2.207-2.041-0.21596-0.19489-0.46844-0.38915-0.71289-0.58398z" color="#000000" color-rendering="auto" dominant-baseline="auto" fill-opacity=".019608" image-rendering="auto" opacity="1" shape-rendering="auto" solid-color="#000000" style="font-feature-settings:normal;font-variant-alternates:normal;font-variant-caps:normal;font-variant-ligatures:normal;font-variant-numeric:normal;font-variant-position:normal;isolation:auto;mix-blend-mode:normal;shape-padding:0;text-decoration-color:#000000;text-decoration-line:none;text-decoration-style:solid;text-indent:0;text-orientation:mixed;text-transform:none;white-space:normal"/>
<path transform="matrix(.26458 0 0 .26458 0 263.13)" d="m71.949 5.6621c1.7835 6.2968 3.1546 13.531 2.7852 25.449a1.323 1.323 0 0 0 1.3066 1.3652c13.957 0.11528 22.803 2.6533 29.203 6.3262 0.3813 0.21881 0.75417 0.441 1.1191 0.66797-0.14703-0.26438-0.28529-0.53293-0.4375-0.79492-0.94953-1.6344-2.2199-2.9851-3.6094-4.2598-6.1838-2.6031-14.231-4.244-25.043-4.4648 0.16897-9.1728-0.68897-15.726-1.9258-21.25-0.82427-0.76723-1.6578-1.545-2.4375-2.252-0.29109-0.26269-0.62008-0.52605-0.96094-0.78711z" color="#000000" color-rendering="auto" dominant-baseline="auto" fill-opacity=".019608" image-rendering="auto" opacity="1" shape-rendering="auto" solid-color="#000000" style="font-feature-settings:normal;font-variant-alternates:normal;font-variant-caps:normal;font-variant-ligatures:normal;font-variant-numeric:normal;font-variant-position:normal;isolation:auto;mix-blend-mode:normal;shape-padding:0;text-decoration-color:#000000;text-decoration-line:none;text-decoration-style:solid;text-indent:0;text-orientation:mixed;text-transform:none;white-space:normal"/>
<path transform="matrix(.26458 0 0 .26458 0 263.13)" d="m70.961 4.9629c1.8967 6.4692 3.3986 13.709 3.0137 26.125a2.0789 2.0789 0 0 0 2.0664 2.1406c13.867 0.11452 22.565 2.6328 28.834 6.2305 0.779 0.44704 1.5222 0.91352 2.2344 1.3945-0.37458-0.73432-0.76761-1.4617-1.1836-2.1777-1.3082-2.2518-3.2304-3.966-5.2324-5.6816-5.8835-2.1353-13.289-3.4629-22.732-3.7207 0.092579-8.2949-0.6345-14.499-1.7129-19.738-1.1456-1.0747-2.2698-2.1175-3.3379-3.0859-0.55829-0.50381-1.2338-1.0086-1.9492-1.4863z" color="#000000" color-rendering="auto" dominant-baseline="auto" fill-opacity=".019608" image-rendering="auto" opacity="1" shape-rendering="auto" solid-color="#000000" style="font-feature-settings:normal;font-variant-alternates:normal;font-variant-caps:normal;font-variant-ligatures:normal;font-variant-numeric:normal;font-variant-position:normal;isolation:auto;mix-blend-mode:normal;shape-padding:0;text-decoration-color:#000000;text-decoration-line:none;text-decoration-style:solid;text-indent:0;text-orientation:mixed;text-transform:none;white-space:normal"/>
</g>
<path d="m19.514 265.41c1.495 2.8736 1.0745 4.1999 1.1214 6.0927 2.4113-0.1542 4.598 0.17271 6.2424 0.91779-0.31846-0.27953-0.65005-0.55261-0.9682-0.85142-0.45486-0.41249-1.4375-1.3924-2.6266-2.5622-1.1794-1.1603-2.5628-2.5079-3.7176-3.5549-0.01545-0.0139-0.03484-0.0279-0.05091-0.0419-9.4e-5 -8e-5 -4.04e-4 8e-5 -4.99e-4 0z" fill="#fff"/>
<path transform="matrix(.26458 0 0 .26458 0 263.13)" d="m20.051 4.293v119.04h0.44336v-118.54h40.104c1.1442 0.10159 2.6679 0.2176 4.25 0.45117 1.5344 0.22643 3.1237 0.56409 4.4746 1.1055 1.7397 0.69717 3.6113 1.9051 4.9004 3.0684 4.3645 3.9573 9.5932 9.0502 14.051 13.436 4.4943 4.4216 8.2066 8.1245 9.9258 9.6836 2.015 1.8925 4.2004 3.506 5.9785 5.4434-1.8475-2.1669-4.2365-3.8889-6.4219-5.9414-1.7191-1.5591-5.4334-5.262-9.9277-9.6836-4.4575-4.3853-9.6843-9.4802-14.049-13.438-1.2891-1.1633-3.1627-2.3692-4.9023-3.0664-1.3509-0.54138-2.9402-0.87904-4.4746-1.1055-1.5821-0.23357-3.1058-0.34958-4.25-0.45117h-40.102z" fill-opacity=".046898"/>
<path transform="matrix(.26458 0 0 .26458 0 263.13)" d="m20.051 4.293v119.04h0.85156v-118.24h40.102c1.1442 0.10159 2.6679 0.2176 4.25 0.45117 1.5344 0.22643 3.1237 0.56214 4.4746 1.1035 1.7397 0.69717 3.6133 1.9051 4.9023 3.0684 0.97941 0.88804 2.0126 1.8484 3.0605 2.8301-1.3467-1.2702-2.6679-2.5027-3.9121-3.6309-1.2891-1.1633-3.1627-2.3692-4.9023-3.0664-1.3509-0.54138-2.9402-0.87904-4.4746-1.1055-1.5821-0.23357-3.1058-0.34958-4.25-0.45117h-40.102zm77.727 27.764c0.27789 0.26205 0.61321 0.58458 0.83008 0.78125 1.3827 1.2986 2.846 2.4631 4.2051 3.6914-1.5759-1.5286-3.3634-2.9052-5.0352-4.4727z" fill="#0d0d0d" fill-opacity=".078076"/>
</g>
</svg>
