<svg width="128" height="128" version="1.1" viewBox="0 0 33.867 33.867" xmlns="http://www.w3.org/2000/svg" xmlns:osb="http://www.openswatchbook.org/uri/2009/osb" xmlns:xlink="http://www.w3.org/1999/xlink">
<defs>
<linearGradient id="linearGradient9248" x1="6.1527" x2="6.1527" y1="263.78" y2="274.81" gradientTransform="translate(1e-6 -.0027062)" gradientUnits="userSpaceOnUse">
<stop stop-color="#166dbb" offset="0"/>
<stop stop-color="#77d4f7" offset="1"/>
</linearGradient>
<radialGradient id="radialGradient1690" cx="36.724" cy="278.42" r="5.8715" gradientTransform="matrix(-.58907 .80071 -.89564 -.65891 268.51 441.09)" gradientUnits="userSpaceOnUse">
<stop stop-color="#77d4f7" offset="0"/>
<stop stop-color="#166dbb" offset="1"/>
</radialGradient>
</defs>
<g transform="translate(0 -263.13)">
<rect x="4.5617" y="264.07" width="24.743" height="32.664" opacity=".25"/>
<g transform="matrix(.53052 0 0 .53179 -272.08 -11.037)" stroke-width="4.1267"></g>
<g transform="matrix(.53052 0 0 .53179 -274.96 -11.037)" stroke-width="4.1267"></g>
<rect x="4.5617" y="263.55" width="24.743" height="32.664" fill="#f2f2f2" stroke="#808080" stroke-linecap="round" stroke-width=".3"/>
<path d="m4.7063 263.65v6.335h24.454v-6.335z" fill="url(#linearGradient9248)"/>
<g transform="matrix(.53602 0 0 .53727 -239.91 -17.702)" stroke-width="4.0845"></g>
<g transform="matrix(.53602 0 0 .53727 -242.81 -17.702)" stroke-width="4.0845"></g>
<g transform="matrix(.53602 0 0 .53727 -268.57 -14.024)" stroke-width="4.0845"></g>
<g transform="matrix(.53602 0 0 .53727 -268.57 -13.999)" stroke-width="4.0845"></g>
<circle cx="-65.155" cy="281.64" r="0" fill="url(#c)" stroke-width=".26458"/>
<circle cx="-82.696" cy="281.66" r="0" fill="url(#b)" stroke-width=".26458"/>
<g transform="translate(-.5104 .12835)" fill="#999" stroke-width=".23485">
<g transform="matrix(1.2692 0 0 1 -2.1866 -11.285)">
<path d="m7.3104 283.98h2.6222v0.72431h-2.6222z"/>
<path d="m10.127 283.98h1.2616v0.72431h-1.2616z"/>
<path d="m11.655 283.98h0.59316v0.72431h-0.59316z"/>
<path d="m12.395 283.98h1.1422v0.72431h-1.1422z"/>
<path d="m13.732 283.98h1.1422v0.72431h-1.1422z"/>
<path d="m15.236 283.98h1.8344v0.72431h-1.8344z"/>
<path d="m17.288 283.98h2.4073v0.72431h-2.4073z"/>
<path d="m20.034 283.98h1.6196v0.72431h-1.6196z"/>
<path d="m21.848 283.98h0.37833v0.72431h-0.37833z"/>
<path d="m7.3104 282.53h3.0436v0.72431h-3.0436z"/>
<path d="m10.593 282.53h3.2613v0.72431h-3.2613z"/>
<path d="m14.093 282.53h1.3024v0.72431h-1.3024z"/>
<path d="m15.633 282.53h3.0678v0.72431h-3.0678z"/>
<path d="m21.279 282.53h0.81866v0.72431h-0.81866z"/>
<path d="m18.94 282.53h2.1004v0.72431h-2.1004z"/>
<path d="m7.3104 288.33h2.6222v0.72431h-2.6222z"/>
<path d="m10.127 288.33h1.2616v0.72431h-1.2616z"/>
<path d="m11.655 288.33h0.59316v0.72431h-0.59316z"/>
<path d="m12.395 288.33h1.1422v0.72431h-1.1422z"/>
<path d="m13.732 288.33h1.1422v0.72431h-1.1422z"/>
<path d="m15.236 288.33h1.8344v0.72431h-1.8344z"/>
<path d="m17.288 288.33h2.4073v0.72431h-2.4073z"/>
<path d="m20.034 288.33h1.6196v0.72431h-1.6196z"/>
<path d="m21.848 288.33h0.37833v0.72431h-0.37833z"/>
<path d="m7.3104 286.88h2.1746v0.72431h-2.1746z"/>
<path d="m9.7161 286.88h3.6107v0.72431h-3.6107z"/>
<path d="m13.558 286.88h1.7437v0.72431h-1.7437z"/>
<path d="m17.388 286.88h1.3847v0.72431h-1.3847z"/>
<path d="m19.003 286.88h2.2224v0.72431h-2.2224z"/>
<path d="m15.533 286.88h1.624v0.72431h-1.624z"/>
<path d="m7.3104 289.77h2.7478v0.72431h-2.7478z"/>
<path d="m10.285 289.77h0.86525v0.72431h-0.86525z"/>
<path d="m11.377 289.77h1.9755v0.72431h-1.9755z"/>
<path d="m13.58 289.77h1.348v0.72431h-1.348z"/>
<path d="m15.155 289.77h1.348v0.72431h-1.348z"/>
<path d="m16.729 289.77h1.9513v0.72431h-1.9513z"/>
<path d="m18.908 289.77h0.40667v0.72431h-0.40667z"/>
<path d="m19.541 289.77h2.5306v0.72431h-2.5306z"/>
<path d="m7.3104 291.22h2.6965v0.72431h-2.6965z"/>
<path d="m11.755 291.22h1.7321v0.72431h-1.7321z"/>
<path d="m13.736 291.22h1.5875v0.72431h-1.5875z"/>
<path d="m17.99 291.22h1.3946v0.72431h-1.3946z"/>
<path d="m17.191 291.22h0.55084v0.72431h-0.55084z"/>
<path d="m15.572 291.22h1.3705v0.72431h-1.3705z"/>
<path d="m10.256 291.22h1.25v0.72431h-1.25z"/>
</g>
<g transform="matrix(1.2692 0 0 -1 -2.1866 573.47)">
<path d="m7.3104 279.63h1.6662v0.72431h-1.6662z"/>
<path d="m9.2033 279.63h1.5721v0.72431h-1.5721z"/>
<path d="m11.002 279.63h1.384v0.72431h-1.384z"/>
<path d="m12.613 279.63h0.6079v0.72431h-0.6079z"/>
<path d="m13.449 279.63h1.3605v0.72431h-1.3605z"/>
<path d="m15.036 279.63h3.5241v0.72431h-3.5241z"/>
<path d="m18.787 279.63h2.6774v0.72431h-2.6774z"/>
<path d="m21.691 279.63h0.81958v0.72431h-0.81958z"/>
<path d="m7.3104 283.98h2.6222v0.72431h-2.6222z"/>
<path d="m10.127 283.98h1.2616v0.72431h-1.2616z"/>
<path d="m11.655 283.98h0.59316v0.72431h-0.59316z"/>
<path d="m12.395 283.98h1.1422v0.72431h-1.1422z"/>
<path d="m13.732 283.98h1.1422v0.72431h-1.1422z"/>
<path d="m15.236 283.98h1.8344v0.72431h-1.8344z"/>
<path d="m17.288 283.98h2.4073v0.72431h-2.4073z"/>
<path d="m20.034 283.98h1.6196v0.72431h-1.6196z"/>
<path d="m21.848 283.98h0.37833v0.72431h-0.37833z"/>
<path d="m7.3104 281.08h2.7899v0.72431h-2.7899z"/>
<path d="m10.319 281.08h2.9895v0.72431h-2.9895z"/>
<path d="m13.527 281.08h1.1938v0.72431h-1.1938z"/>
<path d="m14.94 281.08h2.8122v0.72431h-2.8122z"/>
<path d="m20.114 281.08h0.7504v0.72431h-0.7504z"/>
<path d="m17.971 281.08h1.9254v0.72431h-1.9254z"/>
<path d="m21.084 281.08h0.71027v0.72431h-0.71027z"/>
<path d="m7.3104 282.53h3.0436v0.72431h-3.0436z"/>
<path d="m10.593 282.53h3.2613v0.72431h-3.2613z"/>
<path d="m14.093 282.53h1.3024v0.72431h-1.3024z"/>
<path d="m15.633 282.53h3.0678v0.72431h-3.0678z"/>
<path d="m21.279 282.53h0.81866v0.72431h-0.81866z"/>
<path d="m18.94 282.53h2.1004v0.72431h-2.1004z"/>
<path d="m7.3104 288.33h2.6222v0.72431h-2.6222z"/>
<path d="m10.127 288.33h1.2616v0.72431h-1.2616z"/>
<path d="m11.655 288.33h0.59316v0.72431h-0.59316z"/>
<path d="m12.395 288.33h1.1422v0.72431h-1.1422z"/>
<path d="m13.732 288.33h1.1422v0.72431h-1.1422z"/>
<path d="m15.236 288.33h1.8344v0.72431h-1.8344z"/>
<path d="m17.288 288.33h2.4073v0.72431h-2.4073z"/>
<path d="m20.034 288.33h1.6196v0.72431h-1.6196z"/>
<path d="m21.848 288.33h0.37833v0.72431h-0.37833z"/>
<path d="m7.3104 286.88h2.1746v0.72431h-2.1746z"/>
<path d="m9.7161 286.88h3.6107v0.72431h-3.6107z"/>
<path d="m13.558 286.88h1.7437v0.72431h-1.7437z"/>
<path d="m17.388 286.88h1.3847v0.72431h-1.3847z"/>
<path d="m19.003 286.88h2.2224v0.72431h-2.2224z"/>
<path d="m15.533 286.88h1.624v0.72431h-1.624z"/>
<path d="m7.3104 289.77h2.7478v0.72431h-2.7478z"/>
<path d="m10.285 289.77h0.86525v0.72431h-0.86525z"/>
<path d="m11.377 289.77h1.9755v0.72431h-1.9755z"/>
<path d="m13.58 289.77h1.348v0.72431h-1.348z"/>
<path d="m15.155 289.77h1.348v0.72431h-1.348z"/>
<path d="m16.729 289.77h1.9513v0.72431h-1.9513z"/>
<path d="m18.908 289.77h0.40667v0.72431h-0.40667z"/>
<path d="m19.541 289.77h2.5306v0.72431h-2.5306z"/>
<path d="m7.3104 291.22h2.6965v0.72431h-2.6965z"/>
<path d="m11.755 291.22h1.7321v0.72431h-1.7321z"/>
<path d="m13.736 291.22h1.5875v0.72431h-1.5875z"/>
<path d="m17.99 291.22h1.3946v0.72431h-1.3946z"/>
<path d="m17.191 291.22h0.55084v0.72431h-0.55084z"/>
<path d="m15.572 291.22h1.3705v0.72431h-1.3705z"/>
<path d="m10.256 291.22h1.25v0.72431h-1.25z"/>
</g>
</g>
<rect x="13.396" y="274.85" width="11.28" height="12.741" ry=".38066" fill="#f2f2f2"/>
<g transform="matrix(1.1078 0 0 1.1078 -3.2443 -32.433)" stroke-width=".9027">
<circle cx="21.687" cy="283.24" r="5.8715" opacity=".25"/>
<circle cx="21.687" cy="283.01" r="5.8715" fill="url(#radialGradient1690)"/>
<path d="m20.738 277.22a5.8845 5.8845 0 0 0-0.14211 0.0253c0.04719-9e-3 0.09453-0.0175 0.14211-0.0253zm-0.54984 0.11679a5.8845 5.8845 0 0 0-0.10749 0.0264c0.0354-0.01 0.07184-0.0171 0.10749-0.0264zm-0.10749 0.0264a5.8845 5.8845 0 0 0-0.78342 0.28835c-0.02418 0.23289-0.23513 0.35422-0.48472 0.34778-0.05416 0.0519-0.02588 0.14879-0.05529 0.22066-0.02472 0.0601-0.10533 0.11629-0.16536 0.11162-0.04357-4e-3 -0.11059-0.0704-0.11059-0.11162 0-0.0507 0.06992-0.0793 0.02636-0.13694 0.0014-9e-3 0.01349-0.0189 0.02377-0.0289a5.8845 5.8845 0 0 0-0.75396 0.57361c0.05762 0.036 0.14135 0.15786 0.03566 0.20309-0.01179 7e-3 -0.16501 0.0322-0.19327 0.0263-0.02081-2e-3 -0.03832-0.0209-0.05581-0.0398a5.8845 5.8845 0 0 0-1.28 1.8572c0.02535-6.5e-4 0.05146-4e-3 0.06873 0 0.04475 9e-3 0.07276 0.0517 0.11162 0.0553 0.10832 9e-3 0.13119-0.0908 0.22066-0.13798 0.09183 0.0134 0.13861-9e-3 0.22221 0 0.05652 7e-3 0.12064 0.0791 0.16536 0.0827 0.03767 1e-3 0.04737-0.0339 0.08268-0.0279 0.03533 7e-3 0.10469 0.0683 0.11059 0.11058 6e-3 0.053-0.0427 0.10818-0.02739 0.16692 0.05534 0.0565 0.16916 0.0771 0.24805 0.11007 0.0518-0.0423 0.0082-0.13208 0-0.19327-0.0012-0.0272 0.0036-0.058 0-0.0827-6e-3 -0.0423-0.02635-0.0736-0.02635-0.11007 0-0.16822 0.13555-0.23795 0.24857-0.30386 0.04826-0.0283 0.09558-0.0889 0.13798-0.11007 0.06003-0.0294 0.08854-0.027 0.13798-0.0553 0.08947-0.0505 0.17857-0.10929 0.24805-0.16692 0.0318-0.0765-0.0036-0.1728 0-0.24805 0.0318-0.02 0.04752 4e-3 0.08165 0 0.05416-0.0111 0.081-0.0801 0.11162-0.11058 0.01758-0.0178 0.06047-0.0377 0.08165-0.0553 0.05416-0.0423 0.06348-0.0914 0.11059-0.11007 0.01647-7e-3 0.05678-0.0203 0.08268-0.0279 0.03534-9e-3 0.08146-0.0353 0.13798-0.0553 0.03651-0.0134 0.12385-0.0133 0.13798-0.0263 0.01758-0.0178-0.0047-0.0846 0-0.11162 0.02826-0.13306 0.23972-0.14699 0.35863-0.19172 0.08242-0.0318 0.15673-0.10024 0.24856-0.0827-0.01758 0.0636-0.09799 0.0614-0.08268 0.13798 0.02003 0.10703 0.15558-0.0399 0.19327-0.0553 0.07183-0.0305 0.20916-0.0486 0.30334-0.0827 0.08242-0.0294 0.21568-0.0706 0.13798-0.16588-0.06475-4e-3 -0.08146 0.058-0.13798 0.0816-0.03885 7e-3 -0.04867-0.0238-0.08165-0.0263-0.0318-1e-3 -0.05088 0.0322-0.08268 0.0263-0.0318-7e-3 -0.07796-0.0725-0.08268-0.11007-0.01291-0.0988 0.09794-0.12028 0.13798-0.19327-0.02708-0.0894-0.14581-0.0201-0.22118-0.0553 0.0082-0.053 0.0482-0.0994 0.11059-0.11007 0.05062-9e-3 0.16265 2e-3 0.19327 0.0263 0.01758 0.0156-7.33e-4 0.058 0.02635 0.0827 0.03062 0.0271 0.0716 7e-3 0.11162 0 0.01402-0.067-0.09445-0.0391-0.08268-0.0827 0.08006-0.0519 0.23301-0.0132 0.33073-0.0263 0.05652-9e-3 0.11526-0.056 0.16588-0.0832 0.04711-0.0272 0.08853-0.0711 0.13797-0.0264 0.01402 0.0483-0.02821 0.0859-0.05529 0.11059-0.09065 0.0801-0.17791 0.155-0.24856 0.24805 0.04357 0.0423 0.12026 0.0177 0.19327 0.0263 0.02826 4e-3 0.05221 0.0232 0.08165 0.0279 0.03531 7e-3 0.08337-7e-3 0.11162 0 0.04944 0.0111 0.06113 0.0827 0.11059 0.0827 0.08006 0 0.07225-0.0839 0.02635-0.13798 0.01402-0.0554 0.04742-0.099 0.02739-0.13797-0.03651-0.073-0.1862 0.0112-0.19327-0.0827-0.0047-0.0588 0.06199-0.0658 0.0832-0.11059-0.0093-0.11304 0.09342-0.11831 0.08165-0.22066-6e-3 -0.0425-0.05221-0.0426-0.08165-0.0827-0.01535-0.0222-0.01032-0.0673-0.02791-0.0827-0.06121-0.0519-0.18619-0.0381-0.19327-0.13695-0.0036-0.059 0.0082-0.1035 0-0.16691-0.0082-0.0601-0.05827-0.23628-0.11007-0.24805-0.06593-0.0134-0.11437 0.10149-0.19327 0.13798-0.04239 0.02-0.12182 0.0356-0.16536 0.0274-0.02826-7e-3 -0.07966-0.0286-0.0832-0.0827-6e-3 -0.0623 0.04351-0.0721 0.05529-0.13797zm4.3005 0.4439c0.0014 0.0191 0.0016 0.0352 0 0.0579 0.03413 0.0156 0.05392 0.0788 0.11162 0.11059 0.02114 0.0111 0.0353 0.0176 0.0553 0.0274 0.03413 0.0178 0.06237 0.0497 0.05529 0.0827-0.0093 0.0483-0.07761 0.0462-0.11059 0.0816 0.0047 0.0683-0.03762 0.0658-0.05529 0.11162 0.01068 0.0294 0.05057 0.0201 0.05529 0.0553-6e-3 0.0376-0.06942 0.0427-0.05529 0.0817 0.06357 0.0494 0.13321 9e-3 0.19327 0 0.13186-0.0156 0.24897 9e-3 0.33021-0.0553-0.01068-0.0623 0.08973-0.0814 0.08268-0.13797-6e-3 -0.0423-0.07879-0.0523-0.11059-0.0817-0.0035-3e-3 -0.0078-0.0112-0.01188-0.0176a5.8845 5.8845 0 0 0-0.54002-0.31626zm-0.1664 0.11162c-0.02158 4e-3 -0.03405 0.016-0.05323 0.0269-0.04473 0.0272-0.04852 0.0698-0.08268 0.0827-0.04826 0.0178-0.10353 0.0112-0.11059 0.0553-6e-3 0.0365 0.02909 0.0486 0.02791 0.0817-0.01758 0.0436-0.04586 0.0571-0.0553 0.11007 0.06003 0.0977 0.20074-4e-3 0.27492-0.0264 0.03298-9e-3 0.06501-2e-3 0.08268-0.0274 0.02003-0.0318 0.01103-0.0922 0.02636-0.13694 0.01647-0.0494 0.06119-0.0391 0.05529-0.0827-0.0047-0.0436-0.09238-0.0903-0.16536-0.0832zm0.97048 0.39429c-0.01998 0.017-0.0376 0.0384-0.05891 0.0481-0.02472 0.0111-0.06029 0.0132-0.08268 0.0274-0.03298 0.0225-0.04501 0.057-0.08268 0.0817-0.02708 0.0178-0.10972 0.0827-0.13798 0.0827-0.03413 0-0.08587-0.0346-0.11059-0.0264-0.03531 0.0111-0.01524 0.0674-0.05529 0.0817-0.0777 0.0283-0.22096-0.0613-0.24805 0.0553 0.03298 0.067 0.13387 0.0462 0.19275 0.0827 0.03649 0.0236 0.10117 0.12583 0.11059 0.16588 0.0093 0.0329 0.01402 0.15737 0 0.19275-0.03649 0.0941-0.14024 0.0856-0.24856 0.0832-0.02944 0-0.0556 2e-3 -0.08268 0-0.18248-0.0111-0.35787-0.0758-0.44029 0.0548 6e-3 0.10013 0.02238 0.16152 0 0.24856-0.01647 0.0636-0.08619 0.11019-0.08268 0.16537 0.0011 0.0283 0.04821 0.0719 0.05529 0.11058 0.0047 0.0223-0.0093 0.064 0 0.0827 0.03062 0.0576 0.1112-9e-3 0.16536 0 0.0518 9e-3 0.11162 0.0803 0.11162 0.13797 0 0.0412-0.03043 0.12531-0.05633 0.16537-0.0518 0.0777-0.14647 0.0683-0.22066 0.11058-0.06124 0.0354-0.0741 0.10572-0.11059 0.16692-0.03885 0.0659-0.07061 0.0986-0.05529 0.19275-0.05298 0.1048-0.11219 0.17015-0.22169 0.22066-0.0318 0.0134-0.08115 0.0341-0.11059 0.0553-0.02354 0.0156-0.0497 0.0451-0.08268 0.0827-0.04121 0.0458-0.08823 0.0752-0.11059 0.11058-0.01647 0.0272-0.0098 0.0741-0.02739 0.11059-0.0259 0.0494-0.07761 0.0886-0.11059 0.13798-0.01535 0.0236-0.03881 0.0522-0.05529 0.0827-0.03767 0.0683-0.08973 0.13319-0.08268 0.19327 6e-3 0.0576 0.07914 0.0596 0.08268 0.11007 0.0036 0.0283-0.02857 0.051-0.02739 0.0817 0.0011 0.0447 0.02388 0.0762 0.02739 0.11162 0.0082 0.0872-0.03832 0.10529-0.05478 0.16537-0.0082 0.0283 0.0071 0.0609 0 0.0832-0.01402 0.0436-0.08202 0.0846-0.0832 0.13643-0.0011 0.0365 0.05175 0.06 0.0553 0.11162 0.0024 0.0354-0.03341 0.0776-0.02636 0.11059 0.01291 0.0636 0.1438 0.14335 0.19327 0.19275 0.06711 0.067 0.13592 0.12274 0.16536 0.19327 0.02472 0.0601 0.03727 0.14854 0.0832 0.19327 0.03413 0.0329 0.09441 0.0473 0.13798 0.0817 0.04121 0.0318 0.09286 0.0486 0.13642 0.0827 0.07183 0.0565 0.16175 0.17411 0.27595 0.16588 0.06003-4e-3 0.12616-0.0435 0.19327-0.0553 0.06947-0.0111 0.15053-0.0334 0.22118-0.0263 0.05416 7e-3 0.10988 0.0299 0.1664 0.0263 0.05886-4e-3 0.12616-0.0259 0.19327-0.0553 0.11655-0.0505 0.29865-0.13529 0.46819-0.11059 0.1295 0.0178 0.13102 0.16353 0.22169 0.22117 0.1036 9e-3 0.19251-0.02 0.27492 0 0.06239 0.0156 0.1321 0.117 0.13798 0.1664 6e-3 0.0505-0.04821 0.10514-0.05529 0.13695-0.01647 0.0683-0.0156 0.14965-0.02739 0.19327-0.0093 0.034-0.02756 0.076-0.02635 0.11007 0 0.0307 0.05088 0.0979 0.08268 0.13797 0.03885 0.0494 0.08986 0.0839 0.13694 0.13798 0.08596 0.0988 0.1327 0.22797 0.19275 0.35863 0.01535 0.0329-0.01402 0.042 0 0.0832-0.0259 0.19781-0.09113 0.33298-0.22066 0.55191-0.06121 0.0705-0.13916 0.15964-0.13798 0.24804-0.0047 0.21184 0.12 0.31868 0.11059 0.52348-0.02114 0.27545-0.0052 0.3221-0.02636 0.46923 0.09301 0.0472 0.05347 0.1767 0.02636 0.2744-0.04003 0.1166-0.08823 0.14455-0.11059 0.22221 0.06808 0.0295 0.14266 0.0226 0.21859 6e-3a5.8845 5.8845 0 0 0 1.6066-4.0302 5.8845 5.8845 0 0 0-0.65009-2.6872c-0.05015 0.0157-0.09313 0.0402-0.10128 0.0894-0.01179 0.0659 0.04358 0.15357-0.0553 0.16537-0.06239 9e-3 -0.13576-0.064-0.22169-0.0827-0.03533-9e-3 -0.08233 9e-3 -0.11059 0-0.06475-0.0223-0.05473-0.098-0.11007-0.13695-0.03177-0.0225-0.11629-0.049-0.16692-0.0548-0.0318-4e-3 -0.04867 4e-3 -0.08165 0-0.04003-4e-3 -0.10502-7e-3 -0.13798-0.0279-0.0318-0.02-0.10235-0.0555-0.11059-0.0827-0.01291-0.0436 0.07929-0.10045 0.08165-0.13694 0.0024-0.0283-0.02036-0.0404-0.02636-0.0827-0.0047-0.0258 6e-3 -0.0662 0-0.0827-0.0082-0.0307-0.06334-0.0542-0.11162-0.0553-0.04239 0-0.07358 0.0274-0.11007 0.0274-0.0518 1e-3 -0.15591-0.0332-0.22066-0.0274-0.03885 4e-3 -0.07511 0.0249-0.11162 0.0274-0.10242 9e-3 -0.1685-7e-3 -0.24856 0-0.0577 4e-3 -0.1665 0.0306-0.22066 0.0553-0.02708 0.0134-0.04736 0.0377-0.08268 0.0553-0.01647 9e-3 -0.03411 0.0177-0.05529 0.0264-0.03298 0.0156-0.07879 0.0481-0.11059 0.0563-0.04593 0.0111-0.10967-4e-3 -0.19327 0-0.06003 4e-3 -0.16421-0.011-0.16536-0.0827-0.0011-0.10947 0.19972-0.064 0.30334-0.0827 0.03885-9e-3 0.06348-0.0544 0.11059-0.0817 0.02238-0.0134 0.03408-0.0137 0.0553-0.0279 0.03533-0.0247 0.10417-0.0818 0.11007-0.11007 0.0047-0.0258-0.02988-0.0645-0.02635-0.0832 0.0047-0.0247 0.04988-0.0498 0.08165-0.0817 0.04944-0.0494 0.07676-0.10616 0.13798-0.13798 0.04121-0.0222 0.11915-0.0223 0.13798-0.0553 0.0047-0.0376-0.0011-0.0486 0-0.0827 0.0259-0.0236 0.03408-0.0506 0.0553-0.0553 0.06357-0.0134 0.11908 0.0304 0.19327 0.0269 0.0318-1e-3 0.07643-4e-3 0.11059-0.0269 0.02826-0.0178 0.05442-0.0406 0.08268-0.0548 0.03062-0.0156 0.04498-0.0531 0.08268-0.0553 0.09301-7e-3 0.15088 0.10936 0.19327 0.16588 0.03531 0.0458 0.13558 0.10616 0.19327 0.13798 0.03298 0.0178 0.07358 0.0383 0.11007 0.0548 0.07652 0.034 0.21764 0.14596 0.22118 0.22117 0.0013 0.0376-0.03275 0.0759-0.02687 0.11111 0.05755 9e-3 0.10915-0.0798 0.11059-0.13746a5.8845 5.8845 0 0 0-0.38602-0.48835c-0.01784-0.0137-0.03298-0.03-0.04393-0.0501a5.8845 5.8845 0 0 0-0.85886-0.7829zm-7.2078 0.57154c0.02826 1e-3 0.05022 0.0531 0.0832 0.0553 0.0318 2e-3 0.06383-0.0332 0.08268-0.0274 0.04944 0.0134 0.07347 0.10148 0.02636 0.13797-0.03885 4e-3 -0.05339-0.0322-0.08165-0.0263-0.08006 0.0134-0.10688 0.17003-0.16692 0.16536-0.05652-7e-3 -0.08406-0.12419-0.02635-0.16536 0.0011-0.0354-0.02977-0.0478-0.02739-0.0832 0.01758-0.0225 0.06296-0.0583 0.11007-0.0548v-1e-3zm-0.2744 0.0279c0.01647 0 0.02036-7e-3 0.02635 0-0.0082 0.0623-0.03337 0.0822-0.08165 0.11162-0.0836 0.0505-0.13984 0.11251-0.16692 0.22066-0.0082 0.0318-0.09689 0.11831-0.13694 0.11007-0.09301-0.02 0.03411-0.19374 0.05529-0.22066 0.02354-0.0294 0.05457-0.0497 0.08165-0.0827 0.02708-0.0329 0.02943-0.0917 0.05529-0.11059 0.02826-0.02 0.11747-0.0298 0.16692-0.0274zm0.73381 0.22065c0.01526-1e-3 0.02822-1e-3 0.03411 4e-3 -0.01891 0.0777-0.18735 0.0546-0.24856 0.0263 0.0036-0.0294 0.0455-0.0227 0.0832-0.0263h1e-3c0.02708-1e-3 0.05324 0 0.08268 0 0.01472 0 0.03228-3e-3 0.04754-4e-3zm7.276 0.13591c-0.0035 1e-3 -7e-3 5e-3 -0.01292 7e-3 -0.03885 0.0134-0.0577 0.0999 0 0.11059 0.02708-0.0156 0.03499-0.0612 0.02791-0.11059-0.0077-8e-3 -0.01148-9e-3 -0.01499-7e-3zm-7.6559 3e-3c0.0089-1e-3 0.01834-1e-3 0.02894 3e-3 -0.05416 0.0458-0.12802 0.0812-0.22221 0.11059-0.04475 0.0134-0.10235 0.0219-0.11058-0.0279-0.0094-0.0612 0.04317-0.049 0.0832-0.0548 0.0518-7e-3 0.13166-0.0258 0.19172-0.0269l0.0015-1e-3c0.01001 0 0.01846-2e-3 0.02739-3e-3zm7.6166 0.17002c-0.01891 7e-3 -0.03526 4e-3 -0.05529 0.0263 0.0011 0.0659 0.0129 0.10877 0 0.1664 0.03767 0.073 0.11809 0.0224 0.13694-0.0274 0.02238-0.12238-0.02513-0.18072-0.08165-0.16536zm0.52348 0.33073c-0.0518-2e-3 -0.10632 2e-3 -0.13694 0.0269 0.04357 0.0705 0.12293 0.0925 0.22066 0.11007 0.03529-0.0258 0.03884-0.0922 0.0553-0.13694-0.04237 0-0.08617 2e-3 -0.13798 0zm0.42064 0.063c4e-3 6e-3 0.0085 0.0119 0.0124 0.0181a5.8845 5.8845 0 0 0-0.0124-0.0181zm-10.042 1.7219c-0.09773 7e-3 -0.16569 2e-3 -0.22221 0.0279-0.12717 0.0576-0.09231 0.23592-0.22066 0.27595-0.04357 0.0134-0.11592 0.0177-0.16536 0.0264-0.02063 4e-3 -0.04407 7e-3 -0.06718 0.0129a5.8845 5.8845 0 0 0-0.04547 0.30179c0.0642 0.0606 0.11084 0.15678 0.18862 0.19534 0.02944 0.0156 0.0724 0.0203 0.11007 0.0279 0.03062 7e-3 0.05376 0.0177 0.0832 0.0263 0.06239 0.0222 0.14329 0.034 0.19275 0.0563 0.07534 0.0329 0.12852 0.15412 0.19327 0.19172 0.0036 0.0376-0.01179 0.0833 0 0.11162 0.03062 0.0412 0.08854 0.0544 0.13798 0.0816 0.06003 0.0329 0.08043 0.11216 0.13694 0.13797 0.02003 9e-3 0.05206-9e-3 0.08268 0 0.0777 0.0236 0.09981 0.13062 0.16692 0.11059 0.04357-0.0134 0.04821-0.0683 0.05529-0.11059 0.02944-0.0318 0.06414-0.0827 0.11007-0.0827 0.07301-1e-3 0.08351 0.0953 0.11059 0.16692 0.01535 0.04 0.0447 0.0678 0.0553 0.11007 0.01758 0.073 0.01535 0.2877 0 0.33124-0.01891 0.0541-0.09323 0.078-0.13798 0.13695-0.02114 0.0283-0.0388 0.0638-0.05529 0.0827-0.02826 0.0354-0.06047 0.0509-0.08165 0.0827-0.01179 0.0178-0.01671 0.057-0.02739 0.0817-0.03533 0.0754-0.0847 0.13165-0.0553 0.22221 0.01179 0.0365 0.0553 0.0665 0.0553 0.11007 0 0.0518-0.10235 0.0814-0.11059 0.13798-6e-3 0.0412 0.04231 0.10995 0.05529 0.16536 0.0093 0.0412 0.08535 0.0834 0.11007 0.11059 0.04121 0.0458 0.07392 0.10816 0.11162 0.16691 0.07416 0.11415 0.11923 0.24683 0.19224 0.35864 0.03885 0.0576 0.11208 0.10416 0.13798 0.16536 0.01291 0.0307-0.01179 0.0823 0 0.11059 0.04239 0.0952 0.23588 0.20106 0.33124 0.24805 0.04475 0.0223 0.09677 0.0327 0.13798 0.0563 0.06239 0.0354 0.18886 0.11047 0.22066 0.16588 0.02826 0.0494 0.04113 0.16922 0.0553 0.24805 0.01758 0.10347-0.0047 0.19211 0 0.30386 0.0036 0.0612 0.02739 0.10417 0.02739 0.16536 0 0.0223 0.0011 0.0615 0 0.0827-0.0011 0.073 6e-3 0.14655 0 0.22065-0.0036 0.0401-0.0024 0.0776 0 0.11163 0.0036 0.0365 0.02399 0.0497 0.02636 0.0816 0.0024 0.034-0.02986 0.0846-0.02636 0.11163 0.0082 0.0741 0.06855 0.12392 0.08268 0.19223 0.01179 0.0541 0.03395 0.18325 0.02687 0.24805-0.0047 0.0343-0.02225 0.074-0.02687 0.11162-0.0036 0.0294 0.0047 0.0544 0 0.0816-0.0034 0.0236-0.0092 0.0437-0.0155 0.0641a5.8845 5.8845 0 0 0 1.0299 0.52296c-0.02998-0.0237-0.05018-0.0602-0.04599-0.10025 0.06124-0.0258 0.17694 0.058 0.22169-0.0279 0.02238-0.0412-0.02944-0.12419 0-0.16536 0.02114-0.0283 0.1497-0.0482 0.19327-0.0553 0.06239-0.0111 0.13057-4e-3 0.16588-0.0274 0.03885-0.0247 0.08973-0.0929 0.08268-0.16588-0.0036-0.034-0.02821-0.052-0.05529-0.0827-0.02238-0.0258-0.01204-0.058-0.02739-0.0816-0.02826-0.0412-0.07143-0.05-0.0832-0.11008 0.08478-0.0156 0.2088 0.0888 0.33124 0.0548 0.0577-0.0156 0.1388-0.13868 0.16588-0.19275 0.0082-0.0156-0.0093-0.0631 0-0.0832 0.01068-0.0225 0.05279-0.043 0.05633-0.0548 0.0082-0.0318-0.0071-0.0352 0-0.0553 0.02114-0.0601 0.07476-0.0944 0.11007-0.13798 0.02708-0.0329 0.05848-0.0765 0.0832-0.11058 0.02826-0.0365 0.03596-0.0509 0.05478-0.0827 0.01758-0.10703-0.05329-0.18077-0.02739-0.27492 0.02826-0.10592 0.17352-0.1734 0.27595-0.22169 0.03531-0.0156 0.08115-0.0448 0.11059-0.0553 0.07065-0.0247 0.15473-0.0317 0.22066-0.0553 0.11068-0.0401 0.13911-0.14676 0.19327-0.24804 0.0259-0.0472 0.05164-0.10394 0.05633-0.13798 0.0047-0.0307-6e-3 -0.0468 0-0.0822s0.01705-0.0724 0.02636-0.11111c0.01291-0.0507 0.02739-0.13572 0.02739-0.19223 0-0.0472-0.02621-0.0694-0.02739-0.11163-0.0082-0.15309 0.05407-0.16456 0.11059-0.24804 0.02826-0.0412 0.03478-0.10757 0.05478-0.13695 0.09537-0.14129 0.26034-0.20077 0.24856-0.41496-0.0047-0.0705-0.02985-0.2262-0.08165-0.24856-0.02944-0.0134-0.09441-9e-3 -0.13798-0.0264-0.13894-0.0519-0.24173-0.21041-0.38654-0.2222-0.03062-1e-3 -0.04852 1e-3 -0.08268 0-0.05652-1e-3 -0.12866-0.0477-0.19224-0.0548-0.04003-4e-3 -0.11444 0.0111-0.13798 0-0.03651-0.0178-0.02534-0.0905-0.05478-0.11059-0.02354-0.0156-0.0751-0.0154-0.11162-0.0274-0.0577-0.0222-0.09877-0.0506-0.16588-0.0553-0.02114-1e-3 -0.05914 4e-3 -0.08268 0-0.03651-7e-3 -0.07643-0.0341-0.11059-0.0553-0.04239-0.0258-0.06501-0.0452-0.08268-0.0817 0.03885-0.12706-0.08417-0.1476-0.11007-0.2217-0.01179-0.034 0.01179-0.0801 0-0.11058-0.01535-0.0436-0.06233-0.0741-0.11059-0.11059-0.08478-0.0659-0.15467-0.12211-0.27595-0.13746-0.05416-7e-3 -0.1285 4e-3 -0.19327 0-0.06829-4e-3 -0.14145-0.0518-0.19327-0.11059-0.04944-0.0576-0.0665-0.11082-0.11007-0.13797-0.04121-0.0258-0.10972-0.0281-0.13798-0.0553-0.0129-0.0111-0.0151-0.0281-0.02687-0.0553-0.02114-0.0423-0.05331-0.0592-0.02739-0.11111-0.04711-0.0236-0.03103 0.0367-0.08165 0.0274-0.04593-0.0648-0.08964-0.10268-0.19327-0.0827-0.04711 9e-3 -0.08263 0.0816-0.13798 0.0827-0.04593 1e-3 -0.07795-0.0744-0.13798-0.0827-0.0459-7e-3 -0.10618 0.0345-0.13798 0.0274-0.05062-9e-3 -0.06414-0.052-0.11007-0.0827-0.03413-0.0222-0.09174-0.0828-0.11059-0.0817-0.05888 1e-3 -0.11203 0.12522-0.19327 0.0817-0.04003-0.0505 0.07346-0.0634 0.02635-0.11059-0.03531-0.0354-0.05339 9e-3 -0.08165 0.0279-0.03298 0.0223-0.07358 0.0424-0.11007 0.0553-0.08124 0.0305-0.12968 0.0218-0.19327 0.0548-0.05886 0.0307-0.07747 0.0779-0.11162 0.13797-0.02708 0.0494-0.06938 0.13449-0.11059 0.13694-0.04944 4e-3 -0.09322-0.0626-0.13798-0.0816-0.1354-0.0587-0.21784 0.0253-0.3297 0.0264-0.1036 1e-3 -0.25327-0.15032-0.24856-0.24805 0.0036-0.0601 0.04824-0.14655 0.0553-0.22065 6e-3 -0.059 0.05411-0.11285 0.05529-0.16692 0.0011-0.0719-0.11983-0.12871-0.16692-0.13694-0.11068-0.02-0.25901 0.0494-0.38499 0-0.02354-0.0401 0.04113-0.0724 0.0553-0.11111 0.0082-0.0225-0.0082-0.0306 0-0.0553 0.01402-0.0376 0.06398-0.0705 0.08165-0.11059 0.01291-0.0307 0.01449-0.0725 0.02739-0.11007 0.01535-0.0423 0.05179-0.0801 0.05529-0.11059 0.0047-0.0401-0.02352-0.0858-0.05529-0.11162zm-0.73794 0.7581a5.8845 5.8845 0 0 0-0.02222 0.19637c0.0064-0.0658 0.014-0.13114 0.02222-0.19637zm2.3043 0.5271c0.05652-0.0258 0.0459 0.0761 0 0.0832-0.04357 7e-3 -0.04239-0.0631 0-0.0832zm0.17983 5.0178a5.8845 5.8845 0 0 0 0.06511 0.0444c-0.02179-0.0147-0.04353-0.0295-0.06511-0.0444zm1.494 0.74414a5.8845 5.8845 0 0 0 0.1943 0.0625c-0.06542-0.0194-0.12983-0.041-0.1943-0.0625zm0.57619 0.16019a5.8845 5.8845 0 0 0 0.1478 0.0341c-0.04982-0.01-0.09844-0.0229-0.1478-0.0341z" fill="#fff" opacity=".6" stroke-width=".20195"/>
</g>
</g>
</svg>
