<svg width="128" height="128" version="1.1" viewBox="0 0 33.867 33.867" xmlns="http://www.w3.org/2000/svg" xmlns:osb="http://www.openswatchbook.org/uri/2009/osb" xmlns:xlink="http://www.w3.org/1999/xlink">
<defs>
<linearGradient id="linearGradient1503-8" x1="29.203" x2="4.5843" y1="263.52" y2="296.17" gradientTransform="matrix(1.001 0 0 1.001 -.017758 -.29086)" gradientUnits="userSpaceOnUse">
<stop stop-color="#d9d9d9" offset="0"/>
<stop stop-color="#fff" offset="1"/>
</linearGradient>
<linearGradient id="linearGradient3251">
<stop stop-color="#828282" offset="0"/>
<stop stop-color="#6c6c6c" offset="1"/>
</linearGradient>
<linearGradient id="linearGradient1189" x1="17.072" x2="17.072" y1="6.0022" y2="40.011" gradientTransform="matrix(.71002 0 0 .62705 -.10732 268.37)" gradientUnits="userSpaceOnUse" xlink:href="#linearGradient3251"/>
<linearGradient id="linearGradient1191" x1="22.084" x2="22.084" y1="6" y2="40" gradientTransform="matrix(.71002 0 0 .62705 -.10732 268.37)" gradientUnits="userSpaceOnUse" xlink:href="#linearGradient3251"/>
<linearGradient id="linearGradient1270" x1="7.3739" x2="7.5161" y1="264.53" y2="268.61" gradientTransform="translate(-1.5769 -.024997)" gradientUnits="userSpaceOnUse">
<stop stop-color="#8a2722" offset="0"/>
<stop stop-color="#a53c3b" offset="1"/>
</linearGradient>
</defs>
<g transform="translate(0 -263.13)">
<path d="m4.5714 264.1v32.612h24.724v-18.3c-0.04716-0.8313-0.10165-1.5753-0.3125-2.3297-0.21448-0.76736-0.55247-1.4939-0.95641-2.1892-0.51687-0.8897-1.3904-1.4633-2.1667-2.1925-0.47098-0.42711-1.4882-1.4417-2.7195-2.653-1.2212-1.2014-2.6535-2.5969-3.8492-3.6811-0.35316-0.3187-0.86616-0.64943-1.3428-0.84044-0.37009-0.14831-0.80547-0.24063-1.2258-0.30267-0.43345-0.064-0.85092-0.0958-1.1644-0.12361z" opacity=".25"/>
<path d="m4.5714 263.57v32.612h24.724v-18.3c-0.04716-0.83129-0.10165-1.5753-0.3125-2.3297-0.21448-0.76736-0.55247-1.4939-0.95641-2.1892-0.51687-0.88969-1.3904-1.4633-2.1667-2.1925-0.47098-0.42712-1.4882-1.4417-2.7195-2.653-1.2212-1.2014-2.6535-2.5969-3.8492-3.6811-0.35316-0.3187-0.86616-0.64944-1.3428-0.84044-0.37009-0.14831-0.80547-0.24063-1.2258-0.30267-0.43345-0.064-0.85092-0.0958-1.1644-0.12361z" fill="url(#linearGradient1503-8)" stroke="#808080" stroke-width=".3"/>
<rect x="8.058" y="272.45" width="17.751" height="20.693" fill="#fff" stroke="url(#linearGradient1191)" stroke-linecap="square" stroke-width=".26458"/>
<path d="m8.176 275.6v17.414h3.3571v-17.414z" fill="#ffd5d5"/>
<path d="m8.176 272.57v3.028h17.496v-3.028z" fill="#ffd5d5"/>
<path d="m16.062 272.56v20.519" fill="none" stroke="#5d542c" stroke-opacity=".32418" stroke-width=".26458"/>
<path d="m25.809 278.72h-17.751" fill="none" stroke="#5d542c" stroke-opacity=".32418" stroke-width=".26458"/>
<path d="m25.809 281.85h-17.751" fill="none" stroke="#5d542c" stroke-opacity=".32418" stroke-width=".26458"/>
<path d="m25.809 284.99h-17.751" fill="none" stroke="#5d542c" stroke-opacity=".32418" stroke-width=".26458"/>
<path d="m25.809 288.12h-17.751" fill="none" stroke="#5d542c" stroke-opacity=".32418" stroke-width=".26458"/>
<path d="m25.809 291.26h-17.751" fill="none" stroke="#5d542c" stroke-opacity=".32418" stroke-width=".26458"/>
<path d="m25.809 275.58h-17.751m3.5501-3.1338v20.69" fill="none" stroke="url(#linearGradient1189)" stroke-width=".26458"/>
<path d="m20.825 272.55v20.52" fill="none" stroke="#5d542c" stroke-opacity=".32418" stroke-width=".26458"/>
<path d="m9.4292 263.73-3.6225 2.4638 0.13255 2.3884 9.1315 0.57009 8.8978 0.28705c-0.30588-0.29521-0.58156-0.56101-0.92939-0.89585-1.2141-1.1688-2.6377-2.5267-3.8265-3.5814-0.3511-0.31004-0.86142-0.63161-1.3353-0.81742-0.36793-0.14428-0.80072-0.23425-1.2186-0.2946-0.43093-0.0623-0.84586-0.0931-1.1575-0.12015z" fill="#79221e"/>
<path d="m19.751 265.48c0.01633 0.0263 0.56114 0.90462 0.72779 1.3989 0.45158 1.0123 0.25858 3.9724 0.25037 5.6588 0.02772-0.19401 4.6905-1.3958 7.111 0.80464-0.01547-0.0273-0.04888-0.0804-0.12512-0.18628-0.07235-0.10046-0.18275-0.24915-0.37164-0.44224-0.52811-0.60452-0.23093-0.0845-0.80541-0.682-0.49669-0.45047-1.5695-1.5205-2.868-2.798-1.2412-1.2212-2.6869-2.6295-3.919-3.7538z" opacity=".248"/>
<path d="m4.7252 263.99v6.1366c2.2236-0.32948 4.4562-0.59378 6.686-0.8807l10.864-1.0885c-1.0328-1.0044-2.1331-2.0634-3.0959-2.9311-0.34678-0.31108-0.85082-0.63373-1.3188-0.82017-0.36341-0.14476-0.79087-0.23502-1.2036-0.29558-0.42562-0.0625-0.83545-0.0934-1.1433-0.12055z" opacity=".25"/>
<path d="m4.7252 263.72v6.1366c2.2236-0.32948 4.4562-0.59378 6.686-0.8807l10.864-1.0885c-1.0328-1.0044-2.1331-2.0634-3.0959-2.9311-0.34678-0.31108-0.85082-0.63373-1.3188-0.82017-0.36341-0.14476-0.79087-0.23502-1.2036-0.29558-0.42562-0.0625-0.83545-0.0934-1.1433-0.12055z" fill="url(#linearGradient1270)"/>
<path d="m19.424 264.96c0.01548 0.0249 0.53209 0.85773 0.69012 1.3264 0.42821 0.95987 0.29224 3.218 0.28445 4.8171 0.42899-0.0223 5.1595-0.73701 7.3284 1.8241-0.02928-0.0506-0.10278-0.0927-0.14377-0.17312-0.50077-0.57318-1.1396-1.0337-1.7235-1.5822-0.47098-0.42712-1.4882-1.4417-2.7195-2.653-1.1769-1.1579-2.5478-2.4932-3.7162-3.5592z" fill="#fff" stroke="#808080" stroke-width=".3"/>
<g transform="matrix(.53602 0 0 .53727 -234.93 -13.785)" stroke-width="4.0845"></g>
<g transform="matrix(.53602 0 0 .53727 -237.84 -13.785)" stroke-width="4.0845"></g>
<g transform="matrix(.589 0 0 .589 8.0842 115.06)" fill="#fff" opacity=".8" aria-label="B">
<path d="m-1.9145 260.44q-0.24327-0.0221-0.3649-0.15481-0.11058-0.14376-0.11058-0.29856 0-0.0774 0.044231-0.18798v-4.7769q-0.099519 0.0332-0.19904 0.0332-0.18798 0-0.30961-0.12163-0.11058-0.12164-0.11058-0.2875 0-0.24327 0.26538-0.45337 0.26538-0.21009 0.64134-0.3649 0.37596-0.16586 0.77404-0.25433 0.40913-0.0885 0.68557-0.0885 0.49759 0 0.89567 0.16586 0.40913 0.16587 0.68557 0.43125 0.2875 0.25433 0.43125 0.575 0.15481 0.30961 0.15481 0.60817 0 0.42019-0.22115 0.81826-0.2101 0.38702-0.59711 0.67453 0.55288 0.27643 0.81827 0.70768 0.26538 0.42019 0.26538 0.88461 0 0.30962-0.11058 0.60818-0.11058 0.28749-0.30961 0.54182-0.18798 0.25433-0.45336 0.45337-0.26538 0.18798-0.58606 0.2875-0.40913 0.13269-0.84038 0.16586-0.42019 0.0442-0.84038 0.0442-0.15481 0-0.30961 0-0.14375 0-0.29856-0.0111zm2.4216-2.7755q-0.25433-0.17692-0.56394-0.25433-0.29856-0.0884-0.61923-0.12163-0.18798 0.0221-0.38702 0.0442-0.18798 0.0111-0.37596 0.0111v2.2115q0.23221 0 0.63029-0.0221 0.39808-0.0221 0.77404-0.12163 0.38702-0.11058 0.66346-0.34279 0.2875-0.23221 0.2875-0.6524 0-0.22116-0.099519-0.42019-0.099519-0.19904-0.30961-0.33173zm-1.9461-1.3048q0.17692 0 0.34279 0.0111 0.17692 0 0.35385 0.0111 0.15481-0.0111 0.39808-0.0774 0.24327-0.0774 0.46442-0.19904 0.22115-0.13269 0.37596-0.32067 0.16586-0.18798 0.16586-0.44231 0-0.24327-0.12163-0.42019-0.12163-0.17692-0.30961-0.2875-0.18798-0.12163-0.43125-0.17693-0.23221-0.0553-0.45336-0.0553-0.42019 0-0.78509 0.14375v1.8135z" fill="#fff" stroke-width=".44921"/>
</g>
<g transform="matrix(.53602 0 0 .53727 -297.5 -30.764)" stroke-width="4.0845"></g>
<g transform="matrix(.53602 0 0 .53727 -297.5 -30.739)" stroke-width="4.0845"></g>
</g>
</svg>
