<svg width="128" height="128" version="1.1" viewBox="0 0 33.867 33.867" xmlns="http://www.w3.org/2000/svg" xmlns:osb="http://www.openswatchbook.org/uri/2009/osb" xmlns:xlink="http://www.w3.org/1999/xlink">
<defs>
<linearGradient id="linearGradient1503-8" x1="29.203" x2="4.5843" y1="263.52" y2="296.17" gradientTransform="matrix(1.001 0 0 1.001 -.017758 -.29086)" gradientUnits="userSpaceOnUse">
<stop stop-color="#d9d9d9" offset="0"/>
<stop stop-color="#fff" offset="1"/>
</linearGradient>
<linearGradient id="linearGradient4714">
<stop stop-color="#fff" stop-opacity=".82353" offset="0"/>
<stop stop-color="#fff" stop-opacity=".47059" offset="1"/>
</linearGradient>
<linearGradient id="linearGradient4989" x1="53.15" x2="53.799" y1="4.69" y2="28.858" gradientTransform="matrix(.03926 .00096063 -.0010551 .035744 5.5974 264.03)" gradientUnits="userSpaceOnUse" xlink:href="#linearGradient4714"/>
<linearGradient id="linearGradient4992" x1="52.278" x2="23.595" y1="90.006" y2="90.006" gradientTransform="matrix(.039274 0 0 .035757 5.5974 264.03)" gradientUnits="userSpaceOnUse" xlink:href="#linearGradient4714"/>
<linearGradient id="linearGradient4995" x1="35.776" x2="108.44" y1="56.633" y2="65.105" gradientTransform="matrix(.039274 0 0 .035757 5.5974 264.03)" gradientUnits="userSpaceOnUse">
<stop stop-color="#fff" stop-opacity=".27451" offset="0"/>
<stop stop-color="#fff" stop-opacity=".27451" offset=".5"/>
<stop stop-color="#fff" stop-opacity=".47059" offset="1"/>
</linearGradient>
</defs>
<g transform="translate(0 -263.13)">
<path d="m4.5714 264.1v32.612h24.724v-18.3c-0.04716-0.8313-0.10165-1.5753-0.3125-2.3297-0.21448-0.76736-0.55247-1.4939-0.95641-2.1892-0.51687-0.8897-1.3904-1.4633-2.1667-2.1925-0.47098-0.42711-1.4882-1.4417-2.7195-2.653-1.2212-1.2014-2.6535-2.5969-3.8492-3.6811-0.35316-0.3187-0.86616-0.64943-1.3428-0.84044-0.37009-0.14831-0.80547-0.24063-1.2258-0.30267-0.43345-0.064-0.85092-0.0958-1.1644-0.12361z" opacity=".25"/>
<path d="m4.5714 263.57v32.612h24.724v-18.3c-0.04716-0.83129-0.10165-1.5753-0.3125-2.3297-0.21448-0.76736-0.55247-1.4939-0.95641-2.1892-0.51687-0.88969-1.3904-1.4633-2.1667-2.1925-0.47098-0.42712-1.4882-1.4417-2.7195-2.653-1.2212-1.2014-2.6535-2.5969-3.8492-3.6811-0.35316-0.3187-0.86616-0.64944-1.3428-0.84044-0.37009-0.14831-0.80547-0.24063-1.2258-0.30267-0.43345-0.064-0.85092-0.0958-1.1644-0.12361z" fill="url(#linearGradient1503-8)" stroke="#808080" stroke-width=".3"/>
<path d="m9.4292 263.73-3.6225 2.4638 0.13255 2.3884 9.1315 0.57009 8.8978 0.28705c-0.30588-0.29521-0.58156-0.56101-0.92939-0.89585-1.2141-1.1688-2.6377-2.5267-3.8265-3.5814-0.3511-0.31004-0.86142-0.63161-1.3353-0.81742-0.36793-0.14428-0.80072-0.23425-1.2186-0.2946-0.43093-0.0623-0.84586-0.0931-1.1575-0.12015z" fill="#887b00"/>
<path d="m19.751 265.48c0.01633 0.0263 0.56114 0.90462 0.72779 1.3989 0.45158 1.0123 0.25858 3.9724 0.25037 5.6588 0.02772-0.19401 4.6905-1.3958 7.111 0.80464-0.01547-0.0273-0.04888-0.0804-0.12512-0.18628-0.07235-0.10046-0.18275-0.24915-0.37164-0.44224-0.52811-0.60452-0.23093-0.0845-0.80541-0.682-0.49669-0.45047-1.5695-1.5205-2.868-2.798-1.2412-1.2212-2.6869-2.6295-3.919-3.7538z" opacity=".248"/>
<path d="m4.7252 263.99v6.1366c2.2236-0.32948 4.4562-0.59378 6.686-0.8807l10.864-1.0885c-1.0328-1.0044-2.1331-2.0634-3.0959-2.9311-0.34678-0.31108-0.85082-0.63373-1.3188-0.82017-0.36341-0.14476-0.79087-0.23502-1.2036-0.29558-0.42562-0.0625-0.83545-0.0934-1.1433-0.12055z" opacity=".25"/>
<path d="m4.7252 263.72v6.1366c2.2236-0.32948 4.4562-0.59378 6.686-0.8807l10.864-1.0885c-1.0328-1.0044-2.1331-2.0634-3.0959-2.9311-0.34678-0.31108-0.85082-0.63373-1.3188-0.82017-0.36341-0.14476-0.79087-0.23502-1.2036-0.29558-0.42562-0.0625-0.83545-0.0934-1.1433-0.12055z" fill="#b09f00"/>
<path d="m19.424 264.96c0.01548 0.0249 0.53209 0.85773 0.69012 1.3264 0.42821 0.95987 0.29224 3.218 0.28445 4.8171 0.42899-0.0223 5.1595-0.73701 7.3284 1.8241-0.02928-0.0506-0.10278-0.0927-0.14377-0.17312-0.50077-0.57318-1.1396-1.0337-1.7235-1.5822-0.47098-0.42712-1.4882-1.4417-2.7195-2.653-1.1769-1.1579-2.5478-2.4932-3.7162-3.5592z" fill="#fff" stroke="#808080" stroke-width=".3"/>
<g transform="matrix(.53602 0 0 .53727 -234.93 -13.785)" stroke-width="4.0845"></g>
<g transform="matrix(.53602 0 0 .53727 -237.84 -13.785)" stroke-width="4.0845"></g>
<g transform="matrix(.53602 0 0 .53727 -238.91 -60.698)" stroke-width="4.0845"></g>
<g transform="matrix(.53602 0 0 .53727 -241.82 -60.698)" stroke-width="4.0845"></g>
<g transform="matrix(.53052 0 0 .53179 -346.41 -61.638)" stroke-width="4.1267"></g>
<g transform="matrix(.53052 0 0 .53179 -349.28 -61.638)" stroke-width="4.1267"></g>
<path d="m14.693 287.71v-10.223h9.7553" fill="none" stroke="#808080" stroke-linecap="round" stroke-width=".5"/>
<rect transform="matrix(-.71124 -.70295 .73187 -.68144 0 0)" x="-221.55" y="-205.14" width="1.6844" height="3.4772" ry=".70686" fill="#f1473e"/>
<path d="m7.1939 294.92c0.15559 0.0325 0.34094 5e-3 0.46857-0.0885 0.21991-0.16062 0.4373-0.38048 0.60313-0.59679 0.14873-0.19401 0.19511-0.49762 0.10021-0.72188-0.071104-0.16808-0.25804-0.33014-0.44335-0.32942-0.16872 6.6e-4 -0.27302 0.19533-0.40126 0.30303-0.15914 0.13365-0.32203 0.26635-0.45557 0.42474-0.11991 0.14223-0.30743 0.28119-0.30523 0.46583 0.00223 0.18776 0.18729 0.33277 0.32156 0.46643 0.031931 0.0318 0.067437 0.0674 0.11192 0.0767z" fill="#ff4b42"/>
<path d="m22.385 281.25-12.505 12.19-1.2642-1.593 12.398-12.039z" fill="#2b2719"/>
<path d="m22.312 280.77-12.84 12.358-0.71233-0.81403 12.807-12.438z" fill="#e5c41b"/>
<path d="m24.548 277.82-2.1628 3.4302-1.3712-1.4422 3.3962-2.0692s0.09651-0.0544 0.13216-0.0273c0.02925 0.0221 0.0056 0.10863 0.0056 0.10863z" fill="#bb9d55"/>
<path d="m21.312 280.12 2.6542-1.9593-0.05301-0.11994-2.8989 1.7661z" fill="#a68c4c"/>
<path d="m22.385 281.25 1.7936-2.8446-0.21198-0.0574-1.8546 2.615z" fill="#ab8f4f"/>
<path d="m23.959 278.76 0.58879-0.93377s0.0237-0.0866-0.0056-0.10864c-0.03569-0.027-0.13213 0.0274-0.13213 0.0274l-0.86601 0.52762 0.05108 0.0402c0.18764 0.14721 0.3054 0.33657 0.36383 0.4473z"/>
<path d="m8.6183 294.64c0.00382 2e-3 0.00745 3e-3 0.010836 3e-3 0.055377 6e-3 0.13059-0.0238 0.18334-0.06 0.055728-0.0383 0.085461-0.10382 0.12684-0.15681 0.043788-0.0561 0.068873-0.13085 0.12842-0.17055 0.072472-0.0483 0.18548-0.0124 0.25398-0.066 0.087372-0.0684 0.075696-0.21514 0.15609-0.29132 0.063019-0.0597 0.17473-0.0511 0.2367-0.11194 0.057143-0.0561 0.052794-0.19518 0.10537-0.21424 0.052573-0.0191 0.040887-0.0148 0.20131-0.1708 0.16043-0.15598 0.21998-0.26234 0.18303-0.30763-3.56e-4 -4.5e-4 -1e-3 -8.1e-4 -0.0014-1e-3 4e-5 -1.4e-4 6.16e-4 -2e-3 6.16e-4 -2e-3s-0.08595-0.0859-0.16372-0.14233c-0.0159-0.0113-0.0273-0.022-0.03749-0.0322-0.00516-0.0101-0.010996-0.0189-0.01572-0.0302-0.061928-0.14706-0.19424-0.21646-0.24655-0.24964-0.025752-0.0161-0.047671-0.0186-0.084543-0.0419-0.031565-0.0303-0.070548-0.0661-0.12695-0.11424-0.017518-0.0191-0.036382-0.0406-0.057657-0.0658-0.07213-0.086-0.11728-0.1329-0.15483-0.17091-0.00629-0.0155-0.011037-0.0289-0.020113-0.0435-0.031052-0.0495-0.094651-0.17017-0.22833-0.237-0.024726-0.0204-0.046539-0.037-0.072878-0.0735-0.055727-0.0776-0.1414-0.16388-0.1414-0.16388s-0.046048-0.0498-0.056081-0.0464c-0.047822-0.0302-0.11705 0.079-0.27408 0.22811-0.16229 0.15412-0.15774 0.14274-0.1783 0.19395-0.02056 0.0512-0.16203 0.0439-0.22033 0.0987-0.063235 0.0595-0.056993 0.16947-0.11917 0.23005-0.079312 0.0773-0.22841 0.0625-0.2999 0.14685-0.056045 0.0661-0.022063 0.1778-0.072814 0.24791-0.041703 0.0576-0.11824 0.0806-0.17629 0.12241-0.054844 0.0395-0.12225 0.0673-0.16243 0.12116-0.038072 0.051-0.069883 0.12414-0.064975 0.17864 0.00427 0.0475 0.13014 0.13096 0.17984 0.16742 0.087134 0.10921 0.27675 0.34362 0.34788 0.39109 0.027216 0.0187 0.080519 0.0618 0.13939 0.11162 0.072869 0.0849 0.14191 0.16785 0.16642 0.20499 0.054688 0.0829 0.36688 0.33122 0.43112 0.38285 0.03768 0.0529 0.087877 0.11979 0.12467 0.13516z" fill="#535667"/>
<path d="m8.1988 294.26 1.6824-1.5201c-0.054448-0.051-0.111-0.0828-0.14112-0.10191-0.025752-0.0161-0.047671-0.0186-0.084543-0.0419-0.031566-0.0303-0.070548-0.0661-0.12695-0.11424-0.017518-0.0191-0.036382-0.0406-0.057657-0.0658-0.072131-0.086-0.11728-0.1329-0.15483-0.17091-0.00629-0.0155-0.011046-0.0289-0.020148-0.0435-0.028479-0.0455-0.085068-0.15032-0.19735-0.219l-1.6123 1.5292c0.09399 0.11513 0.21626 0.25905 0.2704 0.29519 0.027216 0.0187 0.08052 0.0618 0.13939 0.11163 0.07287 0.0849 0.14191 0.16784 0.16642 0.20499 0.019442 0.0294 0.074593 0.0812 0.13635 0.13621z" fill="#686c81"/>
<circle cx="14.712" cy="277.86" r="5.0554" fill="none" stroke="#808080" stroke-width=".5"/>
<path transform="matrix(1 0 0 .92922 35.406 20.106)" d="m-8.1723 293.05-5.178-1e-5 -5.178 1e-5 5.178-8.9686 2.589 4.4843z" fill="none" stroke="#808080" stroke-width=".51869"/>
<g transform="matrix(-.89747 -.34755 .35387 -.88145 -47.736 558.54)" fill="none" stroke-width="1.046">
<rect transform="matrix(.91594 .40133 -.42278 .90623 0 0)" x="162.14" y="236.3" width="1.7618" height="3.635" ry=".73892"/>
<path d="m49.086 279.72c-0.1626 0.0273-0.33059 0.12505-0.41757 0.2651-0.14988 0.24132-0.2744 0.53985-0.35058 0.81528-0.06832 0.24704 0.0045 0.56277 0.18283 0.74688 0.13364 0.13799 0.37665 0.22603 0.55507 0.15487 0.16245-0.0648 0.18766-0.2956 0.26962-0.4501 0.10172-0.19173 0.20743-0.38396 0.27489-0.59025 0.06057-0.18524 0.1876-0.39298 0.114-0.57343-0.07484-0.1835-0.30944-0.25552-0.49066-0.3357-0.04311-0.0191-0.09111-0.0405-0.13759-0.0327z"/>
<path d="m39.728 298.92 7.3395-16.724 1.8358 1.0834-7.2946 16.535z"/>
<path d="m39.986 299.36 7.5979-17.016 1.0021 0.52841-7.5348 17.082z"/>
<path d="m38.97 303.11 0.75772-4.1903 1.8806 0.89466-2.474 3.323s-0.07201 0.0901-0.11686 0.0771c-0.03677-0.0106-0.04746-0.10453-0.04746-0.10453z"/>
<path d="m41.2 299.62-1.801 2.9329 0.09755 0.0976 2.1117-2.8362z"/>
<path d="m39.728 298.92-0.62836 3.475 0.22666-0.0242 0.77604-3.2727z"/>
<path d="m39.177 301.96-0.20629 1.1407s0.01066 0.094 0.04743 0.10455c0.04485 0.0129 0.11682-0.0771 0.11682-0.0771l0.63086-0.84733-0.0648-0.02c-0.23794-0.0732-0.4248-0.21435-0.52402-0.30085z"/>
<path d="m47.822 280.54c-0.0043-1e-4 -0.0082 2.6e-4 -0.01168 1e-3 -0.05571 0.0152-0.11673 0.073-0.15357 0.12861-0.03891 0.0588-0.04222 0.13443-0.06161 0.20219-0.02052 0.0717-0.01576 0.15466-0.05781 0.21628-0.05118 0.075-0.17406 0.0827-0.21937 0.16136-0.05779 0.10034 0.01029 0.24001-0.03774 0.34538-0.03765 0.0826-0.1487 0.11665-0.18492 0.1999-0.03339 0.0768 0.02465 0.21171-0.01867 0.25042-0.04332 0.0387-0.03369 0.0301-0.12801 0.24424-0.09432 0.21415-0.11057 0.34122-0.05741 0.37164 5.19e-4 3.1e-4 0.0013 4.1e-4 0.0018 7e-4 1.5e-5 1.5e-4 1.03e-4 2e-3 1.03e-4 2e-3s0.11615 0.0517 0.21298 0.0775c0.01969 5e-3 0.03483 0.0112 0.04863 0.0174 0.0089 8e-3 0.01793 0.0144 0.02686 0.0237 0.11665 0.12085 0.27111 0.13868 0.3344 0.15137 0.03106 6e-3 0.05316 1.1e-4 0.09775 9e-3 0.04219 0.0178 0.09363 0.0381 0.16665 0.0639 0.02429 0.0121 0.05079 0.026 0.08108 0.0427 0.10284 0.057 0.16455 0.0859 0.21548 0.10894 0.01206 0.0128 0.02184 0.0242 0.03625 0.0351 0.04911 0.0368 0.15715 0.13109 0.31193 0.14588 0.03173 0.0106 0.05919 0.0186 0.09875 0.0445 0.08378 0.055 0.1998 0.10714 0.1998 0.10714s0.06369 0.0314 0.07203 0.0242c0.05782 0.0115 0.0823-0.12206 0.17599-0.32818 0.09683-0.21303 0.09685-0.20012 0.09685-0.25822s0.13926-0.10469 0.17424-0.18073c0.03793-0.0825-0.01065-0.18807 0.02586-0.27119 0.04657-0.10602 0.19604-0.14826 0.23235-0.25821 0.02846-0.0862-0.04756-0.18297-0.02576-0.2711 0.01792-0.0724 0.08281-0.12412 0.12262-0.18722 0.03761-0.0596 0.09184-0.11255 0.10974-0.18072 0.01695-0.0646 0.01933-0.14846-0.0065-0.2001-0.0225-0.045-0.1762-0.0791-0.23824-0.096-0.12631-0.0741-0.3999-0.23216-0.48687-0.25172-0.03348-8e-3 -0.10159-0.0301-0.17763-0.0566-0.10312-0.0556-0.20182-0.11084-0.23984-0.13799-0.08483-0.0606-0.48201-0.18571-0.56396-0.21198-0.05681-0.0376-0.13112-0.0842-0.17254-0.0853z"/>
<path d="m48.374 280.75-1.0339 2.1322c0.07226 0.0294 0.1391 0.0391 0.17554 0.0464 0.03106 6e-3 0.05316 1.1e-4 0.09775 9e-3 0.04219 0.0178 0.09363 0.0381 0.16665 0.0639 0.02429 0.0121 0.05079 0.026 0.08108 0.0427 0.10285 0.057 0.16455 0.0859 0.21548 0.10894 0.01206 0.0128 0.02185 0.0242 0.03625 0.035 0.04506 0.0338 0.14023 0.11525 0.27509 0.13999l0.96276-2.1145c-0.13521-0.0773-0.30883-0.17212-0.37504-0.18702-0.03348-8e-3 -0.10159-0.0301-0.17763-0.0566-0.10312-0.0556-0.20182-0.11084-0.23984-0.13799-0.03014-0.0215-0.10338-0.0514-0.18422-0.0819z"/>
</g>
<path d="m24.675 277.72c-0.0428-0.013-0.11472 0.0713-0.11472 0.0713l-0.36225 0.4563-0.25683 0.32298-0.01189 0.015-1.8428 2.3198-7.2652 15.123h2.2407l6.8089-14.242 0.70228-3.2887 0.14469-0.67696s-0.0078-0.0896-0.04289-0.10026z" opacity=".25"/>
<path d="m8.7242 264.35c0.16149 0.071 0.27136 0.19255 0.27725 0.36967 0.0091 0.27486-0.2619 0.41954-0.57761 0.41588h-0.13863c0.3312 5e-3 0.66992 0.22997 0.67003 0.5314v1.3863c1.06e-4 0.30142-0.33882 0.48003-0.67003 0.48519h-0.60071l0.0231 0.34656c0.01359 0.28248-0.18757 0.49436-0.43898 0.55451l1.0397-0.0462c0.85366-0.0332 1.548-0.58755 1.548-1.3863v-1.2938c0-0.65947-0.4863-1.1925-1.1321-1.3632z" fill="url(#linearGradient4995)"/>
<path d="m6.9429 266.07 0.1748-7e-3c0.27349-0.0109 0.50519 0.21969 0.51949 0.51704l0.06259 1.3011c0.01431 0.29735-0.1968 0.50941-0.46785 0.55641 0 0-0.07871 0.0161-0.21782 2e-3 -0.36714-0.0836-0.45137-0.2274-0.4736-0.62933l-0.06546-1.1836c-0.01644-0.29725 0.19436-0.5455 0.46785-0.5564z" fill="url(#linearGradient4992)"/>
<path d="m6.9216 264.21 1.508 0.0608c0.31543 0.0127 0.56611 0.1676 0.57518 0.44009l2.44e-4 7e-3c0.0091 0.27486-0.26854 0.41495-0.58426 0.41129l-1.5171-0.0176c-0.2953-3e-3 -0.54277-0.21016-0.54565-0.40445l-0.0015-0.0994c-0.0038-0.25359 0.24963-0.4108 0.56506-0.39808z" fill="url(#linearGradient4989)"/>
<path d="m6.922 264.21c-0.31543-0.0127-0.55827 0.13919-0.5545 0.39278v0.11552c0.0029 0.19429 0.2361 0.38935 0.5314 0.39277l1.3863 0.0231c0.3312 5e-3 0.66992 0.22997 0.67003 0.5314v1.3863c1.06e-4 0.30142-0.33882 0.48003-0.67003 0.48519h-0.60071l-0.04621-0.97039c-0.01431-0.29734-0.25791-0.5192-0.5314-0.50829h-0.16173c-0.27349 0.0109-0.47853 0.25725-0.46209 0.5545l0.04621 1.2014c0.02223 0.40193 0.11805 0.54025 0.48519 0.62382 0.13911 0.0144 0.20794 0 0.20794 0 0.01355-2e-3 0.03297 3e-3 0.04621 0l1.0397-0.0462c0.85366-0.0332 1.548-0.58755 1.548-1.3863v-1.2938c0-0.61641-0.43372-1.1141-1.0166-1.3169-0.03097-0.0223-0.07826-0.0298-0.11552-0.0462-0.08695-0.0382-0.18996-0.0649-0.30036-0.0693z" fill="none" stroke="#665c00" stroke-width=".079375"/>
</g>
</svg>
