<svg width="128" height="128" version="1.1" viewBox="0 0 33.867 33.867" xmlns="http://www.w3.org/2000/svg" xmlns:xlink="http://www.w3.org/1999/xlink">
<defs>
<linearGradient id="linearGradient912" x1="82.212" x2="84.651" y1="195.96" y2="56.983" gradientTransform="matrix(.22591 0 0 .22591 7.1072 162.28)" gradientUnits="userSpaceOnUse">
<stop stop-color="#aab1b2" offset="0"/>
<stop stop-color="#d3e5e9" offset="1"/>
</linearGradient>
</defs>
<g transform="translate(0 -263.13)">
<g transform="matrix(.88933 0 0 .88959 -8.7268 110.31)">
<path d="m13.517 207.79c-0.81204-0.12429-1.5687-0.50873-2.1533-1.094-0.4914-0.49199-0.83281-1.0998-1.0277-1.8295l-0.08655-0.32407v-4.9212c0-4.7398 0.0028-4.9293 0.07607-5.1404 0.27566-0.79426 0.59783-1.1704 1.1404-1.3316 0.39473-0.11722 0.88801-0.0598 1.3062 0.15214 0.10462 0.053 0.33295 0.21539 0.50739 0.36083 0.71913 0.59956 1.3929 0.72181 2.1153 0.38377 0.63444-0.2969 0.99991-0.92042 1.1549-1.9704 0.08651-0.58611 0.05668-1.6759-0.05979-2.1844-0.17043-0.74403-0.51223-1.321-0.95947-1.6197-0.3174-0.21196-0.57147-0.28603-0.9811-0.28603-0.43303 0-0.69227 0.0847-1.3206 0.43122-0.58272 0.3214-0.88739 0.43378-1.2732 0.46964-0.83529 0.0776-1.4745-0.37671-1.6646-1.1832-0.08981-0.38101-0.09159-9.3766-2e-3 -9.8906 0.11515-0.66032 0.41852-1.324 0.88145-1.9284 0.48922-0.63872 1.2589-1.1362 2.0519-1.3263 0.33122-0.0794 0.44868-0.0802 12.101-0.0805 10.528-2.2e-4 11.799 6e-3 12.074 0.0622 1.3926 0.28318 2.5293 1.4335 2.969 3.0046 0.08245 0.29461 0.08445 0.3833 0.10875 4.8229 0.02237 4.0844 0.03129 4.5454 0.09223 4.7568 0.08537 0.29607 0.1908 0.44408 0.38796 0.54466 0.50554 0.25791 1.0899 0.0789 1.7399-0.53289 0.44193-0.41602 0.7201-0.56318 1.1954-0.63247 0.92612-0.13498 1.9062 0.34926 2.567 1.2683 0.82692 1.1501 1.1698 2.7027 0.97127 4.3985-0.25147 2.1484-1.3994 3.5064-2.9639 3.5064-0.68957 0-1.1585-0.18436-1.8194-0.71525-0.54606-0.43866-0.86899-0.59974-1.2024-0.59974-0.49477 0-0.75872 0.24623-0.89704 0.83681-0.02728 0.11648-0.05146 1.7922-0.069 4.7818-0.02664 4.5408-0.02815 4.6066-0.11238 4.9083-0.33503 1.2003-1.0659 2.0841-2.1376 2.585-0.17794 0.0832-0.46697 0.19254-0.6423 0.24305l-0.31878 0.0918-11.775 6e-3c-6.4763 3e-3 -11.865-8e-3 -11.974-0.0243z" opacity=".25" stroke-width="1.1243"/>
<path d="m13.517 207.26c-0.81204-0.12429-1.5687-0.50873-2.1533-1.094-0.4914-0.49199-0.83281-1.0998-1.0277-1.8295l-0.08655-0.32407v-4.9212c0-4.7398 0.0028-4.9293 0.07607-5.1404 0.27566-0.79426 0.59783-1.1704 1.1404-1.3316 0.39473-0.11722 0.88801-0.0598 1.3062 0.15214 0.10462 0.053 0.33295 0.21539 0.50739 0.36083 0.71913 0.59956 1.3929 0.72181 2.1153 0.38377 0.63444-0.2969 0.99991-0.92042 1.1549-1.9704 0.08651-0.58611 0.05668-1.6759-0.05979-2.1844-0.17043-0.74403-0.51223-1.321-0.95947-1.6197-0.3174-0.21196-0.57147-0.28603-0.9811-0.28603-0.43303 0-0.69227 0.0847-1.3206 0.43122-0.58272 0.3214-0.88739 0.43378-1.2732 0.46964-0.83529 0.0776-1.4745-0.37671-1.6646-1.1832-0.08981-0.38101-0.09159-9.3766-2e-3 -9.8906 0.11515-0.66032 0.41852-1.324 0.88145-1.9284 0.48922-0.63872 1.2589-1.1362 2.0519-1.3263 0.33122-0.0794 0.44868-0.0802 12.101-0.0805 10.528-2.2e-4 11.799 6e-3 12.074 0.0622 1.3926 0.28318 2.5293 1.4335 2.969 3.0046 0.08245 0.29461 0.08445 0.3833 0.10875 4.8229 0.02237 4.0844 0.03129 4.5454 0.09223 4.7568 0.08537 0.29607 0.1908 0.44408 0.38796 0.54466 0.50554 0.25791 1.0899 0.0789 1.7399-0.53289 0.44193-0.41602 0.7201-0.56318 1.1954-0.63247 0.92612-0.13498 1.9062 0.34926 2.567 1.2683 0.82692 1.1501 1.1698 2.7027 0.97127 4.3985-0.25147 2.1484-1.3994 3.5064-2.9639 3.5064-0.68957 0-1.1585-0.18436-1.8194-0.71525-0.54606-0.43866-0.86899-0.59974-1.2024-0.59974-0.49477 0-0.75872 0.24623-0.89704 0.83681-0.02728 0.11648-0.05146 1.7922-0.069 4.7818-0.02664 4.5408-0.02815 4.6066-0.11238 4.9083-0.33503 1.2003-1.0659 2.0841-2.1376 2.585-0.17794 0.0832-0.46697 0.19254-0.6423 0.24305l-0.31878 0.0918-11.775 6e-3c-6.4763 3e-3 -11.865-8e-3 -11.974-0.0243z" fill="url(#linearGradient912)" stroke="#b3b3b3" stroke-width=".22486"/>
</g>
</g>
</svg>
