<svg width="128" height="128" version="1.1" viewBox="0 0 33.867 33.867" xmlns="http://www.w3.org/2000/svg" xmlns:osb="http://www.openswatchbook.org/uri/2009/osb" xmlns:xlink="http://www.w3.org/1999/xlink">
<defs>
<linearGradient id="linearGradient1503-8" x1="29.203" x2="4.5843" y1="263.52" y2="296.17" gradientTransform="matrix(1.001 0 0 1.001 -.017758 -.29086)" gradientUnits="userSpaceOnUse">
<stop stop-color="#d9d9d9" offset="0"/>
<stop stop-color="#fff" offset="1"/>
</linearGradient>
<linearGradient id="linearGradient1270" x1="7.3739" x2="7.5161" y1="264.53" y2="268.61" gradientTransform="translate(-1.5769 -.024997)" gradientUnits="userSpaceOnUse">
<stop stop-color="#4d4d4d" offset="0"/>
<stop stop-color="#333" offset="1"/>
</linearGradient>
</defs>
<g transform="translate(0 -263.13)">
<path d="m4.5714 264.1v32.612h24.724v-18.3c-0.04716-0.8313-0.10165-1.5753-0.3125-2.3297-0.21448-0.76736-0.55247-1.4939-0.95641-2.1892-0.51687-0.8897-1.3904-1.4633-2.1667-2.1925-0.47098-0.42711-1.4882-1.4417-2.7195-2.653-1.2212-1.2014-2.6535-2.5969-3.8492-3.6811-0.35316-0.3187-0.86616-0.64943-1.3428-0.84044-0.37009-0.14831-0.80547-0.24063-1.2258-0.30267-0.43345-0.064-0.85092-0.0958-1.1644-0.12361z" opacity=".25"/>
<path d="m4.5714 263.57v32.612h24.724v-18.3c-0.04716-0.83129-0.10165-1.5753-0.3125-2.3297-0.21448-0.76736-0.55247-1.4939-0.95641-2.1892-0.51687-0.88969-1.3904-1.4633-2.1667-2.1925-0.47098-0.42712-1.4882-1.4417-2.7195-2.653-1.2212-1.2014-2.6535-2.5969-3.8492-3.6811-0.35316-0.3187-0.86616-0.64944-1.3428-0.84044-0.37009-0.14831-0.80547-0.24063-1.2258-0.30267-0.43345-0.064-0.85092-0.0958-1.1644-0.12361z" fill="url(#linearGradient1503-8)" stroke="#808080" stroke-width=".3"/>
<path d="m9.4292 263.73-3.6225 2.4638 0.13255 2.3884 9.1315 0.57009 8.8978 0.28705c-0.30588-0.29521-0.58156-0.56101-0.92939-0.89585-1.2141-1.1688-2.6377-2.5267-3.8265-3.5814-0.3511-0.31004-0.86142-0.63161-1.3353-0.81742-0.36793-0.14428-0.80072-0.23425-1.2186-0.2946-0.43093-0.0623-0.84586-0.0931-1.1575-0.12015z"/>
<path d="m19.751 265.48c0.01633 0.0263 0.56114 0.90462 0.72779 1.3989 0.45158 1.0123 0.25858 3.9724 0.25037 5.6588 0.02772-0.19401 4.6905-1.3958 7.111 0.80464-0.01547-0.0273-0.04888-0.0804-0.12512-0.18628-0.07235-0.10046-0.18275-0.24915-0.37164-0.44224-0.52811-0.60452-0.23093-0.0845-0.80541-0.682-0.49669-0.45047-1.5695-1.5205-2.868-2.798-1.2412-1.2212-2.6869-2.6295-3.919-3.7538z" opacity=".248"/>
<path d="m4.7252 263.99v6.1366c2.2236-0.32948 4.4562-0.59378 6.686-0.8807l10.864-1.0885c-1.0328-1.0044-2.1331-2.0634-3.0959-2.9311-0.34678-0.31108-0.85082-0.63373-1.3188-0.82017-0.36341-0.14476-0.79087-0.23502-1.2036-0.29558-0.42562-0.0625-0.83545-0.0934-1.1433-0.12055z" opacity=".25"/>
<path d="m4.7252 263.72v6.1366c2.2236-0.32948 4.4562-0.59378 6.686-0.8807l10.864-1.0885c-1.0328-1.0044-2.1331-2.0634-3.0959-2.9311-0.34678-0.31108-0.85082-0.63373-1.3188-0.82017-0.36341-0.14476-0.79087-0.23502-1.2036-0.29558-0.42562-0.0625-0.83545-0.0934-1.1433-0.12055z" fill="url(#linearGradient1270)"/>
<path d="m19.424 264.96c0.01548 0.0249 0.53209 0.85773 0.69012 1.3264 0.42821 0.95987 0.29224 3.218 0.28445 4.8171 0.42899-0.0223 5.1595-0.73701 7.3284 1.8241-0.02928-0.0506-0.10278-0.0927-0.14377-0.17312-0.50077-0.57318-1.1396-1.0337-1.7235-1.5822-0.47098-0.42712-1.4882-1.4417-2.7195-2.653-1.1769-1.1579-2.5478-2.4932-3.7162-3.5592z" fill="#fff" stroke="#808080" stroke-width=".3"/>
<g transform="matrix(.53602 0 0 .53727 -234.93 -13.785)" stroke-width="4.0845"></g>
<g transform="matrix(.53602 0 0 .53727 -237.84 -13.785)" stroke-width="4.0845"></g>
<g fill="#fff" opacity=".8" aria-label="F">
<path d="m9.0117 265.03q-0.044779 0-0.094533-0.0199-0.30848-0.11444-0.81597-0.11444-0.16419 0-0.38559 0.0249-0.21892 0.0224-0.49256 0.0722l-0.00498 1.0747q0.48013-0.12687 0.72143-0.12687 0.38311 0 0.79358 0.0448 0.23384 0.0249 0.23384 0.25374 0 0.11195-0.072143 0.18658-0.072143 0.0721-0.17911 0.0721-0.12936 0-0.38808-0.0224t-0.38808-0.0224q-0.16916 0-0.73138 0.14428l-0.022389 1.7115q0 0.10697-0.069656 0.17912-0.069656 0.0746-0.17663 0.0746-0.10697 0-0.17911-0.0746-0.069656-0.0721-0.069656-0.17912 0-0.49008 0.017414-1.4702 0.019902-0.98264 0.019902-1.4727 0-0.10946-0.00498-0.32838-0.00249-0.2214-0.00249-0.33086t0.067168-0.18409q0.069656-0.0746 0.17911-0.0746 0.082094 0 0.14677 0.0448 0.30848-0.0547 0.55476-0.0796 0.24628-0.0274 0.43286-0.0274 0.28609 0 0.65427 0.0821 0.50003 0.11443 0.50003 0.29852 0 0.0995-0.06468 0.17663-0.072143 0.0871-0.17911 0.0871z" fill="#fff" stroke-width=".26458"/>
</g>
<g transform="matrix(.53602 0 0 .53727 -297.5 -30.764)" stroke-width="4.0845"></g>
<g transform="matrix(.53602 0 0 .53727 -297.5 -30.739)" stroke-width="4.0845"></g>
<g transform="matrix(.56125 0 0 .56125 -111.37 212.36)" fill="#4d4d4d" fill-rule="evenodd">
<path d="m228.13 113.13c-0.89435 0-1.6633 0.63389-1.8314 1.5131l-3.0744 15.98-1.6853-6.7455c-0.20809-0.83096-0.9536-1.4125-1.8107-1.4125h-3.7331c-0.67249-0.01-1.2981 0.34451-1.6357 0.92467-0.33899 0.58153-0.33899 1.2995 0 1.8796 0.33762 0.58153 0.96325 0.93431 1.6357 0.92604h2.2765l3.3817 13.523c0.21221 0.84887 0.98529 1.4359 1.8604 1.4125 0.87505-0.0248 1.6151-0.65319 1.7804-1.5131l4.3767-22.757h11.527c0.67524 0.0124 1.3036-0.34038 1.6454-0.92191 0.34038-0.58291 0.34038-1.3036 0-1.8865-0.34175-0.58153-0.97014-0.93431-1.6454-0.9219z"/>
<path d="m231.32 126.17c-0.69178 3e-3 -1.3257 0.38723-1.6468 0.99908-0.32108 0.61323-0.27698 1.3532 0.11576 1.9237l3.0427 4.5654-3.0427 4.5668c-0.38034 0.55397-0.43271 1.2706-0.13781 1.8741 0.29628 0.60358 0.89297 1.0018 1.5641 1.0418 0.6711 0.0413 1.3119-0.2825 1.6771-0.84612l2.1814-3.2728 2.1828 3.2728c0.36518 0.56362 1.006 0.88746 1.6771 0.84612 0.67111-0.04 1.2678-0.43822 1.5641-1.0418 0.2949-0.60358 0.24253-1.3202-0.13781-1.8741l-3.0427-4.5668 3.0427-4.5654c0.39826-0.57877 0.43684-1.3312 0.10198-1.9486-0.33486-0.61598-0.98805-0.99218-1.6895-0.97289-0.6146 0.0165-1.1824 0.33486-1.5158 0.85163l-2.1828 3.2728-2.1814-3.2728c-0.34451-0.5333-0.93707-0.85439-1.5723-0.85301z"/>
</g>
</g>
</svg>
