<svg width="128" height="128" version="1.1" viewBox="0 0 33.867 33.867" xmlns="http://www.w3.org/2000/svg" xmlns:osb="http://www.openswatchbook.org/uri/2009/osb" xmlns:xlink="http://www.w3.org/1999/xlink">
<defs>
<linearGradient id="linearGradient2404" x1="29.203" x2="4.5843" y1="263.52" y2="296.17" gradientTransform="matrix(1.001 0 0 1.001 -.017757 -.29086)" gradientUnits="userSpaceOnUse">
<stop stop-color="#d9d9d9" offset="0"/>
<stop stop-color="#fff" offset="1"/>
</linearGradient>
<linearGradient id="linearGradient11307" x1="89.137" x2="147.78" y1="111.92" y2="168.1" gradientUnits="userSpaceOnUse">
<stop stop-color="#ffe052" offset="0"/>
<stop stop-color="#ffc331" offset="1"/>
</linearGradient>
<linearGradient id="linearGradient9521" x1="55.549" x2="110.15" y1="77.07" y2="131.85" gradientUnits="userSpaceOnUse">
<stop stop-color="#387eb8" offset="0"/>
<stop stop-color="#366994" offset="1"/>
</linearGradient>
</defs>
<g transform="translate(0 -263.13)">
<path d="m4.5714 264.1v32.612h24.724v-18.3c-0.04716-0.8313-0.10165-1.5753-0.3125-2.3297-0.21448-0.76736-0.55247-1.4939-0.95641-2.1892-0.51687-0.8897-1.3904-1.4633-2.1667-2.1925-0.47098-0.42711-1.4882-1.4417-2.7195-2.653-1.2212-1.2014-2.6535-2.5969-3.8492-3.6811-0.35316-0.3187-0.86616-0.64943-1.3428-0.84044-0.37009-0.14831-0.80547-0.24063-1.2258-0.30267-0.43345-0.064-0.85093-0.0958-1.1644-0.12361z" opacity=".25"/>
<path d="m4.5714 263.57v32.612h24.724v-18.3c-0.04716-0.83129-0.10165-1.5753-0.3125-2.3297-0.21448-0.76736-0.55247-1.4939-0.95641-2.1892-0.51687-0.88969-1.3904-1.4633-2.1667-2.1925-0.47098-0.42712-1.4882-1.4417-2.7195-2.653-1.2212-1.2014-2.6535-2.5969-3.8492-3.6811-0.35316-0.3187-0.86616-0.64944-1.3428-0.84044-0.37009-0.14831-0.80547-0.24063-1.2258-0.30267-0.43345-0.064-0.85093-0.0958-1.1644-0.12361z" fill="url(#linearGradient2404)" stroke="#808080" stroke-width=".3"/>
<path d="m19.751 265.48c0.01633 0.0263 0.56114 0.90462 0.72779 1.3989 0.45158 1.0123 0.25858 3.9724 0.25037 5.6588 0.02772-0.19401 4.6905-1.3958 7.111 0.80464-0.01547-0.0273-0.04888-0.0804-0.12512-0.18628-0.07235-0.10046-0.18275-0.24915-0.37164-0.44224-0.52811-0.60452-0.23093-0.0845-0.80541-0.682-0.49669-0.45047-1.5695-1.5205-2.868-2.798-1.2412-1.2212-2.6869-2.6295-3.919-3.7538z" opacity=".248"/>
<path d="m19.424 264.96c0.01548 0.0249 0.53209 0.85773 0.69011 1.3264 0.42821 0.95987 0.29224 3.218 0.28445 4.8171 0.42899-0.0223 5.1595-0.73701 7.3284 1.8241-0.02928-0.0506-0.10278-0.0927-0.14377-0.17312-0.50077-0.57318-1.1396-1.0337-1.7235-1.5822-0.47098-0.42712-1.4882-1.4417-2.7195-2.653-1.1769-1.1579-2.5478-2.4932-3.7162-3.5592z" fill="#fff" stroke="#808080" stroke-width=".3"/>
<g transform="matrix(.53602 0 0 .53727 -234.93 -13.785)" stroke-width="4.0845"></g>
<g transform="matrix(.53602 0 0 .53727 -234.93 -13.76)" stroke-width="4.0845"></g>
<g transform="matrix(.53602 0 0 .53727 -267.69 -57.383)" stroke-width="4.0845"></g>
<g transform="matrix(.53602 0 0 .53727 -267.69 -57.358)" stroke-width="4.0845"></g>
<g transform="matrix(.53602 0 0 .53727 -234.93 -13.785)" stroke-width="4.0845"></g>
<g transform="matrix(.53602 0 0 .53727 -234.93 -13.76)" stroke-width="4.0845"></g>
<g transform="matrix(.24645 0 0 .2479 -1.3784 225.49)" fill="#4d4d4d" stroke-width="4.0457px">
<path d="m32.281 179.26q0-0.33338 0.10583-0.5768 0.10583-0.24341 0.29104-0.40216t0.42862-0.23284q0.24871-0.0794 0.52917-0.0794 0.17992 0 0.35454 0.0265 0.17992 0.0212 0.381 0.0847l-0.10054 0.37571q-0.17462-0.0635-0.32279-0.0794-0.14288-0.0212-0.29104-0.0212-0.1905 0-0.35983 0.0529-0.16933 0.0476-0.29633 0.15875-0.12171 0.10583-0.19579 0.28046-0.07408 0.16933-0.07408 0.41275 0 0.23283 0.06879 0.40216 0.06879 0.16404 0.1905 0.27517 0.127 0.10583 0.30162 0.15875 0.17462 0.0529 0.38629 0.0529 0.16933 0 0.32279-0.0159 0.15875-0.0212 0.34396-0.0847l0.0635 0.36513q-0.18521 0.0688-0.37571 0.0952-0.1905 0.0318-0.41275 0.0318-0.29633 0-0.54504-0.0794-0.24342-0.0847-0.42333-0.24341-0.17462-0.15875-0.27517-0.39688-0.09525-0.24341-0.09525-0.56091z"/>
<path d="m36.456 180.54q-0.23283 0-0.38629-0.0635-0.15346-0.0635-0.24342-0.1905-0.08996-0.127-0.127-0.31221-0.03704-0.1905-0.03704-0.43921v-2.323h-0.70908v-0.37042h1.143v2.6935q0 0.18521 0.02117 0.30163 0.02646 0.11641 0.07408 0.1905 0.05292 0.0688 0.127 0.0952 0.07408 0.0265 0.17462 0.0265 0.15346 0 0.28575-0.037 0.13229-0.037 0.20638-0.0794l0.0635 0.37042q-0.03175 0.0159-0.08996 0.0423-0.05821 0.0212-0.13758 0.0423-0.07938 0.0212-0.17462 0.037-0.08996 0.0159-0.1905 0.0159z"/>
<path d="m38.663 180.17q0.16404 0 0.29104-0.0106 0.13229-0.0106 0.21696-0.0265v-0.73025q-0.08467-0.0265-0.20638-0.0423-0.11642-0.0159-0.24871-0.0159-0.12171 0-0.23812 0.0212-0.11642 0.0159-0.20638 0.0635-0.08996 0.0476-0.14817 0.127-0.05821 0.0741-0.05821 0.1905 0 0.23812 0.15875 0.33337 0.16404 0.09 0.43921 0.09zm-0.04233-2.2013q0.27517 0 0.46037 0.0688 0.1905 0.0688 0.30692 0.1905 0.11642 0.12171 0.16404 0.29633 0.04762 0.17463 0.04762 0.381v1.5346q-0.15346 0.0265-0.40746 0.0635-0.24871 0.037-0.51329 0.037-0.20108 0-0.39158-0.037-0.1905-0.0317-0.33867-0.11642-0.14817-0.09-0.23812-0.24342-0.08996-0.15345-0.08996-0.39158 0-0.21167 0.08996-0.35454 0.09525-0.14817 0.23812-0.23813 0.14817-0.0899 0.33338-0.127 0.1905-0.0423 0.381-0.0423 0.25929 0 0.508 0.0582v-0.12171q0-0.11112-0.02646-0.21167-0.02117-0.10583-0.08996-0.1905-0.0635-0.0847-0.17992-0.13229-0.11112-0.0529-0.29104-0.0529-0.22754 0-0.39688 0.0318-0.16933 0.0317-0.25929 0.0635l-0.05292-0.35984q0.08996-0.0423 0.29633-0.0741 0.21167-0.0317 0.44979-0.0317z"/>
<path d="m41.816 179.87q0-0.13229-0.11112-0.21696-0.10583-0.0847-0.26988-0.14817-0.15875-0.0635-0.34925-0.12171-0.1905-0.0635-0.35454-0.15345-0.15875-0.09-0.26988-0.22225-0.10583-0.1323-0.10583-0.34396 0-0.29634 0.23812-0.49213 0.24342-0.20108 0.75671-0.20108 0.20108 0 0.41275 0.0317 0.21696 0.0265 0.37042 0.0741l-0.07937 0.39159q-0.04233-0.0212-0.11642-0.0423-0.07408-0.0265-0.16933-0.0423-0.09525-0.0212-0.20638-0.0317-0.10583-0.0106-0.20638-0.0106-0.5715 0-0.5715 0.3122 0 0.11113 0.10583 0.1905 0.11112 0.0741 0.27517 0.13759 0.16404 0.0635 0.35454 0.13229 0.1905 0.0635 0.35454 0.15875 0.16404 0.0952 0.26988 0.23283 0.11112 0.13229 0.11112 0.33867 0 0.33337-0.25929 0.51858-0.25929 0.17992-0.82021 0.17992-0.254 0-0.46567-0.0423t-0.40217-0.127l0.08467-0.39688q0.18521 0.0847 0.38629 0.14288 0.20638 0.0529 0.43921 0.0529 0.59796 0 0.59796-0.30162z"/>
<path d="m44.462 179.87q0-0.13229-0.11112-0.21696-0.10583-0.0847-0.26988-0.14817-0.15875-0.0635-0.34925-0.12171-0.1905-0.0635-0.35454-0.15345-0.15875-0.09-0.26988-0.22225-0.10583-0.1323-0.10583-0.34396 0-0.29634 0.23812-0.49213 0.24342-0.20108 0.75671-0.20108 0.20108 0 0.41275 0.0317 0.21696 0.0265 0.37042 0.0741l-0.07937 0.39159q-0.04233-0.0212-0.11642-0.0423-0.07408-0.0265-0.16933-0.0423-0.09525-0.0212-0.20638-0.0317-0.10583-0.0106-0.20638-0.0106-0.5715 0-0.5715 0.3122 0 0.11113 0.10583 0.1905 0.11112 0.0741 0.27517 0.13759 0.16404 0.0635 0.35454 0.13229 0.1905 0.0635 0.35454 0.15875 0.16404 0.0952 0.26988 0.23283 0.11112 0.13229 0.11112 0.33867 0 0.33337-0.25929 0.51858-0.25929 0.17992-0.82021 0.17992-0.254 0-0.46567-0.0423t-0.40217-0.127l0.08467-0.39688q0.18521 0.0847 0.38629 0.14288 0.20638 0.0529 0.43921 0.0529 0.59796 0 0.59796-0.30162z"/>
<path d="m49.225 178.84 0.508-1.6298h0.40746q0.10583 0.77258 0.14817 1.5822 0.04763 0.80962 0.08467 1.6933h-0.42333q-0.0053-0.28575-0.01058-0.61912-0.0053-0.33338-0.01588-0.68792-0.0053-0.35454-0.01588-0.71967-0.0053-0.36512-0.01587-0.70908l-0.47625 1.4922h-0.381l-0.48683-1.4922q-0.0053 0.34396-0.01588 0.70908-0.0053 0.35984-0.01588 0.71967-0.0053 0.35454-0.01588 0.68792-0.0053 0.33337-0.01058 0.61912h-0.42333q0.01588-0.40217 0.03704-0.8255 0.02117-0.42333 0.04762-0.84137 0.03175-0.41805 0.06879-0.8255 0.04233-0.40746 0.08996-0.78317h0.40217l0.51329 1.6298z"/>
<path d="m50.812 180.94q0.04763 0.0265 0.13229 0.0423 0.08996 0.0159 0.16404 0.0159 0.25929 0 0.40217-0.11641 0.14817-0.11113 0.26988-0.37042-0.29633-0.56092-0.55562-1.2012-0.25929-0.64558-0.42862-1.2859h0.47625q0.05292 0.21166 0.12171 0.46037 0.07408 0.24342 0.16404 0.50271 0.08996 0.25929 0.1905 0.52388 0.10583 0.25929 0.22225 0.49741 0.08467-0.24341 0.15875-0.48154 0.07408-0.23812 0.13758-0.47625 0.0635-0.24342 0.127-0.49212 0.0635-0.254 0.13229-0.53446h0.45508q-0.16933 0.68791-0.381 1.3335-0.20638 0.64558-0.4445 1.1959-0.08996 0.21167-0.19579 0.36513-0.10054 0.15346-0.22225 0.254t-0.27517 0.14817q-0.15346 0.0476-0.34925 0.0476-0.10054 0-0.22225-0.0265-0.11642-0.0265-0.15875-0.0476l0.07937-0.35454z"/>
<path d="m55.622 180.34q-0.18521 0.10583-0.39688 0.15346-0.20638 0.0529-0.4445 0.0529-0.29104 0-0.53975-0.10054-0.24342-0.10583-0.42333-0.31221-0.17992-0.21166-0.28575-0.53446-0.10054-0.32279-0.10054-0.762 0-0.41804 0.10583-0.73554 0.11112-0.3175 0.29633-0.53446 0.18521-0.21695 0.43392-0.32808 0.24871-0.11112 0.52917-0.11112 0.19579 0 0.39688 0.0529 0.20638 0.0529 0.40217 0.17463l-0.127 0.35983q-0.34925-0.20108-0.65617-0.20108-0.21696 0-0.39158 0.0953-0.16933 0.09-0.29104 0.26458-0.12171 0.17463-0.1905 0.41804-0.0635 0.24342-0.0635 0.54504 0 0.33867 0.06879 0.58738 0.07408 0.24871 0.20108 0.41275 0.127 0.16404 0.30162 0.24342 0.17992 0.0794 0.38629 0.0794 0.15346 0 0.32279-0.037 0.16933-0.0423 0.34925-0.14288l0.11642 0.35984z"/>
<path d="m57.623 180.54q-0.23283 0-0.38629-0.0635t-0.24342-0.1905q-0.08996-0.127-0.127-0.31221-0.03704-0.1905-0.03704-0.43921v-2.323h-0.70908v-0.37042h1.143v2.6935q0 0.18521 0.02117 0.30163 0.02646 0.11641 0.07408 0.1905 0.05292 0.0688 0.127 0.0952 0.07408 0.0265 0.17462 0.0265 0.15346 0 0.28575-0.037 0.13229-0.037 0.20638-0.0794l0.0635 0.37042q-0.03175 0.0159-0.08996 0.0423-0.05821 0.0212-0.13758 0.0423-0.07937 0.0212-0.17462 0.037-0.08996 0.0159-0.1905 0.0159z"/>
<path d="m59.829 180.17q0.16404 0 0.29104-0.0106 0.13229-0.0106 0.21696-0.0265v-0.73025q-0.08467-0.0265-0.20638-0.0423-0.11642-0.0159-0.24871-0.0159-0.12171 0-0.23812 0.0212-0.11642 0.0159-0.20638 0.0635-0.08996 0.0476-0.14817 0.127-0.05821 0.0741-0.05821 0.1905 0 0.23812 0.15875 0.33337 0.16404 0.09 0.43921 0.09zm-0.04233-2.2013q0.27517 0 0.46038 0.0688 0.1905 0.0688 0.30692 0.1905 0.11642 0.12171 0.16404 0.29633 0.04763 0.17463 0.04763 0.381v1.5346q-0.15346 0.0265-0.40746 0.0635-0.24871 0.037-0.51329 0.037-0.20108 0-0.39158-0.037-0.1905-0.0317-0.33867-0.11642-0.14817-0.09-0.23812-0.24342-0.08996-0.15345-0.08996-0.39158 0-0.21167 0.08996-0.35454 0.09525-0.14817 0.23812-0.23813 0.14817-0.0899 0.33338-0.127 0.1905-0.0423 0.381-0.0423 0.25929 0 0.508 0.0582v-0.12171q0-0.11112-0.02646-0.21167-0.02117-0.10583-0.08996-0.1905-0.0635-0.0847-0.17992-0.13229-0.11112-0.0529-0.29104-0.0529-0.22754 0-0.39688 0.0318-0.16933 0.0317-0.25929 0.0635l-0.05292-0.35984q0.08996-0.0423 0.29633-0.0741 0.21167-0.0317 0.44979-0.0317z"/>
<path d="m62.983 179.87q0-0.13229-0.11112-0.21696-0.10583-0.0847-0.26988-0.14817-0.15875-0.0635-0.34925-0.12171-0.1905-0.0635-0.35454-0.15345-0.15875-0.09-0.26988-0.22225-0.10583-0.1323-0.10583-0.34396 0-0.29634 0.23812-0.49213 0.24342-0.20108 0.75671-0.20108 0.20108 0 0.41275 0.0317 0.21696 0.0265 0.37042 0.0741l-0.07937 0.39159q-0.04233-0.0212-0.11642-0.0423-0.07408-0.0265-0.16933-0.0423-0.09525-0.0212-0.20638-0.0317-0.10583-0.0106-0.20638-0.0106-0.5715 0-0.5715 0.3122 0 0.11113 0.10583 0.1905 0.11112 0.0741 0.27517 0.13759 0.16404 0.0635 0.35454 0.13229 0.1905 0.0635 0.35454 0.15875 0.16404 0.0952 0.26988 0.23283 0.11112 0.13229 0.11112 0.33867 0 0.33337-0.25929 0.51858-0.25929 0.17992-0.82021 0.17992-0.254 0-0.46567-0.0423t-0.40217-0.127l0.08467-0.39688q0.18521 0.0847 0.38629 0.14288 0.20638 0.0529 0.43921 0.0529 0.59796 0 0.59796-0.30162z"/>
<path d="m65.629 179.87q0-0.13229-0.11112-0.21696-0.10583-0.0847-0.26988-0.14817-0.15875-0.0635-0.34925-0.12171-0.1905-0.0635-0.35454-0.15345-0.15875-0.09-0.26988-0.22225-0.10583-0.1323-0.10583-0.34396 0-0.29634 0.23812-0.49213 0.24342-0.20108 0.75671-0.20108 0.20108 0 0.41275 0.0317 0.21696 0.0265 0.37042 0.0741l-0.07937 0.39159q-0.04233-0.0212-0.11642-0.0423-0.07408-0.0265-0.16933-0.0423-0.09525-0.0212-0.20638-0.0317-0.10583-0.0106-0.20638-0.0106-0.5715 0-0.5715 0.3122 0 0.11113 0.10583 0.1905 0.11112 0.0741 0.27517 0.13759 0.16404 0.0635 0.35454 0.13229 0.1905 0.0635 0.35454 0.15875 0.16404 0.0952 0.26988 0.23283 0.11112 0.13229 0.11112 0.33867 0 0.33337-0.25929 0.51858-0.25929 0.17992-0.82021 0.17992-0.254 0-0.46567-0.0423t-0.40217-0.127l0.08467-0.39688q0.18521 0.0847 0.38629 0.14288 0.20638 0.0529 0.43921 0.0529 0.59796 0 0.59796-0.30162z"/>
<path d="m68.132 180.14q0 0.15875-0.10583 0.28046t-0.28046 0.12171q-0.17992 0-0.28575-0.12171-0.10583-0.12171-0.10583-0.28046 0-0.16404 0.10583-0.28575 0.10583-0.1217 0.28575-0.1217 0.17462 0 0.28046 0.1217 0.10583 0.12171 0.10583 0.28575zm0-1.7092q0 0.15875-0.10583 0.28045-0.10583 0.12171-0.28046 0.12171-0.17992 0-0.28575-0.12171-0.10583-0.1217-0.10583-0.28045 0-0.16405 0.10583-0.28575 0.10583-0.12171 0.28575-0.12171 0.17462 0 0.28046 0.12171 0.10583 0.1217 0.10583 0.28575z"/>
<path d="m38.663 186.78q0.16404 0 0.29104-0.0106 0.13229-0.0106 0.21696-0.0265v-0.73025q-0.08467-0.0265-0.20638-0.0423-0.11642-0.0159-0.24871-0.0159-0.12171 0-0.23812 0.0212-0.11642 0.0159-0.20638 0.0635-0.08996 0.0476-0.14817 0.127-0.05821 0.0741-0.05821 0.1905 0 0.23812 0.15875 0.33337 0.16404 0.09 0.43921 0.09zm-0.04233-2.2013q0.27517 0 0.46037 0.0688 0.1905 0.0688 0.30692 0.1905 0.11642 0.12171 0.16404 0.29633 0.04762 0.17463 0.04762 0.381v1.5346q-0.15346 0.0265-0.40746 0.0635-0.24871 0.037-0.51329 0.037-0.20108 0-0.39158-0.037-0.1905-0.0318-0.33867-0.11642-0.14817-0.09-0.23812-0.24342-0.08996-0.15346-0.08996-0.39158 0-0.21167 0.08996-0.35454 0.09525-0.14817 0.23812-0.23813 0.14817-0.09 0.33338-0.127 0.1905-0.0423 0.381-0.0423 0.25929 0 0.508 0.0582v-0.12171q0-0.11113-0.02646-0.21167-0.02117-0.10583-0.08996-0.1905-0.0635-0.0847-0.17992-0.13229-0.11112-0.0529-0.29104-0.0529-0.22754 0-0.39688 0.0317t-0.25929 0.0635l-0.05292-0.35983q0.08996-0.0423 0.29633-0.0741 0.21167-0.0318 0.44979-0.0318z"/>
<path d="m42.848 186.02h2.1643v0.37571h-2.1643zm0-1.0054h2.1643v0.37571h-2.1643z"/>
<path d="m48.293 184.5q0.26988-0.10583 0.52388-0.26458 0.254-0.16404 0.47096-0.41275h0.30692v2.9051h0.61912v0.37042h-1.7621v-0.37042h0.70908v-2.2966q-0.05821 0.0529-0.14288 0.11112-0.07937 0.0529-0.17992 0.10584-0.09525 0.0529-0.20108 0.10054-0.10583 0.0476-0.20638 0.0794l-0.13758-0.32808z"/>
<path d="m52.172 185.4q0 0.13759-0.08467 0.23813-0.07937 0.10054-0.21167 0.10054-0.13758 0-0.22225-0.10054-0.08467-0.10054-0.08467-0.23813 0-0.13758 0.08467-0.24341 0.08467-0.10584 0.22225-0.10584 0.13229 0 0.21167 0.10584 0.08467 0.10583 0.08467 0.24341zm-1.3864 0.0582q0-0.8255 0.28046-1.2647 0.28575-0.4445 0.79904-0.4445 0.51858 0 0.79904 0.4445 0.28046 0.43921 0.28046 1.2647t-0.28046 1.27q-0.28046 0.43921-0.79904 0.43921-0.51329 0-0.79904-0.43921-0.28046-0.4445-0.28046-1.27zm1.7145 0q0-0.26987-0.03175-0.508-0.03175-0.24341-0.10583-0.42333-0.07408-0.17992-0.19579-0.28575-0.12171-0.10583-0.30162-0.10583t-0.30162 0.10583-0.19579 0.28575q-0.07408 0.17992-0.10583 0.42333-0.03175 0.23813-0.03175 0.508 0 0.26988 0.03175 0.51329 0.03175 0.23813 0.10583 0.41805 0.07408 0.17991 0.19579 0.28575 0.12171 0.10583 0.30162 0.10583t0.30162-0.10583q0.12171-0.10584 0.19579-0.28575 0.07408-0.17992 0.10583-0.41805 0.03175-0.24341 0.03175-0.51329z"/>
<path d="m39.144 191.77q-0.07408-0.0688-0.21696-0.127-0.14288-0.0635-0.29633-0.0635-0.17462 0-0.30162 0.0688-0.12171 0.0688-0.20108 0.1905-0.07937 0.11642-0.11642 0.28575-0.03704 0.16404-0.03704 0.35454 0 0.42863 0.20108 0.66146 0.20108 0.23283 0.52388 0.23283 0.16404 0 0.27517-0.0159 0.11642-0.0159 0.16933-0.0317v-1.5558zm0-1.6563 0.43921-0.0741v3.5983q-0.14288 0.0423-0.36512 0.0847-0.22225 0.0423-0.51858 0.0423-0.26458 0-0.48154-0.09t-0.37042-0.254q-0.15346-0.16934-0.23812-0.40746-0.08467-0.23813-0.08467-0.53446 0-0.28575 0.06879-0.51858 0.07408-0.23813 0.21167-0.40746 0.13758-0.16933 0.32808-0.26458 0.19579-0.0952 0.4445-0.0952 0.19579 0 0.34396 0.0476 0.14817 0.0476 0.22225 0.10054v-1.2277z"/>
<path d="m41.33 191.2q0.49742 0 0.76729 0.3122 0.26988 0.30692 0.26988 0.93663v0.15346h-1.7568q0.02646 0.381 0.24871 0.58208 0.22754 0.19579 0.635 0.19579 0.23283 0 0.39688-0.037 0.16404-0.037 0.24871-0.0794l0.05821 0.37041q-0.07937 0.0423-0.28575 0.09-0.20638 0.0476-0.46567 0.0476-0.3175 0-0.56092-0.0952-0.23812-0.10055-0.39688-0.26988t-0.23812-0.40217q-0.07937-0.23812-0.07937-0.51329 0-0.32808 0.10054-0.5715 0.10054-0.24341 0.26458-0.40216t0.37042-0.23813q0.20638-0.0794 0.42333-0.0794zm0.59267 1.0478q0-0.31221-0.16404-0.49213-0.16404-0.18521-0.43392-0.18521-0.15346 0-0.28046 0.0582-0.12171 0.0582-0.21167 0.15346-0.08996 0.0952-0.14288 0.21696-0.05292 0.12171-0.06879 0.24871h1.3018z"/>
<path d="m43.457 193.71v-2.0902h-0.51858v-0.36513h0.51858v-0.22225q0-0.28575 0.07937-0.47095 0.07938-0.1905 0.20638-0.30692 0.13229-0.11642 0.30162-0.16404 0.17462-0.0476 0.36512-0.0476t0.381 0.0423q0.19579 0.0423 0.36512 0.10054l-0.07937 0.37571q-0.11642-0.0582-0.29104-0.10055-0.17462-0.0423-0.35454-0.0423-0.11112 0-0.21167 0.0318-0.09525 0.0265-0.16933 0.10054-0.07408 0.0688-0.11642 0.1905-0.04233 0.11642-0.04233 0.29634v0.21695h0.98954v0.36513h-0.98954v2.0902h-0.43392z"/>
<path d="m48.748 193.71v-2.0902h-0.51858v-0.36513h0.51858v-0.22225q0-0.28575 0.07937-0.47095 0.07937-0.1905 0.20638-0.30692 0.13229-0.11642 0.30162-0.16404 0.17462-0.0476 0.36512-0.0476t0.381 0.0423q0.19579 0.0423 0.36512 0.10054l-0.07937 0.37571q-0.11642-0.0582-0.29104-0.10055-0.17462-0.0423-0.35454-0.0423-0.11112 0-0.21167 0.0318-0.09525 0.0265-0.16933 0.10054-0.07408 0.0688-0.11642 0.1905-0.04233 0.11642-0.04233 0.29634v0.21695h0.98954v0.36513h-0.98954v2.0902h-0.43392z"/>
<path d="m52.812 193.64q-0.14288 0.037-0.381 0.0794-0.23283 0.0423-0.55033 0.0423-0.28046 0-0.46567-0.0794-0.18521-0.0847-0.30162-0.23283-0.11642-0.15346-0.16404-0.35984-0.04763-0.20637-0.04763-0.45508v-1.3811h0.43392v1.2859q0 0.45508 0.13229 0.64558 0.13758 0.1905 0.45508 0.1905 0.06879 0 0.13758-5e-3 0.07408-5e-3 0.13758-0.0106 0.0635-0.0106 0.11112-0.0159 0.04762-0.0106 0.0635-0.0159v-2.0743h0.43921v2.3866z"/>
<path d="m53.564 191.32q0.23812-0.0582 0.47096-0.09 0.23812-0.0317 0.4445-0.0317 0.49212 0 0.74083 0.254 0.254 0.254 0.254 0.81491v1.4393h-0.43392v-1.36q0-0.23813-0.04233-0.38629-0.04233-0.14817-0.12171-0.22754-0.07408-0.0847-0.18521-0.11642-0.10583-0.0317-0.23283-0.0317-0.10583 0-0.22754 0.0159-0.11642 0.0106-0.22754 0.0318v2.0743h-0.43921v-2.3865z"/>
<path d="m56.093 192.49q0-0.33337 0.10583-0.57679 0.10583-0.24342 0.29104-0.40217t0.42862-0.23283q0.24871-0.0794 0.52917-0.0794 0.17992 0 0.35454 0.0264 0.17992 0.0212 0.381 0.0847l-0.10054 0.37571q-0.17462-0.0635-0.32279-0.0794-0.14288-0.0212-0.29104-0.0212-0.1905 0-0.35983 0.0529-0.16933 0.0476-0.29633 0.15875-0.12171 0.10584-0.19579 0.28046-0.07408 0.16934-0.07408 0.41275 0 0.23284 0.06879 0.40217 0.06879 0.16404 0.1905 0.27517 0.127 0.10583 0.30162 0.15875 0.17462 0.0529 0.38629 0.0529 0.16933 0 0.32279-0.0159 0.15875-0.0212 0.34396-0.0847l0.0635 0.36513q-0.18521 0.0688-0.37571 0.0952-0.1905 0.0317-0.41275 0.0317-0.29633 0-0.54504-0.0794-0.24342-0.0847-0.42333-0.24342-0.17462-0.15875-0.27517-0.39687-0.09525-0.24342-0.09525-0.56092z"/>
<path d="m60.512 190.32q-0.49212 0.381-0.75142 0.87842-0.25929 0.49741-0.25929 1.0848 0 0.29633 0.05821 0.56091 0.0635 0.26459 0.18521 0.508 0.127 0.24342 0.3175 0.47096 0.19579 0.22754 0.46038 0.45509l-0.23812 0.3175q-0.60854-0.4498-0.91017-1.0425-0.29633-0.59796-0.29633-1.2594 0-0.65617 0.30162-1.2541 0.30162-0.59796 0.90488-1.0372l0.23283 0.3175h-0.0053z"/>
<path d="m62.983 193.1q0-0.13229-0.11112-0.21695-0.10583-0.0847-0.26988-0.14817-0.15875-0.0635-0.34925-0.12171-0.1905-0.0635-0.35454-0.15346-0.15875-0.09-0.26988-0.22225-0.10583-0.13229-0.10583-0.34396 0-0.29633 0.23812-0.49212 0.24342-0.20108 0.75671-0.20108 0.20108 0 0.41275 0.0317 0.21696 0.0265 0.37042 0.0741l-0.07937 0.39158q-0.04233-0.0212-0.11642-0.0423-0.07408-0.0265-0.16933-0.0423-0.09525-0.0212-0.20638-0.0317-0.10583-0.0106-0.20638-0.0106-0.5715 0-0.5715 0.31221 0 0.11113 0.10583 0.1905 0.11112 0.0741 0.27517 0.13758 0.16404 0.0635 0.35454 0.1323 0.1905 0.0635 0.35454 0.15875 0.16404 0.0952 0.26988 0.23283 0.11112 0.13229 0.11112 0.33867 0 0.33337-0.25929 0.51858-0.25929 0.17992-0.82021 0.17992-0.254 0-0.46567-0.0423t-0.40217-0.127l0.08467-0.39687q0.18521 0.0847 0.38629 0.14287 0.20638 0.0529 0.43921 0.0529 0.59796 0 0.59796-0.30163z"/>
<path d="m65.142 191.2q0.49742 0 0.76729 0.3122 0.26988 0.30692 0.26988 0.93663v0.15346h-1.7568q0.02646 0.381 0.24871 0.58208 0.22754 0.19579 0.635 0.19579 0.23283 0 0.39688-0.037 0.16404-0.037 0.24871-0.0794l0.05821 0.37041q-0.07937 0.0423-0.28575 0.09-0.20638 0.0476-0.46567 0.0476-0.3175 0-0.56092-0.0952-0.23812-0.10055-0.39688-0.26988t-0.23812-0.40217q-0.07938-0.23812-0.07938-0.51329 0-0.32808 0.10054-0.5715 0.10054-0.24341 0.26458-0.40216t0.37042-0.23813q0.20638-0.0794 0.42333-0.0794zm0.59267 1.0478q0-0.31221-0.16404-0.49213-0.16404-0.18521-0.43392-0.18521-0.15346 0-0.28046 0.0582-0.12171 0.0582-0.21167 0.15346-0.08996 0.0952-0.14288 0.21696-0.05292 0.12171-0.06879 0.24871h1.3018z"/>
<path d="m68.206 193.77q-0.23283 0-0.38629-0.0635t-0.24342-0.1905q-0.08996-0.127-0.127-0.31221-0.03704-0.1905-0.03704-0.43921v-2.323h-0.70908v-0.37042h1.143v2.6935q0 0.18521 0.02117 0.30162 0.02646 0.11642 0.07408 0.1905 0.05292 0.0688 0.127 0.0952 0.07408 0.0265 0.17462 0.0265 0.15346 0 0.28575-0.037 0.13229-0.037 0.20638-0.0794l0.0635 0.37041q-0.03175 0.0159-0.08996 0.0423-0.05821 0.0212-0.13758 0.0423-0.07937 0.0212-0.17462 0.037-0.08996 0.0159-0.1905 0.0159z"/>
<path d="m69.915 193.71v-2.0902h-0.51858v-0.36513h0.51858v-0.22225q0-0.28575 0.07937-0.47095 0.07937-0.1905 0.20638-0.30692 0.13229-0.11642 0.30162-0.16404 0.17462-0.0476 0.36512-0.0476t0.381 0.0423q0.19579 0.0423 0.36512 0.10054l-0.07937 0.37571q-0.11642-0.0582-0.29104-0.10055-0.17462-0.0423-0.35454-0.0423-0.11112 0-0.21167 0.0318-0.09525 0.0265-0.16933 0.10054-0.07408 0.0688-0.11642 0.1905-0.04233 0.11642-0.04233 0.29634v0.21695h0.98954v0.36513h-0.98954v2.0902h-0.43392z"/>
<path d="m72.318 194.28q0.49212-0.381 0.75142-0.87842 0.26458-0.49742 0.26458-1.0848 0-0.29634-0.0635-0.56092-0.05821-0.26458-0.18521-0.508-0.127-0.24342-0.32279-0.47096-0.1905-0.22754-0.45508-0.45508l0.23812-0.3175q0.60854 0.44979 0.90488 1.0478 0.30162 0.59267 0.30162 1.2541 0 0.32809-0.07938 0.64559-0.07408 0.3175-0.22754 0.61383-0.14817 0.29104-0.37571 0.55033-0.22225 0.26459-0.52388 0.48155l-0.23283-0.3175h0.0053z"/>
<path d="m76.069 193.37q0 0.15875-0.10583 0.28046t-0.28046 0.12171q-0.17992 0-0.28575-0.12171-0.10583-0.12171-0.10583-0.28046 0-0.16404 0.10583-0.28575 0.10583-0.12171 0.28575-0.12171 0.17462 0 0.28046 0.12171t0.10583 0.28575zm0-1.7092q0 0.15875-0.10583 0.28046t-0.28046 0.12171q-0.17992 0-0.28575-0.12171-0.10583-0.12171-0.10583-0.28046 0-0.16404 0.10583-0.28575 0.10583-0.12171 0.28575-0.12171 0.17462 0 0.28046 0.12171t0.10583 0.28575z"/>
<path d="m44.589 199.1q0-0.42862-0.20108-0.66146-0.20108-0.23812-0.52388-0.23812-0.17992 0-0.28575 0.0159-0.10054 0.0159-0.15875 0.037v1.5505q0.07408 0.0688 0.21696 0.127 0.14288 0.0582 0.29633 0.0582 0.17462 0 0.29633-0.0688 0.127-0.0688 0.20638-0.18521 0.07938-0.12171 0.11642-0.28046 0.03704-0.16404 0.03704-0.35454zm0.44979 0q0 0.28046-0.07408 0.51858-0.06879 0.23284-0.20638 0.40217-0.13229 0.16933-0.32808 0.26458-0.19579 0.0952-0.4445 0.0952-0.19579 0-0.34396-0.0476t-0.22225-0.10583v0.96837h-0.43921v-3.2544q0.14288-0.0423 0.36512-0.0847 0.22754-0.0423 0.51858-0.0423 0.26458 0 0.48154 0.0899 0.21696 0.09 0.37042 0.2593 0.15346 0.16404 0.23812 0.40216 0.08467 0.23813 0.08467 0.53446z"/>
<path d="m45.817 200.33v-2.323q0.53975-0.1852 1.0901-0.1852 0.16933 0 0.32279 0.0159 0.15346 0.0106 0.33867 0.0529l-0.07937 0.38629q-0.16933-0.0476-0.30162-0.0582-0.127-0.0159-0.28046-0.0159-0.32279 0-0.65617 0.0899v2.0373h-0.43392z"/>
<path d="m49.002 197.49q-0.13758 0-0.23812-0.0952-0.10054-0.0952-0.10054-0.25929 0-0.16404 0.10054-0.25929 0.10054-0.0952 0.23812-0.0952 0.14288 0 0.23812 0.0952 0.10054 0.0953 0.10054 0.25929 0 0.16404-0.10054 0.25929-0.09525 0.0952-0.23812 0.0952zm-0.11112 0.74613h-0.70908v-0.36513h1.143v1.5081q0 0.36512 0.10054 0.49212 0.10054 0.12171 0.30162 0.12171 0.15346 0 0.28046-0.037 0.13229-0.037 0.20638-0.0794l0.0635 0.37042q-0.03175 0.0159-0.08996 0.0423-0.05821 0.0212-0.13758 0.0423-0.07408 0.0212-0.16933 0.037-0.08996 0.0159-0.1905 0.0159-0.23283 0-0.38629-0.0635-0.15346-0.0635-0.24871-0.1905-0.08996-0.127-0.127-0.3122-0.03704-0.1905-0.03704-0.43921v-1.143z"/>
<path d="m50.918 197.94q0.23812-0.0582 0.47096-0.09 0.23812-0.0317 0.4445-0.0317 0.49212 0 0.74083 0.254 0.254 0.254 0.254 0.81491v1.4393h-0.43392v-1.36q0-0.23813-0.04233-0.38629-0.04233-0.14817-0.12171-0.22755-0.07408-0.0847-0.18521-0.11641-0.10583-0.0317-0.23283-0.0317-0.10583 0-0.22754 0.0159-0.11642 0.0106-0.22754 0.0317v2.0743h-0.43921v-2.3866z"/>
<path d="m54.474 197.87h1.0372v0.36513h-1.0372v1.143q0 0.18521 0.02646 0.30162 0.02646 0.11642 0.08467 0.1905 0.0635 0.0688 0.15875 0.0953t0.23283 0.0265q0.1905 0 0.30692-0.0317 0.11642-0.0318 0.22225-0.0847l0.0635 0.37042q-0.07408 0.0318-0.23812 0.0847-0.15875 0.0529-0.39688 0.0529-0.27517 0-0.44979-0.0635t-0.27517-0.1905q-0.09525-0.127-0.13229-0.3122-0.03704-0.1905-0.03704-0.43921v-1.143h-0.51858v-0.36513h0.51858v-0.68791l0.43392-0.0741v0.762z"/>
<path d="m57.866 196.93q-0.49212 0.381-0.75142 0.87841-0.25929 0.49742-0.25929 1.0848 0 0.29633 0.05821 0.56091 0.0635 0.26459 0.18521 0.508 0.127 0.24342 0.3175 0.47096 0.19579 0.22754 0.46038 0.45508l-0.23812 0.3175q-0.60854-0.44979-0.91017-1.0424-0.29633-0.59796-0.29633-1.2594 0-0.65617 0.30162-1.2541 0.30162-0.59795 0.90488-1.0372l0.23283 0.3175h-0.0053z"/>
<path d="m60.03 196.73v0.23813q0 0.11642-0.01058 0.26987-0.0053 0.14817-0.02117 0.31221-0.01058 0.15875-0.02646 0.3175-0.01588 0.15346-0.03704 0.27517h-0.26988q-0.02117-0.12171-0.03704-0.27517-0.01587-0.15875-0.03175-0.3175-0.01058-0.16404-0.02117-0.3175-0.0053-0.15346-0.0053-0.26987v-0.23284h0.46038z"/>
<path d="m63.099 197.05h0.43392v3.2756h-0.43392v-1.524h-1.3018v1.524h-0.43392v-3.2756h0.43392v1.3811h1.3018z"/>
<path d="m65.142 197.81q0.49742 0 0.76729 0.31221 0.26988 0.30692 0.26988 0.93663v0.15346h-1.7568q0.02646 0.381 0.24871 0.58208 0.22754 0.19579 0.635 0.19579 0.23283 0 0.39688-0.037 0.16404-0.037 0.24871-0.0794l0.05821 0.37042q-0.07937 0.0423-0.28575 0.09-0.20638 0.0476-0.46567 0.0476-0.3175 0-0.56092-0.0952-0.23812-0.10054-0.39688-0.26987t-0.23812-0.40217q-0.07938-0.23812-0.07938-0.51329 0-0.32808 0.10054-0.5715 0.10054-0.24342 0.26458-0.40217t0.37042-0.23812q0.20638-0.0794 0.42333-0.0794zm0.59267 1.0478q0-0.3122-0.16404-0.49212-0.16404-0.18521-0.43392-0.18521-0.15346 0-0.28046 0.0582-0.12171 0.0582-0.21167 0.15346-0.08996 0.0953-0.14288 0.21696-0.05292 0.1217-0.06879 0.2487h1.3018z"/>
<path d="m68.206 200.38q-0.23283 0-0.38629-0.0635t-0.24342-0.1905q-0.08996-0.127-0.127-0.3122-0.03704-0.1905-0.03704-0.43921v-2.323h-0.70908v-0.37042h1.143v2.6935q0 0.18521 0.02117 0.30162 0.02646 0.11642 0.07408 0.1905 0.05292 0.0688 0.127 0.0953t0.17462 0.0265q0.15346 0 0.28575-0.037 0.13229-0.037 0.20638-0.0794l0.0635 0.37042q-0.03175 0.0159-0.08996 0.0423-0.05821 0.0212-0.13758 0.0423-0.07937 0.0212-0.17462 0.037-0.08996 0.0159-0.1905 0.0159z"/>
<path d="m70.852 200.38q-0.23283 0-0.38629-0.0635t-0.24342-0.1905q-0.08996-0.127-0.127-0.3122-0.03704-0.1905-0.03704-0.43921v-2.323h-0.70908v-0.37042h1.143v2.6935q0 0.18521 0.02117 0.30162 0.02646 0.11642 0.07408 0.1905 0.05292 0.0688 0.127 0.0953t0.17462 0.0265q0.15346 0 0.28575-0.037 0.13229-0.037 0.20638-0.0794l0.0635 0.37042q-0.03175 0.0159-0.08996 0.0423-0.05821 0.0212-0.13758 0.0423-0.07937 0.0212-0.17462 0.037-0.08996 0.0159-0.1905 0.0159z"/>
<path d="m74.143 199.1q0 0.29104-0.08467 0.52917-0.07938 0.23283-0.22754 0.40216-0.14817 0.16934-0.35454 0.26459-0.20638 0.09-0.44979 0.09-0.23812 0-0.4445-0.09-0.20108-0.0952-0.34925-0.26459-0.14817-0.16933-0.23283-0.40216-0.07937-0.23813-0.07937-0.52917t0.07937-0.52917q0.08467-0.23812 0.23283-0.40216 0.14817-0.16934 0.34925-0.2593 0.20638-0.0952 0.4445-0.0952 0.24342 0 0.44979 0.0952 0.20638 0.09 0.35454 0.2593 0.14817 0.16404 0.22754 0.40216 0.08467 0.23813 0.08467 0.52917zm-0.44979 0q0-0.41804-0.17992-0.65617-0.17992-0.24341-0.48683-0.24341-0.30162 0-0.48154 0.24341-0.17462 0.23813-0.17462 0.65617 0 0.41275 0.17462 0.65617 0.17992 0.23812 0.48154 0.23812 0.30692 0 0.48683-0.23812 0.17992-0.24342 0.17992-0.65617z"/>
<path d="m75.905 196.73v0.23813q0 0.11642-0.01058 0.26987-0.0053 0.14817-0.02117 0.31221-0.01058 0.15875-0.02646 0.3175-0.01587 0.15346-0.03704 0.27517h-0.26988q-0.02117-0.12171-0.03704-0.27517-0.01587-0.15875-0.03175-0.3175-0.01058-0.16404-0.02117-0.3175-0.0053-0.15346-0.0053-0.26987v-0.23284h0.46038z"/>
<path d="m77.609 200.89q0.49212-0.381 0.75142-0.87841 0.26458-0.49742 0.26458-1.0848 0-0.29634-0.0635-0.56092-0.05821-0.26458-0.18521-0.508-0.127-0.24342-0.32279-0.47096-0.1905-0.22754-0.45508-0.45508l0.23812-0.3175q0.60854 0.44979 0.90488 1.0478 0.30162 0.59266 0.30162 1.2541 0 0.32809-0.07937 0.64559-0.07408 0.3175-0.22754 0.61383-0.14817 0.29104-0.37571 0.55033-0.22225 0.26459-0.52388 0.48154l-0.23283-0.3175h0.0053z"/>
<path d="m34.006 212.33q0-0.42863-0.20108-0.66146-0.20108-0.23813-0.52388-0.23813-0.17992 0-0.28575 0.0159-0.10054 0.0159-0.15875 0.037v1.5505q0.07408 0.0688 0.21696 0.127 0.14288 0.0582 0.29633 0.0582 0.17462 0 0.29633-0.0688 0.127-0.0688 0.20638-0.18521 0.07937-0.12171 0.11642-0.28046 0.03704-0.16404 0.03704-0.35454zm0.44979 0q0 0.28046-0.07408 0.51858-0.06879 0.23283-0.20638 0.40217-0.13229 0.16933-0.32808 0.26458-0.19579 0.0953-0.4445 0.0953-0.19579 0-0.34396-0.0476t-0.22225-0.10584v0.96838h-0.43921v-3.2544q0.14288-0.0423 0.36512-0.0847 0.22754-0.0423 0.51858-0.0423 0.26458 0 0.48154 0.09 0.21696 0.09 0.37042 0.25929 0.15346 0.16404 0.23812 0.40217 0.08467 0.23812 0.08467 0.53446z"/>
<path d="m35.234 213.56v-2.323q0.53975-0.18521 1.0901-0.18521 0.16933 0 0.32279 0.0159 0.15346 0.0106 0.33867 0.0529l-0.07937 0.3863q-0.16933-0.0476-0.30162-0.0582-0.127-0.0159-0.28046-0.0159-0.32279 0-0.65617 0.09v2.0373h-0.43392z"/>
<path d="m38.419 210.72q-0.13758 0-0.23812-0.0952-0.10054-0.0953-0.10054-0.25929 0-0.16404 0.10054-0.25929 0.10054-0.0952 0.23812-0.0952 0.14288 0 0.23812 0.0952 0.10054 0.0952 0.10054 0.25929 0 0.16404-0.10054 0.25929-0.09525 0.0952-0.23812 0.0952zm-0.11112 0.74612h-0.70908v-0.36512h1.143v1.5081q0 0.36513 0.10054 0.49213 0.10054 0.12171 0.30162 0.12171 0.15346 0 0.28046-0.037 0.13229-0.037 0.20638-0.0794l0.0635 0.37042q-0.03175 0.0159-0.08996 0.0423-0.05821 0.0212-0.13758 0.0423-0.07408 0.0212-0.16933 0.037-0.08996 0.0159-0.1905 0.0159-0.23283 0-0.38629-0.0635-0.15346-0.0635-0.24871-0.1905-0.08996-0.127-0.127-0.31221-0.03704-0.1905-0.03704-0.43921v-1.143z"/>
<path d="m40.335 211.17q0.23812-0.0582 0.47096-0.09 0.23812-0.0317 0.4445-0.0317 0.49212 0 0.74083 0.254 0.254 0.254 0.254 0.81492v1.4393h-0.43392v-1.36q0-0.23812-0.04233-0.38629-0.04233-0.14816-0.12171-0.22754-0.07408-0.0847-0.18521-0.11642-0.10583-0.0317-0.23283-0.0317-0.10583 0-0.22754 0.0159-0.11642 0.0106-0.22754 0.0318v2.0743h-0.43921v-2.3865z"/>
<path d="m43.891 211.1h1.0372v0.36512h-1.0372v1.143q0 0.18521 0.02646 0.30163t0.08467 0.1905q0.0635 0.0688 0.15875 0.0952 0.09525 0.0265 0.23283 0.0265 0.1905 0 0.30692-0.0318 0.11642-0.0317 0.22225-0.0847l0.0635 0.37042q-0.07408 0.0318-0.23812 0.0847-0.15875 0.0529-0.39688 0.0529-0.27517 0-0.44979-0.0635t-0.27517-0.1905q-0.09525-0.127-0.13229-0.31221-0.03704-0.1905-0.03704-0.43921v-1.143h-0.51858v-0.36512h0.51858v-0.68792l0.43392-0.0741v0.762z"/>
<path d="m47.283 210.16q-0.49212 0.381-0.75142 0.87842-0.25929 0.49742-0.25929 1.0848 0 0.29634 0.05821 0.56092 0.0635 0.26458 0.18521 0.508 0.127 0.24342 0.3175 0.47096 0.19579 0.22754 0.46038 0.45508l-0.23812 0.3175q-0.60854-0.44979-0.91017-1.0425-0.29633-0.59796-0.29633-1.2594 0-0.65617 0.30162-1.2541t0.90488-1.0372l0.23283 0.3175h-0.0053z"/>
<path d="m49.225 211.91 0.508-1.6298h0.40746q0.10583 0.77258 0.14817 1.5822 0.04763 0.80962 0.08467 1.6933h-0.42333q-0.0053-0.28575-0.01058-0.61912-0.0053-0.33338-0.01588-0.68792-0.0053-0.35454-0.01588-0.71967-0.0053-0.36512-0.01587-0.70908l-0.47625 1.4922h-0.381l-0.48683-1.4922q-0.0053 0.34396-0.01588 0.70908-0.0053 0.35984-0.01588 0.71967-0.0053 0.35454-0.01588 0.68792-0.0053 0.33337-0.01058 0.61912h-0.42333q0.01588-0.40216 0.03704-0.8255 0.02117-0.42333 0.04762-0.84137 0.03175-0.41804 0.06879-0.8255 0.04233-0.40746 0.08996-0.78317h0.40217l0.51329 1.6298z"/>
<path d="m50.812 214.02q0.04763 0.0265 0.13229 0.0423 0.08996 0.0159 0.16404 0.0159 0.25929 0 0.40217-0.11642 0.14817-0.11113 0.26988-0.37042-0.29633-0.56091-0.55562-1.2012-0.25929-0.64558-0.42862-1.2859h0.47625q0.05292 0.21167 0.12171 0.46037 0.07408 0.24342 0.16404 0.50271 0.08996 0.25929 0.1905 0.52388 0.10583 0.25929 0.22225 0.49741 0.08467-0.24341 0.15875-0.48154 0.07408-0.23812 0.13758-0.47625 0.0635-0.24341 0.127-0.49212 0.0635-0.254 0.13229-0.53446h0.45508q-0.16933 0.68792-0.381 1.3335-0.20638 0.64558-0.4445 1.1959-0.08996 0.21166-0.19579 0.36512-0.10054 0.15346-0.22225 0.254t-0.27517 0.14817q-0.15346 0.0476-0.34925 0.0476-0.10054 0-0.22225-0.0265-0.11642-0.0265-0.15875-0.0476l0.07937-0.35454z"/>
<path d="m55.622 213.42q-0.18521 0.10583-0.39688 0.15346-0.20638 0.0529-0.4445 0.0529-0.29104 0-0.53975-0.10054-0.24342-0.10583-0.42333-0.31221-0.17992-0.21166-0.28575-0.53445-0.10054-0.3228-0.10054-0.762 0-0.41805 0.10583-0.73555 0.11112-0.3175 0.29633-0.53445 0.18521-0.21696 0.43392-0.32809 0.24871-0.11112 0.52917-0.11112 0.19579 0 0.39688 0.0529 0.20638 0.0529 0.40217 0.17463l-0.127 0.35983q-0.34925-0.20108-0.65617-0.20108-0.21696 0-0.39158 0.0952-0.16933 0.09-0.29104 0.26458-0.12171 0.17463-0.1905 0.41804-0.0635 0.24342-0.0635 0.54505 0 0.33866 0.06879 0.58737 0.07408 0.24871 0.20108 0.41275 0.127 0.16404 0.30162 0.24342 0.17992 0.0794 0.38629 0.0794 0.15346 0 0.32279-0.037 0.16933-0.0423 0.34925-0.14287l0.11642 0.35983z"/>
<path d="m57.623 213.61q-0.23283 0-0.38629-0.0635t-0.24342-0.1905q-0.08996-0.127-0.127-0.31221-0.03704-0.1905-0.03704-0.43921v-2.323h-0.70908v-0.37041h1.143v2.6934q0 0.18521 0.02117 0.30163 0.02646 0.11642 0.07408 0.1905 0.05292 0.0688 0.127 0.0952 0.07408 0.0265 0.17462 0.0265 0.15346 0 0.28575-0.037 0.13229-0.037 0.20638-0.0794l0.0635 0.37042q-0.03175 0.0159-0.08996 0.0423-0.05821 0.0212-0.13758 0.0423-0.07937 0.0212-0.17462 0.037-0.08996 0.0159-0.1905 0.0159z"/>
<path d="m59.829 213.24q0.16404 0 0.29104-0.0106 0.13229-0.0106 0.21696-0.0265v-0.73025q-0.08467-0.0265-0.20638-0.0423-0.11642-0.0159-0.24871-0.0159-0.12171 0-0.23812 0.0212-0.11642 0.0159-0.20638 0.0635-0.08996 0.0476-0.14817 0.127-0.05821 0.0741-0.05821 0.1905 0 0.23813 0.15875 0.33338 0.16404 0.09 0.43921 0.09zm-0.04233-2.2013q0.27517 0 0.46038 0.0688 0.1905 0.0688 0.30692 0.1905 0.11642 0.12171 0.16404 0.29634 0.04763 0.17462 0.04763 0.381v1.5346q-0.15346 0.0265-0.40746 0.0635-0.24871 0.037-0.51329 0.037-0.20108 0-0.39158-0.037-0.1905-0.0317-0.33867-0.11642-0.14817-0.09-0.23812-0.24341-0.08996-0.15346-0.08996-0.39159 0-0.21166 0.08996-0.35454 0.09525-0.14817 0.23812-0.23812 0.14817-0.09 0.33338-0.127 0.1905-0.0423 0.381-0.0423 0.25929 0 0.508 0.0582v-0.12171q0-0.11112-0.02646-0.21166-0.02117-0.10584-0.08996-0.1905-0.0635-0.0847-0.17992-0.1323-0.11112-0.0529-0.29104-0.0529-0.22754 0-0.39688 0.0318-0.16933 0.0317-0.25929 0.0635l-0.05292-0.35984q0.08996-0.0423 0.29633-0.0741 0.21167-0.0317 0.44979-0.0317z"/>
<path d="m62.983 212.94q0-0.13229-0.11112-0.21696-0.10583-0.0847-0.26988-0.14817-0.15875-0.0635-0.34925-0.1217-0.1905-0.0635-0.35454-0.15346-0.15875-0.09-0.26988-0.22225-0.10583-0.13229-0.10583-0.34396 0-0.29633 0.23812-0.49213 0.24342-0.20108 0.75671-0.20108 0.20108 0 0.41275 0.0317 0.21696 0.0265 0.37042 0.0741l-0.07937 0.39159q-0.04233-0.0212-0.11642-0.0423-0.07408-0.0265-0.16933-0.0423-0.09525-0.0212-0.20638-0.0317-0.10583-0.0106-0.20638-0.0106-0.5715 0-0.5715 0.31221 0 0.11112 0.10583 0.1905 0.11112 0.0741 0.27517 0.13758 0.16404 0.0635 0.35454 0.13229 0.1905 0.0635 0.35454 0.15875 0.16404 0.0952 0.26988 0.23283 0.11112 0.1323 0.11112 0.33867 0 0.33338-0.25929 0.51858-0.25929 0.17992-0.82021 0.17992-0.254 0-0.46567-0.0423t-0.40217-0.127l0.08467-0.39688q0.18521 0.0847 0.38629 0.14288 0.20638 0.0529 0.43921 0.0529 0.59796 0 0.59796-0.30162z"/>
<path d="m65.629 212.94q0-0.13229-0.11112-0.21696-0.10583-0.0847-0.26988-0.14817-0.15875-0.0635-0.34925-0.1217-0.1905-0.0635-0.35454-0.15346-0.15875-0.09-0.26988-0.22225-0.10583-0.13229-0.10583-0.34396 0-0.29633 0.23812-0.49213 0.24342-0.20108 0.75671-0.20108 0.20108 0 0.41275 0.0317 0.21696 0.0265 0.37042 0.0741l-0.07937 0.39159q-0.04233-0.0212-0.11642-0.0423-0.07408-0.0265-0.16933-0.0423-0.09525-0.0212-0.20638-0.0317-0.10583-0.0106-0.20638-0.0106-0.5715 0-0.5715 0.31221 0 0.11112 0.10583 0.1905 0.11112 0.0741 0.27517 0.13758 0.16404 0.0635 0.35454 0.13229 0.1905 0.0635 0.35454 0.15875 0.16404 0.0952 0.26988 0.23283 0.11112 0.1323 0.11112 0.33867 0 0.33338-0.25929 0.51858-0.25929 0.17992-0.82021 0.17992-0.254 0-0.46567-0.0423t-0.40217-0.127l0.08467-0.39688q0.18521 0.0847 0.38629 0.14288 0.20638 0.0529 0.43921 0.0529 0.59796 0 0.59796-0.30162z"/>
<path d="m68.132 213.22q0 0.15875-0.10583 0.28045-0.10583 0.12171-0.28046 0.12171-0.17992 0-0.28575-0.12171-0.10583-0.1217-0.10583-0.28045 0-0.16405 0.10583-0.28575 0.10583-0.12171 0.28575-0.12171 0.17462 0 0.28046 0.12171 0.10583 0.1217 0.10583 0.28575z"/>
<path d="m70.413 213.24q0.16404 0 0.29104-0.0106 0.13229-0.0106 0.21696-0.0265v-0.73025q-0.08467-0.0265-0.20638-0.0423-0.11642-0.0159-0.24871-0.0159-0.12171 0-0.23812 0.0212-0.11642 0.0159-0.20638 0.0635-0.08996 0.0476-0.14817 0.127-0.05821 0.0741-0.05821 0.1905 0 0.23813 0.15875 0.33338 0.16404 0.09 0.43921 0.09zm-0.04233-2.2013q0.27517 0 0.46038 0.0688 0.1905 0.0688 0.30692 0.1905 0.11642 0.12171 0.16404 0.29634 0.04762 0.17462 0.04762 0.381v1.5346q-0.15346 0.0265-0.40746 0.0635-0.24871 0.037-0.51329 0.037-0.20108 0-0.39158-0.037-0.1905-0.0317-0.33867-0.11642-0.14817-0.09-0.23812-0.24341-0.08996-0.15346-0.08996-0.39159 0-0.21166 0.08996-0.35454 0.09525-0.14817 0.23812-0.23812 0.14817-0.09 0.33338-0.127 0.1905-0.0423 0.381-0.0423 0.25929 0 0.508 0.0582v-0.12171q0-0.11112-0.02646-0.21166-0.02117-0.10584-0.08996-0.1905-0.0635-0.0847-0.17992-0.1323-0.11112-0.0529-0.29104-0.0529-0.22754 0-0.39688 0.0318-0.16933 0.0317-0.25929 0.0635l-0.05292-0.35984q0.08996-0.0423 0.29633-0.0741 0.21167-0.0317 0.44979-0.0317z"/>
<path d="m72.318 214.12q0.49212-0.381 0.75142-0.87842 0.26458-0.49741 0.26458-1.0848 0-0.29633-0.0635-0.56091-0.05821-0.26459-0.18521-0.508-0.127-0.24342-0.32279-0.47096-0.1905-0.22754-0.45508-0.45509l0.23812-0.3175q0.60854 0.4498 0.90488 1.0478 0.30162 0.59267 0.30162 1.2541 0 0.32808-0.07938 0.64558-0.07408 0.3175-0.22754 0.61384-0.14817 0.29104-0.37571 0.55033-0.22225 0.26458-0.52388 0.48154l-0.23283-0.3175h0.0053z"/>
<path d="m34.006 218.95q0-0.42863-0.20108-0.66146-0.20108-0.23813-0.52388-0.23813-0.17992 0-0.28575 0.0159-0.10054 0.0159-0.15875 0.037v1.5505q0.07408 0.0688 0.21696 0.127 0.14288 0.0582 0.29633 0.0582 0.17462 0 0.29633-0.0688 0.127-0.0688 0.20638-0.1852 0.07937-0.12171 0.11642-0.28046 0.03704-0.16404 0.03704-0.35454zm0.44979 0q0 0.28045-0.07408 0.51858-0.06879 0.23283-0.20638 0.40217-0.13229 0.16933-0.32808 0.26458-0.19579 0.0952-0.4445 0.0952-0.19579 0-0.34396-0.0476t-0.22225-0.10583v0.96838h-0.43921v-3.2544q0.14288-0.0423 0.36512-0.0847 0.22754-0.0423 0.51858-0.0423 0.26458 0 0.48154 0.09 0.21696 0.09 0.37042 0.25929 0.15346 0.16404 0.23812 0.40217 0.08467 0.23812 0.08467 0.53446z"/>
<path d="m35.234 220.17v-2.323q0.53975-0.18521 1.0901-0.18521 0.16933 0 0.32279 0.0159 0.15346 0.0106 0.33867 0.0529l-0.07937 0.38629q-0.16933-0.0476-0.30162-0.0582-0.127-0.0159-0.28046-0.0159-0.32279 0-0.65617 0.09v2.0373h-0.43392z"/>
<path d="m38.419 217.33q-0.13758 0-0.23812-0.0952-0.10054-0.0952-0.10054-0.25929 0-0.16405 0.10054-0.2593 0.10054-0.0953 0.23812-0.0953 0.14288 0 0.23812 0.0953 0.10054 0.0952 0.10054 0.2593 0 0.16404-0.10054 0.25929-0.09525 0.0952-0.23812 0.0952zm-0.11112 0.74612h-0.70908v-0.36512h1.143v1.5081q0 0.36513 0.10054 0.49213 0.10054 0.12171 0.30162 0.12171 0.15346 0 0.28046-0.037 0.13229-0.037 0.20638-0.0794l0.0635 0.37042q-0.03175 0.0159-0.08996 0.0423-0.05821 0.0212-0.13758 0.0423-0.07408 0.0212-0.16933 0.037-0.08996 0.0159-0.1905 0.0159-0.23283 0-0.38629-0.0635-0.15346-0.0635-0.24871-0.1905-0.08996-0.127-0.127-0.31221-0.03704-0.1905-0.03704-0.43921v-1.143z"/>
<path d="m40.335 217.78q0.23812-0.0582 0.47096-0.09 0.23812-0.0318 0.4445-0.0318 0.49212 0 0.74083 0.254 0.254 0.254 0.254 0.81492v1.4393h-0.43392v-1.36q0-0.23812-0.04233-0.38629t-0.12171-0.22754q-0.07408-0.0847-0.18521-0.11642-0.10583-0.0318-0.23283-0.0318-0.10583 0-0.22754 0.0159-0.11642 0.0106-0.22754 0.0317v2.0743h-0.43921v-2.3865z"/>
<path d="m43.891 217.71h1.0372v0.36512h-1.0372v1.143q0 0.18521 0.02646 0.30163 0.02646 0.11641 0.08467 0.1905 0.0635 0.0688 0.15875 0.0953t0.23283 0.0265q0.1905 0 0.30692-0.0317 0.11642-0.0318 0.22225-0.0847l0.0635 0.37042q-0.07408 0.0317-0.23812 0.0847-0.15875 0.0529-0.39688 0.0529-0.27517 0-0.44979-0.0635t-0.27517-0.1905q-0.09525-0.127-0.13229-0.31221-0.03704-0.1905-0.03704-0.43921v-1.143h-0.51858v-0.36512h0.51858v-0.68792l0.43392-0.0741v0.762z"/>
<path d="m47.283 216.78q-0.49212 0.381-0.75142 0.87842-0.25929 0.49742-0.25929 1.0848 0 0.29633 0.05821 0.56092 0.0635 0.26458 0.18521 0.508 0.127 0.24341 0.3175 0.47096 0.19579 0.22754 0.46038 0.45508l-0.23812 0.3175q-0.60854-0.44979-0.91017-1.0425-0.29633-0.59796-0.29633-1.2594 0-0.65616 0.30162-1.2541t0.90488-1.0372l0.23283 0.3175h-0.0053z"/>
<path d="m49.225 218.52 0.508-1.6298h0.40746q0.10583 0.77258 0.14817 1.5822 0.04763 0.80962 0.08467 1.6933h-0.42333q-0.0053-0.28575-0.01058-0.61912-0.0053-0.33338-0.01588-0.68792-0.0053-0.35454-0.01588-0.71967-0.0053-0.36512-0.01587-0.70908l-0.47625 1.4922h-0.381l-0.48683-1.4922q-0.0053 0.34396-0.01588 0.70908-0.0053 0.35984-0.01588 0.71967-0.0053 0.35454-0.01588 0.68792-0.0053 0.33337-0.01058 0.61912h-0.42333q0.01588-0.40217 0.03704-0.8255 0.02117-0.42333 0.04762-0.84137 0.03175-0.41805 0.06879-0.8255 0.04233-0.40746 0.08996-0.78317h0.40217l0.51329 1.6298z"/>
<path d="m50.812 220.63q0.04763 0.0264 0.13229 0.0423 0.08996 0.0159 0.16404 0.0159 0.25929 0 0.40217-0.11641 0.14817-0.11113 0.26988-0.37042-0.29633-0.56092-0.55562-1.2012-0.25929-0.64558-0.42862-1.2859h0.47625q0.05292 0.21166 0.12171 0.46037 0.07408 0.24342 0.16404 0.50271 0.08996 0.25929 0.1905 0.52388 0.10583 0.25929 0.22225 0.49741 0.08467-0.24341 0.15875-0.48154 0.07408-0.23812 0.13758-0.47625 0.0635-0.24342 0.127-0.49212 0.0635-0.254 0.13229-0.53446h0.45508q-0.16933 0.68791-0.381 1.3335-0.20638 0.64558-0.4445 1.1959-0.08996 0.21167-0.19579 0.36513-0.10054 0.15346-0.22225 0.254t-0.27517 0.14817q-0.15346 0.0476-0.34925 0.0476-0.10054 0-0.22225-0.0265-0.11642-0.0265-0.15875-0.0476l0.07937-0.35454z"/>
<path d="m55.622 220.03q-0.18521 0.10583-0.39688 0.15346-0.20638 0.0529-0.4445 0.0529-0.29104 0-0.53975-0.10054-0.24342-0.10583-0.42333-0.31221-0.17992-0.21166-0.28575-0.53446-0.10054-0.32279-0.10054-0.762 0-0.41804 0.10583-0.73554 0.11112-0.3175 0.29633-0.53446 0.18521-0.21695 0.43392-0.32808 0.24871-0.11112 0.52917-0.11112 0.19579 0 0.39688 0.0529 0.20638 0.0529 0.40217 0.17463l-0.127 0.35983q-0.34925-0.20108-0.65617-0.20108-0.21696 0-0.39158 0.0952-0.16933 0.09-0.29104 0.26458-0.12171 0.17463-0.1905 0.41804-0.0635 0.24342-0.0635 0.54504 0 0.33867 0.06879 0.58738 0.07408 0.24871 0.20108 0.41275 0.127 0.16404 0.30162 0.24342 0.17992 0.0794 0.38629 0.0794 0.15346 0 0.32279-0.037 0.16933-0.0423 0.34925-0.14288l0.11642 0.35984z"/>
<path d="m57.623 220.23q-0.23283 0-0.38629-0.0635t-0.24342-0.1905q-0.08996-0.127-0.127-0.31221-0.03704-0.1905-0.03704-0.43921v-2.323h-0.70908v-0.37042h1.143v2.6935q0 0.18521 0.02117 0.30163 0.02646 0.11641 0.07408 0.1905 0.05292 0.0688 0.127 0.0953t0.17462 0.0265q0.15346 0 0.28575-0.037 0.13229-0.037 0.20638-0.0794l0.0635 0.37042q-0.03175 0.0159-0.08996 0.0423-0.05821 0.0212-0.13758 0.0423-0.07937 0.0212-0.17462 0.037-0.08996 0.0159-0.1905 0.0159z"/>
<path d="m59.829 219.86q0.16404 0 0.29104-0.0106 0.13229-0.0106 0.21696-0.0265v-0.73025q-0.08467-0.0265-0.20638-0.0423-0.11642-0.0159-0.24871-0.0159-0.12171 0-0.23812 0.0212-0.11642 0.0159-0.20638 0.0635-0.08996 0.0476-0.14817 0.127-0.05821 0.0741-0.05821 0.1905 0 0.23812 0.15875 0.33337 0.16404 0.09 0.43921 0.09zm-0.04233-2.2013q0.27517 0 0.46038 0.0688 0.1905 0.0688 0.30692 0.1905 0.11642 0.12171 0.16404 0.29633 0.04763 0.17463 0.04763 0.381v1.5346q-0.15346 0.0265-0.40746 0.0635-0.24871 0.037-0.51329 0.037-0.20108 0-0.39158-0.037-0.1905-0.0318-0.33867-0.11642-0.14817-0.09-0.23812-0.24342-0.08996-0.15345-0.08996-0.39158 0-0.21167 0.08996-0.35454 0.09525-0.14817 0.23812-0.23813 0.14817-0.0899 0.33338-0.127 0.1905-0.0423 0.381-0.0423 0.25929 0 0.508 0.0582v-0.12171q0-0.11112-0.02646-0.21167-0.02117-0.10583-0.08996-0.1905-0.0635-0.0847-0.17992-0.13229-0.11112-0.0529-0.29104-0.0529-0.22754 0-0.39688 0.0318-0.16933 0.0317-0.25929 0.0635l-0.05292-0.35984q0.08996-0.0423 0.29633-0.0741 0.21167-0.0318 0.44979-0.0318z"/>
<path d="m62.983 219.56q0-0.13229-0.11112-0.21696-0.10583-0.0847-0.26988-0.14817-0.15875-0.0635-0.34925-0.12171-0.1905-0.0635-0.35454-0.15345-0.15875-0.09-0.26988-0.22225-0.10583-0.1323-0.10583-0.34396 0-0.29634 0.23812-0.49213 0.24342-0.20108 0.75671-0.20108 0.20108 0 0.41275 0.0318 0.21696 0.0265 0.37042 0.0741l-0.07937 0.39159q-0.04233-0.0212-0.11642-0.0423-0.07408-0.0265-0.16933-0.0423-0.09525-0.0212-0.20638-0.0318-0.10583-0.0106-0.20638-0.0106-0.5715 0-0.5715 0.3122 0 0.11113 0.10583 0.1905 0.11112 0.0741 0.27517 0.13759 0.16404 0.0635 0.35454 0.13229 0.1905 0.0635 0.35454 0.15875 0.16404 0.0953 0.26988 0.23283 0.11112 0.13229 0.11112 0.33867 0 0.33337-0.25929 0.51858-0.25929 0.17992-0.82021 0.17992-0.254 0-0.46567-0.0423t-0.40217-0.127l0.08467-0.39688q0.18521 0.0847 0.38629 0.14288 0.20638 0.0529 0.43921 0.0529 0.59796 0 0.59796-0.30162z"/>
<path d="m65.629 219.56q0-0.13229-0.11112-0.21696-0.10583-0.0847-0.26988-0.14817-0.15875-0.0635-0.34925-0.12171-0.1905-0.0635-0.35454-0.15345-0.15875-0.09-0.26988-0.22225-0.10583-0.1323-0.10583-0.34396 0-0.29634 0.23812-0.49213 0.24342-0.20108 0.75671-0.20108 0.20108 0 0.41275 0.0318 0.21696 0.0265 0.37042 0.0741l-0.07937 0.39159q-0.04233-0.0212-0.11642-0.0423-0.07408-0.0265-0.16933-0.0423-0.09525-0.0212-0.20638-0.0318-0.10583-0.0106-0.20638-0.0106-0.5715 0-0.5715 0.3122 0 0.11113 0.10583 0.1905 0.11112 0.0741 0.27517 0.13759 0.16404 0.0635 0.35454 0.13229 0.1905 0.0635 0.35454 0.15875 0.16404 0.0953 0.26988 0.23283 0.11112 0.13229 0.11112 0.33867 0 0.33337-0.25929 0.51858-0.25929 0.17992-0.82021 0.17992-0.254 0-0.46567-0.0423t-0.40217-0.127l0.08467-0.39688q0.18521 0.0847 0.38629 0.14288 0.20638 0.0529 0.43921 0.0529 0.59796 0 0.59796-0.30162z"/>
<path d="m68.132 219.83q0 0.15875-0.10583 0.28046t-0.28046 0.12171q-0.17992 0-0.28575-0.12171-0.10583-0.12171-0.10583-0.28046 0-0.16404 0.10583-0.28575 0.10583-0.1217 0.28575-0.1217 0.17462 0 0.28046 0.1217 0.10583 0.12171 0.10583 0.28575z"/>
<path d="m69.915 220.17v-2.0902h-0.51858v-0.36512h0.51858v-0.22225q0-0.28575 0.07937-0.47096 0.07937-0.1905 0.20638-0.30692 0.13229-0.11641 0.30162-0.16404 0.17462-0.0476 0.36512-0.0476t0.381 0.0423q0.19579 0.0423 0.36512 0.10054l-0.07937 0.37571q-0.11642-0.0582-0.29104-0.10054-0.17462-0.0423-0.35454-0.0423-0.11112 0-0.21167 0.0317-0.09525 0.0265-0.16933 0.10055-0.07408 0.0688-0.11642 0.1905-0.04233 0.11641-0.04233 0.29633v0.21696h0.98954v0.36512h-0.98954v2.0902h-0.43392z"/>
<path d="m73.979 220.1q-0.14288 0.037-0.381 0.0794-0.23283 0.0423-0.55033 0.0423-0.28046 0-0.46567-0.0794-0.18521-0.0847-0.30162-0.23283-0.11642-0.15346-0.16404-0.35983-0.04763-0.20638-0.04763-0.45509v-1.3811h0.43392v1.2859q0 0.45509 0.13229 0.64559 0.13758 0.1905 0.45508 0.1905 0.06879 0 0.13758-5e-3 0.07408-5e-3 0.13758-0.0106 0.0635-0.0106 0.11112-0.0159 0.04763-0.0106 0.0635-0.0159v-2.0743h0.43921v2.3865z"/>
<path d="m74.731 217.78q0.23812-0.0582 0.47096-0.09 0.23812-0.0318 0.4445-0.0318 0.49212 0 0.74083 0.254 0.254 0.254 0.254 0.81492v1.4393h-0.43392v-1.36q0-0.23812-0.04233-0.38629t-0.12171-0.22754q-0.07408-0.0847-0.18521-0.11642-0.10583-0.0318-0.23283-0.0318-0.10583 0-0.22754 0.0159-0.11642 0.0106-0.22754 0.0317v2.0743h-0.43921v-2.3865z"/>
<path d="m77.26 218.95q0-0.33338 0.10583-0.5768 0.10583-0.24341 0.29104-0.40216t0.42862-0.23284q0.24871-0.0794 0.52917-0.0794 0.17992 0 0.35454 0.0265 0.17992 0.0212 0.381 0.0847l-0.10054 0.37571q-0.17462-0.0635-0.32279-0.0794-0.14288-0.0212-0.29104-0.0212-0.1905 0-0.35983 0.0529-0.16933 0.0476-0.29633 0.15875-0.12171 0.10583-0.19579 0.28046-0.07408 0.16933-0.07408 0.41275 0 0.23283 0.06879 0.40216 0.06879 0.16404 0.1905 0.27517 0.127 0.10583 0.30162 0.15875 0.17462 0.0529 0.38629 0.0529 0.16933 0 0.32279-0.0159 0.15875-0.0212 0.34396-0.0847l0.0635 0.36513q-0.18521 0.0688-0.37571 0.0953-0.1905 0.0317-0.41275 0.0317-0.29633 0-0.54504-0.0794-0.24342-0.0847-0.42333-0.24341-0.17462-0.15875-0.27517-0.39688-0.09525-0.24341-0.09525-0.56091z"/>
<path d="m80.255 220.74q0.49212-0.381 0.75142-0.87842 0.26458-0.49741 0.26458-1.0848 0-0.29633-0.0635-0.56092-0.05821-0.26458-0.18521-0.508-0.127-0.24341-0.32279-0.47095-0.1905-0.22755-0.45508-0.45509l0.23812-0.3175q0.60854 0.44979 0.90488 1.0478 0.30162 0.59267 0.30162 1.2541 0 0.32808-0.07938 0.64558-0.07408 0.3175-0.22754 0.61383-0.14817 0.29105-0.37571 0.55034-0.22225 0.26458-0.52388 0.48154l-0.23283-0.3175h0.0053z"/>
<path d="m34.006 225.56q0-0.42862-0.20108-0.66145-0.20108-0.23813-0.52388-0.23813-0.17992 0-0.28575 0.0159-0.10054 0.0159-0.15875 0.037v1.5505q0.07408 0.0688 0.21696 0.127 0.14288 0.0582 0.29633 0.0582 0.17462 0 0.29633-0.0688 0.127-0.0688 0.20638-0.18521 0.07937-0.1217 0.11642-0.28045 0.03704-0.16405 0.03704-0.35455zm0.44979 0q0 0.28046-0.07408 0.51859-0.06879 0.23283-0.20638 0.40216-0.13229 0.16934-0.32808 0.26459-0.19579 0.0952-0.4445 0.0952-0.19579 0-0.34396-0.0476t-0.22225-0.10583v0.96837h-0.43921v-3.2544q0.14288-0.0423 0.36512-0.0847 0.22754-0.0423 0.51858-0.0423 0.26458 0 0.48154 0.09 0.21696 0.09 0.37042 0.25929 0.15346 0.16404 0.23812 0.40217 0.08467 0.23812 0.08467 0.53445z"/>
<path d="m35.234 226.78v-2.323q0.53975-0.18521 1.0901-0.18521 0.16933 0 0.32279 0.0159 0.15346 0.0106 0.33867 0.0529l-0.07937 0.38629q-0.16933-0.0476-0.30162-0.0582-0.127-0.0159-0.28046-0.0159-0.32279 0-0.65617 0.09v2.0373h-0.43392z"/>
<path d="m38.419 223.95q-0.13758 0-0.23812-0.0953-0.10054-0.0952-0.10054-0.2593 0-0.16404 0.10054-0.25929 0.10054-0.0952 0.23812-0.0952 0.14288 0 0.23812 0.0952 0.10054 0.0952 0.10054 0.25929 0 0.16405-0.10054 0.2593-0.09525 0.0953-0.23812 0.0953zm-0.11112 0.74612h-0.70908v-0.36512h1.143v1.5081q0 0.36513 0.10054 0.49213 0.10054 0.1217 0.30162 0.1217 0.15346 0 0.28046-0.037 0.13229-0.037 0.20638-0.0794l0.0635 0.37041q-0.03175 0.0159-0.08996 0.0423-0.05821 0.0212-0.13758 0.0423-0.07408 0.0212-0.16933 0.037-0.08996 0.0159-0.1905 0.0159-0.23283 0-0.38629-0.0635-0.15346-0.0635-0.24871-0.1905-0.08996-0.127-0.127-0.31221-0.03704-0.1905-0.03704-0.43921v-1.143z"/>
<path d="m40.335 224.4q0.23812-0.0582 0.47096-0.09 0.23812-0.0317 0.4445-0.0317 0.49212 0 0.74083 0.254 0.254 0.254 0.254 0.81492v1.4393h-0.43392v-1.36q0-0.23812-0.04233-0.38629t-0.12171-0.22754q-0.07408-0.0847-0.18521-0.11642-0.10583-0.0317-0.23283-0.0317-0.10583 0-0.22754 0.0159-0.11642 0.0106-0.22754 0.0318v2.0743h-0.43921v-2.3865z"/>
<path d="m43.891 224.33h1.0372v0.36512h-1.0372v1.143q0 0.18521 0.02646 0.30163 0.02646 0.11641 0.08467 0.1905 0.0635 0.0688 0.15875 0.0952 0.09525 0.0265 0.23283 0.0265 0.1905 0 0.30692-0.0318 0.11642-0.0317 0.22225-0.0847l0.0635 0.37041q-0.07408 0.0317-0.23812 0.0847-0.15875 0.0529-0.39688 0.0529-0.27517 0-0.44979-0.0635t-0.27517-0.1905q-0.09525-0.127-0.13229-0.31221-0.03704-0.1905-0.03704-0.43921v-1.143h-0.51858v-0.36512h0.51858v-0.68792l0.43392-0.0741v0.762z"/>
<path d="m47.283 223.39q-0.49212 0.381-0.75142 0.87842-0.25929 0.49741-0.25929 1.0848 0 0.29633 0.05821 0.56092 0.0635 0.26458 0.18521 0.508 0.127 0.24341 0.3175 0.47095 0.19579 0.22755 0.46038 0.45509l-0.23812 0.3175q-0.60854-0.44979-0.91017-1.0425-0.29633-0.59796-0.29633-1.2594 0-0.65616 0.30162-1.2541t0.90488-1.0372l0.23283 0.3175h-0.0053z"/>
<path d="m49.225 225.14 0.508-1.6298h0.40746q0.10583 0.77258 0.14817 1.5822 0.04763 0.80962 0.08467 1.6933h-0.42333q-0.0053-0.28575-0.01058-0.61913-0.0053-0.33337-0.01588-0.68791-0.0053-0.35454-0.01588-0.71967-0.0053-0.36512-0.01587-0.70908l-0.47625 1.4922h-0.381l-0.48683-1.4922q-0.0053 0.34396-0.01588 0.70908-0.0053 0.35983-0.01588 0.71967-0.0053 0.35454-0.01588 0.68791-0.0053 0.33338-0.01058 0.61913h-0.42333q0.01588-0.40217 0.03704-0.8255 0.02117-0.42333 0.04762-0.84138 0.03175-0.41804 0.06879-0.8255 0.04233-0.40745 0.08996-0.78316h0.40217l0.51329 1.6298z"/>
<path d="m50.812 227.24q0.04763 0.0265 0.13229 0.0423 0.08996 0.0159 0.16404 0.0159 0.25929 0 0.40217-0.11641 0.14817-0.11113 0.26988-0.37042-0.29633-0.56092-0.55562-1.2012-0.25929-0.64558-0.42862-1.2859h0.47625q0.05292 0.21166 0.12171 0.46037 0.07408 0.24342 0.16404 0.50271 0.08996 0.25929 0.1905 0.52387 0.10583 0.2593 0.22225 0.49742 0.08467-0.24342 0.15875-0.48154 0.07408-0.23813 0.13758-0.47625 0.0635-0.24342 0.127-0.49213 0.0635-0.254 0.13229-0.53445h0.45508q-0.16933 0.68791-0.381 1.3335-0.20638 0.64558-0.4445 1.1959-0.08996 0.21167-0.19579 0.36513-0.10054 0.15346-0.22225 0.254t-0.27517 0.14816q-0.15346 0.0476-0.34925 0.0476-0.10054 0-0.22225-0.0265-0.11642-0.0265-0.15875-0.0476l0.07937-0.35455z"/>
<path d="m55.622 226.65q-0.18521 0.10583-0.39688 0.15345-0.20638 0.0529-0.4445 0.0529-0.29104 0-0.53975-0.10054-0.24342-0.10583-0.42333-0.31221-0.17992-0.21167-0.28575-0.53446-0.10054-0.32279-0.10054-0.762 0-0.41804 0.10583-0.73554 0.11112-0.3175 0.29633-0.53446 0.18521-0.21696 0.43392-0.32808 0.24871-0.11113 0.52917-0.11113 0.19579 0 0.39688 0.0529 0.20638 0.0529 0.40217 0.17463l-0.127 0.35983q-0.34925-0.20108-0.65617-0.20108-0.21696 0-0.39158 0.0952-0.16933 0.09-0.29104 0.26458-0.12171 0.17462-0.1905 0.41804-0.0635 0.24342-0.0635 0.54504 0 0.33867 0.06879 0.58738 0.07408 0.24871 0.20108 0.41275 0.127 0.16404 0.30162 0.24341 0.17992 0.0794 0.38629 0.0794 0.15346 0 0.32279-0.037 0.16933-0.0423 0.34925-0.14288l0.11642 0.35984z"/>
<path d="m57.623 226.84q-0.23283 0-0.38629-0.0635t-0.24342-0.1905q-0.08996-0.127-0.127-0.31221-0.03704-0.1905-0.03704-0.43921v-2.323h-0.70908v-0.37042h1.143v2.6935q0 0.18521 0.02117 0.30163 0.02646 0.11641 0.07408 0.1905 0.05292 0.0688 0.127 0.0952 0.07408 0.0265 0.17462 0.0265 0.15346 0 0.28575-0.037 0.13229-0.037 0.20638-0.0794l0.0635 0.37041q-0.03175 0.0159-0.08996 0.0423-0.05821 0.0212-0.13758 0.0423-0.07937 0.0212-0.17462 0.037-0.08996 0.0159-0.1905 0.0159z"/>
<path d="m59.829 226.47q0.16404 0 0.29104-0.0106 0.13229-0.0106 0.21696-0.0265v-0.73025q-0.08467-0.0265-0.20638-0.0423-0.11642-0.0159-0.24871-0.0159-0.12171 0-0.23812 0.0212-0.11642 0.0159-0.20638 0.0635-0.08996 0.0476-0.14817 0.127-0.05821 0.0741-0.05821 0.1905 0 0.23812 0.15875 0.33337 0.16404 0.09 0.43921 0.09zm-0.04233-2.2013q0.27517 0 0.46038 0.0688 0.1905 0.0688 0.30692 0.1905 0.11642 0.12171 0.16404 0.29633 0.04763 0.17463 0.04763 0.381v1.5346q-0.15346 0.0265-0.40746 0.0635-0.24871 0.037-0.51329 0.037-0.20108 0-0.39158-0.037-0.1905-0.0317-0.33867-0.11642-0.14817-0.09-0.23812-0.24342-0.08996-0.15346-0.08996-0.39158 0-0.21167 0.08996-0.35454 0.09525-0.14817 0.23812-0.23813 0.14817-0.09 0.33338-0.127 0.1905-0.0423 0.381-0.0423 0.25929 0 0.508 0.0582v-0.12171q0-0.11113-0.02646-0.21167-0.02117-0.10583-0.08996-0.1905-0.0635-0.0847-0.17992-0.13229-0.11112-0.0529-0.29104-0.0529-0.22754 0-0.39688 0.0317-0.16933 0.0318-0.25929 0.0635l-0.05292-0.35983q0.08996-0.0423 0.29633-0.0741 0.21167-0.0317 0.44979-0.0317z"/>
<path d="m62.983 226.17q0-0.1323-0.11112-0.21696-0.10583-0.0847-0.26988-0.14817-0.15875-0.0635-0.34925-0.12171-0.1905-0.0635-0.35454-0.15346-0.15875-0.09-0.26988-0.22225-0.10583-0.13229-0.10583-0.34395 0-0.29634 0.23812-0.49213 0.24342-0.20108 0.75671-0.20108 0.20108 0 0.41275 0.0317 0.21696 0.0265 0.37042 0.0741l-0.07937 0.39158q-0.04233-0.0212-0.11642-0.0423-0.07408-0.0265-0.16933-0.0423-0.09525-0.0212-0.20638-0.0317-0.10583-0.0106-0.20638-0.0106-0.5715 0-0.5715 0.31221 0 0.11113 0.10583 0.1905 0.11112 0.0741 0.27517 0.13759 0.16404 0.0635 0.35454 0.13229 0.1905 0.0635 0.35454 0.15875 0.16404 0.0952 0.26988 0.23283 0.11112 0.13229 0.11112 0.33867 0 0.33337-0.25929 0.51858-0.25929 0.17992-0.82021 0.17992-0.254 0-0.46567-0.0423t-0.40217-0.127l0.08467-0.39687q0.18521 0.0847 0.38629 0.14287 0.20638 0.0529 0.43921 0.0529 0.59796 0 0.59796-0.30162z"/>
<path d="m65.629 226.17q0-0.1323-0.11112-0.21696-0.10583-0.0847-0.26988-0.14817-0.15875-0.0635-0.34925-0.12171-0.1905-0.0635-0.35454-0.15346-0.15875-0.09-0.26988-0.22225-0.10583-0.13229-0.10583-0.34395 0-0.29634 0.23812-0.49213 0.24342-0.20108 0.75671-0.20108 0.20108 0 0.41275 0.0317 0.21696 0.0265 0.37042 0.0741l-0.07937 0.39158q-0.04233-0.0212-0.11642-0.0423-0.07408-0.0265-0.16933-0.0423-0.09525-0.0212-0.20638-0.0317-0.10583-0.0106-0.20638-0.0106-0.5715 0-0.5715 0.31221 0 0.11113 0.10583 0.1905 0.11112 0.0741 0.27517 0.13759 0.16404 0.0635 0.35454 0.13229 0.1905 0.0635 0.35454 0.15875 0.16404 0.0952 0.26988 0.23283 0.11112 0.13229 0.11112 0.33867 0 0.33337-0.25929 0.51858-0.25929 0.17992-0.82021 0.17992-0.254 0-0.46567-0.0423t-0.40217-0.127l0.08467-0.39687q0.18521 0.0847 0.38629 0.14287 0.20638 0.0529 0.43921 0.0529 0.59796 0 0.59796-0.30162z"/>
<path d="m68.132 226.45q0 0.15875-0.10583 0.28046t-0.28046 0.12171q-0.17992 0-0.28575-0.12171-0.10583-0.12171-0.10583-0.28046 0-0.16404 0.10583-0.28575 0.10583-0.12171 0.28575-0.12171 0.17462 0 0.28046 0.12171t0.10583 0.28575z"/>
<path d="m69.105 227.29h2.5612v0.37041h-2.5612z"/>
<path d="m71.751 227.29h2.5612v0.37041h-2.5612z"/>
<path d="m76.186 224.85q-0.07408-0.0688-0.21696-0.127-0.14288-0.0635-0.29633-0.0635-0.17462 0-0.30162 0.0688-0.12171 0.0688-0.20108 0.1905-0.07937 0.11642-0.11642 0.28575-0.03704 0.16404-0.03704 0.35454 0 0.42863 0.20108 0.66146t0.52388 0.23283q0.16404 0 0.27517-0.0159 0.11642-0.0159 0.16933-0.0318v-1.5558zm0-1.6563 0.43921-0.0741v3.5983q-0.14288 0.0423-0.36512 0.0847-0.22225 0.0423-0.51858 0.0423-0.26458 0-0.48154-0.09-0.21696-0.09-0.37042-0.254-0.15346-0.16933-0.23812-0.40746-0.08467-0.23812-0.08467-0.53446 0-0.28575 0.06879-0.51858 0.07408-0.23813 0.21167-0.40746 0.13758-0.16933 0.32808-0.26458 0.19579-0.0952 0.4445-0.0952 0.19579 0 0.34396 0.0476t0.22225 0.10054v-1.2277z"/>
<path d="m79.435 225.56q0 0.29104-0.08467 0.52917-0.07937 0.23283-0.22754 0.40217-0.14817 0.16933-0.35454 0.26458-0.20638 0.09-0.44979 0.09-0.23812 0-0.4445-0.09-0.20108-0.0952-0.34925-0.26458-0.14817-0.16934-0.23283-0.40217-0.07937-0.23813-0.07937-0.52917t0.07937-0.52916q0.08467-0.23813 0.23283-0.40217 0.14817-0.16933 0.34925-0.25929 0.20638-0.0952 0.4445-0.0952 0.24342 0 0.44979 0.0952 0.20638 0.09 0.35454 0.25929 0.14817 0.16404 0.22754 0.40217 0.08467 0.23812 0.08467 0.52916zm-0.44979 0q0-0.41804-0.17992-0.65616-0.17992-0.24342-0.48683-0.24342-0.30162 0-0.48154 0.24342-0.17462 0.23812-0.17462 0.65616 0 0.41275 0.17462 0.65617 0.17992 0.23812 0.48154 0.23812 0.30692 0 0.48683-0.23812 0.17992-0.24342 0.17992-0.65617z"/>
<path d="m79.906 225.56q0-0.33337 0.10583-0.57679 0.10583-0.24341 0.29104-0.40216t0.42862-0.23284q0.24871-0.0794 0.52917-0.0794 0.17992 0 0.35454 0.0265 0.17992 0.0212 0.381 0.0847l-0.10054 0.37571q-0.17462-0.0635-0.32279-0.0794-0.14288-0.0212-0.29104-0.0212-0.1905 0-0.35983 0.0529-0.16933 0.0476-0.29633 0.15875-0.12171 0.10583-0.19579 0.28045-0.07408 0.16934-0.07408 0.41275 0 0.23284 0.06879 0.40217 0.06879 0.16404 0.1905 0.27517 0.127 0.10583 0.30162 0.15875 0.17462 0.0529 0.38629 0.0529 0.16933 0 0.32279-0.0159 0.15875-0.0212 0.34396-0.0847l0.0635 0.36513q-0.18521 0.0688-0.37571 0.0952-0.1905 0.0317-0.41275 0.0317-0.29633 0-0.54504-0.0794-0.24342-0.0847-0.42333-0.24341-0.17462-0.15875-0.27517-0.39688-0.09525-0.24342-0.09525-0.56092z"/>
<path d="m82.335 227.29h2.5612v0.37041h-2.5612z"/>
<path d="m84.98 227.29h2.5612v0.37041h-2.5612z"/>
<path d="m88.193 227.35q0.49212-0.381 0.75142-0.87842 0.26458-0.49742 0.26458-1.0848 0-0.29633-0.0635-0.56092-0.05821-0.26458-0.18521-0.508-0.127-0.24341-0.32279-0.47096-0.1905-0.22754-0.45508-0.45508l0.23812-0.3175q0.60854 0.44979 0.90488 1.0478 0.30162 0.59267 0.30162 1.2541 0 0.32808-0.07938 0.64558-0.07408 0.3175-0.22754 0.61383-0.14817 0.29104-0.37571 0.55034-0.22225 0.26458-0.52388 0.48154l-0.23283-0.3175h0.0053z"/>
</g>
<g transform="matrix(.15422 0 0 .15513 -64.582 238.37)" opacity=".25" stroke-width="4.0457">
<g transform="translate(428.42 184.26)" stroke-width="4.0457">
<path d="m99.75 67.469c-28.032 2e-6 -26.281 12.156-26.281 12.156l0.03125 12.594h26.75v3.7812h-37.375s-17.938-2.0343-17.938 26.25c-2e-6 28.284 15.656 27.281 15.656 27.281h9.3438v-13.125s-0.50365-15.656 15.406-15.656h26.531s14.906 0.24096 14.906-14.406v-24.219c0-2e-6 2.2632-14.656-27.031-14.656zm-14.75 8.4688c2.6614-2e-6 4.8125 2.1511 4.8125 4.8125 2e-6 2.6614-2.1511 4.8125-4.8125 4.8125-2.6614 2e-6 -4.8125-2.1511-4.8125-4.8125-2e-6 -2.6614 2.1511-4.8125 4.8125-4.8125z" color="#000000" opacity="1"/>
<path d="m100.55 177.31c28.032 0 26.281-12.156 26.281-12.156l-0.0312-12.594h-26.75v-3.7812h37.375s17.938 2.0343 17.938-26.25c1e-5 -28.284-15.656-27.281-15.656-27.281h-9.3438v13.125s0.50366 15.656-15.406 15.656h-26.531s-14.906-0.24096-14.906 14.406v24.219s-2.2632 14.656 27.031 14.656zm14.75-8.4688c-2.6614 0-4.8125-2.1511-4.8125-4.8125s2.1511-4.8125 4.8125-4.8125 4.8125 2.1511 4.8125 4.8125c1e-5 2.6614-2.1511 4.8125-4.8125 4.8125z" color="#000000" opacity="1"/>
</g>
</g>
<g transform="matrix(.15422 0 0 .15513 -64.582 238.04)" stroke-width="4.0457">
<g transform="translate(428.42 184.26)" stroke-width="4.0457">
<path d="m99.75 67.469c-28.032 2e-6 -26.281 12.156-26.281 12.156l0.03125 12.594h26.75v3.7812h-37.375s-17.938-2.0343-17.938 26.25c-2e-6 28.284 15.656 27.281 15.656 27.281h9.3438v-13.125s-0.50365-15.656 15.406-15.656h26.531s14.906 0.24096 14.906-14.406v-24.219c0-2e-6 2.2632-14.656-27.031-14.656zm-14.75 8.4688c2.6614-2e-6 4.8125 2.1511 4.8125 4.8125 2e-6 2.6614-2.1511 4.8125-4.8125 4.8125-2.6614 2e-6 -4.8125-2.1511-4.8125-4.8125-2e-6 -2.6614 2.1511-4.8125 4.8125-4.8125z" color="#000000" fill="url(#linearGradient9521)"/>
<path d="m100.55 177.31c28.032 0 26.281-12.156 26.281-12.156l-0.0312-12.594h-26.75v-3.7812h37.375s17.938 2.0343 17.938-26.25c1e-5 -28.284-15.656-27.281-15.656-27.281h-9.3438v13.125s0.50366 15.656-15.406 15.656h-26.531s-14.906-0.24096-14.906 14.406v24.219s-2.2632 14.656 27.031 14.656zm14.75-8.4688c-2.6614 0-4.8125-2.1511-4.8125-4.8125s2.1511-4.8125 4.8125-4.8125 4.8125 2.1511 4.8125 4.8125c1e-5 2.6614-2.1511 4.8125-4.8125 4.8125z" color="#000000" fill="url(#linearGradient11307)"/>
</g>
</g>
</g>
</svg>
