<svg width="128" height="128" version="1.1" viewBox="0 0 33.867 33.867" xmlns="http://www.w3.org/2000/svg" xmlns:osb="http://www.openswatchbook.org/uri/2009/osb" xmlns:xlink="http://www.w3.org/1999/xlink">
<defs>
<linearGradient id="linearGradient1503" x1="29.203" x2="4.5843" y1="263.52" y2="296.17" gradientTransform="matrix(1.001 0 0 1.001 -.017758 -.29086)" gradientUnits="userSpaceOnUse">
<stop stop-color="#d9d9d9" offset="0"/>
<stop stop-color="#fff" offset="1"/>
</linearGradient>
</defs>
<g transform="translate(0 -263.13)">
<path d="m4.5714 264.1v32.612h24.724v-18.3c-0.04716-0.8313-0.10165-1.5753-0.3125-2.3297-0.21448-0.76736-0.55247-1.4939-0.95641-2.1892-0.51687-0.8897-1.3904-1.4633-2.1667-2.1925-0.47098-0.42711-1.4882-1.4417-2.7195-2.653-1.2212-1.2014-2.6535-2.5969-3.8492-3.6811-0.35316-0.3187-0.86616-0.64943-1.3428-0.84044-0.37009-0.14831-0.80547-0.24063-1.2258-0.30267-0.43345-0.064-0.85093-0.0958-1.1644-0.12361z" opacity=".25"/>
<path d="m4.5714 263.57v32.612h24.724v-18.3c-0.04716-0.83129-0.10165-1.5753-0.3125-2.3297-0.21448-0.76736-0.55247-1.4939-0.95641-2.1892-0.51687-0.88969-1.3904-1.4633-2.1667-2.1925-0.47098-0.42712-1.4882-1.4417-2.7195-2.653-1.2212-1.2014-2.6535-2.5969-3.8492-3.6811-0.35316-0.3187-0.86616-0.64944-1.3428-0.84044-0.37009-0.14831-0.80547-0.24063-1.2258-0.30267-0.43345-0.064-0.85093-0.0958-1.1644-0.12361z" fill="url(#linearGradient1503)" stroke="#808080" stroke-width=".3"/>
<g transform="translate(-82.262 .48152)" stroke-width="3.7795">
<path transform="matrix(.26458 0 0 .26458 0 263.13)" d="m387.08 73.617c-0.13783-0.0012-0.42584 0.37647-0.77734 1.0215-1.8075 3.3177-4.0255 5.801-6.6758 7.4707-0.59637 0.37572-1.086 0.73495-1.0879 0.79883-6e-3 0.27783 2.9656-0.3732 5.0898-1.1152 1.7365-0.60661 3.8982-1.7084 5.6602-2.8848 1.5781-1.0536 2.9492-2.1695 2.9492-2.4004 0-0.33997-4.5416-2.8868-5.1582-2.8906z" fill="#63b2f4"/>
<path transform="matrix(.26458 0 0 .26458 0 263.13)" d="m362.89 73.488c-0.61823 0.0096-4.122 1.8091-4.9961 2.5664l-0.47461 0.41211 0.77734 0.69726c0.93403 0.84008 3.0319 2.2683 4.5469 3.0957 1.9227 1.0501 4.5459 1.9996 6.9668 2.5234 0.96376 0.20863 1.7128 0.25558 1.7109 0.10742-6.1e-4 -0.05446-0.42531-0.35918-0.94336-0.67969-2.7068-1.6738-5.1846-4.4458-6.7715-7.5723-0.40192-0.79192-0.65929-1.1532-0.81641-1.1504z" fill="#63b2f4"/>
<path transform="matrix(.26458 0 0 .26458 0 263.13)" d="m373.53 71.613c-0.21232-0.07106-3.2489 0.1307-4.3438 0.28906-1.7469 0.25262-3.1551 0.55667-3.3926 0.73242-0.21621 0.15991-0.20092 0.22595 0.22071 1.0059 1.5307 2.8314 3.65 5.132 6.041 6.5605v2e-3c0.62214 0.37156 1.2394 0.67578 1.3711 0.67578 0.22692 0 0.23828-0.24367 0.23828-4.6113 0-3.0381-0.0455-4.6241-0.13477-4.6543z" fill="#63b2f4"/>
<path transform="matrix(.26458 0 0 .26458 0 263.13)" d="m376.29 71.596v4.6406c0 4.3976 0.0134 4.6406 0.24024 4.6406 0.3765 0 2.3888-1.2598 3.3691-2.1094 1.5124-1.3107 2.871-3.0194 4.0254-5.0645 0.36737-0.65012 0.4066-0.79785 0.2539-0.94336-0.37882-0.36128-3.8632-0.95857-6.3398-1.0859z" fill="#63b2f4"/>
<path transform="matrix(.26458 0 0 .26458 0 263.13)" d="m389.93 58.631-0.0879 1.4512c-0.23516 3.9022-0.81685 7.3319-1.7109 10.08-0.17461 0.54157-0.2273 0.8817-0.14453 0.96484 0.0704 0.07056 0.68488 0.37985 1.3652 0.6875 1.3985 0.63269 2.7387 1.3999 3.8047 2.1758 0.39855 0.28997 0.82488 0.5315 0.94922 0.53906 0.51923 0.026 2.9045-3.3738 4.1152-5.8652 1.4327-2.9482 2.3984-6.4959 2.4805-9.1094l0.0313-0.92383h-5.4024z" fill="#63b2f4"/>
<path transform="matrix(.26458 0 0 .26458 0 263.13)" d="m349.09 58.631 0.0293 0.92383c0.13643 4.3544 2.3996 10.072 5.5254 13.963 0.39379 0.49017 0.79928 0.89062 0.90235 0.89062s0.67901-0.31949 1.2793-0.71094c1.4361-0.93649 2.5562-1.5452 3.9238-2.1289 0.6159-0.26298 1.1612-0.51929 1.2129-0.57031 0.0517-0.05102-0.0517-0.56655-0.23047-1.1465-0.77986-2.53-1.2914-5.5172-1.5488-9.0449l-0.1582-2.1758h-5.4668z" fill="#63b2f4"/>
<path transform="matrix(.26458 0 0 .26458 0 263.13)" d="m368.19 58.564c-4.7648 0-5.4821 0.02498-5.5488 0.19922-0.1266 0.33063 0.21598 4.0924 0.5586 6.1387 0.31708 1.8937 0.83439 4.0206 1.1797 4.8516 0.0981 0.23596 0.20923 0.42969 0.24804 0.42969 0.0388 0 0.94574-0.17431 2.0156-0.38672 1.8739-0.37232 3.4175-0.56682 5.8652-0.74219l1.1524-0.08398v-10.406z" fill="#63b2f4"/>
<path transform="matrix(.26458 0 0 .26458 0 263.13)" d="m376.29 58.561v10.416l0.69141 0.06641c0.38041 0.03742 1.4341 0.13396 2.3398 0.21484 1.4932 0.13334 5.4888 0.84019 5.6504 1 0.37206 0.37289 0.9116-1.0026 1.5137-3.8613 0.43488-2.0657 0.72991-4.4819 0.77149-6.3164l0.0352-1.4512-5.502-0.0332z" fill="#63b2f4"/>
<path transform="matrix(.26458 0 0 .26458 0 263.13)" d="m364.41 44.965c-0.27952 0-1.181 3.9564-1.4785 6.4902-0.25678 2.1864-0.38392 4.1604-0.2793 4.3301 0.0574 0.09336 1.8756 0.13867 5.5449 0.13867h5.459v-9.7461l-1.2832-0.08398c-2.1408-0.14079-4.6594-0.46226-6.3066-0.80469-0.85836-0.17839-1.6032-0.32422-1.6562-0.32422zm21.105 0.0098c-0.20661-0.1317-0.52477-0.04741-1.168 0.11719-1.2184 0.31177-3.9466 0.74372-5.4219 0.85938-0.54342 0.04271-1.3577 0.1107-1.8106 0.15039l-0.82422 0.07227v9.752l5.5-0.03516 5.502-0.0332-0.0352-1.4531c-0.0573-2.4331-0.57134-5.8374-1.2461-8.252-0.19536-0.69895-0.28948-1.046-0.49609-1.1777z" fill="#63b2f4"/>
<path transform="matrix(.26458 0 0 .26458 0 263.13)" d="m355.29 40.66c-0.26429-0.10163-0.74899 0.46022-1.9336 2.2422-2.4069 3.6206-3.8028 7.5161-4.2734 11.924-0.048 0.44999-0.0477 0.8815 0 0.95898 0.0596 0.09865 1.7826 0.12815 5.5117 0.10547l5.4258-0.0332 0.1582-2.1562c0.23334-3.1979 0.51986-5.0103 1.248-7.8594 0.3349-1.3104 0.37244-1.5928 0.22266-1.7285-0.0984-0.08912-0.65471-0.354-1.2344-0.58984-1.296-0.52751-2.7232-1.2978-3.9844-2.1484-0.52556-0.35456-1.0396-0.67592-1.1406-0.71484z" fill="#63b2f4"/>
<path transform="matrix(.26458 0 0 .26458 0 263.13)" d="m394.57 40.475c-0.0763 0-0.64705 0.34794-1.2695 0.77344-1.3715 0.93744-2.7592 1.6999-4.1406 2.2754-1.1988 0.49939-1.1634 0.34132-0.56836 2.5 0.51719 1.8764 0.98756 4.8799 1.1523 7.3633 0.0805 1.2139 0.16886 2.2816 0.19532 2.373 0.0382 0.13111 1.1864 0.15732 5.4199 0.13086l5.373-0.0332-0.0313-0.85938c-0.12045-3.4027-1.647-8.0078-3.7871-11.42-0.91752-1.4629-2.157-3.1035-2.3438-3.1035z" fill="#63b2f4"/>
<path transform="matrix(.26458 0 0 .26458 0 263.13)" d="m376.53 33.742c-0.21974 0-0.23438 0.29471-0.23438 4.9043v4.9062l1.6797-0.08594c2.4685-0.12612 6.2194-0.75214 6.4941-1.084 0.18111-0.21868-0.47562-1.5467-1.5684-3.1699-0.98649-1.4654-1.9621-2.5586-3.1602-3.541-1.0136-0.83108-2.842-1.9297-3.2109-1.9297z" fill="#63b2f4"/>
<path transform="matrix(.26458 0 0 .26458 0 263.13)" d="m374.91 23.744a33.593 33.593 0 0 0-2.377 0.08398 33.593 33.593 0 0 0-3.334 0.4043 33.593 33.593 0 0 0-3.2754 0.73633 33.593 33.593 0 0 0-3.1875 1.0586 33.593 33.593 0 0 0-3.0644 1.3711 33.593 33.593 0 0 0-2.9121 1.6719 33.593 33.593 0 0 0-2.7324 1.9531 33.593 33.593 0 0 0-2.5215 2.2148 33.593 33.593 0 0 0-2.2891 2.457 33.593 33.593 0 0 0-2.0332 2.6738 33.593 33.593 0 0 0-1.7539 2.8633 33.593 33.593 0 0 0-1.4609 3.0234 33.593 33.593 0 0 0-1.1524 3.1543 33.593 33.593 0 0 0-0.83008 3.2539 33.593 33.593 0 0 0-0.50195 3.3203 33.593 33.593 0 0 0-0.16797 3.3535 33.593 33.593 0 0 0 0.084 2.375 33.593 33.593 0 0 0 0.40429 3.334 33.593 33.593 0 0 0 0.73633 3.2773 33.593 33.593 0 0 0 1.0586 3.1855 33.593 33.593 0 0 0 1.3711 3.0645 33.593 33.593 0 0 0 1.6719 2.9141 33.593 33.593 0 0 0 1.9531 2.7305 33.593 33.593 0 0 0 2.2148 2.5234 33.593 33.593 0 0 0 2.457 2.2891 33.593 33.593 0 0 0 2.6738 2.0312 33.593 33.593 0 0 0 2.8633 1.7559 33.593 33.593 0 0 0 3.0234 1.459 33.593 33.593 0 0 0 3.1543 1.1523 33.593 33.593 0 0 0 3.2539 0.83008 33.593 33.593 0 0 0 3.3184 0.50195 33.593 33.593 0 0 0 3.3555 0.16797 33.593 33.593 0 0 0 2.375-0.08398 33.593 33.593 0 0 0 3.334-0.4043 33.593 33.593 0 0 0 3.2754-0.73633 33.593 33.593 0 0 0 3.1875-1.0586 33.593 33.593 0 0 0 3.0644-1.3711 33.593 33.593 0 0 0 2.9141-1.6699 33.593 33.593 0 0 0 2.7305-1.9531 33.593 33.593 0 0 0 2.5234-2.2168 33.593 33.593 0 0 0 2.2891-2.457 33.593 33.593 0 0 0 2.0312-2.6738 33.593 33.593 0 0 0 1.7559-2.8613 33.593 33.593 0 0 0 1.459-3.0254 33.593 33.593 0 0 0 1.1523-3.1543 33.593 33.593 0 0 0 0.83008-3.252 33.593 33.593 0 0 0 0.50195-3.3203 33.593 33.593 0 0 0 0.16797-3.3535 33.593 33.593 0 0 0-0.084-2.377 33.593 33.593 0 0 0-0.4043-3.334 33.593 33.593 0 0 0-0.73633-3.2754 33.593 33.593 0 0 0-1.0586-3.1875 33.593 33.593 0 0 0-1.3711-3.0645 33.593 33.593 0 0 0-1.6719-2.9121 33.593 33.593 0 0 0-1.9531-2.7324 33.593 33.593 0 0 0-2.2148-2.5215 33.593 33.593 0 0 0-2.457-2.2891 33.593 33.593 0 0 0-2.6738-2.0332 33.593 33.593 0 0 0-2.8633-1.7539 33.593 33.593 0 0 0-3.0234-1.4609 33.593 33.593 0 0 0-3.1543-1.1523 33.593 33.593 0 0 0-3.252-0.83008 33.593 33.593 0 0 0-3.3203-0.50195 33.593 33.593 0 0 0-3.3535-0.16797zm0.0488 5.0527c7.2426-0.0032 14.189 2.7414 19.621 7.918 6.8001 6.4801 9.9574 16.051 8.3789 25.396-2.0949 12.403-12.132 21.986-24.625 23.508-8.4866 1.0339-16.847-1.7586-23.098-7.7148-7.4591-7.1081-10.44-17.691-7.8476-27.857 2.4931-9.7789 10.516-17.82 20.273-20.318 2.4347-0.62347 4.8827-0.93059 7.2969-0.93164zm-3.541 2.8809c0-0.14139-1.4224 0.07132-2.7793 0.41602-4.0822 1.0371-7.6287 2.9059-10.889 5.7363-0.37951 0.3295-0.69048 0.66975-0.69141 0.75781-3e-3 0.3151 2.1136 1.6197 4.0527 2.4961 0.70475 0.31862 1.3715 0.57771 1.4824 0.57812 0.12434 3.78e-4 0.49308-0.56822 0.96093-1.4844 1.7121-3.3527 4.0051-5.9313 6.9727-7.8418 0.4891-0.31476 0.89063-0.61134 0.89063-0.6582zm7.2461 0.04297c0 0.06724 0.54657 0.48489 1.2168 0.92774 2.7154 1.7941 5.0222 4.4891 6.6797 7.8066 0.52226 1.0444 0.56792 1.0968 0.9043 1.0137 1.1296-0.27885 4.9392-2.4452 5.1172-2.9102 0.0505-0.13176-0.14141-0.39302-0.55274-0.75586-2.399-2.1163-5.5103-3.9582-8.4062-4.9746-2.0708-0.7268-4.959-1.372-4.959-1.1074zm-5.2402 2.0215c-0.36839 0-2.1962 1.097-3.207 1.9258-1.6009 1.3126-3.2399 3.393-4.332 5.498-0.46233 0.89106-0.55914 1.1784-0.43555 1.3027 0.32926 0.33139 4.1376 0.91592 7.0879 1.0879 0.36229 0.01984 0.73749 0.01877 0.83398-0.0039 0.0965-0.0223 0.20023-0.04102 0.23047-0.04102 0.0302 0 0.0547-2.1979 0.0547-4.8848 0-4.5902-0.0128-4.8848-0.23243-4.8848z" fill="#63b2f4"/>
<path transform="matrix(.26458 0 0 .26458 0 263.13)" d="m370.5 22.566c-4.6002 0.62993-9.087 2.1352-12.885 4.3242-9.5638 5.5125-15.87 14.951-17.367 25.996-0.30164 2.2241-0.30059 6.5951 2e-3 8.8457 1.0807 8.0388 4.5847 15.016 10.375 20.666 2.7683 2.7013 5.3178 4.5115 8.8184 6.2578 4.101 2.0459 8.4308 3.2375 12.949 3.5645v-2e-3c2.1402 0.15685 2.7172 0.15836 4.7617 0.01172 4.8732-0.34991 9.0067-1.4671 13.23-3.5742 3.5005-1.7463 6.052-3.5565 8.8203-6.2578 5.7863-5.6461 9.2842-12.613 10.375-20.666 0.3035-2.2392 0.3035-6.6065 0-8.8457-0.88614-6.5419-3.3967-12.441-7.4805-17.578-5.5389-6.968-13.619-11.489-22.771-12.742-2.2379-0.30652-6.5902-0.30652-8.8281 0zm4.416 1.1777a33.593 33.593 0 0 1 3.3535 0.16797 33.593 33.593 0 0 1 3.3203 0.50195 33.593 33.593 0 0 1 3.252 0.83008 33.593 33.593 0 0 1 3.1543 1.1523 33.593 33.593 0 0 1 3.0234 1.4609 33.593 33.593 0 0 1 2.8633 1.7539 33.593 33.593 0 0 1 2.6738 2.0332 33.593 33.593 0 0 1 2.457 2.2891 33.593 33.593 0 0 1 2.2148 2.5215 33.593 33.593 0 0 1 1.9531 2.7324 33.593 33.593 0 0 1 1.6719 2.9121 33.593 33.593 0 0 1 1.3711 3.0645 33.593 33.593 0 0 1 1.0586 3.1875 33.593 33.593 0 0 1 0.73633 3.2754 33.593 33.593 0 0 1 0.4043 3.334 33.593 33.593 0 0 1 0.084 2.377 33.593 33.593 0 0 1-0.16797 3.3535 33.593 33.593 0 0 1-0.50195 3.3203 33.593 33.593 0 0 1-0.83008 3.252 33.593 33.593 0 0 1-1.1523 3.1543 33.593 33.593 0 0 1-1.459 3.0254 33.593 33.593 0 0 1-1.7559 2.8613 33.593 33.593 0 0 1-2.0312 2.6738 33.593 33.593 0 0 1-2.2891 2.457 33.593 33.593 0 0 1-2.5234 2.2168 33.593 33.593 0 0 1-2.7305 1.9531 33.593 33.593 0 0 1-2.9141 1.6699 33.593 33.593 0 0 1-3.0644 1.3711 33.593 33.593 0 0 1-3.1875 1.0586 33.593 33.593 0 0 1-3.2754 0.73633 33.593 33.593 0 0 1-3.334 0.4043 33.593 33.593 0 0 1-2.375 0.08398 33.593 33.593 0 0 1-3.3555-0.16797 33.593 33.593 0 0 1-3.3184-0.50195 33.593 33.593 0 0 1-3.2539-0.83008 33.593 33.593 0 0 1-3.1543-1.1523 33.593 33.593 0 0 1-3.0234-1.459 33.593 33.593 0 0 1-2.8633-1.7559 33.593 33.593 0 0 1-2.6738-2.0312 33.593 33.593 0 0 1-2.457-2.2891 33.593 33.593 0 0 1-2.2148-2.5234 33.593 33.593 0 0 1-1.9531-2.7305 33.593 33.593 0 0 1-1.6719-2.9141 33.593 33.593 0 0 1-1.3711-3.0645 33.593 33.593 0 0 1-1.0586-3.1855 33.593 33.593 0 0 1-0.73633-3.2773 33.593 33.593 0 0 1-0.40429-3.334 33.593 33.593 0 0 1-0.084-2.375 33.593 33.593 0 0 1 0.16797-3.3535 33.593 33.593 0 0 1 0.50195-3.3203 33.593 33.593 0 0 1 0.83008-3.2539 33.593 33.593 0 0 1 1.1524-3.1543 33.593 33.593 0 0 1 1.4609-3.0234 33.593 33.593 0 0 1 1.7539-2.8633 33.593 33.593 0 0 1 2.0332-2.6738 33.593 33.593 0 0 1 2.2891-2.457 33.593 33.593 0 0 1 2.5215-2.2148 33.593 33.593 0 0 1 2.7324-1.9531 33.593 33.593 0 0 1 2.9121-1.6719 33.593 33.593 0 0 1 3.0644-1.3711 33.593 33.593 0 0 1 3.1875-1.0586 33.593 33.593 0 0 1 3.2754-0.73633 33.593 33.593 0 0 1 3.334-0.4043 33.593 33.593 0 0 1 2.377-0.08398z" fill="#317fc1"/>
</g>
<path d="m19.751 265.48c0.01633 0.0263 0.56114 0.90462 0.72779 1.3989 0.45158 1.0123 0.25858 3.9724 0.25037 5.6588 0.02772-0.19401 4.6905-1.3958 7.111 0.80464-0.01547-0.0273-0.04888-0.0804-0.12512-0.18628-0.07235-0.10046-0.18275-0.24915-0.37164-0.44224-0.52811-0.60452-0.23093-0.0845-0.80541-0.682-0.49669-0.45047-1.5695-1.5205-2.868-2.798-1.2412-1.2212-2.6869-2.6295-3.919-3.7538z" opacity=".248"/>
<path d="m19.424 264.96c0.01548 0.0249 0.53209 0.85773 0.69011 1.3264 0.42821 0.95987 0.29224 3.218 0.28445 4.8171 0.42899-0.0223 5.1595-0.73701 7.3284 1.8241-0.02928-0.0506-0.10278-0.0927-0.14377-0.17312-0.50077-0.57318-1.1396-1.0337-1.7235-1.5822-0.47098-0.42712-1.4882-1.4417-2.7195-2.653-1.1769-1.1579-2.5478-2.4932-3.7162-3.5592z" fill="#fff" stroke="#808080" stroke-width=".3"/>
<g transform="matrix(.53602 0 0 .53727 -234.93 -13.785)" stroke-width="4.0845"></g>
<g transform="matrix(.53602 0 0 .53727 -234.93 -13.76)" stroke-width="4.0845"></g>
<g transform="translate(1.6915)" fill="#575757" stroke-width=".26458" aria-label="HTML">
<path d="m8.6341 294.32v-3.5546h0.73553v1.3553h1.3891v-1.3553h0.73794v3.5546h-0.73794v-1.5868h-1.3891v1.5868z"/>
<path d="m14.791 290.76v0.62942h-1.0635v2.9252h-0.74759v-2.9252h-1.0683v-0.62942z"/>
<path d="m17.583 290.76h1.0683v3.5546h-0.69212v-2.4043q0-0.1037 0.0024-0.28939 0.0024-0.1881 0.0024-0.28939l-0.67283 2.9831h-0.72106l-0.668-2.9831q0 0.10129 0.0024 0.28939 0.0024 0.18569 0.0024 0.28939v2.4043h-0.69212v-3.5546h1.0804l0.6463 2.795z"/>
<path d="m19.346 290.76h0.74276v2.9156h1.7604v0.63906h-2.5032z"/>
</g>
</g>
</svg>
