<svg width="128" height="128" version="1.1" viewBox="0 0 33.867 33.867" xmlns="http://www.w3.org/2000/svg" xmlns:osb="http://www.openswatchbook.org/uri/2009/osb" xmlns:xlink="http://www.w3.org/1999/xlink">
<defs>
<linearGradient id="linearGradient1503" x1="18.924" x2="5.8018" y1="268.29" y2="294.84" gradientTransform="matrix(1.001 0 0 1.001 -.017758 -.26587)" gradientUnits="userSpaceOnUse">
<stop stop-color="#4bb6ed" offset="0"/>
<stop stop-color="#0b82fe" offset="1"/>
</linearGradient>
<linearGradient id="linearGradient8140" x1="22.368" x2="23.35" y1="269.73" y2="268.84" gradientUnits="userSpaceOnUse">
<stop stop-color="#fff" offset="0"/>
<stop stop-color="#d9d9d9" offset="1"/>
</linearGradient>
</defs>
<g transform="translate(0 -263.13)">
<path d="m4.5714 264.12v32.612h24.724v-18.3c-0.04716-0.8313-0.10165-1.5753-0.3125-2.3297-0.21448-0.76736-0.55247-1.4939-0.95641-2.1892-0.51687-0.8897-1.3904-1.4633-2.1667-2.1925-0.47098-0.42711-1.4882-1.4417-2.7195-2.653-1.2212-1.2014-2.6535-2.5969-3.8492-3.6811-0.35316-0.3187-0.86616-0.64943-1.3428-0.84044-0.37009-0.14831-0.80547-0.24063-1.2258-0.30267-0.43345-0.064-0.85093-0.0958-1.1644-0.12361z" opacity=".25"/>
<path d="m4.5714 263.6v32.612h24.724v-18.3c-0.04716-0.83129-0.10165-1.5753-0.3125-2.3297-0.21448-0.76736-0.55247-1.4939-0.95641-2.1892-0.51687-0.88969-1.3904-1.4633-2.1667-2.1925-0.47098-0.42712-1.4882-1.4417-2.7195-2.653-1.2212-1.2014-2.6535-2.5969-3.8492-3.6811-0.35316-0.3187-0.86616-0.64944-1.3428-0.84044-0.37009-0.14831-0.80547-0.24063-1.2258-0.30267-0.43345-0.064-0.85093-0.0958-1.1644-0.12361z" fill="url(#linearGradient1503)"/>
<g transform="translate(0 -1.0583)" fill="none" opacity=".8" stroke="#fff" stroke-linecap="square" stroke-width=".5">
<path d="m17.127 271.64h1.4033" opacity="1"/>
<path d="m19.582 271.64h1.4026" opacity="1"/>
<path d="m22.036 271.64h1.4035" opacity="1"/>
<path d="m17.127 273.04h1.4033" opacity="1"/>
<path d="m19.582 273.04h1.4026" opacity="1"/>
<path d="m22.036 273.04h7.01e-4" opacity="1"/>
<path d="m17.127 274.44h2.1042" opacity="1"/>
<path d="m20.283 274.44h1.0521" opacity="1"/>
<path d="m22.387 274.44h0.70141" opacity="1"/>
<path d="m17.127 275.85h1.4033" opacity="1"/>
<path d="m19.582 275.85h1.4026" opacity="1"/>
<path d="m22.036 275.85h1.4035" opacity="1"/>
<path d="m17.127 277.25h2.1042" opacity="1"/>
<path d="m20.283 277.25h1.0521" opacity="1"/>
<path d="m22.387 277.25h7.02e-4" opacity="1"/>
<path d="m23.439 277.25h7.02e-4" opacity="1"/>
</g>
<g transform="translate(.0044698 .084433)" fill="none" stroke="#fff" stroke-width=".2">
<path d="m5.7902 264.76v30.119h22.277l-0.22014-16.641c-0.04798-1.8444-0.8605-6.6587-2.4221-7.0425-0.79989-1.2094-1.0005-0.85575-2.1284-2.0227-1.1004-1.1096-1.6504-1.5885-2.7278-2.5898-1.2217-1.2427-3.1534-1.5523-4.8794-1.7269z"/>
<path d="m5.7672 292.55h22.323"/>
</g>
<path transform="matrix(.26458 0 0 .26458 0 263.13)" d="m75.416 10.141c0.059338 0.09411 2.0388 3.2425 2.6445 5.0137 1.6415 3.6279 1.1216 12.161 1.0918 18.205 1.5775-0.080848 18.281-2.5579 26.979 5.7832-0.0703-0.12344-0.13367-0.25013-0.20508-0.37305-1.9535-3.3626-5.2534-5.5294-8.1875-8.2852-0.89765-0.81405-2.3286-2.2012-4.1152-3.9551-1.4026-0.81784-2.7673-1.7777-3.9609-2.9355-4.5116-4.3762-9.7674-9.4243-14.246-13.453z" opacity=".25"/>
<path d="m19.424 264.99c0.01548 0.0249 0.53209 0.85773 0.69011 1.3264 0.42821 0.95987 0.29224 3.218 0.28445 4.8171 0.42899-0.0223 5.1481-0.73598 7.317 1.8251-0.02928-0.0506-0.09141-0.0937-0.1324-0.17415-0.50077-0.57318-1.1396-1.0337-1.7235-1.5822-0.47098-0.42712-1.4882-1.4417-2.7195-2.653-1.1769-1.1579-2.5478-2.4932-3.7162-3.5592z" fill="url(#linearGradient8140)"/>
<g transform="matrix(.2487 0 0 .2487 -.071313 223.07)" fill="#fff" stroke-width="4.021px">
<path d="m80.796 282.72v3.6236h-0.90514v-3.6236h-1.3961v-0.69957h3.7004v0.69957z"/>
<path d="m82.686 286.35v-4.3232h3.3997v0.69957h-2.4945v1.0862h2.3074v0.69957h-2.3074v1.1383h2.6203v0.69957z"/>
<path d="m90.474 286.35v-2.6203q0-0.15648 0.0031-0.32217 0.0061-0.16569 0.01227-0.30376 0.0092-0.16262 0.01534-0.31604-0.06443 0.2424-0.12273 0.46025-0.02455 0.092-0.05216 0.19023-0.02761 0.0982-0.05523 0.19024-0.02455 0.092-0.04909 0.17182-0.02455 0.0798-0.04296 0.13807l-0.77934 2.4117h-0.64434l-0.77934-2.4117q-0.01841-0.0583-0.04296-0.13807-0.02148-0.0798-0.04909-0.17182-0.02455-0.0921-0.05216-0.19024-0.02761-0.0982-0.05523-0.19023-0.06136-0.21785-0.12887-0.46025 0.0092 0.17796 0.01841 0.34979 0.0061 0.14728 0.01227 0.3099 0.0061 0.16262 0.0061 0.28228v2.6203h-0.80389v-4.3232h1.212l0.77321 2.4178q0.03068 0.0951 0.06443 0.23319 0.03682 0.13807 0.07057 0.26694 0.03682 0.15035 0.07978 0.31297 0.04296-0.15955 0.08284-0.30683 0.01841-0.0644 0.03682-0.13194 0.01841-0.0675 0.03682-0.13194 0.01841-0.0644 0.03682-0.12273 0.01841-0.0583 0.03375-0.10432l0.76094-2.4332h1.2058v4.3232h-0.80389z"/>
<path d="m95.68 283.39q0 0.27921-0.09512 0.54001-0.09205 0.25774-0.28535 0.45718-0.1933 0.19944-0.49093 0.3191-0.29762 0.1166-0.70571 0.1166h-1.0739v1.5219h-0.90514v-4.3232h1.9422q0.41422 0 0.71798 0.10125 0.30376 0.0982 0.5032 0.27922 0.19944 0.18103 0.29456 0.43263 0.09819 0.25159 0.09819 0.55536zm-0.91128 0.0153q0-0.33445-0.20251-0.50627-0.19944-0.17489-0.60138-0.17489h-0.93583v1.4022h0.96037q0.20251 0 0.34672-0.0522 0.14728-0.0522 0.2424-0.14727 0.09818-0.0951 0.14421-0.22706 0.04603-0.135 0.04603-0.29455z"/>
<path d="m96.322 286.35v-4.3232h0.90514v3.6236h2.3196v0.69957z"/>
<path d="m103.22 286.35-0.38354-1.1046h-1.6477l-0.38353 1.1046h-0.90515l1.5771-4.3232h1.0678l1.571 4.3232zm-1.0125-3.0284q-0.0368-0.10739-0.0736-0.21478-0.0337-0.11046-0.0614-0.19944-0.0245-0.0921-0.043-0.15035-0.0153-0.0583-0.0184-0.0644-3e-3 9e-3 -0.0184 0.0675-0.0153 0.0583-0.0429 0.14728-0.0246 0.089-0.0614 0.19944-0.0337 0.10739-0.0706 0.21478l-0.42649 1.2426h1.2427l-0.4265-1.2426z"/>
<path d="m106.19 282.72v3.6236h-0.90514v-3.6236h-1.3961v-0.69957h3.7004v0.69957z"/>
<path d="m108.08 286.35v-4.3232h3.3997v0.69957h-2.4945v1.0862h2.3074v0.69957h-2.3074v1.1383h2.6203v0.69957z"/>
</g>
<g transform="matrix(.53602 0 0 .53727 -207.95 -13.76)" stroke-width="4.0845"></g>
<g transform="translate(1.2415 1.2447)" fill="none" stroke="#fff" stroke-linecap="square" stroke-linejoin="round" stroke-width=".25479">
<path d="m15.552 266.73-9.1443-0.026"/>
<path d="m7.1353 265.3-0.02595 13.353"/>
</g>
<g transform="translate(1.2415 1.2447)" fill="#fff" opacity=".8" stroke-width=".26458">
<g transform="translate(-1.5909)" style="">
<path d="m9.8945 276.93h1.6454v0.70141h-1.6454z" opacity="1"/>
<path d="m11.764 276.93h1.5525v0.70141h-1.5525z" opacity="1"/>
<path d="m13.54 276.93h1.3667v0.70141h-1.3667z" opacity="1"/>
<path d="m15.131 276.93h0.60032v0.70141h-0.60032z" opacity="1"/>
<path d="m15.956 276.93h1.3435v0.70141h-1.3435z" opacity="1"/>
<path d="m17.524 276.93h3.4801v0.70141h-3.4801z" opacity="1"/>
<path d="m21.228 276.93h2.644v0.70141h-2.644z" opacity="1"/>
<path d="m24.096 276.93h0.80936v0.70141h-0.80936z" opacity="1"/>
<path d="m9.8945 281.13h2.5895v0.70141h-2.5895z" opacity="1"/>
<path d="m12.676 281.13h1.2458v0.70141h-1.2458z" opacity="1"/>
<path d="m14.185 281.13h0.58576v0.70141h-0.58576z" opacity="1"/>
<path d="m14.916 281.13h1.1279v0.70141h-1.1279z" opacity="1"/>
<path d="m16.236 281.13h1.1279v0.70141h-1.1279z" opacity="1"/>
<path d="m17.721 281.13h1.8115v0.70141h-1.8115z" opacity="1"/>
<path d="m19.748 281.13h2.3773v0.70141h-2.3773z" opacity="1"/>
<path d="m22.459 281.13h1.5994v0.70141h-1.5994z" opacity="1"/>
<path d="m24.25 281.13h0.37361v0.70141h-0.37361z" opacity="1"/>
<path d="m9.8945 278.33h2.7551v0.70141h-2.7551z" opacity="1"/>
<path d="m12.866 278.33h2.9522v0.70141h-2.9522z" opacity="1"/>
<path d="m16.034 278.33h1.1789v0.70141h-1.1789z" opacity="1"/>
<path d="m17.429 278.33h2.7771v0.70141h-2.7771z" opacity="1"/>
<path d="m22.539 278.33h0.74104v0.70141h-0.74104z" opacity="1"/>
<path d="m20.422 278.33h1.9014v0.70141h-1.9014z" opacity="1"/>
<path d="m23.496 278.33h0.70141v0.70141h-0.70141z" opacity="1"/>
<path d="m9.8945 279.73h3.0056v0.70141h-3.0056z" opacity="1"/>
<path d="m13.136 279.73h3.2206v0.70141h-3.2206z" opacity="1"/>
<path d="m16.592 279.73h1.2861v0.70141h-1.2861z" opacity="1"/>
<path d="m18.114 279.73h3.0295v0.70141h-3.0295z" opacity="1"/>
<path d="m23.688 279.73h0.80845v0.70141h-0.80845z" opacity="1"/>
<path d="m21.379 279.73h2.0742v0.70141h-2.0742z" opacity="1"/>
<path d="m9.8945 285.34h2.5895v0.70141h-2.5895z" opacity="1"/>
<path d="m12.676 285.34h1.2458v0.70141h-1.2458z" opacity="1"/>
<path d="m14.185 285.34h0.58576v0.70141h-0.58576z" opacity="1"/>
<path d="m14.916 285.34h1.1279v0.70141h-1.1279z" opacity="1"/>
<path d="m16.236 285.34h1.1279v0.70141h-1.1279z" opacity="1"/>
<path d="m17.721 285.34h1.8115v0.70141h-1.8115z" opacity="1"/>
<path d="m19.748 285.34h2.3773v0.70141h-2.3773z" opacity="1"/>
<path d="m22.459 285.34h1.5994v0.70141h-1.5994z" opacity="1"/>
<path d="m24.25 285.34h0.37361v0.70141h-0.37361z" opacity="1"/>
<path d="m9.8945 283.94h2.1474v0.70141h-2.1474z" opacity="1"/>
<path d="m12.27 283.94h3.5656v0.70141h-3.5656z" opacity="1"/>
<path d="m16.064 283.94h1.722v0.70141h-1.722z" opacity="1"/>
<path d="m19.846 283.94h1.3674v0.70141h-1.3674z" opacity="1"/>
<path d="m21.441 283.94h2.1947v0.70141h-2.1947z" opacity="1"/>
<path d="m18.014 283.94h1.6038v0.70141h-1.6038z" opacity="1"/>
<path d="m9.8945 286.74h2.7135v0.70141h-2.7135z" opacity="1"/>
<path d="m12.832 286.74h0.85446v0.70141h-0.85446z" opacity="1"/>
<path d="m13.911 286.74h1.9508v0.70141h-1.9508z" opacity="1"/>
<path d="m16.086 286.74h1.3311v0.70141h-1.3311z" opacity="1"/>
<path d="m17.641 286.74h1.3311v0.70141h-1.3311z" opacity="1"/>
<path d="m19.196 286.74h1.927v0.70141h-1.927z" opacity="1"/>
<path d="m21.347 286.74h0.4016v0.70141h-0.4016z" opacity="1"/>
<path d="m21.973 286.74h2.4991v0.70141h-2.4991z" opacity="1"/>
<path d="m9.8945 288.15h2.6628v0.70141h-2.6628z" opacity="1"/>
<path d="m14.283 288.15h1.7105v0.70141h-1.7105z" opacity="1"/>
<path d="m16.24 288.15h1.5677v0.70141h-1.5677z" opacity="1"/>
<path d="m20.441 288.15h1.3772v0.70141h-1.3772z" opacity="1"/>
<path d="m19.652 288.15h0.54397v0.70141h-0.54397z" opacity="1"/>
<path d="m18.053 288.15h1.3534v0.70141h-1.3534z" opacity="1"/>
<path d="m12.803 288.15h1.2344v0.70141h-1.2344z" opacity="1"/>
</g>
<path d="m9.8708 272.32c-0.69031 0.45999-0.60872 1.6682 0.1442 2.0258 1.7161 0.624 2.8291-0.26169 3.2348-1.9051 0.01118-0.24218 0.10224-0.59814-0.25736-0.48704-1.0772-0.052-2.1035 0.0222-3.1216 0.3663zm4.6166-0.8196c1e-6 1.2704 1e-6 2.5408 1e-6 3.8113h-1.2278c-0.02415-0.2814 0.04883-0.87999-0.03744-0.95855-0.48071 0.70106-1.3191 1.0812-2.154 1.1177-2.2386 0.108-3.219-1.2463-2.5651-3.301 1.2553-1.3023 3.0526-1.0754 4.7243-1.076-0.07188-2.1737-2.8192-1.6797-4.2825-1.2491-0.38795 0.25999-0.16517-0.37461-0.22301-0.59783-0.13426-0.4901 0.52156-0.41215 0.83096-0.55575 1.127-0.27203 2.3593-0.35118 3.4559 0.0847 1.1484 0.56254 1.3888 1.5719 1.4786 2.7244z" opacity="1"/>
</g>
</g>
</svg>
