<svg width="128" height="128" version="1.1" viewBox="0 0 33.867 33.867" xmlns="http://www.w3.org/2000/svg" xmlns:osb="http://www.openswatchbook.org/uri/2009/osb" xmlns:xlink="http://www.w3.org/1999/xlink">
<defs>
<linearGradient id="linearGradient1503-8" x1="29.203" x2="4.5843" y1="263.52" y2="296.17" gradientTransform="matrix(1.001 0 0 1.001 -.017758 -.29086)" gradientUnits="userSpaceOnUse">
<stop stop-color="#d9d9d9" offset="0"/>
<stop stop-color="#fff" offset="1"/>
</linearGradient>
<clipPath id="clipPath4111">
<rect x="148.04" y="266.7" width="23.164" height="5.5408" ry="2.2294" fill="#d9b782"/>
</clipPath>
</defs>
<g transform="translate(0 -263.13)">
<path d="m4.5714 264.1v32.612h24.724v-18.3c-0.04716-0.8313-0.10165-1.5753-0.3125-2.3297-0.21448-0.76736-0.55247-1.4939-0.95641-2.1892-0.51687-0.8897-1.3904-1.4633-2.1667-2.1925-0.47098-0.42711-1.4882-1.4417-2.7195-2.653-1.2212-1.2014-2.6535-2.5969-3.8492-3.6811-0.35316-0.3187-0.86616-0.64943-1.3428-0.84044-0.37009-0.14831-0.80547-0.24063-1.2258-0.30267-0.43345-0.064-0.85093-0.0958-1.1644-0.12361z" opacity=".25"/>
<path d="m4.5714 263.57v32.612h24.724v-18.3c-0.04716-0.83129-0.10165-1.5753-0.3125-2.3297-0.21448-0.76736-0.55247-1.4939-0.95641-2.1892-0.51687-0.88969-1.3904-1.4633-2.1667-2.1925-0.47098-0.42712-1.4882-1.4417-2.7195-2.653-1.2212-1.2014-2.6535-2.5969-3.8492-3.6811-0.35316-0.3187-0.86616-0.64944-1.3428-0.84044-0.37009-0.14831-0.80547-0.24063-1.2258-0.30267-0.43345-0.064-0.85093-0.0958-1.1644-0.12361z" fill="url(#linearGradient1503-8)" stroke="#808080" stroke-width=".3"/>
<rect transform="rotate(-45.307)" x="-198.63" y="206.11" width="23.164" height="5.5408" ry="2.2294" fill="#d9b782" stroke="#b09469" stroke-linecap="round" stroke-linejoin="round" stroke-width=".1"/>
<g transform="rotate(-45.307 75.085 413.57)">
<rect x="126.01" y="276.39" width="6.3398" height="3.7272" ry="0" opacity=".25"/>
<rect x="126.11" y="276.29" width="6.3398" height="3.7272" ry="0" fill="#e3c188"/>
</g>
<path transform="matrix(.66106 -.66818 .66818 .66106 -268.64 208.4)" d="m147.29 266.49c-0.0255-7.8e-4 -0.0511 6e-3 -0.0674 0.0207-0.0485 0.0439-0.0374 0.12899 0.0207 0.15924h1.2e-4c0.0346 0.018 0.0872 8e-3 0.11603-0.0196 0.0313-0.0312 0.0298-0.10257-3e-3 -0.13514-0.0156-0.0156-0.041-0.024-0.0667-0.0249zm0.66484 0c-0.0256-7.8e-4 -0.0511 6e-3 -0.0674 0.0207-0.0485 0.0439-0.0373 0.12899 0.0208 0.15924 0.0346 0.018 0.0871 8e-3 0.11602-0.0196 0.0312-0.0312 0.0297-0.10257-3e-3 -0.13514-0.0159-0.0156-0.041-0.024-0.0667-0.0249zm0.66496 0c-0.0255-7.8e-4 -0.0511 6e-3 -0.0674 0.0207-0.0485 0.0439-0.0374 0.12899 0.0207 0.15924 0.0346 0.018 0.0872 8e-3 0.11615-0.0196 0.0312-0.0312 0.0298-0.10257-3e-3 -0.13514-0.0156-0.0156-0.0411-0.024-0.0667-0.0249zm0.66485 0c-0.0255-7.8e-4 -0.0511 6e-3 -0.0674 0.0207-0.0485 0.0439-0.0373 0.12899 0.0207 0.15924 0.0346 0.018 0.0871 8e-3 0.11601-0.0196 0.0312-0.0312 0.0297-0.10257-3e-3 -0.13514-0.0156-0.0156-0.041-0.024-0.0667-0.0249zm0.66485 0c-0.0256-7.8e-4 -0.0511 6e-3 -0.0674 0.0207-0.0485 0.0439-0.0373 0.12899 0.0207 0.15924 0.0346 0.018 0.0871 8e-3 0.11601-0.0196 0.0312-0.0312 0.0298-0.10257-3e-3 -0.13514-0.0157-0.0156-0.041-0.024-0.0666-0.0249zm0.66496 0c-0.0255-7.8e-4 -0.0511 6e-3 -0.0674 0.0207-0.0485 0.0439-0.0374 0.12899 0.0206 0.15924 0.0346 0.018 0.0872 8e-3 0.11613-0.0196 0.0313-0.0312 0.0297-0.10257-3e-3 -0.13514-0.0156-0.0156-0.0411-0.024-0.0666-0.0249zm0.66484 0c-0.0255-7.8e-4 -0.0511 6e-3 -0.0674 0.0207-0.0484 0.0439-0.0373 0.12894 0.0206 0.15924h1.2e-4c0.0346 0.018 0.0871 8e-3 0.11601-0.0196 0.0313-0.0312 0.0296-0.10257-3e-3 -0.13514-0.0156-0.0156-0.0411-0.024-0.0667-0.0249zm0.66485 0c-0.0256-7.8e-4 -0.0511 6e-3 -0.0674 0.0207-0.0485 0.0439-0.0373 0.12899 0.0208 0.15924 0.0346 0.018 0.0871 8e-3 0.11602-0.0196 0.0312-0.0312 0.0298-0.10257-3e-3 -0.13514-0.0156-0.0156-0.041-0.024-0.0667-0.0249zm0.66496 0c-0.0256-7.8e-4 -0.0511 6e-3 -0.0674 0.0207-0.0485 0.0439-0.0374 0.12899 0.0207 0.15924 0.0346 0.018 0.0873 8e-3 0.11615-0.0196 0.0312-0.0312 0.0297-0.10257-3e-3 -0.13514-0.0156-0.0156-0.0411-0.024-0.0667-0.0249zm0.66485 0c-0.0256-7.8e-4 -0.0511 6e-3 -0.0674 0.0207-0.0485 0.0439-0.0374 0.12899 0.0207 0.15924h1.1e-4c8e-3 4e-3 0.0183 6e-3 0.0286 8e-3 0.0309 4e-3 0.0659-6e-3 0.0874-0.0282 0.0313-0.0312 0.0297-0.10257-3e-3 -0.13512-0.0157-0.0156-0.0411-0.024-0.0667-0.025zm0.66484 0c-0.0256-7.8e-4 -0.0511 6e-3 -0.0674 0.0207-0.0484 0.0439-0.0373 0.12899 0.0208 0.15924 0.0346 0.018 0.0871 8e-3 0.11601-0.0196 0.0312-0.0312 0.0298-0.10257-3e-3 -0.13514-0.0156-0.0156-0.0411-0.024-0.0667-0.0249zm0.66496 0c-0.0255-7.8e-4 -0.0511 6e-3 -0.0674 0.0207-0.0485 0.0439-0.0374 0.12899 0.0207 0.15924 0.0346 0.018 0.0872 8e-3 0.11615-0.0196 0.0312-0.0312 0.0297-0.10257-3e-3 -0.13514-0.0156-0.0156-0.041-0.024-0.0667-0.0249zm0.66484 0c-0.0255-7.8e-4 -0.0511 6e-3 -0.0674 0.0207-0.0485 0.0439-0.0373 0.12899 0.0208 0.15924 0.0346 0.018 0.0871 8e-3 0.11603-0.0196 0.0313-0.0312 0.0297-0.10257-3e-3 -0.13514-0.0158-0.0156-0.0411-0.024-0.0667-0.0249zm0.66485 0c-0.0256-7.8e-4 -0.0511 6e-3 -0.0674 0.0207-0.0485 0.0439-0.0373 0.12899 0.0207 0.15924 0.0346 0.018 0.0871 8e-3 0.11603-0.0196 0.0312-0.0312 0.0296-0.10257-3e-3 -0.13514-0.0156-0.0156-0.0411-0.024-0.0667-0.0249zm0.66496 0c-0.0256-7.8e-4 -0.0511 6e-3 -0.0674 0.0207-0.0485 0.0439-0.0374 0.12899 0.0207 0.15924 0.0346 0.018 0.0873 8e-3 0.11615-0.0196 0.0312-0.0312 0.0298-0.10257-3e-3 -0.13514-0.0158-0.0156-0.041-0.024-0.0666-0.0249zm0.66485 0c-0.0256-7.8e-4 -0.0511 6e-3 -0.0674 0.0207-0.0484 0.0439-0.0373 0.12894 0.0207 0.15924h1.3e-4c0.0346 0.018 0.0872 8e-3 0.11601-0.0196 0.0313-0.0312 0.0298-0.10257-3e-3 -0.13514-0.0156-0.0156-0.041-0.024-0.0667-0.0249zm0.66483 0c-0.0255-7.8e-4 -0.0511 6e-3 -0.0674 0.0207-0.0485 0.0439-0.0373 0.12899 0.0208 0.15924 0.0346 0.018 0.0871 8e-3 0.11604-0.0196 0.0312-0.0312 0.0297-0.10257-3e-3 -0.13514-0.0158-0.0156-0.041-0.024-0.0666-0.0249zm0.66497 0c-0.0256-7.8e-4 -0.0511 6e-3 -0.0674 0.0207-0.0485 0.0439-0.0374 0.12899 0.0207 0.15924 0.0346 0.018 0.0873 8e-3 0.11616-0.0196 0.0312-0.0312 0.0297-0.10257-3e-3 -0.13514-0.0158-0.0156-0.041-0.024-0.0667-0.0249zm0.66484 0c-0.0256-7.8e-4 -0.0511 6e-3 -0.0674 0.0207-0.0485 0.0439-0.0373 0.12899 0.0207 0.15924 0.0346 0.018 0.0871 8e-3 0.11603-0.0196 0.0312-0.0312 0.0297-0.10257-3e-3 -0.13514-0.0158-0.0156-0.041-0.024-0.0667-0.0249zm0.5923 0c-0.0256-7.8e-4 -0.0511 6e-3 -0.0674 0.0207-0.0485 0.0439-0.0373 0.12899 0.0208 0.15924 0.0346 0.018 0.0871 8e-3 0.11602-0.0196 0.0312-0.0312 0.0298-0.10257-2e-3 -0.13514-0.0157-0.0156-0.0411-0.024-0.0667-0.0249zm0.66494 0c-0.0256-7.8e-4 -0.0511 6e-3 -0.0674 0.0207-0.0485 0.0439-0.0374 0.12899 0.0207 0.15924 0.0346 0.018 0.0872 8e-3 0.11615-0.0196 0.0312-0.0312 0.0296-0.10257-3e-3 -0.13514-0.0157-0.0156-0.041-0.024-0.0666-0.0249zm0.66485 0c-0.0256-7.8e-4 -0.0511 6e-3 -0.0674 0.0207-0.0485 0.0439-0.0373 0.12899 0.0208 0.15924 0.0346 0.018 0.0871 8e-3 0.11602-0.0196 0.0313-0.0312 0.0296-0.10257-3e-3 -0.13514-0.0157-0.0156-0.041-0.024-0.0666-0.0249zm0.66485 0c-0.0256-7.8e-4 -0.0511 6e-3 -0.0674 0.0207-0.0485 0.0439-0.0374 0.12899 0.0208 0.15924 0.0346 0.018 0.0872 8e-3 0.11602-0.0196 0.0312-0.0312 0.0297-0.10257-2e-3 -0.13514-0.0158-0.0156-0.0412-0.024-0.0668-0.0249zm0.66496 0c-0.0255-7.8e-4 -0.0511 6e-3 -0.0674 0.0207-0.0485 0.0439-0.0374 0.12899 0.0207 0.15924 0.0346 0.018 0.0873 8e-3 0.11614-0.0196 0.0312-0.0312 0.0298-0.10257-3e-3 -0.13514-0.0158-0.0156-0.0411-0.024-0.0667-0.0249zm0.66484 0c-0.0256-7.8e-4 -0.0511 6e-3 -0.0674 0.0207-0.0485 0.0439-0.0374 0.12899 0.0208 0.15924 0.0346 0.018 0.0872 8e-3 0.11601-0.0196 0.0313-0.0312 0.0297-0.10257-3e-3 -0.13514-0.0159-0.0156-0.0411-0.024-0.0667-0.0249zm0.66485 0c-0.0256-7.8e-4 -0.0511 6e-3 -0.0674 0.0207-0.0485 0.0439-0.0373 0.12899 0.0207 0.15924 0.0346 0.018 0.0871 8e-3 0.11603-0.0196 0.0312-0.0312 0.0297-0.10257-3e-3 -0.13514-0.0157-0.0156-0.041-0.024-0.0667-0.0249zm0.66496 0c-0.0255-7.8e-4 -0.0511 6e-3 -0.0674 0.0207-0.0485 0.0439-0.0374 0.12899 0.0206 0.15924 0.0346 0.018 0.0873 8e-3 0.11614-0.0196 0.0313-0.0312 0.0298-0.10257-3e-3 -0.13514-0.0156-0.0156-0.041-0.024-0.0667-0.0249zm0.66484 0c-0.0255-7.8e-4 -0.0511 6e-3 -0.0674 0.0207-0.0485 0.0439-0.0373 0.12899 0.0208 0.15924 0.0346 0.018 0.0872 8e-3 0.11602-0.0196 0.0313-0.0312 0.0297-0.10257-3e-3 -0.13514-0.0158-0.0156-0.041-0.024-0.0667-0.0249zm0.66484 0c-0.0256-7.8e-4 -0.0511 6e-3 -0.0674 0.0207-0.0485 0.0439-0.0373 0.12899 0.0208 0.15924 8e-3 4e-3 0.0185 6e-3 0.0287 8e-3 0.0309 4e-3 0.0657-6e-3 0.0873-0.0282 0.0312-0.0312 0.0297-0.10257-2e-3 -0.13512-0.0156-0.0156-0.0411-0.024-0.0668-0.025zm0.66496 0c-0.0256-7.8e-4 -0.0511 6e-3 -0.0674 0.0207-0.0484 0.0439-0.0374 0.12899 0.0207 0.15924 0.0346 0.018 0.0873 8e-3 0.11614-0.0196 0.0312-0.0312 0.0298-0.10257-3e-3 -0.13514-0.0157-0.0156-0.041-0.024-0.0667-0.0249zm0.66486 0c-0.0256-7.8e-4 -0.0511 6e-3 -0.0674 0.0207-0.0485 0.0439-0.0373 0.12899 0.0207 0.15924 0.0346 0.018 0.0871 8e-3 0.11602-0.0196 0.0313-0.0312 0.0297-0.10257-3e-3 -0.13514-0.0157-0.0156-0.041-0.024-0.0666-0.0249zm0.66484 0c-0.0256-7.8e-4 -0.0511 6e-3 -0.0674 0.0207-0.0485 0.0439-0.0374 0.12899 0.0208 0.15924 0.0346 0.018 0.0871 8e-3 0.11601-0.0196 0.0312-0.0312 0.0298-0.10257-2e-3 -0.13514-0.0157-0.0156-0.0411-0.024-0.0668-0.0249zm0.66496 0c-0.0256-7.8e-4 -0.0511 6e-3 -0.0674 0.0207-0.0485 0.0439-0.0374 0.12899 0.0207 0.15924 0.0346 0.018 0.0872 8e-3 0.11614-0.0196 0.0312-0.0312 0.0297-0.10257-3e-3 -0.13514-0.0157-0.0156-0.041-0.024-0.0667-0.0249zm0.66485 0c-0.0256-7.8e-4 -0.0511 6e-3 -0.0674 0.0207-0.0485 0.0439-0.0373 0.12899 0.0208 0.15924 0.0346 0.018 0.0872 8e-3 0.11603-0.0196 0.0313-0.0312 0.0297-0.10257-3e-3 -0.13514-0.0156-0.0156-0.041-0.024-0.0667-0.0249zm0.66485 0c-0.0256-7.8e-4 -0.0511 6e-3 -0.0674 0.0207-0.0484 0.0439-0.0373 0.12899 0.0208 0.15924 0.0346 0.018 0.0872 8e-3 0.11603-0.0196 0.0312-0.0312 0.0297-0.10257-3e-3 -0.13514-0.0156-0.0156-0.041-0.024-0.0666-0.0249zm0.66495 0c-0.0255-7.8e-4 -0.0511 6e-3 -0.0674 0.0207-0.0485 0.0439-0.0374 0.12899 0.0207 0.15924 0.0346 0.018 0.0873 8e-3 0.11616-0.0196 0.0312-0.0312 0.0297-0.10257-3e-3 -0.13514-0.0157-0.0156-0.041-0.024-0.0667-0.0249zm0.66485 0c-0.0255-7.8e-4 -0.0511 6e-3 -0.0674 0.0207-0.0485 0.0439-0.0373 0.12899 0.0208 0.15924 0.0346 0.018 0.0872 8e-3 0.11603-0.0196 0.0313-0.0312 0.0298-0.10257-3e-3 -0.13514-0.0156-0.0156-0.041-0.024-0.0667-0.0249zm0.66484 0c-0.0256-7.8e-4 -0.0511 6e-3 -0.0674 0.0207-0.0485 0.0439-0.0373 0.12899 0.0208 0.15924 0.0346 0.018 0.0871 8e-3 0.11602-0.0196 0.0312-0.0312 0.0298-0.10257-2e-3 -0.13514-0.0158-0.0156-0.0411-0.024-0.0668-0.0249zm-24.528 0.66496c-0.0255-7.7e-4 -0.0511 6e-3 -0.0674 0.0206-0.0485 0.0438-0.0374 0.12898 0.0207 0.15924h1.2e-4c0.0346 0.0181 0.0872 8e-3 0.11603-0.0197 0.0313-0.0313 0.0298-0.10257-3e-3 -0.13501-0.0156-0.0158-0.041-0.024-0.0667-0.0249zm0.66484 0c-0.0256-7.7e-4 -0.0511 6e-3 -0.0674 0.0206-0.0485 0.0438-0.0373 0.12898 0.0208 0.15924 0.0346 0.0181 0.0871 8e-3 0.11602-0.0197 0.0312-0.0313 0.0297-0.10257-3e-3 -0.13501-0.0159-0.0158-0.041-0.024-0.0667-0.0249zm0.66496 0c-0.0255-7.7e-4 -0.0511 6e-3 -0.0674 0.0206-0.0485 0.0438-0.0374 0.12898 0.0207 0.15924 0.0346 0.0181 0.0872 8e-3 0.11615-0.0197 0.0312-0.0313 0.0298-0.10257-3e-3 -0.13501-0.0156-0.0158-0.0411-0.024-0.0667-0.0249zm0.66485 0c-0.0255-7.7e-4 -0.0511 6e-3 -0.0674 0.0206-0.0485 0.0438-0.0373 0.12898 0.0207 0.15924 0.0346 0.0181 0.0871 8e-3 0.11601-0.0197 0.0312-0.0313 0.0297-0.10257-3e-3 -0.13501-0.0156-0.0158-0.041-0.024-0.0667-0.0249zm0.66485 0c-0.0256-7.7e-4 -0.0511 6e-3 -0.0674 0.0206-0.0485 0.0438-0.0373 0.12898 0.0207 0.15924 0.0346 0.0181 0.0871 8e-3 0.11601-0.0197 0.0312-0.0313 0.0298-0.10257-3e-3 -0.13501-0.0157-0.0158-0.041-0.024-0.0666-0.0249zm0.66496 0c-0.0255-7.7e-4 -0.0511 6e-3 -0.0674 0.0206-0.0485 0.0438-0.0374 0.12898 0.0206 0.15924 0.0346 0.0181 0.0872 8e-3 0.11613-0.0197 0.0313-0.0313 0.0297-0.10257-3e-3 -0.13501-0.0156-0.0158-0.0411-0.024-0.0666-0.0249zm0.66484 0c-0.0255-7.7e-4 -0.0511 6e-3 -0.0674 0.0206-0.0484 0.0438-0.0373 0.12893 0.0206 0.15924h1.2e-4c0.0346 0.0181 0.0871 8e-3 0.11601-0.0197 0.0313-0.0313 0.0296-0.10257-3e-3 -0.13501-0.0156-0.0158-0.0411-0.024-0.0667-0.0249zm0.66485 0c-0.0256-7.7e-4 -0.0511 6e-3 -0.0674 0.0206-0.0485 0.0438-0.0373 0.12898 0.0208 0.15924 0.0346 0.0181 0.0871 8e-3 0.11602-0.0197 0.0312-0.0313 0.0298-0.10257-3e-3 -0.13501-0.0156-0.0158-0.041-0.024-0.0667-0.0249zm0.66496 0c-0.0256-7.7e-4 -0.0511 6e-3 -0.0674 0.0206-0.0485 0.0438-0.0374 0.12898 0.0207 0.15924 0.0346 0.0181 0.0873 8e-3 0.11615-0.0197 0.0312-0.0313 0.0297-0.10257-3e-3 -0.13501-0.0156-0.0158-0.0411-0.024-0.0667-0.0249zm0.66485 0c-0.0256-7.7e-4 -0.0511 6e-3 -0.0674 0.0206-0.0485 0.0438-0.0374 0.12898 0.0207 0.15924h1.1e-4c8e-3 4e-3 0.0183 7e-3 0.0286 8e-3 0.0309 4e-3 0.0659-6e-3 0.0874-0.0283 0.0313-0.0313 0.0297-0.10257-3e-3 -0.13502-0.0157-0.0157-0.0411-0.024-0.0667-0.025zm0.66484 0c-0.0256-7.7e-4 -0.0511 6e-3 -0.0674 0.0206-0.0484 0.0438-0.0373 0.12898 0.0208 0.15924 0.0346 0.0181 0.0871 8e-3 0.11601-0.0197 0.0312-0.0313 0.0298-0.10257-3e-3 -0.13501-0.0156-0.0158-0.0411-0.024-0.0667-0.0249zm0.66496 0c-0.0255-7.7e-4 -0.0511 6e-3 -0.0674 0.0206-0.0485 0.0438-0.0374 0.12898 0.0207 0.15924 0.0346 0.0181 0.0872 8e-3 0.11615-0.0197 0.0312-0.0313 0.0297-0.10257-3e-3 -0.13501-0.0156-0.0158-0.041-0.024-0.0667-0.0249zm0.66484 0c-0.0255-7.7e-4 -0.0511 6e-3 -0.0674 0.0206-0.0485 0.0438-0.0373 0.12898 0.0208 0.15924 0.0346 0.0181 0.0871 8e-3 0.11603-0.0197 0.0313-0.0313 0.0297-0.10257-3e-3 -0.13501-0.0158-0.0158-0.0411-0.024-0.0667-0.0249zm0.66485 0c-0.0256-7.7e-4 -0.0511 6e-3 -0.0674 0.0206-0.0485 0.0438-0.0373 0.12898 0.0207 0.15924 0.0346 0.0181 0.0871 8e-3 0.11603-0.0197 0.0312-0.0313 0.0296-0.10257-3e-3 -0.13501-0.0156-0.0158-0.0411-0.024-0.0667-0.0249zm0.66496 0c-0.0256-7.7e-4 -0.0511 6e-3 -0.0674 0.0206-0.0485 0.0438-0.0374 0.12898 0.0207 0.15924 0.0346 0.0181 0.0873 8e-3 0.11615-0.0197 0.0312-0.0313 0.0298-0.10257-3e-3 -0.13501-0.0158-0.0158-0.041-0.024-0.0666-0.0249zm0.66485 0c-0.0256-7.7e-4 -0.0511 6e-3 -0.0674 0.0206-0.0484 0.0438-0.0373 0.12893 0.0207 0.15924h1.3e-4c0.0346 0.0181 0.0872 8e-3 0.11601-0.0197 0.0313-0.0313 0.0298-0.10257-3e-3 -0.13501-0.0156-0.0158-0.041-0.024-0.0667-0.0249zm0.66483 0c-0.0255-7.7e-4 -0.0511 6e-3 -0.0674 0.0206-0.0485 0.0438-0.0373 0.12898 0.0208 0.15924 0.0346 0.0181 0.0871 8e-3 0.11604-0.0197 0.0312-0.0313 0.0297-0.10257-3e-3 -0.13501-0.0158-0.0158-0.041-0.024-0.0666-0.0249zm0.66497 0c-0.0256-7.7e-4 -0.0511 6e-3 -0.0674 0.0206-0.0485 0.0438-0.0374 0.12898 0.0207 0.15924 0.0346 0.0181 0.0873 8e-3 0.11616-0.0197 0.0312-0.0313 0.0297-0.10257-3e-3 -0.13501-0.0158-0.0158-0.041-0.024-0.0667-0.0249zm0.66484 0c-0.0256-7.7e-4 -0.0511 6e-3 -0.0674 0.0206-0.0485 0.0438-0.0373 0.12898 0.0207 0.15924 0.0346 0.0181 0.0871 8e-3 0.11603-0.0197 0.0312-0.0313 0.0297-0.10257-3e-3 -0.13501-0.0158-0.0158-0.041-0.024-0.0667-0.0249zm0.5923 0c-0.0256-7.7e-4 -0.0511 6e-3 -0.0674 0.0206-0.0485 0.0438-0.0373 0.12898 0.0208 0.15924 0.0346 0.0181 0.0871 8e-3 0.11602-0.0197 0.0312-0.0313 0.0298-0.10257-2e-3 -0.13501-0.0157-0.0158-0.0411-0.024-0.0667-0.0249zm0.66494 0c-0.0256-7.7e-4 -0.0511 6e-3 -0.0674 0.0206-0.0485 0.0438-0.0374 0.12898 0.0207 0.15924 0.0346 0.0181 0.0872 8e-3 0.11615-0.0197 0.0312-0.0313 0.0296-0.10257-3e-3 -0.13501-0.0157-0.0158-0.041-0.024-0.0666-0.0249zm0.66485 0c-0.0256-7.7e-4 -0.0511 6e-3 -0.0674 0.0206-0.0485 0.0438-0.0373 0.12898 0.0208 0.15924 0.0346 0.0181 0.0871 8e-3 0.11602-0.0197 0.0313-0.0313 0.0296-0.10257-3e-3 -0.13501-0.0157-0.0158-0.041-0.024-0.0666-0.0249zm0.66485 0c-0.0256-7.7e-4 -0.0511 6e-3 -0.0674 0.0206-0.0485 0.0438-0.0374 0.12898 0.0208 0.15924 0.0346 0.0181 0.0872 8e-3 0.11602-0.0197 0.0312-0.0313 0.0297-0.10257-2e-3 -0.13501-0.0158-0.0158-0.0412-0.024-0.0668-0.0249zm0.66496 0c-0.0255-7.7e-4 -0.0511 6e-3 -0.0674 0.0206-0.0485 0.0438-0.0374 0.12898 0.0207 0.15924 0.0346 0.0181 0.0873 8e-3 0.11614-0.0197 0.0312-0.0313 0.0298-0.10257-3e-3 -0.13501-0.0158-0.0158-0.0411-0.024-0.0667-0.0249zm0.66484 0c-0.0256-7.7e-4 -0.0511 6e-3 -0.0674 0.0206-0.0485 0.0438-0.0374 0.12898 0.0208 0.15924 0.0346 0.0181 0.0872 8e-3 0.11601-0.0197 0.0313-0.0313 0.0297-0.10257-3e-3 -0.13501-0.0159-0.0158-0.0411-0.024-0.0667-0.0249zm0.66485 0c-0.0256-7.7e-4 -0.0511 6e-3 -0.0674 0.0206-0.0485 0.0438-0.0373 0.12898 0.0207 0.15924 0.0346 0.0181 0.0871 8e-3 0.11603-0.0197 0.0312-0.0313 0.0297-0.10257-3e-3 -0.13501-0.0157-0.0158-0.041-0.024-0.0667-0.0249zm0.66496 0c-0.0255-7.7e-4 -0.0511 6e-3 -0.0674 0.0206-0.0485 0.0438-0.0374 0.12898 0.0206 0.15924 0.0346 0.0181 0.0873 8e-3 0.11614-0.0197 0.0313-0.0313 0.0298-0.10257-3e-3 -0.13501-0.0156-0.0158-0.041-0.024-0.0667-0.0249zm0.66484 0c-0.0255-7.7e-4 -0.0511 6e-3 -0.0674 0.0206-0.0485 0.0438-0.0373 0.12898 0.0208 0.15924 0.0346 0.0181 0.0872 8e-3 0.11602-0.0197 0.0313-0.0313 0.0297-0.10257-3e-3 -0.13501-0.0158-0.0158-0.041-0.024-0.0667-0.0249zm0.66484 0c-0.0256-7.7e-4 -0.0511 6e-3 -0.0674 0.0206-0.0485 0.0438-0.0373 0.12898 0.0208 0.15924 8e-3 4e-3 0.0185 7e-3 0.0287 8e-3 0.0309 4e-3 0.0657-6e-3 0.0873-0.0283 0.0312-0.0313 0.0297-0.10257-2e-3 -0.13502-0.0156-0.0157-0.0411-0.024-0.0668-0.025zm0.66496 0c-0.0256-7.7e-4 -0.0511 6e-3 -0.0674 0.0206-0.0484 0.0438-0.0374 0.12898 0.0207 0.15924 0.0346 0.0181 0.0873 8e-3 0.11614-0.0197 0.0312-0.0313 0.0298-0.10257-3e-3 -0.13501-0.0157-0.0158-0.041-0.024-0.0667-0.0249zm0.66486 0c-0.0256-7.7e-4 -0.0511 6e-3 -0.0674 0.0206-0.0485 0.0438-0.0373 0.12898 0.0207 0.15924 0.0346 0.0181 0.0871 8e-3 0.11602-0.0197 0.0313-0.0313 0.0297-0.10257-3e-3 -0.13501-0.0157-0.0158-0.041-0.024-0.0666-0.0249zm0.66484 0c-0.0256-7.7e-4 -0.0511 6e-3 -0.0674 0.0206-0.0485 0.0438-0.0374 0.12898 0.0208 0.15924 0.0346 0.0181 0.0871 8e-3 0.11601-0.0197 0.0312-0.0313 0.0298-0.10257-2e-3 -0.13501-0.0157-0.0158-0.0411-0.024-0.0668-0.0249zm0.66496 0c-0.0256-7.7e-4 -0.0511 6e-3 -0.0674 0.0206-0.0485 0.0438-0.0374 0.12898 0.0207 0.15924 0.0346 0.0181 0.0872 8e-3 0.11614-0.0197 0.0312-0.0313 0.0297-0.10257-3e-3 -0.13501-0.0157-0.0158-0.041-0.024-0.0667-0.0249zm0.66485 0c-0.0256-7.7e-4 -0.0511 6e-3 -0.0674 0.0206-0.0485 0.0438-0.0373 0.12898 0.0208 0.15924 0.0346 0.0181 0.0872 8e-3 0.11603-0.0197 0.0313-0.0313 0.0297-0.10257-3e-3 -0.13501-0.0156-0.0158-0.041-0.024-0.0667-0.0249zm0.66485 0c-0.0256-7.7e-4 -0.0511 6e-3 -0.0674 0.0206-0.0484 0.0438-0.0373 0.12898 0.0208 0.15924 0.0346 0.0181 0.0872 8e-3 0.11603-0.0197 0.0312-0.0313 0.0297-0.10257-3e-3 -0.13501-0.0156-0.0158-0.041-0.024-0.0666-0.0249zm0.66495 0c-0.0255-7.7e-4 -0.0511 6e-3 -0.0674 0.0206-0.0485 0.0438-0.0374 0.12898 0.0207 0.15924 0.0346 0.0181 0.0873 8e-3 0.11616-0.0197 0.0312-0.0313 0.0297-0.10257-3e-3 -0.13501-0.0157-0.0158-0.041-0.024-0.0667-0.0249zm0.66485 0c-0.0255-7.7e-4 -0.0511 6e-3 -0.0674 0.0206-0.0485 0.0438-0.0373 0.12898 0.0208 0.15924 0.0346 0.0181 0.0872 8e-3 0.11603-0.0197 0.0313-0.0313 0.0298-0.10257-3e-3 -0.13501-0.0156-0.0158-0.041-0.024-0.0667-0.0249zm0.66484 0c-0.0256-7.7e-4 -0.0511 6e-3 -0.0674 0.0206-0.0485 0.0438-0.0373 0.12898 0.0208 0.15924 0.0346 0.0181 0.0871 8e-3 0.11602-0.0197 0.0312-0.0313 0.0298-0.10257-2e-3 -0.13501-0.0158-0.0158-0.0411-0.024-0.0668-0.0249zm-24.528 0.66486c-0.0255-7.8e-4 -0.0511 6e-3 -0.0674 0.0204-0.0485 0.0438-0.0374 0.12899 0.0207 0.15925h1.2e-4c0.0346 0.0181 0.0872 8e-3 0.11603-0.0196 0.0313-0.0312 0.0298-0.10267-3e-3 -0.13513-0.0156-0.0157-0.041-0.024-0.0667-0.0249zm0.66484 0c-0.0256-7.8e-4 -0.0511 6e-3 -0.0674 0.0204-0.0485 0.0438-0.0373 0.12899 0.0208 0.15925 0.0346 0.0181 0.0871 8e-3 0.11602-0.0196 0.0312-0.0312 0.0297-0.10267-3e-3 -0.13513-0.0159-0.0157-0.041-0.024-0.0667-0.0249zm0.66496 0c-0.0255-7.8e-4 -0.0511 6e-3 -0.0674 0.0204-0.0485 0.0438-0.0374 0.12899 0.0207 0.15925 0.0346 0.0181 0.0872 8e-3 0.11615-0.0196 0.0312-0.0312 0.0298-0.10267-3e-3 -0.13513-0.0156-0.0157-0.0411-0.024-0.0667-0.0249zm0.66485 0c-0.0255-7.8e-4 -0.0511 6e-3 -0.0674 0.0204-0.0485 0.0438-0.0373 0.12899 0.0207 0.15925 0.0346 0.0181 0.0871 8e-3 0.11601-0.0196 0.0312-0.0312 0.0297-0.10267-3e-3 -0.13513-0.0156-0.0157-0.041-0.024-0.0667-0.0249zm0.66485 0c-0.0256-7.8e-4 -0.0511 6e-3 -0.0674 0.0204-0.0485 0.0438-0.0373 0.12899 0.0207 0.15925 0.0346 0.0181 0.0871 8e-3 0.11601-0.0196 0.0312-0.0312 0.0298-0.10267-3e-3 -0.13513-0.0157-0.0157-0.041-0.024-0.0666-0.0249zm0.66496 0c-0.0255-7.8e-4 -0.0511 6e-3 -0.0674 0.0204-0.0485 0.0438-0.0374 0.12899 0.0206 0.15925 0.0346 0.0181 0.0872 8e-3 0.11613-0.0196 0.0313-0.0312 0.0297-0.10267-3e-3 -0.13513-0.0156-0.0157-0.0411-0.024-0.0666-0.0249zm0.66484 0c-0.0255-7.8e-4 -0.0511 6e-3 -0.0674 0.0204-0.0484 0.0438-0.0373 0.12895 0.0206 0.15925h1.2e-4c0.0346 0.0179 0.0871 8e-3 0.11601-0.0196 0.0313-0.0312 0.0296-0.10267-3e-3 -0.13513-0.0156-0.0157-0.0411-0.024-0.0667-0.0249zm0.66485 0c-0.0256-7.8e-4 -0.0511 6e-3 -0.0674 0.0204-0.0485 0.0438-0.0373 0.12899 0.0208 0.15925 0.0346 0.0181 0.0871 8e-3 0.11602-0.0196 0.0312-0.0312 0.0298-0.10267-3e-3 -0.13513-0.0156-0.0157-0.041-0.024-0.0667-0.0249zm0.66496 0c-0.0256-7.8e-4 -0.0511 6e-3 -0.0674 0.0204-0.0485 0.0438-0.0374 0.12899 0.0207 0.15925 0.0346 0.0181 0.0873 8e-3 0.11615-0.0196 0.0312-0.0312 0.0297-0.10267-3e-3 -0.13513-0.0156-0.0157-0.0411-0.024-0.0667-0.0249zm0.66485 0c-0.0256-7.8e-4 -0.0511 6e-3 -0.0674 0.0204-0.0485 0.0438-0.0374 0.12899 0.0207 0.15925h1.1e-4c8e-3 4e-3 0.0183 7e-3 0.0286 8e-3 0.0309 4e-3 0.0659-6e-3 0.0874-0.0282 0.0313-0.0312 0.0297-0.10267-3e-3 -0.13512-0.0157-0.0157-0.0411-0.024-0.0667-0.0249zm0.66484 0c-0.0256-7.8e-4 -0.0511 6e-3 -0.0674 0.0204-0.0484 0.0438-0.0373 0.12899 0.0208 0.15925 0.0346 0.0181 0.0871 8e-3 0.11601-0.0196 0.0312-0.0312 0.0298-0.10267-3e-3 -0.13513-0.0156-0.0157-0.0411-0.024-0.0667-0.0249zm0.66496 0c-0.0255-7.8e-4 -0.0511 6e-3 -0.0674 0.0204-0.0485 0.0438-0.0374 0.12899 0.0207 0.15925 0.0346 0.0181 0.0872 8e-3 0.11615-0.0196 0.0312-0.0312 0.0297-0.10267-3e-3 -0.13513-0.0156-0.0157-0.041-0.024-0.0667-0.0249zm0.66484 0c-0.0255-7.8e-4 -0.0511 6e-3 -0.0674 0.0204-0.0485 0.0438-0.0373 0.12899 0.0208 0.15925 0.0346 0.0181 0.0871 8e-3 0.11603-0.0196 0.0313-0.0312 0.0297-0.10267-3e-3 -0.13513-0.0158-0.0157-0.0411-0.024-0.0667-0.0249zm0.66485 0c-0.0256-7.8e-4 -0.0511 6e-3 -0.0674 0.0204-0.0485 0.0438-0.0373 0.12899 0.0207 0.15925 0.0346 0.0181 0.0871 8e-3 0.11603-0.0196 0.0312-0.0312 0.0296-0.10267-3e-3 -0.13513-0.0156-0.0157-0.0411-0.024-0.0667-0.0249zm0.66496 0c-0.0256-7.8e-4 -0.0511 6e-3 -0.0674 0.0204-0.0485 0.0438-0.0374 0.12899 0.0207 0.15925 0.0346 0.0181 0.0873 8e-3 0.11615-0.0196 0.0312-0.0312 0.0298-0.10267-3e-3 -0.13513-0.0158-0.0157-0.041-0.024-0.0666-0.0249zm0.66485 0c-0.0256-7.8e-4 -0.0511 6e-3 -0.0674 0.0204-0.0484 0.0438-0.0373 0.12895 0.0207 0.15925h1.3e-4c0.0346 0.0179 0.0872 8e-3 0.11601-0.0196 0.0313-0.0312 0.0298-0.10267-3e-3 -0.13513-0.0156-0.0157-0.041-0.024-0.0667-0.0249zm0.66483 0c-0.0255-7.8e-4 -0.0511 6e-3 -0.0674 0.0204-0.0485 0.0438-0.0373 0.12899 0.0208 0.15925 0.0346 0.0181 0.0871 8e-3 0.11604-0.0196 0.0312-0.0312 0.0297-0.10267-3e-3 -0.13513-0.0158-0.0157-0.041-0.024-0.0666-0.0249zm0.66497 0c-0.0256-7.8e-4 -0.0511 6e-3 -0.0674 0.0204-0.0485 0.0438-0.0374 0.12899 0.0207 0.15925 0.0346 0.0181 0.0873 8e-3 0.11616-0.0196 0.0312-0.0312 0.0297-0.10267-3e-3 -0.13513-0.0158-0.0157-0.041-0.024-0.0667-0.0249zm0.66484 0c-0.0256-7.8e-4 -0.0511 6e-3 -0.0674 0.0204-0.0485 0.0438-0.0373 0.12899 0.0207 0.15925 0.0346 0.0181 0.0871 8e-3 0.11603-0.0196 0.0312-0.0312 0.0297-0.10267-3e-3 -0.13513-0.0158-0.0157-0.041-0.024-0.0667-0.0249zm0.5923 0c-0.0256-7.8e-4 -0.0511 6e-3 -0.0674 0.0204-0.0485 0.0438-0.0373 0.12899 0.0208 0.15925 0.0346 0.0181 0.0871 8e-3 0.11602-0.0196 0.0312-0.0312 0.0298-0.10267-2e-3 -0.13513-0.0157-0.0157-0.0411-0.024-0.0667-0.0249zm0.66494 0c-0.0256-7.8e-4 -0.0511 6e-3 -0.0674 0.0204-0.0485 0.0438-0.0374 0.12899 0.0207 0.15925 0.0346 0.0181 0.0872 8e-3 0.11615-0.0196 0.0312-0.0312 0.0296-0.10267-3e-3 -0.13513-0.0157-0.0157-0.041-0.024-0.0666-0.0249zm0.66485 0c-0.0256-7.8e-4 -0.0511 6e-3 -0.0674 0.0204-0.0485 0.0438-0.0373 0.12899 0.0208 0.15925 0.0346 0.0181 0.0871 8e-3 0.11602-0.0196 0.0313-0.0312 0.0296-0.10267-3e-3 -0.13513-0.0157-0.0157-0.041-0.024-0.0666-0.0249zm0.66485 0c-0.0256-7.8e-4 -0.0511 6e-3 -0.0674 0.0204-0.0485 0.0438-0.0374 0.12899 0.0208 0.15925 0.0346 0.0181 0.0872 8e-3 0.11602-0.0196 0.0312-0.0312 0.0297-0.10267-2e-3 -0.13513-0.0158-0.0157-0.0412-0.024-0.0668-0.0249zm0.66496 0c-0.0255-7.8e-4 -0.0511 6e-3 -0.0674 0.0204-0.0485 0.0438-0.0374 0.12899 0.0207 0.15925 0.0346 0.0181 0.0873 8e-3 0.11614-0.0196 0.0312-0.0312 0.0298-0.10267-3e-3 -0.13513-0.0158-0.0157-0.0411-0.024-0.0667-0.0249zm0.66484 0c-0.0256-7.8e-4 -0.0511 6e-3 -0.0674 0.0204-0.0485 0.0438-0.0374 0.12899 0.0208 0.15925 0.0346 0.0181 0.0872 8e-3 0.11601-0.0196 0.0313-0.0312 0.0297-0.10267-3e-3 -0.13513-0.0159-0.0157-0.0411-0.024-0.0667-0.0249zm0.66485 0c-0.0256-7.8e-4 -0.0511 6e-3 -0.0674 0.0204-0.0485 0.0438-0.0373 0.12899 0.0207 0.15925 0.0346 0.0181 0.0871 8e-3 0.11603-0.0196 0.0312-0.0312 0.0297-0.10267-3e-3 -0.13513-0.0157-0.0157-0.041-0.024-0.0667-0.0249zm0.66496 0c-0.0255-7.8e-4 -0.0511 6e-3 -0.0674 0.0204-0.0485 0.0438-0.0374 0.12899 0.0206 0.15925 0.0346 0.0181 0.0873 8e-3 0.11614-0.0196 0.0313-0.0312 0.0298-0.10267-3e-3 -0.13513-0.0156-0.0157-0.041-0.024-0.0667-0.0249zm0.66484 0c-0.0255-7.8e-4 -0.0511 6e-3 -0.0674 0.0204-0.0485 0.0438-0.0373 0.12899 0.0208 0.15925 0.0346 0.0181 0.0872 8e-3 0.11602-0.0196 0.0313-0.0312 0.0297-0.10267-3e-3 -0.13513-0.0158-0.0157-0.041-0.024-0.0667-0.0249zm0.66484 0c-0.0256-7.8e-4 -0.0511 6e-3 -0.0674 0.0204-0.0485 0.0438-0.0373 0.12899 0.0208 0.15925 8e-3 4e-3 0.0185 7e-3 0.0287 8e-3 0.0309 4e-3 0.0657-6e-3 0.0873-0.0282 0.0312-0.0312 0.0297-0.10267-2e-3 -0.13512-0.0156-0.0157-0.0411-0.024-0.0668-0.0249zm0.66496 0c-0.0256-7.8e-4 -0.0511 6e-3 -0.0674 0.0204-0.0484 0.0438-0.0374 0.12899 0.0207 0.15925 0.0346 0.0181 0.0873 8e-3 0.11614-0.0196 0.0312-0.0312 0.0298-0.10267-3e-3 -0.13513-0.0157-0.0157-0.041-0.024-0.0667-0.0249zm0.66486 0c-0.0256-7.8e-4 -0.0511 6e-3 -0.0674 0.0204-0.0485 0.0438-0.0373 0.12899 0.0207 0.15925 0.0346 0.0181 0.0871 8e-3 0.11602-0.0196 0.0313-0.0312 0.0297-0.10267-3e-3 -0.13513-0.0157-0.0157-0.041-0.024-0.0666-0.0249zm0.66484 0c-0.0256-7.8e-4 -0.0511 6e-3 -0.0674 0.0204-0.0485 0.0438-0.0374 0.12899 0.0208 0.15925 0.0346 0.0181 0.0871 8e-3 0.11601-0.0196 0.0312-0.0312 0.0298-0.10267-2e-3 -0.13513-0.0157-0.0157-0.0411-0.024-0.0668-0.0249zm0.66496 0c-0.0256-7.8e-4 -0.0511 6e-3 -0.0674 0.0204-0.0485 0.0438-0.0374 0.12899 0.0207 0.15925 0.0346 0.0181 0.0872 8e-3 0.11614-0.0196 0.0312-0.0312 0.0297-0.10267-3e-3 -0.13513-0.0157-0.0157-0.041-0.024-0.0667-0.0249zm0.66485 0c-0.0256-7.8e-4 -0.0511 6e-3 -0.0674 0.0204-0.0485 0.0438-0.0373 0.12899 0.0208 0.15925 0.0346 0.0181 0.0872 8e-3 0.11603-0.0196 0.0313-0.0312 0.0297-0.10267-3e-3 -0.13513-0.0156-0.0157-0.041-0.024-0.0667-0.0249zm0.66485 0c-0.0256-7.8e-4 -0.0511 6e-3 -0.0674 0.0204-0.0484 0.0438-0.0373 0.12899 0.0208 0.15925 0.0346 0.0181 0.0872 8e-3 0.11603-0.0196 0.0312-0.0312 0.0297-0.10267-3e-3 -0.13513-0.0156-0.0157-0.041-0.024-0.0666-0.0249zm0.66495 0c-0.0255-7.8e-4 -0.0511 6e-3 -0.0674 0.0204-0.0485 0.0438-0.0374 0.12899 0.0207 0.15925 0.0346 0.0181 0.0873 8e-3 0.11616-0.0196 0.0312-0.0312 0.0297-0.10267-3e-3 -0.13513-0.0157-0.0157-0.041-0.024-0.0667-0.0249zm0.66485 0c-0.0255-7.8e-4 -0.0511 6e-3 -0.0674 0.0204-0.0485 0.0438-0.0373 0.12899 0.0208 0.15925 0.0346 0.0181 0.0872 8e-3 0.11603-0.0196 0.0313-0.0312 0.0298-0.10267-3e-3 -0.13513-0.0156-0.0157-0.041-0.024-0.0667-0.0249zm0.66484 0c-0.0256-7.8e-4 -0.0511 6e-3 -0.0674 0.0204-0.0485 0.0438-0.0373 0.12899 0.0208 0.15925 0.0346 0.0181 0.0871 8e-3 0.11602-0.0196 0.0312-0.0312 0.0298-0.10267-2e-3 -0.13513-0.0158-0.0157-0.0411-0.024-0.0668-0.0249zm-24.528 0.66483c-0.0255-7.8e-4 -0.0511 6e-3 -0.0674 0.0206-0.0485 0.0439-0.0374 0.12898 0.0207 0.15926h1.2e-4c0.0346 0.0181 0.0872 8e-3 0.11603-0.0197 0.0313-0.0313 0.0298-0.10258-3e-3 -0.13513-0.0156-0.0156-0.041-0.024-0.0667-0.0249zm0.66484 0c-0.0256-7.8e-4 -0.0511 6e-3 -0.0674 0.0206-0.0485 0.0439-0.0373 0.12898 0.0208 0.15926 0.0346 0.0181 0.0871 8e-3 0.11602-0.0197 0.0312-0.0313 0.0297-0.10258-3e-3 -0.13513-0.0159-0.0156-0.041-0.024-0.0667-0.0249zm0.66496 0c-0.0255-7.8e-4 -0.0511 6e-3 -0.0674 0.0206-0.0485 0.0439-0.0374 0.12898 0.0207 0.15926 0.0346 0.0181 0.0872 8e-3 0.11615-0.0197 0.0312-0.0313 0.0298-0.10258-3e-3 -0.13513-0.0156-0.0156-0.0411-0.024-0.0667-0.0249zm0.66485 0c-0.0255-7.8e-4 -0.0511 6e-3 -0.0674 0.0206-0.0485 0.0439-0.0373 0.12898 0.0207 0.15926 0.0346 0.0181 0.0871 8e-3 0.11601-0.0197 0.0312-0.0313 0.0297-0.10258-3e-3 -0.13513-0.0156-0.0156-0.041-0.024-0.0667-0.0249zm0.66485 0c-0.0256-7.8e-4 -0.0511 6e-3 -0.0674 0.0206-0.0485 0.0439-0.0373 0.12898 0.0207 0.15926 0.0346 0.0181 0.0871 8e-3 0.11601-0.0197 0.0312-0.0313 0.0298-0.10258-3e-3 -0.13513-0.0157-0.0156-0.041-0.024-0.0666-0.0249zm0.66496 0c-0.0255-7.8e-4 -0.0511 6e-3 -0.0674 0.0206-0.0485 0.0439-0.0374 0.12898 0.0206 0.15926 0.0346 0.0181 0.0872 8e-3 0.11613-0.0197 0.0313-0.0313 0.0297-0.10258-3e-3 -0.13513-0.0156-0.0156-0.0411-0.024-0.0666-0.0249zm0.66484 0c-0.0255-7.8e-4 -0.0511 6e-3 -0.0674 0.0206-0.0484 0.0439-0.0373 0.12894 0.0206 0.15926h1.2e-4c0.0346 0.0181 0.0871 8e-3 0.11601-0.0197 0.0313-0.0313 0.0296-0.10258-3e-3 -0.13513-0.0156-0.0156-0.0411-0.024-0.0667-0.0249zm0.66485 0c-0.0256-7.8e-4 -0.0511 6e-3 -0.0674 0.0206-0.0485 0.0439-0.0373 0.12898 0.0208 0.15926 0.0346 0.0181 0.0871 8e-3 0.11602-0.0197 0.0312-0.0313 0.0298-0.10258-3e-3 -0.13513-0.0156-0.0156-0.041-0.024-0.0667-0.0249zm0.66496 0c-0.0256-7.8e-4 -0.0511 6e-3 -0.0674 0.0206-0.0485 0.0439-0.0374 0.12898 0.0207 0.15926 0.0346 0.0181 0.0873 8e-3 0.11615-0.0197 0.0312-0.0313 0.0297-0.10258-3e-3 -0.13513-0.0156-0.0156-0.0411-0.024-0.0667-0.0249zm0.66485 0c-0.0256-7.8e-4 -0.0511 6e-3 -0.0674 0.0206-0.0485 0.0439-0.0374 0.12898 0.0207 0.15926h1.1e-4c8e-3 4e-3 0.0183 6e-3 0.0286 8e-3 0.0309 4e-3 0.0659-6e-3 0.0874-0.0282 0.0313-0.0312 0.0297-0.10257-3e-3 -0.13513-0.0157-0.0156-0.0411-0.024-0.0667-0.0249zm0.66484 0c-0.0256-7.8e-4 -0.0511 6e-3 -0.0674 0.0206-0.0484 0.0439-0.0373 0.12898 0.0208 0.15926 0.0346 0.0181 0.0871 8e-3 0.11601-0.0197 0.0312-0.0313 0.0298-0.10258-3e-3 -0.13513-0.0156-0.0156-0.0411-0.024-0.0667-0.0249zm0.66496 0c-0.0255-7.8e-4 -0.0511 6e-3 -0.0674 0.0206-0.0485 0.0439-0.0374 0.12898 0.0207 0.15926 0.0346 0.0181 0.0872 8e-3 0.11615-0.0197 0.0312-0.0313 0.0297-0.10258-3e-3 -0.13513-0.0156-0.0156-0.041-0.024-0.0667-0.0249zm0.66484 0c-0.0255-7.8e-4 -0.0511 6e-3 -0.0674 0.0206-0.0485 0.0439-0.0373 0.12898 0.0208 0.15926 0.0346 0.0181 0.0871 8e-3 0.11603-0.0197 0.0313-0.0313 0.0297-0.10258-3e-3 -0.13513-0.0158-0.0156-0.0411-0.024-0.0667-0.0249zm0.66485 0c-0.0256-7.8e-4 -0.0511 6e-3 -0.0674 0.0206-0.0485 0.0439-0.0373 0.12898 0.0207 0.15926 0.0346 0.0181 0.0871 8e-3 0.11603-0.0197 0.0312-0.0313 0.0296-0.10258-3e-3 -0.13513-0.0156-0.0156-0.0411-0.024-0.0667-0.0249zm0.66496 0c-0.0256-7.8e-4 -0.0511 6e-3 -0.0674 0.0206-0.0485 0.0439-0.0374 0.12898 0.0207 0.15926 0.0346 0.0181 0.0873 8e-3 0.11615-0.0197 0.0312-0.0313 0.0298-0.10258-3e-3 -0.13513-0.0158-0.0156-0.041-0.024-0.0666-0.0249zm0.66485 0c-0.0256-7.8e-4 -0.0511 6e-3 -0.0674 0.0206-0.0484 0.0439-0.0373 0.12894 0.0207 0.15926h1.3e-4c0.0346 0.0181 0.0872 8e-3 0.11601-0.0197 0.0313-0.0313 0.0298-0.10258-3e-3 -0.13513-0.0156-0.0156-0.041-0.024-0.0667-0.0249zm0.66483 0c-0.0255-7.8e-4 -0.0511 6e-3 -0.0674 0.0206-0.0485 0.0439-0.0373 0.12898 0.0208 0.15926 0.0346 0.0181 0.0871 8e-3 0.11604-0.0197 0.0312-0.0313 0.0297-0.10258-3e-3 -0.13513-0.0158-0.0156-0.041-0.024-0.0666-0.0249zm0.66497 0c-0.0256-7.8e-4 -0.0511 6e-3 -0.0674 0.0206-0.0485 0.0439-0.0374 0.12898 0.0207 0.15926 0.0346 0.0181 0.0873 8e-3 0.11616-0.0197 0.0312-0.0313 0.0297-0.10258-3e-3 -0.13513-0.0158-0.0156-0.041-0.024-0.0667-0.0249zm0.66484 0c-0.0256-7.8e-4 -0.0511 6e-3 -0.0674 0.0206-0.0485 0.0439-0.0373 0.12898 0.0207 0.15926 0.0346 0.0181 0.0871 8e-3 0.11603-0.0197 0.0312-0.0313 0.0297-0.10258-3e-3 -0.13513-0.0158-0.0156-0.041-0.024-0.0667-0.0249zm0.5923 0c-0.0256-7.8e-4 -0.0511 6e-3 -0.0674 0.0206-0.0485 0.0439-0.0373 0.12898 0.0208 0.15926 0.0346 0.0181 0.0871 8e-3 0.11602-0.0197 0.0312-0.0313 0.0298-0.10258-2e-3 -0.13513-0.0157-0.0156-0.0411-0.024-0.0667-0.0249zm0.66494 0c-0.0256-7.8e-4 -0.0511 6e-3 -0.0674 0.0206-0.0485 0.0439-0.0374 0.12898 0.0207 0.15926 0.0346 0.0181 0.0872 8e-3 0.11615-0.0197 0.0312-0.0313 0.0296-0.10258-3e-3 -0.13513-0.0157-0.0156-0.041-0.024-0.0666-0.0249zm0.66485 0c-0.0256-7.8e-4 -0.0511 6e-3 -0.0674 0.0206-0.0485 0.0439-0.0373 0.12898 0.0208 0.15926 0.0346 0.0181 0.0871 8e-3 0.11602-0.0197 0.0313-0.0313 0.0296-0.10258-3e-3 -0.13513-0.0157-0.0156-0.041-0.024-0.0666-0.0249zm0.66485 0c-0.0256-7.8e-4 -0.0511 6e-3 -0.0674 0.0206-0.0485 0.0439-0.0374 0.12898 0.0208 0.15926 0.0346 0.0181 0.0872 8e-3 0.11602-0.0197 0.0312-0.0313 0.0297-0.10258-2e-3 -0.13513-0.0158-0.0156-0.0412-0.024-0.0668-0.0249zm0.66496 0c-0.0255-7.8e-4 -0.0511 6e-3 -0.0674 0.0206-0.0485 0.0439-0.0374 0.12898 0.0207 0.15926 0.0346 0.0181 0.0873 8e-3 0.11614-0.0197 0.0312-0.0313 0.0298-0.10258-3e-3 -0.13513-0.0158-0.0156-0.0411-0.024-0.0667-0.0249zm0.66484 0c-0.0256-7.8e-4 -0.0511 6e-3 -0.0674 0.0206-0.0485 0.0439-0.0374 0.12898 0.0208 0.15926 0.0346 0.0181 0.0872 8e-3 0.11601-0.0197 0.0313-0.0313 0.0297-0.10258-3e-3 -0.13513-0.0159-0.0156-0.0411-0.024-0.0667-0.0249zm0.66485 0c-0.0256-7.8e-4 -0.0511 6e-3 -0.0674 0.0206-0.0485 0.0439-0.0373 0.12898 0.0207 0.15926 0.0346 0.0181 0.0871 8e-3 0.11603-0.0197 0.0312-0.0313 0.0297-0.10258-3e-3 -0.13513-0.0157-0.0156-0.041-0.024-0.0667-0.0249zm0.66496 0c-0.0255-7.8e-4 -0.0511 6e-3 -0.0674 0.0206-0.0485 0.0439-0.0374 0.12898 0.0206 0.15926 0.0346 0.0181 0.0873 8e-3 0.11614-0.0197 0.0313-0.0313 0.0298-0.10258-3e-3 -0.13513-0.0156-0.0156-0.041-0.024-0.0667-0.0249zm0.66484 0c-0.0255-7.8e-4 -0.0511 6e-3 -0.0674 0.0206-0.0485 0.0439-0.0373 0.12898 0.0208 0.15926 0.0346 0.0181 0.0872 8e-3 0.11602-0.0197 0.0313-0.0313 0.0297-0.10258-3e-3 -0.13513-0.0158-0.0156-0.041-0.024-0.0667-0.0249zm0.66484 0c-0.0256-7.8e-4 -0.0511 6e-3 -0.0674 0.0206-0.0485 0.0439-0.0373 0.12898 0.0208 0.15926 8e-3 4e-3 0.0185 6e-3 0.0287 8e-3 0.0309 4e-3 0.0657-6e-3 0.0873-0.0282 0.0312-0.0312 0.0297-0.10257-2e-3 -0.13513-0.0156-0.0156-0.0411-0.024-0.0668-0.0249zm0.66496 0c-0.0256-7.8e-4 -0.0511 6e-3 -0.0674 0.0206-0.0484 0.0439-0.0374 0.12898 0.0207 0.15926 0.0346 0.0181 0.0873 8e-3 0.11614-0.0197 0.0312-0.0313 0.0298-0.10258-3e-3 -0.13513-0.0157-0.0156-0.041-0.024-0.0667-0.0249zm0.66486 0c-0.0256-7.8e-4 -0.0511 6e-3 -0.0674 0.0206-0.0485 0.0439-0.0373 0.12898 0.0207 0.15926 0.0346 0.0181 0.0871 8e-3 0.11602-0.0197 0.0313-0.0313 0.0297-0.10258-3e-3 -0.13513-0.0157-0.0156-0.041-0.024-0.0666-0.0249zm0.66484 0c-0.0256-7.8e-4 -0.0511 6e-3 -0.0674 0.0206-0.0485 0.0439-0.0374 0.12898 0.0208 0.15926 0.0346 0.0181 0.0871 8e-3 0.11601-0.0197 0.0312-0.0313 0.0298-0.10258-2e-3 -0.13513-0.0157-0.0156-0.0411-0.024-0.0668-0.0249zm0.66496 0c-0.0256-7.8e-4 -0.0511 6e-3 -0.0674 0.0206-0.0485 0.0439-0.0374 0.12898 0.0207 0.15926 0.0346 0.0181 0.0872 8e-3 0.11614-0.0197 0.0312-0.0313 0.0297-0.10258-3e-3 -0.13513-0.0157-0.0156-0.041-0.024-0.0667-0.0249zm0.66485 0c-0.0256-7.8e-4 -0.0511 6e-3 -0.0674 0.0206-0.0485 0.0439-0.0373 0.12898 0.0208 0.15926 0.0346 0.0181 0.0872 8e-3 0.11603-0.0197 0.0313-0.0313 0.0297-0.10258-3e-3 -0.13513-0.0156-0.0156-0.041-0.024-0.0667-0.0249zm0.66485 0c-0.0256-7.8e-4 -0.0511 6e-3 -0.0674 0.0206-0.0484 0.0439-0.0373 0.12898 0.0208 0.15926 0.0346 0.0181 0.0872 8e-3 0.11603-0.0197 0.0312-0.0313 0.0297-0.10258-3e-3 -0.13513-0.0156-0.0156-0.041-0.024-0.0666-0.0249zm0.66495 0c-0.0255-7.8e-4 -0.0511 6e-3 -0.0674 0.0206-0.0485 0.0439-0.0374 0.12898 0.0207 0.15926 0.0346 0.0181 0.0873 8e-3 0.11616-0.0197 0.0312-0.0313 0.0297-0.10258-3e-3 -0.13513-0.0157-0.0156-0.041-0.024-0.0667-0.0249zm0.66485 0c-0.0255-7.8e-4 -0.0511 6e-3 -0.0674 0.0206-0.0485 0.0439-0.0373 0.12898 0.0208 0.15926 0.0346 0.0181 0.0872 8e-3 0.11603-0.0197 0.0313-0.0313 0.0298-0.10258-3e-3 -0.13513-0.0156-0.0156-0.041-0.024-0.0667-0.0249zm0.66484 0c-0.0256-7.8e-4 -0.0511 6e-3 -0.0674 0.0206-0.0485 0.0439-0.0373 0.12898 0.0208 0.15926 0.0346 0.0181 0.0871 8e-3 0.11602-0.0197 0.0312-0.0313 0.0298-0.10258-2e-3 -0.13513-0.0158-0.0156-0.0411-0.024-0.0668-0.0249zm-24.528 0.66497c-0.0255-7.8e-4 -0.0511 6e-3 -0.0674 0.0204-0.0485 0.0438-0.0374 0.12899 0.0207 0.15924h1.2e-4c0.0346 0.0181 0.0872 8e-3 0.11603-0.0197 0.0313-0.0312 0.0298-0.10247-3e-3 -0.13501-0.0156-0.0156-0.041-0.024-0.0667-0.0249zm0.66484 0c-0.0256-7.8e-4 -0.0511 6e-3 -0.0674 0.0204-0.0485 0.0438-0.0373 0.12899 0.0208 0.15924 0.0346 0.0181 0.0871 8e-3 0.11602-0.0197 0.0312-0.0312 0.0297-0.10247-3e-3 -0.13501-0.0159-0.0156-0.041-0.024-0.0667-0.0249zm0.66496 0c-0.0255-7.8e-4 -0.0511 6e-3 -0.0674 0.0204-0.0485 0.0438-0.0374 0.12899 0.0207 0.15924 0.0346 0.0181 0.0872 8e-3 0.11615-0.0197 0.0312-0.0312 0.0298-0.10247-3e-3 -0.13501-0.0156-0.0156-0.0411-0.024-0.0667-0.0249zm0.66485 0c-0.0255-7.8e-4 -0.0511 6e-3 -0.0674 0.0204-0.0485 0.0438-0.0373 0.12899 0.0207 0.15924 0.0346 0.0181 0.0871 8e-3 0.11601-0.0197 0.0312-0.0312 0.0297-0.10247-3e-3 -0.13501-0.0156-0.0156-0.041-0.024-0.0667-0.0249zm0.66485 0c-0.0256-7.8e-4 -0.0511 6e-3 -0.0674 0.0204-0.0485 0.0438-0.0373 0.12899 0.0207 0.15924 0.0346 0.0181 0.0871 8e-3 0.11601-0.0197 0.0312-0.0312 0.0298-0.10247-3e-3 -0.13501-0.0157-0.0156-0.041-0.024-0.0666-0.0249zm0.66496 0c-0.0255-7.8e-4 -0.0511 6e-3 -0.0674 0.0204-0.0485 0.0438-0.0374 0.12899 0.0206 0.15924 0.0346 0.0181 0.0872 8e-3 0.11613-0.0197 0.0313-0.0312 0.0297-0.10247-3e-3 -0.13501-0.0156-0.0156-0.0411-0.024-0.0666-0.0249zm0.66484 0c-0.0255-7.8e-4 -0.0511 6e-3 -0.0674 0.0204-0.0484 0.0438-0.0373 0.12895 0.0206 0.15924h1.2e-4c0.0346 0.0179 0.0871 8e-3 0.11601-0.0197 0.0313-0.0312 0.0296-0.10247-3e-3 -0.13501-0.0156-0.0156-0.0411-0.024-0.0667-0.0249zm0.66485 0c-0.0256-7.8e-4 -0.0511 6e-3 -0.0674 0.0204-0.0485 0.0438-0.0373 0.12899 0.0208 0.15924 0.0346 0.0181 0.0871 8e-3 0.11602-0.0197 0.0312-0.0312 0.0298-0.10247-3e-3 -0.13501-0.0156-0.0156-0.041-0.024-0.0667-0.0249zm0.66496 0c-0.0256-7.8e-4 -0.0511 6e-3 -0.0674 0.0204-0.0485 0.0438-0.0374 0.12899 0.0207 0.15924 0.0346 0.0181 0.0873 8e-3 0.11615-0.0197 0.0312-0.0312 0.0297-0.10247-3e-3 -0.13501-0.0156-0.0156-0.0411-0.024-0.0667-0.0249zm0.66485 0c-0.0256-7.8e-4 -0.0511 6e-3 -0.0674 0.0204-0.0485 0.0438-0.0374 0.12899 0.0207 0.15924h1.1e-4c8e-3 4e-3 0.0183 7e-3 0.0286 8e-3 0.0309 4e-3 0.0659-6e-3 0.0874-0.0283 0.0313-0.0313 0.0297-0.10247-3e-3 -0.13502-0.0157-0.0159-0.0411-0.024-0.0667-0.0251zm0.66484 0c-0.0256-7.8e-4 -0.0511 6e-3 -0.0674 0.0204-0.0484 0.0438-0.0373 0.12899 0.0208 0.15924 0.0346 0.0181 0.0871 8e-3 0.11601-0.0197 0.0312-0.0312 0.0298-0.10247-3e-3 -0.13501-0.0156-0.0156-0.0411-0.024-0.0667-0.0249zm0.66496 0c-0.0255-7.8e-4 -0.0511 6e-3 -0.0674 0.0204-0.0485 0.0438-0.0374 0.12899 0.0207 0.15924 0.0346 0.0181 0.0872 8e-3 0.11615-0.0197 0.0312-0.0312 0.0297-0.10247-3e-3 -0.13501-0.0156-0.0156-0.041-0.024-0.0667-0.0249zm0.66484 0c-0.0255-7.8e-4 -0.0511 6e-3 -0.0674 0.0204-0.0485 0.0438-0.0373 0.12899 0.0208 0.15924 0.0346 0.0181 0.0871 8e-3 0.11603-0.0197 0.0313-0.0312 0.0297-0.10247-3e-3 -0.13501-0.0158-0.0156-0.0411-0.024-0.0667-0.0249zm0.66485 0c-0.0256-7.8e-4 -0.0511 6e-3 -0.0674 0.0204-0.0485 0.0438-0.0373 0.12899 0.0207 0.15924 0.0346 0.0181 0.0871 8e-3 0.11603-0.0197 0.0312-0.0312 0.0296-0.10247-3e-3 -0.13501-0.0156-0.0156-0.0411-0.024-0.0667-0.0249zm0.66496 0c-0.0256-7.8e-4 -0.0511 6e-3 -0.0674 0.0204-0.0485 0.0438-0.0374 0.12899 0.0207 0.15924 0.0346 0.0181 0.0873 8e-3 0.11615-0.0197 0.0312-0.0312 0.0298-0.10247-3e-3 -0.13501-0.0158-0.0156-0.041-0.024-0.0666-0.0249zm0.66485 0c-0.0256-7.8e-4 -0.0511 6e-3 -0.0674 0.0204-0.0484 0.0438-0.0373 0.12895 0.0207 0.15924h1.3e-4c0.0346 0.0179 0.0872 8e-3 0.11601-0.0197 0.0313-0.0312 0.0298-0.10247-3e-3 -0.13501-0.0156-0.0156-0.041-0.024-0.0667-0.0249zm0.66483 0c-0.0255-7.8e-4 -0.0511 6e-3 -0.0674 0.0204-0.0485 0.0438-0.0373 0.12899 0.0208 0.15924 0.0346 0.0181 0.0871 8e-3 0.11604-0.0197 0.0312-0.0312 0.0297-0.10247-3e-3 -0.13501-0.0158-0.0156-0.041-0.024-0.0666-0.0249zm0.66497 0c-0.0256-7.8e-4 -0.0511 6e-3 -0.0674 0.0204-0.0485 0.0438-0.0374 0.12899 0.0207 0.15924 0.0346 0.0181 0.0873 8e-3 0.11616-0.0197 0.0312-0.0312 0.0297-0.10247-3e-3 -0.13501-0.0158-0.0156-0.041-0.024-0.0667-0.0249zm0.66484 0c-0.0256-7.8e-4 -0.0511 6e-3 -0.0674 0.0204-0.0485 0.0438-0.0373 0.12899 0.0207 0.15924 0.0346 0.0181 0.0871 8e-3 0.11603-0.0197 0.0312-0.0312 0.0297-0.10247-3e-3 -0.13501-0.0158-0.0156-0.041-0.024-0.0667-0.0249zm0.5923 0c-0.0256-7.8e-4 -0.0511 6e-3 -0.0674 0.0204-0.0485 0.0438-0.0373 0.12899 0.0208 0.15924 0.0346 0.0181 0.0871 8e-3 0.11602-0.0197 0.0312-0.0312 0.0298-0.10247-2e-3 -0.13501-0.0157-0.0156-0.0411-0.024-0.0667-0.0249zm0.66494 0c-0.0256-7.8e-4 -0.0511 6e-3 -0.0674 0.0204-0.0485 0.0438-0.0374 0.12899 0.0207 0.15924 0.0346 0.0181 0.0872 8e-3 0.11615-0.0197 0.0312-0.0312 0.0296-0.10247-3e-3 -0.13501-0.0157-0.0156-0.041-0.024-0.0666-0.0249zm0.66485 0c-0.0256-7.8e-4 -0.0511 6e-3 -0.0674 0.0204-0.0485 0.0438-0.0373 0.12899 0.0208 0.15924 0.0346 0.0181 0.0871 8e-3 0.11602-0.0197 0.0313-0.0312 0.0296-0.10247-3e-3 -0.13501-0.0157-0.0156-0.041-0.024-0.0666-0.0249zm0.66485 0c-0.0256-7.8e-4 -0.0511 6e-3 -0.0674 0.0204-0.0485 0.0438-0.0374 0.12899 0.0208 0.15924 0.0346 0.0181 0.0872 8e-3 0.11602-0.0197 0.0312-0.0312 0.0297-0.10247-2e-3 -0.13501-0.0158-0.0156-0.0412-0.024-0.0668-0.0249zm0.66496 0c-0.0255-7.8e-4 -0.0511 6e-3 -0.0674 0.0204-0.0485 0.0438-0.0374 0.12899 0.0207 0.15924 0.0346 0.0181 0.0873 8e-3 0.11614-0.0197 0.0312-0.0312 0.0298-0.10247-3e-3 -0.13501-0.0158-0.0156-0.0411-0.024-0.0667-0.0249zm0.66484 0c-0.0256-7.8e-4 -0.0511 6e-3 -0.0674 0.0204-0.0485 0.0438-0.0374 0.12899 0.0208 0.15924 0.0346 0.0181 0.0872 8e-3 0.11601-0.0197 0.0313-0.0312 0.0297-0.10247-3e-3 -0.13501-0.0159-0.0156-0.0411-0.024-0.0667-0.0249zm0.66485 0c-0.0256-7.8e-4 -0.0511 6e-3 -0.0674 0.0204-0.0485 0.0438-0.0373 0.12899 0.0207 0.15924 0.0346 0.0181 0.0871 8e-3 0.11603-0.0197 0.0312-0.0312 0.0297-0.10247-3e-3 -0.13501-0.0157-0.0156-0.041-0.024-0.0667-0.0249zm0.66496 0c-0.0255-7.8e-4 -0.0511 6e-3 -0.0674 0.0204-0.0485 0.0438-0.0374 0.12899 0.0206 0.15924 0.0346 0.0181 0.0873 8e-3 0.11614-0.0197 0.0313-0.0312 0.0298-0.10247-3e-3 -0.13501-0.0156-0.0156-0.041-0.024-0.0667-0.0249zm0.66484 0c-0.0255-7.8e-4 -0.0511 6e-3 -0.0674 0.0204-0.0485 0.0438-0.0373 0.12899 0.0208 0.15924 0.0346 0.0181 0.0872 8e-3 0.11602-0.0197 0.0313-0.0312 0.0297-0.10247-3e-3 -0.13501-0.0158-0.0156-0.041-0.024-0.0667-0.0249zm0.66484 0c-0.0256-7.8e-4 -0.0511 6e-3 -0.0674 0.0204-0.0485 0.0438-0.0373 0.12899 0.0208 0.15924 8e-3 4e-3 0.0185 7e-3 0.0287 8e-3 0.0309 4e-3 0.0657-6e-3 0.0873-0.0283 0.0312-0.0313 0.0297-0.10247-2e-3 -0.13502-0.0156-0.0159-0.0411-0.024-0.0668-0.0251zm0.66496 0c-0.0256-7.8e-4 -0.0511 6e-3 -0.0674 0.0204-0.0484 0.0438-0.0374 0.12899 0.0207 0.15924 0.0346 0.0181 0.0873 8e-3 0.11614-0.0197 0.0312-0.0312 0.0298-0.10247-3e-3 -0.13501-0.0157-0.0156-0.041-0.024-0.0667-0.0249zm0.66486 0c-0.0256-7.8e-4 -0.0511 6e-3 -0.0674 0.0204-0.0485 0.0438-0.0373 0.12899 0.0207 0.15924 0.0346 0.0181 0.0871 8e-3 0.11602-0.0197 0.0313-0.0312 0.0297-0.10247-3e-3 -0.13501-0.0157-0.0156-0.041-0.024-0.0666-0.0249zm0.66484 0c-0.0256-7.8e-4 -0.0511 6e-3 -0.0674 0.0204-0.0485 0.0438-0.0374 0.12899 0.0208 0.15924 0.0346 0.0181 0.0871 8e-3 0.11601-0.0197 0.0312-0.0312 0.0298-0.10247-2e-3 -0.13501-0.0157-0.0156-0.0411-0.024-0.0668-0.0249zm0.66496 0c-0.0256-7.8e-4 -0.0511 6e-3 -0.0674 0.0204-0.0485 0.0438-0.0374 0.12899 0.0207 0.15924 0.0346 0.0181 0.0872 8e-3 0.11614-0.0197 0.0312-0.0312 0.0297-0.10247-3e-3 -0.13501-0.0157-0.0156-0.041-0.024-0.0667-0.0249zm0.66485 0c-0.0256-7.8e-4 -0.0511 6e-3 -0.0674 0.0204-0.0485 0.0438-0.0373 0.12899 0.0208 0.15924 0.0346 0.0181 0.0872 8e-3 0.11603-0.0197 0.0313-0.0312 0.0297-0.10247-3e-3 -0.13501-0.0156-0.0156-0.041-0.024-0.0667-0.0249zm0.66485 0c-0.0256-7.8e-4 -0.0511 6e-3 -0.0674 0.0204-0.0484 0.0438-0.0373 0.12899 0.0208 0.15924 0.0346 0.0181 0.0872 8e-3 0.11603-0.0197 0.0312-0.0312 0.0297-0.10247-3e-3 -0.13501-0.0156-0.0156-0.041-0.024-0.0666-0.0249zm0.66495 0c-0.0255-7.8e-4 -0.0511 6e-3 -0.0674 0.0204-0.0485 0.0438-0.0374 0.12899 0.0207 0.15924 0.0346 0.0181 0.0873 8e-3 0.11616-0.0197 0.0312-0.0312 0.0297-0.10247-3e-3 -0.13501-0.0157-0.0156-0.041-0.024-0.0667-0.0249zm0.66485 0c-0.0255-7.8e-4 -0.0511 6e-3 -0.0674 0.0204-0.0485 0.0438-0.0373 0.12899 0.0208 0.15924 0.0346 0.0181 0.0872 8e-3 0.11603-0.0197 0.0313-0.0312 0.0298-0.10247-3e-3 -0.13501-0.0156-0.0156-0.041-0.024-0.0667-0.0249zm0.66484 0c-0.0256-7.8e-4 -0.0511 6e-3 -0.0674 0.0204-0.0485 0.0438-0.0373 0.12899 0.0208 0.15924 0.0346 0.0181 0.0871 8e-3 0.11602-0.0197 0.0312-0.0312 0.0298-0.10247-2e-3 -0.13501-0.0158-0.0156-0.0411-0.024-0.0668-0.0249zm-24.528 0.66484c-0.0255-7.7e-4 -0.0511 6e-3 -0.0674 0.0204-0.0485 0.0438-0.0374 0.12898 0.0207 0.15923h1.2e-4c0.0346 0.0181 0.0872 8e-3 0.11603-0.0196 0.0313-0.0312 0.0298-0.10267-3e-3 -0.13514-0.0156-0.0156-0.041-0.024-0.0667-0.0249zm0.66484 0c-0.0256-7.7e-4 -0.0511 6e-3 -0.0674 0.0204-0.0485 0.0438-0.0373 0.12898 0.0208 0.15923 0.0346 0.0181 0.0871 8e-3 0.11602-0.0196 0.0312-0.0312 0.0297-0.10267-3e-3 -0.13514-0.0159-0.0156-0.041-0.024-0.0667-0.0249zm0.66496 0c-0.0255-7.7e-4 -0.0511 6e-3 -0.0674 0.0204-0.0485 0.0438-0.0374 0.12898 0.0207 0.15923 0.0346 0.0181 0.0872 8e-3 0.11615-0.0196 0.0312-0.0312 0.0298-0.10267-3e-3 -0.13514-0.0156-0.0156-0.0411-0.024-0.0667-0.0249zm0.66485 0c-0.0255-7.7e-4 -0.0511 6e-3 -0.0674 0.0204-0.0485 0.0438-0.0373 0.12898 0.0207 0.15923 0.0346 0.0181 0.0871 8e-3 0.11601-0.0196 0.0312-0.0312 0.0297-0.10267-3e-3 -0.13514-0.0156-0.0156-0.041-0.024-0.0667-0.0249zm0.66485 0c-0.0256-7.7e-4 -0.0511 6e-3 -0.0674 0.0204-0.0485 0.0438-0.0373 0.12898 0.0207 0.15923 0.0346 0.0181 0.0871 8e-3 0.11601-0.0196 0.0312-0.0312 0.0298-0.10267-3e-3 -0.13514-0.0157-0.0156-0.041-0.024-0.0666-0.0249zm0.66496 0c-0.0255-7.7e-4 -0.0511 6e-3 -0.0674 0.0204-0.0485 0.0438-0.0374 0.12898 0.0206 0.15923 0.0346 0.0181 0.0872 8e-3 0.11613-0.0196 0.0313-0.0312 0.0297-0.10267-3e-3 -0.13514-0.0156-0.0156-0.0411-0.024-0.0666-0.0249zm0.66484 0c-0.0255-7.7e-4 -0.0511 6e-3 -0.0674 0.0204-0.0484 0.0438-0.0373 0.12895 0.0206 0.15923h1.2e-4c0.0346 0.0181 0.0871 8e-3 0.11601-0.0196 0.0313-0.0312 0.0296-0.10267-3e-3 -0.13514-0.0156-0.0156-0.0411-0.024-0.0667-0.0249zm0.66485 0c-0.0256-7.7e-4 -0.0511 6e-3 -0.0674 0.0204-0.0485 0.0438-0.0373 0.12898 0.0208 0.15923 0.0346 0.0181 0.0871 8e-3 0.11602-0.0196 0.0312-0.0312 0.0298-0.10267-3e-3 -0.13514-0.0156-0.0156-0.041-0.024-0.0667-0.0249zm0.66496 0c-0.0256-7.7e-4 -0.0511 6e-3 -0.0674 0.0204-0.0485 0.0438-0.0374 0.12898 0.0207 0.15923 0.0346 0.0181 0.0873 8e-3 0.11615-0.0196 0.0312-0.0312 0.0297-0.10267-3e-3 -0.13514-0.0156-0.0156-0.0411-0.024-0.0667-0.0249zm0.66485 0c-0.0256-7.7e-4 -0.0511 6e-3 -0.0674 0.0204-0.0485 0.0438-0.0374 0.12898 0.0207 0.15923h1.1e-4c8e-3 4e-3 0.0183 7e-3 0.0286 8e-3 0.0309 4e-3 0.0659-6e-3 0.0874-0.0282 0.0313-0.0312 0.0297-0.10257-3e-3 -0.13514-0.0157-0.0156-0.0411-0.024-0.0667-0.025zm0.66484 0c-0.0256-7.7e-4 -0.0511 6e-3 -0.0674 0.0204-0.0484 0.0438-0.0373 0.12898 0.0208 0.15923 0.0346 0.0181 0.0871 8e-3 0.11601-0.0196 0.0312-0.0312 0.0298-0.10267-3e-3 -0.13514-0.0156-0.0156-0.0411-0.024-0.0667-0.0249zm0.66496 0c-0.0255-7.7e-4 -0.0511 6e-3 -0.0674 0.0204-0.0485 0.0438-0.0374 0.12898 0.0207 0.15923 0.0346 0.0181 0.0872 8e-3 0.11615-0.0196 0.0312-0.0312 0.0297-0.10267-3e-3 -0.13514-0.0156-0.0156-0.041-0.024-0.0667-0.0249zm0.66484 0c-0.0255-7.7e-4 -0.0511 6e-3 -0.0674 0.0204-0.0485 0.0438-0.0373 0.12898 0.0208 0.15923 0.0346 0.0181 0.0871 8e-3 0.11603-0.0196 0.0313-0.0312 0.0297-0.10267-3e-3 -0.13514-0.0158-0.0156-0.0411-0.024-0.0667-0.0249zm0.66485 0c-0.0256-7.7e-4 -0.0511 6e-3 -0.0674 0.0204-0.0485 0.0438-0.0373 0.12898 0.0207 0.15923 0.0346 0.0181 0.0871 8e-3 0.11603-0.0196 0.0312-0.0312 0.0296-0.10267-3e-3 -0.13514-0.0156-0.0156-0.0411-0.024-0.0667-0.0249zm0.66496 0c-0.0256-7.7e-4 -0.0511 6e-3 -0.0674 0.0204-0.0485 0.0438-0.0374 0.12898 0.0207 0.15923 0.0346 0.0181 0.0873 8e-3 0.11615-0.0196 0.0312-0.0312 0.0298-0.10267-3e-3 -0.13514-0.0158-0.0156-0.041-0.024-0.0666-0.0249zm0.66485 0c-0.0256-7.7e-4 -0.0511 6e-3 -0.0674 0.0204-0.0484 0.0438-0.0373 0.12895 0.0207 0.15923h1.3e-4c0.0346 0.0181 0.0872 8e-3 0.11601-0.0196 0.0313-0.0312 0.0298-0.10267-3e-3 -0.13514-0.0156-0.0156-0.041-0.024-0.0667-0.0249zm0.66483 0c-0.0255-7.7e-4 -0.0511 6e-3 -0.0674 0.0204-0.0485 0.0438-0.0373 0.12898 0.0208 0.15923 0.0346 0.0181 0.0871 8e-3 0.11604-0.0196 0.0312-0.0312 0.0297-0.10267-3e-3 -0.13514-0.0158-0.0156-0.041-0.024-0.0666-0.0249zm0.66497 0c-0.0256-7.7e-4 -0.0511 6e-3 -0.0674 0.0204-0.0485 0.0438-0.0374 0.12898 0.0207 0.15923 0.0346 0.0181 0.0873 8e-3 0.11616-0.0196 0.0312-0.0312 0.0297-0.10267-3e-3 -0.13514-0.0158-0.0156-0.041-0.024-0.0667-0.0249zm0.66484 0c-0.0256-7.7e-4 -0.0511 6e-3 -0.0674 0.0204-0.0485 0.0438-0.0373 0.12898 0.0207 0.15923 0.0346 0.0181 0.0871 8e-3 0.11603-0.0196 0.0312-0.0312 0.0297-0.10267-3e-3 -0.13514-0.0158-0.0156-0.041-0.024-0.0667-0.0249zm0.5923 0c-0.0256-7.7e-4 -0.0511 6e-3 -0.0674 0.0204-0.0485 0.0438-0.0373 0.12898 0.0208 0.15923 0.0346 0.0181 0.0871 8e-3 0.11602-0.0196 0.0312-0.0312 0.0298-0.10267-2e-3 -0.13514-0.0157-0.0156-0.0411-0.024-0.0667-0.0249zm0.66494 0c-0.0256-7.7e-4 -0.0511 6e-3 -0.0674 0.0204-0.0485 0.0438-0.0374 0.12898 0.0207 0.15923 0.0346 0.0181 0.0872 8e-3 0.11615-0.0196 0.0312-0.0312 0.0296-0.10267-3e-3 -0.13514-0.0157-0.0156-0.041-0.024-0.0666-0.0249zm0.66485 0c-0.0256-7.7e-4 -0.0511 6e-3 -0.0674 0.0204-0.0485 0.0438-0.0373 0.12898 0.0208 0.15923 0.0346 0.0181 0.0871 8e-3 0.11602-0.0196 0.0313-0.0312 0.0296-0.10267-3e-3 -0.13514-0.0157-0.0156-0.041-0.024-0.0666-0.0249zm0.66485 0c-0.0256-7.7e-4 -0.0511 6e-3 -0.0674 0.0204-0.0485 0.0438-0.0374 0.12898 0.0208 0.15923 0.0346 0.0181 0.0872 8e-3 0.11602-0.0196 0.0312-0.0312 0.0297-0.10267-2e-3 -0.13514-0.0158-0.0156-0.0412-0.024-0.0668-0.0249zm0.66496 0c-0.0255-7.7e-4 -0.0511 6e-3 -0.0674 0.0204-0.0485 0.0438-0.0374 0.12898 0.0207 0.15923 0.0346 0.0181 0.0873 8e-3 0.11614-0.0196 0.0312-0.0312 0.0298-0.10267-3e-3 -0.13514-0.0158-0.0156-0.0411-0.024-0.0667-0.0249zm0.66484 0c-0.0256-7.7e-4 -0.0511 6e-3 -0.0674 0.0204-0.0485 0.0438-0.0374 0.12898 0.0208 0.15923 0.0346 0.0181 0.0872 8e-3 0.11601-0.0196 0.0313-0.0312 0.0297-0.10267-3e-3 -0.13514-0.0159-0.0156-0.0411-0.024-0.0667-0.0249zm0.66485 0c-0.0256-7.7e-4 -0.0511 6e-3 -0.0674 0.0204-0.0485 0.0438-0.0373 0.12898 0.0207 0.15923 0.0346 0.0181 0.0871 8e-3 0.11603-0.0196 0.0312-0.0312 0.0297-0.10267-3e-3 -0.13514-0.0157-0.0156-0.041-0.024-0.0667-0.0249zm0.66496 0c-0.0255-7.7e-4 -0.0511 6e-3 -0.0674 0.0204-0.0485 0.0438-0.0374 0.12898 0.0206 0.15923 0.0346 0.0181 0.0873 8e-3 0.11614-0.0196 0.0313-0.0312 0.0298-0.10267-3e-3 -0.13514-0.0156-0.0156-0.041-0.024-0.0667-0.0249zm0.66484 0c-0.0255-7.7e-4 -0.0511 6e-3 -0.0674 0.0204-0.0485 0.0438-0.0373 0.12898 0.0208 0.15923 0.0346 0.0181 0.0872 8e-3 0.11602-0.0196 0.0313-0.0312 0.0297-0.10267-3e-3 -0.13514-0.0158-0.0156-0.041-0.024-0.0667-0.0249zm0.66484 0c-0.0256-7.7e-4 -0.0511 6e-3 -0.0674 0.0204-0.0485 0.0438-0.0373 0.12898 0.0208 0.15923 8e-3 4e-3 0.0185 7e-3 0.0287 8e-3 0.0309 4e-3 0.0657-6e-3 0.0873-0.0282 0.0312-0.0312 0.0297-0.10257-2e-3 -0.13514-0.0156-0.0156-0.0411-0.024-0.0668-0.025zm0.66496 0c-0.0256-7.7e-4 -0.0511 6e-3 -0.0674 0.0204-0.0484 0.0438-0.0374 0.12898 0.0207 0.15923 0.0346 0.0181 0.0873 8e-3 0.11614-0.0196 0.0312-0.0312 0.0298-0.10267-3e-3 -0.13514-0.0157-0.0156-0.041-0.024-0.0667-0.0249zm0.66486 0c-0.0256-7.7e-4 -0.0511 6e-3 -0.0674 0.0204-0.0485 0.0438-0.0373 0.12898 0.0207 0.15923 0.0346 0.0181 0.0871 8e-3 0.11602-0.0196 0.0313-0.0312 0.0297-0.10267-3e-3 -0.13514-0.0157-0.0156-0.041-0.024-0.0666-0.0249zm0.66484 0c-0.0256-7.7e-4 -0.0511 6e-3 -0.0674 0.0204-0.0485 0.0438-0.0374 0.12898 0.0208 0.15923 0.0346 0.0181 0.0871 8e-3 0.11601-0.0196 0.0312-0.0312 0.0298-0.10267-2e-3 -0.13514-0.0157-0.0156-0.0411-0.024-0.0668-0.0249zm0.66496 0c-0.0256-7.7e-4 -0.0511 6e-3 -0.0674 0.0204-0.0485 0.0438-0.0374 0.12898 0.0207 0.15923 0.0346 0.0181 0.0872 8e-3 0.11614-0.0196 0.0312-0.0312 0.0297-0.10267-3e-3 -0.13514-0.0157-0.0156-0.041-0.024-0.0667-0.0249zm0.66485 0c-0.0256-7.7e-4 -0.0511 6e-3 -0.0674 0.0204-0.0485 0.0438-0.0373 0.12898 0.0208 0.15923 0.0346 0.0181 0.0872 8e-3 0.11603-0.0196 0.0313-0.0312 0.0297-0.10267-3e-3 -0.13514-0.0156-0.0156-0.041-0.024-0.0667-0.0249zm0.66485 0c-0.0256-7.7e-4 -0.0511 6e-3 -0.0674 0.0204-0.0484 0.0438-0.0373 0.12898 0.0208 0.15923 0.0346 0.0181 0.0872 8e-3 0.11603-0.0196 0.0312-0.0312 0.0297-0.10267-3e-3 -0.13514-0.0156-0.0156-0.041-0.024-0.0666-0.0249zm0.66495 0c-0.0255-7.7e-4 -0.0511 6e-3 -0.0674 0.0204-0.0485 0.0438-0.0374 0.12898 0.0207 0.15923 0.0346 0.0181 0.0873 8e-3 0.11616-0.0196 0.0312-0.0312 0.0297-0.10267-3e-3 -0.13514-0.0157-0.0156-0.041-0.024-0.0667-0.0249zm0.66485 0c-0.0255-7.7e-4 -0.0511 6e-3 -0.0674 0.0204-0.0485 0.0438-0.0373 0.12898 0.0208 0.15923 0.0346 0.0181 0.0872 8e-3 0.11603-0.0196 0.0313-0.0312 0.0298-0.10267-3e-3 -0.13514-0.0156-0.0156-0.041-0.024-0.0667-0.0249zm0.66484 0c-0.0256-7.7e-4 -0.0511 6e-3 -0.0674 0.0204-0.0485 0.0438-0.0373 0.12898 0.0208 0.15923 0.0346 0.0181 0.0871 8e-3 0.11602-0.0196 0.0312-0.0312 0.0298-0.10267-2e-3 -0.13514-0.0158-0.0156-0.0411-0.024-0.0668-0.0249zm-24.528 0.66485c-0.0255-7.8e-4 -0.0511 6e-3 -0.0674 0.0207-0.0485 0.0438-0.0374 0.12898 0.0207 0.15923h1.2e-4c0.0346 0.0181 0.0872 8e-3 0.11603-0.0197 0.0313-0.0312 0.0298-0.10257-3e-3 -0.13514-0.0156-0.0156-0.041-0.024-0.0667-0.0249zm0.66484 0c-0.0256-7.8e-4 -0.0511 6e-3 -0.0674 0.0207-0.0485 0.0438-0.0373 0.12898 0.0208 0.15923 0.0346 0.0181 0.0871 8e-3 0.11602-0.0197 0.0312-0.0312 0.0297-0.10257-3e-3 -0.13514-0.0159-0.0156-0.041-0.024-0.0667-0.0249zm0.66496 0c-0.0255-7.8e-4 -0.0511 6e-3 -0.0674 0.0207-0.0485 0.0438-0.0374 0.12898 0.0207 0.15923 0.0346 0.0181 0.0872 8e-3 0.11615-0.0197 0.0312-0.0312 0.0298-0.10257-3e-3 -0.13514-0.0156-0.0156-0.0411-0.024-0.0667-0.0249zm0.66485 0c-0.0255-7.8e-4 -0.0511 6e-3 -0.0674 0.0207-0.0485 0.0438-0.0373 0.12898 0.0207 0.15923 0.0346 0.0181 0.0871 8e-3 0.11601-0.0197 0.0312-0.0312 0.0297-0.10257-3e-3 -0.13514-0.0156-0.0156-0.041-0.024-0.0667-0.0249zm0.66485 0c-0.0256-7.8e-4 -0.0511 6e-3 -0.0674 0.0207-0.0485 0.0438-0.0373 0.12898 0.0207 0.15923 0.0346 0.0181 0.0871 8e-3 0.11601-0.0197 0.0312-0.0312 0.0298-0.10257-3e-3 -0.13514-0.0157-0.0156-0.041-0.024-0.0666-0.0249zm0.66496 0c-0.0255-7.8e-4 -0.0511 6e-3 -0.0674 0.0207-0.0485 0.0438-0.0374 0.12898 0.0206 0.15923 0.0346 0.0181 0.0872 8e-3 0.11613-0.0197 0.0313-0.0312 0.0297-0.10257-3e-3 -0.13514-0.0156-0.0156-0.0411-0.024-0.0666-0.0249zm0.66484 0c-0.0255-7.8e-4 -0.0511 6e-3 -0.0674 0.0207-0.0484 0.0438-0.0373 0.12895 0.0206 0.15923h1.2e-4c0.0346 0.0181 0.0871 8e-3 0.11601-0.0197 0.0313-0.0312 0.0296-0.10257-3e-3 -0.13514-0.0156-0.0156-0.0411-0.024-0.0667-0.0249zm0.66485 0c-0.0256-7.8e-4 -0.0511 6e-3 -0.0674 0.0207-0.0485 0.0438-0.0373 0.12898 0.0208 0.15923 0.0346 0.0181 0.0871 8e-3 0.11602-0.0197 0.0312-0.0312 0.0298-0.10257-3e-3 -0.13514-0.0156-0.0156-0.041-0.024-0.0667-0.0249zm0.66496 0c-0.0256-7.8e-4 -0.0511 6e-3 -0.0674 0.0207-0.0485 0.0438-0.0374 0.12898 0.0207 0.15923 0.0346 0.0181 0.0873 8e-3 0.11615-0.0197 0.0312-0.0312 0.0297-0.10257-3e-3 -0.13514-0.0156-0.0156-0.0411-0.024-0.0667-0.0249zm0.66485 0c-0.0256-7.8e-4 -0.0511 6e-3 -0.0674 0.0207-0.0485 0.0438-0.0374 0.12898 0.0207 0.15923h1.1e-4c8e-3 4e-3 0.0183 6e-3 0.0286 8e-3 0.0309 4e-3 0.0659-6e-3 0.0874-0.0282 0.0313-0.0312 0.0297-0.10268-3e-3 -0.13514-0.0157-0.0156-0.0411-0.024-0.0667-0.0249zm0.66484 0c-0.0256-7.8e-4 -0.0511 6e-3 -0.0674 0.0207-0.0484 0.0438-0.0373 0.12898 0.0208 0.15923 0.0346 0.0181 0.0871 8e-3 0.11601-0.0197 0.0312-0.0312 0.0298-0.10257-3e-3 -0.13514-0.0156-0.0156-0.0411-0.024-0.0667-0.0249zm0.66496 0c-0.0255-7.8e-4 -0.0511 6e-3 -0.0674 0.0207-0.0485 0.0438-0.0374 0.12898 0.0207 0.15923 0.0346 0.0181 0.0872 8e-3 0.11615-0.0197 0.0312-0.0312 0.0297-0.10257-3e-3 -0.13514-0.0156-0.0156-0.041-0.024-0.0667-0.0249zm0.66484 0c-0.0255-7.8e-4 -0.0511 6e-3 -0.0674 0.0207-0.0485 0.0438-0.0373 0.12898 0.0208 0.15923 0.0346 0.0181 0.0871 8e-3 0.11603-0.0197 0.0313-0.0312 0.0297-0.10257-3e-3 -0.13514-0.0158-0.0156-0.0411-0.024-0.0667-0.0249zm0.66485 0c-0.0256-7.8e-4 -0.0511 6e-3 -0.0674 0.0207-0.0485 0.0438-0.0373 0.12898 0.0207 0.15923 0.0346 0.0181 0.0871 8e-3 0.11603-0.0197 0.0312-0.0312 0.0296-0.10257-3e-3 -0.13514-0.0156-0.0156-0.0411-0.024-0.0667-0.0249zm0.66496 0c-0.0256-7.8e-4 -0.0511 6e-3 -0.0674 0.0207-0.0485 0.0438-0.0374 0.12898 0.0207 0.15923 0.0346 0.0181 0.0873 8e-3 0.11615-0.0197 0.0312-0.0312 0.0298-0.10257-3e-3 -0.13514-0.0158-0.0156-0.041-0.024-0.0666-0.0249zm0.66485 0c-0.0256-7.8e-4 -0.0511 6e-3 -0.0674 0.0207-0.0484 0.0438-0.0373 0.12895 0.0207 0.15923h1.3e-4c0.0346 0.0181 0.0872 8e-3 0.11601-0.0197 0.0313-0.0312 0.0298-0.10257-3e-3 -0.13514-0.0156-0.0156-0.041-0.024-0.0667-0.0249zm0.66483 0c-0.0255-7.8e-4 -0.0511 6e-3 -0.0674 0.0207-0.0485 0.0438-0.0373 0.12898 0.0208 0.15923 0.0346 0.0181 0.0871 8e-3 0.11604-0.0197 0.0312-0.0312 0.0297-0.10257-3e-3 -0.13514-0.0158-0.0156-0.041-0.024-0.0666-0.0249zm0.66497 0c-0.0256-7.8e-4 -0.0511 6e-3 -0.0674 0.0207-0.0485 0.0438-0.0374 0.12898 0.0207 0.15923 0.0346 0.0181 0.0873 8e-3 0.11616-0.0197 0.0312-0.0312 0.0297-0.10257-3e-3 -0.13514-0.0158-0.0156-0.041-0.024-0.0667-0.0249zm0.66484 0c-0.0256-7.8e-4 -0.0511 6e-3 -0.0674 0.0207-0.0485 0.0438-0.0373 0.12898 0.0207 0.15923 0.0346 0.0181 0.0871 8e-3 0.11603-0.0197 0.0312-0.0312 0.0297-0.10257-3e-3 -0.13514-0.0158-0.0156-0.041-0.024-0.0667-0.0249zm0.5923 0c-0.0256-7.8e-4 -0.0511 6e-3 -0.0674 0.0207-0.0485 0.0438-0.0373 0.12898 0.0208 0.15923 0.0346 0.0181 0.0871 8e-3 0.11602-0.0197 0.0312-0.0312 0.0298-0.10257-2e-3 -0.13514-0.0157-0.0156-0.0411-0.024-0.0667-0.0249zm0.66494 0c-0.0256-7.8e-4 -0.0511 6e-3 -0.0674 0.0207-0.0485 0.0438-0.0374 0.12898 0.0207 0.15923 0.0346 0.0181 0.0872 8e-3 0.11615-0.0197 0.0312-0.0312 0.0296-0.10257-3e-3 -0.13514-0.0157-0.0156-0.041-0.024-0.0666-0.0249zm0.66485 0c-0.0256-7.8e-4 -0.0511 6e-3 -0.0674 0.0207-0.0485 0.0438-0.0373 0.12898 0.0208 0.15923 0.0346 0.0181 0.0871 8e-3 0.11602-0.0197 0.0313-0.0312 0.0296-0.10257-3e-3 -0.13514-0.0157-0.0156-0.041-0.024-0.0666-0.0249zm0.66485 0c-0.0256-7.8e-4 -0.0511 6e-3 -0.0674 0.0207-0.0485 0.0438-0.0374 0.12898 0.0208 0.15923 0.0346 0.0181 0.0872 8e-3 0.11602-0.0197 0.0312-0.0312 0.0297-0.10257-2e-3 -0.13514-0.0158-0.0156-0.0412-0.024-0.0668-0.0249zm0.66496 0c-0.0255-7.8e-4 -0.0511 6e-3 -0.0674 0.0207-0.0485 0.0438-0.0374 0.12898 0.0207 0.15923 0.0346 0.0181 0.0873 8e-3 0.11614-0.0197 0.0312-0.0312 0.0298-0.10257-3e-3 -0.13514-0.0158-0.0156-0.0411-0.024-0.0667-0.0249zm0.66484 0c-0.0256-7.8e-4 -0.0511 6e-3 -0.0674 0.0207-0.0485 0.0438-0.0374 0.12898 0.0208 0.15923 0.0346 0.0181 0.0872 8e-3 0.11601-0.0197 0.0313-0.0312 0.0297-0.10257-3e-3 -0.13514-0.0159-0.0156-0.0411-0.024-0.0667-0.0249zm0.66485 0c-0.0256-7.8e-4 -0.0511 6e-3 -0.0674 0.0207-0.0485 0.0438-0.0373 0.12898 0.0207 0.15923 0.0346 0.0181 0.0871 8e-3 0.11603-0.0197 0.0312-0.0312 0.0297-0.10257-3e-3 -0.13514-0.0157-0.0156-0.041-0.024-0.0667-0.0249zm0.66496 0c-0.0255-7.8e-4 -0.0511 6e-3 -0.0674 0.0207-0.0485 0.0438-0.0374 0.12898 0.0206 0.15923 0.0346 0.0181 0.0873 8e-3 0.11614-0.0197 0.0313-0.0312 0.0298-0.10257-3e-3 -0.13514-0.0156-0.0156-0.041-0.024-0.0667-0.0249zm0.66484 0c-0.0255-7.8e-4 -0.0511 6e-3 -0.0674 0.0207-0.0485 0.0438-0.0373 0.12898 0.0208 0.15923 0.0346 0.0181 0.0872 8e-3 0.11602-0.0197 0.0313-0.0312 0.0297-0.10257-3e-3 -0.13514-0.0158-0.0156-0.041-0.024-0.0667-0.0249zm0.66484 0c-0.0256-7.8e-4 -0.0511 6e-3 -0.0674 0.0207-0.0485 0.0438-0.0373 0.12898 0.0208 0.15923 8e-3 4e-3 0.0185 6e-3 0.0287 8e-3 0.0309 4e-3 0.0657-6e-3 0.0873-0.0282 0.0312-0.0312 0.0297-0.10268-2e-3 -0.13514-0.0156-0.0156-0.0411-0.024-0.0668-0.0249zm0.66496 0c-0.0256-7.8e-4 -0.0511 6e-3 -0.0674 0.0207-0.0484 0.0438-0.0374 0.12898 0.0207 0.15923 0.0346 0.0181 0.0873 8e-3 0.11614-0.0197 0.0312-0.0312 0.0298-0.10257-3e-3 -0.13514-0.0157-0.0156-0.041-0.024-0.0667-0.0249zm0.66486 0c-0.0256-7.8e-4 -0.0511 6e-3 -0.0674 0.0207-0.0485 0.0438-0.0373 0.12898 0.0207 0.15923 0.0346 0.0181 0.0871 8e-3 0.11602-0.0197 0.0313-0.0312 0.0297-0.10257-3e-3 -0.13514-0.0157-0.0156-0.041-0.024-0.0666-0.0249zm0.66484 0c-0.0256-7.8e-4 -0.0511 6e-3 -0.0674 0.0207-0.0485 0.0438-0.0374 0.12898 0.0208 0.15923 0.0346 0.0181 0.0871 8e-3 0.11601-0.0197 0.0312-0.0312 0.0298-0.10257-2e-3 -0.13514-0.0157-0.0156-0.0411-0.024-0.0668-0.0249zm0.66496 0c-0.0256-7.8e-4 -0.0511 6e-3 -0.0674 0.0207-0.0485 0.0438-0.0374 0.12898 0.0207 0.15923 0.0346 0.0181 0.0872 8e-3 0.11614-0.0197 0.0312-0.0312 0.0297-0.10257-3e-3 -0.13514-0.0157-0.0156-0.041-0.024-0.0667-0.0249zm0.66485 0c-0.0256-7.8e-4 -0.0511 6e-3 -0.0674 0.0207-0.0485 0.0438-0.0373 0.12898 0.0208 0.15923 0.0346 0.0181 0.0872 8e-3 0.11603-0.0197 0.0313-0.0312 0.0297-0.10257-3e-3 -0.13514-0.0156-0.0156-0.041-0.024-0.0667-0.0249zm0.66485 0c-0.0256-7.8e-4 -0.0511 6e-3 -0.0674 0.0207-0.0484 0.0438-0.0373 0.12898 0.0208 0.15923 0.0346 0.0181 0.0872 8e-3 0.11603-0.0197 0.0312-0.0312 0.0297-0.10257-3e-3 -0.13514-0.0156-0.0156-0.041-0.024-0.0666-0.0249zm0.66495 0c-0.0255-7.8e-4 -0.0511 6e-3 -0.0674 0.0207-0.0485 0.0438-0.0374 0.12898 0.0207 0.15923 0.0346 0.0181 0.0873 8e-3 0.11616-0.0197 0.0312-0.0312 0.0297-0.10257-3e-3 -0.13514-0.0157-0.0156-0.041-0.024-0.0667-0.0249zm0.66485 0c-0.0255-7.8e-4 -0.0511 6e-3 -0.0674 0.0207-0.0485 0.0438-0.0373 0.12898 0.0208 0.15923 0.0346 0.0181 0.0872 8e-3 0.11603-0.0197 0.0313-0.0312 0.0298-0.10257-3e-3 -0.13514-0.0156-0.0156-0.041-0.024-0.0667-0.0249zm0.66484 0c-0.0256-7.8e-4 -0.0511 6e-3 -0.0674 0.0207-0.0485 0.0438-0.0373 0.12898 0.0208 0.15923 0.0346 0.0181 0.0871 8e-3 0.11602-0.0197 0.0312-0.0312 0.0298-0.10257-2e-3 -0.13514-0.0158-0.0156-0.0411-0.024-0.0668-0.0249zm-24.528 0.66494c-0.0255-7.5e-4 -0.0511 6e-3 -0.0674 0.0205-0.0485 0.0438-0.0374 0.12898 0.0207 0.15923h1.2e-4c0.0346 0.0181 0.0872 8e-3 0.11603-0.0196 0.0313-0.0313 0.0298-0.10258-3e-3 -0.13502-0.0156-0.0156-0.041-0.024-0.0667-0.0249zm0.66484 0c-0.0256-7.5e-4 -0.0511 6e-3 -0.0674 0.0205-0.0485 0.0438-0.0373 0.12898 0.0208 0.15923 0.0346 0.0181 0.0871 8e-3 0.11602-0.0196 0.0312-0.0313 0.0297-0.10258-3e-3 -0.13502-0.0159-0.0156-0.041-0.024-0.0667-0.0249zm0.66496 0c-0.0255-7.5e-4 -0.0511 6e-3 -0.0674 0.0205-0.0485 0.0438-0.0374 0.12898 0.0207 0.15923 0.0346 0.0181 0.0872 8e-3 0.11615-0.0196 0.0312-0.0313 0.0298-0.10258-3e-3 -0.13502-0.0156-0.0156-0.0411-0.024-0.0667-0.0249zm0.66485 0c-0.0255-7.5e-4 -0.0511 6e-3 -0.0674 0.0205-0.0485 0.0438-0.0373 0.12898 0.0207 0.15923 0.0346 0.0181 0.0871 8e-3 0.11601-0.0196 0.0312-0.0313 0.0297-0.10258-3e-3 -0.13502-0.0156-0.0156-0.041-0.024-0.0667-0.0249zm0.66485 0c-0.0256-7.5e-4 -0.0511 6e-3 -0.0674 0.0205-0.0485 0.0438-0.0373 0.12898 0.0207 0.15923 0.0346 0.0181 0.0871 8e-3 0.11601-0.0196 0.0312-0.0313 0.0298-0.10258-3e-3 -0.13502-0.0157-0.0156-0.041-0.024-0.0666-0.0249zm0.66496 0c-0.0255-7.5e-4 -0.0511 6e-3 -0.0674 0.0205-0.0485 0.0438-0.0374 0.12898 0.0206 0.15923 0.0346 0.0181 0.0872 8e-3 0.11613-0.0196 0.0313-0.0313 0.0297-0.10258-3e-3 -0.13502-0.0156-0.0156-0.0411-0.024-0.0666-0.0249zm0.66484 0c-0.0255-7.5e-4 -0.0511 6e-3 -0.0674 0.0205-0.0484 0.0438-0.0373 0.12894 0.0206 0.15923h1.2e-4c0.0346 0.0181 0.0871 8e-3 0.11601-0.0196 0.0313-0.0313 0.0296-0.10258-3e-3 -0.13502-0.0156-0.0156-0.0411-0.024-0.0667-0.0249zm0.66485 0c-0.0256-7.5e-4 -0.0511 6e-3 -0.0674 0.0205-0.0485 0.0438-0.0373 0.12898 0.0208 0.15923 0.0346 0.0181 0.0871 8e-3 0.11602-0.0196 0.0312-0.0313 0.0298-0.10258-3e-3 -0.13502-0.0156-0.0156-0.041-0.024-0.0667-0.0249zm0.66496 0c-0.0256-7.5e-4 -0.0511 6e-3 -0.0674 0.0205-0.0485 0.0438-0.0374 0.12898 0.0207 0.15923 0.0346 0.0181 0.0873 8e-3 0.11615-0.0196 0.0312-0.0313 0.0297-0.10258-3e-3 -0.13502-0.0156-0.0156-0.0411-0.024-0.0667-0.0249zm0.66485 0c-0.0256-7.5e-4 -0.0511 6e-3 -0.0674 0.0205-0.0485 0.0438-0.0374 0.12898 0.0207 0.15923h1.1e-4c8e-3 4e-3 0.0183 7e-3 0.0286 8e-3 0.0309 4e-3 0.0659-6e-3 0.0874-0.0283 0.0313-0.0313 0.0297-0.10258-3e-3 -0.13502-0.0157-0.0156-0.0411-0.024-0.0667-0.0249zm0.66484 0c-0.0256-7.5e-4 -0.0511 6e-3 -0.0674 0.0205-0.0484 0.0438-0.0373 0.12898 0.0208 0.15923 0.0346 0.0181 0.0871 8e-3 0.11601-0.0196 0.0312-0.0313 0.0298-0.10258-3e-3 -0.13502-0.0156-0.0156-0.0411-0.024-0.0667-0.0249zm0.66496 0c-0.0255-7.5e-4 -0.0511 6e-3 -0.0674 0.0205-0.0485 0.0438-0.0374 0.12898 0.0207 0.15923 0.0346 0.0181 0.0872 8e-3 0.11615-0.0196 0.0312-0.0313 0.0297-0.10258-3e-3 -0.13502-0.0156-0.0156-0.041-0.024-0.0667-0.0249zm0.66484 0c-0.0255-7.5e-4 -0.0511 6e-3 -0.0674 0.0205-0.0485 0.0438-0.0373 0.12898 0.0208 0.15923 0.0346 0.0181 0.0871 8e-3 0.11603-0.0196 0.0313-0.0313 0.0297-0.10258-3e-3 -0.13502-0.0158-0.0156-0.0411-0.024-0.0667-0.0249zm0.66485 0c-0.0256-7.5e-4 -0.0511 6e-3 -0.0674 0.0205-0.0485 0.0438-0.0373 0.12898 0.0207 0.15923 0.0346 0.0181 0.0871 8e-3 0.11603-0.0196 0.0312-0.0313 0.0296-0.10258-3e-3 -0.13502-0.0156-0.0156-0.0411-0.024-0.0667-0.0249zm0.66496 0c-0.0256-7.5e-4 -0.0511 6e-3 -0.0674 0.0205-0.0485 0.0438-0.0374 0.12898 0.0207 0.15923 0.0346 0.0181 0.0873 8e-3 0.11615-0.0196 0.0312-0.0313 0.0298-0.10258-3e-3 -0.13502-0.0158-0.0156-0.041-0.024-0.0666-0.0249zm0.66485 0c-0.0256-7.5e-4 -0.0511 6e-3 -0.0674 0.0205-0.0484 0.0438-0.0373 0.12894 0.0207 0.15923h1.3e-4c0.0346 0.0181 0.0872 8e-3 0.11601-0.0196 0.0313-0.0313 0.0298-0.10258-3e-3 -0.13502-0.0156-0.0156-0.041-0.024-0.0667-0.0249zm0.66483 0c-0.0255-7.5e-4 -0.0511 6e-3 -0.0674 0.0205-0.0485 0.0438-0.0373 0.12898 0.0208 0.15923 0.0346 0.0181 0.0871 8e-3 0.11604-0.0196 0.0312-0.0313 0.0297-0.10258-3e-3 -0.13502-0.0158-0.0156-0.041-0.024-0.0666-0.0249zm0.66497 0c-0.0256-7.5e-4 -0.0511 6e-3 -0.0674 0.0205-0.0485 0.0438-0.0374 0.12898 0.0207 0.15923 0.0346 0.0181 0.0873 8e-3 0.11616-0.0196 0.0312-0.0313 0.0297-0.10258-3e-3 -0.13502-0.0158-0.0156-0.041-0.024-0.0667-0.0249zm0.66484 0c-0.0256-7.5e-4 -0.0511 6e-3 -0.0674 0.0205-0.0485 0.0438-0.0373 0.12898 0.0207 0.15923 0.0346 0.0181 0.0871 8e-3 0.11603-0.0196 0.0312-0.0313 0.0297-0.10258-3e-3 -0.13502-0.0158-0.0156-0.041-0.024-0.0667-0.0249zm0.5923 0c-0.0256-7.5e-4 -0.0511 6e-3 -0.0674 0.0205-0.0485 0.0438-0.0373 0.12898 0.0208 0.15923 0.0346 0.0181 0.0871 8e-3 0.11602-0.0196 0.0312-0.0313 0.0298-0.10258-2e-3 -0.13502-0.0157-0.0156-0.0411-0.024-0.0667-0.0249zm0.66494 0c-0.0256-7.5e-4 -0.0511 6e-3 -0.0674 0.0205-0.0485 0.0438-0.0374 0.12898 0.0207 0.15923 0.0346 0.0181 0.0872 8e-3 0.11615-0.0196 0.0312-0.0313 0.0296-0.10258-3e-3 -0.13502-0.0157-0.0156-0.041-0.024-0.0666-0.0249zm0.66485 0c-0.0256-7.5e-4 -0.0511 6e-3 -0.0674 0.0205-0.0485 0.0438-0.0373 0.12898 0.0208 0.15923 0.0346 0.0181 0.0871 8e-3 0.11602-0.0196 0.0313-0.0313 0.0296-0.10258-3e-3 -0.13502-0.0157-0.0156-0.041-0.024-0.0666-0.0249zm0.66485 0c-0.0256-7.5e-4 -0.0511 6e-3 -0.0674 0.0205-0.0485 0.0438-0.0374 0.12898 0.0208 0.15923 0.0346 0.0181 0.0872 8e-3 0.11602-0.0196 0.0312-0.0313 0.0297-0.10258-2e-3 -0.13502-0.0158-0.0156-0.0412-0.024-0.0668-0.0249zm0.66496 0c-0.0255-7.5e-4 -0.0511 6e-3 -0.0674 0.0205-0.0485 0.0438-0.0374 0.12898 0.0207 0.15923 0.0346 0.0181 0.0873 8e-3 0.11614-0.0196 0.0312-0.0313 0.0298-0.10258-3e-3 -0.13502-0.0158-0.0156-0.0411-0.024-0.0667-0.0249zm0.66484 0c-0.0256-7.5e-4 -0.0511 6e-3 -0.0674 0.0205-0.0485 0.0438-0.0374 0.12898 0.0208 0.15923 0.0346 0.0181 0.0872 8e-3 0.11601-0.0196 0.0313-0.0313 0.0297-0.10258-3e-3 -0.13502-0.0159-0.0156-0.0411-0.024-0.0667-0.0249zm0.66485 0c-0.0256-7.5e-4 -0.0511 6e-3 -0.0674 0.0205-0.0485 0.0438-0.0373 0.12898 0.0207 0.15923 0.0346 0.0181 0.0871 8e-3 0.11603-0.0196 0.0312-0.0313 0.0297-0.10258-3e-3 -0.13502-0.0157-0.0156-0.041-0.024-0.0667-0.0249zm0.66496 0c-0.0255-7.5e-4 -0.0511 6e-3 -0.0674 0.0205-0.0485 0.0438-0.0374 0.12898 0.0206 0.15923 0.0346 0.0181 0.0873 8e-3 0.11614-0.0196 0.0313-0.0313 0.0298-0.10258-3e-3 -0.13502-0.0156-0.0156-0.041-0.024-0.0667-0.0249zm0.66484 0c-0.0255-7.5e-4 -0.0511 6e-3 -0.0674 0.0205-0.0485 0.0438-0.0373 0.12898 0.0208 0.15923 0.0346 0.0181 0.0872 8e-3 0.11602-0.0196 0.0313-0.0313 0.0297-0.10258-3e-3 -0.13502-0.0158-0.0156-0.041-0.024-0.0667-0.0249zm0.66484 0c-0.0256-7.5e-4 -0.0511 6e-3 -0.0674 0.0205-0.0485 0.0438-0.0373 0.12898 0.0208 0.15923 8e-3 4e-3 0.0185 7e-3 0.0287 8e-3 0.0309 4e-3 0.0657-6e-3 0.0873-0.0283 0.0312-0.0313 0.0297-0.10258-2e-3 -0.13502-0.0156-0.0156-0.0411-0.024-0.0668-0.0249zm0.66496 0c-0.0256-7.5e-4 -0.0511 6e-3 -0.0674 0.0205-0.0484 0.0438-0.0374 0.12898 0.0207 0.15923 0.0346 0.0181 0.0873 8e-3 0.11614-0.0196 0.0312-0.0313 0.0298-0.10258-3e-3 -0.13502-0.0157-0.0156-0.041-0.024-0.0667-0.0249zm0.66486 0c-0.0256-7.5e-4 -0.0511 6e-3 -0.0674 0.0205-0.0485 0.0438-0.0373 0.12898 0.0207 0.15923 0.0346 0.0181 0.0871 8e-3 0.11602-0.0196 0.0313-0.0313 0.0297-0.10258-3e-3 -0.13502-0.0157-0.0156-0.041-0.024-0.0666-0.0249zm0.66484 0c-0.0256-7.5e-4 -0.0511 6e-3 -0.0674 0.0205-0.0485 0.0438-0.0374 0.12898 0.0208 0.15923 0.0346 0.0181 0.0871 8e-3 0.11601-0.0196 0.0312-0.0313 0.0298-0.10258-2e-3 -0.13502-0.0157-0.0156-0.0411-0.024-0.0668-0.0249zm0.66496 0c-0.0256-7.5e-4 -0.0511 6e-3 -0.0674 0.0205-0.0485 0.0438-0.0374 0.12898 0.0207 0.15923 0.0346 0.0181 0.0872 8e-3 0.11614-0.0196 0.0312-0.0313 0.0297-0.10258-3e-3 -0.13502-0.0157-0.0156-0.041-0.024-0.0667-0.0249zm0.66485 0c-0.0256-7.5e-4 -0.0511 6e-3 -0.0674 0.0205-0.0485 0.0438-0.0373 0.12898 0.0208 0.15923 0.0346 0.0181 0.0872 8e-3 0.11603-0.0196 0.0313-0.0313 0.0297-0.10258-3e-3 -0.13502-0.0156-0.0156-0.041-0.024-0.0667-0.0249zm0.66485 0c-0.0256-7.5e-4 -0.0511 6e-3 -0.0674 0.0205-0.0484 0.0438-0.0373 0.12898 0.0208 0.15923 0.0346 0.0181 0.0872 8e-3 0.11603-0.0196 0.0312-0.0313 0.0297-0.10258-3e-3 -0.13502-0.0156-0.0156-0.041-0.024-0.0666-0.0249zm0.66495 0c-0.0255-7.5e-4 -0.0511 6e-3 -0.0674 0.0205-0.0485 0.0438-0.0374 0.12898 0.0207 0.15923 0.0346 0.0181 0.0873 8e-3 0.11616-0.0196 0.0312-0.0313 0.0297-0.10258-3e-3 -0.13502-0.0157-0.0156-0.041-0.024-0.0667-0.0249zm0.66485 0c-0.0255-7.5e-4 -0.0511 6e-3 -0.0674 0.0205-0.0485 0.0438-0.0373 0.12898 0.0208 0.15923 0.0346 0.0181 0.0872 8e-3 0.11603-0.0196 0.0313-0.0313 0.0298-0.10258-3e-3 -0.13502-0.0156-0.0156-0.041-0.024-0.0667-0.0249zm0.66484 0c-0.0256-7.5e-4 -0.0511 6e-3 -0.0674 0.0205-0.0485 0.0438-0.0373 0.12898 0.0208 0.15923 0.0346 0.0181 0.0871 8e-3 0.11602-0.0196 0.0312-0.0313 0.0298-0.10258-2e-3 -0.13502-0.0158-0.0156-0.0411-0.024-0.0668-0.0249zm-24.528 0.66487c-0.0255-7.8e-4 -0.0511 6e-3 -0.0674 0.0205-0.0485 0.0438-0.0374 0.12898 0.0207 0.15923h1.2e-4c0.0346 0.0181 0.0872 8e-3 0.11603-0.0195 0.0313-0.0312 0.0298-0.10257-3e-3 -0.13513-0.0156-0.0156-0.041-0.024-0.0667-0.0249zm0.66484 0c-0.0256-7.8e-4 -0.0511 6e-3 -0.0674 0.0205-0.0485 0.0438-0.0373 0.12898 0.0208 0.15923 0.0346 0.0181 0.0871 8e-3 0.11602-0.0195 0.0312-0.0312 0.0297-0.10257-3e-3 -0.13513-0.0159-0.0156-0.041-0.024-0.0667-0.0249zm0.66496 0c-0.0255-7.8e-4 -0.0511 6e-3 -0.0674 0.0205-0.0485 0.0438-0.0374 0.12898 0.0207 0.15923 0.0346 0.0181 0.0872 8e-3 0.11615-0.0195 0.0312-0.0312 0.0298-0.10257-3e-3 -0.13513-0.0156-0.0156-0.0411-0.024-0.0667-0.0249zm0.66485 0c-0.0255-7.8e-4 -0.0511 6e-3 -0.0674 0.0205-0.0485 0.0438-0.0373 0.12898 0.0207 0.15923 0.0346 0.0181 0.0871 8e-3 0.11601-0.0195 0.0312-0.0312 0.0297-0.10257-3e-3 -0.13513-0.0156-0.0156-0.041-0.024-0.0667-0.0249zm0.66485 0c-0.0256-7.8e-4 -0.0511 6e-3 -0.0674 0.0205-0.0485 0.0438-0.0373 0.12898 0.0207 0.15923 0.0346 0.0181 0.0871 8e-3 0.11601-0.0195 0.0312-0.0312 0.0298-0.10257-3e-3 -0.13513-0.0157-0.0156-0.041-0.024-0.0666-0.0249zm0.66496 0c-0.0255-7.8e-4 -0.0511 6e-3 -0.0674 0.0205-0.0485 0.0438-0.0374 0.12898 0.0206 0.15923 0.0346 0.0181 0.0872 8e-3 0.11613-0.0195 0.0313-0.0312 0.0297-0.10257-3e-3 -0.13513-0.0156-0.0156-0.0411-0.024-0.0666-0.0249zm0.66484 0c-0.0255-7.8e-4 -0.0511 6e-3 -0.0674 0.0205-0.0484 0.0438-0.0373 0.12894 0.0206 0.15923h1.2e-4c0.0346 0.0181 0.0871 8e-3 0.11601-0.0195 0.0313-0.0312 0.0296-0.10257-3e-3 -0.13513-0.0156-0.0156-0.0411-0.024-0.0667-0.0249zm0.66485 0c-0.0256-7.8e-4 -0.0511 6e-3 -0.0674 0.0205-0.0485 0.0438-0.0373 0.12898 0.0208 0.15923 0.0346 0.0181 0.0871 8e-3 0.11602-0.0195 0.0312-0.0312 0.0298-0.10257-3e-3 -0.13513-0.0156-0.0156-0.041-0.024-0.0667-0.0249zm0.66496 0c-0.0256-7.8e-4 -0.0511 6e-3 -0.0674 0.0205-0.0485 0.0438-0.0374 0.12898 0.0207 0.15923 0.0346 0.0181 0.0873 8e-3 0.11615-0.0195 0.0312-0.0312 0.0297-0.10257-3e-3 -0.13513-0.0156-0.0156-0.0411-0.024-0.0667-0.0249zm0.66485 0c-0.0256-7.8e-4 -0.0511 6e-3 -0.0674 0.0205-0.0485 0.0438-0.0374 0.12898 0.0207 0.15923h1.1e-4c8e-3 4e-3 0.0183 7e-3 0.0286 8e-3 0.0309 4e-3 0.0659-6e-3 0.0874-0.0282 0.0313-0.0312 0.0297-0.10267-3e-3 -0.13512-0.0157-0.0157-0.0411-0.024-0.0667-0.025zm0.66484 0c-0.0256-7.8e-4 -0.0511 6e-3 -0.0674 0.0205-0.0484 0.0438-0.0373 0.12898 0.0208 0.15923 0.0346 0.0181 0.0871 8e-3 0.11601-0.0195 0.0312-0.0312 0.0298-0.10257-3e-3 -0.13513-0.0156-0.0156-0.0411-0.024-0.0667-0.0249zm0.66496 0c-0.0255-7.8e-4 -0.0511 6e-3 -0.0674 0.0205-0.0485 0.0438-0.0374 0.12898 0.0207 0.15923 0.0346 0.0181 0.0872 8e-3 0.11615-0.0195 0.0312-0.0312 0.0297-0.10257-3e-3 -0.13513-0.0156-0.0156-0.041-0.024-0.0667-0.0249zm0.66484 0c-0.0255-7.8e-4 -0.0511 6e-3 -0.0674 0.0205-0.0485 0.0438-0.0373 0.12898 0.0208 0.15923 0.0346 0.0181 0.0871 8e-3 0.11603-0.0195 0.0313-0.0312 0.0297-0.10257-3e-3 -0.13513-0.0158-0.0156-0.0411-0.024-0.0667-0.0249zm0.66485 0c-0.0256-7.8e-4 -0.0511 6e-3 -0.0674 0.0205-0.0485 0.0438-0.0373 0.12898 0.0207 0.15923 0.0346 0.0181 0.0871 8e-3 0.11603-0.0195 0.0312-0.0312 0.0296-0.10257-3e-3 -0.13513-0.0156-0.0156-0.0411-0.024-0.0667-0.0249zm0.66496 0c-0.0256-7.8e-4 -0.0511 6e-3 -0.0674 0.0205-0.0485 0.0438-0.0374 0.12898 0.0207 0.15923 0.0346 0.0181 0.0873 8e-3 0.11615-0.0195 0.0312-0.0312 0.0298-0.10257-3e-3 -0.13513-0.0158-0.0156-0.041-0.024-0.0666-0.0249zm0.66485 0c-0.0256-7.8e-4 -0.0511 6e-3 -0.0674 0.0205-0.0484 0.0438-0.0373 0.12894 0.0207 0.15923h1.3e-4c0.0346 0.0181 0.0872 8e-3 0.11601-0.0195 0.0313-0.0312 0.0298-0.10257-3e-3 -0.13513-0.0156-0.0156-0.041-0.024-0.0667-0.0249zm0.66483 0c-0.0255-7.8e-4 -0.0511 6e-3 -0.0674 0.0205-0.0485 0.0438-0.0373 0.12898 0.0208 0.15923 0.0346 0.0181 0.0871 8e-3 0.11604-0.0195 0.0312-0.0312 0.0297-0.10257-3e-3 -0.13513-0.0158-0.0156-0.041-0.024-0.0666-0.0249zm0.66497 0c-0.0256-7.8e-4 -0.0511 6e-3 -0.0674 0.0205-0.0485 0.0438-0.0374 0.12898 0.0207 0.15923 0.0346 0.0181 0.0873 8e-3 0.11616-0.0195 0.0312-0.0312 0.0297-0.10257-3e-3 -0.13513-0.0158-0.0156-0.041-0.024-0.0667-0.0249zm0.66484 0c-0.0256-7.8e-4 -0.0511 6e-3 -0.0674 0.0205-0.0485 0.0438-0.0373 0.12898 0.0207 0.15923 0.0346 0.0181 0.0871 8e-3 0.11603-0.0195 0.0312-0.0312 0.0297-0.10257-3e-3 -0.13513-0.0158-0.0156-0.041-0.024-0.0667-0.0249zm0.5923 0c-0.0256-7.8e-4 -0.0511 6e-3 -0.0674 0.0205-0.0485 0.0438-0.0373 0.12898 0.0208 0.15923 0.0346 0.0181 0.0871 8e-3 0.11602-0.0195 0.0312-0.0312 0.0298-0.10257-2e-3 -0.13513-0.0157-0.0156-0.0411-0.024-0.0667-0.0249zm0.66494 0c-0.0256-7.8e-4 -0.0511 6e-3 -0.0674 0.0205-0.0485 0.0438-0.0374 0.12898 0.0207 0.15923 0.0346 0.0181 0.0872 8e-3 0.11615-0.0195 0.0312-0.0312 0.0296-0.10257-3e-3 -0.13513-0.0157-0.0156-0.041-0.024-0.0666-0.0249zm0.66485 0c-0.0256-7.8e-4 -0.0511 6e-3 -0.0674 0.0205-0.0485 0.0438-0.0373 0.12898 0.0208 0.15923 0.0346 0.0181 0.0871 8e-3 0.11602-0.0195 0.0313-0.0312 0.0296-0.10257-3e-3 -0.13513-0.0157-0.0156-0.041-0.024-0.0666-0.0249zm0.66485 0c-0.0256-7.8e-4 -0.0511 6e-3 -0.0674 0.0205-0.0485 0.0438-0.0374 0.12898 0.0208 0.15923 0.0346 0.0181 0.0872 8e-3 0.11602-0.0195 0.0312-0.0312 0.0297-0.10257-2e-3 -0.13513-0.0158-0.0156-0.0412-0.024-0.0668-0.0249zm0.66496 0c-0.0255-7.8e-4 -0.0511 6e-3 -0.0674 0.0205-0.0485 0.0438-0.0374 0.12898 0.0207 0.15923 0.0346 0.0181 0.0873 8e-3 0.11614-0.0195 0.0312-0.0312 0.0298-0.10257-3e-3 -0.13513-0.0158-0.0156-0.0411-0.024-0.0667-0.0249zm0.66484 0c-0.0256-7.8e-4 -0.0511 6e-3 -0.0674 0.0205-0.0485 0.0438-0.0374 0.12898 0.0208 0.15923 0.0346 0.0181 0.0872 8e-3 0.11601-0.0195 0.0313-0.0312 0.0297-0.10257-3e-3 -0.13513-0.0159-0.0156-0.0411-0.024-0.0667-0.0249zm0.66485 0c-0.0256-7.8e-4 -0.0511 6e-3 -0.0674 0.0205-0.0485 0.0438-0.0373 0.12898 0.0207 0.15923 0.0346 0.0181 0.0871 8e-3 0.11603-0.0195 0.0312-0.0312 0.0297-0.10257-3e-3 -0.13513-0.0157-0.0156-0.041-0.024-0.0667-0.0249zm0.66496 0c-0.0255-7.8e-4 -0.0511 6e-3 -0.0674 0.0205-0.0485 0.0438-0.0374 0.12898 0.0206 0.15923 0.0346 0.0181 0.0873 8e-3 0.11614-0.0195 0.0313-0.0312 0.0298-0.10257-3e-3 -0.13513-0.0156-0.0156-0.041-0.024-0.0667-0.0249zm0.66484 0c-0.0255-7.8e-4 -0.0511 6e-3 -0.0674 0.0205-0.0485 0.0438-0.0373 0.12898 0.0208 0.15923 0.0346 0.0181 0.0872 8e-3 0.11602-0.0195 0.0313-0.0312 0.0297-0.10257-3e-3 -0.13513-0.0158-0.0156-0.041-0.024-0.0667-0.0249zm0.66484 0c-0.0256-7.8e-4 -0.0511 6e-3 -0.0674 0.0205-0.0485 0.0438-0.0373 0.12898 0.0208 0.15923 8e-3 4e-3 0.0185 7e-3 0.0287 8e-3 0.0309 4e-3 0.0657-6e-3 0.0873-0.0282 0.0312-0.0312 0.0297-0.10267-2e-3 -0.13512-0.0156-0.0157-0.0411-0.024-0.0668-0.025zm0.66496 0c-0.0256-7.8e-4 -0.0511 6e-3 -0.0674 0.0205-0.0484 0.0438-0.0374 0.12898 0.0207 0.15923 0.0346 0.0181 0.0873 8e-3 0.11614-0.0195 0.0312-0.0312 0.0298-0.10257-3e-3 -0.13513-0.0157-0.0156-0.041-0.024-0.0667-0.0249zm0.66486 0c-0.0256-7.8e-4 -0.0511 6e-3 -0.0674 0.0205-0.0485 0.0438-0.0373 0.12898 0.0207 0.15923 0.0346 0.0181 0.0871 8e-3 0.11602-0.0195 0.0313-0.0312 0.0297-0.10257-3e-3 -0.13513-0.0157-0.0156-0.041-0.024-0.0666-0.0249zm0.66484 0c-0.0256-7.8e-4 -0.0511 6e-3 -0.0674 0.0205-0.0485 0.0438-0.0374 0.12898 0.0208 0.15923 0.0346 0.0181 0.0871 8e-3 0.11601-0.0195 0.0312-0.0312 0.0298-0.10257-2e-3 -0.13513-0.0157-0.0156-0.0411-0.024-0.0668-0.0249zm0.66496 0c-0.0256-7.8e-4 -0.0511 6e-3 -0.0674 0.0205-0.0485 0.0438-0.0374 0.12898 0.0207 0.15923 0.0346 0.0181 0.0872 8e-3 0.11614-0.0195 0.0312-0.0312 0.0297-0.10257-3e-3 -0.13513-0.0157-0.0156-0.041-0.024-0.0667-0.0249zm0.66485 0c-0.0256-7.8e-4 -0.0511 6e-3 -0.0674 0.0205-0.0485 0.0438-0.0373 0.12898 0.0208 0.15923 0.0346 0.0181 0.0872 8e-3 0.11603-0.0195 0.0313-0.0312 0.0297-0.10257-3e-3 -0.13513-0.0156-0.0156-0.041-0.024-0.0667-0.0249zm0.66485 0c-0.0256-7.8e-4 -0.0511 6e-3 -0.0674 0.0205-0.0484 0.0438-0.0373 0.12898 0.0208 0.15923 0.0346 0.0181 0.0872 8e-3 0.11603-0.0195 0.0312-0.0312 0.0297-0.10257-3e-3 -0.13513-0.0156-0.0156-0.041-0.024-0.0666-0.0249zm0.66495 0c-0.0255-7.8e-4 -0.0511 6e-3 -0.0674 0.0205-0.0485 0.0438-0.0374 0.12898 0.0207 0.15923 0.0346 0.0181 0.0873 8e-3 0.11616-0.0195 0.0312-0.0312 0.0297-0.10257-3e-3 -0.13513-0.0157-0.0156-0.041-0.024-0.0667-0.0249zm0.66485 0c-0.0255-7.8e-4 -0.0511 6e-3 -0.0674 0.0205-0.0485 0.0438-0.0373 0.12898 0.0208 0.15923 0.0346 0.0181 0.0872 8e-3 0.11603-0.0195 0.0313-0.0312 0.0298-0.10257-3e-3 -0.13513-0.0156-0.0156-0.041-0.024-0.0667-0.0249zm0.66484 0c-0.0256-7.8e-4 -0.0511 6e-3 -0.0674 0.0205-0.0485 0.0438-0.0373 0.12898 0.0208 0.15923 0.0346 0.0181 0.0871 8e-3 0.11602-0.0195 0.0312-0.0312 0.0298-0.10257-2e-3 -0.13513-0.0158-0.0156-0.0411-0.024-0.0668-0.0249zm-24.528 0.66484c-0.0255-7.9e-4 -0.0511 6e-3 -0.0674 0.0207-0.0485 0.0439-0.0374 0.12899 0.0207 0.15924h1.2e-4c0.0346 0.0181 0.0872 8e-3 0.11603-0.0197 0.0313-0.0312 0.0298-0.10257-3e-3 -0.13513-0.0156-0.0156-0.041-0.024-0.0667-0.0249zm0.66484 0c-0.0256-7.9e-4 -0.0511 6e-3 -0.0674 0.0207-0.0485 0.0439-0.0373 0.12899 0.0208 0.15924 0.0346 0.0181 0.0871 8e-3 0.11602-0.0197 0.0312-0.0312 0.0297-0.10257-3e-3 -0.13513-0.0159-0.0156-0.041-0.024-0.0667-0.0249zm0.66496 0c-0.0255-7.9e-4 -0.0511 6e-3 -0.0674 0.0207-0.0485 0.0439-0.0374 0.12899 0.0207 0.15924 0.0346 0.0181 0.0872 8e-3 0.11615-0.0197 0.0312-0.0312 0.0298-0.10257-3e-3 -0.13513-0.0156-0.0156-0.0411-0.024-0.0667-0.0249zm0.66485 0c-0.0255-7.9e-4 -0.0511 6e-3 -0.0674 0.0207-0.0485 0.0439-0.0373 0.12899 0.0207 0.15924 0.0346 0.0181 0.0871 8e-3 0.11601-0.0197 0.0312-0.0312 0.0297-0.10257-3e-3 -0.13513-0.0156-0.0156-0.041-0.024-0.0667-0.0249zm0.66485 0c-0.0256-7.9e-4 -0.0511 6e-3 -0.0674 0.0207-0.0485 0.0439-0.0373 0.12899 0.0207 0.15924 0.0346 0.0181 0.0871 8e-3 0.11601-0.0197 0.0312-0.0312 0.0298-0.10257-3e-3 -0.13513-0.0157-0.0156-0.041-0.024-0.0666-0.0249zm0.66496 0c-0.0255-7.9e-4 -0.0511 6e-3 -0.0674 0.0207-0.0485 0.0439-0.0374 0.12899 0.0206 0.15924 0.0346 0.0181 0.0872 8e-3 0.11613-0.0197 0.0313-0.0312 0.0297-0.10257-3e-3 -0.13513-0.0156-0.0156-0.0411-0.024-0.0666-0.0249zm0.66484 0c-0.0255-7.9e-4 -0.0511 6e-3 -0.0674 0.0207-0.0484 0.0439-0.0373 0.12893 0.0206 0.15924h1.2e-4c0.0346 0.0181 0.0871 8e-3 0.11601-0.0197 0.0313-0.0312 0.0296-0.10257-3e-3 -0.13513-0.0156-0.0156-0.0411-0.024-0.0667-0.0249zm0.66485 0c-0.0256-7.9e-4 -0.0511 6e-3 -0.0674 0.0207-0.0485 0.0439-0.0373 0.12899 0.0208 0.15924 0.0346 0.0181 0.0871 8e-3 0.11602-0.0197 0.0312-0.0312 0.0298-0.10257-3e-3 -0.13513-0.0156-0.0156-0.041-0.024-0.0667-0.0249zm0.66496 0c-0.0256-7.9e-4 -0.0511 6e-3 -0.0674 0.0207-0.0485 0.0439-0.0374 0.12899 0.0207 0.15924 0.0346 0.0181 0.0873 8e-3 0.11615-0.0197 0.0312-0.0312 0.0297-0.10257-3e-3 -0.13513-0.0156-0.0156-0.0411-0.024-0.0667-0.0249zm0.66485 0c-0.0256-7.9e-4 -0.0511 6e-3 -0.0674 0.0207-0.0485 0.0439-0.0374 0.12899 0.0207 0.15924h1.1e-4c8e-3 4e-3 0.0183 6e-3 0.0286 8e-3 0.0309 4e-3 0.0659-6e-3 0.0874-0.0282 0.0313-0.0312 0.0297-0.10257-3e-3 -0.13513-0.0157-0.0159-0.0411-0.024-0.0667-0.025zm0.66484 0c-0.0256-7.9e-4 -0.0511 6e-3 -0.0674 0.0207-0.0484 0.0439-0.0373 0.12899 0.0208 0.15924 0.0346 0.0181 0.0871 8e-3 0.11601-0.0197 0.0312-0.0312 0.0298-0.10257-3e-3 -0.13513-0.0156-0.0156-0.0411-0.024-0.0667-0.0249zm0.66496 0c-0.0255-7.9e-4 -0.0511 6e-3 -0.0674 0.0207-0.0485 0.0439-0.0374 0.12899 0.0207 0.15924 0.0346 0.0181 0.0872 8e-3 0.11615-0.0197 0.0312-0.0312 0.0297-0.10257-3e-3 -0.13513-0.0156-0.0156-0.041-0.024-0.0667-0.0249zm0.66484 0c-0.0255-7.9e-4 -0.0511 6e-3 -0.0674 0.0207-0.0485 0.0439-0.0373 0.12899 0.0208 0.15924 0.0346 0.0181 0.0871 8e-3 0.11603-0.0197 0.0313-0.0312 0.0297-0.10257-3e-3 -0.13513-0.0158-0.0156-0.0411-0.024-0.0667-0.0249zm0.66485 0c-0.0256-7.9e-4 -0.0511 6e-3 -0.0674 0.0207-0.0485 0.0439-0.0373 0.12899 0.0207 0.15924 0.0346 0.0181 0.0871 8e-3 0.11603-0.0197 0.0312-0.0312 0.0296-0.10257-3e-3 -0.13513-0.0156-0.0156-0.0411-0.024-0.0667-0.0249zm0.66496 0c-0.0256-7.9e-4 -0.0511 6e-3 -0.0674 0.0207-0.0485 0.0439-0.0374 0.12899 0.0207 0.15924 0.0346 0.0181 0.0873 8e-3 0.11615-0.0197 0.0312-0.0312 0.0298-0.10257-3e-3 -0.13513-0.0158-0.0156-0.041-0.024-0.0666-0.0249zm0.66485 0c-0.0256-7.9e-4 -0.0511 6e-3 -0.0674 0.0207-0.0484 0.0439-0.0373 0.12893 0.0207 0.15924h1.3e-4c0.0346 0.0181 0.0872 8e-3 0.11601-0.0197 0.0313-0.0312 0.0298-0.10257-3e-3 -0.13513-0.0156-0.0156-0.041-0.024-0.0667-0.0249zm0.66483 0c-0.0255-7.9e-4 -0.0511 6e-3 -0.0674 0.0207-0.0485 0.0439-0.0373 0.12899 0.0208 0.15924 0.0346 0.0181 0.0871 8e-3 0.11604-0.0197 0.0312-0.0312 0.0297-0.10257-3e-3 -0.13513-0.0158-0.0156-0.041-0.024-0.0666-0.0249zm0.66497 0c-0.0256-7.9e-4 -0.0511 6e-3 -0.0674 0.0207-0.0485 0.0439-0.0374 0.12899 0.0207 0.15924 0.0346 0.0181 0.0873 8e-3 0.11616-0.0197 0.0312-0.0312 0.0297-0.10257-3e-3 -0.13513-0.0158-0.0156-0.041-0.024-0.0667-0.0249zm0.66484 0c-0.0256-7.9e-4 -0.0511 6e-3 -0.0674 0.0207-0.0485 0.0439-0.0373 0.12899 0.0207 0.15924 0.0346 0.0181 0.0871 8e-3 0.11603-0.0197 0.0312-0.0312 0.0297-0.10257-3e-3 -0.13513-0.0158-0.0156-0.041-0.024-0.0667-0.0249zm0.5923 0c-0.0256-7.9e-4 -0.0511 6e-3 -0.0674 0.0207-0.0485 0.0439-0.0373 0.12899 0.0208 0.15924 0.0346 0.0181 0.0871 8e-3 0.11602-0.0197 0.0312-0.0312 0.0298-0.10257-2e-3 -0.13513-0.0157-0.0156-0.0411-0.024-0.0667-0.0249zm0.66494 0c-0.0256-7.9e-4 -0.0511 6e-3 -0.0674 0.0207-0.0485 0.0439-0.0374 0.12899 0.0207 0.15924 0.0346 0.0181 0.0872 8e-3 0.11615-0.0197 0.0312-0.0312 0.0296-0.10257-3e-3 -0.13513-0.0157-0.0156-0.041-0.024-0.0666-0.0249zm0.66485 0c-0.0256-7.9e-4 -0.0511 6e-3 -0.0674 0.0207-0.0485 0.0439-0.0373 0.12899 0.0208 0.15924 0.0346 0.0181 0.0871 8e-3 0.11602-0.0197 0.0313-0.0312 0.0296-0.10257-3e-3 -0.13513-0.0157-0.0156-0.041-0.024-0.0666-0.0249zm0.66485 0c-0.0256-7.9e-4 -0.0511 6e-3 -0.0674 0.0207-0.0485 0.0439-0.0374 0.12899 0.0208 0.15924 0.0346 0.0181 0.0872 8e-3 0.11602-0.0197 0.0312-0.0312 0.0297-0.10257-2e-3 -0.13513-0.0158-0.0156-0.0412-0.024-0.0668-0.0249zm0.66496 0c-0.0255-7.9e-4 -0.0511 6e-3 -0.0674 0.0207-0.0485 0.0439-0.0374 0.12899 0.0207 0.15924 0.0346 0.0181 0.0873 8e-3 0.11614-0.0197 0.0312-0.0312 0.0298-0.10257-3e-3 -0.13513-0.0158-0.0156-0.0411-0.024-0.0667-0.0249zm0.66484 0c-0.0256-7.9e-4 -0.0511 6e-3 -0.0674 0.0207-0.0485 0.0439-0.0374 0.12899 0.0208 0.15924 0.0346 0.0181 0.0872 8e-3 0.11601-0.0197 0.0313-0.0312 0.0297-0.10257-3e-3 -0.13513-0.0159-0.0156-0.0411-0.024-0.0667-0.0249zm0.66485 0c-0.0256-7.9e-4 -0.0511 6e-3 -0.0674 0.0207-0.0485 0.0439-0.0373 0.12899 0.0207 0.15924 0.0346 0.0181 0.0871 8e-3 0.11603-0.0197 0.0312-0.0312 0.0297-0.10257-3e-3 -0.13513-0.0157-0.0156-0.041-0.024-0.0667-0.0249zm0.66496 0c-0.0255-7.9e-4 -0.0511 6e-3 -0.0674 0.0207-0.0485 0.0439-0.0374 0.12899 0.0206 0.15924 0.0346 0.0181 0.0873 8e-3 0.11614-0.0197 0.0313-0.0312 0.0298-0.10257-3e-3 -0.13513-0.0156-0.0156-0.041-0.024-0.0667-0.0249zm0.66484 0c-0.0255-7.9e-4 -0.0511 6e-3 -0.0674 0.0207-0.0485 0.0439-0.0373 0.12899 0.0208 0.15924 0.0346 0.0181 0.0872 8e-3 0.11602-0.0197 0.0313-0.0312 0.0297-0.10257-3e-3 -0.13513-0.0158-0.0156-0.041-0.024-0.0667-0.0249zm0.66484 0c-0.0256-7.9e-4 -0.0511 6e-3 -0.0674 0.0207-0.0485 0.0439-0.0373 0.12899 0.0208 0.15924 8e-3 4e-3 0.0185 6e-3 0.0287 8e-3 0.0309 4e-3 0.0657-6e-3 0.0873-0.0282 0.0312-0.0312 0.0297-0.10257-2e-3 -0.13513-0.0156-0.0159-0.0411-0.024-0.0668-0.025zm0.66496 0c-0.0256-7.9e-4 -0.0511 6e-3 -0.0674 0.0207-0.0484 0.0439-0.0374 0.12899 0.0207 0.15924 0.0346 0.0181 0.0873 8e-3 0.11614-0.0197 0.0312-0.0312 0.0298-0.10257-3e-3 -0.13513-0.0157-0.0156-0.041-0.024-0.0667-0.0249zm0.66486 0c-0.0256-7.9e-4 -0.0511 6e-3 -0.0674 0.0207-0.0485 0.0439-0.0373 0.12899 0.0207 0.15924 0.0346 0.0181 0.0871 8e-3 0.11602-0.0197 0.0313-0.0312 0.0297-0.10257-3e-3 -0.13513-0.0157-0.0156-0.041-0.024-0.0666-0.0249zm0.66484 0c-0.0256-7.9e-4 -0.0511 6e-3 -0.0674 0.0207-0.0485 0.0439-0.0374 0.12899 0.0208 0.15924 0.0346 0.0181 0.0871 8e-3 0.11601-0.0197 0.0312-0.0312 0.0298-0.10257-2e-3 -0.13513-0.0157-0.0156-0.0411-0.024-0.0668-0.0249zm0.66496 0c-0.0256-7.9e-4 -0.0511 6e-3 -0.0674 0.0207-0.0485 0.0439-0.0374 0.12899 0.0207 0.15924 0.0346 0.0181 0.0872 8e-3 0.11614-0.0197 0.0312-0.0312 0.0297-0.10257-3e-3 -0.13513-0.0157-0.0156-0.041-0.024-0.0667-0.0249zm0.66485 0c-0.0256-7.9e-4 -0.0511 6e-3 -0.0674 0.0207-0.0485 0.0439-0.0373 0.12899 0.0208 0.15924 0.0346 0.0181 0.0872 8e-3 0.11603-0.0197 0.0313-0.0312 0.0297-0.10257-3e-3 -0.13513-0.0156-0.0156-0.041-0.024-0.0667-0.0249zm0.66485 0c-0.0256-7.9e-4 -0.0511 6e-3 -0.0674 0.0207-0.0484 0.0439-0.0373 0.12899 0.0208 0.15924 0.0346 0.0181 0.0872 8e-3 0.11603-0.0197 0.0312-0.0312 0.0297-0.10257-3e-3 -0.13513-0.0156-0.0156-0.041-0.024-0.0666-0.0249zm0.66495 0c-0.0255-7.9e-4 -0.0511 6e-3 -0.0674 0.0207-0.0485 0.0439-0.0374 0.12899 0.0207 0.15924 0.0346 0.0181 0.0873 8e-3 0.11616-0.0197 0.0312-0.0312 0.0297-0.10257-3e-3 -0.13513-0.0157-0.0156-0.041-0.024-0.0667-0.0249zm0.66485 0c-0.0255-7.9e-4 -0.0511 6e-3 -0.0674 0.0207-0.0485 0.0439-0.0373 0.12899 0.0208 0.15924 0.0346 0.0181 0.0872 8e-3 0.11603-0.0197 0.0313-0.0312 0.0298-0.10257-3e-3 -0.13513-0.0156-0.0156-0.041-0.024-0.0667-0.0249zm0.66484 0c-0.0256-7.9e-4 -0.0511 6e-3 -0.0674 0.0207-0.0485 0.0439-0.0373 0.12899 0.0208 0.15924 0.0346 0.0181 0.0871 8e-3 0.11602-0.0197 0.0312-0.0312 0.0298-0.10257-2e-3 -0.13513-0.0158-0.0156-0.0411-0.024-0.0668-0.0249z" clip-path="url(#clipPath4111)" fill="#fff" opacity=".4" stroke-width=".011081"/>
<path d="m19.751 265.48c0.01633 0.0263 0.56114 0.90462 0.72779 1.3989 0.45158 1.0123 0.25858 3.9724 0.25037 5.6588 0.02772-0.19401 4.6905-1.3958 7.111 0.80464-0.01547-0.0273-0.04888-0.0804-0.12512-0.18628-0.07235-0.10046-0.18275-0.24915-0.37164-0.44224-0.52811-0.60452-0.23093-0.0845-0.80541-0.682-0.49669-0.45047-1.5695-1.5205-2.868-2.798-1.2412-1.2212-2.6869-2.6295-3.919-3.7538z" opacity=".248"/>
<path d="m19.424 264.96c0.01548 0.0249 0.53209 0.85773 0.69011 1.3264 0.42821 0.95987 0.29224 3.218 0.28445 4.8171 0.42899-0.0223 5.1595-0.73701 7.3284 1.8241-0.02928-0.0506-0.10278-0.0927-0.14377-0.17312-0.50077-0.57318-1.1396-1.0337-1.7235-1.5822-0.47098-0.42712-1.4882-1.4417-2.7195-2.653-1.1769-1.1579-2.5478-2.4932-3.7162-3.5592z" fill="#fff" stroke="#808080" stroke-width=".3"/>
<g transform="matrix(.53602 0 0 .53727 -234.93 -13.785)" stroke-width="4.0845"></g>
<g transform="matrix(.53602 0 0 .53727 -234.93 -13.76)" stroke-width="4.0845"></g>
</g>
</svg>
