<svg width="128" height="128" version="1.1" viewBox="0 0 33.867 33.867" xmlns="http://www.w3.org/2000/svg" xmlns:osb="http://www.openswatchbook.org/uri/2009/osb" xmlns:xlink="http://www.w3.org/1999/xlink">
<defs>
<linearGradient id="linearGradient1503" x1="29.203" x2="4.5843" y1="263.52" y2="296.17" gradientTransform="matrix(1.001 0 0 1.001 -.017758 -.29086)" gradientUnits="userSpaceOnUse">
<stop stop-color="#d9d9d9" offset="0"/>
<stop stop-color="#fff" offset="1"/>
</linearGradient>
</defs>
<g transform="translate(0 -263.13)">
<path d="m4.5714 264.1v32.612h24.724v-18.3c-0.04716-0.8313-0.10165-1.5753-0.3125-2.3297-0.21448-0.76736-0.55247-1.4939-0.95641-2.1892-0.51687-0.8897-1.3904-1.4633-2.1667-2.1925-0.47098-0.42711-1.4882-1.4417-2.7195-2.653-1.2212-1.2014-2.6535-2.5969-3.8492-3.6811-0.35316-0.3187-0.86616-0.64943-1.3428-0.84044-0.37009-0.14831-0.80547-0.24063-1.2258-0.30267-0.43345-0.064-0.85093-0.0958-1.1644-0.12361z" opacity=".25"/>
<path d="m4.5714 263.57v32.612h24.724v-18.3c-0.04716-0.83129-0.10165-1.5753-0.3125-2.3297-0.21448-0.76736-0.55247-1.4939-0.95641-2.1892-0.51687-0.88969-1.3904-1.4633-2.1667-2.1925-0.47098-0.42712-1.4882-1.4417-2.7195-2.653-1.2212-1.2014-2.6535-2.5969-3.8492-3.6811-0.35316-0.3187-0.86616-0.64944-1.3428-0.84044-0.37009-0.14831-0.80547-0.24063-1.2258-0.30267-0.43345-0.064-0.85093-0.0958-1.1644-0.12361z" fill="url(#linearGradient1503)" stroke="#808080" stroke-width=".3"/>
<g transform="matrix(.26458 0 0 .26458 30.652 264.36)" fill="#4d4d4d" aria-label='io.write("Enter a message: userinput=io.read()  if userinput== "Hello world" then      print("Well Lua there!") else     print("Goodbye Lua!") end '>
<path d="m-91.055 19.047h0.91992v1.9082h0.71289v0.2793h-1.7852v-0.2793h0.71289v-1.6289h-0.56055zm0.56055-0.85156h0.35938v0.45508h-0.35938z"/>
<path d="m-87.945 19.299q-0.27344 0-0.41406 0.21289t-0.14062 0.63086q0 0.41602 0.14062 0.63086 0.14062 0.21289 0.41406 0.21289 0.27539 0 0.41602-0.21289 0.14062-0.21484 0.14062-0.63086 0-0.41797-0.14062-0.63086t-0.41602-0.21289zm0-0.30469q0.45508 0 0.69531 0.29492 0.24219 0.29492 0.24219 0.85352 0 0.56055-0.24024 0.85547-0.24023 0.29297-0.69726 0.29297-0.45508 0-0.69531-0.29297-0.24023-0.29492-0.24023-0.85547 0-0.55859 0.24023-0.85352t0.69531-0.29492z"/>
<path d="m-85.787 20.639h0.49219v0.5957h-0.49219z"/>
<path d="m-84.336 19.047h0.35547l0.38086 1.7676 0.3125-1.1289h0.30664l0.31641 1.1289 0.38086-1.7676h0.35547l-0.51172 2.1875h-0.34375l-0.34961-1.1992-0.34766 1.1992h-0.34375z"/>
<path d="m-79.674 19.498q-0.11523-0.08984-0.23438-0.13086-0.11914-0.04102-0.26172-0.04102-0.33594 0-0.51367 0.21094-0.17773 0.21094-0.17773 0.60938v1.0879h-0.36133v-2.1875h0.36133v0.42774q0.08984-0.23242 0.27539-0.35547 0.1875-0.125 0.44336-0.125 0.13281 0 0.24805 0.0332 0.11523 0.0332 0.2207 0.10352z"/>
<path d="m-79.023 19.047h0.91992v1.9082h0.71289v0.2793h-1.7852v-0.2793h0.71289v-1.6289h-0.56055zm0.56055-0.85156h0.35938v0.45508h-0.35938z"/>
<path d="m-75.918 18.426v0.62109h0.81641v0.2793h-0.81641v1.1875q0 0.24219 0.0918 0.33789 0.0918 0.0957 0.32031 0.0957h0.4043v0.28711h-0.43945q-0.4043 0-0.57031-0.16211-0.16602-0.16211-0.16602-0.55859v-1.1875h-0.58398v-0.2793h0.58398v-0.62109z"/>
<path d="m-72.539 20.051v0.17578h-1.5566v0.01172q0 0.35742 0.18555 0.55274 0.1875 0.19531 0.52734 0.19531 0.17188 0 0.35938-0.05469t0.40039-0.16602v0.35742q-0.20508 0.08398-0.39648 0.125-0.18945 0.04297-0.36719 0.04297-0.50976 0-0.79688-0.30469-0.28711-0.30664-0.28711-0.84375 0-0.52344 0.28125-0.83594t0.75-0.3125q0.41797 0 0.6582 0.2832 0.24219 0.2832 0.24219 0.77344zm-0.35938-0.10547q-0.0078-0.31641-0.15039-0.48047-0.14062-0.16602-0.40625-0.16602-0.25977 0-0.42773 0.17188-0.16797 0.17188-0.19922 0.47656z"/>
<path d="m-70.576 18.199q-0.25976 0.44531-0.38867 0.88867-0.12695 0.44141-0.12695 0.89062 0 0.44726 0.12695 0.89062 0.12891 0.44336 0.38867 0.89258h-0.3125q-0.29492-0.46484-0.43945-0.9043-0.14453-0.44141-0.14453-0.87891 0-0.43555 0.14453-0.87695 0.14453-0.44141 0.43945-0.90234z"/>
<path d="m-68.15 18.318v1.084h-0.33984v-1.084zm-0.74805 0v1.084h-0.33984v-1.084z"/>
<path d="m-67.107 18.318h1.7305v0.33203h-1.3359v0.86328h1.2773v0.33203h-1.2773v1.0566h1.373v0.33203h-1.7676z"/>
<path d="m-63.033 19.879v1.3555h-0.36133v-1.3555q0-0.29492-0.10352-0.43359-0.10352-0.13867-0.32422-0.13867-0.25195 0-0.38867 0.17969-0.13477 0.17774-0.13477 0.51172v1.2363h-0.35938v-2.1875h0.35938v0.32812q0.0957-0.1875 0.25977-0.2832 0.16406-0.09766 0.38867-0.09766 0.33398 0 0.49805 0.2207 0.16602 0.21875 0.16602 0.66406z"/>
<path d="m-61.48 18.426v0.62109h0.81641v0.2793h-0.81641v1.1875q0 0.24219 0.0918 0.33789 0.0918 0.0957 0.32031 0.0957h0.4043v0.28711h-0.43945q-0.4043 0-0.57031-0.16211-0.16602-0.16211-0.16602-0.55859v-1.1875h-0.58398v-0.2793h0.58398v-0.62109z"/>
<path d="m-58.102 20.051v0.17578h-1.5566v0.01172q0 0.35742 0.18555 0.55274 0.1875 0.19531 0.52734 0.19531 0.17188 0 0.35938-0.05469t0.40039-0.16602v0.35742q-0.20508 0.08398-0.39648 0.125-0.18945 0.04297-0.36719 0.04297-0.50976 0-0.79688-0.30469-0.28711-0.30664-0.28711-0.84375 0-0.52344 0.28125-0.83594t0.75-0.3125q0.41797 0 0.6582 0.2832 0.24219 0.2832 0.24219 0.77344zm-0.35938-0.10547q-0.0078-0.31641-0.15039-0.48047-0.14062-0.16602-0.40625-0.16602-0.25977 0-0.42773 0.17188-0.16797 0.17188-0.19922 0.47656z"/>
<path d="m-55.611 19.498q-0.11523-0.08984-0.23438-0.13086-0.11914-0.04102-0.26172-0.04102-0.33594 0-0.51367 0.21094-0.17773 0.21094-0.17773 0.60938v1.0879h-0.36133v-2.1875h0.36133v0.42774q0.08984-0.23242 0.27539-0.35547 0.1875-0.125 0.44336-0.125 0.13281 0 0.24805 0.0332 0.11523 0.0332 0.2207 0.10352z"/>
<path d="m-51.684 20.135h-0.11914q-0.31445 0-0.47461 0.11133-0.1582 0.10938-0.1582 0.32812 0 0.19727 0.11914 0.30664 0.11914 0.10938 0.33008 0.10938 0.29688 0 0.4668-0.20508 0.16992-0.20703 0.17188-0.57031v-0.08008zm0.69727-0.14844v1.248h-0.36133v-0.32422q-0.11524 0.19531-0.29102 0.28906-0.17383 0.0918-0.42383 0.0918-0.33398 0-0.5332-0.1875-0.19922-0.18945-0.19922-0.50586 0-0.36523 0.24414-0.55469 0.24609-0.18945 0.7207-0.18945h0.48242v-0.05664q-2e-3 -0.26172-0.13281-0.37891-0.13086-0.11914-0.41797-0.11914-0.18359 0-0.37109 0.05273t-0.36524 0.1543v-0.35938q0.19922-0.07617 0.38086-0.11328 0.18359-0.03906 0.35547-0.03906 0.27148 0 0.46289 0.08008 0.19336 0.08008 0.3125 0.24023 0.07422 0.09766 0.10547 0.24219 0.03125 0.14258 0.03125 0.42969z"/>
<path d="m-46.922 19.27q0.06641-0.14062 0.16797-0.20703 0.10352-0.06836 0.24805-0.06836 0.26367 0 0.37109 0.20508 0.10938 0.20312 0.10938 0.76758v1.2676h-0.32812v-1.252q0-0.46289-0.05273-0.57422-0.05078-0.11328-0.1875-0.11328-0.15625 0-0.21484 0.12109-0.05664 0.11914-0.05664 0.56641v1.252h-0.32812v-1.252q0-0.46875-0.05664-0.57812-0.05469-0.10938-0.19922-0.10938-0.14258 0-0.19922 0.12109-0.05469 0.11914-0.05469 0.56641v1.252h-0.32617v-2.1875h0.32617v0.1875q0.06445-0.11719 0.16016-0.17773 0.09766-0.0625 0.2207-0.0625 0.14844 0 0.24609 0.06836 0.09961 0.06836 0.1543 0.20703z"/>
<path d="m-43.664 20.051v0.17578h-1.5566v0.01172q0 0.35742 0.18555 0.55274 0.1875 0.19531 0.52734 0.19531 0.17188 0 0.35938-0.05469t0.40039-0.16602v0.35742q-0.20508 0.08398-0.39648 0.125-0.18945 0.04297-0.36719 0.04297-0.50976 0-0.79688-0.30469-0.28711-0.30664-0.28711-0.84375 0-0.52344 0.28125-0.83594t0.75-0.3125q0.41797 0 0.6582 0.2832 0.24219 0.2832 0.24219 0.77344zm-0.35938-0.10547q-0.0078-0.31641-0.15039-0.48047-0.14062-0.16602-0.40625-0.16602-0.25977 0-0.42773 0.17188-0.16797 0.17188-0.19922 0.47656z"/>
<path d="m-41.529 19.123v0.35156q-0.1543-0.08984-0.31055-0.13477-0.15625-0.04492-0.31836-0.04492-0.24414 0-0.36523 0.08008-0.11914 0.07813-0.11914 0.24024 0 0.14648 0.08984 0.21875 0.08984 0.07227 0.44726 0.14062l0.14453 0.02734q0.26758 0.05078 0.4043 0.20312 0.13867 0.15234 0.13867 0.39648 0 0.32422-0.23047 0.50781-0.23047 0.18164-0.64062 0.18164-0.16211 0-0.33984-0.03516-0.17774-0.0332-0.38477-0.10156v-0.37109q0.20117 0.10352 0.38477 0.15625 0.18359 0.05078 0.34766 0.05078 0.23828 0 0.36914-0.0957 0.13086-0.09766 0.13086-0.27148 0-0.25-0.47852-0.3457l-0.01563-0.0039-0.13476-0.02734q-0.31055-0.06055-0.45312-0.20312-0.14258-0.14453-0.14258-0.39258 0-0.31445 0.21289-0.48438 0.21289-0.17188 0.60742-0.17188 0.17578 0 0.33789 0.0332 0.16211 0.03125 0.31836 0.0957z"/>
<path d="m-39.123 19.123v0.35156q-0.1543-0.08984-0.31055-0.13477-0.15625-0.04492-0.31836-0.04492-0.24414 0-0.36523 0.08008-0.11914 0.07813-0.11914 0.24024 0 0.14648 0.08984 0.21875 0.08984 0.07227 0.44726 0.14062l0.14453 0.02734q0.26758 0.05078 0.4043 0.20312 0.13867 0.15234 0.13867 0.39648 0 0.32422-0.23047 0.50781-0.23047 0.18164-0.64062 0.18164-0.16211 0-0.33984-0.03516-0.17774-0.0332-0.38477-0.10156v-0.37109q0.20117 0.10352 0.38477 0.15625 0.18359 0.05078 0.34766 0.05078 0.23828 0 0.36914-0.0957 0.13086-0.09766 0.13086-0.27148 0-0.25-0.47852-0.3457l-0.01563-0.0039-0.13476-0.02734q-0.31055-0.06055-0.45312-0.20312-0.14258-0.14453-0.14258-0.39258 0-0.31445 0.21289-0.48438 0.21289-0.17188 0.60742-0.17188 0.17578 0 0.33789 0.0332 0.16211 0.03125 0.31836 0.0957z"/>
<path d="m-37.246 20.135h-0.11914q-0.31445 0-0.47461 0.11133-0.1582 0.10938-0.1582 0.32812 0 0.19727 0.11914 0.30664 0.11914 0.10938 0.33008 0.10938 0.29688 0 0.4668-0.20508 0.16992-0.20703 0.17188-0.57031v-0.08008zm0.69727-0.14844v1.248h-0.36133v-0.32422q-0.11524 0.19531-0.29102 0.28906-0.17383 0.0918-0.42383 0.0918-0.33398 0-0.5332-0.1875-0.19922-0.18945-0.19922-0.50586 0-0.36523 0.24414-0.55469 0.24609-0.18945 0.7207-0.18945h0.48242v-0.05664q-2e-3 -0.26172-0.13281-0.37891-0.13086-0.11914-0.41797-0.11914-0.18359 0-0.37109 0.05273t-0.36524 0.1543v-0.35938q0.19922-0.07617 0.38086-0.11328 0.18359-0.03906 0.35547-0.03906 0.27148 0 0.46289 0.08008 0.19336 0.08008 0.3125 0.24023 0.07422 0.09766 0.10547 0.24219 0.03125 0.14258 0.03125 0.42969z"/>
<path d="m-34.535 20.123q0-0.4043-0.13281-0.61328-0.13086-0.21094-0.38281-0.21094-0.26367 0-0.40234 0.21094-0.13867 0.20898-0.13867 0.61328t0.13867 0.61719q0.14062 0.21094 0.40625 0.21094 0.24805 0 0.37891-0.21289 0.13281-0.21289 0.13281-0.61523zm0.35938 0.9707q0 0.49219-0.23242 0.74609t-0.68359 0.25391q-0.14844 0-0.31055-0.02734-0.16211-0.02734-0.32422-0.08008v-0.35547q0.19141 0.08984 0.34766 0.13281 0.15625 0.04297 0.28711 0.04297 0.29102 0 0.42383-0.1582 0.13281-0.1582 0.13281-0.50195v-0.25977q-0.08594 0.18359-0.23438 0.27344-0.14844 0.08984-0.36133 0.08984-0.38281 0-0.61133-0.30664-0.22852-0.30664-0.22852-0.82031 0-0.51562 0.22852-0.82227 0.22852-0.30664 0.61133-0.30664 0.21094 0 0.35742 0.08398 0.14648 0.08398 0.23828 0.25977v-0.2832h0.35938z"/>
<path d="m-31.633 20.051v0.17578h-1.5566v0.01172q0 0.35742 0.18555 0.55274 0.1875 0.19531 0.52734 0.19531 0.17188 0 0.35938-0.05469t0.40039-0.16602v0.35742q-0.20508 0.08398-0.39648 0.125-0.18945 0.04297-0.36719 0.04297-0.50976 0-0.79688-0.30469-0.28711-0.30664-0.28711-0.84375 0-0.52344 0.28125-0.83594t0.75-0.3125q0.41797 0 0.6582 0.2832 0.24219 0.2832 0.24219 0.77344zm-0.35938-0.10547q-0.007813-0.31641-0.15039-0.48047-0.14062-0.16602-0.40625-0.16602-0.25977 0-0.42773 0.17188-0.16797 0.17188-0.19922 0.47656z"/>
<path d="m-30.443 19.158h0.49219v0.5918h-0.49219zm0 1.4805h0.49219v0.5957h-0.49219z"/>
<path d="m-91.174 27.073v-1.3555h0.35938v1.3555q0 0.29492 0.10352 0.43359 0.10547 0.13867 0.32422 0.13867 0.25391 0 0.38867-0.17774 0.13477-0.17969 0.13477-0.51367v-1.2363h0.36133v2.1836h-0.36133v-0.32812q-0.0957 0.18945-0.26172 0.28711-0.16406 0.09766-0.38477 0.09766-0.33594 0-0.5-0.21875-0.16406-0.2207-0.16406-0.66602z"/>
<path d="m-87.248 25.79v0.35156q-0.1543-0.08984-0.31055-0.13476-0.15625-0.04492-0.31836-0.04492-0.24414 0-0.36523 0.08008-0.11914 0.07813-0.11914 0.24023 0 0.14648 0.08984 0.21875 0.08984 0.07227 0.44726 0.14062l0.14453 0.02734q0.26758 0.05078 0.4043 0.20312 0.13867 0.15234 0.13867 0.39648 0 0.32422-0.23047 0.50781-0.23047 0.18164-0.64062 0.18164-0.16211 0-0.33984-0.03516-0.17774-0.0332-0.38477-0.10156v-0.37109q0.20117 0.10352 0.38477 0.15625 0.18359 0.05078 0.34766 0.05078 0.23828 0 0.36914-0.0957 0.13086-0.097655 0.13086-0.27148 0-0.25-0.47852-0.3457l-0.01563-0.0039-0.13476-0.02734q-0.31055-0.06055-0.45312-0.20312-0.14258-0.14453-0.14258-0.39258 0-0.31445 0.21289-0.48438 0.21289-0.17188 0.60742-0.17188 0.17578 0 0.33789 0.0332 0.16211 0.03125 0.31836 0.0957z"/>
<path d="m-84.57 26.717v0.17578h-1.5566v0.01172q0 0.35742 0.18555 0.55274 0.1875 0.19531 0.52734 0.19531 0.17188 0 0.35938-0.05469t0.40039-0.16602v0.35742q-0.20508 0.08398-0.39648 0.125-0.18945 0.04297-0.36719 0.04297-0.50976 0-0.79688-0.30469-0.28711-0.30664-0.28711-0.84375 0-0.52344 0.28125-0.83594t0.75-0.3125q0.41797 0 0.6582 0.2832 0.24219 0.2832 0.24219 0.77344zm-0.35938-0.10547q-0.0078-0.31641-0.15039-0.48047-0.14062-0.16602-0.40625-0.16602-0.25977 0-0.42773 0.17188-0.16797 0.17188-0.19922 0.47656z"/>
<path d="m-82.08 26.165q-0.11523-0.08984-0.23438-0.13086-0.11914-0.04102-0.26172-0.04102-0.33594 0-0.51367 0.21094-0.17773 0.21094-0.17773 0.60938v1.0879h-0.36133v-2.1875h0.36133v0.42773q0.08984-0.23242 0.27539-0.35547 0.1875-0.125 0.44336-0.125 0.13281 0 0.24805 0.0332 0.11523 0.0332 0.2207 0.10352z"/>
<path d="m-81.43 25.714h0.91992v1.9082h0.71289v0.2793h-1.7852v-0.2793h0.71289v-1.6289h-0.56055zm0.56055-0.85156h0.35938v0.45508h-0.35938z"/>
<path d="m-77.471 26.546v1.3555h-0.36133v-1.3555q0-0.29492-0.10352-0.43359-0.10352-0.13867-0.32422-0.13867-0.25195 0-0.38867 0.17969-0.13477 0.17774-0.13477 0.51172v1.2363h-0.35938v-2.1875h0.35938v0.32812q0.0957-0.1875 0.25977-0.2832 0.16406-0.09766 0.38867-0.09766 0.33398 0 0.49805 0.2207 0.16602 0.21875 0.16602 0.66406z"/>
<path d="m-76.385 27.626v1.1074h-0.36133v-3.0195h0.36133v0.2793q0.08984-0.16211 0.23828-0.24609 0.15039-0.08594 0.3457-0.08594 0.39648 0 0.62109 0.30664 0.22656 0.30664 0.22656 0.84961 0 0.5332-0.22656 0.83789-0.22656 0.30274-0.62109 0.30274-0.19922 0-0.34961-0.08399-0.14844-0.08594-0.23438-0.24805zm1.0547-0.81641q0-0.41797-0.13281-0.63086-0.13086-0.21289-0.39062-0.21289-0.26172 0-0.39648 0.21484-0.13477 0.21289-0.13477 0.62891 0 0.41406 0.13477 0.62891 0.13477 0.21484 0.39648 0.21484 0.25977 0 0.39062-0.21289 0.13281-0.21289 0.13281-0.63086z"/>
<path d="m-74.33 27.073v-1.3555h0.35938v1.3555q0 0.29492 0.10352 0.43359 0.10547 0.13867 0.32422 0.13867 0.25391 0 0.38867-0.17774 0.13477-0.17969 0.13477-0.51367v-1.2363h0.36133v2.1836h-0.36133v-0.32812q-0.0957 0.18945-0.26172 0.28711-0.16406 0.09766-0.38477 0.09766-0.33594 0-0.5-0.21875-0.16406-0.2207-0.16406-0.66602z"/>
<path d="m-71.105 25.092v0.62109h0.81641v0.2793h-0.81641v1.1875q0 0.24219 0.0918 0.33789 0.0918 0.0957 0.32031 0.0957h0.4043v0.28711h-0.43945q-0.4043 0-0.57031-0.16211-0.16602-0.16211-0.16602-0.55859v-1.1875h-0.58398v-0.2793h0.58398v-0.62109z"/>
<path d="m-69.727 26.878h2.0645v0.33594h-2.0645zm0-0.79297h2.0645v0.33203h-2.0645z"/>
<path d="m-66.992 25.714h0.91992v1.9082h0.71289v0.2793h-1.7852v-0.2793h0.71289v-1.6289h-0.56055zm0.56055-0.85156h0.35938v0.45508h-0.35938z"/>
<path d="m-63.883 25.965q-0.27344 0-0.41406 0.21289-0.14062 0.21289-0.14062 0.63086 0 0.41602 0.14062 0.63086 0.14062 0.21289 0.41406 0.21289 0.27539 0 0.41602-0.21289 0.14062-0.21484 0.14062-0.63086 0-0.41797-0.14062-0.63086-0.14062-0.21289-0.41602-0.21289zm0-0.30469q0.45508 0 0.69531 0.29492 0.24219 0.29492 0.24219 0.85352 0 0.56055-0.24024 0.85547-0.24023 0.29297-0.69726 0.29297-0.45508 0-0.69531-0.29297-0.24023-0.29492-0.24023-0.85547 0-0.55859 0.24023-0.85352 0.24023-0.29492 0.69531-0.29492z"/>
<path d="m-61.725 27.305h0.49219v0.5957h-0.49219z"/>
<path d="m-58.018 26.165q-0.11523-0.08984-0.23438-0.13086-0.11914-0.04102-0.26172-0.04102-0.33594 0-0.51367 0.21094-0.17773 0.21094-0.17773 0.60938v1.0879h-0.36133v-2.1875h0.36133v0.42773q0.08984-0.23242 0.27539-0.35547 0.1875-0.125 0.44336-0.125 0.13281 0 0.24805 0.0332 0.11523 0.0332 0.2207 0.10352z"/>
<path d="m-55.695 26.717v0.17578h-1.5566v0.01172q0 0.35742 0.18555 0.55274 0.1875 0.19531 0.52734 0.19531 0.17188 0 0.35938-0.05469t0.40039-0.16602v0.35742q-0.20508 0.08398-0.39648 0.125-0.18945 0.04297-0.36719 0.04297-0.50976 0-0.79688-0.30469-0.28711-0.30664-0.28711-0.84375 0-0.52344 0.28125-0.83594t0.75-0.3125q0.41797 0 0.6582 0.2832 0.24219 0.2832 0.24219 0.77344zm-0.35938-0.10547q-0.0078-0.31641-0.15039-0.48047-0.14062-0.16602-0.40625-0.16602-0.25977 0-0.42773 0.17188-0.16797 0.17188-0.19922 0.47656z"/>
<path d="m-54.09 26.801h-0.11914q-0.31445 0-0.47461 0.11133-0.1582 0.10938-0.1582 0.32812 0 0.19726 0.11914 0.30664 0.11914 0.10938 0.33008 0.10938 0.29688 0 0.4668-0.20508 0.16992-0.20703 0.17188-0.57031v-0.08008zm0.69727-0.14844v1.248h-0.36133v-0.32422q-0.11524 0.19531-0.29102 0.28906-0.17383 0.0918-0.42383 0.0918-0.33398 0-0.5332-0.1875-0.19922-0.18945-0.19922-0.50586 0-0.36523 0.24414-0.55469 0.24609-0.18945 0.7207-0.18945h0.48242v-0.05664q-2e-3 -0.26172-0.13281-0.37891-0.13086-0.11914-0.41797-0.11914-0.18359 0-0.37109 0.05273t-0.36524 0.1543v-0.35938q0.19922-0.07617 0.38086-0.11328 0.18359-0.03906 0.35547-0.03906 0.27148 0 0.46289 0.08008 0.19336 0.08008 0.3125 0.24023 0.07422 0.09766 0.10547 0.24219 0.03125 0.14258 0.03125 0.42969z"/>
<path d="m-51.379 25.993v-1.1309h0.35938v3.0391h-0.35938v-0.27539q-0.08984 0.16211-0.24024 0.24805-0.14844 0.08399-0.34375 0.08399-0.39648 0-0.625-0.30664-0.22656-0.30859-0.22656-0.84961 0-0.5332 0.22852-0.83594 0.22852-0.30469 0.62305-0.30469 0.19727 0 0.34766 0.08594 0.15039 0.08398 0.23633 0.24609zm-1.0566 0.81641q0 0.41797 0.13281 0.63086 0.13281 0.21289 0.39258 0.21289 0.25976 0 0.39453-0.21484 0.13672-0.21484 0.13672-0.62891 0-0.41602-0.13672-0.62891-0.13477-0.21484-0.39453-0.21484-0.25977 0-0.39258 0.21289-0.13281 0.21289-0.13281 0.63086z"/>
<path d="m-48.92 24.866q-0.25976 0.44531-0.38867 0.88867-0.12695 0.44141-0.12695 0.89062 0 0.44726 0.12695 0.89062 0.12891 0.44336 0.38867 0.89258h-0.3125q-0.29492-0.46484-0.43945-0.9043-0.14453-0.44141-0.14453-0.87891 0-0.43555 0.14453-0.87695 0.14453-0.44141 0.43945-0.90234z"/>
<path d="m-47.562 24.866h0.3125q0.29492 0.46094 0.43945 0.90234 0.14453 0.44141 0.14453 0.87695 0 0.43945-0.14453 0.88086t-0.43945 0.90234h-0.3125q0.25977-0.45312 0.38672-0.89648 0.12891-0.44336 0.12891-0.88672 0-0.44531-0.12891-0.88867-0.12695-0.44336-0.38672-0.89062z"/>
<path d="m-91.055 39.047h0.91992v1.9082h0.71289v0.2793h-1.7852v-0.2793h0.71289v-1.6289h-0.56055zm0.56055-0.85156h0.35938v0.45508h-0.35938z"/>
<path d="m-87.072 38.195v0.29883h-0.4082q-0.19336 0-0.26953 0.08008-0.07422 0.07813-0.07422 0.2793v0.19336h0.75195v0.2793h-0.75195v1.9082h-0.35938v-1.9082h-0.58398v-0.2793h0.58398v-0.15234q0-0.35938 0.16406-0.5293 0.16602-0.16992 0.51562-0.16992z"/>
<path d="m-83.955 40.406v-1.3555h0.35938v1.3555q0 0.29492 0.10352 0.43359 0.10547 0.13867 0.32422 0.13867 0.25391 0 0.38867-0.17774 0.13477-0.17969 0.13477-0.51367v-1.2363h0.36133v2.1836h-0.36133v-0.32812q-0.0957 0.18945-0.26172 0.28711-0.16406 0.09766-0.38477 0.09766-0.33594 0-0.5-0.21875-0.16406-0.2207-0.16406-0.66602z"/>
<path d="m-80.029 39.123v0.35156q-0.1543-0.08984-0.31055-0.13476-0.15625-0.04492-0.31836-0.04492-0.24414 0-0.36523 0.08008-0.11914 0.07813-0.11914 0.24023 0 0.14648 0.08984 0.21875 0.08984 0.07227 0.44726 0.14062l0.14453 0.02734q0.26758 0.05078 0.4043 0.20312 0.13867 0.15234 0.13867 0.39648 0 0.32422-0.23047 0.50781-0.23047 0.18164-0.64062 0.18164-0.16211 0-0.33984-0.03516-0.17774-0.0332-0.38477-0.10156v-0.37109q0.20117 0.10352 0.38477 0.15625 0.18359 0.05078 0.34766 0.05078 0.23828 0 0.36914-0.0957 0.13086-0.09766 0.13086-0.27148 0-0.25-0.47852-0.3457l-0.01563-0.0039-0.13476-0.02734q-0.31055-0.06055-0.45312-0.20312-0.14258-0.14453-0.14258-0.39258 0-0.31445 0.21289-0.48438 0.21289-0.17188 0.60742-0.17188 0.17578 0 0.33789 0.0332 0.16211 0.03125 0.31836 0.0957z"/>
<path d="m-77.352 40.051v0.17578h-1.5566v0.01172q0 0.35742 0.18555 0.55274 0.1875 0.19531 0.52734 0.19531 0.17188 0 0.35938-0.05469t0.40039-0.16602v0.35742q-0.20508 0.08398-0.39648 0.125-0.18945 0.04297-0.36719 0.04297-0.50976 0-0.79688-0.30469-0.28711-0.30664-0.28711-0.84375 0-0.52344 0.28125-0.83594t0.75-0.3125q0.41797 0 0.6582 0.2832 0.24219 0.2832 0.24219 0.77344zm-0.35938-0.10547q-0.0078-0.31641-0.15039-0.48047-0.14062-0.16602-0.40625-0.16602-0.25977 0-0.42773 0.17188-0.16797 0.17188-0.19922 0.47656z"/>
<path d="m-74.861 39.498q-0.11523-0.08984-0.23438-0.13086t-0.26172-0.04102q-0.33594 0-0.51367 0.21094-0.17773 0.21094-0.17773 0.60938v1.0879h-0.36133v-2.1875h0.36133v0.42773q0.08984-0.23242 0.27539-0.35547 0.1875-0.125 0.44336-0.125 0.13281 0 0.24805 0.0332 0.11523 0.0332 0.2207 0.10352z"/>
<path d="m-74.211 39.047h0.91992v1.9082h0.71289v0.2793h-1.7852v-0.2793h0.71289v-1.6289h-0.56055zm0.56055-0.85156h0.35938v0.45508h-0.35938z"/>
<path d="m-70.252 39.879v1.3555h-0.36133v-1.3555q0-0.29492-0.10352-0.43359-0.10352-0.13867-0.32422-0.13867-0.25195 0-0.38867 0.17969-0.13477 0.17773-0.13477 0.51172v1.2363h-0.35938v-2.1875h0.35938v0.32812q0.0957-0.1875 0.25977-0.2832 0.16406-0.09766 0.38867-0.09766 0.33398 0 0.49805 0.2207 0.16602 0.21875 0.16602 0.66406z"/>
<path d="m-69.166 40.959v1.1074h-0.36133v-3.0195h0.36133v0.2793q0.08984-0.16211 0.23828-0.24609 0.15039-0.08594 0.3457-0.08594 0.39648 0 0.62109 0.30664 0.22656 0.30664 0.22656 0.84961 0 0.5332-0.22656 0.83789-0.22656 0.30274-0.62109 0.30274-0.19922 0-0.34961-0.08399-0.14844-0.08594-0.23438-0.24805zm1.0547-0.81641q0-0.41797-0.13281-0.63086-0.13086-0.21289-0.39062-0.21289-0.26172 0-0.39648 0.21484-0.13477 0.21289-0.13477 0.62891 0 0.41406 0.13477 0.62891 0.13477 0.21484 0.39648 0.21484 0.25977 0 0.39062-0.21289 0.13281-0.21289 0.13281-0.63086z"/>
<path d="m-67.111 40.406v-1.3555h0.35938v1.3555q0 0.29492 0.10352 0.43359 0.10547 0.13867 0.32422 0.13867 0.25391 0 0.38867-0.17774 0.13477-0.17969 0.13477-0.51367v-1.2363h0.36133v2.1836h-0.36133v-0.32812q-0.0957 0.18945-0.26172 0.28711-0.16406 0.09766-0.38477 0.09766-0.33594 0-0.5-0.21875-0.16406-0.2207-0.16406-0.66602z"/>
<path d="m-63.887 38.426v0.62109h0.81641v0.2793h-0.81641v1.1875q0 0.24219 0.0918 0.33789 0.0918 0.0957 0.32031 0.0957h0.4043v0.28711h-0.43945q-0.4043 0-0.57031-0.16211-0.16602-0.16211-0.16602-0.55859v-1.1875h-0.58398v-0.2793h0.58398v-0.62109z"/>
<path d="m-62.508 40.211h2.0645v0.33594h-2.0645zm0-0.79297h2.0645v0.33203h-2.0645z"/>
<path d="m-60.102 40.211h2.0645v0.33594h-2.0645zm0-0.79297h2.0645v0.33203h-2.0645z"/>
<path d="m-53.713 38.318v1.084h-0.33984v-1.084zm-0.74805 0v1.084h-0.33984v-1.084z"/>
<path d="m-52.787 38.318h0.39648v1.1953h1.0801v-1.1953h0.39648v2.916h-0.39648v-1.3887h-1.0801v1.3887h-0.39648z"/>
<path d="m-48.477 40.051v0.17578h-1.5566v0.01172q0 0.35742 0.18555 0.55274 0.1875 0.19531 0.52734 0.19531 0.17188 0 0.35938-0.05469t0.40039-0.16602v0.35742q-0.20508 0.08398-0.39648 0.125-0.18945 0.04297-0.36719 0.04297-0.50976 0-0.79688-0.30469-0.28711-0.30664-0.28711-0.84375 0-0.52344 0.28125-0.83594t0.75-0.3125q0.41797 0 0.6582 0.2832 0.24219 0.2832 0.24219 0.77344zm-0.35938-0.10547q-0.0078-0.31641-0.15039-0.48047-0.14062-0.16602-0.40625-0.16602-0.25977 0-0.42773 0.17188-0.16797 0.17188-0.19922 0.47656z"/>
<path d="m-46.994 40.441q0 0.24219 0.08789 0.36524 0.08984 0.12305 0.26367 0.12305h0.41992v0.30469h-0.45508q-0.32227 0-0.5-0.20703-0.17578-0.20703-0.17578-0.58594v-1.9863h-0.57617v-0.28125h0.93555z"/>
<path d="m-44.588 40.441q0 0.24219 0.08789 0.36524 0.08984 0.12305 0.26367 0.12305h0.41992v0.30469h-0.45508q-0.32227 0-0.5-0.20703-0.17578-0.20703-0.17578-0.58594v-1.9863h-0.57617v-0.28125h0.93555z"/>
<path d="m-42.227 39.299q-0.27344 0-0.41406 0.21289-0.14062 0.21289-0.14062 0.63086 0 0.41602 0.14062 0.63086 0.14062 0.21289 0.41406 0.21289 0.27539 0 0.41602-0.21289 0.14062-0.21484 0.14062-0.63086 0-0.41797-0.14062-0.63086-0.14062-0.21289-0.41602-0.21289zm0-0.30469q0.45508 0 0.69531 0.29492 0.24219 0.29492 0.24219 0.85352 0 0.56055-0.24024 0.85547-0.24023 0.29297-0.69726 0.29297-0.45508 0-0.69531-0.29297-0.24023-0.29492-0.24023-0.85547 0-0.55859 0.24023-0.85352 0.24023-0.29492 0.69531-0.29492z"/>
<path d="m-38.617 39.047h0.35547l0.38086 1.7676 0.3125-1.1289h0.30664l0.31641 1.1289 0.38086-1.7676h0.35547l-0.51172 2.1875h-0.34375l-0.34961-1.1992-0.34766 1.1992h-0.34375z"/>
<path d="m-35.008 39.299q-0.27344 0-0.41406 0.21289-0.14062 0.21289-0.14062 0.63086 0 0.41602 0.14062 0.63086 0.14062 0.21289 0.41406 0.21289 0.27539 0 0.41602-0.21289 0.14062-0.21484 0.14062-0.63086 0-0.41797-0.14062-0.63086-0.14062-0.21289-0.41602-0.21289zm0-0.30469q0.45508 0 0.69531 0.29492 0.24219 0.29492 0.24219 0.85352 0 0.56055-0.24024 0.85547-0.24023 0.29297-0.69726 0.29297-0.45508 0-0.69531-0.29297-0.24023-0.29492-0.24023-0.85547 0-0.55859 0.24023-0.85352 0.24023-0.29492 0.69531-0.29492z"/>
<path d="m-31.549 39.498q-0.11523-0.08984-0.23438-0.13086t-0.26172-0.04102q-0.33594 0-0.51367 0.21094-0.17773 0.21094-0.17773 0.60938v1.0879h-0.36133v-2.1875h0.36133v0.42773q0.08984-0.23242 0.27539-0.35547 0.1875-0.125 0.44336-0.125 0.13281 0 0.24805 0.0332 0.11523 0.0332 0.2207 0.10352z"/>
<path d="m-30.15 40.441q0 0.24219 0.08789 0.36524 0.08984 0.12305 0.26367 0.12305h0.41992v0.30469h-0.45508q-0.32227 0-0.5-0.20703-0.17578-0.20703-0.17578-0.58594v-1.9863h-0.57617v-0.28125h0.93555z"/>
<path d="m-27.316 39.326v-1.1309h0.35938v3.0391h-0.35938v-0.27539q-0.08984 0.16211-0.24024 0.24805-0.14844 0.08399-0.34375 0.08399-0.39648 0-0.625-0.30664-0.22656-0.30859-0.22656-0.84961 0-0.5332 0.22852-0.83594 0.22852-0.30469 0.62305-0.30469 0.19727 0 0.34766 0.08594 0.15039 0.08398 0.23633 0.24609zm-1.0566 0.81641q0 0.41797 0.13281 0.63086 0.13281 0.21289 0.39258 0.21289 0.25976 0 0.39453-0.21484 0.13672-0.21484 0.13672-0.62891 0-0.41602-0.13672-0.62891-0.13477-0.21484-0.39453-0.21484-0.25977 0-0.39258 0.21289-0.13281 0.21289-0.13281 0.63086z"/>
<path d="m-24.838 38.318v1.084h-0.33984v-1.084zm-0.74805 0v1.084h-0.33984v-1.084z"/>
<path d="m-20.574 38.426v0.62109h0.81641v0.2793h-0.81641v1.1875q0 0.24219 0.0918 0.33789 0.0918 0.0957 0.32031 0.0957h0.4043v0.28711h-0.43945q-0.4043 0-0.57031-0.16211-0.16602-0.16211-0.16602-0.55859v-1.1875h-0.58398v-0.2793h0.58398v-0.62109z"/>
<path d="m-17.314 39.879v1.3555h-0.36133v-1.3555q0-0.29492-0.10352-0.43359-0.10352-0.13867-0.32422-0.13867-0.25195 0-0.38867 0.17969-0.13477 0.17773-0.13477 0.51172v1.2363h-0.35938v-3.0391h0.35938v1.1797q0.0957-0.1875 0.25977-0.2832 0.16406-0.09766 0.38867-0.09766 0.33398 0 0.49805 0.2207 0.16602 0.21875 0.16602 0.66406z"/>
<path d="m-14.789 40.051v0.17578h-1.5566v0.01172q0 0.35742 0.18555 0.55274 0.1875 0.19531 0.52734 0.19531 0.17188 0 0.35938-0.05469t0.40039-0.16602v0.35742q-0.20508 0.08398-0.39648 0.125-0.18945 0.04297-0.36719 0.04297-0.50976 0-0.79688-0.30469-0.28711-0.30664-0.28711-0.84375 0-0.52344 0.28125-0.83594t0.75-0.3125q0.41797 0 0.6582 0.2832 0.24219 0.2832 0.24219 0.77344zm-0.35938-0.10547q-0.0078-0.31641-0.15039-0.48047-0.14062-0.16602-0.40625-0.16602-0.25977 0-0.42773 0.17188-0.16797 0.17188-0.19922 0.47656z"/>
<path d="m-12.502 39.879v1.3555h-0.36133v-1.3555q0-0.29492-0.10352-0.43359-0.10352-0.13867-0.32422-0.13867-0.25195 0-0.38867 0.17969-0.13476 0.17773-0.13476 0.51172v1.2363h-0.35938v-2.1875h0.35938v0.32812q0.0957-0.1875 0.25976-0.2832 0.16406-0.09766 0.38867-0.09766 0.33398 0 0.49805 0.2207 0.16602 0.21875 0.16602 0.66406z"/>
<path d="m-81.197 47.626v1.1074h-0.36133v-3.0195h0.36133v0.2793q0.08984-0.16211 0.23828-0.24609 0.15039-0.08594 0.3457-0.08594 0.39648 0 0.62109 0.30664 0.22656 0.30664 0.22656 0.84961 0 0.5332-0.22656 0.83789-0.22656 0.30274-0.62109 0.30274-0.19922 0-0.34961-0.08398-0.14844-0.08594-0.23438-0.24805zm1.0547-0.81641q0-0.41797-0.13281-0.63086-0.13086-0.21289-0.39062-0.21289-0.26172 0-0.39648 0.21484-0.13477 0.21289-0.13477 0.62891 0 0.41406 0.13477 0.62891 0.13477 0.21484 0.39648 0.21484 0.25977 0 0.39062-0.21289 0.13281-0.21289 0.13281-0.63086z"/>
<path d="m-77.268 46.165q-0.11523-0.08984-0.23438-0.13086t-0.26172-0.04102q-0.33594 0-0.51367 0.21094-0.17773 0.21094-0.17773 0.60938v1.0879h-0.36133v-2.1875h0.36133v0.42773q0.08984-0.23242 0.27539-0.35547 0.1875-0.125 0.44336-0.125 0.13281 0 0.24805 0.0332 0.11523 0.0332 0.2207 0.10352z"/>
<path d="m-76.617 45.714h0.91992v1.9082h0.71289v0.2793h-1.7852v-0.2793h0.71289v-1.6289h-0.56055zm0.56055-0.85156h0.35938v0.45508h-0.35938z"/>
<path d="m-72.658 46.546v1.3555h-0.36133v-1.3555q0-0.29492-0.10352-0.43359-0.10352-0.13867-0.32422-0.13867-0.25195 0-0.38867 0.17969-0.13477 0.17773-0.13477 0.51172v1.2363h-0.35938v-2.1875h0.35938v0.32812q0.0957-0.1875 0.25977-0.2832 0.16406-0.09766 0.38867-0.09766 0.33398 0 0.49805 0.2207 0.16602 0.21875 0.16602 0.66406z"/>
<path d="m-71.105 45.092v0.62109h0.81641v0.2793h-0.81641v1.1875q0 0.24219 0.0918 0.33789 0.0918 0.0957 0.32031 0.0957h0.4043v0.28711h-0.43945q-0.4043 0-0.57031-0.16211-0.16602-0.16211-0.16602-0.55859v-1.1875h-0.58398v-0.2793h0.58398v-0.62109z"/>
<path d="m-68.17 44.866q-0.25976 0.44531-0.38867 0.88867-0.12695 0.44141-0.12695 0.89062 0 0.44726 0.12695 0.89062 0.12891 0.44336 0.38867 0.89258h-0.3125q-0.29492-0.46484-0.43945-0.9043-0.14453-0.44141-0.14453-0.87891 0-0.43555 0.14453-0.87695 0.14453-0.44141 0.43945-0.90234z"/>
<path d="m-65.744 44.985v1.084h-0.33984v-1.084zm-0.74805 0v1.084h-0.33984v-1.084z"/>
<path d="m-65.086 44.985h0.38476l0.2793 2.3672 0.33203-1.5664h0.41211l0.33594 1.5703 0.2793-2.3711h0.38477l-0.43555 2.916h-0.37305l-0.39648-1.7324-0.39453 1.7324h-0.37305z"/>
<path d="m-60.508 46.717v0.17578h-1.5566v0.01172q0 0.35742 0.18555 0.55274 0.1875 0.19531 0.52734 0.19531 0.17188 0 0.35938-0.05469t0.40039-0.16602v0.35742q-0.20508 0.08398-0.39648 0.125-0.18945 0.04297-0.36719 0.04297-0.50976 0-0.79688-0.30469-0.28711-0.30664-0.28711-0.84375 0-0.52344 0.28125-0.83594t0.75-0.3125q0.41797 0 0.6582 0.2832 0.24219 0.2832 0.24219 0.77344zm-0.35938-0.10547q-0.0078-0.31641-0.15039-0.48047-0.14062-0.16602-0.40625-0.16602-0.25977 0-0.42773 0.17188-0.16797 0.17188-0.19922 0.47656z"/>
<path d="m-59.025 47.108q0 0.24219 0.08789 0.36524 0.08984 0.12305 0.26367 0.12305h0.41992v0.30469h-0.45508q-0.32227 0-0.5-0.20703-0.17578-0.20703-0.17578-0.58594v-1.9863h-0.57617v-0.28125h0.93555z"/>
<path d="m-56.619 47.108q0 0.24219 0.08789 0.36524 0.08984 0.12305 0.26367 0.12305h0.41992v0.30469h-0.45508q-0.32227 0-0.5-0.20703-0.17578-0.20703-0.17578-0.58594v-1.9863h-0.57617v-0.28125h0.93555z"/>
<path d="m-52.635 44.985h0.39648v2.584h1.4082v0.33203h-1.8047z"/>
<path d="m-50.268 47.073v-1.3555h0.35938v1.3555q0 0.29492 0.10352 0.43359 0.10547 0.13867 0.32422 0.13867 0.25391 0 0.38867-0.17774 0.13477-0.17969 0.13477-0.51367v-1.2363h0.36133v2.1836h-0.36133v-0.32812q-0.0957 0.18945-0.26172 0.28711-0.16406 0.09766-0.38477 0.09766-0.33594 0-0.5-0.21875-0.16406-0.2207-0.16406-0.66602z"/>
<path d="m-46.871 46.801h-0.11914q-0.31445 0-0.47461 0.11133-0.1582 0.10938-0.1582 0.32812 0 0.19726 0.11914 0.30664 0.11914 0.10938 0.33008 0.10938 0.29688 0 0.4668-0.20508 0.16992-0.20703 0.17188-0.57031v-0.08008zm0.69727-0.14844v1.248h-0.36133v-0.32422q-0.11524 0.19531-0.29102 0.28906-0.17383 0.0918-0.42383 0.0918-0.33398 0-0.5332-0.1875-0.19922-0.18945-0.19922-0.50586 0-0.36523 0.24414-0.55469 0.24609-0.18945 0.7207-0.18945h0.48242v-0.05664q-2e-3 -0.26172-0.13281-0.37891-0.13086-0.11914-0.41797-0.11914-0.18359 0-0.37109 0.05273t-0.36524 0.1543v-0.35938q0.19922-0.07617 0.38086-0.11328 0.18359-0.03906 0.35547-0.03906 0.27148 0 0.46289 0.08008 0.19336 0.08008 0.3125 0.24023 0.07422 0.09766 0.10547 0.24219 0.03125 0.14258 0.03125 0.42969z"/>
<path d="m-42.23 45.092v0.62109h0.81641v0.2793h-0.81641v1.1875q0 0.24219 0.0918 0.33789 0.0918 0.0957 0.32031 0.0957h0.4043v0.28711h-0.43945q-0.4043 0-0.57031-0.16211-0.16602-0.16211-0.16602-0.55859v-1.1875h-0.58398v-0.2793h0.58398v-0.62109z"/>
<path d="m-38.971 46.546v1.3555h-0.36133v-1.3555q0-0.29492-0.10352-0.43359-0.10352-0.13867-0.32422-0.13867-0.25195 0-0.38867 0.17969-0.13477 0.17773-0.13477 0.51172v1.2363h-0.35938v-3.0391h0.35938v1.1797q0.0957-0.1875 0.25977-0.2832 0.16406-0.09766 0.38867-0.09766 0.33398 0 0.49805 0.2207 0.16602 0.21875 0.16602 0.66406z"/>
<path d="m-36.445 46.717v0.17578h-1.5566v0.01172q0 0.35742 0.18555 0.55274 0.1875 0.19531 0.52734 0.19531 0.17188 0 0.35938-0.05469t0.40039-0.16602v0.35742q-0.20508 0.08398-0.39648 0.125-0.18945 0.04297-0.36719 0.04297-0.50976 0-0.79688-0.30469-0.28711-0.30664-0.28711-0.84375 0-0.52344 0.28125-0.83594t0.75-0.3125q0.41797 0 0.6582 0.2832 0.24219 0.2832 0.24219 0.77344zm-0.35938-0.10547q-0.0078-0.31641-0.15039-0.48047-0.14062-0.16602-0.40625-0.16602-0.25977 0-0.42773 0.17188-0.16797 0.17188-0.19922 0.47656z"/>
<path d="m-33.955 46.165q-0.11523-0.08984-0.23438-0.13086t-0.26172-0.04102q-0.33594 0-0.51367 0.21094-0.17773 0.21094-0.17773 0.60938v1.0879h-0.36133v-2.1875h0.36133v0.42773q0.08984-0.23242 0.27539-0.35547 0.1875-0.125 0.44336-0.125 0.13281 0 0.24805 0.0332 0.11523 0.0332 0.2207 0.10352z"/>
<path d="m-31.633 46.717v0.17578h-1.5566v0.01172q0 0.35742 0.18555 0.55274 0.1875 0.19531 0.52734 0.19531 0.17188 0 0.35938-0.05469t0.40039-0.16602v0.35742q-0.20508 0.08398-0.39648 0.125-0.18945 0.04297-0.36719 0.04297-0.50976 0-0.79688-0.30469-0.28711-0.30664-0.28711-0.84375 0-0.52344 0.28125-0.83594t0.75-0.3125q0.41797 0 0.6582 0.2832 0.24219 0.2832 0.24219 0.77344zm-0.35938-0.10547q-0.007813-0.31641-0.15039-0.48047-0.14062-0.16602-0.40625-0.16602-0.25977 0-0.42773 0.17188-0.16797 0.17188-0.19922 0.47656z"/>
<path d="m-30.391 44.985h0.39648v1.2793l-0.04102 0.69727h-0.31445l-0.04102-0.69727zm0 2.4199h0.39648v0.49609h-0.39648z"/>
<path d="m-27.244 44.985v1.084h-0.33984v-1.084zm-0.74805 0v1.084h-0.33984v-1.084z"/>
<path d="m-25.906 44.866h0.3125q0.29492 0.46094 0.43945 0.90234 0.14453 0.44141 0.14453 0.87695 0 0.43945-0.14453 0.88086t-0.43945 0.90234h-0.3125q0.25977-0.45312 0.38672-0.89648 0.12891-0.44336 0.12891-0.88672 0-0.44531-0.12891-0.88867-0.12695-0.44336-0.38672-0.89062z"/>
<path d="m-89.383 53.384v0.17578h-1.5566v0.01172q0 0.35742 0.18555 0.55273 0.1875 0.19531 0.52734 0.19531 0.17188 0 0.35938-0.05469t0.40039-0.16602v0.35742q-0.20508 0.08398-0.39648 0.125-0.18945 0.04297-0.36719 0.04297-0.50976 0-0.79688-0.30469-0.28711-0.30664-0.28711-0.84375 0-0.52344 0.28125-0.83594t0.75-0.3125q0.41797 0 0.6582 0.2832 0.24219 0.2832 0.24219 0.77344zm-0.35938-0.10547q-0.0078-0.31641-0.15039-0.48047-0.14062-0.16602-0.40625-0.16602-0.25977 0-0.42773 0.17188-0.16797 0.17188-0.19922 0.47656z"/>
<path d="m-87.9 53.775q0 0.24219 0.08789 0.36523 0.08984 0.12305 0.26367 0.12305h0.41992v0.30469h-0.45508q-0.32227 0-0.5-0.20703-0.17578-0.20703-0.17578-0.58594v-1.9863h-0.57617v-0.28125h0.93555z"/>
<path d="m-84.842 52.456v0.35156q-0.1543-0.08984-0.31055-0.13476-0.15625-0.04492-0.31836-0.04492-0.24414 0-0.36523 0.08008-0.11914 0.07813-0.11914 0.24023 0 0.14648 0.08984 0.21875 0.08984 0.07227 0.44726 0.14062l0.14453 0.02734q0.26758 0.05078 0.4043 0.20312 0.13867 0.15234 0.13867 0.39648 0 0.32422-0.23047 0.50781-0.23047 0.18164-0.64062 0.18164-0.16211 0-0.33984-0.03516-0.17774-0.0332-0.38477-0.10156v-0.37109q0.20117 0.10352 0.38477 0.15625 0.18359 0.05078 0.34766 0.05078 0.23828 0 0.36914-0.0957 0.13086-0.09766 0.13086-0.27148 0-0.25-0.47852-0.3457l-0.01563-0.0039-0.13476-0.02734q-0.31055-0.06055-0.45312-0.20312-0.14258-0.14453-0.14258-0.39258 0-0.31445 0.21289-0.48438 0.21289-0.17188 0.60742-0.17188 0.17578 0 0.33789 0.0332 0.16211 0.03125 0.31836 0.0957z"/>
<path d="m-82.164 53.384v0.17578h-1.5566v0.01172q0 0.35742 0.18555 0.55273 0.1875 0.19531 0.52734 0.19531 0.17188 0 0.35938-0.05469t0.40039-0.16602v0.35742q-0.20508 0.08398-0.39648 0.125-0.18945 0.04297-0.36719 0.04297-0.50976 0-0.79688-0.30469-0.28711-0.30664-0.28711-0.84375 0-0.52344 0.28125-0.83594t0.75-0.3125q0.41797 0 0.6582 0.2832 0.24219 0.2832 0.24219 0.77344zm-0.35938-0.10547q-0.0078-0.31641-0.15039-0.48047-0.14062-0.16602-0.40625-0.16602-0.25977 0-0.42773 0.17188-0.16797 0.17188-0.19922 0.47656z"/>
<path d="m-81.197 60.959v1.1074h-0.36133v-3.0195h0.36133v0.2793q0.08984-0.16211 0.23828-0.24609 0.15039-0.08594 0.3457-0.08594 0.39648 0 0.62109 0.30664 0.22656 0.30664 0.22656 0.84961 0 0.5332-0.22656 0.83789-0.22656 0.30273-0.62109 0.30273-0.19922 0-0.34961-0.08398-0.14844-0.08594-0.23438-0.24805zm1.0547-0.81641q0-0.41797-0.13281-0.63086-0.13086-0.21289-0.39062-0.21289-0.26172 0-0.39648 0.21484-0.13477 0.21289-0.13477 0.62891 0 0.41406 0.13477 0.62891t0.39648 0.21484q0.25977 0 0.39062-0.21289 0.13281-0.21289 0.13281-0.63086z"/>
<path d="m-77.268 59.498q-0.11523-0.08984-0.23438-0.13086t-0.26172-0.04102q-0.33594 0-0.51367 0.21094-0.17773 0.21094-0.17773 0.60938v1.0879h-0.36133v-2.1875h0.36133v0.42773q0.08984-0.23242 0.27539-0.35547 0.1875-0.125 0.44336-0.125 0.13281 0 0.24805 0.0332 0.11523 0.0332 0.2207 0.10352z"/>
<path d="m-76.617 59.047h0.91992v1.9082h0.71289v0.2793h-1.7852v-0.2793h0.71289v-1.6289h-0.56055zm0.56055-0.85156h0.35938v0.45508h-0.35938z"/>
<path d="m-72.658 59.879v1.3555h-0.36133v-1.3555q0-0.29492-0.10352-0.43359-0.10352-0.13867-0.32422-0.13867-0.25195 0-0.38867 0.17969-0.13477 0.17773-0.13477 0.51172v1.2363h-0.35938v-2.1875h0.35938v0.32812q0.0957-0.1875 0.25977-0.2832 0.16406-0.09766 0.38867-0.09766 0.33398 0 0.49805 0.2207 0.16602 0.21875 0.16602 0.66406z"/>
<path d="m-71.105 58.426v0.62109h0.81641v0.2793h-0.81641v1.1875q0 0.24219 0.0918 0.33789 0.0918 0.0957 0.32031 0.0957h0.4043v0.28711h-0.43945q-0.4043 0-0.57031-0.16211-0.16602-0.16211-0.16602-0.55859v-1.1875h-0.58398v-0.2793h0.58398v-0.62109z"/>
<path d="m-68.17 58.199q-0.25976 0.44531-0.38867 0.88867-0.12695 0.44141-0.12695 0.89062 0 0.44727 0.12695 0.89062 0.12891 0.44336 0.38867 0.89258h-0.3125q-0.29492-0.46484-0.43945-0.9043-0.14453-0.44141-0.14453-0.87891 0-0.43555 0.14453-0.87695 0.14453-0.44141 0.43945-0.90234z"/>
<path d="m-65.744 58.318v1.084h-0.33984v-1.084zm-0.74805 0v1.084h-0.33984v-1.084z"/>
<path d="m-62.93 60.994q-0.1582 0.14648-0.35742 0.22266-0.19727 0.07422-0.42774 0.07422-0.55469 0-0.86328-0.39648-0.30859-0.39844-0.30859-1.1152 0-0.71484 0.3125-1.1133 0.3125-0.40039 0.86914-0.40039 0.18359 0 0.35156 0.05273 0.16797 0.05078 0.32422 0.15625v0.4043q-0.1582-0.15039-0.32422-0.2207-0.16602-0.07227-0.35156-0.07227-0.38477 0-0.57812 0.29883-0.19141 0.29688-0.19141 0.89453 0 0.60742 0.18555 0.90039 0.1875 0.29102 0.57422 0.29102 0.13086 0 0.22852-0.0293 0.09961-0.03125 0.17969-0.0957v-0.7832h-0.42383v-0.32422h0.80078z"/>
<path d="m-61.477 59.299q-0.27344 0-0.41406 0.21289-0.14062 0.21289-0.14062 0.63086 0 0.41602 0.14062 0.63086 0.14062 0.21289 0.41406 0.21289 0.27539 0 0.41602-0.21289 0.14062-0.21484 0.14062-0.63086 0-0.41797-0.14062-0.63086-0.14062-0.21289-0.41602-0.21289zm0-0.30469q0.45508 0 0.69531 0.29492 0.24219 0.29492 0.24219 0.85352 0 0.56055-0.24024 0.85547-0.24023 0.29297-0.69726 0.29297-0.45508 0-0.69531-0.29297-0.24023-0.29492-0.24023-0.85547 0-0.55859 0.24023-0.85352t0.69531-0.29492z"/>
<path d="m-59.07 59.299q-0.27344 0-0.41406 0.21289-0.14062 0.21289-0.14062 0.63086 0 0.41602 0.14062 0.63086 0.14062 0.21289 0.41406 0.21289 0.27539 0 0.41602-0.21289 0.14062-0.21484 0.14062-0.63086 0-0.41797-0.14062-0.63086-0.14062-0.21289-0.41602-0.21289zm0-0.30469q0.45508 0 0.69531 0.29492 0.24219 0.29492 0.24219 0.85352 0 0.56055-0.24024 0.85547-0.24023 0.29297-0.69726 0.29297-0.45508 0-0.69531-0.29297-0.24023-0.29492-0.24023-0.85547 0-0.55859 0.24023-0.85352t0.69531-0.29492z"/>
<path d="m-56.191 59.326v-1.1309h0.35938v3.0391h-0.35938v-0.27539q-0.08984 0.16211-0.24024 0.24805-0.14844 0.08398-0.34375 0.08398-0.39648 0-0.625-0.30664-0.22656-0.30859-0.22656-0.84961 0-0.5332 0.22852-0.83594 0.22852-0.30469 0.62305-0.30469 0.19727 0 0.34766 0.08594 0.15039 0.08398 0.23633 0.24609zm-1.0566 0.81641q0 0.41797 0.13281 0.63086 0.13281 0.21289 0.39258 0.21289 0.25976 0 0.39453-0.21484 0.13672-0.21484 0.13672-0.62891 0-0.41602-0.13672-0.62891-0.13477-0.21484-0.39453-0.21484-0.25977 0-0.39258 0.21289-0.13281 0.21289-0.13281 0.63086z"/>
<path d="m-53.668 60.143q0-0.41797-0.13281-0.63086-0.13281-0.21289-0.39258-0.21289-0.26172 0-0.39648 0.21484-0.13476 0.21289-0.13476 0.62891 0 0.41406 0.13476 0.62891 0.13477 0.21484 0.39648 0.21484 0.25976 0 0.39258-0.21289 0.13281-0.21289 0.13281-0.63086zm-1.0566-0.81641q0.08594-0.16016 0.23633-0.24609 0.15234-0.08594 0.35156-0.08594 0.39453 0 0.62109 0.30469 0.22656 0.30273 0.22656 0.83594 0 0.54102-0.22852 0.84961-0.22656 0.30664-0.62305 0.30664-0.19531 0-0.3457-0.08398-0.14844-0.08594-0.23828-0.24805v0.27539h-0.35938v-3.0391h0.35938z"/>
<path d="m-51.379 60.531q-0.08984 0.22852-0.22852 0.60156-0.19336 0.51562-0.25976 0.62891-0.08984 0.15234-0.22461 0.22852-0.13476 0.07617-0.31445 0.07617h-0.28906v-0.30078h0.21289q0.1582 0 0.24805-0.0918 0.08984-0.0918 0.22852-0.47461l-0.8457-2.1523h0.38086l0.64844 1.7109 0.63867-1.7109h0.38086z"/>
<path d="m-48.477 60.051v0.17578h-1.5566v0.01172q0 0.35742 0.18555 0.55273 0.1875 0.19531 0.52734 0.19531 0.17188 0 0.35938-0.05469t0.40039-0.16602v0.35742q-0.20508 0.08398-0.39648 0.125-0.18945 0.04297-0.36719 0.04297-0.50976 0-0.79688-0.30469-0.28711-0.30664-0.28711-0.84375 0-0.52344 0.28125-0.83594t0.75-0.3125q0.41797 0 0.6582 0.2832 0.24219 0.2832 0.24219 0.77344zm-0.35938-0.10547q-0.0078-0.31641-0.15039-0.48047-0.14062-0.16602-0.40625-0.16602-0.25977 0-0.42773 0.17188-0.16797 0.17188-0.19922 0.47656z"/>
<path d="m-45.416 58.318h0.39648v2.584h1.4082v0.33203h-1.8047z"/>
<path d="m-43.049 60.406v-1.3555h0.35938v1.3555q0 0.29492 0.10352 0.43359 0.10547 0.13867 0.32422 0.13867 0.25391 0 0.38867-0.17773 0.13477-0.17969 0.13477-0.51367v-1.2363h0.36133v2.1836h-0.36133v-0.32812q-0.0957 0.18945-0.26172 0.28711-0.16406 0.09766-0.38477 0.09766-0.33594 0-0.5-0.21875-0.16406-0.2207-0.16406-0.66602z"/>
<path d="m-39.652 60.135h-0.11914q-0.31445 0-0.47461 0.11133-0.1582 0.10938-0.1582 0.32812 0 0.19726 0.11914 0.30664 0.11914 0.10938 0.33008 0.10938 0.29688 0 0.4668-0.20508 0.16992-0.20703 0.17188-0.57031v-0.08008zm0.69727-0.14844v1.248h-0.36133v-0.32422q-0.11524 0.19531-0.29102 0.28906-0.17383 0.0918-0.42383 0.0918-0.33398 0-0.5332-0.1875-0.19922-0.18945-0.19922-0.50586 0-0.36523 0.24414-0.55469 0.24609-0.18945 0.7207-0.18945h0.48242v-0.05664q-2e-3 -0.26172-0.13281-0.37891-0.13086-0.11914-0.41797-0.11914-0.18359 0-0.37109 0.05273t-0.36524 0.1543v-0.35938q0.19922-0.07617 0.38086-0.11328 0.18359-0.03906 0.35547-0.03906 0.27148 0 0.46289 0.08008 0.19336 0.08008 0.3125 0.24023 0.07422 0.09766 0.10547 0.24219 0.03125 0.14258 0.03125 0.42969z"/>
<path d="m-37.609 58.318h0.39648v1.2793l-0.04102 0.69727h-0.31445l-0.04102-0.69727zm0 2.4199h0.39648v0.49609h-0.39648z"/>
<path d="m-34.463 58.318v1.084h-0.33984v-1.084zm-0.74805 0v1.084h-0.33984v-1.084z"/>
<path d="m-33.125 58.199h0.3125q0.29492 0.46094 0.43945 0.90234 0.14453 0.44141 0.14453 0.87695 0 0.43945-0.14453 0.88086t-0.43945 0.90234h-0.3125q0.25977-0.45312 0.38672-0.89648 0.12891-0.44336 0.12891-0.88672 0-0.44531-0.12891-0.88867-0.12695-0.44336-0.38672-0.89062z"/>
<path d="m-89.383 66.717v0.17578h-1.5566v0.01172q0 0.35742 0.18555 0.55273 0.1875 0.19531 0.52734 0.19531 0.17188 0 0.35938-0.05469t0.40039-0.16602v0.35742q-0.20508 0.08398-0.39648 0.125-0.18945 0.04297-0.36719 0.04297-0.50976 0-0.79688-0.30469-0.28711-0.30664-0.28711-0.84375 0-0.52344 0.28125-0.83594t0.75-0.3125q0.41797 0 0.6582 0.2832 0.24219 0.2832 0.24219 0.77344zm-0.35938-0.10547q-0.0078-0.31641-0.15039-0.48047-0.14062-0.16602-0.40625-0.16602-0.25977 0-0.42773 0.17188-0.16797 0.17188-0.19922 0.47656z"/>
<path d="m-87.096 66.546v1.3555h-0.36133v-1.3555q0-0.29492-0.10352-0.43359-0.10352-0.13867-0.32422-0.13867-0.25195 0-0.38867 0.17969-0.13477 0.17773-0.13477 0.51172v1.2363h-0.35938v-2.1875h0.35938v0.32812q0.0957-0.1875 0.25977-0.2832 0.16406-0.09766 0.38867-0.09766 0.33398 0 0.49805 0.2207 0.16602 0.21875 0.16602 0.66406z"/>
<path d="m-85.066 65.993v-1.1309h0.35938v3.0391h-0.35938v-0.27539q-0.08984 0.16211-0.24024 0.24805-0.14844 0.08398-0.34375 0.08398-0.39648 0-0.625-0.30664-0.22656-0.30859-0.22656-0.84961 0-0.5332 0.22852-0.83594 0.22852-0.30469 0.62305-0.30469 0.19727 0 0.34766 0.08594 0.15039 0.08398 0.23633 0.24609zm-1.0566 0.81641q0 0.41797 0.13281 0.63086 0.13281 0.21289 0.39258 0.21289 0.25976 0 0.39453-0.21484 0.13672-0.21484 0.13672-0.62891 0-0.41602-0.13672-0.62891-0.13477-0.21484-0.39453-0.21484-0.25977 0-0.39258 0.21289-0.13281 0.21289-0.13281 0.63086z"/>
</g>
<path d="m19.751 265.48c0.01633 0.0263 0.56114 0.90462 0.72779 1.3989 0.45158 1.0123 0.25858 3.9724 0.25037 5.6588 0.02772-0.19401 4.6905-1.3958 7.111 0.80464-0.01547-0.0273-0.04888-0.0804-0.12512-0.18628-0.07235-0.10046-0.18275-0.24915-0.37164-0.44224-0.52811-0.60452-0.23093-0.0845-0.80541-0.682-0.49669-0.45047-1.5695-1.5205-2.868-2.798-1.2412-1.2212-2.6869-2.6295-3.919-3.7538z" opacity=".248"/>
<path d="m19.424 264.96c0.01548 0.0249 0.53209 0.85773 0.69011 1.3264 0.42821 0.95987 0.29224 3.218 0.28445 4.8171 0.42899-0.0223 5.1595-0.73701 7.3284 1.8241-0.02928-0.0506-0.10278-0.0927-0.14377-0.17312-0.50077-0.57318-1.1396-1.0337-1.7235-1.5822-0.47098-0.42712-1.4882-1.4417-2.7195-2.653-1.1769-1.1579-2.5478-2.4932-3.7162-3.5592z" fill="#fff" stroke="#808080" stroke-width=".3"/>
<g transform="matrix(.53602 0 0 .53727 -234.93 -13.785)" stroke-width="4.0845"></g>
<g transform="matrix(.53602 0 0 .53727 -234.93 -13.76)" stroke-width="4.0845"></g>
<flowRoot fill="black" font-family="sans-serif" font-size="5.3333px" letter-spacing="0px" word-spacing="0px" style="line-height:1.25" xml:space="preserve"><flowRegion font-size="5.3333px"><rect x="25.19" y="24.219" width="77.811" height="64.112"/></flowRegion><flowPara/></flowRoot>
<g fill="#0055d4" stroke-width=".26458" aria-label="lua">
<path d="m10.267 292.04h-1.524v-10.005h1.524z"/>
<path d="m18.114 292.04h-1.3406l-0.08467-1.0442h-0.02822q-0.71967 1.1994-2.1731 1.1994-1.016 0-1.6228-0.635-0.71967-0.77611-0.71967-2.3424v-4.0358h1.524v3.7818q0 1.9756 1.3547 1.9756 1.016 0 1.4111-0.98777 0.09878-0.254 0.09878-0.57856v-4.191h1.524v4.8824q0 0.97367 0.05644 1.9756z"/>
<path d="m25.124 292.04h-1.3688l-0.11289-0.79022h-0.04233q-0.70556 0.94544-2.0038 0.94544-0.97367 0-1.5663-0.62089-0.53622-0.56444-0.53622-1.397 0-1.2559 1.0442-1.9191 1.0583-0.66322 2.9633-0.64911v-0.127q0-1.3547-1.4252-1.3547-1.016 0-1.7921 0.508l-0.31044-1.0019q0.95956-0.59267 2.3566-0.59267 2.6952 0 2.6952 2.8363v2.5259q0 1.0301 0.09878 1.6369zm-1.5804-2.3566v-1.0583q-2.54-0.0423-2.54 1.3829 0 0.53622 0.29633 0.80433 0.29633 0.26811 0.74789 0.26811 0.508 0 0.93133-0.31044 0.43744-0.32456 0.53622-0.81844 0.02822-0.11289 0.02822-0.26812z"/>
</g>
</g>
</svg>
