<svg width="128" height="128" version="1.1" viewBox="0 0 33.867 33.867" xmlns="http://www.w3.org/2000/svg" xmlns:osb="http://www.openswatchbook.org/uri/2009/osb" xmlns:xlink="http://www.w3.org/1999/xlink">
<defs>
<linearGradient id="linearGradient1503" x1="29.203" x2="4.5843" y1="263.52" y2="296.17" gradientTransform="matrix(1.001 0 0 1.001 -.017758 -.29086)" gradientUnits="userSpaceOnUse">
<stop stop-color="#d9d9d9" offset="0"/>
<stop stop-color="#fff" offset="1"/>
</linearGradient>
</defs>
<g transform="translate(0 -263.13)">
<path d="m4.5714 264.1v32.612h24.724v-18.3c-0.04716-0.8313-0.10165-1.5753-0.3125-2.3297-0.21448-0.76736-0.55247-1.4939-0.95641-2.1892-0.51687-0.8897-1.3904-1.4633-2.1667-2.1925-0.47098-0.42711-1.4882-1.4417-2.7195-2.653-1.2212-1.2014-2.6535-2.5969-3.8492-3.6811-0.35316-0.3187-0.86616-0.64943-1.3428-0.84044-0.37009-0.14831-0.80547-0.24063-1.2258-0.30267-0.43345-0.064-0.85093-0.0958-1.1644-0.12361z" opacity=".25"/>
<path d="m4.5714 263.57v32.612h24.724v-18.3c-0.04716-0.83129-0.10165-1.5753-0.3125-2.3297-0.21448-0.76736-0.55247-1.4939-0.95641-2.1892-0.51687-0.88969-1.3904-1.4633-2.1667-2.1925-0.47098-0.42712-1.4882-1.4417-2.7195-2.653-1.2212-1.2014-2.6535-2.5969-3.8492-3.6811-0.35316-0.3187-0.86616-0.64944-1.3428-0.84044-0.37009-0.14831-0.80547-0.24063-1.2258-0.30267-0.43345-0.064-0.85093-0.0958-1.1644-0.12361z" fill="url(#linearGradient1503)" stroke="#808080" stroke-width=".3"/>
<path d="m19.751 265.48c0.01633 0.0263 0.56114 0.90462 0.72779 1.3989 0.45158 1.0123 0.25858 3.9724 0.25037 5.6588 0.02772-0.19401 4.6905-1.3958 7.111 0.80464-0.01547-0.0273-0.04888-0.0804-0.12512-0.18628-0.07235-0.10046-0.18275-0.24915-0.37164-0.44224-0.52811-0.60452-0.23093-0.0845-0.80541-0.682-0.49669-0.45047-1.5695-1.5205-2.868-2.798-1.2412-1.2212-2.6869-2.6295-3.919-3.7538z" opacity=".248"/>
<path d="m19.424 264.96c0.01548 0.0249 0.53209 0.85773 0.69011 1.3264 0.42821 0.95987 0.29224 3.218 0.28445 4.8171 0.42899-0.0223 5.1595-0.73701 7.3284 1.8241-0.02928-0.0506-0.10278-0.0927-0.14377-0.17312-0.50077-0.57318-1.1396-1.0337-1.7235-1.5822-0.47098-0.42712-1.4882-1.4417-2.7195-2.653-1.1769-1.1579-2.5478-2.4932-3.7162-3.5592z" fill="#fff" stroke="#808080" stroke-width=".3"/>
<g transform="matrix(.53602 0 0 .53727 -234.93 -13.785)" stroke-width="4.0845"></g>
<g transform="matrix(.53602 0 0 .53727 -234.93 -13.76)" stroke-width="4.0845"></g>
<g transform="matrix(.24645 0 0 .2479 -1.3252 225.96)" fill="#4d4d4d" stroke-width="4.0457px">
<path d="m34.006 180.36q0-0.42863-0.20108-0.66146-0.20108-0.23813-0.52388-0.23813-0.17992 0-0.28575 0.0159-0.10054 0.0159-0.15875 0.037v1.5505q0.07408 0.0688 0.21696 0.127 0.14288 0.0582 0.29633 0.0582 0.17462 0 0.29633-0.0688 0.127-0.0688 0.20638-0.18521 0.07937-0.12171 0.11642-0.28046 0.03704-0.16404 0.03704-0.35454zm0.44979 0q0 0.28046-0.07408 0.51858-0.06879 0.23283-0.20638 0.40217-0.13229 0.16933-0.32808 0.26458-0.19579 0.0952-0.4445 0.0952-0.19579 0-0.34396-0.0476t-0.22225-0.10584v0.96838h-0.43921v-3.2544q0.14288-0.0423 0.36512-0.0847 0.22754-0.0423 0.51858-0.0423 0.26458 0 0.48154 0.09 0.21696 0.09 0.37042 0.25929 0.15346 0.16404 0.23812 0.40217 0.08467 0.23812 0.08467 0.53446z"/>
<path d="m36.937 181.51q-0.14288 0.037-0.381 0.0794-0.23283 0.0423-0.55033 0.0423-0.28046 0-0.46567-0.0794-0.18521-0.0847-0.30162-0.23283-0.11642-0.15346-0.16404-0.35983-0.04762-0.20638-0.04762-0.45509v-1.3811h0.43392v1.2859q0 0.45509 0.13229 0.64559 0.13758 0.1905 0.45508 0.1905 0.06879 0 0.13758-5e-3 0.07408-5e-3 0.13758-0.0106 0.0635-0.0106 0.11112-0.0159 0.04763-0.0106 0.0635-0.0159v-2.0743h0.43921v2.3865z"/>
<path d="m38.128 179.21q0.07937-0.0476 0.22754-0.0953 0.15346-0.0529 0.33867-0.0529 0.24871 0 0.4445 0.0953 0.19579 0.0952 0.32808 0.26458 0.13758 0.16934 0.20638 0.40746 0.07408 0.23284 0.07408 0.51859 0 0.29633-0.08467 0.53445-0.08467 0.23813-0.23812 0.40746-0.15346 0.16404-0.37042 0.254-0.21696 0.09-0.48154 0.09-0.29104 0-0.51858-0.0423-0.22754-0.0423-0.36512-0.0847v-3.5242l0.43921-0.0741v1.3018zm0 1.9844q0.10054 0.0265 0.20108 0.0423 0.10054 0.0106 0.1905 0.0106 0.36512 0 0.5715-0.22225 0.20638-0.22754 0.20638-0.67733 0-0.1905-0.03704-0.35455-0.03704-0.16933-0.11642-0.28575-0.07937-0.1217-0.20637-0.1905-0.12171-0.0688-0.29633-0.0688-0.15346 0-0.29633 0.0635-0.14288 0.0582-0.21696 0.127v1.5558z"/>
<path d="m41.748 181.64q-0.23283 0-0.38629-0.0635t-0.24342-0.1905q-0.08996-0.127-0.127-0.31221-0.03704-0.1905-0.03704-0.43921v-2.323h-0.70908v-0.37041h1.143v2.6934q0 0.18521 0.02117 0.30163 0.02646 0.11642 0.07408 0.1905 0.05292 0.0688 0.127 0.0953t0.17462 0.0265q0.15346 0 0.28575-0.037 0.13229-0.037 0.20638-0.0794l0.0635 0.37042q-0.03175 0.0159-0.08996 0.0423-0.05821 0.0212-0.13758 0.0423-0.07937 0.0212-0.17462 0.037-0.08996 0.0159-0.1905 0.0159z"/>
<path d="m43.711 178.74q-0.13758 0-0.23812-0.0952-0.10054-0.0952-0.10054-0.25929 0-0.16404 0.10054-0.25929 0.10054-0.0952 0.23812-0.0952 0.14288 0 0.23812 0.0952 0.10054 0.0953 0.10054 0.25929 0 0.16404-0.10054 0.25929-0.09525 0.0952-0.23812 0.0952zm-0.11112 0.74612h-0.70908v-0.36512h1.143v1.5081q0 0.36513 0.10054 0.49213 0.10054 0.12171 0.30162 0.12171 0.15346 0 0.28046-0.037 0.13229-0.037 0.20638-0.0794l0.0635 0.37042q-0.03175 0.0159-0.08996 0.0423-0.05821 0.0212-0.13758 0.0423-0.07408 0.0212-0.16933 0.037-0.08996 0.0159-0.1905 0.0159-0.23283 0-0.38629-0.0635-0.15346-0.0635-0.24871-0.1905-0.08996-0.127-0.127-0.31221-0.03704-0.1905-0.03704-0.43921v-1.143z"/>
<path d="m45.51 180.36q0-0.33338 0.10583-0.57679 0.10583-0.24342 0.29104-0.40217t0.42862-0.23283q0.24871-0.0794 0.52917-0.0794 0.17992 0 0.35454 0.0265 0.17992 0.0212 0.381 0.0847l-0.10054 0.3757q-0.17462-0.0635-0.32279-0.0794-0.14288-0.0212-0.29104-0.0212-0.1905 0-0.35983 0.0529-0.16933 0.0476-0.29633 0.15875-0.12171 0.10583-0.19579 0.28046-0.07408 0.16933-0.07408 0.41275 0 0.23283 0.06879 0.40216 0.06879 0.16405 0.1905 0.27517 0.127 0.10583 0.30162 0.15875 0.17462 0.0529 0.38629 0.0529 0.16933 0 0.32279-0.0159 0.15875-0.0212 0.34396-0.0847l0.0635 0.36512q-0.18521 0.0688-0.37571 0.0953-0.1905 0.0317-0.41275 0.0317-0.29633 0-0.54504-0.0794-0.24342-0.0847-0.42333-0.24342-0.17462-0.15875-0.27517-0.39688-0.09525-0.24341-0.09525-0.56091z"/>
<path d="m50.802 180.36q0-0.33338 0.10583-0.57679 0.10583-0.24342 0.29104-0.40217t0.42862-0.23283q0.24871-0.0794 0.52917-0.0794 0.17992 0 0.35454 0.0265 0.17992 0.0212 0.381 0.0847l-0.10054 0.3757q-0.17462-0.0635-0.32279-0.0794-0.14288-0.0212-0.29104-0.0212-0.1905 0-0.35983 0.0529-0.16933 0.0476-0.29633 0.15875-0.12171 0.10583-0.19579 0.28046-0.07408 0.16933-0.07408 0.41275 0 0.23283 0.06879 0.40216 0.06879 0.16405 0.1905 0.27517 0.127 0.10583 0.30162 0.15875 0.17462 0.0529 0.38629 0.0529 0.16933 0 0.32279-0.0159 0.15875-0.0212 0.34396-0.0847l0.0635 0.36512q-0.18521 0.0688-0.37571 0.0953-0.1905 0.0317-0.41275 0.0317-0.29633 0-0.54504-0.0794-0.24342-0.0847-0.42333-0.24342-0.17462-0.15875-0.27517-0.39688-0.09525-0.24341-0.09525-0.56091z"/>
<path d="m54.977 181.64q-0.23283 0-0.38629-0.0635t-0.24342-0.1905q-0.08996-0.127-0.127-0.31221-0.03704-0.1905-0.03704-0.43921v-2.323h-0.70908v-0.37041h1.143v2.6934q0 0.18521 0.02117 0.30163 0.02646 0.11642 0.07408 0.1905 0.05292 0.0688 0.127 0.0953t0.17462 0.0265q0.15346 0 0.28575-0.037 0.13229-0.037 0.20638-0.0794l0.0635 0.37042q-0.03175 0.0159-0.08996 0.0423-0.05821 0.0212-0.13758 0.0423-0.07937 0.0212-0.17462 0.037-0.08996 0.0159-0.1905 0.0159z"/>
<path d="m57.183 181.27q0.16404 0 0.29104-0.0106 0.13229-0.0106 0.21696-0.0265v-0.73025q-0.08467-0.0265-0.20638-0.0423-0.11642-0.0159-0.24871-0.0159-0.12171 0-0.23812 0.0212-0.11642 0.0159-0.20638 0.0635-0.08996 0.0476-0.14817 0.127-0.05821 0.0741-0.05821 0.1905 0 0.23813 0.15875 0.33338 0.16404 0.09 0.43921 0.09zm-0.04233-2.2013q0.27517 0 0.46038 0.0688 0.1905 0.0688 0.30692 0.1905 0.11642 0.12171 0.16404 0.29634 0.04763 0.17462 0.04763 0.381v1.5346q-0.15346 0.0265-0.40746 0.0635-0.24871 0.037-0.51329 0.037-0.20108 0-0.39158-0.037-0.1905-0.0318-0.33867-0.11642-0.14817-0.09-0.23812-0.24341-0.08996-0.15346-0.08996-0.39159 0-0.21166 0.08996-0.35454 0.09525-0.14817 0.23812-0.23812 0.14817-0.09 0.33338-0.127 0.1905-0.0423 0.381-0.0423 0.25929 0 0.508 0.0582v-0.12171q0-0.11112-0.02646-0.21166-0.02117-0.10584-0.08996-0.1905-0.0635-0.0847-0.17992-0.1323-0.11112-0.0529-0.29104-0.0529-0.22754 0-0.39688 0.0318-0.16933 0.0317-0.25929 0.0635l-0.05292-0.35984q0.08996-0.0423 0.29633-0.0741 0.21167-0.0318 0.44979-0.0318z"/>
<path d="m60.337 180.97q0-0.13229-0.11112-0.21696-0.10583-0.0847-0.26988-0.14817-0.15875-0.0635-0.34925-0.1217-0.1905-0.0635-0.35454-0.15346-0.15875-0.09-0.26988-0.22225-0.10583-0.13229-0.10583-0.34396 0-0.29633 0.23812-0.49213 0.24342-0.20108 0.75671-0.20108 0.20108 0 0.41275 0.0318 0.21696 0.0265 0.37042 0.0741l-0.07937 0.39159q-0.04233-0.0212-0.11642-0.0423-0.07408-0.0265-0.16933-0.0423-0.09525-0.0212-0.20638-0.0318-0.10583-0.0106-0.20638-0.0106-0.5715 0-0.5715 0.31221 0 0.11112 0.10583 0.1905 0.11112 0.0741 0.27517 0.13758 0.16404 0.0635 0.35454 0.13229 0.1905 0.0635 0.35454 0.15875 0.16404 0.0953 0.26988 0.23283 0.11112 0.1323 0.11112 0.33867 0 0.33338-0.25929 0.51858-0.25929 0.17992-0.82021 0.17992-0.254 0-0.46567-0.0423t-0.40217-0.127l0.08467-0.39688q0.18521 0.0847 0.38629 0.14288 0.20638 0.0529 0.43921 0.0529 0.59796 0 0.59796-0.30162z"/>
<path d="m62.983 180.97q0-0.13229-0.11112-0.21696-0.10583-0.0847-0.26988-0.14817-0.15875-0.0635-0.34925-0.1217-0.1905-0.0635-0.35454-0.15346-0.15875-0.09-0.26988-0.22225-0.10583-0.13229-0.10583-0.34396 0-0.29633 0.23812-0.49213 0.24342-0.20108 0.75671-0.20108 0.20108 0 0.41275 0.0318 0.21696 0.0265 0.37042 0.0741l-0.07937 0.39159q-0.04233-0.0212-0.11642-0.0423-0.07408-0.0265-0.16933-0.0423-0.09525-0.0212-0.20638-0.0318-0.10583-0.0106-0.20638-0.0106-0.5715 0-0.5715 0.31221 0 0.11112 0.10583 0.1905 0.11112 0.0741 0.27517 0.13758 0.16404 0.0635 0.35454 0.13229 0.1905 0.0635 0.35454 0.15875 0.16404 0.0953 0.26988 0.23283 0.11112 0.1323 0.11112 0.33867 0 0.33338-0.25929 0.51858-0.25929 0.17992-0.82021 0.17992-0.254 0-0.46567-0.0423t-0.40217-0.127l0.08467-0.39688q0.18521 0.0847 0.38629 0.14288 0.20638 0.0529 0.43921 0.0529 0.59796 0 0.59796-0.30162z"/>
<path d="m68.391 178.3h0.43392v3.2755h-0.43392v-1.524h-1.3018v1.524h-0.43392v-3.2755h0.43392v1.3811h1.3018z"/>
<path d="m70.434 179.07q0.49742 0 0.76729 0.31221 0.26988 0.30692 0.26988 0.93662v0.15346h-1.7568q0.02646 0.381 0.24871 0.58209 0.22754 0.19579 0.635 0.19579 0.23283 0 0.39688-0.037 0.16404-0.037 0.24871-0.0794l0.05821 0.37042q-0.07937 0.0423-0.28575 0.09-0.20638 0.0476-0.46567 0.0476-0.3175 0-0.56092-0.0952-0.23812-0.10054-0.39688-0.26987-0.15875-0.16934-0.23812-0.40217-0.07937-0.23813-0.07937-0.51329 0-0.32809 0.10054-0.5715 0.10054-0.24342 0.26458-0.40217t0.37042-0.23812q0.20638-0.0794 0.42333-0.0794zm0.59267 1.0478q0-0.31221-0.16404-0.49212-0.16404-0.18521-0.43392-0.18521-0.15346 0-0.28046 0.0582-0.12171 0.0582-0.21167 0.15345-0.08996 0.0952-0.14288 0.21696-0.05292 0.12171-0.06879 0.24871h1.3018z"/>
<path d="m73.498 181.64q-0.23283 0-0.38629-0.0635t-0.24342-0.1905q-0.08996-0.127-0.127-0.31221-0.03704-0.1905-0.03704-0.43921v-2.323h-0.70908v-0.37041h1.143v2.6934q0 0.18521 0.02117 0.30163 0.02646 0.11642 0.07408 0.1905 0.05292 0.0688 0.127 0.0953t0.17462 0.0265q0.15346 0 0.28575-0.037 0.13229-0.037 0.20638-0.0794l0.0635 0.37042q-0.03175 0.0159-0.08996 0.0423-0.05821 0.0212-0.13758 0.0423-0.07937 0.0212-0.17462 0.037-0.08996 0.0159-0.1905 0.0159z"/>
<path d="m76.143 181.64q-0.23283 0-0.38629-0.0635t-0.24342-0.1905q-0.08996-0.127-0.127-0.31221-0.03704-0.1905-0.03704-0.43921v-2.323h-0.70908v-0.37041h1.143v2.6934q0 0.18521 0.02117 0.30163 0.02646 0.11642 0.07408 0.1905 0.05292 0.0688 0.127 0.0953t0.17462 0.0265q0.15346 0 0.28575-0.037 0.13229-0.037 0.20638-0.0794l0.0635 0.37042q-0.03175 0.0159-0.08996 0.0423-0.05821 0.0212-0.13758 0.0423-0.07937 0.0212-0.17462 0.037-0.08996 0.0159-0.1905 0.0159z"/>
<path d="m79.435 180.35q0 0.29104-0.08467 0.52916-0.07937 0.23284-0.22754 0.40217-0.14817 0.16933-0.35454 0.26458-0.20638 0.09-0.44979 0.09-0.23812 0-0.4445-0.09-0.20108-0.0953-0.34925-0.26458-0.14817-0.16933-0.23283-0.40217-0.07937-0.23812-0.07937-0.52916 0-0.29105 0.07937-0.52917 0.08467-0.23813 0.23283-0.40217 0.14817-0.16933 0.34925-0.25929 0.20638-0.0953 0.4445-0.0953 0.24342 0 0.44979 0.0953 0.20638 0.09 0.35454 0.25929 0.14817 0.16404 0.22754 0.40217 0.08467 0.23812 0.08467 0.52917zm-0.44979 0q0-0.41805-0.17992-0.65617-0.17992-0.24342-0.48683-0.24342-0.30162 0-0.48154 0.24342-0.17462 0.23812-0.17462 0.65617 0 0.41275 0.17462 0.65616 0.17992 0.23813 0.48154 0.23813 0.30692 0 0.48683-0.23813 0.17992-0.24341 0.17992-0.65616z"/>
<path d="m80.065 180h0.21167q0.08996 0 0.15875-0.037 0.06879-0.0423 0.11112-0.10583 0.04762-0.0688 0.06879-0.14817 0.02646-0.0847 0.02646-0.16933v-0.85196q0-0.19579 0.03704-0.34396 0.04233-0.14816 0.13758-0.24871 0.09525-0.10583 0.254-0.15875 0.16404-0.0529 0.40746-0.0529h0.42862v0.34396h-0.44979q-0.22225 0-0.3175 0.10054-0.08996 0.10054-0.08996 0.36512v0.73025q0 0.35454-0.10583 0.52388-0.10583 0.16404-0.24342 0.22225 0.13758 0.0635 0.24342 0.23812 0.10583 0.17463 0.10583 0.508v0.73025q0 0.26459 0.09525 0.36513t0.3175 0.10054h0.4445v0.34396h-0.42862q-0.24342 0-0.40746-0.0529-0.15875-0.0529-0.254-0.15875-0.09525-0.10054-0.13758-0.24871-0.03704-0.14816-0.03704-0.34396v-0.85195q0-0.0794-0.02646-0.15875-0.02117-0.0847-0.06879-0.14817-0.04233-0.0688-0.11112-0.11113-0.0635-0.0423-0.15346-0.0423h-0.21696v-0.33867z"/>
<path d="m39.298 188.3q0-0.42863-0.20108-0.66146-0.20108-0.23813-0.52387-0.23813-0.17992 0-0.28575 0.0159-0.10054 0.0159-0.15875 0.037v1.5505q0.07408 0.0688 0.21696 0.127 0.14288 0.0582 0.29633 0.0582 0.17462 0 0.29633-0.0688 0.127-0.0688 0.20637-0.18521 0.07937-0.12171 0.11642-0.28046 0.03704-0.16404 0.03704-0.35454zm0.44979 0q0 0.28046-0.07408 0.51858-0.06879 0.23283-0.20638 0.40217-0.13229 0.16933-0.32808 0.26458-0.19579 0.0952-0.4445 0.0952-0.19579 0-0.34396-0.0476-0.14817-0.0476-0.22225-0.10584v0.96838h-0.43921v-3.2544q0.14288-0.0423 0.36512-0.0847 0.22754-0.0423 0.51858-0.0423 0.26458 0 0.48154 0.09t0.37042 0.25929q0.15346 0.16404 0.23812 0.40217 0.08467 0.23812 0.08467 0.53446z"/>
<path d="m42.229 189.45q-0.14288 0.037-0.381 0.0794-0.23283 0.0423-0.55033 0.0423-0.28046 0-0.46567-0.0794-0.18521-0.0847-0.30162-0.23283-0.11642-0.15346-0.16404-0.35983-0.04762-0.20638-0.04762-0.45509v-1.3811h0.43392v1.2859q0 0.45509 0.13229 0.64559 0.13758 0.1905 0.45508 0.1905 0.06879 0 0.13758-5e-3 0.07408-5e-3 0.13758-0.0106 0.0635-0.0106 0.11112-0.0159 0.04762-0.0106 0.0635-0.0159v-2.0743h0.43921v2.3865z"/>
<path d="m43.42 187.15q0.07937-0.0476 0.22754-0.0953 0.15346-0.0529 0.33867-0.0529 0.24871 0 0.4445 0.0953 0.19579 0.0952 0.32808 0.26458 0.13758 0.16934 0.20638 0.40746 0.07408 0.23284 0.07408 0.51859 0 0.29633-0.08467 0.53445-0.08467 0.23813-0.23812 0.40746-0.15346 0.16404-0.37042 0.254-0.21696 0.09-0.48154 0.09-0.29104 0-0.51858-0.0423-0.22754-0.0423-0.36512-0.0847v-3.5242l0.43921-0.0741v1.3018zm0 1.9844q0.10054 0.0265 0.20108 0.0423 0.10054 0.0106 0.1905 0.0106 0.36512 0 0.5715-0.22225 0.20638-0.22754 0.20638-0.67733 0-0.1905-0.03704-0.35455-0.03704-0.16933-0.11642-0.28575-0.07937-0.1217-0.20638-0.1905-0.12171-0.0688-0.29633-0.0688-0.15346 0-0.29633 0.0635-0.14288 0.0582-0.21696 0.127v1.5558z"/>
<path d="m47.039 189.58q-0.23283 0-0.38629-0.0635t-0.24342-0.1905q-0.08996-0.127-0.127-0.31221-0.03704-0.1905-0.03704-0.43921v-2.323h-0.70908v-0.37041h1.143v2.6934q0 0.18521 0.02117 0.30163 0.02646 0.11642 0.07408 0.1905 0.05292 0.0688 0.127 0.0953t0.17462 0.0265q0.15346 0 0.28575-0.037 0.13229-0.037 0.20638-0.0794l0.0635 0.37042q-0.03175 0.0159-0.08996 0.0423-0.05821 0.0212-0.13758 0.0423-0.07937 0.0212-0.17462 0.037-0.08996 0.0159-0.1905 0.0159z"/>
<path d="m49.002 186.68q-0.13758 0-0.23812-0.0952-0.10054-0.0952-0.10054-0.25929 0-0.16404 0.10054-0.25929 0.10054-0.0952 0.23812-0.0952 0.14288 0 0.23812 0.0952 0.10054 0.0953 0.10054 0.25929 0 0.16404-0.10054 0.25929-0.09525 0.0952-0.23812 0.0952zm-0.11112 0.74612h-0.70908v-0.36512h1.143v1.5081q0 0.36513 0.10054 0.49213 0.10054 0.12171 0.30162 0.12171 0.15346 0 0.28046-0.037 0.13229-0.037 0.20638-0.0794l0.0635 0.37042q-0.03175 0.0159-0.08996 0.0423-0.05821 0.0212-0.13758 0.0423-0.07408 0.0212-0.16933 0.037-0.08996 0.0159-0.1905 0.0159-0.23283 0-0.38629-0.0635-0.15346-0.0635-0.24871-0.1905-0.08996-0.127-0.127-0.31221-0.03704-0.1905-0.03704-0.43921v-1.143z"/>
<path d="m50.802 188.3q0-0.33338 0.10583-0.57679 0.10583-0.24342 0.29104-0.40217t0.42862-0.23283q0.24871-0.0794 0.52917-0.0794 0.17992 0 0.35454 0.0265 0.17992 0.0212 0.381 0.0847l-0.10054 0.3757q-0.17462-0.0635-0.32279-0.0794-0.14288-0.0212-0.29104-0.0212-0.1905 0-0.35983 0.0529-0.16933 0.0476-0.29633 0.15875-0.12171 0.10583-0.19579 0.28046-0.07408 0.16933-0.07408 0.41275 0 0.23283 0.06879 0.40216 0.06879 0.16405 0.1905 0.27517 0.127 0.10583 0.30162 0.15875 0.17462 0.0529 0.38629 0.0529 0.16933 0 0.32279-0.0159 0.15875-0.0212 0.34396-0.0847l0.0635 0.36512q-0.18521 0.0688-0.37571 0.0953-0.1905 0.0317-0.41275 0.0317-0.29633 0-0.54504-0.0794-0.24342-0.0847-0.42333-0.24342-0.17462-0.15875-0.27517-0.39688-0.09525-0.24341-0.09525-0.56091z"/>
<path d="m57.691 188.9q0-0.13229-0.11112-0.21696-0.10583-0.0847-0.26988-0.14817-0.15875-0.0635-0.34925-0.1217-0.1905-0.0635-0.35454-0.15346-0.15875-0.09-0.26988-0.22225-0.10583-0.13229-0.10583-0.34396 0-0.29633 0.23812-0.49213 0.24342-0.20108 0.75671-0.20108 0.20108 0 0.41275 0.0318 0.21696 0.0265 0.37042 0.0741l-0.07937 0.39159q-0.04233-0.0212-0.11642-0.0423-0.07408-0.0265-0.16933-0.0423-0.09525-0.0212-0.20638-0.0318-0.10583-0.0106-0.20638-0.0106-0.5715 0-0.5715 0.31221 0 0.11112 0.10583 0.1905 0.11112 0.0741 0.27517 0.13758 0.16404 0.0635 0.35454 0.13229 0.1905 0.0635 0.35454 0.15875 0.16404 0.0953 0.26988 0.23283 0.11112 0.1323 0.11112 0.33867 0 0.33338-0.25929 0.51858-0.25929 0.17992-0.82021 0.17992-0.254 0-0.46567-0.0423t-0.40217-0.127l0.08467-0.39688q0.18521 0.0847 0.38629 0.14288 0.20638 0.0529 0.43921 0.0529 0.59796 0 0.59796-0.30162z"/>
<path d="m59.766 187.06h1.0372v0.36512h-1.0372v1.143q0 0.18521 0.02646 0.30163t0.08467 0.1905q0.0635 0.0688 0.15875 0.0953t0.23283 0.0265q0.1905 0 0.30692-0.0317 0.11642-0.0318 0.22225-0.0847l0.0635 0.37042q-0.07408 0.0317-0.23812 0.0847-0.15875 0.0529-0.39688 0.0529-0.27517 0-0.44979-0.0635t-0.27517-0.1905q-0.09525-0.127-0.13229-0.31221-0.03704-0.1905-0.03704-0.43921v-1.143h-0.51858v-0.36512h0.51858v-0.68792l0.43392-0.0741v0.762z"/>
<path d="m62.475 189.21q0.16404 0 0.29104-0.0106 0.13229-0.0106 0.21696-0.0265v-0.73025q-0.08467-0.0265-0.20638-0.0423-0.11642-0.0159-0.24871-0.0159-0.12171 0-0.23812 0.0212-0.11642 0.0159-0.20638 0.0635-0.08996 0.0476-0.14817 0.127-0.05821 0.0741-0.05821 0.1905 0 0.23813 0.15875 0.33338 0.16404 0.09 0.43921 0.09zm-0.04233-2.2013q0.27517 0 0.46038 0.0688 0.1905 0.0688 0.30692 0.1905 0.11642 0.12171 0.16404 0.29634 0.04763 0.17462 0.04763 0.381v1.5346q-0.15346 0.0265-0.40746 0.0635-0.24871 0.037-0.51329 0.037-0.20108 0-0.39158-0.037-0.1905-0.0318-0.33867-0.11642-0.14817-0.09-0.23812-0.24341-0.08996-0.15346-0.08996-0.39159 0-0.21166 0.08996-0.35454 0.09525-0.14817 0.23812-0.23812 0.14817-0.09 0.33338-0.127 0.1905-0.0423 0.381-0.0423 0.25929 0 0.508 0.0582v-0.12171q0-0.11112-0.02646-0.21166-0.02117-0.10584-0.08996-0.1905-0.0635-0.0847-0.17992-0.1323-0.11112-0.0529-0.29104-0.0529-0.22754 0-0.39688 0.0318-0.16933 0.0317-0.25929 0.0635l-0.05292-0.35984q0.08996-0.0423 0.29633-0.0741 0.21167-0.0318 0.44979-0.0318z"/>
<path d="m65.057 187.06h1.0372v0.36512h-1.0372v1.143q0 0.18521 0.02646 0.30163t0.08467 0.1905q0.0635 0.0688 0.15875 0.0953t0.23283 0.0265q0.1905 0 0.30692-0.0317 0.11642-0.0318 0.22225-0.0847l0.0635 0.37042q-0.07408 0.0317-0.23812 0.0847-0.15875 0.0529-0.39688 0.0529-0.27517 0-0.44979-0.0635t-0.27517-0.1905q-0.09525-0.127-0.13229-0.31221-0.03704-0.1905-0.03704-0.43921v-1.143h-0.51858v-0.36512h0.51858v-0.68792l0.43392-0.0741v0.762z"/>
<path d="m67.523 186.68q-0.13758 0-0.23812-0.0952-0.10054-0.0952-0.10054-0.25929 0-0.16404 0.10054-0.25929 0.10054-0.0952 0.23812-0.0952 0.14288 0 0.23812 0.0952 0.10054 0.0953 0.10054 0.25929 0 0.16404-0.10054 0.25929-0.09525 0.0952-0.23812 0.0952zm-0.11112 0.74612h-0.70908v-0.36512h1.143v1.5081q0 0.36513 0.10054 0.49213 0.10054 0.12171 0.30162 0.12171 0.15346 0 0.28046-0.037 0.13229-0.037 0.20638-0.0794l0.0635 0.37042q-0.03175 0.0159-0.08996 0.0423-0.05821 0.0212-0.13758 0.0423-0.07408 0.0212-0.16933 0.037-0.08996 0.0159-0.1905 0.0159-0.23283 0-0.38629-0.0635-0.15346-0.0635-0.24871-0.1905-0.08996-0.127-0.127-0.31221-0.03704-0.1905-0.03704-0.43921v-1.143z"/>
<path d="m69.322 188.3q0-0.33338 0.10583-0.57679 0.10583-0.24342 0.29104-0.40217t0.42862-0.23283q0.24871-0.0794 0.52917-0.0794 0.17992 0 0.35454 0.0265 0.17992 0.0212 0.381 0.0847l-0.10054 0.3757q-0.17462-0.0635-0.32279-0.0794-0.14288-0.0212-0.29104-0.0212-0.1905 0-0.35983 0.0529-0.16933 0.0476-0.29633 0.15875-0.12171 0.10583-0.19579 0.28046-0.07408 0.16933-0.07408 0.41275 0 0.23283 0.06879 0.40216 0.06879 0.16405 0.1905 0.27517 0.127 0.10583 0.30162 0.15875 0.17462 0.0529 0.38629 0.0529 0.16933 0 0.32279-0.0159 0.15875-0.0212 0.34396-0.0847l0.0635 0.36512q-0.18521 0.0688-0.37571 0.0953-0.1905 0.0317-0.41275 0.0317-0.29633 0-0.54504-0.0794-0.24342-0.0847-0.42333-0.24342-0.17462-0.15875-0.27517-0.39688-0.09525-0.24341-0.09525-0.56091z"/>
<path d="m76.842 187.06q-0.09525 0.34396-0.21696 0.67733-0.12171 0.32809-0.24871 0.64559-0.127 0.3122-0.25929 0.59795-0.13229 0.28575-0.254 0.53446h-0.39688q-0.24871-0.49741-0.50271-1.1324t-0.44979-1.3229h0.47625q0.0635 0.23283 0.14288 0.49212 0.08467 0.2593 0.17462 0.51859 0.08996 0.25929 0.17992 0.50271 0.09525 0.23812 0.18521 0.42862 0.08996-0.1905 0.18521-0.42862 0.10054-0.24342 0.19579-0.50271t0.17992-0.51859q0.08996-0.25929 0.15346-0.49212z"/>
<path d="m79.435 188.29q0 0.29104-0.08467 0.52916-0.07937 0.23284-0.22754 0.40217-0.14817 0.16933-0.35454 0.26458-0.20638 0.09-0.44979 0.09-0.23812 0-0.4445-0.09-0.20108-0.0953-0.34925-0.26458-0.14817-0.16933-0.23283-0.40217-0.07937-0.23812-0.07937-0.52916 0-0.29105 0.07937-0.52917 0.08467-0.23813 0.23283-0.40217 0.14817-0.16933 0.34925-0.25929 0.20638-0.0953 0.4445-0.0953 0.24342 0 0.44979 0.0953 0.20638 0.09 0.35454 0.25929 0.14817 0.16404 0.22754 0.40217 0.08467 0.23812 0.08467 0.52917zm-0.44979 0q0-0.41805-0.17992-0.65617-0.17992-0.24342-0.48683-0.24342-0.30162 0-0.48154 0.24342-0.17462 0.23812-0.17462 0.65617 0 0.41275 0.17462 0.65616 0.17992 0.23813 0.48154 0.23813 0.30692 0 0.48683-0.23813 0.17992-0.24341 0.17992-0.65616z"/>
<path d="m80.752 186.68q-0.13758 0-0.23812-0.0952-0.10054-0.0952-0.10054-0.25929 0-0.16404 0.10054-0.25929 0.10054-0.0952 0.23812-0.0952 0.14288 0 0.23812 0.0952 0.10054 0.0953 0.10054 0.25929 0 0.16404-0.10054 0.25929-0.09525 0.0952-0.23812 0.0952zm-0.11112 0.74612h-0.70908v-0.36512h1.143v1.5081q0 0.36513 0.10054 0.49213 0.10054 0.12171 0.30162 0.12171 0.15346 0 0.28046-0.037 0.13229-0.037 0.20638-0.0794l0.0635 0.37042q-0.03175 0.0159-0.08996 0.0423-0.05821 0.0212-0.13758 0.0423-0.07408 0.0212-0.16933 0.037-0.08996 0.0159-0.1905 0.0159-0.23283 0-0.38629-0.0635-0.15346-0.0635-0.24871-0.1905-0.08996-0.127-0.127-0.31221-0.03704-0.1905-0.03704-0.43921v-1.143z"/>
<path d="m84.123 187.58q-0.07408-0.0688-0.21696-0.127-0.14288-0.0635-0.29633-0.0635-0.17462 0-0.30162 0.0688-0.12171 0.0688-0.20108 0.1905-0.07937 0.11642-0.11642 0.28575-0.03704 0.16405-0.03704 0.35455 0 0.42862 0.20108 0.66145 0.20108 0.23284 0.52388 0.23284 0.16404 0 0.27517-0.0159 0.11642-0.0159 0.16933-0.0318v-1.5558zm0-1.6563 0.43921-0.0741v3.5983q-0.14288 0.0423-0.36512 0.0847-0.22225 0.0423-0.51858 0.0423-0.26458 0-0.48154-0.09-0.21696-0.09-0.37042-0.254-0.15346-0.16933-0.23812-0.40746-0.08467-0.23812-0.08467-0.53445 0-0.28575 0.06879-0.51859 0.07408-0.23812 0.21167-0.40746 0.13758-0.16933 0.32808-0.26458 0.19579-0.0953 0.4445-0.0953 0.19579 0 0.34396 0.0476t0.22225 0.10054v-1.2277z"/>
<path d="m87.801 187.13q0.3175-0.12171 0.59796-0.12171 0.15346 0 0.28575 0.0476 0.13758 0.0423 0.23283 0.13758 0.22754-0.18521 0.48683-0.18521 0.127 0 0.23812 0.0476 0.11642 0.0476 0.20108 0.14287 0.08996 0.0952 0.14288 0.23813 0.05292 0.14287 0.05292 0.33337v1.7462h-0.39688v-1.7568q0-0.1905-0.08467-0.29104t-0.21167-0.10054q-0.0635 0-0.13229 0.0317-0.06879 0.0317-0.127 0.10054 0.03175 0.12171 0.03175 0.26987v0.79904h-0.39688v-0.80433q0-0.18521-0.05821-0.29104t-0.22754-0.10583q-0.10583 0-0.23812 0.0476v2.1008h-0.39688v-2.3865z"/>
<path d="m91.579 189.21q0.16404 0 0.29104-0.0106 0.13229-0.0106 0.21696-0.0265v-0.73025q-0.08467-0.0265-0.20638-0.0423-0.11642-0.0159-0.24871-0.0159-0.12171 0-0.23812 0.0212-0.11642 0.0159-0.20638 0.0635-0.08996 0.0476-0.14817 0.127-0.05821 0.0741-0.05821 0.1905 0 0.23813 0.15875 0.33338 0.16404 0.09 0.43921 0.09zm-0.04233-2.2013q0.27517 0 0.46038 0.0688 0.1905 0.0688 0.30692 0.1905 0.11642 0.12171 0.16404 0.29634 0.04762 0.17462 0.04762 0.381v1.5346q-0.15346 0.0265-0.40746 0.0635-0.24871 0.037-0.51329 0.037-0.20108 0-0.39158-0.037-0.1905-0.0318-0.33867-0.11642-0.14817-0.09-0.23812-0.24341-0.08996-0.15346-0.08996-0.39159 0-0.21166 0.08996-0.35454 0.09525-0.14817 0.23812-0.23812 0.14817-0.09 0.33338-0.127 0.1905-0.0423 0.381-0.0423 0.25929 0 0.508 0.0582v-0.12171q0-0.11112-0.02646-0.21166-0.02117-0.10584-0.08996-0.1905-0.0635-0.0847-0.17992-0.1323-0.11112-0.0529-0.29104-0.0529-0.22754 0-0.39688 0.0318-0.16933 0.0317-0.25929 0.0635l-0.05292-0.35984q0.08996-0.0423 0.29633-0.0741 0.21167-0.0318 0.44979-0.0318z"/>
<path d="m93.982 186.68q-0.13758 0-0.23812-0.0952-0.10054-0.0952-0.10054-0.25929 0-0.16404 0.10054-0.25929 0.10054-0.0952 0.23812-0.0952 0.14288 0 0.23812 0.0952 0.10054 0.0953 0.10054 0.25929 0 0.16404-0.10054 0.25929-0.09525 0.0952-0.23812 0.0952zm-0.11112 0.74612h-0.70908v-0.36512h1.143v1.5081q0 0.36513 0.10054 0.49213 0.10054 0.12171 0.30162 0.12171 0.15346 0 0.28046-0.037 0.13229-0.037 0.20638-0.0794l0.0635 0.37042q-0.03175 0.0159-0.08996 0.0423-0.05821 0.0212-0.13758 0.0423-0.07408 0.0212-0.16933 0.037-0.08996 0.0159-0.1905 0.0159-0.23283 0-0.38629-0.0635-0.15346-0.0635-0.24871-0.1905-0.08996-0.127-0.127-0.31221-0.03704-0.1905-0.03704-0.43921v-1.143z"/>
<path d="m95.897 187.13q0.23812-0.0582 0.47096-0.09 0.23812-0.0318 0.4445-0.0318 0.49212 0 0.74083 0.254 0.254 0.254 0.254 0.81492v1.4393h-0.43392v-1.36q0-0.23812-0.04233-0.38629-0.04233-0.14816-0.12171-0.22754-0.07408-0.0847-0.18521-0.11642-0.10583-0.0318-0.23283-0.0318-0.10583 0-0.22754 0.0159-0.11642 0.0106-0.22754 0.0317v2.0743h-0.43921v-2.3865z"/>
<path d="m39.345 194.06q-0.49212 0.381-0.75142 0.87842-0.25929 0.49742-0.25929 1.0848 0 0.29634 0.05821 0.56092 0.0635 0.26458 0.18521 0.508 0.127 0.24342 0.3175 0.47096 0.19579 0.22754 0.46038 0.45508l-0.23812 0.3175q-0.60854-0.44979-0.91017-1.0425-0.29633-0.59796-0.29633-1.2594 0-0.65617 0.30162-1.2541t0.90488-1.0372l0.23283 0.3175h-0.0053z"/>
<path d="m41.197 197.15q0.33338 0 0.508-0.127t0.17462-0.381q0-0.15346-0.0635-0.2593-0.0635-0.11112-0.16933-0.1905-0.10583-0.0847-0.23812-0.14287-0.13229-0.0635-0.26988-0.11642-0.15875-0.0635-0.30692-0.14287-0.14288-0.0794-0.25929-0.18521-0.11112-0.10583-0.17992-0.24871-0.0635-0.14287-0.0635-0.33867 0-0.42862 0.26988-0.66675 0.26988-0.24341 0.75142-0.24341 0.13229 0 0.25929 0.0212 0.13229 0.0159 0.24342 0.0423 0.11112 0.0265 0.19579 0.0635 0.08996 0.037 0.14288 0.0741l-0.13758 0.36513q-0.10583-0.0635-0.29104-0.127-0.18521-0.0635-0.41275-0.0635-0.23812 0-0.41275 0.1217-0.17462 0.11642-0.17462 0.35455 0 0.13758 0.04763 0.23283 0.05292 0.0952 0.13758 0.16933 0.08996 0.0688 0.20638 0.127 0.11642 0.0582 0.254 0.11642 0.20108 0.0847 0.36512 0.16933 0.16933 0.0847 0.28575 0.20109 0.12171 0.11641 0.18521 0.27516 0.06879 0.15875 0.06879 0.38629 0 0.42863-0.29104 0.66146-0.28575 0.22754-0.8255 0.22754-0.17462 0-0.32808-0.0265-0.15346-0.0212-0.27517-0.0582-0.11642-0.037-0.20638-0.0741-0.08996-0.037-0.13758-0.0688l0.13229-0.35983q0.10583 0.0582 0.31221 0.13758 0.20638 0.0741 0.50271 0.0741z"/>
<path d="m43.891 195h1.0372v0.36512h-1.0372v1.143q0 0.18521 0.02646 0.30163t0.08467 0.1905q0.0635 0.0688 0.15875 0.0953t0.23283 0.0265q0.1905 0 0.30692-0.0317 0.11642-0.0318 0.22225-0.0847l0.0635 0.37042q-0.07408 0.0317-0.23812 0.0847-0.15875 0.0529-0.39688 0.0529-0.27517 0-0.44979-0.0635t-0.27517-0.1905q-0.09525-0.127-0.13229-0.31221-0.03704-0.1905-0.03704-0.43921v-1.143h-0.51858v-0.36512h0.51858v-0.68792l0.43392-0.0741v0.762z"/>
<path d="m45.817 197.46v-2.323q0.53975-0.18521 1.0901-0.18521 0.16933 0 0.32279 0.0159 0.15346 0.0106 0.33867 0.0529l-0.07937 0.3863q-0.16933-0.0476-0.30162-0.0582-0.127-0.0159-0.28046-0.0159-0.32279 0-0.65617 0.09v2.0373h-0.43392z"/>
<path d="m49.002 194.62q-0.13758 0-0.23812-0.0952-0.10054-0.0952-0.10054-0.25929 0-0.16404 0.10054-0.25929 0.10054-0.0952 0.23812-0.0952 0.14288 0 0.23812 0.0952 0.10054 0.0953 0.10054 0.25929 0 0.16404-0.10054 0.25929-0.09525 0.0952-0.23812 0.0952zm-0.11112 0.74612h-0.70908v-0.36512h1.143v1.5081q0 0.36513 0.10054 0.49213 0.10054 0.12171 0.30162 0.12171 0.15346 0 0.28046-0.037 0.13229-0.037 0.20638-0.0794l0.0635 0.37042q-0.03175 0.0159-0.08996 0.0423-0.05821 0.0212-0.13758 0.0423-0.07408 0.0212-0.16933 0.037-0.08996 0.0159-0.1905 0.0159-0.23283 0-0.38629-0.0635-0.15346-0.0635-0.24871-0.1905-0.08996-0.127-0.127-0.31221-0.03704-0.1905-0.03704-0.43921v-1.143z"/>
<path d="m50.918 195.07q0.23812-0.0582 0.47096-0.09 0.23812-0.0318 0.4445-0.0318 0.49212 0 0.74083 0.254 0.254 0.254 0.254 0.81492v1.4393h-0.43392v-1.36q0-0.23812-0.04233-0.38629-0.04233-0.14816-0.12171-0.22754-0.07408-0.0847-0.18521-0.11642-0.10583-0.0318-0.23283-0.0318-0.10583 0-0.22754 0.0159-0.11642 0.0106-0.22754 0.0317v2.0743h-0.43921v-2.3865z"/>
<path d="m55.019 197.23q-0.07408 0.0423-0.22754 0.09-0.15346 0.0476-0.35454 0.0476-0.21696 0-0.40746-0.0688-0.18521-0.0741-0.32808-0.21696-0.13758-0.14816-0.22225-0.37041-0.07937-0.22754-0.07937-0.53446 0-0.26988 0.07408-0.49213 0.07937-0.22754 0.22225-0.39158 0.14817-0.16404 0.35983-0.254 0.21167-0.0953 0.48154-0.0953 0.3175 0 0.53975 0.0476 0.22754 0.0423 0.381 0.0847v2.1908q0 0.5715-0.29104 0.8255-0.28575 0.254-0.86783 0.254-0.23812 0-0.43392-0.037-0.1905-0.037-0.33867-0.09l0.07937-0.38629q0.13758 0.0582 0.31221 0.0952 0.17992 0.037 0.39158 0.037 0.381 0 0.54504-0.15346 0.16404-0.15345 0.16404-0.49741v-0.0847zm0-1.8415q-0.0635-0.0212-0.17462-0.037-0.11112-0.0212-0.30162-0.0212-0.33867 0-0.51858 0.23284-0.17462 0.23283-0.17462 0.61912 0 0.21167 0.04762 0.36513 0.05292 0.14816 0.13758 0.2487 0.08996 0.0953 0.20108 0.14288 0.11112 0.0423 0.23812 0.0423 0.16404 0 0.30692-0.0476 0.14817-0.0476 0.23812-0.11113v-1.434z"/>
<path d="m57.548 197.12q0 0.15875-0.10583 0.28045-0.10583 0.12171-0.28046 0.12171-0.17992 0-0.28575-0.12171-0.10583-0.1217-0.10583-0.28045 0-0.16405 0.10583-0.28575 0.10583-0.12171 0.28575-0.12171 0.17462 0 0.28046 0.12171 0.10583 0.1217 0.10583 0.28575z"/>
<path d="m60.194 197.12q0 0.15875-0.10583 0.28045-0.10583 0.12171-0.28046 0.12171-0.17992 0-0.28575-0.12171-0.10583-0.1217-0.10583-0.28045 0-0.16405 0.10583-0.28575 0.10583-0.12171 0.28575-0.12171 0.17462 0 0.28046 0.12171 0.10583 0.1217 0.10583 0.28575z"/>
<path d="m62.84 197.12q0 0.15875-0.10583 0.28045-0.10583 0.12171-0.28046 0.12171-0.17992 0-0.28575-0.12171-0.10583-0.1217-0.10583-0.28045 0-0.16405 0.10583-0.28575 0.10583-0.12171 0.28575-0.12171 0.17462 0 0.28046 0.12171 0.10583 0.1217 0.10583 0.28575z"/>
<path d="m67.767 197.14q0.16404 0 0.29104-0.0106 0.13229-0.0106 0.21696-0.0265v-0.73025q-0.08467-0.0265-0.20638-0.0423-0.11642-0.0159-0.24871-0.0159-0.12171 0-0.23812 0.0212-0.11642 0.0159-0.20638 0.0635-0.08996 0.0476-0.14817 0.127-0.05821 0.0741-0.05821 0.1905 0 0.23813 0.15875 0.33338 0.16404 0.09 0.43921 0.09zm-0.04233-2.2013q0.27517 0 0.46038 0.0688 0.1905 0.0688 0.30692 0.1905 0.11642 0.12171 0.16404 0.29634 0.04762 0.17462 0.04762 0.381v1.5346q-0.15346 0.0265-0.40746 0.0635-0.24871 0.037-0.51329 0.037-0.20108 0-0.39158-0.037-0.1905-0.0318-0.33867-0.11642-0.14817-0.09-0.23812-0.24341-0.08996-0.15346-0.08996-0.39159 0-0.21166 0.08996-0.35454 0.09525-0.14817 0.23812-0.23812 0.14817-0.09 0.33338-0.127 0.1905-0.0423 0.381-0.0423 0.25929 0 0.508 0.0582v-0.12171q0-0.11112-0.02646-0.21166-0.02117-0.10584-0.08996-0.1905-0.0635-0.0847-0.17992-0.1323-0.11112-0.0529-0.29104-0.0529-0.22754 0-0.39688 0.0318-0.16933 0.0317-0.25929 0.0635l-0.05292-0.35984q0.08996-0.0423 0.29633-0.0741 0.21167-0.0318 0.44979-0.0318z"/>
<path d="m69.629 197.46v-2.323q0.53975-0.18521 1.0901-0.18521 0.16933 0 0.32279 0.0159 0.15346 0.0106 0.33867 0.0529l-0.07937 0.3863q-0.16933-0.0476-0.30162-0.0582-0.127-0.0159-0.28046-0.0159-0.32279 0-0.65617 0.09v2.0373h-0.43392z"/>
<path d="m73.54 197.23q-0.07408 0.0423-0.22754 0.09-0.15346 0.0476-0.35454 0.0476-0.21696 0-0.40746-0.0688-0.18521-0.0741-0.32808-0.21696-0.13758-0.14816-0.22225-0.37041-0.07937-0.22754-0.07937-0.53446 0-0.26988 0.07408-0.49213 0.07938-0.22754 0.22225-0.39158 0.14817-0.16404 0.35983-0.254 0.21167-0.0953 0.48154-0.0953 0.3175 0 0.53975 0.0476 0.22754 0.0423 0.381 0.0847v2.1908q0 0.5715-0.29104 0.8255-0.28575 0.254-0.86783 0.254-0.23812 0-0.43392-0.037-0.1905-0.037-0.33867-0.09l0.07937-0.38629q0.13758 0.0582 0.31221 0.0952 0.17992 0.037 0.39158 0.037 0.381 0 0.54504-0.15346 0.16404-0.15345 0.16404-0.49741v-0.0847zm0-1.8415q-0.0635-0.0212-0.17462-0.037-0.11112-0.0212-0.30162-0.0212-0.33867 0-0.51858 0.23284-0.17462 0.23283-0.17462 0.61912 0 0.21167 0.04763 0.36513 0.05292 0.14816 0.13758 0.2487 0.08996 0.0953 0.20108 0.14288 0.11112 0.0423 0.23812 0.0423 0.16404 0 0.30692-0.0476 0.14817-0.0476 0.23812-0.11113v-1.434z"/>
<path d="m76.212 196.84q0-0.13229-0.11112-0.21696-0.10583-0.0847-0.26988-0.14817-0.15875-0.0635-0.34925-0.1217-0.1905-0.0635-0.35454-0.15346-0.15875-0.09-0.26988-0.22225-0.10583-0.13229-0.10583-0.34396 0-0.29633 0.23812-0.49213 0.24342-0.20108 0.75671-0.20108 0.20108 0 0.41275 0.0318 0.21696 0.0265 0.37042 0.0741l-0.07937 0.39159q-0.04233-0.0212-0.11642-0.0423-0.07408-0.0265-0.16933-0.0423-0.09525-0.0212-0.20638-0.0318-0.10583-0.0106-0.20638-0.0106-0.5715 0-0.5715 0.31221 0 0.11112 0.10583 0.1905 0.11112 0.0741 0.27517 0.13758 0.16404 0.0635 0.35454 0.13229 0.1905 0.0635 0.35454 0.15875 0.16404 0.0953 0.26988 0.23283 0.11112 0.1323 0.11112 0.33867 0 0.33338-0.25929 0.51858-0.25929 0.17992-0.82021 0.17992-0.254 0-0.46567-0.0423t-0.40217-0.127l0.08467-0.39688q0.18521 0.0847 0.38629 0.14288 0.20638 0.0529 0.43921 0.0529 0.59796 0 0.59796-0.30162z"/>
<path d="m77.609 198.02q0.49212-0.381 0.75142-0.87842 0.26458-0.49741 0.26458-1.0848 0-0.29633-0.0635-0.56091-0.05821-0.26459-0.18521-0.508-0.127-0.24342-0.32279-0.47096-0.1905-0.22754-0.45508-0.45509l0.23812-0.3175q0.60854 0.4498 0.90488 1.0478 0.30162 0.59267 0.30162 1.2541 0 0.32808-0.07937 0.64558-0.07408 0.3175-0.22754 0.61384-0.14817 0.29104-0.37571 0.55033-0.22225 0.26458-0.52388 0.48154l-0.23283-0.3175h0.0053z"/>
<path d="m82.71 195.87h0.21167q0.08996 0 0.15875-0.037 0.06879-0.0423 0.11112-0.10583 0.04762-0.0688 0.06879-0.14817 0.02646-0.0847 0.02646-0.16933v-0.85196q0-0.19579 0.03704-0.34396 0.04233-0.14816 0.13758-0.24871 0.09525-0.10583 0.254-0.15875 0.16404-0.0529 0.40746-0.0529h0.42862v0.34396h-0.44979q-0.22225 0-0.3175 0.10054-0.08996 0.10054-0.08996 0.36512v0.73025q0 0.35454-0.10583 0.52388-0.10583 0.16404-0.24342 0.22225 0.13758 0.0635 0.24342 0.23812 0.10583 0.17463 0.10583 0.508v0.73025q0 0.26459 0.09525 0.36513t0.3175 0.10054h0.4445v0.34396h-0.42862q-0.24342 0-0.40746-0.0529-0.15875-0.0529-0.254-0.15875-0.09525-0.10054-0.13758-0.24871-0.03704-0.14816-0.03704-0.34396v-0.85195q0-0.0794-0.02646-0.15875-0.02117-0.0847-0.06879-0.14817-0.04233-0.0688-0.11112-0.11113-0.0635-0.0423-0.15346-0.0423h-0.21696v-0.33867z"/>
<path d="m38.551 205.09q0.33338 0 0.508-0.127t0.17462-0.381q0-0.15346-0.0635-0.2593-0.0635-0.11112-0.16933-0.1905-0.10583-0.0847-0.23812-0.14287-0.13229-0.0635-0.26988-0.11642-0.15875-0.0635-0.30692-0.14287-0.14288-0.0794-0.25929-0.18521-0.11112-0.10583-0.17992-0.24871-0.0635-0.14287-0.0635-0.33867 0-0.42862 0.26988-0.66675 0.26988-0.24341 0.75142-0.24341 0.13229 0 0.25929 0.0212 0.13229 0.0159 0.24342 0.0423 0.11112 0.0265 0.19579 0.0635 0.08996 0.037 0.14288 0.0741l-0.13758 0.36513q-0.10583-0.0635-0.29104-0.127t-0.41275-0.0635q-0.23812 0-0.41275 0.1217-0.17462 0.11642-0.17462 0.35455 0 0.13758 0.04763 0.23283 0.05292 0.0952 0.13758 0.16933 0.08996 0.0688 0.20638 0.127 0.11642 0.0582 0.254 0.11642 0.20108 0.0847 0.36512 0.16933 0.16933 0.0847 0.28575 0.20109 0.12171 0.11641 0.18521 0.27516 0.06879 0.15875 0.06879 0.38629 0 0.42863-0.29104 0.66146-0.28575 0.22754-0.8255 0.22754-0.17462 0-0.32808-0.0265-0.15346-0.0212-0.27517-0.0582-0.11642-0.037-0.20638-0.0741-0.08996-0.037-0.13758-0.0688l0.13229-0.35983q0.10583 0.0582 0.31221 0.13758 0.20638 0.0741 0.50271 0.0741z"/>
<path d="m40.229 205.85q0.04763 0.0265 0.13229 0.0423 0.08996 0.0159 0.16404 0.0159 0.25929 0 0.40217-0.11642 0.14817-0.11113 0.26988-0.37042-0.29633-0.56091-0.55562-1.2012-0.25929-0.64558-0.42862-1.2859h0.47625q0.05292 0.21167 0.12171 0.46037 0.07408 0.24342 0.16404 0.50271 0.08996 0.25929 0.1905 0.52388 0.10583 0.25929 0.22225 0.49741 0.08467-0.24341 0.15875-0.48154 0.07408-0.23812 0.13758-0.47625 0.0635-0.24341 0.127-0.49212 0.0635-0.254 0.13229-0.53446h0.45508q-0.16933 0.68792-0.381 1.3335-0.20638 0.64558-0.4445 1.1959-0.08996 0.21166-0.19579 0.36512-0.10054 0.15346-0.22225 0.254t-0.27517 0.14817q-0.15346 0.0476-0.34925 0.0476-0.10054 0-0.22225-0.0265-0.11642-0.0264-0.15875-0.0476l0.07937-0.35454z"/>
<path d="m44.462 204.78q0-0.13229-0.11112-0.21696-0.10583-0.0847-0.26988-0.14817-0.15875-0.0635-0.34925-0.1217-0.1905-0.0635-0.35454-0.15346-0.15875-0.09-0.26988-0.22225-0.10583-0.13229-0.10583-0.34396 0-0.29633 0.23812-0.49213 0.24342-0.20108 0.75671-0.20108 0.20108 0 0.41275 0.0318 0.21696 0.0265 0.37042 0.0741l-0.07937 0.39159q-0.04233-0.0212-0.11642-0.0423-0.07408-0.0265-0.16933-0.0423-0.09525-0.0212-0.20638-0.0318-0.10583-0.0106-0.20638-0.0106-0.5715 0-0.5715 0.31221 0 0.11112 0.10583 0.1905 0.11112 0.0741 0.27517 0.13758 0.16404 0.0635 0.35454 0.13229 0.1905 0.0635 0.35454 0.15875 0.16404 0.0953 0.26988 0.23283 0.11112 0.1323 0.11112 0.33867 0 0.33338-0.25929 0.51858-0.25929 0.17992-0.82021 0.17992-0.254 0-0.46567-0.0423t-0.40217-0.127l0.08467-0.39688q0.18521 0.0847 0.38629 0.14288 0.20638 0.0529 0.43921 0.0529 0.59796 0 0.59796-0.30162z"/>
<path d="m46.537 202.94h1.0372v0.36512h-1.0372v1.143q0 0.18521 0.02646 0.30163t0.08467 0.1905q0.0635 0.0688 0.15875 0.0953t0.23283 0.0265q0.1905 0 0.30692-0.0317 0.11642-0.0318 0.22225-0.0847l0.0635 0.37042q-0.07408 0.0317-0.23812 0.0847-0.15875 0.0529-0.39688 0.0529-0.27517 0-0.44979-0.0635t-0.27517-0.1905q-0.09525-0.127-0.13229-0.31221-0.03704-0.1905-0.03704-0.43921v-1.143h-0.51858v-0.36512h0.51858v-0.68792l0.43392-0.0741v0.762z"/>
<path d="m49.267 202.88q0.49742 0 0.76729 0.31221 0.26988 0.30692 0.26988 0.93662v0.15346h-1.7568q0.02646 0.381 0.24871 0.58209 0.22754 0.19579 0.635 0.19579 0.23283 0 0.39688-0.037 0.16404-0.037 0.24871-0.0794l0.05821 0.37042q-0.07937 0.0423-0.28575 0.09-0.20638 0.0476-0.46567 0.0476-0.3175 0-0.56092-0.0952-0.23812-0.10054-0.39688-0.26987-0.15875-0.16934-0.23812-0.40217-0.07937-0.23813-0.07937-0.51329 0-0.32809 0.10054-0.5715 0.10054-0.24342 0.26458-0.40217t0.37042-0.23812q0.20638-0.0794 0.42333-0.0794zm0.59267 1.0478q0-0.31221-0.16404-0.49212-0.16404-0.18521-0.43392-0.18521-0.15346 0-0.28046 0.0582-0.12171 0.0582-0.21167 0.15345-0.08996 0.0952-0.14288 0.21696-0.05292 0.12171-0.06879 0.24871h1.3018z"/>
<path d="m50.759 203.01q0.3175-0.12171 0.59796-0.12171 0.15346 0 0.28575 0.0476 0.13758 0.0423 0.23283 0.13758 0.22754-0.18521 0.48683-0.18521 0.127 0 0.23812 0.0476 0.11642 0.0476 0.20108 0.14287 0.08996 0.0952 0.14288 0.23813 0.05292 0.14287 0.05292 0.33337v1.7462h-0.39688v-1.7568q0-0.1905-0.08467-0.29104t-0.21167-0.10054q-0.0635 0-0.13229 0.0317-0.06879 0.0317-0.127 0.10054 0.03175 0.12171 0.03175 0.26987v0.79904h-0.39688v-0.80433q0-0.18521-0.05821-0.29104t-0.22754-0.10583q-0.10583 0-0.23812 0.0476v2.1008h-0.39688v-2.3865z"/>
<path d="m54.903 205.05q0 0.15875-0.10583 0.28045-0.10583 0.12171-0.28046 0.12171-0.17992 0-0.28575-0.12171-0.10583-0.1217-0.10583-0.28045 0-0.16405 0.10583-0.28575 0.10583-0.12171 0.28575-0.12171 0.17462 0 0.28046 0.12171 0.10583 0.1217 0.10583 0.28575z"/>
<path d="m58.268 204.17q0 0.29104-0.08467 0.52916-0.07937 0.23284-0.22754 0.40217-0.14817 0.16933-0.35454 0.26458-0.20638 0.09-0.44979 0.09-0.23812 0-0.4445-0.09-0.20108-0.0953-0.34925-0.26458-0.14817-0.16933-0.23283-0.40217-0.07937-0.23812-0.07937-0.52916 0-0.29105 0.07937-0.52917 0.08467-0.23813 0.23283-0.40217 0.14817-0.16933 0.34925-0.25929 0.20638-0.0953 0.4445-0.0953 0.24342 0 0.44979 0.0953 0.20638 0.09 0.35454 0.25929 0.14817 0.16404 0.22754 0.40217 0.08467 0.23812 0.08467 0.52917zm-0.44979 0q0-0.41805-0.17992-0.65617-0.17992-0.24342-0.48683-0.24342-0.30162 0-0.48154 0.24342-0.17462 0.23812-0.17462 0.65617 0 0.41275 0.17462 0.65616 0.17992 0.23813 0.48154 0.23813 0.30692 0 0.48683-0.23813 0.17992-0.24341 0.17992-0.65616z"/>
<path d="m60.75 205.32q-0.14288 0.037-0.381 0.0794-0.23283 0.0423-0.55033 0.0423-0.28046 0-0.46567-0.0794-0.18521-0.0847-0.30162-0.23283-0.11642-0.15346-0.16404-0.35983-0.04763-0.20638-0.04763-0.45509v-1.3811h0.43392v1.2859q0 0.45509 0.13229 0.64559 0.13758 0.1905 0.45508 0.1905 0.06879 0 0.13758-5e-3 0.07408-5e-3 0.13758-0.0106 0.0635-0.0106 0.11112-0.0159 0.04762-0.0106 0.0635-0.0159v-2.0743h0.43921v2.3865z"/>
<path d="m62.412 202.94h1.0372v0.36512h-1.0372v1.143q0 0.18521 0.02646 0.30163t0.08467 0.1905q0.0635 0.0688 0.15875 0.0953t0.23283 0.0265q0.1905 0 0.30692-0.0317 0.11642-0.0318 0.22225-0.0847l0.0635 0.37042q-0.07408 0.0317-0.23812 0.0847-0.15875 0.0529-0.39688 0.0529-0.27517 0-0.44979-0.0635t-0.27517-0.1905q-0.09525-0.127-0.13229-0.31221-0.03704-0.1905-0.03704-0.43921v-1.143h-0.51858v-0.36512h0.51858v-0.68792l0.43392-0.0741v0.762z"/>
<path d="m65.486 205.05q0 0.15875-0.10583 0.28045-0.10583 0.12171-0.28046 0.12171-0.17992 0-0.28575-0.12171-0.10583-0.1217-0.10583-0.28045 0-0.16405 0.10583-0.28575 0.10583-0.12171 0.28575-0.12171 0.17462 0 0.28046 0.12171 0.10583 0.1217 0.10583 0.28575z"/>
<path d="m68.402 204.17q0-0.42863-0.20108-0.66146-0.20108-0.23813-0.52388-0.23813-0.17992 0-0.28575 0.0159-0.10054 0.0159-0.15875 0.037v1.5505q0.07408 0.0688 0.21696 0.127 0.14288 0.0582 0.29633 0.0582 0.17462 0 0.29633-0.0688 0.127-0.0688 0.20638-0.18521 0.07937-0.12171 0.11642-0.28046 0.03704-0.16404 0.03704-0.35454zm0.44979 0q0 0.28046-0.07408 0.51858-0.06879 0.23283-0.20638 0.40217-0.13229 0.16933-0.32808 0.26458-0.19579 0.0952-0.4445 0.0952-0.19579 0-0.34396-0.0476t-0.22225-0.10584v0.96838h-0.43921v-3.2544q0.14288-0.0423 0.36512-0.0847 0.22754-0.0423 0.51858-0.0423 0.26458 0 0.48154 0.09 0.21696 0.09 0.37042 0.25929 0.15346 0.16404 0.23812 0.40217 0.08467 0.23812 0.08467 0.53446z"/>
<path d="m69.629 205.39v-2.323q0.53975-0.18521 1.0901-0.18521 0.16933 0 0.32279 0.0159 0.15346 0.0106 0.33867 0.0529l-0.07937 0.3863q-0.16933-0.0476-0.30162-0.0582-0.127-0.0159-0.28046-0.0159-0.32279 0-0.65617 0.09v2.0373h-0.43392z"/>
<path d="m72.815 202.56q-0.13758 0-0.23812-0.0952-0.10054-0.0952-0.10054-0.25929 0-0.16404 0.10054-0.25929 0.10054-0.0952 0.23812-0.0952 0.14288 0 0.23812 0.0952 0.10054 0.0953 0.10054 0.25929 0 0.16404-0.10054 0.25929-0.09525 0.0952-0.23812 0.0952zm-0.11112 0.74612h-0.70908v-0.36512h1.143v1.5081q0 0.36513 0.10054 0.49213 0.10054 0.12171 0.30162 0.12171 0.15346 0 0.28046-0.037 0.13229-0.037 0.20638-0.0794l0.0635 0.37042q-0.03175 0.0159-0.08996 0.0423-0.05821 0.0212-0.13758 0.0423-0.07408 0.0212-0.16933 0.037-0.08996 0.0159-0.1905 0.0159-0.23283 0-0.38629-0.0635-0.15346-0.0635-0.24871-0.1905-0.08996-0.127-0.127-0.31221-0.03704-0.1905-0.03704-0.43921v-1.143z"/>
<path d="m74.731 203.01q0.23812-0.0582 0.47096-0.09 0.23812-0.0318 0.4445-0.0318 0.49212 0 0.74083 0.254 0.254 0.254 0.254 0.81492v1.4393h-0.43392v-1.36q0-0.23812-0.04233-0.38629-0.04233-0.14816-0.12171-0.22754-0.07408-0.0847-0.18521-0.11642-0.10583-0.0318-0.23283-0.0318-0.10583 0-0.22754 0.0159-0.11642 0.0106-0.22754 0.0317v2.0743h-0.43921v-2.3865z"/>
<path d="m78.287 202.94h1.0372v0.36512h-1.0372v1.143q0 0.18521 0.02646 0.30163t0.08467 0.1905q0.0635 0.0688 0.15875 0.0953t0.23283 0.0265q0.1905 0 0.30692-0.0317 0.11642-0.0318 0.22225-0.0847l0.0635 0.37042q-0.07408 0.0317-0.23812 0.0847-0.15875 0.0529-0.39688 0.0529-0.27517 0-0.44979-0.0635t-0.27517-0.1905q-0.09525-0.127-0.13229-0.31221-0.03704-0.1905-0.03704-0.43921v-1.143h-0.51858v-0.36512h0.51858v-0.68792l0.43392-0.0741v0.762z"/>
<path d="m81.435 205.45q-0.23283 0-0.38629-0.0635t-0.24342-0.1905q-0.08996-0.127-0.127-0.31221-0.03704-0.1905-0.03704-0.43921v-2.323h-0.70908v-0.37041h1.143v2.6934q0 0.18521 0.02117 0.30163 0.02646 0.11642 0.07408 0.1905 0.05292 0.0688 0.127 0.0953t0.17462 0.0265q0.15346 0 0.28575-0.037 0.13229-0.037 0.20638-0.0794l0.0635 0.37042q-0.03175 0.0159-0.08996 0.0423-0.05821 0.0212-0.13758 0.0423-0.07937 0.0212-0.17462 0.037-0.08996 0.0159-0.1905 0.0159z"/>
<path d="m82.668 203.01q0.23812-0.0582 0.47096-0.09 0.23812-0.0318 0.4445-0.0318 0.49212 0 0.74083 0.254 0.254 0.254 0.254 0.81492v1.4393h-0.43392v-1.36q0-0.23812-0.04233-0.38629-0.04233-0.14816-0.12171-0.22754-0.07408-0.0847-0.18521-0.11642-0.10583-0.0318-0.23283-0.0318-0.10583 0-0.22754 0.0159-0.11642 0.0106-0.22754 0.0317v2.0743h-0.43921v-2.3865z"/>
<path d="m89.616 202q-0.49212 0.381-0.75142 0.87842-0.25929 0.49742-0.25929 1.0848 0 0.29634 0.05821 0.56092 0.0635 0.26458 0.18521 0.508 0.127 0.24342 0.3175 0.47096 0.19579 0.22754 0.46038 0.45508l-0.23812 0.3175q-0.60854-0.44979-0.91017-1.0425-0.29633-0.59796-0.29633-1.2594 0-0.65617 0.30162-1.2541t0.90488-1.0372l0.23283 0.3175h-0.0053z"/>
<path d="m91.32 201.8v0.23813q0 0.23283-0.02646 0.53445-0.02646 0.29634-0.06879 0.54505h-0.22225q-0.03704-0.24871-0.0635-0.54505-0.02646-0.30162-0.02646-0.53975v-0.23283h0.40746zm0.87312 0v0.23813q0 0.23283-0.02646 0.53445-0.02646 0.29634-0.0635 0.54505h-0.22225q-0.04233-0.24871-0.06879-0.54505-0.02646-0.30162-0.02646-0.53975v-0.23283h0.40746z"/>
<path d="m94.849 202.12h0.43392v3.2755h-0.43392v-1.524h-1.3018v1.524h-0.43392v-3.2755h0.43392v1.3811h1.3018z"/>
<path d="m96.892 202.88q0.49742 0 0.76729 0.31221 0.26988 0.30692 0.26988 0.93662v0.15346h-1.7568q0.02646 0.381 0.24871 0.58209 0.22754 0.19579 0.635 0.19579 0.23283 0 0.39688-0.037 0.16404-0.037 0.24871-0.0794l0.05821 0.37042q-0.07937 0.0423-0.28575 0.09-0.20638 0.0476-0.46567 0.0476-0.3175 0-0.56092-0.0952-0.23812-0.10054-0.39688-0.26987-0.15875-0.16934-0.23812-0.40217-0.07937-0.23813-0.07937-0.51329 0-0.32809 0.10054-0.5715 0.10054-0.24342 0.26458-0.40217t0.37042-0.23812q0.20638-0.0794 0.42333-0.0794zm0.59267 1.0478q0-0.31221-0.16404-0.49212-0.16404-0.18521-0.43392-0.18521-0.15346 0-0.28046 0.0582-0.12171 0.0582-0.21167 0.15345-0.08996 0.0952-0.14288 0.21696-0.05292 0.12171-0.06879 0.24871h1.3018z"/>
<path d="m99.956 205.45q-0.23283 0-0.38629-0.0635-0.15346-0.0635-0.24342-0.1905-0.08996-0.127-0.127-0.31221-0.03704-0.1905-0.03704-0.43921v-2.323h-0.70908v-0.37041h1.143v2.6934q0 0.18521 0.02117 0.30163 0.02646 0.11642 0.07408 0.1905 0.05292 0.0688 0.127 0.0953t0.17462 0.0265q0.15346 0 0.28575-0.037t0.20637-0.0794l0.0635 0.37042q-0.0317 0.0159-0.09 0.0423-0.0582 0.0212-0.13758 0.0423-0.0794 0.0212-0.17462 0.037-0.09 0.0159-0.1905 0.0159z"/>
<path d="m102.6 205.45q-0.23283 0-0.38629-0.0635t-0.24342-0.1905q-0.09-0.127-0.127-0.31221-0.037-0.1905-0.037-0.43921v-2.323h-0.70908v-0.37041h1.143v2.6934q0 0.18521 0.0212 0.30163 0.0264 0.11642 0.0741 0.1905 0.0529 0.0688 0.127 0.0953t0.17462 0.0265q0.15346 0 0.28575-0.037 0.1323-0.037 0.20638-0.0794l0.0635 0.37042q-0.0318 0.0159-0.09 0.0423-0.0582 0.0212-0.13758 0.0423-0.0794 0.0212-0.17463 0.037-0.09 0.0159-0.1905 0.0159z"/>
<path d="m105.89 204.17q0 0.29104-0.0847 0.52916-0.0794 0.23284-0.22754 0.40217-0.14816 0.16933-0.35454 0.26458-0.20637 0.09-0.44979 0.09-0.23813 0-0.4445-0.09-0.20108-0.0953-0.34925-0.26458-0.14817-0.16933-0.23283-0.40217-0.0794-0.23812-0.0794-0.52916 0-0.29105 0.0794-0.52917 0.0847-0.23813 0.23283-0.40217 0.14817-0.16933 0.34925-0.25929 0.20637-0.0953 0.4445-0.0953 0.24342 0 0.44979 0.0953 0.20638 0.09 0.35454 0.25929 0.14817 0.16404 0.22754 0.40217 0.0847 0.23812 0.0847 0.52917zm-0.44979 0q0-0.41805-0.17992-0.65617-0.17991-0.24342-0.48683-0.24342-0.30163 0-0.48154 0.24342-0.17463 0.23812-0.17463 0.65617 0 0.41275 0.17463 0.65616 0.17991 0.23813 0.48154 0.23813 0.30692 0 0.48683-0.23813 0.17992-0.24341 0.17992-0.65616z"/>
<path d="m107.66 203.01q0 0.19579-5e-3 0.35983-5e-3 0.16405-0.0212 0.31221-0.0106 0.14817-0.0265 0.29634-0.0159 0.14287-0.0318 0.30162h-0.30162q-0.0159-0.15875-0.0318-0.30162-0.0159-0.14817-0.0318-0.29634-0.0106-0.14816-0.0159-0.31221-5e-3 -0.16404-5e-3 -0.35983v-0.889h0.47096v0.889zm-0.23812 2.45q-0.14288 0-0.24871-0.0952-0.10584-0.10054-0.10584-0.26458t0.10584-0.25929q0.10583-0.10054 0.24871-0.10054 0.14816 0 0.2487 0.10054 0.10584 0.0953 0.10584 0.25929 0 0.16404-0.10584 0.26458-0.10054 0.0952-0.2487 0.0952z"/>
<path d="m109.84 201.8v0.23813q0 0.23283-0.0265 0.53445-0.0264 0.29634-0.0688 0.54505h-0.22225q-0.037-0.24871-0.0635-0.54505-0.0265-0.30162-0.0265-0.53975v-0.23283h0.40746zm0.87313 0v0.23813q0 0.23283-0.0265 0.53445-0.0265 0.29634-0.0635 0.54505h-0.22225q-0.0423-0.24871-0.0688-0.54505-0.0265-0.30162-0.0265-0.53975v-0.23283h0.40746z"/>
<path d="m112.01 205.96q0.49212-0.381 0.75141-0.87842 0.26459-0.49741 0.26459-1.0848 0-0.29633-0.0635-0.56091-0.0582-0.26459-0.18521-0.508-0.127-0.24342-0.32279-0.47096-0.1905-0.22754-0.45509-0.45509l0.23813-0.3175q0.60854 0.4498 0.90487 1.0478 0.30163 0.59267 0.30163 1.2541 0 0.32808-0.0794 0.64558-0.0741 0.3175-0.22754 0.61384-0.14817 0.29104-0.37571 0.55033-0.22225 0.26458-0.52387 0.48154l-0.23284-0.3175h5e-3z"/>
<path d="m114.7 205.81q0.0952-0.0212 0.18521-0.0423 0.0952-0.0212 0.17462-0.0635 0.0794-0.037 0.14288-0.10054 0.0635-0.0582 0.10054-0.16404-0.16933-0.0159-0.24871-0.127-0.0741-0.11642-0.0741-0.22754 0-0.21167 0.11642-0.3175 0.1217-0.11113 0.27516-0.11113 0.19579 0 0.29634 0.14288 0.10054 0.13758 0.10054 0.33866 0 0.15346-0.0635 0.3175-0.0582 0.16934-0.18521 0.31221-0.12171 0.14817-0.30692 0.24871-0.18521 0.10583-0.43921 0.13758l-0.0741-0.34396zm1.053-2.4659q0 0.15875-0.10583 0.28046-0.10583 0.1217-0.28046 0.1217-0.17992 0-0.28575-0.1217-0.10583-0.12171-0.10583-0.28046 0-0.16404 0.10583-0.28575t0.28575-0.12171q0.17463 0 0.28046 0.12171t0.10583 0.28575z"/>
<path d="m38.551 213.02q0.33338 0 0.508-0.127t0.17462-0.381q0-0.15346-0.0635-0.2593-0.0635-0.11112-0.16933-0.1905-0.10583-0.0847-0.23812-0.14287-0.13229-0.0635-0.26988-0.11642-0.15875-0.0635-0.30692-0.14287-0.14288-0.0794-0.25929-0.18521-0.11112-0.10583-0.17992-0.24871-0.0635-0.14287-0.0635-0.33867 0-0.42862 0.26988-0.66675 0.26988-0.24341 0.75142-0.24341 0.13229 0 0.25929 0.0212 0.13229 0.0159 0.24342 0.0423 0.11112 0.0265 0.19579 0.0635 0.08996 0.037 0.14288 0.0741l-0.13758 0.36513q-0.10583-0.0635-0.29104-0.127t-0.41275-0.0635q-0.23812 0-0.41275 0.1217-0.17462 0.11642-0.17462 0.35455 0 0.13758 0.04763 0.23283 0.05292 0.0952 0.13758 0.16933 0.08996 0.0688 0.20638 0.127 0.11642 0.0582 0.254 0.11642 0.20108 0.0847 0.36512 0.16933 0.16933 0.0847 0.28575 0.20109 0.12171 0.11641 0.18521 0.27516 0.06879 0.15875 0.06879 0.38629 0 0.42863-0.29104 0.66146-0.28575 0.22754-0.8255 0.22754-0.17462 0-0.32808-0.0265-0.15346-0.0212-0.27517-0.0582-0.11642-0.037-0.20638-0.0741-0.08996-0.037-0.13758-0.0688l0.13229-0.35983q0.10583 0.0582 0.31221 0.13758 0.20638 0.0741 0.50271 0.0741z"/>
<path d="m40.229 213.79q0.04763 0.0265 0.13229 0.0423 0.08996 0.0159 0.16404 0.0159 0.25929 0 0.40217-0.11642 0.14817-0.11113 0.26988-0.37042-0.29633-0.56091-0.55562-1.2012-0.25929-0.64558-0.42862-1.2859h0.47625q0.05292 0.21167 0.12171 0.46037 0.07408 0.24342 0.16404 0.50271 0.08996 0.25929 0.1905 0.52388 0.10583 0.25929 0.22225 0.49741 0.08467-0.24341 0.15875-0.48154 0.07408-0.23812 0.13758-0.47625 0.0635-0.24341 0.127-0.49212 0.0635-0.254 0.13229-0.53446h0.45508q-0.16933 0.68792-0.381 1.3335-0.20638 0.64558-0.4445 1.1959-0.08996 0.21166-0.19579 0.36512-0.10054 0.15346-0.22225 0.254t-0.27517 0.14817q-0.15346 0.0476-0.34925 0.0476-0.10054 0-0.22225-0.0265-0.11642-0.0264-0.15875-0.0476l0.07937-0.35454z"/>
<path d="m44.462 212.72q0-0.13229-0.11112-0.21696-0.10583-0.0847-0.26988-0.14817-0.15875-0.0635-0.34925-0.1217-0.1905-0.0635-0.35454-0.15346-0.15875-0.09-0.26988-0.22225-0.10583-0.13229-0.10583-0.34396 0-0.29633 0.23812-0.49213 0.24342-0.20108 0.75671-0.20108 0.20108 0 0.41275 0.0318 0.21696 0.0265 0.37042 0.0741l-0.07937 0.39159q-0.04233-0.0212-0.11642-0.0423-0.07408-0.0265-0.16933-0.0423-0.09525-0.0212-0.20638-0.0318-0.10583-0.0106-0.20638-0.0106-0.5715 0-0.5715 0.31221 0 0.11112 0.10583 0.1905 0.11112 0.0741 0.27517 0.13758 0.16404 0.0635 0.35454 0.13229 0.1905 0.0635 0.35454 0.15875 0.16404 0.0953 0.26988 0.23283 0.11112 0.1323 0.11112 0.33867 0 0.33338-0.25929 0.51858-0.25929 0.17992-0.82021 0.17992-0.254 0-0.46567-0.0423t-0.40217-0.127l0.08467-0.39688q0.18521 0.0847 0.38629 0.14288 0.20638 0.0529 0.43921 0.0529 0.59796 0 0.59796-0.30162z"/>
<path d="m46.537 210.87h1.0372v0.36512h-1.0372v1.143q0 0.18521 0.02646 0.30163t0.08467 0.1905q0.0635 0.0688 0.15875 0.0953t0.23283 0.0265q0.1905 0 0.30692-0.0317 0.11642-0.0318 0.22225-0.0847l0.0635 0.37042q-0.07408 0.0317-0.23812 0.0847-0.15875 0.0529-0.39688 0.0529-0.27517 0-0.44979-0.0635t-0.27517-0.1905q-0.09525-0.127-0.13229-0.31221-0.03704-0.1905-0.03704-0.43921v-1.143h-0.51858v-0.36512h0.51858v-0.68792l0.43392-0.0741v0.762z"/>
<path d="m49.267 210.82q0.49742 0 0.76729 0.31221 0.26988 0.30692 0.26988 0.93662v0.15346h-1.7568q0.02646 0.381 0.24871 0.58209 0.22754 0.19579 0.635 0.19579 0.23283 0 0.39688-0.037 0.16404-0.037 0.24871-0.0794l0.05821 0.37042q-0.07937 0.0423-0.28575 0.09-0.20638 0.0476-0.46567 0.0476-0.3175 0-0.56092-0.0952-0.23812-0.10054-0.39688-0.26987-0.15875-0.16934-0.23812-0.40217-0.07937-0.23813-0.07937-0.51329 0-0.32809 0.10054-0.5715 0.10054-0.24342 0.26458-0.40217t0.37042-0.23812q0.20638-0.0794 0.42333-0.0794zm0.59267 1.0478q0-0.31221-0.16404-0.49212-0.16404-0.18521-0.43392-0.18521-0.15346 0-0.28046 0.0582-0.12171 0.0582-0.21167 0.15345-0.08996 0.0952-0.14288 0.21696-0.05292 0.12171-0.06879 0.24871h1.3018z"/>
<path d="m50.759 210.94q0.3175-0.12171 0.59796-0.12171 0.15346 0 0.28575 0.0476 0.13758 0.0423 0.23283 0.13758 0.22754-0.18521 0.48683-0.18521 0.127 0 0.23812 0.0476 0.11642 0.0476 0.20108 0.14287 0.08996 0.0952 0.14288 0.23813 0.05292 0.14287 0.05292 0.33337v1.7462h-0.39688v-1.7568q0-0.1905-0.08467-0.29104t-0.21167-0.10054q-0.0635 0-0.13229 0.0317-0.06879 0.0317-0.127 0.10054 0.03175 0.12171 0.03175 0.26987v0.79904h-0.39688v-0.80433q0-0.18521-0.05821-0.29104t-0.22754-0.10583q-0.10583 0-0.23812 0.0476v2.1008h-0.39688v-2.3865z"/>
<path d="m54.903 212.99q0 0.15875-0.10583 0.28045-0.10583 0.12171-0.28046 0.12171-0.17992 0-0.28575-0.12171-0.10583-0.1217-0.10583-0.28045 0-0.16405 0.10583-0.28575 0.10583-0.12171 0.28575-0.12171 0.17462 0 0.28046 0.12171 0.10583 0.1217 0.10583 0.28575z"/>
<path d="m57.205 210.82q0.49742 0 0.76729 0.31221 0.26988 0.30692 0.26988 0.93662v0.15346h-1.7568q0.02646 0.381 0.24871 0.58209 0.22754 0.19579 0.635 0.19579 0.23283 0 0.39688-0.037 0.16404-0.037 0.24871-0.0794l0.05821 0.37042q-0.07937 0.0423-0.28575 0.09-0.20638 0.0476-0.46567 0.0476-0.3175 0-0.56092-0.0952-0.23812-0.10054-0.39688-0.26987-0.15875-0.16934-0.23812-0.40217-0.07937-0.23813-0.07937-0.51329 0-0.32809 0.10054-0.5715 0.10054-0.24342 0.26458-0.40217t0.37042-0.23812q0.20638-0.0794 0.42333-0.0794zm0.59267 1.0478q0-0.31221-0.16404-0.49212-0.16404-0.18521-0.43392-0.18521-0.15346 0-0.28046 0.0582-0.12171 0.0582-0.21167 0.15345-0.08996 0.0952-0.14288 0.21696-0.05292 0.12171-0.06879 0.24871h1.3018z"/>
<path d="m60.491 213.33q-0.05292-0.10583-0.13229-0.23283-0.07408-0.127-0.16404-0.25929-0.08996-0.13759-0.1905-0.26988-0.09525-0.13229-0.1905-0.24871-0.09525 0.12171-0.20108 0.254-0.10583 0.1323-0.20638 0.26988-0.09525 0.13229-0.17992 0.25929-0.08467 0.127-0.14288 0.22754h-0.44979q0.17462-0.3175 0.42333-0.65087 0.254-0.33867 0.49742-0.64029l-0.88371-1.1642h0.49212l0.66146 0.85725 0.60854-0.85725h0.46567l-0.80962 1.1377q0.23812 0.31221 0.47625 0.65087 0.24342 0.33867 0.41275 0.66675z"/>
<path d="m62.232 210.49q-0.13758 0-0.23812-0.0952-0.10054-0.0952-0.10054-0.25929 0-0.16404 0.10054-0.25929 0.10054-0.0952 0.23812-0.0952 0.14288 0 0.23812 0.0952 0.10054 0.0953 0.10054 0.25929 0 0.16404-0.10054 0.25929-0.09525 0.0952-0.23812 0.0952zm-0.11112 0.74612h-0.70908v-0.36512h1.143v1.5081q0 0.36513 0.10054 0.49213 0.10054 0.12171 0.30162 0.12171 0.15346 0 0.28046-0.037 0.13229-0.037 0.20638-0.0794l0.0635 0.37042q-0.03175 0.0159-0.08996 0.0423-0.05821 0.0212-0.13758 0.0423-0.07408 0.0212-0.16933 0.037-0.08996 0.0159-0.1905 0.0159-0.23283 0-0.38629-0.0635-0.15346-0.0635-0.24871-0.1905-0.08996-0.127-0.127-0.31221-0.03704-0.1905-0.03704-0.43921v-1.143z"/>
<path d="m65.057 210.87h1.0372v0.36512h-1.0372v1.143q0 0.18521 0.02646 0.30163t0.08467 0.1905q0.0635 0.0688 0.15875 0.0953t0.23283 0.0265q0.1905 0 0.30692-0.0317 0.11642-0.0318 0.22225-0.0847l0.0635 0.37042q-0.07408 0.0317-0.23812 0.0847-0.15875 0.0529-0.39688 0.0529-0.27517 0-0.44979-0.0635t-0.27517-0.1905q-0.09525-0.127-0.13229-0.31221-0.03704-0.1905-0.03704-0.43921v-1.143h-0.51858v-0.36512h0.51858v-0.68792l0.43392-0.0741v0.762z"/>
<path d="m68.449 209.94q-0.49212 0.381-0.75142 0.87842-0.25929 0.49742-0.25929 1.0848 0 0.29634 0.05821 0.56092 0.0635 0.26458 0.18521 0.508 0.127 0.24342 0.3175 0.47096 0.19579 0.22754 0.46038 0.45508l-0.23812 0.3175q-0.60854-0.44979-0.91017-1.0425-0.29633-0.59796-0.29633-1.2594 0-0.65617 0.30162-1.2541t0.90488-1.0372l0.23283 0.3175h-0.0053z"/>
<path d="m70.693 211.63q0 0.13758-0.08467 0.23812-0.07937 0.10054-0.21167 0.10054-0.13758 0-0.22225-0.10054-0.08467-0.10054-0.08467-0.23812 0-0.13759 0.08467-0.24342t0.22225-0.10583q0.13229 0 0.21167 0.10583 0.08467 0.10583 0.08467 0.24342zm-1.3864 0.0582q0-0.8255 0.28046-1.2647 0.28575-0.4445 0.79904-0.4445 0.51858 0 0.79904 0.4445 0.28046 0.43921 0.28046 1.2647t-0.28046 1.27q-0.28046 0.4392-0.79904 0.4392-0.51329 0-0.79904-0.4392-0.28046-0.4445-0.28046-1.27zm1.7145 0q0-0.26988-0.03175-0.508-0.03175-0.24342-0.10583-0.42334-0.07408-0.17991-0.19579-0.28575-0.12171-0.10583-0.30162-0.10583t-0.30162 0.10583q-0.12171 0.10584-0.19579 0.28575-0.07408 0.17992-0.10583 0.42334-0.03175 0.23812-0.03175 0.508 0 0.26987 0.03175 0.51329 0.03175 0.23812 0.10583 0.41804 0.07408 0.17992 0.19579 0.28575 0.12171 0.10583 0.30162 0.10583t0.30162-0.10583 0.19579-0.28575q0.07408-0.17992 0.10583-0.41804 0.03175-0.24342 0.03175-0.51329z"/>
<path d="m72.318 213.9q0.49212-0.381 0.75142-0.87842 0.26458-0.49741 0.26458-1.0848 0-0.29633-0.0635-0.56091-0.05821-0.26459-0.18521-0.508-0.127-0.24342-0.32279-0.47096-0.1905-0.22754-0.45508-0.45509l0.23812-0.3175q0.60854 0.4498 0.90488 1.0478 0.30162 0.59267 0.30162 1.2541 0 0.32808-0.07938 0.64558-0.07408 0.3175-0.22754 0.61384-0.14817 0.29104-0.37571 0.55033-0.22225 0.26458-0.52388 0.48154l-0.23283-0.3175h0.0053z"/>
<path d="m75.016 213.75q0.09525-0.0212 0.18521-0.0423 0.09525-0.0212 0.17462-0.0635 0.07937-0.037 0.14288-0.10054 0.0635-0.0582 0.10054-0.16404-0.16933-0.0159-0.24871-0.127-0.07408-0.11642-0.07408-0.22754 0-0.21167 0.11642-0.3175 0.12171-0.11113 0.27517-0.11113 0.19579 0 0.29633 0.14288 0.10054 0.13758 0.10054 0.33866 0 0.15346-0.0635 0.3175-0.05821 0.16934-0.18521 0.31221-0.12171 0.14817-0.30692 0.24871-0.18521 0.10583-0.43921 0.13758l-0.07408-0.34396zm1.053-2.4659q0 0.15875-0.10583 0.28046-0.10583 0.1217-0.28046 0.1217-0.17992 0-0.28575-0.1217-0.10583-0.12171-0.10583-0.28046 0-0.16404 0.10583-0.28575 0.10583-0.12171 0.28575-0.12171 0.17462 0 0.28046 0.12171t0.10583 0.28575z"/>
<path d="m39.541 220.02h-0.21167q-0.08996 0-0.15875 0.0423-0.0635 0.037-0.11112 0.10584-0.04233 0.0635-0.06879 0.14816-0.02117 0.0794-0.02117 0.16405v0.85195q0 0.1958-0.04233 0.34396-0.03704 0.14817-0.13758 0.24871-0.09525 0.10583-0.25929 0.15875-0.15875 0.0529-0.40217 0.0529h-0.42862v-0.34396h0.44979q0.22225 0 0.31221-0.10054 0.09525-0.10054 0.09525-0.36513v-0.73025q0-0.35454 0.10583-0.51858 0.10583-0.16933 0.24342-0.22754-0.13758-0.0635-0.24342-0.23813-0.10583-0.17462-0.10583-0.508v-0.73025q0-0.26458-0.09525-0.36512t-0.3175-0.10054h-0.4445v-0.34396h0.42862q0.24342 0 0.40217 0.0529 0.16404 0.0529 0.25929 0.15875 0.10054 0.10055 0.13758 0.24871 0.04233 0.14817 0.04233 0.34396v0.85196q0 0.0794 0.02117 0.16404 0.02117 0.0794 0.0635 0.14817 0.04763 0.0635 0.11112 0.10583 0.06879 0.0423 0.15875 0.0423h0.21696v0.33867z"/>
<path d="m34.249 227.96h-0.21167q-0.08996 0-0.15875 0.0423-0.0635 0.037-0.11112 0.10584-0.04233 0.0635-0.06879 0.14816-0.02117 0.0794-0.02117 0.16405v0.85195q0 0.1958-0.04233 0.34396-0.03704 0.14817-0.13758 0.24871-0.09525 0.10583-0.25929 0.15875-0.15875 0.0529-0.40217 0.0529h-0.42862v-0.34396h0.44979q0.22225 0 0.31221-0.10054 0.09525-0.10054 0.09525-0.36513v-0.73025q0-0.35454 0.10583-0.51858 0.10583-0.16933 0.24342-0.22754-0.13758-0.0635-0.24342-0.23813-0.10583-0.17462-0.10583-0.508v-0.73025q0-0.26458-0.09525-0.36512t-0.3175-0.10054h-0.4445v-0.34396h0.42862q0.24342 0 0.40217 0.0529 0.16404 0.0529 0.25929 0.15875 0.10054 0.10055 0.13758 0.24871 0.04233 0.14817 0.04233 0.34396v0.85196q0 0.0794 0.02117 0.16404 0.02117 0.0794 0.0635 0.14817 0.04763 0.0635 0.11112 0.10583 0.06879 0.0423 0.15875 0.0423h0.21696v0.33867z"/>
</g>
<g transform="translate(-.57499)" fill="#b21f20" stroke-width=".26458" aria-label="java">
<path d="m8.7286 285.12h-1.6275v-1.5018h1.6275zm-2.4098 8.1601q0.13705 0.0114 0.19415 0.0114 0.057104 6e-3 0.10279 6e-3 0.23984 0 0.35975-0.11991 0.12563-0.11421 0.12563-0.45112v-6.8353h1.6275v6.8639q0 0.94221-0.37117 1.3933t-1.4561 0.45112q-0.074235 0-0.2227-6e-3 -0.14276-6e-3 -0.35975-0.0114z"/>
<path d="m13.702 289.06q-0.15418 0.0971-0.31407 0.15989-0.15418 0.0571-0.42828 0.10849l-0.36546 0.0685q-0.51393 0.0914-0.73664 0.2227-0.37688 0.2227-0.37688 0.69095 0 0.41686 0.22841 0.6053 0.23412 0.18273 0.56533 0.18273 0.52535 0 0.96505-0.30836 0.44541-0.30835 0.46254-1.1249zm-0.98789-0.75948q0.45112-0.0571 0.64527-0.14276 0.34833-0.14847 0.34833-0.46254 0-0.3826-0.26839-0.52535-0.26268-0.14847-0.77661-0.14847-0.57675 0-0.81658 0.28551-0.17131 0.21129-0.22841 0.57104h-1.5704q0.05139-0.81658 0.45683-1.3419 0.64527-0.8223 2.2156-0.8223 1.0222 0 1.8159 0.40544 0.79374 0.40543 0.79374 1.5304v2.8552q0 0.29694 0.01142 0.7195 0.01713 0.31978 0.09708 0.43399t0.23984 0.18844v0.23984h-1.7702q-0.07423-0.18845-0.10279-0.35405-0.02855-0.1656-0.04568-0.37688-0.33691 0.36546-0.77661 0.62243-0.52535 0.30265-1.1878 0.30265-0.84513 0-1.399-0.47967-0.54819-0.48538-0.54819-1.3705 0-1.1478 0.88511-1.6617 0.48538-0.27981 1.4276-0.39973z"/>
<path d="m20.618 285.87h1.7474l-2.2442 6.2243h-1.7188l-2.2328-6.2243h1.8273l1.2963 4.5911z"/>
<path d="m26.722 289.06q-0.15418 0.0971-0.31407 0.15989-0.15418 0.0571-0.42828 0.10849l-0.36546 0.0685q-0.51393 0.0914-0.73664 0.2227-0.37688 0.2227-0.37688 0.69095 0 0.41686 0.22841 0.6053 0.23412 0.18273 0.56533 0.18273 0.52535 0 0.96505-0.30836 0.44541-0.30835 0.46254-1.1249zm-0.98789-0.75948q0.45112-0.0571 0.64527-0.14276 0.34833-0.14847 0.34833-0.46254 0-0.3826-0.26839-0.52535-0.26268-0.14847-0.77661-0.14847-0.57675 0-0.81658 0.28551-0.17131 0.21129-0.22842 0.57104h-1.5703q0.05139-0.81658 0.45683-1.3419 0.64527-0.8223 2.2156-0.8223 1.0222 0 1.8159 0.40544 0.79374 0.40543 0.79374 1.5304v2.8552q0 0.29694 0.01142 0.7195 0.01713 0.31978 0.09708 0.43399 0.07994 0.11421 0.23984 0.18844v0.23984h-1.7702q-0.07423-0.18845-0.10279-0.35405-0.02855-0.1656-0.04568-0.37688-0.33691 0.36546-0.77661 0.62243-0.52535 0.30265-1.1878 0.30265-0.84513 0-1.399-0.47967-0.5482-0.48538-0.5482-1.3705 0-1.1478 0.88511-1.6617 0.48538-0.27981 1.4276-0.39973z"/>
</g>
</g>
</svg>
