<svg width="128" height="128" version="1.1" viewBox="0 0 33.867 33.867" xmlns="http://www.w3.org/2000/svg" xmlns:osb="http://www.openswatchbook.org/uri/2009/osb" xmlns:xlink="http://www.w3.org/1999/xlink">
<defs>
<linearGradient id="linearGradient1503" x1="29.203" x2="4.5843" y1="263.52" y2="296.17" gradientTransform="matrix(1.001 0 0 1.001 -.017758 -.29086)" gradientUnits="userSpaceOnUse">
<stop stop-color="#d9d9d9" offset="0"/>
<stop stop-color="#fff" offset="1"/>
</linearGradient>
<linearGradient id="selected_bg_color" osb:paint="solid">
<stop stop-color="#5294e2" offset="0"/>
</linearGradient>
<linearGradient id="selected_fg_color" osb:paint="solid">
<stop stop-color="#ffffffgit" offset="0"/>
</linearGradient>
<linearGradient id="linearGradient6613" x1="124" x2="124" y1="6.3622" y2="10.362" gradientUnits="userSpaceOnUse" xlink:href="#selected_fg_color"/>
<linearGradient id="linearGradient6621" x1="-737.8" x2="-737.8" y1="-725.95" y2="-717.95" gradientUnits="userSpaceOnUse" xlink:href="#selected_fg_color"/>
</defs>
<g transform="translate(0 -263.13)">
<path d="m4.5714 264.1v32.612h24.724v-18.3c-0.04716-0.8313-0.10165-1.5753-0.3125-2.3297-0.21448-0.76736-0.55247-1.4939-0.95641-2.1892-0.51687-0.8897-1.3904-1.4633-2.1667-2.1925-0.47098-0.42711-1.4882-1.4417-2.7195-2.653-1.2212-1.2014-2.6535-2.5969-3.8492-3.6811-0.35316-0.3187-0.86616-0.64943-1.3428-0.84044-0.37009-0.14831-0.80547-0.24063-1.2258-0.30267-0.43345-0.064-0.85093-0.0958-1.1644-0.12361z" opacity=".25"/>
<path d="m4.5714 263.57v32.612h24.724v-18.3c-0.04716-0.83129-0.10165-1.5753-0.3125-2.3297-0.21448-0.76736-0.55247-1.4939-0.95641-2.1892-0.51687-0.88969-1.3904-1.4633-2.1667-2.1925-0.47098-0.42712-1.4882-1.4417-2.7195-2.653-1.2212-1.2014-2.6535-2.5969-3.8492-3.6811-0.35316-0.3187-0.86616-0.64944-1.3428-0.84044-0.37009-0.14831-0.80547-0.24063-1.2258-0.30267-0.43345-0.064-0.85093-0.0958-1.1644-0.12361z" fill="url(#linearGradient1503)" stroke="#808080" stroke-width=".3"/>
<path d="m19.751 265.48c0.01633 0.0263 0.56114 0.90462 0.72779 1.3989 0.45158 1.0123 0.25858 3.9724 0.25037 5.6588 0.02772-0.19401 4.6905-1.3958 7.111 0.80464-0.01547-0.0273-0.04888-0.0804-0.12512-0.18628-0.07235-0.10046-0.18275-0.24915-0.37164-0.44224-0.52811-0.60452-0.23093-0.0845-0.80541-0.682-0.49669-0.45047-1.5695-1.5205-2.868-2.798-1.2412-1.2212-2.6869-2.6295-3.919-3.7538z" opacity=".248"/>
<path d="m19.424 264.96c0.01548 0.0249 0.53209 0.85773 0.69011 1.3264 0.42821 0.95987 0.29224 3.218 0.28445 4.8171 0.42899-0.0223 5.1595-0.73701 7.3284 1.8241-0.02928-0.0506-0.10278-0.0927-0.14377-0.17312-0.50077-0.57318-1.1396-1.0337-1.7235-1.5822-0.47098-0.42712-1.4882-1.4417-2.7195-2.653-1.1769-1.1579-2.5478-2.4932-3.7162-3.5592z" fill="#fff" stroke="#808080" stroke-width=".3"/>
<g transform="matrix(.53602 0 0 .53727 -234.93 -13.785)" stroke-width="4.0845"></g>
<g transform="matrix(.53602 0 0 .53727 -234.93 -13.76)" stroke-width="4.0845"></g>
<g transform="matrix(.53602 0 0 .53727 -267.69 -57.383)" stroke-width="4.0845"></g>
<g transform="matrix(.53602 0 0 .53727 -267.69 -57.358)" stroke-width="4.0845"></g>
<g transform="matrix(.35293 0 0 .355 -4.1006 286.01)" stroke-width="4.0457">
<g transform="translate(19)">
<g stroke-width="4.0457">
<g transform="translate(0,-30)" stroke-width="4.0457">
<g transform="matrix(.92952 0 0 .92914 -156.75 -212.96)" stroke-width="4.0457">
<g transform="matrix(.50892 0 0 .5174 161.79 197.56)" stroke-width="4.0457"></g>
</g>
<rect x="17" y="30.362" width="16" height="16" color="#000000" fill="none"/>
<g stroke-width="4.0457">
<rect x="18" y="31.362" width="14" height="14" rx="2" ry="2" color="#000000" fill="url(#selected_bg_color)" stroke-width="0"/>
</g>
</g>
</g>
</g>
<g transform="translate(36,-1036)">
<g transform="rotate(45 7.5 1026.4)" stroke-width="4.0457">
<g transform="translate(12.374 11.531)" stroke-width="4.0457">
<g transform="translate(-3 -5)" fill="#3b3c3e" stroke-width="4.0457">
<rect transform="rotate(225)" x="-738.8" y="-725.95" width="2" height="8" ry="0" fill="url(#linearGradient6621)"/>
</g>
<rect transform="translate(0 1036.4)" x="5" y="-8" width="3" height="1" fill-opacity="0"/>
</g>
</g>
</g>
</g>
<g transform="matrix(.3584 0 0 .36051 -21.939 285.96)" stroke-width="4.0457">
<g transform="translate(19.004 -4.6993e-6)" stroke-width="4.0457">
<g stroke-width="4.0457">
<g transform="matrix(.93617 0 0 .93566 -96.783 -244.76)" stroke-width="4.0457">
<g transform="translate(0 1.0688)" opacity=".06" stroke-width="4.0457">
<g transform="matrix(.50892 0 0 .5174 181.79 197.56)" stroke-width="4.0457"></g>
</g>
<rect x="206.99" y="261.98" width="17.091" height="17.1" color="#000000" fill="none"/>
<g stroke-width="4.0457">
<g transform="matrix(.50892 0 0 .5174 181.79 197.56)" stroke-width="4.0457">
<g stroke-width="4.0457">
<rect x="51.611" y="126.56" width="29.385" height="28.919" rx="14.692" ry="14.46" color="#000000" fill="url(#selected_bg_color)" stroke-width="0"/>
</g>
</g>
</g>
</g>
</g>
</g>
<rect x="122" y="6.3622" width="4" height="4" rx="1.9989" ry="2" color="#000000" fill="url(#linearGradient6613)"/>
</g>
<rect x="8.497" y="274.06" width="16.298" height="7.0205" ry="3.5103" fill="#fff" fill-rule="evenodd" stroke="#2e5a9c" stroke-linecap="round" stroke-width=".1"/>
<path d="m18.46 274.06v7.0206h2.8451c1.9333 0 3.4898-1.5656 3.4898-3.5103 0-1.9447-1.5565-3.5103-3.4898-3.5103z" fill="#5294e2" fill-rule="evenodd"/>
<path transform="matrix(.097357 .059559 -.08732 .066405 50.168 267.2)" d="m-74.308 245.05-24.93-8.2769 19.633-17.451 2.6485 12.864z" fill="#fff" fill-rule="evenodd"/>
</g>
</svg>
