<svg width="128" height="128" version="1.1" viewBox="0 0 33.867 33.867" xmlns="http://www.w3.org/2000/svg" xmlns:osb="http://www.openswatchbook.org/uri/2009/osb" xmlns:xlink="http://www.w3.org/1999/xlink">
<defs>
<linearGradient id="linearGradient1503" x1="29.203" x2="4.5843" y1="263.52" y2="296.17" gradientTransform="matrix(1.001 0 0 1.001 -.017758 -.29086)" gradientUnits="userSpaceOnUse">
<stop stop-color="#d9d9d9" offset="0"/>
<stop stop-color="#fff" offset="1"/>
</linearGradient>
<linearGradient id="linearGradient2136" x1="5.8586" x2="27.687" y1="290.08" y2="290.08" gradientUnits="userSpaceOnUse">
<stop stop-color="#4da564" stop-opacity="0" offset="0"/>
<stop stop-color="#4da564" offset="1"/>
</linearGradient>
</defs>
<g transform="translate(0 -263.13)">
<path d="m4.5714 264.1v32.612h24.724v-18.3c-0.04716-0.8313-0.10165-1.5753-0.3125-2.3297-0.21448-0.76736-0.55247-1.4939-0.95641-2.1892-0.51687-0.8897-1.3904-1.4633-2.1667-2.1925-0.47098-0.42711-1.4882-1.4417-2.7195-2.653-1.2212-1.2014-2.6535-2.5969-3.8492-3.6811-0.35316-0.3187-0.86616-0.64943-1.3428-0.84044-0.37009-0.14831-0.80547-0.24063-1.2258-0.30267-0.43345-0.064-0.85093-0.0958-1.1644-0.12361z" opacity=".25"/>
<path d="m4.5714 263.57v32.612h24.724v-18.3c-0.04716-0.83129-0.10165-1.5753-0.3125-2.3297-0.21448-0.76736-0.55247-1.4939-0.95641-2.1892-0.51687-0.88969-1.3904-1.4633-2.1667-2.1925-0.47098-0.42712-1.4882-1.4417-2.7195-2.653-1.2212-1.2014-2.6535-2.5969-3.8492-3.6811-0.35316-0.3187-0.86616-0.64944-1.3428-0.84044-0.37009-0.14831-0.80547-0.24063-1.2258-0.30267-0.43345-0.064-0.85093-0.0958-1.1644-0.12361z" fill="url(#linearGradient1503)" stroke="#808080" stroke-width=".3"/>
<path d="m19.751 265.48c0.01633 0.0263 0.56114 0.90462 0.72779 1.3989 0.45158 1.0123 0.25858 3.9724 0.25037 5.6588 0.02772-0.19401 4.6905-1.3958 7.111 0.80464-0.01547-0.0273-0.04888-0.0804-0.12512-0.18628-0.07235-0.10046-0.18275-0.24915-0.37164-0.44224-0.52811-0.60452-0.23093-0.0845-0.80541-0.682-0.49669-0.45047-1.5695-1.5205-2.868-2.798-1.2412-1.2212-2.6869-2.6295-3.919-3.7538z" opacity=".248"/>
<path d="m19.424 264.96c0.01548 0.0249 0.53209 0.85773 0.69011 1.3264 0.42821 0.95987 0.29224 3.218 0.28445 4.8171 0.42899-0.0223 5.1595-0.73701 7.3284 1.8241-0.02928-0.0506-0.10278-0.0927-0.14377-0.17312-0.50077-0.57318-1.1396-1.0337-1.7235-1.5822-0.47098-0.42712-1.4882-1.4417-2.7195-2.653-1.1769-1.1579-2.5478-2.4932-3.7162-3.5592z" fill="#fff" stroke="#808080" stroke-width=".3"/>
<g transform="matrix(.53602 0 0 .53727 -234.93 -13.785)" stroke-width="4.0845"></g>
<g transform="matrix(.53602 0 0 .53727 -234.93 -13.76)" stroke-width="4.0845"></g>
<rect x="5.8586" y="285.52" width="21.828" height="9.1187" fill="url(#linearGradient2136)"/>
<g transform="matrix(.24645 0 0 .2479 -1.5627 223.43)" stroke-width="4.0457px">
<path d="m33.766 179.72q0 0.22026-6e-3 0.40481t-0.02381 0.35124q-0.01191 0.16668-0.02977 0.33337-0.01786 0.16073-0.03572 0.33933h-0.33933q-0.01786-0.1786-0.03572-0.33933-0.01786-0.16669-0.03572-0.33337-0.01191-0.16669-0.01786-0.35124-6e-3 -0.18455-6e-3 -0.40481v-1.0001h0.52983v1.0001zm-0.26789 2.7563q-0.16073 0-0.2798-0.10716-0.11906-0.11311-0.11906-0.29766 0-0.18454 0.11906-0.2917 0.11906-0.11311 0.2798-0.11311 0.16669 0 0.2798 0.11311 0.11906 0.10716 0.11906 0.2917 0 0.18455-0.11906 0.29766-0.11311 0.10716-0.2798 0.10716z"/>
<path d="m36.492 180.55 0.5715-1.8336h0.45839q0.11906 0.86916 0.16669 1.78 0.05358 0.91083 0.09525 1.905h-0.47625q-6e-3 -0.32147-0.01191-0.69652-6e-3 -0.37504-0.01786-0.7739-6e-3 -0.39886-0.01786-0.80963-6e-3 -0.41076-0.01786-0.79772l-0.53578 1.6788h-0.42862l-0.54769-1.6788q-6e-3 0.38696-0.01786 0.79772-6e-3 0.40481-0.01786 0.80963-6e-3 0.39886-0.01786 0.7739-6e-3 0.37505-0.01191 0.69652h-0.47625q0.01786-0.45244 0.04167-0.92869t0.05358-0.94655q0.03572-0.47029 0.07739-0.92868 0.04762-0.45839 0.1012-0.88107h0.45244l0.57745 1.8336z"/>
<path d="m38.278 182.92q0.05358 0.0298 0.14883 0.0476 0.1012 0.0179 0.18455 0.0179 0.2917 0 0.45244-0.13097 0.16669-0.12501 0.30361-0.41671-0.33338-0.63103-0.62508-1.3514-0.2917-0.72628-0.4822-1.4466h0.53578q0.05953 0.23812 0.13692 0.51792 0.08334 0.27384 0.18455 0.56555 0.1012 0.2917 0.21431 0.58936 0.11906 0.2917 0.25003 0.55959 0.09525-0.27384 0.17859-0.54173 0.08334-0.2679 0.15478-0.53579 0.07144-0.27384 0.14288-0.55364 0.07144-0.28575 0.14883-0.60126h0.51197q-0.1905 0.7739-0.42862 1.5002-0.23217 0.72628-0.50006 1.3454-0.1012 0.23813-0.22027 0.41077-0.11311 0.17264-0.25003 0.28575t-0.30956 0.16668q-0.17264 0.0536-0.39291 0.0536-0.11311 0-0.25003-0.0298-0.13097-0.0298-0.17859-0.0536l0.0893-0.39886z"/>
<path d="m44.886 182.4v-2.3515h-0.58341v-0.41076h0.58341v-0.25003q0-0.32147 0.0893-0.52983 0.0893-0.21431 0.23217-0.34528 0.14883-0.13097 0.33933-0.18455 0.19645-0.0536 0.41077-0.0536 0.21431 0 0.42862 0.0476 0.22026 0.0476 0.41076 0.11311l-0.0893 0.42267q-0.13097-0.0655-0.32742-0.11311-0.19645-0.0476-0.39886-0.0476-0.12502 0-0.23812 0.0357-0.10716 0.0298-0.1905 0.11311-0.08334 0.0774-0.13097 0.21431-0.04762 0.13097-0.04762 0.33338v0.24408h1.1132v0.41076h-1.1132v2.3515h-0.48816z"/>
<path d="m48.148 179.21q-0.15478 0-0.26789-0.10715-0.11311-0.10716-0.11311-0.29171 0-0.18454 0.11311-0.2917 0.11311-0.10716 0.26789-0.10716 0.16073 0 0.26789 0.10716 0.11311 0.10716 0.11311 0.2917 0 0.18455-0.11311 0.29171-0.10716 0.10715-0.26789 0.10715zm-0.12502 0.83939h-0.79772v-0.41076h1.2859v1.6966q0 0.41076 0.11311 0.55364 0.11311 0.13692 0.33933 0.13692 0.17264 0 0.31552-0.0417 0.14883-0.0417 0.23217-0.0893l0.07144 0.41672q-0.03572 0.0179-0.1012 0.0476-0.06549 0.0238-0.15478 0.0476-0.08334 0.0238-0.1905 0.0417-0.1012 0.0179-0.21431 0.0179-0.26194 0-0.43458-0.0714t-0.2798-0.21431q-0.1012-0.14287-0.14288-0.35123-0.04167-0.21431-0.04167-0.49411v-1.2859z"/>
<path d="m50.518 182.4v-2.6134q0.60722-0.20836 1.2263-0.20836 0.1905 0 0.36314 0.0179 0.17264 0.0119 0.381 0.0595l-0.0893 0.43458q-0.1905-0.0536-0.33933-0.0655-0.14288-0.0179-0.31552-0.0179-0.36314 0-0.73819 0.1012v2.292h-0.48816z"/>
<path d="m54.947 181.71q0-0.14883-0.12502-0.24408-0.11906-0.0952-0.30361-0.16669-0.17859-0.0714-0.39291-0.13692-0.21431-0.0714-0.39886-0.17264-0.17859-0.10121-0.30361-0.25003-0.11906-0.14883-0.11906-0.38696 0-0.33337 0.26789-0.55364 0.27384-0.22622 0.8513-0.22622 0.22622 0 0.46434 0.0357 0.24408 0.0298 0.41672 0.0833l-0.0893 0.44053q-0.04763-0.0238-0.13097-0.0476-0.08334-0.0298-0.1905-0.0476-0.10716-0.0238-0.23217-0.0357-0.11906-0.0119-0.23217-0.0119-0.64294 0-0.64294 0.35124 0 0.12501 0.11906 0.21431 0.12502 0.0833 0.30956 0.15478 0.18455 0.0714 0.39886 0.14883 0.21431 0.0714 0.39886 0.17859 0.18455 0.10716 0.30361 0.26194 0.12502 0.14883 0.12502 0.381 0 0.37505-0.2917 0.58341-0.2917 0.2024-0.92273 0.2024-0.28575 0-0.52388-0.0476t-0.45244-0.14288l0.09525-0.44648q0.20836 0.0952 0.43458 0.16073 0.23217 0.0595 0.49411 0.0595 0.6727 0 0.6727-0.33932z"/>
<path d="m57.281 179.64h1.1668v0.41076h-1.1668v1.2859q0 0.20836 0.02977 0.33933t0.09525 0.21431q0.07144 0.0774 0.17859 0.10716 0.10716 0.0298 0.26194 0.0298 0.21431 0 0.34528-0.0357t0.25003-0.0953l0.07144 0.41672q-0.08334 0.0357-0.26789 0.0953-0.17859 0.0595-0.44648 0.0595-0.30956 0-0.50602-0.0714t-0.30956-0.21431q-0.10716-0.14287-0.14883-0.35123-0.04167-0.21431-0.04167-0.49411v-1.2859h-0.58341v-0.41076h0.58341v-0.77391l0.48816-0.0833v0.85725z"/>
<path d="m64.02 181.03q0-0.48221-0.22622-0.74414-0.22622-0.2679-0.58936-0.2679-0.20241 0-0.32147 0.0179-0.11311 0.0179-0.17859 0.0417v1.7443q0.08334 0.0774 0.24408 0.14288 0.16073 0.0655 0.33338 0.0655 0.19645 0 0.33338-0.0774 0.14288-0.0774 0.23217-0.20836 0.0893-0.13692 0.13097-0.31551 0.04167-0.18455 0.04167-0.39886zm0.50602 0q0 0.31551-0.08334 0.5834-0.07739 0.26194-0.23217 0.45244-0.14883 0.1905-0.36909 0.29766-0.22026 0.10715-0.50006 0.10715-0.22027 0-0.38695-0.0536-0.16669-0.0536-0.25003-0.11906v1.0894h-0.49411v-3.6612q0.16074-0.0476 0.41077-0.0952 0.25598-0.0476 0.58341-0.0476 0.29766 0 0.54173 0.1012 0.24408 0.1012 0.41672 0.2917 0.17264 0.18455 0.26789 0.45244t0.09525 0.60127z"/>
<path d="m65.401 182.4v-2.6134q0.60722-0.20836 1.2263-0.20836 0.1905 0 0.36314 0.0179 0.17264 0.0119 0.381 0.0595l-0.0893 0.43458q-0.1905-0.0536-0.33933-0.0655-0.14288-0.0179-0.31552-0.0179-0.36314 0-0.73819 0.1012v2.292h-0.48816z"/>
<path d="m70.479 181.02q0 0.32742-0.09525 0.59532-0.0893 0.26193-0.25598 0.45243-0.16669 0.1905-0.39886 0.29766-0.23217 0.1012-0.50602 0.1012-0.26789 0-0.50006-0.1012-0.22622-0.10716-0.39291-0.29766-0.16669-0.1905-0.26194-0.45243-0.0893-0.2679-0.0893-0.59532t0.0893-0.59531q0.09525-0.26789 0.26194-0.45244 0.16669-0.1905 0.39291-0.2917 0.23217-0.10716 0.50006-0.10716 0.27384 0 0.50602 0.10716 0.23217 0.1012 0.39886 0.2917 0.16669 0.18455 0.25598 0.45244 0.09525 0.26789 0.09525 0.59531zm-0.50602 0q0-0.47029-0.20241-0.73818-0.20241-0.27385-0.54769-0.27385-0.33933 0-0.54174 0.27385-0.19645 0.26789-0.19645 0.73818 0 0.46435 0.19645 0.73819 0.20241 0.26789 0.54174 0.26789 0.34528 0 0.54769-0.26789 0.20241-0.27384 0.20241-0.73819z"/>
<path d="m72.777 182.15q-0.08334 0.0476-0.25598 0.10121-0.17264 0.0536-0.39886 0.0536-0.24408 0-0.45839-0.0774-0.20836-0.0833-0.36909-0.24407-0.15478-0.16669-0.25003-0.41672-0.0893-0.25599-0.0893-0.60127 0-0.30361 0.08334-0.55364 0.0893-0.25598 0.25003-0.44053 0.16669-0.18455 0.40481-0.28575 0.23812-0.10716 0.54174-0.10716 0.35719 0 0.60722 0.0536 0.25598 0.0476 0.42862 0.0952v2.4646q0 0.64293-0.32742 0.92868-0.32147 0.28575-0.97631 0.28575-0.26789 0-0.48816-0.0417-0.21431-0.0417-0.381-0.1012l0.0893-0.43458q0.15478 0.0655 0.35123 0.10716 0.20241 0.0417 0.44053 0.0417 0.42862 0 0.61317-0.17264t0.18455-0.5596v-0.0952zm0-2.0717q-0.07144-0.0238-0.19645-0.0417-0.12502-0.0238-0.33933-0.0238-0.381 0-0.58341 0.26194-0.19645 0.26194-0.19645 0.69651 0 0.23813 0.05358 0.41077 0.05953 0.16669 0.15478 0.2798 0.1012 0.10715 0.22622 0.16073 0.12502 0.0476 0.26789 0.0476 0.18455 0 0.34528-0.0536 0.16669-0.0536 0.26789-0.12502v-1.6133z"/>
<path d="m74.33 182.4v-2.6134q0.60722-0.20836 1.2263-0.20836 0.1905 0 0.36314 0.0179 0.17264 0.0119 0.381 0.0595l-0.0893 0.43458q-0.1905-0.0536-0.33933-0.0655-0.14288-0.0179-0.31552-0.0179-0.36314 0-0.73819 0.1012v2.292h-0.48816z"/>
<path d="m78.188 182.05q0.18455 0 0.32742-0.0119 0.14883-0.0119 0.24408-0.0298v-0.82153q-0.09525-0.0298-0.23217-0.0476-0.13097-0.0179-0.2798-0.0179-0.13692 0-0.26789 0.0238-0.13097 0.0179-0.23217 0.0714-0.1012 0.0536-0.16669 0.14287-0.06548 0.0833-0.06548 0.21431 0 0.26789 0.17859 0.37505 0.18455 0.1012 0.49411 0.1012zm-0.04763-2.4765q0.30956 0 0.51792 0.0774 0.21431 0.0774 0.34528 0.21432t0.18455 0.33337q0.05358 0.19645 0.05358 0.42863v1.7264q-0.17264 0.0298-0.45839 0.0714-0.2798 0.0417-0.57745 0.0417-0.22622 0-0.44053-0.0417-0.21431-0.0357-0.381-0.13097-0.16669-0.1012-0.26789-0.27384-0.1012-0.17264-0.1012-0.44053 0-0.23813 0.1012-0.39886 0.10716-0.16669 0.26789-0.26789 0.16669-0.10121 0.37505-0.14288 0.21431-0.0476 0.42862-0.0476 0.2917 0 0.5715 0.0655v-0.13692q0-0.12502-0.02977-0.23813-0.02381-0.11906-0.1012-0.21431-0.07144-0.0952-0.20241-0.14883-0.12502-0.0595-0.32742-0.0595-0.25598 0-0.44648 0.0357t-0.2917 0.0714l-0.05953-0.40481q0.1012-0.0476 0.33338-0.0833 0.23812-0.0357 0.50602-0.0357z"/>
<path d="m79.891 179.72q0.35719-0.13692 0.6727-0.13692 0.17264 0 0.32147 0.0536 0.15478 0.0476 0.26194 0.15479 0.25598-0.20836 0.54769-0.20836 0.14288 0 0.26789 0.0536 0.13097 0.0536 0.22622 0.16074 0.1012 0.10716 0.16073 0.26789 0.05953 0.16073 0.05953 0.37505v1.9645h-0.44648v-1.9764q0-0.21431-0.09525-0.32742t-0.23812-0.11311q-0.07144 0-0.14883 0.0357-0.07739 0.0357-0.14288 0.11311 0.03572 0.13692 0.03572 0.30361v0.89892h-0.44648v-0.90488q0-0.20836-0.06548-0.32742t-0.25598-0.11906q-0.11906 0-0.26789 0.0536v2.3634h-0.44648v-2.6849z"/>
<path d="m34.254 189.96q0-0.4822-0.22622-0.74414-0.22622-0.26789-0.58936-0.26789-0.20241 0-0.32147 0.0179-0.11311 0.0179-0.17859 0.0417v1.7443q0.08334 0.0774 0.24408 0.14287 0.16073 0.0655 0.33338 0.0655 0.19645 0 0.33338-0.0774 0.14288-0.0774 0.23217-0.20836 0.0893-0.13692 0.13097-0.31552 0.04167-0.18454 0.04167-0.39886zm0.50602 0q0 0.31552-0.08334 0.58341-0.07739 0.26194-0.23217 0.45244-0.14883 0.1905-0.36909 0.29765-0.22026 0.10716-0.50006 0.10716-0.22027 0-0.38695-0.0536-0.16669-0.0536-0.25003-0.11906v1.0894h-0.49411v-3.6612q0.16074-0.0476 0.41077-0.0952 0.25598-0.0476 0.58341-0.0476 0.29766 0 0.54173 0.10121 0.24408 0.1012 0.41672 0.2917 0.17264 0.18455 0.26789 0.45244t0.09525 0.60126z"/>
<path d="m35.635 191.33v-2.6134q0.60722-0.20836 1.2263-0.20836 0.1905 0 0.36314 0.0179 0.17264 0.0119 0.381 0.0595l-0.0893 0.43458q-0.1905-0.0536-0.33933-0.0655-0.14288-0.0179-0.31552-0.0179-0.36314 0-0.73819 0.1012v2.292h-0.48816z"/>
<path d="m40.713 189.95q0 0.32742-0.09525 0.59531-0.0893 0.26194-0.25598 0.45244-0.16669 0.1905-0.39886 0.29766-0.23217 0.1012-0.50602 0.1012-0.26789 0-0.50006-0.1012-0.22622-0.10716-0.39291-0.29766-0.16669-0.1905-0.26194-0.45244-0.0893-0.26789-0.0893-0.59531t0.0893-0.59531q0.09525-0.26789 0.26194-0.45244 0.16669-0.1905 0.39291-0.2917 0.23217-0.10716 0.50006-0.10716 0.27384 0 0.50602 0.10716 0.23217 0.1012 0.39886 0.2917 0.16669 0.18455 0.25598 0.45244 0.09525 0.26789 0.09525 0.59531zm-0.50602 0q0-0.4703-0.20241-0.73819-0.20241-0.27384-0.54769-0.27384-0.33933 0-0.54173 0.27384-0.19645 0.26789-0.19645 0.73819 0 0.46434 0.19645 0.73819 0.20241 0.26789 0.54173 0.26789 0.34528 0 0.54769-0.26789 0.20241-0.27385 0.20241-0.73819z"/>
<path d="m43.011 191.08q-0.08334 0.0476-0.25598 0.1012-0.17264 0.0536-0.39886 0.0536-0.24408 0-0.45839-0.0774-0.20836-0.0833-0.36909-0.24408-0.15478-0.16668-0.25003-0.41672-0.0893-0.25598-0.0893-0.60126 0-0.30361 0.08334-0.55364 0.0893-0.25599 0.25003-0.44053 0.16669-0.18455 0.40481-0.28575 0.23812-0.10716 0.54174-0.10716 0.35719 0 0.60722 0.0536 0.25598 0.0476 0.42862 0.0952v2.4646q0 0.64294-0.32742 0.92869-0.32147 0.28575-0.97631 0.28575-0.26789 0-0.48816-0.0417-0.21431-0.0417-0.381-0.10121l0.0893-0.43457q0.15478 0.0655 0.35123 0.10715 0.20241 0.0417 0.44053 0.0417 0.42862 0 0.61317-0.17264t0.18455-0.55959v-0.0952zm0-2.0717q-0.07144-0.0238-0.19645-0.0417-0.12502-0.0238-0.33933-0.0238-0.381 0-0.58341 0.26194-0.19645 0.26193-0.19645 0.69651 0 0.23813 0.05358 0.41077 0.05953 0.16669 0.15478 0.27979 0.1012 0.10716 0.22622 0.16074 0.12502 0.0476 0.26789 0.0476 0.18455 0 0.34528-0.0536 0.16669-0.0536 0.26789-0.12502v-1.6133z"/>
<path d="m44.565 191.33v-2.6134q0.60722-0.20836 1.2263-0.20836 0.1905 0 0.36314 0.0179 0.17264 0.0119 0.381 0.0595l-0.0893 0.43458q-0.1905-0.0536-0.33933-0.0655-0.14288-0.0179-0.31552-0.0179-0.36314 0-0.73819 0.1012v2.292h-0.48816z"/>
<path d="m48.422 190.98q0.18455 0 0.32742-0.0119 0.14883-0.0119 0.24408-0.0298v-0.82153q-0.09525-0.0298-0.23217-0.0476-0.13097-0.0179-0.2798-0.0179-0.13692 0-0.26789 0.0238-0.13097 0.0179-0.23217 0.0714-0.1012 0.0536-0.16669 0.14288-0.06548 0.0833-0.06548 0.21431 0 0.26789 0.17859 0.37505 0.18455 0.1012 0.49411 0.1012zm-0.04762-2.4765q0.30956 0 0.51792 0.0774 0.21431 0.0774 0.34528 0.21431 0.13097 0.13693 0.18455 0.33338 0.05358 0.19645 0.05358 0.42862v1.7264q-0.17264 0.0298-0.45839 0.0714-0.2798 0.0417-0.57745 0.0417-0.22622 0-0.44053-0.0417-0.21431-0.0357-0.381-0.13097-0.16669-0.1012-0.26789-0.27384-0.1012-0.17265-0.1012-0.44054 0-0.23812 0.1012-0.39886 0.10716-0.16668 0.26789-0.26789 0.16669-0.1012 0.37505-0.14287 0.21431-0.0476 0.42862-0.0476 0.2917 0 0.5715 0.0655v-0.13692q0-0.12502-0.02977-0.23813-0.02381-0.11906-0.1012-0.21431-0.07144-0.0953-0.20241-0.14883-0.12502-0.0595-0.32742-0.0595-0.25598 0-0.44648 0.0357t-0.2917 0.0714l-0.05953-0.40482q0.1012-0.0476 0.33338-0.0833 0.23812-0.0357 0.50602-0.0357z"/>
<path d="m50.125 188.65q0.35719-0.13693 0.6727-0.13693 0.17264 0 0.32147 0.0536 0.15478 0.0476 0.26194 0.15478 0.25598-0.20836 0.54769-0.20836 0.14288 0 0.26789 0.0536 0.13097 0.0536 0.22622 0.16074 0.1012 0.10715 0.16073 0.26789 0.05953 0.16073 0.05953 0.37504v1.9645h-0.44648v-1.9764q0-0.21431-0.09525-0.32742t-0.23812-0.11311q-0.07144 0-0.14883 0.0357-0.07739 0.0357-0.14288 0.1131 0.03572 0.13693 0.03572 0.30361v0.89893h-0.44648v-0.90488q0-0.20836-0.06548-0.32742t-0.25598-0.11906q-0.11906 0-0.26789 0.0536v2.3634h-0.44648v-2.6849z"/>
<path d="m56.792 191.33v-2.3515h-0.58341v-0.41076h0.58341v-0.25004q0-0.32146 0.0893-0.52982 0.0893-0.21432 0.23217-0.34529 0.14883-0.13096 0.33933-0.18454 0.19645-0.0536 0.41077-0.0536 0.21431 0 0.42862 0.0476 0.22027 0.0476 0.41076 0.11311l-0.0893 0.42268q-0.13097-0.0655-0.32742-0.11311-0.19645-0.0476-0.39886-0.0476-0.12502 0-0.23812 0.0357-0.10716 0.0298-0.1905 0.11311-0.08334 0.0774-0.13097 0.21431-0.04763 0.13097-0.04763 0.33338v0.24408h1.1132v0.41076h-1.1132v2.3515h-0.48816z"/>
<path d="m60.055 188.14q-0.15478 0-0.26789-0.10716-0.11311-0.10715-0.11311-0.2917t0.11311-0.2917q0.11311-0.10716 0.26789-0.10716 0.16073 0 0.26789 0.10716 0.11311 0.10715 0.11311 0.2917t-0.11311 0.2917q-0.10716 0.10716-0.26789 0.10716zm-0.12502 0.83939h-0.79772v-0.41076h1.2859v1.6966q0 0.41076 0.11311 0.55364 0.11311 0.13692 0.33933 0.13692 0.17264 0 0.31552-0.0417 0.14883-0.0417 0.23217-0.0893l0.07144 0.41672q-0.03572 0.0179-0.1012 0.0476-0.06548 0.0238-0.15478 0.0476-0.08334 0.0238-0.1905 0.0417-0.1012 0.0179-0.21431 0.0179-0.26194 0-0.43458-0.0714t-0.2798-0.21431q-0.1012-0.14288-0.14288-0.35123-0.04167-0.21432-0.04167-0.49411v-1.2859z"/>
<path d="m62.424 191.33v-2.6134q0.60722-0.20836 1.2263-0.20836 0.1905 0 0.36314 0.0179 0.17264 0.0119 0.381 0.0595l-0.0893 0.43458q-0.1905-0.0536-0.33933-0.0655-0.14288-0.0179-0.31552-0.0179-0.36314 0-0.73819 0.1012v2.292h-0.48816z"/>
<path d="m66.853 190.64q0-0.14883-0.12502-0.24408-0.11906-0.0952-0.30361-0.16668-0.17859-0.0714-0.39291-0.13692-0.21431-0.0714-0.39886-0.17265-0.17859-0.1012-0.30361-0.25003-0.11906-0.14882-0.11906-0.38695 0-0.33337 0.26789-0.55364 0.27384-0.22622 0.8513-0.22622 0.22622 0 0.46434 0.0357 0.24408 0.0298 0.41672 0.0833l-0.0893 0.44053q-0.04762-0.0238-0.13097-0.0476-0.08334-0.0298-0.1905-0.0476-0.10716-0.0238-0.23217-0.0357-0.11906-0.0119-0.23217-0.0119-0.64294 0-0.64294 0.35123 0 0.12502 0.11906 0.21432 0.12502 0.0833 0.30956 0.15478 0.18455 0.0714 0.39886 0.14883 0.21431 0.0714 0.39886 0.17859 0.18455 0.10716 0.30361 0.26194 0.12502 0.14883 0.12502 0.381 0 0.37504-0.2917 0.5834-0.2917 0.20241-0.92273 0.20241-0.28575 0-0.52388-0.0476t-0.45244-0.14287l0.09525-0.44648q0.20836 0.0952 0.43458 0.16073 0.23217 0.0595 0.49411 0.0595 0.6727 0 0.6727-0.33933z"/>
<path d="m69.187 188.57h1.1668v0.41076h-1.1668v1.2859q0 0.20836 0.02976 0.33932 0.02977 0.13097 0.09525 0.21432 0.07144 0.0774 0.17859 0.10715 0.10716 0.0298 0.26194 0.0298 0.21431 0 0.34528-0.0357t0.25003-0.0953l0.07144 0.41672q-0.08334 0.0357-0.26789 0.0952-0.17859 0.0595-0.44648 0.0595-0.30956 0-0.50602-0.0714t-0.30956-0.21431q-0.10716-0.14288-0.14883-0.35123-0.04167-0.21432-0.04167-0.49411v-1.2859h-0.58341v-0.41076h0.58341v-0.77391l0.48816-0.0833v0.85725z"/>
<path d="m34.254 198.89q0-0.4822-0.22622-0.74414-0.22622-0.26789-0.58936-0.26789-0.20241 0-0.32147 0.0179-0.11311 0.0179-0.17859 0.0417v1.7443q0.08334 0.0774 0.24408 0.14287 0.16073 0.0655 0.33338 0.0655 0.19645 0 0.33338-0.0774 0.14288-0.0774 0.23217-0.20836 0.0893-0.13693 0.13097-0.31552 0.04167-0.18455 0.04167-0.39886zm0.50602 0q0 0.31552-0.08334 0.58341-0.07739 0.26193-0.23217 0.45243-0.14883 0.1905-0.36909 0.29766-0.22026 0.10716-0.50006 0.10716-0.22027 0-0.38695-0.0536-0.16669-0.0536-0.25003-0.11906v1.0894h-0.49411v-3.6612q0.16074-0.0476 0.41077-0.0953 0.25598-0.0476 0.58341-0.0476 0.29766 0 0.54173 0.1012 0.24408 0.10121 0.41672 0.29171 0.17264 0.18454 0.26789 0.45244 0.09525 0.26789 0.09525 0.60126z"/>
<path d="m35.635 200.26v-2.6134q0.60722-0.20836 1.2263-0.20836 0.1905 0 0.36314 0.0179 0.17264 0.0119 0.381 0.0595l-0.0893 0.43458q-0.1905-0.0536-0.33933-0.0655-0.14288-0.0179-0.31552-0.0179-0.36314 0-0.73819 0.1012v2.292h-0.48816z"/>
<path d="m39.219 197.07q-0.15478 0-0.26789-0.10716-0.11311-0.10715-0.11311-0.2917t0.11311-0.2917q0.11311-0.10716 0.26789-0.10716 0.16073 0 0.26789 0.10716 0.11311 0.10715 0.11311 0.2917t-0.11311 0.2917q-0.10716 0.10716-0.26789 0.10716zm-0.12502 0.83939h-0.79772v-0.41077h1.2859v1.6966q0 0.41077 0.11311 0.55364 0.11311 0.13693 0.33933 0.13693 0.17264 0 0.31552-0.0417 0.14883-0.0417 0.23217-0.0893l0.07144 0.41672q-0.03572 0.0179-0.1012 0.0476-0.06549 0.0238-0.15478 0.0476-0.08334 0.0238-0.1905 0.0417-0.1012 0.0179-0.21431 0.0179-0.26194 0-0.43458-0.0714t-0.2798-0.21431q-0.1012-0.14288-0.14288-0.35124-0.04167-0.21431-0.04167-0.49411v-1.2859z"/>
<path d="m41.374 197.58q0.26789-0.0655 0.52983-0.1012 0.26789-0.0357 0.50006-0.0357 0.55364 0 0.83344 0.28575 0.28575 0.28575 0.28575 0.91678v1.6192h-0.48816v-1.53q0-0.26789-0.04763-0.43458-0.04762-0.16669-0.13692-0.25598-0.08334-0.0952-0.20836-0.13097-0.11906-0.0357-0.26194-0.0357-0.11906 0-0.25598 0.0179-0.13097 0.0119-0.25598 0.0357v2.3336h-0.49411v-2.6849z"/>
<path d="m45.374 197.5h1.1668v0.41077h-1.1668v1.2859q0 0.20836 0.02976 0.33933 0.02977 0.13097 0.09525 0.21431 0.07144 0.0774 0.17859 0.10716 0.10716 0.0298 0.26194 0.0298 0.21431 0 0.34528-0.0357 0.13097-0.0357 0.25003-0.0952l0.07144 0.41672q-0.08334 0.0357-0.26789 0.0952-0.17859 0.0595-0.44648 0.0595-0.30956 0-0.50602-0.0714t-0.30956-0.21431q-0.10716-0.14288-0.14883-0.35124-0.04167-0.21431-0.04167-0.49411v-1.2859h-0.58341v-0.41077h0.58341v-0.7739l0.48816-0.0833v0.85725z"/>
<path d="m51.589 197.78q0.16074 0.14883 0.33338 0.31552 0.17264 0.16073 0.2917 0.34528l0.02381 0.0298-0.41672 0.30361-0.02977-0.0357q-0.12502-0.17859-0.22622-0.38695-0.1012-0.21431-0.1905-0.41077-0.09525 0.19646-0.19645 0.41077-0.1012 0.20836-0.23812 0.38695l-0.02977 0.0298-0.41077-0.29766 0.02977-0.0357q0.13097-0.18454 0.29766-0.34528 0.16669-0.16073 0.32742-0.30956-0.22026-0.0298-0.45244-0.0595-0.23217-0.0357-0.44053-0.10716l-0.04167-0.0119 0.16073-0.48816 0.04167 0.0179q0.20836 0.0833 0.41672 0.18455 0.21431 0.1012 0.40481 0.20836-0.04763-0.21432-0.0893-0.44649-0.03572-0.23217-0.03572-0.45839v-0.0417h0.51197v0.0417q0 0.22622-0.04167 0.45839-0.03572 0.23217-0.08334 0.44649 0.1905-0.11311 0.39886-0.20836 0.20836-0.10121 0.41672-0.1786l0.04167-0.0179 0.15478 0.48816-0.03572 0.0119q-0.21431 0.0655-0.44648 0.1012-0.22622 0.0357-0.44648 0.0595z"/>
<path d="m53.744 200.73q0.10716-0.0238 0.20836-0.0476 0.10716-0.0238 0.19645-0.0714 0.0893-0.0417 0.16073-0.11311 0.07144-0.0655 0.11311-0.18455-0.1905-0.0179-0.2798-0.14287-0.08334-0.13097-0.08334-0.25599 0-0.23812 0.13097-0.35719 0.13692-0.12501 0.30956-0.12501 0.22027 0 0.33338 0.16073 0.11311 0.15478 0.11311 0.381 0 0.17264-0.07144 0.35719-0.06548 0.1905-0.20836 0.35123-0.13692 0.16669-0.34528 0.2798-0.20836 0.11906-0.49411 0.15478l-0.08334-0.38695z"/>
<path d="m57.578 196.22v0.26789q0 0.13097-0.01191 0.30361-6e-3 0.16669-0.02381 0.35124-0.01191 0.17859-0.02977 0.35718-0.01786 0.17264-0.04167 0.30957h-0.30361q-0.02381-0.13693-0.04167-0.30957-0.01786-0.17859-0.03572-0.35718-0.01191-0.18455-0.02381-0.35719-6e-3 -0.17264-6e-3 -0.30361v-0.26194h0.51792z"/>
<path d="m59.352 200.26v-3.685h2.0895v0.41672h-1.6014v1.149h1.4109v0.41077h-1.4109v1.7085z"/>
<path d="m63.031 197.07q-0.15478 0-0.26789-0.10716-0.11311-0.10715-0.11311-0.2917t0.11311-0.2917q0.11311-0.10716 0.26789-0.10716 0.16074 0 0.26789 0.10716 0.11311 0.10715 0.11311 0.2917t-0.11311 0.2917q-0.10716 0.10716-0.26789 0.10716zm-0.12502 0.83939h-0.79772v-0.41077h1.2859v1.6966q0 0.41077 0.11311 0.55364 0.11311 0.13693 0.33933 0.13693 0.17264 0 0.31552-0.0417 0.14883-0.0417 0.23217-0.0893l0.07144 0.41672q-0.03572 0.0179-0.1012 0.0476-0.06548 0.0238-0.15478 0.0476-0.08334 0.0238-0.1905 0.0417-0.1012 0.0179-0.21431 0.0179-0.26194 0-0.43458-0.0714-0.17264-0.0714-0.2798-0.21431-0.1012-0.14288-0.14288-0.35124-0.04167-0.21431-0.04167-0.49411v-1.2859z"/>
<path d="m65.401 200.26v-2.6134q0.60722-0.20836 1.2263-0.20836 0.1905 0 0.36314 0.0179 0.17264 0.0119 0.381 0.0595l-0.0893 0.43458q-0.1905-0.0536-0.33933-0.0655-0.14288-0.0179-0.31552-0.0179-0.36314 0-0.73819 0.1012v2.292h-0.48816z"/>
<path d="m69.83 199.57q0-0.14883-0.12502-0.24408-0.11906-0.0953-0.30361-0.16669-0.17859-0.0714-0.39291-0.13692-0.21431-0.0714-0.39886-0.17264-0.17859-0.1012-0.30361-0.25003-0.11906-0.14883-0.11906-0.38695 0-0.33338 0.26789-0.55364 0.27384-0.22622 0.8513-0.22622 0.22622 0 0.46434 0.0357 0.24408 0.0298 0.41672 0.0833l-0.0893 0.44053q-0.04762-0.0238-0.13097-0.0476-0.08334-0.0298-0.1905-0.0476-0.10716-0.0238-0.23217-0.0357-0.11906-0.0119-0.23217-0.0119-0.64294 0-0.64294 0.35123 0 0.12502 0.11906 0.21431 0.12502 0.0833 0.30956 0.15479 0.18455 0.0714 0.39886 0.14882 0.21431 0.0714 0.39886 0.1786 0.18455 0.10715 0.30361 0.26193 0.12502 0.14883 0.12502 0.381 0 0.37505-0.2917 0.58341-0.2917 0.20241-0.92274 0.20241-0.28575 0-0.52388-0.0476t-0.45244-0.14287l0.09525-0.44649q0.20836 0.0952 0.43458 0.16074 0.23217 0.0595 0.49411 0.0595 0.6727 0 0.6727-0.33933z"/>
<path d="m72.163 197.5h1.1668v0.41077h-1.1668v1.2859q0 0.20836 0.02977 0.33933t0.09525 0.21431q0.07144 0.0774 0.17859 0.10716 0.10716 0.0298 0.26194 0.0298 0.21431 0 0.34528-0.0357 0.13097-0.0357 0.25003-0.0952l0.07144 0.41672q-0.08334 0.0357-0.26789 0.0952-0.17859 0.0595-0.44648 0.0595-0.30956 0-0.50602-0.0714-0.19645-0.0714-0.30956-0.21431-0.10716-0.14288-0.14883-0.35124-0.04167-0.21431-0.04167-0.49411v-1.2859h-0.58341v-0.41077h0.58341v-0.7739l0.48816-0.0833v0.85725z"/>
<path d="m78.902 198.89q0-0.4822-0.22622-0.74414-0.22622-0.26789-0.58936-0.26789-0.20241 0-0.32147 0.0179-0.11311 0.0179-0.17859 0.0417v1.7443q0.08334 0.0774 0.24408 0.14287 0.16074 0.0655 0.33338 0.0655 0.19645 0 0.33338-0.0774 0.14288-0.0774 0.23217-0.20836 0.0893-0.13693 0.13097-0.31552 0.04167-0.18455 0.04167-0.39886zm0.50602 0q0 0.31552-0.08334 0.58341-0.07739 0.26193-0.23217 0.45243-0.14883 0.1905-0.36909 0.29766t-0.50006 0.10716q-0.22027 0-0.38695-0.0536-0.16669-0.0536-0.25003-0.11906v1.0894h-0.49411v-3.6612q0.16073-0.0476 0.41076-0.0953 0.25598-0.0476 0.58341-0.0476 0.29766 0 0.54173 0.1012 0.24408 0.10121 0.41672 0.29171 0.17264 0.18454 0.26789 0.45244 0.09525 0.26789 0.09525 0.60126z"/>
<path d="m80.283 200.26v-2.6134q0.60722-0.20836 1.2263-0.20836 0.1905 0 0.36314 0.0179 0.17264 0.0119 0.381 0.0595l-0.0893 0.43458q-0.1905-0.0536-0.33933-0.0655-0.14288-0.0179-0.31552-0.0179-0.36314 0-0.73819 0.1012v2.292h-0.48816z"/>
<path d="m85.361 198.88q0 0.32742-0.09525 0.59531-0.0893 0.26194-0.25598 0.45244-0.16669 0.1905-0.39886 0.29765-0.23217 0.10121-0.50602 0.10121-0.26789 0-0.50006-0.10121-0.22622-0.10715-0.39291-0.29765-0.16669-0.1905-0.26194-0.45244-0.0893-0.26789-0.0893-0.59531t0.0893-0.59531q0.09525-0.2679 0.26194-0.45244 0.16669-0.1905 0.39291-0.29171 0.23217-0.10715 0.50006-0.10715 0.27384 0 0.50602 0.10715 0.23217 0.10121 0.39886 0.29171 0.16669 0.18454 0.25598 0.45244 0.09525 0.26789 0.09525 0.59531zm-0.50602 0q0-0.4703-0.20241-0.73819-0.20241-0.27384-0.54769-0.27384-0.33933 0-0.54173 0.27384-0.19645 0.26789-0.19645 0.73819 0 0.46434 0.19645 0.73819 0.20241 0.26789 0.54173 0.26789 0.34528 0 0.54769-0.26789 0.20241-0.27385 0.20241-0.73819z"/>
<path d="m87.659 200.01q-0.08334 0.0476-0.25598 0.1012-0.17264 0.0536-0.39886 0.0536-0.24408 0-0.45839-0.0774-0.20836-0.0833-0.36909-0.24408-0.15478-0.16669-0.25003-0.41672-0.0893-0.25598-0.0893-0.60126 0-0.30361 0.08334-0.55364 0.0893-0.25599 0.25003-0.44054 0.16669-0.18454 0.40481-0.28575 0.23812-0.10715 0.54173-0.10715 0.35719 0 0.60722 0.0536 0.25598 0.0476 0.42862 0.0953v2.4646q0 0.64294-0.32742 0.92869-0.32147 0.28575-0.97631 0.28575-0.26789 0-0.48816-0.0417-0.21431-0.0417-0.381-0.10121l0.0893-0.43458q0.15478 0.0655 0.35124 0.10716 0.20241 0.0417 0.44053 0.0417 0.42862 0 0.61317-0.17264t0.18455-0.55959v-0.0953zm0-2.0717q-0.07144-0.0238-0.19645-0.0417-0.12502-0.0238-0.33933-0.0238-0.381 0-0.58341 0.26193-0.19645 0.26194-0.19645 0.69652 0 0.23812 0.05358 0.41077 0.05953 0.16668 0.15478 0.27979 0.1012 0.10716 0.22622 0.16074 0.12502 0.0476 0.26789 0.0476 0.18455 0 0.34528-0.0536 0.16669-0.0536 0.26789-0.12501v-1.6133z"/>
<path d="m89.213 200.26v-2.6134q0.60722-0.20836 1.2263-0.20836 0.1905 0 0.36314 0.0179 0.17264 0.0119 0.381 0.0595l-0.0893 0.43458q-0.1905-0.0536-0.33933-0.0655-0.14288-0.0179-0.31552-0.0179-0.36314 0-0.73819 0.1012v2.292h-0.48816z"/>
<path d="m93.071 199.91q0.18455 0 0.32742-0.0119 0.14883-0.0119 0.24408-0.0298v-0.82153q-0.09525-0.0298-0.23217-0.0476-0.13097-0.0179-0.2798-0.0179-0.13692 0-0.26789 0.0238-0.13097 0.0179-0.23217 0.0714-0.1012 0.0536-0.16669 0.14288-0.06549 0.0833-0.06549 0.21431 0 0.26789 0.17859 0.37505 0.18455 0.1012 0.49411 0.1012zm-0.04763-2.4765q0.30956 0 0.51792 0.0774 0.21431 0.0774 0.34528 0.21431 0.13097 0.13692 0.18455 0.33338 0.05358 0.19645 0.05358 0.42862v1.7264q-0.17264 0.0298-0.45839 0.0714-0.2798 0.0417-0.57745 0.0417-0.22622 0-0.44053-0.0417-0.21431-0.0357-0.381-0.13097-0.16669-0.10121-0.26789-0.27385t-0.1012-0.44053q0-0.23812 0.1012-0.39886 0.10716-0.16669 0.26789-0.26789 0.16669-0.1012 0.37505-0.14287 0.21431-0.0476 0.42862-0.0476 0.2917 0 0.5715 0.0655v-0.13693q0-0.12501-0.02977-0.23812-0.02381-0.11906-0.1012-0.21431-0.07144-0.0952-0.20241-0.14883-0.12502-0.0595-0.32742-0.0595-0.25598 0-0.44648 0.0357t-0.2917 0.0714l-0.05953-0.40481q0.1012-0.0476 0.33338-0.0833 0.23812-0.0357 0.50602-0.0357z"/>
<path d="m94.773 197.58q0.35719-0.13692 0.6727-0.13692 0.17264 0 0.32147 0.0536 0.15478 0.0476 0.26194 0.15478 0.25598-0.20836 0.54769-0.20836 0.14288 0 0.26789 0.0536 0.13097 0.0536 0.22622 0.16073 0.1012 0.10716 0.16074 0.26789 0.05953 0.16074 0.05953 0.37505v1.9645h-0.44648v-1.9764q0-0.21432-0.09525-0.32743t-0.23812-0.11311q-0.07144 0-0.14883 0.0357-0.07739 0.0357-0.14288 0.11311 0.03572 0.13692 0.03572 0.30361v0.89892h-0.44648v-0.90487q0-0.20836-0.06548-0.32742-0.06548-0.11907-0.25598-0.11907-0.11906 0-0.26789 0.0536v2.3634h-0.44648v-2.6849z"/>
<path d="m99.25 196.22v0.26789q0 0.13097-0.01191 0.30361-6e-3 0.16669-0.02381 0.35124-0.01191 0.17859-0.02976 0.35718-0.01786 0.17264-0.04167 0.30957h-0.30361q-0.02381-0.13693-0.04167-0.30957-0.01786-0.17859-0.03572-0.35718-0.01191-0.18455-0.02381-0.35719-6e-3 -0.17264-6e-3 -0.30361v-0.26194h0.51792z"/>
<path d="m32.658 209.19v-2.6134q0.60722-0.20836 1.2263-0.20836 0.1905 0 0.36314 0.0179 0.17264 0.0119 0.381 0.0595l-0.0893 0.43458q-0.1905-0.0536-0.33933-0.0655-0.14288-0.0179-0.31552-0.0179-0.36314 0-0.73819 0.10121v2.292h-0.48816z"/>
<path d="m36.54 206.37q0.55959 0 0.8632 0.35123 0.30361 0.34528 0.30361 1.0537v0.17264h-1.9764q0.02977 0.42863 0.2798 0.65485 0.25598 0.22026 0.71438 0.22026 0.26194 0 0.44648-0.0417t0.2798-0.0893l0.06548 0.41672q-0.0893 0.0476-0.32147 0.10121-0.23217 0.0536-0.52388 0.0536-0.35719 0-0.63103-0.10715-0.26789-0.11311-0.44648-0.30361t-0.26789-0.45244q-0.0893-0.26789-0.0893-0.57745 0-0.3691 0.11311-0.64294t0.29766-0.45244q0.18455-0.17859 0.41672-0.26789t0.47625-0.0893zm0.66675 1.1787q0-0.35123-0.18455-0.55364-0.18455-0.20836-0.48816-0.20836-0.17264 0-0.31552 0.0655-0.13692 0.0655-0.23812 0.17264-0.1012 0.10716-0.16073 0.24408-0.05953 0.13692-0.07739 0.27979h1.4645z"/>
<path d="m39.493 208.84q0.18455 0 0.32742-0.0119 0.14883-0.0119 0.24408-0.0298v-0.82153q-0.09525-0.0298-0.23217-0.0476-0.13097-0.0179-0.2798-0.0179-0.13692 0-0.26789 0.0238-0.13097 0.0179-0.23217 0.0714-0.1012 0.0536-0.16669 0.14287-0.06548 0.0833-0.06548 0.21432 0 0.26789 0.17859 0.37504 0.18455 0.10121 0.49411 0.10121zm-0.04762-2.4765q0.30956 0 0.51792 0.0774 0.21431 0.0774 0.34528 0.21431 0.13097 0.13692 0.18455 0.33337 0.05358 0.19646 0.05358 0.42863v1.7264q-0.17264 0.0298-0.45839 0.0714-0.2798 0.0417-0.57745 0.0417-0.22622 0-0.44053-0.0417-0.21431-0.0357-0.381-0.13097-0.16669-0.1012-0.26789-0.27384t-0.1012-0.44053q0-0.23813 0.1012-0.39886 0.10716-0.16669 0.26789-0.26789 0.16669-0.1012 0.37505-0.14288 0.21431-0.0476 0.42862-0.0476 0.2917 0 0.5715 0.0655v-0.13692q0-0.12501-0.02977-0.23812-0.02381-0.11907-0.1012-0.21432-0.07144-0.0952-0.20241-0.14882-0.12502-0.0595-0.32742-0.0595-0.25598 0-0.44648 0.0357t-0.2917 0.0714l-0.05953-0.40481q0.1012-0.0476 0.33338-0.0833 0.23812-0.0357 0.50602-0.0357z"/>
<path d="m42.963 209.26q-0.26194 0-0.43458-0.0714t-0.27384-0.21432q-0.1012-0.14287-0.14288-0.35123-0.04167-0.21431-0.04167-0.49411v-2.6134h-0.79772v-0.41672h1.2859v3.0301q0 0.20836 0.02381 0.33933 0.02977 0.13097 0.08334 0.21431 0.05953 0.0774 0.14288 0.10716 0.08334 0.0298 0.19645 0.0298 0.17264 0 0.32147-0.0417 0.14883-0.0417 0.23217-0.0893l0.07144 0.41672q-0.03572 0.0179-0.1012 0.0476-0.06549 0.0238-0.15478 0.0476-0.0893 0.0238-0.19645 0.0417-0.1012 0.0179-0.21431 0.0179z"/>
<path d="m48.833 208.81q0 0.17859-0.11906 0.31552-0.11906 0.13692-0.31552 0.13692-0.20241 0-0.32147-0.13692-0.11906-0.13693-0.11906-0.31552 0-0.18455 0.11906-0.32147 0.11906-0.13692 0.32147-0.13692 0.19645 0 0.31552 0.13692 0.11906 0.13692 0.11906 0.32147zm0-1.9229q0 0.17859-0.11906 0.31552-0.11906 0.13692-0.31552 0.13692-0.20241 0-0.32147-0.13692-0.11906-0.13693-0.11906-0.31552 0-0.18455 0.11906-0.32147 0.11906-0.13692 0.32147-0.13692 0.19645 0 0.31552 0.13692 0.11906 0.13692 0.11906 0.32147z"/>
<path d="m51.81 208.81q0 0.17859-0.11906 0.31552-0.11906 0.13692-0.31552 0.13692-0.20241 0-0.32147-0.13692-0.11906-0.13693-0.11906-0.31552 0-0.18455 0.11906-0.32147t0.32147-0.13692q0.19645 0 0.31552 0.13692 0.11906 0.13692 0.11906 0.32147zm0-1.9229q0 0.17859-0.11906 0.31552-0.11906 0.13692-0.31552 0.13692-0.20241 0-0.32147-0.13692-0.11906-0.13693-0.11906-0.31552 0-0.18455 0.11906-0.32147t0.32147-0.13692q0.19645 0 0.31552 0.13692 0.11906 0.13692 0.11906 0.32147z"/>
<path d="m57.352 208.84q0.18455 0 0.32742-0.0119 0.14883-0.0119 0.24408-0.0298v-0.82153q-0.09525-0.0298-0.23217-0.0476-0.13097-0.0179-0.2798-0.0179-0.13692 0-0.26789 0.0238-0.13097 0.0179-0.23217 0.0714-0.1012 0.0536-0.16669 0.14287-0.06548 0.0833-0.06548 0.21432 0 0.26789 0.17859 0.37504 0.18455 0.10121 0.49411 0.10121zm-0.04763-2.4765q0.30956 0 0.51792 0.0774 0.21431 0.0774 0.34528 0.21431 0.13097 0.13692 0.18455 0.33337 0.05358 0.19646 0.05358 0.42863v1.7264q-0.17264 0.0298-0.45839 0.0714-0.2798 0.0417-0.57745 0.0417-0.22622 0-0.44053-0.0417-0.21431-0.0357-0.381-0.13097-0.16669-0.1012-0.26789-0.27384t-0.1012-0.44053q0-0.23813 0.1012-0.39886 0.10716-0.16669 0.26789-0.26789 0.16669-0.1012 0.37505-0.14288 0.21431-0.0476 0.42862-0.0476 0.2917 0 0.5715 0.0655v-0.13692q0-0.12501-0.02977-0.23812-0.02381-0.11907-0.1012-0.21432-0.07144-0.0952-0.20241-0.14882-0.12502-0.0595-0.32742-0.0595-0.25598 0-0.44648 0.0357t-0.2917 0.0714l-0.05953-0.40481q0.1012-0.0476 0.33338-0.0833 0.23812-0.0357 0.50602-0.0357z"/>
<path d="m59.698 209.66q0.10716-0.0238 0.20836-0.0476 0.10716-0.0238 0.19645-0.0714 0.0893-0.0417 0.16073-0.1131 0.07144-0.0655 0.11311-0.18455-0.1905-0.0179-0.2798-0.14288-0.08334-0.13097-0.08334-0.25598 0-0.23813 0.13097-0.35719 0.13692-0.12501 0.30956-0.12501 0.22027 0 0.33338 0.16073 0.11311 0.15478 0.11311 0.381 0 0.17264-0.07144 0.35719-0.06548 0.1905-0.20836 0.35123-0.13692 0.16669-0.34528 0.2798-0.20836 0.11906-0.49411 0.15478l-0.08334-0.38695z"/>
<path d="m62.704 206.53q0.0893-0.0536 0.25598-0.10715 0.17264-0.0595 0.381-0.0595 0.2798 0 0.50006 0.10715 0.22027 0.10716 0.36909 0.29766 0.15478 0.1905 0.23217 0.45839 0.08334 0.26194 0.08334 0.58341 0 0.33337-0.09525 0.60126t-0.26789 0.45839q-0.17264 0.18455-0.41672 0.28575-0.24408 0.1012-0.54173 0.1012-0.32742 0-0.58341-0.0476t-0.41077-0.0952v-3.9648l0.49411-0.0833v1.4645zm0 2.2324q0.11311 0.0298 0.22622 0.0476 0.11311 0.0119 0.21431 0.0119 0.41076 0 0.64294-0.25003 0.23217-0.25599 0.23217-0.762 0-0.21432-0.04167-0.39886-0.04167-0.1905-0.13097-0.32147-0.0893-0.13692-0.23217-0.21432-0.13692-0.0774-0.33338-0.0774-0.17264 0-0.33338 0.0714-0.16074 0.0655-0.24408 0.14288v1.7502z"/>
<path d="m65.651 209.66q0.10716-0.0238 0.20836-0.0476 0.10716-0.0238 0.19645-0.0714 0.0893-0.0417 0.16073-0.1131 0.07144-0.0655 0.11311-0.18455-0.1905-0.0179-0.2798-0.14288-0.08334-0.13097-0.08334-0.25598 0-0.23813 0.13097-0.35719 0.13692-0.12501 0.30956-0.12501 0.22027 0 0.33338 0.16073 0.11311 0.15478 0.11311 0.381 0 0.17264-0.07144 0.35719-0.06548 0.1905-0.20836 0.35123-0.13692 0.16669-0.34528 0.2798-0.20836 0.11906-0.49411 0.15478l-0.08334-0.38695z"/>
<path d="m68.032 207.82q0-0.37505 0.11906-0.64889 0.11906-0.27385 0.32742-0.45244t0.4822-0.26194q0.2798-0.0893 0.59531-0.0893 0.20241 0 0.39886 0.0298 0.20241 0.0238 0.42862 0.0952l-0.11311 0.42267q-0.19645-0.0714-0.36314-0.0893-0.16073-0.0238-0.32742-0.0238-0.21431 0-0.40481 0.0595-0.1905 0.0536-0.33338 0.17859-0.13692 0.11906-0.22027 0.31551-0.08334 0.1905-0.08334 0.46435 0 0.26194 0.07739 0.45244 0.07739 0.18454 0.21431 0.30956 0.14288 0.11906 0.33933 0.17859 0.19645 0.0595 0.43458 0.0595 0.1905 0 0.36314-0.0179 0.17859-0.0238 0.38695-0.0952l0.07144 0.41077q-0.20836 0.0774-0.42267 0.10716-0.21431 0.0357-0.46434 0.0357-0.33338 0-0.61317-0.0893-0.27384-0.0953-0.47625-0.27385-0.19645-0.17859-0.30956-0.44648-0.10716-0.27384-0.10716-0.63103z"/>
<path d="m33.54 217.77q0.18455 0 0.32742-0.0119 0.14883-0.0119 0.24408-0.0298v-0.82153q-0.09525-0.0298-0.23217-0.0476-0.13097-0.0179-0.2798-0.0179-0.13692 0-0.26789 0.0238-0.13097 0.0179-0.23217 0.0714-0.1012 0.0536-0.16669 0.14287-0.06548 0.0833-0.06548 0.21431 0 0.26789 0.17859 0.37505 0.18455 0.1012 0.49411 0.1012zm-0.04762-2.4765q0.30956 0 0.51792 0.0774 0.21431 0.0774 0.34528 0.21432t0.18455 0.33337q0.05358 0.19645 0.05358 0.42863v1.7264q-0.17264 0.0298-0.45839 0.0714-0.2798 0.0417-0.57745 0.0417-0.22622 0-0.44053-0.0417-0.21431-0.0357-0.381-0.13097-0.16669-0.1012-0.26789-0.27384t-0.1012-0.44053q0-0.23813 0.1012-0.39886 0.10716-0.16669 0.26789-0.26789 0.16669-0.10121 0.37505-0.14288 0.21431-0.0476 0.42862-0.0476 0.2917 0 0.5715 0.0655v-0.13692q0-0.12502-0.02977-0.23813-0.02381-0.11906-0.1012-0.21431-0.07144-0.0952-0.20241-0.14883-0.12502-0.0595-0.32742-0.0595-0.25598 0-0.44648 0.0357t-0.2917 0.0714l-0.05953-0.40481q0.1012-0.0476 0.33338-0.0833 0.23812-0.0357 0.50602-0.0357z"/>
<path d="m38.248 216.91h2.4348v0.42268h-2.4348zm0-1.1311h2.4348v0.42267h-2.4348z"/>
<path d="m44.845 215.46q0.0893-0.0536 0.25598-0.10716 0.17264-0.0595 0.381-0.0595 0.2798 0 0.50006 0.10716 0.22027 0.10716 0.36909 0.29766 0.15478 0.1905 0.23217 0.45839 0.08334 0.26193 0.08334 0.5834 0 0.33338-0.09525 0.60127t-0.26789 0.45839q-0.17264 0.18455-0.41672 0.28575t-0.54173 0.1012q-0.32742 0-0.58341-0.0476t-0.41077-0.0953v-3.9648l0.49411-0.0833v1.4645zm0 2.2324q0.11311 0.0298 0.22622 0.0476 0.11311 0.0119 0.21431 0.0119 0.41076 0 0.64294-0.25003 0.23217-0.25598 0.23217-0.762 0-0.21431-0.04167-0.39886-0.04167-0.1905-0.13097-0.32147-0.0893-0.13692-0.23217-0.21431-0.13692-0.0774-0.33338-0.0774-0.17264 0-0.33338 0.0714-0.16074 0.0655-0.24408 0.14287v1.7502z"/>
<path d="m50.155 216.35h1.0001v-1.0954h0.42862v1.0954h1.0061v0.41672h-1.0061v1.1013h-0.42862v-1.1013h-1.0001z"/>
<path d="m56.126 216.75q0-0.37505 0.11906-0.64889 0.11906-0.27385 0.32742-0.45244 0.20836-0.1786 0.4822-0.26194 0.2798-0.0893 0.59531-0.0893 0.20241 0 0.39886 0.0298 0.20241 0.0238 0.42862 0.0952l-0.11311 0.42267q-0.19645-0.0714-0.36314-0.0893-0.16074-0.0238-0.32742-0.0238-0.21431 0-0.40481 0.0595-0.1905 0.0536-0.33337 0.1786-0.13692 0.11906-0.22027 0.31551-0.08334 0.1905-0.08334 0.46435 0 0.26193 0.07739 0.45243 0.07739 0.18455 0.21431 0.30957 0.14288 0.11906 0.33933 0.17859 0.19645 0.0595 0.43458 0.0595 0.1905 0 0.36314-0.0179 0.17859-0.0238 0.38695-0.0952l0.07144 0.41077q-0.20836 0.0774-0.42267 0.10715-0.21431 0.0357-0.46434 0.0357-0.33338 0-0.61317-0.0893-0.27384-0.0952-0.47625-0.27385-0.19645-0.17859-0.30956-0.44648-0.10716-0.27385-0.10716-0.63103z"/>
<path d="m32.658 227.05v-2.6134q0.60722-0.20836 1.2263-0.20836 0.1905 0 0.36314 0.0179 0.17264 0.0119 0.381 0.0595l-0.0893 0.43458q-0.1905-0.0536-0.33933-0.0655-0.14288-0.0179-0.31552-0.0179-0.36314 0-0.73819 0.1012v2.292h-0.48816z"/>
<path d="m36.54 224.22q0.55959 0 0.8632 0.35124 0.30361 0.34528 0.30361 1.0537v0.17264h-1.9764q0.02977 0.42862 0.2798 0.65484 0.25598 0.22027 0.71438 0.22027 0.26194 0 0.44648-0.0417t0.2798-0.0893l0.06548 0.41672q-0.0893 0.0476-0.32147 0.1012-0.23217 0.0536-0.52388 0.0536-0.35719 0-0.63103-0.10716-0.26789-0.11311-0.44648-0.30361t-0.26789-0.45243q-0.0893-0.26789-0.0893-0.57746 0-0.36909 0.11311-0.64293 0.11311-0.27385 0.29766-0.45244 0.18455-0.1786 0.41672-0.26789 0.23217-0.0893 0.47625-0.0893zm0.66675 1.1787q0-0.35123-0.18455-0.55364-0.18455-0.20836-0.48816-0.20836-0.17264 0-0.31552 0.0655-0.13692 0.0655-0.23812 0.17264-0.1012 0.10716-0.16073 0.24408-0.05953 0.13692-0.07739 0.2798h1.4645z"/>
<path d="m39.493 226.7q0.18455 0 0.32742-0.0119 0.14883-0.0119 0.24408-0.0298v-0.82153q-0.09525-0.0298-0.23217-0.0476-0.13097-0.0179-0.2798-0.0179-0.13692 0-0.26789 0.0238-0.13097 0.0179-0.23217 0.0714-0.1012 0.0536-0.16669 0.14288-0.06548 0.0833-0.06548 0.21431 0 0.26789 0.17859 0.37505 0.18455 0.1012 0.49411 0.1012zm-0.04762-2.4765q0.30956 0 0.51792 0.0774 0.21431 0.0774 0.34528 0.21431 0.13097 0.13693 0.18455 0.33338 0.05358 0.19645 0.05358 0.42862v1.7264q-0.17264 0.0298-0.45839 0.0714-0.2798 0.0417-0.57745 0.0417-0.22622 0-0.44053-0.0417-0.21431-0.0357-0.381-0.13097-0.16669-0.1012-0.26789-0.27384-0.1012-0.17265-0.1012-0.44054 0-0.23812 0.1012-0.39886 0.10716-0.16668 0.26789-0.26789 0.16669-0.1012 0.37505-0.14287 0.21431-0.0476 0.42862-0.0476 0.2917 0 0.5715 0.0655v-0.13692q0-0.12502-0.02977-0.23813-0.02381-0.11906-0.1012-0.21431-0.07144-0.0953-0.20241-0.14883-0.12502-0.0595-0.32742-0.0595-0.25598 0-0.44648 0.0357t-0.2917 0.0714l-0.05953-0.40482q0.1012-0.0476 0.33338-0.0833 0.23812-0.0357 0.50602-0.0357z"/>
<path d="m43.011 224.87q-0.08334-0.0774-0.24408-0.14287-0.16073-0.0714-0.33338-0.0714-0.19645 0-0.33933 0.0774-0.13692 0.0774-0.22622 0.21431-0.0893 0.13097-0.13097 0.32147-0.04167 0.18455-0.04167 0.39886 0 0.4822 0.22622 0.74414t0.58936 0.26194q0.18455 0 0.30956-0.0179 0.13097-0.0179 0.1905-0.0357v-1.7502zm0-1.8633 0.49411-0.0833v4.0481q-0.16073 0.0476-0.41076 0.0952t-0.58341 0.0476q-0.29766 0-0.54174-0.1012-0.24408-0.10121-0.41672-0.28575-0.17264-0.1905-0.26789-0.45839t-0.09525-0.60127q0-0.32147 0.07739-0.58341 0.08334-0.26789 0.23812-0.45839 0.15478-0.1905 0.36909-0.29765 0.22027-0.10716 0.50006-0.10716 0.22026 0 0.38695 0.0536 0.16669 0.0536 0.25003 0.11311v-1.3811z"/>
<path d="m48.613 224.57q0.16073 0.14883 0.33338 0.31552 0.17264 0.16073 0.2917 0.34528l0.02381 0.0298-0.41672 0.30361-0.02977-0.0357q-0.12502-0.1786-0.22622-0.38696-0.1012-0.21431-0.1905-0.41076-0.09525 0.19645-0.19645 0.41076-0.1012 0.20836-0.23812 0.38696l-0.02977 0.0298-0.41076-0.29766 0.02976-0.0357q0.13097-0.18455 0.29766-0.34529 0.16669-0.16073 0.32742-0.30956-0.22027-0.0298-0.45244-0.0595-0.23217-0.0357-0.44053-0.10716l-0.04167-0.0119 0.16073-0.48816 0.04167 0.0179q0.20836 0.0833 0.41672 0.18455 0.21431 0.1012 0.40481 0.20836-0.04763-0.21431-0.0893-0.44649-0.03572-0.23217-0.03572-0.45839v-0.0417h0.51197v0.0417q0 0.22622-0.04167 0.45839-0.03572 0.23218-0.08334 0.44649 0.1905-0.11311 0.39886-0.20836 0.20836-0.1012 0.41672-0.1786l0.04167-0.0179 0.15478 0.48815-0.03572 0.0119q-0.21431 0.0655-0.44648 0.1012-0.22622 0.0357-0.44648 0.0595z"/>
<path d="m50.768 227.52q0.10716-0.0238 0.20836-0.0476 0.10716-0.0238 0.19645-0.0714 0.0893-0.0417 0.16074-0.11311 0.07144-0.0655 0.11311-0.18455-0.1905-0.0179-0.2798-0.14287-0.08334-0.13097-0.08334-0.25599 0-0.23812 0.13097-0.35718 0.13692-0.12502 0.30956-0.12502 0.22026 0 0.33338 0.16074 0.11311 0.15478 0.11311 0.381 0 0.17264-0.07144 0.35718-0.06549 0.1905-0.20836 0.35124-0.13692 0.16668-0.34528 0.27979-0.20836 0.11907-0.49411 0.15478l-0.08334-0.38695z"/>
<path d="m53.149 225.68q0-0.37504 0.11906-0.64889 0.11906-0.27384 0.32742-0.45243 0.20836-0.1786 0.4822-0.26194 0.2798-0.0893 0.59531-0.0893 0.20241 0 0.39886 0.0298 0.20241 0.0238 0.42862 0.0952l-0.11311 0.42267q-0.19645-0.0714-0.36314-0.0893-0.16073-0.0238-0.32742-0.0238-0.21431 0-0.40481 0.0595-0.1905 0.0536-0.33338 0.17859-0.13692 0.11907-0.22027 0.31552-0.08334 0.1905-0.08334 0.46434 0 0.26194 0.07739 0.45244 0.07739 0.18455 0.21431 0.30956 0.14288 0.11907 0.33933 0.1786 0.19645 0.0595 0.43458 0.0595 0.1905 0 0.36314-0.0179 0.17859-0.0238 0.38695-0.0952l0.07144 0.41076q-0.20836 0.0774-0.42267 0.10716-0.21431 0.0357-0.46434 0.0357-0.33338 0-0.61317-0.0893-0.27384-0.0952-0.47625-0.27384-0.19645-0.17859-0.30956-0.44649-0.10716-0.27384-0.10716-0.63103z"/>
<path d="m34.254 234.61q0-0.4822-0.22622-0.74414-0.22622-0.26789-0.58936-0.26789-0.20241 0-0.32147 0.0179-0.11311 0.0179-0.17859 0.0417v1.7443q0.08334 0.0774 0.24408 0.14287 0.16073 0.0655 0.33338 0.0655 0.19645 0 0.33338-0.0774 0.14288-0.0774 0.23217-0.20836 0.0893-0.13693 0.13097-0.31552 0.04167-0.18455 0.04167-0.39886zm0.50602 0q0 0.31552-0.08334 0.58341-0.07739 0.26193-0.23217 0.45243-0.14883 0.1905-0.36909 0.29766-0.22026 0.10716-0.50006 0.10716-0.22027 0-0.38695-0.0536-0.16669-0.0536-0.25003-0.11906v1.0894h-0.49411v-3.6612q0.16074-0.0476 0.41077-0.0953 0.25598-0.0476 0.58341-0.0476 0.29766 0 0.54173 0.1012 0.24408 0.10121 0.41672 0.29171 0.17264 0.18454 0.26789 0.45244 0.09525 0.26789 0.09525 0.60126z"/>
<path d="m35.635 235.98v-2.6134q0.60722-0.20836 1.2263-0.20836 0.1905 0 0.36314 0.0179 0.17264 0.0119 0.381 0.0595l-0.0893 0.43458q-0.1905-0.0536-0.33933-0.0655-0.14288-0.0179-0.31552-0.0179-0.36314 0-0.73819 0.1012v2.292h-0.48816z"/>
<path d="m39.219 232.79q-0.15478 0-0.26789-0.10716-0.11311-0.10715-0.11311-0.2917t0.11311-0.2917q0.11311-0.10716 0.26789-0.10716 0.16073 0 0.26789 0.10716 0.11311 0.10715 0.11311 0.2917t-0.11311 0.2917q-0.10716 0.10716-0.26789 0.10716zm-0.12502 0.83939h-0.79772v-0.41077h1.2859v1.6966q0 0.41077 0.11311 0.55364 0.11311 0.13693 0.33933 0.13693 0.17264 0 0.31552-0.0417 0.14883-0.0417 0.23217-0.0893l0.07144 0.41672q-0.03572 0.0179-0.1012 0.0476-0.06549 0.0238-0.15478 0.0476-0.08334 0.0238-0.1905 0.0417-0.1012 0.0179-0.21431 0.0179-0.26194 0-0.43458-0.0714t-0.2798-0.21431q-0.1012-0.14288-0.14288-0.35124-0.04167-0.21431-0.04167-0.49411v-1.2859z"/>
<path d="m41.374 233.3q0.26789-0.0655 0.52983-0.1012 0.26789-0.0357 0.50006-0.0357 0.55364 0 0.83344 0.28575 0.28575 0.28575 0.28575 0.91678v1.6192h-0.48816v-1.53q0-0.26789-0.04763-0.43458-0.04762-0.16669-0.13692-0.25598-0.08334-0.0952-0.20836-0.13097-0.11906-0.0357-0.26194-0.0357-0.11906 0-0.25598 0.0179-0.13097 0.0119-0.25598 0.0357v2.3336h-0.49411v-2.6849z"/>
<path d="m45.374 233.22h1.1668v0.41077h-1.1668v1.2859q0 0.20836 0.02976 0.33933 0.02977 0.13097 0.09525 0.21431 0.07144 0.0774 0.17859 0.10716 0.10716 0.0298 0.26194 0.0298 0.21431 0 0.34528-0.0357 0.13097-0.0357 0.25003-0.0952l0.07144 0.41672q-0.08334 0.0357-0.26789 0.0952-0.17859 0.0595-0.44648 0.0595-0.30956 0-0.50602-0.0714t-0.30956-0.21431q-0.10716-0.14288-0.14883-0.35124-0.04167-0.21431-0.04167-0.49411v-1.2859h-0.58341v-0.41077h0.58341v-0.7739l0.48816-0.0833v0.85725z"/>
<path d="m51.589 233.5q0.16074 0.14883 0.33338 0.31552 0.17264 0.16073 0.2917 0.34528l0.02381 0.0298-0.41672 0.30361-0.02977-0.0357q-0.12502-0.17859-0.22622-0.38695-0.1012-0.21431-0.1905-0.41077-0.09525 0.19646-0.19645 0.41077-0.1012 0.20836-0.23812 0.38695l-0.02977 0.0298-0.41077-0.29766 0.02977-0.0357q0.13097-0.18454 0.29766-0.34528 0.16669-0.16073 0.32742-0.30956-0.22026-0.0298-0.45244-0.0595-0.23217-0.0357-0.44053-0.10716l-0.04167-0.0119 0.16073-0.48816 0.04167 0.0179q0.20836 0.0833 0.41672 0.18455 0.21431 0.1012 0.40481 0.20836-0.04763-0.21432-0.0893-0.44649-0.03572-0.23217-0.03572-0.45839v-0.0417h0.51197v0.0417q0 0.22622-0.04167 0.45839-0.03572 0.23217-0.08334 0.44649 0.1905-0.11311 0.39886-0.20836 0.20836-0.10121 0.41672-0.1786l0.04167-0.0179 0.15478 0.48816-0.03572 0.0119q-0.21431 0.0655-0.44648 0.1012-0.22622 0.0357-0.44648 0.0595z"/>
<path d="m53.744 236.45q0.10716-0.0238 0.20836-0.0476 0.10716-0.0238 0.19645-0.0714 0.0893-0.0417 0.16073-0.11311 0.07144-0.0655 0.11311-0.18455-0.1905-0.0179-0.2798-0.14287-0.08334-0.13097-0.08334-0.25599 0-0.23812 0.13097-0.35719 0.13692-0.12501 0.30956-0.12501 0.22027 0 0.33338 0.16073 0.11311 0.15478 0.11311 0.381 0 0.17264-0.07144 0.35719-0.06548 0.1905-0.20836 0.35123-0.13692 0.16669-0.34528 0.2798-0.20836 0.11906-0.49411 0.15478l-0.08334-0.38695z"/>
<path d="m57.352 235.63q0.18455 0 0.32742-0.0119 0.14883-0.0119 0.24408-0.0298v-0.82153q-0.09525-0.0298-0.23217-0.0476-0.13097-0.0179-0.2798-0.0179-0.13692 0-0.26789 0.0238-0.13097 0.0179-0.23217 0.0714-0.1012 0.0536-0.16669 0.14288-0.06548 0.0833-0.06548 0.21431 0 0.26789 0.17859 0.37505 0.18455 0.1012 0.49411 0.1012zm-0.04763-2.4765q0.30956 0 0.51792 0.0774 0.21431 0.0774 0.34528 0.21431 0.13097 0.13692 0.18455 0.33338 0.05358 0.19645 0.05358 0.42862v1.7264q-0.17264 0.0298-0.45839 0.0714-0.2798 0.0417-0.57745 0.0417-0.22622 0-0.44053-0.0417-0.21431-0.0357-0.381-0.13097-0.16669-0.10121-0.26789-0.27385t-0.1012-0.44053q0-0.23812 0.1012-0.39886 0.10716-0.16669 0.26789-0.26789 0.16669-0.1012 0.37505-0.14287 0.21431-0.0476 0.42862-0.0476 0.2917 0 0.5715 0.0655v-0.13693q0-0.12501-0.02977-0.23812-0.02381-0.11906-0.1012-0.21431-0.07144-0.0952-0.20241-0.14883-0.12502-0.0595-0.32742-0.0595-0.25598 0-0.44648 0.0357t-0.2917 0.0714l-0.05953-0.40481q0.1012-0.0476 0.33338-0.0833 0.23812-0.0357 0.50602-0.0357z"/>
<path d="m33.563 242.08q0.55959 0 0.8632 0.35123 0.30361 0.34528 0.30361 1.0537v0.17264h-1.9764q0.02977 0.42863 0.2798 0.65485 0.25598 0.22026 0.71437 0.22026 0.26194 0 0.44648-0.0417t0.2798-0.0893l0.06548 0.41672q-0.0893 0.0476-0.32147 0.10121-0.23217 0.0536-0.52388 0.0536-0.35719 0-0.63103-0.10715-0.26789-0.11311-0.44648-0.30361t-0.26789-0.45244q-0.0893-0.26789-0.0893-0.57745 0-0.3691 0.11311-0.64294 0.11311-0.27384 0.29766-0.45244 0.18455-0.17859 0.41672-0.26789t0.47625-0.0893zm0.66675 1.1787q0-0.35123-0.18455-0.55364-0.18455-0.20836-0.48816-0.20836-0.17264 0-0.31552 0.0655-0.13692 0.0655-0.23812 0.17264-0.1012 0.10716-0.16073 0.24408-0.05953 0.13692-0.07739 0.27979h1.4645z"/>
<path d="m35.421 242.23q0.26789-0.0655 0.52983-0.1012 0.26789-0.0357 0.50006-0.0357 0.55364 0 0.83344 0.28575 0.28575 0.28575 0.28575 0.91678v1.6192h-0.48816v-1.53q0-0.26789-0.04763-0.43458-0.04762-0.16669-0.13692-0.25599-0.08334-0.0953-0.20836-0.13096-0.11906-0.0357-0.26194-0.0357-0.11906 0-0.25598 0.0179-0.13097 0.0119-0.25598 0.0357v2.3336h-0.49411v-2.6849z"/>
<path d="m40.034 242.73q-0.08334-0.0774-0.24408-0.14288-0.16073-0.0714-0.33338-0.0714-0.19645 0-0.33933 0.0774-0.13692 0.0774-0.22622 0.21432-0.0893 0.13097-0.13097 0.32147-0.04167 0.18454-0.04167 0.39886 0 0.4822 0.22622 0.74414 0.22622 0.26193 0.58936 0.26193 0.18455 0 0.30956-0.0179 0.13097-0.0179 0.1905-0.0357v-1.7502zm0-1.8633 0.49411-0.0833v4.0481q-0.16073 0.0476-0.41076 0.0952-0.25003 0.0476-0.58341 0.0476-0.29766 0-0.54174-0.1012t-0.41672-0.28575q-0.17264-0.1905-0.26789-0.45839t-0.09525-0.60126q0-0.32147 0.07739-0.58341 0.08334-0.26789 0.23812-0.45839 0.15478-0.1905 0.36909-0.29766 0.22027-0.10715 0.50006-0.10715 0.22026 0 0.38695 0.0536 0.16669 0.0536 0.25003 0.11311v-1.3811z"/>
<path d="m46.16 243.54q0-0.4822-0.22622-0.74414-0.22622-0.26789-0.58936-0.26789-0.20241 0-0.32147 0.0179-0.11311 0.0179-0.17859 0.0417v1.7443q0.08334 0.0774 0.24408 0.14288 0.16073 0.0655 0.33338 0.0655 0.19645 0 0.33338-0.0774 0.14288-0.0774 0.23217-0.20836 0.0893-0.13692 0.13097-0.31551 0.04167-0.18455 0.04167-0.39886zm0.50602 0q0 0.31551-0.08334 0.5834-0.07739 0.26194-0.23217 0.45244-0.14883 0.1905-0.36909 0.29766-0.22026 0.10715-0.50006 0.10715-0.22027 0-0.38695-0.0536-0.16669-0.0536-0.25003-0.11907v1.0894h-0.49411v-3.6612q0.16074-0.0476 0.41077-0.0952 0.25598-0.0476 0.58341-0.0476 0.29766 0 0.54173 0.1012 0.24408 0.10121 0.41672 0.29171 0.17264 0.18454 0.26789 0.45243t0.09525 0.60127z"/>
<path d="m47.541 244.91v-2.6134q0.60722-0.20836 1.2263-0.20836 0.1905 0 0.36314 0.0179 0.17264 0.0119 0.381 0.0595l-0.0893 0.43458q-0.1905-0.0536-0.33933-0.0655-0.14287-0.0179-0.31552-0.0179-0.36314 0-0.73819 0.10121v2.292h-0.48816z"/>
<path d="m52.619 243.53q0 0.32742-0.09525 0.59531-0.0893 0.26194-0.25598 0.45244-0.16669 0.1905-0.39886 0.29765-0.23217 0.1012-0.50602 0.1012-0.26789 0-0.50006-0.1012-0.22622-0.10715-0.39291-0.29765-0.16669-0.1905-0.26194-0.45244-0.0893-0.26789-0.0893-0.59531 0-0.32743 0.0893-0.59532 0.09525-0.26789 0.26194-0.45243 0.16669-0.1905 0.39291-0.29171 0.23217-0.10715 0.50006-0.10715 0.27384 0 0.50602 0.10715 0.23217 0.10121 0.39886 0.29171 0.16669 0.18454 0.25598 0.45243 0.09525 0.26789 0.09525 0.59532zm-0.50602 0q0-0.4703-0.20241-0.73819-0.20241-0.27385-0.54769-0.27385-0.33933 0-0.54173 0.27385-0.19645 0.26789-0.19645 0.73819 0 0.46434 0.19645 0.73818 0.20241 0.26789 0.54173 0.26789 0.34528 0 0.54769-0.26789 0.20241-0.27384 0.20241-0.73818z"/>
<path d="m54.917 244.66q-0.08334 0.0476-0.25598 0.1012-0.17264 0.0536-0.39886 0.0536-0.24408 0-0.45839-0.0774-0.20836-0.0833-0.36909-0.24408-0.15478-0.16669-0.25003-0.41672-0.0893-0.25598-0.0893-0.60127 0-0.30361 0.08334-0.55364 0.0893-0.25598 0.25003-0.44053 0.16669-0.18454 0.40481-0.28575 0.23812-0.10715 0.54174-0.10715 0.35719 0 0.60722 0.0536 0.25598 0.0476 0.42862 0.0952v2.4646q0 0.64293-0.32742 0.92868-0.32147 0.28575-0.97631 0.28575-0.26789 0-0.48816-0.0417-0.21431-0.0417-0.381-0.1012l0.0893-0.43458q0.15478 0.0655 0.35123 0.10716 0.20241 0.0417 0.44053 0.0417 0.42862 0 0.61317-0.17264t0.18455-0.55959v-0.0952zm0-2.0717q-0.07144-0.0238-0.19645-0.0417-0.12502-0.0238-0.33933-0.0238-0.381 0-0.58341 0.26194-0.19645 0.26194-0.19645 0.69652 0 0.23812 0.05358 0.41076 0.05953 0.16669 0.15478 0.2798 0.1012 0.10716 0.22622 0.16073 0.12502 0.0476 0.26789 0.0476 0.18455 0 0.34528-0.0536 0.16669-0.0536 0.26789-0.12501v-1.6133z"/>
<path d="m56.471 244.91v-2.6134q0.60722-0.20836 1.2263-0.20836 0.1905 0 0.36314 0.0179 0.17264 0.0119 0.381 0.0595l-0.0893 0.43458q-0.1905-0.0536-0.33933-0.0655-0.14288-0.0179-0.31552-0.0179-0.36314 0-0.73819 0.10121v2.292h-0.48816z"/>
<path d="m60.329 244.56q0.18455 0 0.32742-0.0119 0.14883-0.0119 0.24408-0.0298v-0.82153q-0.09525-0.0298-0.23217-0.0476-0.13097-0.0179-0.2798-0.0179-0.13692 0-0.26789 0.0238-0.13097 0.0179-0.23217 0.0714-0.1012 0.0536-0.16669 0.14287-0.06548 0.0833-0.06548 0.21432 0 0.26789 0.17859 0.37504 0.18455 0.10121 0.49411 0.10121zm-0.04763-2.4765q0.30956 0 0.51792 0.0774 0.21431 0.0774 0.34528 0.21431 0.13097 0.13692 0.18455 0.33337 0.05358 0.19646 0.05358 0.42863v1.7264q-0.17264 0.0298-0.45839 0.0714-0.2798 0.0417-0.57745 0.0417-0.22622 0-0.44053-0.0417-0.21431-0.0357-0.381-0.13097-0.16669-0.1012-0.26789-0.27384t-0.1012-0.44053q0-0.23813 0.1012-0.39886 0.10716-0.16669 0.26789-0.26789 0.16669-0.1012 0.37505-0.14288 0.21431-0.0476 0.42862-0.0476 0.2917 0 0.5715 0.0655v-0.13692q0-0.12501-0.02977-0.23812-0.02381-0.11907-0.1012-0.21432-0.07144-0.0952-0.20241-0.14882-0.12502-0.0595-0.32742-0.0595-0.25598 0-0.44648 0.0357-0.1905 0.0357-0.2917 0.0714l-0.05953-0.40481q0.1012-0.0476 0.33338-0.0833 0.23812-0.0357 0.50602-0.0357z"/>
<path d="m62.031 242.23q0.35719-0.13692 0.6727-0.13692 0.17264 0 0.32147 0.0536 0.15478 0.0476 0.26194 0.15478 0.25598-0.20836 0.54769-0.20836 0.14288 0 0.26789 0.0536 0.13097 0.0536 0.22622 0.16073 0.1012 0.10716 0.16073 0.26789 0.05953 0.16074 0.05953 0.37505v1.9645h-0.44648v-1.9764q0-0.21431-0.09525-0.32742t-0.23812-0.11311q-0.07144 0-0.14883 0.0357-0.07739 0.0357-0.14288 0.11311 0.03572 0.13692 0.03572 0.30361v0.89892h-0.44648v-0.90487q0-0.20836-0.06548-0.32743-0.06548-0.11906-0.25598-0.11906-0.11906 0-0.26789 0.0536v2.3634h-0.44648v-2.6849z"/>
<path d="m71.675 244.91v-2.3515h-0.58341v-0.41077h0.58341v-0.25003q0-0.32147 0.0893-0.52983 0.0893-0.21431 0.23217-0.34528 0.14883-0.13097 0.33933-0.18455 0.19645-0.0536 0.41077-0.0536 0.21431 0 0.42862 0.0476 0.22027 0.0476 0.41077 0.11311l-0.0893 0.42267q-0.13097-0.0655-0.32742-0.11311-0.19645-0.0476-0.39886-0.0476-0.12502 0-0.23812 0.0357-0.10716 0.0298-0.1905 0.1131-0.08334 0.0774-0.13097 0.21432-0.04762 0.13097-0.04762 0.33337v0.24408h1.1132v0.41077h-1.1132v2.3515h-0.48816z"/>
<path d="m74.938 241.72q-0.15478 0-0.26789-0.10716t-0.11311-0.2917q0-0.18455 0.11311-0.29171 0.11311-0.10715 0.26789-0.10715 0.16073 0 0.26789 0.10715 0.11311 0.10716 0.11311 0.29171 0 0.18454-0.11311 0.2917-0.10716 0.10716-0.26789 0.10716zm-0.12502 0.83939h-0.79772v-0.41077h1.2859v1.6966q0 0.41077 0.11311 0.55364 0.11311 0.13692 0.33933 0.13692 0.17264 0 0.31552-0.0417 0.14883-0.0417 0.23217-0.0893l0.07144 0.41672q-0.03572 0.0179-0.1012 0.0476-0.06548 0.0238-0.15478 0.0476-0.08334 0.0238-0.1905 0.0417-0.1012 0.0179-0.21431 0.0179-0.26194 0-0.43458-0.0714-0.17264-0.0714-0.2798-0.21432-0.1012-0.14287-0.14288-0.35123-0.04167-0.21431-0.04167-0.49411v-1.2859z"/>
<path d="m77.307 244.91v-2.6134q0.60722-0.20836 1.2263-0.20836 0.1905 0 0.36314 0.0179 0.17264 0.0119 0.381 0.0595l-0.0893 0.43458q-0.1905-0.0536-0.33933-0.0655-0.14288-0.0179-0.31552-0.0179-0.36314 0-0.73819 0.10121v2.292h-0.48816z"/>
<path d="m81.736 244.22q0-0.14883-0.12502-0.24408-0.11906-0.0952-0.30361-0.16669-0.17859-0.0714-0.39291-0.13692-0.21431-0.0714-0.39886-0.17264-0.17859-0.1012-0.30361-0.25003-0.11906-0.14883-0.11906-0.38695 0-0.33338 0.26789-0.55365 0.27384-0.22621 0.8513-0.22621 0.22622 0 0.46434 0.0357 0.24408 0.0298 0.41672 0.0833l-0.0893 0.44053q-0.04762-0.0238-0.13097-0.0476-0.08334-0.0298-0.1905-0.0476-0.10716-0.0238-0.23217-0.0357-0.11906-0.0119-0.23217-0.0119-0.64294 0-0.64294 0.35124 0 0.12501 0.11906 0.21431 0.12502 0.0833 0.30956 0.15478 0.18455 0.0714 0.39886 0.14883 0.21431 0.0714 0.39886 0.17859 0.18455 0.10716 0.30361 0.26194 0.12502 0.14883 0.12502 0.381 0 0.37505-0.2917 0.58341-0.2917 0.2024-0.92274 0.2024-0.28575 0-0.52388-0.0476t-0.45244-0.14288l0.09525-0.44648q0.20836 0.0953 0.43458 0.16073 0.23217 0.0595 0.49411 0.0595 0.6727 0 0.6727-0.33933z"/>
<path d="m84.07 242.15h1.1668v0.41077h-1.1668v1.2859q0 0.20836 0.02977 0.33933t0.09525 0.21431q0.07144 0.0774 0.17859 0.10716 0.10716 0.0298 0.26194 0.0298 0.21431 0 0.34528-0.0357 0.13097-0.0357 0.25003-0.0952l0.07144 0.41672q-0.08334 0.0357-0.26789 0.0952-0.17859 0.0595-0.44648 0.0595-0.30956 0-0.50602-0.0714-0.19645-0.0714-0.30956-0.21432-0.10716-0.14287-0.14883-0.35123-0.04167-0.21431-0.04167-0.49411v-1.2859h-0.58341v-0.41077h0.58341v-0.77391l0.48816-0.0833v0.85725z"/>
</g>
<g transform="translate(-1.3428e-6 4.5088e-6)" fill="#fff" stroke-width=".26458" aria-label=".f">
<path d="m14.478 292.3q0.20838 0 0.35026 0.14631 0.14188 0.14188 0.14188 0.34583t-0.14631 0.35026q-0.14188 0.14188-0.34582 0.14188-0.20395 0-0.35026-0.14188-0.14188-0.14631-0.14188-0.35026 0-0.20838 0.14188-0.35026 0.14631-0.14188 0.35026-0.14188z"/>
<path d="m17.484 289.42v2.6691q0 0.56751 0.12414 0.71825 0.16405 0.19508 0.43893 0.19508h0.36799v0.15961h-2.4252v-0.15961h0.18178q0.17735 0 0.32366-0.0887t0.19951-0.23942q0.05764-0.15074 0.05764-0.58524v-2.6691h-0.78919v-0.31923h0.78919v-0.26601q0-0.60742 0.19508-1.0286 0.19508-0.4212 0.59411-0.67835 0.40346-0.26159 0.90446-0.26159 0.46553 0 0.8557 0.30149 0.25715 0.19952 0.25715 0.4478 0 0.13301-0.11528 0.25272-0.11528 0.11527-0.24828 0.11527-0.10197 0-0.21725-0.0709-0.11084-0.0754-0.27489-0.31479-0.16404-0.24386-0.30149-0.32809-0.13744-0.0842-0.30592-0.0842-0.20395 0-0.34583 0.11084-0.14188 0.1064-0.20395 0.33695-0.06207 0.22612-0.06207 1.1749v0.29262h1.0463v0.31923z"/>
</g>
</g>
</svg>
