<svg width="128" height="128" version="1.1" viewBox="0 0 33.867 33.867" xmlns="http://www.w3.org/2000/svg" xmlns:osb="http://www.openswatchbook.org/uri/2009/osb" xmlns:xlink="http://www.w3.org/1999/xlink">
<defs>
<linearGradient id="linearGradient1503" x1="29.203" x2="4.5843" y1="263.52" y2="296.17" gradientTransform="matrix(1.001 0 0 1.001 -.017758 -.29086)" gradientUnits="userSpaceOnUse">
<stop stop-color="#d9d9d9" offset="0"/>
<stop stop-color="#fff" offset="1"/>
</linearGradient>
</defs>
<g transform="translate(0 -263.13)">
<path d="m4.5714 264.1v32.612h24.724v-18.3c-0.04716-0.8313-0.10165-1.5753-0.3125-2.3297-0.21448-0.76736-0.55247-1.4939-0.95641-2.1892-0.51687-0.8897-1.3904-1.4633-2.1667-2.1925-0.47098-0.42711-1.4882-1.4417-2.7195-2.653-1.2212-1.2014-2.6535-2.5969-3.8492-3.6811-0.35316-0.3187-0.86616-0.64943-1.3428-0.84044-0.37009-0.14831-0.80547-0.24063-1.2258-0.30267-0.43345-0.064-0.85093-0.0958-1.1644-0.12361z" opacity=".25"/>
<path d="m4.5714 263.57v32.612h24.724v-18.3c-0.04716-0.83129-0.10165-1.5753-0.3125-2.3297-0.21448-0.76736-0.55247-1.4939-0.95641-2.1892-0.51687-0.88969-1.3904-1.4633-2.1667-2.1925-0.47098-0.42712-1.4882-1.4417-2.7195-2.653-1.2212-1.2014-2.6535-2.5969-3.8492-3.6811-0.35316-0.3187-0.86616-0.64944-1.3428-0.84044-0.37009-0.14831-0.80547-0.24063-1.2258-0.30267-0.43345-0.064-0.85093-0.0958-1.1644-0.12361z" fill="url(#linearGradient1503)" stroke="#808080" stroke-width=".3"/>
<path d="m20.052 288.81c-0.66585-0.088 0.11735-0.75656 0.33839-0.89026 0.42571-0.25437 0.77228-0.5446 1.0397-1.024 0.42298-0.76961 0.61158-1.7903 0.79168-2.6741 0.12008-0.60002 0.23711-0.94896-0.08217-1.4577-0.31655-0.50544 0.22377-0.92286-0.11189-1.4577-0.56216-0.8968-0.79957-2.0838-1.3563-2.9708-0.15828-0.25111-0.10097-0.4859-0.32746-0.51199-0.10916-0.0131-0.39024 0.24784-0.48575 0.32284-0.27562 0.22174-0.61128 0.3261-0.88144 0.54133-0.13645 0.10765-0.39569 0.0293-0.50758 0.13371-0.32474 0.30327-0.24833 1.2457-0.21558 1.7284 0.04913 0.6881 0.51031 0.90333 0.51031 1.5653 0 0.79896-0.12039 1.3436 0.08973 2.1621 0.12006 0.4696 0.42313 1.0044 0.47225 1.4838 0.04093 0.37828-0.01908 0.36849-0.11189 0.72721-0.10916 0.4272-0.15811 0.80873-0.49649 1.0011-0.19376 0.10766-1.0823 0.15326-1.1915-0.10764-0.21559-0.512 0.60582-0.68809 0.74499-1.0012 0.30018-0.67178-0.3201-2.4132-0.59026-2.9969-0.15009-0.31632-0.41502-0.57071-0.52144-0.89027-0.14464-0.43048 0.14736-0.72396 0.10097-1.0533-0.09006-0.64243-0.31655-1.324-0.48574-1.9436-0.39569-1.4381-0.9442 0.7468-1.1734 1.2979-0.09279 0.21524-0.15827 0.45329-0.24833 0.67505-0.10916 0.26089 0.13098 0.48589 0.0655 0.80874-0.06004 0.30327-0.35476 0.47285-0.51849 0.70113-0.24833 0.34894-0.42025 0.78917-0.55396 1.2164-0.27835 0.89027-0.37659 2.4425-0.89235 3.1567-0.07367 0.10432-0.28108 0.0458-0.36022 0.13696-0.18011 0.20871 0.04638 0.44026-0.30564 0.58048-0.27016 0.10766-0.95238 0.225-1.2089 0.0391-0.4912-0.35547 0.12279-0.79245 0.42844-1.161 0.43117-0.51199 0.93055-0.98156 1.2662-1.5914 0.44209-0.80224 0.53487-1.7055 0.62219-2.6317 0.04093-0.44677-0.36294-0.66853-0.01365-1.2033 0.11189-0.16958 0.453-0.14674 0.453-0.32284 0-0.55764 0.01365-1.1186 0-1.6729-0.01636-0.67503-0.01365-1.787-0.55397-2.2142-0.7177-0.57396-1.6292-0.72396-2.3141-1.337-0.68223-0.61308-1.3071-1.1675-1.7192-2.1458-0.21285-0.51199-0.32474-1.0142-0.49666-1.5392-0.12553-0.38807-0.090053-0.25764-0.29199-0.4859-0.12007-0.13372-0.29745-0.22828-0.43117-0.3783-0.34657-0.39783-0.40934-0.78917-0.99332-0.62286-0.23196 0.0684-0.614 0.58701-0.74499 0.27067-0.084588-0.20219-0.032742-0.38807 0.010982-0.59351 0.065497-0.30654-0.2456-0.40764-0.23741-0.70113 0.013651-0.50545 0.69587-1.037 1.0506-1.1218 0.44754-0.10767 0.93874 0.12398 1.4136 0.0131 0.38205-0.0881 0.71497-0.33591 1.0834-0.44352 0.38478-0.11735 0.73134-0.15653 1.0615 0.12068 0.15009 0.12718 0.2074 0.35545 0.33838 0.48589 0.11189 0.10764 0.21013 0.0783 0.33838 0.18915 0.38751 0.33262 0.41752 0.82503-0.24833 0.67503 0.28108 1.386 1.6428 5.1134 3.1628 3.186 0.70951-0.90004 1.3617-1.8979 2.033-2.8339 0.59217-0.82505 0.93601-1.7544 1.943-1.5946 0.99332 0.15654 1.6728 0.97179 2.4424 1.6468 0.62765 0.55438 1.3672 0.67504 2.033 1.1348 0.70679 0.48589 1.3372 1.3044 1.58 2.2403 0.35203 1.3534 0.15009 2.6578 0.76955 3.9426 0.37386 0.7794 0.906 1.324 1.3781 1.9697 0.25379 0.34895 0.42298 0.82832 0.33839 1.2946-0.05731 0.32284-0.24833 0.38155-0.24833 0.75657 0 0.65547 0.04898 1.3044 0.02442 1.9599-0.02182 0.5837-0.06004 1.1544-0.12825 1.7316-0.06004 0.49895-0.23456 0.63917-0.371 1.0077-0.20194 0.5446-0.1692 0.78266-0.65494 0.99789-0.27562 0.12067-0.74499 0.36522-1.0397 0.35219-0.42298-0.0228-0.48301-0.44026-0.15827-0.89026 0.21012-0.2935 0.57867-0.38806 0.81335-0.7044 0.68496-0.91636 0.97966-3.6719 0.40659-4.6438-0.23741-0.40436-0.51862-0.40763-0.54045-1.024-0.02183-0.55112 0.12318-0.74353-0.29434-1.2425-1.3262-0.80872-1.4221-1.3859-1.8533-1.1088-0.52395 0.33915-0.11189 2.2469 0 2.7817 0.20194 0.95877 0.99605 1.4088 0.47483 2.3773-0.37386 0.69135-0.54851 1.4055-0.8023 2.2143-0.22923 0.72722-0.21013 1.7675-0.5758 2.374-0.07095 0.11735-0.18284 0.18261-0.24833 0.29675-0.04913 0.0847-0.1228 0.32938-0.15828 0.37828-0.15282 0.21198-0.18557 0.26742-0.43117 0.3783-0.43663 0.19892-0.97149 0.13371-1.4436 0.13371" fill="#4d4d4d" fill-rule="evenodd"/>
<path d="m19.751 265.48c0.01633 0.0263 0.56114 0.90462 0.72779 1.3989 0.45158 1.0123 0.25858 3.9724 0.25037 5.6588 0.02772-0.19401 4.6905-1.3958 7.111 0.80464-0.01547-0.0273-0.04888-0.0804-0.12512-0.18628-0.07235-0.10046-0.18275-0.24915-0.37164-0.44224-0.52811-0.60452-0.23093-0.0845-0.80541-0.682-0.49669-0.45047-1.5695-1.5205-2.868-2.798-1.2412-1.2212-2.6869-2.6295-3.919-3.7538z" opacity=".248"/>
<path d="m19.424 264.96c0.01548 0.0249 0.53209 0.85773 0.69011 1.3264 0.42821 0.95987 0.29224 3.218 0.28445 4.8171 0.42899-0.0223 5.1595-0.73701 7.3284 1.8241-0.02928-0.0506-0.10278-0.0927-0.14377-0.17312-0.50077-0.57318-1.1396-1.0337-1.7235-1.5822-0.47098-0.42712-1.4882-1.4417-2.7195-2.653-1.1769-1.1579-2.5478-2.4932-3.7162-3.5592z" fill="#fff" stroke="#808080" stroke-width=".3"/>
<g transform="matrix(.53602 0 0 .53727 -234.93 -13.785)" stroke-width="4.0845"></g>
<g transform="matrix(.53602 0 0 .53727 -234.93 -13.76)" stroke-width="4.0845"></g>
<g transform="translate(-2.1144)" fill="#4d4d4d" stroke-width=".26458" aria-label="PERL">
<path d="m13.465 291.57q0-0.35657-0.18914-0.50849-0.18604-0.15193-0.524-0.15193h-0.88987v1.3456h0.88987q0.33796 0 0.524-0.16433 0.18914-0.16433 0.18914-0.5209zm0.94568-6e-3q0 0.80925-0.40928 1.1441-0.40928 0.33486-1.1689 0.33486h-0.97048v1.6433h-0.94878v-4.5703h1.9906q0.68833 0 1.0976 0.35346 0.40928 0.35347 0.40928 1.0945z"/>
<path d="m18.513 290.93h-2.4185v0.97048h2.22v0.79375h-2.22v1.1751h2.5301v0.82165h-3.4634v-4.5703h3.3517z"/>
<path d="m20.33 290.91v1.2278h1.0821q0.32246 0 0.48369-0.0744 0.28525-0.13023 0.28525-0.5147 0-0.41548-0.27595-0.55811-0.15503-0.0806-0.46509-0.0806zm1.3084-0.79375q0.48059 9e-3 0.73794 0.11782 0.26045 0.10852 0.44028 0.31936 0.14883 0.17363 0.23564 0.38447 0.08682 0.21084 0.08682 0.48059 0 0.32557-0.16433 0.64182-0.16433 0.31316-0.5426 0.44339 0.31626 0.12712 0.44648 0.36277 0.13332 0.23254 0.13332 0.71313v0.30696q0 0.31316 0.02481 0.42478 0.03721 0.17673 0.17363 0.26045v0.11472h-1.0511q-0.04341-0.15193-0.06201-0.24495-0.03721-0.19223-0.04031-0.39377l-0.0062-0.42478q-0.0062-0.43718-0.16123-0.58291-0.15193-0.14573-0.57361-0.14573h-0.98599v1.7921h-0.93328v-4.5703z"/>
<path d="m23.964 290.12h0.95498v3.7486h2.2634v0.82165h-3.2184z"/>
</g>
</g>
</svg>
