<svg width="128" height="128" version="1.1" viewBox="0 0 33.867 33.867" xmlns="http://www.w3.org/2000/svg" xmlns:osb="http://www.openswatchbook.org/uri/2009/osb" xmlns:xlink="http://www.w3.org/1999/xlink">
<defs>
<linearGradient id="linearGradient2404" x1="29.203" x2="4.5843" y1="263.52" y2="296.17" gradientTransform="matrix(1.001 0 0 1.001 -.017757 -.29086)" gradientUnits="userSpaceOnUse">
<stop stop-color="#d9d9d9" offset="0"/>
<stop stop-color="#fff" offset="1"/>
</linearGradient>
</defs>
<g transform="translate(0 -263.13)">
<path d="m4.5714 264.1v32.612h24.724v-18.3c-0.04716-0.8313-0.10165-1.5753-0.3125-2.3297-0.21448-0.76736-0.55247-1.4939-0.95641-2.1892-0.51687-0.8897-1.3904-1.4633-2.1667-2.1925-0.47098-0.42711-1.4882-1.4417-2.7195-2.653-1.2212-1.2014-2.6535-2.5969-3.8492-3.6811-0.35316-0.3187-0.86616-0.64943-1.3428-0.84044-0.37009-0.14831-0.80547-0.24063-1.2258-0.30267-0.43345-0.064-0.85093-0.0958-1.1644-0.12361z" opacity=".25"/>
<path d="m4.5714 263.57v32.612h24.724v-18.3c-0.04716-0.83129-0.10165-1.5753-0.3125-2.3297-0.21448-0.76736-0.55247-1.4939-0.95641-2.1892-0.51687-0.88969-1.3904-1.4633-2.1667-2.1925-0.47098-0.42712-1.4882-1.4417-2.7195-2.653-1.2212-1.2014-2.6535-2.5969-3.8492-3.6811-0.35316-0.3187-0.86616-0.64944-1.3428-0.84044-0.37009-0.14831-0.80547-0.24063-1.2258-0.30267-0.43345-0.064-0.85093-0.0958-1.1644-0.12361z" fill="url(#linearGradient2404)" stroke="#808080" stroke-width=".3"/>
<g transform="matrix(.24641 0 0 .2479 -1.3753 225.49)" fill="#4d4d4d" stroke-width="4.046px">
<path d="m34.081 178.99q-0.08334-0.0774-0.24408-0.14287-0.16073-0.0714-0.33338-0.0714-0.19645 0-0.33933 0.0774-0.13692 0.0774-0.22622 0.21431-0.0893 0.13097-0.13097 0.32147-0.04167 0.18455-0.04167 0.39886 0 0.4822 0.22622 0.74414 0.22622 0.26194 0.58936 0.26194 0.18455 0 0.30956-0.0179 0.13097-0.0179 0.1905-0.0357v-1.7502zm0-1.8633 0.49411-0.0833v4.0481q-0.16074 0.0476-0.41077 0.0952t-0.58341 0.0476q-0.29766 0-0.54173-0.1012-0.24408-0.10121-0.41672-0.28575-0.17264-0.1905-0.26789-0.4584-0.09525-0.26789-0.09525-0.60126 0-0.32147 0.07739-0.58341 0.08334-0.26789 0.23812-0.45839 0.15478-0.1905 0.36909-0.29765 0.22026-0.10716 0.50006-0.10716 0.22027 0 0.38695 0.0536 0.16669 0.0536 0.25003 0.11311v-1.3811z"/>
<path d="m36.54 178.34q0.55959 0 0.8632 0.35123 0.30361 0.34529 0.30361 1.0537v0.17264h-1.9764q0.02977 0.42862 0.2798 0.65484 0.25598 0.22027 0.71438 0.22027 0.26194 0 0.44648-0.0417t0.2798-0.0893l0.06548 0.41672q-0.0893 0.0476-0.32147 0.1012-0.23217 0.0536-0.52388 0.0536-0.35719 0-0.63103-0.10716-0.26789-0.11311-0.44648-0.30361t-0.26789-0.45243q-0.0893-0.2679-0.0893-0.57746 0-0.36909 0.11311-0.64294 0.11311-0.27384 0.29766-0.45243 0.18455-0.1786 0.41672-0.26789 0.23217-0.0893 0.47625-0.0893zm0.66675 1.1787q0-0.35124-0.18455-0.55364-0.18455-0.20836-0.48816-0.20836-0.17264 0-0.31552 0.0655-0.13692 0.0655-0.23812 0.17264-0.1012 0.10716-0.16073 0.24408-0.05953 0.13692-0.07739 0.2798h1.4645z"/>
<path d="m38.933 181.17v-2.3515h-0.58341v-0.41077h0.58341v-0.25003q0-0.32147 0.0893-0.52982 0.0893-0.21432 0.23217-0.34529 0.14883-0.13096 0.33933-0.18454 0.19645-0.0536 0.41076-0.0536 0.21431 0 0.42862 0.0476 0.22027 0.0476 0.41077 0.11311l-0.0893 0.42268q-0.13097-0.0655-0.32742-0.11311-0.19645-0.0476-0.39886-0.0476-0.12502 0-0.23812 0.0357-0.10716 0.0298-0.1905 0.11311-0.08334 0.0774-0.13097 0.21431-0.04762 0.13097-0.04762 0.33338v0.24407h1.1132v0.41077h-1.1132v2.3515h-0.48816z"/>
<path d="m46.017 180.48q0-0.14883-0.12502-0.24408-0.11906-0.0953-0.30361-0.16668-0.17859-0.0714-0.39291-0.13693-0.21431-0.0714-0.39886-0.17264-0.17859-0.1012-0.30361-0.25003-0.11906-0.14883-0.11906-0.38695 0-0.33338 0.26789-0.55364 0.27384-0.22622 0.8513-0.22622 0.22622 0 0.46434 0.0357 0.24408 0.0298 0.41672 0.0833l-0.0893 0.44053q-0.04762-0.0238-0.13097-0.0476-0.08334-0.0298-0.1905-0.0476-0.10716-0.0238-0.23217-0.0357-0.11906-0.0119-0.23217-0.0119-0.64294 0-0.64294 0.35123 0 0.12502 0.11906 0.21432 0.12502 0.0833 0.30956 0.15478 0.18455 0.0714 0.39886 0.14882 0.21431 0.0714 0.39886 0.1786 0.18455 0.10715 0.30361 0.26194 0.12502 0.14882 0.12502 0.381 0 0.37504-0.2917 0.5834-0.2917 0.20241-0.92273 0.20241-0.28575 0-0.52388-0.0476t-0.45244-0.14287l0.09525-0.44649q0.20836 0.0952 0.43458 0.16074 0.23217 0.0595 0.49411 0.0595 0.6727 0 0.6727-0.33933z"/>
<path d="m47.648 179.79q0 0.21431 0.04167 0.39886 0.04762 0.1786 0.13692 0.31552 0.0893 0.13097 0.22622 0.20836 0.14288 0.0774 0.33933 0.0774 0.17264 0 0.33338-0.0655t0.24408-0.14287v-1.7443q-0.06548-0.0238-0.18455-0.0417-0.11311-0.0179-0.31552-0.0179-0.36314 0-0.59531 0.26789-0.22622 0.26194-0.22622 0.74414zm-0.50602 0q0-0.33337 0.09525-0.60126t0.26789-0.45244q0.17264-0.1905 0.41672-0.2917 0.25003-0.10121 0.54769-0.10121 0.32147 0 0.56555 0.0536 0.25003 0.0476 0.42267 0.0952v3.6552h-0.49411v-1.0894q-0.0893 0.0595-0.25598 0.11311-0.16669 0.0595-0.37505 0.0595-0.2798 0-0.50006-0.10716-0.22026-0.10715-0.37505-0.29765-0.14883-0.1905-0.23217-0.45244-0.08334-0.26789-0.08334-0.58341z"/>
<path d="m50.518 181.17v-2.6134q0.60722-0.20836 1.2263-0.20836 0.1905 0 0.36314 0.0179 0.17264 0.0119 0.381 0.0595l-0.0893 0.43458q-0.1905-0.0536-0.33933-0.0655-0.14288-0.0179-0.31552-0.0179-0.36314 0-0.73819 0.1012v2.292h-0.48816z"/>
<path d="m55.143 177.35q-0.55364 0.42863-0.84534 0.98822t-0.2917 1.2204q0 0.33338 0.06548 0.63103 0.07144 0.29766 0.20836 0.5715 0.14288 0.27385 0.35719 0.52983 0.22027 0.25598 0.51792 0.51197l-0.26789 0.35719q-0.68461-0.50602-1.0239-1.1728-0.33338-0.6727-0.33338-1.4168 0-0.73819 0.33933-1.4109 0.33933-0.67271 1.018-1.1668l0.26194 0.35719h-6e-3z"/>
<path d="m58.096 181.17q-0.05953-0.11906-0.14883-0.26193-0.08334-0.14288-0.18455-0.29171-0.1012-0.15478-0.21431-0.30361-0.10716-0.14882-0.21431-0.27979-0.10716 0.13692-0.22622 0.28575-0.11906 0.14883-0.23217 0.30361-0.10716 0.14882-0.20241 0.2917-0.09525 0.14287-0.16073 0.25598h-0.50602q0.19645-0.35718 0.47625-0.73223 0.28575-0.381 0.55959-0.72033l-0.99417-1.3097h0.55364l0.74414 0.96441 0.68461-0.96441h0.52388l-0.91083 1.2799q0.26789 0.35123 0.53578 0.73223 0.27384 0.381 0.46434 0.75009z"/>
<path d="m59.495 181.81q0.55364-0.42863 0.84534-0.98822 0.29766-0.55959 0.29766-1.2204 0-0.33338-0.07144-0.63103-0.06548-0.29766-0.20836-0.5715-0.14288-0.27385-0.36314-0.52983-0.21431-0.25598-0.51197-0.51197l0.26789-0.35719q0.68461 0.50602 1.018 1.1787 0.33933 0.66675 0.33933 1.4109 0 0.3691-0.0893 0.72628-0.08334 0.35719-0.25598 0.69057-0.16669 0.32742-0.42267 0.61912-0.25003 0.29766-0.58936 0.54174l-0.26194-0.35719h6e-3z"/>
<path d="m44.565 188.61v-2.6134q0.60722-0.20836 1.2263-0.20836 0.1905 0 0.36314 0.0179 0.17264 0.0119 0.381 0.0595l-0.0893 0.43458q-0.1905-0.0536-0.33933-0.0655-0.14288-0.0179-0.31552-0.0179-0.36314 0-0.73819 0.10121v2.292h-0.48816z"/>
<path d="m48.446 185.78q0.55959 0 0.8632 0.35123 0.30361 0.34528 0.30361 1.0537v0.17264h-1.9764q0.02977 0.42863 0.2798 0.65485 0.25598 0.22026 0.71438 0.22026 0.26194 0 0.44648-0.0417 0.18455-0.0417 0.2798-0.0893l0.06549 0.41672q-0.0893 0.0476-0.32147 0.10121-0.23217 0.0536-0.52388 0.0536-0.35719 0-0.63103-0.10715-0.26789-0.11311-0.44648-0.30361-0.17859-0.1905-0.26789-0.45244-0.0893-0.26789-0.0893-0.57745 0-0.3691 0.11311-0.64294 0.11311-0.27384 0.29766-0.45244 0.18455-0.17859 0.41672-0.26789t0.47625-0.0893zm0.66675 1.1787q0-0.35123-0.18455-0.55364-0.18455-0.20835-0.48816-0.20835-0.17264 0-0.31552 0.0655-0.13692 0.0655-0.23812 0.17264-0.1012 0.10716-0.16073 0.24408-0.05953 0.13692-0.07739 0.27979h1.4645z"/>
<path d="m51.327 185.85h1.1668v0.41077h-1.1668v1.2859q0 0.20836 0.02977 0.33933t0.09525 0.21431q0.07144 0.0774 0.17859 0.10716 0.10716 0.0298 0.26194 0.0298 0.21431 0 0.34528-0.0357t0.25003-0.0952l0.07144 0.41672q-0.08334 0.0357-0.26789 0.0953-0.17859 0.0595-0.44648 0.0595-0.30956 0-0.50602-0.0714t-0.30956-0.21432q-0.10716-0.14287-0.14883-0.35123-0.04167-0.21431-0.04167-0.49411v-1.2859h-0.58341v-0.41077h0.58341v-0.77391l0.48816-0.0833v0.85725z"/>
<path d="m55.411 188.53q-0.16073 0.0417-0.42862 0.0893-0.26194 0.0476-0.61912 0.0476-0.31552 0-0.52387-0.0893-0.20836-0.0952-0.33933-0.26193-0.13097-0.17264-0.18455-0.40482-0.05358-0.23217-0.05358-0.51196v-1.5538h0.48816v1.4466q0 0.51197 0.14883 0.72628 0.15478 0.21431 0.51197 0.21431 0.07739 0 0.15478-6e-3 0.08334-6e-3 0.15478-0.0119 0.07144-0.0119 0.12502-0.0179 0.05358-0.0119 0.07144-0.0178v-2.3336h0.49411v2.6849z"/>
<path d="m56.471 188.61v-2.6134q0.60722-0.20836 1.2263-0.20836 0.1905 0 0.36314 0.0179 0.17264 0.0119 0.381 0.0595l-0.0893 0.43458q-0.1905-0.0536-0.33933-0.0655-0.14288-0.0179-0.31552-0.0179-0.36314 0-0.73819 0.10121v2.292h-0.48816z"/>
<path d="m59.233 185.93q0.26789-0.0655 0.52983-0.1012 0.26789-0.0357 0.50006-0.0357 0.55364 0 0.83344 0.28575 0.28575 0.28575 0.28575 0.91678v1.6192h-0.48816v-1.53q0-0.26789-0.04763-0.43458-0.04762-0.16669-0.13692-0.25599-0.08334-0.0952-0.20836-0.13096-0.11906-0.0357-0.26194-0.0357-0.11906 0-0.25598 0.0179-0.13097 0.0119-0.25598 0.0357v2.3336h-0.49411v-2.6849z"/>
<path d="m67.026 188.61q-0.05953-0.11906-0.14883-0.26194-0.08334-0.14287-0.18455-0.2917-0.1012-0.15478-0.21431-0.30361-0.10716-0.14883-0.21431-0.2798-0.10716 0.13693-0.22622 0.28575-0.11906 0.14883-0.23217 0.30361-0.10716 0.14883-0.20241 0.29171-0.09525 0.14287-0.16074 0.25598h-0.50602q0.19645-0.35719 0.47625-0.73223 0.28575-0.381 0.55959-0.72033l-0.99417-1.3097h0.55364l0.74414 0.96441 0.68461-0.96441h0.52388l-0.91083 1.2799q0.26789 0.35124 0.53578 0.73224 0.27384 0.381 0.46434 0.75009z"/>
<path d="m69.449 186.13q0.16074 0.14883 0.33338 0.31551 0.17264 0.16074 0.2917 0.34528l0.02381 0.0298-0.41672 0.30361-0.02976-0.0357q-0.12502-0.17859-0.22622-0.38695-0.1012-0.21432-0.1905-0.41077-0.09525 0.19645-0.19645 0.41077-0.1012 0.20836-0.23812 0.38695l-0.02977 0.0298-0.41076-0.29766 0.02976-0.0357q0.13097-0.18455 0.29766-0.34528 0.16669-0.16073 0.32742-0.30956-0.22026-0.0298-0.45244-0.0595-0.23217-0.0357-0.44053-0.10716l-0.04167-0.0119 0.16073-0.48815 0.04167 0.0179q0.20836 0.0833 0.41672 0.18454 0.21431 0.10121 0.40481 0.20836-0.04763-0.21431-0.0893-0.44648-0.03572-0.23217-0.03572-0.45839v-0.0417h0.51197v0.0417q0 0.22622-0.04167 0.45839-0.03572 0.23217-0.08334 0.44648 0.1905-0.11311 0.39886-0.20836 0.20836-0.1012 0.41672-0.17859l0.04167-0.0179 0.15478 0.48816-0.03572 0.0119q-0.21431 0.0655-0.44648 0.10121-0.22622 0.0357-0.44648 0.0595z"/>
<path d="m72.979 188.61q-0.05953-0.11906-0.14883-0.26194-0.08334-0.14287-0.18455-0.2917-0.1012-0.15478-0.21431-0.30361-0.10716-0.14883-0.21431-0.2798-0.10716 0.13693-0.22622 0.28575-0.11906 0.14883-0.23217 0.30361-0.10716 0.14883-0.20241 0.29171-0.09525 0.14287-0.16074 0.25598h-0.50602q0.19645-0.35719 0.47625-0.73223 0.28575-0.381 0.55959-0.72033l-0.99417-1.3097h0.55364l0.74414 0.96441 0.68461-0.96441h0.52388l-0.91083 1.2799q0.26789 0.35124 0.53578 0.73224 0.27384 0.381 0.46434 0.75009z"/>
<path d="m33.563 193.22q0.55959 0 0.8632 0.35124 0.30361 0.34528 0.30361 1.0537v0.17264h-1.9764q0.02977 0.42863 0.2798 0.65484 0.25598 0.22027 0.71437 0.22027 0.26194 0 0.44648-0.0417t0.2798-0.0893l0.06548 0.41672q-0.0893 0.0476-0.32147 0.1012-0.23217 0.0536-0.52388 0.0536-0.35719 0-0.63103-0.10716-0.26789-0.1131-0.44648-0.3036t-0.26789-0.45244q-0.0893-0.26789-0.0893-0.57746 0-0.36909 0.11311-0.64293 0.11311-0.27385 0.29766-0.45244t0.41672-0.26789 0.47625-0.0893zm0.66675 1.1787q0-0.35123-0.18455-0.55364-0.18455-0.20836-0.48816-0.20836-0.17264 0-0.31552 0.0655-0.13692 0.0655-0.23812 0.17264-0.1012 0.10715-0.16073 0.24407-0.05953 0.13693-0.07739 0.2798h1.4645z"/>
<path d="m35.421 193.37q0.26789-0.0655 0.52983-0.10121 0.26789-0.0357 0.50006-0.0357 0.55364 0 0.83344 0.28575 0.28575 0.28575 0.28575 0.91678v1.6192h-0.48816v-1.53q0-0.26789-0.04763-0.43457-0.04762-0.16669-0.13692-0.25599-0.08334-0.0952-0.20836-0.13097-0.11906-0.0357-0.26194-0.0357-0.11906 0-0.25598 0.0179-0.13097 0.0119-0.25598 0.0357v2.3336h-0.49411v-2.6849z"/>
<path d="m40.034 193.87q-0.08334-0.0774-0.24408-0.14287-0.16073-0.0714-0.33338-0.0714-0.19645 0-0.33933 0.0774-0.13692 0.0774-0.22622 0.21431-0.0893 0.13097-0.13097 0.32147-0.04167 0.18455-0.04167 0.39886 0 0.4822 0.22622 0.74414t0.58936 0.26194q0.18455 0 0.30956-0.0179 0.13097-0.0179 0.1905-0.0357v-1.7502zm0-1.8633 0.49411-0.0833v4.0481q-0.16073 0.0476-0.41076 0.0952-0.25003 0.0476-0.58341 0.0476-0.29766 0-0.54174-0.1012-0.24408-0.10121-0.41672-0.28575-0.17264-0.1905-0.26789-0.45839t-0.09525-0.60127q0-0.32147 0.07739-0.5834 0.08334-0.2679 0.23812-0.45839 0.15478-0.1905 0.36909-0.29766 0.22027-0.10716 0.50006-0.10716 0.22026 0 0.38695 0.0536 0.16669 0.0536 0.25003 0.11311z"/>
<path d="m34.307 207.12q-0.55364 0.42862-0.84534 0.98822-0.2917 0.55959-0.2917 1.2204 0 0.33337 0.06549 0.63103 0.07144 0.29765 0.20836 0.5715 0.14288 0.27384 0.35719 0.52982 0.22026 0.25599 0.51792 0.51197l-0.26789 0.35719q-0.68461-0.50601-1.0239-1.1728-0.33338-0.67271-0.33338-1.4168 0-0.73819 0.33933-1.4109 0.33933-0.6727 1.018-1.1668l0.26194 0.35719h-6e-3z"/>
<path d="m35.635 210.93v-2.6134q0.60722-0.20836 1.2263-0.20836 0.1905 0 0.36314 0.0179 0.17264 0.0119 0.381 0.0595l-0.0893 0.43458q-0.1905-0.0536-0.33933-0.0655-0.14288-0.0179-0.31552-0.0179-0.36314 0-0.73819 0.10121v2.292h-0.48816z"/>
<path d="m39.493 210.58q0.18455 0 0.32742-0.0119 0.14883-0.0119 0.24408-0.0298v-0.82153q-0.09525-0.0298-0.23217-0.0476-0.13097-0.0179-0.2798-0.0179-0.13692 0-0.26789 0.0238-0.13097 0.0179-0.23217 0.0714-0.1012 0.0536-0.16669 0.14287-0.06548 0.0833-0.06548 0.21431 0 0.2679 0.17859 0.37505 0.18455 0.1012 0.49411 0.1012zm-0.04762-2.4765q0.30956 0 0.51792 0.0774 0.21431 0.0774 0.34528 0.21431 0.13097 0.13692 0.18455 0.33337 0.05358 0.19646 0.05358 0.42863v1.7264q-0.17264 0.0298-0.45839 0.0714-0.2798 0.0417-0.57745 0.0417-0.22622 0-0.44053-0.0417-0.21431-0.0357-0.381-0.13097-0.16669-0.1012-0.26789-0.27384t-0.1012-0.44053q0-0.23813 0.1012-0.39886 0.10716-0.16669 0.26789-0.26789 0.16669-0.10121 0.37505-0.14288 0.21431-0.0476 0.42862-0.0476 0.2917 0 0.5715 0.0655v-0.13692q0-0.12502-0.02977-0.23812-0.02381-0.11907-0.1012-0.21432-0.07144-0.0952-0.20241-0.14882-0.12502-0.0595-0.32742-0.0595-0.25598 0-0.44648 0.0357t-0.2917 0.0714l-0.05953-0.40481q0.1012-0.0476 0.33338-0.0834 0.23812-0.0357 0.50602-0.0357z"/>
<path d="m41.374 208.25q0.26789-0.0655 0.52983-0.1012 0.26789-0.0357 0.50006-0.0357 0.55364 0 0.83344 0.28575 0.28575 0.28575 0.28575 0.91678v1.6192h-0.48816v-1.53q0-0.26789-0.04763-0.43458-0.04762-0.16669-0.13692-0.25599-0.08334-0.0952-0.20836-0.13096-0.11906-0.0357-0.26194-0.0357-0.11906 0-0.25598 0.0179-0.13097 0.0119-0.25598 0.0357v2.3336h-0.49411v-2.6849z"/>
<path d="m45.988 208.76q-0.08334-0.0774-0.24408-0.14288-0.16073-0.0714-0.33338-0.0714-0.19645 0-0.33933 0.0774-0.13692 0.0774-0.22622 0.21432-0.0893 0.13096-0.13097 0.32146-0.04167 0.18455-0.04167 0.39886 0 0.48221 0.22622 0.74414 0.22622 0.26194 0.58936 0.26194 0.18455 0 0.30956-0.0179 0.13097-0.0179 0.1905-0.0357v-1.7502zm0-1.8633 0.49411-0.0833v4.0481q-0.16074 0.0476-0.41077 0.0953-0.25003 0.0476-0.58341 0.0476-0.29766 0-0.54173-0.1012t-0.41672-0.28575q-0.17264-0.1905-0.26789-0.45839t-0.09525-0.60127q0-0.32146 0.07739-0.5834 0.08334-0.26789 0.23812-0.45839 0.15478-0.1905 0.36909-0.29766 0.22026-0.10715 0.50006-0.10715 0.22027 0 0.38695 0.0536 0.16669 0.0536 0.25003 0.11311v-1.3811z"/>
<path d="m49.19 207.12q-0.55364 0.42862-0.84534 0.98822-0.2917 0.55959-0.2917 1.2204 0 0.33337 0.06548 0.63103 0.07144 0.29765 0.20836 0.5715 0.14288 0.27384 0.35719 0.52982 0.22027 0.25599 0.51792 0.51197l-0.26789 0.35719q-0.68461-0.50601-1.0239-1.1728-0.33338-0.67271-0.33338-1.4168 0-0.73819 0.33933-1.4109t1.018-1.1668l0.26194 0.35719h-6e-3z"/>
<path d="m50.095 209.66q0.1012-0.23812 0.27384-0.54769 0.17859-0.30956 0.39886-0.63698 0.22027-0.33338 0.4703-0.64889 0.25003-0.32147 0.50602-0.57745h0.47625v2.3396h0.43458v0.40482h-0.43458v0.94059h-0.47625v-0.94059h-1.649zm1.649-1.8276q-0.16073 0.17264-0.32742 0.381-0.16074 0.20836-0.31552 0.44053-0.15478 0.22622-0.2917 0.46435-0.13097 0.23812-0.23812 0.47029h1.1728z"/>
<path d="m53.542 211.57q0.55364-0.42862 0.84534-0.98822 0.29766-0.55959 0.29766-1.2204 0-0.33337-0.07144-0.63103-0.06548-0.29765-0.20836-0.5715-0.14288-0.27384-0.36314-0.52982-0.21431-0.25599-0.51197-0.51197l0.26789-0.35719q0.68461 0.50601 1.018 1.1787 0.33933 0.66675 0.33933 1.4109 0 0.36909-0.0893 0.72628-0.08334 0.35719-0.25598 0.69056-0.16669 0.32742-0.42267 0.61913-0.25003 0.29765-0.58936 0.54173l-0.26194-0.35719h6e-3z"/>
<path d="m59.084 209.16h1.0001v-1.0954h0.42862v1.0954h1.0061v0.41672h-1.0061v1.1013h-0.42862v-1.1013h-1.0001z"/>
<path d="m67.264 208.19q0 0.1905-0.07739 0.36909-0.07144 0.1786-0.19645 0.35124-0.11906 0.17264-0.27384 0.33932-0.15478 0.16669-0.31552 0.32743-0.0893 0.0893-0.20836 0.21431-0.11906 0.12501-0.22622 0.25598t-0.17859 0.25599q-0.07144 0.12501-0.07144 0.21431h1.6966v0.41672h-2.2324q-6e-3 -0.0298-6e-3 -0.0595 0-0.0357 0-0.0655 0-0.25003 0.08334-0.46434t0.21431-0.40481q0.13097-0.1905 0.2917-0.35719 0.16669-0.17264 0.32742-0.33338 0.13097-0.13096 0.25003-0.25598 0.12502-0.12502 0.21431-0.25003 0.09525-0.12502 0.14883-0.25598 0.05953-0.13693 0.05953-0.2798 0-0.16074-0.05358-0.27385-0.04762-0.1131-0.13692-0.18454-0.08334-0.0774-0.19645-0.11311-0.11311-0.0357-0.24408-0.0357-0.15478 0-0.28575 0.0417-0.12502 0.0417-0.22622 0.1012-0.09525 0.0595-0.16669 0.11907-0.07144 0.0536-0.10716 0.0893l-0.24408-0.34528q0.04762-0.0536 0.14288-0.13097 0.09525-0.0774 0.22622-0.14287 0.13692-0.0714 0.30361-0.11906 0.16669-0.0476 0.35719-0.0476 0.57745 0 0.8513 0.26789 0.2798 0.26194 0.2798 0.75605z"/>
<path d="m68.425 211.57q0.55364-0.42862 0.84534-0.98822 0.29766-0.55959 0.29766-1.2204 0-0.33337-0.07144-0.63103-0.06548-0.29765-0.20836-0.5715-0.14288-0.27384-0.36314-0.52982-0.21431-0.25599-0.51197-0.51197l0.26789-0.35719q0.68461 0.50601 1.018 1.1787 0.33933 0.66675 0.33933 1.4109 0 0.36909-0.0893 0.72628-0.08334 0.35719-0.25598 0.69056-0.16669 0.32742-0.42267 0.61913-0.25003 0.29765-0.58936 0.54173l-0.26194-0.35719h6e-3z"/>
<path d="m72.646 210.55q0 0.17859-0.11906 0.31551-0.11906 0.13693-0.31552 0.13693-0.20241 0-0.32147-0.13693-0.11906-0.13692-0.11906-0.31551 0-0.18455 0.11906-0.32147 0.11906-0.13692 0.32147-0.13692 0.19645 0 0.31552 0.13692 0.11906 0.13692 0.11906 0.32147z"/>
<path d="m75.14 208.17h1.1668v0.41077h-1.1668v1.2859q0 0.20836 0.02976 0.33933 0.02977 0.13097 0.09525 0.21431 0.07144 0.0774 0.17859 0.10716 0.10716 0.0298 0.26194 0.0298 0.21431 0 0.34528-0.0357t0.25003-0.0953l0.07144 0.41672q-0.08334 0.0357-0.26789 0.0953-0.17859 0.0595-0.44648 0.0595-0.30956 0-0.50602-0.0714t-0.30956-0.21432q-0.10716-0.14287-0.14883-0.35123-0.04167-0.21431-0.04167-0.49411v-1.2859h-0.58341v-0.41077h0.58341v-0.77391l0.48816-0.0833v0.85725z"/>
<path d="m77.914 207.74q-0.15478 0-0.26789-0.10715-0.11311-0.10716-0.11311-0.2917 0-0.18455 0.11311-0.29171 0.11311-0.10715 0.26789-0.10715 0.16073 0 0.26789 0.10715 0.11311 0.10716 0.11311 0.29171 0 0.18454-0.11311 0.2917-0.10716 0.10715-0.26789 0.10715zm-0.12502 0.8394h-0.79772v-0.41077h1.2859v1.6966q0 0.41077 0.11311 0.55364 0.11311 0.13692 0.33933 0.13692 0.17264 0 0.31552-0.0417 0.14883-0.0417 0.23217-0.0893l0.07144 0.41672q-0.03572 0.0179-0.1012 0.0476-0.06548 0.0238-0.15478 0.0476-0.08334 0.0238-0.1905 0.0417-0.1012 0.0179-0.21431 0.0179-0.26194 0-0.43458-0.0714-0.17264-0.0714-0.2798-0.21432-0.1012-0.14287-0.14288-0.35123-0.04167-0.21431-0.04167-0.49411v-1.2859z"/>
<path d="m79.891 208.25q0.35719-0.13692 0.6727-0.13692 0.17264 0 0.32147 0.0536 0.15478 0.0476 0.26194 0.15478 0.25598-0.20836 0.54769-0.20836 0.14288 0 0.26789 0.0536 0.13097 0.0536 0.22622 0.16073 0.1012 0.10716 0.16073 0.26789 0.05953 0.16074 0.05953 0.37505v1.9645h-0.44648v-1.9764q0-0.21431-0.09525-0.32742t-0.23812-0.11311q-0.07144 0-0.14883 0.0357-0.07739 0.0357-0.14288 0.11311 0.03572 0.13692 0.03572 0.30361v0.89892h-0.44648v-0.90488q0-0.20835-0.06548-0.32742-0.06548-0.11906-0.25598-0.11906-0.11906 0-0.26789 0.0536v2.3634h-0.44648v-2.6849z"/>
<path d="m84.165 208.11q0.55959 0 0.8632 0.35123 0.30361 0.34528 0.30361 1.0537v0.17264h-1.9764q0.02977 0.42863 0.2798 0.65485 0.25598 0.22026 0.71438 0.22026 0.26194 0 0.44648-0.0417 0.18455-0.0417 0.2798-0.0893l0.06549 0.41672q-0.0893 0.0476-0.32147 0.10121-0.23217 0.0536-0.52388 0.0536-0.35719 0-0.63103-0.10715-0.26789-0.11311-0.44648-0.30361-0.17859-0.1905-0.26789-0.45244-0.0893-0.26789-0.0893-0.57745 0-0.3691 0.11311-0.64294 0.11311-0.27384 0.29766-0.45244 0.18455-0.17859 0.41672-0.26789t0.47625-0.0893zm0.66675 1.1787q0-0.35123-0.18455-0.55364-0.18455-0.20836-0.48816-0.20836-0.17264 0-0.31552 0.0655-0.13692 0.0655-0.23812 0.17264-0.1012 0.10715-0.16074 0.24408-0.05953 0.13692-0.07739 0.27979h1.4645z"/>
<path d="m87.689 210.24q0-0.14883-0.12502-0.24408-0.11906-0.0952-0.30361-0.16669-0.17859-0.0714-0.39291-0.13692-0.21431-0.0714-0.39886-0.17264-0.17859-0.1012-0.30361-0.25003-0.11906-0.14883-0.11906-0.38696 0-0.33337 0.26789-0.55364 0.27384-0.22621 0.8513-0.22621 0.22622 0 0.46434 0.0357 0.24408 0.0298 0.41672 0.0834l-0.0893 0.44053q-0.04762-0.0238-0.13097-0.0476-0.08334-0.0298-0.1905-0.0476-0.10716-0.0238-0.23217-0.0357-0.11906-0.0119-0.23217-0.0119-0.64294 0-0.64294 0.35124 0 0.12501 0.11906 0.21431 0.12502 0.0833 0.30956 0.15478 0.18455 0.0714 0.39886 0.14883 0.21431 0.0714 0.39886 0.17859 0.18455 0.10716 0.30361 0.26194 0.12502 0.14883 0.12502 0.381 0 0.37505-0.2917 0.58341-0.2917 0.2024-0.92274 0.2024-0.28575 0-0.52388-0.0476t-0.45244-0.14288l0.09525-0.44648q0.20836 0.0952 0.43458 0.16073 0.23217 0.0595 0.49411 0.0595 0.6727 0 0.6727-0.33932z"/>
<path d="m92.023 209.15h0.23812q0.1012 0 0.17859-0.0417 0.07739-0.0476 0.12502-0.11906 0.05358-0.0774 0.07739-0.16669 0.02977-0.0953 0.02977-0.1905v-0.95845q0-0.22027 0.04167-0.38695 0.04763-0.16669 0.15478-0.2798 0.10716-0.11906 0.28575-0.17859 0.18455-0.0595 0.45839-0.0595h0.4822v0.38695h-0.50602q-0.25003 0-0.35719 0.11311-0.1012 0.11311-0.1012 0.41076v0.82153q0 0.39886-0.11906 0.58936-0.11906 0.18455-0.27384 0.25003 0.15478 0.0714 0.27384 0.2679 0.11906 0.19645 0.11906 0.5715v0.82153q0 0.29765 0.10716 0.41076t0.35719 0.11311h0.50006v0.38695h-0.4822q-0.27384 0-0.45839-0.0595-0.17859-0.0595-0.28575-0.17859-0.10716-0.11311-0.15478-0.2798-0.04167-0.16668-0.04167-0.38695v-0.95845q0-0.0893-0.02977-0.1786-0.02381-0.0952-0.07739-0.16668-0.04762-0.0774-0.12502-0.12502-0.07144-0.0476-0.17264-0.0476h-0.24408v-0.381z"/>
<path d="m45.446 218.02q0.18455 0 0.32742-0.0119 0.14883-0.0119 0.24408-0.0298v-0.82153q-0.09525-0.0298-0.23217-0.0476-0.13097-0.0179-0.2798-0.0179-0.13692 0-0.26789 0.0238-0.13097 0.0179-0.23217 0.0714-0.1012 0.0536-0.16669 0.14288-0.06548 0.0833-0.06548 0.21431 0 0.26789 0.17859 0.37505 0.18455 0.1012 0.49411 0.1012zm-0.04762-2.4765q0.30956 0 0.51792 0.0774 0.21431 0.0774 0.34528 0.21431 0.13097 0.13693 0.18455 0.33338 0.05358 0.19645 0.05358 0.42862v1.7264q-0.17264 0.0298-0.45839 0.0714-0.2798 0.0417-0.57745 0.0417-0.22622 0-0.44053-0.0417-0.21431-0.0357-0.381-0.13097-0.16669-0.1012-0.26789-0.27384-0.1012-0.17265-0.1012-0.44054 0-0.23812 0.1012-0.39886 0.10716-0.16668 0.26789-0.26789 0.16669-0.1012 0.37505-0.14287 0.21431-0.0476 0.42862-0.0476 0.2917 0 0.5715 0.0655v-0.13692q0-0.12502-0.02976-0.23813-0.02381-0.11906-0.1012-0.21431-0.07144-0.0953-0.20241-0.14883-0.12502-0.0595-0.32742-0.0595-0.25598 0-0.44648 0.0357t-0.2917 0.0714l-0.05953-0.40482q0.1012-0.0476 0.33338-0.0833 0.23812-0.0357 0.50602-0.0357z"/>
<path d="m50.155 217.17h2.4348v0.42267h-2.4348zm0-1.1311h2.4348v0.42267h-2.4348z"/>
<path d="m56.471 218.38v-2.6134q0.60722-0.20836 1.2263-0.20836 0.1905 0 0.36314 0.0179 0.17264 0.0119 0.381 0.0595l-0.0893 0.43457q-0.1905-0.0536-0.33933-0.0655-0.14288-0.0179-0.31552-0.0179-0.36314 0-0.73819 0.1012v2.292h-0.48816z"/>
<path d="m60.329 218.02q0.18455 0 0.32742-0.0119 0.14883-0.0119 0.24408-0.0298v-0.82153q-0.09525-0.0298-0.23217-0.0476-0.13097-0.0179-0.2798-0.0179-0.13692 0-0.26789 0.0238-0.13097 0.0179-0.23217 0.0714-0.1012 0.0536-0.16669 0.14288-0.06548 0.0833-0.06548 0.21431 0 0.26789 0.17859 0.37505 0.18455 0.1012 0.49411 0.1012zm-0.04763-2.4765q0.30956 0 0.51792 0.0774 0.21431 0.0774 0.34528 0.21431 0.13097 0.13693 0.18455 0.33338 0.05358 0.19645 0.05358 0.42862v1.7264q-0.17264 0.0298-0.45839 0.0714-0.2798 0.0417-0.57745 0.0417-0.22622 0-0.44053-0.0417-0.21431-0.0357-0.381-0.13097-0.16669-0.1012-0.26789-0.27384-0.1012-0.17265-0.1012-0.44054 0-0.23812 0.1012-0.39886 0.10716-0.16668 0.26789-0.26789 0.16669-0.1012 0.37505-0.14287 0.21431-0.0476 0.42862-0.0476 0.2917 0 0.5715 0.0655v-0.13692q0-0.12502-0.02977-0.23813-0.02381-0.11906-0.1012-0.21431-0.07144-0.0953-0.20241-0.14883-0.12502-0.0595-0.32742-0.0595-0.25598 0-0.44648 0.0357-0.1905 0.0357-0.2917 0.0714l-0.05953-0.40482q0.1012-0.0476 0.33338-0.0833 0.23812-0.0357 0.50602-0.0357z"/>
<path d="m62.21 215.69q0.26789-0.0655 0.52983-0.10121 0.26789-0.0357 0.50006-0.0357 0.55364 0 0.83344 0.28575 0.28575 0.28575 0.28575 0.91679v1.6192h-0.48816v-1.53q0-0.26789-0.04762-0.43458-0.04763-0.16668-0.13692-0.25598-0.08334-0.0952-0.20836-0.13097-0.11906-0.0357-0.26194-0.0357-0.11906 0-0.25598 0.0179-0.13097 0.0119-0.25598 0.0357v2.3336h-0.49411v-2.6849z"/>
<path d="m66.823 216.2q-0.08334-0.0774-0.24408-0.14287-0.16073-0.0714-0.33338-0.0714-0.19645 0-0.33933 0.0774-0.13692 0.0774-0.22622 0.21431-0.0893 0.13097-0.13097 0.32147-0.04167 0.18455-0.04167 0.39886 0 0.4822 0.22622 0.74414 0.22622 0.26194 0.58936 0.26194 0.18455 0 0.30956-0.0179 0.13097-0.0179 0.1905-0.0357v-1.7502zm0-1.8633 0.49411-0.0833v4.0481q-0.16073 0.0476-0.41076 0.0952t-0.58341 0.0476q-0.29766 0-0.54174-0.1012-0.24408-0.10121-0.41672-0.28575-0.17264-0.1905-0.26789-0.45839t-0.09525-0.60127q0-0.32147 0.07739-0.58341 0.08334-0.26789 0.23812-0.45839 0.15478-0.1905 0.36909-0.29765 0.22027-0.10716 0.50006-0.10716 0.22026 0 0.38695 0.0536 0.16669 0.0536 0.25003 0.11311v-1.3811z"/>
<path d="m70.026 214.56q-0.55364 0.42863-0.84534 0.98822t-0.2917 1.2204q0 0.33338 0.06548 0.63103 0.07144 0.29766 0.20836 0.5715 0.14288 0.27385 0.35719 0.52983 0.22026 0.25599 0.51792 0.51197l-0.26789 0.35719q-0.68461-0.50602-1.0239-1.1728-0.33338-0.6727-0.33338-1.4168 0-0.73819 0.33933-1.4109 0.33933-0.67271 1.018-1.1668l0.26194 0.35718h-6e-3z"/>
<path d="m71.979 218.02q0.4703 0 0.66675-0.18455 0.20241-0.1905 0.20241-0.50601 0-0.20241-0.08334-0.33933t-0.22027-0.22027q-0.13692-0.0833-0.31552-0.11906-0.17859-0.0357-0.37505-0.0357h-0.12502v-0.39886h0.17264q0.13097 0 0.26789-0.0238 0.14288-0.0298 0.25598-0.0952 0.11906-0.0714 0.1905-0.1905 0.07144-0.11906 0.07144-0.30361 0-0.30361-0.1905-0.42863-0.18455-0.13096-0.43458-0.13096-0.25598 0-0.43458 0.0774-0.17859 0.0714-0.29766 0.14882l-0.1905-0.37504q0.12502-0.0893 0.37505-0.18455 0.25598-0.1012 0.56555-0.1012 0.2917 0 0.50006 0.0714t0.33933 0.2024q0.13692 0.13097 0.20241 0.30956 0.06549 0.17264 0.06549 0.381 0 0.29171-0.15478 0.49411-0.14883 0.20241-0.38695 0.30957 0.28575 0.0833 0.49411 0.32742 0.20836 0.23812 0.20836 0.63698 0 0.23813-0.08334 0.44649-0.07739 0.2024-0.24408 0.35123-0.16073 0.14883-0.42267 0.23217-0.25598 0.0833-0.61317 0.0833-0.13692 0-0.28575-0.0238-0.14288-0.0179-0.26789-0.0536-0.12502-0.0298-0.22622-0.0595-0.09525-0.0357-0.13692-0.0536l0.09525-0.42268q0.09525 0.0476 0.30361 0.11311 0.20836 0.0655 0.51197 0.0655z"/>
<path d="m75.527 216.46q0 0.15478-0.09525 0.26789-0.0893 0.11311-0.23812 0.11311-0.15478 0-0.25003-0.11311t-0.09525-0.26789 0.09525-0.27384 0.25003-0.11906q0.14883 0 0.23812 0.11906 0.09525 0.11906 0.09525 0.27384zm-1.5597 0.0655q0-0.92869 0.31552-1.4228 0.32147-0.50006 0.89892-0.50006 0.58341 0 0.89892 0.50006 0.31552 0.49411 0.31552 1.4228 0 0.92868-0.31552 1.4288-0.31552 0.49411-0.89892 0.49411-0.57745 0-0.89892-0.49411-0.31552-0.50007-0.31552-1.4288zm1.9288 0q0-0.30361-0.03572-0.5715-0.03572-0.27385-0.11906-0.47625-0.08334-0.20241-0.22026-0.32147-0.13692-0.11906-0.33933-0.11906-0.20241 0-0.33933 0.11906-0.13692 0.11906-0.22027 0.32147-0.08334 0.2024-0.11906 0.47625-0.03572 0.26789-0.03572 0.5715t0.03572 0.57745q0.03572 0.26789 0.11906 0.4703 0.08334 0.2024 0.22027 0.32147 0.13692 0.11906 0.33933 0.11906 0.20241 0 0.33933-0.11906 0.13692-0.11907 0.22026-0.32147 0.08334-0.20241 0.11906-0.4703 0.03572-0.27384 0.03572-0.57745z"/>
<path d="m78.503 216.46q0 0.15478-0.09525 0.26789-0.0893 0.11311-0.23812 0.11311-0.15478 0-0.25003-0.11311t-0.09525-0.26789 0.09525-0.27384 0.25003-0.11906q0.14883 0 0.23812 0.11906 0.09525 0.11906 0.09525 0.27384zm-1.5597 0.0655q0-0.92869 0.31552-1.4228 0.32147-0.50006 0.89892-0.50006 0.58341 0 0.89892 0.50006 0.31552 0.49411 0.31552 1.4228 0 0.92868-0.31552 1.4288-0.31552 0.49411-0.89892 0.49411-0.57745 0-0.89892-0.49411-0.31552-0.50007-0.31552-1.4288zm1.9288 0q0-0.30361-0.03572-0.5715-0.03572-0.27385-0.11906-0.47625-0.08334-0.20241-0.22027-0.32147-0.13692-0.11906-0.33933-0.11906t-0.33933 0.11906-0.22027 0.32147q-0.08334 0.2024-0.11906 0.47625-0.03572 0.26789-0.03572 0.5715t0.03572 0.57745q0.03572 0.26789 0.11906 0.4703 0.08334 0.2024 0.22027 0.32147 0.13692 0.11906 0.33933 0.11906t0.33933-0.11906q0.13692-0.11907 0.22027-0.32147 0.08334-0.20241 0.11906-0.4703 0.03572-0.27384 0.03572-0.57745z"/>
<path d="m80.331 219.01q0.55364-0.42863 0.84534-0.98822 0.29766-0.55959 0.29766-1.2204 0-0.33337-0.07144-0.63103-0.06548-0.29766-0.20836-0.5715-0.14288-0.27384-0.36314-0.52983-0.21431-0.25598-0.51197-0.51197l0.26789-0.35718q0.68461 0.50601 1.018 1.1787 0.33933 0.66675 0.33933 1.4109 0 0.3691-0.0893 0.72629-0.08334 0.35718-0.25598 0.69056-0.16669 0.32742-0.42267 0.61912-0.25003 0.29766-0.58936 0.54174l-0.26194-0.35719h6e-3z"/>
<path d="m46.16 224.44q0-0.4822-0.22622-0.74414-0.22622-0.26789-0.58936-0.26789-0.20241 0-0.32147 0.0179-0.11311 0.0179-0.17859 0.0417v1.7443q0.08334 0.0774 0.24408 0.14287 0.16073 0.0655 0.33338 0.0655 0.19645 0 0.33338-0.0774 0.14288-0.0774 0.23217-0.20836 0.0893-0.13692 0.13097-0.31551 0.04167-0.18455 0.04167-0.39886zm0.50602 0q0 0.31552-0.08334 0.58341-0.07739 0.26193-0.23217 0.45243-0.14883 0.1905-0.36909 0.29766-0.22026 0.10716-0.50006 0.10716-0.22027 0-0.38695-0.0536-0.16669-0.0536-0.25003-0.11906v1.0894h-0.49411v-3.6612q0.16074-0.0476 0.41077-0.0952 0.25598-0.0476 0.58341-0.0476 0.29766 0 0.54173 0.1012 0.24408 0.10121 0.41672 0.29171 0.17264 0.18454 0.26789 0.45243t0.09525 0.60127z"/>
<path d="m47.541 225.82v-2.6134q0.60722-0.20836 1.2263-0.20836 0.1905 0 0.36314 0.0179 0.17264 0.0119 0.381 0.0595l-0.0893 0.43458q-0.1905-0.0536-0.33933-0.0655-0.14287-0.0179-0.31552-0.0179-0.36314 0-0.73819 0.1012v2.292h-0.48816z"/>
<path d="m51.125 222.63q-0.15478 0-0.26789-0.10716t-0.11311-0.2917q0-0.18455 0.11311-0.29171 0.11311-0.10715 0.26789-0.10715 0.16074 0 0.26789 0.10715 0.11311 0.10716 0.11311 0.29171 0 0.18454-0.11311 0.2917-0.10716 0.10716-0.26789 0.10716zm-0.12502 0.83939h-0.79772v-0.41077h1.2859v1.6966q0 0.41077 0.11311 0.55364 0.11311 0.13692 0.33933 0.13692 0.17264 0 0.31552-0.0417 0.14883-0.0417 0.23217-0.0893l0.07144 0.41671q-0.03572 0.0179-0.1012 0.0476-0.06548 0.0238-0.15478 0.0476-0.08334 0.0238-0.1905 0.0417-0.1012 0.0179-0.21431 0.0179-0.26194 0-0.43458-0.0714-0.17264-0.0714-0.2798-0.21431-0.1012-0.14288-0.14288-0.35124-0.04167-0.21431-0.04167-0.49411v-1.2859z"/>
<path d="m53.28 223.13q0.26789-0.0655 0.52983-0.1012 0.26789-0.0357 0.50006-0.0357 0.55364 0 0.83344 0.28575 0.28575 0.28575 0.28575 0.91678v1.6192h-0.48816v-1.53q0-0.26789-0.04763-0.43458-0.04762-0.16669-0.13692-0.25598-0.08334-0.0953-0.20836-0.13097-0.11906-0.0357-0.26194-0.0357-0.11906 0-0.25598 0.0179-0.13097 0.0119-0.25598 0.0357v2.3336h-0.49411v-2.6849z"/>
<path d="m57.281 223.05h1.1668v0.41077h-1.1668v1.2859q0 0.20836 0.02977 0.33933t0.09525 0.21431q0.07144 0.0774 0.17859 0.10716 0.10716 0.0298 0.26194 0.0298 0.21431 0 0.34528-0.0357t0.25003-0.0952l0.07144 0.41671q-0.08334 0.0357-0.26789 0.0952-0.17859 0.0595-0.44648 0.0595-0.30956 0-0.50602-0.0714t-0.30956-0.21431q-0.10716-0.14288-0.14883-0.35124-0.04167-0.21431-0.04167-0.49411v-1.2859h-0.58341v-0.41077h0.58341v-0.7739l0.48816-0.0834v0.85725z"/>
<path d="m63.305 225.47q0.18455 0 0.32742-0.0119 0.14883-0.0119 0.24408-0.0298v-0.82154q-0.09525-0.0298-0.23217-0.0476-0.13097-0.0179-0.2798-0.0179-0.13692 0-0.26789 0.0238-0.13097 0.0179-0.23217 0.0714-0.1012 0.0536-0.16669 0.14287-0.06548 0.0833-0.06548 0.21432 0 0.26789 0.17859 0.37504 0.18455 0.10121 0.49411 0.10121zm-0.04763-2.4765q0.30956 0 0.51792 0.0774 0.21431 0.0774 0.34528 0.21431 0.13097 0.13692 0.18455 0.33338 0.05358 0.19645 0.05358 0.42862v1.7264q-0.17264 0.0298-0.45839 0.0714-0.2798 0.0417-0.57745 0.0417-0.22622 0-0.44053-0.0417-0.21431-0.0357-0.381-0.13096-0.16669-0.10121-0.26789-0.27385t-0.1012-0.44053q0-0.23812 0.1012-0.39886 0.10716-0.16669 0.26789-0.26789 0.16669-0.1012 0.37505-0.14287 0.21431-0.0476 0.42862-0.0476 0.2917 0 0.5715 0.0655v-0.13692q0-0.12501-0.02977-0.23812-0.02381-0.11906-0.1012-0.21431-0.07144-0.0952-0.20241-0.14883-0.12502-0.0595-0.32742-0.0595-0.25598 0-0.44648 0.0357t-0.2917 0.0714l-0.05953-0.40481q0.1012-0.0476 0.33338-0.0833 0.23812-0.0357 0.50602-0.0357z"/>
<path d="m65.651 226.29q0.10716-0.0238 0.20836-0.0476 0.10716-0.0238 0.19645-0.0714 0.0893-0.0417 0.16073-0.11311 0.07144-0.0655 0.11311-0.18455-0.1905-0.0179-0.2798-0.14288-0.08334-0.13096-0.08334-0.25598 0-0.23812 0.13097-0.35719 0.13692-0.12501 0.30956-0.12501 0.22027 0 0.33338 0.16073 0.11311 0.15478 0.11311 0.381 0 0.17264-0.07144 0.35719-0.06548 0.1905-0.20836 0.35123-0.13692 0.16669-0.34528 0.2798-0.20836 0.11906-0.49411 0.15478l-0.08334-0.38695z"/>
<path d="m68.967 221.77v0.26789q0 0.26194-0.02976 0.60127-0.02977 0.33337-0.07739 0.61317h-0.25003q-0.04167-0.2798-0.07144-0.61317-0.02976-0.33933-0.02976-0.60722v-0.26194h0.45839zm0.98227 0v0.26789q0 0.26194-0.02977 0.60127-0.02976 0.33337-0.07144 0.61317h-0.25003q-0.04762-0.2798-0.07739-0.61317-0.02977-0.33933-0.02977-0.60722v-0.26194h0.45839z"/>
<path d="m72.425 222.13 1.0299 1.8098-0.39291 0.2024-0.85725-1.5002-0.85725 1.5002-0.39291-0.2024 1.0299-1.8098z"/>
<path d="m76.194 223.07q0 0.1905-0.07739 0.3691-0.07144 0.17859-0.19645 0.35123-0.11906 0.17264-0.27384 0.33933-0.15478 0.16668-0.31552 0.32742-0.0893 0.0893-0.20836 0.21431-0.11906 0.12502-0.22622 0.25599-0.10716 0.13096-0.17859 0.25598-0.07144 0.12502-0.07144 0.21431h1.6966v0.41672h-2.2324q-6e-3 -0.0298-6e-3 -0.0595 0-0.0357 0-0.0655 0-0.25004 0.08334-0.46435t0.21431-0.40481q0.13097-0.1905 0.2917-0.35719 0.16669-0.17264 0.32742-0.33337 0.13097-0.13097 0.25003-0.25599 0.12502-0.12501 0.21431-0.25003 0.09525-0.12501 0.14883-0.25598 0.05953-0.13692 0.05953-0.2798 0-0.16073-0.05358-0.27384-0.04762-0.11311-0.13692-0.18455-0.08334-0.0774-0.19645-0.11311-0.11311-0.0357-0.24408-0.0357-0.15478 0-0.28575 0.0417-0.12502 0.0417-0.22622 0.10121-0.09525 0.0595-0.16669 0.11906-0.07144 0.0536-0.10716 0.0893l-0.24408-0.34528q0.04762-0.0536 0.14288-0.13097 0.09525-0.0774 0.22622-0.14288 0.13692-0.0714 0.30361-0.11906 0.16669-0.0476 0.35719-0.0476 0.57745 0 0.8513 0.26789 0.2798 0.26194 0.2798 0.75605z"/>
<path d="m79.92 224.61h2.4348v0.42267h-2.4348zm0-1.1311h2.4348v0.42268h-2.4348z"/>
<path d="m86.826 221.77v0.26789q0 0.26194-0.02976 0.60127-0.02977 0.33337-0.07739 0.61317h-0.25003q-0.04167-0.2798-0.07144-0.61317-0.02976-0.33933-0.02976-0.60722v-0.26194h0.45839zm0.98227 0v0.26789q0 0.26194-0.02977 0.60127-0.02976 0.33337-0.07144 0.61317h-0.25003q-0.04762-0.2798-0.07739-0.61317-0.02977-0.33933-0.02977-0.60722v-0.26194h0.45839z"/>
<path d="m89.463 226.29q0.10716-0.0238 0.20836-0.0476 0.10716-0.0238 0.19645-0.0714 0.0893-0.0417 0.16073-0.11311 0.07144-0.0655 0.11311-0.18455-0.1905-0.0179-0.2798-0.14288-0.08334-0.13096-0.08334-0.25598 0-0.23812 0.13097-0.35719 0.13692-0.12501 0.30956-0.12501 0.22027 0 0.33338 0.16073 0.11311 0.15478 0.11311 0.381 0 0.17264-0.07144 0.35719-0.06548 0.1905-0.20836 0.35123-0.13692 0.16669-0.34528 0.2798-0.20836 0.11906-0.49411 0.15478l-0.08334-0.38695z"/>
<path d="m96.619 225.13q0-0.14883-0.12502-0.24408-0.11906-0.0952-0.30361-0.16669-0.17859-0.0714-0.39291-0.13692-0.21431-0.0714-0.39886-0.17264-0.17859-0.1012-0.30361-0.25003-0.11906-0.14883-0.11906-0.38695 0-0.33338 0.26789-0.55364 0.27384-0.22622 0.8513-0.22622 0.22622 0 0.46434 0.0357 0.24408 0.0298 0.41672 0.0833l-0.0893 0.44053q-0.04762-0.0238-0.13097-0.0476-0.08334-0.0298-0.1905-0.0476-0.10716-0.0238-0.23217-0.0357-0.11906-0.0119-0.23217-0.0119-0.64294 0-0.64294 0.35123 0 0.12502 0.11906 0.21431 0.12502 0.0833 0.30956 0.15478 0.18455 0.0714 0.39886 0.14883 0.21431 0.0714 0.39886 0.1786 0.18455 0.10715 0.30361 0.26193 0.12502 0.14883 0.12502 0.381 0 0.37505-0.2917 0.58341-0.2917 0.20241-0.92273 0.20241-0.28575 0-0.52388-0.0476t-0.45244-0.14287l0.09525-0.44649q0.20836 0.0953 0.43458 0.16074 0.23217 0.0595 0.49411 0.0595 0.6727 0 0.6727-0.33933z"/>
<path d="m98.25 224.44q0 0.21431 0.04167 0.39886 0.04762 0.17859 0.13692 0.31551 0.0893 0.13097 0.22622 0.20836 0.14288 0.0774 0.33933 0.0774 0.17264 0 0.33338-0.0655 0.16073-0.0655 0.24408-0.14287v-1.7443q-0.06548-0.0238-0.18455-0.0417-0.11311-0.0179-0.31552-0.0179-0.36314 0-0.59531 0.26789-0.22622 0.26194-0.22622 0.74414zm-0.50602 0q0-0.33338 0.09525-0.60127t0.26789-0.45243q0.17264-0.1905 0.41672-0.29171 0.25003-0.1012 0.54769-0.1012 0.32147 0 0.56555 0.0536 0.25003 0.0476 0.42267 0.0952v3.6552h-0.49411v-1.0894q-0.0893 0.0595-0.25598 0.1131-0.16669 0.0595-0.37505 0.0595-0.2798 0-0.50006-0.10716-0.22026-0.10716-0.37505-0.29766-0.14883-0.1905-0.23217-0.45243-0.08334-0.26789-0.08334-0.58341z"/>
<path d="m101.12 225.82v-2.6134q0.60722-0.20836 1.2263-0.20836 0.1905 0 0.36314 0.0179 0.17264 0.0119 0.381 0.0595l-0.0893 0.43458q-0.1905-0.0536-0.33933-0.0655-0.14288-0.0179-0.31552-0.0179-0.36314 0-0.73819 0.1012v2.292h-0.48815z"/>
<path d="m105.74 222q-0.55364 0.42862-0.84535 0.98822-0.2917 0.55959-0.2917 1.2204 0 0.33337 0.0655 0.63103 0.0714 0.29766 0.20836 0.5715 0.14288 0.27384 0.35719 0.52983 0.22027 0.25598 0.51792 0.51197l-0.26789 0.35718q-0.68461-0.50601-1.0239-1.1728-0.33337-0.67271-0.33337-1.4168 0-0.73818 0.33933-1.4109 0.33933-0.6727 1.018-1.1668l0.26194 0.35719h-6e-3z"/>
<path d="m107.95 225.47q0.18454 0 0.32742-0.0119 0.14883-0.0119 0.24408-0.0298v-0.82154q-0.0953-0.0298-0.23218-0.0476-0.13096-0.0179-0.27979-0.0179-0.13692 0-0.26789 0.0238-0.13097 0.0179-0.23218 0.0714-0.1012 0.0536-0.16668 0.14287-0.0655 0.0833-0.0655 0.21432 0 0.26789 0.1786 0.37504 0.18454 0.10121 0.49411 0.10121zm-0.0476-2.4765q0.30956 0 0.51792 0.0774 0.21432 0.0774 0.34528 0.21431 0.13097 0.13692 0.18455 0.33338 0.0536 0.19645 0.0536 0.42862v1.7264q-0.17264 0.0298-0.45839 0.0714-0.2798 0.0417-0.57745 0.0417-0.22622 0-0.44054-0.0417-0.21431-0.0357-0.381-0.13096-0.16668-0.10121-0.26789-0.27385-0.1012-0.17264-0.1012-0.44053 0-0.23812 0.1012-0.39886 0.10716-0.16669 0.26789-0.26789 0.16669-0.1012 0.37505-0.14287 0.21431-0.0476 0.42863-0.0476 0.2917 0 0.5715 0.0655v-0.13692q0-0.12501-0.0298-0.23812-0.0238-0.11906-0.1012-0.21431-0.0714-0.0952-0.20241-0.14883-0.12501-0.0595-0.32742-0.0595-0.25599 0-0.44649 0.0357t-0.2917 0.0714l-0.0595-0.40481q0.1012-0.0476 0.33338-0.0833 0.23812-0.0357 0.50601-0.0357z"/>
<path d="m110.1 226.45q0.55364-0.42863 0.84534-0.98822 0.29766-0.5596 0.29766-1.2204 0-0.33338-0.0714-0.63103-0.0655-0.29766-0.20836-0.5715-0.14287-0.27385-0.36314-0.52983-0.21431-0.25599-0.51197-0.51197l0.2679-0.35719q0.6846 0.50602 1.018 1.1787 0.33933 0.66675 0.33933 1.4109 0 0.36909-0.0893 0.72628-0.0833 0.35719-0.25598 0.69056-0.16669 0.32743-0.42268 0.61913-0.25003 0.29766-0.58935 0.54173l-0.26194-0.35718h6e-3z"/>
<path d="m34.528 231.86h-0.23812q-0.1012 0-0.17859 0.0476-0.07144 0.0417-0.12502 0.11906-0.04763 0.0714-0.07739 0.16669-0.02381 0.0893-0.02381 0.18455v0.95845q0 0.22026-0.04762 0.38695-0.04167 0.16669-0.15478 0.2798-0.10716 0.11906-0.2917 0.17859-0.17859 0.0595-0.45244 0.0595h-0.4822v-0.38695h0.50602q0.25003 0 0.35123-0.11311 0.10716-0.11311 0.10716-0.41076v-0.82154q0-0.39886 0.11906-0.5834 0.11906-0.1905 0.27384-0.25599-0.15478-0.0714-0.27384-0.26789-0.11906-0.19645-0.11906-0.5715v-0.82153q0-0.29765-0.10716-0.41076-0.10716-0.11311-0.35719-0.11311h-0.50006v-0.38696h0.4822q0.27384 0 0.45244 0.0595 0.18455 0.0595 0.2917 0.17859 0.11311 0.11311 0.15478 0.2798 0.04762 0.16668 0.04762 0.38695v0.95845q0 0.0893 0.02381 0.18455 0.02381 0.0893 0.07144 0.16669 0.05358 0.0714 0.12502 0.11906 0.07739 0.0476 0.17859 0.0476h0.24408v0.381z"/>
<path d="m34.254 239.32q0-0.4822-0.22622-0.74414-0.22622-0.26789-0.58936-0.26789-0.20241 0-0.32147 0.0179-0.11311 0.0179-0.17859 0.0417v1.7443q0.08334 0.0774 0.24408 0.14287 0.16073 0.0655 0.33338 0.0655 0.19645 0 0.33338-0.0774 0.14288-0.0774 0.23217-0.20836 0.0893-0.13692 0.13097-0.31552 0.04167-0.18455 0.04167-0.39886zm0.50602 0q0 0.31552-0.08334 0.58341-0.07739 0.26194-0.23217 0.45244-0.14883 0.1905-0.36909 0.29765-0.22026 0.10716-0.50006 0.10716-0.22027 0-0.38695-0.0536-0.16669-0.0536-0.25003-0.11906v1.0894h-0.49411v-3.6612q0.16074-0.0476 0.41077-0.0953 0.25598-0.0476 0.58341-0.0476 0.29766 0 0.54173 0.10121 0.24408 0.1012 0.41672 0.2917 0.17264 0.18455 0.26789 0.45244t0.09525 0.60126z"/>
<path d="m35.635 240.7v-2.6134q0.60722-0.20836 1.2263-0.20836 0.1905 0 0.36314 0.0179 0.17264 0.0119 0.381 0.0595l-0.0893 0.43458q-0.1905-0.0536-0.33933-0.0655-0.14288-0.0179-0.31552-0.0179-0.36314 0-0.73819 0.1012v2.292h-0.48816z"/>
<path d="m39.219 237.51q-0.15478 0-0.26789-0.10716-0.11311-0.10715-0.11311-0.2917t0.11311-0.2917q0.11311-0.10716 0.26789-0.10716 0.16073 0 0.26789 0.10716 0.11311 0.10715 0.11311 0.2917t-0.11311 0.2917q-0.10716 0.10716-0.26789 0.10716zm-0.12502 0.83939h-0.79772v-0.41077h1.2859v1.6966q0 0.41077 0.11311 0.55365 0.11311 0.13692 0.33933 0.13692 0.17264 0 0.31552-0.0417 0.14883-0.0417 0.23217-0.0893l0.07144 0.41672q-0.03572 0.0179-0.1012 0.0476-0.06549 0.0238-0.15478 0.0476-0.08334 0.0238-0.1905 0.0417-0.1012 0.0179-0.21431 0.0179-0.26194 0-0.43458-0.0714t-0.2798-0.21431q-0.1012-0.14288-0.14288-0.35124-0.04167-0.21431-0.04167-0.49411v-1.2859z"/>
<path d="m41.374 238.01q0.26789-0.0655 0.52983-0.10121 0.26789-0.0357 0.50006-0.0357 0.55364 0 0.83344 0.28575 0.28575 0.28575 0.28575 0.91678v1.6192h-0.48816v-1.53q0-0.26789-0.04763-0.43458-0.04762-0.16668-0.13692-0.25598-0.08334-0.0952-0.20836-0.13097-0.11906-0.0357-0.26194-0.0357-0.11906 0-0.25598 0.0179-0.13097 0.0119-0.25598 0.0357v2.3336h-0.49411v-2.6848z"/>
<path d="m45.374 237.94h1.1668v0.41077h-1.1668v1.2859q0 0.20836 0.02976 0.33933 0.02977 0.13097 0.09525 0.21432 0.07144 0.0774 0.17859 0.10715 0.10716 0.0298 0.26194 0.0298 0.21431 0 0.34528-0.0357 0.13097-0.0357 0.25003-0.0952l0.07144 0.41672q-0.08334 0.0357-0.26789 0.0952-0.17859 0.0595-0.44648 0.0595-0.30956 0-0.50602-0.0714t-0.30956-0.21431q-0.10716-0.14288-0.14883-0.35124-0.04167-0.21431-0.04167-0.49411v-1.2859h-0.58341v-0.41077h0.58341v-0.7739l0.48816-0.0833v0.85725z"/>
<path d="m51.107 236.66v0.26789q0 0.26194-0.02977 0.60127-0.02977 0.33337-0.07739 0.61317h-0.25003q-0.04167-0.2798-0.07144-0.61317-0.02976-0.33933-0.02976-0.60722v-0.26194h0.45839zm0.98227 0v0.26789q0 0.26194-0.02977 0.60127-0.02977 0.33337-0.07144 0.61317h-0.25003q-0.04763-0.2798-0.07739-0.61317-0.02977-0.33933-0.02977-0.60722v-0.26194h0.45839z"/>
<path d="m53.274 236.54h0.49411l1.649 5.1435h-0.50006z"/>
<path d="m56.257 238.01q0.26789-0.0655 0.52983-0.10121 0.26789-0.0357 0.50006-0.0357 0.55364 0 0.83344 0.28575 0.28575 0.28575 0.28575 0.91678v1.6192h-0.48816v-1.53q0-0.26789-0.04762-0.43458-0.04763-0.16668-0.13692-0.25598-0.08334-0.0952-0.20836-0.13097-0.11906-0.0357-0.26194-0.0357-0.11906 0-0.25598 0.0179-0.13097 0.0119-0.25598 0.0357v2.3336h-0.49411v-2.6848z"/>
<path d="m60.037 236.66v0.26789q0 0.26194-0.02977 0.60127-0.02977 0.33337-0.07739 0.61317h-0.25003q-0.04167-0.2798-0.07144-0.61317-0.02977-0.33933-0.02977-0.60722v-0.26194h0.45839zm0.98226 0v0.26789q0 0.26194-0.02976 0.60127-0.02977 0.33337-0.07144 0.61317h-0.25003q-0.04763-0.2798-0.07739-0.61317-0.02976-0.33933-0.02976-0.60722v-0.26194h0.45839z"/>
</g>
<path d="m19.751 265.48c0.01633 0.0263 0.56114 0.90462 0.72779 1.3989 0.45158 1.0123 0.25858 3.9724 0.25037 5.6588 0.02772-0.19401 4.6905-1.3958 7.111 0.80464-0.01547-0.0273-0.04888-0.0804-0.12512-0.18628-0.07235-0.10046-0.18275-0.24915-0.37164-0.44224-0.52811-0.60452-0.23093-0.0845-0.80541-0.682-0.49669-0.45047-1.5695-1.5205-2.868-2.798-1.2412-1.2212-2.6869-2.6295-3.919-3.7538z" opacity=".248"/>
<path d="m19.424 264.96c0.01548 0.0249 0.53209 0.85773 0.69011 1.3264 0.42821 0.95987 0.29224 3.218 0.28445 4.8171 0.42899-0.0223 5.1595-0.73701 7.3284 1.8241-0.02928-0.0506-0.10278-0.0927-0.14377-0.17312-0.50077-0.57318-1.1396-1.0337-1.7235-1.5822-0.47098-0.42712-1.4882-1.4417-2.7195-2.653-1.1769-1.1579-2.5478-2.4932-3.7162-3.5592z" fill="#fff" stroke="#808080" stroke-width=".3"/>
<g transform="matrix(.53602 0 0 .53727 -234.93 -13.785)" stroke-width="4.0845"></g>
<g transform="matrix(.53602 0 0 .53727 -234.93 -13.76)" stroke-width="4.0845"></g>
<g transform="matrix(.53602 0 0 .53727 -267.69 -57.383)" stroke-width="4.0845"></g>
<g transform="matrix(.53602 0 0 .53727 -267.69 -57.358)" stroke-width="4.0845"></g>
<g transform="matrix(.53602 0 0 .53727 -234.93 -13.785)" stroke-width="4.0845"></g>
<g transform="matrix(.53602 0 0 .53727 -234.93 -13.76)" stroke-width="4.0845"></g>
<g transform="matrix(.24641 0 0 .2479 .24302 223.32)" fill="#960017" stroke-width="4.046px">
<path d="m46.388 240.45-12.843 0.79814v3.12h2.9749c2.6847 0 3.12 0.50791 3.12 3.6279v20.244c0 2.9023-0.79814 3.4102-5.5144 3.4102h-0.29023v2.6121h19.373v-2.6121h-1.3786c-4.6437 0-5.4419-0.5079-5.4419-3.4102v-3.6279c0-5.4419 1.0158-10.956 2.8298-15.092 1.7414-4.0633 4.2084-6.3126 7.2558-6.6754-1.0158 1.1609-1.306 1.8865-1.306 3.2651 0 2.3219 1.6688 3.9907 3.9907 3.9907 2.6121 0 4.426-1.9591 4.426-4.934 0-3.4828-2.467-5.8046-6.3126-5.8046-4.5712 0-8.5619 3.7005-10.884 10.086z"/>
<path d="m77.251 220.79-12.48 0.79814v3.12h2.5395c2.6847 0 3.12 0.5079 3.12 3.6279v28.225c0 9.7228-0.36279 14.439-1.306 18.72h2.7572l3.5554-5.6595c2.9749 3.9181 6.3851 5.7321 10.884 5.7321 8.9247 0 15.6-7.7637 15.6-18.212s-6.0949-17.777-14.802-17.777c-4.426 0-7.1107 1.5237-9.8679 5.6595zm8.5619 22.275c5.4419 0 8.4893 5.2968 8.4893 14.802 0 9.1423-2.9749 14.367-8.2716 14.367-5.7321 0-9.1423-5.2968-9.1423-14.221 0-9.6502 3.12-14.947 8.9247-14.947z"/>
</g>
</g>
</svg>
