<svg width="128" height="128" version="1.1" viewBox="0 0 33.867 33.867" xmlns="http://www.w3.org/2000/svg" xmlns:osb="http://www.openswatchbook.org/uri/2009/osb" xmlns:xlink="http://www.w3.org/1999/xlink">
<defs>
<linearGradient id="linearGradient1503-8" x1="29.203" x2="4.5843" y1="263.52" y2="296.17" gradientTransform="matrix(1.001 0 0 1.001 -.017758 -.29086)" gradientUnits="userSpaceOnUse">
<stop stop-color="#d9d9d9" offset="0"/>
<stop stop-color="#fff" offset="1"/>
</linearGradient>
<radialGradient id="radialGradient2490" cx="23.335" cy="41.636" r="22.627" gradientTransform="matrix(.42147 0 0 .16278 40.353 280.78)" gradientUnits="userSpaceOnUse">
<stop offset="0"/>
<stop stop-opacity="0" offset="1"/>
</radialGradient>
<linearGradient id="linearGradient2479" x1="89.018" x2="89.018" y1="22.537" y2="27.546" gradientTransform="matrix(.7336 0 0 .73677 -18.886 269.47)" gradientUnits="userSpaceOnUse" xlink:href="#linearGradient3858"/>
<linearGradient id="linearGradient2477" x1="103.95" x2="89.424" y1="-7.6657" y2="-7.6657" gradientTransform="matrix(.33587 0 0 .3185 15.274 290.44)" gradientUnits="userSpaceOnUse" spreadMethod="reflect" xlink:href="#linearGradient2793"/>
<linearGradient id="linearGradient2473" x1="89.018" x2="89.018" y1="22.537" y2="27.546" gradientTransform="matrix(.7336 0 0 .73677 -18.886 265.05)" gradientUnits="userSpaceOnUse" xlink:href="#linearGradient3858"/>
<linearGradient id="linearGradient2471" x1="103.95" x2="89.424" y1="-7.6657" y2="-7.6657" gradientTransform="matrix(.33587 0 0 .3185 15.274 286.02)" gradientUnits="userSpaceOnUse" spreadMethod="reflect" xlink:href="#linearGradient2793"/>
<linearGradient id="linearGradient3858">
<stop stop-color="#a0a0a0" offset="0"/>
<stop stop-color="#4a4a4a" offset="1"/>
</linearGradient>
<linearGradient id="linearGradient2466" x1="89.018" x2="89.018" y1="22.537" y2="27.546" gradientTransform="matrix(.7336 0 0 .73677 -18.886 260.63)" gradientUnits="userSpaceOnUse" xlink:href="#linearGradient3858"/>
<linearGradient id="linearGradient2793">
<stop stop-color="#868688" offset="0"/>
<stop stop-color="#d9d9da" offset="1"/>
</linearGradient>
<linearGradient id="linearGradient2463" x1="103.95" x2="89.424" y1="-7.6657" y2="-7.6657" gradientTransform="matrix(.33587 0 0 .3185 15.274 281.59)" gradientUnits="userSpaceOnUse" spreadMethod="reflect" xlink:href="#linearGradient2793"/>
<linearGradient id="linearGradient2460" x1="109.96" x2="109.96" y1="-24.911" y2="-2.3758" gradientTransform="matrix(.33609 0 0 .32336 15.254 278.66)" gradientUnits="userSpaceOnUse">
<stop stop-color="#b3b3b3" offset="0"/>
<stop stop-color="#dadada" offset="1"/>
</linearGradient>
<linearGradient id="linearGradient2458" x1="102.31" x2="102.31" y1="-2.3925" y2="-24.582" gradientTransform="matrix(.33609 0 0 .32336 15.254 278.66)" gradientUnits="userSpaceOnUse" spreadMethod="reflect">
<stop stop-color="#a5a6a8" offset="0"/>
<stop stop-color="#e8e8e8" offset="1"/>
</linearGradient>
</defs>
<g transform="translate(0 -263.13)">
<path d="m4.5714 264.1v32.612h24.724v-18.3c-0.04716-0.8313-0.10165-1.5753-0.3125-2.3297-0.21448-0.76736-0.55247-1.4939-0.95641-2.1892-0.51687-0.8897-1.3904-1.4633-2.1667-2.1925-0.47098-0.42711-1.4882-1.4417-2.7195-2.653-1.2212-1.2014-2.6535-2.5969-3.8492-3.6811-0.35316-0.3187-0.86616-0.64943-1.3428-0.84044-0.37009-0.14831-0.80547-0.24063-1.2258-0.30267-0.43345-0.064-0.85093-0.0958-1.1644-0.12361z" opacity=".25"/>
<path d="m4.5714 263.57v32.612h24.724v-18.3c-0.04716-0.83129-0.10165-1.5753-0.3125-2.3297-0.21448-0.76736-0.55247-1.4939-0.95641-2.1892-0.51687-0.88969-1.3904-1.4633-2.1667-2.1925-0.47098-0.42712-1.4882-1.4417-2.7195-2.653-1.2212-1.2014-2.6535-2.5969-3.8492-3.6811-0.35316-0.3187-0.86616-0.64944-1.3428-0.84044-0.37009-0.14831-0.80547-0.24063-1.2258-0.30267-0.43345-0.064-0.85093-0.0958-1.1644-0.12361z" fill="url(#linearGradient1503-8)" stroke="#808080" stroke-width=".3"/>
<g fill="none" stroke="#4f4f4f" stroke-width=".3">
<path d="m7.7049 268.01h1.6987zm1.9478 0h1.5854zm1.8346 0h1.4043zm1.6307 0h0.61153zm0.86067 0h1.359zm1.6307 0h3.5786zm-7.9046 0.87396h2.65zm2.9444 0h1.2684zm1.4949 0h0.63418zm0.88332 0h1.1551zm1.4043 0h1.1778zm1.4043 0h1.8799zm2.129 0h2.4461zm2.6726 0h1.6307zm1.8572 0h0.40769zm-14.79 0.86713h2.2423zm2.4688 0h3.6692zm3.8957 0h1.7893zm2.0158 0h1.676zm1.9025 0h1.4269zm1.6534 0 2.2423 0.0136zm2.4461 0.0136h2.0727zm-14.382 0.86713h3.1029zm3.3521 0h3.3521zm3.5786 0h1.3363zm1.5628 0h3.1482zm3.3521 0h2.1517zm2.4008 0h0.86067zm1.0872 0h0.47563zm0.72478 0h1.3363zm-16.058 0.87397h1.1551zm1.5175 0h4.2807zm-1.5175 1.7411h2.2423zm2.4688 0h3.6692zm3.8957 0h1.7893zm2.0158 0h1.676zm1.9025 0h1.4269zm1.6534 0 2.2423 0.0137zm2.4461 0.0137h3.6465zm-14.382 0.86713h1.6987zm1.9478 0h1.5628zm1.8346 0h1.4043zm1.6307 0h0.61153zm0.86067 0h1.359zm1.6307 0h3.5559zm3.8051 0h2.7179zm2.9444 0h0.86067zm1.0872 0h2.0384zm-15.741 0.87396h2.8538zm3.0803 0h3.0577zm3.2841 0h1.1778zm1.4043 0h2.8765zm3.1029 0h3.6239zm3.873 0h1.3363zm-14.745 0.87396h3.1029zm3.3521 0h3.3521zm3.5786 0h1.3363zm1.5628 0h3.1482zm3.3521 0h2.1517zm2.4008 0h0.86067zm1.0872 0h0.47563zm0.72478 0h1.3363zm-16.058 0.87395h2.65zm2.9444 0h1.2684zm1.4949 0h0.63418zm0.88332 0h1.1551zm1.4043 0h1.1778zm1.4043 0h1.8799zm2.129 0h2.4461zm2.6726 0h1.6307zm1.8572 0h0.40769zm-14.79 1.7411h2.2423zm2.4688 0h3.6692zm3.8957 0h1.7893zm2.0158 0h1.676zm1.9025 0h1.4269zm1.6534 0 2.2423 0.0137zm2.4461 0.0137h3.6465zm-14.382 0.86713h2.65zm2.9444 0h1.2684zm1.4949 0h0.63418zm0.88332 0h1.1551zm1.4043 0h1.1778zm1.4043 0h1.8799zm2.129 0h2.4461zm2.6726 0h1.6307zm1.8572 0h0.40769zm-14.79 0.87397h2.8085zm3.0576 0h0.88332zm1.1098 0h2.0158zm2.2423 0h2.9671zm3.2162 0h2.0158zm2.2196 0h0.43034zm0.65683 0h2.5594zm2.8312 0h1.3363zm-15.334 0.87395h2.8085zm3.0576 0h1.2684zm1.4949 0h1.9931zm2.2196 0h2.1517zm2.4008 0h0.86067zm1.0872 0h0.47564zm0.72478 0h1.3363z"/>
<path d="m7.7049 293.33h3.1029zm3.3521 0h3.3521zm-3.3521-0.87397h1.1551zm1.5175 0h4.2807zm-1.5175-1.7411h2.2423zm2.4688 0h3.6692zm3.8957 0h1.7893zm2.0158 0h1.676zm1.9025 0h1.4269zm1.6534 0 2.2423-0.0137zm2.4461-0.0137h3.6465zm-14.382-0.86713h1.6987zm1.9478 0h1.5628zm1.8346 0h1.4043zm1.6307 0h0.61153zm0.86067 0h1.359zm1.6307 0h3.5559zm3.8051 0h2.7179zm2.9444 0h0.86067zm1.0872 0h2.0384zm-15.741-0.87396h2.8538zm3.0803 0h3.0577zm3.2841 0h1.1778zm1.4043 0h2.8765zm3.1029 0h3.6239zm3.873 0h1.3363zm-14.745-0.87396h3.1029zm3.3521 0h3.3521zm3.5786 0h1.3363zm1.5628 0h3.1482zm3.3521 0h2.1517zm2.4008 0h0.86067zm1.0872 0h0.47563zm0.72478 0h1.3363zm-16.058-0.87395h2.65zm2.9444 0h1.2684zm1.4949 0h0.63418zm0.88332 0h1.1551zm1.4043 0h1.1778zm1.4043 0h1.8799zm2.129 0h2.4461zm2.6726 0h1.6307zm1.8572 0h0.40769zm-14.79-1.7411h2.2423zm2.4688 0h3.6692zm3.8957 0h1.7893zm2.0158 0h1.676zm1.9025 0h1.4269zm1.6534 0 2.2423-0.0137zm2.4461-0.0137h3.6465zm-14.382-0.86713h2.65zm2.9444 0h1.2684zm1.4949 0h0.63418zm0.88332 0h1.1551zm1.4043 0h1.1778zm1.4043 0h1.8799zm2.129 0h2.4461zm2.6726 0h1.6307zm1.8572 0h0.40769zm-14.79-0.87397h2.8085zm3.0576 0h0.88332zm1.1098 0h2.0158zm2.2423 0h2.9671zm3.2162 0h2.0158zm2.2196 0h0.43034zm0.65683 0h2.5594zm2.8312 0h1.3363zm-15.334-0.87395h2.8085zm3.0576 0h1.2684zm1.4949 0h1.9931zm2.2196 0h2.1517zm2.4008 0h0.86067zm1.0872 0h0.47564zm0.72478 0h1.3363z"/>
<path d="m7.7049 266.42h1.4816zm1.9374 0h1.776z"/>
</g>
<path d="m19.751 265.48c0.01633 0.0263 0.56114 0.90462 0.72779 1.3989 0.45158 1.0123 0.25858 3.9724 0.25037 5.6588 0.02772-0.19401 4.6905-1.3958 7.111 0.80464-0.01547-0.0273-0.04888-0.0804-0.12512-0.18628-0.07235-0.10046-0.18275-0.24915-0.37164-0.44224-0.52811-0.60452-0.23093-0.0845-0.80541-0.682-0.49669-0.45047-1.5695-1.5205-2.868-2.798-1.2412-1.2212-2.6869-2.6295-3.919-3.7538z" opacity=".248"/>
<path d="m19.424 264.96c0.01548 0.0249 0.53209 0.85773 0.69011 1.3264 0.42821 0.95987 0.29224 3.218 0.28445 4.8171 0.42899-0.0223 5.1595-0.73701 7.3284 1.8241-0.02928-0.0506-0.10278-0.0927-0.14377-0.17312-0.50077-0.57318-1.1396-1.0337-1.7235-1.5822-0.47098-0.42712-1.4882-1.4417-2.7195-2.653-1.1769-1.1579-2.5478-2.4932-3.7162-3.5592z" fill="#fff" stroke="#808080" stroke-width=".3"/>
<g transform="matrix(.53602 0 0 .53727 -234.93 -13.785)" stroke-width="4.0845"></g>
<g transform="matrix(.53602 0 0 .53727 -234.93 -13.76)" stroke-width="4.0845"></g>
<g transform="matrix(1.2299 0 0 1.2299 -49.199 -61.008)" stroke-width=".21513">
<path d="m59.725 287.55c8.07e-4 2.0345-4.2692 3.6839-9.5369 3.6839s-9.5376-1.6494-9.5369-3.6839c-8.07e-4 -2.0344 4.2692-3.6839 9.5369-3.6839s9.5376 1.6494 9.5369 3.6839z" fill="url(#radialGradient2490)" fill-rule="evenodd" opacity=".3"/>
<path d="m58.617 286.13c0 1.8026-3.7771 3.2655-8.4313 3.2655-4.654 0-8.4313-1.4629-8.4313-3.2655 0.08397-4.0297-1.0305-3.1976 8.4313-3.2655 9.6784-0.0701 8.3125-0.83012 8.4313 3.2655z" fill="url(#linearGradient2477)" stroke="url(#linearGradient2479)"/>
<path d="m58.624 283.13c0 1.8311-3.7771 3.3155-8.4364 3.3155-4.6593 0-8.4364-1.4844-8.4364-3.3155 0-1.8311 3.7771-3.3155 8.4364-3.3155 4.6593 0 8.4364 1.4844 8.4364 3.3155z" fill="#868688" stroke="#d8d8d8"/>
<path d="m58.617 281.71c0 1.8026-3.7771 3.2655-8.4313 3.2655-4.654 0-8.4313-1.4629-8.4313-3.2655 0.08397-4.0297-1.0305-3.1976 8.4313-3.2655 9.6784-0.0701 8.3125-0.83012 8.4313 3.2655z" fill="url(#linearGradient2471)" stroke="url(#linearGradient2473)"/>
<path d="m58.624 278.71c0 1.8311-3.7771 3.3155-8.4364 3.3155-4.6593 0-8.4364-1.4844-8.4364-3.3155 0-1.8311 3.7771-3.3155 8.4364-3.3155 4.6593 0 8.4364 1.4844 8.4364 3.3155z" fill="#868688" stroke="#d8d8d8"/>
<path d="m58.617 277.29c0 1.8026-3.7771 3.2655-8.4313 3.2655-4.654 0-8.4313-1.4629-8.4313-3.2655 0.08397-4.0297-1.0305-3.1976 8.4313-3.2655 9.6784-0.0701 8.3125-0.83013 8.4313 3.2655z" fill="url(#linearGradient2463)" stroke="url(#linearGradient2466)"/>
<path d="m58.624 274.29c0 1.8311-3.7771 3.3155-8.4364 3.3155-4.6593 0-8.4364-1.4844-8.4364-3.3155s3.7771-3.3155 8.4364-3.3155c4.6593 0 8.4364 1.4844 8.4364 3.3155z" fill="url(#linearGradient2458)" stroke="url(#linearGradient2460)"/>
</g>
</g>
</svg>
