<svg width="128" height="128" version="1.1" viewBox="0 0 33.867 33.867" xmlns="http://www.w3.org/2000/svg" xmlns:osb="http://www.openswatchbook.org/uri/2009/osb" xmlns:xlink="http://www.w3.org/1999/xlink">
<defs>
<linearGradient id="linearGradient1503" x1="29.203" x2="4.5843" y1="263.52" y2="296.17" gradientTransform="matrix(1.001 0 0 1.001 -60.648 -19.293)" gradientUnits="userSpaceOnUse">
<stop stop-color="#d9d9d9" offset="0"/>
<stop stop-color="#fff" offset="1"/>
</linearGradient>
</defs>
<g transform="translate(0 -263.13)">
<g transform="translate(60.63 19.002)">
<g transform="matrix(.53602 0 0 .53727 -234.93 -13.785)" stroke-width="4.0845"></g>
<g transform="matrix(.53602 0 0 .53727 -234.93 -13.76)" stroke-width="4.0845"></g>
<g transform="matrix(.53052 0 0 .53179 -272.08 -11.037)" stroke-width="4.1267"></g>
<g transform="matrix(.53052 0 0 .53179 -274.96 -11.037)" stroke-width="4.1267"></g>
<g transform="matrix(.53602 0 0 .53727 -239.91 -17.702)" stroke-width="4.0845"></g>
<g transform="matrix(.53602 0 0 .53727 -242.81 -17.702)" stroke-width="4.0845"></g>
<path d="m-56.058 245.1v32.612h24.724v-18.3c-0.04716-0.8313-0.10165-1.5753-0.3125-2.3297-0.21448-0.76736-0.55247-1.4939-0.95641-2.1892-0.51687-0.8897-1.3904-1.4633-2.1667-2.1925-0.47098-0.42711-1.4882-1.4417-2.7195-2.653-1.2212-1.2014-2.6535-2.5969-3.8492-3.6811-0.35316-0.3187-0.86616-0.64943-1.3428-0.84044-0.37009-0.14831-0.80547-0.24063-1.2258-0.30267-0.43345-0.064-0.85093-0.0958-1.1644-0.12361z" opacity=".25"/>
<path d="m-56.058 244.57v32.612h24.724v-18.3c-0.04716-0.83129-0.10165-1.5753-0.3125-2.3297-0.21448-0.76736-0.55247-1.4939-0.95641-2.1892-0.51687-0.88969-1.3904-1.4633-2.1667-2.1925-0.47098-0.42712-1.4882-1.4417-2.7195-2.653-1.2212-1.2014-2.6535-2.5969-3.8492-3.6811-0.35316-0.3187-0.86616-0.64944-1.3428-0.84044-0.37009-0.14831-0.80547-0.24063-1.2258-0.30267-0.43345-0.064-0.85093-0.0958-1.1644-0.12361z" fill="url(#linearGradient1503)" stroke="#808080" stroke-width=".3"/>
<path d="m-55.91 244.72v5.2731h18.796c-0.16759-0.16289-0.29705-0.28859-0.47469-0.46085-1.2049-1.1684-2.6178-2.526-3.7975-3.5804-0.34845-0.30994-0.85491-0.63143-1.3252-0.81719-0.36515-0.14423-0.79466-0.23417-1.2094-0.29451-0.42767-0.0623-0.83946-0.0931-1.1487-0.12012z" fill="#465dd5"/>
<path d="m-40.879 246.48c0.01633 0.0263 0.56114 0.90462 0.72779 1.3989 0.45158 1.0123 0.25858 3.9724 0.25037 5.6588 0.02772-0.19401 4.6905-1.3958 7.111 0.80464-0.01547-0.0273-0.04888-0.0804-0.12512-0.18628-0.07235-0.10046-0.18275-0.24915-0.37164-0.44224-0.52811-0.60452-0.23093-0.0845-0.80541-0.682-0.49669-0.45047-1.5695-1.5205-2.868-2.798-1.2412-1.2212-2.6869-2.6295-3.919-3.7538z" opacity=".248"/>
<path d="m-41.206 245.96c0.01548 0.0249 0.53209 0.85773 0.69011 1.3264 0.42821 0.95987 0.29224 3.218 0.28445 4.8171 0.42899-0.0223 5.1595-0.73701 7.3284 1.8241-0.02928-0.0506-0.10278-0.0927-0.14377-0.17312-0.50077-0.57318-1.1396-1.0337-1.7235-1.5822-0.47098-0.42712-1.4882-1.4417-2.7195-2.653-1.1769-1.1579-2.5478-2.4932-3.7162-3.5592z" fill="#fff" stroke="#808080" stroke-width=".3"/>
<g transform="matrix(.53602 0 0 .53727 -295.56 -32.788)" stroke-width="4.0845"></g>
<g transform="matrix(.53602 0 0 .53727 -295.56 -32.763)" stroke-width="4.0845"></g>
<g transform="translate(-60.639 -16.632)">
<ellipse cx="16.943" cy="279.82" rx="8.6582" ry="8.7726" fill="none" stroke="#102ec9" stroke-linecap="square" stroke-linejoin="round" stroke-width=".5"/>
<path d="m17.994 274.03c-0.19617 0-0.2563 8e-3 -0.395 0.0542-0.39864 0.13223-0.71499 0.45303-0.84575 0.85766-0.04504 0.13936-0.05323 0.20073-0.05323 0.39914 0 0.19874 0.0081 0.25961 0.05359 0.40014 0.15156 0.46909 0.54702 0.81518 1.0343 0.9052 0.15482 0.0286 0.42564 6e-3 0.60278-0.051 0.39114-0.12518 0.71366-0.45175 0.84369-0.85418 0.0454-0.14051 0.05358-0.20138 0.05358-0.40014 0-0.19877-0.0081-0.25969-0.05358-0.40023-0.1305-0.40391-0.44711-0.72443-0.84646-0.85693-0.13756-0.0457-0.19812-0.0539-0.39394-0.0539zm-0.44015 3.2505c-0.03159 5.1e-4 -0.06479 2e-3 -0.09991 4e-3 -0.84364 0.0442-1.6085 0.44423-2.1489 1.1237-0.30062 0.37793-0.54953 0.8013-0.64982 1.1054-0.09375 0.28425-0.07276 0.48184 0.05694 0.53627 0.105 0.0442 0.17999-0.0153 0.3756-0.29725 0.34955-0.50383 0.45927-0.64913 0.61085-0.80878 0.19461-0.20498 0.41011-0.36003 0.52132-0.37514 0.10501-0.0142 0.13299 0.0244 0.11878 0.16389-0.01214 0.11919-0.02043 0.14556-0.85854 2.7351-0.32298 0.99789-0.60962 1.9015-0.63703 2.008-0.1289 0.50094-0.17049 1.0796-0.1011 1.4066 0.12886 0.60715 0.56325 0.84272 1.2903 0.69967 0.6532-0.12852 1.3251-0.58433 1.8867-1.2798 0.43482-0.53852 0.71913-1.067 0.77926-1.4483 0.03748-0.23779-0.02485-0.35524-0.17348-0.32701-0.11488 0.0219-0.22998 0.16159-0.67245 0.81632-0.38239 0.56585-0.50334 0.6934-0.64416 0.67932-0.1124-0.0117-0.15037-0.0888-0.14642-0.29868 0.0027-0.14298 0.02088-0.23781 0.09503-0.49596 0.1742-0.60659 0.41966-1.3762 0.73046-2.2902 0.46432-1.3654 0.50245-1.4859 0.55786-1.7634 0.18633-0.93301 0.05303-1.5535-0.38439-1.7887-0.14499-0.078-0.28569-0.1081-0.50682-0.10447z" fill="#465dd5"/>
</g>
</g>
</g>
</svg>
