<svg width="128" height="128" version="1.1" viewBox="0 0 33.867 33.867" xmlns="http://www.w3.org/2000/svg" xmlns:osb="http://www.openswatchbook.org/uri/2009/osb" xmlns:xlink="http://www.w3.org/1999/xlink">
<defs>
<linearGradient id="linearGradient1503-8" x1="29.203" x2="4.5843" y1="263.52" y2="296.17" gradientTransform="matrix(1.001 0 0 1.001 -.017758 -.29086)" gradientUnits="userSpaceOnUse">
<stop stop-color="#d9d9d9" offset="0"/>
<stop stop-color="#fff" offset="1"/>
</linearGradient>
</defs>
<g transform="translate(0 -263.13)">
<path d="m4.5714 264.1v32.612h24.724v-18.3c-0.04716-0.8313-0.10165-1.5753-0.3125-2.3297-0.21448-0.76736-0.55247-1.4939-0.95641-2.1892-0.51687-0.8897-1.3904-1.4633-2.1667-2.1925-0.47098-0.42711-1.4882-1.4417-2.7195-2.653-1.2212-1.2014-2.6535-2.5969-3.8492-3.6811-0.35316-0.3187-0.86616-0.64943-1.3428-0.84044-0.37009-0.14831-0.80547-0.24063-1.2258-0.30267-0.43345-0.064-0.85093-0.0958-1.1644-0.12361z" opacity=".25"/>
<path d="m4.5714 263.57v32.612h24.724v-18.3c-0.04716-0.83129-0.10165-1.5753-0.3125-2.3297-0.21448-0.76736-0.55247-1.4939-0.95641-2.1892-0.51687-0.88969-1.3904-1.4633-2.1667-2.1925-0.47098-0.42712-1.4882-1.4417-2.7195-2.653-1.2212-1.2014-2.6535-2.5969-3.8492-3.6811-0.35316-0.3187-0.86616-0.64944-1.3428-0.84044-0.37009-0.14831-0.80547-0.24063-1.2258-0.30267-0.43345-0.064-0.85093-0.0958-1.1644-0.12361z" fill="url(#linearGradient1503-8)" stroke="#808080" stroke-width=".3"/>
<g transform="translate(26.004 40.814)">
<path d="m-9.9795 251.34c-0.62905-0.12145-1.0835-0.56-1.2466-1.203-0.03213-0.12664-0.05842-0.25475-0.05842-0.28465s-0.03693-0.10927-0.08208-0.17636c-0.17674-0.26262-0.16345-0.61923 0.03762-1.0101 0.18796-0.36533 0.45053-0.62068 0.82268-0.80002 0.31111-0.14992 0.48959-0.18907 0.86204-0.18907 0.38127 0 0.5506 0.0388 0.89659 0.20538 0.21827 0.10509 0.27612 0.14674 0.45496 0.32753 0.34169 0.34542 0.48401 0.64584 0.48919 1.0327 0.0032 0.23921 0.0028 0.2404-0.1702 0.53611-0.01627 0.0278-0.02974 0.0757-0.02993 0.10643-6.88e-4 0.10887-0.10056 0.4493-0.1803 0.6146-0.192 0.398-0.55887 0.69534-1.0053 0.81483-0.19797 0.053-0.5838 0.0655-0.7902 0.0257zm-0.45427-5.456c-0.0054-0.0165-0.01334-0.14438-0.0177-0.28426-0.0044-0.13988-0.01975-0.26918-0.0342-0.28735-0.01445-0.0182-0.03363-0.17309-0.04262-0.34431-9e-3 -0.17121-0.03196-0.4016-0.05105-0.51197-0.0519-0.3001-0.04522-0.79367 0.01473-1.0886 0.13048-0.64191 0.459-1.3195 0.95386-1.9673 0.28379-0.37151 0.61395-0.72354 1.5833-1.6882 0.57568-0.57289 1.1191-1.1332 1.2076-1.2452 0.38108-0.48219 0.68842-1.0265 0.9329-1.6522 0.16806-0.43013 0.23309-0.58479 0.25622-0.60941 0.03241-0.0345 0.02543-0.31022-0.014-0.55332-0.2052-1.2652-1.2075-2.19-2.6944-2.4862-0.70202-0.13984-1.3298-0.14377-2.0833-0.013-1.0943 0.18988-2.0472 0.62488-2.6624 1.2153-0.43233 0.41497-0.65408 0.83274-0.70409 1.3265-0.01611 0.15904-0.01553 0.16128 0.04836 0.18557 0.10487 0.0399 0.26374 0.0284 0.45002-0.0324 0.28601-0.0934 0.4473-0.11941 0.72499-0.11709 0.66059 6e-3 1.1716 0.30337 1.4781 0.86157 0.17919 0.32634 0.21124 0.73591 0.07816 0.99894-0.03712 0.0734-0.07525 0.13338-0.08475 0.13338s-0.02469 0.062-0.03376 0.13769c-0.08625 0.71995-0.43678 1.1816-1.0546 1.389-0.1826 0.0613-0.21398 0.0643-0.67047 0.064-0.45299-2.7e-4 -0.49031-4e-3 -0.68955-0.0654-0.9819-0.30334-1.5659-1.1342-1.7284-2.4592-0.03753-0.30595-0.04859-0.36018-0.12454-0.61061-0.03584-0.11817-0.04347-0.22656-0.04302-0.61061 5.08e-4 -0.42687 0.0061-0.48896 0.0652-0.72357 0.19308-0.7665 0.58119-1.4225 1.1955-2.0208 0.3592-0.34979 0.68377-0.58883 1.1634-0.8568 1.1163-0.62371 2.5939-0.97248 4.1197-0.97242 1.7393 8e-5 3.3537 0.50781 4.4928 1.413 0.86141 0.68453 1.4386 1.5811 1.657 2.5739 0.04996 0.22711 0.05639 0.98296 0.0099 1.1614-0.09589 0.36782-0.11253 0.45507-0.14389 0.75428-0.09463 0.90305-0.42802 1.712-1.0066 2.4424-0.186 0.23482-0.6554 0.70569-0.94572 0.94868-0.31062 0.25998-0.73609 0.57997-1.3649 1.0265-0.95278 0.67658-1.3 0.95622-1.7145 1.3807-0.532 0.54485-0.8304 1.0722-0.94319 1.6667-0.04182 0.22048-0.0481 0.69505-0.01061 0.80258 0.02014 0.0578 0.01759 0.0889-0.01197 0.14606-0.02666 0.0516-0.03757 0.14108-0.03757 0.30849 0 0.15152-0.01028 0.24613-0.02873 0.26459-0.04227 0.0423-1.4773 0.0411-1.4911-1e-3z" fill="#e8e8e7"/>
<path d="m-9.8597 251.34c-0.02634-6e-3 -0.10716-0.0229-0.17959-0.0373-0.71963-0.14332-1.2224-0.80989-1.2208-1.6185 2.39e-4 -0.1158 0.01639-0.28596 0.03592-0.37815 0.01953-0.0922 0.0355-0.22249 0.0355-0.28958 0-0.28461 0.17343-0.59045 0.46694-0.82342 0.68865-0.54662 1.6656-0.4969 2.2862 0.11635 0.22173 0.21909 0.31365 0.41033 0.33882 0.70492 0.01033 0.12095 0.02979 0.26299 0.04324 0.31568 0.04289 0.16795 0.03094 0.60575-0.02228 0.8163-0.14452 0.57181-0.56124 1.0011-1.1135 1.1471-0.14238 0.0376-0.57832 0.068-0.67047 0.0466zm-0.54826-5.4662c-7e-3 -0.0113-0.01983-0.29436-0.02848-0.62892-0.02253-0.87091 0.03001-1.3823 0.20326-1.9786 0.0374-0.12873 0.08181-0.3041 0.09868-0.3897 0.10236-0.51951 0.44544-1.1247 1.0249-1.8079 0.1117-0.1317 0.66907-0.7028 1.2386-1.2691 1.018-1.0123 1.2465-1.2632 1.7227-1.8917 0.12972-0.17121 0.24967-0.32207 0.26657-0.33524 0.07492-0.0584 0.20192-0.45486 0.26079-0.81414 0.0452-0.27588 0.04534-0.82416 2.7e-4 -1.102-0.09636-0.59408-0.36635-1.1158-0.79961-1.5451-0.54612-0.54112-1.2615-0.87353-2.1973-1.021-0.32501-0.0512-1.1599-0.0572-1.4936-0.0106-1.2926 0.18032-2.3746 0.65074-3.0408 1.322-0.27946 0.28158-0.45491 0.55565-0.57058 0.89129-0.07632 0.22145-0.08433 0.26976-0.08615 0.51953-0.0011 0.15145 0.0062 0.30458 0.01617 0.34028l0.01818 0.0649 0.0776-0.0449c0.15363-0.0889 0.67782-0.2608 0.88008-0.28858 0.47282-0.065 0.92109 0.0728 1.2557 0.38579 0.19425 0.18171 0.32699 0.42783 0.32905 0.61008 7.31e-4 0.0648 0.01852 0.20393 0.03953 0.30929 0.05558 0.2787 0.04725 0.75895-0.01737 1.0019-0.14724 0.5536-0.50525 0.91385-1.0565 1.0631-0.12408 0.0336-0.24791 0.0419-0.61061 0.0407-0.42406-1e-3 -0.46926-6e-3 -0.6654-0.066-0.47433-0.14562-0.82862-0.39412-1.1203-0.78581-0.52134-0.70002-0.73122-1.8704-0.53657-2.9924 0.03575-0.20602 0.14489-0.65596 0.16831-0.69386 0.0062-0.01 0.02757-0.11163 0.04747-0.22574 0.16331-0.93647 1.0593-1.9342 2.2929-2.5533 0.92282-0.46311 1.881-0.7186 3.0483-0.8128 0.44657-0.036 1.4551-0.0158 1.8297 0.0367 1.3519 0.18951 2.5057 0.66702 3.3793 1.3985 0.61998 0.51916 1.0908 1.201 1.2217 1.7693 0.02654 0.11521 0.08456 0.34416 0.12893 0.50878 0.1721 0.63851 0.21343 0.98064 0.19645 1.6261-0.0072 0.27404-0.0286 0.55871-0.05145 0.68461-0.25302 1.3944-0.93122 2.3679-2.4467 3.5121-0.13046 0.0985-0.50659 0.37117-0.83584 0.60595-0.32925 0.23478-0.73407 0.53197-0.8996 0.66041-0.91963 0.71362-1.4255 1.3355-1.6628 2.0439-0.11595 0.34625-0.13675 0.51141-0.15254 1.2113l-0.01486 0.6585-0.72272 6e-3c-0.3975 3e-3 -0.72846-3e-3 -0.73547-0.0143z" fill="#d2d2d2"/>
<path d="m-10.078 251.28c-0.29168-0.0765-0.50052-0.19809-0.7155-0.41666-0.31516-0.32042-0.45195-0.67281-0.45195-1.1643 0-0.34934 0.04686-0.52263 0.26069-0.96416 0.1341-0.27691 0.1785-0.34546 0.28292-0.43683 0.15326-0.13414 0.43998-0.2856 0.64195-0.33912 0.20636-0.0547 0.62702-0.0538 0.83262 2e-3 0.35408 0.0957 0.72943 0.35216 0.83387 0.56975 0.33398 0.69578 0.35086 0.75192 0.35147 1.1686 3.48e-4 0.23853-0.0104 0.3373-0.0529 0.48632-0.206 0.72226-0.7834 1.1447-1.5591 1.1406-0.16682-8.6e-4 -0.31191-0.0166-0.42406-0.046zm0.83369-0.40072c0.20188-0.0945 0.3517-0.23212 0.44398-0.40794 0.26747-0.50959 0.07186-1.0955-0.4487-1.344-0.11745-0.0561-0.16019-0.0629-0.3951-0.0629-0.23991 0-0.27556 6e-3 -0.3997 0.0669-0.67281 0.33039-0.75889 1.2396-0.15664 1.6543 0.20243 0.13942 0.3503 0.18308 0.59267 0.17498 0.16947-6e-3 0.23092-0.0194 0.36348-0.0815zm-1.1541-5.0075c-0.0322-0.0107-0.03133-1.4325 0.0011-1.7161 0.08505-0.74499 0.32424-1.3863 0.80821-2.1671 0.46068-0.74315 0.69701-1.0315 1.4467-1.7648 1.5614-1.5274 1.8172-1.789 1.9623-2.0066 0.26586-0.39862 0.44856-0.83432 0.55119-1.3145 0.06894-0.32252 0.07497-0.99649 0.01176-1.3141-0.11623-0.58402-0.38056-1.079-0.79745-1.4933-0.56151-0.55802-1.3705-0.91794-2.3309-1.0371-0.29311-0.0364-1.0678-0.0304-1.3759 0.0106-0.98824 0.13152-1.8453 0.43705-2.5398 0.90544-0.1274 0.0859-0.32809 0.25853-0.49088 0.42219-0.31184 0.31351-0.46102 0.53871-0.58283 0.8798-0.07223 0.20227-0.07542 0.22686-0.07555 0.58235-9.5e-5 0.24595 0.01049 0.40114 0.03135 0.46002l0.03148 0.0889 0.06923-0.0788c0.08271-0.0942 0.31606-0.20539 0.60681-0.28917 0.17109-0.0493 0.26419-0.0611 0.48055-0.0611 0.29565 0 0.4379 0.0315 0.66918 0.14823 0.24084 0.12156 0.3624 0.25744 0.50982 0.56993 0.21146 0.44822 0.23552 0.54879 0.23494 0.98197-5.53e-4 0.40787-0.02985 0.56292-0.15611 0.82612-0.17762 0.37025-0.5211 0.63135-0.9808 0.74552-0.25013 0.0621-0.82108 0.0622-1.0869 1.8e-4 -0.40587-0.0947-0.68965-0.2461-0.98852-0.52737-0.5368-0.50519-0.83016-1.2672-0.86306-2.2417-0.0255-0.75539 0.11118-1.4724 0.39974-2.097 0.10017-0.21681 0.39523-0.73526 0.57137-1.004 0.1478-0.22545 0.61-0.68223 0.88984-0.87939 1.1557-0.81428 2.7538-1.2637 4.4932-1.2637 1.9178 0 3.7258 0.66078 4.7017 1.7184 0.25327 0.27446 0.64274 0.88777 0.8746 1.3772 0.58303 1.2308 0.58263 2.8235-1e-3 4.0572-0.24008 0.50747-0.55165 0.93307-1.0398 1.4204-0.39267 0.39197-0.85568 0.76474-1.6864 1.3577-1.1253 0.80327-1.4499 1.0623-1.8732 1.4948-0.51408 0.5253-0.77443 0.96258-0.93753 1.5746-0.05716 0.21447-0.06184 0.27426-0.07154 0.91196-0.0057 0.37535-0.02038 0.69285-0.03261 0.70557-0.0202 0.021-1.3741 0.0369-1.4343 0.0168zm0.79465-0.38113c0.02547-0.0298 0.04393-0.15255 0.06389-0.42504 0.03485-0.47551 0.07592-0.70685 0.18587-1.047 0.19011-0.58806 0.48521-1.0446 1.0269-1.5886 0.42659-0.42842 0.76929-0.7046 1.6999-1.3699 1.3841-0.98953 1.842-1.3875 2.3029-2.0015 0.5209-0.69384 0.75395-1.3214 0.81046-2.1824 0.0311-0.47388-0.07264-1.1631-0.24051-1.598-0.20704-0.53634-0.47467-0.9407-0.90754-1.3713-0.79192-0.7877-1.8683-1.2829-3.2327-1.4872-0.33682-0.0504-1.2891-0.0704-1.6896-0.0355-0.83726 0.073-1.479 0.21817-2.2628 0.51174-0.43369 0.16242-0.9665 0.47759-1.2415 0.73437-0.06784 0.0633-0.17722 0.16546-0.24307 0.22691l-0.11973 0.11174 0.17236-0.1268c0.44781-0.32943 1.3567-0.72555 2.1025-0.91629 0.65098-0.16651 1.0381-0.21418 1.748-0.21529 1.0309-2e-3 1.666 0.12446 2.4287 0.48208 0.40934 0.19193 0.71155 0.40378 1.034 0.72484 0.40496 0.40321 0.63418 0.77562 0.81165 1.3187 0.09548 0.29218 0.11564 0.38414 0.1572 0.71714 0.16166 1.2952-0.19527 2.4634-1.0904 3.5688-0.13303 0.16428-0.65007 0.70043-1.2816 1.329-0.58223 0.57948-1.1392 1.1506-1.2378 1.2691-0.63991 0.76972-0.95957 1.3782-1.1222 2.1362-0.06314 0.2943-0.09682 1.1799-0.04716 1.2397 0.04048 0.0488 0.12832 0.0459 0.17237-6e-3zm-2.9449-6.5702c0.2972-0.0636 0.53331-0.23986 0.65599-0.48971 0.06549-0.13338 0.06954-0.15904 0.06954-0.44094 0-0.27792-0.0047-0.30888-0.06573-0.43316-0.08048-0.16388-0.23347-0.322-0.37726-0.38992-0.08629-0.0408-0.15306-0.0509-0.33524-0.0509-0.19688-2e-5 -0.25547 0.0103-0.4355 0.0768-0.30282 0.11183-0.60438 0.15959-0.79243 0.12549-0.35983-0.0653-0.47893-0.18385-0.5573-0.55499-0.05857-0.27735-0.04789-1.1213 0.01683-1.3297 0.01333-0.0429 0.01974-0.0914 0.01425-0.10775-0.0055-0.0163-0.02388 0.0134-0.04087 0.0661s-0.04448 0.11194-0.06109 0.1317c-0.09679 0.11511-0.1929 0.82268-0.17076 1.2571 0.0503 0.98674 0.42627 1.6845 1.0893 2.0217 0.25344 0.12887 0.69441 0.18151 0.99024 0.1182z" fill="#cacaca"/>
<path d="m-9.8837 251.31c-0.30771-0.0496-0.6327-0.19608-0.8429-0.38004-0.17794-0.15572-0.34458-0.41728-0.42796-0.67172-0.0647-0.19741-0.07002-0.24053-0.06918-0.56105 8.14e-4 -0.31349 0.0073-0.36632 0.06662-0.54391 0.16921-0.50644 0.55674-0.85564 1.1028-0.99373 0.25649-0.0649 0.71182-0.0512 0.94885 0.0285 0.51329 0.17261 0.87164 0.55311 1.0085 1.0709 0.06791 0.25683 0.06791 0.64355 0 0.90037-0.14504 0.54856-0.55056 0.9586-1.0924 1.1045-0.14619 0.0394-0.56398 0.0671-0.69442 0.0461zm0.59612-0.19032c0.49996-0.122 0.80469-0.54717 0.80469-1.1227 0-0.46959-0.21488-0.8449-0.58847-1.0278-0.5858-0.28684-1.3539-0.0706-1.6005 0.45057-0.12983 0.27445-0.16592 0.60501-0.09765 0.89457 0.15353 0.6512 0.76098 0.98135 1.4819 0.80543zm-0.4285-5.2538-0.69442-0.012-0.0076-0.64652c-0.01126-0.95247 0.04225-1.3981 0.23849-1.986 0.21451-0.6427 0.59316-1.2743 1.1422-1.9051 0.09742-0.11194 0.64867-0.67226 1.225-1.2452 1.2879-1.2803 1.5668-1.6173 1.8918-2.2868 0.25074-0.51642 0.33307-0.85613 0.35108-1.4487 0.01777-0.58474-0.05381-0.98201-0.25864-1.4353-0.19166-0.42415-0.62758-0.92336-1.0524-1.2052-1.1549-0.76619-2.8568-0.89828-4.5117-0.35017-1.1457 0.3795-2.021 1.0712-2.3139 1.8287-0.10617 0.27457-0.14726 0.52769-0.13031 0.80276 0.01365 0.22153 0.06485 0.51407 0.09529 0.54451 0.0083 8e-3 0.05533-9e-3 0.10447-0.0388 0.37219-0.2249 0.63357-0.29914 1.0591-0.30083 0.27776-1e-3 0.34581 7e-3 0.48347 0.0541 0.43391 0.14993 0.74148 0.48984 0.87263 0.96437 0.05952 0.21537 0.0593 0.73638-4.21e-4 0.96775-0.14233 0.55144-0.48932 0.90281-1.0444 1.0576-0.2436 0.0679-0.97174 0.0613-1.2319-0.0113-1.0076-0.28091-1.623-1.183-1.7398-2.5499-0.04993-0.58463 0.04033-1.3116 0.23121-1.8622 0.11258-0.32471 0.3537-0.79051 0.55536-1.0729 0.30091-0.42132 0.80352-0.88072 1.2986-1.187 0.89396-0.55298 1.9675-0.8973 3.2691-1.0486 0.41025-0.0477 1.6753-0.04 2.0354 0.0124 0.93144 0.13549 1.6162 0.33905 2.309 0.6864 1.1166 0.55982 1.8928 1.3619 2.3111 2.3883 0.22612 0.55474 0.32488 1.1026 0.32416 1.7983-0.0014 1.3352-0.42258 2.3498-1.3874 3.342-0.45298 0.46581-0.86248 0.79427-2.0245 1.6238-0.83103 0.59327-1.1816 0.87565-1.5687 1.2636-0.56665 0.56791-0.8712 1.0873-1.0055 1.7149-0.04196 0.19606-0.05329 0.35218-0.06452 0.88903-0.0094 0.44737-0.02196 0.65349-0.04027 0.6585-0.01466 4e-3 -0.33914 2e-3 -0.72107-5e-3zm0.20912-0.18342c0.11295-0.0568 0.14221-0.15201 0.16394-0.53356 0.02311-0.40567 0.0684-0.66432 0.16958-0.9684 0.27618-0.83002 0.86915-1.5549 1.9357-2.3663 0.16462-0.12524 0.51483-0.38179 0.77823-0.57012 1.4466-1.0343 2.002-1.5358 2.4659-2.2266 0.80444-1.198 0.90615-2.9526 0.24777-4.2743-0.66146-1.3278-2.0933-2.2232-4.0035-2.5036-0.8371-0.12286-1.6925-0.11063-2.6142 0.0374-1.9515 0.31334-3.3806 1.1814-4.0284 2.447-0.57488 1.1229-0.58553 2.6416-0.02522 3.5943 0.12072 0.20525 0.43098 0.50427 0.6305 0.60763 0.65661 0.3402 1.5445 0.28372 1.9106-0.12153 0.36273-0.4015 0.36537-1.2287 0.0052-1.6274-0.16956-0.18768-0.54305-0.31186-0.83352-0.27713-0.06846 8e-3 -0.24838 0.0477-0.39984 0.0878-0.33503 0.0888-0.59098 0.10066-0.71836 0.0334-0.14408-0.076-0.28398-0.23084-0.33757-0.37349-0.1025-0.27287-0.08451-0.7567 0.0432-1.1616 0.33927-1.0756 1.4747-1.956 3.0587-2.372 1.8817-0.49408 3.7396-0.14198 4.8562 0.92032 0.92861 0.88346 1.2653 2.2067 0.90091 3.5408-0.15071 0.55181-0.47908 1.1552-0.95435 1.7535-0.11821 0.14883-0.6354 0.68627-1.2674 1.317-1.0511 1.049-1.314 1.3351-1.6185 1.7606-0.40409 0.56481-0.67751 1.1938-0.79091 1.8193-0.04599 0.25369-0.0955 1.0715-0.07357 1.2151 0.03867 0.25333 0.26131 0.3612 0.49893 0.24173z" fill="#b8b8b8"/>
<path d="m-10.111 251.23c-0.51047-0.13785-0.85558-0.46843-1.0346-0.99099-0.0691-0.20174-0.07579-0.24754-0.07609-0.52052-3.64e-4 -0.33416 0.03645-0.51121 0.15676-0.75387 0.19818-0.3997 0.54569-0.67494 1.0019-0.79354 0.20946-0.0544 0.6305-0.0551 0.83809-1e-3 0.27839 0.0722 0.54078 0.21927 0.72907 0.40871 0.1868 0.18795 0.29124 0.36481 0.37623 0.63711 0.04764 0.15265 0.05581 0.2281 0.05447 0.50286-0.0014 0.28336-0.0094 0.3469-0.06524 0.51483-0.17318 0.52119-0.56572 0.88671-1.0805 1.0061-0.09032 0.021-0.19239 0.0337-0.22682 0.0284-0.055-8e-3 -0.05327-0.0101 0.01431-0.0133 0.12452-6e-3 0.42814-0.11205 0.55756-0.1951 0.6247-0.40087 0.71411-1.4421 0.17042-1.9845-0.25106-0.25049-0.56047-0.37175-0.94856-0.37175-0.51743 0-0.92539 0.23297-1.1472 0.65512-0.20622 0.39244-0.2049 0.91301 0.0033 1.3018 0.16446 0.30708 0.53528 0.54597 0.92841 0.59811 0.06732 9e-3 0.06657 0.01-0.01197 0.0117-0.0461 1e-3 -0.15391-0.0168-0.23958-0.0399zm-0.28675-6.139c4.88e-4 -0.80788 0.02265-1.0906 0.11613-1.4819 0.14617-0.61174 0.46009-1.2578 0.8875-1.8264 0.29987-0.39895 0.57135-0.68887 1.6164-1.7262 1.04-1.0323 1.2753-1.2933 1.5761-1.748 0.50718-0.76676 0.73123-1.6192 0.6418-2.4418-0.08283-0.76191-0.34813-1.3189-0.88284-1.8536-0.21008-0.21009-0.21556-0.21788-0.07636-0.10856 0.52918 0.41558 0.98332 1.1524 1.1353 1.8418 0.22296 1.0113 0.0071 2.0476-0.62592 3.0052-0.31058 0.4698-0.58777 0.77908-1.5988 1.7839-0.5433 0.53997-1.0675 1.0734-1.165 1.1853-0.51855 0.59574-0.83648 1.0921-1.0584 1.6522-0.21639 0.54628-0.30159 1.0245-0.31002 1.7401-0.0045 0.38522-3.42e-4 0.43634 0.04286 0.52245 0.04421 0.0881 0.08958 0.12417 0.21551 0.17126 0.05202 0.0195-0.15921 0.0486-0.38911 0.0538l-0.12571 3e-3 4.66e-4 -0.77224zm1.0052 0.74977c-0.09855-0.0117-0.11964-0.0204-0.08381-0.0344 0.02634-0.0104 0.07277-0.0288 0.10317-0.0409 0.1002-0.0401 0.14291-0.19098 0.17022-0.60138 0.0386-0.57992 0.13216-0.95241 0.34579-1.3767 0.4168-0.82786 0.97374-1.3868 2.3979-2.4067 1.434-1.0269 1.9356-1.455 2.3992-2.0478 0.42933-0.54893 0.69411-1.1497 0.82615-1.8743 0.06672-0.3662 0.0736-1.1335 0.01352-1.5086-0.13216-0.82508-0.45182-1.522-0.97464-2.1249-0.56481-0.65134-1.5104-1.219-2.5186-1.512-1.7527-0.50931-3.9697-0.35648-5.6139 0.38697-1.7683 0.79957-2.7038 2.2412-2.6372 4.0639 0.04601 1.2591 0.51631 2.0597 1.3937 2.3724 0.06585 0.0235 0.10814 0.0435 0.09399 0.0444-0.01416 9.6e-4 -0.10436-0.025-0.20044-0.0577-0.96782-0.32918-1.5556-1.384-1.5573-2.7948-0.0024-1.897 0.98411-3.3419 2.8518-4.1769 1.4065-0.62885 3.2933-0.84656 4.9295-0.5688 0.68685 0.1166 1.4289 0.36438 2.0119 0.67177 1.3683 0.72148 2.2238 1.8544 2.465 3.2646 0.17009 0.9943 0.03258 2.0327-0.38212 2.8854-0.25017 0.51443-0.56654 0.93637-1.0688 1.4255-0.40264 0.39207-0.78688 0.69599-1.7298 1.3682-0.91364 0.65134-1.2816 0.94108-1.6515 1.3003-0.51759 0.50272-0.79864 0.91223-0.98107 1.4294-0.13606 0.38576-0.15488 0.52456-0.16989 1.2532l-0.01382 0.67047-0.14367 3e-3c-0.07902 1e-3 -0.20294-4e-3 -0.27537-0.0131zm-3.0456-6.6268c0.01729-7e-3 0.03794-6e-3 0.0459 2e-3 8e-3 8e-3 -0.0062 0.0136-0.03143 0.0126-0.0279-1e-3 -0.03357-7e-3 -0.01447-0.0145zm-0.98176-0.0239c0.01729-7e-3 0.03794-6e-3 0.0459 2e-3 8e-3 8e-3 -0.0062 0.0136-0.03143 0.0126-0.0279-9.9e-4 -0.03357-7e-3 -0.01447-0.0145zm1.2127-0.0414c0.44251-0.16134 0.67105-0.46538 0.73547-0.97842 0.06476-0.51574-0.12815-1.0109-0.48241-1.2382-0.30151-0.19348-0.65071-0.22355-1.1487-0.0989-0.16394 0.041-0.34173 0.0745-0.3951 0.0745-0.40569-5.6e-4 -0.61952-0.32604-0.58-0.88286 0.01658-0.23361 0.09945-0.54653 0.20829-0.78659 0.1714-0.37801 0.59348-0.89475 0.92437-1.1317 0.0795-0.0569 0.03556-5e-3 -0.13819 0.1621-0.53196 0.51277-0.76294 0.99677-0.76294 1.5987 0 0.25016 0.05334 0.64654 0.09245 0.68694 0.0094 0.01 0.05856-0.0105 0.10926-0.045 0.15297-0.10395 0.47011-0.24061 0.65308-0.28142 0.21815-0.0487 0.62304-0.0501 0.80455-3e-3 0.4868 0.1268 0.84871 0.51416 0.96384 1.0316 0.06233 0.28018 0.04009 0.77173-0.04639 1.0253-0.14432 0.42313-0.3805 0.6799-0.77156 0.8388-0.07772 0.0316-0.18434 0.0644-0.23695 0.073-0.0723 0.0118-0.055 7.9e-4 0.0709-0.0451z" fill="#a8a8a8"/>
<path d="m-8.327 250.57c0.0092-0.0263 0.03887-0.10715 0.06599-0.17959 0.07611-0.20333 0.06955-0.59458-0.01425-0.85006-0.11861-0.36161-0.36819-0.65417-0.69356-0.81301-0.23413-0.1143-0.41713-0.15678-0.67537-0.15678-0.40418 0-0.75052 0.13786-1.0162 0.40448-0.27869 0.27972-0.41464 0.61843-0.41431 1.0322 1.44e-4 0.18473 0.01174 0.25881 0.0617 0.39422 0.03383 0.0917 0.05786 0.17039 0.05339 0.17486-0.01907 0.0191-0.11062-0.1644-0.17047-0.3416-0.08697-0.2575-0.10726-0.64099-0.04801-0.9073 0.15244-0.6852 0.709-1.1421 1.4391-1.1814 0.79936-0.043 1.4575 0.42362 1.6287 1.1548 0.08255 0.35249 0.03117 0.84173-0.1186 1.1291-0.07386 0.14174-0.12331 0.21229-0.09811 0.13998zm-2.0426-4.7275c-0.01105-8e-3 -0.01841-0.37471-0.01636-0.8159 0.0041-0.87511 0.02116-1.0464 0.15412-1.5445 0.18584-0.69625 0.53361-1.3271 1.122-2.0354 0.09847-0.11853 0.67124-0.70579 1.2728-1.305 0.65608-0.65351 1.1738-1.1901 1.2936-1.341 0.40714-0.51236 0.68242-0.98999 0.835-1.4488 0.18652-0.56084 0.2259-1.0913 0.13507-1.8198-0.0262-0.21012 0.0585 0.14133 0.09811 0.40708 0.05299 0.35554 0.03492 1.0263-0.03634 1.3493-0.10184 0.46152-0.29893 0.92573-0.57088 1.3446-0.33884 0.52186-0.57782 0.78939-1.7432 1.9516-1.3071 1.3034-1.6056 1.6685-1.977 2.418-0.3397 0.6854-0.47623 1.3097-0.47592 2.1761 1.44e-4 0.38463 0.02188 0.51635 0.09775 0.59221 0.05134 0.0513 0.04173 0.0593-0.09134 0.0757-0.0425 5e-3 -0.08631 3e-3 -0.09736-4e-3zm1.2462 3e-3c-0.10175-8e-3 -0.13265-0.0357-0.06685-0.0609 0.05897-0.0226 0.1039-0.25108 0.11845-0.60233 0.0076-0.18438 0.02484-0.40527 0.03822-0.49088 0.02782-0.17791 0.09802-0.48469 0.10847-0.47406 0.0039 4e-3 -8e-3 0.12027-0.02628 0.25855-0.02004 0.15142-0.03349 0.47232-0.0338 0.80675-2.85e-4 0.30542-0.0086 0.55872-0.01848 0.56288-0.0099 4e-3 -0.06376 4e-3 -0.11973 5e-5zm-2.2893-7.368c0.04862-0.12927 0.0657-0.22592 0.07466-0.42248 0.02109-0.46264-0.09493-0.7948-0.3758-1.0759-0.35251-0.35274-0.77502-0.4337-1.4264-0.27334-0.28605 0.0704-0.42703 0.0699-0.56626-2e-3 -0.11278-0.0583-0.13692-0.0891-0.1891-0.24073-0.05793-0.16837-0.06299-0.51881-0.01139-0.7885 0.01949-0.10186 0.03835-0.18811 0.0419-0.19167 0.0036-4e-3 0.0065 0.15696 0.0065 0.3567 0 0.35252 0.04354 0.72142 0.08843 0.74916 0.01184 7e-3 0.09013-0.0314 0.17396-0.086 0.2982-0.19428 0.69311-0.3126 1.0398-0.31153 0.50799 2e-3 0.98206 0.28156 1.1872 0.70119 0.13089 0.26775 0.16708 0.43869 0.16574 0.78301-0.0013 0.32436-0.03862 0.52744-0.1371 0.74522-0.09471 0.20942-0.14413 0.24846-0.0721 0.0569zm8.0801-0.20482c-0.0011-7e-3 0.03594-0.12579 0.08226-0.26333 0.16017-0.47561 0.19124-0.70007 0.19045-1.3756-6.54e-4 -0.55765-0.0051-0.61922-0.06507-0.89937-0.09305-0.43481-0.18795-0.70857-0.37717-1.0881-0.2661-0.53373-0.62609-0.98773-1.0884-1.3727-1.3629-1.1348-3.4464-1.6122-5.6523-1.2952-2.3682 0.34035-4.0364 1.4887-4.6302 3.1872-0.17921 0.51267-0.26997 1.2368-0.22152 1.7672 0.02902 0.31767 0.10904 0.69389 0.19277 0.90633 0.06136 0.15566 0.06182 0.18564 0.0012 0.0757-0.06842-0.12405-0.20591-0.55807-0.249-0.78602-0.12051-0.63745-0.09083-1.3774 0.08133-2.0276 0.36721-1.3869 1.3944-2.4373 2.9943-3.0622 1.3554-0.52941 3.0993-0.69789 4.5943-0.44385 1.676 0.28478 3.0571 1.0932 3.8229 2.2377 0.48913 0.73098 0.72779 1.5505 0.72849 2.5016 4.14e-4 0.56619-0.06657 1.0317-0.21246 1.4766-0.06424 0.19588-0.18747 0.49225-0.19198 0.46172z" fill="#919090"/>
<path d="m-11.176 249.51c0.02493-0.35649 0.21431-0.74539 0.47332-0.97196 0.47546-0.41593 1.2513-0.49508 1.8441-0.18814 0.21465 0.11115 0.47648 0.36805 0.58604 0.57504 0.0948 0.1791 0.17366 0.47375 0.17125 0.63992l-0.0018 0.12188-0.04186-0.16762c-0.05028-0.20135-0.10541-0.31217-0.25284-0.50829-0.11018-0.14657-0.32857-0.33024-0.49152-0.41337-0.31825-0.16236-0.79133-0.21348-1.1459-0.12381-0.31974 0.0808-0.49039 0.17778-0.72245 0.41033-0.22099 0.22146-0.31602 0.37959-0.38824 0.64605l-0.04247 0.15671 0.01236-0.17674zm0.87446-5.5376c-0.0051-0.20489 0.18764-0.84822 0.36846-1.2298 0.37541-0.79234 0.77717-1.284 2.1327-2.61 0.48466-0.47412 0.9832-0.98057 1.1079-1.1254 0.43917-0.51031 0.71754-0.93492 0.92103-1.4049 0.05548-0.12814 0.10457-0.22927 0.10909-0.22475 0.02123 0.0212-0.13144 0.41578-0.2692 0.69575-0.34637 0.70389-0.58676 0.99771-1.8424 2.2519-0.55436 0.55368-1.1051 1.1194-1.2238 1.2571-0.68236 0.79144-1.0357 1.4119-1.2336 2.1661-0.03801 0.14488-0.06954 0.24573-0.07008 0.22414zm-0.96619-6.4914c-0.03195-0.18702-0.17176-0.43432-0.34149-0.60404-0.36973-0.36973-0.87177-0.47825-1.4949-0.32314-0.19114 0.0476-0.45538 0.0543-0.49701 0.0127-0.03817-0.0382 0.33697-0.23237 0.56885-0.29448 0.24302-0.0651 0.73028-0.058 0.93387 0.0135 0.19059 0.067 0.37648 0.18648 0.515 0.33105 0.20209 0.21091 0.359 0.60834 0.34225 0.86687l-0.0072 0.11085zm8.2465-1.8522c0.0011-0.0279 0.0068-0.0336 0.01447-0.0145 0.0069 0.0173 0.0061 0.0379-0.0019 0.0459s-0.01362-6e-3 -0.01258-0.0314zm-12.117-0.0271c-0.0042-0.0743 0.10096-0.54249 0.16796-0.74794 0.09606-0.29454 0.31975-0.75305 0.48158-0.98714 0.74788-1.0818 2.0614-1.8512 3.7313-2.1856 0.66311-0.13279 1.0309-0.16646 1.8314-0.16766 0.75517-1e-3 0.89756 9e-3 1.4726 0.10916 0.99567 0.17269 1.9052 0.53881 2.6579 1.0699 0.35074 0.24747 0.88441 0.79183 1.1083 1.1305 0.29736 0.44982 0.50714 0.93713 0.61672 1.4326 0.06448 0.29155 0.05609 0.37128-0.01177 0.11184-0.20187-0.77183-0.56852-1.3872-1.1782-1.9776-0.88076-0.85284-2.0909-1.3829-3.636-1.5927-0.38268-0.0519-1.5048-0.0602-1.9276-0.0142-1.0911 0.11878-1.9988 0.36752-2.7989 0.76702-1.2989 0.64857-2.1343 1.611-2.4457 2.8174-0.0374 0.14487-0.06874 0.25032-0.06964 0.23432z" fill="#717170"/>
</g>
<path d="m19.751 265.48c0.01633 0.0263 0.56114 0.90462 0.72779 1.3989 0.45158 1.0123 0.25858 3.9724 0.25037 5.6588 0.02772-0.19401 4.6905-1.3958 7.111 0.80464-0.01547-0.0273-0.04888-0.0804-0.12512-0.18628-0.07235-0.10046-0.18275-0.24915-0.37164-0.44224-0.52811-0.60452-0.23093-0.0845-0.80541-0.682-0.49669-0.45047-1.5695-1.5205-2.868-2.798-1.2412-1.2212-2.6869-2.6295-3.919-3.7538z" opacity=".248"/>
<path d="m19.424 264.96c0.01548 0.0249 0.53209 0.85773 0.69011 1.3264 0.42821 0.95987 0.29224 3.218 0.28445 4.8171 0.42899-0.0223 5.1595-0.73701 7.3284 1.8241-0.02928-0.0506-0.10278-0.0927-0.14377-0.17312-0.50077-0.57318-1.1396-1.0337-1.7235-1.5822-0.47098-0.42712-1.4882-1.4417-2.7195-2.653-1.1769-1.1579-2.5478-2.4932-3.7162-3.5592z" fill="#fff" stroke="#808080" stroke-width=".3"/>
<g transform="matrix(.53602 0 0 .53727 -234.93 -13.785)" stroke-width="4.0845"></g>
<g transform="matrix(.53602 0 0 .53727 -234.93 -13.76)" stroke-width="4.0845"></g>
</g>
</svg>
