<svg width="128" height="128" version="1.1" viewBox="0 0 33.867 33.867" xmlns="http://www.w3.org/2000/svg" xmlns:osb="http://www.openswatchbook.org/uri/2009/osb" xmlns:xlink="http://www.w3.org/1999/xlink">
<defs>
<linearGradient id="linearGradient1503-8" x1="10.733" x2="10.733" y1="261.04" y2="285" gradientTransform="matrix(.96678 0 0 .96677 .87285 9.4386)" gradientUnits="userSpaceOnUse">
<stop stop-color="#e5e5e5" offset="0"/>
<stop stop-color="#fff" offset="1"/>
</linearGradient>
</defs>
<g transform="translate(0 -263.13)">
<g transform="translate(-26.313 6.0567)" fill="none">
<path d="m31.618 258.21v31.496h23.878v-17.674c-0.04555-0.80283-0.09817-1.5214-0.3018-2.2499-0.20714-0.74109-0.53356-1.4428-0.92367-2.1143-0.49918-0.85923-1.3428-1.4132-2.0925-2.1174-0.45486-0.4125-1.4373-1.3923-2.6264-2.5622-1.1794-1.1603-2.5626-2.508-3.7174-3.5551-0.34107-0.30778-0.83651-0.6272-1.2968-0.81166-0.35742-0.14324-0.7779-0.2324-1.1839-0.29231-0.41861-0.0618-0.8218-0.0925-1.1245-0.11938z" stroke="#000" stroke-linecap="round" stroke-linejoin="round" stroke-opacity=".011765" stroke-width=".1"/>
<path d="m31.618 258.21v31.496h23.878v-17.674c-0.04555-0.80283-0.09817-1.5214-0.3018-2.2499-0.20714-0.74109-0.53356-1.4428-0.92367-2.1143-0.49918-0.85923-1.3428-1.4132-2.0925-2.1174-0.45486-0.4125-1.4373-1.3923-2.6264-2.5622-1.1794-1.1603-2.5626-2.508-3.7174-3.5551-0.34107-0.30778-0.83651-0.6272-1.2968-0.81166-0.35742-0.14324-0.7779-0.2324-1.1839-0.29231-0.41861-0.0618-0.8218-0.0925-1.1245-0.11938z" stroke="#000" stroke-linecap="round" stroke-linejoin="round" stroke-opacity=".011765" stroke-width=".2"/>
<path d="m31.618 258.21v31.496h23.878v-17.674c-0.04555-0.80283-0.09817-1.5214-0.3018-2.2499-0.20714-0.74109-0.53356-1.4428-0.92367-2.1143-0.49918-0.85923-1.3428-1.4132-2.0925-2.1174-0.45486-0.4125-1.4373-1.3923-2.6264-2.5622-1.1794-1.1603-2.5626-2.508-3.7174-3.5551-0.34107-0.30778-0.83651-0.6272-1.2968-0.81166-0.35742-0.14324-0.7779-0.2324-1.1839-0.29231-0.41861-0.0618-0.8218-0.0925-1.1245-0.11938z" stroke="#000" stroke-linecap="round" stroke-linejoin="round" stroke-opacity=".011765" stroke-width=".3"/>
<path d="m31.618 258.21v31.496h23.878v-17.674c-0.04555-0.80283-0.09817-1.5214-0.3018-2.2499-0.20714-0.74109-0.53356-1.4428-0.92367-2.1143-0.49918-0.85923-1.3428-1.4132-2.0925-2.1174-0.45486-0.4125-1.4373-1.3923-2.6264-2.5622-1.1794-1.1603-2.5626-2.508-3.7174-3.5551-0.34107-0.30778-0.83651-0.6272-1.2968-0.81166-0.35742-0.14324-0.7779-0.2324-1.1839-0.29231-0.41861-0.0618-0.8218-0.0925-1.1245-0.11938z" stroke="#000" stroke-linecap="round" stroke-linejoin="round" stroke-opacity=".011765" stroke-width=".4"/>
<path d="m31.618 258.21v31.496h23.878v-17.674c-0.04555-0.80283-0.09817-1.5214-0.3018-2.2499-0.20714-0.74109-0.53356-1.4428-0.92367-2.1143-0.49918-0.85923-1.3428-1.4132-2.0925-2.1174-0.45486-0.4125-1.4373-1.3923-2.6264-2.5622-1.1794-1.1603-2.5626-2.508-3.7174-3.5551-0.34107-0.30778-0.83651-0.6272-1.2968-0.81166-0.35742-0.14324-0.7779-0.2324-1.1839-0.29231-0.41861-0.0618-0.8218-0.0925-1.1245-0.11938z" stroke="#000" stroke-linecap="round" stroke-linejoin="round" stroke-opacity=".011765" stroke-width=".6"/>
<path d="m31.618 258.21v31.496h23.878v-17.674c-0.04555-0.80283-0.09817-1.5214-0.3018-2.2499-0.20714-0.74109-0.53356-1.4428-0.92367-2.1143-0.49918-0.85923-1.3428-1.4132-2.0925-2.1174-0.45486-0.4125-1.4373-1.3923-2.6264-2.5622-1.1794-1.1603-2.5626-2.508-3.7174-3.5551-0.34107-0.30778-0.83651-0.6272-1.2968-0.81166-0.35742-0.14324-0.7779-0.2324-1.1839-0.29231-0.41861-0.0618-0.8218-0.0925-1.1245-0.11938z" stroke="#000" stroke-linecap="round" stroke-linejoin="round" stroke-opacity=".011765" stroke-width=".8"/>
<path d="m31.618 258.21v31.496h23.878v-17.674c-0.04555-0.80283-0.09817-1.5214-0.3018-2.2499-0.20714-0.74109-0.53356-1.4428-0.92367-2.1143-0.49918-0.85923-1.3428-1.4132-2.0925-2.1174-0.45486-0.4125-1.4373-1.3923-2.6264-2.5622-1.1794-1.1603-2.5626-2.508-3.7174-3.5551-0.34107-0.30778-0.83651-0.6272-1.2968-0.81166-0.35742-0.14324-0.7779-0.2324-1.1839-0.29231-0.41861-0.0618-0.8218-0.0925-1.1245-0.11938z" stroke="#000" stroke-linecap="round" stroke-linejoin="round" stroke-opacity=".011765"/>
<path d="m31.618 258.21v31.496h23.878v-17.674c-0.04555-0.80283-0.09817-1.5214-0.3018-2.2499-0.20714-0.74109-0.53356-1.4428-0.92367-2.1143-0.49918-0.85923-1.3428-1.4132-2.0925-2.1174-0.45486-0.4125-1.4373-1.3923-2.6264-2.5622-1.1794-1.1603-2.5626-2.508-3.7174-3.5551-0.34107-0.30778-0.83651-0.6272-1.2968-0.81166-0.35742-0.14324-0.7779-0.2324-1.1839-0.29231-0.41861-0.0618-0.8218-0.0925-1.1245-0.11938z" stroke="#000" stroke-linecap="round" stroke-linejoin="round" stroke-opacity=".011765" stroke-width="1.3"/>
<path d="m31.618 258.21v31.496h23.878v-17.674c-0.04555-0.80283-0.09817-1.5214-0.3018-2.2499-0.20714-0.74109-0.53356-1.4428-0.92367-2.1143-0.49918-0.85923-1.3428-1.4132-2.0925-2.1174-0.45486-0.4125-1.4373-1.3923-2.6264-2.5622-1.1794-1.1603-2.5626-2.508-3.7174-3.5551-0.34107-0.30778-0.83651-0.6272-1.2968-0.81166-0.35742-0.14324-0.7779-0.2324-1.1839-0.29231-0.41861-0.0618-0.8218-0.0925-1.1245-0.11938z" stroke="#000" stroke-linecap="round" stroke-linejoin="round" stroke-opacity=".011765" stroke-width="1.6"/>
<path d="m31.618 258.21v31.496h23.878v-17.674c-0.04555-0.80283-0.09817-1.5214-0.3018-2.2499-0.20714-0.74109-0.53356-1.4428-0.92367-2.1143-0.49918-0.85923-1.3428-1.4132-2.0925-2.1174-0.45486-0.4125-1.4373-1.3923-2.6264-2.5622-1.1794-1.1603-2.5626-2.508-3.7174-3.5551-0.34107-0.30778-0.83651-0.6272-1.2968-0.81166-0.35742-0.14324-0.7779-0.2324-1.1839-0.29231-0.41861-0.0618-0.8218-0.0925-1.1245-0.11938z" stroke="#000" stroke-linecap="round" stroke-linejoin="round" stroke-opacity=".011765" stroke-width="2.1"/>
<path d="m31.618 258.21v31.496h23.878v-17.674c-0.04555-0.80283-0.09817-1.5214-0.3018-2.2499-0.20714-0.74109-0.53356-1.4428-0.92367-2.1143-0.49918-0.85923-1.3428-1.4132-2.0925-2.1174-0.45486-0.4125-1.4373-1.3923-2.6264-2.5622-1.1794-1.1603-2.5626-2.508-3.7174-3.5551-0.34107-0.30778-0.83651-0.6272-1.2968-0.81166-0.35742-0.14324-0.7779-0.2324-1.1839-0.29231-0.41861-0.0618-0.8218-0.0925-1.1245-0.11938z" stroke-width="0"/>
</g>
<g transform="matrix(.53602 0 0 .53727 -234.93 -13.785)" stroke-width="4.0845"></g>
<g transform="matrix(.53602 0 0 .53727 -234.93 -13.76)" stroke-width="4.0845"></g>
<path d="m5.3049 264.27v31.496h23.878v-17.674c-0.04555-0.80283-0.09817-1.5214-0.3018-2.2499-0.20714-0.74109-0.53356-1.4428-0.92367-2.1143-0.49918-0.85923-1.3428-1.4132-2.0925-2.1174-0.45486-0.4125-1.4373-1.3923-2.6264-2.5622-1.1794-1.1603-2.5626-2.508-3.7174-3.5551-0.34107-0.30778-0.83651-0.6272-1.2968-0.81166-0.35742-0.14324-0.7779-0.2324-1.1839-0.29231-0.41861-0.0618-0.8218-0.0925-1.1245-0.11938z" fill="url(#linearGradient1503-8)"/>
<g transform="translate(-.12169 .91717)">
<path d="m10.196 268.72h2.871zm3.1256 0h1.2966zm1.5281 0h2.0375zm2.269 0h2.1995zm2.4542 0h0.87981zm1.1113 0h0.48621zm0.74089 0h1.366z" fill="none" stroke="#4f4f4f" stroke-width=".5"/>
<path d="m7.5198 292.4h1.7365zm1.9912 0h1.6207zm1.8754 0h1.4355zm1.667 0h0.62513zm0.87981 0h1.3892zm1.667 0h1.0596zm-8.0804-1.4823h2.7089zm3.0099 0h1.2966zm1.5281 0h0.64828zm0.90296 0h1.1808zm1.4355 0h1.204zm1.4355 0h1.9217zm-8.3119-1.4707h2.2921zm2.5237 0h3.7508zm3.9823 0h1.8291zm2.0606 0h1.7133zm-8.5666-1.4938h3.1719zm3.4266 0h3.4266zm3.6582 0h1.366zm1.5976 0h1.73zm-8.6823-1.4823h4.5432zm4.9294 0h4.3411zm-4.9294-2.953h2.2921zm2.5237 0h3.7508zm3.9823 0h1.8291zm2.0606 0h1.7133zm-8.5666-1.4939h1.7365zm1.9912 0h1.5976zm1.8754 0h1.4355zm1.667 0h0.62513zm0.87981 0h1.3892zm1.667 0h2.3121zm-8.0804-1.4823h2.9173zm3.1488 0h3.1256zm3.3572 0h1.204zm1.4355 0h2.9404zm3.1719 0h3.7045zm3.9591 0h1.366zm-15.073-1.4823h3.1719zm3.4266 0h3.4266zm3.6582 0h1.366zm1.5976 0h3.2183zm3.4266 0h2.1995zm2.4542 0h0.87981zm1.1113 0h0.48621zm0.74089 0h1.366zm-16.415-1.4823h2.7089zm3.0099 0h1.2966zm1.5281 0h0.64828zm0.90296 0h1.1808zm1.4355 0h1.204zm1.4355 0h1.9217zm2.1764 0h2.5005zm2.732 0h1.667zm1.8985 0h0.41675zm-15.119-2.953h2.2921zm2.5237 0h3.7508zm3.9823 0h1.8291zm2.0606 0h1.7133zm1.9448 0h1.4586zm1.6902 0 2.2921-0.0233zm2.5005-0.0233h3.7276zm-14.702-1.4707h2.7089zm3.0099 0h1.2966zm1.5281 0h0.64828zm0.90296 0h1.1808zm1.4355 0h1.204zm1.4355 0h1.9217zm2.1764 0h2.5005zm2.732 0h1.667zm1.8985 0h0.41675zm-15.119-1.4823h2.871zm3.1256 0h0.90296zm1.1345 0h2.0606zm2.2921 0h3.033zm3.2877 0h2.0606zm2.269 0h0.4399zm0.67144 0h2.6163zm2.8941 0h1.366zm-15.675-1.4823h2.871zm3.1256 0h1.2966zm1.5281 0h2.0375zm2.269 0h2.1995zm2.4542 0h0.87981zm1.1113 0h0.48621zm0.74089 0h1.366z" fill="none" stroke="#4f4f4f" stroke-width=".5"/>
<g transform="matrix(.4074 0 0 .4074 2.2814 160.52)" fill="#b56200" aria-label="H">
<path d="m12.898 258.53h1.0439v3.1626h3.793v-3.1626h1.0439v7.7153h-1.0439v-3.6742h-3.793v3.6742h-1.0439z" fill="#b56200" stroke-width=".64945"/>
</g>
</g>
<g transform="matrix(.96577 0 0 .96577 .89 9.7195)" opacity=".405">
<path transform="matrix(.26458 0 0 .26458 0 263.13)" d="m67.66 3.2109c2.2138 7.0642 4.0981 14.045 3.6719 27.797a4.7249 4.7249 0 0 0 4.6875 4.8633c13.553 0.11187 21.724 2.5502 27.535 5.8848 2.1126 1.2123 3.9386 2.5701 5.6172 4.0449-0.80702-2.4772-1.9236-4.8485-3.2461-7.125-1.9535-3.3626-5.2534-5.5313-8.1875-8.2871-0.38115-0.34565-0.90086-0.8383-1.459-1.373-4.6071-1.1052-9.8871-1.8244-15.883-2.1348-0.078596-5.2828-0.34738-10.115-0.88281-14.246-2.2783-2.1828-4.5373-4.3121-6.6035-6.1855-1.3348-1.2045-3.2729-2.4539-5.0742-3.1758-0.05648-0.022633-0.11852-0.040551-0.17578-0.0625z" color="#000000" color-rendering="auto" dominant-baseline="auto" fill-opacity=".019608" image-rendering="auto" opacity="1" shape-rendering="auto" solid-color="#000000" style="font-feature-settings:normal;font-variant-alternates:normal;font-variant-caps:normal;font-variant-ligatures:normal;font-variant-numeric:normal;font-variant-position:normal;isolation:auto;mix-blend-mode:normal;shape-padding:0;text-decoration-color:#000000;text-decoration-line:none;text-decoration-style:solid;text-indent:0;text-orientation:mixed;text-transform:none;white-space:normal"/>
<path transform="matrix(.26458 0 0 .26458 0 263.13)" d="m67.66 3.2109c2.2138 7.0642 4.0981 14.045 3.6719 27.797a4.7249 4.7249 0 0 0 4.6875 4.8633c13.553 0.11187 21.724 2.5502 27.535 5.8848 2.1126 1.2123 3.9386 2.5701 5.6172 4.0449-0.80702-2.4772-1.9236-4.8485-3.2461-7.125-1.9535-3.3626-5.2534-5.5313-8.1875-8.2871-0.38115-0.34565-0.90086-0.8383-1.459-1.373-4.6071-1.1052-9.8871-1.8244-15.883-2.1348-0.078596-5.2828-0.34738-10.115-0.88281-14.246-2.2783-2.1828-4.5373-4.3121-6.6035-6.1855-1.3348-1.2045-3.2729-2.4539-5.0742-3.1758-0.05648-0.022633-0.11852-0.040551-0.17578-0.0625z" color="#000000" color-rendering="auto" dominant-baseline="auto" fill-opacity=".019608" image-rendering="auto" opacity="1" shape-rendering="auto" solid-color="#000000" style="font-feature-settings:normal;font-variant-alternates:normal;font-variant-caps:normal;font-variant-ligatures:normal;font-variant-numeric:normal;font-variant-position:normal;isolation:auto;mix-blend-mode:normal;shape-padding:0;text-decoration-color:#000000;text-decoration-line:none;text-decoration-style:solid;text-indent:0;text-orientation:mixed;text-transform:none;white-space:normal"/>
<path d="m19.424 264.96c0.01548 0.0249 0.53209 0.85773 0.69011 1.3264 0.42821 0.95987 0.29224 3.218 0.28445 4.8171 0.42899-0.0223 5.1595-0.73701 7.3284 1.8241-0.02928-0.0506-0.10278-0.0927-0.14377-0.17312-0.50077-0.57318-1.1396-1.0337-1.7235-1.5822-0.47098-0.42712-1.4882-1.4417-2.7195-2.653-1.1769-1.1579-2.5478-2.4932-3.7162-3.5592z" fill="#fff" opacity="1"/>
<path transform="matrix(.26458 0 0 .26458 0 263.13)" d="m62.348 2.0254c2.5307 7.9959 4.7266 14.026 4.2676 28.834a9.4498 9.4498 0 0 0 9.3594 9.7363c12.993 0.10734 20.24 2.3911 25.232 5.2559 3.7353 2.1435 6.4818 4.8161 9.4024 8.1348-0.1694-2.4465-0.42466-4.7341-1.0684-7.0371-0.81064-2.9003-2.0885-5.6455-3.6152-8.2734-1.9535-3.3626-5.2534-5.5313-8.1875-8.2871-1.7801-1.6143-5.6257-5.449-10.279-10.027-4.6155-4.5408-10.03-9.8145-14.549-13.912-1.3348-1.2045-3.2729-2.4539-5.0742-3.1758-1.3988-0.56054-3.0441-0.91005-4.6328-1.1445-0.29556-0.04364-0.5658-0.067172-0.85547-0.10352zm22.781 17.082 4.7324 4.0742c-1.4538-0.22488-3.0715-0.34506-4.6289-0.50195-0.05669-1.1469-0.01379-2.5016-0.10352-3.5723z" color="#000000" color-rendering="auto" dominant-baseline="auto" fill-opacity=".019608" image-rendering="auto" opacity="1" shape-rendering="auto" solid-color="#000000" style="font-feature-settings:normal;font-variant-alternates:normal;font-variant-caps:normal;font-variant-ligatures:normal;font-variant-numeric:normal;font-variant-position:normal;isolation:auto;mix-blend-mode:normal;shape-padding:0;text-decoration-color:#000000;text-decoration-line:none;text-decoration-style:solid;text-indent:0;text-orientation:mixed;text-transform:none;white-space:normal"/>
<path d="m15.558 263.57c0.69737 2.2242 1.2949 3.6931 1.1715 7.6745a3.0003 3.0003 0 0 0 2.9729 3.0918c3.3785 0.0279 5.1954 0.61571 6.4296 1.324 1.081 0.62035 1.8433 1.4389 2.7678 2.5249v-0.33848c-0.04716-0.83129-0.1018-1.5752-0.31264-2.3296-0.21448-0.76736-0.55259-1.4937-0.95653-2.189-0.51687-0.88969-1.39-1.4635-2.1663-2.1926-0.47098-0.42712-1.4885-1.4417-2.7197-2.6531-1.2212-1.2014-2.6537-2.5968-3.8494-3.6809-0.35316-0.3187-0.86595-0.64926-1.3426-0.84026-0.37009-0.14831-0.8054-0.24078-1.2258-0.30282-0.27389-0.0404-0.53003-0.0665-0.76894-0.0884z" color="#000000" color-rendering="auto" dominant-baseline="auto" fill-opacity=".019608" image-rendering="auto" opacity="1" shape-rendering="auto" solid-color="#000000" style="font-feature-settings:normal;font-variant-alternates:normal;font-variant-caps:normal;font-variant-ligatures:normal;font-variant-numeric:normal;font-variant-position:normal;isolation:auto;mix-blend-mode:normal;shape-padding:0;text-decoration-color:#000000;text-decoration-line:none;text-decoration-style:solid;text-indent:0;text-orientation:mixed;text-transform:none;white-space:normal"/>
<path transform="matrix(.26458 0 0 .26458 0 263.13)" d="m66.561 2.8398c2.2919 7.2585 4.2621 14.077 3.8262 28.139a5.6699 5.6699 0 0 0 5.625 5.8379c13.441 0.11074 21.423 2.5172 27.07 5.7578 2.5348 1.4546 4.6477 3.1319 6.5996 4.9805-0.0507-0.20172-0.0842-0.4035-0.14062-0.60547-0.81064-2.9003-2.0885-5.6455-3.6152-8.2734-1.9535-3.3626-5.2534-5.5313-8.1875-8.2871-0.59933-0.54352-1.502-1.4098-2.5215-2.4004-4.1103-0.9722-8.7345-1.6414-13.957-1.957-0.10982-4.5404-0.33237-8.8138-0.79102-12.48-2.6052-2.5081-5.1999-4.963-7.5586-7.1016-1.3348-1.2045-3.2729-2.4539-5.0742-3.1758-0.40585-0.16264-0.8354-0.30421-1.2754-0.43359z" color="#000000" color-rendering="auto" dominant-baseline="auto" fill-opacity=".019608" image-rendering="auto" opacity="1" shape-rendering="auto" solid-color="#000000" style="font-feature-settings:normal;font-variant-alternates:normal;font-variant-caps:normal;font-variant-ligatures:normal;font-variant-numeric:normal;font-variant-position:normal;isolation:auto;mix-blend-mode:normal;shape-padding:0;text-decoration-color:#000000;text-decoration-line:none;text-decoration-style:solid;text-indent:0;text-orientation:mixed;text-transform:none;white-space:normal"/>
<path transform="matrix(.26458 0 0 .26458 0 263.13)" d="m65.482 2.5547c2.3608 7.4451 4.4025 14.084 3.959 28.393a6.6148 6.6148 0 0 0 6.5625 6.8145c13.329 0.10998 21.13 2.4862 26.613 5.6328 2.9039 1.6664 5.2484 3.6278 7.4434 5.8438-0.13943-0.76458-0.30624-1.526-0.51953-2.2891-0.81064-2.9003-2.0885-5.6455-3.6152-8.2734-1.9535-3.3626-5.2534-5.5313-8.1875-8.2871-0.8307-0.75335-2.1457-2.0254-3.748-3.5957-3.5721-0.76811-7.5178-1.309-11.859-1.6094-0.13081-3.9089-0.35976-7.5773-0.77734-10.771-2.9043-2.8074-5.8113-5.5764-8.4434-7.9629-1.3348-1.2045-3.2729-2.4539-5.0742-3.1758-0.73101-0.29295-1.531-0.52753-2.3535-0.71875z" color="#000000" color-rendering="auto" dominant-baseline="auto" fill-opacity=".019608" image-rendering="auto" opacity="1" shape-rendering="auto" solid-color="#000000" style="font-feature-settings:normal;font-variant-alternates:normal;font-variant-caps:normal;font-variant-ligatures:normal;font-variant-numeric:normal;font-variant-position:normal;isolation:auto;mix-blend-mode:normal;shape-padding:0;text-decoration-color:#000000;text-decoration-line:none;text-decoration-style:solid;text-indent:0;text-orientation:mixed;text-transform:none;white-space:normal"/>
<path transform="matrix(.26458 0 0 .26458 0 263.13)" d="m64.42 2.332c2.4215 7.628 4.5278 14.08 4.0781 28.586a7.5598 7.5598 0 0 0 7.4922 7.7891c13.217 0.10923 20.835 2.4532 26.154 5.5059 3.2167 1.8459 5.7335 4.0624 8.1582 6.6328-0.17087-1.3123-0.40005-2.6026-0.76171-3.8965-0.81064-2.9003-2.0885-5.6455-3.6152-8.2734-1.9535-3.3626-5.2534-5.5313-8.1875-8.2871-1.0824-0.98164-3.0793-2.9349-5.4062-5.2266-2.9279-0.39503-6.1795-0.58992-9.3438-0.83594-0.14019-3.2758-0.36586-6.3149-0.73047-9.0312-3.2016-3.1062-6.4358-6.2056-9.3477-8.8457-1.3348-1.2045-3.2729-2.4539-5.0742-3.1758-1.0433-0.41811-2.224-0.71844-3.416-0.94141z" color="#000000" color-rendering="auto" dominant-baseline="auto" fill-opacity=".019608" image-rendering="auto" opacity="1" shape-rendering="auto" solid-color="#000000" style="font-feature-settings:normal;font-variant-alternates:normal;font-variant-caps:normal;font-variant-ligatures:normal;font-variant-numeric:normal;font-variant-position:normal;isolation:auto;mix-blend-mode:normal;shape-padding:0;text-decoration-color:#000000;text-decoration-line:none;text-decoration-style:solid;text-indent:0;text-orientation:mixed;text-transform:none;white-space:normal"/>
<path transform="matrix(.26458 0 0 .26458 0 263.13)" d="m71.457 5.3047c1.8422 6.3794 3.2776 13.624 2.9004 25.791a1.701 1.701 0 0 0 1.6836 1.7578c13.912 0.1149 22.685 2.646 29.02 6.2812 0.58431 0.33531 1.1411 0.68469 1.6875 1.0391-0.26764-0.502-0.53561-1.0046-0.82227-1.498-1.1346-1.9531-2.7354-3.4998-4.4434-4.9961-6.0382-2.3568-13.766-3.8281-23.869-4.0684 0.12885-8.7276-0.66062-15.11-1.8164-20.494-0.98383-0.91941-1.9631-1.8306-2.8867-2.668-0.42684-0.38519-0.92698-0.76879-1.4531-1.1445z" color="#000000" color-rendering="auto" dominant-baseline="auto" fill-opacity=".019608" image-rendering="auto" opacity="1" shape-rendering="auto" solid-color="#000000" style="font-feature-settings:normal;font-variant-alternates:normal;font-variant-caps:normal;font-variant-ligatures:normal;font-variant-numeric:normal;font-variant-position:normal;isolation:auto;mix-blend-mode:normal;shape-padding:0;text-decoration-color:#000000;text-decoration-line:none;text-decoration-style:solid;text-indent:0;text-orientation:mixed;text-transform:none;white-space:normal"/>
<path transform="matrix(.26458 0 0 .26458 0 263.13)" d="m70.463 4.6309c1.9548 6.5588 3.5273 13.781 3.1348 26.443a2.4569 2.4569 0 0 0 2.4355 2.5312c13.822 0.11414 22.447 2.6196 28.65 6.1797 0.98267 0.56392 1.8915 1.165 2.7695 1.7832-0.4749-0.97851-0.97765-1.9464-1.5273-2.8926-1.4753-2.5394-3.7182-4.3992-5.9922-6.3438-5.7123-1.9312-12.792-3.1265-21.619-3.3984 0.058768-7.8634-0.60521-13.882-1.6094-18.971-1.3058-1.2292-2.5849-2.4165-3.7949-3.5137-0.6886-0.62141-1.5389-1.2515-2.4473-1.8184z" color="#000000" color-rendering="auto" dominant-baseline="auto" fill-opacity=".019608" image-rendering="auto" opacity="1" shape-rendering="auto" solid-color="#000000" style="font-feature-settings:normal;font-variant-alternates:normal;font-variant-caps:normal;font-variant-ligatures:normal;font-variant-numeric:normal;font-variant-position:normal;isolation:auto;mix-blend-mode:normal;shape-padding:0;text-decoration-color:#000000;text-decoration-line:none;text-decoration-style:solid;text-indent:0;text-orientation:mixed;text-transform:none;white-space:normal"/>
<path transform="matrix(.26458 0 0 .26458 0 263.13)" d="m69.988 4.3574c2.0022 6.642 3.6313 13.841 3.2324 26.709a2.8349 2.8349 0 0 0 2.8125 2.916c13.777 0.11376 22.327 2.6122 28.465 6.1348 1.1862 0.68069 2.2673 1.4141 3.3027 2.1738-0.56491-1.2297-1.1901-2.4364-1.875-3.6152-1.6247-2.7966-4.1751-4.7818-6.6777-6.9512-5.5438-1.7594-12.311-2.8547-20.586-3.1387 0.027935-7.4339-0.57299-13.257-1.502-18.189-1.4632-1.3819-2.9011-2.7242-4.25-3.9473-0.80616-0.7275-1.8384-1.4575-2.9219-2.0918z" color="#000000" color-rendering="auto" dominant-baseline="auto" fill-opacity=".019608" image-rendering="auto" opacity="1" shape-rendering="auto" solid-color="#000000" style="font-feature-settings:normal;font-variant-alternates:normal;font-variant-caps:normal;font-variant-ligatures:normal;font-variant-numeric:normal;font-variant-position:normal;isolation:auto;mix-blend-mode:normal;shape-padding:0;text-decoration-color:#000000;text-decoration-line:none;text-decoration-style:solid;text-indent:0;text-orientation:mixed;text-transform:none;white-space:normal"/>
<path transform="matrix(.26458 0 0 .26458 0 263.13)" d="m68.805 3.7207c2.1162 6.8551 3.8865 13.965 3.4727 27.316a3.7799 3.7799 0 0 0 3.75 3.8906c13.665 0.11263 22.024 2.5793 27.998 6.0078 1.6602 0.95271 3.1402 1.9989 4.5176 3.1094-0.7276-1.8461-1.6104-3.6361-2.6172-5.3691-1.9535-3.3626-5.2534-5.5313-8.1875-8.2871-0.0255-0.02312-0.07131-0.06777-0.09766-0.0918-5.0833-1.3857-11.083-2.2581-18.115-2.5605-0.035042-6.376-0.47628-11.705-1.2148-16.246-1.8623-1.7721-3.7009-3.5001-5.4004-5.041-1.098-0.99089-2.6027-1.9954-4.1055-2.7285z" color="#000000" color-rendering="auto" dominant-baseline="auto" fill-opacity=".019608" image-rendering="auto" opacity="1" shape-rendering="auto" solid-color="#000000" style="font-feature-settings:normal;font-variant-alternates:normal;font-variant-caps:normal;font-variant-ligatures:normal;font-variant-numeric:normal;font-variant-position:normal;isolation:auto;mix-blend-mode:normal;shape-padding:0;text-decoration-color:#000000;text-decoration-line:none;text-decoration-style:solid;text-indent:0;text-orientation:mixed;text-transform:none;white-space:normal"/>
<path transform="matrix(.26458 0 0 .26458 0 263.13)" d="m73.479 6.9746c1.5791 6.0198 2.7285 13.149 2.3867 24.174a0.189 0.189 0 0 0 0.19141 0.19141c13.601 0.11236 22.515 2.5224 29.051 6.0938-0.18908-0.25669-0.39395-0.49979-0.59765-0.74414-6.4949-3.3556-15.277-5.5747-28.275-5.7051 0.31061-10.602-0.7581-17.633-2.252-23.543-0.1659-0.15233-0.34004-0.31719-0.50391-0.4668z" color="#000000" color-rendering="auto" dominant-baseline="auto" fill-opacity=".019608" image-rendering="auto" opacity="1" shape-rendering="auto" solid-color="#000000" style="font-feature-settings:normal;font-variant-alternates:normal;font-variant-caps:normal;font-variant-ligatures:normal;font-variant-numeric:normal;font-variant-position:normal;isolation:auto;mix-blend-mode:normal;shape-padding:0;text-decoration-color:#000000;text-decoration-line:none;text-decoration-style:solid;text-indent:0;text-orientation:mixed;text-transform:none;white-space:normal"/>
<path transform="matrix(.26458 0 0 .26458 0 263.13)" d="m73.223 6.7383c1.6166 6.0655 2.8036 13.221 2.457 24.402a0.37799 0.37799 0 0 0 0.37695 0.39062c13.803 0.11384 22.747 2.5914 29.279 6.2422-0.35008-0.50437-0.72123-0.99012-1.125-1.4492-6.4582-3.2424-15.151-5.3671-27.809-5.5156 0.28376-10.341-0.73954-17.306-2.1855-23.152-0.32855-0.30244-0.67348-0.6261-0.99414-0.91797z" color="#000000" color-rendering="auto" dominant-baseline="auto" fill-opacity=".019608" image-rendering="auto" opacity="1" shape-rendering="auto" solid-color="#000000" style="font-feature-settings:normal;font-variant-alternates:normal;font-variant-caps:normal;font-variant-ligatures:normal;font-variant-numeric:normal;font-variant-position:normal;isolation:auto;mix-blend-mode:normal;shape-padding:0;text-decoration-color:#000000;text-decoration-line:none;text-decoration-style:solid;text-indent:0;text-orientation:mixed;text-transform:none;white-space:normal"/>
<path transform="matrix(.26458 0 0 .26458 0 263.13)" d="m72.961 6.4961c1.6517 6.1147 2.879 13.291 2.5273 24.637a0.56699 0.56699 0 0 0 0.56055 0.58398c14.001 0.11566 22.982 2.6661 29.508 6.3945-0.50933-0.78136-1.0857-1.5047-1.7168-2.1836-6.41-3.109-14.986-5.1242-27.26-5.2891 0.25868-10.084-0.7243-16.978-2.123-22.76-0.49728-0.45889-1.0167-0.9479-1.4961-1.3828z" color="#000000" color-rendering="auto" dominant-baseline="auto" fill-opacity=".019608" image-rendering="auto" opacity="1" shape-rendering="auto" solid-color="#000000" style="font-feature-settings:normal;font-variant-alternates:normal;font-variant-caps:normal;font-variant-ligatures:normal;font-variant-numeric:normal;font-variant-position:normal;isolation:auto;mix-blend-mode:normal;shape-padding:0;text-decoration-color:#000000;text-decoration-line:none;text-decoration-style:solid;text-indent:0;text-orientation:mixed;text-transform:none;white-space:normal"/>
<path transform="matrix(.26458 0 0 .26458 0 263.13)" d="m72.709 6.2852c1.686 6.1589 2.9499 13.352 2.5938 24.84a0.75598 0.75598 0 0 0 0.74609 0.7832c14.024 0.11565 22.984 2.677 29.482 6.4062 0.0887 0.05089 0.17198 0.10492 0.25977 0.15625-0.65195-1.0745-1.4392-2.03-2.3086-2.9219-6.3619-2.9831-14.824-4.8997-26.732-5.0801 0.23464-9.8364-0.70713-16.656-2.0586-22.373-0.59498-0.55036-1.2113-1.1297-1.7812-1.6465-0.060832-0.054897-0.1379-0.10903-0.20117-0.16406z" color="#000000" color-rendering="auto" dominant-baseline="auto" fill-opacity=".019608" image-rendering="auto" opacity="1" shape-rendering="auto" solid-color="#000000" style="font-feature-settings:normal;font-variant-alternates:normal;font-variant-caps:normal;font-variant-ligatures:normal;font-variant-numeric:normal;font-variant-position:normal;isolation:auto;mix-blend-mode:normal;shape-padding:0;text-decoration-color:#000000;text-decoration-line:none;text-decoration-style:solid;text-indent:0;text-orientation:mixed;text-transform:none;white-space:normal"/>
<path transform="matrix(.26458 0 0 .26458 0 263.13)" d="m72.453 6.0742c1.719 6.2032 3.0188 13.409 2.6582 25.043a0.94498 0.94498 0 0 0 0.9375 0.97461c14.001 0.11565 22.921 2.6763 29.387 6.3867 0.19372 0.11117 0.37889 0.22657 0.56836 0.33984-0.0271-0.04702-0.0509-0.09563-0.0781-0.14258-0.7612-1.3103-1.7298-2.4373-2.7988-3.4902-6.3096-2.8649-14.642-4.6989-26.199-4.8945 0.21159-9.5967-0.69555-16.335-2.0059-21.982-0.67504-0.62582-1.3681-1.2758-2.0117-1.8594-0.13854-0.12502-0.3063-0.24964-0.45703-0.375z" color="#000000" color-rendering="auto" dominant-baseline="auto" fill-opacity=".019608" image-rendering="auto" opacity="1" shape-rendering="auto" solid-color="#000000" style="font-feature-settings:normal;font-variant-alternates:normal;font-variant-caps:normal;font-variant-ligatures:normal;font-variant-numeric:normal;font-variant-position:normal;isolation:auto;mix-blend-mode:normal;shape-padding:0;text-decoration-color:#000000;text-decoration-line:none;text-decoration-style:solid;text-indent:0;text-orientation:mixed;text-transform:none;white-space:normal"/>
<path transform="matrix(.26458 0 0 .26458 0 263.13)" d="m72.197 5.8652c1.7515 6.252 3.0877 13.475 2.7227 25.252a1.134 1.134 0 0 0 1.1289 1.168c13.979 0.11528 22.858 2.6639 29.291 6.3555 0.28751 0.16499 0.56556 0.33427 0.84375 0.50391-0.088-0.15529-0.16807-0.31428-0.25781-0.46875-0.85595-1.4733-1.9778-2.7123-3.207-3.877-6.2489-2.7307-14.441-4.4615-25.621-4.6699 0.19104-9.4056-0.70342-16.044-1.9805-21.639-0.74354-0.69062-1.5007-1.4006-2.207-2.041-0.21596-0.19489-0.46844-0.38915-0.71289-0.58398z" color="#000000" color-rendering="auto" dominant-baseline="auto" fill-opacity=".019608" image-rendering="auto" opacity="1" shape-rendering="auto" solid-color="#000000" style="font-feature-settings:normal;font-variant-alternates:normal;font-variant-caps:normal;font-variant-ligatures:normal;font-variant-numeric:normal;font-variant-position:normal;isolation:auto;mix-blend-mode:normal;shape-padding:0;text-decoration-color:#000000;text-decoration-line:none;text-decoration-style:solid;text-indent:0;text-orientation:mixed;text-transform:none;white-space:normal"/>
<path transform="matrix(.26458 0 0 .26458 0 263.13)" d="m71.949 5.6621c1.7835 6.2968 3.1546 13.531 2.7852 25.449a1.323 1.323 0 0 0 1.3066 1.3652c13.957 0.11528 22.803 2.6533 29.203 6.3262 0.3813 0.21881 0.75417 0.441 1.1191 0.66797-0.14703-0.26438-0.28529-0.53293-0.4375-0.79492-0.94953-1.6344-2.2199-2.9851-3.6094-4.2598-6.1838-2.6031-14.231-4.244-25.043-4.4648 0.16897-9.1728-0.68897-15.726-1.9258-21.25-0.82427-0.76723-1.6578-1.545-2.4375-2.252-0.29109-0.26269-0.62008-0.52605-0.96094-0.78711z" color="#000000" color-rendering="auto" dominant-baseline="auto" fill-opacity=".019608" image-rendering="auto" opacity="1" shape-rendering="auto" solid-color="#000000" style="font-feature-settings:normal;font-variant-alternates:normal;font-variant-caps:normal;font-variant-ligatures:normal;font-variant-numeric:normal;font-variant-position:normal;isolation:auto;mix-blend-mode:normal;shape-padding:0;text-decoration-color:#000000;text-decoration-line:none;text-decoration-style:solid;text-indent:0;text-orientation:mixed;text-transform:none;white-space:normal"/>
<path transform="matrix(.26458 0 0 .26458 0 263.13)" d="m70.961 4.9629c1.8967 6.4692 3.3986 13.709 3.0137 26.125a2.0789 2.0789 0 0 0 2.0664 2.1406c13.867 0.11452 22.565 2.6328 28.834 6.2305 0.779 0.44704 1.5222 0.91352 2.2344 1.3945-0.37458-0.73432-0.76761-1.4617-1.1836-2.1777-1.3082-2.2518-3.2304-3.966-5.2324-5.6816-5.8835-2.1353-13.289-3.4629-22.732-3.7207 0.092579-8.2949-0.6345-14.499-1.7129-19.738-1.1456-1.0747-2.2698-2.1175-3.3379-3.0859-0.55829-0.50381-1.2338-1.0086-1.9492-1.4863z" color="#000000" color-rendering="auto" dominant-baseline="auto" fill-opacity=".019608" image-rendering="auto" opacity="1" shape-rendering="auto" solid-color="#000000" style="font-feature-settings:normal;font-variant-alternates:normal;font-variant-caps:normal;font-variant-ligatures:normal;font-variant-numeric:normal;font-variant-position:normal;isolation:auto;mix-blend-mode:normal;shape-padding:0;text-decoration-color:#000000;text-decoration-line:none;text-decoration-style:solid;text-indent:0;text-orientation:mixed;text-transform:none;white-space:normal"/>
</g>
<path d="m19.514 265.41c1.495 2.8736 1.0745 4.1999 1.1214 6.0927 2.4113-0.1542 4.598 0.17271 6.2424 0.91779-0.31846-0.27953-0.65005-0.55261-0.9682-0.85142-0.45486-0.41249-1.4375-1.3924-2.6266-2.5622-1.1794-1.1603-2.5628-2.5079-3.7176-3.5549-0.01545-0.0139-0.03484-0.0279-0.05091-0.0419-9.4e-5 -8e-5 -4.04e-4 8e-5 -4.99e-4 0z" fill="#fff"/>
<path transform="matrix(.26458 0 0 .26458 0 263.13)" d="m20.051 4.293v119.04h0.44336v-118.54h40.104c1.1442 0.10159 2.6679 0.2176 4.25 0.45117 1.5344 0.22643 3.1237 0.56409 4.4746 1.1055 1.7397 0.69717 3.6113 1.9051 4.9004 3.0684 4.3645 3.9573 9.5932 9.0502 14.051 13.436 4.4943 4.4216 8.2066 8.1245 9.9258 9.6836 2.015 1.8925 4.2004 3.506 5.9785 5.4434-1.8475-2.1669-4.2365-3.8889-6.4219-5.9414-1.7191-1.5591-5.4334-5.262-9.9277-9.6836-4.4575-4.3853-9.6843-9.4802-14.049-13.438-1.2891-1.1633-3.1627-2.3692-4.9023-3.0664-1.3509-0.54138-2.9402-0.87904-4.4746-1.1055-1.5821-0.23357-3.1058-0.34958-4.25-0.45117h-40.102z" fill-opacity=".046898"/>
<path transform="matrix(.26458 0 0 .26458 0 263.13)" d="m20.051 4.293v119.04h0.85156v-118.24h40.102c1.1442 0.10159 2.6679 0.2176 4.25 0.45117 1.5344 0.22643 3.1237 0.56214 4.4746 1.1035 1.7397 0.69717 3.6133 1.9051 4.9023 3.0684 0.97941 0.88804 2.0126 1.8484 3.0605 2.8301-1.3467-1.2702-2.6679-2.5027-3.9121-3.6309-1.2891-1.1633-3.1627-2.3692-4.9023-3.0664-1.3509-0.54138-2.9402-0.87904-4.4746-1.1055-1.5821-0.23357-3.1058-0.34958-4.25-0.45117h-40.102zm77.727 27.764c0.27789 0.26205 0.61321 0.58458 0.83008 0.78125 1.3827 1.2986 2.846 2.4631 4.2051 3.6914-1.5759-1.5286-3.3634-2.9052-5.0352-4.4727z" fill="#0d0d0d" fill-opacity=".078076"/>
<path d="m18.784 293.18c0-0.36064 0.0049-0.38809 0.06991-0.38809 0.11492 0 0.12255-0.0669 0.02357-0.20684-0.0694-0.0981-0.09348-0.17644-0.09348-0.30413 0-0.196 0.06457-0.40454 0.14406-0.46524 0.04713-0.036 0.04121-0.066-0.04639-0.2355-0.07146-0.13823-0.09352-0.22112-0.07652-0.28745 0.02227-0.0869 0.03389-0.0917 0.17245-0.071 0.17122 0.0256 0.38268 0.12283 0.38268 0.176 0 0.02-0.01613 0.0914-0.03585 0.15875-0.03021 0.10318-0.02495 0.13311 0.03345 0.19032 0.06036 0.0591 0.08304 0.0623 0.17581 0.0247 0.05858-0.0238 0.15294-0.0873 0.20967-0.14109 0.05674-0.0538 0.13951-0.11667 0.18395-0.13963 0.05497-0.0284 0.0882-0.0871 0.10397-0.1837 0.01274-0.0781 0.0607-0.19267 0.10656-0.25467 0.14269-0.19289 0.31929-0.46085 0.37658-0.57139 0.07396-0.14272 0.19946-0.15919 0.25777-0.0338 0.0381 0.0819 0.03483 0.10101-0.02454 0.14354-0.03767 0.027-0.08795 0.0491-0.11173 0.0491-0.05831 0-0.09174 0.1447-0.06437 0.27871 0.02502 0.12253-0.03488 0.22197-0.11545 0.19168-0.08842-0.0332-0.22799 0.0209-0.28901 0.11215-0.06957 0.10401-0.04193 0.33477 0.0401 0.33477 0.0809 0 0.02633 0.0856-0.10068 0.15798-0.14277 0.0813-0.1687 0.11701-0.1694 0.2331-4.08e-4 0.0564-0.0418 0.12719-0.1086 0.1855-0.05943 0.0519-0.10805 0.1112-0.10805 0.13184 0 0.0206-0.02317 0.0602-0.05148 0.0879-0.04463 0.0437-0.03942 0.0716 0.03909 0.20917 0.04982 0.0873 0.07298 0.15874 0.05148 0.15874-0.04648 0-0.05024 0.0693-0.0074 0.13556 0.02266 0.035 0.04831 0.0378 0.0985 0.0107 0.17334-0.0936 0.44604-0.21186 0.44604-0.19345 0 0.0113-0.17018 0.17907-0.37819 0.37291-0.208 0.19383-0.37818 0.36548-0.37818 0.38143 0 0.0159 0.03265 0.0392 0.07256 0.0516 0.16717 0.052 0.0038 0.088-0.39884 0.088h-0.43009zm0.51968-0.65522c0.07194-0.0705 0.07187-0.11744-2.04e-4 -0.14454-0.07531-0.0283-0.16811 0.0659-0.13875 0.14079 0.02892 0.0738 0.06638 0.0748 0.13897 4e-3zm0.88501 1.0188c-0.04952-8e-3 -0.13867-0.0358-0.1981-0.0615-0.05943-0.0256-0.13236-0.0539-0.16208-0.0628-0.02971-9e-3 0.0108-0.0281 0.09005-0.0426 0.19251-0.0353 0.52728-0.23814 0.66103-0.4005 0.08387-0.10182 0.11801-0.12196 0.1517-0.0895 0.03394 0.0327 0.03132 0.0791-0.01195 0.21169-0.03049 0.0934-0.06653 0.23732-0.0801 0.31979l-0.02467 0.14995-0.16792-5e-3c-0.09235-3e-3 -0.20844-0.0115-0.25796-0.0197zm0.01303-0.13427c0.01262-0.0322 7.1e-5 -0.0529-0.03216-0.0529-0.02909 0-0.05289 0.0238-0.05289 0.0529s0.01448 0.0529 0.03216 0.0529 0.04149-0.0238 0.0529-0.0529zm0.89624 0.11467c0.02281-0.0679 0.17126-0.0776 0.17126-0.0113 0 0.036-0.03252 0.0554-0.09305 0.0554-0.05833 0-0.08751-0.0164-0.07822-0.0441zm0.57274 0.0128c-0.03495-0.0217-0.03885-0.049-0.01378-0.0965 0.01921-0.0364 0.03599-0.11683 0.03726-0.17868 0.0012-0.0619 0.01962-0.14416 0.0408-0.18291 0.02117-0.0387 0.03849-0.10989 0.03849-0.15809 0-0.11011 0.03395-0.19925 0.07589-0.19925 0.04105 0 0.04183 0.16252 0.0012 0.24047-0.01705 0.0327-0.04062 0.12293-0.05236 0.20054l-0.02136 0.14113 0.08928-0.10584c0.0491-0.0582 0.103-0.12172 0.11977-0.14113 0.03792-0.0439 0.3227-0.27313 0.38244-0.30788 0.02423-0.0141 0.06473-0.0745 0.09-0.13426 0.05727-0.13544 0.0234-0.1747-0.19827-0.22983-0.1428-0.0355-0.16848-0.0326-0.22175 0.0251-0.03314 0.0359-0.0651 0.0605-0.07102 0.0547-0.0059-6e-3 0.01342-0.11215 0.043-0.23633 0.02957-0.12417 0.04619-0.24513 0.03692-0.2688-0.01133-0.0289-0.09043-0.04-0.24144-0.0337-0.17929 7e-3 -0.23722 0.0245-0.28726 0.0851-0.08935 0.10809-0.18386 0.10077-0.15987-0.0124 0.01029-0.0485 0.02711-0.12789 0.03739-0.17641 0.01027-0.0485 0.04174-0.0882 0.06991-0.0882s0.06287-0.0185 0.07712-0.0411c0.02933-0.0465-0.14139-0.20591-0.22049-0.20591-0.02791 0-0.06913-0.0336-0.09158-0.0747-0.04207-0.077-0.02916-0.12034 0.15174-0.50972 0.03665-0.0789 0.06664-0.15431 0.06664-0.16759 0-0.0448-0.09888-0.0246-0.14479 0.0296-0.07966 0.094-0.08282 0.0246-0.0034-0.0743 0.09646-0.12013 0.09743-0.26718 0.0023-0.35152-0.07192-0.0638-0.07707-0.0638-0.19831 2e-4 -0.13956 0.0736-0.19743 0.0505-0.13168-0.0526 0.06894-0.10813 0.05432-0.14686-0.12272-0.32523-0.24772-0.24958-0.28018-0.23115-0.3127 0.17756-0.0177 0.22257-0.12619 0.36047-0.28358 0.36047-0.11363 0-0.12918-0.0518-0.04917-0.16371 0.04781-0.0669 0.04477-0.0808-0.03335-0.15268-0.04728-0.0435-0.10153-0.0697-0.12056-0.0582-0.01903 0.0115-0.05463-3e-3 -0.07911-0.0316-0.02448-0.0289-0.07494-0.0525-0.11213-0.0525-0.12374 0-0.08214-0.15874 0.07644-0.2917 0.07924-0.0664 0.14407-0.14452 0.14407-0.1735 0-0.0618-0.14625-0.13458-0.27058-0.13458-0.09456 0-0.35575-0.1493-0.49926-0.28538-0.04935-0.0468-0.18401-0.11813-0.29925-0.15853-0.21961-0.077-0.28786-0.16747-0.1525-0.20215 0.05944-0.0152 0.0736-0.0386 0.05823-0.0962-0.02431-0.091 0.0055-0.18246 0.05058-0.15516 0.01772 0.0107 0.03224 0.0555 0.03224 0.0995 0 0.1042 0.11938 0.21122 0.34262 0.30714 0.0988 0.0425 0.23637 0.12011 0.3057 0.17258 0.06933 0.0525 0.22775 0.14792 0.35204 0.21215 0.21829 0.11279 0.23115 0.11512 0.37818 0.0685 0.08371-0.0266 0.16912-0.0699 0.18978-0.0963 0.02868-0.0366 0.05258-1e-3 0.10098 0.14906 0.05332 0.16569 0.09321 0.21878 0.25057 0.33353 0.10294 0.0751 0.31172 0.25751 0.46397 0.40545 0.22158 0.21532 0.29841 0.26898 0.38506 0.26898 0.05954 0 0.11915 0.0173 0.13246 0.0384 0.01331 0.0211 0.05728 0.0299 0.0977 0.0195 0.0496-0.0127 0.11801 0.0185 0.21037 0.0959 0.07528 0.0631 0.18219 0.13739 0.23759 0.16505 0.0554 0.0277 0.16243 0.10052 0.23785 0.1619 0.07542 0.0614 0.18077 0.11972 0.23412 0.12965 0.05334 0.01 0.13619 0.03 0.1841 0.0447 0.07575 0.0231 0.08355 0.0178 0.0598-0.0408-0.01503-0.0371-0.03643-0.19443-0.04757-0.34967-0.01115-0.15523-0.04356-0.31737-0.07205-0.36029-0.04126-0.0622-0.04359-0.10239-0.01145-0.19778 0.02841-0.0843 0.0293-0.14821 3e-3 -0.21599-0.02055-0.0529-0.02723-0.1123-0.01485-0.13193 0.01237-0.0196-0.0095-0.0781-0.0487-0.13002-0.03917-0.0519-0.08229-0.12853-0.09582-0.17031-0.01354-0.0418-0.091-0.13471-0.17214-0.20652-0.13839-0.12247-0.15841-0.1293-0.323-0.11021-0.16715 0.0194-0.17364 0.017-0.13681-0.0504 0.02126-0.0389 0.03359-0.10255 0.0274-0.14138-0.01009-0.0632-0.01856-0.0654-0.08039-0.0208-0.0495 0.0357-0.07239 0.10235-0.08064 0.23479-0.01223 0.19628-0.07368 0.46-0.1072 0.46-0.05187 0-0.25253-0.13429-0.34268-0.22933-0.12748-0.1344-0.21826-0.41709-0.17213-0.53596 0.01838-0.0473 0.0334-0.12604 0.0334-0.17491 0-0.11222 0.07324-0.0939 0.13703 0.0343 0.02584 0.0519 0.06231 0.0944 0.08104 0.0944 0.05545 0 0.17812-0.13646 0.17812-0.19816 0-0.0401 0.02188-0.0514 0.0739-0.0381 0.05958 0.0153 0.0889-0.0113 0.15125-0.13701 0.04254-0.0858 0.08907-0.15595 0.10339-0.15595 0.05154 0 0.10727 0.24521 0.0837 0.36826-0.0216 0.11279-0.01603 0.12568 0.05434 0.12568 0.04313 0 0.11213 0.0177 0.15335 0.0393 0.06496 0.0341 0.07238 0.0305 0.05574-0.0265-0.01056-0.0362-0.03087-0.0935-0.04514-0.12749-0.0177-0.0421-0.0093-0.0617 0.02635-0.0617 0.02876 0 0.08136-0.0315 0.11688-0.0699 0.05258-0.0569 0.05622-0.0798 0.01956-0.12302-0.02657-0.0314-0.03543-0.0905-0.02162-0.14442 0.01287-0.0502 6e-3 -0.14171-0.01523-0.20333-0.05239-0.15199 0.02932-0.67093 0.10798-0.68576 0.02969-6e-3 0.10666 0.0369 0.17104 0.0946 0.10088 0.0903 0.1171 0.12817 0.11733 0.27431 6.13e-4 0.44314 0.10882 0.74853 0.28456 0.80383 0.03153 0.01 0.08975 0.0659 0.12937 0.1243 0.08657 0.12769 0.18048 0.16369 0.26077 0.0999 0.03257-0.0259 0.05129-0.0311 0.04159-0.0117s-0.04026 0.0797-0.06793 0.13396c-0.04153 0.0815-0.04243 0.12456-0.0052 0.24696 0.08847 0.29064 0.08848 0.29057-0.01031 0.33465-0.14816 0.0661-0.12139 0.14466 0.11213 0.32894 0.05113 0.0403 0.07832 0.11797 0.09452 0.26984 0.02445 0.22915 0.13356 0.46544 0.2819 0.61048 0.05074 0.0496 0.09932 0.11097 0.10795 0.13634 0.0119 0.035 0.04588 0.0281 0.14039-0.0283 0.13457-0.0803 0.28718-0.0745 0.47407 0.0182 0.13938 0.0691 0.16297 0.0627 0.29634-0.0799 0.11756-0.1257 0.12307-0.1275 0.29531-0.0962l0.17551 0.0319 0.0029 0.19326c0.0016 0.10629 0.0057 0.21055 9e-3 0.23169 0.0074 0.0469 0.16446 0.12033 0.25732 0.12033 0.1702 0 0.23513 0.21028 0.10893 0.35281-0.09074 0.10249-0.09061 0.14901 6.12e-4 0.22991 0.06947 0.0616 0.07226 0.10046 0.06303 0.87868l-0.0097 0.81425-0.45866 0.01c-0.42318 9e-3 -0.4635 4e-3 -0.52126-0.0617-0.0789-0.0903-0.17868-0.0906-0.31672-1e-3 -0.13979 0.0907-0.65553 0.10388-0.68932 0.0176-0.02321-0.0593-0.25154-0.0748-0.27115-0.0184-0.0066 0.019-0.15281 0.045-0.3249 0.058l-0.31289 0.0235 3e-3 -0.1027c3e-3 -0.10309-0.08527-0.30824-0.14929-0.347-0.03875-0.0235-0.21839 0.25779-0.21839 0.34193 0 0.0302-0.02564 0.0645-0.05697 0.0763-0.0877 0.033-1.0712 0.0243-1.1263-0.01zm2.1558-0.18036c0.03962-0.0388 0.07204-0.0953 0.07204-0.12556 0-0.0327 0.01693-0.0448 0.04168-0.0298 0.04647 0.0281 0.3378 0.0239 0.43555-6e-3 0.03467-0.0107 0.06303-0.0483 0.06303-0.0836 0-0.0892-0.26958-0.31926-0.37409-0.31926-0.12338 0-0.14334-0.1167-0.03673-0.2148l0.08538-0.0786 0.07731 0.0963c0.09391 0.11695 0.14997 0.0779 0.11738-0.0817-0.02005-0.0982-0.03645-0.11321-0.10889-0.0996-0.0721 0.0135-0.10512-0.016-0.21368-0.19109-0.13247-0.21361-0.23485-0.29689-0.32387-0.26343-0.02817 0.0106-0.05121 0.0605-0.05121 0.11089 0 0.12004-0.06086 0.22811-0.12846 0.22811-0.07452 0-0.10508-0.0957-0.05096-0.15955 0.06509-0.0768 0.02079-0.3251-0.07603-0.42606-0.05009-0.0522-0.12193-0.0847-0.18724-0.0847-0.09315 0-0.10301-0.01-0.08146-0.0794 0.04967-0.16084 0.03855-0.17878-0.16018-0.25832-0.19344-0.0774-0.19837-0.0777-0.20979-0.0106-0.0064 0.0378-0.0429 0.0878-0.08104 0.11115-0.03814 0.0233-0.06935 0.0618-0.06935 0.0854 0 0.0444 0.24253 0.30739 0.30615 0.33193 0.01981 8e-3 0.08166 0.0973 0.13744 0.19933 0.10515 0.19227 0.10259 0.20118-0.0654 0.2274-0.04395 7e-3 -0.07676 0.0439-0.08416 0.0949-0.01062 0.0733-1e-3 0.0809 0.07758 0.0616 0.07607-0.0187 0.09542-6e-3 0.12731 0.0836 0.04132 0.1161 0.09697 0.1288 0.28013 0.0639 0.17028-0.0603 0.29301 1e-3 0.30806 0.15432 0.0085 0.0862 0.03702 0.12822 0.11048 0.16253 0.06205 0.029 0.09905 0.0742 0.09905 0.12106v0.0748l-0.08336-0.0767c-0.09389-0.0864-0.24756-0.10083-0.30846-0.029-0.02528 0.0298-0.03177 0.10983-0.01732 0.21319 0.03482 0.24886 0.22047 0.34723 0.37311 0.19771zm1.6596-0.13841c0.16837-0.16493 0.12054-0.36749-0.10874-0.46053-0.13979-0.0567-0.21819-0.0261-0.21819 0.0851 0 0.0639-0.01489 0.0826-0.05403 0.0679-0.03781-0.0142-0.05402 3e-3 -0.05402 0.0564 0 0.0422-0.01609 0.10612-0.03577 0.14214-0.02877 0.0527-0.01644 0.0796 0.06303 0.13768 0.14242 0.1041 0.28222 0.0943 0.40773-0.0287zm-0.72312-0.44373c0-0.0291-0.02431-0.0529-0.05403-0.0529-0.02971 0-0.05403 0.0238-0.05403 0.0529s0.02431 0.0529 0.05403 0.0529c0.02971 0 0.05403-0.0238 0.05403-0.0529zm1.1886-0.16108c0-0.2034-0.16267-0.3673-0.2744-0.27647-0.12847 0.10444-0.13133 0.17118-0.01205 0.28034 0.06269 0.0574 0.15278 0.10429 0.20021 0.10429 0.07221 0 0.08623-0.0176 0.08623-0.10816zm-0.69084-0.415c0.0086-0.057-0.0071-0.0766-0.0609-0.0766-0.09479 0-0.13027 0.0602-0.07436 0.1262 0.05849 0.069 0.12088 0.0462 0.13526-0.0496zm-3.0048-0.0971c0.03937-0.10051 0.02068-0.13967-0.03331-0.0698-0.02908 0.0377-0.05288 0.0813-0.05288 0.097 0 0.0505 0.06361 0.0304 0.08619-0.0273zm2.8873-0.10742c-0.01895-0.0739-0.01264-0.0885 0.03116-0.072 0.0302 0.0113 0.0675-1e-3 0.0829-0.0284 0.0154-0.0269 0.09925-0.0541 0.18638-0.0603 0.23544-0.0168 0.26385-0.0884 0.13078-0.32961-0.05884-0.10666-0.14282-0.23744-0.18664-0.29061-0.07066-0.0858-0.08566-0.0907-0.13281-0.0438-0.03039 0.0303-0.06033 0.14631-0.06992 0.27096-0.01405 0.18271-0.03331 0.23306-0.11884 0.31071-0.07426 0.0674-0.12553 0.0869-0.18819 0.0715-0.06127-0.0151-0.08141-8e-3 -0.06981 0.0245 9e-3 0.0251 0.05766 0.0413 0.10819 0.036 0.07216-8e-3 0.10223 0.0133 0.14008 0.097 0.05924 0.13109 0.1192 0.14077 0.08672 0.014zm0.53614-0.011c0.0791-0.0856 0.04421-0.15849-0.05179-0.10817-0.03711 0.0195-0.11002 0.0354-0.16202 0.0354-0.10734 0-0.09063 0.0582 0.03046 0.10608 0.1095 0.0433 0.11324 0.0426 0.18335-0.0333zm-1.9621-0.21605c-0.02056-0.0376-0.06112-0.0684-0.09014-0.0684-0.06848 0-0.06672 0.0323 0.0061 0.11106 0.07375 0.0798 0.13422 0.0492 0.08406-0.0426zm-1.6286-0.0269c0.05332-0.0332 0.26093-0.36448 0.32835-0.52399 0.02605-0.0616 0.0378-0.14159 0.02611-0.17767-0.03365-0.10385-0.52554-0.39943-0.52554-0.3158 0 7e-3 -0.04844 0.16928-0.10764 0.36164-0.1408 0.45747-0.13984 0.52608 0.0086 0.61473 0.12525 0.0748 0.19811 0.0859 0.27014 0.0411zm1.7378-0.33522c0-0.0257-0.04052-0.0841-0.09004-0.12963-0.04953-0.0456-0.09005-0.10939-0.09005-0.14181 0-0.0324-0.03318-0.0884-0.07374-0.12432-0.04594-0.0407-0.0697-0.0993-0.06303-0.15541 0.0093-0.0785 0.03153-0.0923 0.17247-0.10769 0.19-0.0207 0.21333-0.0722 0.10855-0.23933-0.12676-0.20222-0.2787-0.19575-0.44374 0.0189-0.08356 0.10868-0.09726 0.15364-0.07786 0.25555 0.01295 0.068 0.05436 0.15192 0.09204 0.18645 0.0565 0.0518 0.06095 0.0746 0.02544 0.13033-0.05237 0.0821 0.027 0.1833 0.22383 0.28529 0.15105 0.0783 0.21614 0.0848 0.21614 0.0217zm-0.15233-1.5695c0.02015-0.0592-0.09608-0.0949-0.14693-0.0451-0.03239 0.0317-0.02971 0.0492 0.01141 0.0747 0.06387 0.0395 0.11586 0.0282 0.13551-0.0295zm-3.0893-0.34389c0-0.0303-0.01648-0.045-0.0366-0.0328-0.02013 0.0122-0.02728 0.0369-0.01589 0.055 0.03087 0.0489 0.05249 0.0398 0.05249-0.0222zm0.42151 3.5905c-0.19248-0.19309-0.17863-0.23347 0.07141-0.20819 0.22902 0.0231 0.40752-0.0467 0.40752-0.15956 0-0.0346 0.01525-0.063 0.03389-0.063 0.13084 0 0.03718 0.28835-0.13444 0.41388-0.07346 0.0537-0.13896 0.10961-0.14557 0.12416-0.02594 0.0572-0.10531 0.0206-0.23281-0.10733zm-0.35068-1.1378c-0.02905-0.018-0.11264-0.033-0.18576-0.0333-0.15604-6e-4 -0.2119-0.062-0.1178-0.12938 0.12453-0.0892 0.44884-0.0472 0.44884 0.0581 0 0.0874-0.08002 0.145-0.14528 0.10458zm-1.1355-0.54714c0.07743-0.0567 0.14332-0.0684 0.11286-0.0202-0.01076 0.0171-0.05629 0.0401-0.10117 0.0512-0.07872 0.0194-0.07914 0.0183-0.01168-0.031zm1.1367-0.0998c0-0.0299 0.03205-0.0837 0.07121-0.11941 0.08747-0.0798 0.37639-0.24159 0.35429-0.19837-0.0088 0.0172-0.03703 0.0836-0.06276 0.14754-0.02573 0.0639-0.06519 0.1096-0.0877 0.10143-0.02251-8e-3 -0.0936 0.0162-0.15798 0.0542-0.09904 0.0584-0.11706 0.0607-0.11706 0.0146zm-1.8238-0.38045c-0.01709-0.0259-0.03661-0.26217-0.04337-0.52493l-0.01229-0.47775 0.15159-0.14849c0.17329-0.16975 0.32358-0.20194 0.32265-0.0691-8.17e-4 0.10188-0.02896 0.13763-0.16127 0.20408-0.14142 0.071-0.15425 0.15938-0.0384 0.26455 0.07347 0.0667 0.0888 0.10557 0.07022 0.17808-0.01307 0.051-0.0027 0.17893 0.02313 0.28426 0.04795 0.19578 0.02937 0.25987-0.08186 0.28234-0.02496 5e-3 -0.08003 0.0193-0.12236 0.0317-0.04692 0.0137-0.08911 4e-3 -0.10805-0.0247zm7.231-0.30635c-0.0053-0.13805-0.10254-0.3151-0.18764-0.34156-0.19196-0.0597-0.25732-0.38189-0.11373-0.5607 0.04442-0.0553 0.08076-0.13618 0.08076-0.1797 0-0.1287 0.22565-0.24152 0.2678-0.1339 0.03024 0.0772 0.01946 0.99177-0.01384 1.1751-0.02612 0.14378-0.02926 0.14762-0.03335 0.0407zm-1.817-0.60839c-0.10298-0.15407-0.12224-0.2593-0.05494-0.30005 0.02283-0.0138 0.11989-0.0312 0.21569-0.0386 0.17194-0.0133 0.17375-0.0123 0.1406 0.0731-0.01848 0.0476-0.03139 0.11562-0.02872 0.15117 0.0051 0.0674-0.10638 0.25868-0.15071 0.25868-0.01401 0-0.06888-0.0649-0.12192-0.14429zm0.9243-0.50432c-0.09166-0.0885-0.11882-0.14995-0.13957-0.31556-0.01417-0.1131-0.02489-0.24805-0.02382-0.29989 1e-3 -0.0519-0.03245-0.17796-0.07448-0.28025-0.07213-0.17554-0.07296-0.18937-0.01476-0.24637 0.07852-0.0769 0.17134-0.0271 0.20944 0.11249 0.01474 0.054 0.05077 0.12419 0.08009 0.15607 0.02932 0.0319 0.06479 0.10305 0.07884 0.15817 0.01405 0.0551 0.08825 0.1712 0.16488 0.25794 0.07664 0.0867 0.13934 0.19282 0.13934 0.23573 0 0.0889-0.19963 0.34348-0.26375 0.33634-0.02332-3e-3 -0.09361-0.0542-0.15621-0.11467zm-5.8111 0.0371c0-0.0616 0.09016-0.19997 0.12326-0.18916 0.06498 0.0212 0.04349 0.10099-0.04223 0.15674-0.04457 0.029-0.08104 0.0436-0.08104 0.0324zm4.9074-0.41279c-0.04457-0.0176-0.08104-0.0531-0.08104-0.079 0-0.0452 0.13291-0.17913 0.32416-0.32668l0.09004-0.0695-0.06733 0.078c-0.06631 0.0768-0.06719 0.15769-0.0039 0.3542 0.02254 0.07 0.01331 0.0791-0.07767 0.0772-0.05679-1e-3 -0.13972-0.0166-0.18429-0.0342zm-4.2693-0.10506c-0.05379-0.0414-0.09781-0.0898-0.09781-0.10749 0-0.0177 0.07871-0.0712 0.1749-0.11895 0.12735-0.0632 0.18569-0.0763 0.21458-0.048 0.08167 0.08 0.15078-0.0386 0.15078-0.25883 0-0.18385-0.0082-0.20737-0.07203-0.20737-0.03962 0-0.07204-0.0232-0.07204-0.0517 0-0.0284 0.03242-0.0687 0.07204-0.0894 0.06097-0.032 0.07203-0.0739 0.07203-0.27291 0-0.16807 0.01107-0.2243 0.03882-0.19712 0.04588 0.0449 0.11166 0.27917 0.10872 0.38713-0.0012 0.0417 0.02138 0.0847 0.05005 0.0955 0.04138 0.0156 0.04759 0.0671 0.03011 0.25048-0.02312 0.24246-0.02711 0.23582 0.1473 0.24493 0.12266 6e-3 0.10236 0.0874-0.06389 0.25498-0.15741 0.15865-0.17099 0.16459-0.40929 0.1791-0.21123 0.0129-0.26046 4e-3 -0.34428-0.0604zm6.0318-0.65348c0.0063-0.0491 0.02761-0.0893 0.04741-0.0893 0.01981 0 0.04115 0.0402 0.04742 0.0893 0.0081 0.0636-0.0055 0.0893-0.04742 0.0893-0.04191 0-0.05554-0.0257-0.04741-0.0893zm-0.7051-0.24876c-0.03458-0.0883-0.02597-0.1206 0.03216-0.1206 0.03362 0 0.05403 0.0333 0.05403 0.0882 0 0.0985-0.05254 0.11829-0.08619 0.0324zm-3.7677-0.0148c0-0.0194 0.02932-0.0353 0.06515-0.0353s0.09661-0.0233 0.13507-0.0518c0.03845-0.0285 0.11854-0.0516 0.17797-0.0514 0.10508 4e-4 0.10421 2e-3 -0.03152 0.0492-0.07677 0.0268-0.157 0.0658-0.17829 0.0867-0.04879 0.0478-0.16838 0.0497-0.16838 3e-3zm-2.6534-0.10358c-0.03184-0.0826-0.0298-0.10737 0.01011-0.12237 0.02751-0.0103 0.05024 6e-4 0.05052 0.0242 2.04e-4 0.0236 0.01027 0.0787 0.02221 0.12238 0.03192 0.11668-0.03622 0.0968-0.08284-0.0242zm7.1164-0.13245c-0.07225-0.18316-0.07934-0.31127-0.01989-0.35961 0.09175-0.0746 0.13116-0.0122 0.13116 0.20754 0 0.23181-0.05187 0.30269-0.11128 0.15207zm-1.7436-0.0728c-0.05943-0.0305-0.13236-0.0664-0.16208-0.0799-0.06202-0.0282-0.08796-0.11949-0.05665-0.19942 0.01707-0.0436 0.03219-0.0461 0.07361-0.0125 0.03257 0.0265 0.09504 0.0331 0.16654 0.0178 0.10938-0.0235 0.11338-0.0206 0.09083 0.0674-0.01727 0.0675-0.0097 0.0921 0.02851 0.0921 0.07484 0 0.2014-0.17085 0.2014-0.27189 0-0.0693 0.01607-0.0839 0.08297-0.0753 0.04741 6e-3 0.16166-0.0388 0.26659-0.10477 0.20489-0.12879 0.51487-0.43619 0.51487-0.51059 0-0.0643-0.16573-0.21457-0.2082-0.18885-0.0184 0.0111-0.06968-0.0175-0.11396-0.0637l-0.08052-0.084 0.13644-0.0634c0.07504-0.0349 0.18658-0.0592 0.24787-0.054 0.07556 6e-3 0.13304-0.014 0.17854-0.0632 0.03691-0.0399 0.10106-0.0727 0.14256-0.0729 0.0415-1.1e-4 0.12172-0.0238 0.17826-0.0527 0.05654-0.0289 0.11728-0.0437 0.13498-0.033 0.03321 0.0201 0.03787 0.31175 0.0077 0.4829-0.01462 0.0829-0.03441 0.097-0.13636 0.097-0.15618 0-0.43309 0.18708-0.57858 0.39088-0.0629 0.0881-0.2274 0.23275-0.37805 0.33239-0.14668 0.097-0.30341 0.23198-0.34829 0.29989-0.15758 0.23851-0.19096 0.25137-0.38899 0.14984zm1.5237-1.2466c0.08314-0.0599 0.15116-0.12164 0.15116-0.13722 0-0.0156-0.02941-0.0639-0.06535-0.10737l-0.06535-0.079-0.15076 0.0932c-0.1629 0.10073-0.16846 0.11271-0.11563 0.24881 0.04465 0.11503 0.06257 0.11369 0.24592-0.0184zm-2.4601 1.1531c-0.16518-0.0714-0.24183-0.17273-0.21371-0.28247 0.01315-0.0513 0.05071-0.10734 0.08346-0.12451 0.03276-0.0172 0.12986-0.11288 0.21577-0.21268 0.14884-0.17291 0.15331-0.18459 0.09485-0.24787-0.05824-0.063-0.05591-0.0732 0.04605-0.20094 0.07013-0.0879 0.1292-0.22637 0.1702-0.39914 0.03454-0.14554 0.07481-0.27761 0.08948-0.29349 0.01468-0.0159 0.08446-5e-3 0.15509 0.0237 0.14691 0.0601 0.2416 0.21083 0.2405 0.38272-0.0012 0.18086-0.14118 0.74864-0.22808 0.92494-0.02949 0.0598-0.0799 0.18253-0.11202 0.27265-0.06122 0.17181-0.11634 0.20647-0.32547 0.20473-0.05943-4e-4 -0.15668-0.0219-0.2161-0.0476zm-2.6252-1.2974c-0.02827-0.13844-0.0051-0.17018 0.12405-0.17018 0.11963 0 0.13093 0.0357 0.04974 0.15704-0.08728 0.1305-0.14888 0.13515-0.17379 0.0131zm-0.23825-0.0589c0-0.12804 0.13136-0.25848 0.18174-0.18047 0.04173 0.0646 0.04331 0.10444 0.0041 0.10444-0.01662 0-0.0487 0.0397-0.07126 0.0882-0.05495 0.11813-0.11461 0.11179-0.11461-0.0122zm-0.74121 6e-3c-0.04249-0.13357-0.08098-0.16986-0.18154-0.17117-0.05706-8e-4 -0.14937-0.0206-0.20514-0.0441-0.15082-0.0636-0.26172-0.052-0.31957 0.0333-0.04029 0.0594-0.07275 0.0709-0.14846 0.0523l-0.0969-0.0238v-1.3018c0-0.71602 0.0098-1.3268 0.02176-1.3574 0.02498-0.0638 0.17463-0.0433 0.26921 0.0369 0.03127 0.0265 0.08881 0.0482 0.12786 0.0482 0.03905 0 0.09036 0.019 0.11402 0.0421 0.03335 0.0327 0.06024 0.024 0.11963-0.0384 0.06562-0.069 0.09535-0.0763 0.2073-0.051 0.07188 0.0163 0.2482 0.0282 0.39182 0.0265 0.28495-3e-3 0.31077 0.0196 0.20296 0.18078-0.07097 0.1061-0.09651 0.10747-0.22798 0.0123l-0.10314-0.0747-0.21056 0.0936c-0.1158 0.0515-0.25918 0.14124-0.31861 0.19944-0.05943 0.0582-0.17054 0.15874-0.24691 0.22342-0.14447 0.12236-0.14526 0.1323-0.02416 0.30325 0.03201 0.0452 0.04729 0.0405 0.10465-0.032 0.08737-0.11042 0.16086-0.081 0.25647 0.10253 0.08769 0.16837 0.15831 0.20628 0.24446 0.13123 0.04449-0.0388 0.13905-0.0531 0.33922-0.0515 0.31121 3e-3 0.36316 0.0416 0.22467 0.16909-0.10172 0.0936-0.34012 0.53829-0.34012 0.63442 0 0.0364-0.03647 0.12203-0.08104 0.19028-0.25854 0.3959-0.276 0.44686-0.12613 0.36829 0.09381-0.0492 0.21271 0.0487 0.14259 0.11734-0.02391 0.0234-0.04348 0.0782-0.04348 0.12165 0 0.10104-0.06616 0.14306-0.0929 0.059zm1.5161-0.15145c-0.0266-0.0421 0.04263-0.17714 0.09085-0.17714 0.01911 0 0.03475 0.0476 0.03475 0.10585 0 0.10424-0.07718 0.14804-0.1256 0.0713zm0.99002-0.24338c0-0.0727 0.0961-0.16891 0.13278-0.13298 0.03123 0.0306-0.05002 0.19922-0.09599 0.19922-0.02023 0-0.03679-0.0298-0.03679-0.0662zm0.31672-0.23506c-0.04289-0.042-0.4198-0.16764-0.62662-0.20886-0.25758-0.0513-0.3024-0.0737-0.3024-0.15117 0-0.0316-0.03067-0.0902-0.06815-0.13023-0.03748-0.0401-0.07866-0.12165-0.09152-0.18132-0.02088-0.0969-0.0045-0.12574 0.15307-0.27015 0.09705-0.0889 0.23953-0.19469 0.31663-0.23504 0.0771-0.0403 0.20662-0.12231 0.28783-0.18213 0.12652-0.0932 0.1848-0.11069 0.40729-0.12216 0.33433-0.0172 0.52099 0.0576 0.48575 0.1947-0.04082 0.15885-0.03437 0.19423 0.03439 0.18857 0.05202-4e-3 0.06292 0.0133 0.04985 0.0802-0.02507 0.12847 0.02725 0.13297 0.16531 0.0142 0.13652-0.11741 0.2045-0.13504 0.2045-0.053 0 0.0395 0.0236 0.0478 0.09004 0.0315 0.06809-0.0167 0.09004-8e-3 0.09004 0.0346 0 0.037 0.03132 0.0568 0.09004 0.0568 0.05403 0 0.09005 0.0202 0.09005 0.0504 0 0.0539 0.05218 0.11312 0.20071 0.22756l0.09305 0.0717-0.11987 0.11693c-0.06593 0.0643-0.1812 0.16257-0.25616 0.21836-0.1165 0.0867-0.14265 0.0941-0.18009 0.0505-0.11377-0.13231-0.15692-0.14159-0.29787-0.064-0.08053 0.0443-0.16774 0.0664-0.21559 0.0547-0.0485-0.0119-0.09802 1e-3 -0.12491 0.0328-0.0245 0.0289-0.073 0.0526-0.10776 0.0526-0.03477 0-0.08259 0.0229-0.10628 0.0508-0.02368 0.028-0.06455 0.0427-0.09081 0.0329-0.02626-0.01-0.05845-1e-3 -0.07153 0.0197-0.0258 0.0409-0.06814 0.0489-0.099 0.0187zm3.0094-0.0431c-0.07046-0.0113-0.10428-0.0638-0.17038-0.2649-0.01129-0.0344-0.06954-0.0721-0.12944-0.0838-0.13645-0.0267-0.13737-0.0746-0.0038-0.19809 0.09277-0.0858 0.11702-0.0926 0.2071-0.0588 0.05611 0.0211 0.22764 0.0372 0.38116 0.0358l0.27914-3e-3v0.19167c0 0.10542-0.01305 0.19957-0.029 0.20923-0.01595 0.01-0.09085 4e-3 -0.16645-0.0128-0.18051-0.0399-0.24774-0.013-0.22169 0.0887 0.0223 0.087-0.02144 0.1155-0.14662 0.0955zm-4.2266-0.14952c0-0.0194 0.01621-0.0353 0.03602-0.0353s0.03602 0.0159 0.03602 0.0353-0.01621 0.0353-0.03602 0.0353-0.03602-0.0159-0.03602-0.0353zm-0.74965-0.34399c-0.02092-0.0534-0.03923-0.28754-0.04068-0.5204-0.0014-0.23286-6e-3 -0.44719-0.01003-0.4763-0.0041-0.0291 0.0061-0.17597 0.02253-0.32635 0.02088-0.19087 0.04453-0.27343 0.07832-0.27343 0.0372 0 0.04793 0.076 0.04635 0.32823-0.0014 0.23257 0.0156 0.36881 0.05853 0.46748 0.08076 0.18562 0.09055 0.3527 0.03195 0.54498-0.02661 0.0873-0.05708 0.20243-0.0677 0.25579-0.01062 0.0534-0.03325 0.097-0.05028 0.097s-0.04808-0.0437-0.069-0.097zm4.3514-0.19911c-0.18712-0.058-0.44322-0.21788-0.52709-0.32917-0.14191-0.1883-0.16836-0.33589-0.10428-0.5819 0.0681-0.26142 0.16023-0.44468 0.3229-0.64227 0.06517-0.0792 0.12913-0.18759 0.14213-0.24095 0.01813-0.0744 0.04504-0.097 0.11543-0.097 0.07605 0 0.08778 0.0124 0.06842 0.0721-0.0286 0.0883 0.04935 0.42002 0.11553 0.49171 0.03922 0.0425 0.06145 0.0441 0.11918 9e-3 0.1493-0.0913 0.17246-0.0346 0.09036 0.2212-0.01246 0.0388 0.01111 0.011 0.05236-0.0617 0.04126-0.0728 0.08988-0.13231 0.10804-0.13231 0.06498 0 0.0754 0.0701 0.02474 0.16655-0.02833 0.0539-0.06863 0.2092-0.08957 0.34503-0.02094 0.13584-0.06806 0.35666-0.10472 0.49073-0.07929 0.28997-0.14551 0.34742-0.33343 0.28922zm0.38166-0.0865c-0.01246-0.0198-0.0051-0.0465 0.01634-0.0595 0.05538-0.0335 0.0911 0.0124 0.04488 0.0577-0.02587 0.0253-0.04601 0.026-0.06122 2e-3zm0.43997-0.12975c-0.0117-0.0115-8e-3 -0.0715 0.0082-0.13352 0.01619-0.062 0.04682-0.17804 0.06805-0.25791 0.07544-0.28389 0.0551-0.37021-0.12374-0.52513-0.1378-0.11937-0.16636-0.16696-0.18528-0.30871-0.01891-0.14176-0.01309-0.16759 0.03777-0.16759 0.03308 0 0.09442-0.0569 0.13633-0.1265l0.07619-0.12649 0.08247 0.16762c0.04536 0.0922 0.12398 0.20533 0.17472 0.25141 0.0792 0.0719 0.09224 0.11367 0.09224 0.29529 0 0.13941-0.02081 0.24261-0.06106 0.30278-0.03358 0.0502-0.08639 0.21219-0.11735 0.35997-0.03837 0.18314-0.07396 0.27201-0.11178 0.27914-0.03052 6e-3 -0.06506 1e-3 -0.07675-0.0104zm-6.8865-1.4097c-0.03731-0.0558-0.05817-0.1633-0.05817-0.29989 0-0.2216 0.02985-0.2667 0.09051-0.13678 0.01956 0.0419 0.06947 0.0977 0.11093 0.1241 0.06577 0.0418 0.08696 0.039 0.16626-0.0221 0.04998-0.0385 0.10116-0.06 0.11371-0.0477 0.03434 0.0336 0.02745 0.18701-0.0084 0.18701-0.01717 0-0.07414 0.0635-0.12657 0.14113-0.10979 0.16251-0.20397 0.1802-0.28827 0.0542zm1.8868-0.0874c0-0.0183 0.03647-0.0937 0.08104-0.16758 0.07115-0.11793 0.08241-0.12489 0.09227-0.057 0.0062 0.0425-0.01595 0.11793-0.04916 0.16759-0.06043 0.0903-0.12415 0.11961-0.12415 0.057zm4.8516-0.31064c-0.20294-0.15082-0.16682-0.25587 0.08797-0.25587h0.10731l-0.02483 0.16758c-0.01366 0.0922-0.0282 0.1716-0.03231 0.1765-0.0041 5e-3 -0.06628-0.0348-0.13814-0.0882z" fill="#804500"/>
</g>
</svg>
