<svg xmlns="http://www.w3.org/2000/svg" viewBox="0 0 16 16"><path fill="#888" d="M1 7h14v1H1z" style="paint-order:fill markers stroke"/><path fill="#888" d="M5 1C3.338 1 2 2.338 2 4v4h1V4c0-1.108.892-2 2-2h6c1.108 0 2 .892 2 2v4h1V4c0-1.662-1.338-3-3-3zM0 14h6l1 1H0zm7.5-5h1v4h-1z" style="paint-order:fill markers stroke"/><path fill="#888" d="M-4.243 14.556h3v1h-3z" style="paint-order:fill markers stroke" transform="rotate(-45)"/><path fill="#888" d="M-15.556 3.243h3v1h-3z" style="paint-order:fill markers stroke" transform="rotate(45)scale(-1 1)"/><path fill="#888" d="M16 14h-6l-1 1h7z" style="paint-order:fill markers stroke"/></svg>