<?xml version="1.0" encoding="UTF-8" standalone="no"?>
<svg
   width="128"
   height="128"
   version="1.1"
   viewBox="0 0 128 128"
   id="svg6"
   sodipodi:docname="octopi.svg"
   inkscape:version="1.4.3 (0d15f75042, 2025-12-25)"
   xmlns:inkscape="http://www.inkscape.org/namespaces/inkscape"
   xmlns:sodipodi="http://sodipodi.sourceforge.net/DTD/sodipodi-0.dtd"
   xmlns="http://www.w3.org/2000/svg"
   xmlns:svg="http://www.w3.org/2000/svg">
  <sodipodi:namedview
     id="namedview6"
     pagecolor="#ffffff"
     bordercolor="#000000"
     borderopacity="0.25"
     inkscape:showpageshadow="2"
     inkscape:pageopacity="0.0"
     inkscape:pagecheckerboard="0"
     inkscape:deskcolor="#d1d1d1"
     inkscape:zoom="7.328125"
     inkscape:cx="64"
     inkscape:cy="64"
     inkscape:window-width="1920"
     inkscape:window-height="1168"
     inkscape:window-x="0"
     inkscape:window-y="0"
     inkscape:window-maximized="1"
     inkscape:current-layer="svg6" />
  <defs
     id="defs2">
    <linearGradient
       id="linearGradient826"
       x1="66.53"
       x2="64.334"
       y1="122.26"
       y2="5.9834"
       gradientUnits="userSpaceOnUse">
      <stop
         stop-color="#23b200"
         offset="0"
         id="stop1" />
      <stop
         stop-color="#00f48d"
         offset="1"
         id="stop2" />
    </linearGradient>
  </defs>
  <linearGradient
     id="b"
     x1="66.016"
     x2="64.334"
     y1="119.35"
     y2="1.3385"
     gradientUnits="userSpaceOnUse">
    <stop
       stop-color="#dcdde0"
       offset="0"
       id="stop3" />
    <stop
       stop-color="#f7f9f9"
       offset="1"
       id="stop4" />
  </linearGradient>
  <path
     d="m124.9 64.226a60.566 60.566 0 0 1-60.566 60.566 60.566 60.566 0 0 1-60.566-60.566 60.566 60.566 0 0 1 60.566-60.566 60.566 60.566 0 0 1 60.566 60.566z"
     fill="url(#linearGradient826)"
     stroke="#cccdd1"
     stroke-width="4.6449"
     id="path4" />
  <path
     d="m64.334 1.3385c-34.705 0-62.888 28.182-62.888 62.887 0 34.705 28.184 62.888 62.888 62.888 34.705 0 62.887-28.184 62.887-62.888 0-34.705-28.182-62.887-62.887-62.887zm0 4.6449c32.194 0 58.242 26.048 58.242 58.242 0 32.194-26.048 58.243-58.242 58.243-32.194 0-58.243-26.049-58.243-58.243 0-32.194 26.049-58.242 58.243-58.242z"
     fill="url(#b)"
     id="path5" />
</svg>
